<?xml version="1.0" encoding="utf-8" standalone="no"?>
<!DOCTYPE svg PUBLIC "-//W3C//DTD SVG 1.1//EN"
  "http://www.w3.org/Graphics/SVG/1.1/DTD/svg11.dtd">
<svg xmlns:xlink="http://www.w3.org/1999/xlink" width="399.470833pt" height="352.15625pt" viewBox="0 0 399.470833 352.15625" xmlns="http://www.w3.org/2000/svg" version="1.1">
 <metadata>
  <rdf:RDF xmlns:dc="http://purl.org/dc/elements/1.1/" xmlns:cc="http://creativecommons.org/ns#" xmlns:rdf="http://www.w3.org/1999/02/22-rdf-syntax-ns#">
   <cc:Work>
    <dc:type rdf:resource="http://purl.org/dc/dcmitype/StillImage"/>
    <dc:date>2022-03-25T10:15:15.492039</dc:date>
    <dc:format>image/svg+xml</dc:format>
    <dc:creator>
     <cc:Agent>
      <dc:title>Matplotlib v3.5.1, https://matplotlib.org/</dc:title>
     </cc:Agent>
    </dc:creator>
   </cc:Work>
  </rdf:RDF>
 </metadata>
 <defs>
  <style type="text/css">*{stroke-linejoin: round; stroke-linecap: butt}</style>
 </defs>
 <g id="figure_1">
  <g id="patch_1">
   <path d="M 0 352.15625 
L 399.470833 352.15625 
L 399.470833 0 
L 0 0 
L 0 352.15625 
z
" style="fill: none"/>
  </g>
  <g id="axes_1">
   <g id="patch_2">
    <path d="M 52.160938 314.6 
L 344.433333 314.6 
L 344.433333 7.2 
L 52.160938 7.2 
z
" style="fill: #ffffff"/>
   </g>
   <g id="patch_3">
    <path d="M 100.873003 270.404684 
L 100.873003 270.404684 
L 100.873003 270.404684 
L 100.873003 270.404684 
z
" clip-path="url(#p3c7ed8a2f0)" style="fill: #3274a1; stroke: #3f3f3f; stroke-width: 0.75; stroke-linejoin: miter"/>
   </g>
   <g id="PolyCollection_1">
    <defs>
     <path id="mcdf133be17" d="M 100.873003 -79.822273 
L 98.522672 -79.822273 
L 97.238853 -80.042328 
L 95.474866 -80.262383 
L 93.165187 -80.482438 
L 90.28561 -80.702493 
L 86.871 -80.922548 
L 83.0261 -81.142603 
L 78.925016 -81.362658 
L 74.797216 -81.582712 
L 70.901297 -81.802767 
L 67.491162 -82.022822 
L 64.781433 -82.242877 
L 62.919218 -82.462932 
L 61.967623 -82.682987 
L 61.903351 -82.903042 
L 62.627477 -83.123097 
L 63.985862 -83.343152 
L 65.794318 -83.563207 
L 67.863512 -83.783262 
L 70.019565 -84.003317 
L 72.117843 -84.223372 
L 74.049286 -84.443426 
L 75.740317 -84.663481 
L 77.148508 -84.883536 
L 78.256572 -85.103591 
L 79.066804 -85.323646 
L 79.597071 -85.543701 
L 79.878305 -85.763756 
L 79.952674 -85.983811 
L 79.871361 -86.203866 
L 79.691279 -86.423921 
L 79.47071 -86.643976 
L 79.264474 -86.864031 
L 79.11956 -87.084085 
L 79.072081 -87.30414 
L 79.14604 -87.524195 
L 79.353871 -87.74425 
L 79.698308 -87.964305 
L 80.17485 -88.18436 
L 80.774135 -88.404415 
L 81.483713 -88.62447 
L 82.289055 -88.844525 
L 83.173939 -89.06458 
L 84.120564 -89.284635 
L 85.109752 -89.50469 
L 86.121448 -89.724745 
L 87.135533 -89.944799 
L 88.132756 -90.164854 
L 89.095572 -90.384909 
L 90.008703 -90.604964 
L 90.859448 -90.825019 
L 91.637852 -91.045074 
L 92.336905 -91.265129 
L 92.952822 -91.485184 
L 93.485339 -91.705239 
L 93.937858 -91.925294 
L 94.31727 -92.145349 
L 94.633448 -92.365404 
L 94.898506 -92.585458 
L 95.126037 -92.805513 
L 95.330499 -93.025568 
L 95.526737 -93.245623 
L 95.729501 -93.465678 
L 95.952681 -93.685733 
L 96.208105 -93.905788 
L 96.503944 -94.125843 
L 96.84305 -94.345898 
L 97.221769 -94.565953 
L 97.62975 -94.786008 
L 98.051078 -95.006063 
L 98.466634 -95.226118 
L 98.857229 -95.446172 
L 99.206759 -95.666227 
L 99.504628 -95.886282 
L 99.746896 -96.106337 
L 99.935992 -96.326392 
L 100.079208 -96.546447 
L 100.186496 -96.766502 
L 100.268164 -96.986557 
L 100.333009 -97.206612 
L 100.387219 -97.426667 
L 100.434141 -97.646722 
L 100.47478 -97.866777 
L 100.508765 -98.086831 
L 100.53544 -98.306886 
L 100.554772 -98.526941 
L 100.567859 -98.746996 
L 100.576947 -98.967051 
L 100.585017 -99.187106 
L 100.595109 -99.407161 
L 100.609619 -99.627216 
L 100.629781 -99.847271 
L 100.655471 -100.067326 
L 100.685359 -100.287381 
L 100.71733 -100.507436 
L 100.749023 -100.727491 
L 100.778331 -100.947545 
L 100.803742 -101.1676 
L 100.824481 -101.387655 
L 100.840462 -101.60771 
L 100.873003 -101.60771 
L 100.873003 -101.60771 
L 100.873003 -101.387655 
L 100.873003 -101.1676 
L 100.873003 -100.947545 
L 100.873003 -100.727491 
L 100.873003 -100.507436 
L 100.873003 -100.287381 
L 100.873003 -100.067326 
L 100.873003 -99.847271 
L 100.873003 -99.627216 
L 100.873003 -99.407161 
L 100.873003 -99.187106 
L 100.873003 -98.967051 
L 100.873003 -98.746996 
L 100.873003 -98.526941 
L 100.873003 -98.306886 
L 100.873003 -98.086831 
L 100.873003 -97.866777 
L 100.873003 -97.646722 
L 100.873003 -97.426667 
L 100.873003 -97.206612 
L 100.873003 -96.986557 
L 100.873003 -96.766502 
L 100.873003 -96.546447 
L 100.873003 -96.326392 
L 100.873003 -96.106337 
L 100.873003 -95.886282 
L 100.873003 -95.666227 
L 100.873003 -95.446172 
L 100.873003 -95.226118 
L 100.873003 -95.006063 
L 100.873003 -94.786008 
L 100.873003 -94.565953 
L 100.873003 -94.345898 
L 100.873003 -94.125843 
L 100.873003 -93.905788 
L 100.873003 -93.685733 
L 100.873003 -93.465678 
L 100.873003 -93.245623 
L 100.873003 -93.025568 
L 100.873003 -92.805513 
L 100.873003 -92.585458 
L 100.873003 -92.365404 
L 100.873003 -92.145349 
L 100.873003 -91.925294 
L 100.873003 -91.705239 
L 100.873003 -91.485184 
L 100.873003 -91.265129 
L 100.873003 -91.045074 
L 100.873003 -90.825019 
L 100.873003 -90.604964 
L 100.873003 -90.384909 
L 100.873003 -90.164854 
L 100.873003 -89.944799 
L 100.873003 -89.724745 
L 100.873003 -89.50469 
L 100.873003 -89.284635 
L 100.873003 -89.06458 
L 100.873003 -88.844525 
L 100.873003 -88.62447 
L 100.873003 -88.404415 
L 100.873003 -88.18436 
L 100.873003 -87.964305 
L 100.873003 -87.74425 
L 100.873003 -87.524195 
L 100.873003 -87.30414 
L 100.873003 -87.084085 
L 100.873003 -86.864031 
L 100.873003 -86.643976 
L 100.873003 -86.423921 
L 100.873003 -86.203866 
L 100.873003 -85.983811 
L 100.873003 -85.763756 
L 100.873003 -85.543701 
L 100.873003 -85.323646 
L 100.873003 -85.103591 
L 100.873003 -84.883536 
L 100.873003 -84.663481 
L 100.873003 -84.443426 
L 100.873003 -84.223372 
L 100.873003 -84.003317 
L 100.873003 -83.783262 
L 100.873003 -83.563207 
L 100.873003 -83.343152 
L 100.873003 -83.123097 
L 100.873003 -82.903042 
L 100.873003 -82.682987 
L 100.873003 -82.462932 
L 100.873003 -82.242877 
L 100.873003 -82.022822 
L 100.873003 -81.802767 
L 100.873003 -81.582712 
L 100.873003 -81.362658 
L 100.873003 -81.142603 
L 100.873003 -80.922548 
L 100.873003 -80.702493 
L 100.873003 -80.482438 
L 100.873003 -80.262383 
L 100.873003 -80.042328 
L 100.873003 -79.822273 
z
" style="stroke: #3f3f3f; stroke-width: 1.5"/>
    </defs>
    <g clip-path="url(#p3c7ed8a2f0)">
     <use xlink:href="#mcdf133be17" x="0" y="352.15625" style="fill: #3274a1; stroke: #3f3f3f; stroke-width: 1.5"/>
    </g>
   </g>
   <g id="patch_4">
    <path d="M 100.873003 270.404684 
L 100.873003 270.404684 
L 100.873003 270.404684 
L 100.873003 270.404684 
z
" clip-path="url(#p3c7ed8a2f0)" style="fill: #e1812c; stroke: #3f3f3f; stroke-width: 0.75; stroke-linejoin: miter"/>
   </g>
   <g id="PolyCollection_2">
    <defs>
     <path id="mbe01fce7db" d="M 101.136818 -80.554219 
L 100.873003 -80.554219 
L 100.873003 -80.805554 
L 100.873003 -81.056889 
L 100.873003 -81.308225 
L 100.873003 -81.55956 
L 100.873003 -81.810895 
L 100.873003 -82.062231 
L 100.873003 -82.313566 
L 100.873003 -82.564901 
L 100.873003 -82.816237 
L 100.873003 -83.067572 
L 100.873003 -83.318907 
L 100.873003 -83.570243 
L 100.873003 -83.821578 
L 100.873003 -84.072913 
L 100.873003 -84.324248 
L 100.873003 -84.575584 
L 100.873003 -84.826919 
L 100.873003 -85.078254 
L 100.873003 -85.32959 
L 100.873003 -85.580925 
L 100.873003 -85.83226 
L 100.873003 -86.083596 
L 100.873003 -86.334931 
L 100.873003 -86.586266 
L 100.873003 -86.837602 
L 100.873003 -87.088937 
L 100.873003 -87.340272 
L 100.873003 -87.591608 
L 100.873003 -87.842943 
L 100.873003 -88.094278 
L 100.873003 -88.345613 
L 100.873003 -88.596949 
L 100.873003 -88.848284 
L 100.873003 -89.099619 
L 100.873003 -89.350955 
L 100.873003 -89.60229 
L 100.873003 -89.853625 
L 100.873003 -90.104961 
L 100.873003 -90.356296 
L 100.873003 -90.607631 
L 100.873003 -90.858967 
L 100.873003 -91.110302 
L 100.873003 -91.361637 
L 100.873003 -91.612972 
L 100.873003 -91.864308 
L 100.873003 -92.115643 
L 100.873003 -92.366978 
L 100.873003 -92.618314 
L 100.873003 -92.869649 
L 100.873003 -93.120984 
L 100.873003 -93.37232 
L 100.873003 -93.623655 
L 100.873003 -93.87499 
L 100.873003 -94.126326 
L 100.873003 -94.377661 
L 100.873003 -94.628996 
L 100.873003 -94.880332 
L 100.873003 -95.131667 
L 100.873003 -95.383002 
L 100.873003 -95.634337 
L 100.873003 -95.885673 
L 100.873003 -96.137008 
L 100.873003 -96.388343 
L 100.873003 -96.639679 
L 100.873003 -96.891014 
L 100.873003 -97.142349 
L 100.873003 -97.393685 
L 100.873003 -97.64502 
L 100.873003 -97.896355 
L 100.873003 -98.147691 
L 100.873003 -98.399026 
L 100.873003 -98.650361 
L 100.873003 -98.901697 
L 100.873003 -99.153032 
L 100.873003 -99.404367 
L 100.873003 -99.655702 
L 100.873003 -99.907038 
L 100.873003 -100.158373 
L 100.873003 -100.409708 
L 100.873003 -100.661044 
L 100.873003 -100.912379 
L 100.873003 -101.163714 
L 100.873003 -101.41505 
L 100.873003 -101.666385 
L 100.873003 -101.91772 
L 100.873003 -102.169056 
L 100.873003 -102.420391 
L 100.873003 -102.671726 
L 100.873003 -102.923062 
L 100.873003 -103.174397 
L 100.873003 -103.425732 
L 100.873003 -103.677067 
L 100.873003 -103.928403 
L 100.873003 -104.179738 
L 100.873003 -104.431073 
L 100.873003 -104.682409 
L 100.873003 -104.933744 
L 100.873003 -105.185079 
L 100.873003 -105.436415 
L 100.908938 -105.436415 
L 100.908938 -105.436415 
L 100.932022 -105.185079 
L 100.963328 -104.933744 
L 101.001814 -104.682409 
L 101.044175 -104.431073 
L 101.084959 -104.179738 
L 101.117571 -103.928403 
L 101.135976 -103.677067 
L 101.136534 -103.425732 
L 101.119217 -103.174397 
L 101.087689 -102.923062 
L 101.048239 -102.671726 
L 101.008081 -102.420391 
L 100.97375 -102.169056 
L 100.950139 -101.91772 
L 100.940276 -101.666385 
L 100.945573 -101.41505 
L 100.966105 -101.163714 
L 101.000683 -100.912379 
L 101.046795 -100.661044 
L 101.10073 -100.409708 
L 101.158203 -100.158373 
L 101.215456 -99.907038 
L 101.270493 -99.655702 
L 101.323819 -99.404367 
L 101.378279 -99.153032 
L 101.437971 -98.901697 
L 101.50673 -98.650361 
L 101.58688 -98.399026 
L 101.678856 -98.147691 
L 101.781857 -97.896355 
L 101.895239 -97.64502 
L 102.01995 -97.393685 
L 102.159215 -97.142349 
L 102.317888 -96.891014 
L 102.500456 -96.639679 
L 102.708363 -96.388343 
L 102.937896 -96.137008 
L 103.179923 -95.885673 
L 103.422211 -95.634337 
L 103.653968 -95.383002 
L 103.871066 -95.131667 
L 104.079762 -94.880332 
L 104.297131 -94.628996 
L 104.547824 -94.377661 
L 104.858564 -94.126326 
L 105.25288 -93.87499 
L 105.748184 -93.623655 
L 106.355569 -93.37232 
L 107.080802 -93.120984 
L 107.924252 -92.869649 
L 108.878595 -92.618314 
L 109.925511 -92.366978 
L 111.034481 -92.115643 
L 112.166736 -91.864308 
L 113.285061 -91.612972 
L 114.366575 -91.361637 
L 115.413013 -91.110302 
L 116.453027 -90.858967 
L 117.534052 -90.607631 
L 118.705868 -90.356296 
L 120.001865 -90.104961 
L 121.425216 -89.853625 
L 122.945019 -89.60229 
L 124.503086 -89.350955 
L 126.027636 -89.099619 
L 127.447917 -88.848284 
L 128.704803 -88.596949 
L 129.755762 -88.345613 
L 130.576132 -88.094278 
L 131.160096 -87.842943 
L 131.523523 -87.591608 
L 131.70804 -87.340272 
L 131.783285 -87.088937 
L 131.843598 -86.837602 
L 131.996436 -86.586266 
L 132.341985 -86.334931 
L 132.94606 -86.083596 
L 133.811413 -85.83226 
L 134.855339 -85.580925 
L 135.903006 -85.32959 
L 136.704358 -85.078254 
L 136.976734 -84.826919 
L 136.466323 -84.575584 
L 135.012535 -84.324248 
L 132.59484 -84.072913 
L 129.34512 -83.821578 
L 125.519955 -83.570243 
L 121.441919 -83.318907 
L 117.430118 -83.067572 
L 113.742319 -82.816237 
L 110.543695 -82.564901 
L 107.904794 -82.313566 
L 105.820555 -82.062231 
L 104.237653 -81.810895 
L 103.079491 -81.55956 
L 102.263709 -81.308225 
L 101.712162 -81.056889 
L 101.355796 -80.805554 
L 101.136818 -80.554219 
z
" style="stroke: #3f3f3f; stroke-width: 1.5"/>
    </defs>
    <g clip-path="url(#p3c7ed8a2f0)">
     <use xlink:href="#mbe01fce7db" x="0" y="352.15625" style="fill: #e1812c; stroke: #3f3f3f; stroke-width: 1.5"/>
    </g>
   </g>
   <g id="PolyCollection_3">
    <defs>
     <path id="mb28fd00a98" d="M 198.297135 -51.528977 
L 196.759693 -51.528977 
L 196.001545 -54.234517 
L 194.966509 -56.940057 
L 193.600114 -59.645597 
L 191.85648 -62.351137 
L 189.706749 -65.056676 
L 187.147624 -67.762216 
L 184.208534 -70.467756 
L 180.955802 -73.173296 
L 177.492481 -75.878836 
L 173.95316 -78.584376 
L 170.493927 -81.289915 
L 167.278679 -83.995455 
L 164.463703 -86.700995 
L 162.182873 -89.406535 
L 160.535648 -92.112075 
L 159.579506 -94.817615 
L 159.327483 -97.523154 
L 159.75061 -100.228694 
L 160.78419 -102.934234 
L 162.336479 -105.639774 
L 164.298254 -108.345314 
L 166.552025 -111.050854 
L 168.980093 -113.756393 
L 171.471078 -116.461933 
L 173.924897 -119.167473 
L 176.256375 -121.873013 
L 178.397688 -124.578553 
L 180.299788 -127.284092 
L 181.932895 -129.989632 
L 183.286043 -132.695172 
L 184.365671 -135.400712 
L 185.193272 -138.106252 
L 185.802191 -140.811792 
L 186.233773 -143.517331 
L 186.533131 -146.222871 
L 186.744911 -148.928411 
L 186.909421 -151.633951 
L 187.059515 -154.339491 
L 187.218501 -157.045031 
L 187.399284 -159.75057 
L 187.604767 -162.45611 
L 187.829417 -165.16165 
L 188.061733 -167.86719 
L 188.287256 -170.57273 
L 188.491667 -173.27827 
L 188.66355 -175.983809 
L 188.796397 -178.689349 
L 188.889624 -181.394889 
L 188.948491 -184.100429 
L 188.983046 -186.805969 
L 189.006369 -189.511509 
L 189.03249 -192.217048 
L 189.074411 -194.922588 
L 189.142554 -197.628128 
L 189.243861 -200.333668 
L 189.381603 -203.039208 
L 189.555772 -205.744748 
L 189.76388 -208.450287 
L 190.001894 -211.155827 
L 190.265092 -213.861367 
L 190.548693 -216.566907 
L 190.848195 -219.272447 
L 191.159475 -221.977986 
L 191.478728 -224.683526 
L 191.802394 -227.389066 
L 192.127142 -230.094606 
L 192.449979 -232.800146 
L 192.768458 -235.505686 
L 193.080893 -238.211225 
L 193.386496 -240.916765 
L 193.685321 -243.622305 
L 193.97799 -246.327845 
L 194.265207 -249.033385 
L 194.547202 -251.738925 
L 194.823225 -254.444464 
L 195.091281 -257.150004 
L 195.348208 -259.855544 
L 195.590125 -262.561084 
L 195.813178 -265.266624 
L 196.014418 -267.972164 
L 196.19258 -270.677703 
L 196.348583 -273.383243 
L 196.485572 -276.088783 
L 196.608502 -278.794323 
L 196.723326 -281.499863 
L 196.835961 -284.205403 
L 196.951284 -286.910942 
L 197.072341 -289.616482 
L 197.19995 -292.322022 
L 197.33274 -295.027562 
L 197.467581 -297.733102 
L 197.60029 -300.438642 
L 197.72642 -303.144181 
L 197.841995 -305.849721 
L 197.944035 -308.555261 
L 198.030843 -311.260801 
L 198.102023 -313.966341 
L 198.158303 -316.67188 
L 198.201232 -319.37742 
L 198.297135 -319.37742 
L 198.297135 -319.37742 
L 198.297135 -316.67188 
L 198.297135 -313.966341 
L 198.297135 -311.260801 
L 198.297135 -308.555261 
L 198.297135 -305.849721 
L 198.297135 -303.144181 
L 198.297135 -300.438642 
L 198.297135 -297.733102 
L 198.297135 -295.027562 
L 198.297135 -292.322022 
L 198.297135 -289.616482 
L 198.297135 -286.910942 
L 198.297135 -284.205403 
L 198.297135 -281.499863 
L 198.297135 -278.794323 
L 198.297135 -276.088783 
L 198.297135 -273.383243 
L 198.297135 -270.677703 
L 198.297135 -267.972164 
L 198.297135 -265.266624 
L 198.297135 -262.561084 
L 198.297135 -259.855544 
L 198.297135 -257.150004 
L 198.297135 -254.444464 
L 198.297135 -251.738925 
L 198.297135 -249.033385 
L 198.297135 -246.327845 
L 198.297135 -243.622305 
L 198.297135 -240.916765 
L 198.297135 -238.211225 
L 198.297135 -235.505686 
L 198.297135 -232.800146 
L 198.297135 -230.094606 
L 198.297135 -227.389066 
L 198.297135 -224.683526 
L 198.297135 -221.977986 
L 198.297135 -219.272447 
L 198.297135 -216.566907 
L 198.297135 -213.861367 
L 198.297135 -211.155827 
L 198.297135 -208.450287 
L 198.297135 -205.744748 
L 198.297135 -203.039208 
L 198.297135 -200.333668 
L 198.297135 -197.628128 
L 198.297135 -194.922588 
L 198.297135 -192.217048 
L 198.297135 -189.511509 
L 198.297135 -186.805969 
L 198.297135 -184.100429 
L 198.297135 -181.394889 
L 198.297135 -178.689349 
L 198.297135 -175.983809 
L 198.297135 -173.27827 
L 198.297135 -170.57273 
L 198.297135 -167.86719 
L 198.297135 -165.16165 
L 198.297135 -162.45611 
L 198.297135 -159.75057 
L 198.297135 -157.045031 
L 198.297135 -154.339491 
L 198.297135 -151.633951 
L 198.297135 -148.928411 
L 198.297135 -146.222871 
L 198.297135 -143.517331 
L 198.297135 -140.811792 
L 198.297135 -138.106252 
L 198.297135 -135.400712 
L 198.297135 -132.695172 
L 198.297135 -129.989632 
L 198.297135 -127.284092 
L 198.297135 -124.578553 
L 198.297135 -121.873013 
L 198.297135 -119.167473 
L 198.297135 -116.461933 
L 198.297135 -113.756393 
L 198.297135 -111.050854 
L 198.297135 -108.345314 
L 198.297135 -105.639774 
L 198.297135 -102.934234 
L 198.297135 -100.228694 
L 198.297135 -97.523154 
L 198.297135 -94.817615 
L 198.297135 -92.112075 
L 198.297135 -89.406535 
L 198.297135 -86.700995 
L 198.297135 -83.995455 
L 198.297135 -81.289915 
L 198.297135 -78.584376 
L 198.297135 -75.878836 
L 198.297135 -73.173296 
L 198.297135 -70.467756 
L 198.297135 -67.762216 
L 198.297135 -65.056676 
L 198.297135 -62.351137 
L 198.297135 -59.645597 
L 198.297135 -56.940057 
L 198.297135 -54.234517 
L 198.297135 -51.528977 
z
" style="stroke: #3f3f3f; stroke-width: 1.5"/>
    </defs>
    <g clip-path="url(#p3c7ed8a2f0)">
     <use xlink:href="#mb28fd00a98" x="0" y="352.15625" style="fill: #3274a1; stroke: #3f3f3f; stroke-width: 1.5"/>
    </g>
   </g>
   <g id="PolyCollection_4">
    <defs>
     <path id="m6725f0dd65" d="M 198.989238 -53.001421 
L 198.297135 -53.001421 
L 198.297135 -55.809321 
L 198.297135 -58.617221 
L 198.297135 -61.425121 
L 198.297135 -64.233021 
L 198.297135 -67.040921 
L 198.297135 -69.848821 
L 198.297135 -72.656721 
L 198.297135 -75.464621 
L 198.297135 -78.272521 
L 198.297135 -81.080421 
L 198.297135 -83.888321 
L 198.297135 -86.696221 
L 198.297135 -89.504121 
L 198.297135 -92.312021 
L 198.297135 -95.119921 
L 198.297135 -97.927821 
L 198.297135 -100.735721 
L 198.297135 -103.543622 
L 198.297135 -106.351522 
L 198.297135 -109.159422 
L 198.297135 -111.967322 
L 198.297135 -114.775222 
L 198.297135 -117.583122 
L 198.297135 -120.391022 
L 198.297135 -123.198922 
L 198.297135 -126.006822 
L 198.297135 -128.814722 
L 198.297135 -131.622622 
L 198.297135 -134.430522 
L 198.297135 -137.238422 
L 198.297135 -140.046322 
L 198.297135 -142.854222 
L 198.297135 -145.662122 
L 198.297135 -148.470022 
L 198.297135 -151.277922 
L 198.297135 -154.085822 
L 198.297135 -156.893722 
L 198.297135 -159.701622 
L 198.297135 -162.509522 
L 198.297135 -165.317422 
L 198.297135 -168.125322 
L 198.297135 -170.933222 
L 198.297135 -173.741122 
L 198.297135 -176.549022 
L 198.297135 -179.356922 
L 198.297135 -182.164822 
L 198.297135 -184.972722 
L 198.297135 -187.780622 
L 198.297135 -190.588522 
L 198.297135 -193.396422 
L 198.297135 -196.204322 
L 198.297135 -199.012222 
L 198.297135 -201.820122 
L 198.297135 -204.628022 
L 198.297135 -207.435922 
L 198.297135 -210.243822 
L 198.297135 -213.051722 
L 198.297135 -215.859622 
L 198.297135 -218.667522 
L 198.297135 -221.475422 
L 198.297135 -224.283322 
L 198.297135 -227.091222 
L 198.297135 -229.899122 
L 198.297135 -232.707022 
L 198.297135 -235.514922 
L 198.297135 -238.322822 
L 198.297135 -241.130722 
L 198.297135 -243.938622 
L 198.297135 -246.746522 
L 198.297135 -249.554422 
L 198.297135 -252.362322 
L 198.297135 -255.170222 
L 198.297135 -257.978122 
L 198.297135 -260.786022 
L 198.297135 -263.593922 
L 198.297135 -266.401822 
L 198.297135 -269.209722 
L 198.297135 -272.017622 
L 198.297135 -274.825522 
L 198.297135 -277.633422 
L 198.297135 -280.441322 
L 198.297135 -283.249222 
L 198.297135 -286.057122 
L 198.297135 -288.865023 
L 198.297135 -291.672923 
L 198.297135 -294.480823 
L 198.297135 -297.288723 
L 198.297135 -300.096623 
L 198.297135 -302.904523 
L 198.297135 -305.712423 
L 198.297135 -308.520323 
L 198.297135 -311.328223 
L 198.297135 -314.136123 
L 198.297135 -316.944023 
L 198.297135 -319.751923 
L 198.297135 -322.559823 
L 198.297135 -325.367723 
L 198.297135 -328.175623 
L 198.297135 -330.983523 
L 198.334493 -330.983523 
L 198.334493 -330.983523 
L 198.354286 -328.175623 
L 198.381964 -325.367723 
L 198.419416 -322.559823 
L 198.468494 -319.751923 
L 198.530836 -316.944023 
L 198.607672 -314.136123 
L 198.699665 -311.328223 
L 198.806802 -308.520323 
L 198.928395 -305.712423 
L 199.063197 -302.904523 
L 199.209671 -300.096623 
L 199.366365 -297.288723 
L 199.532359 -294.480823 
L 199.707686 -291.672923 
L 199.893627 -288.865023 
L 200.092742 -286.057122 
L 200.308585 -283.249222 
L 200.545079 -280.441322 
L 200.805622 -277.633422 
L 201.09213 -274.825522 
L 201.404228 -272.017622 
L 201.738859 -269.209722 
L 202.09047 -266.401822 
L 202.451798 -263.593922 
L 202.815107 -260.786022 
L 203.173572 -257.978122 
L 203.52244 -255.170222 
L 203.859671 -252.362322 
L 204.185933 -249.554422 
L 204.504043 -246.746522 
L 204.81814 -243.938622 
L 205.132942 -241.130722 
L 205.453377 -238.322822 
L 205.784669 -235.514922 
L 206.132735 -232.707022 
L 206.504577 -229.899122 
L 206.908297 -227.091222 
L 207.352476 -224.283322 
L 207.844881 -221.475422 
L 208.390725 -218.667522 
L 208.990889 -215.859622 
L 209.640598 -213.051722 
L 210.328962 -210.243822 
L 211.039585 -207.435922 
L 211.752211 -204.628022 
L 212.445125 -201.820122 
L 213.097895 -199.012222 
L 213.693975 -196.204322 
L 214.222747 -193.396422 
L 214.680712 -190.588522 
L 215.071673 -187.780622 
L 215.40595 -184.972722 
L 215.698777 -182.164822 
L 215.968194 -179.356922 
L 216.232746 -176.549022 
L 216.509381 -173.741122 
L 216.811809 -170.933222 
L 217.149514 -168.125322 
L 217.527489 -165.317422 
L 217.946611 -162.509522 
L 218.404505 -159.701622 
L 218.896666 -156.893722 
L 219.417613 -154.085822 
L 219.96181 -151.277922 
L 220.524147 -148.470022 
L 221.099759 -145.662122 
L 221.6831 -142.854222 
L 222.266253 -140.046322 
L 222.836724 -137.238422 
L 223.375117 -134.430522 
L 223.853348 -131.622622 
L 224.234134 -128.814722 
L 224.472421 -126.006822 
L 224.519159 -123.198922 
L 224.327316 -120.391022 
L 223.859405 -117.583122 
L 223.095203 -114.775222 
L 222.037931 -111.967322 
L 220.717166 -109.159422 
L 219.187255 -106.351522 
L 217.520955 -103.543622 
L 215.799206 -100.735721 
L 214.099072 -97.927821 
L 212.48252 -95.119921 
L 210.98864 -92.312021 
L 209.631077 -89.504121 
L 208.40107 -86.696221 
L 207.274977 -83.888321 
L 206.224028 -81.080421 
L 205.223611 -78.272521 
L 204.259777 -75.464621 
L 203.331694 -72.656721 
L 202.45006 -69.848821 
L 201.632615 -67.040921 
L 200.898465 -64.233021 
L 200.262944 -61.425121 
L 199.734237 -58.617221 
L 199.31221 -55.809321 
L 198.989238 -53.001421 
z
" style="stroke: #3f3f3f; stroke-width: 1.5"/>
    </defs>
    <g clip-path="url(#p3c7ed8a2f0)">
     <use xlink:href="#m6725f0dd65" x="0" y="352.15625" style="fill: #e1812c; stroke: #3f3f3f; stroke-width: 1.5"/>
    </g>
   </g>
   <g id="PolyCollection_5">
    <defs>
     <path id="ma6af7701b6" d="M 295.721267 -74.999355 
L 294.049901 -74.999355 
L 293.257213 -75.634883 
L 292.194318 -76.270412 
L 290.817562 -76.90594 
L 289.095293 -77.541469 
L 287.015271 -78.176998 
L 284.591261 -78.812526 
L 281.867401 -79.448055 
L 278.919024 -80.083584 
L 275.849042 -80.719112 
L 272.779686 -81.354641 
L 269.840276 -81.99017 
L 267.152555 -82.625698 
L 264.815807 -83.261227 
L 262.894276 -83.896755 
L 261.40927 -84.532284 
L 260.337626 -85.167813 
L 259.617151 -85.803341 
L 259.158315 -86.43887 
L 258.860226 -87.074399 
L 258.627973 -87.709927 
L 258.388144 -88.345456 
L 258.099645 -88.980984 
L 257.758003 -89.616513 
L 257.392675 -90.252042 
L 257.058368 -90.88757 
L 256.822509 -91.523099 
L 256.751615 -92.158628 
L 256.89927 -92.794156 
L 257.297786 -93.429685 
L 257.954633 -94.065213 
L 258.853597 -94.700742 
L 259.959703 -95.336271 
L 261.226316 -95.971799 
L 262.602662 -96.607328 
L 264.040287 -97.242857 
L 265.497456 -97.878385 
L 266.941151 -98.513914 
L 268.346938 -99.149443 
L 269.69734 -99.784971 
L 270.979585 -100.4205 
L 272.183513 -101.056028 
L 273.300242 -101.691557 
L 274.321898 -102.327086 
L 275.242399 -102.962614 
L 276.059046 -103.598143 
L 276.774461 -104.233672 
L 277.398314 -104.8692 
L 277.948298 -105.504729 
L 278.449868 -106.140257 
L 278.934528 -106.775786 
L 279.436689 -107.411315 
L 279.989504 -108.046843 
L 280.620319 -108.682372 
L 281.346604 -109.317901 
L 282.173134 -109.953429 
L 283.091052 -110.588958 
L 284.079002 -111.224486 
L 285.106148 -111.860015 
L 286.136489 -112.495544 
L 287.133644 -113.131072 
L 288.065263 -113.766601 
L 288.906334 -114.40213 
L 289.640984 -115.037658 
L 290.262681 -115.673187 
L 290.773071 -116.308716 
L 291.179923 -116.944244 
L 291.494729 -117.579773 
L 291.730494 -118.215301 
L 291.900104 -118.85083 
L 292.015458 -119.486359 
L 292.087329 -120.121887 
L 292.125727 -120.757416 
L 292.140467 -121.392945 
L 292.141609 -122.028473 
L 292.139532 -122.664002 
L 292.14458 -123.29953 
L 292.166336 -123.935059 
L 292.212734 -124.570588 
L 292.289256 -125.206116 
L 292.39845 -125.841645 
L 292.539881 -126.477174 
L 292.710532 -127.112702 
L 292.905534 -127.748231 
L 293.119031 -128.383759 
L 293.344974 -129.019288 
L 293.577692 -129.654817 
L 293.81217 -130.290345 
L 294.044058 -130.925874 
L 294.269526 -131.561403 
L 294.48508 -132.196931 
L 294.687465 -132.83246 
L 294.873702 -133.467989 
L 295.041255 -134.103517 
L 295.188267 -134.739046 
L 295.31377 -135.374574 
L 295.417811 -136.010103 
L 295.501425 -136.645632 
L 295.56649 -137.28116 
L 295.615463 -137.916689 
L 295.721267 -137.916689 
L 295.721267 -137.916689 
L 295.721267 -137.28116 
L 295.721267 -136.645632 
L 295.721267 -136.010103 
L 295.721267 -135.374574 
L 295.721267 -134.739046 
L 295.721267 -134.103517 
L 295.721267 -133.467989 
L 295.721267 -132.83246 
L 295.721267 -132.196931 
L 295.721267 -131.561403 
L 295.721267 -130.925874 
L 295.721267 -130.290345 
L 295.721267 -129.654817 
L 295.721267 -129.019288 
L 295.721267 -128.383759 
L 295.721267 -127.748231 
L 295.721267 -127.112702 
L 295.721267 -126.477174 
L 295.721267 -125.841645 
L 295.721267 -125.206116 
L 295.721267 -124.570588 
L 295.721267 -123.935059 
L 295.721267 -123.29953 
L 295.721267 -122.664002 
L 295.721267 -122.028473 
L 295.721267 -121.392945 
L 295.721267 -120.757416 
L 295.721267 -120.121887 
L 295.721267 -119.486359 
L 295.721267 -118.85083 
L 295.721267 -118.215301 
L 295.721267 -117.579773 
L 295.721267 -116.944244 
L 295.721267 -116.308716 
L 295.721267 -115.673187 
L 295.721267 -115.037658 
L 295.721267 -114.40213 
L 295.721267 -113.766601 
L 295.721267 -113.131072 
L 295.721267 -112.495544 
L 295.721267 -111.860015 
L 295.721267 -111.224486 
L 295.721267 -110.588958 
L 295.721267 -109.953429 
L 295.721267 -109.317901 
L 295.721267 -108.682372 
L 295.721267 -108.046843 
L 295.721267 -107.411315 
L 295.721267 -106.775786 
L 295.721267 -106.140257 
L 295.721267 -105.504729 
L 295.721267 -104.8692 
L 295.721267 -104.233672 
L 295.721267 -103.598143 
L 295.721267 -102.962614 
L 295.721267 -102.327086 
L 295.721267 -101.691557 
L 295.721267 -101.056028 
L 295.721267 -100.4205 
L 295.721267 -99.784971 
L 295.721267 -99.149443 
L 295.721267 -98.513914 
L 295.721267 -97.878385 
L 295.721267 -97.242857 
L 295.721267 -96.607328 
L 295.721267 -95.971799 
L 295.721267 -95.336271 
L 295.721267 -94.700742 
L 295.721267 -94.065213 
L 295.721267 -93.429685 
L 295.721267 -92.794156 
L 295.721267 -92.158628 
L 295.721267 -91.523099 
L 295.721267 -90.88757 
L 295.721267 -90.252042 
L 295.721267 -89.616513 
L 295.721267 -88.980984 
L 295.721267 -88.345456 
L 295.721267 -87.709927 
L 295.721267 -87.074399 
L 295.721267 -86.43887 
L 295.721267 -85.803341 
L 295.721267 -85.167813 
L 295.721267 -84.532284 
L 295.721267 -83.896755 
L 295.721267 -83.261227 
L 295.721267 -82.625698 
L 295.721267 -81.99017 
L 295.721267 -81.354641 
L 295.721267 -80.719112 
L 295.721267 -80.083584 
L 295.721267 -79.448055 
L 295.721267 -78.812526 
L 295.721267 -78.176998 
L 295.721267 -77.541469 
L 295.721267 -76.90594 
L 295.721267 -76.270412 
L 295.721267 -75.634883 
L 295.721267 -74.999355 
z
" style="stroke: #3f3f3f; stroke-width: 1.5"/>
    </defs>
    <g clip-path="url(#p3c7ed8a2f0)">
     <use xlink:href="#ma6af7701b6" x="0" y="352.15625" style="fill: #3274a1; stroke: #3f3f3f; stroke-width: 1.5"/>
    </g>
   </g>
   <g id="PolyCollection_6">
    <defs>
     <path id="m58bfab01e0" d="M 297.064687 -71.455262 
L 295.721267 -71.455262 
L 295.721267 -72.620354 
L 295.721267 -73.785446 
L 295.721267 -74.950539 
L 295.721267 -76.115631 
L 295.721267 -77.280724 
L 295.721267 -78.445816 
L 295.721267 -79.610908 
L 295.721267 -80.776001 
L 295.721267 -81.941093 
L 295.721267 -83.106186 
L 295.721267 -84.271278 
L 295.721267 -85.43637 
L 295.721267 -86.601463 
L 295.721267 -87.766555 
L 295.721267 -88.931648 
L 295.721267 -90.09674 
L 295.721267 -91.261832 
L 295.721267 -92.426925 
L 295.721267 -93.592017 
L 295.721267 -94.757109 
L 295.721267 -95.922202 
L 295.721267 -97.087294 
L 295.721267 -98.252387 
L 295.721267 -99.417479 
L 295.721267 -100.582571 
L 295.721267 -101.747664 
L 295.721267 -102.912756 
L 295.721267 -104.077849 
L 295.721267 -105.242941 
L 295.721267 -106.408033 
L 295.721267 -107.573126 
L 295.721267 -108.738218 
L 295.721267 -109.903311 
L 295.721267 -111.068403 
L 295.721267 -112.233495 
L 295.721267 -113.398588 
L 295.721267 -114.56368 
L 295.721267 -115.728773 
L 295.721267 -116.893865 
L 295.721267 -118.058957 
L 295.721267 -119.22405 
L 295.721267 -120.389142 
L 295.721267 -121.554234 
L 295.721267 -122.719327 
L 295.721267 -123.884419 
L 295.721267 -125.049512 
L 295.721267 -126.214604 
L 295.721267 -127.379696 
L 295.721267 -128.544789 
L 295.721267 -129.709881 
L 295.721267 -130.874974 
L 295.721267 -132.040066 
L 295.721267 -133.205158 
L 295.721267 -134.370251 
L 295.721267 -135.535343 
L 295.721267 -136.700436 
L 295.721267 -137.865528 
L 295.721267 -139.03062 
L 295.721267 -140.195713 
L 295.721267 -141.360805 
L 295.721267 -142.525898 
L 295.721267 -143.69099 
L 295.721267 -144.856082 
L 295.721267 -146.021175 
L 295.721267 -147.186267 
L 295.721267 -148.351359 
L 295.721267 -149.516452 
L 295.721267 -150.681544 
L 295.721267 -151.846637 
L 295.721267 -153.011729 
L 295.721267 -154.176821 
L 295.721267 -155.341914 
L 295.721267 -156.507006 
L 295.721267 -157.672099 
L 295.721267 -158.837191 
L 295.721267 -160.002283 
L 295.721267 -161.167376 
L 295.721267 -162.332468 
L 295.721267 -163.497561 
L 295.721267 -164.662653 
L 295.721267 -165.827745 
L 295.721267 -166.992838 
L 295.721267 -168.15793 
L 295.721267 -169.323023 
L 295.721267 -170.488115 
L 295.721267 -171.653207 
L 295.721267 -172.8183 
L 295.721267 -173.983392 
L 295.721267 -175.148484 
L 295.721267 -176.313577 
L 295.721267 -177.478669 
L 295.721267 -178.643762 
L 295.721267 -179.808854 
L 295.721267 -180.973946 
L 295.721267 -182.139039 
L 295.721267 -183.304131 
L 295.721267 -184.469224 
L 295.721267 -185.634316 
L 295.721267 -186.799408 
L 295.774247 -186.799408 
L 295.774247 -186.799408 
L 295.802697 -185.634316 
L 295.842326 -184.469224 
L 295.89546 -183.304131 
L 295.964028 -182.139039 
L 296.04917 -180.973946 
L 296.150833 -179.808854 
L 296.267445 -178.643762 
L 296.39572 -177.478669 
L 296.530684 -176.313577 
L 296.665953 -175.148484 
L 296.79427 -173.983392 
L 296.908272 -172.8183 
L 297.001374 -171.653207 
L 297.068653 -170.488115 
L 297.107564 -169.323023 
L 297.118358 -168.15793 
L 297.104097 -166.992838 
L 297.070278 -165.827745 
L 297.024125 -164.662653 
L 296.973703 -163.497561 
L 296.927004 -162.332468 
L 296.891145 -161.167376 
L 296.871717 -160.002283 
L 296.872322 -158.837191 
L 296.894257 -157.672099 
L 296.936343 -156.507006 
L 296.994948 -155.341914 
L 297.064254 -154.176821 
L 297.13683 -153.011729 
L 297.204515 -151.846637 
L 297.259499 -150.681544 
L 297.295448 -149.516452 
L 297.308435 -148.351359 
L 297.297507 -147.186267 
L 297.264786 -146.021175 
L 297.215117 -144.856082 
L 297.155403 -143.69099 
L 297.093795 -142.525898 
L 297.038968 -141.360805 
L 296.9996 -140.195713 
L 296.984138 -139.03062 
L 297.000792 -137.865528 
L 297.057641 -136.700436 
L 297.162662 -135.535343 
L 297.323554 -134.370251 
L 297.54726 -133.205158 
L 297.839239 -132.040066 
L 298.202626 -130.874974 
L 298.637506 -129.709881 
L 299.140504 -128.544789 
L 299.70483 -127.379696 
L 300.320792 -126.214604 
L 300.976659 -125.049512 
L 301.659667 -123.884419 
L 302.356965 -122.719327 
L 303.056369 -121.554234 
L 303.746918 -120.389142 
L 304.419322 -119.22405 
L 305.066479 -118.058957 
L 305.684174 -116.893865 
L 306.271951 -115.728773 
L 306.833991 -114.56368 
L 307.379703 -113.398588 
L 307.923656 -112.233495 
L 308.484641 -111.068403 
L 309.083818 -109.903311 
L 309.742186 -108.738218 
L 310.477877 -107.573126 
L 311.303882 -106.408033 
L 312.226773 -105.242941 
L 313.24675 -104.077849 
L 314.358985 -102.912756 
L 315.555783 -101.747664 
L 316.828715 -100.582571 
L 318.169712 -99.417479 
L 319.570179 -98.252387 
L 321.017674 -97.087294 
L 322.490365 -95.922202 
L 323.950426 -94.757109 
L 325.338256 -93.592017 
L 326.569864 -92.426925 
L 327.539511 -91.261832 
L 328.128774 -90.09674 
L 328.221609 -88.931648 
L 327.723211 -87.766555 
L 326.578942 -86.601463 
L 324.788931 -85.43637 
L 322.414503 -84.271278 
L 319.574268 -83.106186 
L 316.430136 -81.941093 
L 313.165995 -80.776001 
L 309.963484 -79.610908 
L 306.979817 -78.445816 
L 304.331744 -77.280724 
L 302.087934 -76.115631 
L 300.269895 -74.950539 
L 298.859683 -73.785446 
L 297.811575 -72.620354 
L 297.064687 -71.455262 
z
" style="stroke: #3f3f3f; stroke-width: 1.5"/>
    </defs>
    <g clip-path="url(#p3c7ed8a2f0)">
     <use xlink:href="#m58bfab01e0" x="0" y="352.15625" style="fill: #e1812c; stroke: #3f3f3f; stroke-width: 1.5"/>
    </g>
   </g>
   <g id="matplotlib.axis_1">
    <g id="xtick_1">
     <g id="line2d_1">
      <defs>
       <path id="m5b6298b5d8" d="M 0 0 
L 0 3.5 
" style="stroke: #000000; stroke-width: 0.8"/>
      </defs>
      <g>
       <use xlink:href="#m5b6298b5d8" x="100.873003" y="314.6" style="stroke: #000000; stroke-width: 0.8"/>
      </g>
     </g>
     <g id="text_1">
      <!-- burger -->
      <g transform="translate(84.255816 329.198437)scale(0.1 -0.1)">
       <defs>
        <path id="DejaVuSans-62" d="M 3116 1747 
Q 3116 2381 2855 2742 
Q 2594 3103 2138 3103 
Q 1681 3103 1420 2742 
Q 1159 2381 1159 1747 
Q 1159 1113 1420 752 
Q 1681 391 2138 391 
Q 2594 391 2855 752 
Q 3116 1113 3116 1747 
z
M 1159 2969 
Q 1341 3281 1617 3432 
Q 1894 3584 2278 3584 
Q 2916 3584 3314 3078 
Q 3713 2572 3713 1747 
Q 3713 922 3314 415 
Q 2916 -91 2278 -91 
Q 1894 -91 1617 61 
Q 1341 213 1159 525 
L 1159 0 
L 581 0 
L 581 4863 
L 1159 4863 
L 1159 2969 
z
" transform="scale(0.015625)"/>
        <path id="DejaVuSans-75" d="M 544 1381 
L 544 3500 
L 1119 3500 
L 1119 1403 
Q 1119 906 1312 657 
Q 1506 409 1894 409 
Q 2359 409 2629 706 
Q 2900 1003 2900 1516 
L 2900 3500 
L 3475 3500 
L 3475 0 
L 2900 0 
L 2900 538 
Q 2691 219 2414 64 
Q 2138 -91 1772 -91 
Q 1169 -91 856 284 
Q 544 659 544 1381 
z
M 1991 3584 
L 1991 3584 
z
" transform="scale(0.015625)"/>
        <path id="DejaVuSans-72" d="M 2631 2963 
Q 2534 3019 2420 3045 
Q 2306 3072 2169 3072 
Q 1681 3072 1420 2755 
Q 1159 2438 1159 1844 
L 1159 0 
L 581 0 
L 581 3500 
L 1159 3500 
L 1159 2956 
Q 1341 3275 1631 3429 
Q 1922 3584 2338 3584 
Q 2397 3584 2469 3576 
Q 2541 3569 2628 3553 
L 2631 2963 
z
" transform="scale(0.015625)"/>
        <path id="DejaVuSans-67" d="M 2906 1791 
Q 2906 2416 2648 2759 
Q 2391 3103 1925 3103 
Q 1463 3103 1205 2759 
Q 947 2416 947 1791 
Q 947 1169 1205 825 
Q 1463 481 1925 481 
Q 2391 481 2648 825 
Q 2906 1169 2906 1791 
z
M 3481 434 
Q 3481 -459 3084 -895 
Q 2688 -1331 1869 -1331 
Q 1566 -1331 1297 -1286 
Q 1028 -1241 775 -1147 
L 775 -588 
Q 1028 -725 1275 -790 
Q 1522 -856 1778 -856 
Q 2344 -856 2625 -561 
Q 2906 -266 2906 331 
L 2906 616 
Q 2728 306 2450 153 
Q 2172 0 1784 0 
Q 1141 0 747 490 
Q 353 981 353 1791 
Q 353 2603 747 3093 
Q 1141 3584 1784 3584 
Q 2172 3584 2450 3431 
Q 2728 3278 2906 2969 
L 2906 3500 
L 3481 3500 
L 3481 434 
z
" transform="scale(0.015625)"/>
        <path id="DejaVuSans-65" d="M 3597 1894 
L 3597 1613 
L 953 1613 
Q 991 1019 1311 708 
Q 1631 397 2203 397 
Q 2534 397 2845 478 
Q 3156 559 3463 722 
L 3463 178 
Q 3153 47 2828 -22 
Q 2503 -91 2169 -91 
Q 1331 -91 842 396 
Q 353 884 353 1716 
Q 353 2575 817 3079 
Q 1281 3584 2069 3584 
Q 2775 3584 3186 3129 
Q 3597 2675 3597 1894 
z
M 3022 2063 
Q 3016 2534 2758 2815 
Q 2500 3097 2075 3097 
Q 1594 3097 1305 2825 
Q 1016 2553 972 2059 
L 3022 2063 
z
" transform="scale(0.015625)"/>
       </defs>
       <use xlink:href="#DejaVuSans-62"/>
       <use xlink:href="#DejaVuSans-75" x="63.476562"/>
       <use xlink:href="#DejaVuSans-72" x="126.855469"/>
       <use xlink:href="#DejaVuSans-67" x="166.21875"/>
       <use xlink:href="#DejaVuSans-65" x="229.695312"/>
       <use xlink:href="#DejaVuSans-72" x="291.21875"/>
      </g>
     </g>
    </g>
    <g id="xtick_2">
     <g id="line2d_2">
      <g>
       <use xlink:href="#m5b6298b5d8" x="198.297135" y="314.6" style="stroke: #000000; stroke-width: 0.8"/>
      </g>
     </g>
     <g id="text_2">
      <!-- jackal -->
      <g transform="translate(183.833854 329.198437)scale(0.1 -0.1)">
       <defs>
        <path id="DejaVuSans-6a" d="M 603 3500 
L 1178 3500 
L 1178 -63 
Q 1178 -731 923 -1031 
Q 669 -1331 103 -1331 
L -116 -1331 
L -116 -844 
L 38 -844 
Q 366 -844 484 -692 
Q 603 -541 603 -63 
L 603 3500 
z
M 603 4863 
L 1178 4863 
L 1178 4134 
L 603 4134 
L 603 4863 
z
" transform="scale(0.015625)"/>
        <path id="DejaVuSans-61" d="M 2194 1759 
Q 1497 1759 1228 1600 
Q 959 1441 959 1056 
Q 959 750 1161 570 
Q 1363 391 1709 391 
Q 2188 391 2477 730 
Q 2766 1069 2766 1631 
L 2766 1759 
L 2194 1759 
z
M 3341 1997 
L 3341 0 
L 2766 0 
L 2766 531 
Q 2569 213 2275 61 
Q 1981 -91 1556 -91 
Q 1019 -91 701 211 
Q 384 513 384 1019 
Q 384 1609 779 1909 
Q 1175 2209 1959 2209 
L 2766 2209 
L 2766 2266 
Q 2766 2663 2505 2880 
Q 2244 3097 1772 3097 
Q 1472 3097 1187 3025 
Q 903 2953 641 2809 
L 641 3341 
Q 956 3463 1253 3523 
Q 1550 3584 1831 3584 
Q 2591 3584 2966 3190 
Q 3341 2797 3341 1997 
z
" transform="scale(0.015625)"/>
        <path id="DejaVuSans-63" d="M 3122 3366 
L 3122 2828 
Q 2878 2963 2633 3030 
Q 2388 3097 2138 3097 
Q 1578 3097 1268 2742 
Q 959 2388 959 1747 
Q 959 1106 1268 751 
Q 1578 397 2138 397 
Q 2388 397 2633 464 
Q 2878 531 3122 666 
L 3122 134 
Q 2881 22 2623 -34 
Q 2366 -91 2075 -91 
Q 1284 -91 818 406 
Q 353 903 353 1747 
Q 353 2603 823 3093 
Q 1294 3584 2113 3584 
Q 2378 3584 2631 3529 
Q 2884 3475 3122 3366 
z
" transform="scale(0.015625)"/>
        <path id="DejaVuSans-6b" d="M 581 4863 
L 1159 4863 
L 1159 1991 
L 2875 3500 
L 3609 3500 
L 1753 1863 
L 3688 0 
L 2938 0 
L 1159 1709 
L 1159 0 
L 581 0 
L 581 4863 
z
" transform="scale(0.015625)"/>
        <path id="DejaVuSans-6c" d="M 603 4863 
L 1178 4863 
L 1178 0 
L 603 0 
L 603 4863 
z
" transform="scale(0.015625)"/>
       </defs>
       <use xlink:href="#DejaVuSans-6a"/>
       <use xlink:href="#DejaVuSans-61" x="27.783203"/>
       <use xlink:href="#DejaVuSans-63" x="89.0625"/>
       <use xlink:href="#DejaVuSans-6b" x="144.042969"/>
       <use xlink:href="#DejaVuSans-61" x="200.203125"/>
       <use xlink:href="#DejaVuSans-6c" x="261.482422"/>
      </g>
     </g>
    </g>
    <g id="xtick_3">
     <g id="line2d_3">
      <g>
       <use xlink:href="#m5b6298b5d8" x="295.721267" y="314.6" style="stroke: #000000; stroke-width: 0.8"/>
      </g>
     </g>
     <g id="text_3">
      <!-- youbot -->
      <g transform="translate(278.340017 329.198437)scale(0.1 -0.1)">
       <defs>
        <path id="DejaVuSans-79" d="M 2059 -325 
Q 1816 -950 1584 -1140 
Q 1353 -1331 966 -1331 
L 506 -1331 
L 506 -850 
L 844 -850 
Q 1081 -850 1212 -737 
Q 1344 -625 1503 -206 
L 1606 56 
L 191 3500 
L 800 3500 
L 1894 763 
L 2988 3500 
L 3597 3500 
L 2059 -325 
z
" transform="scale(0.015625)"/>
        <path id="DejaVuSans-6f" d="M 1959 3097 
Q 1497 3097 1228 2736 
Q 959 2375 959 1747 
Q 959 1119 1226 758 
Q 1494 397 1959 397 
Q 2419 397 2687 759 
Q 2956 1122 2956 1747 
Q 2956 2369 2687 2733 
Q 2419 3097 1959 3097 
z
M 1959 3584 
Q 2709 3584 3137 3096 
Q 3566 2609 3566 1747 
Q 3566 888 3137 398 
Q 2709 -91 1959 -91 
Q 1206 -91 779 398 
Q 353 888 353 1747 
Q 353 2609 779 3096 
Q 1206 3584 1959 3584 
z
" transform="scale(0.015625)"/>
        <path id="DejaVuSans-74" d="M 1172 4494 
L 1172 3500 
L 2356 3500 
L 2356 3053 
L 1172 3053 
L 1172 1153 
Q 1172 725 1289 603 
Q 1406 481 1766 481 
L 2356 481 
L 2356 0 
L 1766 0 
Q 1100 0 847 248 
Q 594 497 594 1153 
L 594 3053 
L 172 3053 
L 172 3500 
L 594 3500 
L 594 4494 
L 1172 4494 
z
" transform="scale(0.015625)"/>
       </defs>
       <use xlink:href="#DejaVuSans-79"/>
       <use xlink:href="#DejaVuSans-6f" x="59.179688"/>
       <use xlink:href="#DejaVuSans-75" x="120.361328"/>
       <use xlink:href="#DejaVuSans-62" x="183.740234"/>
       <use xlink:href="#DejaVuSans-6f" x="247.216797"/>
       <use xlink:href="#DejaVuSans-74" x="308.398438"/>
      </g>
     </g>
    </g>
    <g id="text_4">
     <!-- Robot -->
     <g transform="translate(183.794792 342.876562)scale(0.1 -0.1)">
      <defs>
       <path id="DejaVuSans-52" d="M 2841 2188 
Q 3044 2119 3236 1894 
Q 3428 1669 3622 1275 
L 4263 0 
L 3584 0 
L 2988 1197 
Q 2756 1666 2539 1819 
Q 2322 1972 1947 1972 
L 1259 1972 
L 1259 0 
L 628 0 
L 628 4666 
L 2053 4666 
Q 2853 4666 3247 4331 
Q 3641 3997 3641 3322 
Q 3641 2881 3436 2590 
Q 3231 2300 2841 2188 
z
M 1259 4147 
L 1259 2491 
L 2053 2491 
Q 2509 2491 2742 2702 
Q 2975 2913 2975 3322 
Q 2975 3731 2742 3939 
Q 2509 4147 2053 4147 
L 1259 4147 
z
" transform="scale(0.015625)"/>
      </defs>
      <use xlink:href="#DejaVuSans-52"/>
      <use xlink:href="#DejaVuSans-6f" x="64.982422"/>
      <use xlink:href="#DejaVuSans-62" x="126.164062"/>
      <use xlink:href="#DejaVuSans-6f" x="189.640625"/>
      <use xlink:href="#DejaVuSans-74" x="250.822266"/>
     </g>
    </g>
   </g>
   <g id="matplotlib.axis_2">
    <g id="ytick_1">
     <g id="line2d_4">
      <defs>
       <path id="mbe92d687cc" d="M 0 0 
L -3.5 0 
" style="stroke: #000000; stroke-width: 0.8"/>
      </defs>
      <g>
       <use xlink:href="#mbe92d687cc" x="52.160938" y="305.98502" style="stroke: #000000; stroke-width: 0.8"/>
      </g>
     </g>
     <g id="text_5">
      <!-- −0.1 -->
      <g transform="translate(20.878125 309.784239)scale(0.1 -0.1)">
       <defs>
        <path id="DejaVuSans-2212" d="M 678 2272 
L 4684 2272 
L 4684 1741 
L 678 1741 
L 678 2272 
z
" transform="scale(0.015625)"/>
        <path id="DejaVuSans-30" d="M 2034 4250 
Q 1547 4250 1301 3770 
Q 1056 3291 1056 2328 
Q 1056 1369 1301 889 
Q 1547 409 2034 409 
Q 2525 409 2770 889 
Q 3016 1369 3016 2328 
Q 3016 3291 2770 3770 
Q 2525 4250 2034 4250 
z
M 2034 4750 
Q 2819 4750 3233 4129 
Q 3647 3509 3647 2328 
Q 3647 1150 3233 529 
Q 2819 -91 2034 -91 
Q 1250 -91 836 529 
Q 422 1150 422 2328 
Q 422 3509 836 4129 
Q 1250 4750 2034 4750 
z
" transform="scale(0.015625)"/>
        <path id="DejaVuSans-2e" d="M 684 794 
L 1344 794 
L 1344 0 
L 684 0 
L 684 794 
z
" transform="scale(0.015625)"/>
        <path id="DejaVuSans-31" d="M 794 531 
L 1825 531 
L 1825 4091 
L 703 3866 
L 703 4441 
L 1819 4666 
L 2450 4666 
L 2450 531 
L 3481 531 
L 3481 0 
L 794 0 
L 794 531 
z
" transform="scale(0.015625)"/>
       </defs>
       <use xlink:href="#DejaVuSans-2212"/>
       <use xlink:href="#DejaVuSans-30" x="83.789062"/>
       <use xlink:href="#DejaVuSans-2e" x="147.412109"/>
       <use xlink:href="#DejaVuSans-31" x="179.199219"/>
      </g>
     </g>
    </g>
    <g id="ytick_2">
     <g id="line2d_5">
      <g>
       <use xlink:href="#mbe92d687cc" x="52.160938" y="270.404684" style="stroke: #000000; stroke-width: 0.8"/>
      </g>
     </g>
     <g id="text_6">
      <!-- 0.0 -->
      <g transform="translate(29.257812 274.203903)scale(0.1 -0.1)">
       <use xlink:href="#DejaVuSans-30"/>
       <use xlink:href="#DejaVuSans-2e" x="63.623047"/>
       <use xlink:href="#DejaVuSans-30" x="95.410156"/>
      </g>
     </g>
    </g>
    <g id="ytick_3">
     <g id="line2d_6">
      <g>
       <use xlink:href="#mbe92d687cc" x="52.160938" y="234.824348" style="stroke: #000000; stroke-width: 0.8"/>
      </g>
     </g>
     <g id="text_7">
      <!-- 0.1 -->
      <g transform="translate(29.257812 238.623567)scale(0.1 -0.1)">
       <use xlink:href="#DejaVuSans-30"/>
       <use xlink:href="#DejaVuSans-2e" x="63.623047"/>
       <use xlink:href="#DejaVuSans-31" x="95.410156"/>
      </g>
     </g>
    </g>
    <g id="ytick_4">
     <g id="line2d_7">
      <g>
       <use xlink:href="#mbe92d687cc" x="52.160938" y="199.244012" style="stroke: #000000; stroke-width: 0.8"/>
      </g>
     </g>
     <g id="text_8">
      <!-- 0.2 -->
      <g transform="translate(29.257812 203.043231)scale(0.1 -0.1)">
       <defs>
        <path id="DejaVuSans-32" d="M 1228 531 
L 3431 531 
L 3431 0 
L 469 0 
L 469 531 
Q 828 903 1448 1529 
Q 2069 2156 2228 2338 
Q 2531 2678 2651 2914 
Q 2772 3150 2772 3378 
Q 2772 3750 2511 3984 
Q 2250 4219 1831 4219 
Q 1534 4219 1204 4116 
Q 875 4013 500 3803 
L 500 4441 
Q 881 4594 1212 4672 
Q 1544 4750 1819 4750 
Q 2544 4750 2975 4387 
Q 3406 4025 3406 3419 
Q 3406 3131 3298 2873 
Q 3191 2616 2906 2266 
Q 2828 2175 2409 1742 
Q 1991 1309 1228 531 
z
" transform="scale(0.015625)"/>
       </defs>
       <use xlink:href="#DejaVuSans-30"/>
       <use xlink:href="#DejaVuSans-2e" x="63.623047"/>
       <use xlink:href="#DejaVuSans-32" x="95.410156"/>
      </g>
     </g>
    </g>
    <g id="ytick_5">
     <g id="line2d_8">
      <g>
       <use xlink:href="#mbe92d687cc" x="52.160938" y="163.663676" style="stroke: #000000; stroke-width: 0.8"/>
      </g>
     </g>
     <g id="text_9">
      <!-- 0.3 -->
      <g transform="translate(29.257812 167.462895)scale(0.1 -0.1)">
       <defs>
        <path id="DejaVuSans-33" d="M 2597 2516 
Q 3050 2419 3304 2112 
Q 3559 1806 3559 1356 
Q 3559 666 3084 287 
Q 2609 -91 1734 -91 
Q 1441 -91 1130 -33 
Q 819 25 488 141 
L 488 750 
Q 750 597 1062 519 
Q 1375 441 1716 441 
Q 2309 441 2620 675 
Q 2931 909 2931 1356 
Q 2931 1769 2642 2001 
Q 2353 2234 1838 2234 
L 1294 2234 
L 1294 2753 
L 1863 2753 
Q 2328 2753 2575 2939 
Q 2822 3125 2822 3475 
Q 2822 3834 2567 4026 
Q 2313 4219 1838 4219 
Q 1578 4219 1281 4162 
Q 984 4106 628 3988 
L 628 4550 
Q 988 4650 1302 4700 
Q 1616 4750 1894 4750 
Q 2613 4750 3031 4423 
Q 3450 4097 3450 3541 
Q 3450 3153 3228 2886 
Q 3006 2619 2597 2516 
z
" transform="scale(0.015625)"/>
       </defs>
       <use xlink:href="#DejaVuSans-30"/>
       <use xlink:href="#DejaVuSans-2e" x="63.623047"/>
       <use xlink:href="#DejaVuSans-33" x="95.410156"/>
      </g>
     </g>
    </g>
    <g id="ytick_6">
     <g id="line2d_9">
      <g>
       <use xlink:href="#mbe92d687cc" x="52.160938" y="128.08334" style="stroke: #000000; stroke-width: 0.8"/>
      </g>
     </g>
     <g id="text_10">
      <!-- 0.4 -->
      <g transform="translate(29.257812 131.882559)scale(0.1 -0.1)">
       <defs>
        <path id="DejaVuSans-34" d="M 2419 4116 
L 825 1625 
L 2419 1625 
L 2419 4116 
z
M 2253 4666 
L 3047 4666 
L 3047 1625 
L 3713 1625 
L 3713 1100 
L 3047 1100 
L 3047 0 
L 2419 0 
L 2419 1100 
L 313 1100 
L 313 1709 
L 2253 4666 
z
" transform="scale(0.015625)"/>
       </defs>
       <use xlink:href="#DejaVuSans-30"/>
       <use xlink:href="#DejaVuSans-2e" x="63.623047"/>
       <use xlink:href="#DejaVuSans-34" x="95.410156"/>
      </g>
     </g>
    </g>
    <g id="ytick_7">
     <g id="line2d_10">
      <g>
       <use xlink:href="#mbe92d687cc" x="52.160938" y="92.503004" style="stroke: #000000; stroke-width: 0.8"/>
      </g>
     </g>
     <g id="text_11">
      <!-- 0.5 -->
      <g transform="translate(29.257812 96.302223)scale(0.1 -0.1)">
       <defs>
        <path id="DejaVuSans-35" d="M 691 4666 
L 3169 4666 
L 3169 4134 
L 1269 4134 
L 1269 2991 
Q 1406 3038 1543 3061 
Q 1681 3084 1819 3084 
Q 2600 3084 3056 2656 
Q 3513 2228 3513 1497 
Q 3513 744 3044 326 
Q 2575 -91 1722 -91 
Q 1428 -91 1123 -41 
Q 819 9 494 109 
L 494 744 
Q 775 591 1075 516 
Q 1375 441 1709 441 
Q 2250 441 2565 725 
Q 2881 1009 2881 1497 
Q 2881 1984 2565 2268 
Q 2250 2553 1709 2553 
Q 1456 2553 1204 2497 
Q 953 2441 691 2322 
L 691 4666 
z
" transform="scale(0.015625)"/>
       </defs>
       <use xlink:href="#DejaVuSans-30"/>
       <use xlink:href="#DejaVuSans-2e" x="63.623047"/>
       <use xlink:href="#DejaVuSans-35" x="95.410156"/>
      </g>
     </g>
    </g>
    <g id="ytick_8">
     <g id="line2d_11">
      <g>
       <use xlink:href="#mbe92d687cc" x="52.160938" y="56.922668" style="stroke: #000000; stroke-width: 0.8"/>
      </g>
     </g>
     <g id="text_12">
      <!-- 0.6 -->
      <g transform="translate(29.257812 60.721887)scale(0.1 -0.1)">
       <defs>
        <path id="DejaVuSans-36" d="M 2113 2584 
Q 1688 2584 1439 2293 
Q 1191 2003 1191 1497 
Q 1191 994 1439 701 
Q 1688 409 2113 409 
Q 2538 409 2786 701 
Q 3034 994 3034 1497 
Q 3034 2003 2786 2293 
Q 2538 2584 2113 2584 
z
M 3366 4563 
L 3366 3988 
Q 3128 4100 2886 4159 
Q 2644 4219 2406 4219 
Q 1781 4219 1451 3797 
Q 1122 3375 1075 2522 
Q 1259 2794 1537 2939 
Q 1816 3084 2150 3084 
Q 2853 3084 3261 2657 
Q 3669 2231 3669 1497 
Q 3669 778 3244 343 
Q 2819 -91 2113 -91 
Q 1303 -91 875 529 
Q 447 1150 447 2328 
Q 447 3434 972 4092 
Q 1497 4750 2381 4750 
Q 2619 4750 2861 4703 
Q 3103 4656 3366 4563 
z
" transform="scale(0.015625)"/>
       </defs>
       <use xlink:href="#DejaVuSans-30"/>
       <use xlink:href="#DejaVuSans-2e" x="63.623047"/>
       <use xlink:href="#DejaVuSans-36" x="95.410156"/>
      </g>
     </g>
    </g>
    <g id="ytick_9">
     <g id="line2d_12">
      <g>
       <use xlink:href="#mbe92d687cc" x="52.160938" y="21.342332" style="stroke: #000000; stroke-width: 0.8"/>
      </g>
     </g>
     <g id="text_13">
      <!-- 0.7 -->
      <g transform="translate(29.257812 25.141551)scale(0.1 -0.1)">
       <defs>
        <path id="DejaVuSans-37" d="M 525 4666 
L 3525 4666 
L 3525 4397 
L 1831 0 
L 1172 0 
L 2766 4134 
L 525 4134 
L 525 4666 
z
" transform="scale(0.015625)"/>
       </defs>
       <use xlink:href="#DejaVuSans-30"/>
       <use xlink:href="#DejaVuSans-2e" x="63.623047"/>
       <use xlink:href="#DejaVuSans-37" x="95.410156"/>
      </g>
     </g>
    </g>
    <g id="text_14">
     <!-- jerk -->
     <g transform="translate(14.798438 170.316406)rotate(-90)scale(0.1 -0.1)">
      <use xlink:href="#DejaVuSans-6a"/>
      <use xlink:href="#DejaVuSans-65" x="27.783203"/>
      <use xlink:href="#DejaVuSans-72" x="89.306641"/>
      <use xlink:href="#DejaVuSans-6b" x="130.419922"/>
     </g>
    </g>
   </g>
   <g id="line2d_13">
    <path d="M 100.873003 270.241277 
L 100.873003 255.969254 
" clip-path="url(#p3c7ed8a2f0)" style="fill: none; stroke: #3f3f3f; stroke-width: 1.5; stroke-linecap: square"/>
   </g>
   <g id="line2d_14">
    <path d="M 100.873003 268.198459 
L 100.873003 263.301694 
" clip-path="url(#p3c7ed8a2f0)" style="fill: none; stroke: #3f3f3f; stroke-width: 4.5; stroke-linecap: square"/>
   </g>
   <g id="line2d_15">
    <path d="M 198.297135 270.404684 
L 198.297135 59.751552 
" clip-path="url(#p3c7ed8a2f0)" style="fill: none; stroke: #3f3f3f; stroke-width: 1.5; stroke-linecap: square"/>
   </g>
   <g id="line2d_16">
    <path d="M 198.297135 248.307287 
L 198.297135 169.026478 
" clip-path="url(#p3c7ed8a2f0)" style="fill: none; stroke: #3f3f3f; stroke-width: 4.5; stroke-linecap: square"/>
   </g>
   <g id="line2d_17">
    <path d="M 295.721267 270.245561 
L 295.721267 224.404433 
" clip-path="url(#p3c7ed8a2f0)" style="fill: none; stroke: #3f3f3f; stroke-width: 1.5; stroke-linecap: square"/>
   </g>
   <g id="line2d_18">
    <path d="M 295.721267 264.845635 
L 295.721267 248.266283 
" clip-path="url(#p3c7ed8a2f0)" style="fill: none; stroke: #3f3f3f; stroke-width: 4.5; stroke-linecap: square"/>
   </g>
   <g id="patch_5">
    <path d="M 52.160938 314.6 
L 52.160938 7.2 
" style="fill: none; stroke: #000000; stroke-width: 0.8; stroke-linejoin: miter; stroke-linecap: square"/>
   </g>
   <g id="patch_6">
    <path d="M 52.160938 314.6 
L 344.433333 314.6 
" style="fill: none; stroke: #000000; stroke-width: 0.8; stroke-linejoin: miter; stroke-linecap: square"/>
   </g>
   <g id="PathCollection_1">
    <defs>
     <path id="m7084de17d8" d="M 0 1.5 
C 0.397805 1.5 0.77937 1.341951 1.06066 1.06066 
C 1.341951 0.77937 1.5 0.397805 1.5 0 
C 1.5 -0.397805 1.341951 -0.77937 1.06066 -1.06066 
C 0.77937 -1.341951 0.397805 -1.5 0 -1.5 
C -0.397805 -1.5 -0.77937 -1.341951 -1.06066 -1.06066 
C -1.341951 -0.77937 -1.5 -0.397805 -1.5 0 
C -1.5 0.397805 -1.341951 0.77937 -1.06066 1.06066 
C -0.77937 1.341951 -0.397805 1.5 0 1.5 
z
" style="stroke: #3f3f3f"/>
    </defs>
    <g clip-path="url(#p3c7ed8a2f0)">
     <use xlink:href="#m7084de17d8" x="100.873003" y="265.833301" style="fill: #ffffff; stroke: #3f3f3f"/>
    </g>
   </g>
   <g id="PathCollection_2">
    <g clip-path="url(#p3c7ed8a2f0)">
     <use xlink:href="#m7084de17d8" x="198.297135" y="220.726873" style="fill: #ffffff; stroke: #3f3f3f"/>
    </g>
   </g>
   <g id="PathCollection_3">
    <g clip-path="url(#p3c7ed8a2f0)">
     <use xlink:href="#m7084de17d8" x="295.721267" y="258.313051" style="fill: #ffffff; stroke: #3f3f3f"/>
    </g>
   </g>
  </g>
  <g id="legend_1">
   <g id="text_15">
    <!-- dim -->
    <g transform="translate(360.681771 164.159375)scale(0.1 -0.1)">
     <defs>
      <path id="DejaVuSans-64" d="M 2906 2969 
L 2906 4863 
L 3481 4863 
L 3481 0 
L 2906 0 
L 2906 525 
Q 2725 213 2448 61 
Q 2172 -91 1784 -91 
Q 1150 -91 751 415 
Q 353 922 353 1747 
Q 353 2572 751 3078 
Q 1150 3584 1784 3584 
Q 2172 3584 2448 3432 
Q 2725 3281 2906 2969 
z
M 947 1747 
Q 947 1113 1208 752 
Q 1469 391 1925 391 
Q 2381 391 2643 752 
Q 2906 1113 2906 1747 
Q 2906 2381 2643 2742 
Q 2381 3103 1925 3103 
Q 1469 3103 1208 2742 
Q 947 2381 947 1747 
z
" transform="scale(0.015625)"/>
      <path id="DejaVuSans-69" d="M 603 3500 
L 1178 3500 
L 1178 0 
L 603 0 
L 603 3500 
z
M 603 4863 
L 1178 4863 
L 1178 4134 
L 603 4134 
L 603 4863 
z
" transform="scale(0.015625)"/>
      <path id="DejaVuSans-6d" d="M 3328 2828 
Q 3544 3216 3844 3400 
Q 4144 3584 4550 3584 
Q 5097 3584 5394 3201 
Q 5691 2819 5691 2113 
L 5691 0 
L 5113 0 
L 5113 2094 
Q 5113 2597 4934 2840 
Q 4756 3084 4391 3084 
Q 3944 3084 3684 2787 
Q 3425 2491 3425 1978 
L 3425 0 
L 2847 0 
L 2847 2094 
Q 2847 2600 2669 2842 
Q 2491 3084 2119 3084 
Q 1678 3084 1418 2786 
Q 1159 2488 1159 1978 
L 1159 0 
L 581 0 
L 581 3500 
L 1159 3500 
L 1159 2956 
Q 1356 3278 1631 3431 
Q 1906 3584 2284 3584 
Q 2666 3584 2933 3390 
Q 3200 3197 3328 2828 
z
" transform="scale(0.015625)"/>
     </defs>
     <use xlink:href="#DejaVuSans-64"/>
     <use xlink:href="#DejaVuSans-69" x="63.476562"/>
     <use xlink:href="#DejaVuSans-6d" x="91.259766"/>
    </g>
   </g>
   <g id="patch_7">
    <path d="M 349.759896 178.8375 
L 369.759896 178.8375 
L 369.759896 171.8375 
L 349.759896 171.8375 
z
" style="fill: #3274a1; stroke: #3f3f3f; stroke-width: 0.75; stroke-linejoin: miter"/>
   </g>
   <g id="text_16">
    <!-- 2d -->
    <g transform="translate(377.759896 178.8375)scale(0.1 -0.1)">
     <use xlink:href="#DejaVuSans-32"/>
     <use xlink:href="#DejaVuSans-64" x="63.623047"/>
    </g>
   </g>
   <g id="patch_8">
    <path d="M 349.759896 193.515625 
L 369.759896 193.515625 
L 369.759896 186.515625 
L 349.759896 186.515625 
z
" style="fill: #e1812c; stroke: #3f3f3f; stroke-width: 0.75; stroke-linejoin: miter"/>
   </g>
   <g id="text_17">
    <!-- 3d -->
    <g transform="translate(377.759896 193.515625)scale(0.1 -0.1)">
     <use xlink:href="#DejaVuSans-33"/>
     <use xlink:href="#DejaVuSans-64" x="63.623047"/>
    </g>
   </g>
  </g>
 </g>
 <defs>
  <clipPath id="p3c7ed8a2f0">
   <rect x="52.160938" y="7.2" width="292.272396" height="307.4"/>
  </clipPath>
 </defs>
</svg>
