<?xml version="1.0" encoding="utf-8" standalone="no"?>
<!DOCTYPE svg PUBLIC "-//W3C//DTD SVG 1.1//EN"
  "http://www.w3.org/Graphics/SVG/1.1/DTD/svg11.dtd">
<svg xmlns:xlink="http://www.w3.org/1999/xlink" width="400.361393pt" height="352.15625pt" viewBox="0 0 400.361393 352.15625" xmlns="http://www.w3.org/2000/svg" version="1.1">
 <metadata>
  <rdf:RDF xmlns:dc="http://purl.org/dc/elements/1.1/" xmlns:cc="http://creativecommons.org/ns#" xmlns:rdf="http://www.w3.org/1999/02/22-rdf-syntax-ns#">
   <cc:Work>
    <dc:type rdf:resource="http://purl.org/dc/dcmitype/StillImage"/>
    <dc:date>2022-03-25T10:15:14.980454</dc:date>
    <dc:format>image/svg+xml</dc:format>
    <dc:creator>
     <cc:Agent>
      <dc:title>Matplotlib v3.5.1, https://matplotlib.org/</dc:title>
     </cc:Agent>
    </dc:creator>
   </cc:Work>
  </rdf:RDF>
 </metadata>
 <defs>
  <style type="text/css">*{stroke-linejoin: round; stroke-linecap: butt}</style>
 </defs>
 <g id="figure_1">
  <g id="patch_1">
   <path d="M 0 352.15625 
L 400.361393 352.15625 
L 400.361393 0 
L 0 0 
L 0 352.15625 
z
" style="fill: none"/>
  </g>
  <g id="axes_1">
   <g id="patch_2">
    <path d="M 40.88125 314.6 
L 345.323893 314.6 
L 345.323893 7.2 
L 40.88125 7.2 
z
" style="fill: #ffffff"/>
   </g>
   <g id="patch_3">
    <path d="M 91.621691 283.791082 
L 91.621691 283.791082 
L 91.621691 283.791082 
L 91.621691 283.791082 
z
" clip-path="url(#p79fff1ef79)" style="fill: #3274a1; stroke: #3f3f3f; stroke-width: 0.75; stroke-linejoin: miter"/>
   </g>
   <g id="PolyCollection_1">
    <defs>
     <path id="mb964d10eef" d="M 91.621691 -79.441455 
L 91.586218 -79.441455 
L 91.566147 -80.955373 
L 91.539526 -82.469292 
L 91.506861 -83.98321 
L 91.470078 -85.497128 
L 91.432573 -87.011046 
L 91.398824 -88.524965 
L 91.373564 -90.038883 
L 91.360706 -91.552801 
L 91.362349 -93.066719 
L 91.378221 -94.580638 
L 91.405752 -96.094556 
L 91.440751 -97.608474 
L 91.478455 -99.122392 
L 91.514568 -100.636311 
L 91.546002 -102.150229 
L 91.571168 -103.664147 
L 91.589829 -105.178065 
L 91.602708 -106.691983 
L 91.611004 -108.205902 
L 91.616004 -109.71982 
L 91.618818 -111.233738 
L 91.620278 -112.747656 
L 91.620902 -114.261575 
L 91.620898 -115.775493 
L 91.620092 -117.289411 
L 91.617695 -118.803329 
L 91.611766 -120.317248 
L 91.598181 -121.831166 
L 91.5689 -123.345084 
L 91.509421 -124.859002 
L 91.395557 -126.372921 
L 91.190244 -127.886839 
L 90.841759 -129.400757 
L 90.28533 -130.914675 
L 89.450107 -132.428594 
L 88.27218 -133.942512 
L 86.711844 -135.45643 
L 84.770078 -136.970348 
L 82.497012 -138.484267 
L 79.985881 -139.998185 
L 77.350676 -141.512103 
L 74.693212 -143.026021 
L 72.07227 -144.53994 
L 69.489478 -146.053858 
L 66.90127 -147.567776 
L 64.255027 -149.081694 
L 61.535559 -150.595613 
L 58.801843 -152.109531 
L 56.196931 -153.623449 
L 53.925048 -155.137367 
L 52.20366 -156.651285 
L 51.20822 -158.165204 
L 51.029338 -159.679122 
L 51.656175 -161.19304 
L 52.989159 -162.706958 
L 54.874364 -164.220877 
L 57.145081 -165.734795 
L 59.655296 -167.248713 
L 62.294719 -168.762631 
L 64.983417 -170.27655 
L 67.652385 -171.790468 
L 70.221428 -173.304386 
L 72.585707 -174.818304 
L 74.61785 -176.332223 
L 76.185887 -177.846141 
L 77.181291 -179.360059 
L 77.548131 -180.873977 
L 77.304239 -182.387896 
L 76.547814 -183.901814 
L 75.44667 -185.415732 
L 74.211522 -186.92965 
L 73.058507 -188.443569 
L 72.16908 -189.957487 
L 71.656855 -191.471405 
L 71.550082 -192.985323 
L 71.79488 -194.499242 
L 72.278712 -196.01316 
L 72.867362 -197.527078 
L 73.444365 -199.040996 
L 73.941173 -200.554915 
L 74.34985 -202.068833 
L 74.716461 -203.582751 
L 75.119864 -205.096669 
L 75.644738 -206.610587 
L 76.357957 -208.124506 
L 77.294305 -209.638424 
L 78.45286 -211.152342 
L 79.801543 -212.66626 
L 81.285729 -214.180179 
L 82.837548 -215.694097 
L 84.384332 -217.208015 
L 85.856176 -218.721933 
L 87.192929 -220.235852 
L 88.350276 -221.74977 
L 89.303848 -223.263688 
L 90.050194 -224.777606 
L 90.604197 -226.291525 
L 90.99367 -227.805443 
L 91.252715 -229.319361 
L 91.621691 -229.319361 
L 91.621691 -229.319361 
L 91.621691 -227.805443 
L 91.621691 -226.291525 
L 91.621691 -224.777606 
L 91.621691 -223.263688 
L 91.621691 -221.74977 
L 91.621691 -220.235852 
L 91.621691 -218.721933 
L 91.621691 -217.208015 
L 91.621691 -215.694097 
L 91.621691 -214.180179 
L 91.621691 -212.66626 
L 91.621691 -211.152342 
L 91.621691 -209.638424 
L 91.621691 -208.124506 
L 91.621691 -206.610587 
L 91.621691 -205.096669 
L 91.621691 -203.582751 
L 91.621691 -202.068833 
L 91.621691 -200.554915 
L 91.621691 -199.040996 
L 91.621691 -197.527078 
L 91.621691 -196.01316 
L 91.621691 -194.499242 
L 91.621691 -192.985323 
L 91.621691 -191.471405 
L 91.621691 -189.957487 
L 91.621691 -188.443569 
L 91.621691 -186.92965 
L 91.621691 -185.415732 
L 91.621691 -183.901814 
L 91.621691 -182.387896 
L 91.621691 -180.873977 
L 91.621691 -179.360059 
L 91.621691 -177.846141 
L 91.621691 -176.332223 
L 91.621691 -174.818304 
L 91.621691 -173.304386 
L 91.621691 -171.790468 
L 91.621691 -170.27655 
L 91.621691 -168.762631 
L 91.621691 -167.248713 
L 91.621691 -165.734795 
L 91.621691 -164.220877 
L 91.621691 -162.706958 
L 91.621691 -161.19304 
L 91.621691 -159.679122 
L 91.621691 -158.165204 
L 91.621691 -156.651285 
L 91.621691 -155.137367 
L 91.621691 -153.623449 
L 91.621691 -152.109531 
L 91.621691 -150.595613 
L 91.621691 -149.081694 
L 91.621691 -147.567776 
L 91.621691 -146.053858 
L 91.621691 -144.53994 
L 91.621691 -143.026021 
L 91.621691 -141.512103 
L 91.621691 -139.998185 
L 91.621691 -138.484267 
L 91.621691 -136.970348 
L 91.621691 -135.45643 
L 91.621691 -133.942512 
L 91.621691 -132.428594 
L 91.621691 -130.914675 
L 91.621691 -129.400757 
L 91.621691 -127.886839 
L 91.621691 -126.372921 
L 91.621691 -124.859002 
L 91.621691 -123.345084 
L 91.621691 -121.831166 
L 91.621691 -120.317248 
L 91.621691 -118.803329 
L 91.621691 -117.289411 
L 91.621691 -115.775493 
L 91.621691 -114.261575 
L 91.621691 -112.747656 
L 91.621691 -111.233738 
L 91.621691 -109.71982 
L 91.621691 -108.205902 
L 91.621691 -106.691983 
L 91.621691 -105.178065 
L 91.621691 -103.664147 
L 91.621691 -102.150229 
L 91.621691 -100.636311 
L 91.621691 -99.122392 
L 91.621691 -97.608474 
L 91.621691 -96.094556 
L 91.621691 -94.580638 
L 91.621691 -93.066719 
L 91.621691 -91.552801 
L 91.621691 -90.038883 
L 91.621691 -88.524965 
L 91.621691 -87.011046 
L 91.621691 -85.497128 
L 91.621691 -83.98321 
L 91.621691 -82.469292 
L 91.621691 -80.955373 
L 91.621691 -79.441455 
z
" style="stroke: #3f3f3f; stroke-width: 1.5"/>
    </defs>
    <g clip-path="url(#p79fff1ef79)">
     <use xlink:href="#mb964d10eef" x="0" y="352.15625" style="fill: #3274a1; stroke: #3f3f3f; stroke-width: 1.5"/>
    </g>
   </g>
   <g id="patch_4">
    <path d="M 91.621691 283.791082 
L 91.621691 283.791082 
L 91.621691 283.791082 
L 91.621691 283.791082 
z
" clip-path="url(#p79fff1ef79)" style="fill: #e1812c; stroke: #3f3f3f; stroke-width: 0.75; stroke-linejoin: miter"/>
   </g>
   <g id="PolyCollection_2">
    <defs>
     <path id="m4f155e9404" d="M 91.676877 -92.866211 
L 91.621691 -92.866211 
L 91.621691 -94.227308 
L 91.621691 -95.588404 
L 91.621691 -96.949501 
L 91.621691 -98.310597 
L 91.621691 -99.671693 
L 91.621691 -101.03279 
L 91.621691 -102.393886 
L 91.621691 -103.754983 
L 91.621691 -105.116079 
L 91.621691 -106.477176 
L 91.621691 -107.838272 
L 91.621691 -109.199369 
L 91.621691 -110.560465 
L 91.621691 -111.921561 
L 91.621691 -113.282658 
L 91.621691 -114.643754 
L 91.621691 -116.004851 
L 91.621691 -117.365947 
L 91.621691 -118.727044 
L 91.621691 -120.08814 
L 91.621691 -121.449236 
L 91.621691 -122.810333 
L 91.621691 -124.171429 
L 91.621691 -125.532526 
L 91.621691 -126.893622 
L 91.621691 -128.254719 
L 91.621691 -129.615815 
L 91.621691 -130.976911 
L 91.621691 -132.338008 
L 91.621691 -133.699104 
L 91.621691 -135.060201 
L 91.621691 -136.421297 
L 91.621691 -137.782394 
L 91.621691 -139.14349 
L 91.621691 -140.504587 
L 91.621691 -141.865683 
L 91.621691 -143.226779 
L 91.621691 -144.587876 
L 91.621691 -145.948972 
L 91.621691 -147.310069 
L 91.621691 -148.671165 
L 91.621691 -150.032262 
L 91.621691 -151.393358 
L 91.621691 -152.754454 
L 91.621691 -154.115551 
L 91.621691 -155.476647 
L 91.621691 -156.837744 
L 91.621691 -158.19884 
L 91.621691 -159.559937 
L 91.621691 -160.921033 
L 91.621691 -162.28213 
L 91.621691 -163.643226 
L 91.621691 -165.004322 
L 91.621691 -166.365419 
L 91.621691 -167.726515 
L 91.621691 -169.087612 
L 91.621691 -170.448708 
L 91.621691 -171.809805 
L 91.621691 -173.170901 
L 91.621691 -174.531997 
L 91.621691 -175.893094 
L 91.621691 -177.25419 
L 91.621691 -178.615287 
L 91.621691 -179.976383 
L 91.621691 -181.33748 
L 91.621691 -182.698576 
L 91.621691 -184.059673 
L 91.621691 -185.420769 
L 91.621691 -186.781865 
L 91.621691 -188.142962 
L 91.621691 -189.504058 
L 91.621691 -190.865155 
L 91.621691 -192.226251 
L 91.621691 -193.587348 
L 91.621691 -194.948444 
L 91.621691 -196.30954 
L 91.621691 -197.670637 
L 91.621691 -199.031733 
L 91.621691 -200.39283 
L 91.621691 -201.753926 
L 91.621691 -203.115023 
L 91.621691 -204.476119 
L 91.621691 -205.837215 
L 91.621691 -207.198312 
L 91.621691 -208.559408 
L 91.621691 -209.920505 
L 91.621691 -211.281601 
L 91.621691 -212.642698 
L 91.621691 -214.003794 
L 91.621691 -215.364891 
L 91.621691 -216.725987 
L 91.621691 -218.087083 
L 91.621691 -219.44818 
L 91.621691 -220.809276 
L 91.621691 -222.170373 
L 91.621691 -223.531469 
L 91.621691 -224.892566 
L 91.621691 -226.253662 
L 91.621691 -227.614758 
L 91.79794 -227.614758 
L 91.79794 -227.614758 
L 91.916379 -226.253662 
L 92.094458 -224.892566 
L 92.350468 -223.531469 
L 92.702877 -222.170373 
L 93.168172 -220.809276 
L 93.75861 -219.44818 
L 94.480371 -218.087083 
L 95.332574 -216.725987 
L 96.307486 -215.364891 
L 97.392053 -214.003794 
L 98.570696 -212.642698 
L 99.829111 -211.281601 
L 101.158496 -209.920505 
L 102.559238 -208.559408 
L 104.042674 -207.198312 
L 105.62935 -205.837215 
L 107.342688 -204.476119 
L 109.198129 -203.115023 
L 111.189664 -201.753926 
L 113.277313 -200.39283 
L 115.379973 -199.031733 
L 117.377298 -197.670637 
L 119.122063 -196.30954 
L 120.461371 -194.948444 
L 121.262311 -193.587348 
L 121.436256 -192.226251 
L 120.956433 -190.865155 
L 119.865275 -189.504058 
L 118.270664 -188.142962 
L 116.33249 -186.781865 
L 114.242523 -185.420769 
L 112.201244 -184.059673 
L 110.395356 -182.698576 
L 108.979226 -181.33748 
L 108.062691 -179.976383 
L 107.70636 -178.615287 
L 107.923993 -177.25419 
L 108.689998 -175.893094 
L 109.949094 -174.531997 
L 111.625239 -173.170901 
L 113.627859 -171.809805 
L 115.855146 -170.448708 
L 118.195728 -169.087612 
L 120.530884 -167.726515 
L 122.739218 -166.365419 
L 124.704403 -165.004322 
L 126.324975 -163.643226 
L 127.523853 -162.28213 
L 128.254907 -160.921033 
L 128.504621 -159.559937 
L 128.288355 -158.19884 
L 127.642258 -156.837744 
L 126.613054 -155.476647 
L 125.248384 -154.115551 
L 123.590089 -152.754454 
L 121.671968 -151.393358 
L 119.52226 -150.032262 
L 117.169699 -148.671165 
L 114.65085 -147.310069 
L 112.015919 -145.948972 
L 109.330672 -144.587876 
L 106.673304 -143.226779 
L 104.12685 -141.865683 
L 101.76909 -140.504587 
L 99.662709 -139.14349 
L 97.848164 -137.782394 
L 96.340786 -136.421297 
L 95.132323 -135.060201 
L 94.196004 -133.699104 
L 93.493489 -132.338008 
L 92.981978 -130.976911 
L 92.620027 -129.615815 
L 92.371309 -128.254719 
L 92.206186 -126.893622 
L 92.101569 -125.532526 
L 92.039817 -124.171429 
L 92.007467 -122.810333 
L 91.994295 -121.449236 
L 91.992904 -120.08814 
L 91.998615 -118.727044 
L 92.009324 -117.365947 
L 92.024958 -116.004851 
L 92.046427 -114.643754 
L 92.074262 -113.282658 
L 92.107335 -111.921561 
L 92.142164 -110.560465 
L 92.173113 -109.199369 
L 92.193478 -107.838272 
L 92.19714 -106.477176 
L 92.180216 -105.116079 
L 92.142156 -103.754983 
L 92.085921 -102.393886 
L 92.017239 -101.03279 
L 91.943226 -99.671693 
L 91.87084 -98.310597 
L 91.805624 -96.949501 
L 91.751016 -95.588404 
L 91.708274 -94.227308 
L 91.676877 -92.866211 
z
" style="stroke: #3f3f3f; stroke-width: 1.5"/>
    </defs>
    <g clip-path="url(#p79fff1ef79)">
     <use xlink:href="#m4f155e9404" x="0" y="352.15625" style="fill: #e1812c; stroke: #3f3f3f; stroke-width: 1.5"/>
    </g>
   </g>
   <g id="PolyCollection_3">
    <defs>
     <path id="m5f309d109e" d="M 193.102572 -68.274188 
L 193.066876 -68.274188 
L 193.033139 -70.927817 
L 192.984076 -73.581447 
L 192.924542 -76.235077 
L 192.865246 -78.888706 
L 192.816915 -81.542336 
L 192.781043 -84.195966 
L 192.744564 -86.849595 
L 192.685601 -89.503225 
L 192.58958 -92.156855 
L 192.464677 -94.810484 
L 192.342102 -97.464114 
L 192.255594 -100.117743 
L 192.210806 -102.771373 
L 192.166008 -105.425003 
L 192.040722 -108.078632 
L 191.751526 -110.732262 
L 191.257385 -113.385892 
L 190.590471 -116.039521 
L 189.852657 -118.693151 
L 189.16864 -121.346781 
L 188.602342 -124.00041 
L 188.063341 -126.65404 
L 187.250122 -129.30767 
L 185.684052 -131.961299 
L 182.86375 -134.614929 
L 178.506417 -137.268559 
L 172.768686 -139.922188 
L 166.315142 -142.575818 
L 160.168024 -145.229447 
L 155.392136 -147.883077 
L 152.756121 -150.536707 
L 152.510219 -153.190336 
L 154.354786 -155.843966 
L 157.593799 -158.497596 
L 161.394624 -161.151225 
L 165.025338 -163.804855 
L 167.956664 -166.458485 
L 169.818604 -169.112114 
L 170.325813 -171.765744 
L 169.314059 -174.419374 
L 166.915635 -177.073003 
L 163.733072 -179.726633 
L 160.805972 -182.380263 
L 159.287872 -185.033892 
L 159.975686 -187.687522 
L 162.972274 -190.341151 
L 167.686497 -192.994781 
L 173.146517 -195.648411 
L 178.412675 -198.30204 
L 182.863708 -200.95567 
L 186.264431 -203.6093 
L 188.669189 -206.262929 
L 190.273854 -208.916559 
L 191.300349 -211.570189 
L 191.938997 -214.223818 
L 192.333498 -216.877448 
L 192.583922 -219.531078 
L 192.75328 -222.184707 
L 192.875193 -224.838337 
L 192.963857 -227.491967 
L 193.024506 -230.145596 
L 193.060524 -232.799226 
L 193.075382 -235.452855 
L 193.071259 -238.106485 
L 193.047691 -240.760115 
L 193.002455 -243.413744 
L 192.934448 -246.067374 
L 192.846263 -248.721004 
L 192.744072 -251.374633 
L 192.635006 -254.028263 
L 192.525422 -256.681893 
L 192.423184 -259.335522 
L 192.342127 -261.989152 
L 192.302403 -264.642782 
L 192.322644 -267.296411 
L 192.407915 -269.950041 
L 192.543004 -272.603671 
L 192.697186 -275.2573 
L 192.837298 -277.91093 
L 192.939831 -280.564559 
L 192.995279 -283.218189 
L 193.005464 -285.871819 
L 192.979307 -288.525448 
L 192.930829 -291.179078 
L 192.878111 -293.832708 
L 192.839457 -296.486337 
L 192.826076 -299.139967 
L 192.83586 -301.793597 
L 192.85435 -304.447226 
L 192.864108 -307.100856 
L 192.85667 -309.754486 
L 192.838472 -312.408115 
L 192.826369 -315.061745 
L 192.836131 -317.715374 
L 192.872397 -320.369004 
L 192.926877 -323.022634 
L 192.984744 -325.676263 
L 193.033307 -328.329893 
L 193.066913 -330.983523 
L 193.102572 -330.983523 
L 193.102572 -330.983523 
L 193.102572 -328.329893 
L 193.102572 -325.676263 
L 193.102572 -323.022634 
L 193.102572 -320.369004 
L 193.102572 -317.715374 
L 193.102572 -315.061745 
L 193.102572 -312.408115 
L 193.102572 -309.754486 
L 193.102572 -307.100856 
L 193.102572 -304.447226 
L 193.102572 -301.793597 
L 193.102572 -299.139967 
L 193.102572 -296.486337 
L 193.102572 -293.832708 
L 193.102572 -291.179078 
L 193.102572 -288.525448 
L 193.102572 -285.871819 
L 193.102572 -283.218189 
L 193.102572 -280.564559 
L 193.102572 -277.91093 
L 193.102572 -275.2573 
L 193.102572 -272.603671 
L 193.102572 -269.950041 
L 193.102572 -267.296411 
L 193.102572 -264.642782 
L 193.102572 -261.989152 
L 193.102572 -259.335522 
L 193.102572 -256.681893 
L 193.102572 -254.028263 
L 193.102572 -251.374633 
L 193.102572 -248.721004 
L 193.102572 -246.067374 
L 193.102572 -243.413744 
L 193.102572 -240.760115 
L 193.102572 -238.106485 
L 193.102572 -235.452855 
L 193.102572 -232.799226 
L 193.102572 -230.145596 
L 193.102572 -227.491967 
L 193.102572 -224.838337 
L 193.102572 -222.184707 
L 193.102572 -219.531078 
L 193.102572 -216.877448 
L 193.102572 -214.223818 
L 193.102572 -211.570189 
L 193.102572 -208.916559 
L 193.102572 -206.262929 
L 193.102572 -203.6093 
L 193.102572 -200.95567 
L 193.102572 -198.30204 
L 193.102572 -195.648411 
L 193.102572 -192.994781 
L 193.102572 -190.341151 
L 193.102572 -187.687522 
L 193.102572 -185.033892 
L 193.102572 -182.380263 
L 193.102572 -179.726633 
L 193.102572 -177.073003 
L 193.102572 -174.419374 
L 193.102572 -171.765744 
L 193.102572 -169.112114 
L 193.102572 -166.458485 
L 193.102572 -163.804855 
L 193.102572 -161.151225 
L 193.102572 -158.497596 
L 193.102572 -155.843966 
L 193.102572 -153.190336 
L 193.102572 -150.536707 
L 193.102572 -147.883077 
L 193.102572 -145.229447 
L 193.102572 -142.575818 
L 193.102572 -139.922188 
L 193.102572 -137.268559 
L 193.102572 -134.614929 
L 193.102572 -131.961299 
L 193.102572 -129.30767 
L 193.102572 -126.65404 
L 193.102572 -124.00041 
L 193.102572 -121.346781 
L 193.102572 -118.693151 
L 193.102572 -116.039521 
L 193.102572 -113.385892 
L 193.102572 -110.732262 
L 193.102572 -108.078632 
L 193.102572 -105.425003 
L 193.102572 -102.771373 
L 193.102572 -100.117743 
L 193.102572 -97.464114 
L 193.102572 -94.810484 
L 193.102572 -92.156855 
L 193.102572 -89.503225 
L 193.102572 -86.849595 
L 193.102572 -84.195966 
L 193.102572 -81.542336 
L 193.102572 -78.888706 
L 193.102572 -76.235077 
L 193.102572 -73.581447 
L 193.102572 -70.927817 
L 193.102572 -68.274188 
z
" style="stroke: #3f3f3f; stroke-width: 1.5"/>
    </defs>
    <g clip-path="url(#p79fff1ef79)">
     <use xlink:href="#m5f309d109e" x="0" y="352.15625" style="fill: #3274a1; stroke: #3f3f3f; stroke-width: 1.5"/>
    </g>
   </g>
   <g id="PolyCollection_4">
    <defs>
     <path id="m13013e77eb" d="M 193.84516 -51.528977 
L 193.102572 -51.528977 
L 193.102572 -53.237029 
L 193.102572 -54.94508 
L 193.102572 -56.653132 
L 193.102572 -58.361183 
L 193.102572 -60.069235 
L 193.102572 -61.777286 
L 193.102572 -63.485337 
L 193.102572 -65.193389 
L 193.102572 -66.90144 
L 193.102572 -68.609492 
L 193.102572 -70.317543 
L 193.102572 -72.025595 
L 193.102572 -73.733646 
L 193.102572 -75.441698 
L 193.102572 -77.149749 
L 193.102572 -78.8578 
L 193.102572 -80.565852 
L 193.102572 -82.273903 
L 193.102572 -83.981955 
L 193.102572 -85.690006 
L 193.102572 -87.398058 
L 193.102572 -89.106109 
L 193.102572 -90.814161 
L 193.102572 -92.522212 
L 193.102572 -94.230264 
L 193.102572 -95.938315 
L 193.102572 -97.646366 
L 193.102572 -99.354418 
L 193.102572 -101.062469 
L 193.102572 -102.770521 
L 193.102572 -104.478572 
L 193.102572 -106.186624 
L 193.102572 -107.894675 
L 193.102572 -109.602727 
L 193.102572 -111.310778 
L 193.102572 -113.01883 
L 193.102572 -114.726881 
L 193.102572 -116.434932 
L 193.102572 -118.142984 
L 193.102572 -119.851035 
L 193.102572 -121.559087 
L 193.102572 -123.267138 
L 193.102572 -124.97519 
L 193.102572 -126.683241 
L 193.102572 -128.391293 
L 193.102572 -130.099344 
L 193.102572 -131.807395 
L 193.102572 -133.515447 
L 193.102572 -135.223498 
L 193.102572 -136.93155 
L 193.102572 -138.639601 
L 193.102572 -140.347653 
L 193.102572 -142.055704 
L 193.102572 -143.763756 
L 193.102572 -145.471807 
L 193.102572 -147.179859 
L 193.102572 -148.88791 
L 193.102572 -150.595961 
L 193.102572 -152.304013 
L 193.102572 -154.012064 
L 193.102572 -155.720116 
L 193.102572 -157.428167 
L 193.102572 -159.136219 
L 193.102572 -160.84427 
L 193.102572 -162.552322 
L 193.102572 -164.260373 
L 193.102572 -165.968424 
L 193.102572 -167.676476 
L 193.102572 -169.384527 
L 193.102572 -171.092579 
L 193.102572 -172.80063 
L 193.102572 -174.508682 
L 193.102572 -176.216733 
L 193.102572 -177.924785 
L 193.102572 -179.632836 
L 193.102572 -181.340888 
L 193.102572 -183.048939 
L 193.102572 -184.75699 
L 193.102572 -186.465042 
L 193.102572 -188.173093 
L 193.102572 -189.881145 
L 193.102572 -191.589196 
L 193.102572 -193.297248 
L 193.102572 -195.005299 
L 193.102572 -196.713351 
L 193.102572 -198.421402 
L 193.102572 -200.129454 
L 193.102572 -201.837505 
L 193.102572 -203.545556 
L 193.102572 -205.253608 
L 193.102572 -206.961659 
L 193.102572 -208.669711 
L 193.102572 -210.377762 
L 193.102572 -212.085814 
L 193.102572 -213.793865 
L 193.102572 -215.501917 
L 193.102572 -217.209968 
L 193.102572 -218.918019 
L 193.102572 -220.626071 
L 193.162936 -220.626071 
L 193.162936 -220.626071 
L 193.199703 -218.918019 
L 193.254755 -217.209968 
L 193.335381 -215.501917 
L 193.45139 -213.793865 
L 193.616125 -212.085814 
L 193.847901 -210.377762 
L 194.171824 -208.669711 
L 194.62172 -206.961659 
L 195.241595 -205.253608 
L 196.085628 -203.545556 
L 197.21551 -201.837505 
L 198.693938 -200.129454 
L 200.573654 -198.421402 
L 202.882552 -196.713351 
L 205.606952 -195.005299 
L 208.676802 -193.297248 
L 211.957607 -191.589196 
L 215.253702 -189.881145 
L 218.325686 -188.173093 
L 220.921466 -186.465042 
L 222.816377 -184.75699 
L 223.854386 -183.048939 
L 223.980869 -181.340888 
L 223.258653 -179.632836 
L 221.862739 -177.924785 
L 220.05442 -176.216733 
L 218.140488 -174.508682 
L 216.426499 -172.80063 
L 215.173617 -171.092579 
L 214.566601 -169.384527 
L 214.697014 -167.676476 
L 215.561955 -165.968424 
L 217.075773 -164.260373 
L 219.090579 -162.552322 
L 221.421001 -160.84427 
L 223.86898 -159.136219 
L 226.245084 -157.428167 
L 228.383803 -155.720116 
L 230.151476 -154.012064 
L 231.447131 -152.304013 
L 232.198217 -150.595961 
L 232.354553 -148.88791 
L 231.884166 -147.179859 
L 230.773608 -145.471807 
L 229.033167 -143.763756 
L 226.704797 -142.055704 
L 223.868766 -140.347653 
L 220.644808 -138.639601 
L 217.185177 -136.93155 
L 213.659779 -135.223498 
L 210.236407 -133.515447 
L 207.060818 -131.807395 
L 204.241359 -130.099344 
L 201.84123 -128.391293 
L 199.879044 -126.683241 
L 198.336059 -124.97519 
L 197.167125 -123.267138 
L 196.312282 -121.559087 
L 195.706689 -119.851035 
L 195.287824 -118.142984 
L 194.999926 -116.434932 
L 194.796302 -114.726881 
L 194.640247 -113.01883 
L 194.505124 -111.310778 
L 194.373883 -109.602727 
L 194.238053 -107.894675 
L 194.096239 -106.186624 
L 193.952197 -104.478572 
L 193.812728 -102.770521 
L 193.685692 -101.062469 
L 193.578458 -99.354418 
L 193.497022 -97.646366 
L 193.445889 -95.938315 
L 193.428664 -94.230264 
L 193.449151 -92.522212 
L 193.512652 -90.814161 
L 193.627022 -89.106109 
L 193.803015 -87.398058 
L 194.053422 -85.690006 
L 194.390728 -83.981955 
L 194.823299 -82.273903 
L 195.350674 -80.565852 
L 195.959037 -78.8578 
L 196.618323 -77.149749 
L 197.282375 -75.441698 
L 197.893023 -73.733646 
L 198.387926 -72.025595 
L 198.710831 -70.317543 
L 198.821939 -68.609492 
L 198.705747 -66.90144 
L 198.374265 -65.193389 
L 197.864717 -63.485337 
L 197.232364 -61.777286 
L 196.540394 -60.069235 
L 195.849447 -58.361183 
L 195.209137 -56.653132 
L 194.653092 -54.94508 
L 194.197882 -53.237029 
L 193.84516 -51.528977 
z
" style="stroke: #3f3f3f; stroke-width: 1.5"/>
    </defs>
    <g clip-path="url(#p79fff1ef79)">
     <use xlink:href="#m13013e77eb" x="0" y="352.15625" style="fill: #e1812c; stroke: #3f3f3f; stroke-width: 1.5"/>
    </g>
   </g>
   <g id="PolyCollection_5">
    <defs>
     <path id="mb4543fbc36" d="M 294.583453 -72.770608 
L 294.489486 -72.770608 
L 294.435888 -74.644423 
L 294.361865 -76.518238 
L 294.264928 -78.392053 
L 294.144606 -80.265869 
L 294.003174 -82.139684 
L 293.846005 -84.013499 
L 293.681404 -85.887314 
L 293.519867 -87.761129 
L 293.372847 -89.634944 
L 293.251188 -91.508759 
L 293.163469 -93.382575 
L 293.114514 -95.25639 
L 293.104371 -97.130205 
L 293.12799 -99.00402 
L 293.175715 -100.877835 
L 293.234435 -102.75165 
L 293.288962 -104.625466 
L 293.323029 -106.499281 
L 293.31943 -108.373096 
L 293.259298 -110.246911 
L 293.121181 -112.120726 
L 292.881093 -113.994541 
L 292.514771 -115.868357 
L 292.002637 -117.742172 
L 291.336672 -119.615987 
L 290.52688 -121.489802 
L 289.604138 -123.363617 
L 288.616477 -125.237432 
L 287.617626 -127.111247 
L 286.649541 -128.985063 
L 285.723616 -130.858878 
L 284.807089 -132.732693 
L 283.820677 -134.606508 
L 282.650588 -136.480323 
L 281.173569 -138.354138 
L 279.289216 -140.227954 
L 276.951172 -142.101769 
L 274.18902 -143.975584 
L 271.115517 -145.849399 
L 267.917901 -147.723214 
L 264.835682 -149.597029 
L 262.129377 -151.470845 
L 260.044928 -153.34466 
L 258.778053 -155.218475 
L 258.442523 -157.09229 
L 259.046819 -158.966105 
L 260.484107 -160.83992 
L 262.539875 -162.713735 
L 264.918991 -164.587551 
L 267.289786 -166.461366 
L 269.338297 -168.335181 
L 270.822576 -170.208996 
L 271.616102 -172.082811 
L 271.730868 -173.956626 
L 271.314356 -175.830442 
L 270.619663 -177.704257 
L 269.95379 -179.578072 
L 269.614558 -181.451887 
L 269.830162 -183.325702 
L 270.715575 -185.199517 
L 272.256044 -187.073333 
L 274.320558 -188.947148 
L 276.699727 -190.820963 
L 279.155976 -192.694778 
L 281.471622 -194.568593 
L 283.482991 -196.442408 
L 285.0948 -198.316223 
L 286.276108 -200.190039 
L 287.044529 -202.063854 
L 287.44741 -203.937669 
L 287.547128 -205.811484 
L 287.413779 -207.685299 
L 287.124137 -209.559114 
L 286.762773 -211.43293 
L 286.420616 -213.306745 
L 286.188117 -215.18056 
L 286.143337 -217.054375 
L 286.33836 -218.92819 
L 286.788844 -220.802005 
L 287.470817 -222.675821 
L 288.32632 -224.549636 
L 289.276392 -226.423451 
L 290.23751 -228.297266 
L 291.136885 -230.171081 
L 291.922964 -232.044896 
L 292.569469 -233.918711 
L 293.073465 -235.792527 
L 293.449371 -237.666342 
L 293.721368 -239.540157 
L 293.91631 -241.413972 
L 294.058493 -243.287787 
L 294.166749 -245.161602 
L 294.253676 -247.035418 
L 294.326397 -248.909233 
L 294.388135 -250.783048 
L 294.439924 -252.656863 
L 294.482016 -254.530678 
L 294.514769 -256.404493 
L 294.539008 -258.278308 
L 294.583453 -258.278308 
L 294.583453 -258.278308 
L 294.583453 -256.404493 
L 294.583453 -254.530678 
L 294.583453 -252.656863 
L 294.583453 -250.783048 
L 294.583453 -248.909233 
L 294.583453 -247.035418 
L 294.583453 -245.161602 
L 294.583453 -243.287787 
L 294.583453 -241.413972 
L 294.583453 -239.540157 
L 294.583453 -237.666342 
L 294.583453 -235.792527 
L 294.583453 -233.918711 
L 294.583453 -232.044896 
L 294.583453 -230.171081 
L 294.583453 -228.297266 
L 294.583453 -226.423451 
L 294.583453 -224.549636 
L 294.583453 -222.675821 
L 294.583453 -220.802005 
L 294.583453 -218.92819 
L 294.583453 -217.054375 
L 294.583453 -215.18056 
L 294.583453 -213.306745 
L 294.583453 -211.43293 
L 294.583453 -209.559114 
L 294.583453 -207.685299 
L 294.583453 -205.811484 
L 294.583453 -203.937669 
L 294.583453 -202.063854 
L 294.583453 -200.190039 
L 294.583453 -198.316223 
L 294.583453 -196.442408 
L 294.583453 -194.568593 
L 294.583453 -192.694778 
L 294.583453 -190.820963 
L 294.583453 -188.947148 
L 294.583453 -187.073333 
L 294.583453 -185.199517 
L 294.583453 -183.325702 
L 294.583453 -181.451887 
L 294.583453 -179.578072 
L 294.583453 -177.704257 
L 294.583453 -175.830442 
L 294.583453 -173.956626 
L 294.583453 -172.082811 
L 294.583453 -170.208996 
L 294.583453 -168.335181 
L 294.583453 -166.461366 
L 294.583453 -164.587551 
L 294.583453 -162.713735 
L 294.583453 -160.83992 
L 294.583453 -158.966105 
L 294.583453 -157.09229 
L 294.583453 -155.218475 
L 294.583453 -153.34466 
L 294.583453 -151.470845 
L 294.583453 -149.597029 
L 294.583453 -147.723214 
L 294.583453 -145.849399 
L 294.583453 -143.975584 
L 294.583453 -142.101769 
L 294.583453 -140.227954 
L 294.583453 -138.354138 
L 294.583453 -136.480323 
L 294.583453 -134.606508 
L 294.583453 -132.732693 
L 294.583453 -130.858878 
L 294.583453 -128.985063 
L 294.583453 -127.111247 
L 294.583453 -125.237432 
L 294.583453 -123.363617 
L 294.583453 -121.489802 
L 294.583453 -119.615987 
L 294.583453 -117.742172 
L 294.583453 -115.868357 
L 294.583453 -113.994541 
L 294.583453 -112.120726 
L 294.583453 -110.246911 
L 294.583453 -108.373096 
L 294.583453 -106.499281 
L 294.583453 -104.625466 
L 294.583453 -102.75165 
L 294.583453 -100.877835 
L 294.583453 -99.00402 
L 294.583453 -97.130205 
L 294.583453 -95.25639 
L 294.583453 -93.382575 
L 294.583453 -91.508759 
L 294.583453 -89.634944 
L 294.583453 -87.761129 
L 294.583453 -85.887314 
L 294.583453 -84.013499 
L 294.583453 -82.139684 
L 294.583453 -80.265869 
L 294.583453 -78.392053 
L 294.583453 -76.518238 
L 294.583453 -74.644423 
L 294.583453 -72.770608 
z
" style="stroke: #3f3f3f; stroke-width: 1.5"/>
    </defs>
    <g clip-path="url(#p79fff1ef79)">
     <use xlink:href="#mb4543fbc36" x="0" y="352.15625" style="fill: #3274a1; stroke: #3f3f3f; stroke-width: 1.5"/>
    </g>
   </g>
   <g id="PolyCollection_6">
    <defs>
     <path id="m8bc4a30018" d="M 294.635531 -103.715115 
L 294.583453 -103.715115 
L 294.583453 -105.318371 
L 294.583453 -106.921627 
L 294.583453 -108.524884 
L 294.583453 -110.12814 
L 294.583453 -111.731397 
L 294.583453 -113.334653 
L 294.583453 -114.937909 
L 294.583453 -116.541166 
L 294.583453 -118.144422 
L 294.583453 -119.747678 
L 294.583453 -121.350935 
L 294.583453 -122.954191 
L 294.583453 -124.557447 
L 294.583453 -126.160704 
L 294.583453 -127.76396 
L 294.583453 -129.367216 
L 294.583453 -130.970473 
L 294.583453 -132.573729 
L 294.583453 -134.176986 
L 294.583453 -135.780242 
L 294.583453 -137.383498 
L 294.583453 -138.986755 
L 294.583453 -140.590011 
L 294.583453 -142.193267 
L 294.583453 -143.796524 
L 294.583453 -145.39978 
L 294.583453 -147.003036 
L 294.583453 -148.606293 
L 294.583453 -150.209549 
L 294.583453 -151.812805 
L 294.583453 -153.416062 
L 294.583453 -155.019318 
L 294.583453 -156.622575 
L 294.583453 -158.225831 
L 294.583453 -159.829087 
L 294.583453 -161.432344 
L 294.583453 -163.0356 
L 294.583453 -164.638856 
L 294.583453 -166.242113 
L 294.583453 -167.845369 
L 294.583453 -169.448625 
L 294.583453 -171.051882 
L 294.583453 -172.655138 
L 294.583453 -174.258394 
L 294.583453 -175.861651 
L 294.583453 -177.464907 
L 294.583453 -179.068164 
L 294.583453 -180.67142 
L 294.583453 -182.274676 
L 294.583453 -183.877933 
L 294.583453 -185.481189 
L 294.583453 -187.084445 
L 294.583453 -188.687702 
L 294.583453 -190.290958 
L 294.583453 -191.894214 
L 294.583453 -193.497471 
L 294.583453 -195.100727 
L 294.583453 -196.703983 
L 294.583453 -198.30724 
L 294.583453 -199.910496 
L 294.583453 -201.513753 
L 294.583453 -203.117009 
L 294.583453 -204.720265 
L 294.583453 -206.323522 
L 294.583453 -207.926778 
L 294.583453 -209.530034 
L 294.583453 -211.133291 
L 294.583453 -212.736547 
L 294.583453 -214.339803 
L 294.583453 -215.94306 
L 294.583453 -217.546316 
L 294.583453 -219.149572 
L 294.583453 -220.752829 
L 294.583453 -222.356085 
L 294.583453 -223.959342 
L 294.583453 -225.562598 
L 294.583453 -227.165854 
L 294.583453 -228.769111 
L 294.583453 -230.372367 
L 294.583453 -231.975623 
L 294.583453 -233.57888 
L 294.583453 -235.182136 
L 294.583453 -236.785392 
L 294.583453 -238.388649 
L 294.583453 -239.991905 
L 294.583453 -241.595161 
L 294.583453 -243.198418 
L 294.583453 -244.801674 
L 294.583453 -246.404931 
L 294.583453 -248.008187 
L 294.583453 -249.611443 
L 294.583453 -251.2147 
L 294.583453 -252.817956 
L 294.583453 -254.421212 
L 294.583453 -256.024469 
L 294.583453 -257.627725 
L 294.583453 -259.230981 
L 294.583453 -260.834238 
L 294.583453 -262.437494 
L 294.681607 -262.437494 
L 294.681607 -262.437494 
L 294.741419 -260.834238 
L 294.824928 -259.230981 
L 294.934077 -257.627725 
L 295.06705 -256.024469 
L 295.217037 -254.421212 
L 295.371966 -252.817956 
L 295.515636 -251.2147 
L 295.630312 -249.611443 
L 295.700281 -248.008187 
L 295.715446 -246.404931 
L 295.673853 -244.801674 
L 295.582379 -243.198418 
L 295.455389 -241.595161 
L 295.311882 -239.991905 
L 295.172102 -238.388649 
L 295.054613 -236.785392 
L 294.974486 -235.182136 
L 294.942684 -233.57888 
L 294.966247 -231.975623 
L 295.048716 -230.372367 
L 295.190385 -228.769111 
L 295.38833 -227.165854 
L 295.636508 -225.562598 
L 295.926372 -223.959342 
L 296.248245 -222.356085 
L 296.593375 -220.752829 
L 296.956157 -219.149572 
L 297.335836 -217.546316 
L 297.73708 -215.94306 
L 298.169123 -214.339803 
L 298.643674 -212.736547 
L 299.172148 -211.133291 
L 299.763085 -209.530034 
L 300.420752 -207.926778 
L 301.145822 -206.323522 
L 301.938653 -204.720265 
L 302.804965 -203.117009 
L 303.76264 -201.513753 
L 304.847241 -199.910496 
L 306.113106 -198.30724 
L 307.627048 -196.703983 
L 309.453094 -195.100727 
L 311.629373 -193.497471 
L 314.141647 -191.894214 
L 316.90103 -190.290958 
L 319.734863 -188.687702 
L 322.398184 -187.084445 
L 324.608307 -185.481189 
L 326.097677 -183.877933 
L 326.672728 -182.274676 
L 326.262303 -180.67142 
L 324.94068 -179.068164 
L 322.9177 -177.464907 
L 320.499178 -175.861651 
L 318.030286 -174.258394 
L 315.838806 -172.655138 
L 314.192471 -171.051882 
L 313.276906 -169.448625 
L 313.191941 -167.845369 
L 313.958435 -166.242113 
L 315.527218 -164.638856 
L 317.78564 -163.0356 
L 320.562662 -161.432344 
L 323.637263 -159.829087 
L 326.755038 -158.225831 
L 329.654271 -156.622575 
L 332.097306 -155.019318 
L 333.898743 -153.416062 
L 334.941476 -151.812805 
L 335.175805 -150.209549 
L 334.604013 -148.606293 
L 333.259438 -147.003036 
L 331.19127 -145.39978 
L 328.462519 -143.796524 
L 325.160581 -142.193267 
L 321.411966 -140.590011 
L 317.389529 -138.986755 
L 313.303803 -137.383498 
L 309.377867 -135.780242 
L 305.813294 -134.176986 
L 302.758773 -132.573729 
L 300.29154 -130.970473 
L 298.415995 -129.367216 
L 297.077355 -127.76396 
L 296.183717 -126.160704 
L 295.629044 -124.557447 
L 295.31149 -122.954191 
L 295.144743 -121.350935 
L 295.062743 -119.747678 
L 295.019669 -118.144422 
L 294.987254 -116.541166 
L 294.951004 -114.937909 
L 294.906229 -113.334653 
L 294.854358 -111.731397 
L 294.799794 -110.12814 
L 294.747506 -108.524884 
L 294.701473 -106.921627 
L 294.663968 -105.318371 
L 294.635531 -103.715115 
z
" style="stroke: #3f3f3f; stroke-width: 1.5"/>
    </defs>
    <g clip-path="url(#p79fff1ef79)">
     <use xlink:href="#m8bc4a30018" x="0" y="352.15625" style="fill: #e1812c; stroke: #3f3f3f; stroke-width: 1.5"/>
    </g>
   </g>
   <g id="matplotlib.axis_1">
    <g id="xtick_1">
     <g id="line2d_1">
      <defs>
       <path id="m2b403a7814" d="M 0 0 
L 0 3.5 
" style="stroke: #000000; stroke-width: 0.8"/>
      </defs>
      <g>
       <use xlink:href="#m2b403a7814" x="91.621691" y="314.6" style="stroke: #000000; stroke-width: 0.8"/>
      </g>
     </g>
     <g id="text_1">
      <!-- burger -->
      <g transform="translate(75.004503 329.198437)scale(0.1 -0.1)">
       <defs>
        <path id="DejaVuSans-62" d="M 3116 1747 
Q 3116 2381 2855 2742 
Q 2594 3103 2138 3103 
Q 1681 3103 1420 2742 
Q 1159 2381 1159 1747 
Q 1159 1113 1420 752 
Q 1681 391 2138 391 
Q 2594 391 2855 752 
Q 3116 1113 3116 1747 
z
M 1159 2969 
Q 1341 3281 1617 3432 
Q 1894 3584 2278 3584 
Q 2916 3584 3314 3078 
Q 3713 2572 3713 1747 
Q 3713 922 3314 415 
Q 2916 -91 2278 -91 
Q 1894 -91 1617 61 
Q 1341 213 1159 525 
L 1159 0 
L 581 0 
L 581 4863 
L 1159 4863 
L 1159 2969 
z
" transform="scale(0.015625)"/>
        <path id="DejaVuSans-75" d="M 544 1381 
L 544 3500 
L 1119 3500 
L 1119 1403 
Q 1119 906 1312 657 
Q 1506 409 1894 409 
Q 2359 409 2629 706 
Q 2900 1003 2900 1516 
L 2900 3500 
L 3475 3500 
L 3475 0 
L 2900 0 
L 2900 538 
Q 2691 219 2414 64 
Q 2138 -91 1772 -91 
Q 1169 -91 856 284 
Q 544 659 544 1381 
z
M 1991 3584 
L 1991 3584 
z
" transform="scale(0.015625)"/>
        <path id="DejaVuSans-72" d="M 2631 2963 
Q 2534 3019 2420 3045 
Q 2306 3072 2169 3072 
Q 1681 3072 1420 2755 
Q 1159 2438 1159 1844 
L 1159 0 
L 581 0 
L 581 3500 
L 1159 3500 
L 1159 2956 
Q 1341 3275 1631 3429 
Q 1922 3584 2338 3584 
Q 2397 3584 2469 3576 
Q 2541 3569 2628 3553 
L 2631 2963 
z
" transform="scale(0.015625)"/>
        <path id="DejaVuSans-67" d="M 2906 1791 
Q 2906 2416 2648 2759 
Q 2391 3103 1925 3103 
Q 1463 3103 1205 2759 
Q 947 2416 947 1791 
Q 947 1169 1205 825 
Q 1463 481 1925 481 
Q 2391 481 2648 825 
Q 2906 1169 2906 1791 
z
M 3481 434 
Q 3481 -459 3084 -895 
Q 2688 -1331 1869 -1331 
Q 1566 -1331 1297 -1286 
Q 1028 -1241 775 -1147 
L 775 -588 
Q 1028 -725 1275 -790 
Q 1522 -856 1778 -856 
Q 2344 -856 2625 -561 
Q 2906 -266 2906 331 
L 2906 616 
Q 2728 306 2450 153 
Q 2172 0 1784 0 
Q 1141 0 747 490 
Q 353 981 353 1791 
Q 353 2603 747 3093 
Q 1141 3584 1784 3584 
Q 2172 3584 2450 3431 
Q 2728 3278 2906 2969 
L 2906 3500 
L 3481 3500 
L 3481 434 
z
" transform="scale(0.015625)"/>
        <path id="DejaVuSans-65" d="M 3597 1894 
L 3597 1613 
L 953 1613 
Q 991 1019 1311 708 
Q 1631 397 2203 397 
Q 2534 397 2845 478 
Q 3156 559 3463 722 
L 3463 178 
Q 3153 47 2828 -22 
Q 2503 -91 2169 -91 
Q 1331 -91 842 396 
Q 353 884 353 1716 
Q 353 2575 817 3079 
Q 1281 3584 2069 3584 
Q 2775 3584 3186 3129 
Q 3597 2675 3597 1894 
z
M 3022 2063 
Q 3016 2534 2758 2815 
Q 2500 3097 2075 3097 
Q 1594 3097 1305 2825 
Q 1016 2553 972 2059 
L 3022 2063 
z
" transform="scale(0.015625)"/>
       </defs>
       <use xlink:href="#DejaVuSans-62"/>
       <use xlink:href="#DejaVuSans-75" x="63.476562"/>
       <use xlink:href="#DejaVuSans-72" x="126.855469"/>
       <use xlink:href="#DejaVuSans-67" x="166.21875"/>
       <use xlink:href="#DejaVuSans-65" x="229.695312"/>
       <use xlink:href="#DejaVuSans-72" x="291.21875"/>
      </g>
     </g>
    </g>
    <g id="xtick_2">
     <g id="line2d_2">
      <g>
       <use xlink:href="#m2b403a7814" x="193.102572" y="314.6" style="stroke: #000000; stroke-width: 0.8"/>
      </g>
     </g>
     <g id="text_2">
      <!-- jackal -->
      <g transform="translate(178.63929 329.198437)scale(0.1 -0.1)">
       <defs>
        <path id="DejaVuSans-6a" d="M 603 3500 
L 1178 3500 
L 1178 -63 
Q 1178 -731 923 -1031 
Q 669 -1331 103 -1331 
L -116 -1331 
L -116 -844 
L 38 -844 
Q 366 -844 484 -692 
Q 603 -541 603 -63 
L 603 3500 
z
M 603 4863 
L 1178 4863 
L 1178 4134 
L 603 4134 
L 603 4863 
z
" transform="scale(0.015625)"/>
        <path id="DejaVuSans-61" d="M 2194 1759 
Q 1497 1759 1228 1600 
Q 959 1441 959 1056 
Q 959 750 1161 570 
Q 1363 391 1709 391 
Q 2188 391 2477 730 
Q 2766 1069 2766 1631 
L 2766 1759 
L 2194 1759 
z
M 3341 1997 
L 3341 0 
L 2766 0 
L 2766 531 
Q 2569 213 2275 61 
Q 1981 -91 1556 -91 
Q 1019 -91 701 211 
Q 384 513 384 1019 
Q 384 1609 779 1909 
Q 1175 2209 1959 2209 
L 2766 2209 
L 2766 2266 
Q 2766 2663 2505 2880 
Q 2244 3097 1772 3097 
Q 1472 3097 1187 3025 
Q 903 2953 641 2809 
L 641 3341 
Q 956 3463 1253 3523 
Q 1550 3584 1831 3584 
Q 2591 3584 2966 3190 
Q 3341 2797 3341 1997 
z
" transform="scale(0.015625)"/>
        <path id="DejaVuSans-63" d="M 3122 3366 
L 3122 2828 
Q 2878 2963 2633 3030 
Q 2388 3097 2138 3097 
Q 1578 3097 1268 2742 
Q 959 2388 959 1747 
Q 959 1106 1268 751 
Q 1578 397 2138 397 
Q 2388 397 2633 464 
Q 2878 531 3122 666 
L 3122 134 
Q 2881 22 2623 -34 
Q 2366 -91 2075 -91 
Q 1284 -91 818 406 
Q 353 903 353 1747 
Q 353 2603 823 3093 
Q 1294 3584 2113 3584 
Q 2378 3584 2631 3529 
Q 2884 3475 3122 3366 
z
" transform="scale(0.015625)"/>
        <path id="DejaVuSans-6b" d="M 581 4863 
L 1159 4863 
L 1159 1991 
L 2875 3500 
L 3609 3500 
L 1753 1863 
L 3688 0 
L 2938 0 
L 1159 1709 
L 1159 0 
L 581 0 
L 581 4863 
z
" transform="scale(0.015625)"/>
        <path id="DejaVuSans-6c" d="M 603 4863 
L 1178 4863 
L 1178 0 
L 603 0 
L 603 4863 
z
" transform="scale(0.015625)"/>
       </defs>
       <use xlink:href="#DejaVuSans-6a"/>
       <use xlink:href="#DejaVuSans-61" x="27.783203"/>
       <use xlink:href="#DejaVuSans-63" x="89.0625"/>
       <use xlink:href="#DejaVuSans-6b" x="144.042969"/>
       <use xlink:href="#DejaVuSans-61" x="200.203125"/>
       <use xlink:href="#DejaVuSans-6c" x="261.482422"/>
      </g>
     </g>
    </g>
    <g id="xtick_3">
     <g id="line2d_3">
      <g>
       <use xlink:href="#m2b403a7814" x="294.583453" y="314.6" style="stroke: #000000; stroke-width: 0.8"/>
      </g>
     </g>
     <g id="text_3">
      <!-- youbot -->
      <g transform="translate(277.202203 329.198437)scale(0.1 -0.1)">
       <defs>
        <path id="DejaVuSans-79" d="M 2059 -325 
Q 1816 -950 1584 -1140 
Q 1353 -1331 966 -1331 
L 506 -1331 
L 506 -850 
L 844 -850 
Q 1081 -850 1212 -737 
Q 1344 -625 1503 -206 
L 1606 56 
L 191 3500 
L 800 3500 
L 1894 763 
L 2988 3500 
L 3597 3500 
L 2059 -325 
z
" transform="scale(0.015625)"/>
        <path id="DejaVuSans-6f" d="M 1959 3097 
Q 1497 3097 1228 2736 
Q 959 2375 959 1747 
Q 959 1119 1226 758 
Q 1494 397 1959 397 
Q 2419 397 2687 759 
Q 2956 1122 2956 1747 
Q 2956 2369 2687 2733 
Q 2419 3097 1959 3097 
z
M 1959 3584 
Q 2709 3584 3137 3096 
Q 3566 2609 3566 1747 
Q 3566 888 3137 398 
Q 2709 -91 1959 -91 
Q 1206 -91 779 398 
Q 353 888 353 1747 
Q 353 2609 779 3096 
Q 1206 3584 1959 3584 
z
" transform="scale(0.015625)"/>
        <path id="DejaVuSans-74" d="M 1172 4494 
L 1172 3500 
L 2356 3500 
L 2356 3053 
L 1172 3053 
L 1172 1153 
Q 1172 725 1289 603 
Q 1406 481 1766 481 
L 2356 481 
L 2356 0 
L 1766 0 
Q 1100 0 847 248 
Q 594 497 594 1153 
L 594 3053 
L 172 3053 
L 172 3500 
L 594 3500 
L 594 4494 
L 1172 4494 
z
" transform="scale(0.015625)"/>
       </defs>
       <use xlink:href="#DejaVuSans-79"/>
       <use xlink:href="#DejaVuSans-6f" x="59.179688"/>
       <use xlink:href="#DejaVuSans-75" x="120.361328"/>
       <use xlink:href="#DejaVuSans-62" x="183.740234"/>
       <use xlink:href="#DejaVuSans-6f" x="247.216797"/>
       <use xlink:href="#DejaVuSans-74" x="308.398438"/>
      </g>
     </g>
    </g>
    <g id="text_4">
     <!-- Robot -->
     <g transform="translate(178.600228 342.876562)scale(0.1 -0.1)">
      <defs>
       <path id="DejaVuSans-52" d="M 2841 2188 
Q 3044 2119 3236 1894 
Q 3428 1669 3622 1275 
L 4263 0 
L 3584 0 
L 2988 1197 
Q 2756 1666 2539 1819 
Q 2322 1972 1947 1972 
L 1259 1972 
L 1259 0 
L 628 0 
L 628 4666 
L 2053 4666 
Q 2853 4666 3247 4331 
Q 3641 3997 3641 3322 
Q 3641 2881 3436 2590 
Q 3231 2300 2841 2188 
z
M 1259 4147 
L 1259 2491 
L 2053 2491 
Q 2509 2491 2742 2702 
Q 2975 2913 2975 3322 
Q 2975 3731 2742 3939 
Q 2509 4147 2053 4147 
L 1259 4147 
z
" transform="scale(0.015625)"/>
      </defs>
      <use xlink:href="#DejaVuSans-52"/>
      <use xlink:href="#DejaVuSans-6f" x="64.982422"/>
      <use xlink:href="#DejaVuSans-62" x="126.164062"/>
      <use xlink:href="#DejaVuSans-6f" x="189.640625"/>
      <use xlink:href="#DejaVuSans-74" x="250.822266"/>
     </g>
    </g>
   </g>
   <g id="matplotlib.axis_2">
    <g id="ytick_1">
     <g id="line2d_4">
      <defs>
       <path id="m8c82b46bf6" d="M 0 0 
L -3.5 0 
" style="stroke: #000000; stroke-width: 0.8"/>
      </defs>
      <g>
       <use xlink:href="#m8c82b46bf6" x="40.88125" y="283.791082" style="stroke: #000000; stroke-width: 0.8"/>
      </g>
     </g>
     <g id="text_5">
      <!-- 0 -->
      <g transform="translate(27.51875 287.590301)scale(0.1 -0.1)">
       <defs>
        <path id="DejaVuSans-30" d="M 2034 4250 
Q 1547 4250 1301 3770 
Q 1056 3291 1056 2328 
Q 1056 1369 1301 889 
Q 1547 409 2034 409 
Q 2525 409 2770 889 
Q 3016 1369 3016 2328 
Q 3016 3291 2770 3770 
Q 2525 4250 2034 4250 
z
M 2034 4750 
Q 2819 4750 3233 4129 
Q 3647 3509 3647 2328 
Q 3647 1150 3233 529 
Q 2819 -91 2034 -91 
Q 1250 -91 836 529 
Q 422 1150 422 2328 
Q 422 3509 836 4129 
Q 1250 4750 2034 4750 
z
" transform="scale(0.015625)"/>
       </defs>
       <use xlink:href="#DejaVuSans-30"/>
      </g>
     </g>
    </g>
    <g id="ytick_2">
     <g id="line2d_5">
      <g>
       <use xlink:href="#m8c82b46bf6" x="40.88125" y="246.367923" style="stroke: #000000; stroke-width: 0.8"/>
      </g>
     </g>
     <g id="text_6">
      <!-- 10 -->
      <g transform="translate(21.15625 250.167142)scale(0.1 -0.1)">
       <defs>
        <path id="DejaVuSans-31" d="M 794 531 
L 1825 531 
L 1825 4091 
L 703 3866 
L 703 4441 
L 1819 4666 
L 2450 4666 
L 2450 531 
L 3481 531 
L 3481 0 
L 794 0 
L 794 531 
z
" transform="scale(0.015625)"/>
       </defs>
       <use xlink:href="#DejaVuSans-31"/>
       <use xlink:href="#DejaVuSans-30" x="63.623047"/>
      </g>
     </g>
    </g>
    <g id="ytick_3">
     <g id="line2d_6">
      <g>
       <use xlink:href="#m8c82b46bf6" x="40.88125" y="208.944765" style="stroke: #000000; stroke-width: 0.8"/>
      </g>
     </g>
     <g id="text_7">
      <!-- 20 -->
      <g transform="translate(21.15625 212.743984)scale(0.1 -0.1)">
       <defs>
        <path id="DejaVuSans-32" d="M 1228 531 
L 3431 531 
L 3431 0 
L 469 0 
L 469 531 
Q 828 903 1448 1529 
Q 2069 2156 2228 2338 
Q 2531 2678 2651 2914 
Q 2772 3150 2772 3378 
Q 2772 3750 2511 3984 
Q 2250 4219 1831 4219 
Q 1534 4219 1204 4116 
Q 875 4013 500 3803 
L 500 4441 
Q 881 4594 1212 4672 
Q 1544 4750 1819 4750 
Q 2544 4750 2975 4387 
Q 3406 4025 3406 3419 
Q 3406 3131 3298 2873 
Q 3191 2616 2906 2266 
Q 2828 2175 2409 1742 
Q 1991 1309 1228 531 
z
" transform="scale(0.015625)"/>
       </defs>
       <use xlink:href="#DejaVuSans-32"/>
       <use xlink:href="#DejaVuSans-30" x="63.623047"/>
      </g>
     </g>
    </g>
    <g id="ytick_4">
     <g id="line2d_7">
      <g>
       <use xlink:href="#m8c82b46bf6" x="40.88125" y="171.521606" style="stroke: #000000; stroke-width: 0.8"/>
      </g>
     </g>
     <g id="text_8">
      <!-- 30 -->
      <g transform="translate(21.15625 175.320825)scale(0.1 -0.1)">
       <defs>
        <path id="DejaVuSans-33" d="M 2597 2516 
Q 3050 2419 3304 2112 
Q 3559 1806 3559 1356 
Q 3559 666 3084 287 
Q 2609 -91 1734 -91 
Q 1441 -91 1130 -33 
Q 819 25 488 141 
L 488 750 
Q 750 597 1062 519 
Q 1375 441 1716 441 
Q 2309 441 2620 675 
Q 2931 909 2931 1356 
Q 2931 1769 2642 2001 
Q 2353 2234 1838 2234 
L 1294 2234 
L 1294 2753 
L 1863 2753 
Q 2328 2753 2575 2939 
Q 2822 3125 2822 3475 
Q 2822 3834 2567 4026 
Q 2313 4219 1838 4219 
Q 1578 4219 1281 4162 
Q 984 4106 628 3988 
L 628 4550 
Q 988 4650 1302 4700 
Q 1616 4750 1894 4750 
Q 2613 4750 3031 4423 
Q 3450 4097 3450 3541 
Q 3450 3153 3228 2886 
Q 3006 2619 2597 2516 
z
" transform="scale(0.015625)"/>
       </defs>
       <use xlink:href="#DejaVuSans-33"/>
       <use xlink:href="#DejaVuSans-30" x="63.623047"/>
      </g>
     </g>
    </g>
    <g id="ytick_5">
     <g id="line2d_8">
      <g>
       <use xlink:href="#m8c82b46bf6" x="40.88125" y="134.098448" style="stroke: #000000; stroke-width: 0.8"/>
      </g>
     </g>
     <g id="text_9">
      <!-- 40 -->
      <g transform="translate(21.15625 137.897667)scale(0.1 -0.1)">
       <defs>
        <path id="DejaVuSans-34" d="M 2419 4116 
L 825 1625 
L 2419 1625 
L 2419 4116 
z
M 2253 4666 
L 3047 4666 
L 3047 1625 
L 3713 1625 
L 3713 1100 
L 3047 1100 
L 3047 0 
L 2419 0 
L 2419 1100 
L 313 1100 
L 313 1709 
L 2253 4666 
z
" transform="scale(0.015625)"/>
       </defs>
       <use xlink:href="#DejaVuSans-34"/>
       <use xlink:href="#DejaVuSans-30" x="63.623047"/>
      </g>
     </g>
    </g>
    <g id="ytick_6">
     <g id="line2d_9">
      <g>
       <use xlink:href="#m8c82b46bf6" x="40.88125" y="96.675289" style="stroke: #000000; stroke-width: 0.8"/>
      </g>
     </g>
     <g id="text_10">
      <!-- 50 -->
      <g transform="translate(21.15625 100.474508)scale(0.1 -0.1)">
       <defs>
        <path id="DejaVuSans-35" d="M 691 4666 
L 3169 4666 
L 3169 4134 
L 1269 4134 
L 1269 2991 
Q 1406 3038 1543 3061 
Q 1681 3084 1819 3084 
Q 2600 3084 3056 2656 
Q 3513 2228 3513 1497 
Q 3513 744 3044 326 
Q 2575 -91 1722 -91 
Q 1428 -91 1123 -41 
Q 819 9 494 109 
L 494 744 
Q 775 591 1075 516 
Q 1375 441 1709 441 
Q 2250 441 2565 725 
Q 2881 1009 2881 1497 
Q 2881 1984 2565 2268 
Q 2250 2553 1709 2553 
Q 1456 2553 1204 2497 
Q 953 2441 691 2322 
L 691 4666 
z
" transform="scale(0.015625)"/>
       </defs>
       <use xlink:href="#DejaVuSans-35"/>
       <use xlink:href="#DejaVuSans-30" x="63.623047"/>
      </g>
     </g>
    </g>
    <g id="ytick_7">
     <g id="line2d_10">
      <g>
       <use xlink:href="#m8c82b46bf6" x="40.88125" y="59.252131" style="stroke: #000000; stroke-width: 0.8"/>
      </g>
     </g>
     <g id="text_11">
      <!-- 60 -->
      <g transform="translate(21.15625 63.05135)scale(0.1 -0.1)">
       <defs>
        <path id="DejaVuSans-36" d="M 2113 2584 
Q 1688 2584 1439 2293 
Q 1191 2003 1191 1497 
Q 1191 994 1439 701 
Q 1688 409 2113 409 
Q 2538 409 2786 701 
Q 3034 994 3034 1497 
Q 3034 2003 2786 2293 
Q 2538 2584 2113 2584 
z
M 3366 4563 
L 3366 3988 
Q 3128 4100 2886 4159 
Q 2644 4219 2406 4219 
Q 1781 4219 1451 3797 
Q 1122 3375 1075 2522 
Q 1259 2794 1537 2939 
Q 1816 3084 2150 3084 
Q 2853 3084 3261 2657 
Q 3669 2231 3669 1497 
Q 3669 778 3244 343 
Q 2819 -91 2113 -91 
Q 1303 -91 875 529 
Q 447 1150 447 2328 
Q 447 3434 972 4092 
Q 1497 4750 2381 4750 
Q 2619 4750 2861 4703 
Q 3103 4656 3366 4563 
z
" transform="scale(0.015625)"/>
       </defs>
       <use xlink:href="#DejaVuSans-36"/>
       <use xlink:href="#DejaVuSans-30" x="63.623047"/>
      </g>
     </g>
    </g>
    <g id="ytick_8">
     <g id="line2d_11">
      <g>
       <use xlink:href="#m8c82b46bf6" x="40.88125" y="21.828972" style="stroke: #000000; stroke-width: 0.8"/>
      </g>
     </g>
     <g id="text_12">
      <!-- 70 -->
      <g transform="translate(21.15625 25.628191)scale(0.1 -0.1)">
       <defs>
        <path id="DejaVuSans-37" d="M 525 4666 
L 3525 4666 
L 3525 4397 
L 1831 0 
L 1172 0 
L 2766 4134 
L 525 4134 
L 525 4666 
z
" transform="scale(0.015625)"/>
       </defs>
       <use xlink:href="#DejaVuSans-37"/>
       <use xlink:href="#DejaVuSans-30" x="63.623047"/>
      </g>
     </g>
    </g>
    <g id="text_13">
     <!-- path_length -->
     <g transform="translate(14.798438 190.704687)rotate(-90)scale(0.1 -0.1)">
      <defs>
       <path id="DejaVuSans-70" d="M 1159 525 
L 1159 -1331 
L 581 -1331 
L 581 3500 
L 1159 3500 
L 1159 2969 
Q 1341 3281 1617 3432 
Q 1894 3584 2278 3584 
Q 2916 3584 3314 3078 
Q 3713 2572 3713 1747 
Q 3713 922 3314 415 
Q 2916 -91 2278 -91 
Q 1894 -91 1617 61 
Q 1341 213 1159 525 
z
M 3116 1747 
Q 3116 2381 2855 2742 
Q 2594 3103 2138 3103 
Q 1681 3103 1420 2742 
Q 1159 2381 1159 1747 
Q 1159 1113 1420 752 
Q 1681 391 2138 391 
Q 2594 391 2855 752 
Q 3116 1113 3116 1747 
z
" transform="scale(0.015625)"/>
       <path id="DejaVuSans-68" d="M 3513 2113 
L 3513 0 
L 2938 0 
L 2938 2094 
Q 2938 2591 2744 2837 
Q 2550 3084 2163 3084 
Q 1697 3084 1428 2787 
Q 1159 2491 1159 1978 
L 1159 0 
L 581 0 
L 581 4863 
L 1159 4863 
L 1159 2956 
Q 1366 3272 1645 3428 
Q 1925 3584 2291 3584 
Q 2894 3584 3203 3211 
Q 3513 2838 3513 2113 
z
" transform="scale(0.015625)"/>
       <path id="DejaVuSans-5f" d="M 3263 -1063 
L 3263 -1509 
L -63 -1509 
L -63 -1063 
L 3263 -1063 
z
" transform="scale(0.015625)"/>
       <path id="DejaVuSans-6e" d="M 3513 2113 
L 3513 0 
L 2938 0 
L 2938 2094 
Q 2938 2591 2744 2837 
Q 2550 3084 2163 3084 
Q 1697 3084 1428 2787 
Q 1159 2491 1159 1978 
L 1159 0 
L 581 0 
L 581 3500 
L 1159 3500 
L 1159 2956 
Q 1366 3272 1645 3428 
Q 1925 3584 2291 3584 
Q 2894 3584 3203 3211 
Q 3513 2838 3513 2113 
z
" transform="scale(0.015625)"/>
      </defs>
      <use xlink:href="#DejaVuSans-70"/>
      <use xlink:href="#DejaVuSans-61" x="63.476562"/>
      <use xlink:href="#DejaVuSans-74" x="124.755859"/>
      <use xlink:href="#DejaVuSans-68" x="163.964844"/>
      <use xlink:href="#DejaVuSans-5f" x="227.34375"/>
      <use xlink:href="#DejaVuSans-6c" x="277.34375"/>
      <use xlink:href="#DejaVuSans-65" x="305.126953"/>
      <use xlink:href="#DejaVuSans-6e" x="366.650391"/>
      <use xlink:href="#DejaVuSans-67" x="430.029297"/>
      <use xlink:href="#DejaVuSans-74" x="493.505859"/>
      <use xlink:href="#DejaVuSans-68" x="532.714844"/>
     </g>
    </g>
   </g>
   <g id="line2d_12">
    <path d="M 91.621691 247.19347 
L 91.621691 135.536979 
" clip-path="url(#p79fff1ef79)" style="fill: none; stroke: #3f3f3f; stroke-width: 1.5; stroke-linecap: square"/>
   </g>
   <g id="line2d_13">
    <path d="M 91.621691 195.591271 
L 91.621691 160.022541 
" clip-path="url(#p79fff1ef79)" style="fill: none; stroke: #3f3f3f; stroke-width: 4.5; stroke-linecap: square"/>
   </g>
   <g id="line2d_14">
    <path d="M 193.102572 252.69255 
L 193.102572 133.82214 
" clip-path="url(#p79fff1ef79)" style="fill: none; stroke: #3f3f3f; stroke-width: 1.5; stroke-linecap: square"/>
   </g>
   <g id="line2d_15">
    <path d="M 193.102572 205.293845 
L 193.102572 170.24048 
" clip-path="url(#p79fff1ef79)" style="fill: none; stroke: #3f3f3f; stroke-width: 4.5; stroke-linecap: square"/>
   </g>
   <g id="line2d_16">
    <path d="M 294.583453 239.334792 
L 294.583453 122.412788 
" clip-path="url(#p79fff1ef79)" style="fill: none; stroke: #3f3f3f; stroke-width: 1.5; stroke-linecap: square"/>
   </g>
   <g id="line2d_17">
    <path d="M 294.583453 201.416123 
L 294.583453 169.407691 
" clip-path="url(#p79fff1ef79)" style="fill: none; stroke: #3f3f3f; stroke-width: 4.5; stroke-linecap: square"/>
   </g>
   <g id="patch_5">
    <path d="M 40.88125 314.6 
L 40.88125 7.2 
" style="fill: none; stroke: #000000; stroke-width: 0.8; stroke-linejoin: miter; stroke-linecap: square"/>
   </g>
   <g id="patch_6">
    <path d="M 40.88125 314.6 
L 345.323893 314.6 
" style="fill: none; stroke: #000000; stroke-width: 0.8; stroke-linejoin: miter; stroke-linecap: square"/>
   </g>
   <g id="PathCollection_1">
    <defs>
     <path id="m739610029f" d="M 0 1.5 
C 0.397805 1.5 0.77937 1.341951 1.06066 1.06066 
C 1.341951 0.77937 1.5 0.397805 1.5 0 
C 1.5 -0.397805 1.341951 -0.77937 1.06066 -1.06066 
C 0.77937 -1.341951 0.397805 -1.5 0 -1.5 
C -0.397805 -1.5 -0.77937 -1.341951 -1.06066 -1.06066 
C -1.341951 -0.77937 -1.5 -0.397805 -1.5 0 
C -1.5 0.397805 -1.341951 0.77937 -1.06066 1.06066 
C -0.77937 1.341951 -0.397805 1.5 0 1.5 
z
" style="stroke: #3f3f3f"/>
    </defs>
    <g clip-path="url(#p79fff1ef79)">
     <use xlink:href="#m739610029f" x="91.621691" y="184.687324" style="fill: #ffffff; stroke: #3f3f3f"/>
    </g>
   </g>
   <g id="PathCollection_2">
    <g clip-path="url(#p79fff1ef79)">
     <use xlink:href="#m739610029f" x="193.102572" y="194.311551" style="fill: #ffffff; stroke: #3f3f3f"/>
    </g>
   </g>
   <g id="PathCollection_3">
    <g clip-path="url(#p79fff1ef79)">
     <use xlink:href="#m739610029f" x="294.583453" y="191.978482" style="fill: #ffffff; stroke: #3f3f3f"/>
    </g>
   </g>
  </g>
  <g id="legend_1">
   <g id="text_14">
    <!-- dim -->
    <g transform="translate(361.572331 164.159375)scale(0.1 -0.1)">
     <defs>
      <path id="DejaVuSans-64" d="M 2906 2969 
L 2906 4863 
L 3481 4863 
L 3481 0 
L 2906 0 
L 2906 525 
Q 2725 213 2448 61 
Q 2172 -91 1784 -91 
Q 1150 -91 751 415 
Q 353 922 353 1747 
Q 353 2572 751 3078 
Q 1150 3584 1784 3584 
Q 2172 3584 2448 3432 
Q 2725 3281 2906 2969 
z
M 947 1747 
Q 947 1113 1208 752 
Q 1469 391 1925 391 
Q 2381 391 2643 752 
Q 2906 1113 2906 1747 
Q 2906 2381 2643 2742 
Q 2381 3103 1925 3103 
Q 1469 3103 1208 2742 
Q 947 2381 947 1747 
z
" transform="scale(0.015625)"/>
      <path id="DejaVuSans-69" d="M 603 3500 
L 1178 3500 
L 1178 0 
L 603 0 
L 603 3500 
z
M 603 4863 
L 1178 4863 
L 1178 4134 
L 603 4134 
L 603 4863 
z
" transform="scale(0.015625)"/>
      <path id="DejaVuSans-6d" d="M 3328 2828 
Q 3544 3216 3844 3400 
Q 4144 3584 4550 3584 
Q 5097 3584 5394 3201 
Q 5691 2819 5691 2113 
L 5691 0 
L 5113 0 
L 5113 2094 
Q 5113 2597 4934 2840 
Q 4756 3084 4391 3084 
Q 3944 3084 3684 2787 
Q 3425 2491 3425 1978 
L 3425 0 
L 2847 0 
L 2847 2094 
Q 2847 2600 2669 2842 
Q 2491 3084 2119 3084 
Q 1678 3084 1418 2786 
Q 1159 2488 1159 1978 
L 1159 0 
L 581 0 
L 581 3500 
L 1159 3500 
L 1159 2956 
Q 1356 3278 1631 3431 
Q 1906 3584 2284 3584 
Q 2666 3584 2933 3390 
Q 3200 3197 3328 2828 
z
" transform="scale(0.015625)"/>
     </defs>
     <use xlink:href="#DejaVuSans-64"/>
     <use xlink:href="#DejaVuSans-69" x="63.476562"/>
     <use xlink:href="#DejaVuSans-6d" x="91.259766"/>
    </g>
   </g>
   <g id="patch_7">
    <path d="M 350.650456 178.8375 
L 370.650456 178.8375 
L 370.650456 171.8375 
L 350.650456 171.8375 
z
" style="fill: #3274a1; stroke: #3f3f3f; stroke-width: 0.75; stroke-linejoin: miter"/>
   </g>
   <g id="text_15">
    <!-- 2d -->
    <g transform="translate(378.650456 178.8375)scale(0.1 -0.1)">
     <use xlink:href="#DejaVuSans-32"/>
     <use xlink:href="#DejaVuSans-64" x="63.623047"/>
    </g>
   </g>
   <g id="patch_8">
    <path d="M 350.650456 193.515625 
L 370.650456 193.515625 
L 370.650456 186.515625 
L 350.650456 186.515625 
z
" style="fill: #e1812c; stroke: #3f3f3f; stroke-width: 0.75; stroke-linejoin: miter"/>
   </g>
   <g id="text_16">
    <!-- 3d -->
    <g transform="translate(378.650456 193.515625)scale(0.1 -0.1)">
     <use xlink:href="#DejaVuSans-33"/>
     <use xlink:href="#DejaVuSans-64" x="63.623047"/>
    </g>
   </g>
  </g>
 </g>
 <defs>
  <clipPath id="p79fff1ef79">
   <rect x="40.88125" y="7.2" width="304.442643" height="307.4"/>
  </clipPath>
 </defs>
</svg>
