<?xml version="1.0" encoding="utf-8" standalone="no"?>
<!DOCTYPE svg PUBLIC "-//W3C//DTD SVG 1.1//EN"
  "http://www.w3.org/Graphics/SVG/1.1/DTD/svg11.dtd">
<svg xmlns:xlink="http://www.w3.org/1999/xlink" width="400.236458pt" height="352.15625pt" viewBox="0 0 400.236458 352.15625" xmlns="http://www.w3.org/2000/svg" version="1.1">
 <metadata>
  <rdf:RDF xmlns:dc="http://purl.org/dc/elements/1.1/" xmlns:cc="http://creativecommons.org/ns#" xmlns:rdf="http://www.w3.org/1999/02/22-rdf-syntax-ns#">
   <cc:Work>
    <dc:type rdf:resource="http://purl.org/dc/dcmitype/StillImage"/>
    <dc:date>2022-03-25T19:30:54.639513</dc:date>
    <dc:format>image/svg+xml</dc:format>
    <dc:creator>
     <cc:Agent>
      <dc:title>Matplotlib v3.5.1, https://matplotlib.org/</dc:title>
     </cc:Agent>
    </dc:creator>
   </cc:Work>
  </rdf:RDF>
 </metadata>
 <defs>
  <style type="text/css">*{stroke-linejoin: round; stroke-linecap: butt}</style>
 </defs>
 <g id="figure_1">
  <g id="patch_1">
   <path d="M 0 352.15625 
L 400.236458 352.15625 
L 400.236458 0 
L 0 0 
L 0 352.15625 
z
" style="fill: none"/>
  </g>
  <g id="axes_1">
   <g id="patch_2">
    <path d="M 46.965625 314.6 
L 345.198958 314.6 
L 345.198958 7.2 
L 46.965625 7.2 
z
" style="fill: #ffffff"/>
   </g>
   <g id="patch_3">
    <path d="M 96.671181 275.933539 
L 96.671181 275.933539 
L 96.671181 275.933539 
L 96.671181 275.933539 
z
" clip-path="url(#pa143731874)" style="fill: #3274a1; stroke: #3f3f3f; stroke-width: 0.75; stroke-linejoin: miter"/>
   </g>
   <g id="PolyCollection_1">
    <defs>
     <path id="m3152ea1646" d="M 96.671181 -164.790783 
L 96.25192 -164.790783 
L 96.073708 -166.256533 
L 95.838744 -167.722282 
L 95.536986 -169.188032 
L 95.159527 -170.653782 
L 94.699682 -172.119532 
L 94.154076 -173.585282 
L 93.523555 -175.051031 
L 92.81374 -176.516781 
L 92.035071 -177.982531 
L 91.20225 -179.448281 
L 90.333091 -180.91403 
L 89.446902 -182.37978 
L 88.562604 -183.84553 
L 87.696856 -185.31128 
L 86.862462 -186.777029 
L 86.067247 -188.242779 
L 85.313518 -189.708529 
L 84.598049 -191.174279 
L 83.912461 -192.640028 
L 83.24377 -194.105778 
L 82.574934 -195.571528 
L 81.885258 -197.037278 
L 81.150702 -198.503028 
L 80.34425 -199.968777 
L 79.436636 -201.434527 
L 78.397739 -202.900277 
L 77.198913 -204.366027 
L 75.816361 -205.831776 
L 74.235402 -207.297526 
L 72.455211 -208.763276 
L 70.493346 -210.229026 
L 68.389193 -211.694775 
L 66.205444 -213.160525 
L 64.026828 -214.626275 
L 61.955687 -216.092025 
L 60.104427 -217.557775 
L 58.585443 -219.023524 
L 57.499626 -220.489274 
L 56.924944 -221.955024 
L 56.906736 -223.420774 
L 57.451207 -224.886523 
L 58.523208 -226.352273 
L 60.048769 -227.818023 
L 61.922098 -229.283773 
L 64.01615 -230.749522 
L 66.195288 -232.215272 
L 68.328368 -233.681022 
L 70.300568 -235.146772 
L 72.022586 -236.612521 
L 73.436295 -238.078271 
L 74.516527 -239.544021 
L 75.269191 -241.009771 
L 75.726409 -242.475521 
L 75.939655 -243.94127 
L 75.972007 -245.40702 
L 75.890584 -246.87277 
L 75.760012 -248.33852 
L 75.637492 -249.804269 
L 75.569665 -251.270019 
L 75.591187 -252.735769 
L 75.724636 -254.201519 
L 75.981298 -255.667268 
L 76.362333 -257.133018 
L 76.859952 -258.598768 
L 77.45841 -260.064518 
L 78.134787 -261.530267 
L 78.859708 -262.996017 
L 79.598206 -264.461767 
L 80.310948 -265.927517 
L 80.955977 -267.393267 
L 81.491003 -268.859016 
L 81.876213 -270.324766 
L 82.077422 -271.790516 
L 82.069389 -273.256266 
L 81.839032 -274.722015 
L 81.388245 -276.187765 
L 80.736006 -277.653515 
L 79.919378 -279.119265 
L 78.993052 -280.585014 
L 78.027104 -282.050764 
L 77.102828 -283.516514 
L 76.306728 -284.982264 
L 75.723106 -286.448013 
L 75.426004 -287.913763 
L 75.471491 -289.379513 
L 75.891426 -290.845263 
L 76.689673 -292.311013 
L 77.841428 -293.776762 
L 79.29587 -295.242512 
L 80.981754 -296.708262 
L 82.815136 -298.174012 
L 84.708052 -299.639761 
L 86.57693 -301.105511 
L 88.349605 -302.571261 
L 89.970177 -304.037011 
L 91.401367 -305.50276 
L 92.624448 -306.96851 
L 93.637205 -308.43426 
L 94.450574 -309.90001 
L 96.671181 -309.90001 
L 96.671181 -309.90001 
L 96.671181 -308.43426 
L 96.671181 -306.96851 
L 96.671181 -305.50276 
L 96.671181 -304.037011 
L 96.671181 -302.571261 
L 96.671181 -301.105511 
L 96.671181 -299.639761 
L 96.671181 -298.174012 
L 96.671181 -296.708262 
L 96.671181 -295.242512 
L 96.671181 -293.776762 
L 96.671181 -292.311013 
L 96.671181 -290.845263 
L 96.671181 -289.379513 
L 96.671181 -287.913763 
L 96.671181 -286.448013 
L 96.671181 -284.982264 
L 96.671181 -283.516514 
L 96.671181 -282.050764 
L 96.671181 -280.585014 
L 96.671181 -279.119265 
L 96.671181 -277.653515 
L 96.671181 -276.187765 
L 96.671181 -274.722015 
L 96.671181 -273.256266 
L 96.671181 -271.790516 
L 96.671181 -270.324766 
L 96.671181 -268.859016 
L 96.671181 -267.393267 
L 96.671181 -265.927517 
L 96.671181 -264.461767 
L 96.671181 -262.996017 
L 96.671181 -261.530267 
L 96.671181 -260.064518 
L 96.671181 -258.598768 
L 96.671181 -257.133018 
L 96.671181 -255.667268 
L 96.671181 -254.201519 
L 96.671181 -252.735769 
L 96.671181 -251.270019 
L 96.671181 -249.804269 
L 96.671181 -248.33852 
L 96.671181 -246.87277 
L 96.671181 -245.40702 
L 96.671181 -243.94127 
L 96.671181 -242.475521 
L 96.671181 -241.009771 
L 96.671181 -239.544021 
L 96.671181 -238.078271 
L 96.671181 -236.612521 
L 96.671181 -235.146772 
L 96.671181 -233.681022 
L 96.671181 -232.215272 
L 96.671181 -230.749522 
L 96.671181 -229.283773 
L 96.671181 -227.818023 
L 96.671181 -226.352273 
L 96.671181 -224.886523 
L 96.671181 -223.420774 
L 96.671181 -221.955024 
L 96.671181 -220.489274 
L 96.671181 -219.023524 
L 96.671181 -217.557775 
L 96.671181 -216.092025 
L 96.671181 -214.626275 
L 96.671181 -213.160525 
L 96.671181 -211.694775 
L 96.671181 -210.229026 
L 96.671181 -208.763276 
L 96.671181 -207.297526 
L 96.671181 -205.831776 
L 96.671181 -204.366027 
L 96.671181 -202.900277 
L 96.671181 -201.434527 
L 96.671181 -199.968777 
L 96.671181 -198.503028 
L 96.671181 -197.037278 
L 96.671181 -195.571528 
L 96.671181 -194.105778 
L 96.671181 -192.640028 
L 96.671181 -191.174279 
L 96.671181 -189.708529 
L 96.671181 -188.242779 
L 96.671181 -186.777029 
L 96.671181 -185.31128 
L 96.671181 -183.84553 
L 96.671181 -182.37978 
L 96.671181 -180.91403 
L 96.671181 -179.448281 
L 96.671181 -177.982531 
L 96.671181 -176.516781 
L 96.671181 -175.051031 
L 96.671181 -173.585282 
L 96.671181 -172.119532 
L 96.671181 -170.653782 
L 96.671181 -169.188032 
L 96.671181 -167.722282 
L 96.671181 -166.256533 
L 96.671181 -164.790783 
z
" style="stroke: #3f3f3f; stroke-width: 1.5"/>
    </defs>
    <g clip-path="url(#pa143731874)">
     <use xlink:href="#m3152ea1646" x="0" y="352.15625" style="fill: #3274a1; stroke: #3f3f3f; stroke-width: 1.5"/>
    </g>
   </g>
   <g id="patch_4">
    <path d="M 96.671181 275.933539 
L 96.671181 275.933539 
L 96.671181 275.933539 
L 96.671181 275.933539 
z
" clip-path="url(#pa143731874)" style="fill: #e1812c; stroke: #3f3f3f; stroke-width: 0.75; stroke-linejoin: miter"/>
   </g>
   <g id="PolyCollection_2">
    <defs>
     <path id="me737d5c8bb" d="M 96.706405 -131.294305 
L 96.671181 -131.294305 
L 96.671181 -133.098532 
L 96.671181 -134.902758 
L 96.671181 -136.706985 
L 96.671181 -138.511211 
L 96.671181 -140.315438 
L 96.671181 -142.119664 
L 96.671181 -143.923891 
L 96.671181 -145.728117 
L 96.671181 -147.532344 
L 96.671181 -149.33657 
L 96.671181 -151.140797 
L 96.671181 -152.945024 
L 96.671181 -154.74925 
L 96.671181 -156.553477 
L 96.671181 -158.357703 
L 96.671181 -160.16193 
L 96.671181 -161.966156 
L 96.671181 -163.770383 
L 96.671181 -165.574609 
L 96.671181 -167.378836 
L 96.671181 -169.183062 
L 96.671181 -170.987289 
L 96.671181 -172.791515 
L 96.671181 -174.595742 
L 96.671181 -176.399969 
L 96.671181 -178.204195 
L 96.671181 -180.008422 
L 96.671181 -181.812648 
L 96.671181 -183.616875 
L 96.671181 -185.421101 
L 96.671181 -187.225328 
L 96.671181 -189.029554 
L 96.671181 -190.833781 
L 96.671181 -192.638007 
L 96.671181 -194.442234 
L 96.671181 -196.24646 
L 96.671181 -198.050687 
L 96.671181 -199.854914 
L 96.671181 -201.65914 
L 96.671181 -203.463367 
L 96.671181 -205.267593 
L 96.671181 -207.07182 
L 96.671181 -208.876046 
L 96.671181 -210.680273 
L 96.671181 -212.484499 
L 96.671181 -214.288726 
L 96.671181 -216.092952 
L 96.671181 -217.897179 
L 96.671181 -219.701405 
L 96.671181 -221.505632 
L 96.671181 -223.309859 
L 96.671181 -225.114085 
L 96.671181 -226.918312 
L 96.671181 -228.722538 
L 96.671181 -230.526765 
L 96.671181 -232.330991 
L 96.671181 -234.135218 
L 96.671181 -235.939444 
L 96.671181 -237.743671 
L 96.671181 -239.547897 
L 96.671181 -241.352124 
L 96.671181 -243.15635 
L 96.671181 -244.960577 
L 96.671181 -246.764804 
L 96.671181 -248.56903 
L 96.671181 -250.373257 
L 96.671181 -252.177483 
L 96.671181 -253.98171 
L 96.671181 -255.785936 
L 96.671181 -257.590163 
L 96.671181 -259.394389 
L 96.671181 -261.198616 
L 96.671181 -263.002842 
L 96.671181 -264.807069 
L 96.671181 -266.611295 
L 96.671181 -268.415522 
L 96.671181 -270.219749 
L 96.671181 -272.023975 
L 96.671181 -273.828202 
L 96.671181 -275.632428 
L 96.671181 -277.436655 
L 96.671181 -279.240881 
L 96.671181 -281.045108 
L 96.671181 -282.849334 
L 96.671181 -284.653561 
L 96.671181 -286.457787 
L 96.671181 -288.262014 
L 96.671181 -290.06624 
L 96.671181 -291.870467 
L 96.671181 -293.674694 
L 96.671181 -295.47892 
L 96.671181 -297.283147 
L 96.671181 -299.087373 
L 96.671181 -300.8916 
L 96.671181 -302.695826 
L 96.671181 -304.500053 
L 96.671181 -306.304279 
L 96.671181 -308.108506 
L 96.671181 -309.912732 
L 98.037971 -309.912732 
L 98.037971 -309.912732 
L 98.683012 -308.108506 
L 99.528402 -306.304279 
L 100.587583 -304.500053 
L 101.854219 -302.695826 
L 103.297089 -300.8916 
L 104.858551 -299.087373 
L 106.45806 -297.283147 
L 108.00117 -295.47892 
L 109.393094 -293.674694 
L 110.554477 -291.870467 
L 111.436078 -290.06624 
L 112.028964 -288.262014 
L 112.367606 -286.457787 
L 112.524907 -284.653561 
L 112.600037 -282.849334 
L 112.701629 -281.045108 
L 112.929775 -279.240881 
L 113.360292 -277.436655 
L 114.033891 -275.632428 
L 114.95158 -273.828202 
L 116.076282 -272.023975 
L 117.339531 -270.219749 
L 118.651571 -268.415522 
L 119.913009 -266.611295 
L 121.026448 -264.807069 
L 121.906852 -263.002842 
L 122.489833 -261.198616 
L 122.737313 -259.394389 
L 122.640314 -257.590163 
L 122.218824 -255.785936 
L 121.518964 -253.98171 
L 120.607903 -252.177483 
L 119.567205 -250.373257 
L 118.48545 -248.56903 
L 117.450937 -246.764804 
L 116.545211 -244.960577 
L 115.837917 -243.15635 
L 115.38319 -241.352124 
L 115.217618 -239.547897 
L 115.359581 -237.743671 
L 115.809738 -235.939444 
L 116.552387 -234.135218 
L 117.557489 -232.330991 
L 118.783116 -230.526765 
L 120.178114 -228.722538 
L 121.684769 -226.918312 
L 123.241256 -225.114085 
L 124.783761 -223.309859 
L 126.248261 -221.505632 
L 127.572141 -219.701405 
L 128.695887 -217.897179 
L 129.565128 -216.092952 
L 130.133142 -214.288726 
L 130.363694 -212.484499 
L 130.23383 -210.680273 
L 129.736058 -208.876046 
L 128.879356 -207.07182 
L 127.688635 -205.267593 
L 126.2026 -203.463367 
L 124.470312 -201.65914 
L 122.547036 -199.854914 
L 120.490055 -198.050687 
L 118.355061 -196.24646 
L 116.193534 -194.442234 
L 114.051216 -192.638007 
L 111.96755 -190.833781 
L 109.975771 -189.029554 
L 108.103275 -187.225328 
L 106.37195 -185.421101 
L 104.798277 -183.616875 
L 103.393184 -181.812648 
L 102.161785 -180.008422 
L 101.103231 -178.204195 
L 100.210914 -176.399969 
L 99.47316 -174.595742 
L 98.874434 -172.791515 
L 98.396901 -170.987289 
L 98.022081 -169.183062 
L 97.7323 -167.378836 
L 97.511708 -165.574609 
L 97.346749 -163.770383 
L 97.226115 -161.966156 
L 97.140364 -160.16193 
L 97.081404 -158.357703 
L 97.042062 -156.553477 
L 97.015861 -154.74925 
L 96.997044 -152.945024 
L 96.980775 -151.140797 
L 96.963402 -149.33657 
L 96.942657 -147.532344 
L 96.917688 -145.728117 
L 96.888889 -143.923891 
L 96.857575 -142.119664 
L 96.825544 -140.315438 
L 96.794658 -138.511211 
L 96.766495 -136.706985 
L 96.742137 -134.902758 
L 96.722105 -133.098532 
L 96.706405 -131.294305 
z
" style="stroke: #3f3f3f; stroke-width: 1.5"/>
    </defs>
    <g clip-path="url(#pa143731874)">
     <use xlink:href="#me737d5c8bb" x="0" y="352.15625" style="fill: #e1812c; stroke: #3f3f3f; stroke-width: 1.5"/>
    </g>
   </g>
   <g id="PolyCollection_3">
    <defs>
     <path id="m2f01864b62" d="M 196.082292 -56.877297 
L 195.430428 -56.877297 
L 195.157966 -59.603131 
L 194.800022 -62.328964 
L 194.341709 -65.054798 
L 193.769937 -67.780631 
L 193.075153 -70.506465 
L 192.253176 -73.232298 
L 191.306885 -75.958132 
L 190.247486 -78.683966 
L 189.095106 -81.409799 
L 187.878492 -84.135633 
L 186.63373 -86.861466 
L 185.40202 -89.5873 
L 184.226702 -92.313133 
L 183.149875 -95.038967 
L 182.209015 -97.764801 
L 181.434029 -100.490634 
L 180.84512 -103.216468 
L 180.451711 -105.942301 
L 180.252513 -108.668135 
L 180.236624 -111.393968 
L 180.385445 -114.119802 
L 180.675044 -116.845635 
L 181.078617 -119.571469 
L 181.568718 -122.297303 
L 182.119027 -125.023136 
L 182.705537 -127.74897 
L 183.307183 -130.474803 
L 183.906007 -133.200637 
L 184.487018 -135.92647 
L 185.037929 -138.652304 
L 185.548885 -141.378137 
L 186.012296 -144.103971 
L 186.422766 -146.829805 
L 186.777113 -149.555638 
L 187.074401 -152.281472 
L 187.315926 -155.007305 
L 187.505103 -157.733139 
L 187.647233 -160.458972 
L 187.749167 -163.184806 
L 187.818907 -165.910639 
L 187.865187 -168.636473 
L 187.897077 -171.362307 
L 187.92363 -174.08814 
L 187.953564 -176.813974 
L 187.99498 -179.539807 
L 188.05506 -182.265641 
L 188.139756 -184.991474 
L 188.253474 -187.717308 
L 188.398758 -190.443141 
L 188.576064 -193.168975 
L 188.783645 -195.894809 
L 189.017628 -198.620642 
L 189.272286 -201.346476 
L 189.540521 -204.072309 
L 189.8145 -206.798143 
L 190.086395 -209.523976 
L 190.349121 -212.24981 
L 190.596998 -214.975644 
L 190.826259 -217.701477 
L 191.035339 -220.427311 
L 191.22492 -223.153144 
L 191.397729 -225.878978 
L 191.558102 -228.604811 
L 191.71136 -231.330645 
L 191.863056 -234.056478 
L 192.01816 -236.782312 
L 192.180279 -239.508146 
L 192.350984 -242.233979 
L 192.529345 -244.959813 
L 192.71174 -247.685646 
L 192.891979 -250.41148 
L 193.061791 -253.137313 
L 193.211624 -255.863147 
L 193.331718 -258.58898 
L 193.413343 -261.314814 
L 193.450065 -264.040648 
L 193.438885 -266.766481 
L 193.381084 -269.492315 
L 193.282631 -272.218148 
L 193.154056 -274.943982 
L 193.009737 -277.669815 
L 192.86666 -280.395649 
L 192.742767 -283.121482 
L 192.655092 -285.847316 
L 192.617941 -288.57315 
L 192.641352 -291.298983 
L 192.730067 -294.024817 
L 192.883153 -296.75065 
L 193.094305 -299.476484 
L 193.352772 -302.202317 
L 193.644741 -304.928151 
L 193.95495 -307.653985 
L 194.268306 -310.379818 
L 194.571274 -313.105652 
L 194.852896 -315.831485 
L 195.105367 -318.557319 
L 195.324151 -321.283152 
L 195.50773 -324.008986 
L 195.657077 -326.734819 
L 196.082292 -326.734819 
L 196.082292 -326.734819 
L 196.082292 -324.008986 
L 196.082292 -321.283152 
L 196.082292 -318.557319 
L 196.082292 -315.831485 
L 196.082292 -313.105652 
L 196.082292 -310.379818 
L 196.082292 -307.653985 
L 196.082292 -304.928151 
L 196.082292 -302.202317 
L 196.082292 -299.476484 
L 196.082292 -296.75065 
L 196.082292 -294.024817 
L 196.082292 -291.298983 
L 196.082292 -288.57315 
L 196.082292 -285.847316 
L 196.082292 -283.121482 
L 196.082292 -280.395649 
L 196.082292 -277.669815 
L 196.082292 -274.943982 
L 196.082292 -272.218148 
L 196.082292 -269.492315 
L 196.082292 -266.766481 
L 196.082292 -264.040648 
L 196.082292 -261.314814 
L 196.082292 -258.58898 
L 196.082292 -255.863147 
L 196.082292 -253.137313 
L 196.082292 -250.41148 
L 196.082292 -247.685646 
L 196.082292 -244.959813 
L 196.082292 -242.233979 
L 196.082292 -239.508146 
L 196.082292 -236.782312 
L 196.082292 -234.056478 
L 196.082292 -231.330645 
L 196.082292 -228.604811 
L 196.082292 -225.878978 
L 196.082292 -223.153144 
L 196.082292 -220.427311 
L 196.082292 -217.701477 
L 196.082292 -214.975644 
L 196.082292 -212.24981 
L 196.082292 -209.523976 
L 196.082292 -206.798143 
L 196.082292 -204.072309 
L 196.082292 -201.346476 
L 196.082292 -198.620642 
L 196.082292 -195.894809 
L 196.082292 -193.168975 
L 196.082292 -190.443141 
L 196.082292 -187.717308 
L 196.082292 -184.991474 
L 196.082292 -182.265641 
L 196.082292 -179.539807 
L 196.082292 -176.813974 
L 196.082292 -174.08814 
L 196.082292 -171.362307 
L 196.082292 -168.636473 
L 196.082292 -165.910639 
L 196.082292 -163.184806 
L 196.082292 -160.458972 
L 196.082292 -157.733139 
L 196.082292 -155.007305 
L 196.082292 -152.281472 
L 196.082292 -149.555638 
L 196.082292 -146.829805 
L 196.082292 -144.103971 
L 196.082292 -141.378137 
L 196.082292 -138.652304 
L 196.082292 -135.92647 
L 196.082292 -133.200637 
L 196.082292 -130.474803 
L 196.082292 -127.74897 
L 196.082292 -125.023136 
L 196.082292 -122.297303 
L 196.082292 -119.571469 
L 196.082292 -116.845635 
L 196.082292 -114.119802 
L 196.082292 -111.393968 
L 196.082292 -108.668135 
L 196.082292 -105.942301 
L 196.082292 -103.216468 
L 196.082292 -100.490634 
L 196.082292 -97.764801 
L 196.082292 -95.038967 
L 196.082292 -92.313133 
L 196.082292 -89.5873 
L 196.082292 -86.861466 
L 196.082292 -84.135633 
L 196.082292 -81.409799 
L 196.082292 -78.683966 
L 196.082292 -75.958132 
L 196.082292 -73.232298 
L 196.082292 -70.506465 
L 196.082292 -67.780631 
L 196.082292 -65.054798 
L 196.082292 -62.328964 
L 196.082292 -59.603131 
L 196.082292 -56.877297 
z
" style="stroke: #3f3f3f; stroke-width: 1.5"/>
    </defs>
    <g clip-path="url(#pa143731874)">
     <use xlink:href="#m2f01864b62" x="0" y="352.15625" style="fill: #3274a1; stroke: #3f3f3f; stroke-width: 1.5"/>
    </g>
   </g>
   <g id="PolyCollection_4">
    <defs>
     <path id="mde2db22a43" d="M 197.250498 -51.528977 
L 196.082292 -51.528977 
L 196.082292 -54.26686 
L 196.082292 -57.004743 
L 196.082292 -59.742626 
L 196.082292 -62.480509 
L 196.082292 -65.218392 
L 196.082292 -67.956274 
L 196.082292 -70.694157 
L 196.082292 -73.43204 
L 196.082292 -76.169923 
L 196.082292 -78.907806 
L 196.082292 -81.645689 
L 196.082292 -84.383572 
L 196.082292 -87.121455 
L 196.082292 -89.859337 
L 196.082292 -92.59722 
L 196.082292 -95.335103 
L 196.082292 -98.072986 
L 196.082292 -100.810869 
L 196.082292 -103.548752 
L 196.082292 -106.286635 
L 196.082292 -109.024517 
L 196.082292 -111.7624 
L 196.082292 -114.500283 
L 196.082292 -117.238166 
L 196.082292 -119.976049 
L 196.082292 -122.713932 
L 196.082292 -125.451815 
L 196.082292 -128.189698 
L 196.082292 -130.92758 
L 196.082292 -133.665463 
L 196.082292 -136.403346 
L 196.082292 -139.141229 
L 196.082292 -141.879112 
L 196.082292 -144.616995 
L 196.082292 -147.354878 
L 196.082292 -150.09276 
L 196.082292 -152.830643 
L 196.082292 -155.568526 
L 196.082292 -158.306409 
L 196.082292 -161.044292 
L 196.082292 -163.782175 
L 196.082292 -166.520058 
L 196.082292 -169.257941 
L 196.082292 -171.995823 
L 196.082292 -174.733706 
L 196.082292 -177.471589 
L 196.082292 -180.209472 
L 196.082292 -182.947355 
L 196.082292 -185.685238 
L 196.082292 -188.423121 
L 196.082292 -191.161003 
L 196.082292 -193.898886 
L 196.082292 -196.636769 
L 196.082292 -199.374652 
L 196.082292 -202.112535 
L 196.082292 -204.850418 
L 196.082292 -207.588301 
L 196.082292 -210.326184 
L 196.082292 -213.064066 
L 196.082292 -215.801949 
L 196.082292 -218.539832 
L 196.082292 -221.277715 
L 196.082292 -224.015598 
L 196.082292 -226.753481 
L 196.082292 -229.491364 
L 196.082292 -232.229246 
L 196.082292 -234.967129 
L 196.082292 -237.705012 
L 196.082292 -240.442895 
L 196.082292 -243.180778 
L 196.082292 -245.918661 
L 196.082292 -248.656544 
L 196.082292 -251.394427 
L 196.082292 -254.132309 
L 196.082292 -256.870192 
L 196.082292 -259.608075 
L 196.082292 -262.345958 
L 196.082292 -265.083841 
L 196.082292 -267.821724 
L 196.082292 -270.559607 
L 196.082292 -273.297489 
L 196.082292 -276.035372 
L 196.082292 -278.773255 
L 196.082292 -281.511138 
L 196.082292 -284.249021 
L 196.082292 -286.986904 
L 196.082292 -289.724787 
L 196.082292 -292.46267 
L 196.082292 -295.200552 
L 196.082292 -297.938435 
L 196.082292 -300.676318 
L 196.082292 -303.414201 
L 196.082292 -306.152084 
L 196.082292 -308.889967 
L 196.082292 -311.62785 
L 196.082292 -314.365732 
L 196.082292 -317.103615 
L 196.082292 -319.841498 
L 196.082292 -322.579381 
L 196.507649 -322.579381 
L 196.507649 -322.579381 
L 196.681034 -319.841498 
L 196.899607 -317.103615 
L 197.164228 -314.365732 
L 197.471213 -311.62785 
L 197.811381 -308.889967 
L 198.169766 -306.152084 
L 198.526229 -303.414201 
L 198.857052 -300.676318 
L 199.137419 -297.938435 
L 199.344457 -295.200552 
L 199.460307 -292.46267 
L 199.474698 -289.724787 
L 199.386474 -286.986904 
L 199.203787 -284.249021 
L 198.94291 -281.511138 
L 198.625906 -278.773255 
L 198.277617 -276.035372 
L 197.922547 -273.297489 
L 197.582166 -270.559607 
L 197.273015 -267.821724 
L 197.005806 -265.083841 
L 196.78546 -262.345958 
L 196.611899 -259.608075 
L 196.481299 -256.870192 
L 196.387503 -254.132309 
L 196.323345 -251.394427 
L 196.281736 -248.656544 
L 196.256407 -245.918661 
L 196.242323 -243.180778 
L 196.23581 -240.442895 
L 196.234442 -237.705012 
L 196.236785 -234.967129 
L 196.242063 -232.229246 
L 196.249814 -229.491364 
L 196.259591 -226.753481 
L 196.270759 -224.015598 
L 196.282405 -221.277715 
L 196.293364 -218.539832 
L 196.302357 -215.801949 
L 196.308187 -213.064066 
L 196.309954 -210.326184 
L 196.307237 -207.588301 
L 196.300209 -204.850418 
L 196.28964 -202.112535 
L 196.27681 -199.374652 
L 196.263335 -196.636769 
L 196.250948 -193.898886 
L 196.241269 -191.161003 
L 196.235607 -188.423121 
L 196.234824 -185.685238 
L 196.239261 -182.947355 
L 196.248745 -180.209472 
L 196.262654 -177.471589 
L 196.280033 -174.733706 
L 196.299746 -171.995823 
L 196.320671 -169.257941 
L 196.341926 -166.520058 
L 196.363164 -163.782175 
L 196.384941 -161.044292 
L 196.409201 -158.306409 
L 196.439889 -155.568526 
L 196.483748 -152.830643 
L 196.551287 -150.09276 
L 196.657949 -147.354878 
L 196.825405 -144.616995 
L 197.082884 -141.879112 
L 197.468281 -139.141229 
L 198.028696 -136.403346 
L 198.819874 -133.665463 
L 199.903952 -130.92758 
L 201.344917 -128.189698 
L 203.201418 -125.451815 
L 205.516979 -122.713932 
L 208.308345 -119.976049 
L 211.553453 -117.238166 
L 215.181227 -114.500283 
L 219.065808 -111.7624 
L 223.027696 -109.024517 
L 226.843464 -106.286635 
L 230.264252 -103.548752 
L 233.041429 -100.810869 
L 234.955957 -98.072986 
L 235.846736 -95.335103 
L 235.63286 -92.59722 
L 234.32552 -89.859337 
L 232.027158 -87.121455 
L 228.91792 -84.383572 
L 225.231929 -81.645689 
L 221.227778 -78.907806 
L 217.158433 -76.169923 
L 213.245402 -73.43204 
L 209.660684 -70.694157 
L 206.518074 -67.956274 
L 203.873517 -65.218392 
L 201.73261 -62.480509 
L 200.062545 -59.742626 
L 198.805655 -57.004743 
L 197.892153 -54.26686 
L 197.250498 -51.528977 
z
" style="stroke: #3f3f3f; stroke-width: 1.5"/>
    </defs>
    <g clip-path="url(#pa143731874)">
     <use xlink:href="#mde2db22a43" x="0" y="352.15625" style="fill: #e1812c; stroke: #3f3f3f; stroke-width: 1.5"/>
    </g>
   </g>
   <g id="PolyCollection_5">
    <defs>
     <path id="md21e47ac8c" d="M 295.493403 -75.773882 
L 295.125618 -75.773882 
L 294.983654 -78.351757 
L 294.797878 -80.929632 
L 294.559122 -83.507507 
L 294.257842 -86.085383 
L 293.884651 -88.663258 
L 293.431014 -91.241133 
L 292.890078 -93.819008 
L 292.257577 -96.396883 
L 291.532762 -98.974758 
L 290.719251 -101.552633 
L 289.825697 -104.130509 
L 288.866187 -106.708384 
L 287.860263 -109.286259 
L 286.832513 -111.864134 
L 285.811706 -114.442009 
L 284.829482 -117.019884 
L 283.918687 -119.59776 
L 283.11145 -122.175635 
L 282.437172 -124.75351 
L 281.920583 -127.331385 
L 281.580055 -129.90926 
L 281.426306 -132.487135 
L 281.461615 -135.065011 
L 281.679607 -137.642886 
L 282.065617 -140.220761 
L 282.597579 -142.798636 
L 283.247348 -145.376511 
L 283.982338 -147.954386 
L 284.76733 -150.532262 
L 285.566324 -153.110137 
L 286.344314 -155.688012 
L 287.068886 -158.265887 
L 287.711588 -160.843762 
L 288.249024 -163.421637 
L 288.663656 -165.999512 
L 288.944324 -168.577388 
L 289.086481 -171.155263 
L 289.092156 -173.733138 
L 288.969655 -176.311013 
L 288.733008 -178.888888 
L 288.401168 -181.466763 
L 287.996986 -184.044639 
L 287.545977 -186.622514 
L 287.074947 -189.200389 
L 286.610523 -191.778264 
L 286.177682 -194.356139 
L 285.798372 -196.934014 
L 285.490332 -199.51189 
L 285.266194 -202.089765 
L 285.132951 -204.66764 
L 285.091846 -207.245515 
L 285.138674 -209.82339 
L 285.264491 -212.401265 
L 285.456638 -214.979141 
L 285.699987 -217.557016 
L 285.978282 -220.134891 
L 286.275434 -222.712766 
L 286.576642 -225.290641 
L 286.869244 -227.868516 
L 287.14322 -230.446391 
L 287.391325 -233.024267 
L 287.60888 -235.602142 
L 287.793292 -238.180017 
L 287.94339 -240.757892 
L 288.058714 -243.335767 
L 288.138879 -245.913642 
L 288.183118 -248.491518 
L 288.190099 -251.069393 
L 288.158039 -253.647268 
L 288.085134 -256.225143 
L 287.970221 -258.803018 
L 287.813593 -261.380893 
L 287.617834 -263.958769 
L 287.388535 -266.536644 
L 287.134756 -269.114519 
L 286.869124 -271.692394 
L 286.607505 -274.270269 
L 286.368236 -276.848144 
L 286.170975 -279.42602 
L 286.035252 -282.003895 
L 285.978896 -284.58177 
L 286.016491 -287.159645 
L 286.158054 -289.73752 
L 286.408069 -292.315395 
L 286.765011 -294.89327 
L 287.221403 -297.471146 
L 287.764392 -300.049021 
L 288.376781 -302.626896 
L 289.038387 -305.204771 
L 289.727575 -307.782646 
L 290.422804 -310.360521 
L 291.10403 -312.938397 
L 291.753849 -315.516272 
L 292.358292 -318.094147 
L 292.907252 -320.672022 
L 293.394543 -323.249897 
L 293.817654 -325.827772 
L 294.177259 -328.405648 
L 294.476582 -330.983523 
L 295.493403 -330.983523 
L 295.493403 -330.983523 
L 295.493403 -328.405648 
L 295.493403 -325.827772 
L 295.493403 -323.249897 
L 295.493403 -320.672022 
L 295.493403 -318.094147 
L 295.493403 -315.516272 
L 295.493403 -312.938397 
L 295.493403 -310.360521 
L 295.493403 -307.782646 
L 295.493403 -305.204771 
L 295.493403 -302.626896 
L 295.493403 -300.049021 
L 295.493403 -297.471146 
L 295.493403 -294.89327 
L 295.493403 -292.315395 
L 295.493403 -289.73752 
L 295.493403 -287.159645 
L 295.493403 -284.58177 
L 295.493403 -282.003895 
L 295.493403 -279.42602 
L 295.493403 -276.848144 
L 295.493403 -274.270269 
L 295.493403 -271.692394 
L 295.493403 -269.114519 
L 295.493403 -266.536644 
L 295.493403 -263.958769 
L 295.493403 -261.380893 
L 295.493403 -258.803018 
L 295.493403 -256.225143 
L 295.493403 -253.647268 
L 295.493403 -251.069393 
L 295.493403 -248.491518 
L 295.493403 -245.913642 
L 295.493403 -243.335767 
L 295.493403 -240.757892 
L 295.493403 -238.180017 
L 295.493403 -235.602142 
L 295.493403 -233.024267 
L 295.493403 -230.446391 
L 295.493403 -227.868516 
L 295.493403 -225.290641 
L 295.493403 -222.712766 
L 295.493403 -220.134891 
L 295.493403 -217.557016 
L 295.493403 -214.979141 
L 295.493403 -212.401265 
L 295.493403 -209.82339 
L 295.493403 -207.245515 
L 295.493403 -204.66764 
L 295.493403 -202.089765 
L 295.493403 -199.51189 
L 295.493403 -196.934014 
L 295.493403 -194.356139 
L 295.493403 -191.778264 
L 295.493403 -189.200389 
L 295.493403 -186.622514 
L 295.493403 -184.044639 
L 295.493403 -181.466763 
L 295.493403 -178.888888 
L 295.493403 -176.311013 
L 295.493403 -173.733138 
L 295.493403 -171.155263 
L 295.493403 -168.577388 
L 295.493403 -165.999512 
L 295.493403 -163.421637 
L 295.493403 -160.843762 
L 295.493403 -158.265887 
L 295.493403 -155.688012 
L 295.493403 -153.110137 
L 295.493403 -150.532262 
L 295.493403 -147.954386 
L 295.493403 -145.376511 
L 295.493403 -142.798636 
L 295.493403 -140.220761 
L 295.493403 -137.642886 
L 295.493403 -135.065011 
L 295.493403 -132.487135 
L 295.493403 -129.90926 
L 295.493403 -127.331385 
L 295.493403 -124.75351 
L 295.493403 -122.175635 
L 295.493403 -119.59776 
L 295.493403 -117.019884 
L 295.493403 -114.442009 
L 295.493403 -111.864134 
L 295.493403 -109.286259 
L 295.493403 -106.708384 
L 295.493403 -104.130509 
L 295.493403 -101.552633 
L 295.493403 -98.974758 
L 295.493403 -96.396883 
L 295.493403 -93.819008 
L 295.493403 -91.241133 
L 295.493403 -88.663258 
L 295.493403 -86.085383 
L 295.493403 -83.507507 
L 295.493403 -80.929632 
L 295.493403 -78.351757 
L 295.493403 -75.773882 
z
" style="stroke: #3f3f3f; stroke-width: 1.5"/>
    </defs>
    <g clip-path="url(#pa143731874)">
     <use xlink:href="#md21e47ac8c" x="0" y="352.15625" style="fill: #3274a1; stroke: #3f3f3f; stroke-width: 1.5"/>
    </g>
   </g>
   <g id="PolyCollection_6">
    <defs>
     <path id="md494ced810" d="M 296.796227 -103.189296 
L 295.493403 -103.189296 
L 295.493403 -105.314586 
L 295.493403 -107.439876 
L 295.493403 -109.565165 
L 295.493403 -111.690455 
L 295.493403 -113.815744 
L 295.493403 -115.941034 
L 295.493403 -118.066323 
L 295.493403 -120.191613 
L 295.493403 -122.316902 
L 295.493403 -124.442192 
L 295.493403 -126.567482 
L 295.493403 -128.692771 
L 295.493403 -130.818061 
L 295.493403 -132.94335 
L 295.493403 -135.06864 
L 295.493403 -137.193929 
L 295.493403 -139.319219 
L 295.493403 -141.444509 
L 295.493403 -143.569798 
L 295.493403 -145.695088 
L 295.493403 -147.820377 
L 295.493403 -149.945667 
L 295.493403 -152.070956 
L 295.493403 -154.196246 
L 295.493403 -156.321536 
L 295.493403 -158.446825 
L 295.493403 -160.572115 
L 295.493403 -162.697404 
L 295.493403 -164.822694 
L 295.493403 -166.947983 
L 295.493403 -169.073273 
L 295.493403 -171.198562 
L 295.493403 -173.323852 
L 295.493403 -175.449142 
L 295.493403 -177.574431 
L 295.493403 -179.699721 
L 295.493403 -181.82501 
L 295.493403 -183.9503 
L 295.493403 -186.075589 
L 295.493403 -188.200879 
L 295.493403 -190.326169 
L 295.493403 -192.451458 
L 295.493403 -194.576748 
L 295.493403 -196.702037 
L 295.493403 -198.827327 
L 295.493403 -200.952616 
L 295.493403 -203.077906 
L 295.493403 -205.203196 
L 295.493403 -207.328485 
L 295.493403 -209.453775 
L 295.493403 -211.579064 
L 295.493403 -213.704354 
L 295.493403 -215.829643 
L 295.493403 -217.954933 
L 295.493403 -220.080222 
L 295.493403 -222.205512 
L 295.493403 -224.330802 
L 295.493403 -226.456091 
L 295.493403 -228.581381 
L 295.493403 -230.70667 
L 295.493403 -232.83196 
L 295.493403 -234.957249 
L 295.493403 -237.082539 
L 295.493403 -239.207829 
L 295.493403 -241.333118 
L 295.493403 -243.458408 
L 295.493403 -245.583697 
L 295.493403 -247.708987 
L 295.493403 -249.834276 
L 295.493403 -251.959566 
L 295.493403 -254.084855 
L 295.493403 -256.210145 
L 295.493403 -258.335435 
L 295.493403 -260.460724 
L 295.493403 -262.586014 
L 295.493403 -264.711303 
L 295.493403 -266.836593 
L 295.493403 -268.961882 
L 295.493403 -271.087172 
L 295.493403 -273.212462 
L 295.493403 -275.337751 
L 295.493403 -277.463041 
L 295.493403 -279.58833 
L 295.493403 -281.71362 
L 295.493403 -283.838909 
L 295.493403 -285.964199 
L 295.493403 -288.089489 
L 295.493403 -290.214778 
L 295.493403 -292.340068 
L 295.493403 -294.465357 
L 295.493403 -296.590647 
L 295.493403 -298.715936 
L 295.493403 -300.841226 
L 295.493403 -302.966515 
L 295.493403 -305.091805 
L 295.493403 -307.217095 
L 295.493403 -309.342384 
L 295.493403 -311.467674 
L 295.493403 -313.592963 
L 295.870206 -313.592963 
L 295.870206 -313.592963 
L 296.039053 -311.467674 
L 296.255891 -309.342384 
L 296.521644 -307.217095 
L 296.831615 -305.091805 
L 297.174339 -302.966515 
L 297.531416 -300.841226 
L 297.878623 -298.715936 
L 298.188398 -296.590647 
L 298.433372 -294.465357 
L 298.590375 -292.340068 
L 298.644084 -290.214778 
L 298.589534 -288.089489 
L 298.432914 -285.964199 
L 298.190494 -283.838909 
L 297.885946 -281.71362 
L 297.546703 -279.58833 
L 297.200137 -277.463041 
L 296.870305 -275.337751 
L 296.575766 -273.212462 
L 296.328643 -271.087172 
L 296.134813 -268.961882 
L 295.994871 -266.836593 
L 295.905469 -264.711303 
L 295.860658 -262.586014 
L 295.852992 -260.460724 
L 295.874311 -258.335435 
L 295.916229 -256.210145 
L 295.970438 -254.084855 
L 296.028963 -251.959566 
L 296.084428 -249.834276 
L 296.130404 -247.708987 
L 296.161783 -245.583697 
L 296.175131 -243.458408 
L 296.168934 -241.333118 
L 296.143681 -239.207829 
L 296.101737 -237.082539 
L 296.047044 -234.957249 
L 295.984676 -232.83196 
L 295.920349 -230.70667 
L 295.859941 -228.581381 
L 295.809105 -226.456091 
L 295.772981 -224.330802 
L 295.756021 -222.205512 
L 295.761886 -220.080222 
L 295.793387 -217.954933 
L 295.852439 -215.829643 
L 295.94005 -213.704354 
L 296.05639 -211.579064 
L 296.200996 -209.453775 
L 296.373203 -207.328485 
L 296.572775 -205.203196 
L 296.800726 -203.077906 
L 297.060173 -200.952616 
L 297.357043 -198.827327 
L 297.700441 -196.702037 
L 298.102537 -194.576748 
L 298.577933 -192.451458 
L 299.142609 -190.326169 
L 299.812686 -188.200879 
L 300.603273 -186.075589 
L 301.527691 -183.9503 
L 302.59717 -181.82501 
L 303.820979 -179.699721 
L 305.206648 -177.574431 
L 306.759854 -175.449142 
L 308.483494 -173.323852 
L 310.375723 -171.198562 
L 312.427141 -169.073273 
L 314.617812 -166.947983 
L 316.91517 -164.822694 
L 319.273942 -162.697404 
L 321.638793 -160.572115 
L 323.949577 -158.446825 
L 326.148057 -156.321536 
L 328.184147 -154.196246 
L 330.01946 -152.070956 
L 331.62661 -149.945667 
L 332.984002 -147.820377 
L 334.067584 -145.695088 
L 334.842463 -143.569798 
L 335.257847 -141.444509 
L 335.24817 -139.319219 
L 334.741514 -137.193929 
L 333.674146 -135.06864 
L 332.007851 -132.94335 
L 329.745517 -130.818061 
L 326.940596 -128.692771 
L 323.697499 -126.567482 
L 320.162335 -124.442192 
L 316.505863 -122.316902 
L 312.902356 -120.191613 
L 309.508829 -118.066323 
L 306.448614 -115.941034 
L 303.801856 -113.815744 
L 301.603638 -111.690455 
L 299.848794 -109.565165 
L 298.501225 -107.439876 
L 297.50519 -105.314586 
L 296.796227 -103.189296 
z
" style="stroke: #3f3f3f; stroke-width: 1.5"/>
    </defs>
    <g clip-path="url(#pa143731874)">
     <use xlink:href="#md494ced810" x="0" y="352.15625" style="fill: #e1812c; stroke: #3f3f3f; stroke-width: 1.5"/>
    </g>
   </g>
   <g id="matplotlib.axis_1">
    <g id="xtick_1">
     <g id="line2d_1">
      <defs>
       <path id="m601a5ff02a" d="M 0 0 
L 0 3.5 
" style="stroke: #000000; stroke-width: 0.8"/>
      </defs>
      <g>
       <use xlink:href="#m601a5ff02a" x="96.671181" y="314.6" style="stroke: #000000; stroke-width: 0.8"/>
      </g>
     </g>
     <g id="text_1">
      <!-- burger -->
      <g transform="translate(80.053993 329.198437)scale(0.1 -0.1)">
       <defs>
        <path id="DejaVuSans-62" d="M 3116 1747 
Q 3116 2381 2855 2742 
Q 2594 3103 2138 3103 
Q 1681 3103 1420 2742 
Q 1159 2381 1159 1747 
Q 1159 1113 1420 752 
Q 1681 391 2138 391 
Q 2594 391 2855 752 
Q 3116 1113 3116 1747 
z
M 1159 2969 
Q 1341 3281 1617 3432 
Q 1894 3584 2278 3584 
Q 2916 3584 3314 3078 
Q 3713 2572 3713 1747 
Q 3713 922 3314 415 
Q 2916 -91 2278 -91 
Q 1894 -91 1617 61 
Q 1341 213 1159 525 
L 1159 0 
L 581 0 
L 581 4863 
L 1159 4863 
L 1159 2969 
z
" transform="scale(0.015625)"/>
        <path id="DejaVuSans-75" d="M 544 1381 
L 544 3500 
L 1119 3500 
L 1119 1403 
Q 1119 906 1312 657 
Q 1506 409 1894 409 
Q 2359 409 2629 706 
Q 2900 1003 2900 1516 
L 2900 3500 
L 3475 3500 
L 3475 0 
L 2900 0 
L 2900 538 
Q 2691 219 2414 64 
Q 2138 -91 1772 -91 
Q 1169 -91 856 284 
Q 544 659 544 1381 
z
M 1991 3584 
L 1991 3584 
z
" transform="scale(0.015625)"/>
        <path id="DejaVuSans-72" d="M 2631 2963 
Q 2534 3019 2420 3045 
Q 2306 3072 2169 3072 
Q 1681 3072 1420 2755 
Q 1159 2438 1159 1844 
L 1159 0 
L 581 0 
L 581 3500 
L 1159 3500 
L 1159 2956 
Q 1341 3275 1631 3429 
Q 1922 3584 2338 3584 
Q 2397 3584 2469 3576 
Q 2541 3569 2628 3553 
L 2631 2963 
z
" transform="scale(0.015625)"/>
        <path id="DejaVuSans-67" d="M 2906 1791 
Q 2906 2416 2648 2759 
Q 2391 3103 1925 3103 
Q 1463 3103 1205 2759 
Q 947 2416 947 1791 
Q 947 1169 1205 825 
Q 1463 481 1925 481 
Q 2391 481 2648 825 
Q 2906 1169 2906 1791 
z
M 3481 434 
Q 3481 -459 3084 -895 
Q 2688 -1331 1869 -1331 
Q 1566 -1331 1297 -1286 
Q 1028 -1241 775 -1147 
L 775 -588 
Q 1028 -725 1275 -790 
Q 1522 -856 1778 -856 
Q 2344 -856 2625 -561 
Q 2906 -266 2906 331 
L 2906 616 
Q 2728 306 2450 153 
Q 2172 0 1784 0 
Q 1141 0 747 490 
Q 353 981 353 1791 
Q 353 2603 747 3093 
Q 1141 3584 1784 3584 
Q 2172 3584 2450 3431 
Q 2728 3278 2906 2969 
L 2906 3500 
L 3481 3500 
L 3481 434 
z
" transform="scale(0.015625)"/>
        <path id="DejaVuSans-65" d="M 3597 1894 
L 3597 1613 
L 953 1613 
Q 991 1019 1311 708 
Q 1631 397 2203 397 
Q 2534 397 2845 478 
Q 3156 559 3463 722 
L 3463 178 
Q 3153 47 2828 -22 
Q 2503 -91 2169 -91 
Q 1331 -91 842 396 
Q 353 884 353 1716 
Q 353 2575 817 3079 
Q 1281 3584 2069 3584 
Q 2775 3584 3186 3129 
Q 3597 2675 3597 1894 
z
M 3022 2063 
Q 3016 2534 2758 2815 
Q 2500 3097 2075 3097 
Q 1594 3097 1305 2825 
Q 1016 2553 972 2059 
L 3022 2063 
z
" transform="scale(0.015625)"/>
       </defs>
       <use xlink:href="#DejaVuSans-62"/>
       <use xlink:href="#DejaVuSans-75" x="63.476562"/>
       <use xlink:href="#DejaVuSans-72" x="126.855469"/>
       <use xlink:href="#DejaVuSans-67" x="166.21875"/>
       <use xlink:href="#DejaVuSans-65" x="229.695312"/>
       <use xlink:href="#DejaVuSans-72" x="291.21875"/>
      </g>
     </g>
    </g>
    <g id="xtick_2">
     <g id="line2d_2">
      <g>
       <use xlink:href="#m601a5ff02a" x="196.082292" y="314.6" style="stroke: #000000; stroke-width: 0.8"/>
      </g>
     </g>
     <g id="text_2">
      <!-- jackal -->
      <g transform="translate(181.61901 329.198437)scale(0.1 -0.1)">
       <defs>
        <path id="DejaVuSans-6a" d="M 603 3500 
L 1178 3500 
L 1178 -63 
Q 1178 -731 923 -1031 
Q 669 -1331 103 -1331 
L -116 -1331 
L -116 -844 
L 38 -844 
Q 366 -844 484 -692 
Q 603 -541 603 -63 
L 603 3500 
z
M 603 4863 
L 1178 4863 
L 1178 4134 
L 603 4134 
L 603 4863 
z
" transform="scale(0.015625)"/>
        <path id="DejaVuSans-61" d="M 2194 1759 
Q 1497 1759 1228 1600 
Q 959 1441 959 1056 
Q 959 750 1161 570 
Q 1363 391 1709 391 
Q 2188 391 2477 730 
Q 2766 1069 2766 1631 
L 2766 1759 
L 2194 1759 
z
M 3341 1997 
L 3341 0 
L 2766 0 
L 2766 531 
Q 2569 213 2275 61 
Q 1981 -91 1556 -91 
Q 1019 -91 701 211 
Q 384 513 384 1019 
Q 384 1609 779 1909 
Q 1175 2209 1959 2209 
L 2766 2209 
L 2766 2266 
Q 2766 2663 2505 2880 
Q 2244 3097 1772 3097 
Q 1472 3097 1187 3025 
Q 903 2953 641 2809 
L 641 3341 
Q 956 3463 1253 3523 
Q 1550 3584 1831 3584 
Q 2591 3584 2966 3190 
Q 3341 2797 3341 1997 
z
" transform="scale(0.015625)"/>
        <path id="DejaVuSans-63" d="M 3122 3366 
L 3122 2828 
Q 2878 2963 2633 3030 
Q 2388 3097 2138 3097 
Q 1578 3097 1268 2742 
Q 959 2388 959 1747 
Q 959 1106 1268 751 
Q 1578 397 2138 397 
Q 2388 397 2633 464 
Q 2878 531 3122 666 
L 3122 134 
Q 2881 22 2623 -34 
Q 2366 -91 2075 -91 
Q 1284 -91 818 406 
Q 353 903 353 1747 
Q 353 2603 823 3093 
Q 1294 3584 2113 3584 
Q 2378 3584 2631 3529 
Q 2884 3475 3122 3366 
z
" transform="scale(0.015625)"/>
        <path id="DejaVuSans-6b" d="M 581 4863 
L 1159 4863 
L 1159 1991 
L 2875 3500 
L 3609 3500 
L 1753 1863 
L 3688 0 
L 2938 0 
L 1159 1709 
L 1159 0 
L 581 0 
L 581 4863 
z
" transform="scale(0.015625)"/>
        <path id="DejaVuSans-6c" d="M 603 4863 
L 1178 4863 
L 1178 0 
L 603 0 
L 603 4863 
z
" transform="scale(0.015625)"/>
       </defs>
       <use xlink:href="#DejaVuSans-6a"/>
       <use xlink:href="#DejaVuSans-61" x="27.783203"/>
       <use xlink:href="#DejaVuSans-63" x="89.0625"/>
       <use xlink:href="#DejaVuSans-6b" x="144.042969"/>
       <use xlink:href="#DejaVuSans-61" x="200.203125"/>
       <use xlink:href="#DejaVuSans-6c" x="261.482422"/>
      </g>
     </g>
    </g>
    <g id="xtick_3">
     <g id="line2d_3">
      <g>
       <use xlink:href="#m601a5ff02a" x="295.493403" y="314.6" style="stroke: #000000; stroke-width: 0.8"/>
      </g>
     </g>
     <g id="text_3">
      <!-- youbot -->
      <g transform="translate(278.112153 329.198437)scale(0.1 -0.1)">
       <defs>
        <path id="DejaVuSans-79" d="M 2059 -325 
Q 1816 -950 1584 -1140 
Q 1353 -1331 966 -1331 
L 506 -1331 
L 506 -850 
L 844 -850 
Q 1081 -850 1212 -737 
Q 1344 -625 1503 -206 
L 1606 56 
L 191 3500 
L 800 3500 
L 1894 763 
L 2988 3500 
L 3597 3500 
L 2059 -325 
z
" transform="scale(0.015625)"/>
        <path id="DejaVuSans-6f" d="M 1959 3097 
Q 1497 3097 1228 2736 
Q 959 2375 959 1747 
Q 959 1119 1226 758 
Q 1494 397 1959 397 
Q 2419 397 2687 759 
Q 2956 1122 2956 1747 
Q 2956 2369 2687 2733 
Q 2419 3097 1959 3097 
z
M 1959 3584 
Q 2709 3584 3137 3096 
Q 3566 2609 3566 1747 
Q 3566 888 3137 398 
Q 2709 -91 1959 -91 
Q 1206 -91 779 398 
Q 353 888 353 1747 
Q 353 2609 779 3096 
Q 1206 3584 1959 3584 
z
" transform="scale(0.015625)"/>
        <path id="DejaVuSans-74" d="M 1172 4494 
L 1172 3500 
L 2356 3500 
L 2356 3053 
L 1172 3053 
L 1172 1153 
Q 1172 725 1289 603 
Q 1406 481 1766 481 
L 2356 481 
L 2356 0 
L 1766 0 
Q 1100 0 847 248 
Q 594 497 594 1153 
L 594 3053 
L 172 3053 
L 172 3500 
L 594 3500 
L 594 4494 
L 1172 4494 
z
" transform="scale(0.015625)"/>
       </defs>
       <use xlink:href="#DejaVuSans-79"/>
       <use xlink:href="#DejaVuSans-6f" x="59.179688"/>
       <use xlink:href="#DejaVuSans-75" x="120.361328"/>
       <use xlink:href="#DejaVuSans-62" x="183.740234"/>
       <use xlink:href="#DejaVuSans-6f" x="247.216797"/>
       <use xlink:href="#DejaVuSans-74" x="308.398438"/>
      </g>
     </g>
    </g>
    <g id="text_4">
     <!-- Robot -->
     <g transform="translate(181.579948 342.876562)scale(0.1 -0.1)">
      <defs>
       <path id="DejaVuSans-52" d="M 2841 2188 
Q 3044 2119 3236 1894 
Q 3428 1669 3622 1275 
L 4263 0 
L 3584 0 
L 2988 1197 
Q 2756 1666 2539 1819 
Q 2322 1972 1947 1972 
L 1259 1972 
L 1259 0 
L 628 0 
L 628 4666 
L 2053 4666 
Q 2853 4666 3247 4331 
Q 3641 3997 3641 3322 
Q 3641 2881 3436 2590 
Q 3231 2300 2841 2188 
z
M 1259 4147 
L 1259 2491 
L 2053 2491 
Q 2509 2491 2742 2702 
Q 2975 2913 2975 3322 
Q 2975 3731 2742 3939 
Q 2509 4147 2053 4147 
L 1259 4147 
z
" transform="scale(0.015625)"/>
      </defs>
      <use xlink:href="#DejaVuSans-52"/>
      <use xlink:href="#DejaVuSans-6f" x="64.982422"/>
      <use xlink:href="#DejaVuSans-62" x="126.164062"/>
      <use xlink:href="#DejaVuSans-6f" x="189.640625"/>
      <use xlink:href="#DejaVuSans-74" x="250.822266"/>
     </g>
    </g>
   </g>
   <g id="matplotlib.axis_2">
    <g id="ytick_1">
     <g id="line2d_4">
      <defs>
       <path id="me9095f7958" d="M 0 0 
L -3.5 0 
" style="stroke: #000000; stroke-width: 0.8"/>
      </defs>
      <g>
       <use xlink:href="#me9095f7958" x="46.965625" y="275.933539" style="stroke: #000000; stroke-width: 0.8"/>
      </g>
     </g>
     <g id="text_5">
      <!-- 0 -->
      <g transform="translate(33.603125 279.732758)scale(0.1 -0.1)">
       <defs>
        <path id="DejaVuSans-30" d="M 2034 4250 
Q 1547 4250 1301 3770 
Q 1056 3291 1056 2328 
Q 1056 1369 1301 889 
Q 1547 409 2034 409 
Q 2525 409 2770 889 
Q 3016 1369 3016 2328 
Q 3016 3291 2770 3770 
Q 2525 4250 2034 4250 
z
M 2034 4750 
Q 2819 4750 3233 4129 
Q 3647 3509 3647 2328 
Q 3647 1150 3233 529 
Q 2819 -91 2034 -91 
Q 1250 -91 836 529 
Q 422 1150 422 2328 
Q 422 3509 836 4129 
Q 1250 4750 2034 4750 
z
" transform="scale(0.015625)"/>
       </defs>
       <use xlink:href="#DejaVuSans-30"/>
      </g>
     </g>
    </g>
    <g id="ytick_2">
     <g id="line2d_5">
      <g>
       <use xlink:href="#me9095f7958" x="46.965625" y="216.311468" style="stroke: #000000; stroke-width: 0.8"/>
      </g>
     </g>
     <g id="text_6">
      <!-- 50 -->
      <g transform="translate(27.240625 220.110687)scale(0.1 -0.1)">
       <defs>
        <path id="DejaVuSans-35" d="M 691 4666 
L 3169 4666 
L 3169 4134 
L 1269 4134 
L 1269 2991 
Q 1406 3038 1543 3061 
Q 1681 3084 1819 3084 
Q 2600 3084 3056 2656 
Q 3513 2228 3513 1497 
Q 3513 744 3044 326 
Q 2575 -91 1722 -91 
Q 1428 -91 1123 -41 
Q 819 9 494 109 
L 494 744 
Q 775 591 1075 516 
Q 1375 441 1709 441 
Q 2250 441 2565 725 
Q 2881 1009 2881 1497 
Q 2881 1984 2565 2268 
Q 2250 2553 1709 2553 
Q 1456 2553 1204 2497 
Q 953 2441 691 2322 
L 691 4666 
z
" transform="scale(0.015625)"/>
       </defs>
       <use xlink:href="#DejaVuSans-35"/>
       <use xlink:href="#DejaVuSans-30" x="63.623047"/>
      </g>
     </g>
    </g>
    <g id="ytick_3">
     <g id="line2d_6">
      <g>
       <use xlink:href="#me9095f7958" x="46.965625" y="156.689397" style="stroke: #000000; stroke-width: 0.8"/>
      </g>
     </g>
     <g id="text_7">
      <!-- 100 -->
      <g transform="translate(20.878125 160.488615)scale(0.1 -0.1)">
       <defs>
        <path id="DejaVuSans-31" d="M 794 531 
L 1825 531 
L 1825 4091 
L 703 3866 
L 703 4441 
L 1819 4666 
L 2450 4666 
L 2450 531 
L 3481 531 
L 3481 0 
L 794 0 
L 794 531 
z
" transform="scale(0.015625)"/>
       </defs>
       <use xlink:href="#DejaVuSans-31"/>
       <use xlink:href="#DejaVuSans-30" x="63.623047"/>
       <use xlink:href="#DejaVuSans-30" x="127.246094"/>
      </g>
     </g>
    </g>
    <g id="ytick_4">
     <g id="line2d_7">
      <g>
       <use xlink:href="#me9095f7958" x="46.965625" y="97.067325" style="stroke: #000000; stroke-width: 0.8"/>
      </g>
     </g>
     <g id="text_8">
      <!-- 150 -->
      <g transform="translate(20.878125 100.866544)scale(0.1 -0.1)">
       <use xlink:href="#DejaVuSans-31"/>
       <use xlink:href="#DejaVuSans-35" x="63.623047"/>
       <use xlink:href="#DejaVuSans-30" x="127.246094"/>
      </g>
     </g>
    </g>
    <g id="ytick_5">
     <g id="line2d_8">
      <g>
       <use xlink:href="#me9095f7958" x="46.965625" y="37.445254" style="stroke: #000000; stroke-width: 0.8"/>
      </g>
     </g>
     <g id="text_9">
      <!-- 200 -->
      <g transform="translate(20.878125 41.244473)scale(0.1 -0.1)">
       <defs>
        <path id="DejaVuSans-32" d="M 1228 531 
L 3431 531 
L 3431 0 
L 469 0 
L 469 531 
Q 828 903 1448 1529 
Q 2069 2156 2228 2338 
Q 2531 2678 2651 2914 
Q 2772 3150 2772 3378 
Q 2772 3750 2511 3984 
Q 2250 4219 1831 4219 
Q 1534 4219 1204 4116 
Q 875 4013 500 3803 
L 500 4441 
Q 881 4594 1212 4672 
Q 1544 4750 1819 4750 
Q 2544 4750 2975 4387 
Q 3406 4025 3406 3419 
Q 3406 3131 3298 2873 
Q 3191 2616 2906 2266 
Q 2828 2175 2409 1742 
Q 1991 1309 1228 531 
z
" transform="scale(0.015625)"/>
       </defs>
       <use xlink:href="#DejaVuSans-32"/>
       <use xlink:href="#DejaVuSans-30" x="63.623047"/>
       <use xlink:href="#DejaVuSans-30" x="127.246094"/>
      </g>
     </g>
    </g>
    <g id="text_10">
     <!-- time -->
     <g transform="translate(14.798438 172.196094)rotate(-90)scale(0.1 -0.1)">
      <defs>
       <path id="DejaVuSans-69" d="M 603 3500 
L 1178 3500 
L 1178 0 
L 603 0 
L 603 3500 
z
M 603 4863 
L 1178 4863 
L 1178 4134 
L 603 4134 
L 603 4863 
z
" transform="scale(0.015625)"/>
       <path id="DejaVuSans-6d" d="M 3328 2828 
Q 3544 3216 3844 3400 
Q 4144 3584 4550 3584 
Q 5097 3584 5394 3201 
Q 5691 2819 5691 2113 
L 5691 0 
L 5113 0 
L 5113 2094 
Q 5113 2597 4934 2840 
Q 4756 3084 4391 3084 
Q 3944 3084 3684 2787 
Q 3425 2491 3425 1978 
L 3425 0 
L 2847 0 
L 2847 2094 
Q 2847 2600 2669 2842 
Q 2491 3084 2119 3084 
Q 1678 3084 1418 2786 
Q 1159 2488 1159 1978 
L 1159 0 
L 581 0 
L 581 3500 
L 1159 3500 
L 1159 2956 
Q 1356 3278 1631 3431 
Q 1906 3584 2284 3584 
Q 2666 3584 2933 3390 
Q 3200 3197 3328 2828 
z
" transform="scale(0.015625)"/>
      </defs>
      <use xlink:href="#DejaVuSans-74"/>
      <use xlink:href="#DejaVuSans-69" x="39.208984"/>
      <use xlink:href="#DejaVuSans-6d" x="66.992188"/>
      <use xlink:href="#DejaVuSans-65" x="164.404297"/>
     </g>
    </g>
   </g>
   <g id="line2d_9">
    <path d="M 96.671181 202.185807 
L 96.671181 60.919656 
" clip-path="url(#pa143731874)" style="fill: none; stroke: #3f3f3f; stroke-width: 1.5; stroke-linecap: square"/>
   </g>
   <g id="line2d_10">
    <path d="M 96.671181 138.44713 
L 96.671181 90.324367 
" clip-path="url(#pa143731874)" style="fill: none; stroke: #3f3f3f; stroke-width: 4.5; stroke-linecap: square"/>
   </g>
   <g id="line2d_11">
    <path d="M 196.082292 269.389421 
L 196.082292 87.325079 
" clip-path="url(#pa143731874)" style="fill: none; stroke: #3f3f3f; stroke-width: 1.5; stroke-linecap: square"/>
   </g>
   <g id="line2d_12">
    <path d="M 196.082292 257.179119 
L 196.082292 189.14169 
" clip-path="url(#pa143731874)" style="fill: none; stroke: #3f3f3f; stroke-width: 4.5; stroke-linecap: square"/>
   </g>
   <g id="line2d_13">
    <path d="M 295.493403 236.63067 
L 295.493403 60.924426 
" clip-path="url(#pa143731874)" style="fill: none; stroke: #3f3f3f; stroke-width: 1.5; stroke-linecap: square"/>
   </g>
   <g id="line2d_14">
    <path d="M 295.493403 218.247993 
L 295.493403 145.310524 
" clip-path="url(#pa143731874)" style="fill: none; stroke: #3f3f3f; stroke-width: 4.5; stroke-linecap: square"/>
   </g>
   <g id="patch_5">
    <path d="M 46.965625 314.6 
L 46.965625 7.2 
" style="fill: none; stroke: #000000; stroke-width: 0.8; stroke-linejoin: miter; stroke-linecap: square"/>
   </g>
   <g id="patch_6">
    <path d="M 46.965625 314.6 
L 345.198958 314.6 
" style="fill: none; stroke: #000000; stroke-width: 0.8; stroke-linejoin: miter; stroke-linecap: square"/>
   </g>
   <g id="PathCollection_1">
    <defs>
     <path id="mec74c49876" d="M 0 1.5 
C 0.397805 1.5 0.77937 1.341951 1.06066 1.06066 
C 1.341951 0.77937 1.5 0.397805 1.5 0 
C 1.5 -0.397805 1.341951 -0.77937 1.06066 -1.06066 
C 0.77937 -1.341951 0.397805 -1.5 0 -1.5 
C -0.397805 -1.5 -0.77937 -1.341951 -1.06066 -1.06066 
C -1.341951 -0.77937 -1.5 -0.397805 -1.5 0 
C -1.5 0.397805 -1.341951 0.77937 -1.06066 1.06066 
C -0.77937 1.341951 -0.397805 1.5 0 1.5 
z
" style="stroke: #3f3f3f"/>
    </defs>
    <g clip-path="url(#pa143731874)">
     <use xlink:href="#mec74c49876" x="96.671181" y="121.842681" style="fill: #ffffff; stroke: #3f3f3f"/>
    </g>
   </g>
   <g id="PathCollection_2">
    <g clip-path="url(#pa143731874)">
     <use xlink:href="#mec74c49876" x="196.082292" y="250.838013" style="fill: #ffffff; stroke: #3f3f3f"/>
    </g>
   </g>
   <g id="PathCollection_3">
    <g clip-path="url(#pa143731874)">
     <use xlink:href="#mec74c49876" x="295.493403" y="199.57913" style="fill: #ffffff; stroke: #3f3f3f"/>
    </g>
   </g>
  </g>
  <g id="legend_1">
   <g id="text_11">
    <!-- dim -->
    <g transform="translate(361.447396 164.159375)scale(0.1 -0.1)">
     <defs>
      <path id="DejaVuSans-64" d="M 2906 2969 
L 2906 4863 
L 3481 4863 
L 3481 0 
L 2906 0 
L 2906 525 
Q 2725 213 2448 61 
Q 2172 -91 1784 -91 
Q 1150 -91 751 415 
Q 353 922 353 1747 
Q 353 2572 751 3078 
Q 1150 3584 1784 3584 
Q 2172 3584 2448 3432 
Q 2725 3281 2906 2969 
z
M 947 1747 
Q 947 1113 1208 752 
Q 1469 391 1925 391 
Q 2381 391 2643 752 
Q 2906 1113 2906 1747 
Q 2906 2381 2643 2742 
Q 2381 3103 1925 3103 
Q 1469 3103 1208 2742 
Q 947 2381 947 1747 
z
" transform="scale(0.015625)"/>
     </defs>
     <use xlink:href="#DejaVuSans-64"/>
     <use xlink:href="#DejaVuSans-69" x="63.476562"/>
     <use xlink:href="#DejaVuSans-6d" x="91.259766"/>
    </g>
   </g>
   <g id="patch_7">
    <path d="M 350.525521 178.8375 
L 370.525521 178.8375 
L 370.525521 171.8375 
L 350.525521 171.8375 
z
" style="fill: #3274a1; stroke: #3f3f3f; stroke-width: 0.75; stroke-linejoin: miter"/>
   </g>
   <g id="text_12">
    <!-- 2d -->
    <g transform="translate(378.525521 178.8375)scale(0.1 -0.1)">
     <use xlink:href="#DejaVuSans-32"/>
     <use xlink:href="#DejaVuSans-64" x="63.623047"/>
    </g>
   </g>
   <g id="patch_8">
    <path d="M 350.525521 193.515625 
L 370.525521 193.515625 
L 370.525521 186.515625 
L 350.525521 186.515625 
z
" style="fill: #e1812c; stroke: #3f3f3f; stroke-width: 0.75; stroke-linejoin: miter"/>
   </g>
   <g id="text_13">
    <!-- 3d -->
    <g transform="translate(378.525521 193.515625)scale(0.1 -0.1)">
     <defs>
      <path id="DejaVuSans-33" d="M 2597 2516 
Q 3050 2419 3304 2112 
Q 3559 1806 3559 1356 
Q 3559 666 3084 287 
Q 2609 -91 1734 -91 
Q 1441 -91 1130 -33 
Q 819 25 488 141 
L 488 750 
Q 750 597 1062 519 
Q 1375 441 1716 441 
Q 2309 441 2620 675 
Q 2931 909 2931 1356 
Q 2931 1769 2642 2001 
Q 2353 2234 1838 2234 
L 1294 2234 
L 1294 2753 
L 1863 2753 
Q 2328 2753 2575 2939 
Q 2822 3125 2822 3475 
Q 2822 3834 2567 4026 
Q 2313 4219 1838 4219 
Q 1578 4219 1281 4162 
Q 984 4106 628 3988 
L 628 4550 
Q 988 4650 1302 4700 
Q 1616 4750 1894 4750 
Q 2613 4750 3031 4423 
Q 3450 4097 3450 3541 
Q 3450 3153 3228 2886 
Q 3006 2619 2597 2516 
z
" transform="scale(0.015625)"/>
     </defs>
     <use xlink:href="#DejaVuSans-33"/>
     <use xlink:href="#DejaVuSans-64" x="63.623047"/>
    </g>
   </g>
  </g>
 </g>
 <defs>
  <clipPath id="pa143731874">
   <rect x="46.965625" y="7.2" width="298.233333" height="307.4"/>
  </clipPath>
 </defs>
</svg>
