<?xml version="1.0" encoding="utf-8" standalone="no"?>
<!DOCTYPE svg PUBLIC "-//W3C//DTD SVG 1.1//EN"
  "http://www.w3.org/Graphics/SVG/1.1/DTD/svg11.dtd">
<svg xmlns:xlink="http://www.w3.org/1999/xlink" width="401.846094pt" height="352.15625pt" viewBox="0 0 401.846094 352.15625" xmlns="http://www.w3.org/2000/svg" version="1.1">
 <metadata>
  <rdf:RDF xmlns:dc="http://purl.org/dc/elements/1.1/" xmlns:cc="http://creativecommons.org/ns#" xmlns:rdf="http://www.w3.org/1999/02/22-rdf-syntax-ns#">
   <cc:Work>
    <dc:type rdf:resource="http://purl.org/dc/dcmitype/StillImage"/>
    <dc:date>2022-03-25T19:30:55.505817</dc:date>
    <dc:format>image/svg+xml</dc:format>
    <dc:creator>
     <cc:Agent>
      <dc:title>Matplotlib v3.5.1, https://matplotlib.org/</dc:title>
     </cc:Agent>
    </dc:creator>
   </cc:Work>
  </rdf:RDF>
 </metadata>
 <defs>
  <style type="text/css">*{stroke-linejoin: round; stroke-linecap: butt}</style>
 </defs>
 <g id="figure_1">
  <g id="patch_1">
   <path d="M 0 352.15625 
L 401.846094 352.15625 
L 401.846094 0 
L 0 0 
L 0 352.15625 
z
" style="fill: none"/>
  </g>
  <g id="axes_1">
   <g id="patch_2">
    <path d="M 34.240625 314.6 
L 346.808594 314.6 
L 346.808594 7.2 
L 34.240625 7.2 
z
" style="fill: #ffffff"/>
   </g>
   <g id="patch_3">
    <path d="M 86.335286 272.63267 
L 86.335286 272.63267 
L 86.335286 272.63267 
L 86.335286 272.63267 
z
" clip-path="url(#p5fa8824130)" style="fill: #3274a1; stroke: #3f3f3f; stroke-width: 0.75; stroke-linejoin: miter"/>
   </g>
   <g id="PolyCollection_1">
    <defs>
     <path id="m6ff6e45c38" d="M 86.335286 -65.874005 
L 80.683742 -65.874005 
L 76.876397 -67.762058 
L 71.670517 -69.650111 
L 65.274608 -71.538164 
L 58.317647 -73.426217 
L 51.808763 -75.31427 
L 46.92256 -77.202323 
L 44.659557 -79.090376 
L 45.513138 -80.978429 
L 49.294117 -82.866482 
L 55.197543 -84.754535 
L 62.078143 -86.642588 
L 68.802987 -88.530641 
L 74.529864 -90.418694 
L 78.820267 -92.306747 
L 81.589629 -94.1948 
L 82.967531 -96.082853 
L 83.157719 -97.970906 
L 82.359568 -99.858959 
L 80.765533 -101.747012 
L 78.607725 -103.635065 
L 76.205053 -105.523118 
L 73.965212 -107.411172 
L 72.321569 -109.299225 
L 71.623002 -111.187278 
L 72.025866 -113.075331 
L 73.442385 -114.963384 
L 75.573493 -116.851437 
L 78.0114 -118.73949 
L 80.364164 -120.627543 
L 82.350022 -122.515596 
L 83.832284 -124.403649 
L 84.798338 -126.291702 
L 85.309156 -128.179755 
L 85.449777 -130.067808 
L 85.300404 -131.955861 
L 84.931977 -133.843914 
L 84.417451 -135.731967 
L 83.844483 -137.62002 
L 83.316969 -139.508073 
L 82.940446 -141.396126 
L 82.796333 -143.284179 
L 82.917373 -145.172232 
L 83.277273 -147.060285 
L 83.800571 -148.948338 
L 84.388381 -150.836391 
L 84.948166 -152.724444 
L 85.415281 -154.612498 
L 85.759984 -156.500551 
L 85.981423 -158.388604 
L 86.095241 -160.276657 
L 86.121977 -162.16471 
L 86.080682 -164.052763 
L 85.988309 -165.940816 
L 85.862606 -167.828869 
L 85.725019 -169.716922 
L 85.600727 -171.604975 
L 85.514808 -173.493028 
L 85.485946 -175.381081 
L 85.520733 -177.269134 
L 85.61161 -179.157187 
L 85.739665 -181.04524 
L 85.881045 -182.933293 
L 86.014048 -184.821346 
L 86.124029 -186.709399 
L 86.204793 -188.597452 
L 86.256954 -190.485505 
L 86.28491 -192.373558 
L 86.294074 -194.261611 
L 86.289317 -196.149664 
L 86.274711 -198.037717 
L 86.254039 -199.92577 
L 86.231379 -201.813824 
L 86.211176 -203.701877 
L 86.197654 -205.58993 
L 86.193816 -207.477983 
L 86.200555 -209.366036 
L 86.216404 -211.254089 
L 86.238064 -213.142142 
L 86.261489 -215.030195 
L 86.283027 -216.918248 
L 86.300128 -218.806301 
L 86.311469 -220.694354 
L 86.316599 -222.582407 
L 86.315445 -224.47046 
L 86.308016 -226.358513 
L 86.294473 -228.246566 
L 86.275529 -230.134619 
L 86.252935 -232.022672 
L 86.229691 -233.910725 
L 86.209709 -235.798778 
L 86.196902 -237.686831 
L 86.194012 -239.574884 
L 86.201684 -241.462937 
L 86.218247 -243.35099 
L 86.240311 -245.239043 
L 86.263894 -247.127096 
L 86.285575 -249.015149 
L 86.303222 -250.903203 
L 86.316129 -252.791256 
L 86.335286 -252.791256 
L 86.335286 -252.791256 
L 86.335286 -250.903203 
L 86.335286 -249.015149 
L 86.335286 -247.127096 
L 86.335286 -245.239043 
L 86.335286 -243.35099 
L 86.335286 -241.462937 
L 86.335286 -239.574884 
L 86.335286 -237.686831 
L 86.335286 -235.798778 
L 86.335286 -233.910725 
L 86.335286 -232.022672 
L 86.335286 -230.134619 
L 86.335286 -228.246566 
L 86.335286 -226.358513 
L 86.335286 -224.47046 
L 86.335286 -222.582407 
L 86.335286 -220.694354 
L 86.335286 -218.806301 
L 86.335286 -216.918248 
L 86.335286 -215.030195 
L 86.335286 -213.142142 
L 86.335286 -211.254089 
L 86.335286 -209.366036 
L 86.335286 -207.477983 
L 86.335286 -205.58993 
L 86.335286 -203.701877 
L 86.335286 -201.813824 
L 86.335286 -199.92577 
L 86.335286 -198.037717 
L 86.335286 -196.149664 
L 86.335286 -194.261611 
L 86.335286 -192.373558 
L 86.335286 -190.485505 
L 86.335286 -188.597452 
L 86.335286 -186.709399 
L 86.335286 -184.821346 
L 86.335286 -182.933293 
L 86.335286 -181.04524 
L 86.335286 -179.157187 
L 86.335286 -177.269134 
L 86.335286 -175.381081 
L 86.335286 -173.493028 
L 86.335286 -171.604975 
L 86.335286 -169.716922 
L 86.335286 -167.828869 
L 86.335286 -165.940816 
L 86.335286 -164.052763 
L 86.335286 -162.16471 
L 86.335286 -160.276657 
L 86.335286 -158.388604 
L 86.335286 -156.500551 
L 86.335286 -154.612498 
L 86.335286 -152.724444 
L 86.335286 -150.836391 
L 86.335286 -148.948338 
L 86.335286 -147.060285 
L 86.335286 -145.172232 
L 86.335286 -143.284179 
L 86.335286 -141.396126 
L 86.335286 -139.508073 
L 86.335286 -137.62002 
L 86.335286 -135.731967 
L 86.335286 -133.843914 
L 86.335286 -131.955861 
L 86.335286 -130.067808 
L 86.335286 -128.179755 
L 86.335286 -126.291702 
L 86.335286 -124.403649 
L 86.335286 -122.515596 
L 86.335286 -120.627543 
L 86.335286 -118.73949 
L 86.335286 -116.851437 
L 86.335286 -114.963384 
L 86.335286 -113.075331 
L 86.335286 -111.187278 
L 86.335286 -109.299225 
L 86.335286 -107.411172 
L 86.335286 -105.523118 
L 86.335286 -103.635065 
L 86.335286 -101.747012 
L 86.335286 -99.858959 
L 86.335286 -97.970906 
L 86.335286 -96.082853 
L 86.335286 -94.1948 
L 86.335286 -92.306747 
L 86.335286 -90.418694 
L 86.335286 -88.530641 
L 86.335286 -86.642588 
L 86.335286 -84.754535 
L 86.335286 -82.866482 
L 86.335286 -80.978429 
L 86.335286 -79.090376 
L 86.335286 -77.202323 
L 86.335286 -75.31427 
L 86.335286 -73.426217 
L 86.335286 -71.538164 
L 86.335286 -69.650111 
L 86.335286 -67.762058 
L 86.335286 -65.874005 
z
" style="stroke: #3f3f3f; stroke-width: 1.5"/>
    </defs>
    <g clip-path="url(#p5fa8824130)">
     <use xlink:href="#m6ff6e45c38" x="0" y="352.15625" style="fill: #3274a1; stroke: #3f3f3f; stroke-width: 1.5"/>
    </g>
   </g>
   <g id="patch_4">
    <path d="M 86.335286 272.63267 
L 86.335286 272.63267 
L 86.335286 272.63267 
L 86.335286 272.63267 
z
" clip-path="url(#p5fa8824130)" style="fill: #e1812c; stroke: #3f3f3f; stroke-width: 0.75; stroke-linejoin: miter"/>
   </g>
   <g id="PolyCollection_2">
    <defs>
     <path id="m2e9c92a4c8" d="M 90.285271 -59.795448 
L 86.335286 -59.795448 
L 86.335286 -62.451222 
L 86.335286 -65.106995 
L 86.335286 -67.762769 
L 86.335286 -70.418543 
L 86.335286 -73.074317 
L 86.335286 -75.730091 
L 86.335286 -78.385864 
L 86.335286 -81.041638 
L 86.335286 -83.697412 
L 86.335286 -86.353186 
L 86.335286 -89.008959 
L 86.335286 -91.664733 
L 86.335286 -94.320507 
L 86.335286 -96.976281 
L 86.335286 -99.632055 
L 86.335286 -102.287828 
L 86.335286 -104.943602 
L 86.335286 -107.599376 
L 86.335286 -110.25515 
L 86.335286 -112.910923 
L 86.335286 -115.566697 
L 86.335286 -118.222471 
L 86.335286 -120.878245 
L 86.335286 -123.534019 
L 86.335286 -126.189792 
L 86.335286 -128.845566 
L 86.335286 -131.50134 
L 86.335286 -134.157114 
L 86.335286 -136.812888 
L 86.335286 -139.468661 
L 86.335286 -142.124435 
L 86.335286 -144.780209 
L 86.335286 -147.435983 
L 86.335286 -150.091756 
L 86.335286 -152.74753 
L 86.335286 -155.403304 
L 86.335286 -158.059078 
L 86.335286 -160.714852 
L 86.335286 -163.370625 
L 86.335286 -166.026399 
L 86.335286 -168.682173 
L 86.335286 -171.337947 
L 86.335286 -173.99372 
L 86.335286 -176.649494 
L 86.335286 -179.305268 
L 86.335286 -181.961042 
L 86.335286 -184.616816 
L 86.335286 -187.272589 
L 86.335286 -189.928363 
L 86.335286 -192.584137 
L 86.335286 -195.239911 
L 86.335286 -197.895684 
L 86.335286 -200.551458 
L 86.335286 -203.207232 
L 86.335286 -205.863006 
L 86.335286 -208.51878 
L 86.335286 -211.174553 
L 86.335286 -213.830327 
L 86.335286 -216.486101 
L 86.335286 -219.141875 
L 86.335286 -221.797648 
L 86.335286 -224.453422 
L 86.335286 -227.109196 
L 86.335286 -229.76497 
L 86.335286 -232.420744 
L 86.335286 -235.076517 
L 86.335286 -237.732291 
L 86.335286 -240.388065 
L 86.335286 -243.043839 
L 86.335286 -245.699612 
L 86.335286 -248.355386 
L 86.335286 -251.01116 
L 86.335286 -253.666934 
L 86.335286 -256.322708 
L 86.335286 -258.978481 
L 86.335286 -261.634255 
L 86.335286 -264.290029 
L 86.335286 -266.945803 
L 86.335286 -269.601577 
L 86.335286 -272.25735 
L 86.335286 -274.913124 
L 86.335286 -277.568898 
L 86.335286 -280.224672 
L 86.335286 -282.880445 
L 86.335286 -285.536219 
L 86.335286 -288.191993 
L 86.335286 -290.847767 
L 86.335286 -293.503541 
L 86.335286 -296.159314 
L 86.335286 -298.815088 
L 86.335286 -301.470862 
L 86.335286 -304.126636 
L 86.335286 -306.782409 
L 86.335286 -309.438183 
L 86.335286 -312.093957 
L 86.335286 -314.749731 
L 86.335286 -317.405505 
L 86.335286 -320.061278 
L 86.335286 -322.717052 
L 86.348541 -322.717052 
L 86.348541 -322.717052 
L 86.357189 -320.061278 
L 86.368948 -317.405505 
L 86.383402 -314.749731 
L 86.399253 -312.093957 
L 86.41438 -309.438183 
L 86.426247 -306.782409 
L 86.432579 -304.126636 
L 86.432075 -301.470862 
L 86.424841 -298.815088 
L 86.412354 -296.159314 
L 86.396971 -293.503541 
L 86.381206 -290.847767 
L 86.367081 -288.191993 
L 86.355764 -285.536219 
L 86.347564 -282.880445 
L 86.342167 -280.224672 
L 86.338974 -277.568898 
L 86.337401 -274.913124 
L 86.337099 -272.25735 
L 86.338102 -269.601577 
L 86.340941 -266.945803 
L 86.346724 -264.290029 
L 86.35713 -261.634255 
L 86.374188 -258.978481 
L 86.399753 -256.322708 
L 86.434662 -253.666934 
L 86.477776 -251.01116 
L 86.525348 -248.355386 
L 86.571191 -245.699612 
L 86.607934 -243.043839 
L 86.629177 -240.388065 
L 86.631856 -237.732291 
L 86.617896 -235.076517 
L 86.594459 -232.420744 
L 86.572594 -229.76497 
L 86.564673 -227.109196 
L 86.58123 -224.453422 
L 86.627909 -221.797648 
L 86.703176 -219.141875 
L 86.797488 -216.486101 
L 86.894601 -213.830327 
L 86.975265 -211.174553 
L 87.022706 -208.51878 
L 87.028304 -205.863006 
L 86.995463 -203.207232 
L 86.94011 -200.551458 
L 86.887501 -197.895684 
L 86.866186 -195.239911 
L 86.900657 -192.584137 
L 87.004272 -189.928363 
L 87.17394 -187.272589 
L 87.388179 -184.616816 
L 87.610046 -181.961042 
L 87.795544 -179.305268 
L 87.906163 -176.649494 
L 87.921991 -173.99372 
L 87.850772 -171.337947 
L 87.729335 -168.682173 
L 87.61647 -166.026399 
L 87.5791 -163.370625 
L 87.675103 -160.714852 
L 87.936408 -158.059078 
L 88.35595 -155.403304 
L 88.882439 -152.74753 
L 89.42676 -150.091756 
L 89.88164 -147.435983 
L 90.151383 -144.780209 
L 90.182999 -142.124435 
L 89.987455 -139.468661 
L 89.642484 -136.812888 
L 89.275275 -134.157114 
L 89.03051 -131.50134 
L 89.032955 -128.845566 
L 89.353538 -126.189792 
L 89.986013 -123.534019 
L 90.840232 -120.878245 
L 91.757208 -118.222471 
L 92.547835 -115.566697 
L 93.049796 -112.910923 
L 93.18825 -110.25515 
L 93.020903 -107.599376 
L 92.750786 -104.943602 
L 92.699054 -102.287828 
L 93.239951 -99.632055 
L 94.706966 -96.976281 
L 97.28483 -94.320507 
L 100.910612 -91.664733 
L 105.21815 -89.008959 
L 109.563305 -86.353186 
L 113.149925 -83.697412 
L 115.235867 -81.041638 
L 115.352609 -78.385864 
L 113.450894 -75.730091 
L 109.908702 -73.074317 
L 105.398476 -70.418543 
L 100.673949 -67.762769 
L 96.366403 -65.106995 
L 92.862266 -62.451222 
L 90.285271 -59.795448 
z
" style="stroke: #3f3f3f; stroke-width: 1.5"/>
    </defs>
    <g clip-path="url(#p5fa8824130)">
     <use xlink:href="#m2e9c92a4c8" x="0" y="352.15625" style="fill: #e1812c; stroke: #3f3f3f; stroke-width: 1.5"/>
    </g>
   </g>
   <g id="PolyCollection_3">
    <defs>
     <path id="mb9937e6e6e" d="M 190.524609 -59.236002 
L 189.266899 -59.236002 
L 188.687617 -61.258157 
L 187.94604 -63.280311 
L 187.046065 -65.302465 
L 186.014683 -67.324619 
L 184.905018 -69.346773 
L 183.794487 -71.368927 
L 182.777129 -73.391081 
L 181.950569 -75.413235 
L 181.399769 -77.435389 
L 181.180949 -79.457543 
L 181.309483 -81.479697 
L 181.754804 -83.501852 
L 182.443729 -85.524006 
L 183.271526 -87.54616 
L 184.118336 -89.568314 
L 184.867558 -91.590468 
L 185.422861 -93.612622 
L 185.721222 -95.634776 
L 185.740496 -97.65693 
L 185.500984 -99.679084 
L 185.061203 -101.701238 
L 184.508527 -103.723393 
L 183.945833 -105.745547 
L 183.47583 -107.767701 
L 183.185341 -109.789855 
L 183.13212 -111.812009 
L 183.336655 -113.834163 
L 183.780523 -115.856317 
L 184.41153 -117.878471 
L 185.15435 -119.900625 
L 185.924226 -121.922779 
L 186.640868 -123.944933 
L 187.239992 -125.967088 
L 187.680857 -127.989242 
L 187.949231 -130.011396 
L 188.056135 -132.03355 
L 188.03326 -134.055704 
L 187.926167 -136.077858 
L 187.786374 -138.100012 
L 187.663382 -140.122166 
L 187.597647 -142.14432 
L 187.61539 -144.166474 
L 187.725975 -146.188629 
L 187.922152 -148.210783 
L 188.182976 -150.232937 
L 188.478684 -152.255091 
L 188.776483 -154.277245 
L 189.046099 -156.299399 
L 189.264181 -158.321553 
L 189.41701 -160.343707 
L 189.501371 -162.365861 
L 189.523809 -164.388015 
L 189.498625 -166.410169 
L 189.445044 -168.432324 
L 189.38401 -170.454478 
L 189.335006 -172.476632 
L 189.313307 -174.498786 
L 189.328059 -176.52094 
L 189.38143 -178.543094 
L 189.468946 -180.565248 
L 189.580888 -182.587402 
L 189.704414 -184.609556 
L 189.825959 -186.63171 
L 189.933453 -188.653864 
L 190.018002 -190.676019 
L 190.074848 -192.698173 
L 190.103573 -194.720327 
L 190.107671 -196.742481 
L 190.093627 -198.764635 
L 190.069696 -200.786789 
L 190.044562 -202.808943 
L 190.026035 -204.831097 
L 190.019978 -206.853251 
L 190.02959 -208.875405 
L 190.055159 -210.89756 
L 190.094303 -212.919714 
L 190.14263 -214.941868 
L 190.194663 -216.964022 
L 190.244833 -218.986176 
L 190.288364 -221.00833 
L 190.321905 -223.030484 
L 190.343857 -225.052638 
L 190.354393 -227.074792 
L 190.355224 -229.096946 
L 190.349192 -231.1191 
L 190.339746 -233.141255 
L 190.330402 -235.163409 
L 190.324232 -237.185563 
L 190.323463 -239.207717 
L 190.329238 -241.229871 
L 190.341567 -243.252025 
L 190.359472 -245.274179 
L 190.381277 -247.296333 
L 190.404982 -249.318487 
L 190.428627 -251.340641 
L 190.450587 -253.362796 
L 190.469742 -255.38495 
L 190.485523 -257.407104 
L 190.497849 -259.429258 
L 190.524609 -259.429258 
L 190.524609 -259.429258 
L 190.524609 -257.407104 
L 190.524609 -255.38495 
L 190.524609 -253.362796 
L 190.524609 -251.340641 
L 190.524609 -249.318487 
L 190.524609 -247.296333 
L 190.524609 -245.274179 
L 190.524609 -243.252025 
L 190.524609 -241.229871 
L 190.524609 -239.207717 
L 190.524609 -237.185563 
L 190.524609 -235.163409 
L 190.524609 -233.141255 
L 190.524609 -231.1191 
L 190.524609 -229.096946 
L 190.524609 -227.074792 
L 190.524609 -225.052638 
L 190.524609 -223.030484 
L 190.524609 -221.00833 
L 190.524609 -218.986176 
L 190.524609 -216.964022 
L 190.524609 -214.941868 
L 190.524609 -212.919714 
L 190.524609 -210.89756 
L 190.524609 -208.875405 
L 190.524609 -206.853251 
L 190.524609 -204.831097 
L 190.524609 -202.808943 
L 190.524609 -200.786789 
L 190.524609 -198.764635 
L 190.524609 -196.742481 
L 190.524609 -194.720327 
L 190.524609 -192.698173 
L 190.524609 -190.676019 
L 190.524609 -188.653864 
L 190.524609 -186.63171 
L 190.524609 -184.609556 
L 190.524609 -182.587402 
L 190.524609 -180.565248 
L 190.524609 -178.543094 
L 190.524609 -176.52094 
L 190.524609 -174.498786 
L 190.524609 -172.476632 
L 190.524609 -170.454478 
L 190.524609 -168.432324 
L 190.524609 -166.410169 
L 190.524609 -164.388015 
L 190.524609 -162.365861 
L 190.524609 -160.343707 
L 190.524609 -158.321553 
L 190.524609 -156.299399 
L 190.524609 -154.277245 
L 190.524609 -152.255091 
L 190.524609 -150.232937 
L 190.524609 -148.210783 
L 190.524609 -146.188629 
L 190.524609 -144.166474 
L 190.524609 -142.14432 
L 190.524609 -140.122166 
L 190.524609 -138.100012 
L 190.524609 -136.077858 
L 190.524609 -134.055704 
L 190.524609 -132.03355 
L 190.524609 -130.011396 
L 190.524609 -127.989242 
L 190.524609 -125.967088 
L 190.524609 -123.944933 
L 190.524609 -121.922779 
L 190.524609 -119.900625 
L 190.524609 -117.878471 
L 190.524609 -115.856317 
L 190.524609 -113.834163 
L 190.524609 -111.812009 
L 190.524609 -109.789855 
L 190.524609 -107.767701 
L 190.524609 -105.745547 
L 190.524609 -103.723393 
L 190.524609 -101.701238 
L 190.524609 -99.679084 
L 190.524609 -97.65693 
L 190.524609 -95.634776 
L 190.524609 -93.612622 
L 190.524609 -91.590468 
L 190.524609 -89.568314 
L 190.524609 -87.54616 
L 190.524609 -85.524006 
L 190.524609 -83.501852 
L 190.524609 -81.479697 
L 190.524609 -79.457543 
L 190.524609 -77.435389 
L 190.524609 -75.413235 
L 190.524609 -73.391081 
L 190.524609 -71.368927 
L 190.524609 -69.346773 
L 190.524609 -67.324619 
L 190.524609 -65.302465 
L 190.524609 -63.280311 
L 190.524609 -61.258157 
L 190.524609 -59.236002 
z
" style="stroke: #3f3f3f; stroke-width: 1.5"/>
    </defs>
    <g clip-path="url(#p5fa8824130)">
     <use xlink:href="#mb9937e6e6e" x="0" y="352.15625" style="fill: #3274a1; stroke: #3f3f3f; stroke-width: 1.5"/>
    </g>
   </g>
   <g id="PolyCollection_4">
    <defs>
     <path id="m85d6b436f3" d="M 196.174167 -70.418721 
L 190.524609 -70.418721 
L 190.524609 -71.8925 
L 190.524609 -73.36628 
L 190.524609 -74.84006 
L 190.524609 -76.31384 
L 190.524609 -77.787619 
L 190.524609 -79.261399 
L 190.524609 -80.735179 
L 190.524609 -82.208959 
L 190.524609 -83.682739 
L 190.524609 -85.156518 
L 190.524609 -86.630298 
L 190.524609 -88.104078 
L 190.524609 -89.577858 
L 190.524609 -91.051638 
L 190.524609 -92.525417 
L 190.524609 -93.999197 
L 190.524609 -95.472977 
L 190.524609 -96.946757 
L 190.524609 -98.420537 
L 190.524609 -99.894316 
L 190.524609 -101.368096 
L 190.524609 -102.841876 
L 190.524609 -104.315656 
L 190.524609 -105.789436 
L 190.524609 -107.263215 
L 190.524609 -108.736995 
L 190.524609 -110.210775 
L 190.524609 -111.684555 
L 190.524609 -113.158334 
L 190.524609 -114.632114 
L 190.524609 -116.105894 
L 190.524609 -117.579674 
L 190.524609 -119.053454 
L 190.524609 -120.527233 
L 190.524609 -122.001013 
L 190.524609 -123.474793 
L 190.524609 -124.948573 
L 190.524609 -126.422353 
L 190.524609 -127.896132 
L 190.524609 -129.369912 
L 190.524609 -130.843692 
L 190.524609 -132.317472 
L 190.524609 -133.791252 
L 190.524609 -135.265031 
L 190.524609 -136.738811 
L 190.524609 -138.212591 
L 190.524609 -139.686371 
L 190.524609 -141.16015 
L 190.524609 -142.63393 
L 190.524609 -144.10771 
L 190.524609 -145.58149 
L 190.524609 -147.05527 
L 190.524609 -148.529049 
L 190.524609 -150.002829 
L 190.524609 -151.476609 
L 190.524609 -152.950389 
L 190.524609 -154.424169 
L 190.524609 -155.897948 
L 190.524609 -157.371728 
L 190.524609 -158.845508 
L 190.524609 -160.319288 
L 190.524609 -161.793068 
L 190.524609 -163.266847 
L 190.524609 -164.740627 
L 190.524609 -166.214407 
L 190.524609 -167.688187 
L 190.524609 -169.161967 
L 190.524609 -170.635746 
L 190.524609 -172.109526 
L 190.524609 -173.583306 
L 190.524609 -175.057086 
L 190.524609 -176.530865 
L 190.524609 -178.004645 
L 190.524609 -179.478425 
L 190.524609 -180.952205 
L 190.524609 -182.425985 
L 190.524609 -183.899764 
L 190.524609 -185.373544 
L 190.524609 -186.847324 
L 190.524609 -188.321104 
L 190.524609 -189.794884 
L 190.524609 -191.268663 
L 190.524609 -192.742443 
L 190.524609 -194.216223 
L 190.524609 -195.690003 
L 190.524609 -197.163783 
L 190.524609 -198.637562 
L 190.524609 -200.111342 
L 190.524609 -201.585122 
L 190.524609 -203.058902 
L 190.524609 -204.532682 
L 190.524609 -206.006461 
L 190.524609 -207.480241 
L 190.524609 -208.954021 
L 190.524609 -210.427801 
L 190.524609 -211.90158 
L 190.524609 -213.37536 
L 190.524609 -214.84914 
L 190.524609 -216.32292 
L 190.539516 -216.32292 
L 190.539516 -216.32292 
L 190.551637 -214.84914 
L 190.568739 -213.37536 
L 190.589492 -211.90158 
L 190.610514 -210.427801 
L 190.62703 -208.954021 
L 190.634572 -207.480241 
L 190.630922 -206.006461 
L 190.617166 -204.532682 
L 190.597172 -203.058902 
L 190.575837 -201.585122 
L 190.557177 -200.111342 
L 190.543254 -198.637562 
L 190.534224 -197.163783 
L 190.529086 -195.690003 
L 190.526533 -194.216223 
L 190.525525 -192.742443 
L 190.525548 -191.268663 
L 190.526752 -189.794884 
L 190.530138 -188.321104 
L 190.537816 -186.847324 
L 190.553099 -185.373544 
L 190.579969 -183.899764 
L 190.621482 -182.425985 
L 190.677257 -180.952205 
L 190.741213 -179.478425 
L 190.801383 -178.004645 
L 190.843079 -176.530865 
L 190.854595 -175.057086 
L 190.832507 -173.583306 
L 190.783313 -172.109526 
L 190.720351 -170.635746 
L 190.657976 -169.161967 
L 190.606436 -167.688187 
L 190.569821 -166.214407 
L 190.547113 -164.740627 
L 190.534734 -163.266847 
L 190.528859 -161.793068 
L 190.526733 -160.319288 
L 190.527139 -158.845508 
L 190.530589 -157.371728 
L 190.539639 -155.897948 
L 190.559291 -154.424169 
L 190.596821 -152.950389 
L 190.660031 -151.476609 
L 190.75331 -150.002829 
L 190.87241 -148.529049 
L 191.000907 -147.05527 
L 191.111977 -145.58149 
L 191.176877 -144.10771 
L 191.176877 -142.63393 
L 191.111977 -141.16015 
L 191.000907 -139.686371 
L 190.87241 -138.212591 
L 190.753311 -136.738811 
L 190.660036 -135.265031 
L 190.596846 -133.791252 
L 190.559411 -132.317472 
L 190.540143 -130.843692 
L 190.532487 -129.369912 
L 190.533582 -127.896132 
L 190.546427 -126.422353 
L 190.583067 -124.948573 
L 190.669098 -123.474793 
L 190.847017 -122.001013 
L 191.17261 -120.527233 
L 191.697458 -119.053454 
L 192.436195 -117.579674 
L 193.330235 -116.105894 
L 194.232696 -114.632114 
L 194.937814 -113.158334 
L 195.254405 -111.684555 
L 195.089337 -110.210775 
L 194.491694 -108.736995 
L 193.629256 -107.263215 
L 192.71256 -105.789436 
L 191.913124 -104.315656 
L 191.318179 -102.841876 
L 190.933362 -101.368096 
L 190.715708 -99.894316 
L 190.611141 -98.420537 
L 190.581818 -96.946757 
L 190.624857 -95.472977 
L 190.793779 -93.999197 
L 191.232359 -92.525417 
L 192.21585 -91.051638 
L 194.167361 -89.577858 
L 197.590725 -88.104078 
L 202.867602 -86.630298 
L 209.939937 -85.156518 
L 218.025906 -83.682739 
L 225.60349 -82.208959 
L 230.816942 -80.735179 
L 232.200339 -79.261399 
L 229.34216 -77.787619 
L 223.082567 -76.31384 
L 215.115276 -74.84006 
L 207.249665 -73.36628 
L 200.768123 -71.8925 
L 196.174167 -70.418721 
z
" style="stroke: #3f3f3f; stroke-width: 1.5"/>
    </defs>
    <g clip-path="url(#p5fa8824130)">
     <use xlink:href="#m85d6b436f3" x="0" y="352.15625" style="fill: #e1812c; stroke: #3f3f3f; stroke-width: 1.5"/>
    </g>
   </g>
   <g id="PolyCollection_5">
    <defs>
     <path id="m4d0dd4b281" d="M 294.713932 -51.528977 
L 291.527401 -51.528977 
L 290.038584 -54.35175 
L 288.126103 -57.174524 
L 285.798174 -59.997297 
L 283.122181 -62.82007 
L 280.231155 -65.642843 
L 277.316609 -68.465616 
L 274.605503 -71.28839 
L 272.323482 -74.111163 
L 270.651459 -76.933936 
L 269.686174 -79.756709 
L 269.416126 -82.579482 
L 269.721251 -85.402256 
L 270.398687 -88.225029 
L 271.209421 -91.047802 
L 271.93427 -93.870575 
L 272.424396 -96.693348 
L 272.632777 -99.516121 
L 272.618366 -102.338895 
L 272.522386 -105.161668 
L 272.5241 -107.984441 
L 272.788932 -110.807214 
L 273.423427 -113.629987 
L 274.448931 -116.452761 
L 275.799861 -119.275534 
L 277.345149 -122.098307 
L 278.925011 -124.92108 
L 280.39159 -127.743853 
L 281.642009 -130.566626 
L 282.635676 -133.3894 
L 283.392996 -136.212173 
L 283.978169 -139.034946 
L 284.472885 -141.857719 
L 284.94948 -144.680492 
L 285.451188 -147.503266 
L 285.984202 -150.326039 
L 286.522287 -153.148812 
L 287.021005 -155.971585 
L 287.436156 -158.794358 
L 287.740378 -161.617132 
L 287.933052 -164.439905 
L 288.041049 -167.262678 
L 288.110841 -170.085451 
L 288.194954 -172.908224 
L 288.337221 -175.730997 
L 288.561267 -178.553771 
L 288.865419 -181.376544 
L 289.225076 -184.199317 
L 289.601364 -187.02209 
L 289.953113 -189.844863 
L 290.248516 -192.667637 
L 290.47317 -195.49041 
L 290.632552 -198.313183 
L 290.748708 -201.135956 
L 290.852633 -203.958729 
L 290.974871 -206.781503 
L 291.137157 -209.604276 
L 291.347326 -212.427049 
L 291.59857 -215.249822 
L 291.872778 -218.072595 
L 292.146581 -220.895368 
L 292.398101 -223.718142 
L 292.612469 -226.540915 
L 292.784757 -229.363688 
L 292.919863 -232.186461 
L 293.029809 -235.009234 
L 293.129543 -237.832008 
L 293.232611 -240.654781 
L 293.347862 -243.477554 
L 293.477925 -246.300327 
L 293.619547 -249.1231 
L 293.765384 -251.945874 
L 293.906514 -254.768647 
L 294.034862 -257.59142 
L 294.144916 -260.414193 
L 294.234445 -263.236966 
L 294.304231 -266.059739 
L 294.357125 -268.882513 
L 294.396832 -271.705286 
L 294.426819 -274.528059 
L 294.449631 -277.350832 
L 294.466693 -280.173605 
L 294.478565 -282.996379 
L 294.485445 -285.819152 
L 294.487721 -288.641925 
L 294.486361 -291.464698 
L 294.483038 -294.287471 
L 294.479955 -297.110244 
L 294.47945 -299.933018 
L 294.48352 -302.755791 
L 294.493399 -305.578564 
L 294.509323 -308.401337 
L 294.530523 -311.22411 
L 294.555443 -314.046884 
L 294.582096 -316.869657 
L 294.608464 -319.69243 
L 294.632837 -322.515203 
L 294.654023 -325.337976 
L 294.67142 -328.16075 
L 294.68496 -330.983523 
L 294.713932 -330.983523 
L 294.713932 -330.983523 
L 294.713932 -328.16075 
L 294.713932 -325.337976 
L 294.713932 -322.515203 
L 294.713932 -319.69243 
L 294.713932 -316.869657 
L 294.713932 -314.046884 
L 294.713932 -311.22411 
L 294.713932 -308.401337 
L 294.713932 -305.578564 
L 294.713932 -302.755791 
L 294.713932 -299.933018 
L 294.713932 -297.110244 
L 294.713932 -294.287471 
L 294.713932 -291.464698 
L 294.713932 -288.641925 
L 294.713932 -285.819152 
L 294.713932 -282.996379 
L 294.713932 -280.173605 
L 294.713932 -277.350832 
L 294.713932 -274.528059 
L 294.713932 -271.705286 
L 294.713932 -268.882513 
L 294.713932 -266.059739 
L 294.713932 -263.236966 
L 294.713932 -260.414193 
L 294.713932 -257.59142 
L 294.713932 -254.768647 
L 294.713932 -251.945874 
L 294.713932 -249.1231 
L 294.713932 -246.300327 
L 294.713932 -243.477554 
L 294.713932 -240.654781 
L 294.713932 -237.832008 
L 294.713932 -235.009234 
L 294.713932 -232.186461 
L 294.713932 -229.363688 
L 294.713932 -226.540915 
L 294.713932 -223.718142 
L 294.713932 -220.895368 
L 294.713932 -218.072595 
L 294.713932 -215.249822 
L 294.713932 -212.427049 
L 294.713932 -209.604276 
L 294.713932 -206.781503 
L 294.713932 -203.958729 
L 294.713932 -201.135956 
L 294.713932 -198.313183 
L 294.713932 -195.49041 
L 294.713932 -192.667637 
L 294.713932 -189.844863 
L 294.713932 -187.02209 
L 294.713932 -184.199317 
L 294.713932 -181.376544 
L 294.713932 -178.553771 
L 294.713932 -175.730997 
L 294.713932 -172.908224 
L 294.713932 -170.085451 
L 294.713932 -167.262678 
L 294.713932 -164.439905 
L 294.713932 -161.617132 
L 294.713932 -158.794358 
L 294.713932 -155.971585 
L 294.713932 -153.148812 
L 294.713932 -150.326039 
L 294.713932 -147.503266 
L 294.713932 -144.680492 
L 294.713932 -141.857719 
L 294.713932 -139.034946 
L 294.713932 -136.212173 
L 294.713932 -133.3894 
L 294.713932 -130.566626 
L 294.713932 -127.743853 
L 294.713932 -124.92108 
L 294.713932 -122.098307 
L 294.713932 -119.275534 
L 294.713932 -116.452761 
L 294.713932 -113.629987 
L 294.713932 -110.807214 
L 294.713932 -107.984441 
L 294.713932 -105.161668 
L 294.713932 -102.338895 
L 294.713932 -99.516121 
L 294.713932 -96.693348 
L 294.713932 -93.870575 
L 294.713932 -91.047802 
L 294.713932 -88.225029 
L 294.713932 -85.402256 
L 294.713932 -82.579482 
L 294.713932 -79.756709 
L 294.713932 -76.933936 
L 294.713932 -74.111163 
L 294.713932 -71.28839 
L 294.713932 -68.465616 
L 294.713932 -65.642843 
L 294.713932 -62.82007 
L 294.713932 -59.997297 
L 294.713932 -57.174524 
L 294.713932 -54.35175 
L 294.713932 -51.528977 
z
" style="stroke: #3f3f3f; stroke-width: 1.5"/>
    </defs>
    <g clip-path="url(#p5fa8824130)">
     <use xlink:href="#m4d0dd4b281" x="0" y="352.15625" style="fill: #3274a1; stroke: #3f3f3f; stroke-width: 1.5"/>
    </g>
   </g>
   <g id="PolyCollection_6">
    <defs>
     <path id="m4e172282b5" d="M 300.313686 -56.655782 
L 294.713932 -56.655782 
L 294.713932 -59.052522 
L 294.713932 -61.449263 
L 294.713932 -63.846003 
L 294.713932 -66.242744 
L 294.713932 -68.639484 
L 294.713932 -71.036225 
L 294.713932 -73.432966 
L 294.713932 -75.829706 
L 294.713932 -78.226447 
L 294.713932 -80.623187 
L 294.713932 -83.019928 
L 294.713932 -85.416668 
L 294.713932 -87.813409 
L 294.713932 -90.21015 
L 294.713932 -92.60689 
L 294.713932 -95.003631 
L 294.713932 -97.400371 
L 294.713932 -99.797112 
L 294.713932 -102.193852 
L 294.713932 -104.590593 
L 294.713932 -106.987334 
L 294.713932 -109.384074 
L 294.713932 -111.780815 
L 294.713932 -114.177555 
L 294.713932 -116.574296 
L 294.713932 -118.971037 
L 294.713932 -121.367777 
L 294.713932 -123.764518 
L 294.713932 -126.161258 
L 294.713932 -128.557999 
L 294.713932 -130.954739 
L 294.713932 -133.35148 
L 294.713932 -135.748221 
L 294.713932 -138.144961 
L 294.713932 -140.541702 
L 294.713932 -142.938442 
L 294.713932 -145.335183 
L 294.713932 -147.731923 
L 294.713932 -150.128664 
L 294.713932 -152.525405 
L 294.713932 -154.922145 
L 294.713932 -157.318886 
L 294.713932 -159.715626 
L 294.713932 -162.112367 
L 294.713932 -164.509107 
L 294.713932 -166.905848 
L 294.713932 -169.302589 
L 294.713932 -171.699329 
L 294.713932 -174.09607 
L 294.713932 -176.49281 
L 294.713932 -178.889551 
L 294.713932 -181.286291 
L 294.713932 -183.683032 
L 294.713932 -186.079773 
L 294.713932 -188.476513 
L 294.713932 -190.873254 
L 294.713932 -193.269994 
L 294.713932 -195.666735 
L 294.713932 -198.063476 
L 294.713932 -200.460216 
L 294.713932 -202.856957 
L 294.713932 -205.253697 
L 294.713932 -207.650438 
L 294.713932 -210.047178 
L 294.713932 -212.443919 
L 294.713932 -214.84066 
L 294.713932 -217.2374 
L 294.713932 -219.634141 
L 294.713932 -222.030881 
L 294.713932 -224.427622 
L 294.713932 -226.824362 
L 294.713932 -229.221103 
L 294.713932 -231.617844 
L 294.713932 -234.014584 
L 294.713932 -236.411325 
L 294.713932 -238.808065 
L 294.713932 -241.204806 
L 294.713932 -243.601546 
L 294.713932 -245.998287 
L 294.713932 -248.395028 
L 294.713932 -250.791768 
L 294.713932 -253.188509 
L 294.713932 -255.585249 
L 294.713932 -257.98199 
L 294.713932 -260.378731 
L 294.713932 -262.775471 
L 294.713932 -265.172212 
L 294.713932 -267.568952 
L 294.713932 -269.965693 
L 294.713932 -272.362433 
L 294.713932 -274.759174 
L 294.713932 -277.155915 
L 294.713932 -279.552655 
L 294.713932 -281.949396 
L 294.713932 -284.346136 
L 294.713932 -286.742877 
L 294.713932 -289.139617 
L 294.713932 -291.536358 
L 294.713932 -293.933099 
L 294.749378 -293.933099 
L 294.749378 -293.933099 
L 294.766673 -291.536358 
L 294.78904 -289.139617 
L 294.816314 -286.742877 
L 294.847533 -284.346136 
L 294.88087 -281.949396 
L 294.913757 -279.552655 
L 294.943249 -277.155915 
L 294.96658 -274.759174 
L 294.981815 -272.362433 
L 294.98843 -269.965693 
L 294.987658 -267.568952 
L 294.98247 -265.172212 
L 294.977146 -262.775471 
L 294.976497 -260.378731 
L 294.984867 -257.98199 
L 295.005141 -255.585249 
L 295.037971 -253.188509 
L 295.081436 -250.791768 
L 295.131292 -248.395028 
L 295.181819 -245.998287 
L 295.227196 -243.601546 
L 295.263135 -241.204806 
L 295.288438 -238.808065 
L 295.306069 -236.411325 
L 295.323388 -234.014584 
L 295.35135 -231.617844 
L 295.402634 -229.221103 
L 295.488954 -226.824362 
L 295.618011 -224.427622 
L 295.790721 -222.030881 
L 295.999466 -219.634141 
L 296.228012 -217.2374 
L 296.453454 -214.84066 
L 296.65011 -212.443919 
L 296.794706 -210.047178 
L 296.871749 -207.650438 
L 296.877724 -205.253697 
L 296.822966 -202.856957 
L 296.730501 -200.460216 
L 296.631942 -198.063476 
L 296.561205 -195.666735 
L 296.547397 -193.269994 
L 296.608419 -190.873254 
L 296.746744 -188.476513 
L 296.94846 -186.079773 
L 297.186051 -183.683032 
L 297.424641 -181.286291 
L 297.630673 -178.889551 
L 297.781277 -176.49281 
L 297.872248 -174.09607 
L 297.922539 -171.699329 
L 297.973752 -169.302589 
L 298.084008 -166.905848 
L 298.316775 -164.509107 
L 298.726406 -162.112367 
L 299.343179 -159.715626 
L 300.161247 -157.318886 
L 301.132928 -154.922145 
L 302.171979 -152.525405 
L 303.166774 -150.128664 
L 304.001918 -147.731923 
L 304.584303 -145.335183 
L 304.867697 -142.938442 
L 304.869478 -140.541702 
L 304.67438 -138.144961 
L 304.422915 -135.748221 
L 304.285668 -133.35148 
L 304.428122 -130.954739 
L 304.973106 -128.557999 
L 305.969102 -126.161258 
L 307.37212 -123.764518 
L 309.046826 -121.367777 
L 310.789048 -118.971037 
L 312.367176 -116.574296 
L 313.575102 -114.177555 
L 314.28544 -111.780815 
L 314.490222 -109.384074 
L 314.317797 -106.987334 
L 314.019329 -104.590593 
L 313.924847 -102.193852 
L 314.375782 -99.797112 
L 315.646728 -97.400371 
L 317.872566 -95.003631 
L 320.997608 -92.60689 
L 324.760503 -90.21015 
L 328.722316 -87.813409 
L 332.335996 -85.416668 
L 335.044956 -83.019928 
L 336.389661 -80.623187 
L 336.097067 -78.226447 
L 334.130883 -75.829706 
L 330.690665 -73.432966 
L 326.16184 -71.036225 
L 321.032024 -68.639484 
L 315.796918 -66.242744 
L 310.879154 -63.846003 
L 306.576507 -61.449263 
L 303.045189 -59.052522 
L 300.313686 -56.655782 
z
" style="stroke: #3f3f3f; stroke-width: 1.5"/>
    </defs>
    <g clip-path="url(#p5fa8824130)">
     <use xlink:href="#m4e172282b5" x="0" y="352.15625" style="fill: #e1812c; stroke: #3f3f3f; stroke-width: 1.5"/>
    </g>
   </g>
   <g id="matplotlib.axis_1">
    <g id="xtick_1">
     <g id="line2d_1">
      <defs>
       <path id="m1ce80582d8" d="M 0 0 
L 0 3.5 
" style="stroke: #000000; stroke-width: 0.8"/>
      </defs>
      <g>
       <use xlink:href="#m1ce80582d8" x="86.335286" y="314.6" style="stroke: #000000; stroke-width: 0.8"/>
      </g>
     </g>
     <g id="text_1">
      <!-- burger -->
      <g transform="translate(69.718099 329.198437)scale(0.1 -0.1)">
       <defs>
        <path id="DejaVuSans-62" d="M 3116 1747 
Q 3116 2381 2855 2742 
Q 2594 3103 2138 3103 
Q 1681 3103 1420 2742 
Q 1159 2381 1159 1747 
Q 1159 1113 1420 752 
Q 1681 391 2138 391 
Q 2594 391 2855 752 
Q 3116 1113 3116 1747 
z
M 1159 2969 
Q 1341 3281 1617 3432 
Q 1894 3584 2278 3584 
Q 2916 3584 3314 3078 
Q 3713 2572 3713 1747 
Q 3713 922 3314 415 
Q 2916 -91 2278 -91 
Q 1894 -91 1617 61 
Q 1341 213 1159 525 
L 1159 0 
L 581 0 
L 581 4863 
L 1159 4863 
L 1159 2969 
z
" transform="scale(0.015625)"/>
        <path id="DejaVuSans-75" d="M 544 1381 
L 544 3500 
L 1119 3500 
L 1119 1403 
Q 1119 906 1312 657 
Q 1506 409 1894 409 
Q 2359 409 2629 706 
Q 2900 1003 2900 1516 
L 2900 3500 
L 3475 3500 
L 3475 0 
L 2900 0 
L 2900 538 
Q 2691 219 2414 64 
Q 2138 -91 1772 -91 
Q 1169 -91 856 284 
Q 544 659 544 1381 
z
M 1991 3584 
L 1991 3584 
z
" transform="scale(0.015625)"/>
        <path id="DejaVuSans-72" d="M 2631 2963 
Q 2534 3019 2420 3045 
Q 2306 3072 2169 3072 
Q 1681 3072 1420 2755 
Q 1159 2438 1159 1844 
L 1159 0 
L 581 0 
L 581 3500 
L 1159 3500 
L 1159 2956 
Q 1341 3275 1631 3429 
Q 1922 3584 2338 3584 
Q 2397 3584 2469 3576 
Q 2541 3569 2628 3553 
L 2631 2963 
z
" transform="scale(0.015625)"/>
        <path id="DejaVuSans-67" d="M 2906 1791 
Q 2906 2416 2648 2759 
Q 2391 3103 1925 3103 
Q 1463 3103 1205 2759 
Q 947 2416 947 1791 
Q 947 1169 1205 825 
Q 1463 481 1925 481 
Q 2391 481 2648 825 
Q 2906 1169 2906 1791 
z
M 3481 434 
Q 3481 -459 3084 -895 
Q 2688 -1331 1869 -1331 
Q 1566 -1331 1297 -1286 
Q 1028 -1241 775 -1147 
L 775 -588 
Q 1028 -725 1275 -790 
Q 1522 -856 1778 -856 
Q 2344 -856 2625 -561 
Q 2906 -266 2906 331 
L 2906 616 
Q 2728 306 2450 153 
Q 2172 0 1784 0 
Q 1141 0 747 490 
Q 353 981 353 1791 
Q 353 2603 747 3093 
Q 1141 3584 1784 3584 
Q 2172 3584 2450 3431 
Q 2728 3278 2906 2969 
L 2906 3500 
L 3481 3500 
L 3481 434 
z
" transform="scale(0.015625)"/>
        <path id="DejaVuSans-65" d="M 3597 1894 
L 3597 1613 
L 953 1613 
Q 991 1019 1311 708 
Q 1631 397 2203 397 
Q 2534 397 2845 478 
Q 3156 559 3463 722 
L 3463 178 
Q 3153 47 2828 -22 
Q 2503 -91 2169 -91 
Q 1331 -91 842 396 
Q 353 884 353 1716 
Q 353 2575 817 3079 
Q 1281 3584 2069 3584 
Q 2775 3584 3186 3129 
Q 3597 2675 3597 1894 
z
M 3022 2063 
Q 3016 2534 2758 2815 
Q 2500 3097 2075 3097 
Q 1594 3097 1305 2825 
Q 1016 2553 972 2059 
L 3022 2063 
z
" transform="scale(0.015625)"/>
       </defs>
       <use xlink:href="#DejaVuSans-62"/>
       <use xlink:href="#DejaVuSans-75" x="63.476562"/>
       <use xlink:href="#DejaVuSans-72" x="126.855469"/>
       <use xlink:href="#DejaVuSans-67" x="166.21875"/>
       <use xlink:href="#DejaVuSans-65" x="229.695312"/>
       <use xlink:href="#DejaVuSans-72" x="291.21875"/>
      </g>
     </g>
    </g>
    <g id="xtick_2">
     <g id="line2d_2">
      <g>
       <use xlink:href="#m1ce80582d8" x="190.524609" y="314.6" style="stroke: #000000; stroke-width: 0.8"/>
      </g>
     </g>
     <g id="text_2">
      <!-- jackal -->
      <g transform="translate(176.061328 329.198437)scale(0.1 -0.1)">
       <defs>
        <path id="DejaVuSans-6a" d="M 603 3500 
L 1178 3500 
L 1178 -63 
Q 1178 -731 923 -1031 
Q 669 -1331 103 -1331 
L -116 -1331 
L -116 -844 
L 38 -844 
Q 366 -844 484 -692 
Q 603 -541 603 -63 
L 603 3500 
z
M 603 4863 
L 1178 4863 
L 1178 4134 
L 603 4134 
L 603 4863 
z
" transform="scale(0.015625)"/>
        <path id="DejaVuSans-61" d="M 2194 1759 
Q 1497 1759 1228 1600 
Q 959 1441 959 1056 
Q 959 750 1161 570 
Q 1363 391 1709 391 
Q 2188 391 2477 730 
Q 2766 1069 2766 1631 
L 2766 1759 
L 2194 1759 
z
M 3341 1997 
L 3341 0 
L 2766 0 
L 2766 531 
Q 2569 213 2275 61 
Q 1981 -91 1556 -91 
Q 1019 -91 701 211 
Q 384 513 384 1019 
Q 384 1609 779 1909 
Q 1175 2209 1959 2209 
L 2766 2209 
L 2766 2266 
Q 2766 2663 2505 2880 
Q 2244 3097 1772 3097 
Q 1472 3097 1187 3025 
Q 903 2953 641 2809 
L 641 3341 
Q 956 3463 1253 3523 
Q 1550 3584 1831 3584 
Q 2591 3584 2966 3190 
Q 3341 2797 3341 1997 
z
" transform="scale(0.015625)"/>
        <path id="DejaVuSans-63" d="M 3122 3366 
L 3122 2828 
Q 2878 2963 2633 3030 
Q 2388 3097 2138 3097 
Q 1578 3097 1268 2742 
Q 959 2388 959 1747 
Q 959 1106 1268 751 
Q 1578 397 2138 397 
Q 2388 397 2633 464 
Q 2878 531 3122 666 
L 3122 134 
Q 2881 22 2623 -34 
Q 2366 -91 2075 -91 
Q 1284 -91 818 406 
Q 353 903 353 1747 
Q 353 2603 823 3093 
Q 1294 3584 2113 3584 
Q 2378 3584 2631 3529 
Q 2884 3475 3122 3366 
z
" transform="scale(0.015625)"/>
        <path id="DejaVuSans-6b" d="M 581 4863 
L 1159 4863 
L 1159 1991 
L 2875 3500 
L 3609 3500 
L 1753 1863 
L 3688 0 
L 2938 0 
L 1159 1709 
L 1159 0 
L 581 0 
L 581 4863 
z
" transform="scale(0.015625)"/>
        <path id="DejaVuSans-6c" d="M 603 4863 
L 1178 4863 
L 1178 0 
L 603 0 
L 603 4863 
z
" transform="scale(0.015625)"/>
       </defs>
       <use xlink:href="#DejaVuSans-6a"/>
       <use xlink:href="#DejaVuSans-61" x="27.783203"/>
       <use xlink:href="#DejaVuSans-63" x="89.0625"/>
       <use xlink:href="#DejaVuSans-6b" x="144.042969"/>
       <use xlink:href="#DejaVuSans-61" x="200.203125"/>
       <use xlink:href="#DejaVuSans-6c" x="261.482422"/>
      </g>
     </g>
    </g>
    <g id="xtick_3">
     <g id="line2d_3">
      <g>
       <use xlink:href="#m1ce80582d8" x="294.713932" y="314.6" style="stroke: #000000; stroke-width: 0.8"/>
      </g>
     </g>
     <g id="text_3">
      <!-- youbot -->
      <g transform="translate(277.332682 329.198437)scale(0.1 -0.1)">
       <defs>
        <path id="DejaVuSans-79" d="M 2059 -325 
Q 1816 -950 1584 -1140 
Q 1353 -1331 966 -1331 
L 506 -1331 
L 506 -850 
L 844 -850 
Q 1081 -850 1212 -737 
Q 1344 -625 1503 -206 
L 1606 56 
L 191 3500 
L 800 3500 
L 1894 763 
L 2988 3500 
L 3597 3500 
L 2059 -325 
z
" transform="scale(0.015625)"/>
        <path id="DejaVuSans-6f" d="M 1959 3097 
Q 1497 3097 1228 2736 
Q 959 2375 959 1747 
Q 959 1119 1226 758 
Q 1494 397 1959 397 
Q 2419 397 2687 759 
Q 2956 1122 2956 1747 
Q 2956 2369 2687 2733 
Q 2419 3097 1959 3097 
z
M 1959 3584 
Q 2709 3584 3137 3096 
Q 3566 2609 3566 1747 
Q 3566 888 3137 398 
Q 2709 -91 1959 -91 
Q 1206 -91 779 398 
Q 353 888 353 1747 
Q 353 2609 779 3096 
Q 1206 3584 1959 3584 
z
" transform="scale(0.015625)"/>
        <path id="DejaVuSans-74" d="M 1172 4494 
L 1172 3500 
L 2356 3500 
L 2356 3053 
L 1172 3053 
L 1172 1153 
Q 1172 725 1289 603 
Q 1406 481 1766 481 
L 2356 481 
L 2356 0 
L 1766 0 
Q 1100 0 847 248 
Q 594 497 594 1153 
L 594 3053 
L 172 3053 
L 172 3500 
L 594 3500 
L 594 4494 
L 1172 4494 
z
" transform="scale(0.015625)"/>
       </defs>
       <use xlink:href="#DejaVuSans-79"/>
       <use xlink:href="#DejaVuSans-6f" x="59.179688"/>
       <use xlink:href="#DejaVuSans-75" x="120.361328"/>
       <use xlink:href="#DejaVuSans-62" x="183.740234"/>
       <use xlink:href="#DejaVuSans-6f" x="247.216797"/>
       <use xlink:href="#DejaVuSans-74" x="308.398438"/>
      </g>
     </g>
    </g>
    <g id="text_4">
     <!-- Robot -->
     <g transform="translate(176.022266 342.876562)scale(0.1 -0.1)">
      <defs>
       <path id="DejaVuSans-52" d="M 2841 2188 
Q 3044 2119 3236 1894 
Q 3428 1669 3622 1275 
L 4263 0 
L 3584 0 
L 2988 1197 
Q 2756 1666 2539 1819 
Q 2322 1972 1947 1972 
L 1259 1972 
L 1259 0 
L 628 0 
L 628 4666 
L 2053 4666 
Q 2853 4666 3247 4331 
Q 3641 3997 3641 3322 
Q 3641 2881 3436 2590 
Q 3231 2300 2841 2188 
z
M 1259 4147 
L 1259 2491 
L 2053 2491 
Q 2509 2491 2742 2702 
Q 2975 2913 2975 3322 
Q 2975 3731 2742 3939 
Q 2509 4147 2053 4147 
L 1259 4147 
z
" transform="scale(0.015625)"/>
      </defs>
      <use xlink:href="#DejaVuSans-52"/>
      <use xlink:href="#DejaVuSans-6f" x="64.982422"/>
      <use xlink:href="#DejaVuSans-62" x="126.164062"/>
      <use xlink:href="#DejaVuSans-6f" x="189.640625"/>
      <use xlink:href="#DejaVuSans-74" x="250.822266"/>
     </g>
    </g>
   </g>
   <g id="matplotlib.axis_2">
    <g id="ytick_1">
     <g id="line2d_4">
      <defs>
       <path id="mba30465512" d="M 0 0 
L -3.5 0 
" style="stroke: #000000; stroke-width: 0.8"/>
      </defs>
      <g>
       <use xlink:href="#mba30465512" x="34.240625" y="272.63267" style="stroke: #000000; stroke-width: 0.8"/>
      </g>
     </g>
     <g id="text_5">
      <!-- 0 -->
      <g transform="translate(20.878125 276.431888)scale(0.1 -0.1)">
       <defs>
        <path id="DejaVuSans-30" d="M 2034 4250 
Q 1547 4250 1301 3770 
Q 1056 3291 1056 2328 
Q 1056 1369 1301 889 
Q 1547 409 2034 409 
Q 2525 409 2770 889 
Q 3016 1369 3016 2328 
Q 3016 3291 2770 3770 
Q 2525 4250 2034 4250 
z
M 2034 4750 
Q 2819 4750 3233 4129 
Q 3647 3509 3647 2328 
Q 3647 1150 3233 529 
Q 2819 -91 2034 -91 
Q 1250 -91 836 529 
Q 422 1150 422 2328 
Q 422 3509 836 4129 
Q 1250 4750 2034 4750 
z
" transform="scale(0.015625)"/>
       </defs>
       <use xlink:href="#DejaVuSans-30"/>
      </g>
     </g>
    </g>
    <g id="ytick_2">
     <g id="line2d_5">
      <g>
       <use xlink:href="#mba30465512" x="34.240625" y="208.78543" style="stroke: #000000; stroke-width: 0.8"/>
      </g>
     </g>
     <g id="text_6">
      <!-- 2 -->
      <g transform="translate(20.878125 212.584649)scale(0.1 -0.1)">
       <defs>
        <path id="DejaVuSans-32" d="M 1228 531 
L 3431 531 
L 3431 0 
L 469 0 
L 469 531 
Q 828 903 1448 1529 
Q 2069 2156 2228 2338 
Q 2531 2678 2651 2914 
Q 2772 3150 2772 3378 
Q 2772 3750 2511 3984 
Q 2250 4219 1831 4219 
Q 1534 4219 1204 4116 
Q 875 4013 500 3803 
L 500 4441 
Q 881 4594 1212 4672 
Q 1544 4750 1819 4750 
Q 2544 4750 2975 4387 
Q 3406 4025 3406 3419 
Q 3406 3131 3298 2873 
Q 3191 2616 2906 2266 
Q 2828 2175 2409 1742 
Q 1991 1309 1228 531 
z
" transform="scale(0.015625)"/>
       </defs>
       <use xlink:href="#DejaVuSans-32"/>
      </g>
     </g>
    </g>
    <g id="ytick_3">
     <g id="line2d_6">
      <g>
       <use xlink:href="#mba30465512" x="34.240625" y="144.93819" style="stroke: #000000; stroke-width: 0.8"/>
      </g>
     </g>
     <g id="text_7">
      <!-- 4 -->
      <g transform="translate(20.878125 148.737409)scale(0.1 -0.1)">
       <defs>
        <path id="DejaVuSans-34" d="M 2419 4116 
L 825 1625 
L 2419 1625 
L 2419 4116 
z
M 2253 4666 
L 3047 4666 
L 3047 1625 
L 3713 1625 
L 3713 1100 
L 3047 1100 
L 3047 0 
L 2419 0 
L 2419 1100 
L 313 1100 
L 313 1709 
L 2253 4666 
z
" transform="scale(0.015625)"/>
       </defs>
       <use xlink:href="#DejaVuSans-34"/>
      </g>
     </g>
    </g>
    <g id="ytick_4">
     <g id="line2d_7">
      <g>
       <use xlink:href="#mba30465512" x="34.240625" y="81.09095" style="stroke: #000000; stroke-width: 0.8"/>
      </g>
     </g>
     <g id="text_8">
      <!-- 6 -->
      <g transform="translate(20.878125 84.890169)scale(0.1 -0.1)">
       <defs>
        <path id="DejaVuSans-36" d="M 2113 2584 
Q 1688 2584 1439 2293 
Q 1191 2003 1191 1497 
Q 1191 994 1439 701 
Q 1688 409 2113 409 
Q 2538 409 2786 701 
Q 3034 994 3034 1497 
Q 3034 2003 2786 2293 
Q 2538 2584 2113 2584 
z
M 3366 4563 
L 3366 3988 
Q 3128 4100 2886 4159 
Q 2644 4219 2406 4219 
Q 1781 4219 1451 3797 
Q 1122 3375 1075 2522 
Q 1259 2794 1537 2939 
Q 1816 3084 2150 3084 
Q 2853 3084 3261 2657 
Q 3669 2231 3669 1497 
Q 3669 778 3244 343 
Q 2819 -91 2113 -91 
Q 1303 -91 875 529 
Q 447 1150 447 2328 
Q 447 3434 972 4092 
Q 1497 4750 2381 4750 
Q 2619 4750 2861 4703 
Q 3103 4656 3366 4563 
z
" transform="scale(0.015625)"/>
       </defs>
       <use xlink:href="#DejaVuSans-36"/>
      </g>
     </g>
    </g>
    <g id="ytick_5">
     <g id="line2d_8">
      <g>
       <use xlink:href="#mba30465512" x="34.240625" y="17.243711" style="stroke: #000000; stroke-width: 0.8"/>
      </g>
     </g>
     <g id="text_9">
      <!-- 8 -->
      <g transform="translate(20.878125 21.042929)scale(0.1 -0.1)">
       <defs>
        <path id="DejaVuSans-38" d="M 2034 2216 
Q 1584 2216 1326 1975 
Q 1069 1734 1069 1313 
Q 1069 891 1326 650 
Q 1584 409 2034 409 
Q 2484 409 2743 651 
Q 3003 894 3003 1313 
Q 3003 1734 2745 1975 
Q 2488 2216 2034 2216 
z
M 1403 2484 
Q 997 2584 770 2862 
Q 544 3141 544 3541 
Q 544 4100 942 4425 
Q 1341 4750 2034 4750 
Q 2731 4750 3128 4425 
Q 3525 4100 3525 3541 
Q 3525 3141 3298 2862 
Q 3072 2584 2669 2484 
Q 3125 2378 3379 2068 
Q 3634 1759 3634 1313 
Q 3634 634 3220 271 
Q 2806 -91 2034 -91 
Q 1263 -91 848 271 
Q 434 634 434 1313 
Q 434 1759 690 2068 
Q 947 2378 1403 2484 
z
M 1172 3481 
Q 1172 3119 1398 2916 
Q 1625 2713 2034 2713 
Q 2441 2713 2670 2916 
Q 2900 3119 2900 3481 
Q 2900 3844 2670 4047 
Q 2441 4250 2034 4250 
Q 1625 4250 1398 4047 
Q 1172 3844 1172 3481 
z
" transform="scale(0.015625)"/>
       </defs>
       <use xlink:href="#DejaVuSans-38"/>
      </g>
     </g>
    </g>
    <g id="text_10">
     <!-- collision -->
     <g transform="translate(14.798438 181.097656)rotate(-90)scale(0.1 -0.1)">
      <defs>
       <path id="DejaVuSans-69" d="M 603 3500 
L 1178 3500 
L 1178 0 
L 603 0 
L 603 3500 
z
M 603 4863 
L 1178 4863 
L 1178 4134 
L 603 4134 
L 603 4863 
z
" transform="scale(0.015625)"/>
       <path id="DejaVuSans-73" d="M 2834 3397 
L 2834 2853 
Q 2591 2978 2328 3040 
Q 2066 3103 1784 3103 
Q 1356 3103 1142 2972 
Q 928 2841 928 2578 
Q 928 2378 1081 2264 
Q 1234 2150 1697 2047 
L 1894 2003 
Q 2506 1872 2764 1633 
Q 3022 1394 3022 966 
Q 3022 478 2636 193 
Q 2250 -91 1575 -91 
Q 1294 -91 989 -36 
Q 684 19 347 128 
L 347 722 
Q 666 556 975 473 
Q 1284 391 1588 391 
Q 1994 391 2212 530 
Q 2431 669 2431 922 
Q 2431 1156 2273 1281 
Q 2116 1406 1581 1522 
L 1381 1569 
Q 847 1681 609 1914 
Q 372 2147 372 2553 
Q 372 3047 722 3315 
Q 1072 3584 1716 3584 
Q 2034 3584 2315 3537 
Q 2597 3491 2834 3397 
z
" transform="scale(0.015625)"/>
       <path id="DejaVuSans-6e" d="M 3513 2113 
L 3513 0 
L 2938 0 
L 2938 2094 
Q 2938 2591 2744 2837 
Q 2550 3084 2163 3084 
Q 1697 3084 1428 2787 
Q 1159 2491 1159 1978 
L 1159 0 
L 581 0 
L 581 3500 
L 1159 3500 
L 1159 2956 
Q 1366 3272 1645 3428 
Q 1925 3584 2291 3584 
Q 2894 3584 3203 3211 
Q 3513 2838 3513 2113 
z
" transform="scale(0.015625)"/>
      </defs>
      <use xlink:href="#DejaVuSans-63"/>
      <use xlink:href="#DejaVuSans-6f" x="54.980469"/>
      <use xlink:href="#DejaVuSans-6c" x="116.162109"/>
      <use xlink:href="#DejaVuSans-6c" x="143.945312"/>
      <use xlink:href="#DejaVuSans-69" x="171.728516"/>
      <use xlink:href="#DejaVuSans-73" x="199.511719"/>
      <use xlink:href="#DejaVuSans-69" x="251.611328"/>
      <use xlink:href="#DejaVuSans-6f" x="279.394531"/>
      <use xlink:href="#DejaVuSans-6e" x="340.576172"/>
     </g>
    </g>
   </g>
   <g id="line2d_9">
    <path d="M 86.335286 272.63267 
L 86.335286 208.78543 
" clip-path="url(#p5fa8824130)" style="fill: none; stroke: #3f3f3f; stroke-width: 1.5; stroke-linecap: square"/>
   </g>
   <g id="line2d_10">
    <path d="M 86.335286 272.63267 
L 86.335286 240.70905 
" clip-path="url(#p5fa8824130)" style="fill: none; stroke: #3f3f3f; stroke-width: 4.5; stroke-linecap: square"/>
   </g>
   <g id="line2d_11">
    <path d="M 190.524609 272.63267 
L 190.524609 208.78543 
" clip-path="url(#p5fa8824130)" style="fill: none; stroke: #3f3f3f; stroke-width: 1.5; stroke-linecap: square"/>
   </g>
   <g id="line2d_12">
    <path d="M 190.524609 272.63267 
L 190.524609 240.70905 
" clip-path="url(#p5fa8824130)" style="fill: none; stroke: #3f3f3f; stroke-width: 4.5; stroke-linecap: square"/>
   </g>
   <g id="line2d_13">
    <path d="M 294.713932 272.63267 
L 294.713932 113.01457 
" clip-path="url(#p5fa8824130)" style="fill: none; stroke: #3f3f3f; stroke-width: 1.5; stroke-linecap: square"/>
   </g>
   <g id="line2d_14">
    <path d="M 294.713932 272.63267 
L 294.713932 208.78543 
" clip-path="url(#p5fa8824130)" style="fill: none; stroke: #3f3f3f; stroke-width: 4.5; stroke-linecap: square"/>
   </g>
   <g id="patch_5">
    <path d="M 34.240625 314.6 
L 34.240625 7.2 
" style="fill: none; stroke: #000000; stroke-width: 0.8; stroke-linejoin: miter; stroke-linecap: square"/>
   </g>
   <g id="patch_6">
    <path d="M 34.240625 314.6 
L 346.808594 314.6 
" style="fill: none; stroke: #000000; stroke-width: 0.8; stroke-linejoin: miter; stroke-linecap: square"/>
   </g>
   <g id="PathCollection_1">
    <defs>
     <path id="m8c94cf2730" d="M 0 1.5 
C 0.397805 1.5 0.77937 1.341951 1.06066 1.06066 
C 1.341951 0.77937 1.5 0.397805 1.5 0 
C 1.5 -0.397805 1.341951 -0.77937 1.06066 -1.06066 
C 0.77937 -1.341951 0.397805 -1.5 0 -1.5 
C -0.397805 -1.5 -0.77937 -1.341951 -1.06066 -1.06066 
C -1.341951 -0.77937 -1.5 -0.397805 -1.5 0 
C -1.5 0.397805 -1.341951 0.77937 -1.06066 1.06066 
C -0.77937 1.341951 -0.397805 1.5 0 1.5 
z
" style="stroke: #3f3f3f"/>
    </defs>
    <g clip-path="url(#p5fa8824130)">
     <use xlink:href="#m8c94cf2730" x="86.335286" y="272.63267" style="fill: #ffffff; stroke: #3f3f3f"/>
    </g>
   </g>
   <g id="PathCollection_2">
    <g clip-path="url(#p5fa8824130)">
     <use xlink:href="#m8c94cf2730" x="190.524609" y="272.63267" style="fill: #ffffff; stroke: #3f3f3f"/>
    </g>
   </g>
   <g id="PathCollection_3">
    <g clip-path="url(#p5fa8824130)">
     <use xlink:href="#m8c94cf2730" x="294.713932" y="240.70905" style="fill: #ffffff; stroke: #3f3f3f"/>
    </g>
   </g>
  </g>
  <g id="legend_1">
   <g id="text_11">
    <!-- dim -->
    <g transform="translate(363.057031 164.159375)scale(0.1 -0.1)">
     <defs>
      <path id="DejaVuSans-64" d="M 2906 2969 
L 2906 4863 
L 3481 4863 
L 3481 0 
L 2906 0 
L 2906 525 
Q 2725 213 2448 61 
Q 2172 -91 1784 -91 
Q 1150 -91 751 415 
Q 353 922 353 1747 
Q 353 2572 751 3078 
Q 1150 3584 1784 3584 
Q 2172 3584 2448 3432 
Q 2725 3281 2906 2969 
z
M 947 1747 
Q 947 1113 1208 752 
Q 1469 391 1925 391 
Q 2381 391 2643 752 
Q 2906 1113 2906 1747 
Q 2906 2381 2643 2742 
Q 2381 3103 1925 3103 
Q 1469 3103 1208 2742 
Q 947 2381 947 1747 
z
" transform="scale(0.015625)"/>
      <path id="DejaVuSans-6d" d="M 3328 2828 
Q 3544 3216 3844 3400 
Q 4144 3584 4550 3584 
Q 5097 3584 5394 3201 
Q 5691 2819 5691 2113 
L 5691 0 
L 5113 0 
L 5113 2094 
Q 5113 2597 4934 2840 
Q 4756 3084 4391 3084 
Q 3944 3084 3684 2787 
Q 3425 2491 3425 1978 
L 3425 0 
L 2847 0 
L 2847 2094 
Q 2847 2600 2669 2842 
Q 2491 3084 2119 3084 
Q 1678 3084 1418 2786 
Q 1159 2488 1159 1978 
L 1159 0 
L 581 0 
L 581 3500 
L 1159 3500 
L 1159 2956 
Q 1356 3278 1631 3431 
Q 1906 3584 2284 3584 
Q 2666 3584 2933 3390 
Q 3200 3197 3328 2828 
z
" transform="scale(0.015625)"/>
     </defs>
     <use xlink:href="#DejaVuSans-64"/>
     <use xlink:href="#DejaVuSans-69" x="63.476562"/>
     <use xlink:href="#DejaVuSans-6d" x="91.259766"/>
    </g>
   </g>
   <g id="patch_7">
    <path d="M 352.135156 178.8375 
L 372.135156 178.8375 
L 372.135156 171.8375 
L 352.135156 171.8375 
z
" style="fill: #3274a1; stroke: #3f3f3f; stroke-width: 0.75; stroke-linejoin: miter"/>
   </g>
   <g id="text_12">
    <!-- 2d -->
    <g transform="translate(380.135156 178.8375)scale(0.1 -0.1)">
     <use xlink:href="#DejaVuSans-32"/>
     <use xlink:href="#DejaVuSans-64" x="63.623047"/>
    </g>
   </g>
   <g id="patch_8">
    <path d="M 352.135156 193.515625 
L 372.135156 193.515625 
L 372.135156 186.515625 
L 352.135156 186.515625 
z
" style="fill: #e1812c; stroke: #3f3f3f; stroke-width: 0.75; stroke-linejoin: miter"/>
   </g>
   <g id="text_13">
    <!-- 3d -->
    <g transform="translate(380.135156 193.515625)scale(0.1 -0.1)">
     <defs>
      <path id="DejaVuSans-33" d="M 2597 2516 
Q 3050 2419 3304 2112 
Q 3559 1806 3559 1356 
Q 3559 666 3084 287 
Q 2609 -91 1734 -91 
Q 1441 -91 1130 -33 
Q 819 25 488 141 
L 488 750 
Q 750 597 1062 519 
Q 1375 441 1716 441 
Q 2309 441 2620 675 
Q 2931 909 2931 1356 
Q 2931 1769 2642 2001 
Q 2353 2234 1838 2234 
L 1294 2234 
L 1294 2753 
L 1863 2753 
Q 2328 2753 2575 2939 
Q 2822 3125 2822 3475 
Q 2822 3834 2567 4026 
Q 2313 4219 1838 4219 
Q 1578 4219 1281 4162 
Q 984 4106 628 3988 
L 628 4550 
Q 988 4650 1302 4700 
Q 1616 4750 1894 4750 
Q 2613 4750 3031 4423 
Q 3450 4097 3450 3541 
Q 3450 3153 3228 2886 
Q 3006 2619 2597 2516 
z
" transform="scale(0.015625)"/>
     </defs>
     <use xlink:href="#DejaVuSans-33"/>
     <use xlink:href="#DejaVuSans-64" x="63.623047"/>
    </g>
   </g>
  </g>
 </g>
 <defs>
  <clipPath id="p5fa8824130">
   <rect x="34.240625" y="7.2" width="312.567969" height="307.4"/>
  </clipPath>
 </defs>
</svg>
