<?xml version="1.0" encoding="utf-8" standalone="no"?>
<!DOCTYPE svg PUBLIC "-//W3C//DTD SVG 1.1//EN"
  "http://www.w3.org/Graphics/SVG/1.1/DTD/svg11.dtd">
<svg xmlns:xlink="http://www.w3.org/1999/xlink" width="399.470833pt" height="352.15625pt" viewBox="0 0 399.470833 352.15625" xmlns="http://www.w3.org/2000/svg" version="1.1">
 <metadata>
  <rdf:RDF xmlns:dc="http://purl.org/dc/elements/1.1/" xmlns:cc="http://creativecommons.org/ns#" xmlns:rdf="http://www.w3.org/1999/02/22-rdf-syntax-ns#">
   <cc:Work>
    <dc:type rdf:resource="http://purl.org/dc/dcmitype/StillImage"/>
    <dc:date>2022-03-25T19:30:55.054453</dc:date>
    <dc:format>image/svg+xml</dc:format>
    <dc:creator>
     <cc:Agent>
      <dc:title>Matplotlib v3.5.1, https://matplotlib.org/</dc:title>
     </cc:Agent>
    </dc:creator>
   </cc:Work>
  </rdf:RDF>
 </metadata>
 <defs>
  <style type="text/css">*{stroke-linejoin: round; stroke-linecap: butt}</style>
 </defs>
 <g id="figure_1">
  <g id="patch_1">
   <path d="M 0 352.15625 
L 399.470833 352.15625 
L 399.470833 0 
L 0 0 
L 0 352.15625 
z
" style="fill: none"/>
  </g>
  <g id="axes_1">
   <g id="patch_2">
    <path d="M 52.160938 314.6 
L 344.433333 314.6 
L 344.433333 7.2 
L 52.160938 7.2 
z
" style="fill: #ffffff"/>
   </g>
   <g id="patch_3">
    <path d="M 100.873003 249.309267 
L 100.873003 249.309267 
L 100.873003 249.309267 
L 100.873003 249.309267 
z
" clip-path="url(#p7874355f1b)" style="fill: #3274a1; stroke: #3f3f3f; stroke-width: 0.75; stroke-linejoin: miter"/>
   </g>
   <g id="PolyCollection_1">
    <defs>
     <path id="mae65f097e7" d="M 100.873003 -63.865057 
L 99.905397 -63.865057 
L 99.623895 -66.438616 
L 99.288365 -69.012176 
L 98.897451 -71.585735 
L 98.452669 -74.159295 
L 97.958997 -76.732854 
L 97.425266 -79.306414 
L 96.864279 -81.879973 
L 96.292569 -84.453532 
L 95.729778 -87.027092 
L 95.197651 -89.600651 
L 94.718704 -92.174211 
L 94.314681 -94.74777 
L 94.004923 -97.32133 
L 93.804843 -99.894889 
L 93.724652 -102.468449 
L 93.768499 -105.042008 
L 93.934112 -107.615568 
L 94.212994 -110.189127 
L 94.591147 -112.762686 
L 95.050234 -115.336246 
L 95.569051 -117.909805 
L 96.125142 -120.483365 
L 96.696384 -123.056924 
L 97.262396 -125.630484 
L 97.805649 -128.204043 
L 98.312201 -130.777603 
L 98.772049 -133.351162 
L 99.179112 -135.924722 
L 99.530909 -138.498281 
L 99.828021 -141.071841 
L 100.073421 -143.6454 
L 100.271766 -146.218959 
L 100.428723 -148.792519 
L 100.550379 -151.366078 
L 100.642772 -153.939638 
L 100.711545 -156.513197 
L 100.761731 -159.086757 
L 100.797643 -161.660316 
L 100.822847 -164.233876 
L 100.840197 -166.807435 
L 100.851915 -169.380995 
L 100.859677 -171.954554 
L 100.864719 -174.528114 
L 100.867926 -177.101673 
L 100.869911 -179.675232 
L 100.871086 -182.248792 
L 100.87171 -184.822351 
L 100.871923 -187.395911 
L 100.87176 -189.96947 
L 100.871156 -192.54303 
L 100.869924 -195.116589 
L 100.86771 -197.690149 
L 100.863923 -200.263708 
L 100.85762 -202.837268 
L 100.847357 -205.410827 
L 100.830968 -207.984386 
L 100.805287 -210.557946 
L 100.765797 -213.131505 
L 100.706209 -215.705065 
L 100.617986 -218.278624 
L 100.489836 -220.852184 
L 100.30724 -223.425743 
L 100.052066 -225.999303 
L 99.70239 -228.572862 
L 99.232619 -231.146422 
L 98.614057 -233.719981 
L 97.816008 -236.293541 
L 96.807521 -238.8671 
L 95.559783 -241.440659 
L 94.049114 -244.014219 
L 92.260398 -246.587778 
L 90.190684 -249.161338 
L 87.852584 -251.734897 
L 85.277018 -254.308457 
L 82.514846 -256.882016 
L 79.636951 -259.455576 
L 76.732467 -262.029135 
L 73.905021 -264.602695 
L 71.267092 -267.176254 
L 68.932861 -269.749814 
L 67.01014 -272.323373 
L 65.592161 -274.896932 
L 64.750102 -277.470492 
L 64.527161 -280.044051 
L 64.934889 -282.617611 
L 65.952198 -285.19117 
L 67.527165 -287.76473 
L 69.581425 -290.338289 
L 72.016632 -292.911849 
L 74.722239 -295.485408 
L 77.583754 -298.058968 
L 80.490617 -300.632527 
L 83.34296 -303.206086 
L 86.056717 -305.779646 
L 88.566798 -308.353205 
L 90.828293 -310.926765 
L 92.815898 -313.500324 
L 94.5219 -316.073884 
L 95.953201 -318.647443 
L 100.873003 -318.647443 
L 100.873003 -318.647443 
L 100.873003 -316.073884 
L 100.873003 -313.500324 
L 100.873003 -310.926765 
L 100.873003 -308.353205 
L 100.873003 -305.779646 
L 100.873003 -303.206086 
L 100.873003 -300.632527 
L 100.873003 -298.058968 
L 100.873003 -295.485408 
L 100.873003 -292.911849 
L 100.873003 -290.338289 
L 100.873003 -287.76473 
L 100.873003 -285.19117 
L 100.873003 -282.617611 
L 100.873003 -280.044051 
L 100.873003 -277.470492 
L 100.873003 -274.896932 
L 100.873003 -272.323373 
L 100.873003 -269.749814 
L 100.873003 -267.176254 
L 100.873003 -264.602695 
L 100.873003 -262.029135 
L 100.873003 -259.455576 
L 100.873003 -256.882016 
L 100.873003 -254.308457 
L 100.873003 -251.734897 
L 100.873003 -249.161338 
L 100.873003 -246.587778 
L 100.873003 -244.014219 
L 100.873003 -241.440659 
L 100.873003 -238.8671 
L 100.873003 -236.293541 
L 100.873003 -233.719981 
L 100.873003 -231.146422 
L 100.873003 -228.572862 
L 100.873003 -225.999303 
L 100.873003 -223.425743 
L 100.873003 -220.852184 
L 100.873003 -218.278624 
L 100.873003 -215.705065 
L 100.873003 -213.131505 
L 100.873003 -210.557946 
L 100.873003 -207.984386 
L 100.873003 -205.410827 
L 100.873003 -202.837268 
L 100.873003 -200.263708 
L 100.873003 -197.690149 
L 100.873003 -195.116589 
L 100.873003 -192.54303 
L 100.873003 -189.96947 
L 100.873003 -187.395911 
L 100.873003 -184.822351 
L 100.873003 -182.248792 
L 100.873003 -179.675232 
L 100.873003 -177.101673 
L 100.873003 -174.528114 
L 100.873003 -171.954554 
L 100.873003 -169.380995 
L 100.873003 -166.807435 
L 100.873003 -164.233876 
L 100.873003 -161.660316 
L 100.873003 -159.086757 
L 100.873003 -156.513197 
L 100.873003 -153.939638 
L 100.873003 -151.366078 
L 100.873003 -148.792519 
L 100.873003 -146.218959 
L 100.873003 -143.6454 
L 100.873003 -141.071841 
L 100.873003 -138.498281 
L 100.873003 -135.924722 
L 100.873003 -133.351162 
L 100.873003 -130.777603 
L 100.873003 -128.204043 
L 100.873003 -125.630484 
L 100.873003 -123.056924 
L 100.873003 -120.483365 
L 100.873003 -117.909805 
L 100.873003 -115.336246 
L 100.873003 -112.762686 
L 100.873003 -110.189127 
L 100.873003 -107.615568 
L 100.873003 -105.042008 
L 100.873003 -102.468449 
L 100.873003 -99.894889 
L 100.873003 -97.32133 
L 100.873003 -94.74777 
L 100.873003 -92.174211 
L 100.873003 -89.600651 
L 100.873003 -87.027092 
L 100.873003 -84.453532 
L 100.873003 -81.879973 
L 100.873003 -79.306414 
L 100.873003 -76.732854 
L 100.873003 -74.159295 
L 100.873003 -71.585735 
L 100.873003 -69.012176 
L 100.873003 -66.438616 
L 100.873003 -63.865057 
z
" style="stroke: #3f3f3f; stroke-width: 1.5"/>
    </defs>
    <g clip-path="url(#p7874355f1b)">
     <use xlink:href="#mae65f097e7" x="0" y="352.15625" style="fill: #3274a1; stroke: #3f3f3f; stroke-width: 1.5"/>
    </g>
   </g>
   <g id="patch_4">
    <path d="M 100.873003 249.309267 
L 100.873003 249.309267 
L 100.873003 249.309267 
L 100.873003 249.309267 
z
" clip-path="url(#p7874355f1b)" style="fill: #e1812c; stroke: #3f3f3f; stroke-width: 0.75; stroke-linejoin: miter"/>
   </g>
   <g id="PolyCollection_2">
    <defs>
     <path id="mc4270ef049" d="M 101.774534 -65.722195 
L 100.873003 -65.722195 
L 100.873003 -68.258237 
L 100.873003 -70.794278 
L 100.873003 -73.33032 
L 100.873003 -75.866361 
L 100.873003 -78.402403 
L 100.873003 -80.938444 
L 100.873003 -83.474486 
L 100.873003 -86.010527 
L 100.873003 -88.546569 
L 100.873003 -91.08261 
L 100.873003 -93.618652 
L 100.873003 -96.154693 
L 100.873003 -98.690735 
L 100.873003 -101.226776 
L 100.873003 -103.762818 
L 100.873003 -106.29886 
L 100.873003 -108.834901 
L 100.873003 -111.370943 
L 100.873003 -113.906984 
L 100.873003 -116.443026 
L 100.873003 -118.979067 
L 100.873003 -121.515109 
L 100.873003 -124.05115 
L 100.873003 -126.587192 
L 100.873003 -129.123233 
L 100.873003 -131.659275 
L 100.873003 -134.195316 
L 100.873003 -136.731358 
L 100.873003 -139.267399 
L 100.873003 -141.803441 
L 100.873003 -144.339482 
L 100.873003 -146.875524 
L 100.873003 -149.411565 
L 100.873003 -151.947607 
L 100.873003 -154.483648 
L 100.873003 -157.01969 
L 100.873003 -159.555731 
L 100.873003 -162.091773 
L 100.873003 -164.627814 
L 100.873003 -167.163856 
L 100.873003 -169.699897 
L 100.873003 -172.235939 
L 100.873003 -174.77198 
L 100.873003 -177.308022 
L 100.873003 -179.844063 
L 100.873003 -182.380105 
L 100.873003 -184.916146 
L 100.873003 -187.452188 
L 100.873003 -189.988229 
L 100.873003 -192.524271 
L 100.873003 -195.060312 
L 100.873003 -197.596354 
L 100.873003 -200.132395 
L 100.873003 -202.668437 
L 100.873003 -205.204478 
L 100.873003 -207.74052 
L 100.873003 -210.276561 
L 100.873003 -212.812603 
L 100.873003 -215.348644 
L 100.873003 -217.884686 
L 100.873003 -220.420727 
L 100.873003 -222.956769 
L 100.873003 -225.49281 
L 100.873003 -228.028852 
L 100.873003 -230.564893 
L 100.873003 -233.100935 
L 100.873003 -235.636976 
L 100.873003 -238.173018 
L 100.873003 -240.709059 
L 100.873003 -243.245101 
L 100.873003 -245.781142 
L 100.873003 -248.317184 
L 100.873003 -250.853225 
L 100.873003 -253.389267 
L 100.873003 -255.925308 
L 100.873003 -258.46135 
L 100.873003 -260.997391 
L 100.873003 -263.533433 
L 100.873003 -266.069474 
L 100.873003 -268.605516 
L 100.873003 -271.141557 
L 100.873003 -273.677599 
L 100.873003 -276.21364 
L 100.873003 -278.749682 
L 100.873003 -281.285724 
L 100.873003 -283.821765 
L 100.873003 -286.357807 
L 100.873003 -288.893848 
L 100.873003 -291.42989 
L 100.873003 -293.965931 
L 100.873003 -296.501973 
L 100.873003 -299.038014 
L 100.873003 -301.574056 
L 100.873003 -304.110097 
L 100.873003 -306.646139 
L 100.873003 -309.18218 
L 100.873003 -311.718222 
L 100.873003 -314.254263 
L 100.873003 -316.790305 
L 106.153395 -316.790305 
L 106.153395 -316.790305 
L 107.748147 -314.254263 
L 109.658999 -311.718222 
L 111.893313 -309.18218 
L 114.440201 -306.646139 
L 117.266821 -304.110097 
L 120.316019 -301.574056 
L 123.505931 -299.038014 
L 126.731986 -296.501973 
L 129.871515 -293.965931 
L 132.790848 -291.42989 
L 135.354412 -288.893848 
L 137.435009 -286.357807 
L 138.924225 -283.821765 
L 139.741772 -281.285724 
L 139.842656 -278.749682 
L 139.221282 -276.21364 
L 137.911964 -273.677599 
L 135.98579 -271.141557 
L 133.544225 -268.605516 
L 130.71027 -266.069474 
L 127.61823 -263.533433 
L 124.403284 -260.997391 
L 121.191965 -258.46135 
L 118.094444 -255.925308 
L 115.199205 -253.389267 
L 112.570319 -250.853225 
L 110.247219 -248.317184 
L 108.246564 -245.781142 
L 106.565636 -243.245101 
L 105.186631 -240.709059 
L 104.081235 -238.173018 
L 103.214979 -235.636976 
L 102.551006 -233.100935 
L 102.053042 -230.564893 
L 101.687508 -228.028852 
L 101.424807 -225.49281 
L 101.239922 -222.956769 
L 101.112471 -220.420727 
L 101.026401 -217.884686 
L 100.96945 -215.348644 
L 100.932521 -212.812603 
L 100.909053 -210.276561 
L 100.894435 -207.74052 
L 100.88551 -205.204478 
L 100.880169 -202.668437 
L 100.877036 -200.132395 
L 100.875239 -197.596354 
L 100.874235 -195.060312 
L 100.8737 -192.524271 
L 100.873446 -189.988229 
L 100.87338 -187.452188 
L 100.873468 -184.916146 
L 100.873733 -182.380105 
L 100.874247 -179.844063 
L 100.875148 -177.308022 
L 100.876667 -174.77198 
L 100.87916 -172.235939 
L 100.883166 -169.699897 
L 100.88947 -167.163856 
L 100.899194 -164.627814 
L 100.913888 -162.091773 
L 100.935648 -159.555731 
L 100.967214 -157.01969 
L 101.012065 -154.483648 
L 101.074474 -151.947607 
L 101.159492 -149.411565 
L 101.272853 -146.875524 
L 101.42075 -144.339482 
L 101.609476 -141.803441 
L 101.844916 -139.267399 
L 102.131904 -136.731358 
L 102.473479 -134.195316 
L 102.870106 -131.659275 
L 103.31894 -129.123233 
L 103.813249 -126.587192 
L 104.342094 -124.05115 
L 104.890368 -121.515109 
L 105.439262 -118.979067 
L 105.967171 -116.443026 
L 106.451017 -113.906984 
L 106.867869 -111.370943 
L 107.196728 -108.834901 
L 107.420271 -106.29886 
L 107.526359 -103.762818 
L 107.509135 -101.226776 
L 107.369553 -98.690735 
L 107.115297 -96.154693 
L 106.760073 -93.618652 
L 106.322392 -91.08261 
L 105.823969 -88.546569 
L 105.287952 -86.010527 
L 104.737162 -83.474486 
L 104.192543 -80.938444 
L 103.671948 -78.402403 
L 103.189354 -75.866361 
L 102.75452 -73.33032 
L 102.373052 -70.794278 
L 102.046809 -68.258237 
L 101.774534 -65.722195 
z
" style="stroke: #3f3f3f; stroke-width: 1.5"/>
    </defs>
    <g clip-path="url(#p7874355f1b)">
     <use xlink:href="#mc4270ef049" x="0" y="352.15625" style="fill: #e1812c; stroke: #3f3f3f; stroke-width: 1.5"/>
    </g>
   </g>
   <g id="PolyCollection_3">
    <defs>
     <path id="m32a6d6abd3" d="M 198.297135 -63.645904 
L 197.585404 -63.645904 
L 197.379221 -66.223891 
L 197.133612 -68.801878 
L 196.847579 -71.379865 
L 196.522202 -73.957851 
L 196.161062 -76.535838 
L 195.770531 -79.113825 
L 195.359854 -81.691812 
L 194.94099 -84.269798 
L 194.528161 -86.847785 
L 194.137142 -89.425772 
L 193.784304 -92.003759 
L 193.485501 -94.581746 
L 193.254898 -97.159732 
L 193.103865 -99.737719 
L 193.040042 -102.315706 
L 193.066704 -104.893693 
L 193.18248 -107.47168 
L 193.38147 -110.049666 
L 193.653743 -112.627653 
L 193.986161 -115.20564 
L 194.363423 -117.783627 
L 194.769231 -120.361613 
L 195.187439 -122.9396 
L 195.603081 -125.517587 
L 196.003197 -128.095574 
L 196.377387 -130.673561 
L 196.718093 -133.251547 
L 197.020607 -135.829534 
L 197.282864 -138.407521 
L 197.505063 -140.985508 
L 197.689193 -143.563495 
L 197.838521 -146.141481 
L 197.957104 -148.719468 
L 198.049349 -151.297455 
L 198.119666 -153.875442 
L 198.172208 -156.453428 
L 198.210703 -159.031415 
L 198.238361 -161.609402 
L 198.257854 -164.187389 
L 198.271331 -166.765376 
L 198.280474 -169.343362 
L 198.286558 -171.921349 
L 198.290529 -174.499336 
L 198.293065 -177.077323 
L 198.294643 -179.655309 
L 198.295581 -182.233296 
L 198.296081 -184.811283 
L 198.296251 -187.38927 
L 198.296121 -189.967257 
L 198.295638 -192.545243 
L 198.294656 -195.12323 
L 198.292898 -197.701217 
L 198.289906 -200.279204 
L 198.284952 -202.857191 
L 198.276926 -205.435177 
L 198.264172 -208.013164 
L 198.244283 -210.591151 
L 198.213844 -213.169138 
L 198.168123 -215.747124 
L 198.100732 -218.325111 
L 198.003266 -220.903098 
L 197.864972 -223.481085 
L 197.672499 -226.059072 
L 197.409787 -228.637058 
L 197.058201 -231.215045 
L 196.596977 -233.793032 
L 196.004065 -236.371019 
L 195.257423 -238.949005 
L 194.336775 -241.526992 
L 193.22578 -244.104979 
L 191.914495 -246.682966 
L 190.401924 -249.260953 
L 188.698395 -251.838939 
L 186.827442 -254.416926 
L 184.826862 -256.994913 
L 182.748651 -259.5729 
L 180.657614 -262.150887 
L 178.628574 -264.728873 
L 176.742263 -267.30686 
L 175.080174 -269.884847 
L 173.718806 -272.462834 
L 172.723856 -275.04082 
L 172.144977 -277.618807 
L 172.011667 -280.196794 
L 172.330781 -282.774781 
L 173.085949 -285.352768 
L 174.238961 -287.930754 
L 175.732978 -290.508741 
L 177.497169 -293.086728 
L 179.452263 -295.664715 
L 181.516406 -298.242702 
L 183.610729 -300.820688 
L 185.664112 -303.398675 
L 187.616769 -305.976662 
L 189.422469 -308.554649 
L 191.049355 -311.132635 
L 192.47952 -313.710622 
L 193.707564 -316.288609 
L 194.738477 -318.866596 
L 198.297135 -318.866596 
L 198.297135 -318.866596 
L 198.297135 -316.288609 
L 198.297135 -313.710622 
L 198.297135 -311.132635 
L 198.297135 -308.554649 
L 198.297135 -305.976662 
L 198.297135 -303.398675 
L 198.297135 -300.820688 
L 198.297135 -298.242702 
L 198.297135 -295.664715 
L 198.297135 -293.086728 
L 198.297135 -290.508741 
L 198.297135 -287.930754 
L 198.297135 -285.352768 
L 198.297135 -282.774781 
L 198.297135 -280.196794 
L 198.297135 -277.618807 
L 198.297135 -275.04082 
L 198.297135 -272.462834 
L 198.297135 -269.884847 
L 198.297135 -267.30686 
L 198.297135 -264.728873 
L 198.297135 -262.150887 
L 198.297135 -259.5729 
L 198.297135 -256.994913 
L 198.297135 -254.416926 
L 198.297135 -251.838939 
L 198.297135 -249.260953 
L 198.297135 -246.682966 
L 198.297135 -244.104979 
L 198.297135 -241.526992 
L 198.297135 -238.949005 
L 198.297135 -236.371019 
L 198.297135 -233.793032 
L 198.297135 -231.215045 
L 198.297135 -228.637058 
L 198.297135 -226.059072 
L 198.297135 -223.481085 
L 198.297135 -220.903098 
L 198.297135 -218.325111 
L 198.297135 -215.747124 
L 198.297135 -213.169138 
L 198.297135 -210.591151 
L 198.297135 -208.013164 
L 198.297135 -205.435177 
L 198.297135 -202.857191 
L 198.297135 -200.279204 
L 198.297135 -197.701217 
L 198.297135 -195.12323 
L 198.297135 -192.545243 
L 198.297135 -189.967257 
L 198.297135 -187.38927 
L 198.297135 -184.811283 
L 198.297135 -182.233296 
L 198.297135 -179.655309 
L 198.297135 -177.077323 
L 198.297135 -174.499336 
L 198.297135 -171.921349 
L 198.297135 -169.343362 
L 198.297135 -166.765376 
L 198.297135 -164.187389 
L 198.297135 -161.609402 
L 198.297135 -159.031415 
L 198.297135 -156.453428 
L 198.297135 -153.875442 
L 198.297135 -151.297455 
L 198.297135 -148.719468 
L 198.297135 -146.141481 
L 198.297135 -143.563495 
L 198.297135 -140.985508 
L 198.297135 -138.407521 
L 198.297135 -135.829534 
L 198.297135 -133.251547 
L 198.297135 -130.673561 
L 198.297135 -128.095574 
L 198.297135 -125.517587 
L 198.297135 -122.9396 
L 198.297135 -120.361613 
L 198.297135 -117.783627 
L 198.297135 -115.20564 
L 198.297135 -112.627653 
L 198.297135 -110.049666 
L 198.297135 -107.47168 
L 198.297135 -104.893693 
L 198.297135 -102.315706 
L 198.297135 -99.737719 
L 198.297135 -97.159732 
L 198.297135 -94.581746 
L 198.297135 -92.003759 
L 198.297135 -89.425772 
L 198.297135 -86.847785 
L 198.297135 -84.269798 
L 198.297135 -81.691812 
L 198.297135 -79.113825 
L 198.297135 -76.535838 
L 198.297135 -73.957851 
L 198.297135 -71.379865 
L 198.297135 -68.801878 
L 198.297135 -66.223891 
L 198.297135 -63.645904 
z
" style="stroke: #3f3f3f; stroke-width: 1.5"/>
    </defs>
    <g clip-path="url(#p7874355f1b)">
     <use xlink:href="#m32a6d6abd3" x="0" y="352.15625" style="fill: #3274a1; stroke: #3f3f3f; stroke-width: 1.5"/>
    </g>
   </g>
   <g id="PolyCollection_4">
    <defs>
     <path id="m4716fc97d7" d="M 198.776985 -73.774685 
L 198.297135 -73.774685 
L 198.297135 -76.14805 
L 198.297135 -78.521415 
L 198.297135 -80.89478 
L 198.297135 -83.268145 
L 198.297135 -85.64151 
L 198.297135 -88.014875 
L 198.297135 -90.38824 
L 198.297135 -92.761605 
L 198.297135 -95.134969 
L 198.297135 -97.508334 
L 198.297135 -99.881699 
L 198.297135 -102.255064 
L 198.297135 -104.628429 
L 198.297135 -107.001794 
L 198.297135 -109.375159 
L 198.297135 -111.748524 
L 198.297135 -114.121889 
L 198.297135 -116.495254 
L 198.297135 -118.868619 
L 198.297135 -121.241984 
L 198.297135 -123.615349 
L 198.297135 -125.988714 
L 198.297135 -128.362079 
L 198.297135 -130.735444 
L 198.297135 -133.108809 
L 198.297135 -135.482174 
L 198.297135 -137.855539 
L 198.297135 -140.228904 
L 198.297135 -142.602269 
L 198.297135 -144.975633 
L 198.297135 -147.348998 
L 198.297135 -149.722363 
L 198.297135 -152.095728 
L 198.297135 -154.469093 
L 198.297135 -156.842458 
L 198.297135 -159.215823 
L 198.297135 -161.589188 
L 198.297135 -163.962553 
L 198.297135 -166.335918 
L 198.297135 -168.709283 
L 198.297135 -171.082648 
L 198.297135 -173.456013 
L 198.297135 -175.829378 
L 198.297135 -178.202743 
L 198.297135 -180.576108 
L 198.297135 -182.949473 
L 198.297135 -185.322838 
L 198.297135 -187.696203 
L 198.297135 -190.069568 
L 198.297135 -192.442932 
L 198.297135 -194.816297 
L 198.297135 -197.189662 
L 198.297135 -199.563027 
L 198.297135 -201.936392 
L 198.297135 -204.309757 
L 198.297135 -206.683122 
L 198.297135 -209.056487 
L 198.297135 -211.429852 
L 198.297135 -213.803217 
L 198.297135 -216.176582 
L 198.297135 -218.549947 
L 198.297135 -220.923312 
L 198.297135 -223.296677 
L 198.297135 -225.670042 
L 198.297135 -228.043407 
L 198.297135 -230.416772 
L 198.297135 -232.790137 
L 198.297135 -235.163502 
L 198.297135 -237.536867 
L 198.297135 -239.910231 
L 198.297135 -242.283596 
L 198.297135 -244.656961 
L 198.297135 -247.030326 
L 198.297135 -249.403691 
L 198.297135 -251.777056 
L 198.297135 -254.150421 
L 198.297135 -256.523786 
L 198.297135 -258.897151 
L 198.297135 -261.270516 
L 198.297135 -263.643881 
L 198.297135 -266.017246 
L 198.297135 -268.390611 
L 198.297135 -270.763976 
L 198.297135 -273.137341 
L 198.297135 -275.510706 
L 198.297135 -277.884071 
L 198.297135 -280.257436 
L 198.297135 -282.630801 
L 198.297135 -285.004166 
L 198.297135 -287.377531 
L 198.297135 -289.750895 
L 198.297135 -292.12426 
L 198.297135 -294.497625 
L 198.297135 -296.87099 
L 198.297135 -299.244355 
L 198.297135 -301.61772 
L 198.297135 -303.991085 
L 198.297135 -306.36445 
L 198.297135 -308.737815 
L 203.575479 -308.737815 
L 203.575479 -308.737815 
L 205.516954 -306.36445 
L 207.912758 -303.991085 
L 210.766693 -301.61772 
L 214.0423 -299.244355 
L 217.655374 -296.87099 
L 221.471456 -294.497625 
L 225.310002 -292.12426 
L 228.956054 -289.750895 
L 232.178859 -287.377531 
L 234.755457 -285.004166 
L 236.495991 -282.630801 
L 237.266788 -280.257436 
L 237.007318 -277.884071 
L 235.738047 -275.510706 
L 233.557769 -273.137341 
L 230.630903 -270.763976 
L 227.167018 -268.390611 
L 223.396125 -266.017246 
L 219.54376 -263.643881 
L 215.809555 -261.270516 
L 212.351942 -258.897151 
L 209.280265 -256.523786 
L 206.654125 -254.150421 
L 204.488638 -251.777056 
L 202.76361 -249.403691 
L 201.434436 -247.030326 
L 200.442839 -244.656961 
L 199.726049 -242.283596 
L 199.223677 -239.910231 
L 198.882122 -237.536867 
L 198.65676 -235.163502 
L 198.512402 -232.790137 
L 198.422601 -230.416772 
L 198.368338 -228.043407 
L 198.33648 -225.670042 
L 198.318305 -223.296677 
L 198.308226 -220.923312 
L 198.302793 -218.549947 
L 198.299945 -216.176582 
L 198.298494 -213.803217 
L 198.297775 -211.429852 
L 198.297429 -209.056487 
L 198.297266 -206.683122 
L 198.297192 -204.309757 
L 198.29716 -201.936392 
L 198.297145 -199.563027 
L 198.297139 -197.189662 
L 198.297137 -194.816297 
L 198.297136 -192.442932 
L 198.297136 -190.069568 
L 198.297136 -187.696203 
L 198.297136 -185.322838 
L 198.297136 -182.949473 
L 198.297138 -180.576108 
L 198.297141 -178.202743 
L 198.297147 -175.829378 
L 198.297162 -173.456013 
L 198.297194 -171.082648 
L 198.297259 -168.709283 
L 198.297391 -166.335918 
L 198.29765 -163.962553 
L 198.298144 -161.589188 
L 198.29906 -159.215823 
L 198.300712 -156.842458 
L 198.303608 -154.469093 
L 198.308541 -152.095728 
L 198.316705 -149.722363 
L 198.329829 -147.348998 
L 198.350316 -144.975633 
L 198.381366 -142.602269 
L 198.427037 -140.228904 
L 198.492199 -137.855539 
L 198.582345 -135.482174 
L 198.703179 -133.108809 
L 198.859999 -130.735444 
L 199.056862 -128.362079 
L 199.295602 -125.988714 
L 199.574845 -123.615349 
L 199.889174 -121.241984 
L 200.228647 -118.868619 
L 200.578862 -116.495254 
L 200.92167 -114.121889 
L 201.236569 -111.748524 
L 201.502648 -109.375159 
L 201.700855 -107.001794 
L 201.816243 -104.628429 
L 201.839831 -102.255064 
L 201.769759 -99.881699 
L 201.611528 -97.508334 
L 201.377292 -95.134969 
L 201.08431 -92.761605 
L 200.752851 -90.38824 
L 200.403892 -88.014875 
L 200.056975 -85.64151 
L 199.728514 -83.268145 
L 199.430732 -80.89478 
L 199.171283 -78.521415 
L 198.953483 -76.14805 
L 198.776985 -73.774685 
z
" style="stroke: #3f3f3f; stroke-width: 1.5"/>
    </defs>
    <g clip-path="url(#p7874355f1b)">
     <use xlink:href="#m4716fc97d7" x="0" y="352.15625" style="fill: #e1812c; stroke: #3f3f3f; stroke-width: 1.5"/>
    </g>
   </g>
   <g id="PolyCollection_5">
    <defs>
     <path id="m0053735068" d="M 295.721267 -51.528977 
L 294.532404 -51.528977 
L 294.248757 -54.35175 
L 293.919376 -57.174524 
L 293.54284 -59.997297 
L 293.119303 -62.82007 
L 292.650806 -65.642843 
L 292.141541 -68.465616 
L 291.598013 -71.28839 
L 291.029091 -74.111163 
L 290.445902 -76.933936 
L 289.861576 -79.756709 
L 289.290823 -82.579482 
L 288.749368 -85.402256 
L 288.253251 -88.225029 
L 287.818059 -91.047802 
L 287.458119 -93.870575 
L 287.185715 -96.693348 
L 287.010393 -99.516121 
L 286.938411 -102.338895 
L 286.972359 -105.161668 
L 287.111015 -107.984441 
L 287.349408 -110.807214 
L 287.679122 -113.629987 
L 288.088783 -116.452761 
L 288.564714 -119.275534 
L 289.09169 -122.098307 
L 289.653739 -124.92108 
L 290.23494 -127.743853 
L 290.820143 -130.566626 
L 291.395594 -133.3894 
L 291.949405 -136.212173 
L 292.471875 -139.034946 
L 292.955644 -141.857719 
L 293.3957 -144.680492 
L 293.789248 -147.503266 
L 294.135487 -150.326039 
L 294.435299 -153.148812 
L 294.690917 -155.971585 
L 294.905558 -158.794358 
L 295.083094 -161.617132 
L 295.227731 -164.439905 
L 295.343747 -167.262678 
L 295.435272 -170.085451 
L 295.506114 -172.908224 
L 295.559635 -175.730997 
L 295.59866 -178.553771 
L 295.625409 -181.376544 
L 295.641455 -184.199317 
L 295.647681 -187.02209 
L 295.644235 -189.844863 
L 295.630485 -192.667637 
L 295.60495 -195.49041 
L 295.565234 -198.313183 
L 295.507935 -201.135956 
L 295.428571 -203.958729 
L 295.321503 -206.781503 
L 295.179894 -209.604276 
L 294.995712 -212.427049 
L 294.7598 -215.249822 
L 294.462037 -218.072595 
L 294.091611 -220.895368 
L 293.637415 -223.718142 
L 293.088586 -226.540915 
L 292.43516 -229.363688 
L 291.668864 -232.186461 
L 290.783969 -235.009234 
L 289.778197 -237.832008 
L 288.65359 -240.654781 
L 287.41728 -243.477554 
L 286.082072 -246.300327 
L 284.666774 -249.1231 
L 283.196175 -251.945874 
L 281.700653 -254.768647 
L 280.215363 -257.59142 
L 278.779014 -260.414193 
L 277.432299 -263.236966 
L 276.21603 -266.059739 
L 275.169118 -268.882513 
L 274.326516 -271.705286 
L 273.717288 -274.528059 
L 273.362946 -277.350832 
L 273.276189 -280.173605 
L 273.460145 -282.996379 
L 273.908188 -285.819152 
L 274.604333 -288.641925 
L 275.52418 -291.464698 
L 276.636336 -294.287471 
L 277.904191 -297.110244 
L 279.287911 -299.933018 
L 280.7465 -302.755791 
L 282.239777 -305.578564 
L 283.73015 -308.401337 
L 285.184062 -311.22411 
L 286.573077 -314.046884 
L 287.874534 -316.869657 
L 289.071804 -319.69243 
L 290.154176 -322.515203 
L 291.116433 -325.337976 
L 291.958186 -328.16075 
L 292.683061 -330.983523 
L 295.721267 -330.983523 
L 295.721267 -330.983523 
L 295.721267 -328.16075 
L 295.721267 -325.337976 
L 295.721267 -322.515203 
L 295.721267 -319.69243 
L 295.721267 -316.869657 
L 295.721267 -314.046884 
L 295.721267 -311.22411 
L 295.721267 -308.401337 
L 295.721267 -305.578564 
L 295.721267 -302.755791 
L 295.721267 -299.933018 
L 295.721267 -297.110244 
L 295.721267 -294.287471 
L 295.721267 -291.464698 
L 295.721267 -288.641925 
L 295.721267 -285.819152 
L 295.721267 -282.996379 
L 295.721267 -280.173605 
L 295.721267 -277.350832 
L 295.721267 -274.528059 
L 295.721267 -271.705286 
L 295.721267 -268.882513 
L 295.721267 -266.059739 
L 295.721267 -263.236966 
L 295.721267 -260.414193 
L 295.721267 -257.59142 
L 295.721267 -254.768647 
L 295.721267 -251.945874 
L 295.721267 -249.1231 
L 295.721267 -246.300327 
L 295.721267 -243.477554 
L 295.721267 -240.654781 
L 295.721267 -237.832008 
L 295.721267 -235.009234 
L 295.721267 -232.186461 
L 295.721267 -229.363688 
L 295.721267 -226.540915 
L 295.721267 -223.718142 
L 295.721267 -220.895368 
L 295.721267 -218.072595 
L 295.721267 -215.249822 
L 295.721267 -212.427049 
L 295.721267 -209.604276 
L 295.721267 -206.781503 
L 295.721267 -203.958729 
L 295.721267 -201.135956 
L 295.721267 -198.313183 
L 295.721267 -195.49041 
L 295.721267 -192.667637 
L 295.721267 -189.844863 
L 295.721267 -187.02209 
L 295.721267 -184.199317 
L 295.721267 -181.376544 
L 295.721267 -178.553771 
L 295.721267 -175.730997 
L 295.721267 -172.908224 
L 295.721267 -170.085451 
L 295.721267 -167.262678 
L 295.721267 -164.439905 
L 295.721267 -161.617132 
L 295.721267 -158.794358 
L 295.721267 -155.971585 
L 295.721267 -153.148812 
L 295.721267 -150.326039 
L 295.721267 -147.503266 
L 295.721267 -144.680492 
L 295.721267 -141.857719 
L 295.721267 -139.034946 
L 295.721267 -136.212173 
L 295.721267 -133.3894 
L 295.721267 -130.566626 
L 295.721267 -127.743853 
L 295.721267 -124.92108 
L 295.721267 -122.098307 
L 295.721267 -119.275534 
L 295.721267 -116.452761 
L 295.721267 -113.629987 
L 295.721267 -110.807214 
L 295.721267 -107.984441 
L 295.721267 -105.161668 
L 295.721267 -102.338895 
L 295.721267 -99.516121 
L 295.721267 -96.693348 
L 295.721267 -93.870575 
L 295.721267 -91.047802 
L 295.721267 -88.225029 
L 295.721267 -85.402256 
L 295.721267 -82.579482 
L 295.721267 -79.756709 
L 295.721267 -76.933936 
L 295.721267 -74.111163 
L 295.721267 -71.28839 
L 295.721267 -68.465616 
L 295.721267 -65.642843 
L 295.721267 -62.82007 
L 295.721267 -59.997297 
L 295.721267 -57.174524 
L 295.721267 -54.35175 
L 295.721267 -51.528977 
z
" style="stroke: #3f3f3f; stroke-width: 1.5"/>
    </defs>
    <g clip-path="url(#p7874355f1b)">
     <use xlink:href="#m0053735068" x="0" y="352.15625" style="fill: #3274a1; stroke: #3f3f3f; stroke-width: 1.5"/>
    </g>
   </g>
   <g id="PolyCollection_6">
    <defs>
     <path id="m574d04384a" d="M 296.404961 -66.491565 
L 295.721267 -66.491565 
L 295.721267 -69.012063 
L 295.721267 -71.532562 
L 295.721267 -74.053061 
L 295.721267 -76.573559 
L 295.721267 -79.094058 
L 295.721267 -81.614557 
L 295.721267 -84.135055 
L 295.721267 -86.655554 
L 295.721267 -89.176053 
L 295.721267 -91.696551 
L 295.721267 -94.21705 
L 295.721267 -96.737549 
L 295.721267 -99.258048 
L 295.721267 -101.778546 
L 295.721267 -104.299045 
L 295.721267 -106.819544 
L 295.721267 -109.340042 
L 295.721267 -111.860541 
L 295.721267 -114.38104 
L 295.721267 -116.901538 
L 295.721267 -119.422037 
L 295.721267 -121.942536 
L 295.721267 -124.463035 
L 295.721267 -126.983533 
L 295.721267 -129.504032 
L 295.721267 -132.024531 
L 295.721267 -134.545029 
L 295.721267 -137.065528 
L 295.721267 -139.586027 
L 295.721267 -142.106525 
L 295.721267 -144.627024 
L 295.721267 -147.147523 
L 295.721267 -149.668022 
L 295.721267 -152.18852 
L 295.721267 -154.709019 
L 295.721267 -157.229518 
L 295.721267 -159.750016 
L 295.721267 -162.270515 
L 295.721267 -164.791014 
L 295.721267 -167.311512 
L 295.721267 -169.832011 
L 295.721267 -172.35251 
L 295.721267 -174.873008 
L 295.721267 -177.393507 
L 295.721267 -179.914006 
L 295.721267 -182.434505 
L 295.721267 -184.955003 
L 295.721267 -187.475502 
L 295.721267 -189.996001 
L 295.721267 -192.516499 
L 295.721267 -195.036998 
L 295.721267 -197.557497 
L 295.721267 -200.077995 
L 295.721267 -202.598494 
L 295.721267 -205.118993 
L 295.721267 -207.639492 
L 295.721267 -210.15999 
L 295.721267 -212.680489 
L 295.721267 -215.200988 
L 295.721267 -217.721486 
L 295.721267 -220.241985 
L 295.721267 -222.762484 
L 295.721267 -225.282982 
L 295.721267 -227.803481 
L 295.721267 -230.32398 
L 295.721267 -232.844478 
L 295.721267 -235.364977 
L 295.721267 -237.885476 
L 295.721267 -240.405975 
L 295.721267 -242.926473 
L 295.721267 -245.446972 
L 295.721267 -247.967471 
L 295.721267 -250.487969 
L 295.721267 -253.008468 
L 295.721267 -255.528967 
L 295.721267 -258.049465 
L 295.721267 -260.569964 
L 295.721267 -263.090463 
L 295.721267 -265.610962 
L 295.721267 -268.13146 
L 295.721267 -270.651959 
L 295.721267 -273.172458 
L 295.721267 -275.692956 
L 295.721267 -278.213455 
L 295.721267 -280.733954 
L 295.721267 -283.254452 
L 295.721267 -285.774951 
L 295.721267 -288.29545 
L 295.721267 -290.815949 
L 295.721267 -293.336447 
L 295.721267 -295.856946 
L 295.721267 -298.377445 
L 295.721267 -300.897943 
L 295.721267 -303.418442 
L 295.721267 -305.938941 
L 295.721267 -308.459439 
L 295.721267 -310.979938 
L 295.721267 -313.500437 
L 295.721267 -316.020935 
L 301.004354 -316.020935 
L 301.004354 -316.020935 
L 302.626055 -313.500437 
L 304.573708 -310.979938 
L 306.854617 -308.459439 
L 309.456588 -305.938941 
L 312.343981 -303.418442 
L 315.455271 -300.897943 
L 318.70278 -298.377445 
L 321.975067 -295.856946 
L 325.142161 -293.336447 
L 328.063479 -290.815949 
L 330.597832 -288.29545 
L 332.614595 -285.774951 
L 334.004809 -283.254452 
L 334.69092 -280.733954 
L 334.633944 -278.213455 
L 333.837136 -275.692956 
L 332.34568 -273.172458 
L 330.242451 -270.651959 
L 327.640381 -268.13146 
L 324.672437 -265.610962 
L 321.480418 -263.090463 
L 318.203898 -260.569964 
L 314.970475 -258.049465 
L 311.888241 -255.528967 
L 309.040976 -253.008468 
L 306.486189 -250.487969 
L 304.25575 -247.967471 
L 302.358601 -245.446972 
L 300.784877 -242.926473 
L 299.510724 -240.405975 
L 298.503182 -237.885476 
L 297.724636 -235.364977 
L 297.136501 -232.844478 
L 296.701988 -230.32398 
L 296.38794 -227.803481 
L 296.165827 -225.282982 
L 296.01207 -222.762484 
L 295.907869 -220.241985 
L 295.838726 -217.721486 
L 295.793795 -215.200988 
L 295.765198 -212.680489 
L 295.74737 -210.15999 
L 295.736482 -207.639492 
L 295.729967 -205.118993 
L 295.726148 -202.598494 
L 295.723955 -200.077995 
L 295.722723 -197.557497 
L 295.722048 -195.036998 
L 295.721692 -192.516499 
L 295.721522 -189.996001 
L 295.721468 -187.475502 
L 295.721505 -184.955003 
L 295.721639 -182.434505 
L 295.72191 -179.914006 
L 295.722398 -177.393507 
L 295.723239 -174.873008 
L 295.724646 -172.35251 
L 295.726953 -169.832011 
L 295.730653 -167.311512 
L 295.736468 -164.791014 
L 295.745416 -162.270515 
L 295.758901 -159.750016 
L 295.778799 -157.229518 
L 295.807543 -154.709019 
L 295.848184 -152.18852 
L 295.904415 -149.668022 
L 295.980527 -147.147523 
L 296.08128 -144.627024 
L 296.211668 -142.106525 
L 296.376558 -139.586027 
L 296.580216 -137.065528 
L 296.82573 -134.545029 
L 297.114375 -132.024531 
L 297.444994 -129.504032 
L 297.813464 -126.983533 
L 298.212341 -124.463035 
L 298.630784 -121.942536 
L 299.054805 -119.422037 
L 299.467889 -116.901538 
L 299.851976 -114.38104 
L 300.188715 -111.860541 
L 300.460897 -109.340042 
L 300.653909 -106.819544 
L 300.757026 -104.299045 
L 300.764399 -101.778546 
L 300.675608 -99.258048 
L 300.495698 -96.737549 
L 300.234705 -94.21705 
L 299.90673 -91.696551 
L 299.528677 -89.176053 
L 299.118818 -86.655554 
L 298.695345 -84.135055 
L 298.27508 -81.614557 
L 297.872442 -79.094058 
L 297.498779 -76.573559 
L 297.162054 -74.053061 
L 296.866877 -71.532562 
L 296.614828 -69.012063 
L 296.404961 -66.491565 
z
" style="stroke: #3f3f3f; stroke-width: 1.5"/>
    </defs>
    <g clip-path="url(#p7874355f1b)">
     <use xlink:href="#m574d04384a" x="0" y="352.15625" style="fill: #e1812c; stroke: #3f3f3f; stroke-width: 1.5"/>
    </g>
   </g>
   <g id="matplotlib.axis_1">
    <g id="xtick_1">
     <g id="line2d_1">
      <defs>
       <path id="m2c872e5f61" d="M 0 0 
L 0 3.5 
" style="stroke: #000000; stroke-width: 0.8"/>
      </defs>
      <g>
       <use xlink:href="#m2c872e5f61" x="100.873003" y="314.6" style="stroke: #000000; stroke-width: 0.8"/>
      </g>
     </g>
     <g id="text_1">
      <!-- burger -->
      <g transform="translate(84.255816 329.198438)scale(0.1 -0.1)">
       <defs>
        <path id="DejaVuSans-62" d="M 3116 1747 
Q 3116 2381 2855 2742 
Q 2594 3103 2138 3103 
Q 1681 3103 1420 2742 
Q 1159 2381 1159 1747 
Q 1159 1113 1420 752 
Q 1681 391 2138 391 
Q 2594 391 2855 752 
Q 3116 1113 3116 1747 
z
M 1159 2969 
Q 1341 3281 1617 3432 
Q 1894 3584 2278 3584 
Q 2916 3584 3314 3078 
Q 3713 2572 3713 1747 
Q 3713 922 3314 415 
Q 2916 -91 2278 -91 
Q 1894 -91 1617 61 
Q 1341 213 1159 525 
L 1159 0 
L 581 0 
L 581 4863 
L 1159 4863 
L 1159 2969 
z
" transform="scale(0.015625)"/>
        <path id="DejaVuSans-75" d="M 544 1381 
L 544 3500 
L 1119 3500 
L 1119 1403 
Q 1119 906 1312 657 
Q 1506 409 1894 409 
Q 2359 409 2629 706 
Q 2900 1003 2900 1516 
L 2900 3500 
L 3475 3500 
L 3475 0 
L 2900 0 
L 2900 538 
Q 2691 219 2414 64 
Q 2138 -91 1772 -91 
Q 1169 -91 856 284 
Q 544 659 544 1381 
z
M 1991 3584 
L 1991 3584 
z
" transform="scale(0.015625)"/>
        <path id="DejaVuSans-72" d="M 2631 2963 
Q 2534 3019 2420 3045 
Q 2306 3072 2169 3072 
Q 1681 3072 1420 2755 
Q 1159 2438 1159 1844 
L 1159 0 
L 581 0 
L 581 3500 
L 1159 3500 
L 1159 2956 
Q 1341 3275 1631 3429 
Q 1922 3584 2338 3584 
Q 2397 3584 2469 3576 
Q 2541 3569 2628 3553 
L 2631 2963 
z
" transform="scale(0.015625)"/>
        <path id="DejaVuSans-67" d="M 2906 1791 
Q 2906 2416 2648 2759 
Q 2391 3103 1925 3103 
Q 1463 3103 1205 2759 
Q 947 2416 947 1791 
Q 947 1169 1205 825 
Q 1463 481 1925 481 
Q 2391 481 2648 825 
Q 2906 1169 2906 1791 
z
M 3481 434 
Q 3481 -459 3084 -895 
Q 2688 -1331 1869 -1331 
Q 1566 -1331 1297 -1286 
Q 1028 -1241 775 -1147 
L 775 -588 
Q 1028 -725 1275 -790 
Q 1522 -856 1778 -856 
Q 2344 -856 2625 -561 
Q 2906 -266 2906 331 
L 2906 616 
Q 2728 306 2450 153 
Q 2172 0 1784 0 
Q 1141 0 747 490 
Q 353 981 353 1791 
Q 353 2603 747 3093 
Q 1141 3584 1784 3584 
Q 2172 3584 2450 3431 
Q 2728 3278 2906 2969 
L 2906 3500 
L 3481 3500 
L 3481 434 
z
" transform="scale(0.015625)"/>
        <path id="DejaVuSans-65" d="M 3597 1894 
L 3597 1613 
L 953 1613 
Q 991 1019 1311 708 
Q 1631 397 2203 397 
Q 2534 397 2845 478 
Q 3156 559 3463 722 
L 3463 178 
Q 3153 47 2828 -22 
Q 2503 -91 2169 -91 
Q 1331 -91 842 396 
Q 353 884 353 1716 
Q 353 2575 817 3079 
Q 1281 3584 2069 3584 
Q 2775 3584 3186 3129 
Q 3597 2675 3597 1894 
z
M 3022 2063 
Q 3016 2534 2758 2815 
Q 2500 3097 2075 3097 
Q 1594 3097 1305 2825 
Q 1016 2553 972 2059 
L 3022 2063 
z
" transform="scale(0.015625)"/>
       </defs>
       <use xlink:href="#DejaVuSans-62"/>
       <use xlink:href="#DejaVuSans-75" x="63.476562"/>
       <use xlink:href="#DejaVuSans-72" x="126.855469"/>
       <use xlink:href="#DejaVuSans-67" x="166.21875"/>
       <use xlink:href="#DejaVuSans-65" x="229.695312"/>
       <use xlink:href="#DejaVuSans-72" x="291.21875"/>
      </g>
     </g>
    </g>
    <g id="xtick_2">
     <g id="line2d_2">
      <g>
       <use xlink:href="#m2c872e5f61" x="198.297135" y="314.6" style="stroke: #000000; stroke-width: 0.8"/>
      </g>
     </g>
     <g id="text_2">
      <!-- jackal -->
      <g transform="translate(183.833854 329.198438)scale(0.1 -0.1)">
       <defs>
        <path id="DejaVuSans-6a" d="M 603 3500 
L 1178 3500 
L 1178 -63 
Q 1178 -731 923 -1031 
Q 669 -1331 103 -1331 
L -116 -1331 
L -116 -844 
L 38 -844 
Q 366 -844 484 -692 
Q 603 -541 603 -63 
L 603 3500 
z
M 603 4863 
L 1178 4863 
L 1178 4134 
L 603 4134 
L 603 4863 
z
" transform="scale(0.015625)"/>
        <path id="DejaVuSans-61" d="M 2194 1759 
Q 1497 1759 1228 1600 
Q 959 1441 959 1056 
Q 959 750 1161 570 
Q 1363 391 1709 391 
Q 2188 391 2477 730 
Q 2766 1069 2766 1631 
L 2766 1759 
L 2194 1759 
z
M 3341 1997 
L 3341 0 
L 2766 0 
L 2766 531 
Q 2569 213 2275 61 
Q 1981 -91 1556 -91 
Q 1019 -91 701 211 
Q 384 513 384 1019 
Q 384 1609 779 1909 
Q 1175 2209 1959 2209 
L 2766 2209 
L 2766 2266 
Q 2766 2663 2505 2880 
Q 2244 3097 1772 3097 
Q 1472 3097 1187 3025 
Q 903 2953 641 2809 
L 641 3341 
Q 956 3463 1253 3523 
Q 1550 3584 1831 3584 
Q 2591 3584 2966 3190 
Q 3341 2797 3341 1997 
z
" transform="scale(0.015625)"/>
        <path id="DejaVuSans-63" d="M 3122 3366 
L 3122 2828 
Q 2878 2963 2633 3030 
Q 2388 3097 2138 3097 
Q 1578 3097 1268 2742 
Q 959 2388 959 1747 
Q 959 1106 1268 751 
Q 1578 397 2138 397 
Q 2388 397 2633 464 
Q 2878 531 3122 666 
L 3122 134 
Q 2881 22 2623 -34 
Q 2366 -91 2075 -91 
Q 1284 -91 818 406 
Q 353 903 353 1747 
Q 353 2603 823 3093 
Q 1294 3584 2113 3584 
Q 2378 3584 2631 3529 
Q 2884 3475 3122 3366 
z
" transform="scale(0.015625)"/>
        <path id="DejaVuSans-6b" d="M 581 4863 
L 1159 4863 
L 1159 1991 
L 2875 3500 
L 3609 3500 
L 1753 1863 
L 3688 0 
L 2938 0 
L 1159 1709 
L 1159 0 
L 581 0 
L 581 4863 
z
" transform="scale(0.015625)"/>
        <path id="DejaVuSans-6c" d="M 603 4863 
L 1178 4863 
L 1178 0 
L 603 0 
L 603 4863 
z
" transform="scale(0.015625)"/>
       </defs>
       <use xlink:href="#DejaVuSans-6a"/>
       <use xlink:href="#DejaVuSans-61" x="27.783203"/>
       <use xlink:href="#DejaVuSans-63" x="89.0625"/>
       <use xlink:href="#DejaVuSans-6b" x="144.042969"/>
       <use xlink:href="#DejaVuSans-61" x="200.203125"/>
       <use xlink:href="#DejaVuSans-6c" x="261.482422"/>
      </g>
     </g>
    </g>
    <g id="xtick_3">
     <g id="line2d_3">
      <g>
       <use xlink:href="#m2c872e5f61" x="295.721267" y="314.6" style="stroke: #000000; stroke-width: 0.8"/>
      </g>
     </g>
     <g id="text_3">
      <!-- youbot -->
      <g transform="translate(278.340017 329.198438)scale(0.1 -0.1)">
       <defs>
        <path id="DejaVuSans-79" d="M 2059 -325 
Q 1816 -950 1584 -1140 
Q 1353 -1331 966 -1331 
L 506 -1331 
L 506 -850 
L 844 -850 
Q 1081 -850 1212 -737 
Q 1344 -625 1503 -206 
L 1606 56 
L 191 3500 
L 800 3500 
L 1894 763 
L 2988 3500 
L 3597 3500 
L 2059 -325 
z
" transform="scale(0.015625)"/>
        <path id="DejaVuSans-6f" d="M 1959 3097 
Q 1497 3097 1228 2736 
Q 959 2375 959 1747 
Q 959 1119 1226 758 
Q 1494 397 1959 397 
Q 2419 397 2687 759 
Q 2956 1122 2956 1747 
Q 2956 2369 2687 2733 
Q 2419 3097 1959 3097 
z
M 1959 3584 
Q 2709 3584 3137 3096 
Q 3566 2609 3566 1747 
Q 3566 888 3137 398 
Q 2709 -91 1959 -91 
Q 1206 -91 779 398 
Q 353 888 353 1747 
Q 353 2609 779 3096 
Q 1206 3584 1959 3584 
z
" transform="scale(0.015625)"/>
        <path id="DejaVuSans-74" d="M 1172 4494 
L 1172 3500 
L 2356 3500 
L 2356 3053 
L 1172 3053 
L 1172 1153 
Q 1172 725 1289 603 
Q 1406 481 1766 481 
L 2356 481 
L 2356 0 
L 1766 0 
Q 1100 0 847 248 
Q 594 497 594 1153 
L 594 3053 
L 172 3053 
L 172 3500 
L 594 3500 
L 594 4494 
L 1172 4494 
z
" transform="scale(0.015625)"/>
       </defs>
       <use xlink:href="#DejaVuSans-79"/>
       <use xlink:href="#DejaVuSans-6f" x="59.179688"/>
       <use xlink:href="#DejaVuSans-75" x="120.361328"/>
       <use xlink:href="#DejaVuSans-62" x="183.740234"/>
       <use xlink:href="#DejaVuSans-6f" x="247.216797"/>
       <use xlink:href="#DejaVuSans-74" x="308.398438"/>
      </g>
     </g>
    </g>
    <g id="text_4">
     <!-- Robot -->
     <g transform="translate(183.794792 342.876562)scale(0.1 -0.1)">
      <defs>
       <path id="DejaVuSans-52" d="M 2841 2188 
Q 3044 2119 3236 1894 
Q 3428 1669 3622 1275 
L 4263 0 
L 3584 0 
L 2988 1197 
Q 2756 1666 2539 1819 
Q 2322 1972 1947 1972 
L 1259 1972 
L 1259 0 
L 628 0 
L 628 4666 
L 2053 4666 
Q 2853 4666 3247 4331 
Q 3641 3997 3641 3322 
Q 3641 2881 3436 2590 
Q 3231 2300 2841 2188 
z
M 1259 4147 
L 1259 2491 
L 2053 2491 
Q 2509 2491 2742 2702 
Q 2975 2913 2975 3322 
Q 2975 3731 2742 3939 
Q 2509 4147 2053 4147 
L 1259 4147 
z
" transform="scale(0.015625)"/>
      </defs>
      <use xlink:href="#DejaVuSans-52"/>
      <use xlink:href="#DejaVuSans-6f" x="64.982422"/>
      <use xlink:href="#DejaVuSans-62" x="126.164062"/>
      <use xlink:href="#DejaVuSans-6f" x="189.640625"/>
      <use xlink:href="#DejaVuSans-74" x="250.822266"/>
     </g>
    </g>
   </g>
   <g id="matplotlib.axis_2">
    <g id="ytick_1">
     <g id="line2d_4">
      <defs>
       <path id="m3de3d54b16" d="M 0 0 
L -3.5 0 
" style="stroke: #000000; stroke-width: 0.8"/>
      </defs>
      <g>
       <use xlink:href="#m3de3d54b16" x="52.160938" y="284.672974" style="stroke: #000000; stroke-width: 0.8"/>
      </g>
     </g>
     <g id="text_5">
      <!-- −0.2 -->
      <g transform="translate(20.878125 288.472192)scale(0.1 -0.1)">
       <defs>
        <path id="DejaVuSans-2212" d="M 678 2272 
L 4684 2272 
L 4684 1741 
L 678 1741 
L 678 2272 
z
" transform="scale(0.015625)"/>
        <path id="DejaVuSans-30" d="M 2034 4250 
Q 1547 4250 1301 3770 
Q 1056 3291 1056 2328 
Q 1056 1369 1301 889 
Q 1547 409 2034 409 
Q 2525 409 2770 889 
Q 3016 1369 3016 2328 
Q 3016 3291 2770 3770 
Q 2525 4250 2034 4250 
z
M 2034 4750 
Q 2819 4750 3233 4129 
Q 3647 3509 3647 2328 
Q 3647 1150 3233 529 
Q 2819 -91 2034 -91 
Q 1250 -91 836 529 
Q 422 1150 422 2328 
Q 422 3509 836 4129 
Q 1250 4750 2034 4750 
z
" transform="scale(0.015625)"/>
        <path id="DejaVuSans-2e" d="M 684 794 
L 1344 794 
L 1344 0 
L 684 0 
L 684 794 
z
" transform="scale(0.015625)"/>
        <path id="DejaVuSans-32" d="M 1228 531 
L 3431 531 
L 3431 0 
L 469 0 
L 469 531 
Q 828 903 1448 1529 
Q 2069 2156 2228 2338 
Q 2531 2678 2651 2914 
Q 2772 3150 2772 3378 
Q 2772 3750 2511 3984 
Q 2250 4219 1831 4219 
Q 1534 4219 1204 4116 
Q 875 4013 500 3803 
L 500 4441 
Q 881 4594 1212 4672 
Q 1544 4750 1819 4750 
Q 2544 4750 2975 4387 
Q 3406 4025 3406 3419 
Q 3406 3131 3298 2873 
Q 3191 2616 2906 2266 
Q 2828 2175 2409 1742 
Q 1991 1309 1228 531 
z
" transform="scale(0.015625)"/>
       </defs>
       <use xlink:href="#DejaVuSans-2212"/>
       <use xlink:href="#DejaVuSans-30" x="83.789062"/>
       <use xlink:href="#DejaVuSans-2e" x="147.412109"/>
       <use xlink:href="#DejaVuSans-32" x="179.199219"/>
      </g>
     </g>
    </g>
    <g id="ytick_2">
     <g id="line2d_5">
      <g>
       <use xlink:href="#m3de3d54b16" x="52.160938" y="249.309267" style="stroke: #000000; stroke-width: 0.8"/>
      </g>
     </g>
     <g id="text_6">
      <!-- 0.0 -->
      <g transform="translate(29.257812 253.108486)scale(0.1 -0.1)">
       <use xlink:href="#DejaVuSans-30"/>
       <use xlink:href="#DejaVuSans-2e" x="63.623047"/>
       <use xlink:href="#DejaVuSans-30" x="95.410156"/>
      </g>
     </g>
    </g>
    <g id="ytick_3">
     <g id="line2d_6">
      <g>
       <use xlink:href="#m3de3d54b16" x="52.160938" y="213.94556" style="stroke: #000000; stroke-width: 0.8"/>
      </g>
     </g>
     <g id="text_7">
      <!-- 0.2 -->
      <g transform="translate(29.257812 217.744779)scale(0.1 -0.1)">
       <use xlink:href="#DejaVuSans-30"/>
       <use xlink:href="#DejaVuSans-2e" x="63.623047"/>
       <use xlink:href="#DejaVuSans-32" x="95.410156"/>
      </g>
     </g>
    </g>
    <g id="ytick_4">
     <g id="line2d_7">
      <g>
       <use xlink:href="#m3de3d54b16" x="52.160938" y="178.581853" style="stroke: #000000; stroke-width: 0.8"/>
      </g>
     </g>
     <g id="text_8">
      <!-- 0.4 -->
      <g transform="translate(29.257812 182.381072)scale(0.1 -0.1)">
       <defs>
        <path id="DejaVuSans-34" d="M 2419 4116 
L 825 1625 
L 2419 1625 
L 2419 4116 
z
M 2253 4666 
L 3047 4666 
L 3047 1625 
L 3713 1625 
L 3713 1100 
L 3047 1100 
L 3047 0 
L 2419 0 
L 2419 1100 
L 313 1100 
L 313 1709 
L 2253 4666 
z
" transform="scale(0.015625)"/>
       </defs>
       <use xlink:href="#DejaVuSans-30"/>
       <use xlink:href="#DejaVuSans-2e" x="63.623047"/>
       <use xlink:href="#DejaVuSans-34" x="95.410156"/>
      </g>
     </g>
    </g>
    <g id="ytick_5">
     <g id="line2d_8">
      <g>
       <use xlink:href="#m3de3d54b16" x="52.160938" y="143.218147" style="stroke: #000000; stroke-width: 0.8"/>
      </g>
     </g>
     <g id="text_9">
      <!-- 0.6 -->
      <g transform="translate(29.257812 147.017365)scale(0.1 -0.1)">
       <defs>
        <path id="DejaVuSans-36" d="M 2113 2584 
Q 1688 2584 1439 2293 
Q 1191 2003 1191 1497 
Q 1191 994 1439 701 
Q 1688 409 2113 409 
Q 2538 409 2786 701 
Q 3034 994 3034 1497 
Q 3034 2003 2786 2293 
Q 2538 2584 2113 2584 
z
M 3366 4563 
L 3366 3988 
Q 3128 4100 2886 4159 
Q 2644 4219 2406 4219 
Q 1781 4219 1451 3797 
Q 1122 3375 1075 2522 
Q 1259 2794 1537 2939 
Q 1816 3084 2150 3084 
Q 2853 3084 3261 2657 
Q 3669 2231 3669 1497 
Q 3669 778 3244 343 
Q 2819 -91 2113 -91 
Q 1303 -91 875 529 
Q 447 1150 447 2328 
Q 447 3434 972 4092 
Q 1497 4750 2381 4750 
Q 2619 4750 2861 4703 
Q 3103 4656 3366 4563 
z
" transform="scale(0.015625)"/>
       </defs>
       <use xlink:href="#DejaVuSans-30"/>
       <use xlink:href="#DejaVuSans-2e" x="63.623047"/>
       <use xlink:href="#DejaVuSans-36" x="95.410156"/>
      </g>
     </g>
    </g>
    <g id="ytick_6">
     <g id="line2d_9">
      <g>
       <use xlink:href="#m3de3d54b16" x="52.160938" y="107.85444" style="stroke: #000000; stroke-width: 0.8"/>
      </g>
     </g>
     <g id="text_10">
      <!-- 0.8 -->
      <g transform="translate(29.257812 111.653659)scale(0.1 -0.1)">
       <defs>
        <path id="DejaVuSans-38" d="M 2034 2216 
Q 1584 2216 1326 1975 
Q 1069 1734 1069 1313 
Q 1069 891 1326 650 
Q 1584 409 2034 409 
Q 2484 409 2743 651 
Q 3003 894 3003 1313 
Q 3003 1734 2745 1975 
Q 2488 2216 2034 2216 
z
M 1403 2484 
Q 997 2584 770 2862 
Q 544 3141 544 3541 
Q 544 4100 942 4425 
Q 1341 4750 2034 4750 
Q 2731 4750 3128 4425 
Q 3525 4100 3525 3541 
Q 3525 3141 3298 2862 
Q 3072 2584 2669 2484 
Q 3125 2378 3379 2068 
Q 3634 1759 3634 1313 
Q 3634 634 3220 271 
Q 2806 -91 2034 -91 
Q 1263 -91 848 271 
Q 434 634 434 1313 
Q 434 1759 690 2068 
Q 947 2378 1403 2484 
z
M 1172 3481 
Q 1172 3119 1398 2916 
Q 1625 2713 2034 2713 
Q 2441 2713 2670 2916 
Q 2900 3119 2900 3481 
Q 2900 3844 2670 4047 
Q 2441 4250 2034 4250 
Q 1625 4250 1398 4047 
Q 1172 3844 1172 3481 
z
" transform="scale(0.015625)"/>
       </defs>
       <use xlink:href="#DejaVuSans-30"/>
       <use xlink:href="#DejaVuSans-2e" x="63.623047"/>
       <use xlink:href="#DejaVuSans-38" x="95.410156"/>
      </g>
     </g>
    </g>
    <g id="ytick_7">
     <g id="line2d_10">
      <g>
       <use xlink:href="#m3de3d54b16" x="52.160938" y="72.490733" style="stroke: #000000; stroke-width: 0.8"/>
      </g>
     </g>
     <g id="text_11">
      <!-- 1.0 -->
      <g transform="translate(29.257812 76.289952)scale(0.1 -0.1)">
       <defs>
        <path id="DejaVuSans-31" d="M 794 531 
L 1825 531 
L 1825 4091 
L 703 3866 
L 703 4441 
L 1819 4666 
L 2450 4666 
L 2450 531 
L 3481 531 
L 3481 0 
L 794 0 
L 794 531 
z
" transform="scale(0.015625)"/>
       </defs>
       <use xlink:href="#DejaVuSans-31"/>
       <use xlink:href="#DejaVuSans-2e" x="63.623047"/>
       <use xlink:href="#DejaVuSans-30" x="95.410156"/>
      </g>
     </g>
    </g>
    <g id="ytick_8">
     <g id="line2d_11">
      <g>
       <use xlink:href="#m3de3d54b16" x="52.160938" y="37.127026" style="stroke: #000000; stroke-width: 0.8"/>
      </g>
     </g>
     <g id="text_12">
      <!-- 1.2 -->
      <g transform="translate(29.257812 40.926245)scale(0.1 -0.1)">
       <use xlink:href="#DejaVuSans-31"/>
       <use xlink:href="#DejaVuSans-2e" x="63.623047"/>
       <use xlink:href="#DejaVuSans-32" x="95.410156"/>
      </g>
     </g>
    </g>
    <g id="text_13">
     <!-- success -->
     <g transform="translate(14.798437 180.457813)rotate(-90)scale(0.1 -0.1)">
      <defs>
       <path id="DejaVuSans-73" d="M 2834 3397 
L 2834 2853 
Q 2591 2978 2328 3040 
Q 2066 3103 1784 3103 
Q 1356 3103 1142 2972 
Q 928 2841 928 2578 
Q 928 2378 1081 2264 
Q 1234 2150 1697 2047 
L 1894 2003 
Q 2506 1872 2764 1633 
Q 3022 1394 3022 966 
Q 3022 478 2636 193 
Q 2250 -91 1575 -91 
Q 1294 -91 989 -36 
Q 684 19 347 128 
L 347 722 
Q 666 556 975 473 
Q 1284 391 1588 391 
Q 1994 391 2212 530 
Q 2431 669 2431 922 
Q 2431 1156 2273 1281 
Q 2116 1406 1581 1522 
L 1381 1569 
Q 847 1681 609 1914 
Q 372 2147 372 2553 
Q 372 3047 722 3315 
Q 1072 3584 1716 3584 
Q 2034 3584 2315 3537 
Q 2597 3491 2834 3397 
z
" transform="scale(0.015625)"/>
      </defs>
      <use xlink:href="#DejaVuSans-73"/>
      <use xlink:href="#DejaVuSans-75" x="52.099609"/>
      <use xlink:href="#DejaVuSans-63" x="115.478516"/>
      <use xlink:href="#DejaVuSans-63" x="170.458984"/>
      <use xlink:href="#DejaVuSans-65" x="225.439453"/>
      <use xlink:href="#DejaVuSans-73" x="286.962891"/>
      <use xlink:href="#DejaVuSans-73" x="339.0625"/>
     </g>
    </g>
   </g>
   <g id="line2d_12">
    <path d="M 100.873003 72.490733 
L 100.873003 72.490733 
" clip-path="url(#p7874355f1b)" style="fill: none; stroke: #3f3f3f; stroke-width: 1.5; stroke-linecap: square"/>
   </g>
   <g id="line2d_13">
    <path d="M 100.873003 72.490733 
L 100.873003 72.490733 
" clip-path="url(#p7874355f1b)" style="fill: none; stroke: #3f3f3f; stroke-width: 4.5; stroke-linecap: square"/>
   </g>
   <g id="line2d_14">
    <path d="M 198.297135 72.490733 
L 198.297135 72.490733 
" clip-path="url(#p7874355f1b)" style="fill: none; stroke: #3f3f3f; stroke-width: 1.5; stroke-linecap: square"/>
   </g>
   <g id="line2d_15">
    <path d="M 198.297135 72.490733 
L 198.297135 72.490733 
" clip-path="url(#p7874355f1b)" style="fill: none; stroke: #3f3f3f; stroke-width: 4.5; stroke-linecap: square"/>
   </g>
   <g id="line2d_16">
    <path d="M 295.721267 72.490733 
L 295.721267 72.490733 
" clip-path="url(#p7874355f1b)" style="fill: none; stroke: #3f3f3f; stroke-width: 1.5; stroke-linecap: square"/>
   </g>
   <g id="line2d_17">
    <path d="M 295.721267 72.490733 
L 295.721267 72.490733 
" clip-path="url(#p7874355f1b)" style="fill: none; stroke: #3f3f3f; stroke-width: 4.5; stroke-linecap: square"/>
   </g>
   <g id="patch_5">
    <path d="M 52.160938 314.6 
L 52.160938 7.2 
" style="fill: none; stroke: #000000; stroke-width: 0.8; stroke-linejoin: miter; stroke-linecap: square"/>
   </g>
   <g id="patch_6">
    <path d="M 52.160938 314.6 
L 344.433333 314.6 
" style="fill: none; stroke: #000000; stroke-width: 0.8; stroke-linejoin: miter; stroke-linecap: square"/>
   </g>
   <g id="PathCollection_1">
    <defs>
     <path id="mc86b09b933" d="M 0 1.5 
C 0.397805 1.5 0.77937 1.341951 1.06066 1.06066 
C 1.341951 0.77937 1.5 0.397805 1.5 0 
C 1.5 -0.397805 1.341951 -0.77937 1.06066 -1.06066 
C 0.77937 -1.341951 0.397805 -1.5 0 -1.5 
C -0.397805 -1.5 -0.77937 -1.341951 -1.06066 -1.06066 
C -1.341951 -0.77937 -1.5 -0.397805 -1.5 0 
C -1.5 0.397805 -1.341951 0.77937 -1.06066 1.06066 
C -0.77937 1.341951 -0.397805 1.5 0 1.5 
z
" style="stroke: #3f3f3f"/>
    </defs>
    <g clip-path="url(#p7874355f1b)">
     <use xlink:href="#mc86b09b933" x="100.873003" y="72.490733" style="fill: #ffffff; stroke: #3f3f3f"/>
    </g>
   </g>
   <g id="PathCollection_2">
    <g clip-path="url(#p7874355f1b)">
     <use xlink:href="#mc86b09b933" x="198.297135" y="72.490733" style="fill: #ffffff; stroke: #3f3f3f"/>
    </g>
   </g>
   <g id="PathCollection_3">
    <g clip-path="url(#p7874355f1b)">
     <use xlink:href="#mc86b09b933" x="295.721267" y="72.490733" style="fill: #ffffff; stroke: #3f3f3f"/>
    </g>
   </g>
  </g>
  <g id="legend_1">
   <g id="text_14">
    <!-- dim -->
    <g transform="translate(360.681771 164.159375)scale(0.1 -0.1)">
     <defs>
      <path id="DejaVuSans-64" d="M 2906 2969 
L 2906 4863 
L 3481 4863 
L 3481 0 
L 2906 0 
L 2906 525 
Q 2725 213 2448 61 
Q 2172 -91 1784 -91 
Q 1150 -91 751 415 
Q 353 922 353 1747 
Q 353 2572 751 3078 
Q 1150 3584 1784 3584 
Q 2172 3584 2448 3432 
Q 2725 3281 2906 2969 
z
M 947 1747 
Q 947 1113 1208 752 
Q 1469 391 1925 391 
Q 2381 391 2643 752 
Q 2906 1113 2906 1747 
Q 2906 2381 2643 2742 
Q 2381 3103 1925 3103 
Q 1469 3103 1208 2742 
Q 947 2381 947 1747 
z
" transform="scale(0.015625)"/>
      <path id="DejaVuSans-69" d="M 603 3500 
L 1178 3500 
L 1178 0 
L 603 0 
L 603 3500 
z
M 603 4863 
L 1178 4863 
L 1178 4134 
L 603 4134 
L 603 4863 
z
" transform="scale(0.015625)"/>
      <path id="DejaVuSans-6d" d="M 3328 2828 
Q 3544 3216 3844 3400 
Q 4144 3584 4550 3584 
Q 5097 3584 5394 3201 
Q 5691 2819 5691 2113 
L 5691 0 
L 5113 0 
L 5113 2094 
Q 5113 2597 4934 2840 
Q 4756 3084 4391 3084 
Q 3944 3084 3684 2787 
Q 3425 2491 3425 1978 
L 3425 0 
L 2847 0 
L 2847 2094 
Q 2847 2600 2669 2842 
Q 2491 3084 2119 3084 
Q 1678 3084 1418 2786 
Q 1159 2488 1159 1978 
L 1159 0 
L 581 0 
L 581 3500 
L 1159 3500 
L 1159 2956 
Q 1356 3278 1631 3431 
Q 1906 3584 2284 3584 
Q 2666 3584 2933 3390 
Q 3200 3197 3328 2828 
z
" transform="scale(0.015625)"/>
     </defs>
     <use xlink:href="#DejaVuSans-64"/>
     <use xlink:href="#DejaVuSans-69" x="63.476562"/>
     <use xlink:href="#DejaVuSans-6d" x="91.259766"/>
    </g>
   </g>
   <g id="patch_7">
    <path d="M 349.759896 178.8375 
L 369.759896 178.8375 
L 369.759896 171.8375 
L 349.759896 171.8375 
z
" style="fill: #3274a1; stroke: #3f3f3f; stroke-width: 0.75; stroke-linejoin: miter"/>
   </g>
   <g id="text_15">
    <!-- 2d -->
    <g transform="translate(377.759896 178.8375)scale(0.1 -0.1)">
     <use xlink:href="#DejaVuSans-32"/>
     <use xlink:href="#DejaVuSans-64" x="63.623047"/>
    </g>
   </g>
   <g id="patch_8">
    <path d="M 349.759896 193.515625 
L 369.759896 193.515625 
L 369.759896 186.515625 
L 349.759896 186.515625 
z
" style="fill: #e1812c; stroke: #3f3f3f; stroke-width: 0.75; stroke-linejoin: miter"/>
   </g>
   <g id="text_16">
    <!-- 3d -->
    <g transform="translate(377.759896 193.515625)scale(0.1 -0.1)">
     <defs>
      <path id="DejaVuSans-33" d="M 2597 2516 
Q 3050 2419 3304 2112 
Q 3559 1806 3559 1356 
Q 3559 666 3084 287 
Q 2609 -91 1734 -91 
Q 1441 -91 1130 -33 
Q 819 25 488 141 
L 488 750 
Q 750 597 1062 519 
Q 1375 441 1716 441 
Q 2309 441 2620 675 
Q 2931 909 2931 1356 
Q 2931 1769 2642 2001 
Q 2353 2234 1838 2234 
L 1294 2234 
L 1294 2753 
L 1863 2753 
Q 2328 2753 2575 2939 
Q 2822 3125 2822 3475 
Q 2822 3834 2567 4026 
Q 2313 4219 1838 4219 
Q 1578 4219 1281 4162 
Q 984 4106 628 3988 
L 628 4550 
Q 988 4650 1302 4700 
Q 1616 4750 1894 4750 
Q 2613 4750 3031 4423 
Q 3450 4097 3450 3541 
Q 3450 3153 3228 2886 
Q 3006 2619 2597 2516 
z
" transform="scale(0.015625)"/>
     </defs>
     <use xlink:href="#DejaVuSans-33"/>
     <use xlink:href="#DejaVuSans-64" x="63.623047"/>
    </g>
   </g>
  </g>
 </g>
 <defs>
  <clipPath id="p7874355f1b">
   <rect x="52.160938" y="7.2" width="292.272396" height="307.4"/>
  </clipPath>
 </defs>
</svg>
