<?xml version="1.0" encoding="utf-8" standalone="no"?>
<!DOCTYPE svg PUBLIC "-//W3C//DTD SVG 1.1//EN"
  "http://www.w3.org/Graphics/SVG/1.1/DTD/svg11.dtd">
<svg xmlns:xlink="http://www.w3.org/1999/xlink" width="400.60026pt" height="352.15625pt" viewBox="0 0 400.60026 352.15625" xmlns="http://www.w3.org/2000/svg" version="1.1">
 <metadata>
  <rdf:RDF xmlns:dc="http://purl.org/dc/elements/1.1/" xmlns:cc="http://creativecommons.org/ns#" xmlns:rdf="http://www.w3.org/1999/02/22-rdf-syntax-ns#">
   <cc:Work>
    <dc:type rdf:resource="http://purl.org/dc/dcmitype/StillImage"/>
    <dc:date>2022-03-25T10:15:14.757671</dc:date>
    <dc:format>image/svg+xml</dc:format>
    <dc:creator>
     <cc:Agent>
      <dc:title>Matplotlib v3.5.1, https://matplotlib.org/</dc:title>
     </cc:Agent>
    </dc:creator>
   </cc:Work>
  </rdf:RDF>
 </metadata>
 <defs>
  <style type="text/css">*{stroke-linejoin: round; stroke-linecap: butt}</style>
 </defs>
 <g id="figure_1">
  <g id="patch_1">
   <path d="M 0 352.15625 
L 400.60026 352.15625 
L 400.60026 0 
L 0 0 
L 0 352.15625 
z
" style="fill: none"/>
  </g>
  <g id="axes_1">
   <g id="patch_2">
    <path d="M 43.78125 314.6 
L 345.56276 314.6 
L 345.56276 7.2 
L 43.78125 7.2 
z
" style="fill: #ffffff"/>
   </g>
   <g id="patch_3">
    <path d="M 94.078168 285.274678 
L 94.078168 285.274678 
L 94.078168 285.274678 
L 94.078168 285.274678 
z
" clip-path="url(#p619adc01bd)" style="fill: #3274a1; stroke: #3f3f3f; stroke-width: 0.75; stroke-linejoin: miter"/>
   </g>
   <g id="PolyCollection_1">
    <defs>
     <path id="m68bb5da738" d="M 94.078168 -65.780997 
L 92.590429 -65.780997 
L 91.222219 -66.135386 
L 89.00926 -66.489775 
L 85.746054 -66.844164 
L 81.367311 -67.198553 
L 76.036649 -67.552942 
L 70.179055 -67.907331 
L 64.423348 -68.26172 
L 59.460977 -68.616109 
L 55.871867 -68.970498 
L 53.987335 -69.324887 
L 53.840634 -69.679276 
L 55.210551 -70.033665 
L 57.722235 -70.388054 
L 60.954662 -70.742443 
L 64.517885 -71.096832 
L 68.08982 -71.451221 
L 71.423928 -71.80561 
L 74.346257 -72.159999 
L 76.754685 -72.514388 
L 78.622404 -72.868777 
L 79.999141 -73.223166 
L 81.001149 -73.577556 
L 81.784924 -73.931945 
L 82.507777 -74.286334 
L 83.28677 -74.640723 
L 84.171272 -74.995112 
L 85.140129 -75.349501 
L 86.123645 -75.70389 
L 87.039074 -76.058279 
L 87.823193 -76.412668 
L 88.449234 -76.767057 
L 88.925218 -77.121446 
L 89.280183 -77.475835 
L 89.548972 -77.830224 
L 89.763592 -78.184613 
L 89.952474 -78.539002 
L 90.142863 -78.893391 
L 90.360225 -79.24778 
L 90.622475 -79.602169 
L 90.932652 -79.956558 
L 91.276282 -80.310947 
L 91.626836 -80.665336 
L 91.956581 -81.019725 
L 92.246111 -81.374114 
L 92.487304 -81.728504 
L 92.679986 -82.082893 
L 92.827131 -82.437282 
L 92.933282 -82.791671 
L 93.006565 -83.14606 
L 93.060646 -83.500449 
L 93.112885 -83.854838 
L 93.178575 -84.209227 
L 93.264904 -84.563616 
L 93.368768 -84.918005 
L 93.479619 -85.272394 
L 93.585007 -85.626783 
L 93.675259 -85.981172 
L 93.745355 -86.335561 
L 93.794496 -86.68995 
L 93.825029 -87.044339 
L 93.841723 -87.398728 
L 93.851156 -87.753117 
L 93.860461 -88.107506 
L 93.875351 -88.461895 
L 93.898207 -88.816284 
L 93.927326 -89.170673 
L 93.957742 -89.525062 
L 93.983155 -89.879452 
L 93.998036 -90.233841 
L 93.999196 -90.58823 
L 93.986593 -90.942619 
L 93.963486 -91.297008 
L 93.935911 -91.651397 
L 93.911398 -92.005786 
L 93.89698 -92.360175 
L 93.897066 -92.714564 
L 93.912066 -93.068953 
L 93.938477 -93.423342 
L 93.970383 -93.777731 
L 94.001577 -94.13212 
L 94.027243 -94.486509 
L 94.044513 -94.840898 
L 94.051911 -95.195287 
L 94.048314 -95.549676 
L 94.032194 -95.904065 
L 94.001789 -96.258454 
L 93.956364 -96.612843 
L 93.898085 -96.967232 
L 93.833476 -97.321621 
L 93.773244 -97.67601 
L 93.729851 -98.0304 
L 93.713484 -98.384789 
L 93.728217 -98.739178 
L 93.770387 -99.093567 
L 93.830071 -99.447956 
L 93.894875 -99.802345 
L 93.954057 -100.156734 
L 94.001145 -100.511123 
L 94.034358 -100.865512 
L 94.078168 -100.865512 
L 94.078168 -100.865512 
L 94.078168 -100.511123 
L 94.078168 -100.156734 
L 94.078168 -99.802345 
L 94.078168 -99.447956 
L 94.078168 -99.093567 
L 94.078168 -98.739178 
L 94.078168 -98.384789 
L 94.078168 -98.0304 
L 94.078168 -97.67601 
L 94.078168 -97.321621 
L 94.078168 -96.967232 
L 94.078168 -96.612843 
L 94.078168 -96.258454 
L 94.078168 -95.904065 
L 94.078168 -95.549676 
L 94.078168 -95.195287 
L 94.078168 -94.840898 
L 94.078168 -94.486509 
L 94.078168 -94.13212 
L 94.078168 -93.777731 
L 94.078168 -93.423342 
L 94.078168 -93.068953 
L 94.078168 -92.714564 
L 94.078168 -92.360175 
L 94.078168 -92.005786 
L 94.078168 -91.651397 
L 94.078168 -91.297008 
L 94.078168 -90.942619 
L 94.078168 -90.58823 
L 94.078168 -90.233841 
L 94.078168 -89.879452 
L 94.078168 -89.525062 
L 94.078168 -89.170673 
L 94.078168 -88.816284 
L 94.078168 -88.461895 
L 94.078168 -88.107506 
L 94.078168 -87.753117 
L 94.078168 -87.398728 
L 94.078168 -87.044339 
L 94.078168 -86.68995 
L 94.078168 -86.335561 
L 94.078168 -85.981172 
L 94.078168 -85.626783 
L 94.078168 -85.272394 
L 94.078168 -84.918005 
L 94.078168 -84.563616 
L 94.078168 -84.209227 
L 94.078168 -83.854838 
L 94.078168 -83.500449 
L 94.078168 -83.14606 
L 94.078168 -82.791671 
L 94.078168 -82.437282 
L 94.078168 -82.082893 
L 94.078168 -81.728504 
L 94.078168 -81.374114 
L 94.078168 -81.019725 
L 94.078168 -80.665336 
L 94.078168 -80.310947 
L 94.078168 -79.956558 
L 94.078168 -79.602169 
L 94.078168 -79.24778 
L 94.078168 -78.893391 
L 94.078168 -78.539002 
L 94.078168 -78.184613 
L 94.078168 -77.830224 
L 94.078168 -77.475835 
L 94.078168 -77.121446 
L 94.078168 -76.767057 
L 94.078168 -76.412668 
L 94.078168 -76.058279 
L 94.078168 -75.70389 
L 94.078168 -75.349501 
L 94.078168 -74.995112 
L 94.078168 -74.640723 
L 94.078168 -74.286334 
L 94.078168 -73.931945 
L 94.078168 -73.577556 
L 94.078168 -73.223166 
L 94.078168 -72.868777 
L 94.078168 -72.514388 
L 94.078168 -72.159999 
L 94.078168 -71.80561 
L 94.078168 -71.451221 
L 94.078168 -71.096832 
L 94.078168 -70.742443 
L 94.078168 -70.388054 
L 94.078168 -70.033665 
L 94.078168 -69.679276 
L 94.078168 -69.324887 
L 94.078168 -68.970498 
L 94.078168 -68.616109 
L 94.078168 -68.26172 
L 94.078168 -67.907331 
L 94.078168 -67.552942 
L 94.078168 -67.198553 
L 94.078168 -66.844164 
L 94.078168 -66.489775 
L 94.078168 -66.135386 
L 94.078168 -65.780997 
z
" style="stroke: #3f3f3f; stroke-width: 1.5"/>
    </defs>
    <g clip-path="url(#p619adc01bd)">
     <use xlink:href="#m68bb5da738" x="0" y="352.15625" style="fill: #3274a1; stroke: #3f3f3f; stroke-width: 1.5"/>
    </g>
   </g>
   <g id="patch_4">
    <path d="M 94.078168 285.274678 
L 94.078168 285.274678 
L 94.078168 285.274678 
L 94.078168 285.274678 
z
" clip-path="url(#p619adc01bd)" style="fill: #e1812c; stroke: #3f3f3f; stroke-width: 0.75; stroke-linejoin: miter"/>
   </g>
   <g id="PolyCollection_2">
    <defs>
     <path id="m7d2d565866" d="M 94.528385 -64.290906 
L 94.078168 -64.290906 
L 94.078168 -64.81622 
L 94.078168 -65.341533 
L 94.078168 -65.866847 
L 94.078168 -66.39216 
L 94.078168 -66.917474 
L 94.078168 -67.442787 
L 94.078168 -67.968101 
L 94.078168 -68.493414 
L 94.078168 -69.018728 
L 94.078168 -69.544042 
L 94.078168 -70.069355 
L 94.078168 -70.594669 
L 94.078168 -71.119982 
L 94.078168 -71.645296 
L 94.078168 -72.170609 
L 94.078168 -72.695923 
L 94.078168 -73.221236 
L 94.078168 -73.74655 
L 94.078168 -74.271863 
L 94.078168 -74.797177 
L 94.078168 -75.32249 
L 94.078168 -75.847804 
L 94.078168 -76.373118 
L 94.078168 -76.898431 
L 94.078168 -77.423745 
L 94.078168 -77.949058 
L 94.078168 -78.474372 
L 94.078168 -78.999685 
L 94.078168 -79.524999 
L 94.078168 -80.050312 
L 94.078168 -80.575626 
L 94.078168 -81.100939 
L 94.078168 -81.626253 
L 94.078168 -82.151566 
L 94.078168 -82.67688 
L 94.078168 -83.202193 
L 94.078168 -83.727507 
L 94.078168 -84.252821 
L 94.078168 -84.778134 
L 94.078168 -85.303448 
L 94.078168 -85.828761 
L 94.078168 -86.354075 
L 94.078168 -86.879388 
L 94.078168 -87.404702 
L 94.078168 -87.930015 
L 94.078168 -88.455329 
L 94.078168 -88.980642 
L 94.078168 -89.505956 
L 94.078168 -90.031269 
L 94.078168 -90.556583 
L 94.078168 -91.081897 
L 94.078168 -91.60721 
L 94.078168 -92.132524 
L 94.078168 -92.657837 
L 94.078168 -93.183151 
L 94.078168 -93.708464 
L 94.078168 -94.233778 
L 94.078168 -94.759091 
L 94.078168 -95.284405 
L 94.078168 -95.809718 
L 94.078168 -96.335032 
L 94.078168 -96.860345 
L 94.078168 -97.385659 
L 94.078168 -97.910973 
L 94.078168 -98.436286 
L 94.078168 -98.9616 
L 94.078168 -99.486913 
L 94.078168 -100.012227 
L 94.078168 -100.53754 
L 94.078168 -101.062854 
L 94.078168 -101.588167 
L 94.078168 -102.113481 
L 94.078168 -102.638794 
L 94.078168 -103.164108 
L 94.078168 -103.689421 
L 94.078168 -104.214735 
L 94.078168 -104.740049 
L 94.078168 -105.265362 
L 94.078168 -105.790676 
L 94.078168 -106.315989 
L 94.078168 -106.841303 
L 94.078168 -107.366616 
L 94.078168 -107.89193 
L 94.078168 -108.417243 
L 94.078168 -108.942557 
L 94.078168 -109.46787 
L 94.078168 -109.993184 
L 94.078168 -110.518497 
L 94.078168 -111.043811 
L 94.078168 -111.569124 
L 94.078168 -112.094438 
L 94.078168 -112.619752 
L 94.078168 -113.145065 
L 94.078168 -113.670379 
L 94.078168 -114.195692 
L 94.078168 -114.721006 
L 94.078168 -115.246319 
L 94.078168 -115.771633 
L 94.078168 -116.296946 
L 94.093432 -116.296946 
L 94.093432 -116.296946 
L 94.10347 -115.771633 
L 94.117225 -115.246319 
L 94.134369 -114.721006 
L 94.153677 -114.195692 
L 94.17315 -113.670379 
L 94.190511 -113.145065 
L 94.203929 -112.619752 
L 94.212662 -112.094438 
L 94.217236 -111.569124 
L 94.219036 -111.043811 
L 94.219445 -110.518497 
L 94.219038 -109.993184 
L 94.217246 -109.46787 
L 94.212737 -108.942557 
L 94.204289 -108.417243 
L 94.191708 -107.89193 
L 94.176351 -107.366616 
L 94.161078 -106.841303 
L 94.149749 -106.315989 
L 94.146534 -105.790676 
L 94.15524 -105.265362 
L 94.178661 -104.740049 
L 94.217868 -104.214735 
L 94.271445 -103.689421 
L 94.334915 -103.164108 
L 94.400781 -102.638794 
L 94.459591 -102.113481 
L 94.502027 -101.588167 
L 94.521506 -101.062854 
L 94.516332 -100.53754 
L 94.490494 -100.012227 
L 94.452676 -99.486913 
L 94.413872 -98.9616 
L 94.384539 -98.436286 
L 94.372349 -97.910973 
L 94.381125 -97.385659 
L 94.410936 -96.860345 
L 94.45893 -96.335032 
L 94.520423 -95.809718 
L 94.590028 -95.284405 
L 94.662791 -94.759091 
L 94.735264 -94.233778 
L 94.806267 -93.708464 
L 94.87702 -93.183151 
L 94.950531 -92.657837 
L 95.0305 -92.132524 
L 95.120256 -91.60721 
L 95.222116 -91.081897 
L 95.33723 -90.556583 
L 95.465541 -90.031269 
L 95.605506 -89.505956 
L 95.753584 -88.980642 
L 95.90394 -88.455329 
L 96.049111 -87.930015 
L 96.182043 -87.404702 
L 96.299218 -86.879388 
L 96.403735 -86.354075 
L 96.506739 -85.828761 
L 96.625885 -85.303448 
L 96.780666 -84.778134 
L 96.986047 -84.252821 
L 97.247015 -83.727507 
L 97.556706 -83.202193 
L 97.899373 -82.67688 
L 98.257329 -82.151566 
L 98.619239 -81.626253 
L 98.986525 -81.100939 
L 99.375329 -80.575626 
L 99.813016 -80.050312 
L 100.330012 -79.524999 
L 100.949503 -78.999685 
L 101.678645 -78.474372 
L 102.505029 -77.949058 
L 103.400636 -77.423745 
L 104.332773 -76.898431 
L 105.278387 -76.373118 
L 106.236106 -75.847804 
L 107.23054 -75.32249 
L 108.305764 -74.797177 
L 109.508565 -74.271863 
L 110.865495 -73.74655 
L 112.359713 -73.221236 
L 113.913932 -72.695923 
L 115.385107 -72.170609 
L 116.575279 -71.645296 
L 117.260783 -71.119982 
L 117.23762 -70.594669 
L 116.374125 -70.069355 
L 114.655519 -69.544042 
L 112.203174 -69.018728 
L 109.25757 -68.493414 
L 106.127208 -67.968101 
L 103.119671 -67.442787 
L 100.4783 -66.917474 
L 98.3443 -66.39216 
L 96.752104 -65.866847 
L 95.652243 -65.341533 
L 94.947595 -64.81622 
L 94.528385 -64.290906 
z
" style="stroke: #3f3f3f; stroke-width: 1.5"/>
    </defs>
    <g clip-path="url(#p619adc01bd)">
     <use xlink:href="#m7d2d565866" x="0" y="352.15625" style="fill: #e1812c; stroke: #3f3f3f; stroke-width: 1.5"/>
    </g>
   </g>
   <g id="PolyCollection_3">
    <defs>
     <path id="m155ab3dc2f" d="M 194.672005 -54.175756 
L 193.306489 -54.175756 
L 191.493836 -56.971794 
L 188.165035 -59.767832 
L 182.915216 -62.56387 
L 175.856266 -65.359908 
L 167.88544 -68.155946 
L 160.589759 -70.951984 
L 155.713105 -73.748022 
L 154.43447 -76.54406 
L 156.87633 -79.340098 
L 162.120054 -82.136136 
L 168.675398 -84.932174 
L 175.09856 -87.728212 
L 180.435014 -90.52425 
L 184.337741 -93.320288 
L 186.922046 -96.116326 
L 188.525766 -98.912364 
L 189.515569 -101.708402 
L 190.186798 -104.504441 
L 190.73495 -107.300479 
L 191.261876 -110.096517 
L 191.794091 -112.892555 
L 192.305513 -115.688593 
L 192.74398 -118.484631 
L 193.061106 -121.280669 
L 193.239404 -124.076707 
L 193.305197 -126.872745 
L 193.319056 -129.668783 
L 193.348023 -132.464821 
L 193.435515 -135.260859 
L 193.585341 -138.056897 
L 193.766176 -140.852935 
L 193.931243 -143.648973 
L 194.041999 -146.445011 
L 194.08503 -149.241049 
L 194.075146 -152.037087 
L 194.043761 -154.833125 
L 194.019527 -157.629164 
L 194.014099 -160.425202 
L 194.022824 -163.22124 
L 194.037944 -166.017278 
L 194.060894 -168.813316 
L 194.102131 -171.609354 
L 194.169733 -174.405392 
L 194.258568 -177.20143 
L 194.350436 -179.997468 
L 194.42504 -182.793506 
L 194.472539 -185.589544 
L 194.498 -188.385582 
L 194.515382 -191.18162 
L 194.536904 -193.977658 
L 194.566047 -196.773696 
L 194.59804 -199.569734 
L 194.625096 -202.365772 
L 194.641056 -205.16181 
L 194.642584 -207.957848 
L 194.628167 -210.753886 
L 194.597728 -213.549925 
L 194.554014 -216.345963 
L 194.504304 -219.142001 
L 194.460014 -221.938039 
L 194.433284 -224.734077 
L 194.432078 -227.530115 
L 194.456544 -230.326153 
L 194.498673 -233.122191 
L 194.545386 -235.918229 
L 194.583354 -238.714267 
L 194.603265 -241.510305 
L 194.60223 -244.306343 
L 194.58435 -247.102381 
L 194.559601 -249.898419 
L 194.540543 -252.694457 
L 194.537077 -255.490495 
L 194.551803 -258.286533 
L 194.579338 -261.082571 
L 194.610233 -263.878609 
L 194.636407 -266.674648 
L 194.654272 -269.470686 
L 194.664369 -272.266724 
L 194.669163 -275.062762 
L 194.67109 -277.8588 
L 194.67175 -280.654838 
L 194.671938 -283.450876 
L 194.671963 -286.246914 
L 194.671872 -289.042952 
L 194.671499 -291.83899 
L 194.670321 -294.635028 
L 194.667154 -297.431066 
L 194.659927 -300.227104 
L 194.646013 -303.023142 
L 194.623654 -305.81918 
L 194.594257 -308.615218 
L 194.563935 -311.411256 
L 194.542153 -314.207294 
L 194.537135 -317.003332 
L 194.550915 -319.799371 
L 194.578027 -322.595409 
L 194.608957 -325.391447 
L 194.635442 -328.187485 
L 194.653676 -330.983523 
L 194.672005 -330.983523 
L 194.672005 -330.983523 
L 194.672005 -328.187485 
L 194.672005 -325.391447 
L 194.672005 -322.595409 
L 194.672005 -319.799371 
L 194.672005 -317.003332 
L 194.672005 -314.207294 
L 194.672005 -311.411256 
L 194.672005 -308.615218 
L 194.672005 -305.81918 
L 194.672005 -303.023142 
L 194.672005 -300.227104 
L 194.672005 -297.431066 
L 194.672005 -294.635028 
L 194.672005 -291.83899 
L 194.672005 -289.042952 
L 194.672005 -286.246914 
L 194.672005 -283.450876 
L 194.672005 -280.654838 
L 194.672005 -277.8588 
L 194.672005 -275.062762 
L 194.672005 -272.266724 
L 194.672005 -269.470686 
L 194.672005 -266.674648 
L 194.672005 -263.878609 
L 194.672005 -261.082571 
L 194.672005 -258.286533 
L 194.672005 -255.490495 
L 194.672005 -252.694457 
L 194.672005 -249.898419 
L 194.672005 -247.102381 
L 194.672005 -244.306343 
L 194.672005 -241.510305 
L 194.672005 -238.714267 
L 194.672005 -235.918229 
L 194.672005 -233.122191 
L 194.672005 -230.326153 
L 194.672005 -227.530115 
L 194.672005 -224.734077 
L 194.672005 -221.938039 
L 194.672005 -219.142001 
L 194.672005 -216.345963 
L 194.672005 -213.549925 
L 194.672005 -210.753886 
L 194.672005 -207.957848 
L 194.672005 -205.16181 
L 194.672005 -202.365772 
L 194.672005 -199.569734 
L 194.672005 -196.773696 
L 194.672005 -193.977658 
L 194.672005 -191.18162 
L 194.672005 -188.385582 
L 194.672005 -185.589544 
L 194.672005 -182.793506 
L 194.672005 -179.997468 
L 194.672005 -177.20143 
L 194.672005 -174.405392 
L 194.672005 -171.609354 
L 194.672005 -168.813316 
L 194.672005 -166.017278 
L 194.672005 -163.22124 
L 194.672005 -160.425202 
L 194.672005 -157.629164 
L 194.672005 -154.833125 
L 194.672005 -152.037087 
L 194.672005 -149.241049 
L 194.672005 -146.445011 
L 194.672005 -143.648973 
L 194.672005 -140.852935 
L 194.672005 -138.056897 
L 194.672005 -135.260859 
L 194.672005 -132.464821 
L 194.672005 -129.668783 
L 194.672005 -126.872745 
L 194.672005 -124.076707 
L 194.672005 -121.280669 
L 194.672005 -118.484631 
L 194.672005 -115.688593 
L 194.672005 -112.892555 
L 194.672005 -110.096517 
L 194.672005 -107.300479 
L 194.672005 -104.504441 
L 194.672005 -101.708402 
L 194.672005 -98.912364 
L 194.672005 -96.116326 
L 194.672005 -93.320288 
L 194.672005 -90.52425 
L 194.672005 -87.728212 
L 194.672005 -84.932174 
L 194.672005 -82.136136 
L 194.672005 -79.340098 
L 194.672005 -76.54406 
L 194.672005 -73.748022 
L 194.672005 -70.951984 
L 194.672005 -68.155946 
L 194.672005 -65.359908 
L 194.672005 -62.56387 
L 194.672005 -59.767832 
L 194.672005 -56.971794 
L 194.672005 -54.175756 
z
" style="stroke: #3f3f3f; stroke-width: 1.5"/>
    </defs>
    <g clip-path="url(#p619adc01bd)">
     <use xlink:href="#m155ab3dc2f" x="0" y="352.15625" style="fill: #3274a1; stroke: #3f3f3f; stroke-width: 1.5"/>
    </g>
   </g>
   <g id="PolyCollection_4">
    <defs>
     <path id="m77ea75c1a8" d="M 195.431998 -51.825717 
L 194.672005 -51.825717 
L 194.672005 -54.310208 
L 194.672005 -56.794699 
L 194.672005 -59.27919 
L 194.672005 -61.763681 
L 194.672005 -64.248172 
L 194.672005 -66.732663 
L 194.672005 -69.217154 
L 194.672005 -71.701645 
L 194.672005 -74.186136 
L 194.672005 -76.670627 
L 194.672005 -79.155117 
L 194.672005 -81.639608 
L 194.672005 -84.124099 
L 194.672005 -86.60859 
L 194.672005 -89.093081 
L 194.672005 -91.577572 
L 194.672005 -94.062063 
L 194.672005 -96.546554 
L 194.672005 -99.031045 
L 194.672005 -101.515536 
L 194.672005 -104.000027 
L 194.672005 -106.484518 
L 194.672005 -108.969009 
L 194.672005 -111.4535 
L 194.672005 -113.937991 
L 194.672005 -116.422482 
L 194.672005 -118.906973 
L 194.672005 -121.391464 
L 194.672005 -123.875954 
L 194.672005 -126.360445 
L 194.672005 -128.844936 
L 194.672005 -131.329427 
L 194.672005 -133.813918 
L 194.672005 -136.298409 
L 194.672005 -138.7829 
L 194.672005 -141.267391 
L 194.672005 -143.751882 
L 194.672005 -146.236373 
L 194.672005 -148.720864 
L 194.672005 -151.205355 
L 194.672005 -153.689846 
L 194.672005 -156.174337 
L 194.672005 -158.658828 
L 194.672005 -161.143319 
L 194.672005 -163.62781 
L 194.672005 -166.112301 
L 194.672005 -168.596792 
L 194.672005 -171.081282 
L 194.672005 -173.565773 
L 194.672005 -176.050264 
L 194.672005 -178.534755 
L 194.672005 -181.019246 
L 194.672005 -183.503737 
L 194.672005 -185.988228 
L 194.672005 -188.472719 
L 194.672005 -190.95721 
L 194.672005 -193.441701 
L 194.672005 -195.926192 
L 194.672005 -198.410683 
L 194.672005 -200.895174 
L 194.672005 -203.379665 
L 194.672005 -205.864156 
L 194.672005 -208.348647 
L 194.672005 -210.833138 
L 194.672005 -213.317629 
L 194.672005 -215.802119 
L 194.672005 -218.28661 
L 194.672005 -220.771101 
L 194.672005 -223.255592 
L 194.672005 -225.740083 
L 194.672005 -228.224574 
L 194.672005 -230.709065 
L 194.672005 -233.193556 
L 194.672005 -235.678047 
L 194.672005 -238.162538 
L 194.672005 -240.647029 
L 194.672005 -243.13152 
L 194.672005 -245.616011 
L 194.672005 -248.100502 
L 194.672005 -250.584993 
L 194.672005 -253.069484 
L 194.672005 -255.553975 
L 194.672005 -258.038466 
L 194.672005 -260.522956 
L 194.672005 -263.007447 
L 194.672005 -265.491938 
L 194.672005 -267.976429 
L 194.672005 -270.46092 
L 194.672005 -272.945411 
L 194.672005 -275.429902 
L 194.672005 -277.914393 
L 194.672005 -280.398884 
L 194.672005 -282.883375 
L 194.672005 -285.367866 
L 194.672005 -287.852357 
L 194.672005 -290.336848 
L 194.672005 -292.821339 
L 194.672005 -295.30583 
L 194.672005 -297.790321 
L 194.689841 -297.790321 
L 194.689841 -297.790321 
L 194.704687 -295.30583 
L 194.72571 -292.821339 
L 194.751149 -290.336848 
L 194.776601 -287.852357 
L 194.795973 -285.367866 
L 194.803769 -282.883375 
L 194.797602 -280.398884 
L 194.779369 -277.914393 
L 194.754311 -275.429902 
L 194.72859 -272.945411 
L 194.706892 -270.46092 
L 194.691295 -267.976429 
L 194.681572 -265.491938 
L 194.676266 -263.007447 
L 194.673733 -260.522956 
L 194.672729 -258.038466 
L 194.672582 -255.553975 
L 194.673181 -253.069484 
L 194.674967 -250.584993 
L 194.67898 -248.100502 
L 194.686829 -245.616011 
L 194.700389 -243.13152 
L 194.721059 -240.647029 
L 194.748791 -238.162538 
L 194.781441 -235.678047 
L 194.815068 -233.193556 
L 194.845283 -230.709065 
L 194.868893 -228.224574 
L 194.884821 -225.740083 
L 194.893832 -223.255592 
L 194.897534 -220.771101 
L 194.897471 -218.28661 
L 194.894675 -215.802119 
L 194.88964 -213.317629 
L 194.882728 -210.833138 
L 194.875175 -208.348647 
L 194.870321 -205.864156 
L 194.874042 -203.379665 
L 194.893423 -200.895174 
L 194.933883 -198.410683 
L 194.996174 -195.926192 
L 195.074977 -193.441701 
L 195.160027 -190.95721 
L 195.239488 -188.472719 
L 195.30423 -185.988228 
L 195.351135 -183.503737 
L 195.383979 -181.019246 
L 195.411707 -178.534755 
L 195.445023 -176.050264 
L 195.492408 -173.565773 
L 195.556268 -171.081282 
L 195.630328 -168.596792 
L 195.700032 -166.112301 
L 195.74715 -163.62781 
L 195.757287 -161.143319 
L 195.726485 -158.658828 
L 195.663256 -156.174337 
L 195.585137 -153.689846 
L 195.511979 -151.205355 
L 195.459322 -148.720864 
L 195.434353 -146.236373 
L 195.435449 -143.751882 
L 195.45515 -141.267391 
L 195.485379 -138.7829 
L 195.522637 -136.298409 
L 195.570515 -133.813918 
L 195.638112 -131.329427 
L 195.735566 -128.844936 
L 195.869984 -126.360445 
L 196.044742 -123.875954 
L 196.262682 -121.391464 
L 196.530982 -118.906973 
L 196.864605 -116.422482 
L 197.286602 -113.937991 
L 197.826252 -111.4535 
L 198.518353 -108.969009 
L 199.407304 -106.484518 
L 200.556402 -104.000027 
L 202.056454 -101.515536 
L 204.022255 -99.031045 
L 206.566665 -96.546554 
L 209.751999 -94.062063 
L 213.531862 -91.577572 
L 217.70486 -89.093081 
L 221.900881 -86.60859 
L 225.613665 -84.124099 
L 228.283325 -81.639608 
L 229.418111 -79.155117 
L 228.725827 -76.670627 
L 226.210369 -74.186136 
L 222.191649 -71.701645 
L 217.233532 -69.217154 
L 212.002635 -66.732663 
L 207.109237 -64.248172 
L 202.984751 -61.763681 
L 199.829261 -59.27919 
L 197.631409 -56.794699 
L 196.23703 -54.310208 
L 195.431998 -51.825717 
z
" style="stroke: #3f3f3f; stroke-width: 1.5"/>
    </defs>
    <g clip-path="url(#p619adc01bd)">
     <use xlink:href="#m77ea75c1a8" x="0" y="352.15625" style="fill: #e1812c; stroke: #3f3f3f; stroke-width: 1.5"/>
    </g>
   </g>
   <g id="PolyCollection_5">
    <defs>
     <path id="mcf6026db7c" d="M 295.265842 -65.77671 
L 294.332055 -65.77671 
L 293.734027 -66.02936 
L 292.854201 -66.28201 
L 291.616976 -66.53466 
L 289.95244 -66.787311 
L 287.808015 -67.039961 
L 285.16078 -67.292611 
L 282.028472 -67.545261 
L 278.477116 -67.797911 
L 274.623543 -68.050562 
L 270.631529 -68.303212 
L 266.700991 -68.555862 
L 263.050679 -68.808512 
L 259.896043 -69.061162 
L 257.425318 -69.313812 
L 255.777801 -69.566463 
L 255.028307 -69.819113 
L 255.180628 -70.071763 
L 256.17075 -70.324413 
L 257.878417 -70.577063 
L 260.144037 -70.829714 
L 262.787552 -71.082364 
L 265.626463 -71.335014 
L 268.491292 -71.587664 
L 271.237771 -71.840314 
L 273.755493 -72.092965 
L 275.97284 -72.345615 
L 277.857925 -72.598265 
L 279.415378 -72.850915 
L 280.67929 -73.103565 
L 281.703343 -73.356216 
L 282.549772 -73.608866 
L 283.279112 -73.861516 
L 283.942392 -74.114166 
L 284.576752 -74.366816 
L 285.204488 -74.619467 
L 285.834806 -74.872117 
L 286.467092 -75.124767 
L 287.094624 -75.377417 
L 287.70794 -75.630067 
L 288.297504 -75.882718 
L 288.855565 -76.135368 
L 289.377171 -76.388018 
L 289.860295 -76.640668 
L 290.305055 -76.893318 
L 290.712221 -77.145968 
L 291.08147 -77.398619 
L 291.4101 -77.651269 
L 291.692862 -77.903919 
L 291.923278 -78.156569 
L 292.096203 -78.409219 
L 292.210844 -78.66187 
L 292.273124 -78.91452 
L 292.296389 -79.16717 
L 292.300026 -79.41982 
L 292.306281 -79.67247 
L 292.336181 -79.925121 
L 292.405731 -80.177771 
L 292.523321 -80.430421 
L 292.688824 -80.683071 
L 292.894301 -80.935721 
L 293.125901 -81.188372 
L 293.366407 -81.441022 
L 293.597972 -81.693672 
L 293.804684 -81.946322 
L 293.974694 -82.198972 
L 294.101667 -82.451623 
L 294.185395 -82.704273 
L 294.231464 -82.956923 
L 294.250025 -83.209573 
L 294.253859 -83.462223 
L 294.256045 -83.714874 
L 294.267653 -83.967524 
L 294.295905 -84.220174 
L 294.343206 -84.472824 
L 294.40724 -84.725474 
L 294.482106 -84.978124 
L 294.560167 -85.230775 
L 294.634057 -85.483425 
L 294.698302 -85.736075 
L 294.750132 -85.988725 
L 294.789387 -86.241375 
L 294.817754 -86.494026 
L 294.837747 -86.746676 
L 294.851882 -86.999326 
L 294.862306 -87.251976 
L 294.87087 -87.504626 
L 294.879421 -87.757277 
L 294.890006 -88.009927 
L 294.90477 -88.262577 
L 294.925549 -88.515227 
L 294.953328 -88.767877 
L 294.987826 -89.020528 
L 295.027427 -89.273178 
L 295.069503 -89.525828 
L 295.111013 -89.778478 
L 295.149169 -90.031128 
L 295.18195 -90.283779 
L 295.208344 -90.536429 
L 295.228305 -90.789079 
L 295.265842 -90.789079 
L 295.265842 -90.789079 
L 295.265842 -90.536429 
L 295.265842 -90.283779 
L 295.265842 -90.031128 
L 295.265842 -89.778478 
L 295.265842 -89.525828 
L 295.265842 -89.273178 
L 295.265842 -89.020528 
L 295.265842 -88.767877 
L 295.265842 -88.515227 
L 295.265842 -88.262577 
L 295.265842 -88.009927 
L 295.265842 -87.757277 
L 295.265842 -87.504626 
L 295.265842 -87.251976 
L 295.265842 -86.999326 
L 295.265842 -86.746676 
L 295.265842 -86.494026 
L 295.265842 -86.241375 
L 295.265842 -85.988725 
L 295.265842 -85.736075 
L 295.265842 -85.483425 
L 295.265842 -85.230775 
L 295.265842 -84.978124 
L 295.265842 -84.725474 
L 295.265842 -84.472824 
L 295.265842 -84.220174 
L 295.265842 -83.967524 
L 295.265842 -83.714874 
L 295.265842 -83.462223 
L 295.265842 -83.209573 
L 295.265842 -82.956923 
L 295.265842 -82.704273 
L 295.265842 -82.451623 
L 295.265842 -82.198972 
L 295.265842 -81.946322 
L 295.265842 -81.693672 
L 295.265842 -81.441022 
L 295.265842 -81.188372 
L 295.265842 -80.935721 
L 295.265842 -80.683071 
L 295.265842 -80.430421 
L 295.265842 -80.177771 
L 295.265842 -79.925121 
L 295.265842 -79.67247 
L 295.265842 -79.41982 
L 295.265842 -79.16717 
L 295.265842 -78.91452 
L 295.265842 -78.66187 
L 295.265842 -78.409219 
L 295.265842 -78.156569 
L 295.265842 -77.903919 
L 295.265842 -77.651269 
L 295.265842 -77.398619 
L 295.265842 -77.145968 
L 295.265842 -76.893318 
L 295.265842 -76.640668 
L 295.265842 -76.388018 
L 295.265842 -76.135368 
L 295.265842 -75.882718 
L 295.265842 -75.630067 
L 295.265842 -75.377417 
L 295.265842 -75.124767 
L 295.265842 -74.872117 
L 295.265842 -74.619467 
L 295.265842 -74.366816 
L 295.265842 -74.114166 
L 295.265842 -73.861516 
L 295.265842 -73.608866 
L 295.265842 -73.356216 
L 295.265842 -73.103565 
L 295.265842 -72.850915 
L 295.265842 -72.598265 
L 295.265842 -72.345615 
L 295.265842 -72.092965 
L 295.265842 -71.840314 
L 295.265842 -71.587664 
L 295.265842 -71.335014 
L 295.265842 -71.082364 
L 295.265842 -70.829714 
L 295.265842 -70.577063 
L 295.265842 -70.324413 
L 295.265842 -70.071763 
L 295.265842 -69.819113 
L 295.265842 -69.566463 
L 295.265842 -69.313812 
L 295.265842 -69.061162 
L 295.265842 -68.808512 
L 295.265842 -68.555862 
L 295.265842 -68.303212 
L 295.265842 -68.050562 
L 295.265842 -67.797911 
L 295.265842 -67.545261 
L 295.265842 -67.292611 
L 295.265842 -67.039961 
L 295.265842 -66.787311 
L 295.265842 -66.53466 
L 295.265842 -66.28201 
L 295.265842 -66.02936 
L 295.265842 -65.77671 
z
" style="stroke: #3f3f3f; stroke-width: 1.5"/>
    </defs>
    <g clip-path="url(#p619adc01bd)">
     <use xlink:href="#mcf6026db7c" x="0" y="352.15625" style="fill: #3274a1; stroke: #3f3f3f; stroke-width: 1.5"/>
    </g>
   </g>
   <g id="PolyCollection_6">
    <defs>
     <path id="m0236fe378e" d="M 295.661978 -51.528977 
L 295.265842 -51.528977 
L 295.265842 -54.142998 
L 295.265842 -56.757018 
L 295.265842 -59.371038 
L 295.265842 -61.985059 
L 295.265842 -64.599079 
L 295.265842 -67.2131 
L 295.265842 -69.82712 
L 295.265842 -72.44114 
L 295.265842 -75.055161 
L 295.265842 -77.669181 
L 295.265842 -80.283201 
L 295.265842 -82.897222 
L 295.265842 -85.511242 
L 295.265842 -88.125262 
L 295.265842 -90.739283 
L 295.265842 -93.353303 
L 295.265842 -95.967324 
L 295.265842 -98.581344 
L 295.265842 -101.195364 
L 295.265842 -103.809385 
L 295.265842 -106.423405 
L 295.265842 -109.037425 
L 295.265842 -111.651446 
L 295.265842 -114.265466 
L 295.265842 -116.879487 
L 295.265842 -119.493507 
L 295.265842 -122.107527 
L 295.265842 -124.721548 
L 295.265842 -127.335568 
L 295.265842 -129.949588 
L 295.265842 -132.563609 
L 295.265842 -135.177629 
L 295.265842 -137.79165 
L 295.265842 -140.40567 
L 295.265842 -143.01969 
L 295.265842 -145.633711 
L 295.265842 -148.247731 
L 295.265842 -150.861751 
L 295.265842 -153.475772 
L 295.265842 -156.089792 
L 295.265842 -158.703812 
L 295.265842 -161.317833 
L 295.265842 -163.931853 
L 295.265842 -166.545874 
L 295.265842 -169.159894 
L 295.265842 -171.773914 
L 295.265842 -174.387935 
L 295.265842 -177.001955 
L 295.265842 -179.615975 
L 295.265842 -182.229996 
L 295.265842 -184.844016 
L 295.265842 -187.458037 
L 295.265842 -190.072057 
L 295.265842 -192.686077 
L 295.265842 -195.300098 
L 295.265842 -197.914118 
L 295.265842 -200.528138 
L 295.265842 -203.142159 
L 295.265842 -205.756179 
L 295.265842 -208.3702 
L 295.265842 -210.98422 
L 295.265842 -213.59824 
L 295.265842 -216.212261 
L 295.265842 -218.826281 
L 295.265842 -221.440301 
L 295.265842 -224.054322 
L 295.265842 -226.668342 
L 295.265842 -229.282363 
L 295.265842 -231.896383 
L 295.265842 -234.510403 
L 295.265842 -237.124424 
L 295.265842 -239.738444 
L 295.265842 -242.352464 
L 295.265842 -244.966485 
L 295.265842 -247.580505 
L 295.265842 -250.194525 
L 295.265842 -252.808546 
L 295.265842 -255.422566 
L 295.265842 -258.036587 
L 295.265842 -260.650607 
L 295.265842 -263.264627 
L 295.265842 -265.878648 
L 295.265842 -268.492668 
L 295.265842 -271.106688 
L 295.265842 -273.720709 
L 295.265842 -276.334729 
L 295.265842 -278.94875 
L 295.265842 -281.56277 
L 295.265842 -284.17679 
L 295.265842 -286.790811 
L 295.265842 -289.404831 
L 295.265842 -292.018851 
L 295.265842 -294.632872 
L 295.265842 -297.246892 
L 295.265842 -299.860913 
L 295.265842 -302.474933 
L 295.265842 -305.088953 
L 295.265842 -307.702974 
L 295.265842 -310.316994 
L 295.271022 -310.316994 
L 295.271022 -310.316994 
L 295.275212 -307.702974 
L 295.281117 -305.088953 
L 295.288289 -302.474933 
L 295.295573 -299.860913 
L 295.301336 -297.246892 
L 295.304036 -294.632872 
L 295.302888 -292.018851 
L 295.298229 -289.404831 
L 295.291363 -286.790811 
L 295.283969 -284.17679 
L 295.277447 -281.56277 
L 295.272539 -278.94875 
L 295.269325 -276.334729 
L 295.267475 -273.720709 
L 295.266532 -271.106688 
L 295.266105 -268.492668 
L 295.265932 -265.878648 
L 295.26587 -263.264627 
L 295.26585 -260.650607 
L 295.265844 -258.036587 
L 295.265842 -255.422566 
L 295.265842 -252.808546 
L 295.265842 -250.194525 
L 295.265842 -247.580505 
L 295.265842 -244.966485 
L 295.265844 -242.352464 
L 295.265849 -239.738444 
L 295.265868 -237.124424 
L 295.265925 -234.510403 
L 295.266087 -231.896383 
L 295.266492 -229.282363 
L 295.267396 -226.668342 
L 295.269197 -224.054322 
L 295.272394 -221.440301 
L 295.277427 -218.826281 
L 295.284446 -216.212261 
L 295.293088 -213.59824 
L 295.302467 -210.98422 
L 295.31146 -208.3702 
L 295.319204 -205.756179 
L 295.325543 -203.142159 
L 295.331209 -200.528138 
L 295.3377 -197.914118 
L 295.34695 -195.300098 
L 295.36079 -192.686077 
L 295.380127 -190.072057 
L 295.403947 -187.458037 
L 295.428698 -184.844016 
L 295.448803 -182.229996 
L 295.458551 -179.615975 
L 295.454621 -177.001955 
L 295.437766 -174.387935 
L 295.412559 -171.773914 
L 295.385288 -169.159894 
L 295.361323 -166.545874 
L 295.343536 -163.931853 
L 295.332466 -161.317833 
L 295.327693 -158.703812 
L 295.329156 -156.089792 
L 295.337451 -153.475772 
L 295.353006 -150.861751 
L 295.374916 -148.247731 
L 295.400424 -145.633711 
L 295.425588 -143.01969 
L 295.446843 -140.40567 
L 295.46265 -137.79165 
L 295.474344 -135.177629 
L 295.485789 -132.563609 
L 295.502067 -129.949588 
L 295.527763 -127.335568 
L 295.565467 -124.721548 
L 295.614898 -122.107527 
L 295.672872 -119.493507 
L 295.734186 -116.879487 
L 295.793396 -114.265466 
L 295.847309 -111.651446 
L 295.897726 -109.037425 
L 295.953589 -106.423405 
L 296.031536 -103.809385 
L 296.154339 -101.195364 
L 296.347878 -98.581344 
L 296.638503 -95.967324 
L 297.052406 -93.353303 
L 297.615956 -90.739283 
L 298.352197 -88.125262 
L 299.26744 -85.511242 
L 300.326984 -82.897222 
L 301.430162 -80.283201 
L 302.404928 -77.669181 
L 303.040099 -75.055161 
L 303.154003 -72.44114 
L 302.671096 -69.82712 
L 301.66414 -67.2131 
L 300.334043 -64.599079 
L 298.935681 -61.985059 
L 297.68963 -59.371038 
L 296.723546 -56.757018 
L 296.063109 -54.142998 
L 295.661978 -51.528977 
z
" style="stroke: #3f3f3f; stroke-width: 1.5"/>
    </defs>
    <g clip-path="url(#p619adc01bd)">
     <use xlink:href="#m0236fe378e" x="0" y="352.15625" style="fill: #e1812c; stroke: #3f3f3f; stroke-width: 1.5"/>
    </g>
   </g>
   <g id="matplotlib.axis_1">
    <g id="xtick_1">
     <g id="line2d_1">
      <defs>
       <path id="ma17f924dec" d="M 0 0 
L 0 3.5 
" style="stroke: #000000; stroke-width: 0.8"/>
      </defs>
      <g>
       <use xlink:href="#ma17f924dec" x="94.078168" y="314.6" style="stroke: #000000; stroke-width: 0.8"/>
      </g>
     </g>
     <g id="text_1">
      <!-- burger -->
      <g transform="translate(77.460981 329.198437)scale(0.1 -0.1)">
       <defs>
        <path id="DejaVuSans-62" d="M 3116 1747 
Q 3116 2381 2855 2742 
Q 2594 3103 2138 3103 
Q 1681 3103 1420 2742 
Q 1159 2381 1159 1747 
Q 1159 1113 1420 752 
Q 1681 391 2138 391 
Q 2594 391 2855 752 
Q 3116 1113 3116 1747 
z
M 1159 2969 
Q 1341 3281 1617 3432 
Q 1894 3584 2278 3584 
Q 2916 3584 3314 3078 
Q 3713 2572 3713 1747 
Q 3713 922 3314 415 
Q 2916 -91 2278 -91 
Q 1894 -91 1617 61 
Q 1341 213 1159 525 
L 1159 0 
L 581 0 
L 581 4863 
L 1159 4863 
L 1159 2969 
z
" transform="scale(0.015625)"/>
        <path id="DejaVuSans-75" d="M 544 1381 
L 544 3500 
L 1119 3500 
L 1119 1403 
Q 1119 906 1312 657 
Q 1506 409 1894 409 
Q 2359 409 2629 706 
Q 2900 1003 2900 1516 
L 2900 3500 
L 3475 3500 
L 3475 0 
L 2900 0 
L 2900 538 
Q 2691 219 2414 64 
Q 2138 -91 1772 -91 
Q 1169 -91 856 284 
Q 544 659 544 1381 
z
M 1991 3584 
L 1991 3584 
z
" transform="scale(0.015625)"/>
        <path id="DejaVuSans-72" d="M 2631 2963 
Q 2534 3019 2420 3045 
Q 2306 3072 2169 3072 
Q 1681 3072 1420 2755 
Q 1159 2438 1159 1844 
L 1159 0 
L 581 0 
L 581 3500 
L 1159 3500 
L 1159 2956 
Q 1341 3275 1631 3429 
Q 1922 3584 2338 3584 
Q 2397 3584 2469 3576 
Q 2541 3569 2628 3553 
L 2631 2963 
z
" transform="scale(0.015625)"/>
        <path id="DejaVuSans-67" d="M 2906 1791 
Q 2906 2416 2648 2759 
Q 2391 3103 1925 3103 
Q 1463 3103 1205 2759 
Q 947 2416 947 1791 
Q 947 1169 1205 825 
Q 1463 481 1925 481 
Q 2391 481 2648 825 
Q 2906 1169 2906 1791 
z
M 3481 434 
Q 3481 -459 3084 -895 
Q 2688 -1331 1869 -1331 
Q 1566 -1331 1297 -1286 
Q 1028 -1241 775 -1147 
L 775 -588 
Q 1028 -725 1275 -790 
Q 1522 -856 1778 -856 
Q 2344 -856 2625 -561 
Q 2906 -266 2906 331 
L 2906 616 
Q 2728 306 2450 153 
Q 2172 0 1784 0 
Q 1141 0 747 490 
Q 353 981 353 1791 
Q 353 2603 747 3093 
Q 1141 3584 1784 3584 
Q 2172 3584 2450 3431 
Q 2728 3278 2906 2969 
L 2906 3500 
L 3481 3500 
L 3481 434 
z
" transform="scale(0.015625)"/>
        <path id="DejaVuSans-65" d="M 3597 1894 
L 3597 1613 
L 953 1613 
Q 991 1019 1311 708 
Q 1631 397 2203 397 
Q 2534 397 2845 478 
Q 3156 559 3463 722 
L 3463 178 
Q 3153 47 2828 -22 
Q 2503 -91 2169 -91 
Q 1331 -91 842 396 
Q 353 884 353 1716 
Q 353 2575 817 3079 
Q 1281 3584 2069 3584 
Q 2775 3584 3186 3129 
Q 3597 2675 3597 1894 
z
M 3022 2063 
Q 3016 2534 2758 2815 
Q 2500 3097 2075 3097 
Q 1594 3097 1305 2825 
Q 1016 2553 972 2059 
L 3022 2063 
z
" transform="scale(0.015625)"/>
       </defs>
       <use xlink:href="#DejaVuSans-62"/>
       <use xlink:href="#DejaVuSans-75" x="63.476562"/>
       <use xlink:href="#DejaVuSans-72" x="126.855469"/>
       <use xlink:href="#DejaVuSans-67" x="166.21875"/>
       <use xlink:href="#DejaVuSans-65" x="229.695312"/>
       <use xlink:href="#DejaVuSans-72" x="291.21875"/>
      </g>
     </g>
    </g>
    <g id="xtick_2">
     <g id="line2d_2">
      <g>
       <use xlink:href="#ma17f924dec" x="194.672005" y="314.6" style="stroke: #000000; stroke-width: 0.8"/>
      </g>
     </g>
     <g id="text_2">
      <!-- jackal -->
      <g transform="translate(180.208724 329.198437)scale(0.1 -0.1)">
       <defs>
        <path id="DejaVuSans-6a" d="M 603 3500 
L 1178 3500 
L 1178 -63 
Q 1178 -731 923 -1031 
Q 669 -1331 103 -1331 
L -116 -1331 
L -116 -844 
L 38 -844 
Q 366 -844 484 -692 
Q 603 -541 603 -63 
L 603 3500 
z
M 603 4863 
L 1178 4863 
L 1178 4134 
L 603 4134 
L 603 4863 
z
" transform="scale(0.015625)"/>
        <path id="DejaVuSans-61" d="M 2194 1759 
Q 1497 1759 1228 1600 
Q 959 1441 959 1056 
Q 959 750 1161 570 
Q 1363 391 1709 391 
Q 2188 391 2477 730 
Q 2766 1069 2766 1631 
L 2766 1759 
L 2194 1759 
z
M 3341 1997 
L 3341 0 
L 2766 0 
L 2766 531 
Q 2569 213 2275 61 
Q 1981 -91 1556 -91 
Q 1019 -91 701 211 
Q 384 513 384 1019 
Q 384 1609 779 1909 
Q 1175 2209 1959 2209 
L 2766 2209 
L 2766 2266 
Q 2766 2663 2505 2880 
Q 2244 3097 1772 3097 
Q 1472 3097 1187 3025 
Q 903 2953 641 2809 
L 641 3341 
Q 956 3463 1253 3523 
Q 1550 3584 1831 3584 
Q 2591 3584 2966 3190 
Q 3341 2797 3341 1997 
z
" transform="scale(0.015625)"/>
        <path id="DejaVuSans-63" d="M 3122 3366 
L 3122 2828 
Q 2878 2963 2633 3030 
Q 2388 3097 2138 3097 
Q 1578 3097 1268 2742 
Q 959 2388 959 1747 
Q 959 1106 1268 751 
Q 1578 397 2138 397 
Q 2388 397 2633 464 
Q 2878 531 3122 666 
L 3122 134 
Q 2881 22 2623 -34 
Q 2366 -91 2075 -91 
Q 1284 -91 818 406 
Q 353 903 353 1747 
Q 353 2603 823 3093 
Q 1294 3584 2113 3584 
Q 2378 3584 2631 3529 
Q 2884 3475 3122 3366 
z
" transform="scale(0.015625)"/>
        <path id="DejaVuSans-6b" d="M 581 4863 
L 1159 4863 
L 1159 1991 
L 2875 3500 
L 3609 3500 
L 1753 1863 
L 3688 0 
L 2938 0 
L 1159 1709 
L 1159 0 
L 581 0 
L 581 4863 
z
" transform="scale(0.015625)"/>
        <path id="DejaVuSans-6c" d="M 603 4863 
L 1178 4863 
L 1178 0 
L 603 0 
L 603 4863 
z
" transform="scale(0.015625)"/>
       </defs>
       <use xlink:href="#DejaVuSans-6a"/>
       <use xlink:href="#DejaVuSans-61" x="27.783203"/>
       <use xlink:href="#DejaVuSans-63" x="89.0625"/>
       <use xlink:href="#DejaVuSans-6b" x="144.042969"/>
       <use xlink:href="#DejaVuSans-61" x="200.203125"/>
       <use xlink:href="#DejaVuSans-6c" x="261.482422"/>
      </g>
     </g>
    </g>
    <g id="xtick_3">
     <g id="line2d_3">
      <g>
       <use xlink:href="#ma17f924dec" x="295.265842" y="314.6" style="stroke: #000000; stroke-width: 0.8"/>
      </g>
     </g>
     <g id="text_3">
      <!-- youbot -->
      <g transform="translate(277.884592 329.198437)scale(0.1 -0.1)">
       <defs>
        <path id="DejaVuSans-79" d="M 2059 -325 
Q 1816 -950 1584 -1140 
Q 1353 -1331 966 -1331 
L 506 -1331 
L 506 -850 
L 844 -850 
Q 1081 -850 1212 -737 
Q 1344 -625 1503 -206 
L 1606 56 
L 191 3500 
L 800 3500 
L 1894 763 
L 2988 3500 
L 3597 3500 
L 2059 -325 
z
" transform="scale(0.015625)"/>
        <path id="DejaVuSans-6f" d="M 1959 3097 
Q 1497 3097 1228 2736 
Q 959 2375 959 1747 
Q 959 1119 1226 758 
Q 1494 397 1959 397 
Q 2419 397 2687 759 
Q 2956 1122 2956 1747 
Q 2956 2369 2687 2733 
Q 2419 3097 1959 3097 
z
M 1959 3584 
Q 2709 3584 3137 3096 
Q 3566 2609 3566 1747 
Q 3566 888 3137 398 
Q 2709 -91 1959 -91 
Q 1206 -91 779 398 
Q 353 888 353 1747 
Q 353 2609 779 3096 
Q 1206 3584 1959 3584 
z
" transform="scale(0.015625)"/>
        <path id="DejaVuSans-74" d="M 1172 4494 
L 1172 3500 
L 2356 3500 
L 2356 3053 
L 1172 3053 
L 1172 1153 
Q 1172 725 1289 603 
Q 1406 481 1766 481 
L 2356 481 
L 2356 0 
L 1766 0 
Q 1100 0 847 248 
Q 594 497 594 1153 
L 594 3053 
L 172 3053 
L 172 3500 
L 594 3500 
L 594 4494 
L 1172 4494 
z
" transform="scale(0.015625)"/>
       </defs>
       <use xlink:href="#DejaVuSans-79"/>
       <use xlink:href="#DejaVuSans-6f" x="59.179688"/>
       <use xlink:href="#DejaVuSans-75" x="120.361328"/>
       <use xlink:href="#DejaVuSans-62" x="183.740234"/>
       <use xlink:href="#DejaVuSans-6f" x="247.216797"/>
       <use xlink:href="#DejaVuSans-74" x="308.398438"/>
      </g>
     </g>
    </g>
    <g id="text_4">
     <!-- Robot -->
     <g transform="translate(180.169661 342.876562)scale(0.1 -0.1)">
      <defs>
       <path id="DejaVuSans-52" d="M 2841 2188 
Q 3044 2119 3236 1894 
Q 3428 1669 3622 1275 
L 4263 0 
L 3584 0 
L 2988 1197 
Q 2756 1666 2539 1819 
Q 2322 1972 1947 1972 
L 1259 1972 
L 1259 0 
L 628 0 
L 628 4666 
L 2053 4666 
Q 2853 4666 3247 4331 
Q 3641 3997 3641 3322 
Q 3641 2881 3436 2590 
Q 3231 2300 2841 2188 
z
M 1259 4147 
L 1259 2491 
L 2053 2491 
Q 2509 2491 2742 2702 
Q 2975 2913 2975 3322 
Q 2975 3731 2742 3939 
Q 2509 4147 2053 4147 
L 1259 4147 
z
" transform="scale(0.015625)"/>
      </defs>
      <use xlink:href="#DejaVuSans-52"/>
      <use xlink:href="#DejaVuSans-6f" x="64.982422"/>
      <use xlink:href="#DejaVuSans-62" x="126.164062"/>
      <use xlink:href="#DejaVuSans-6f" x="189.640625"/>
      <use xlink:href="#DejaVuSans-74" x="250.822266"/>
     </g>
    </g>
   </g>
   <g id="matplotlib.axis_2">
    <g id="ytick_1">
     <g id="line2d_4">
      <defs>
       <path id="mfa729ccb38" d="M 0 0 
L -3.5 0 
" style="stroke: #000000; stroke-width: 0.8"/>
      </defs>
      <g>
       <use xlink:href="#mfa729ccb38" x="43.78125" y="285.274678" style="stroke: #000000; stroke-width: 0.8"/>
      </g>
     </g>
     <g id="text_5">
      <!-- 0.0 -->
      <g transform="translate(20.878125 289.073897)scale(0.1 -0.1)">
       <defs>
        <path id="DejaVuSans-30" d="M 2034 4250 
Q 1547 4250 1301 3770 
Q 1056 3291 1056 2328 
Q 1056 1369 1301 889 
Q 1547 409 2034 409 
Q 2525 409 2770 889 
Q 3016 1369 3016 2328 
Q 3016 3291 2770 3770 
Q 2525 4250 2034 4250 
z
M 2034 4750 
Q 2819 4750 3233 4129 
Q 3647 3509 3647 2328 
Q 3647 1150 3233 529 
Q 2819 -91 2034 -91 
Q 1250 -91 836 529 
Q 422 1150 422 2328 
Q 422 3509 836 4129 
Q 1250 4750 2034 4750 
z
" transform="scale(0.015625)"/>
        <path id="DejaVuSans-2e" d="M 684 794 
L 1344 794 
L 1344 0 
L 684 0 
L 684 794 
z
" transform="scale(0.015625)"/>
       </defs>
       <use xlink:href="#DejaVuSans-30"/>
       <use xlink:href="#DejaVuSans-2e" x="63.623047"/>
       <use xlink:href="#DejaVuSans-30" x="95.410156"/>
      </g>
     </g>
    </g>
    <g id="ytick_2">
     <g id="line2d_5">
      <g>
       <use xlink:href="#mfa729ccb38" x="43.78125" y="227.894221" style="stroke: #000000; stroke-width: 0.8"/>
      </g>
     </g>
     <g id="text_6">
      <!-- 0.2 -->
      <g transform="translate(20.878125 231.69344)scale(0.1 -0.1)">
       <defs>
        <path id="DejaVuSans-32" d="M 1228 531 
L 3431 531 
L 3431 0 
L 469 0 
L 469 531 
Q 828 903 1448 1529 
Q 2069 2156 2228 2338 
Q 2531 2678 2651 2914 
Q 2772 3150 2772 3378 
Q 2772 3750 2511 3984 
Q 2250 4219 1831 4219 
Q 1534 4219 1204 4116 
Q 875 4013 500 3803 
L 500 4441 
Q 881 4594 1212 4672 
Q 1544 4750 1819 4750 
Q 2544 4750 2975 4387 
Q 3406 4025 3406 3419 
Q 3406 3131 3298 2873 
Q 3191 2616 2906 2266 
Q 2828 2175 2409 1742 
Q 1991 1309 1228 531 
z
" transform="scale(0.015625)"/>
       </defs>
       <use xlink:href="#DejaVuSans-30"/>
       <use xlink:href="#DejaVuSans-2e" x="63.623047"/>
       <use xlink:href="#DejaVuSans-32" x="95.410156"/>
      </g>
     </g>
    </g>
    <g id="ytick_3">
     <g id="line2d_6">
      <g>
       <use xlink:href="#mfa729ccb38" x="43.78125" y="170.513765" style="stroke: #000000; stroke-width: 0.8"/>
      </g>
     </g>
     <g id="text_7">
      <!-- 0.4 -->
      <g transform="translate(20.878125 174.312984)scale(0.1 -0.1)">
       <defs>
        <path id="DejaVuSans-34" d="M 2419 4116 
L 825 1625 
L 2419 1625 
L 2419 4116 
z
M 2253 4666 
L 3047 4666 
L 3047 1625 
L 3713 1625 
L 3713 1100 
L 3047 1100 
L 3047 0 
L 2419 0 
L 2419 1100 
L 313 1100 
L 313 1709 
L 2253 4666 
z
" transform="scale(0.015625)"/>
       </defs>
       <use xlink:href="#DejaVuSans-30"/>
       <use xlink:href="#DejaVuSans-2e" x="63.623047"/>
       <use xlink:href="#DejaVuSans-34" x="95.410156"/>
      </g>
     </g>
    </g>
    <g id="ytick_4">
     <g id="line2d_7">
      <g>
       <use xlink:href="#mfa729ccb38" x="43.78125" y="113.133309" style="stroke: #000000; stroke-width: 0.8"/>
      </g>
     </g>
     <g id="text_8">
      <!-- 0.6 -->
      <g transform="translate(20.878125 116.932527)scale(0.1 -0.1)">
       <defs>
        <path id="DejaVuSans-36" d="M 2113 2584 
Q 1688 2584 1439 2293 
Q 1191 2003 1191 1497 
Q 1191 994 1439 701 
Q 1688 409 2113 409 
Q 2538 409 2786 701 
Q 3034 994 3034 1497 
Q 3034 2003 2786 2293 
Q 2538 2584 2113 2584 
z
M 3366 4563 
L 3366 3988 
Q 3128 4100 2886 4159 
Q 2644 4219 2406 4219 
Q 1781 4219 1451 3797 
Q 1122 3375 1075 2522 
Q 1259 2794 1537 2939 
Q 1816 3084 2150 3084 
Q 2853 3084 3261 2657 
Q 3669 2231 3669 1497 
Q 3669 778 3244 343 
Q 2819 -91 2113 -91 
Q 1303 -91 875 529 
Q 447 1150 447 2328 
Q 447 3434 972 4092 
Q 1497 4750 2381 4750 
Q 2619 4750 2861 4703 
Q 3103 4656 3366 4563 
z
" transform="scale(0.015625)"/>
       </defs>
       <use xlink:href="#DejaVuSans-30"/>
       <use xlink:href="#DejaVuSans-2e" x="63.623047"/>
       <use xlink:href="#DejaVuSans-36" x="95.410156"/>
      </g>
     </g>
    </g>
    <g id="ytick_5">
     <g id="line2d_8">
      <g>
       <use xlink:href="#mfa729ccb38" x="43.78125" y="55.752852" style="stroke: #000000; stroke-width: 0.8"/>
      </g>
     </g>
     <g id="text_9">
      <!-- 0.8 -->
      <g transform="translate(20.878125 59.552071)scale(0.1 -0.1)">
       <defs>
        <path id="DejaVuSans-38" d="M 2034 2216 
Q 1584 2216 1326 1975 
Q 1069 1734 1069 1313 
Q 1069 891 1326 650 
Q 1584 409 2034 409 
Q 2484 409 2743 651 
Q 3003 894 3003 1313 
Q 3003 1734 2745 1975 
Q 2488 2216 2034 2216 
z
M 1403 2484 
Q 997 2584 770 2862 
Q 544 3141 544 3541 
Q 544 4100 942 4425 
Q 1341 4750 2034 4750 
Q 2731 4750 3128 4425 
Q 3525 4100 3525 3541 
Q 3525 3141 3298 2862 
Q 3072 2584 2669 2484 
Q 3125 2378 3379 2068 
Q 3634 1759 3634 1313 
Q 3634 634 3220 271 
Q 2806 -91 2034 -91 
Q 1263 -91 848 271 
Q 434 634 434 1313 
Q 434 1759 690 2068 
Q 947 2378 1403 2484 
z
M 1172 3481 
Q 1172 3119 1398 2916 
Q 1625 2713 2034 2713 
Q 2441 2713 2670 2916 
Q 2900 3119 2900 3481 
Q 2900 3844 2670 4047 
Q 2441 4250 2034 4250 
Q 1625 4250 1398 4047 
Q 1172 3844 1172 3481 
z
" transform="scale(0.015625)"/>
       </defs>
       <use xlink:href="#DejaVuSans-30"/>
       <use xlink:href="#DejaVuSans-2e" x="63.623047"/>
       <use xlink:href="#DejaVuSans-38" x="95.410156"/>
      </g>
     </g>
    </g>
    <g id="text_10">
     <!-- roughness -->
     <g transform="translate(14.798438 186.86875)rotate(-90)scale(0.1 -0.1)">
      <defs>
       <path id="DejaVuSans-68" d="M 3513 2113 
L 3513 0 
L 2938 0 
L 2938 2094 
Q 2938 2591 2744 2837 
Q 2550 3084 2163 3084 
Q 1697 3084 1428 2787 
Q 1159 2491 1159 1978 
L 1159 0 
L 581 0 
L 581 4863 
L 1159 4863 
L 1159 2956 
Q 1366 3272 1645 3428 
Q 1925 3584 2291 3584 
Q 2894 3584 3203 3211 
Q 3513 2838 3513 2113 
z
" transform="scale(0.015625)"/>
       <path id="DejaVuSans-6e" d="M 3513 2113 
L 3513 0 
L 2938 0 
L 2938 2094 
Q 2938 2591 2744 2837 
Q 2550 3084 2163 3084 
Q 1697 3084 1428 2787 
Q 1159 2491 1159 1978 
L 1159 0 
L 581 0 
L 581 3500 
L 1159 3500 
L 1159 2956 
Q 1366 3272 1645 3428 
Q 1925 3584 2291 3584 
Q 2894 3584 3203 3211 
Q 3513 2838 3513 2113 
z
" transform="scale(0.015625)"/>
       <path id="DejaVuSans-73" d="M 2834 3397 
L 2834 2853 
Q 2591 2978 2328 3040 
Q 2066 3103 1784 3103 
Q 1356 3103 1142 2972 
Q 928 2841 928 2578 
Q 928 2378 1081 2264 
Q 1234 2150 1697 2047 
L 1894 2003 
Q 2506 1872 2764 1633 
Q 3022 1394 3022 966 
Q 3022 478 2636 193 
Q 2250 -91 1575 -91 
Q 1294 -91 989 -36 
Q 684 19 347 128 
L 347 722 
Q 666 556 975 473 
Q 1284 391 1588 391 
Q 1994 391 2212 530 
Q 2431 669 2431 922 
Q 2431 1156 2273 1281 
Q 2116 1406 1581 1522 
L 1381 1569 
Q 847 1681 609 1914 
Q 372 2147 372 2553 
Q 372 3047 722 3315 
Q 1072 3584 1716 3584 
Q 2034 3584 2315 3537 
Q 2597 3491 2834 3397 
z
" transform="scale(0.015625)"/>
      </defs>
      <use xlink:href="#DejaVuSans-72"/>
      <use xlink:href="#DejaVuSans-6f" x="38.863281"/>
      <use xlink:href="#DejaVuSans-75" x="100.044922"/>
      <use xlink:href="#DejaVuSans-67" x="163.423828"/>
      <use xlink:href="#DejaVuSans-68" x="226.900391"/>
      <use xlink:href="#DejaVuSans-6e" x="290.279297"/>
      <use xlink:href="#DejaVuSans-65" x="353.658203"/>
      <use xlink:href="#DejaVuSans-73" x="415.181641"/>
      <use xlink:href="#DejaVuSans-73" x="467.28125"/>
     </g>
    </g>
   </g>
   <g id="line2d_9">
    <path d="M 94.078168 283.979302 
L 94.078168 269.367602 
" clip-path="url(#p619adc01bd)" style="fill: none; stroke: #3f3f3f; stroke-width: 1.5; stroke-linecap: square"/>
   </g>
   <g id="line2d_10">
    <path d="M 94.078168 282.514128 
L 94.078168 277.197443 
" clip-path="url(#p619adc01bd)" style="fill: none; stroke: #3f3f3f; stroke-width: 4.5; stroke-linecap: square"/>
   </g>
   <g id="line2d_11">
    <path d="M 194.672005 285.274678 
L 194.672005 246.926095 
" clip-path="url(#p619adc01bd)" style="fill: none; stroke: #3f3f3f; stroke-width: 1.5; stroke-linecap: square"/>
   </g>
   <g id="line2d_12">
    <path d="M 194.672005 278.16016 
L 194.672005 265.642222 
" clip-path="url(#p619adc01bd)" style="fill: none; stroke: #3f3f3f; stroke-width: 4.5; stroke-linecap: square"/>
   </g>
   <g id="line2d_13">
    <path d="M 295.265842 284.40462 
L 295.265842 267.177741 
" clip-path="url(#p619adc01bd)" style="fill: none; stroke: #3f3f3f; stroke-width: 1.5; stroke-linecap: square"/>
   </g>
   <g id="line2d_14">
    <path d="M 295.265842 282.309859 
L 295.265842 276.115874 
" clip-path="url(#p619adc01bd)" style="fill: none; stroke: #3f3f3f; stroke-width: 4.5; stroke-linecap: square"/>
   </g>
   <g id="patch_5">
    <path d="M 43.78125 314.6 
L 43.78125 7.2 
" style="fill: none; stroke: #000000; stroke-width: 0.8; stroke-linejoin: miter; stroke-linecap: square"/>
   </g>
   <g id="patch_6">
    <path d="M 43.78125 314.6 
L 345.56276 314.6 
" style="fill: none; stroke: #000000; stroke-width: 0.8; stroke-linejoin: miter; stroke-linecap: square"/>
   </g>
   <g id="PathCollection_1">
    <defs>
     <path id="mcfebcd0f2b" d="M 0 1.5 
C 0.397805 1.5 0.77937 1.341951 1.06066 1.06066 
C 1.341951 0.77937 1.5 0.397805 1.5 0 
C 1.5 -0.397805 1.341951 -0.77937 1.06066 -1.06066 
C 0.77937 -1.341951 0.397805 -1.5 0 -1.5 
C -0.397805 -1.5 -0.77937 -1.341951 -1.06066 -1.06066 
C -1.341951 -0.77937 -1.5 -0.397805 -1.5 0 
C -1.5 0.397805 -1.341951 0.77937 -1.06066 1.06066 
C -0.77937 1.341951 -0.397805 1.5 0 1.5 
z
" style="stroke: #3f3f3f"/>
    </defs>
    <g clip-path="url(#p619adc01bd)">
     <use xlink:href="#mcfebcd0f2b" x="94.078168" y="280.807304" style="fill: #ffffff; stroke: #3f3f3f"/>
    </g>
   </g>
   <g id="PathCollection_2">
    <g clip-path="url(#p619adc01bd)">
     <use xlink:href="#mcfebcd0f2b" x="194.672005" y="273.272689" style="fill: #ffffff; stroke: #3f3f3f"/>
    </g>
   </g>
   <g id="PathCollection_3">
    <g clip-path="url(#p619adc01bd)">
     <use xlink:href="#mcfebcd0f2b" x="295.265842" y="280.538193" style="fill: #ffffff; stroke: #3f3f3f"/>
    </g>
   </g>
  </g>
  <g id="legend_1">
   <g id="text_11">
    <!-- dim -->
    <g transform="translate(361.811198 164.159375)scale(0.1 -0.1)">
     <defs>
      <path id="DejaVuSans-64" d="M 2906 2969 
L 2906 4863 
L 3481 4863 
L 3481 0 
L 2906 0 
L 2906 525 
Q 2725 213 2448 61 
Q 2172 -91 1784 -91 
Q 1150 -91 751 415 
Q 353 922 353 1747 
Q 353 2572 751 3078 
Q 1150 3584 1784 3584 
Q 2172 3584 2448 3432 
Q 2725 3281 2906 2969 
z
M 947 1747 
Q 947 1113 1208 752 
Q 1469 391 1925 391 
Q 2381 391 2643 752 
Q 2906 1113 2906 1747 
Q 2906 2381 2643 2742 
Q 2381 3103 1925 3103 
Q 1469 3103 1208 2742 
Q 947 2381 947 1747 
z
" transform="scale(0.015625)"/>
      <path id="DejaVuSans-69" d="M 603 3500 
L 1178 3500 
L 1178 0 
L 603 0 
L 603 3500 
z
M 603 4863 
L 1178 4863 
L 1178 4134 
L 603 4134 
L 603 4863 
z
" transform="scale(0.015625)"/>
      <path id="DejaVuSans-6d" d="M 3328 2828 
Q 3544 3216 3844 3400 
Q 4144 3584 4550 3584 
Q 5097 3584 5394 3201 
Q 5691 2819 5691 2113 
L 5691 0 
L 5113 0 
L 5113 2094 
Q 5113 2597 4934 2840 
Q 4756 3084 4391 3084 
Q 3944 3084 3684 2787 
Q 3425 2491 3425 1978 
L 3425 0 
L 2847 0 
L 2847 2094 
Q 2847 2600 2669 2842 
Q 2491 3084 2119 3084 
Q 1678 3084 1418 2786 
Q 1159 2488 1159 1978 
L 1159 0 
L 581 0 
L 581 3500 
L 1159 3500 
L 1159 2956 
Q 1356 3278 1631 3431 
Q 1906 3584 2284 3584 
Q 2666 3584 2933 3390 
Q 3200 3197 3328 2828 
z
" transform="scale(0.015625)"/>
     </defs>
     <use xlink:href="#DejaVuSans-64"/>
     <use xlink:href="#DejaVuSans-69" x="63.476562"/>
     <use xlink:href="#DejaVuSans-6d" x="91.259766"/>
    </g>
   </g>
   <g id="patch_7">
    <path d="M 350.889323 178.8375 
L 370.889323 178.8375 
L 370.889323 171.8375 
L 350.889323 171.8375 
z
" style="fill: #3274a1; stroke: #3f3f3f; stroke-width: 0.75; stroke-linejoin: miter"/>
   </g>
   <g id="text_12">
    <!-- 2d -->
    <g transform="translate(378.889323 178.8375)scale(0.1 -0.1)">
     <use xlink:href="#DejaVuSans-32"/>
     <use xlink:href="#DejaVuSans-64" x="63.623047"/>
    </g>
   </g>
   <g id="patch_8">
    <path d="M 350.889323 193.515625 
L 370.889323 193.515625 
L 370.889323 186.515625 
L 350.889323 186.515625 
z
" style="fill: #e1812c; stroke: #3f3f3f; stroke-width: 0.75; stroke-linejoin: miter"/>
   </g>
   <g id="text_13">
    <!-- 3d -->
    <g transform="translate(378.889323 193.515625)scale(0.1 -0.1)">
     <defs>
      <path id="DejaVuSans-33" d="M 2597 2516 
Q 3050 2419 3304 2112 
Q 3559 1806 3559 1356 
Q 3559 666 3084 287 
Q 2609 -91 1734 -91 
Q 1441 -91 1130 -33 
Q 819 25 488 141 
L 488 750 
Q 750 597 1062 519 
Q 1375 441 1716 441 
Q 2309 441 2620 675 
Q 2931 909 2931 1356 
Q 2931 1769 2642 2001 
Q 2353 2234 1838 2234 
L 1294 2234 
L 1294 2753 
L 1863 2753 
Q 2328 2753 2575 2939 
Q 2822 3125 2822 3475 
Q 2822 3834 2567 4026 
Q 2313 4219 1838 4219 
Q 1578 4219 1281 4162 
Q 984 4106 628 3988 
L 628 4550 
Q 988 4650 1302 4700 
Q 1616 4750 1894 4750 
Q 2613 4750 3031 4423 
Q 3450 4097 3450 3541 
Q 3450 3153 3228 2886 
Q 3006 2619 2597 2516 
z
" transform="scale(0.015625)"/>
     </defs>
     <use xlink:href="#DejaVuSans-33"/>
     <use xlink:href="#DejaVuSans-64" x="63.623047"/>
    </g>
   </g>
  </g>
 </g>
 <defs>
  <clipPath id="p619adc01bd">
   <rect x="43.78125" y="7.2" width="301.78151" height="307.4"/>
  </clipPath>
 </defs>
</svg>
