<?xml version="1.0" encoding="utf-8" standalone="no"?>
<!DOCTYPE svg PUBLIC "-//W3C//DTD SVG 1.1//EN"
  "http://www.w3.org/Graphics/SVG/1.1/DTD/svg11.dtd">
<svg xmlns:xlink="http://www.w3.org/1999/xlink" width="425.542882pt" height="352.15625pt" viewBox="0 0 425.542882 352.15625" xmlns="http://www.w3.org/2000/svg" version="1.1">
 <metadata>
  <rdf:RDF xmlns:dc="http://purl.org/dc/elements/1.1/" xmlns:cc="http://creativecommons.org/ns#" xmlns:rdf="http://www.w3.org/1999/02/22-rdf-syntax-ns#">
   <cc:Work>
    <dc:type rdf:resource="http://purl.org/dc/dcmitype/StillImage"/>
    <dc:date>2022-03-30T10:22:14.492917</dc:date>
    <dc:format>image/svg+xml</dc:format>
    <dc:creator>
     <cc:Agent>
      <dc:title>Matplotlib v3.5.1, https://matplotlib.org/</dc:title>
     </cc:Agent>
    </dc:creator>
   </cc:Work>
  </rdf:RDF>
 </metadata>
 <defs>
  <style type="text/css">*{stroke-linejoin: round; stroke-linecap: butt}</style>
 </defs>
 <g id="figure_1">
  <g id="patch_1">
   <path d="M -0 352.15625 
L 425.542882 352.15625 
L 425.542882 0 
L -0 0 
z
" style="fill: #ffffff"/>
  </g>
  <g id="axes_1">
   <g id="patch_2">
    <path d="M 43.78125 314.6 
L 341.467882 314.6 
L 341.467882 7.2 
L 43.78125 7.2 
z
" style="fill: #ffffff"/>
   </g>
   <g id="matplotlib.axis_1">
    <g id="xtick_1">
     <g id="line2d_1">
      <defs>
       <path id="m864eba1e40" d="M 0 0 
L 0 3.5 
" style="stroke: #262626; stroke-width: 0.8"/>
      </defs>
      <g>
       <use xlink:href="#m864eba1e40" x="57.312461" y="314.6" style="fill: #262626; stroke: #262626; stroke-width: 0.8"/>
      </g>
     </g>
     <g id="text_1">
      <!-- 0 -->
      <g style="fill: #262626" transform="translate(54.131211 329.198437)scale(0.1 -0.1)">
       <defs>
        <path id="DejaVuSans-30" d="M 2034 4250 
Q 1547 4250 1301 3770 
Q 1056 3291 1056 2328 
Q 1056 1369 1301 889 
Q 1547 409 2034 409 
Q 2525 409 2770 889 
Q 3016 1369 3016 2328 
Q 3016 3291 2770 3770 
Q 2525 4250 2034 4250 
z
M 2034 4750 
Q 2819 4750 3233 4129 
Q 3647 3509 3647 2328 
Q 3647 1150 3233 529 
Q 2819 -91 2034 -91 
Q 1250 -91 836 529 
Q 422 1150 422 2328 
Q 422 3509 836 4129 
Q 1250 4750 2034 4750 
z
" transform="scale(0.015625)"/>
       </defs>
       <use xlink:href="#DejaVuSans-30"/>
      </g>
     </g>
    </g>
    <g id="xtick_2">
     <g id="line2d_2">
      <g>
       <use xlink:href="#m864eba1e40" x="116.143811" y="314.6" style="fill: #262626; stroke: #262626; stroke-width: 0.8"/>
      </g>
     </g>
     <g id="text_2">
      <!-- 5 -->
      <g style="fill: #262626" transform="translate(112.962561 329.198437)scale(0.1 -0.1)">
       <defs>
        <path id="DejaVuSans-35" d="M 691 4666 
L 3169 4666 
L 3169 4134 
L 1269 4134 
L 1269 2991 
Q 1406 3038 1543 3061 
Q 1681 3084 1819 3084 
Q 2600 3084 3056 2656 
Q 3513 2228 3513 1497 
Q 3513 744 3044 326 
Q 2575 -91 1722 -91 
Q 1428 -91 1123 -41 
Q 819 9 494 109 
L 494 744 
Q 775 591 1075 516 
Q 1375 441 1709 441 
Q 2250 441 2565 725 
Q 2881 1009 2881 1497 
Q 2881 1984 2565 2268 
Q 2250 2553 1709 2553 
Q 1456 2553 1204 2497 
Q 953 2441 691 2322 
L 691 4666 
z
" transform="scale(0.015625)"/>
       </defs>
       <use xlink:href="#DejaVuSans-35"/>
      </g>
     </g>
    </g>
    <g id="xtick_3">
     <g id="line2d_3">
      <g>
       <use xlink:href="#m864eba1e40" x="174.975161" y="314.6" style="fill: #262626; stroke: #262626; stroke-width: 0.8"/>
      </g>
     </g>
     <g id="text_3">
      <!-- 10 -->
      <g style="fill: #262626" transform="translate(168.612661 329.198437)scale(0.1 -0.1)">
       <defs>
        <path id="DejaVuSans-31" d="M 794 531 
L 1825 531 
L 1825 4091 
L 703 3866 
L 703 4441 
L 1819 4666 
L 2450 4666 
L 2450 531 
L 3481 531 
L 3481 0 
L 794 0 
L 794 531 
z
" transform="scale(0.015625)"/>
       </defs>
       <use xlink:href="#DejaVuSans-31"/>
       <use xlink:href="#DejaVuSans-30" x="63.623047"/>
      </g>
     </g>
    </g>
    <g id="xtick_4">
     <g id="line2d_4">
      <g>
       <use xlink:href="#m864eba1e40" x="233.806511" y="314.6" style="fill: #262626; stroke: #262626; stroke-width: 0.8"/>
      </g>
     </g>
     <g id="text_4">
      <!-- 15 -->
      <g style="fill: #262626" transform="translate(227.444011 329.198437)scale(0.1 -0.1)">
       <use xlink:href="#DejaVuSans-31"/>
       <use xlink:href="#DejaVuSans-35" x="63.623047"/>
      </g>
     </g>
    </g>
    <g id="xtick_5">
     <g id="line2d_5">
      <g>
       <use xlink:href="#m864eba1e40" x="292.637861" y="314.6" style="fill: #262626; stroke: #262626; stroke-width: 0.8"/>
      </g>
     </g>
     <g id="text_5">
      <!-- 20 -->
      <g style="fill: #262626" transform="translate(286.275361 329.198437)scale(0.1 -0.1)">
       <defs>
        <path id="DejaVuSans-32" d="M 1228 531 
L 3431 531 
L 3431 0 
L 469 0 
L 469 531 
Q 828 903 1448 1529 
Q 2069 2156 2228 2338 
Q 2531 2678 2651 2914 
Q 2772 3150 2772 3378 
Q 2772 3750 2511 3984 
Q 2250 4219 1831 4219 
Q 1534 4219 1204 4116 
Q 875 4013 500 3803 
L 500 4441 
Q 881 4594 1212 4672 
Q 1544 4750 1819 4750 
Q 2544 4750 2975 4387 
Q 3406 4025 3406 3419 
Q 3406 3131 3298 2873 
Q 3191 2616 2906 2266 
Q 2828 2175 2409 1742 
Q 1991 1309 1228 531 
z
" transform="scale(0.015625)"/>
       </defs>
       <use xlink:href="#DejaVuSans-32"/>
       <use xlink:href="#DejaVuSans-30" x="63.623047"/>
      </g>
     </g>
    </g>
    <g id="text_6">
     <!-- idx -->
     <g style="fill: #262626" transform="translate(185.10191 342.876562)scale(0.1 -0.1)">
      <defs>
       <path id="DejaVuSans-69" d="M 603 3500 
L 1178 3500 
L 1178 0 
L 603 0 
L 603 3500 
z
M 603 4863 
L 1178 4863 
L 1178 4134 
L 603 4134 
L 603 4863 
z
" transform="scale(0.015625)"/>
       <path id="DejaVuSans-64" d="M 2906 2969 
L 2906 4863 
L 3481 4863 
L 3481 0 
L 2906 0 
L 2906 525 
Q 2725 213 2448 61 
Q 2172 -91 1784 -91 
Q 1150 -91 751 415 
Q 353 922 353 1747 
Q 353 2572 751 3078 
Q 1150 3584 1784 3584 
Q 2172 3584 2448 3432 
Q 2725 3281 2906 2969 
z
M 947 1747 
Q 947 1113 1208 752 
Q 1469 391 1925 391 
Q 2381 391 2643 752 
Q 2906 1113 2906 1747 
Q 2906 2381 2643 2742 
Q 2381 3103 1925 3103 
Q 1469 3103 1208 2742 
Q 947 2381 947 1747 
z
" transform="scale(0.015625)"/>
       <path id="DejaVuSans-78" d="M 3513 3500 
L 2247 1797 
L 3578 0 
L 2900 0 
L 1881 1375 
L 863 0 
L 184 0 
L 1544 1831 
L 300 3500 
L 978 3500 
L 1906 2253 
L 2834 3500 
L 3513 3500 
z
" transform="scale(0.015625)"/>
      </defs>
      <use xlink:href="#DejaVuSans-69"/>
      <use xlink:href="#DejaVuSans-64" x="27.783203"/>
      <use xlink:href="#DejaVuSans-78" x="91.259766"/>
     </g>
    </g>
   </g>
   <g id="matplotlib.axis_2">
    <g id="ytick_1">
     <g id="line2d_6">
      <defs>
       <path id="m8c1c6d15a6" d="M 0 0 
L -3.5 0 
" style="stroke: #262626; stroke-width: 0.8"/>
      </defs>
      <g>
       <use xlink:href="#m8c1c6d15a6" x="43.78125" y="300.627273" style="fill: #262626; stroke: #262626; stroke-width: 0.8"/>
      </g>
     </g>
     <g id="text_7">
      <!-- 0.2 -->
      <g style="fill: #262626" transform="translate(20.878125 304.426491)scale(0.1 -0.1)">
       <defs>
        <path id="DejaVuSans-2e" d="M 684 794 
L 1344 794 
L 1344 0 
L 684 0 
L 684 794 
z
" transform="scale(0.015625)"/>
       </defs>
       <use xlink:href="#DejaVuSans-30"/>
       <use xlink:href="#DejaVuSans-2e" x="63.623047"/>
       <use xlink:href="#DejaVuSans-32" x="95.410156"/>
      </g>
     </g>
    </g>
    <g id="ytick_2">
     <g id="line2d_7">
      <g>
       <use xlink:href="#m8c1c6d15a6" x="43.78125" y="264.568622" style="fill: #262626; stroke: #262626; stroke-width: 0.8"/>
      </g>
     </g>
     <g id="text_8">
      <!-- 0.3 -->
      <g style="fill: #262626" transform="translate(20.878125 268.36784)scale(0.1 -0.1)">
       <defs>
        <path id="DejaVuSans-33" d="M 2597 2516 
Q 3050 2419 3304 2112 
Q 3559 1806 3559 1356 
Q 3559 666 3084 287 
Q 2609 -91 1734 -91 
Q 1441 -91 1130 -33 
Q 819 25 488 141 
L 488 750 
Q 750 597 1062 519 
Q 1375 441 1716 441 
Q 2309 441 2620 675 
Q 2931 909 2931 1356 
Q 2931 1769 2642 2001 
Q 2353 2234 1838 2234 
L 1294 2234 
L 1294 2753 
L 1863 2753 
Q 2328 2753 2575 2939 
Q 2822 3125 2822 3475 
Q 2822 3834 2567 4026 
Q 2313 4219 1838 4219 
Q 1578 4219 1281 4162 
Q 984 4106 628 3988 
L 628 4550 
Q 988 4650 1302 4700 
Q 1616 4750 1894 4750 
Q 2613 4750 3031 4423 
Q 3450 4097 3450 3541 
Q 3450 3153 3228 2886 
Q 3006 2619 2597 2516 
z
" transform="scale(0.015625)"/>
       </defs>
       <use xlink:href="#DejaVuSans-30"/>
       <use xlink:href="#DejaVuSans-2e" x="63.623047"/>
       <use xlink:href="#DejaVuSans-33" x="95.410156"/>
      </g>
     </g>
    </g>
    <g id="ytick_3">
     <g id="line2d_8">
      <g>
       <use xlink:href="#m8c1c6d15a6" x="43.78125" y="228.509971" style="fill: #262626; stroke: #262626; stroke-width: 0.8"/>
      </g>
     </g>
     <g id="text_9">
      <!-- 0.4 -->
      <g style="fill: #262626" transform="translate(20.878125 232.309189)scale(0.1 -0.1)">
       <defs>
        <path id="DejaVuSans-34" d="M 2419 4116 
L 825 1625 
L 2419 1625 
L 2419 4116 
z
M 2253 4666 
L 3047 4666 
L 3047 1625 
L 3713 1625 
L 3713 1100 
L 3047 1100 
L 3047 0 
L 2419 0 
L 2419 1100 
L 313 1100 
L 313 1709 
L 2253 4666 
z
" transform="scale(0.015625)"/>
       </defs>
       <use xlink:href="#DejaVuSans-30"/>
       <use xlink:href="#DejaVuSans-2e" x="63.623047"/>
       <use xlink:href="#DejaVuSans-34" x="95.410156"/>
      </g>
     </g>
    </g>
    <g id="ytick_4">
     <g id="line2d_9">
      <g>
       <use xlink:href="#m8c1c6d15a6" x="43.78125" y="192.45132" style="fill: #262626; stroke: #262626; stroke-width: 0.8"/>
      </g>
     </g>
     <g id="text_10">
      <!-- 0.5 -->
      <g style="fill: #262626" transform="translate(20.878125 196.250538)scale(0.1 -0.1)">
       <use xlink:href="#DejaVuSans-30"/>
       <use xlink:href="#DejaVuSans-2e" x="63.623047"/>
       <use xlink:href="#DejaVuSans-35" x="95.410156"/>
      </g>
     </g>
    </g>
    <g id="ytick_5">
     <g id="line2d_10">
      <g>
       <use xlink:href="#m8c1c6d15a6" x="43.78125" y="156.392669" style="fill: #262626; stroke: #262626; stroke-width: 0.8"/>
      </g>
     </g>
     <g id="text_11">
      <!-- 0.6 -->
      <g style="fill: #262626" transform="translate(20.878125 160.191887)scale(0.1 -0.1)">
       <defs>
        <path id="DejaVuSans-36" d="M 2113 2584 
Q 1688 2584 1439 2293 
Q 1191 2003 1191 1497 
Q 1191 994 1439 701 
Q 1688 409 2113 409 
Q 2538 409 2786 701 
Q 3034 994 3034 1497 
Q 3034 2003 2786 2293 
Q 2538 2584 2113 2584 
z
M 3366 4563 
L 3366 3988 
Q 3128 4100 2886 4159 
Q 2644 4219 2406 4219 
Q 1781 4219 1451 3797 
Q 1122 3375 1075 2522 
Q 1259 2794 1537 2939 
Q 1816 3084 2150 3084 
Q 2853 3084 3261 2657 
Q 3669 2231 3669 1497 
Q 3669 778 3244 343 
Q 2819 -91 2113 -91 
Q 1303 -91 875 529 
Q 447 1150 447 2328 
Q 447 3434 972 4092 
Q 1497 4750 2381 4750 
Q 2619 4750 2861 4703 
Q 3103 4656 3366 4563 
z
" transform="scale(0.015625)"/>
       </defs>
       <use xlink:href="#DejaVuSans-30"/>
       <use xlink:href="#DejaVuSans-2e" x="63.623047"/>
       <use xlink:href="#DejaVuSans-36" x="95.410156"/>
      </g>
     </g>
    </g>
    <g id="ytick_6">
     <g id="line2d_11">
      <g>
       <use xlink:href="#m8c1c6d15a6" x="43.78125" y="120.334018" style="fill: #262626; stroke: #262626; stroke-width: 0.8"/>
      </g>
     </g>
     <g id="text_12">
      <!-- 0.7 -->
      <g style="fill: #262626" transform="translate(20.878125 124.133236)scale(0.1 -0.1)">
       <defs>
        <path id="DejaVuSans-37" d="M 525 4666 
L 3525 4666 
L 3525 4397 
L 1831 0 
L 1172 0 
L 2766 4134 
L 525 4134 
L 525 4666 
z
" transform="scale(0.015625)"/>
       </defs>
       <use xlink:href="#DejaVuSans-30"/>
       <use xlink:href="#DejaVuSans-2e" x="63.623047"/>
       <use xlink:href="#DejaVuSans-37" x="95.410156"/>
      </g>
     </g>
    </g>
    <g id="ytick_7">
     <g id="line2d_12">
      <g>
       <use xlink:href="#m8c1c6d15a6" x="43.78125" y="84.275367" style="fill: #262626; stroke: #262626; stroke-width: 0.8"/>
      </g>
     </g>
     <g id="text_13">
      <!-- 0.8 -->
      <g style="fill: #262626" transform="translate(20.878125 88.074585)scale(0.1 -0.1)">
       <defs>
        <path id="DejaVuSans-38" d="M 2034 2216 
Q 1584 2216 1326 1975 
Q 1069 1734 1069 1313 
Q 1069 891 1326 650 
Q 1584 409 2034 409 
Q 2484 409 2743 651 
Q 3003 894 3003 1313 
Q 3003 1734 2745 1975 
Q 2488 2216 2034 2216 
z
M 1403 2484 
Q 997 2584 770 2862 
Q 544 3141 544 3541 
Q 544 4100 942 4425 
Q 1341 4750 2034 4750 
Q 2731 4750 3128 4425 
Q 3525 4100 3525 3541 
Q 3525 3141 3298 2862 
Q 3072 2584 2669 2484 
Q 3125 2378 3379 2068 
Q 3634 1759 3634 1313 
Q 3634 634 3220 271 
Q 2806 -91 2034 -91 
Q 1263 -91 848 271 
Q 434 634 434 1313 
Q 434 1759 690 2068 
Q 947 2378 1403 2484 
z
M 1172 3481 
Q 1172 3119 1398 2916 
Q 1625 2713 2034 2713 
Q 2441 2713 2670 2916 
Q 2900 3119 2900 3481 
Q 2900 3844 2670 4047 
Q 2441 4250 2034 4250 
Q 1625 4250 1398 4047 
Q 1172 3844 1172 3481 
z
" transform="scale(0.015625)"/>
       </defs>
       <use xlink:href="#DejaVuSans-30"/>
       <use xlink:href="#DejaVuSans-2e" x="63.623047"/>
       <use xlink:href="#DejaVuSans-38" x="95.410156"/>
      </g>
     </g>
    </g>
    <g id="ytick_8">
     <g id="line2d_13">
      <g>
       <use xlink:href="#m8c1c6d15a6" x="43.78125" y="48.216716" style="fill: #262626; stroke: #262626; stroke-width: 0.8"/>
      </g>
     </g>
     <g id="text_14">
      <!-- 0.9 -->
      <g style="fill: #262626" transform="translate(20.878125 52.015934)scale(0.1 -0.1)">
       <defs>
        <path id="DejaVuSans-39" d="M 703 97 
L 703 672 
Q 941 559 1184 500 
Q 1428 441 1663 441 
Q 2288 441 2617 861 
Q 2947 1281 2994 2138 
Q 2813 1869 2534 1725 
Q 2256 1581 1919 1581 
Q 1219 1581 811 2004 
Q 403 2428 403 3163 
Q 403 3881 828 4315 
Q 1253 4750 1959 4750 
Q 2769 4750 3195 4129 
Q 3622 3509 3622 2328 
Q 3622 1225 3098 567 
Q 2575 -91 1691 -91 
Q 1453 -91 1209 -44 
Q 966 3 703 97 
z
M 1959 2075 
Q 2384 2075 2632 2365 
Q 2881 2656 2881 3163 
Q 2881 3666 2632 3958 
Q 2384 4250 1959 4250 
Q 1534 4250 1286 3958 
Q 1038 3666 1038 3163 
Q 1038 2656 1286 2365 
Q 1534 2075 1959 2075 
z
" transform="scale(0.015625)"/>
       </defs>
       <use xlink:href="#DejaVuSans-30"/>
       <use xlink:href="#DejaVuSans-2e" x="63.623047"/>
       <use xlink:href="#DejaVuSans-39" x="95.410156"/>
      </g>
     </g>
    </g>
    <g id="ytick_9">
     <g id="line2d_14">
      <g>
       <use xlink:href="#m8c1c6d15a6" x="43.78125" y="12.158065" style="fill: #262626; stroke: #262626; stroke-width: 0.8"/>
      </g>
     </g>
     <g id="text_15">
      <!-- 1.0 -->
      <g style="fill: #262626" transform="translate(20.878125 15.957283)scale(0.1 -0.1)">
       <use xlink:href="#DejaVuSans-31"/>
       <use xlink:href="#DejaVuSans-2e" x="63.623047"/>
       <use xlink:href="#DejaVuSans-30" x="95.410156"/>
      </g>
     </g>
    </g>
    <g id="text_16">
     <!-- Collision -->
     <g style="fill: #262626" transform="translate(14.798437 181.839844)rotate(-90)scale(0.1 -0.1)">
      <defs>
       <path id="DejaVuSans-43" d="M 4122 4306 
L 4122 3641 
Q 3803 3938 3442 4084 
Q 3081 4231 2675 4231 
Q 1875 4231 1450 3742 
Q 1025 3253 1025 2328 
Q 1025 1406 1450 917 
Q 1875 428 2675 428 
Q 3081 428 3442 575 
Q 3803 722 4122 1019 
L 4122 359 
Q 3791 134 3420 21 
Q 3050 -91 2638 -91 
Q 1578 -91 968 557 
Q 359 1206 359 2328 
Q 359 3453 968 4101 
Q 1578 4750 2638 4750 
Q 3056 4750 3426 4639 
Q 3797 4528 4122 4306 
z
" transform="scale(0.015625)"/>
       <path id="DejaVuSans-6f" d="M 1959 3097 
Q 1497 3097 1228 2736 
Q 959 2375 959 1747 
Q 959 1119 1226 758 
Q 1494 397 1959 397 
Q 2419 397 2687 759 
Q 2956 1122 2956 1747 
Q 2956 2369 2687 2733 
Q 2419 3097 1959 3097 
z
M 1959 3584 
Q 2709 3584 3137 3096 
Q 3566 2609 3566 1747 
Q 3566 888 3137 398 
Q 2709 -91 1959 -91 
Q 1206 -91 779 398 
Q 353 888 353 1747 
Q 353 2609 779 3096 
Q 1206 3584 1959 3584 
z
" transform="scale(0.015625)"/>
       <path id="DejaVuSans-6c" d="M 603 4863 
L 1178 4863 
L 1178 0 
L 603 0 
L 603 4863 
z
" transform="scale(0.015625)"/>
       <path id="DejaVuSans-73" d="M 2834 3397 
L 2834 2853 
Q 2591 2978 2328 3040 
Q 2066 3103 1784 3103 
Q 1356 3103 1142 2972 
Q 928 2841 928 2578 
Q 928 2378 1081 2264 
Q 1234 2150 1697 2047 
L 1894 2003 
Q 2506 1872 2764 1633 
Q 3022 1394 3022 966 
Q 3022 478 2636 193 
Q 2250 -91 1575 -91 
Q 1294 -91 989 -36 
Q 684 19 347 128 
L 347 722 
Q 666 556 975 473 
Q 1284 391 1588 391 
Q 1994 391 2212 530 
Q 2431 669 2431 922 
Q 2431 1156 2273 1281 
Q 2116 1406 1581 1522 
L 1381 1569 
Q 847 1681 609 1914 
Q 372 2147 372 2553 
Q 372 3047 722 3315 
Q 1072 3584 1716 3584 
Q 2034 3584 2315 3537 
Q 2597 3491 2834 3397 
z
" transform="scale(0.015625)"/>
       <path id="DejaVuSans-6e" d="M 3513 2113 
L 3513 0 
L 2938 0 
L 2938 2094 
Q 2938 2591 2744 2837 
Q 2550 3084 2163 3084 
Q 1697 3084 1428 2787 
Q 1159 2491 1159 1978 
L 1159 0 
L 581 0 
L 581 3500 
L 1159 3500 
L 1159 2956 
Q 1366 3272 1645 3428 
Q 1925 3584 2291 3584 
Q 2894 3584 3203 3211 
Q 3513 2838 3513 2113 
z
" transform="scale(0.015625)"/>
      </defs>
      <use xlink:href="#DejaVuSans-43"/>
      <use xlink:href="#DejaVuSans-6f" x="69.824219"/>
      <use xlink:href="#DejaVuSans-6c" x="131.005859"/>
      <use xlink:href="#DejaVuSans-6c" x="158.789062"/>
      <use xlink:href="#DejaVuSans-69" x="186.572266"/>
      <use xlink:href="#DejaVuSans-73" x="214.355469"/>
      <use xlink:href="#DejaVuSans-69" x="266.455078"/>
      <use xlink:href="#DejaVuSans-6f" x="294.238281"/>
      <use xlink:href="#DejaVuSans-6e" x="355.419922"/>
     </g>
    </g>
   </g>
   <g id="PathCollection_1">
    <path d="M 57.312461 303.627273 
C 58.10807 303.627273 58.8712 303.311174 59.433781 302.748593 
C 59.996362 302.186012 60.312461 301.422882 60.312461 300.627273 
C 60.312461 299.831663 59.996362 299.068533 59.433781 298.505952 
C 58.8712 297.943372 58.10807 297.627273 57.312461 297.627273 
C 56.516851 297.627273 55.753721 297.943372 55.19114 298.505952 
C 54.628559 299.068533 54.312461 299.831663 54.312461 300.627273 
C 54.312461 301.422882 54.628559 302.186012 55.19114 302.748593 
C 55.753721 303.311174 56.516851 303.627273 57.312461 303.627273 
z
" clip-path="url(#p59fcd8b182)" style="fill: #1f77b4; stroke: #ffffff; stroke-width: 0.48"/>
    <path d="M 69.078731 249.539296 
C 69.87434 249.539296 70.63747 249.223197 71.200051 248.660617 
C 71.762632 248.098036 72.078731 247.334905 72.078731 246.539296 
C 72.078731 245.743687 71.762632 244.980557 71.200051 244.417976 
C 70.63747 243.855395 69.87434 243.539296 69.078731 243.539296 
C 68.283121 243.539296 67.519991 243.855395 66.95741 244.417976 
C 66.39483 244.980557 66.078731 245.743687 66.078731 246.539296 
C 66.078731 247.334905 66.39483 248.098036 66.95741 248.660617 
C 67.519991 249.223197 68.283121 249.539296 69.078731 249.539296 
z
" clip-path="url(#p59fcd8b182)" style="fill: #1f77b4; stroke: #ffffff; stroke-width: 0.48"/>
    <path d="M 80.845001 204.465982 
C 81.64061 204.465982 82.40374 204.149883 82.966321 203.587303 
C 83.528902 203.024722 83.845001 202.261592 83.845001 201.465982 
C 83.845001 200.670373 83.528902 199.907243 82.966321 199.344662 
C 82.40374 198.782081 81.64061 198.465982 80.845001 198.465982 
C 80.049391 198.465982 79.286261 198.782081 78.72368 199.344662 
C 78.1611 199.907243 77.845001 200.670373 77.845001 201.465982 
C 77.845001 202.261592 78.1611 203.024722 78.72368 203.587303 
C 79.286261 204.149883 80.049391 204.465982 80.845001 204.465982 
z
" clip-path="url(#p59fcd8b182)" style="fill: #1f77b4; stroke: #ffffff; stroke-width: 0.48"/>
    <path d="M 91.111271 195.45132 
L 92.611271 193.95132 
L 94.111271 195.45132 
L 95.611271 193.95132 
L 94.111271 192.45132 
L 95.611271 190.95132 
L 94.111271 189.45132 
L 92.611271 190.95132 
L 91.111271 189.45132 
L 89.611271 190.95132 
L 91.111271 192.45132 
L 89.611271 193.95132 
z
" clip-path="url(#p59fcd8b182)" style="fill: #ff7f0e; stroke: #ffffff; stroke-width: 0.48"/>
    <path d="M 104.377541 177.421994 
C 105.17315 177.421994 105.93628 177.105895 106.498861 176.543314 
C 107.061442 175.980734 107.377541 175.217603 107.377541 174.421994 
C 107.377541 173.626385 107.061442 172.863255 106.498861 172.300674 
C 105.93628 171.738093 105.17315 171.421994 104.377541 171.421994 
C 103.581931 171.421994 102.818801 171.738093 102.25622 172.300674 
C 101.69364 172.863255 101.377541 173.626385 101.377541 174.421994 
C 101.377541 175.217603 101.69364 175.980734 102.25622 176.543314 
C 102.818801 177.105895 103.581931 177.421994 104.377541 177.421994 
z
" clip-path="url(#p59fcd8b182)" style="fill: #1f77b4; stroke: #ffffff; stroke-width: 0.48"/>
    <path d="M 114.643811 177.421994 
L 116.143811 175.921994 
L 117.643811 177.421994 
L 119.143811 175.921994 
L 117.643811 174.421994 
L 119.143811 172.921994 
L 117.643811 171.421994 
L 116.143811 172.921994 
L 114.643811 171.421994 
L 113.143811 172.921994 
L 114.643811 174.421994 
L 113.143811 175.921994 
z
" clip-path="url(#p59fcd8b182)" style="fill: #ff7f0e; stroke: #ffffff; stroke-width: 0.48"/>
    <path d="M 127.910081 141.363343 
C 128.70569 141.363343 129.46882 141.047244 130.031401 140.484663 
C 130.593982 139.922083 130.910081 139.158952 130.910081 138.363343 
C 130.910081 137.567734 130.593982 136.804603 130.031401 136.242023 
C 129.46882 135.679442 128.70569 135.363343 127.910081 135.363343 
C 127.114471 135.363343 126.351341 135.679442 125.78876 136.242023 
C 125.22618 136.804603 124.910081 137.567734 124.910081 138.363343 
C 124.910081 139.158952 125.22618 139.922083 125.78876 140.484663 
C 126.351341 141.047244 127.114471 141.363343 127.910081 141.363343 
z
" clip-path="url(#p59fcd8b182)" style="fill: #1f77b4; stroke: #ffffff; stroke-width: 0.48"/>
    <path d="M 139.676351 132.34868 
C 140.47196 132.34868 141.23509 132.032581 141.797671 131.470001 
C 142.360252 130.90742 142.676351 130.14429 142.676351 129.34868 
C 142.676351 128.553071 142.360252 127.789941 141.797671 127.22736 
C 141.23509 126.664779 140.47196 126.34868 139.676351 126.34868 
C 138.880742 126.34868 138.117611 126.664779 137.55503 127.22736 
C 136.99245 127.789941 136.676351 128.553071 136.676351 129.34868 
C 136.676351 130.14429 136.99245 130.90742 137.55503 131.470001 
C 138.117611 132.032581 138.880742 132.34868 139.676351 132.34868 
z
" clip-path="url(#p59fcd8b182)" style="fill: #1f77b4; stroke: #ffffff; stroke-width: 0.48"/>
    <path d="M 149.942621 132.34868 
L 151.442621 130.84868 
L 152.942621 132.34868 
L 154.442621 130.84868 
L 152.942621 129.34868 
L 154.442621 127.84868 
L 152.942621 126.34868 
L 151.442621 127.84868 
L 149.942621 126.34868 
L 148.442621 127.84868 
L 149.942621 129.34868 
L 148.442621 130.84868 
z
" clip-path="url(#p59fcd8b182)" style="fill: #ff7f0e; stroke: #ffffff; stroke-width: 0.48"/>
    <path d="M 163.208891 123.334018 
C 164.0045 123.334018 164.76763 123.017919 165.330211 122.455338 
C 165.892792 121.892757 166.208891 121.129627 166.208891 120.334018 
C 166.208891 119.538408 165.892792 118.775278 165.330211 118.212697 
C 164.76763 117.650117 164.0045 117.334018 163.208891 117.334018 
C 162.413282 117.334018 161.650151 117.650117 161.087571 118.212697 
C 160.52499 118.775278 160.208891 119.538408 160.208891 120.334018 
C 160.208891 121.129627 160.52499 121.892757 161.087571 122.455338 
C 161.650151 123.017919 162.413282 123.334018 163.208891 123.334018 
z
" clip-path="url(#p59fcd8b182)" style="fill: #1f77b4; stroke: #ffffff; stroke-width: 0.48"/>
    <path d="M 172.853841 109.198034 
L 172.853841 113.440675 
L 177.096481 113.440675 
L 177.096481 109.198034 
z
" clip-path="url(#p59fcd8b182)" style="fill: #2ca02c; stroke: #ffffff; stroke-width: 0.48"/>
    <path d="M 186.741431 105.304692 
C 187.53704 105.304692 188.300171 104.988593 188.862751 104.426012 
C 189.425332 103.863432 189.741431 103.100301 189.741431 102.304692 
C 189.741431 101.509083 189.425332 100.745952 188.862751 100.183372 
C 188.300171 99.620791 187.53704 99.304692 186.741431 99.304692 
C 185.945822 99.304692 185.182691 99.620791 184.620111 100.183372 
C 184.05753 100.745952 183.741431 101.509083 183.741431 102.304692 
C 183.741431 103.100301 184.05753 103.863432 184.620111 104.426012 
C 185.182691 104.988593 185.945822 105.304692 186.741431 105.304692 
z
" clip-path="url(#p59fcd8b182)" style="fill: #1f77b4; stroke: #ffffff; stroke-width: 0.48"/>
    <path d="M 197.007701 105.304692 
L 198.507701 103.804692 
L 200.007701 105.304692 
L 201.507701 103.804692 
L 200.007701 102.304692 
L 201.507701 100.804692 
L 200.007701 99.304692 
L 198.507701 100.804692 
L 197.007701 99.304692 
L 195.507701 100.804692 
L 197.007701 102.304692 
L 195.507701 103.804692 
z
" clip-path="url(#p59fcd8b182)" style="fill: #ff7f0e; stroke: #ffffff; stroke-width: 0.48"/>
    <path d="M 208.773971 105.304692 
L 210.273971 103.804692 
L 211.773971 105.304692 
L 213.273971 103.804692 
L 211.773971 102.304692 
L 213.273971 100.804692 
L 211.773971 99.304692 
L 210.273971 100.804692 
L 208.773971 99.304692 
L 207.273971 100.804692 
L 208.773971 102.304692 
L 207.273971 103.804692 
z
" clip-path="url(#p59fcd8b182)" style="fill: #ff7f0e; stroke: #ffffff; stroke-width: 0.48"/>
    <path d="M 219.918921 91.168709 
L 219.918921 95.41135 
L 224.161561 95.41135 
L 224.161561 91.168709 
z
" clip-path="url(#p59fcd8b182)" style="fill: #2ca02c; stroke: #ffffff; stroke-width: 0.48"/>
    <path d="M 233.806511 87.275367 
C 234.60212 87.275367 235.365251 86.959268 235.927831 86.396687 
C 236.490412 85.834106 236.806511 85.070976 236.806511 84.275367 
C 236.806511 83.479757 236.490412 82.716627 235.927831 82.154046 
C 235.365251 81.591465 234.60212 81.275367 233.806511 81.275367 
C 233.010902 81.275367 232.247771 81.591465 231.685191 82.154046 
C 231.12261 82.716627 230.806511 83.479757 230.806511 84.275367 
C 230.806511 85.070976 231.12261 85.834106 231.685191 86.396687 
C 232.247771 86.959268 233.010902 87.275367 233.806511 87.275367 
z
" clip-path="url(#p59fcd8b182)" style="fill: #1f77b4; stroke: #ffffff; stroke-width: 0.48"/>
    <path d="M 244.072781 87.275367 
L 245.572781 85.775367 
L 247.072781 87.275367 
L 248.572781 85.775367 
L 247.072781 84.275367 
L 248.572781 82.775367 
L 247.072781 81.275367 
L 245.572781 82.775367 
L 244.072781 81.275367 
L 242.572781 82.775367 
L 244.072781 84.275367 
L 242.572781 85.775367 
z
" clip-path="url(#p59fcd8b182)" style="fill: #ff7f0e; stroke: #ffffff; stroke-width: 0.48"/>
    <path d="M 255.217731 46.095395 
L 255.217731 50.338036 
L 259.460372 50.338036 
L 259.460372 46.095395 
z
" clip-path="url(#p59fcd8b182)" style="fill: #2ca02c; stroke: #ffffff; stroke-width: 0.48"/>
    <path d="M 266.984001 37.080732 
L 266.984001 41.323373 
L 271.226642 41.323373 
L 271.226642 37.080732 
z
" clip-path="url(#p59fcd8b182)" style="fill: #2ca02c; stroke: #ffffff; stroke-width: 0.48"/>
    <path d="M 279.371591 42.202053 
L 280.871591 40.702053 
L 282.371591 42.202053 
L 283.871591 40.702053 
L 282.371591 39.202053 
L 283.871591 37.702053 
L 282.371591 36.202053 
L 280.871591 37.702053 
L 279.371591 36.202053 
L 277.871591 37.702053 
L 279.371591 39.202053 
L 277.871591 40.702053 
z
" clip-path="url(#p59fcd8b182)" style="fill: #ff7f0e; stroke: #ffffff; stroke-width: 0.48"/>
    <path d="M 290.516541 28.06607 
L 290.516541 32.30871 
L 294.759182 32.30871 
L 294.759182 28.06607 
z
" clip-path="url(#p59fcd8b182)" style="fill: #2ca02c; stroke: #ffffff; stroke-width: 0.48"/>
    <path d="M 302.282811 28.06607 
L 302.282811 32.30871 
L 306.525452 32.30871 
L 306.525452 28.06607 
z
" clip-path="url(#p59fcd8b182)" style="fill: #2ca02c; stroke: #ffffff; stroke-width: 0.48"/>
    <path d="M 314.670401 24.172727 
L 316.170401 22.672727 
L 317.670401 24.172727 
L 319.170401 22.672727 
L 317.670401 21.172727 
L 319.170401 19.672727 
L 317.670401 18.172727 
L 316.170401 19.672727 
L 314.670401 18.172727 
L 313.170401 19.672727 
L 314.670401 21.172727 
L 313.170401 22.672727 
z
" clip-path="url(#p59fcd8b182)" style="fill: #ff7f0e; stroke: #ffffff; stroke-width: 0.48"/>
    <path d="M 326.436671 24.172727 
L 327.936671 22.672727 
L 329.436671 24.172727 
L 330.936671 22.672727 
L 329.436671 21.172727 
L 330.936671 19.672727 
L 329.436671 18.172727 
L 327.936671 19.672727 
L 326.436671 18.172727 
L 324.936671 19.672727 
L 326.436671 21.172727 
L 324.936671 22.672727 
z
" clip-path="url(#p59fcd8b182)" style="fill: #ff7f0e; stroke: #ffffff; stroke-width: 0.48"/>
   </g>
   <g id="PathCollection_2"/>
   <g id="PathCollection_3"/>
   <g id="PathCollection_4"/>
   <g id="patch_3">
    <path d="M 43.78125 314.6 
L 43.78125 7.2 
" style="fill: none; stroke: #262626; stroke-width: 0.8; stroke-linejoin: miter; stroke-linecap: square"/>
   </g>
   <g id="patch_4">
    <path d="M 43.78125 314.6 
L 341.467882 314.6 
" style="fill: none; stroke: #262626; stroke-width: 0.8; stroke-linejoin: miter; stroke-linecap: square"/>
   </g>
  </g>
  <g id="legend_1">
   <g id="text_17">
    <!-- Planner -->
    <g style="fill: #262626" transform="translate(362.758507 156.820312)scale(0.1 -0.1)">
     <defs>
      <path id="DejaVuSans-50" d="M 1259 4147 
L 1259 2394 
L 2053 2394 
Q 2494 2394 2734 2622 
Q 2975 2850 2975 3272 
Q 2975 3691 2734 3919 
Q 2494 4147 2053 4147 
L 1259 4147 
z
M 628 4666 
L 2053 4666 
Q 2838 4666 3239 4311 
Q 3641 3956 3641 3272 
Q 3641 2581 3239 2228 
Q 2838 1875 2053 1875 
L 1259 1875 
L 1259 0 
L 628 0 
L 628 4666 
z
" transform="scale(0.015625)"/>
      <path id="DejaVuSans-61" d="M 2194 1759 
Q 1497 1759 1228 1600 
Q 959 1441 959 1056 
Q 959 750 1161 570 
Q 1363 391 1709 391 
Q 2188 391 2477 730 
Q 2766 1069 2766 1631 
L 2766 1759 
L 2194 1759 
z
M 3341 1997 
L 3341 0 
L 2766 0 
L 2766 531 
Q 2569 213 2275 61 
Q 1981 -91 1556 -91 
Q 1019 -91 701 211 
Q 384 513 384 1019 
Q 384 1609 779 1909 
Q 1175 2209 1959 2209 
L 2766 2209 
L 2766 2266 
Q 2766 2663 2505 2880 
Q 2244 3097 1772 3097 
Q 1472 3097 1187 3025 
Q 903 2953 641 2809 
L 641 3341 
Q 956 3463 1253 3523 
Q 1550 3584 1831 3584 
Q 2591 3584 2966 3190 
Q 3341 2797 3341 1997 
z
" transform="scale(0.015625)"/>
      <path id="DejaVuSans-65" d="M 3597 1894 
L 3597 1613 
L 953 1613 
Q 991 1019 1311 708 
Q 1631 397 2203 397 
Q 2534 397 2845 478 
Q 3156 559 3463 722 
L 3463 178 
Q 3153 47 2828 -22 
Q 2503 -91 2169 -91 
Q 1331 -91 842 396 
Q 353 884 353 1716 
Q 353 2575 817 3079 
Q 1281 3584 2069 3584 
Q 2775 3584 3186 3129 
Q 3597 2675 3597 1894 
z
M 3022 2063 
Q 3016 2534 2758 2815 
Q 2500 3097 2075 3097 
Q 1594 3097 1305 2825 
Q 1016 2553 972 2059 
L 3022 2063 
z
" transform="scale(0.015625)"/>
      <path id="DejaVuSans-72" d="M 2631 2963 
Q 2534 3019 2420 3045 
Q 2306 3072 2169 3072 
Q 1681 3072 1420 2755 
Q 1159 2438 1159 1844 
L 1159 0 
L 581 0 
L 581 3500 
L 1159 3500 
L 1159 2956 
Q 1341 3275 1631 3429 
Q 1922 3584 2338 3584 
Q 2397 3584 2469 3576 
Q 2541 3569 2628 3553 
L 2631 2963 
z
" transform="scale(0.015625)"/>
     </defs>
     <use xlink:href="#DejaVuSans-50"/>
     <use xlink:href="#DejaVuSans-6c" x="60.302734"/>
     <use xlink:href="#DejaVuSans-61" x="88.085938"/>
     <use xlink:href="#DejaVuSans-6e" x="149.365234"/>
     <use xlink:href="#DejaVuSans-6e" x="212.744141"/>
     <use xlink:href="#DejaVuSans-65" x="276.123047"/>
     <use xlink:href="#DejaVuSans-72" x="337.646484"/>
    </g>
   </g>
   <g id="PathCollection_5">
    <defs>
     <path id="mf210907cf4" d="M 0 3 
C 0.795609 3 1.55874 2.683901 2.12132 2.12132 
C 2.683901 1.55874 3 0.795609 3 0 
C 3 -0.795609 2.683901 -1.55874 2.12132 -2.12132 
C 1.55874 -2.683901 0.795609 -3 0 -3 
C -0.795609 -3 -1.55874 -2.683901 -2.12132 -2.12132 
C -2.683901 -1.55874 -3 -0.795609 -3 0 
C -3 0.795609 -2.683901 1.55874 -2.12132 2.12132 
C -1.55874 2.683901 -0.795609 3 0 3 
z
" style="stroke: #1f77b4"/>
    </defs>
    <g>
     <use xlink:href="#mf210907cf4" x="356.849132" y="168.873437" style="fill: #1f77b4; stroke: #1f77b4"/>
    </g>
   </g>
   <g id="text_18">
    <!-- DWA -->
    <g style="fill: #262626" transform="translate(374.849132 171.498437)scale(0.1 -0.1)">
     <defs>
      <path id="DejaVuSans-44" d="M 1259 4147 
L 1259 519 
L 2022 519 
Q 2988 519 3436 956 
Q 3884 1394 3884 2338 
Q 3884 3275 3436 3711 
Q 2988 4147 2022 4147 
L 1259 4147 
z
M 628 4666 
L 1925 4666 
Q 3281 4666 3915 4102 
Q 4550 3538 4550 2338 
Q 4550 1131 3912 565 
Q 3275 0 1925 0 
L 628 0 
L 628 4666 
z
" transform="scale(0.015625)"/>
      <path id="DejaVuSans-57" d="M 213 4666 
L 850 4666 
L 1831 722 
L 2809 4666 
L 3519 4666 
L 4500 722 
L 5478 4666 
L 6119 4666 
L 4947 0 
L 4153 0 
L 3169 4050 
L 2175 0 
L 1381 0 
L 213 4666 
z
" transform="scale(0.015625)"/>
      <path id="DejaVuSans-41" d="M 2188 4044 
L 1331 1722 
L 3047 1722 
L 2188 4044 
z
M 1831 4666 
L 2547 4666 
L 4325 0 
L 3669 0 
L 3244 1197 
L 1141 1197 
L 716 0 
L 50 0 
L 1831 4666 
z
" transform="scale(0.015625)"/>
     </defs>
     <use xlink:href="#DejaVuSans-44"/>
     <use xlink:href="#DejaVuSans-57" x="77.001953"/>
     <use xlink:href="#DejaVuSans-41" x="170.378906"/>
    </g>
   </g>
   <g id="PathCollection_6">
    <defs>
     <path id="m89dd5818c7" d="M -1.5 3 
L 0 1.5 
L 1.5 3 
L 3 1.5 
L 1.5 0 
L 3 -1.5 
L 1.5 -3 
L 0 -1.5 
L -1.5 -3 
L -3 -1.5 
L -1.5 0 
L -3 1.5 
z
" style="stroke: #ff7f0e"/>
    </defs>
    <g>
     <use xlink:href="#m89dd5818c7" x="356.849132" y="183.551562" style="fill: #ff7f0e; stroke: #ff7f0e"/>
    </g>
   </g>
   <g id="text_19">
    <!-- TEB -->
    <g style="fill: #262626" transform="translate(374.849132 186.176562)scale(0.1 -0.1)">
     <defs>
      <path id="DejaVuSans-54" d="M -19 4666 
L 3928 4666 
L 3928 4134 
L 2272 4134 
L 2272 0 
L 1638 0 
L 1638 4134 
L -19 4134 
L -19 4666 
z
" transform="scale(0.015625)"/>
      <path id="DejaVuSans-45" d="M 628 4666 
L 3578 4666 
L 3578 4134 
L 1259 4134 
L 1259 2753 
L 3481 2753 
L 3481 2222 
L 1259 2222 
L 1259 531 
L 3634 531 
L 3634 0 
L 628 0 
L 628 4666 
z
" transform="scale(0.015625)"/>
      <path id="DejaVuSans-42" d="M 1259 2228 
L 1259 519 
L 2272 519 
Q 2781 519 3026 730 
Q 3272 941 3272 1375 
Q 3272 1813 3026 2020 
Q 2781 2228 2272 2228 
L 1259 2228 
z
M 1259 4147 
L 1259 2741 
L 2194 2741 
Q 2656 2741 2882 2914 
Q 3109 3088 3109 3444 
Q 3109 3797 2882 3972 
Q 2656 4147 2194 4147 
L 1259 4147 
z
M 628 4666 
L 2241 4666 
Q 2963 4666 3353 4366 
Q 3744 4066 3744 3513 
Q 3744 3084 3544 2831 
Q 3344 2578 2956 2516 
Q 3422 2416 3680 2098 
Q 3938 1781 3938 1306 
Q 3938 681 3513 340 
Q 3088 0 2303 0 
L 628 0 
L 628 4666 
z
" transform="scale(0.015625)"/>
     </defs>
     <use xlink:href="#DejaVuSans-54"/>
     <use xlink:href="#DejaVuSans-45" x="61.083984"/>
     <use xlink:href="#DejaVuSans-42" x="124.267578"/>
    </g>
   </g>
   <g id="PathCollection_7">
    <defs>
     <path id="m736f7cdd2a" d="M -2.12132 -2.12132 
L -2.12132 2.12132 
L 2.12132 2.12132 
L 2.12132 -2.12132 
z
" style="stroke: #2ca02c"/>
    </defs>
    <g>
     <use xlink:href="#m736f7cdd2a" x="356.849132" y="198.229687" style="fill: #2ca02c; stroke: #2ca02c"/>
    </g>
   </g>
   <g id="text_20">
    <!-- ROSNAV -->
    <g style="fill: #262626" transform="translate(374.849132 200.854687)scale(0.1 -0.1)">
     <defs>
      <path id="DejaVuSans-52" d="M 2841 2188 
Q 3044 2119 3236 1894 
Q 3428 1669 3622 1275 
L 4263 0 
L 3584 0 
L 2988 1197 
Q 2756 1666 2539 1819 
Q 2322 1972 1947 1972 
L 1259 1972 
L 1259 0 
L 628 0 
L 628 4666 
L 2053 4666 
Q 2853 4666 3247 4331 
Q 3641 3997 3641 3322 
Q 3641 2881 3436 2590 
Q 3231 2300 2841 2188 
z
M 1259 4147 
L 1259 2491 
L 2053 2491 
Q 2509 2491 2742 2702 
Q 2975 2913 2975 3322 
Q 2975 3731 2742 3939 
Q 2509 4147 2053 4147 
L 1259 4147 
z
" transform="scale(0.015625)"/>
      <path id="DejaVuSans-4f" d="M 2522 4238 
Q 1834 4238 1429 3725 
Q 1025 3213 1025 2328 
Q 1025 1447 1429 934 
Q 1834 422 2522 422 
Q 3209 422 3611 934 
Q 4013 1447 4013 2328 
Q 4013 3213 3611 3725 
Q 3209 4238 2522 4238 
z
M 2522 4750 
Q 3503 4750 4090 4092 
Q 4678 3434 4678 2328 
Q 4678 1225 4090 567 
Q 3503 -91 2522 -91 
Q 1538 -91 948 565 
Q 359 1222 359 2328 
Q 359 3434 948 4092 
Q 1538 4750 2522 4750 
z
" transform="scale(0.015625)"/>
      <path id="DejaVuSans-53" d="M 3425 4513 
L 3425 3897 
Q 3066 4069 2747 4153 
Q 2428 4238 2131 4238 
Q 1616 4238 1336 4038 
Q 1056 3838 1056 3469 
Q 1056 3159 1242 3001 
Q 1428 2844 1947 2747 
L 2328 2669 
Q 3034 2534 3370 2195 
Q 3706 1856 3706 1288 
Q 3706 609 3251 259 
Q 2797 -91 1919 -91 
Q 1588 -91 1214 -16 
Q 841 59 441 206 
L 441 856 
Q 825 641 1194 531 
Q 1563 422 1919 422 
Q 2459 422 2753 634 
Q 3047 847 3047 1241 
Q 3047 1584 2836 1778 
Q 2625 1972 2144 2069 
L 1759 2144 
Q 1053 2284 737 2584 
Q 422 2884 422 3419 
Q 422 4038 858 4394 
Q 1294 4750 2059 4750 
Q 2388 4750 2728 4690 
Q 3069 4631 3425 4513 
z
" transform="scale(0.015625)"/>
      <path id="DejaVuSans-4e" d="M 628 4666 
L 1478 4666 
L 3547 763 
L 3547 4666 
L 4159 4666 
L 4159 0 
L 3309 0 
L 1241 3903 
L 1241 0 
L 628 0 
L 628 4666 
z
" transform="scale(0.015625)"/>
      <path id="DejaVuSans-56" d="M 1831 0 
L 50 4666 
L 709 4666 
L 2188 738 
L 3669 4666 
L 4325 4666 
L 2547 0 
L 1831 0 
z
" transform="scale(0.015625)"/>
     </defs>
     <use xlink:href="#DejaVuSans-52"/>
     <use xlink:href="#DejaVuSans-4f" x="69.482422"/>
     <use xlink:href="#DejaVuSans-53" x="148.193359"/>
     <use xlink:href="#DejaVuSans-4e" x="211.669922"/>
     <use xlink:href="#DejaVuSans-41" x="286.474609"/>
     <use xlink:href="#DejaVuSans-56" x="348.507812"/>
    </g>
   </g>
  </g>
 </g>
 <defs>
  <clipPath id="p59fcd8b182">
   <rect x="43.78125" y="7.2" width="297.686632" height="307.4"/>
  </clipPath>
 </defs>
</svg>
