<?xml version="1.0" encoding="utf-8" standalone="no"?>
<!DOCTYPE svg PUBLIC "-//W3C//DTD SVG 1.1//EN"
  "http://www.w3.org/Graphics/SVG/1.1/DTD/svg11.dtd">
<svg xmlns:xlink="http://www.w3.org/1999/xlink" width="765.027561pt" height="346.2575pt" viewBox="0 0 765.027561 346.2575" xmlns="http://www.w3.org/2000/svg" version="1.1">
 <metadata>
  <rdf:RDF xmlns:dc="http://purl.org/dc/elements/1.1/" xmlns:cc="http://creativecommons.org/ns#" xmlns:rdf="http://www.w3.org/1999/02/22-rdf-syntax-ns#">
   <cc:Work>
    <dc:type rdf:resource="http://purl.org/dc/dcmitype/StillImage"/>
    <dc:date>2022-03-24T23:54:22.809307</dc:date>
    <dc:format>image/svg+xml</dc:format>
    <dc:creator>
     <cc:Agent>
      <dc:title>Matplotlib v3.5.1, https://matplotlib.org/</dc:title>
     </cc:Agent>
    </dc:creator>
   </cc:Work>
  </rdf:RDF>
 </metadata>
 <defs>
  <style type="text/css">*{stroke-linejoin: round; stroke-linecap: butt}</style>
 </defs>
 <g id="figure_1">
  <g id="patch_1">
   <path d="M 0 346.2575 
L 765.027561 346.2575 
L 765.027561 0 
L 0 0 
z
" style="fill: #ffffff"/>
  </g>
  <g id="axes_1">
   <g id="patch_2">
    <path d="M 39.64625 302.991875 
L 361.313572 302.991875 
L 361.313572 22.318125 
L 39.64625 22.318125 
z
" style="fill: #ffffff"/>
   </g>
   <g id="matplotlib.axis_1">
    <g id="xtick_1">
     <g id="line2d_1">
      <defs>
       <path id="m09cca8fb6e" d="M 0 0 
L 0 6 
" style="stroke: #262626; stroke-width: 1.25"/>
      </defs>
      <g>
       <use xlink:href="#m09cca8fb6e" x="93.25747" y="302.991875" style="fill: #262626; stroke: #262626; stroke-width: 1.25"/>
      </g>
     </g>
     <g id="text_1">
      <!-- map2 -->
      <g style="fill: #262626" transform="translate(77.538642 320.850156)scale(0.11 -0.11)">
       <defs>
        <path id="DejaVuSans-6d" d="M 3328 2828 
Q 3544 3216 3844 3400 
Q 4144 3584 4550 3584 
Q 5097 3584 5394 3201 
Q 5691 2819 5691 2113 
L 5691 0 
L 5113 0 
L 5113 2094 
Q 5113 2597 4934 2840 
Q 4756 3084 4391 3084 
Q 3944 3084 3684 2787 
Q 3425 2491 3425 1978 
L 3425 0 
L 2847 0 
L 2847 2094 
Q 2847 2600 2669 2842 
Q 2491 3084 2119 3084 
Q 1678 3084 1418 2786 
Q 1159 2488 1159 1978 
L 1159 0 
L 581 0 
L 581 3500 
L 1159 3500 
L 1159 2956 
Q 1356 3278 1631 3431 
Q 1906 3584 2284 3584 
Q 2666 3584 2933 3390 
Q 3200 3197 3328 2828 
z
" transform="scale(0.015625)"/>
        <path id="DejaVuSans-61" d="M 2194 1759 
Q 1497 1759 1228 1600 
Q 959 1441 959 1056 
Q 959 750 1161 570 
Q 1363 391 1709 391 
Q 2188 391 2477 730 
Q 2766 1069 2766 1631 
L 2766 1759 
L 2194 1759 
z
M 3341 1997 
L 3341 0 
L 2766 0 
L 2766 531 
Q 2569 213 2275 61 
Q 1981 -91 1556 -91 
Q 1019 -91 701 211 
Q 384 513 384 1019 
Q 384 1609 779 1909 
Q 1175 2209 1959 2209 
L 2766 2209 
L 2766 2266 
Q 2766 2663 2505 2880 
Q 2244 3097 1772 3097 
Q 1472 3097 1187 3025 
Q 903 2953 641 2809 
L 641 3341 
Q 956 3463 1253 3523 
Q 1550 3584 1831 3584 
Q 2591 3584 2966 3190 
Q 3341 2797 3341 1997 
z
" transform="scale(0.015625)"/>
        <path id="DejaVuSans-70" d="M 1159 525 
L 1159 -1331 
L 581 -1331 
L 581 3500 
L 1159 3500 
L 1159 2969 
Q 1341 3281 1617 3432 
Q 1894 3584 2278 3584 
Q 2916 3584 3314 3078 
Q 3713 2572 3713 1747 
Q 3713 922 3314 415 
Q 2916 -91 2278 -91 
Q 1894 -91 1617 61 
Q 1341 213 1159 525 
z
M 3116 1747 
Q 3116 2381 2855 2742 
Q 2594 3103 2138 3103 
Q 1681 3103 1420 2742 
Q 1159 2381 1159 1747 
Q 1159 1113 1420 752 
Q 1681 391 2138 391 
Q 2594 391 2855 752 
Q 3116 1113 3116 1747 
z
" transform="scale(0.015625)"/>
        <path id="DejaVuSans-32" d="M 1228 531 
L 3431 531 
L 3431 0 
L 469 0 
L 469 531 
Q 828 903 1448 1529 
Q 2069 2156 2228 2338 
Q 2531 2678 2651 2914 
Q 2772 3150 2772 3378 
Q 2772 3750 2511 3984 
Q 2250 4219 1831 4219 
Q 1534 4219 1204 4116 
Q 875 4013 500 3803 
L 500 4441 
Q 881 4594 1212 4672 
Q 1544 4750 1819 4750 
Q 2544 4750 2975 4387 
Q 3406 4025 3406 3419 
Q 3406 3131 3298 2873 
Q 3191 2616 2906 2266 
Q 2828 2175 2409 1742 
Q 1991 1309 1228 531 
z
" transform="scale(0.015625)"/>
       </defs>
       <use xlink:href="#DejaVuSans-6d"/>
       <use xlink:href="#DejaVuSans-61" x="97.412109"/>
       <use xlink:href="#DejaVuSans-70" x="158.691406"/>
       <use xlink:href="#DejaVuSans-32" x="222.167969"/>
      </g>
     </g>
    </g>
    <g id="xtick_2">
     <g id="line2d_2">
      <g>
       <use xlink:href="#m09cca8fb6e" x="200.479911" y="302.991875" style="fill: #262626; stroke: #262626; stroke-width: 1.25"/>
      </g>
     </g>
     <g id="text_2">
      <!-- map5 -->
      <g style="fill: #262626" transform="translate(184.761083 320.850156)scale(0.11 -0.11)">
       <defs>
        <path id="DejaVuSans-35" d="M 691 4666 
L 3169 4666 
L 3169 4134 
L 1269 4134 
L 1269 2991 
Q 1406 3038 1543 3061 
Q 1681 3084 1819 3084 
Q 2600 3084 3056 2656 
Q 3513 2228 3513 1497 
Q 3513 744 3044 326 
Q 2575 -91 1722 -91 
Q 1428 -91 1123 -41 
Q 819 9 494 109 
L 494 744 
Q 775 591 1075 516 
Q 1375 441 1709 441 
Q 2250 441 2565 725 
Q 2881 1009 2881 1497 
Q 2881 1984 2565 2268 
Q 2250 2553 1709 2553 
Q 1456 2553 1204 2497 
Q 953 2441 691 2322 
L 691 4666 
z
" transform="scale(0.015625)"/>
       </defs>
       <use xlink:href="#DejaVuSans-6d"/>
       <use xlink:href="#DejaVuSans-61" x="97.412109"/>
       <use xlink:href="#DejaVuSans-70" x="158.691406"/>
       <use xlink:href="#DejaVuSans-35" x="222.167969"/>
      </g>
     </g>
    </g>
    <g id="xtick_3">
     <g id="line2d_3">
      <g>
       <use xlink:href="#m09cca8fb6e" x="307.702351" y="302.991875" style="fill: #262626; stroke: #262626; stroke-width: 1.25"/>
      </g>
     </g>
     <g id="text_3">
      <!-- small_warehouse -->
      <g style="fill: #262626" transform="translate(260.327586 320.850156)scale(0.11 -0.11)">
       <defs>
        <path id="DejaVuSans-73" d="M 2834 3397 
L 2834 2853 
Q 2591 2978 2328 3040 
Q 2066 3103 1784 3103 
Q 1356 3103 1142 2972 
Q 928 2841 928 2578 
Q 928 2378 1081 2264 
Q 1234 2150 1697 2047 
L 1894 2003 
Q 2506 1872 2764 1633 
Q 3022 1394 3022 966 
Q 3022 478 2636 193 
Q 2250 -91 1575 -91 
Q 1294 -91 989 -36 
Q 684 19 347 128 
L 347 722 
Q 666 556 975 473 
Q 1284 391 1588 391 
Q 1994 391 2212 530 
Q 2431 669 2431 922 
Q 2431 1156 2273 1281 
Q 2116 1406 1581 1522 
L 1381 1569 
Q 847 1681 609 1914 
Q 372 2147 372 2553 
Q 372 3047 722 3315 
Q 1072 3584 1716 3584 
Q 2034 3584 2315 3537 
Q 2597 3491 2834 3397 
z
" transform="scale(0.015625)"/>
        <path id="DejaVuSans-6c" d="M 603 4863 
L 1178 4863 
L 1178 0 
L 603 0 
L 603 4863 
z
" transform="scale(0.015625)"/>
        <path id="DejaVuSans-5f" d="M 3263 -1063 
L 3263 -1509 
L -63 -1509 
L -63 -1063 
L 3263 -1063 
z
" transform="scale(0.015625)"/>
        <path id="DejaVuSans-77" d="M 269 3500 
L 844 3500 
L 1563 769 
L 2278 3500 
L 2956 3500 
L 3675 769 
L 4391 3500 
L 4966 3500 
L 4050 0 
L 3372 0 
L 2619 2869 
L 1863 0 
L 1184 0 
L 269 3500 
z
" transform="scale(0.015625)"/>
        <path id="DejaVuSans-72" d="M 2631 2963 
Q 2534 3019 2420 3045 
Q 2306 3072 2169 3072 
Q 1681 3072 1420 2755 
Q 1159 2438 1159 1844 
L 1159 0 
L 581 0 
L 581 3500 
L 1159 3500 
L 1159 2956 
Q 1341 3275 1631 3429 
Q 1922 3584 2338 3584 
Q 2397 3584 2469 3576 
Q 2541 3569 2628 3553 
L 2631 2963 
z
" transform="scale(0.015625)"/>
        <path id="DejaVuSans-65" d="M 3597 1894 
L 3597 1613 
L 953 1613 
Q 991 1019 1311 708 
Q 1631 397 2203 397 
Q 2534 397 2845 478 
Q 3156 559 3463 722 
L 3463 178 
Q 3153 47 2828 -22 
Q 2503 -91 2169 -91 
Q 1331 -91 842 396 
Q 353 884 353 1716 
Q 353 2575 817 3079 
Q 1281 3584 2069 3584 
Q 2775 3584 3186 3129 
Q 3597 2675 3597 1894 
z
M 3022 2063 
Q 3016 2534 2758 2815 
Q 2500 3097 2075 3097 
Q 1594 3097 1305 2825 
Q 1016 2553 972 2059 
L 3022 2063 
z
" transform="scale(0.015625)"/>
        <path id="DejaVuSans-68" d="M 3513 2113 
L 3513 0 
L 2938 0 
L 2938 2094 
Q 2938 2591 2744 2837 
Q 2550 3084 2163 3084 
Q 1697 3084 1428 2787 
Q 1159 2491 1159 1978 
L 1159 0 
L 581 0 
L 581 4863 
L 1159 4863 
L 1159 2956 
Q 1366 3272 1645 3428 
Q 1925 3584 2291 3584 
Q 2894 3584 3203 3211 
Q 3513 2838 3513 2113 
z
" transform="scale(0.015625)"/>
        <path id="DejaVuSans-6f" d="M 1959 3097 
Q 1497 3097 1228 2736 
Q 959 2375 959 1747 
Q 959 1119 1226 758 
Q 1494 397 1959 397 
Q 2419 397 2687 759 
Q 2956 1122 2956 1747 
Q 2956 2369 2687 2733 
Q 2419 3097 1959 3097 
z
M 1959 3584 
Q 2709 3584 3137 3096 
Q 3566 2609 3566 1747 
Q 3566 888 3137 398 
Q 2709 -91 1959 -91 
Q 1206 -91 779 398 
Q 353 888 353 1747 
Q 353 2609 779 3096 
Q 1206 3584 1959 3584 
z
" transform="scale(0.015625)"/>
        <path id="DejaVuSans-75" d="M 544 1381 
L 544 3500 
L 1119 3500 
L 1119 1403 
Q 1119 906 1312 657 
Q 1506 409 1894 409 
Q 2359 409 2629 706 
Q 2900 1003 2900 1516 
L 2900 3500 
L 3475 3500 
L 3475 0 
L 2900 0 
L 2900 538 
Q 2691 219 2414 64 
Q 2138 -91 1772 -91 
Q 1169 -91 856 284 
Q 544 659 544 1381 
z
M 1991 3584 
L 1991 3584 
z
" transform="scale(0.015625)"/>
       </defs>
       <use xlink:href="#DejaVuSans-73"/>
       <use xlink:href="#DejaVuSans-6d" x="52.099609"/>
       <use xlink:href="#DejaVuSans-61" x="149.511719"/>
       <use xlink:href="#DejaVuSans-6c" x="210.791016"/>
       <use xlink:href="#DejaVuSans-6c" x="238.574219"/>
       <use xlink:href="#DejaVuSans-5f" x="266.357422"/>
       <use xlink:href="#DejaVuSans-77" x="316.357422"/>
       <use xlink:href="#DejaVuSans-61" x="398.144531"/>
       <use xlink:href="#DejaVuSans-72" x="459.423828"/>
       <use xlink:href="#DejaVuSans-65" x="498.287109"/>
       <use xlink:href="#DejaVuSans-68" x="559.810547"/>
       <use xlink:href="#DejaVuSans-6f" x="623.189453"/>
       <use xlink:href="#DejaVuSans-75" x="684.371094"/>
       <use xlink:href="#DejaVuSans-73" x="747.75"/>
       <use xlink:href="#DejaVuSans-65" x="799.849609"/>
      </g>
     </g>
    </g>
    <g id="text_4">
     <!-- World -->
     <g style="fill: #262626" transform="translate(183.286161 336.561875)scale(0.12 -0.12)">
      <defs>
       <path id="DejaVuSans-57" d="M 213 4666 
L 850 4666 
L 1831 722 
L 2809 4666 
L 3519 4666 
L 4500 722 
L 5478 4666 
L 6119 4666 
L 4947 0 
L 4153 0 
L 3169 4050 
L 2175 0 
L 1381 0 
L 213 4666 
z
" transform="scale(0.015625)"/>
       <path id="DejaVuSans-64" d="M 2906 2969 
L 2906 4863 
L 3481 4863 
L 3481 0 
L 2906 0 
L 2906 525 
Q 2725 213 2448 61 
Q 2172 -91 1784 -91 
Q 1150 -91 751 415 
Q 353 922 353 1747 
Q 353 2572 751 3078 
Q 1150 3584 1784 3584 
Q 2172 3584 2448 3432 
Q 2725 3281 2906 2969 
z
M 947 1747 
Q 947 1113 1208 752 
Q 1469 391 1925 391 
Q 2381 391 2643 752 
Q 2906 1113 2906 1747 
Q 2906 2381 2643 2742 
Q 2381 3103 1925 3103 
Q 1469 3103 1208 2742 
Q 947 2381 947 1747 
z
" transform="scale(0.015625)"/>
      </defs>
      <use xlink:href="#DejaVuSans-57"/>
      <use xlink:href="#DejaVuSans-6f" x="93.001953"/>
      <use xlink:href="#DejaVuSans-72" x="154.183594"/>
      <use xlink:href="#DejaVuSans-6c" x="195.296875"/>
      <use xlink:href="#DejaVuSans-64" x="223.080078"/>
     </g>
    </g>
   </g>
   <g id="matplotlib.axis_2">
    <g id="ytick_1">
     <g id="line2d_4">
      <defs>
       <path id="madfb5a62c1" d="M 0 0 
L -6 0 
" style="stroke: #262626; stroke-width: 1.25"/>
      </defs>
      <g>
       <use xlink:href="#madfb5a62c1" x="39.64625" y="271.631265" style="fill: #262626; stroke: #262626; stroke-width: 1.25"/>
      </g>
     </g>
     <g id="text_5">
      <!-- 0 -->
      <g style="fill: #262626" transform="translate(23.1475 275.810406)scale(0.11 -0.11)">
       <defs>
        <path id="DejaVuSans-30" d="M 2034 4250 
Q 1547 4250 1301 3770 
Q 1056 3291 1056 2328 
Q 1056 1369 1301 889 
Q 1547 409 2034 409 
Q 2525 409 2770 889 
Q 3016 1369 3016 2328 
Q 3016 3291 2770 3770 
Q 2525 4250 2034 4250 
z
M 2034 4750 
Q 2819 4750 3233 4129 
Q 3647 3509 3647 2328 
Q 3647 1150 3233 529 
Q 2819 -91 2034 -91 
Q 1250 -91 836 529 
Q 422 1150 422 2328 
Q 422 3509 836 4129 
Q 1250 4750 2034 4750 
z
" transform="scale(0.015625)"/>
       </defs>
       <use xlink:href="#DejaVuSans-30"/>
      </g>
     </g>
    </g>
    <g id="ytick_2">
     <g id="line2d_5">
      <g>
       <use xlink:href="#madfb5a62c1" x="39.64625" y="240.08463" style="fill: #262626; stroke: #262626; stroke-width: 1.25"/>
      </g>
     </g>
     <g id="text_6">
      <!-- 1 -->
      <g style="fill: #262626" transform="translate(23.1475 244.263771)scale(0.11 -0.11)">
       <defs>
        <path id="DejaVuSans-31" d="M 794 531 
L 1825 531 
L 1825 4091 
L 703 3866 
L 703 4441 
L 1819 4666 
L 2450 4666 
L 2450 531 
L 3481 531 
L 3481 0 
L 794 0 
L 794 531 
z
" transform="scale(0.015625)"/>
       </defs>
       <use xlink:href="#DejaVuSans-31"/>
      </g>
     </g>
    </g>
    <g id="ytick_3">
     <g id="line2d_6">
      <g>
       <use xlink:href="#madfb5a62c1" x="39.64625" y="208.537996" style="fill: #262626; stroke: #262626; stroke-width: 1.25"/>
      </g>
     </g>
     <g id="text_7">
      <!-- 2 -->
      <g style="fill: #262626" transform="translate(23.1475 212.717136)scale(0.11 -0.11)">
       <use xlink:href="#DejaVuSans-32"/>
      </g>
     </g>
    </g>
    <g id="ytick_4">
     <g id="line2d_7">
      <g>
       <use xlink:href="#madfb5a62c1" x="39.64625" y="176.991361" style="fill: #262626; stroke: #262626; stroke-width: 1.25"/>
      </g>
     </g>
     <g id="text_8">
      <!-- 3 -->
      <g style="fill: #262626" transform="translate(23.1475 181.170502)scale(0.11 -0.11)">
       <defs>
        <path id="DejaVuSans-33" d="M 2597 2516 
Q 3050 2419 3304 2112 
Q 3559 1806 3559 1356 
Q 3559 666 3084 287 
Q 2609 -91 1734 -91 
Q 1441 -91 1130 -33 
Q 819 25 488 141 
L 488 750 
Q 750 597 1062 519 
Q 1375 441 1716 441 
Q 2309 441 2620 675 
Q 2931 909 2931 1356 
Q 2931 1769 2642 2001 
Q 2353 2234 1838 2234 
L 1294 2234 
L 1294 2753 
L 1863 2753 
Q 2328 2753 2575 2939 
Q 2822 3125 2822 3475 
Q 2822 3834 2567 4026 
Q 2313 4219 1838 4219 
Q 1578 4219 1281 4162 
Q 984 4106 628 3988 
L 628 4550 
Q 988 4650 1302 4700 
Q 1616 4750 1894 4750 
Q 2613 4750 3031 4423 
Q 3450 4097 3450 3541 
Q 3450 3153 3228 2886 
Q 3006 2619 2597 2516 
z
" transform="scale(0.015625)"/>
       </defs>
       <use xlink:href="#DejaVuSans-33"/>
      </g>
     </g>
    </g>
    <g id="ytick_5">
     <g id="line2d_8">
      <g>
       <use xlink:href="#madfb5a62c1" x="39.64625" y="145.444726" style="fill: #262626; stroke: #262626; stroke-width: 1.25"/>
      </g>
     </g>
     <g id="text_9">
      <!-- 4 -->
      <g style="fill: #262626" transform="translate(23.1475 149.623867)scale(0.11 -0.11)">
       <defs>
        <path id="DejaVuSans-34" d="M 2419 4116 
L 825 1625 
L 2419 1625 
L 2419 4116 
z
M 2253 4666 
L 3047 4666 
L 3047 1625 
L 3713 1625 
L 3713 1100 
L 3047 1100 
L 3047 0 
L 2419 0 
L 2419 1100 
L 313 1100 
L 313 1709 
L 2253 4666 
z
" transform="scale(0.015625)"/>
       </defs>
       <use xlink:href="#DejaVuSans-34"/>
      </g>
     </g>
    </g>
    <g id="ytick_6">
     <g id="line2d_9">
      <g>
       <use xlink:href="#madfb5a62c1" x="39.64625" y="113.898092" style="fill: #262626; stroke: #262626; stroke-width: 1.25"/>
      </g>
     </g>
     <g id="text_10">
      <!-- 5 -->
      <g style="fill: #262626" transform="translate(23.1475 118.077232)scale(0.11 -0.11)">
       <use xlink:href="#DejaVuSans-35"/>
      </g>
     </g>
    </g>
    <g id="ytick_7">
     <g id="line2d_10">
      <g>
       <use xlink:href="#madfb5a62c1" x="39.64625" y="82.351457" style="fill: #262626; stroke: #262626; stroke-width: 1.25"/>
      </g>
     </g>
     <g id="text_11">
      <!-- 6 -->
      <g style="fill: #262626" transform="translate(23.1475 86.530597)scale(0.11 -0.11)">
       <defs>
        <path id="DejaVuSans-36" d="M 2113 2584 
Q 1688 2584 1439 2293 
Q 1191 2003 1191 1497 
Q 1191 994 1439 701 
Q 1688 409 2113 409 
Q 2538 409 2786 701 
Q 3034 994 3034 1497 
Q 3034 2003 2786 2293 
Q 2538 2584 2113 2584 
z
M 3366 4563 
L 3366 3988 
Q 3128 4100 2886 4159 
Q 2644 4219 2406 4219 
Q 1781 4219 1451 3797 
Q 1122 3375 1075 2522 
Q 1259 2794 1537 2939 
Q 1816 3084 2150 3084 
Q 2853 3084 3261 2657 
Q 3669 2231 3669 1497 
Q 3669 778 3244 343 
Q 2819 -91 2113 -91 
Q 1303 -91 875 529 
Q 447 1150 447 2328 
Q 447 3434 972 4092 
Q 1497 4750 2381 4750 
Q 2619 4750 2861 4703 
Q 3103 4656 3366 4563 
z
" transform="scale(0.015625)"/>
       </defs>
       <use xlink:href="#DejaVuSans-36"/>
      </g>
     </g>
    </g>
    <g id="ytick_8">
     <g id="line2d_11">
      <g>
       <use xlink:href="#madfb5a62c1" x="39.64625" y="50.804822" style="fill: #262626; stroke: #262626; stroke-width: 1.25"/>
      </g>
     </g>
     <g id="text_12">
      <!-- 7 -->
      <g style="fill: #262626" transform="translate(23.1475 54.983963)scale(0.11 -0.11)">
       <defs>
        <path id="DejaVuSans-37" d="M 525 4666 
L 3525 4666 
L 3525 4397 
L 1831 0 
L 1172 0 
L 2766 4134 
L 525 4134 
L 525 4666 
z
" transform="scale(0.015625)"/>
       </defs>
       <use xlink:href="#DejaVuSans-37"/>
      </g>
     </g>
    </g>
    <g id="text_13">
     <!-- angle_over_length -->
     <g style="fill: #262626" transform="translate(16.318125 217.808125)rotate(-90)scale(0.12 -0.12)">
      <defs>
       <path id="DejaVuSans-6e" d="M 3513 2113 
L 3513 0 
L 2938 0 
L 2938 2094 
Q 2938 2591 2744 2837 
Q 2550 3084 2163 3084 
Q 1697 3084 1428 2787 
Q 1159 2491 1159 1978 
L 1159 0 
L 581 0 
L 581 3500 
L 1159 3500 
L 1159 2956 
Q 1366 3272 1645 3428 
Q 1925 3584 2291 3584 
Q 2894 3584 3203 3211 
Q 3513 2838 3513 2113 
z
" transform="scale(0.015625)"/>
       <path id="DejaVuSans-67" d="M 2906 1791 
Q 2906 2416 2648 2759 
Q 2391 3103 1925 3103 
Q 1463 3103 1205 2759 
Q 947 2416 947 1791 
Q 947 1169 1205 825 
Q 1463 481 1925 481 
Q 2391 481 2648 825 
Q 2906 1169 2906 1791 
z
M 3481 434 
Q 3481 -459 3084 -895 
Q 2688 -1331 1869 -1331 
Q 1566 -1331 1297 -1286 
Q 1028 -1241 775 -1147 
L 775 -588 
Q 1028 -725 1275 -790 
Q 1522 -856 1778 -856 
Q 2344 -856 2625 -561 
Q 2906 -266 2906 331 
L 2906 616 
Q 2728 306 2450 153 
Q 2172 0 1784 0 
Q 1141 0 747 490 
Q 353 981 353 1791 
Q 353 2603 747 3093 
Q 1141 3584 1784 3584 
Q 2172 3584 2450 3431 
Q 2728 3278 2906 2969 
L 2906 3500 
L 3481 3500 
L 3481 434 
z
" transform="scale(0.015625)"/>
       <path id="DejaVuSans-76" d="M 191 3500 
L 800 3500 
L 1894 563 
L 2988 3500 
L 3597 3500 
L 2284 0 
L 1503 0 
L 191 3500 
z
" transform="scale(0.015625)"/>
       <path id="DejaVuSans-74" d="M 1172 4494 
L 1172 3500 
L 2356 3500 
L 2356 3053 
L 1172 3053 
L 1172 1153 
Q 1172 725 1289 603 
Q 1406 481 1766 481 
L 2356 481 
L 2356 0 
L 1766 0 
Q 1100 0 847 248 
Q 594 497 594 1153 
L 594 3053 
L 172 3053 
L 172 3500 
L 594 3500 
L 594 4494 
L 1172 4494 
z
" transform="scale(0.015625)"/>
      </defs>
      <use xlink:href="#DejaVuSans-61"/>
      <use xlink:href="#DejaVuSans-6e" x="61.279297"/>
      <use xlink:href="#DejaVuSans-67" x="124.658203"/>
      <use xlink:href="#DejaVuSans-6c" x="188.134766"/>
      <use xlink:href="#DejaVuSans-65" x="215.917969"/>
      <use xlink:href="#DejaVuSans-5f" x="277.441406"/>
      <use xlink:href="#DejaVuSans-6f" x="327.441406"/>
      <use xlink:href="#DejaVuSans-76" x="388.623047"/>
      <use xlink:href="#DejaVuSans-65" x="447.802734"/>
      <use xlink:href="#DejaVuSans-72" x="509.326172"/>
      <use xlink:href="#DejaVuSans-5f" x="550.439453"/>
      <use xlink:href="#DejaVuSans-6c" x="600.439453"/>
      <use xlink:href="#DejaVuSans-65" x="628.222656"/>
      <use xlink:href="#DejaVuSans-6e" x="689.746094"/>
      <use xlink:href="#DejaVuSans-67" x="753.125"/>
      <use xlink:href="#DejaVuSans-74" x="816.601562"/>
      <use xlink:href="#DejaVuSans-68" x="855.810547"/>
     </g>
    </g>
   </g>
   <g id="patch_3">
    <path d="M 93.25747 271.631265 
L 93.25747 271.631265 
L 93.25747 271.631265 
L 93.25747 271.631265 
z
" clip-path="url(#p02f57d98b1)" style="fill: #5875a4; stroke: #4c4c4c; stroke-width: 0.75; stroke-linejoin: miter"/>
   </g>
   <g id="PolyCollection_1">
    <defs>
     <path id="m873db4ba9e" d="M 93.25747 -71.343924 
L 92.601434 -71.343924 
L 92.180723 -72.132413 
L 91.55552 -72.920902 
L 90.664965 -73.709391 
L 89.448729 -74.49788 
L 87.855495 -75.286369 
L 85.852288 -76.074858 
L 83.432561 -76.863347 
L 80.62088 -77.651836 
L 77.472716 -78.440325 
L 74.069334 -79.228814 
L 70.509532 -80.017303 
L 66.90129 -80.805792 
L 63.35647 -81.594281 
L 59.990249 -82.38277 
L 56.924385 -83.171259 
L 54.290734 -83.959748 
L 52.230148 -84.748237 
L 50.882713 -85.536726 
L 50.368494 -86.325215 
L 50.762183 -87.113704 
L 52.068707 -87.902193 
L 54.208143 -88.690682 
L 57.016506 -89.479171 
L 60.264561 -90.26766 
L 63.691402 -91.056149 
L 67.045036 -91.844638 
L 70.120161 -92.633127 
L 72.784368 -93.421616 
L 74.987507 -94.210105 
L 76.75374 -94.998594 
L 78.160232 -95.787083 
L 79.309302 -96.575572 
L 80.301472 -97.364061 
L 81.215416 -98.15255 
L 82.097975 -98.941039 
L 82.964199 -99.729528 
L 83.804823 -100.518017 
L 84.597295 -101.306506 
L 85.316542 -102.094995 
L 85.942894 -102.883484 
L 86.466145 -103.671973 
L 86.886269 -104.460462 
L 87.212049 -105.248951 
L 87.458986 -106.03744 
L 87.647348 -106.825929 
L 87.8005 -107.614418 
L 87.94318 -108.402907 
L 88.099265 -109.191396 
L 88.288905 -109.979885 
L 88.525405 -110.768374 
L 88.812682 -111.556863 
L 89.144197 -112.345352 
L 89.503994 -113.133841 
L 89.869851 -113.92233 
L 90.2179 -114.710819 
L 90.527619 -115.499308 
L 90.785948 -116.287797 
L 90.989566 -117.076286 
L 91.144842 -117.864775 
L 91.265638 -118.653264 
L 91.3696 -119.441753 
L 91.473942 -120.230242 
L 91.591719 -121.018731 
L 91.729397 -121.80722 
L 91.886145 -122.595709 
L 92.05482 -123.384198 
L 92.224233 -124.172687 
L 92.382051 -124.961176 
L 92.517607 -125.749665 
L 92.624032 -126.538154 
L 92.699314 -127.326643 
L 92.74621 -128.115132 
L 92.771139 -128.903621 
L 92.782409 -129.69211 
L 92.788205 -130.480599 
L 92.794763 -131.269088 
L 92.805122 -132.057577 
L 92.818669 -132.846066 
L 92.831551 -133.634555 
L 92.837848 -134.423044 
L 92.83124 -135.211533 
L 92.806826 -136.000022 
L 92.762706 -136.788511 
L 92.700966 -137.577 
L 92.627816 -138.365489 
L 92.552805 -139.153978 
L 92.4872 -139.942467 
L 92.441896 -140.730956 
L 92.425287 -141.519445 
L 92.441646 -142.307934 
L 92.490391 -143.096423 
L 92.566403 -143.884912 
L 92.661266 -144.673401 
L 92.76506 -145.46189 
L 92.868208 -146.250379 
L 92.962963 -147.038868 
L 93.044231 -147.827357 
L 93.109717 -148.615846 
L 93.159498 -149.404335 
L 93.25747 -149.404335 
L 93.25747 -149.404335 
L 93.25747 -148.615846 
L 93.25747 -147.827357 
L 93.25747 -147.038868 
L 93.25747 -146.250379 
L 93.25747 -145.46189 
L 93.25747 -144.673401 
L 93.25747 -143.884912 
L 93.25747 -143.096423 
L 93.25747 -142.307934 
L 93.25747 -141.519445 
L 93.25747 -140.730956 
L 93.25747 -139.942467 
L 93.25747 -139.153978 
L 93.25747 -138.365489 
L 93.25747 -137.577 
L 93.25747 -136.788511 
L 93.25747 -136.000022 
L 93.25747 -135.211533 
L 93.25747 -134.423044 
L 93.25747 -133.634555 
L 93.25747 -132.846066 
L 93.25747 -132.057577 
L 93.25747 -131.269088 
L 93.25747 -130.480599 
L 93.25747 -129.69211 
L 93.25747 -128.903621 
L 93.25747 -128.115132 
L 93.25747 -127.326643 
L 93.25747 -126.538154 
L 93.25747 -125.749665 
L 93.25747 -124.961176 
L 93.25747 -124.172687 
L 93.25747 -123.384198 
L 93.25747 -122.595709 
L 93.25747 -121.80722 
L 93.25747 -121.018731 
L 93.25747 -120.230242 
L 93.25747 -119.441753 
L 93.25747 -118.653264 
L 93.25747 -117.864775 
L 93.25747 -117.076286 
L 93.25747 -116.287797 
L 93.25747 -115.499308 
L 93.25747 -114.710819 
L 93.25747 -113.92233 
L 93.25747 -113.133841 
L 93.25747 -112.345352 
L 93.25747 -111.556863 
L 93.25747 -110.768374 
L 93.25747 -109.979885 
L 93.25747 -109.191396 
L 93.25747 -108.402907 
L 93.25747 -107.614418 
L 93.25747 -106.825929 
L 93.25747 -106.03744 
L 93.25747 -105.248951 
L 93.25747 -104.460462 
L 93.25747 -103.671973 
L 93.25747 -102.883484 
L 93.25747 -102.094995 
L 93.25747 -101.306506 
L 93.25747 -100.518017 
L 93.25747 -99.729528 
L 93.25747 -98.941039 
L 93.25747 -98.15255 
L 93.25747 -97.364061 
L 93.25747 -96.575572 
L 93.25747 -95.787083 
L 93.25747 -94.998594 
L 93.25747 -94.210105 
L 93.25747 -93.421616 
L 93.25747 -92.633127 
L 93.25747 -91.844638 
L 93.25747 -91.056149 
L 93.25747 -90.26766 
L 93.25747 -89.479171 
L 93.25747 -88.690682 
L 93.25747 -87.902193 
L 93.25747 -87.113704 
L 93.25747 -86.325215 
L 93.25747 -85.536726 
L 93.25747 -84.748237 
L 93.25747 -83.959748 
L 93.25747 -83.171259 
L 93.25747 -82.38277 
L 93.25747 -81.594281 
L 93.25747 -80.805792 
L 93.25747 -80.017303 
L 93.25747 -79.228814 
L 93.25747 -78.440325 
L 93.25747 -77.651836 
L 93.25747 -76.863347 
L 93.25747 -76.074858 
L 93.25747 -75.286369 
L 93.25747 -74.49788 
L 93.25747 -73.709391 
L 93.25747 -72.920902 
L 93.25747 -72.132413 
L 93.25747 -71.343924 
z
" style="stroke: #4c4c4c; stroke-width: 1.5"/>
    </defs>
    <g clip-path="url(#p02f57d98b1)">
     <use xlink:href="#m873db4ba9e" x="0" y="346.2575" style="fill: #5875a4; stroke: #4c4c4c; stroke-width: 1.5"/>
    </g>
   </g>
   <g id="patch_4">
    <path d="M 93.25747 271.631265 
L 93.25747 271.631265 
L 93.25747 271.631265 
L 93.25747 271.631265 
z
" clip-path="url(#p02f57d98b1)" style="fill: #cc8963; stroke: #4c4c4c; stroke-width: 0.75; stroke-linejoin: miter"/>
   </g>
   <g id="PolyCollection_2">
    <defs>
     <path id="ma9dfe80c0e" d="M 93.994056 -69.479299 
L 93.25747 -69.479299 
L 93.25747 -69.985362 
L 93.25747 -70.491424 
L 93.25747 -70.997487 
L 93.25747 -71.50355 
L 93.25747 -72.009612 
L 93.25747 -72.515675 
L 93.25747 -73.021738 
L 93.25747 -73.5278 
L 93.25747 -74.033863 
L 93.25747 -74.539926 
L 93.25747 -75.045988 
L 93.25747 -75.552051 
L 93.25747 -76.058114 
L 93.25747 -76.564177 
L 93.25747 -77.070239 
L 93.25747 -77.576302 
L 93.25747 -78.082365 
L 93.25747 -78.588427 
L 93.25747 -79.09449 
L 93.25747 -79.600553 
L 93.25747 -80.106615 
L 93.25747 -80.612678 
L 93.25747 -81.118741 
L 93.25747 -81.624803 
L 93.25747 -82.130866 
L 93.25747 -82.636929 
L 93.25747 -83.142991 
L 93.25747 -83.649054 
L 93.25747 -84.155117 
L 93.25747 -84.661179 
L 93.25747 -85.167242 
L 93.25747 -85.673305 
L 93.25747 -86.179367 
L 93.25747 -86.68543 
L 93.25747 -87.191493 
L 93.25747 -87.697555 
L 93.25747 -88.203618 
L 93.25747 -88.709681 
L 93.25747 -89.215744 
L 93.25747 -89.721806 
L 93.25747 -90.227869 
L 93.25747 -90.733932 
L 93.25747 -91.239994 
L 93.25747 -91.746057 
L 93.25747 -92.25212 
L 93.25747 -92.758182 
L 93.25747 -93.264245 
L 93.25747 -93.770308 
L 93.25747 -94.27637 
L 93.25747 -94.782433 
L 93.25747 -95.288496 
L 93.25747 -95.794558 
L 93.25747 -96.300621 
L 93.25747 -96.806684 
L 93.25747 -97.312746 
L 93.25747 -97.818809 
L 93.25747 -98.324872 
L 93.25747 -98.830934 
L 93.25747 -99.336997 
L 93.25747 -99.84306 
L 93.25747 -100.349122 
L 93.25747 -100.855185 
L 93.25747 -101.361248 
L 93.25747 -101.867311 
L 93.25747 -102.373373 
L 93.25747 -102.879436 
L 93.25747 -103.385499 
L 93.25747 -103.891561 
L 93.25747 -104.397624 
L 93.25747 -104.903687 
L 93.25747 -105.409749 
L 93.25747 -105.915812 
L 93.25747 -106.421875 
L 93.25747 -106.927937 
L 93.25747 -107.434 
L 93.25747 -107.940063 
L 93.25747 -108.446125 
L 93.25747 -108.952188 
L 93.25747 -109.458251 
L 93.25747 -109.964313 
L 93.25747 -110.470376 
L 93.25747 -110.976439 
L 93.25747 -111.482501 
L 93.25747 -111.988564 
L 93.25747 -112.494627 
L 93.25747 -113.000689 
L 93.25747 -113.506752 
L 93.25747 -114.012815 
L 93.25747 -114.518878 
L 93.25747 -115.02494 
L 93.25747 -115.531003 
L 93.25747 -116.037066 
L 93.25747 -116.543128 
L 93.25747 -117.049191 
L 93.25747 -117.555254 
L 93.25747 -118.061316 
L 93.25747 -118.567379 
L 93.25747 -119.073442 
L 93.25747 -119.579504 
L 93.341923 -119.579504 
L 93.341923 -119.579504 
L 93.38166 -119.073442 
L 93.433816 -118.567379 
L 93.49954 -118.061316 
L 93.579174 -117.555254 
L 93.672159 -117.049191 
L 93.777158 -116.543128 
L 93.892393 -116.037066 
L 94.016118 -115.531003 
L 94.147081 -115.02494 
L 94.284775 -114.518878 
L 94.429335 -114.012815 
L 94.581005 -113.506752 
L 94.739285 -113.000689 
L 94.901988 -112.494627 
L 95.064517 -111.988564 
L 95.219685 -111.482501 
L 95.358245 -110.976439 
L 95.470126 -110.470376 
L 95.546163 -109.964313 
L 95.579925 -109.458251 
L 95.569235 -108.952188 
L 95.517019 -108.446125 
L 95.431303 -107.940063 
L 95.324387 -107.434 
L 95.211436 -106.927937 
L 95.108807 -106.421875 
L 95.032465 -105.915812 
L 94.996702 -105.409749 
L 95.013246 -104.903687 
L 95.090662 -104.397624 
L 95.233921 -103.891561 
L 95.444015 -103.385499 
L 95.717619 -102.879436 
L 96.046947 -102.373373 
L 96.419993 -101.867311 
L 96.821345 -101.361248 
L 97.233594 -100.855185 
L 97.639183 -100.349122 
L 98.022415 -99.84306 
L 98.371268 -99.336997 
L 98.678809 -98.830934 
L 98.944168 -98.324872 
L 99.173212 -97.818809 
L 99.379142 -97.312746 
L 99.583138 -96.806684 
L 99.814986 -96.300621 
L 100.113347 -95.794558 
L 100.525168 -95.288496 
L 101.103724 -94.782433 
L 101.904986 -94.27637 
L 102.982363 -93.770308 
L 104.38026 -93.264245 
L 106.12727 -92.758182 
L 108.229958 -92.25212 
L 110.668216 -91.746057 
L 113.392971 -91.239994 
L 116.326726 -90.733932 
L 119.367167 -90.227869 
L 122.393704 -89.721806 
L 125.276638 -89.215744 
L 127.888336 -88.709681 
L 130.115498 -88.203618 
L 131.871266 -87.697555 
L 133.105598 -87.191493 
L 133.812215 -86.68543 
L 134.030631 -86.179367 
L 133.8424 -85.673305 
L 133.361664 -85.167242 
L 132.721214 -84.661179 
L 132.056152 -84.155117 
L 131.487746 -83.649054 
L 131.109849 -83.142991 
L 130.979573 -82.636929 
L 131.112862 -82.130866 
L 131.484614 -81.624803 
L 132.03239 -81.118741 
L 132.662613 -80.612678 
L 133.258463 -80.106615 
L 133.689201 -79.600553 
L 133.821013 -79.09449 
L 133.529403 -78.588427 
L 132.712672 -78.082365 
L 131.305145 -77.576302 
L 129.288068 -77.070239 
L 126.695734 -76.564177 
L 123.614881 -76.058114 
L 120.176587 -75.552051 
L 116.541509 -75.045988 
L 112.880911 -74.539926 
L 109.356911 -74.033863 
L 106.105454 -73.5278 
L 103.224738 -73.021738 
L 100.770402 -72.515675 
L 98.757256 -72.009612 
L 97.166068 -71.50355 
L 95.953263 -70.997487 
L 95.061327 -70.491424 
L 94.428124 -69.985362 
L 93.994056 -69.479299 
z
" style="stroke: #4c4c4c; stroke-width: 1.5"/>
    </defs>
    <g clip-path="url(#p02f57d98b1)">
     <use xlink:href="#ma9dfe80c0e" x="0" y="346.2575" style="fill: #cc8963; stroke: #4c4c4c; stroke-width: 1.5"/>
    </g>
   </g>
   <g id="PolyCollection_3">
    <defs>
     <path id="m50a5bb0cfb" d="M 200.479911 -67.250957 
L 198.537071 -67.250957 
L 197.579592 -68.391198 
L 196.272934 -69.531439 
L 194.549965 -70.67168 
L 192.35665 -71.811921 
L 189.664218 -72.952162 
L 186.481749 -74.092403 
L 182.866907 -75.232644 
L 178.932227 -76.372885 
L 174.844505 -77.513126 
L 170.815756 -78.653367 
L 167.085568 -79.793608 
L 163.896501 -80.933849 
L 161.465813 -82.07409 
L 159.958034 -83.214331 
L 159.46311 -84.354572 
L 159.984165 -85.494813 
L 161.437139 -86.635054 
L 163.662392 -87.775295 
L 166.446055 -88.915536 
L 169.547217 -90.055777 
L 172.726244 -91.196018 
L 175.769792 -92.336259 
L 178.509245 -93.4765 
L 180.830968 -94.61674 
L 182.678477 -95.756981 
L 184.047966 -96.897222 
L 184.979317 -98.037463 
L 185.544789 -99.177704 
L 185.837185 -100.317945 
L 185.958637 -101.458186 
L 186.010591 -102.598427 
L 186.08521 -103.738668 
L 186.258353 -104.878909 
L 186.584323 -106.01915 
L 187.092758 -107.159391 
L 187.787977 -108.299632 
L 188.65097 -109.439873 
L 189.643813 -110.580114 
L 190.715932 -111.720355 
L 191.811284 -112.860596 
L 192.875376 -114.000837 
L 193.861164 -115.141078 
L 194.733127 -116.281319 
L 195.469264 -117.42156 
L 196.061112 -118.561801 
L 196.512204 -119.702042 
L 196.83553 -120.842283 
L 197.050559 -121.982524 
L 197.180262 -123.122765 
L 197.248476 -124.263006 
L 197.277752 -125.403247 
L 197.287783 -126.543488 
L 197.294392 -127.683729 
L 197.309059 -128.82397 
L 197.338903 -129.964211 
L 197.38704 -131.104452 
L 197.453208 -132.244693 
L 197.534529 -133.384934 
L 197.626321 -134.525175 
L 197.722869 -135.665416 
L 197.818122 -136.805656 
L 197.906314 -137.945897 
L 197.982515 -139.086138 
L 198.043121 -140.226379 
L 198.086283 -141.36662 
L 198.112205 -142.506861 
L 198.123269 -143.647102 
L 198.123894 -144.787343 
L 198.120106 -145.927584 
L 198.11883 -147.067825 
L 198.126981 -148.208066 
L 198.15051 -149.348307 
L 198.193556 -150.488548 
L 198.257884 -151.628789 
L 198.342704 -152.76903 
L 198.444909 -153.909271 
L 198.559683 -155.049512 
L 198.681348 -156.189753 
L 198.804294 -157.329994 
L 198.923807 -158.470235 
L 199.036675 -159.610476 
L 199.141453 -160.750717 
L 199.238403 -161.890958 
L 199.329125 -163.031199 
L 199.415993 -164.17144 
L 199.501511 -165.311681 
L 199.587728 -166.451922 
L 199.675808 -167.592163 
L 199.765821 -168.732404 
L 199.856777 -169.872645 
L 199.946853 -171.012886 
L 200.03376 -172.153127 
L 200.115147 -173.293368 
L 200.188964 -174.433609 
L 200.253735 -175.57385 
L 200.308689 -176.714091 
L 200.353763 -177.854332 
L 200.389508 -178.994573 
L 200.416918 -180.134813 
L 200.479911 -180.134813 
L 200.479911 -180.134813 
L 200.479911 -178.994573 
L 200.479911 -177.854332 
L 200.479911 -176.714091 
L 200.479911 -175.57385 
L 200.479911 -174.433609 
L 200.479911 -173.293368 
L 200.479911 -172.153127 
L 200.479911 -171.012886 
L 200.479911 -169.872645 
L 200.479911 -168.732404 
L 200.479911 -167.592163 
L 200.479911 -166.451922 
L 200.479911 -165.311681 
L 200.479911 -164.17144 
L 200.479911 -163.031199 
L 200.479911 -161.890958 
L 200.479911 -160.750717 
L 200.479911 -159.610476 
L 200.479911 -158.470235 
L 200.479911 -157.329994 
L 200.479911 -156.189753 
L 200.479911 -155.049512 
L 200.479911 -153.909271 
L 200.479911 -152.76903 
L 200.479911 -151.628789 
L 200.479911 -150.488548 
L 200.479911 -149.348307 
L 200.479911 -148.208066 
L 200.479911 -147.067825 
L 200.479911 -145.927584 
L 200.479911 -144.787343 
L 200.479911 -143.647102 
L 200.479911 -142.506861 
L 200.479911 -141.36662 
L 200.479911 -140.226379 
L 200.479911 -139.086138 
L 200.479911 -137.945897 
L 200.479911 -136.805656 
L 200.479911 -135.665416 
L 200.479911 -134.525175 
L 200.479911 -133.384934 
L 200.479911 -132.244693 
L 200.479911 -131.104452 
L 200.479911 -129.964211 
L 200.479911 -128.82397 
L 200.479911 -127.683729 
L 200.479911 -126.543488 
L 200.479911 -125.403247 
L 200.479911 -124.263006 
L 200.479911 -123.122765 
L 200.479911 -121.982524 
L 200.479911 -120.842283 
L 200.479911 -119.702042 
L 200.479911 -118.561801 
L 200.479911 -117.42156 
L 200.479911 -116.281319 
L 200.479911 -115.141078 
L 200.479911 -114.000837 
L 200.479911 -112.860596 
L 200.479911 -111.720355 
L 200.479911 -110.580114 
L 200.479911 -109.439873 
L 200.479911 -108.299632 
L 200.479911 -107.159391 
L 200.479911 -106.01915 
L 200.479911 -104.878909 
L 200.479911 -103.738668 
L 200.479911 -102.598427 
L 200.479911 -101.458186 
L 200.479911 -100.317945 
L 200.479911 -99.177704 
L 200.479911 -98.037463 
L 200.479911 -96.897222 
L 200.479911 -95.756981 
L 200.479911 -94.61674 
L 200.479911 -93.4765 
L 200.479911 -92.336259 
L 200.479911 -91.196018 
L 200.479911 -90.055777 
L 200.479911 -88.915536 
L 200.479911 -87.775295 
L 200.479911 -86.635054 
L 200.479911 -85.494813 
L 200.479911 -84.354572 
L 200.479911 -83.214331 
L 200.479911 -82.07409 
L 200.479911 -80.933849 
L 200.479911 -79.793608 
L 200.479911 -78.653367 
L 200.479911 -77.513126 
L 200.479911 -76.372885 
L 200.479911 -75.232644 
L 200.479911 -74.092403 
L 200.479911 -72.952162 
L 200.479911 -71.811921 
L 200.479911 -70.67168 
L 200.479911 -69.531439 
L 200.479911 -68.391198 
L 200.479911 -67.250957 
z
" style="stroke: #4c4c4c; stroke-width: 1.5"/>
    </defs>
    <g clip-path="url(#p02f57d98b1)">
     <use xlink:href="#m50a5bb0cfb" x="0" y="346.2575" style="fill: #5875a4; stroke: #4c4c4c; stroke-width: 1.5"/>
    </g>
   </g>
   <g id="PolyCollection_4">
    <defs>
     <path id="m752f5e8b80" d="M 201.170551 -61.513276 
L 200.479911 -61.513276 
L 200.479911 -63.023403 
L 200.479911 -64.53353 
L 200.479911 -66.043657 
L 200.479911 -67.553785 
L 200.479911 -69.063912 
L 200.479911 -70.574039 
L 200.479911 -72.084166 
L 200.479911 -73.594294 
L 200.479911 -75.104421 
L 200.479911 -76.614548 
L 200.479911 -78.124676 
L 200.479911 -79.634803 
L 200.479911 -81.14493 
L 200.479911 -82.655057 
L 200.479911 -84.165185 
L 200.479911 -85.675312 
L 200.479911 -87.185439 
L 200.479911 -88.695566 
L 200.479911 -90.205694 
L 200.479911 -91.715821 
L 200.479911 -93.225948 
L 200.479911 -94.736076 
L 200.479911 -96.246203 
L 200.479911 -97.75633 
L 200.479911 -99.266457 
L 200.479911 -100.776585 
L 200.479911 -102.286712 
L 200.479911 -103.796839 
L 200.479911 -105.306966 
L 200.479911 -106.817094 
L 200.479911 -108.327221 
L 200.479911 -109.837348 
L 200.479911 -111.347476 
L 200.479911 -112.857603 
L 200.479911 -114.36773 
L 200.479911 -115.877857 
L 200.479911 -117.387985 
L 200.479911 -118.898112 
L 200.479911 -120.408239 
L 200.479911 -121.918367 
L 200.479911 -123.428494 
L 200.479911 -124.938621 
L 200.479911 -126.448748 
L 200.479911 -127.958876 
L 200.479911 -129.469003 
L 200.479911 -130.97913 
L 200.479911 -132.489257 
L 200.479911 -133.999385 
L 200.479911 -135.509512 
L 200.479911 -137.019639 
L 200.479911 -138.529767 
L 200.479911 -140.039894 
L 200.479911 -141.550021 
L 200.479911 -143.060148 
L 200.479911 -144.570276 
L 200.479911 -146.080403 
L 200.479911 -147.59053 
L 200.479911 -149.100657 
L 200.479911 -150.610785 
L 200.479911 -152.120912 
L 200.479911 -153.631039 
L 200.479911 -155.141167 
L 200.479911 -156.651294 
L 200.479911 -158.161421 
L 200.479911 -159.671548 
L 200.479911 -161.181676 
L 200.479911 -162.691803 
L 200.479911 -164.20193 
L 200.479911 -165.712057 
L 200.479911 -167.222185 
L 200.479911 -168.732312 
L 200.479911 -170.242439 
L 200.479911 -171.752567 
L 200.479911 -173.262694 
L 200.479911 -174.772821 
L 200.479911 -176.282948 
L 200.479911 -177.793076 
L 200.479911 -179.303203 
L 200.479911 -180.81333 
L 200.479911 -182.323457 
L 200.479911 -183.833585 
L 200.479911 -185.343712 
L 200.479911 -186.853839 
L 200.479911 -188.363967 
L 200.479911 -189.874094 
L 200.479911 -191.384221 
L 200.479911 -192.894348 
L 200.479911 -194.404476 
L 200.479911 -195.914603 
L 200.479911 -197.42473 
L 200.479911 -198.934857 
L 200.479911 -200.444985 
L 200.479911 -201.955112 
L 200.479911 -203.465239 
L 200.479911 -204.975367 
L 200.479911 -206.485494 
L 200.479911 -207.995621 
L 200.479911 -209.505748 
L 200.479911 -211.015876 
L 200.540062 -211.015876 
L 200.540062 -211.015876 
L 200.575548 -209.505748 
L 200.624556 -207.995621 
L 200.688057 -206.485494 
L 200.76495 -204.975367 
L 200.851441 -203.465239 
L 200.940921 -201.955112 
L 201.024562 -200.444985 
L 201.092653 -198.934857 
L 201.136431 -197.42473 
L 201.149956 -195.914603 
L 201.131505 -194.404476 
L 201.084054 -192.894348 
L 201.014735 -191.384221 
L 200.933427 -189.874094 
L 200.850928 -188.363967 
L 200.777194 -186.853839 
L 200.720016 -185.343712 
L 200.684312 -183.833585 
L 200.671961 -182.323457 
L 200.682027 -180.81333 
L 200.711217 -179.303203 
L 200.754496 -177.793076 
L 200.805828 -176.282948 
L 200.859028 -174.772821 
L 200.90859 -173.262694 
L 200.950323 -171.752567 
L 200.981601 -170.242439 
L 201.001194 -168.732312 
L 201.008809 -167.222185 
L 201.004642 -165.712057 
L 200.989241 -164.20193 
L 200.963792 -162.691803 
L 200.930741 -161.181676 
L 200.894434 -159.671548 
L 200.861414 -158.161421 
L 200.840161 -156.651294 
L 200.84022 -155.141167 
L 200.870877 -153.631039 
L 200.939665 -152.120912 
L 201.050943 -150.610785 
L 201.204822 -149.100657 
L 201.396594 -147.59053 
L 201.616798 -146.080403 
L 201.851955 -144.570276 
L 202.085941 -143.060148 
L 202.301825 -141.550021 
L 202.483945 -140.039894 
L 202.619938 -138.529767 
L 202.70242 -137.019639 
L 202.730092 -135.509512 
L 202.708078 -133.999385 
L 202.647399 -132.489257 
L 202.563649 -130.97913 
L 202.475046 -129.469003 
L 202.400199 -127.958876 
L 202.356059 -126.448748 
L 202.356461 -124.938621 
L 202.411579 -123.428494 
L 202.528354 -121.918367 
L 202.711671 -120.408239 
L 202.965795 -118.898112 
L 203.295402 -117.387985 
L 203.705624 -115.877857 
L 204.200804 -114.36773 
L 204.78234 -112.857603 
L 205.446743 -111.347476 
L 206.185655 -109.837348 
L 206.989457 -108.327221 
L 207.855122 -106.817094 
L 208.797007 -105.306966 
L 209.857176 -103.796839 
L 211.110445 -102.286712 
L 212.659571 -100.776585 
L 214.618256 -99.266457 
L 217.083344 -97.75633 
L 220.101621 -96.246203 
L 223.63957 -94.736076 
L 227.565008 -93.225948 
L 231.647426 -91.715821 
L 235.579394 -90.205694 
L 239.015938 -88.695566 
L 241.624063 -87.185439 
L 243.13208 -85.675312 
L 243.368887 -84.165185 
L 242.286382 -82.655057 
L 239.962555 -81.14493 
L 236.586805 -79.634803 
L 232.431729 -78.124676 
L 227.81672 -76.614548 
L 223.068862 -75.104421 
L 218.486259 -73.594294 
L 214.308524 -72.084166 
L 210.69819 -70.574039 
L 207.735105 -69.063912 
L 205.423489 -67.553785 
L 203.708707 -66.043657 
L 202.499108 -64.53353 
L 201.68783 -63.023403 
L 201.170551 -61.513276 
z
" style="stroke: #4c4c4c; stroke-width: 1.5"/>
    </defs>
    <g clip-path="url(#p02f57d98b1)">
     <use xlink:href="#m752f5e8b80" x="0" y="346.2575" style="fill: #cc8963; stroke: #4c4c4c; stroke-width: 1.5"/>
    </g>
   </g>
   <g id="PolyCollection_5">
    <defs>
     <path id="mbd7feb76f6" d="M 307.702351 -68.61647 
L 307.016467 -68.61647 
L 306.382961 -70.365561 
L 305.313976 -72.114651 
L 303.62759 -73.863741 
L 301.140534 -75.612832 
L 297.714246 -77.361922 
L 293.313222 -79.111012 
L 288.06155 -80.860103 
L 282.277354 -82.609193 
L 276.464597 -84.358283 
L 271.250129 -86.107374 
L 267.270949 -87.856464 
L 265.037421 -89.605554 
L 264.813375 -91.354645 
L 266.554324 -93.103735 
L 269.926732 -94.852825 
L 274.401101 -96.601916 
L 279.383849 -98.351006 
L 284.341556 -100.100096 
L 288.880971 -101.849187 
L 292.772134 -103.598277 
L 295.926235 -105.347368 
L 298.352738 -107.096458 
L 300.118709 -108.845548 
L 301.322122 -110.594639 
L 302.078643 -112.343729 
L 302.514271 -114.092819 
L 302.756115 -115.84191 
L 302.91834 -117.591 
L 303.086186 -119.34009 
L 303.304451 -121.089181 
L 303.576258 -122.838271 
L 303.873742 -124.587361 
L 304.156934 -126.336452 
L 304.393366 -128.085542 
L 304.570861 -129.834632 
L 304.699415 -131.583723 
L 304.803186 -133.332813 
L 304.90772 -135.081903 
L 305.028918 -136.830994 
L 305.168495 -138.580084 
L 305.317044 -140.329175 
L 305.462021 -142.078265 
L 305.595941 -143.827355 
L 305.720594 -145.576446 
L 305.845694 -147.325536 
L 305.983465 -149.074626 
L 306.142516 -150.823717 
L 306.324022 -152.572807 
L 306.521422 -154.321897 
L 306.722801 -156.070988 
L 306.914216 -157.820078 
L 307.082568 -159.569168 
L 307.217589 -161.318259 
L 307.31319 -163.067349 
L 307.368473 -164.816439 
L 307.388285 -166.56553 
L 307.382816 -168.31462 
L 307.36582 -170.06371 
L 307.351587 -171.812801 
L 307.351468 -173.561891 
L 307.371196 -175.310981 
L 307.410034 -177.060072 
L 307.462025 -178.809162 
L 307.518699 -180.558253 
L 307.572027 -182.307343 
L 307.616512 -184.056433 
L 307.649884 -185.805524 
L 307.672594 -187.554614 
L 307.686692 -189.303704 
L 307.694706 -191.052795 
L 307.698888 -192.801885 
L 307.700896 -194.550975 
L 307.701783 -196.300066 
L 307.702143 -198.049156 
L 307.702272 -199.798246 
L 307.702296 -201.547337 
L 307.702241 -203.296427 
L 307.702047 -205.045517 
L 307.701538 -206.794608 
L 307.700323 -208.543698 
L 307.697659 -210.292788 
L 307.692278 -212.041879 
L 307.682289 -213.790969 
L 307.665277 -215.54006 
L 307.638786 -217.28915 
L 307.601237 -219.03824 
L 307.553119 -220.787331 
L 307.498006 -222.536421 
L 307.442741 -224.285511 
L 307.396343 -226.034602 
L 307.367696 -227.783692 
L 307.362792 -229.532782 
L 307.382692 -231.281873 
L 307.423152 -233.030963 
L 307.476099 -234.780053 
L 307.532243 -236.529144 
L 307.583689 -238.278234 
L 307.625552 -240.027324 
L 307.656236 -241.776415 
L 307.702351 -241.776415 
L 307.702351 -241.776415 
L 307.702351 -240.027324 
L 307.702351 -238.278234 
L 307.702351 -236.529144 
L 307.702351 -234.780053 
L 307.702351 -233.030963 
L 307.702351 -231.281873 
L 307.702351 -229.532782 
L 307.702351 -227.783692 
L 307.702351 -226.034602 
L 307.702351 -224.285511 
L 307.702351 -222.536421 
L 307.702351 -220.787331 
L 307.702351 -219.03824 
L 307.702351 -217.28915 
L 307.702351 -215.54006 
L 307.702351 -213.790969 
L 307.702351 -212.041879 
L 307.702351 -210.292788 
L 307.702351 -208.543698 
L 307.702351 -206.794608 
L 307.702351 -205.045517 
L 307.702351 -203.296427 
L 307.702351 -201.547337 
L 307.702351 -199.798246 
L 307.702351 -198.049156 
L 307.702351 -196.300066 
L 307.702351 -194.550975 
L 307.702351 -192.801885 
L 307.702351 -191.052795 
L 307.702351 -189.303704 
L 307.702351 -187.554614 
L 307.702351 -185.805524 
L 307.702351 -184.056433 
L 307.702351 -182.307343 
L 307.702351 -180.558253 
L 307.702351 -178.809162 
L 307.702351 -177.060072 
L 307.702351 -175.310981 
L 307.702351 -173.561891 
L 307.702351 -171.812801 
L 307.702351 -170.06371 
L 307.702351 -168.31462 
L 307.702351 -166.56553 
L 307.702351 -164.816439 
L 307.702351 -163.067349 
L 307.702351 -161.318259 
L 307.702351 -159.569168 
L 307.702351 -157.820078 
L 307.702351 -156.070988 
L 307.702351 -154.321897 
L 307.702351 -152.572807 
L 307.702351 -150.823717 
L 307.702351 -149.074626 
L 307.702351 -147.325536 
L 307.702351 -145.576446 
L 307.702351 -143.827355 
L 307.702351 -142.078265 
L 307.702351 -140.329175 
L 307.702351 -138.580084 
L 307.702351 -136.830994 
L 307.702351 -135.081903 
L 307.702351 -133.332813 
L 307.702351 -131.583723 
L 307.702351 -129.834632 
L 307.702351 -128.085542 
L 307.702351 -126.336452 
L 307.702351 -124.587361 
L 307.702351 -122.838271 
L 307.702351 -121.089181 
L 307.702351 -119.34009 
L 307.702351 -117.591 
L 307.702351 -115.84191 
L 307.702351 -114.092819 
L 307.702351 -112.343729 
L 307.702351 -110.594639 
L 307.702351 -108.845548 
L 307.702351 -107.096458 
L 307.702351 -105.347368 
L 307.702351 -103.598277 
L 307.702351 -101.849187 
L 307.702351 -100.100096 
L 307.702351 -98.351006 
L 307.702351 -96.601916 
L 307.702351 -94.852825 
L 307.702351 -93.103735 
L 307.702351 -91.354645 
L 307.702351 -89.605554 
L 307.702351 -87.856464 
L 307.702351 -86.107374 
L 307.702351 -84.358283 
L 307.702351 -82.609193 
L 307.702351 -80.860103 
L 307.702351 -79.111012 
L 307.702351 -77.361922 
L 307.702351 -75.612832 
L 307.702351 -73.863741 
L 307.702351 -72.114651 
L 307.702351 -70.365561 
L 307.702351 -68.61647 
z
" style="stroke: #4c4c4c; stroke-width: 1.5"/>
    </defs>
    <g clip-path="url(#p02f57d98b1)">
     <use xlink:href="#mbd7feb76f6" x="0" y="346.2575" style="fill: #5875a4; stroke: #4c4c4c; stroke-width: 1.5"/>
    </g>
   </g>
   <g id="PolyCollection_6">
    <defs>
     <path id="m933bba6832" d="M 308.373346 -56.049964 
L 307.702351 -56.049964 
L 307.702351 -58.62705 
L 307.702351 -61.204136 
L 307.702351 -63.781222 
L 307.702351 -66.358308 
L 307.702351 -68.935394 
L 307.702351 -71.51248 
L 307.702351 -74.089566 
L 307.702351 -76.666652 
L 307.702351 -79.243738 
L 307.702351 -81.820824 
L 307.702351 -84.39791 
L 307.702351 -86.974996 
L 307.702351 -89.552082 
L 307.702351 -92.129168 
L 307.702351 -94.706254 
L 307.702351 -97.28334 
L 307.702351 -99.860426 
L 307.702351 -102.437512 
L 307.702351 -105.014598 
L 307.702351 -107.591684 
L 307.702351 -110.16877 
L 307.702351 -112.745856 
L 307.702351 -115.322942 
L 307.702351 -117.900028 
L 307.702351 -120.477114 
L 307.702351 -123.0542 
L 307.702351 -125.631286 
L 307.702351 -128.208372 
L 307.702351 -130.785458 
L 307.702351 -133.362544 
L 307.702351 -135.93963 
L 307.702351 -138.516716 
L 307.702351 -141.093802 
L 307.702351 -143.670888 
L 307.702351 -146.247974 
L 307.702351 -148.82506 
L 307.702351 -151.402146 
L 307.702351 -153.979232 
L 307.702351 -156.556318 
L 307.702351 -159.133404 
L 307.702351 -161.71049 
L 307.702351 -164.287576 
L 307.702351 -166.864662 
L 307.702351 -169.441748 
L 307.702351 -172.018834 
L 307.702351 -174.59592 
L 307.702351 -177.173006 
L 307.702351 -179.750092 
L 307.702351 -182.327178 
L 307.702351 -184.904264 
L 307.702351 -187.48135 
L 307.702351 -190.058436 
L 307.702351 -192.635522 
L 307.702351 -195.212608 
L 307.702351 -197.789694 
L 307.702351 -200.36678 
L 307.702351 -202.943866 
L 307.702351 -205.520952 
L 307.702351 -208.098038 
L 307.702351 -210.675124 
L 307.702351 -213.25221 
L 307.702351 -215.829296 
L 307.702351 -218.406382 
L 307.702351 -220.983468 
L 307.702351 -223.560554 
L 307.702351 -226.13764 
L 307.702351 -228.714726 
L 307.702351 -231.291812 
L 307.702351 -233.868898 
L 307.702351 -236.445984 
L 307.702351 -239.02307 
L 307.702351 -241.600156 
L 307.702351 -244.177242 
L 307.702351 -246.754328 
L 307.702351 -249.331414 
L 307.702351 -251.9085 
L 307.702351 -254.485586 
L 307.702351 -257.062672 
L 307.702351 -259.639758 
L 307.702351 -262.216844 
L 307.702351 -264.793929 
L 307.702351 -267.371015 
L 307.702351 -269.948101 
L 307.702351 -272.525187 
L 307.702351 -275.102273 
L 307.702351 -277.679359 
L 307.702351 -280.256445 
L 307.702351 -282.833531 
L 307.702351 -285.410617 
L 307.702351 -287.987703 
L 307.702351 -290.564789 
L 307.702351 -293.141875 
L 307.702351 -295.718961 
L 307.702351 -298.296047 
L 307.702351 -300.873133 
L 307.702351 -303.450219 
L 307.702351 -306.027305 
L 307.702351 -308.604391 
L 307.702351 -311.181477 
L 307.734074 -311.181477 
L 307.734074 -311.181477 
L 307.75552 -308.604391 
L 307.784862 -306.027305 
L 307.820911 -303.450219 
L 307.860093 -300.873133 
L 307.896694 -298.296047 
L 307.92411 -295.718961 
L 307.936817 -293.141875 
L 307.932329 -290.564789 
L 307.912269 -287.987703 
L 307.882077 -285.410617 
L 307.849505 -282.833531 
L 307.822549 -280.256445 
L 307.807559 -277.679359 
L 307.807961 -275.102273 
L 307.823663 -272.525187 
L 307.851074 -269.948101 
L 307.883723 -267.371015 
L 307.913579 -264.793929 
L 307.932958 -262.216844 
L 307.936583 -259.639758 
L 307.923044 -257.062672 
L 307.895017 -254.485586 
L 307.858128 -251.9085 
L 307.818981 -249.331414 
L 307.783206 -246.754328 
L 307.754251 -244.177242 
L 307.733197 -241.600156 
L 307.719326 -239.02307 
L 307.711 -236.445984 
L 307.706432 -233.868898 
L 307.704136 -231.291812 
L 307.703079 -228.714726 
L 307.702646 -226.13764 
L 307.702523 -223.560554 
L 307.702609 -220.983468 
L 307.702978 -218.406382 
L 307.703905 -215.829296 
L 307.70596 -213.25221 
L 307.710135 -210.675124 
L 307.71794 -208.098038 
L 307.731363 -205.520952 
L 307.752623 -202.943866 
L 307.783672 -200.36678 
L 307.82562 -197.789694 
L 307.878355 -195.212608 
L 307.940647 -192.635522 
L 308.010736 -190.058436 
L 308.087023 -187.48135 
L 308.168231 -184.904264 
L 308.252682 -182.327178 
L 308.337008 -179.750092 
L 308.415295 -177.173006 
L 308.479708 -174.59592 
L 308.522856 -172.018834 
L 308.54107 -169.441748 
L 308.537039 -166.864662 
L 308.520494 -164.287576 
L 308.506523 -161.71049 
L 308.512009 -159.133404 
L 308.551197 -156.556318 
L 308.631429 -153.979232 
L 308.75014 -151.402146 
L 308.89422 -148.82506 
L 309.042654 -146.247974 
L 309.172437 -143.670888 
L 309.266353 -141.093802 
L 309.320037 -138.516716 
L 309.345615 -135.93963 
L 309.370592 -133.362544 
L 309.432713 -130.785458 
L 309.573116 -128.208372 
L 309.83028 -125.631286 
L 310.236123 -123.0542 
L 310.814207 -120.477114 
L 311.579629 -117.900028 
L 312.540881 -115.322942 
L 313.704777 -112.745856 
L 315.084831 -110.16877 
L 316.710636 -107.591684 
L 318.63209 -105.014598 
L 320.91032 -102.437512 
L 323.58945 -99.860426 
L 326.650845 -97.28334 
L 329.962572 -94.706254 
L 333.246876 -92.129168 
L 336.09108 -89.552082 
L 338.016675 -86.974996 
L 338.597779 -84.39791 
L 337.592618 -81.820824 
L 335.036112 -79.243738 
L 331.250686 -76.666652 
L 326.765452 -74.089566 
L 322.17437 -71.51248 
L 317.989253 -68.935394 
L 314.540203 -66.358308 
L 311.94856 -63.781222 
L 310.163731 -61.204136 
L 309.033308 -58.62705 
L 308.373346 -56.049964 
z
" style="stroke: #4c4c4c; stroke-width: 1.5"/>
    </defs>
    <g clip-path="url(#p02f57d98b1)">
     <use xlink:href="#m933bba6832" x="0" y="346.2575" style="fill: #cc8963; stroke: #4c4c4c; stroke-width: 1.5"/>
    </g>
   </g>
   <g id="line2d_12">
    <path d="M 93.25747 271.631265 
L 93.25747 245.196864 
" clip-path="url(#p02f57d98b1)" style="fill: none; stroke: #4c4c4c; stroke-width: 1.5; stroke-linecap: round"/>
   </g>
   <g id="line2d_13">
    <path d="M 93.25747 264.588613 
L 93.25747 256.722814 
" clip-path="url(#p02f57d98b1)" style="fill: none; stroke: #4c4c4c; stroke-width: 4.5; stroke-linecap: round"/>
   </g>
   <g id="line2d_14">
    <path d="M 200.479911 271.631265 
L 200.479911 224.339425 
" clip-path="url(#p02f57d98b1)" style="fill: none; stroke: #4c4c4c; stroke-width: 1.5; stroke-linecap: round"/>
   </g>
   <g id="line2d_15">
    <path d="M 200.479911 263.7238 
L 200.479911 247.589058 
" clip-path="url(#p02f57d98b1)" style="fill: none; stroke: #4c4c4c; stroke-width: 4.5; stroke-linecap: round"/>
   </g>
   <g id="line2d_16">
    <path d="M 307.702351 271.631265 
L 307.702351 230.043909 
" clip-path="url(#p02f57d98b1)" style="fill: none; stroke: #4c4c4c; stroke-width: 1.5; stroke-linecap: round"/>
   </g>
   <g id="line2d_17">
    <path d="M 307.702351 262.050494 
L 307.702351 248.57787 
" clip-path="url(#p02f57d98b1)" style="fill: none; stroke: #4c4c4c; stroke-width: 4.5; stroke-linecap: round"/>
   </g>
   <g id="patch_5">
    <path d="M 39.64625 302.991875 
L 39.64625 22.318125 
" style="fill: none; stroke: #262626; stroke-width: 1.25; stroke-linejoin: miter; stroke-linecap: square"/>
   </g>
   <g id="patch_6">
    <path d="M 39.64625 302.991875 
L 361.313572 302.991875 
" style="fill: none; stroke: #262626; stroke-width: 1.25; stroke-linejoin: miter; stroke-linecap: square"/>
   </g>
   <g id="PathCollection_1">
    <defs>
     <path id="m8aaee9903a" d="M 0 1.5 
C 0.397805 1.5 0.77937 1.341951 1.06066 1.06066 
C 1.341951 0.77937 1.5 0.397805 1.5 0 
C 1.5 -0.397805 1.341951 -0.77937 1.06066 -1.06066 
C 0.77937 -1.341951 0.397805 -1.5 0 -1.5 
C -0.397805 -1.5 -0.77937 -1.341951 -1.06066 -1.06066 
C -1.341951 -0.77937 -1.5 -0.397805 -1.5 0 
C -1.5 0.397805 -1.341951 0.77937 -1.06066 1.06066 
C -0.77937 1.341951 -0.397805 1.5 0 1.5 
z
" style="stroke: #4c4c4c"/>
    </defs>
    <g clip-path="url(#p02f57d98b1)">
     <use xlink:href="#m8aaee9903a" x="93.25747" y="259.925066" style="fill: #ffffff; stroke: #4c4c4c"/>
    </g>
   </g>
   <g id="PathCollection_2">
    <g clip-path="url(#p02f57d98b1)">
     <use xlink:href="#m8aaee9903a" x="200.479911" y="260.298459" style="fill: #ffffff; stroke: #4c4c4c"/>
    </g>
   </g>
   <g id="PathCollection_3">
    <g clip-path="url(#p02f57d98b1)">
     <use xlink:href="#m8aaee9903a" x="307.702351" y="256.321862" style="fill: #ffffff; stroke: #4c4c4c"/>
    </g>
   </g>
   <g id="text_14">
    <!-- Dyn_obs = 5.0 -->
    <g style="fill: #262626" transform="translate(156.516786 16.318125)scale(0.12 -0.12)">
     <defs>
      <path id="DejaVuSans-44" d="M 1259 4147 
L 1259 519 
L 2022 519 
Q 2988 519 3436 956 
Q 3884 1394 3884 2338 
Q 3884 3275 3436 3711 
Q 2988 4147 2022 4147 
L 1259 4147 
z
M 628 4666 
L 1925 4666 
Q 3281 4666 3915 4102 
Q 4550 3538 4550 2338 
Q 4550 1131 3912 565 
Q 3275 0 1925 0 
L 628 0 
L 628 4666 
z
" transform="scale(0.015625)"/>
      <path id="DejaVuSans-79" d="M 2059 -325 
Q 1816 -950 1584 -1140 
Q 1353 -1331 966 -1331 
L 506 -1331 
L 506 -850 
L 844 -850 
Q 1081 -850 1212 -737 
Q 1344 -625 1503 -206 
L 1606 56 
L 191 3500 
L 800 3500 
L 1894 763 
L 2988 3500 
L 3597 3500 
L 2059 -325 
z
" transform="scale(0.015625)"/>
      <path id="DejaVuSans-62" d="M 3116 1747 
Q 3116 2381 2855 2742 
Q 2594 3103 2138 3103 
Q 1681 3103 1420 2742 
Q 1159 2381 1159 1747 
Q 1159 1113 1420 752 
Q 1681 391 2138 391 
Q 2594 391 2855 752 
Q 3116 1113 3116 1747 
z
M 1159 2969 
Q 1341 3281 1617 3432 
Q 1894 3584 2278 3584 
Q 2916 3584 3314 3078 
Q 3713 2572 3713 1747 
Q 3713 922 3314 415 
Q 2916 -91 2278 -91 
Q 1894 -91 1617 61 
Q 1341 213 1159 525 
L 1159 0 
L 581 0 
L 581 4863 
L 1159 4863 
L 1159 2969 
z
" transform="scale(0.015625)"/>
      <path id="DejaVuSans-20" transform="scale(0.015625)"/>
      <path id="DejaVuSans-3d" d="M 678 2906 
L 4684 2906 
L 4684 2381 
L 678 2381 
L 678 2906 
z
M 678 1631 
L 4684 1631 
L 4684 1100 
L 678 1100 
L 678 1631 
z
" transform="scale(0.015625)"/>
      <path id="DejaVuSans-2e" d="M 684 794 
L 1344 794 
L 1344 0 
L 684 0 
L 684 794 
z
" transform="scale(0.015625)"/>
     </defs>
     <use xlink:href="#DejaVuSans-44"/>
     <use xlink:href="#DejaVuSans-79" x="77.001953"/>
     <use xlink:href="#DejaVuSans-6e" x="136.181641"/>
     <use xlink:href="#DejaVuSans-5f" x="199.560547"/>
     <use xlink:href="#DejaVuSans-6f" x="249.560547"/>
     <use xlink:href="#DejaVuSans-62" x="310.742188"/>
     <use xlink:href="#DejaVuSans-73" x="374.21875"/>
     <use xlink:href="#DejaVuSans-20" x="426.318359"/>
     <use xlink:href="#DejaVuSans-3d" x="458.105469"/>
     <use xlink:href="#DejaVuSans-20" x="541.894531"/>
     <use xlink:href="#DejaVuSans-35" x="573.681641"/>
     <use xlink:href="#DejaVuSans-2e" x="637.304688"/>
     <use xlink:href="#DejaVuSans-30" x="669.091797"/>
    </g>
   </g>
  </g>
  <g id="axes_2">
   <g id="patch_7">
    <path d="M 380.32424 302.991875 
L 701.991561 302.991875 
L 701.991561 22.318125 
L 380.32424 22.318125 
z
" style="fill: #ffffff"/>
   </g>
   <g id="matplotlib.axis_3">
    <g id="xtick_4">
     <g id="line2d_18">
      <g>
       <use xlink:href="#m09cca8fb6e" x="433.93546" y="302.991875" style="fill: #262626; stroke: #262626; stroke-width: 1.25"/>
      </g>
     </g>
     <g id="text_15">
      <!-- map2 -->
      <g style="fill: #262626" transform="translate(418.216632 320.850156)scale(0.11 -0.11)">
       <use xlink:href="#DejaVuSans-6d"/>
       <use xlink:href="#DejaVuSans-61" x="97.412109"/>
       <use xlink:href="#DejaVuSans-70" x="158.691406"/>
       <use xlink:href="#DejaVuSans-32" x="222.167969"/>
      </g>
     </g>
    </g>
    <g id="xtick_5">
     <g id="line2d_19">
      <g>
       <use xlink:href="#m09cca8fb6e" x="541.1579" y="302.991875" style="fill: #262626; stroke: #262626; stroke-width: 1.25"/>
      </g>
     </g>
     <g id="text_16">
      <!-- map5 -->
      <g style="fill: #262626" transform="translate(525.439072 320.850156)scale(0.11 -0.11)">
       <use xlink:href="#DejaVuSans-6d"/>
       <use xlink:href="#DejaVuSans-61" x="97.412109"/>
       <use xlink:href="#DejaVuSans-70" x="158.691406"/>
       <use xlink:href="#DejaVuSans-35" x="222.167969"/>
      </g>
     </g>
    </g>
    <g id="xtick_6">
     <g id="line2d_20">
      <g>
       <use xlink:href="#m09cca8fb6e" x="648.380341" y="302.991875" style="fill: #262626; stroke: #262626; stroke-width: 1.25"/>
      </g>
     </g>
     <g id="text_17">
      <!-- small_warehouse -->
      <g style="fill: #262626" transform="translate(601.005575 320.850156)scale(0.11 -0.11)">
       <use xlink:href="#DejaVuSans-73"/>
       <use xlink:href="#DejaVuSans-6d" x="52.099609"/>
       <use xlink:href="#DejaVuSans-61" x="149.511719"/>
       <use xlink:href="#DejaVuSans-6c" x="210.791016"/>
       <use xlink:href="#DejaVuSans-6c" x="238.574219"/>
       <use xlink:href="#DejaVuSans-5f" x="266.357422"/>
       <use xlink:href="#DejaVuSans-77" x="316.357422"/>
       <use xlink:href="#DejaVuSans-61" x="398.144531"/>
       <use xlink:href="#DejaVuSans-72" x="459.423828"/>
       <use xlink:href="#DejaVuSans-65" x="498.287109"/>
       <use xlink:href="#DejaVuSans-68" x="559.810547"/>
       <use xlink:href="#DejaVuSans-6f" x="623.189453"/>
       <use xlink:href="#DejaVuSans-75" x="684.371094"/>
       <use xlink:href="#DejaVuSans-73" x="747.75"/>
       <use xlink:href="#DejaVuSans-65" x="799.849609"/>
      </g>
     </g>
    </g>
    <g id="text_18">
     <!-- World -->
     <g style="fill: #262626" transform="translate(523.96415 336.561875)scale(0.12 -0.12)">
      <use xlink:href="#DejaVuSans-57"/>
      <use xlink:href="#DejaVuSans-6f" x="93.001953"/>
      <use xlink:href="#DejaVuSans-72" x="154.183594"/>
      <use xlink:href="#DejaVuSans-6c" x="195.296875"/>
      <use xlink:href="#DejaVuSans-64" x="223.080078"/>
     </g>
    </g>
   </g>
   <g id="matplotlib.axis_4">
    <g id="ytick_9">
     <g id="line2d_21">
      <g>
       <use xlink:href="#madfb5a62c1" x="380.32424" y="271.631265" style="fill: #262626; stroke: #262626; stroke-width: 1.25"/>
      </g>
     </g>
    </g>
    <g id="ytick_10">
     <g id="line2d_22">
      <g>
       <use xlink:href="#madfb5a62c1" x="380.32424" y="240.08463" style="fill: #262626; stroke: #262626; stroke-width: 1.25"/>
      </g>
     </g>
    </g>
    <g id="ytick_11">
     <g id="line2d_23">
      <g>
       <use xlink:href="#madfb5a62c1" x="380.32424" y="208.537996" style="fill: #262626; stroke: #262626; stroke-width: 1.25"/>
      </g>
     </g>
    </g>
    <g id="ytick_12">
     <g id="line2d_24">
      <g>
       <use xlink:href="#madfb5a62c1" x="380.32424" y="176.991361" style="fill: #262626; stroke: #262626; stroke-width: 1.25"/>
      </g>
     </g>
    </g>
    <g id="ytick_13">
     <g id="line2d_25">
      <g>
       <use xlink:href="#madfb5a62c1" x="380.32424" y="145.444726" style="fill: #262626; stroke: #262626; stroke-width: 1.25"/>
      </g>
     </g>
    </g>
    <g id="ytick_14">
     <g id="line2d_26">
      <g>
       <use xlink:href="#madfb5a62c1" x="380.32424" y="113.898092" style="fill: #262626; stroke: #262626; stroke-width: 1.25"/>
      </g>
     </g>
    </g>
    <g id="ytick_15">
     <g id="line2d_27">
      <g>
       <use xlink:href="#madfb5a62c1" x="380.32424" y="82.351457" style="fill: #262626; stroke: #262626; stroke-width: 1.25"/>
      </g>
     </g>
    </g>
    <g id="ytick_16">
     <g id="line2d_28">
      <g>
       <use xlink:href="#madfb5a62c1" x="380.32424" y="50.804822" style="fill: #262626; stroke: #262626; stroke-width: 1.25"/>
      </g>
     </g>
    </g>
   </g>
   <g id="patch_8">
    <path d="M 433.93546 271.631265 
L 433.93546 271.631265 
L 433.93546 271.631265 
L 433.93546 271.631265 
z
" clip-path="url(#p8fca6dfff8)" style="fill: #5875a4; stroke: #4c4c4c; stroke-width: 0.75; stroke-linejoin: miter"/>
   </g>
   <g id="PolyCollection_7">
    <defs>
     <path id="m0ada841dee" d="M 433.93546 -64.956289 
L 433.098597 -64.956289 
L 432.647401 -66.091706 
L 432.015196 -67.227124 
L 431.162208 -68.362541 
L 430.054909 -69.497958 
L 428.673304 -70.633376 
L 427.018523 -71.768793 
L 425.119127 -72.90421 
L 423.034342 -74.039627 
L 420.852616 -75.175045 
L 418.684655 -76.310462 
L 416.651207 -77.445879 
L 414.867233 -78.581297 
L 413.425198 -79.716714 
L 412.380824 -80.852131 
L 411.744408 -81.987549 
L 411.479774 -83.122966 
L 411.511356 -84.258383 
L 411.738075 -85.3938 
L 412.051277 -86.529218 
L 412.353134 -87.664635 
L 412.572011 -88.800052 
L 412.672081 -89.93547 
L 412.655829 -91.070887 
L 412.559556 -92.206304 
L 412.443337 -93.341722 
L 412.377764 -94.477139 
L 412.430167 -95.612556 
L 412.652801 -96.747973 
L 413.074879 -97.883391 
L 413.699396 -99.018808 
L 414.504727 -100.154225 
L 415.450061 -101.289643 
L 416.483172 -102.42506 
L 417.548744 -103.560477 
L 418.595668 -104.695895 
L 419.582197 -105.831312 
L 420.478504 -106.966729 
L 421.266861 -108.102146 
L 421.940121 -109.237564 
L 422.4994 -110.372981 
L 422.951767 -111.508398 
L 423.308463 -112.643816 
L 423.583798 -113.779233 
L 423.794541 -114.91465 
L 423.959492 -116.050068 
L 424.098888 -117.185485 
L 424.233478 -118.320902 
L 424.383269 -119.456319 
L 424.566102 -120.591737 
L 424.796303 -121.727154 
L 425.083609 -122.862571 
L 425.432495 -123.997989 
L 425.84197 -125.133406 
L 426.305803 -126.268823 
L 426.813178 -127.40424 
L 427.349708 -128.539658 
L 427.898783 -129.675075 
L 428.443156 -130.810492 
L 428.9666 -131.94591 
L 429.45546 -133.081327 
L 429.899884 -134.216744 
L 430.294532 -135.352162 
L 430.638704 -136.487579 
L 430.935872 -137.622996 
L 431.192741 -138.758413 
L 431.418011 -139.893831 
L 431.621039 -141.029248 
L 431.810594 -142.164665 
L 431.993837 -143.300083 
L 432.175645 -144.4355 
L 432.358298 -145.570917 
L 432.541544 -146.706335 
L 432.722975 -147.841752 
L 432.898636 -148.977169 
L 433.063765 -150.112586 
L 433.213545 -151.248004 
L 433.343767 -152.383421 
L 433.451358 -153.518838 
L 433.534719 -154.654256 
L 433.59387 -155.789673 
L 433.63043 -156.92509 
L 433.647447 -158.060508 
L 433.649106 -159.195925 
L 433.640337 -160.331342 
L 433.626354 -161.466759 
L 433.612154 -162.602177 
L 433.602046 -163.737594 
L 433.59924 -164.873011 
L 433.60559 -166.008429 
L 433.621513 -167.143846 
L 433.646113 -168.279263 
L 433.677466 -169.414681 
L 433.713034 -170.550098 
L 433.750103 -171.685515 
L 433.786179 -172.820932 
L 433.819282 -173.95635 
L 433.848094 -175.091767 
L 433.871979 -176.227184 
L 433.890892 -177.362602 
L 433.93546 -177.362602 
L 433.93546 -177.362602 
L 433.93546 -176.227184 
L 433.93546 -175.091767 
L 433.93546 -173.95635 
L 433.93546 -172.820932 
L 433.93546 -171.685515 
L 433.93546 -170.550098 
L 433.93546 -169.414681 
L 433.93546 -168.279263 
L 433.93546 -167.143846 
L 433.93546 -166.008429 
L 433.93546 -164.873011 
L 433.93546 -163.737594 
L 433.93546 -162.602177 
L 433.93546 -161.466759 
L 433.93546 -160.331342 
L 433.93546 -159.195925 
L 433.93546 -158.060508 
L 433.93546 -156.92509 
L 433.93546 -155.789673 
L 433.93546 -154.654256 
L 433.93546 -153.518838 
L 433.93546 -152.383421 
L 433.93546 -151.248004 
L 433.93546 -150.112586 
L 433.93546 -148.977169 
L 433.93546 -147.841752 
L 433.93546 -146.706335 
L 433.93546 -145.570917 
L 433.93546 -144.4355 
L 433.93546 -143.300083 
L 433.93546 -142.164665 
L 433.93546 -141.029248 
L 433.93546 -139.893831 
L 433.93546 -138.758413 
L 433.93546 -137.622996 
L 433.93546 -136.487579 
L 433.93546 -135.352162 
L 433.93546 -134.216744 
L 433.93546 -133.081327 
L 433.93546 -131.94591 
L 433.93546 -130.810492 
L 433.93546 -129.675075 
L 433.93546 -128.539658 
L 433.93546 -127.40424 
L 433.93546 -126.268823 
L 433.93546 -125.133406 
L 433.93546 -123.997989 
L 433.93546 -122.862571 
L 433.93546 -121.727154 
L 433.93546 -120.591737 
L 433.93546 -119.456319 
L 433.93546 -118.320902 
L 433.93546 -117.185485 
L 433.93546 -116.050068 
L 433.93546 -114.91465 
L 433.93546 -113.779233 
L 433.93546 -112.643816 
L 433.93546 -111.508398 
L 433.93546 -110.372981 
L 433.93546 -109.237564 
L 433.93546 -108.102146 
L 433.93546 -106.966729 
L 433.93546 -105.831312 
L 433.93546 -104.695895 
L 433.93546 -103.560477 
L 433.93546 -102.42506 
L 433.93546 -101.289643 
L 433.93546 -100.154225 
L 433.93546 -99.018808 
L 433.93546 -97.883391 
L 433.93546 -96.747973 
L 433.93546 -95.612556 
L 433.93546 -94.477139 
L 433.93546 -93.341722 
L 433.93546 -92.206304 
L 433.93546 -91.070887 
L 433.93546 -89.93547 
L 433.93546 -88.800052 
L 433.93546 -87.664635 
L 433.93546 -86.529218 
L 433.93546 -85.3938 
L 433.93546 -84.258383 
L 433.93546 -83.122966 
L 433.93546 -81.987549 
L 433.93546 -80.852131 
L 433.93546 -79.716714 
L 433.93546 -78.581297 
L 433.93546 -77.445879 
L 433.93546 -76.310462 
L 433.93546 -75.175045 
L 433.93546 -74.039627 
L 433.93546 -72.90421 
L 433.93546 -71.768793 
L 433.93546 -70.633376 
L 433.93546 -69.497958 
L 433.93546 -68.362541 
L 433.93546 -67.227124 
L 433.93546 -66.091706 
L 433.93546 -64.956289 
z
" style="stroke: #4c4c4c; stroke-width: 1.5"/>
    </defs>
    <g clip-path="url(#p8fca6dfff8)">
     <use xlink:href="#m0ada841dee" x="0" y="346.2575" style="fill: #5875a4; stroke: #4c4c4c; stroke-width: 1.5"/>
    </g>
   </g>
   <g id="patch_9">
    <path d="M 433.93546 271.631265 
L 433.93546 271.631265 
L 433.93546 271.631265 
L 433.93546 271.631265 
z
" clip-path="url(#p8fca6dfff8)" style="fill: #cc8963; stroke: #4c4c4c; stroke-width: 0.75; stroke-linejoin: miter"/>
   </g>
   <g id="PolyCollection_8">
    <defs>
     <path id="m814aedd269" d="M 434.893246 -66.872358 
L 433.93546 -66.872358 
L 433.93546 -68.075471 
L 433.93546 -69.278583 
L 433.93546 -70.481696 
L 433.93546 -71.684809 
L 433.93546 -72.887921 
L 433.93546 -74.091034 
L 433.93546 -75.294147 
L 433.93546 -76.497259 
L 433.93546 -77.700372 
L 433.93546 -78.903485 
L 433.93546 -80.106597 
L 433.93546 -81.30971 
L 433.93546 -82.512823 
L 433.93546 -83.715935 
L 433.93546 -84.919048 
L 433.93546 -86.122161 
L 433.93546 -87.325274 
L 433.93546 -88.528386 
L 433.93546 -89.731499 
L 433.93546 -90.934612 
L 433.93546 -92.137724 
L 433.93546 -93.340837 
L 433.93546 -94.54395 
L 433.93546 -95.747062 
L 433.93546 -96.950175 
L 433.93546 -98.153288 
L 433.93546 -99.3564 
L 433.93546 -100.559513 
L 433.93546 -101.762626 
L 433.93546 -102.965739 
L 433.93546 -104.168851 
L 433.93546 -105.371964 
L 433.93546 -106.575077 
L 433.93546 -107.778189 
L 433.93546 -108.981302 
L 433.93546 -110.184415 
L 433.93546 -111.387527 
L 433.93546 -112.59064 
L 433.93546 -113.793753 
L 433.93546 -114.996865 
L 433.93546 -116.199978 
L 433.93546 -117.403091 
L 433.93546 -118.606203 
L 433.93546 -119.809316 
L 433.93546 -121.012429 
L 433.93546 -122.215542 
L 433.93546 -123.418654 
L 433.93546 -124.621767 
L 433.93546 -125.82488 
L 433.93546 -127.027992 
L 433.93546 -128.231105 
L 433.93546 -129.434218 
L 433.93546 -130.63733 
L 433.93546 -131.840443 
L 433.93546 -133.043556 
L 433.93546 -134.246668 
L 433.93546 -135.449781 
L 433.93546 -136.652894 
L 433.93546 -137.856007 
L 433.93546 -139.059119 
L 433.93546 -140.262232 
L 433.93546 -141.465345 
L 433.93546 -142.668457 
L 433.93546 -143.87157 
L 433.93546 -145.074683 
L 433.93546 -146.277795 
L 433.93546 -147.480908 
L 433.93546 -148.684021 
L 433.93546 -149.887133 
L 433.93546 -151.090246 
L 433.93546 -152.293359 
L 433.93546 -153.496471 
L 433.93546 -154.699584 
L 433.93546 -155.902697 
L 433.93546 -157.10581 
L 433.93546 -158.308922 
L 433.93546 -159.512035 
L 433.93546 -160.715148 
L 433.93546 -161.91826 
L 433.93546 -163.121373 
L 433.93546 -164.324486 
L 433.93546 -165.527598 
L 433.93546 -166.730711 
L 433.93546 -167.933824 
L 433.93546 -169.136936 
L 433.93546 -170.340049 
L 433.93546 -171.543162 
L 433.93546 -172.746275 
L 433.93546 -173.949387 
L 433.93546 -175.1525 
L 433.93546 -176.355613 
L 433.93546 -177.558725 
L 433.93546 -178.761838 
L 433.93546 -179.964951 
L 433.93546 -181.168063 
L 433.93546 -182.371176 
L 433.93546 -183.574289 
L 433.93546 -184.777401 
L 433.93546 -185.980514 
L 434.005843 -185.980514 
L 434.005843 -185.980514 
L 434.060227 -184.777401 
L 434.136328 -183.574289 
L 434.229156 -182.371176 
L 434.325458 -181.168063 
L 434.40579 -179.964951 
L 434.450593 -178.761838 
L 434.447864 -177.558725 
L 434.398355 -176.355613 
L 434.315237 -175.1525 
L 434.218437 -173.949387 
L 434.126952 -172.746275 
L 434.053147 -171.543162 
L 434.001147 -170.340049 
L 433.968757 -169.136936 
L 433.950789 -167.933824 
L 433.941869 -166.730711 
L 433.937893 -165.527598 
L 433.936299 -164.324486 
L 433.935723 -163.121373 
L 433.935535 -161.91826 
L 433.935479 -160.715148 
L 433.935464 -159.512035 
L 433.935461 -158.308922 
L 433.93546 -157.10581 
L 433.93546 -155.902697 
L 433.93546 -154.699584 
L 433.93546 -153.496471 
L 433.93546 -152.293359 
L 433.93546 -151.090246 
L 433.93546 -149.887133 
L 433.93546 -148.684021 
L 433.93546 -147.480908 
L 433.93546 -146.277795 
L 433.93546 -145.074683 
L 433.93546 -143.87157 
L 433.93546 -142.668457 
L 433.93546 -141.465345 
L 433.93546 -140.262232 
L 433.93546 -139.059119 
L 433.93546 -137.856007 
L 433.93546 -136.652894 
L 433.935463 -135.449781 
L 433.935474 -134.246668 
L 433.935518 -133.043556 
L 433.93568 -131.840443 
L 433.936215 -130.63733 
L 433.937829 -129.434218 
L 433.942254 -128.231105 
L 433.953289 -127.027992 
L 433.978311 -125.82488 
L 434.029865 -124.621767 
L 434.126271 -123.418654 
L 434.289567 -122.215542 
L 434.539352 -121.012429 
L 434.882788 -119.809316 
L 435.304279 -118.606203 
L 435.761281 -117.403091 
L 436.192658 -116.199978 
L 436.540819 -114.996865 
L 436.780113 -113.793753 
L 436.936854 -112.59064 
L 437.087248 -111.387527 
L 437.330047 -110.184415 
L 437.74572 -108.981302 
L 438.363493 -107.778189 
L 439.1549 -106.575077 
L 440.058167 -105.371964 
L 441.020224 -104.168851 
L 442.032699 -102.965739 
L 443.141659 -101.762626 
L 444.426511 -100.559513 
L 445.962295 -99.3564 
L 447.789177 -98.153288 
L 449.906178 -96.950175 
L 452.28765 -95.747062 
L 454.90471 -94.54395 
L 457.732161 -93.340837 
L 460.734092 -92.137724 
L 463.837513 -90.934612 
L 466.912675 -89.731499 
L 469.778465 -88.528386 
L 472.241938 -87.325274 
L 474.162297 -86.122161 
L 475.505749 -84.919048 
L 476.345765 -83.715935 
L 476.784391 -82.512823 
L 476.824436 -81.30971 
L 476.275182 -80.106597 
L 474.777236 -78.903485 
L 471.966329 -77.700372 
L 467.698544 -76.497259 
L 462.20308 -75.294147 
L 456.062479 -74.091034 
L 450.024919 -72.887921 
L 444.752947 -71.684809 
L 440.638162 -70.481696 
L 437.75412 -69.278583 
L 435.932614 -68.075471 
L 434.893246 -66.872358 
z
" style="stroke: #4c4c4c; stroke-width: 1.5"/>
    </defs>
    <g clip-path="url(#p8fca6dfff8)">
     <use xlink:href="#m814aedd269" x="0" y="346.2575" style="fill: #cc8963; stroke: #4c4c4c; stroke-width: 1.5"/>
    </g>
   </g>
   <g id="PolyCollection_9">
    <defs>
     <path id="m765292a5fb" d="M 541.1579 -62.324407 
L 539.752942 -62.324407 
L 539.030302 -64.192947 
L 538.04225 -66.061487 
L 536.74436 -67.930027 
L 535.107531 -69.798567 
L 533.127333 -71.667107 
L 530.831789 -73.535647 
L 528.285458 -75.404187 
L 525.588019 -77.272727 
L 522.866626 -79.141267 
L 520.262715 -81.009807 
L 517.915427 -82.878347 
L 515.944835 -84.746887 
L 514.438362 -86.615427 
L 513.443033 -88.483967 
L 512.964714 -90.352507 
L 512.97378 -92.221047 
L 513.415126 -94.089587 
L 514.219735 -95.958127 
L 515.315065 -97.826667 
L 516.632385 -99.695207 
L 518.110333 -101.563747 
L 519.695178 -103.432287 
L 521.339027 -105.300827 
L 522.997494 -107.169367 
L 524.628166 -109.037908 
L 526.190621 -110.906448 
L 527.648106 -112.774988 
L 528.970374 -114.643528 
L 530.136798 -116.512068 
L 531.13877 -118.380608 
L 531.980589 -120.249148 
L 532.678455 -122.117688 
L 533.257644 -123.986228 
L 533.748431 -125.854768 
L 534.18158 -127.723308 
L 534.584272 -129.591848 
L 534.977184 -131.460388 
L 535.373071 -133.328928 
L 535.776849 -135.197468 
L 536.186866 -137.066008 
L 536.596865 -138.934548 
L 536.99814 -140.803088 
L 537.381485 -142.671628 
L 537.738678 -144.540168 
L 538.063434 -146.408708 
L 538.351865 -148.277248 
L 538.602533 -150.145788 
L 538.816233 -152.014328 
L 538.995598 -153.882868 
L 539.144633 -155.751408 
L 539.26823 -157.619948 
L 539.371706 -159.488488 
L 539.460401 -161.357028 
L 539.539335 -163.225569 
L 539.61291 -165.094109 
L 539.684656 -166.962649 
L 539.757007 -168.831189 
L 539.831135 -170.699729 
L 539.906856 -172.568269 
L 539.982666 -174.436809 
L 540.055925 -176.305349 
L 540.123205 -178.173889 
L 540.180797 -180.042429 
L 540.22529 -181.910969 
L 540.254174 -183.779509 
L 540.266362 -185.648049 
L 540.262536 -187.516589 
L 540.245248 -189.385129 
L 540.21873 -191.253669 
L 540.188397 -193.122209 
L 540.160101 -194.990749 
L 540.139229 -196.859289 
L 540.129804 -198.727829 
L 540.133765 -200.596369 
L 540.150617 -202.464909 
L 540.17754 -204.333449 
L 540.21 -206.201989 
L 540.242732 -208.070529 
L 540.270919 -209.939069 
L 540.29127 -211.807609 
L 540.302771 -213.676149 
L 540.306926 -215.54469 
L 540.307433 -217.41323 
L 540.30939 -219.28177 
L 540.318228 -221.15031 
L 540.338613 -223.01885 
L 540.373564 -224.88739 
L 540.423947 -226.75593 
L 540.488426 -228.62447 
L 540.563814 -230.49301 
L 540.645716 -232.36155 
L 540.729297 -234.23009 
L 540.81 -236.09863 
L 540.884108 -237.96717 
L 540.949066 -239.83571 
L 541.003561 -241.70425 
L 541.047405 -243.57279 
L 541.081287 -245.44133 
L 541.106463 -247.30987 
L 541.1579 -247.30987 
L 541.1579 -247.30987 
L 541.1579 -245.44133 
L 541.1579 -243.57279 
L 541.1579 -241.70425 
L 541.1579 -239.83571 
L 541.1579 -237.96717 
L 541.1579 -236.09863 
L 541.1579 -234.23009 
L 541.1579 -232.36155 
L 541.1579 -230.49301 
L 541.1579 -228.62447 
L 541.1579 -226.75593 
L 541.1579 -224.88739 
L 541.1579 -223.01885 
L 541.1579 -221.15031 
L 541.1579 -219.28177 
L 541.1579 -217.41323 
L 541.1579 -215.54469 
L 541.1579 -213.676149 
L 541.1579 -211.807609 
L 541.1579 -209.939069 
L 541.1579 -208.070529 
L 541.1579 -206.201989 
L 541.1579 -204.333449 
L 541.1579 -202.464909 
L 541.1579 -200.596369 
L 541.1579 -198.727829 
L 541.1579 -196.859289 
L 541.1579 -194.990749 
L 541.1579 -193.122209 
L 541.1579 -191.253669 
L 541.1579 -189.385129 
L 541.1579 -187.516589 
L 541.1579 -185.648049 
L 541.1579 -183.779509 
L 541.1579 -181.910969 
L 541.1579 -180.042429 
L 541.1579 -178.173889 
L 541.1579 -176.305349 
L 541.1579 -174.436809 
L 541.1579 -172.568269 
L 541.1579 -170.699729 
L 541.1579 -168.831189 
L 541.1579 -166.962649 
L 541.1579 -165.094109 
L 541.1579 -163.225569 
L 541.1579 -161.357028 
L 541.1579 -159.488488 
L 541.1579 -157.619948 
L 541.1579 -155.751408 
L 541.1579 -153.882868 
L 541.1579 -152.014328 
L 541.1579 -150.145788 
L 541.1579 -148.277248 
L 541.1579 -146.408708 
L 541.1579 -144.540168 
L 541.1579 -142.671628 
L 541.1579 -140.803088 
L 541.1579 -138.934548 
L 541.1579 -137.066008 
L 541.1579 -135.197468 
L 541.1579 -133.328928 
L 541.1579 -131.460388 
L 541.1579 -129.591848 
L 541.1579 -127.723308 
L 541.1579 -125.854768 
L 541.1579 -123.986228 
L 541.1579 -122.117688 
L 541.1579 -120.249148 
L 541.1579 -118.380608 
L 541.1579 -116.512068 
L 541.1579 -114.643528 
L 541.1579 -112.774988 
L 541.1579 -110.906448 
L 541.1579 -109.037908 
L 541.1579 -107.169367 
L 541.1579 -105.300827 
L 541.1579 -103.432287 
L 541.1579 -101.563747 
L 541.1579 -99.695207 
L 541.1579 -97.826667 
L 541.1579 -95.958127 
L 541.1579 -94.089587 
L 541.1579 -92.221047 
L 541.1579 -90.352507 
L 541.1579 -88.483967 
L 541.1579 -86.615427 
L 541.1579 -84.746887 
L 541.1579 -82.878347 
L 541.1579 -81.009807 
L 541.1579 -79.141267 
L 541.1579 -77.272727 
L 541.1579 -75.404187 
L 541.1579 -73.535647 
L 541.1579 -71.667107 
L 541.1579 -69.798567 
L 541.1579 -67.930027 
L 541.1579 -66.061487 
L 541.1579 -64.192947 
L 541.1579 -62.324407 
z
" style="stroke: #4c4c4c; stroke-width: 1.5"/>
    </defs>
    <g clip-path="url(#p8fca6dfff8)">
     <use xlink:href="#m765292a5fb" x="0" y="346.2575" style="fill: #5875a4; stroke: #4c4c4c; stroke-width: 1.5"/>
    </g>
   </g>
   <g id="PolyCollection_10">
    <defs>
     <path id="m0040c85d16" d="M 541.963718 -60.691229 
L 541.1579 -60.691229 
L 541.1579 -62.933476 
L 541.1579 -65.175723 
L 541.1579 -67.41797 
L 541.1579 -69.660216 
L 541.1579 -71.902463 
L 541.1579 -74.14471 
L 541.1579 -76.386956 
L 541.1579 -78.629203 
L 541.1579 -80.87145 
L 541.1579 -83.113697 
L 541.1579 -85.355943 
L 541.1579 -87.59819 
L 541.1579 -89.840437 
L 541.1579 -92.082684 
L 541.1579 -94.32493 
L 541.1579 -96.567177 
L 541.1579 -98.809424 
L 541.1579 -101.05167 
L 541.1579 -103.293917 
L 541.1579 -105.536164 
L 541.1579 -107.778411 
L 541.1579 -110.020657 
L 541.1579 -112.262904 
L 541.1579 -114.505151 
L 541.1579 -116.747397 
L 541.1579 -118.989644 
L 541.1579 -121.231891 
L 541.1579 -123.474138 
L 541.1579 -125.716384 
L 541.1579 -127.958631 
L 541.1579 -130.200878 
L 541.1579 -132.443125 
L 541.1579 -134.685371 
L 541.1579 -136.927618 
L 541.1579 -139.169865 
L 541.1579 -141.412111 
L 541.1579 -143.654358 
L 541.1579 -145.896605 
L 541.1579 -148.138852 
L 541.1579 -150.381098 
L 541.1579 -152.623345 
L 541.1579 -154.865592 
L 541.1579 -157.107838 
L 541.1579 -159.350085 
L 541.1579 -161.592332 
L 541.1579 -163.834579 
L 541.1579 -166.076825 
L 541.1579 -168.319072 
L 541.1579 -170.561319 
L 541.1579 -172.803565 
L 541.1579 -175.045812 
L 541.1579 -177.288059 
L 541.1579 -179.530306 
L 541.1579 -181.772552 
L 541.1579 -184.014799 
L 541.1579 -186.257046 
L 541.1579 -188.499293 
L 541.1579 -190.741539 
L 541.1579 -192.983786 
L 541.1579 -195.226033 
L 541.1579 -197.468279 
L 541.1579 -199.710526 
L 541.1579 -201.952773 
L 541.1579 -204.19502 
L 541.1579 -206.437266 
L 541.1579 -208.679513 
L 541.1579 -210.92176 
L 541.1579 -213.164006 
L 541.1579 -215.406253 
L 541.1579 -217.6485 
L 541.1579 -219.890747 
L 541.1579 -222.132993 
L 541.1579 -224.37524 
L 541.1579 -226.617487 
L 541.1579 -228.859734 
L 541.1579 -231.10198 
L 541.1579 -233.344227 
L 541.1579 -235.586474 
L 541.1579 -237.82872 
L 541.1579 -240.070967 
L 541.1579 -242.313214 
L 541.1579 -244.555461 
L 541.1579 -246.797707 
L 541.1579 -249.039954 
L 541.1579 -251.282201 
L 541.1579 -253.524447 
L 541.1579 -255.766694 
L 541.1579 -258.008941 
L 541.1579 -260.251188 
L 541.1579 -262.493434 
L 541.1579 -264.735681 
L 541.1579 -266.977928 
L 541.1579 -269.220174 
L 541.1579 -271.462421 
L 541.1579 -273.704668 
L 541.1579 -275.946915 
L 541.1579 -278.189161 
L 541.1579 -280.431408 
L 541.1579 -282.673655 
L 541.207879 -282.673655 
L 541.207879 -282.673655 
L 541.247375 -280.431408 
L 541.302847 -278.189161 
L 541.37037 -275.946915 
L 541.43972 -273.704668 
L 541.496143 -271.462421 
L 541.525241 -269.220174 
L 541.51889 -266.977928 
L 541.478899 -264.735681 
L 541.416184 -262.493434 
L 541.345951 -260.251188 
L 541.28179 -258.008941 
L 541.231755 -255.766694 
L 541.197739 -253.524447 
L 541.177346 -251.282201 
L 541.166489 -249.039954 
L 541.161333 -246.797707 
L 541.159142 -244.555461 
L 541.158307 -242.313214 
L 541.158021 -240.070967 
L 541.157933 -237.82872 
L 541.157908 -235.586474 
L 541.157902 -233.344227 
L 541.157901 -231.10198 
L 541.1579 -228.859734 
L 541.1579 -226.617487 
L 541.1579 -224.37524 
L 541.1579 -222.132993 
L 541.1579 -219.890747 
L 541.1579 -217.6485 
L 541.1579 -215.406253 
L 541.1579 -213.164006 
L 541.1579 -210.92176 
L 541.1579 -208.679513 
L 541.1579 -206.437266 
L 541.1579 -204.19502 
L 541.1579 -201.952773 
L 541.1579 -199.710526 
L 541.1579 -197.468279 
L 541.1579 -195.226033 
L 541.1579 -192.983786 
L 541.157901 -190.741539 
L 541.157903 -188.499293 
L 541.157913 -186.257046 
L 541.157953 -184.014799 
L 541.1581 -181.772552 
L 541.158585 -179.530306 
L 541.160023 -177.288059 
L 541.163858 -175.045812 
L 541.173032 -172.803565 
L 541.192698 -170.561319 
L 541.230376 -168.319072 
L 541.294715 -166.076825 
L 541.39229 -163.834579 
L 541.523199 -161.592332 
L 541.67806 -159.350085 
L 541.839831 -157.107838 
L 541.991826 -154.865592 
L 542.128739 -152.623345 
L 542.263493 -150.381098 
L 542.42359 -148.138852 
L 542.63715 -145.896605 
L 542.916745 -143.654358 
L 543.251755 -141.412111 
L 543.614468 -139.169865 
L 543.975388 -136.927618 
L 544.317123 -134.685371 
L 544.638658 -132.443125 
L 544.950492 -130.200878 
L 545.268274 -127.958631 
L 545.611811 -125.716384 
L 546.008713 -123.474138 
L 546.494872 -121.231891 
L 547.10484 -118.989644 
L 547.854189 -116.747397 
L 548.725848 -114.505151 
L 549.674543 -112.262904 
L 550.654928 -110.020657 
L 551.664642 -107.778411 
L 552.782216 -105.536164 
L 554.178061 -103.293917 
L 556.085651 -101.05167 
L 558.735048 -98.809424 
L 562.265009 -96.567177 
L 566.63711 -94.32493 
L 571.574636 -92.082684 
L 576.545785 -89.840437 
L 580.810185 -87.59819 
L 583.54501 -85.355943 
L 584.046877 -83.113697 
L 581.961564 -80.87145 
L 577.448197 -78.629203 
L 571.182641 -76.386956 
L 564.170582 -74.14471 
L 557.442346 -71.902463 
L 551.767456 -69.660216 
L 547.508029 -67.41797 
L 544.643466 -65.175723 
L 542.910077 -62.933476 
L 541.963718 -60.691229 
z
" style="stroke: #4c4c4c; stroke-width: 1.5"/>
    </defs>
    <g clip-path="url(#p8fca6dfff8)">
     <use xlink:href="#m0040c85d16" x="0" y="346.2575" style="fill: #cc8963; stroke: #4c4c4c; stroke-width: 1.5"/>
    </g>
   </g>
   <g id="PolyCollection_11">
    <defs>
     <path id="ma91e48c44e" d="M 648.380341 -65.860083 
L 647.69418 -65.860083 
L 647.388394 -66.970787 
L 646.975441 -68.081491 
L 646.430091 -69.192195 
L 645.725602 -70.302899 
L 644.835134 -71.413603 
L 643.733591 -72.524307 
L 642.399822 -73.635012 
L 640.819064 -74.745716 
L 638.985503 -75.85642 
L 636.904706 -76.967124 
L 634.595702 -78.077828 
L 632.092418 -79.188532 
L 629.444152 -80.299236 
L 626.714818 -81.40994 
L 623.980747 -82.520644 
L 621.326981 -83.631348 
L 618.84218 -84.742053 
L 616.612505 -85.852757 
L 614.715038 -86.963461 
L 613.211478 -88.074165 
L 612.142892 -89.184869 
L 611.526241 -90.295573 
L 611.353168 -91.406277 
L 611.591247 -92.516981 
L 612.187539 -93.627685 
L 613.073952 -94.738389 
L 614.17371 -95.849094 
L 615.408069 -96.959798 
L 616.702511 -98.070502 
L 617.991742 -99.181206 
L 619.223096 -100.29191 
L 620.358211 -101.402614 
L 621.373069 -102.513318 
L 622.256726 -103.624022 
L 623.009143 -104.734726 
L 623.63857 -105.845431 
L 624.158886 -106.956135 
L 624.587189 -108.066839 
L 624.941817 -109.177543 
L 625.240849 -110.288247 
L 625.50105 -111.398951 
L 625.737191 -112.509655 
L 625.961654 -113.620359 
L 626.184265 -114.731063 
L 626.412341 -115.841767 
L 626.65094 -116.952472 
L 626.903326 -118.063176 
L 627.171603 -119.17388 
L 627.457466 -120.284584 
L 627.76295 -121.395288 
L 628.091036 -122.505992 
L 628.445988 -123.616696 
L 628.833331 -124.7274 
L 629.259441 -125.838104 
L 629.730805 -126.948808 
L 630.253056 -128.059513 
L 630.829959 -129.170217 
L 631.462531 -130.280921 
L 632.14844 -131.391625 
L 632.881817 -132.502329 
L 633.653502 -133.613033 
L 634.451715 -134.723737 
L 635.263034 -135.834441 
L 636.073565 -136.945145 
L 636.870101 -138.055849 
L 637.64114 -139.166554 
L 638.377611 -140.277258 
L 639.073242 -141.387962 
L 639.724539 -142.498666 
L 640.330445 -143.60937 
L 640.891748 -144.720074 
L 641.410387 -145.830778 
L 641.888783 -146.941482 
L 642.329318 -148.052186 
L 642.734045 -149.162891 
L 643.104658 -150.273595 
L 643.44271 -151.384299 
L 643.749978 -152.495003 
L 644.0289 -153.605707 
L 644.282918 -154.716411 
L 644.516644 -155.827115 
L 644.73575 -156.937819 
L 644.946585 -158.048523 
L 645.15555 -159.159227 
L 645.368346 -160.269932 
L 645.589229 -161.380636 
L 645.820424 -162.49134 
L 646.061817 -163.602044 
L 646.310975 -164.712748 
L 646.563512 -165.823452 
L 646.813715 -166.934156 
L 647.055321 -168.04486 
L 647.282311 -169.155564 
L 647.489592 -170.266268 
L 647.673483 -171.376973 
L 647.83195 -172.487677 
L 647.964595 -173.598381 
L 648.072462 -174.709085 
L 648.157695 -175.819789 
L 648.380341 -175.819789 
L 648.380341 -175.819789 
L 648.380341 -174.709085 
L 648.380341 -173.598381 
L 648.380341 -172.487677 
L 648.380341 -171.376973 
L 648.380341 -170.266268 
L 648.380341 -169.155564 
L 648.380341 -168.04486 
L 648.380341 -166.934156 
L 648.380341 -165.823452 
L 648.380341 -164.712748 
L 648.380341 -163.602044 
L 648.380341 -162.49134 
L 648.380341 -161.380636 
L 648.380341 -160.269932 
L 648.380341 -159.159227 
L 648.380341 -158.048523 
L 648.380341 -156.937819 
L 648.380341 -155.827115 
L 648.380341 -154.716411 
L 648.380341 -153.605707 
L 648.380341 -152.495003 
L 648.380341 -151.384299 
L 648.380341 -150.273595 
L 648.380341 -149.162891 
L 648.380341 -148.052186 
L 648.380341 -146.941482 
L 648.380341 -145.830778 
L 648.380341 -144.720074 
L 648.380341 -143.60937 
L 648.380341 -142.498666 
L 648.380341 -141.387962 
L 648.380341 -140.277258 
L 648.380341 -139.166554 
L 648.380341 -138.055849 
L 648.380341 -136.945145 
L 648.380341 -135.834441 
L 648.380341 -134.723737 
L 648.380341 -133.613033 
L 648.380341 -132.502329 
L 648.380341 -131.391625 
L 648.380341 -130.280921 
L 648.380341 -129.170217 
L 648.380341 -128.059513 
L 648.380341 -126.948808 
L 648.380341 -125.838104 
L 648.380341 -124.7274 
L 648.380341 -123.616696 
L 648.380341 -122.505992 
L 648.380341 -121.395288 
L 648.380341 -120.284584 
L 648.380341 -119.17388 
L 648.380341 -118.063176 
L 648.380341 -116.952472 
L 648.380341 -115.841767 
L 648.380341 -114.731063 
L 648.380341 -113.620359 
L 648.380341 -112.509655 
L 648.380341 -111.398951 
L 648.380341 -110.288247 
L 648.380341 -109.177543 
L 648.380341 -108.066839 
L 648.380341 -106.956135 
L 648.380341 -105.845431 
L 648.380341 -104.734726 
L 648.380341 -103.624022 
L 648.380341 -102.513318 
L 648.380341 -101.402614 
L 648.380341 -100.29191 
L 648.380341 -99.181206 
L 648.380341 -98.070502 
L 648.380341 -96.959798 
L 648.380341 -95.849094 
L 648.380341 -94.738389 
L 648.380341 -93.627685 
L 648.380341 -92.516981 
L 648.380341 -91.406277 
L 648.380341 -90.295573 
L 648.380341 -89.184869 
L 648.380341 -88.074165 
L 648.380341 -86.963461 
L 648.380341 -85.852757 
L 648.380341 -84.742053 
L 648.380341 -83.631348 
L 648.380341 -82.520644 
L 648.380341 -81.40994 
L 648.380341 -80.299236 
L 648.380341 -79.188532 
L 648.380341 -78.077828 
L 648.380341 -76.967124 
L 648.380341 -75.85642 
L 648.380341 -74.745716 
L 648.380341 -73.635012 
L 648.380341 -72.524307 
L 648.380341 -71.413603 
L 648.380341 -70.302899 
L 648.380341 -69.192195 
L 648.380341 -68.081491 
L 648.380341 -66.970787 
L 648.380341 -65.860083 
z
" style="stroke: #4c4c4c; stroke-width: 1.5"/>
    </defs>
    <g clip-path="url(#p8fca6dfff8)">
     <use xlink:href="#ma91e48c44e" x="0" y="346.2575" style="fill: #5875a4; stroke: #4c4c4c; stroke-width: 1.5"/>
    </g>
   </g>
   <g id="PolyCollection_12">
    <defs>
     <path id="md9c38a5bfe" d="M 649.260105 -56.023523 
L 648.380341 -56.023523 
L 648.380341 -58.434319 
L 648.380341 -60.845115 
L 648.380341 -63.255912 
L 648.380341 -65.666708 
L 648.380341 -68.077504 
L 648.380341 -70.488301 
L 648.380341 -72.899097 
L 648.380341 -75.309893 
L 648.380341 -77.72069 
L 648.380341 -80.131486 
L 648.380341 -82.542282 
L 648.380341 -84.953079 
L 648.380341 -87.363875 
L 648.380341 -89.774672 
L 648.380341 -92.185468 
L 648.380341 -94.596264 
L 648.380341 -97.007061 
L 648.380341 -99.417857 
L 648.380341 -101.828653 
L 648.380341 -104.23945 
L 648.380341 -106.650246 
L 648.380341 -109.061042 
L 648.380341 -111.471839 
L 648.380341 -113.882635 
L 648.380341 -116.293431 
L 648.380341 -118.704228 
L 648.380341 -121.115024 
L 648.380341 -123.52582 
L 648.380341 -125.936617 
L 648.380341 -128.347413 
L 648.380341 -130.758209 
L 648.380341 -133.169006 
L 648.380341 -135.579802 
L 648.380341 -137.990598 
L 648.380341 -140.401395 
L 648.380341 -142.812191 
L 648.380341 -145.222987 
L 648.380341 -147.633784 
L 648.380341 -150.04458 
L 648.380341 -152.455376 
L 648.380341 -154.866173 
L 648.380341 -157.276969 
L 648.380341 -159.687765 
L 648.380341 -162.098562 
L 648.380341 -164.509358 
L 648.380341 -166.920154 
L 648.380341 -169.330951 
L 648.380341 -171.741747 
L 648.380341 -174.152544 
L 648.380341 -176.56334 
L 648.380341 -178.974136 
L 648.380341 -181.384933 
L 648.380341 -183.795729 
L 648.380341 -186.206525 
L 648.380341 -188.617322 
L 648.380341 -191.028118 
L 648.380341 -193.438914 
L 648.380341 -195.849711 
L 648.380341 -198.260507 
L 648.380341 -200.671303 
L 648.380341 -203.0821 
L 648.380341 -205.492896 
L 648.380341 -207.903692 
L 648.380341 -210.314489 
L 648.380341 -212.725285 
L 648.380341 -215.136081 
L 648.380341 -217.546878 
L 648.380341 -219.957674 
L 648.380341 -222.36847 
L 648.380341 -224.779267 
L 648.380341 -227.190063 
L 648.380341 -229.600859 
L 648.380341 -232.011656 
L 648.380341 -234.422452 
L 648.380341 -236.833248 
L 648.380341 -239.244045 
L 648.380341 -241.654841 
L 648.380341 -244.065637 
L 648.380341 -246.476434 
L 648.380341 -248.88723 
L 648.380341 -251.298026 
L 648.380341 -253.708823 
L 648.380341 -256.119619 
L 648.380341 -258.530416 
L 648.380341 -260.941212 
L 648.380341 -263.352008 
L 648.380341 -265.762805 
L 648.380341 -268.173601 
L 648.380341 -270.584397 
L 648.380341 -272.995194 
L 648.380341 -275.40599 
L 648.380341 -277.816786 
L 648.380341 -280.227583 
L 648.380341 -282.638379 
L 648.380341 -285.049175 
L 648.380341 -287.459972 
L 648.380341 -289.870768 
L 648.380341 -292.281564 
L 648.380341 -294.692361 
L 648.43108 -294.692361 
L 648.43108 -294.692361 
L 648.462732 -292.281564 
L 648.505437 -289.870768 
L 648.557937 -287.459972 
L 648.616089 -285.049175 
L 648.672951 -282.638379 
L 648.719931 -280.227583 
L 648.748851 -277.816786 
L 648.754261 -275.40599 
L 648.735131 -272.995194 
L 648.695191 -270.584397 
L 648.64182 -268.173601 
L 648.583949 -265.762805 
L 648.529893 -263.352008 
L 648.485889 -260.941212 
L 648.4557 -258.530416 
L 648.441094 -256.119619 
L 648.442653 -253.708823 
L 648.460324 -251.298026 
L 648.493355 -248.88723 
L 648.539656 -246.476434 
L 648.595006 -244.065637 
L 648.652708 -241.654841 
L 648.70419 -239.244045 
L 648.740659 -236.833248 
L 648.755343 -234.422452 
L 648.745492 -232.011656 
L 648.713314 -229.600859 
L 648.665455 -227.190063 
L 648.61131 -224.779267 
L 648.560908 -222.36847 
L 648.523197 -219.957674 
L 648.505153 -217.546878 
L 648.511637 -215.136081 
L 648.545508 -212.725285 
L 648.607534 -210.314489 
L 648.695962 -207.903692 
L 648.806027 -205.492896 
L 648.929955 -203.0821 
L 649.05785 -200.671303 
L 649.179398 -198.260507 
L 649.285757 -195.849711 
L 649.370778 -193.438914 
L 649.430995 -191.028118 
L 649.464535 -188.617322 
L 649.469837 -186.206525 
L 649.445235 -183.795729 
L 649.389991 -181.384933 
L 649.306421 -178.974136 
L 649.202019 -176.56334 
L 649.090393 -174.152544 
L 648.990421 -171.741747 
L 648.92389 -169.330951 
L 648.912437 -166.920154 
L 648.974579 -164.509358 
L 649.12325 -162.098562 
L 649.363827 -159.687765 
L 649.692587 -157.276969 
L 650.095791 -154.866173 
L 650.549987 -152.455376 
L 651.02419 -150.04458 
L 651.484322 -147.633784 
L 651.899557 -145.222987 
L 652.249386 -142.812191 
L 652.529656 -140.401395 
L 652.755777 -137.990598 
L 652.961901 -135.579802 
L 653.195998 -133.169006 
L 653.51204 -130.758209 
L 653.961451 -128.347413 
L 654.586358 -125.936617 
L 655.416673 -123.52582 
L 656.471775 -121.115024 
L 657.765883 -118.704228 
L 659.314596 -116.293431 
L 661.139362 -113.882635 
L 663.267185 -111.471839 
L 665.724577 -109.061042 
L 668.526693 -106.650246 
L 671.663679 -104.23945 
L 675.086092 -101.828653 
L 678.690609 -99.417857 
L 682.307708 -97.007061 
L 685.695331 -94.596264 
L 688.545735 -92.185468 
L 690.513638 -89.774672 
L 691.269317 -87.363875 
L 690.569973 -84.953079 
L 688.330711 -82.542282 
L 684.669669 -80.131486 
L 679.906171 -77.72069 
L 674.506253 -75.309893 
L 668.989948 -72.899097 
L 663.829432 -70.488301 
L 659.369181 -68.077504 
L 655.788493 -65.666708 
L 653.109225 -63.255912 
L 651.236266 -60.845115 
L 650.011032 -58.434319 
L 649.260105 -56.023523 
z
" style="stroke: #4c4c4c; stroke-width: 1.5"/>
    </defs>
    <g clip-path="url(#p8fca6dfff8)">
     <use xlink:href="#md9c38a5bfe" x="0" y="346.2575" style="fill: #cc8963; stroke: #4c4c4c; stroke-width: 1.5"/>
    </g>
   </g>
   <g id="line2d_29">
    <path d="M 433.93546 271.631265 
L 433.93546 222.146768 
" clip-path="url(#p8fca6dfff8)" style="fill: none; stroke: #4c4c4c; stroke-width: 1.5; stroke-linecap: round"/>
   </g>
   <g id="line2d_30">
    <path d="M 433.93546 265.196284 
L 433.93546 247.663602 
" clip-path="url(#p8fca6dfff8)" style="fill: none; stroke: #4c4c4c; stroke-width: 4.5; stroke-linecap: round"/>
   </g>
   <g id="line2d_31">
    <path d="M 541.1579 271.382866 
L 541.1579 208.881598 
" clip-path="url(#p8fca6dfff8)" style="fill: none; stroke: #4c4c4c; stroke-width: 1.5; stroke-linecap: round"/>
   </g>
   <g id="line2d_32">
    <path d="M 541.1579 262.06032 
L 541.1579 240.670366 
" clip-path="url(#p8fca6dfff8)" style="fill: none; stroke: #4c4c4c; stroke-width: 4.5; stroke-linecap: round"/>
   </g>
   <g id="line2d_33">
    <path d="M 648.380341 271.631265 
L 648.380341 193.233205 
" clip-path="url(#p8fca6dfff8)" style="fill: none; stroke: #4c4c4c; stroke-width: 1.5; stroke-linecap: round"/>
   </g>
   <g id="line2d_34">
    <path d="M 648.380341 259.416506 
L 648.380341 231.082641 
" clip-path="url(#p8fca6dfff8)" style="fill: none; stroke: #4c4c4c; stroke-width: 4.5; stroke-linecap: round"/>
   </g>
   <g id="patch_10">
    <path d="M 380.32424 302.991875 
L 380.32424 22.318125 
" style="fill: none; stroke: #262626; stroke-width: 1.25; stroke-linejoin: miter; stroke-linecap: square"/>
   </g>
   <g id="patch_11">
    <path d="M 380.32424 302.991875 
L 701.991561 302.991875 
" style="fill: none; stroke: #262626; stroke-width: 1.25; stroke-linejoin: miter; stroke-linecap: square"/>
   </g>
   <g id="PathCollection_4">
    <g clip-path="url(#p8fca6dfff8)">
     <use xlink:href="#m8aaee9903a" x="433.93546" y="257.820108" style="fill: #ffffff; stroke: #4c4c4c"/>
    </g>
   </g>
   <g id="PathCollection_5">
    <g clip-path="url(#p8fca6dfff8)">
     <use xlink:href="#m8aaee9903a" x="541.1579" y="255.147231" style="fill: #ffffff; stroke: #4c4c4c"/>
    </g>
   </g>
   <g id="PathCollection_6">
    <g clip-path="url(#p8fca6dfff8)">
     <use xlink:href="#m8aaee9903a" x="648.380341" y="251.1047" style="fill: #ffffff; stroke: #4c4c4c"/>
    </g>
   </g>
   <g id="text_19">
    <!-- Dyn_obs = 10.0 -->
    <g style="fill: #262626" transform="translate(493.377275 16.318125)scale(0.12 -0.12)">
     <use xlink:href="#DejaVuSans-44"/>
     <use xlink:href="#DejaVuSans-79" x="77.001953"/>
     <use xlink:href="#DejaVuSans-6e" x="136.181641"/>
     <use xlink:href="#DejaVuSans-5f" x="199.560547"/>
     <use xlink:href="#DejaVuSans-6f" x="249.560547"/>
     <use xlink:href="#DejaVuSans-62" x="310.742188"/>
     <use xlink:href="#DejaVuSans-73" x="374.21875"/>
     <use xlink:href="#DejaVuSans-20" x="426.318359"/>
     <use xlink:href="#DejaVuSans-3d" x="458.105469"/>
     <use xlink:href="#DejaVuSans-20" x="541.894531"/>
     <use xlink:href="#DejaVuSans-31" x="573.681641"/>
     <use xlink:href="#DejaVuSans-30" x="637.304688"/>
     <use xlink:href="#DejaVuSans-2e" x="700.927734"/>
     <use xlink:href="#DejaVuSans-30" x="732.714844"/>
    </g>
   </g>
  </g>
  <g id="legend_1">
   <g id="text_20">
    <!-- dim -->
    <g style="fill: #262626" transform="translate(721.416233 160.294062)scale(0.12 -0.12)">
     <defs>
      <path id="DejaVuSans-69" d="M 603 3500 
L 1178 3500 
L 1178 0 
L 603 0 
L 603 3500 
z
M 603 4863 
L 1178 4863 
L 1178 4134 
L 603 4134 
L 603 4863 
z
" transform="scale(0.015625)"/>
     </defs>
     <use xlink:href="#DejaVuSans-64"/>
     <use xlink:href="#DejaVuSans-69" x="63.476562"/>
     <use xlink:href="#DejaVuSans-6d" x="91.259766"/>
    </g>
   </g>
   <g id="patch_12">
    <path d="M 710.34553 176.647969 
L 732.34553 176.647969 
L 732.34553 168.947969 
L 710.34553 168.947969 
z
" style="fill: #5875a4; stroke: #4c4c4c; stroke-width: 0.75; stroke-linejoin: miter"/>
   </g>
   <g id="text_21">
    <!-- 2d -->
    <g style="fill: #262626" transform="translate(741.14553 176.647969)scale(0.11 -0.11)">
     <use xlink:href="#DejaVuSans-32"/>
     <use xlink:href="#DejaVuSans-64" x="63.623047"/>
    </g>
   </g>
   <g id="patch_13">
    <path d="M 710.34553 192.793906 
L 732.34553 192.793906 
L 732.34553 185.093906 
L 710.34553 185.093906 
z
" style="fill: #cc8963; stroke: #4c4c4c; stroke-width: 0.75; stroke-linejoin: miter"/>
   </g>
   <g id="text_22">
    <!-- 3d -->
    <g style="fill: #262626" transform="translate(741.14553 192.793906)scale(0.11 -0.11)">
     <use xlink:href="#DejaVuSans-33"/>
     <use xlink:href="#DejaVuSans-64" x="63.623047"/>
    </g>
   </g>
  </g>
 </g>
 <defs>
  <clipPath id="p02f57d98b1">
   <rect x="39.64625" y="22.318125" width="321.667322" height="280.67375"/>
  </clipPath>
  <clipPath id="p8fca6dfff8">
   <rect x="380.32424" y="22.318125" width="321.667322" height="280.67375"/>
  </clipPath>
 </defs>
</svg>
