<?xml version="1.0" encoding="utf-8" standalone="no"?>
<!DOCTYPE svg PUBLIC "-//W3C//DTD SVG 1.1//EN"
  "http://www.w3.org/Graphics/SVG/1.1/DTD/svg11.dtd">
<svg xmlns:xlink="http://www.w3.org/1999/xlink" width="764.041137pt" height="346.2575pt" viewBox="0 0 764.041137 346.2575" xmlns="http://www.w3.org/2000/svg" version="1.1">
 <metadata>
  <rdf:RDF xmlns:dc="http://purl.org/dc/elements/1.1/" xmlns:cc="http://creativecommons.org/ns#" xmlns:rdf="http://www.w3.org/1999/02/22-rdf-syntax-ns#">
   <cc:Work>
    <dc:type rdf:resource="http://purl.org/dc/dcmitype/StillImage"/>
    <dc:date>2022-03-24T23:54:23.344517</dc:date>
    <dc:format>image/svg+xml</dc:format>
    <dc:creator>
     <cc:Agent>
      <dc:title>Matplotlib v3.5.1, https://matplotlib.org/</dc:title>
     </cc:Agent>
    </dc:creator>
   </cc:Work>
  </rdf:RDF>
 </metadata>
 <defs>
  <style type="text/css">*{stroke-linejoin: round; stroke-linecap: butt}</style>
 </defs>
 <g id="figure_1">
  <g id="patch_1">
   <path d="M 0 346.2575 
L 764.041137 346.2575 
L 764.041137 0 
L 0 0 
z
" style="fill: #ffffff"/>
  </g>
  <g id="axes_1">
   <g id="patch_2">
    <path d="M 49.807187 302.991875 
L 365.911685 302.991875 
L 365.911685 22.318125 
L 49.807187 22.318125 
z
" style="fill: #ffffff"/>
   </g>
   <g id="matplotlib.axis_1">
    <g id="xtick_1">
     <g id="line2d_1">
      <defs>
       <path id="mdf97ea0f8b" d="M 0 0 
L 0 6 
" style="stroke: #262626; stroke-width: 1.25"/>
      </defs>
      <g>
       <use xlink:href="#mdf97ea0f8b" x="102.49127" y="302.991875" style="fill: #262626; stroke: #262626; stroke-width: 1.25"/>
      </g>
     </g>
     <g id="text_1">
      <!-- map2 -->
      <g style="fill: #262626" transform="translate(86.772442 320.850156)scale(0.11 -0.11)">
       <defs>
        <path id="DejaVuSans-6d" d="M 3328 2828 
Q 3544 3216 3844 3400 
Q 4144 3584 4550 3584 
Q 5097 3584 5394 3201 
Q 5691 2819 5691 2113 
L 5691 0 
L 5113 0 
L 5113 2094 
Q 5113 2597 4934 2840 
Q 4756 3084 4391 3084 
Q 3944 3084 3684 2787 
Q 3425 2491 3425 1978 
L 3425 0 
L 2847 0 
L 2847 2094 
Q 2847 2600 2669 2842 
Q 2491 3084 2119 3084 
Q 1678 3084 1418 2786 
Q 1159 2488 1159 1978 
L 1159 0 
L 581 0 
L 581 3500 
L 1159 3500 
L 1159 2956 
Q 1356 3278 1631 3431 
Q 1906 3584 2284 3584 
Q 2666 3584 2933 3390 
Q 3200 3197 3328 2828 
z
" transform="scale(0.015625)"/>
        <path id="DejaVuSans-61" d="M 2194 1759 
Q 1497 1759 1228 1600 
Q 959 1441 959 1056 
Q 959 750 1161 570 
Q 1363 391 1709 391 
Q 2188 391 2477 730 
Q 2766 1069 2766 1631 
L 2766 1759 
L 2194 1759 
z
M 3341 1997 
L 3341 0 
L 2766 0 
L 2766 531 
Q 2569 213 2275 61 
Q 1981 -91 1556 -91 
Q 1019 -91 701 211 
Q 384 513 384 1019 
Q 384 1609 779 1909 
Q 1175 2209 1959 2209 
L 2766 2209 
L 2766 2266 
Q 2766 2663 2505 2880 
Q 2244 3097 1772 3097 
Q 1472 3097 1187 3025 
Q 903 2953 641 2809 
L 641 3341 
Q 956 3463 1253 3523 
Q 1550 3584 1831 3584 
Q 2591 3584 2966 3190 
Q 3341 2797 3341 1997 
z
" transform="scale(0.015625)"/>
        <path id="DejaVuSans-70" d="M 1159 525 
L 1159 -1331 
L 581 -1331 
L 581 3500 
L 1159 3500 
L 1159 2969 
Q 1341 3281 1617 3432 
Q 1894 3584 2278 3584 
Q 2916 3584 3314 3078 
Q 3713 2572 3713 1747 
Q 3713 922 3314 415 
Q 2916 -91 2278 -91 
Q 1894 -91 1617 61 
Q 1341 213 1159 525 
z
M 3116 1747 
Q 3116 2381 2855 2742 
Q 2594 3103 2138 3103 
Q 1681 3103 1420 2742 
Q 1159 2381 1159 1747 
Q 1159 1113 1420 752 
Q 1681 391 2138 391 
Q 2594 391 2855 752 
Q 3116 1113 3116 1747 
z
" transform="scale(0.015625)"/>
        <path id="DejaVuSans-32" d="M 1228 531 
L 3431 531 
L 3431 0 
L 469 0 
L 469 531 
Q 828 903 1448 1529 
Q 2069 2156 2228 2338 
Q 2531 2678 2651 2914 
Q 2772 3150 2772 3378 
Q 2772 3750 2511 3984 
Q 2250 4219 1831 4219 
Q 1534 4219 1204 4116 
Q 875 4013 500 3803 
L 500 4441 
Q 881 4594 1212 4672 
Q 1544 4750 1819 4750 
Q 2544 4750 2975 4387 
Q 3406 4025 3406 3419 
Q 3406 3131 3298 2873 
Q 3191 2616 2906 2266 
Q 2828 2175 2409 1742 
Q 1991 1309 1228 531 
z
" transform="scale(0.015625)"/>
       </defs>
       <use xlink:href="#DejaVuSans-6d"/>
       <use xlink:href="#DejaVuSans-61" x="97.412109"/>
       <use xlink:href="#DejaVuSans-70" x="158.691406"/>
       <use xlink:href="#DejaVuSans-32" x="222.167969"/>
      </g>
     </g>
    </g>
    <g id="xtick_2">
     <g id="line2d_2">
      <g>
       <use xlink:href="#mdf97ea0f8b" x="207.859436" y="302.991875" style="fill: #262626; stroke: #262626; stroke-width: 1.25"/>
      </g>
     </g>
     <g id="text_2">
      <!-- map5 -->
      <g style="fill: #262626" transform="translate(192.140608 320.850156)scale(0.11 -0.11)">
       <defs>
        <path id="DejaVuSans-35" d="M 691 4666 
L 3169 4666 
L 3169 4134 
L 1269 4134 
L 1269 2991 
Q 1406 3038 1543 3061 
Q 1681 3084 1819 3084 
Q 2600 3084 3056 2656 
Q 3513 2228 3513 1497 
Q 3513 744 3044 326 
Q 2575 -91 1722 -91 
Q 1428 -91 1123 -41 
Q 819 9 494 109 
L 494 744 
Q 775 591 1075 516 
Q 1375 441 1709 441 
Q 2250 441 2565 725 
Q 2881 1009 2881 1497 
Q 2881 1984 2565 2268 
Q 2250 2553 1709 2553 
Q 1456 2553 1204 2497 
Q 953 2441 691 2322 
L 691 4666 
z
" transform="scale(0.015625)"/>
       </defs>
       <use xlink:href="#DejaVuSans-6d"/>
       <use xlink:href="#DejaVuSans-61" x="97.412109"/>
       <use xlink:href="#DejaVuSans-70" x="158.691406"/>
       <use xlink:href="#DejaVuSans-35" x="222.167969"/>
      </g>
     </g>
    </g>
    <g id="xtick_3">
     <g id="line2d_3">
      <g>
       <use xlink:href="#mdf97ea0f8b" x="313.227602" y="302.991875" style="fill: #262626; stroke: #262626; stroke-width: 1.25"/>
      </g>
     </g>
     <g id="text_3">
      <!-- small_warehouse -->
      <g style="fill: #262626" transform="translate(265.852837 320.850156)scale(0.11 -0.11)">
       <defs>
        <path id="DejaVuSans-73" d="M 2834 3397 
L 2834 2853 
Q 2591 2978 2328 3040 
Q 2066 3103 1784 3103 
Q 1356 3103 1142 2972 
Q 928 2841 928 2578 
Q 928 2378 1081 2264 
Q 1234 2150 1697 2047 
L 1894 2003 
Q 2506 1872 2764 1633 
Q 3022 1394 3022 966 
Q 3022 478 2636 193 
Q 2250 -91 1575 -91 
Q 1294 -91 989 -36 
Q 684 19 347 128 
L 347 722 
Q 666 556 975 473 
Q 1284 391 1588 391 
Q 1994 391 2212 530 
Q 2431 669 2431 922 
Q 2431 1156 2273 1281 
Q 2116 1406 1581 1522 
L 1381 1569 
Q 847 1681 609 1914 
Q 372 2147 372 2553 
Q 372 3047 722 3315 
Q 1072 3584 1716 3584 
Q 2034 3584 2315 3537 
Q 2597 3491 2834 3397 
z
" transform="scale(0.015625)"/>
        <path id="DejaVuSans-6c" d="M 603 4863 
L 1178 4863 
L 1178 0 
L 603 0 
L 603 4863 
z
" transform="scale(0.015625)"/>
        <path id="DejaVuSans-5f" d="M 3263 -1063 
L 3263 -1509 
L -63 -1509 
L -63 -1063 
L 3263 -1063 
z
" transform="scale(0.015625)"/>
        <path id="DejaVuSans-77" d="M 269 3500 
L 844 3500 
L 1563 769 
L 2278 3500 
L 2956 3500 
L 3675 769 
L 4391 3500 
L 4966 3500 
L 4050 0 
L 3372 0 
L 2619 2869 
L 1863 0 
L 1184 0 
L 269 3500 
z
" transform="scale(0.015625)"/>
        <path id="DejaVuSans-72" d="M 2631 2963 
Q 2534 3019 2420 3045 
Q 2306 3072 2169 3072 
Q 1681 3072 1420 2755 
Q 1159 2438 1159 1844 
L 1159 0 
L 581 0 
L 581 3500 
L 1159 3500 
L 1159 2956 
Q 1341 3275 1631 3429 
Q 1922 3584 2338 3584 
Q 2397 3584 2469 3576 
Q 2541 3569 2628 3553 
L 2631 2963 
z
" transform="scale(0.015625)"/>
        <path id="DejaVuSans-65" d="M 3597 1894 
L 3597 1613 
L 953 1613 
Q 991 1019 1311 708 
Q 1631 397 2203 397 
Q 2534 397 2845 478 
Q 3156 559 3463 722 
L 3463 178 
Q 3153 47 2828 -22 
Q 2503 -91 2169 -91 
Q 1331 -91 842 396 
Q 353 884 353 1716 
Q 353 2575 817 3079 
Q 1281 3584 2069 3584 
Q 2775 3584 3186 3129 
Q 3597 2675 3597 1894 
z
M 3022 2063 
Q 3016 2534 2758 2815 
Q 2500 3097 2075 3097 
Q 1594 3097 1305 2825 
Q 1016 2553 972 2059 
L 3022 2063 
z
" transform="scale(0.015625)"/>
        <path id="DejaVuSans-68" d="M 3513 2113 
L 3513 0 
L 2938 0 
L 2938 2094 
Q 2938 2591 2744 2837 
Q 2550 3084 2163 3084 
Q 1697 3084 1428 2787 
Q 1159 2491 1159 1978 
L 1159 0 
L 581 0 
L 581 4863 
L 1159 4863 
L 1159 2956 
Q 1366 3272 1645 3428 
Q 1925 3584 2291 3584 
Q 2894 3584 3203 3211 
Q 3513 2838 3513 2113 
z
" transform="scale(0.015625)"/>
        <path id="DejaVuSans-6f" d="M 1959 3097 
Q 1497 3097 1228 2736 
Q 959 2375 959 1747 
Q 959 1119 1226 758 
Q 1494 397 1959 397 
Q 2419 397 2687 759 
Q 2956 1122 2956 1747 
Q 2956 2369 2687 2733 
Q 2419 3097 1959 3097 
z
M 1959 3584 
Q 2709 3584 3137 3096 
Q 3566 2609 3566 1747 
Q 3566 888 3137 398 
Q 2709 -91 1959 -91 
Q 1206 -91 779 398 
Q 353 888 353 1747 
Q 353 2609 779 3096 
Q 1206 3584 1959 3584 
z
" transform="scale(0.015625)"/>
        <path id="DejaVuSans-75" d="M 544 1381 
L 544 3500 
L 1119 3500 
L 1119 1403 
Q 1119 906 1312 657 
Q 1506 409 1894 409 
Q 2359 409 2629 706 
Q 2900 1003 2900 1516 
L 2900 3500 
L 3475 3500 
L 3475 0 
L 2900 0 
L 2900 538 
Q 2691 219 2414 64 
Q 2138 -91 1772 -91 
Q 1169 -91 856 284 
Q 544 659 544 1381 
z
M 1991 3584 
L 1991 3584 
z
" transform="scale(0.015625)"/>
       </defs>
       <use xlink:href="#DejaVuSans-73"/>
       <use xlink:href="#DejaVuSans-6d" x="52.099609"/>
       <use xlink:href="#DejaVuSans-61" x="149.511719"/>
       <use xlink:href="#DejaVuSans-6c" x="210.791016"/>
       <use xlink:href="#DejaVuSans-6c" x="238.574219"/>
       <use xlink:href="#DejaVuSans-5f" x="266.357422"/>
       <use xlink:href="#DejaVuSans-77" x="316.357422"/>
       <use xlink:href="#DejaVuSans-61" x="398.144531"/>
       <use xlink:href="#DejaVuSans-72" x="459.423828"/>
       <use xlink:href="#DejaVuSans-65" x="498.287109"/>
       <use xlink:href="#DejaVuSans-68" x="559.810547"/>
       <use xlink:href="#DejaVuSans-6f" x="623.189453"/>
       <use xlink:href="#DejaVuSans-75" x="684.371094"/>
       <use xlink:href="#DejaVuSans-73" x="747.75"/>
       <use xlink:href="#DejaVuSans-65" x="799.849609"/>
      </g>
     </g>
    </g>
    <g id="text_4">
     <!-- World -->
     <g style="fill: #262626" transform="translate(190.665686 336.561875)scale(0.12 -0.12)">
      <defs>
       <path id="DejaVuSans-57" d="M 213 4666 
L 850 4666 
L 1831 722 
L 2809 4666 
L 3519 4666 
L 4500 722 
L 5478 4666 
L 6119 4666 
L 4947 0 
L 4153 0 
L 3169 4050 
L 2175 0 
L 1381 0 
L 213 4666 
z
" transform="scale(0.015625)"/>
       <path id="DejaVuSans-64" d="M 2906 2969 
L 2906 4863 
L 3481 4863 
L 3481 0 
L 2906 0 
L 2906 525 
Q 2725 213 2448 61 
Q 2172 -91 1784 -91 
Q 1150 -91 751 415 
Q 353 922 353 1747 
Q 353 2572 751 3078 
Q 1150 3584 1784 3584 
Q 2172 3584 2448 3432 
Q 2725 3281 2906 2969 
z
M 947 1747 
Q 947 1113 1208 752 
Q 1469 391 1925 391 
Q 2381 391 2643 752 
Q 2906 1113 2906 1747 
Q 2906 2381 2643 2742 
Q 2381 3103 1925 3103 
Q 1469 3103 1208 2742 
Q 947 2381 947 1747 
z
" transform="scale(0.015625)"/>
      </defs>
      <use xlink:href="#DejaVuSans-57"/>
      <use xlink:href="#DejaVuSans-6f" x="93.001953"/>
      <use xlink:href="#DejaVuSans-72" x="154.183594"/>
      <use xlink:href="#DejaVuSans-6c" x="195.296875"/>
      <use xlink:href="#DejaVuSans-64" x="223.080078"/>
     </g>
    </g>
   </g>
   <g id="matplotlib.axis_2">
    <g id="ytick_1">
     <g id="line2d_4">
      <defs>
       <path id="m512887281d" d="M 0 0 
L -6 0 
" style="stroke: #262626; stroke-width: 1.25"/>
      </defs>
      <g>
       <use xlink:href="#m512887281d" x="49.807187" y="255.027621" style="fill: #262626; stroke: #262626; stroke-width: 1.25"/>
      </g>
     </g>
     <g id="text_5">
      <!-- 0.0 -->
      <g style="fill: #262626" transform="translate(22.81375 259.206762)scale(0.11 -0.11)">
       <defs>
        <path id="DejaVuSans-30" d="M 2034 4250 
Q 1547 4250 1301 3770 
Q 1056 3291 1056 2328 
Q 1056 1369 1301 889 
Q 1547 409 2034 409 
Q 2525 409 2770 889 
Q 3016 1369 3016 2328 
Q 3016 3291 2770 3770 
Q 2525 4250 2034 4250 
z
M 2034 4750 
Q 2819 4750 3233 4129 
Q 3647 3509 3647 2328 
Q 3647 1150 3233 529 
Q 2819 -91 2034 -91 
Q 1250 -91 836 529 
Q 422 1150 422 2328 
Q 422 3509 836 4129 
Q 1250 4750 2034 4750 
z
" transform="scale(0.015625)"/>
        <path id="DejaVuSans-2e" d="M 684 794 
L 1344 794 
L 1344 0 
L 684 0 
L 684 794 
z
" transform="scale(0.015625)"/>
       </defs>
       <use xlink:href="#DejaVuSans-30"/>
       <use xlink:href="#DejaVuSans-2e" x="63.623047"/>
       <use xlink:href="#DejaVuSans-30" x="95.410156"/>
      </g>
     </g>
    </g>
    <g id="ytick_2">
     <g id="line2d_5">
      <g>
       <use xlink:href="#m512887281d" x="49.807187" y="192.885359" style="fill: #262626; stroke: #262626; stroke-width: 1.25"/>
      </g>
     </g>
     <g id="text_6">
      <!-- 0.2 -->
      <g style="fill: #262626" transform="translate(22.81375 197.064499)scale(0.11 -0.11)">
       <use xlink:href="#DejaVuSans-30"/>
       <use xlink:href="#DejaVuSans-2e" x="63.623047"/>
       <use xlink:href="#DejaVuSans-32" x="95.410156"/>
      </g>
     </g>
    </g>
    <g id="ytick_3">
     <g id="line2d_6">
      <g>
       <use xlink:href="#m512887281d" x="49.807187" y="130.743096" style="fill: #262626; stroke: #262626; stroke-width: 1.25"/>
      </g>
     </g>
     <g id="text_7">
      <!-- 0.4 -->
      <g style="fill: #262626" transform="translate(22.81375 134.922237)scale(0.11 -0.11)">
       <defs>
        <path id="DejaVuSans-34" d="M 2419 4116 
L 825 1625 
L 2419 1625 
L 2419 4116 
z
M 2253 4666 
L 3047 4666 
L 3047 1625 
L 3713 1625 
L 3713 1100 
L 3047 1100 
L 3047 0 
L 2419 0 
L 2419 1100 
L 313 1100 
L 313 1709 
L 2253 4666 
z
" transform="scale(0.015625)"/>
       </defs>
       <use xlink:href="#DejaVuSans-30"/>
       <use xlink:href="#DejaVuSans-2e" x="63.623047"/>
       <use xlink:href="#DejaVuSans-34" x="95.410156"/>
      </g>
     </g>
    </g>
    <g id="ytick_4">
     <g id="line2d_7">
      <g>
       <use xlink:href="#m512887281d" x="49.807187" y="68.600833" style="fill: #262626; stroke: #262626; stroke-width: 1.25"/>
      </g>
     </g>
     <g id="text_8">
      <!-- 0.6 -->
      <g style="fill: #262626" transform="translate(22.81375 72.779974)scale(0.11 -0.11)">
       <defs>
        <path id="DejaVuSans-36" d="M 2113 2584 
Q 1688 2584 1439 2293 
Q 1191 2003 1191 1497 
Q 1191 994 1439 701 
Q 1688 409 2113 409 
Q 2538 409 2786 701 
Q 3034 994 3034 1497 
Q 3034 2003 2786 2293 
Q 2538 2584 2113 2584 
z
M 3366 4563 
L 3366 3988 
Q 3128 4100 2886 4159 
Q 2644 4219 2406 4219 
Q 1781 4219 1451 3797 
Q 1122 3375 1075 2522 
Q 1259 2794 1537 2939 
Q 1816 3084 2150 3084 
Q 2853 3084 3261 2657 
Q 3669 2231 3669 1497 
Q 3669 778 3244 343 
Q 2819 -91 2113 -91 
Q 1303 -91 875 529 
Q 447 1150 447 2328 
Q 447 3434 972 4092 
Q 1497 4750 2381 4750 
Q 2619 4750 2861 4703 
Q 3103 4656 3366 4563 
z
" transform="scale(0.015625)"/>
       </defs>
       <use xlink:href="#DejaVuSans-30"/>
       <use xlink:href="#DejaVuSans-2e" x="63.623047"/>
       <use xlink:href="#DejaVuSans-36" x="95.410156"/>
      </g>
     </g>
    </g>
    <g id="text_9">
     <!-- jerk -->
     <g style="fill: #262626" transform="translate(16.318125 173.954687)rotate(-90)scale(0.12 -0.12)">
      <defs>
       <path id="DejaVuSans-6a" d="M 603 3500 
L 1178 3500 
L 1178 -63 
Q 1178 -731 923 -1031 
Q 669 -1331 103 -1331 
L -116 -1331 
L -116 -844 
L 38 -844 
Q 366 -844 484 -692 
Q 603 -541 603 -63 
L 603 3500 
z
M 603 4863 
L 1178 4863 
L 1178 4134 
L 603 4134 
L 603 4863 
z
" transform="scale(0.015625)"/>
       <path id="DejaVuSans-6b" d="M 581 4863 
L 1159 4863 
L 1159 1991 
L 2875 3500 
L 3609 3500 
L 1753 1863 
L 3688 0 
L 2938 0 
L 1159 1709 
L 1159 0 
L 581 0 
L 581 4863 
z
" transform="scale(0.015625)"/>
      </defs>
      <use xlink:href="#DejaVuSans-6a"/>
      <use xlink:href="#DejaVuSans-65" x="27.783203"/>
      <use xlink:href="#DejaVuSans-72" x="89.306641"/>
      <use xlink:href="#DejaVuSans-6b" x="130.419922"/>
     </g>
    </g>
   </g>
   <g id="patch_3">
    <path d="M 102.49127 255.027621 
L 102.49127 255.027621 
L 102.49127 255.027621 
L 102.49127 255.027621 
z
" clip-path="url(#p79c53fc22e)" style="fill: #5875a4; stroke: #4c4c4c; stroke-width: 0.75; stroke-linejoin: miter"/>
   </g>
   <g id="PolyCollection_1">
    <defs>
     <path id="m07262ed782" d="M 102.49127 -72.578254 
L 99.044805 -72.578254 
L 97.526657 -74.223853 
L 95.546447 -75.869452 
L 93.056132 -77.515051 
L 90.0404 -79.16065 
L 86.52969 -80.806249 
L 82.609918 -82.451848 
L 78.426055 -84.097448 
L 74.177316 -85.743047 
L 70.102975 -87.388646 
L 66.459701 -89.034245 
L 63.493188 -90.679844 
L 61.408476 -92.325443 
L 60.344004 -93.971042 
L 60.354091 -95.616641 
L 61.40301 -97.26224 
L 63.371583 -98.907839 
L 66.07482 -100.553438 
L 69.287074 -102.199037 
L 72.770062 -103.844636 
L 76.299047 -105.490235 
L 79.683394 -107.135834 
L 82.779287 -108.781433 
L 85.494181 -110.427033 
L 87.784062 -112.072632 
L 89.645606 -113.718231 
L 91.105703 -115.36383 
L 92.210609 -117.009429 
L 93.016388 -118.655028 
L 93.581591 -120.300627 
L 93.962367 -121.946226 
L 94.209698 -123.591825 
L 94.368129 -125.237424 
L 94.475343 -126.883023 
L 94.56206 -128.528622 
L 94.651984 -130.174221 
L 94.761771 -131.81982 
L 94.901165 -133.465419 
L 95.073499 -135.111018 
L 95.276709 -136.756618 
L 95.504845 -138.402217 
L 95.749907 -140.047816 
L 96.003711 -141.693415 
L 96.259448 -143.339014 
L 96.512671 -144.984613 
L 96.761589 -146.630212 
L 97.006697 -148.275811 
L 97.249968 -149.92141 
L 97.493848 -151.567009 
L 97.740347 -153.212608 
L 97.990397 -154.858207 
L 98.243557 -156.503806 
L 98.498035 -158.149405 
L 98.750898 -159.795004 
L 98.998381 -161.440604 
L 99.236195 -163.086203 
L 99.459822 -164.731802 
L 99.664824 -166.377401 
L 99.8472 -168.023 
L 100.00382 -169.668599 
L 100.1329 -171.314198 
L 100.234423 -172.959797 
L 100.310413 -174.605396 
L 100.36493 -176.250995 
L 100.403758 -177.896594 
L 100.43379 -179.542193 
L 100.4622 -181.187792 
L 100.495552 -182.833391 
L 100.539001 -184.47899 
L 100.595717 -186.124589 
L 100.666614 -187.770189 
L 100.750415 -189.415788 
L 100.844006 -191.061387 
L 100.943007 -192.706986 
L 101.042449 -194.352585 
L 101.137468 -195.998184 
L 101.223924 -197.643783 
L 101.298873 -199.289382 
L 101.360861 -200.934981 
L 101.410022 -202.58058 
L 101.447988 -204.226179 
L 101.477626 -205.871778 
L 101.502653 -207.517377 
L 101.527158 -209.162976 
L 101.555096 -210.808575 
L 101.589811 -212.454174 
L 101.633641 -214.099774 
L 101.687665 -215.745373 
L 101.751615 -217.390972 
L 101.823971 -219.036571 
L 101.902215 -220.68217 
L 101.983202 -222.327769 
L 102.063587 -223.973368 
L 102.140232 -225.618967 
L 102.210539 -227.264566 
L 102.272664 -228.910165 
L 102.325599 -230.555764 
L 102.36913 -232.201363 
L 102.403702 -233.846962 
L 102.430235 -235.492561 
L 102.49127 -235.492561 
L 102.49127 -235.492561 
L 102.49127 -233.846962 
L 102.49127 -232.201363 
L 102.49127 -230.555764 
L 102.49127 -228.910165 
L 102.49127 -227.264566 
L 102.49127 -225.618967 
L 102.49127 -223.973368 
L 102.49127 -222.327769 
L 102.49127 -220.68217 
L 102.49127 -219.036571 
L 102.49127 -217.390972 
L 102.49127 -215.745373 
L 102.49127 -214.099774 
L 102.49127 -212.454174 
L 102.49127 -210.808575 
L 102.49127 -209.162976 
L 102.49127 -207.517377 
L 102.49127 -205.871778 
L 102.49127 -204.226179 
L 102.49127 -202.58058 
L 102.49127 -200.934981 
L 102.49127 -199.289382 
L 102.49127 -197.643783 
L 102.49127 -195.998184 
L 102.49127 -194.352585 
L 102.49127 -192.706986 
L 102.49127 -191.061387 
L 102.49127 -189.415788 
L 102.49127 -187.770189 
L 102.49127 -186.124589 
L 102.49127 -184.47899 
L 102.49127 -182.833391 
L 102.49127 -181.187792 
L 102.49127 -179.542193 
L 102.49127 -177.896594 
L 102.49127 -176.250995 
L 102.49127 -174.605396 
L 102.49127 -172.959797 
L 102.49127 -171.314198 
L 102.49127 -169.668599 
L 102.49127 -168.023 
L 102.49127 -166.377401 
L 102.49127 -164.731802 
L 102.49127 -163.086203 
L 102.49127 -161.440604 
L 102.49127 -159.795004 
L 102.49127 -158.149405 
L 102.49127 -156.503806 
L 102.49127 -154.858207 
L 102.49127 -153.212608 
L 102.49127 -151.567009 
L 102.49127 -149.92141 
L 102.49127 -148.275811 
L 102.49127 -146.630212 
L 102.49127 -144.984613 
L 102.49127 -143.339014 
L 102.49127 -141.693415 
L 102.49127 -140.047816 
L 102.49127 -138.402217 
L 102.49127 -136.756618 
L 102.49127 -135.111018 
L 102.49127 -133.465419 
L 102.49127 -131.81982 
L 102.49127 -130.174221 
L 102.49127 -128.528622 
L 102.49127 -126.883023 
L 102.49127 -125.237424 
L 102.49127 -123.591825 
L 102.49127 -121.946226 
L 102.49127 -120.300627 
L 102.49127 -118.655028 
L 102.49127 -117.009429 
L 102.49127 -115.36383 
L 102.49127 -113.718231 
L 102.49127 -112.072632 
L 102.49127 -110.427033 
L 102.49127 -108.781433 
L 102.49127 -107.135834 
L 102.49127 -105.490235 
L 102.49127 -103.844636 
L 102.49127 -102.199037 
L 102.49127 -100.553438 
L 102.49127 -98.907839 
L 102.49127 -97.26224 
L 102.49127 -95.616641 
L 102.49127 -93.971042 
L 102.49127 -92.325443 
L 102.49127 -90.679844 
L 102.49127 -89.034245 
L 102.49127 -87.388646 
L 102.49127 -85.743047 
L 102.49127 -84.097448 
L 102.49127 -82.451848 
L 102.49127 -80.806249 
L 102.49127 -79.16065 
L 102.49127 -77.515051 
L 102.49127 -75.869452 
L 102.49127 -74.223853 
L 102.49127 -72.578254 
z
" style="stroke: #4c4c4c; stroke-width: 1.5"/>
    </defs>
    <g clip-path="url(#p79c53fc22e)">
     <use xlink:href="#m07262ed782" x="0" y="346.2575" style="fill: #5875a4; stroke: #4c4c4c; stroke-width: 1.5"/>
    </g>
   </g>
   <g id="patch_4">
    <path d="M 102.49127 255.027621 
L 102.49127 255.027621 
L 102.49127 255.027621 
L 102.49127 255.027621 
z
" clip-path="url(#p79c53fc22e)" style="fill: #cc8963; stroke: #4c4c4c; stroke-width: 0.75; stroke-linejoin: miter"/>
   </g>
   <g id="PolyCollection_2">
    <defs>
     <path id="mee55a65aae" d="M 104.918686 -71.0062 
L 102.49127 -71.0062 
L 102.49127 -72.883341 
L 102.49127 -74.760482 
L 102.49127 -76.637623 
L 102.49127 -78.514763 
L 102.49127 -80.391904 
L 102.49127 -82.269045 
L 102.49127 -84.146186 
L 102.49127 -86.023326 
L 102.49127 -87.900467 
L 102.49127 -89.777608 
L 102.49127 -91.654749 
L 102.49127 -93.531889 
L 102.49127 -95.40903 
L 102.49127 -97.286171 
L 102.49127 -99.163312 
L 102.49127 -101.040452 
L 102.49127 -102.917593 
L 102.49127 -104.794734 
L 102.49127 -106.671875 
L 102.49127 -108.549015 
L 102.49127 -110.426156 
L 102.49127 -112.303297 
L 102.49127 -114.180437 
L 102.49127 -116.057578 
L 102.49127 -117.934719 
L 102.49127 -119.81186 
L 102.49127 -121.689 
L 102.49127 -123.566141 
L 102.49127 -125.443282 
L 102.49127 -127.320423 
L 102.49127 -129.197563 
L 102.49127 -131.074704 
L 102.49127 -132.951845 
L 102.49127 -134.828986 
L 102.49127 -136.706126 
L 102.49127 -138.583267 
L 102.49127 -140.460408 
L 102.49127 -142.337549 
L 102.49127 -144.214689 
L 102.49127 -146.09183 
L 102.49127 -147.968971 
L 102.49127 -149.846112 
L 102.49127 -151.723252 
L 102.49127 -153.600393 
L 102.49127 -155.477534 
L 102.49127 -157.354674 
L 102.49127 -159.231815 
L 102.49127 -161.108956 
L 102.49127 -162.986097 
L 102.49127 -164.863237 
L 102.49127 -166.740378 
L 102.49127 -168.617519 
L 102.49127 -170.49466 
L 102.49127 -172.3718 
L 102.49127 -174.248941 
L 102.49127 -176.126082 
L 102.49127 -178.003223 
L 102.49127 -179.880363 
L 102.49127 -181.757504 
L 102.49127 -183.634645 
L 102.49127 -185.511786 
L 102.49127 -187.388926 
L 102.49127 -189.266067 
L 102.49127 -191.143208 
L 102.49127 -193.020349 
L 102.49127 -194.897489 
L 102.49127 -196.77463 
L 102.49127 -198.651771 
L 102.49127 -200.528911 
L 102.49127 -202.406052 
L 102.49127 -204.283193 
L 102.49127 -206.160334 
L 102.49127 -208.037474 
L 102.49127 -209.914615 
L 102.49127 -211.791756 
L 102.49127 -213.668897 
L 102.49127 -215.546037 
L 102.49127 -217.423178 
L 102.49127 -219.300319 
L 102.49127 -221.17746 
L 102.49127 -223.0546 
L 102.49127 -224.931741 
L 102.49127 -226.808882 
L 102.49127 -228.686023 
L 102.49127 -230.563163 
L 102.49127 -232.440304 
L 102.49127 -234.317445 
L 102.49127 -236.194586 
L 102.49127 -238.071726 
L 102.49127 -239.948867 
L 102.49127 -241.826008 
L 102.49127 -243.703149 
L 102.49127 -245.580289 
L 102.49127 -247.45743 
L 102.49127 -249.334571 
L 102.49127 -251.211711 
L 102.49127 -253.088852 
L 102.49127 -254.965993 
L 102.49127 -256.843134 
L 102.533184 -256.843134 
L 102.533184 -256.843134 
L 102.55099 -254.965993 
L 102.573479 -253.088852 
L 102.600606 -251.211711 
L 102.631764 -249.334571 
L 102.665695 -247.45743 
L 102.700508 -245.580289 
L 102.733816 -243.703149 
L 102.763002 -241.826008 
L 102.785589 -239.948867 
L 102.799641 -238.071726 
L 102.804141 -236.194586 
L 102.799257 -234.317445 
L 102.786458 -232.440304 
L 102.768448 -230.563163 
L 102.748954 -228.686023 
L 102.7324 -226.808882 
L 102.723524 -224.931741 
L 102.726997 -223.0546 
L 102.747076 -221.17746 
L 102.787306 -219.300319 
L 102.850286 -217.423178 
L 102.937499 -215.546037 
L 103.049213 -213.668897 
L 103.18448 -211.791756 
L 103.34121 -209.914615 
L 103.516339 -208.037474 
L 103.706031 -206.160334 
L 103.905887 -204.283193 
L 104.111094 -202.406052 
L 104.316513 -200.528911 
L 104.516709 -198.651771 
L 104.705999 -196.77463 
L 104.878607 -194.897489 
L 105.028991 -193.020349 
L 105.152382 -191.143208 
L 105.245464 -189.266067 
L 105.307085 -187.388926 
L 105.338808 -185.511786 
L 105.345169 -183.634645 
L 105.333527 -181.757504 
L 105.313516 -179.880363 
L 105.296183 -178.003223 
L 105.292952 -176.126082 
L 105.314571 -174.248941 
L 105.370154 -172.3718 
L 105.466402 -170.49466 
L 105.60702 -168.617519 
L 105.792367 -166.740378 
L 106.019334 -164.863237 
L 106.281513 -162.986097 
L 106.569678 -161.108956 
L 106.872582 -159.231815 
L 107.178023 -157.354674 
L 107.474053 -155.477534 
L 107.750174 -153.600393 
L 107.998349 -151.723252 
L 108.2137 -149.846112 
L 108.394863 -147.968971 
L 108.544027 -146.09183 
L 108.666734 -144.214689 
L 108.771547 -142.337549 
L 108.869603 -140.460408 
L 108.974065 -138.583267 
L 109.099408 -136.706126 
L 109.260577 -134.828986 
L 109.472101 -132.951845 
L 109.747424 -131.074704 
L 110.098776 -129.197563 
L 110.537948 -127.320423 
L 111.078096 -125.443282 
L 111.736433 -123.566141 
L 112.537185 -121.689 
L 113.513774 -119.81186 
L 114.7089 -117.934719 
L 116.171234 -116.057578 
L 117.947881 -114.180437 
L 120.072648 -112.303297 
L 122.551419 -110.426156 
L 125.347227 -108.549015 
L 128.368644 -106.671875 
L 131.465397 -104.794734 
L 134.434377 -102.917593 
L 137.037346 -101.040452 
L 139.028989 -99.163312 
L 140.191113 -97.286171 
L 140.366681 -95.40903 
L 139.48659 -93.531889 
L 137.583263 -91.654749 
L 134.787808 -89.777608 
L 131.311218 -87.900467 
L 127.413612 -86.023326 
L 123.368003 -84.146186 
L 119.425757 -82.269045 
L 115.78982 -80.391904 
L 112.599341 -78.514763 
L 109.926428 -76.637623 
L 107.78314 -74.760482 
L 106.135239 -72.883341 
L 104.918686 -71.0062 
z
" style="stroke: #4c4c4c; stroke-width: 1.5"/>
    </defs>
    <g clip-path="url(#p79c53fc22e)">
     <use xlink:href="#mee55a65aae" x="0" y="346.2575" style="fill: #cc8963; stroke: #4c4c4c; stroke-width: 1.5"/>
    </g>
   </g>
   <g id="PolyCollection_3">
    <defs>
     <path id="m89831ef8ec" d="M 207.859436 -69.779419 
L 204.008789 -69.779419 
L 202.499011 -71.52257 
L 200.582684 -73.265721 
L 198.225962 -75.008871 
L 195.420731 -76.752022 
L 192.19333 -78.495173 
L 188.610981 -80.238323 
L 184.784228 -81.981474 
L 180.864029 -83.724625 
L 177.032856 -85.467775 
L 173.490147 -87.210926 
L 170.433573 -88.954077 
L 168.038539 -90.697227 
L 166.438934 -92.440378 
L 165.71217 -94.183529 
L 165.870957 -95.926679 
L 166.863179 -97.66983 
L 168.579835 -99.412981 
L 170.869631 -101.156132 
L 173.55776 -102.899282 
L 176.465826 -104.642433 
L 179.429953 -106.385584 
L 182.314695 -108.128734 
L 185.021328 -109.871885 
L 187.490196 -111.615036 
L 189.697776 -113.358186 
L 191.649828 -115.101337 
L 193.372367 -116.844488 
L 194.90217 -118.587638 
L 196.27827 -120.330789 
L 197.535406 -122.07394 
L 198.699899 -123.81709 
L 199.787949 -125.560241 
L 200.806002 -127.303392 
L 201.752601 -129.046542 
L 202.621078 -130.789693 
L 203.402476 -132.532844 
L 204.088199 -134.275994 
L 204.672072 -136.019145 
L 205.151647 -137.762296 
L 205.528741 -139.505446 
L 205.809301 -141.248597 
L 206.002776 -142.991748 
L 206.121174 -144.734898 
L 206.177989 -146.478049 
L 206.187145 -148.2212 
L 206.162057 -149.96435 
L 206.114873 -151.707501 
L 206.055899 -153.450652 
L 205.993225 -155.193802 
L 205.932522 -156.936953 
L 205.876998 -158.680104 
L 205.827514 -160.423255 
L 205.782849 -162.166405 
L 205.740118 -163.909556 
L 205.695324 -165.652707 
L 205.644023 -167.395857 
L 205.582027 -169.139008 
L 205.506097 -170.882159 
L 205.414508 -172.625309 
L 205.307418 -174.36846 
L 205.186988 -176.111611 
L 205.057205 -177.854761 
L 204.92347 -179.597912 
L 204.791995 -181.341063 
L 204.669129 -183.084213 
L 204.560727 -184.827364 
L 204.471655 -186.570515 
L 204.405515 -188.313665 
L 204.364579 -190.056816 
L 204.349936 -191.799967 
L 204.361747 -193.543117 
L 204.399548 -195.286268 
L 204.462495 -197.029419 
L 204.54952 -198.772569 
L 204.659354 -200.51572 
L 204.790457 -202.258871 
L 204.940894 -204.002021 
L 205.108227 -205.745172 
L 205.28947 -207.488323 
L 205.481148 -209.231473 
L 205.679448 -210.974624 
L 205.880441 -212.717775 
L 206.080336 -214.460925 
L 206.275697 -216.204076 
L 206.463603 -217.947227 
L 206.641731 -219.690378 
L 206.808345 -221.433528 
L 206.962244 -223.176679 
L 207.102671 -224.91983 
L 207.229227 -226.66298 
L 207.341801 -228.406131 
L 207.440536 -230.149282 
L 207.525806 -231.892432 
L 207.598211 -233.635583 
L 207.658573 -235.378734 
L 207.707906 -237.121884 
L 207.747383 -238.865035 
L 207.77828 -240.608186 
L 207.801906 -242.351336 
L 207.859436 -242.351336 
L 207.859436 -242.351336 
L 207.859436 -240.608186 
L 207.859436 -238.865035 
L 207.859436 -237.121884 
L 207.859436 -235.378734 
L 207.859436 -233.635583 
L 207.859436 -231.892432 
L 207.859436 -230.149282 
L 207.859436 -228.406131 
L 207.859436 -226.66298 
L 207.859436 -224.91983 
L 207.859436 -223.176679 
L 207.859436 -221.433528 
L 207.859436 -219.690378 
L 207.859436 -217.947227 
L 207.859436 -216.204076 
L 207.859436 -214.460925 
L 207.859436 -212.717775 
L 207.859436 -210.974624 
L 207.859436 -209.231473 
L 207.859436 -207.488323 
L 207.859436 -205.745172 
L 207.859436 -204.002021 
L 207.859436 -202.258871 
L 207.859436 -200.51572 
L 207.859436 -198.772569 
L 207.859436 -197.029419 
L 207.859436 -195.286268 
L 207.859436 -193.543117 
L 207.859436 -191.799967 
L 207.859436 -190.056816 
L 207.859436 -188.313665 
L 207.859436 -186.570515 
L 207.859436 -184.827364 
L 207.859436 -183.084213 
L 207.859436 -181.341063 
L 207.859436 -179.597912 
L 207.859436 -177.854761 
L 207.859436 -176.111611 
L 207.859436 -174.36846 
L 207.859436 -172.625309 
L 207.859436 -170.882159 
L 207.859436 -169.139008 
L 207.859436 -167.395857 
L 207.859436 -165.652707 
L 207.859436 -163.909556 
L 207.859436 -162.166405 
L 207.859436 -160.423255 
L 207.859436 -158.680104 
L 207.859436 -156.936953 
L 207.859436 -155.193802 
L 207.859436 -153.450652 
L 207.859436 -151.707501 
L 207.859436 -149.96435 
L 207.859436 -148.2212 
L 207.859436 -146.478049 
L 207.859436 -144.734898 
L 207.859436 -142.991748 
L 207.859436 -141.248597 
L 207.859436 -139.505446 
L 207.859436 -137.762296 
L 207.859436 -136.019145 
L 207.859436 -134.275994 
L 207.859436 -132.532844 
L 207.859436 -130.789693 
L 207.859436 -129.046542 
L 207.859436 -127.303392 
L 207.859436 -125.560241 
L 207.859436 -123.81709 
L 207.859436 -122.07394 
L 207.859436 -120.330789 
L 207.859436 -118.587638 
L 207.859436 -116.844488 
L 207.859436 -115.101337 
L 207.859436 -113.358186 
L 207.859436 -111.615036 
L 207.859436 -109.871885 
L 207.859436 -108.128734 
L 207.859436 -106.385584 
L 207.859436 -104.642433 
L 207.859436 -102.899282 
L 207.859436 -101.156132 
L 207.859436 -99.412981 
L 207.859436 -97.66983 
L 207.859436 -95.926679 
L 207.859436 -94.183529 
L 207.859436 -92.440378 
L 207.859436 -90.697227 
L 207.859436 -88.954077 
L 207.859436 -87.210926 
L 207.859436 -85.467775 
L 207.859436 -83.724625 
L 207.859436 -81.981474 
L 207.859436 -80.238323 
L 207.859436 -78.495173 
L 207.859436 -76.752022 
L 207.859436 -75.008871 
L 207.859436 -73.265721 
L 207.859436 -71.52257 
L 207.859436 -69.779419 
z
" style="stroke: #4c4c4c; stroke-width: 1.5"/>
    </defs>
    <g clip-path="url(#p79c53fc22e)">
     <use xlink:href="#m89831ef8ec" x="0" y="346.2575" style="fill: #5875a4; stroke: #4c4c4c; stroke-width: 1.5"/>
    </g>
   </g>
   <g id="PolyCollection_4">
    <defs>
     <path id="m7cb35be3d9" d="M 209.912865 -65.321521 
L 207.859436 -65.321521 
L 207.859436 -67.531266 
L 207.859436 -69.741011 
L 207.859436 -71.950756 
L 207.859436 -74.160501 
L 207.859436 -76.370245 
L 207.859436 -78.57999 
L 207.859436 -80.789735 
L 207.859436 -82.99948 
L 207.859436 -85.209225 
L 207.859436 -87.41897 
L 207.859436 -89.628715 
L 207.859436 -91.83846 
L 207.859436 -94.048205 
L 207.859436 -96.25795 
L 207.859436 -98.467694 
L 207.859436 -100.677439 
L 207.859436 -102.887184 
L 207.859436 -105.096929 
L 207.859436 -107.306674 
L 207.859436 -109.516419 
L 207.859436 -111.726164 
L 207.859436 -113.935909 
L 207.859436 -116.145654 
L 207.859436 -118.355399 
L 207.859436 -120.565143 
L 207.859436 -122.774888 
L 207.859436 -124.984633 
L 207.859436 -127.194378 
L 207.859436 -129.404123 
L 207.859436 -131.613868 
L 207.859436 -133.823613 
L 207.859436 -136.033358 
L 207.859436 -138.243103 
L 207.859436 -140.452847 
L 207.859436 -142.662592 
L 207.859436 -144.872337 
L 207.859436 -147.082082 
L 207.859436 -149.291827 
L 207.859436 -151.501572 
L 207.859436 -153.711317 
L 207.859436 -155.921062 
L 207.859436 -158.130807 
L 207.859436 -160.340552 
L 207.859436 -162.550296 
L 207.859436 -164.760041 
L 207.859436 -166.969786 
L 207.859436 -169.179531 
L 207.859436 -171.389276 
L 207.859436 -173.599021 
L 207.859436 -175.808766 
L 207.859436 -178.018511 
L 207.859436 -180.228256 
L 207.859436 -182.438001 
L 207.859436 -184.647745 
L 207.859436 -186.85749 
L 207.859436 -189.067235 
L 207.859436 -191.27698 
L 207.859436 -193.486725 
L 207.859436 -195.69647 
L 207.859436 -197.906215 
L 207.859436 -200.11596 
L 207.859436 -202.325705 
L 207.859436 -204.535449 
L 207.859436 -206.745194 
L 207.859436 -208.954939 
L 207.859436 -211.164684 
L 207.859436 -213.374429 
L 207.859436 -215.584174 
L 207.859436 -217.793919 
L 207.859436 -220.003664 
L 207.859436 -222.213409 
L 207.859436 -224.423154 
L 207.859436 -226.632898 
L 207.859436 -228.842643 
L 207.859436 -231.052388 
L 207.859436 -233.262133 
L 207.859436 -235.471878 
L 207.859436 -237.681623 
L 207.859436 -239.891368 
L 207.859436 -242.101113 
L 207.859436 -244.310858 
L 207.859436 -246.520603 
L 207.859436 -248.730347 
L 207.859436 -250.940092 
L 207.859436 -253.149837 
L 207.859436 -255.359582 
L 207.859436 -257.569327 
L 207.859436 -259.779072 
L 207.859436 -261.988817 
L 207.859436 -264.198562 
L 207.859436 -266.408307 
L 207.859436 -268.618051 
L 207.859436 -270.827796 
L 207.859436 -273.037541 
L 207.859436 -275.247286 
L 207.859436 -277.457031 
L 207.859436 -279.666776 
L 207.859436 -281.876521 
L 207.859436 -284.086266 
L 207.902908 -284.086266 
L 207.902908 -284.086266 
L 207.921037 -281.876521 
L 207.944416 -279.666776 
L 207.973596 -277.457031 
L 208.008828 -275.247286 
L 208.049959 -273.037541 
L 208.096361 -270.827796 
L 208.14693 -268.618051 
L 208.200163 -266.408307 
L 208.254334 -264.198562 
L 208.307737 -261.988817 
L 208.358987 -259.779072 
L 208.407309 -257.569327 
L 208.452773 -255.359582 
L 208.496394 -253.149837 
L 208.540078 -250.940092 
L 208.586376 -248.730347 
L 208.638079 -246.520603 
L 208.697706 -244.310858 
L 208.766976 -242.101113 
L 208.846363 -239.891368 
L 208.934833 -237.681623 
L 209.029832 -235.471878 
L 209.127561 -233.262133 
L 209.223505 -231.052388 
L 209.313153 -228.842643 
L 209.392793 -226.632898 
L 209.460256 -224.423154 
L 209.515477 -222.213409 
L 209.560782 -220.003664 
L 209.600819 -217.793919 
L 209.642147 -215.584174 
L 209.692496 -213.374429 
L 209.759814 -211.164684 
L 209.851205 -208.954939 
L 209.971913 -206.745194 
L 210.124503 -204.535449 
L 210.308363 -202.325705 
L 210.519616 -200.11596 
L 210.751477 -197.906215 
L 210.995009 -195.69647 
L 211.240196 -193.486725 
L 211.477154 -191.27698 
L 211.697326 -189.067235 
L 211.894467 -186.85749 
L 212.065277 -184.647745 
L 212.209612 -182.438001 
L 212.330256 -180.228256 
L 212.432311 -178.018511 
L 212.522326 -175.808766 
L 212.607313 -173.599021 
L 212.693792 -171.389276 
L 212.787006 -169.179531 
L 212.890395 -166.969786 
L 213.005394 -164.760041 
L 213.131554 -162.550296 
L 213.266978 -160.340552 
L 213.408982 -158.130807 
L 213.554914 -155.921062 
L 213.703009 -153.711317 
L 213.853154 -151.501572 
L 214.007487 -149.291827 
L 214.170723 -147.082082 
L 214.350216 -144.872337 
L 214.555774 -142.662592 
L 214.799318 -140.452847 
L 215.094521 -138.243103 
L 215.456526 -136.033358 
L 215.901828 -133.823613 
L 216.448309 -131.613868 
L 217.115288 -129.404123 
L 217.923347 -127.194378 
L 218.893573 -124.984633 
L 220.04587 -122.774888 
L 221.396028 -120.565143 
L 222.951513 -118.355399 
L 224.70622 -116.145654 
L 226.634902 -113.935909 
L 228.688363 -111.726164 
L 230.790767 -109.516419 
L 232.840375 -107.306674 
L 234.71469 -105.096929 
L 236.280182 -102.887184 
L 237.405866 -100.677439 
L 237.978954 -98.467694 
L 237.920104 -96.25795 
L 237.195508 -94.048205 
L 235.823439 -91.83846 
L 233.873823 -89.628715 
L 231.460715 -87.41897 
L 228.728932 -85.209225 
L 225.837189 -82.99948 
L 222.940627 -80.789735 
L 220.175518 -78.57999 
L 217.64826 -76.370245 
L 215.429745 -74.160501 
L 213.555067 -71.950756 
L 212.027635 -69.741011 
L 210.826158 -67.531266 
L 209.912865 -65.321521 
z
" style="stroke: #4c4c4c; stroke-width: 1.5"/>
    </defs>
    <g clip-path="url(#p79c53fc22e)">
     <use xlink:href="#m7cb35be3d9" x="0" y="346.2575" style="fill: #cc8963; stroke: #4c4c4c; stroke-width: 1.5"/>
    </g>
   </g>
   <g id="PolyCollection_5">
    <defs>
     <path id="m181755aa7d" d="M 313.227602 -60.374174 
L 310.409883 -60.374174 
L 309.273917 -62.826868 
L 307.809412 -65.279562 
L 305.974678 -67.732257 
L 303.742423 -70.184951 
L 301.106926 -72.637645 
L 298.090513 -75.090339 
L 294.748184 -77.543033 
L 291.169262 -79.995727 
L 287.475237 -82.448421 
L 283.813453 -84.901115 
L 280.346984 -87.353809 
L 277.241678 -89.806503 
L 274.651935 -92.259198 
L 272.70707 -94.711892 
L 271.500091 -97.164586 
L 271.080336 -99.61728 
L 271.450801 -102.069974 
L 272.570224 -104.522668 
L 274.359268 -106.975362 
L 276.709646 -109.428056 
L 279.494734 -111.88075 
L 282.580261 -114.333444 
L 285.833928 -116.786139 
L 289.133183 -119.238833 
L 292.370809 -121.691527 
L 295.458349 -124.144221 
L 298.327605 -126.596915 
L 300.930608 -129.049609 
L 303.238428 -131.502303 
L 305.239181 -133.954997 
L 306.935515 -136.407691 
L 308.341785 -138.860385 
L 309.481101 -141.31308 
L 310.382415 -143.765774 
L 311.077781 -146.218468 
L 311.599909 -148.671162 
L 311.980136 -151.123856 
L 312.24687 -153.57655 
L 312.424544 -156.029244 
L 312.533084 -158.481938 
L 312.587839 -160.934632 
L 312.599927 -163.387326 
L 312.576892 -165.840021 
L 312.523588 -168.292715 
L 312.443163 -170.745409 
L 312.338036 -173.198103 
L 312.21076 -175.650797 
L 312.064664 -178.103491 
L 311.904203 -180.556185 
L 311.734996 -183.008879 
L 311.563539 -185.461573 
L 311.39668 -187.914267 
L 311.240929 -190.366962 
L 311.101755 -192.819656 
L 310.98298 -195.27235 
L 310.886389 -197.725044 
L 310.811638 -200.177738 
L 310.756458 -202.630432 
L 310.717132 -205.083126 
L 310.689157 -207.53582 
L 310.667969 -209.988514 
L 310.649622 -212.441208 
L 310.631307 -214.893903 
L 310.611649 -217.346597 
L 310.590746 -219.799291 
L 310.56997 -222.251985 
L 310.551572 -224.704679 
L 310.538181 -227.157373 
L 310.532261 -229.610067 
L 310.53563 -232.062761 
L 310.549101 -234.515455 
L 310.572309 -236.968149 
L 310.603741 -239.420844 
L 310.640984 -241.873538 
L 310.681151 -244.326232 
L 310.721421 -246.778926 
L 310.759619 -249.23162 
L 310.794723 -251.684314 
L 310.827214 -254.137008 
L 310.859182 -256.589702 
L 310.89416 -259.042396 
L 310.936683 -261.49509 
L 310.991644 -263.947785 
L 311.063536 -266.400479 
L 311.15572 -268.853173 
L 311.269834 -271.305867 
L 311.405447 -273.758561 
L 311.560021 -276.211255 
L 311.729168 -278.663949 
L 311.907157 -281.116643 
L 312.087574 -283.569337 
L 312.264028 -286.022031 
L 312.430784 -288.474726 
L 312.583253 -290.92742 
L 312.718273 -293.380114 
L 312.834184 -295.832808 
L 312.930725 -298.285502 
L 313.008787 -300.738196 
L 313.070101 -303.19089 
L 313.227602 -303.19089 
L 313.227602 -303.19089 
L 313.227602 -300.738196 
L 313.227602 -298.285502 
L 313.227602 -295.832808 
L 313.227602 -293.380114 
L 313.227602 -290.92742 
L 313.227602 -288.474726 
L 313.227602 -286.022031 
L 313.227602 -283.569337 
L 313.227602 -281.116643 
L 313.227602 -278.663949 
L 313.227602 -276.211255 
L 313.227602 -273.758561 
L 313.227602 -271.305867 
L 313.227602 -268.853173 
L 313.227602 -266.400479 
L 313.227602 -263.947785 
L 313.227602 -261.49509 
L 313.227602 -259.042396 
L 313.227602 -256.589702 
L 313.227602 -254.137008 
L 313.227602 -251.684314 
L 313.227602 -249.23162 
L 313.227602 -246.778926 
L 313.227602 -244.326232 
L 313.227602 -241.873538 
L 313.227602 -239.420844 
L 313.227602 -236.968149 
L 313.227602 -234.515455 
L 313.227602 -232.062761 
L 313.227602 -229.610067 
L 313.227602 -227.157373 
L 313.227602 -224.704679 
L 313.227602 -222.251985 
L 313.227602 -219.799291 
L 313.227602 -217.346597 
L 313.227602 -214.893903 
L 313.227602 -212.441208 
L 313.227602 -209.988514 
L 313.227602 -207.53582 
L 313.227602 -205.083126 
L 313.227602 -202.630432 
L 313.227602 -200.177738 
L 313.227602 -197.725044 
L 313.227602 -195.27235 
L 313.227602 -192.819656 
L 313.227602 -190.366962 
L 313.227602 -187.914267 
L 313.227602 -185.461573 
L 313.227602 -183.008879 
L 313.227602 -180.556185 
L 313.227602 -178.103491 
L 313.227602 -175.650797 
L 313.227602 -173.198103 
L 313.227602 -170.745409 
L 313.227602 -168.292715 
L 313.227602 -165.840021 
L 313.227602 -163.387326 
L 313.227602 -160.934632 
L 313.227602 -158.481938 
L 313.227602 -156.029244 
L 313.227602 -153.57655 
L 313.227602 -151.123856 
L 313.227602 -148.671162 
L 313.227602 -146.218468 
L 313.227602 -143.765774 
L 313.227602 -141.31308 
L 313.227602 -138.860385 
L 313.227602 -136.407691 
L 313.227602 -133.954997 
L 313.227602 -131.502303 
L 313.227602 -129.049609 
L 313.227602 -126.596915 
L 313.227602 -124.144221 
L 313.227602 -121.691527 
L 313.227602 -119.238833 
L 313.227602 -116.786139 
L 313.227602 -114.333444 
L 313.227602 -111.88075 
L 313.227602 -109.428056 
L 313.227602 -106.975362 
L 313.227602 -104.522668 
L 313.227602 -102.069974 
L 313.227602 -99.61728 
L 313.227602 -97.164586 
L 313.227602 -94.711892 
L 313.227602 -92.259198 
L 313.227602 -89.806503 
L 313.227602 -87.353809 
L 313.227602 -84.901115 
L 313.227602 -82.448421 
L 313.227602 -79.995727 
L 313.227602 -77.543033 
L 313.227602 -75.090339 
L 313.227602 -72.637645 
L 313.227602 -70.184951 
L 313.227602 -67.732257 
L 313.227602 -65.279562 
L 313.227602 -62.826868 
L 313.227602 -60.374174 
z
" style="stroke: #4c4c4c; stroke-width: 1.5"/>
    </defs>
    <g clip-path="url(#p79c53fc22e)">
     <use xlink:href="#m181755aa7d" x="0" y="346.2575" style="fill: #5875a4; stroke: #4c4c4c; stroke-width: 1.5"/>
    </g>
   </g>
   <g id="PolyCollection_6">
    <defs>
     <path id="mcfe28f4b70" d="M 315.189022 -63.817759 
L 313.227602 -63.817759 
L 313.227602 -66.316382 
L 313.227602 -68.815006 
L 313.227602 -71.313629 
L 313.227602 -73.812252 
L 313.227602 -76.310876 
L 313.227602 -78.809499 
L 313.227602 -81.308123 
L 313.227602 -83.806746 
L 313.227602 -86.30537 
L 313.227602 -88.803993 
L 313.227602 -91.302616 
L 313.227602 -93.80124 
L 313.227602 -96.299863 
L 313.227602 -98.798487 
L 313.227602 -101.29711 
L 313.227602 -103.795733 
L 313.227602 -106.294357 
L 313.227602 -108.79298 
L 313.227602 -111.291604 
L 313.227602 -113.790227 
L 313.227602 -116.288851 
L 313.227602 -118.787474 
L 313.227602 -121.286097 
L 313.227602 -123.784721 
L 313.227602 -126.283344 
L 313.227602 -128.781968 
L 313.227602 -131.280591 
L 313.227602 -133.779214 
L 313.227602 -136.277838 
L 313.227602 -138.776461 
L 313.227602 -141.275085 
L 313.227602 -143.773708 
L 313.227602 -146.272332 
L 313.227602 -148.770955 
L 313.227602 -151.269578 
L 313.227602 -153.768202 
L 313.227602 -156.266825 
L 313.227602 -158.765449 
L 313.227602 -161.264072 
L 313.227602 -163.762696 
L 313.227602 -166.261319 
L 313.227602 -168.759942 
L 313.227602 -171.258566 
L 313.227602 -173.757189 
L 313.227602 -176.255813 
L 313.227602 -178.754436 
L 313.227602 -181.253059 
L 313.227602 -183.751683 
L 313.227602 -186.250306 
L 313.227602 -188.74893 
L 313.227602 -191.247553 
L 313.227602 -193.746177 
L 313.227602 -196.2448 
L 313.227602 -198.743423 
L 313.227602 -201.242047 
L 313.227602 -203.74067 
L 313.227602 -206.239294 
L 313.227602 -208.737917 
L 313.227602 -211.23654 
L 313.227602 -213.735164 
L 313.227602 -216.233787 
L 313.227602 -218.732411 
L 313.227602 -221.231034 
L 313.227602 -223.729658 
L 313.227602 -226.228281 
L 313.227602 -228.726904 
L 313.227602 -231.225528 
L 313.227602 -233.724151 
L 313.227602 -236.222775 
L 313.227602 -238.721398 
L 313.227602 -241.220022 
L 313.227602 -243.718645 
L 313.227602 -246.217268 
L 313.227602 -248.715892 
L 313.227602 -251.214515 
L 313.227602 -253.713139 
L 313.227602 -256.211762 
L 313.227602 -258.710385 
L 313.227602 -261.209009 
L 313.227602 -263.707632 
L 313.227602 -266.206256 
L 313.227602 -268.704879 
L 313.227602 -271.203503 
L 313.227602 -273.702126 
L 313.227602 -276.200749 
L 313.227602 -278.699373 
L 313.227602 -281.197996 
L 313.227602 -283.69662 
L 313.227602 -286.195243 
L 313.227602 -288.693866 
L 313.227602 -291.19249 
L 313.227602 -293.691113 
L 313.227602 -296.189737 
L 313.227602 -298.68836 
L 313.227602 -301.186984 
L 313.227602 -303.685607 
L 313.227602 -306.18423 
L 313.227602 -308.682854 
L 313.227602 -311.181477 
L 313.272178 -311.181477 
L 313.272178 -311.181477 
L 313.290886 -308.682854 
L 313.314589 -306.18423 
L 313.343407 -303.685607 
L 313.376989 -301.186984 
L 313.414448 -298.68836 
L 313.454382 -296.189737 
L 313.495004 -293.691113 
L 313.534367 -291.19249 
L 313.570658 -288.693866 
L 313.602488 -286.195243 
L 313.629128 -283.69662 
L 313.650612 -281.197996 
L 313.667693 -278.699373 
L 313.681656 -276.200749 
L 313.694041 -273.702126 
L 313.706367 -271.203503 
L 313.719911 -268.704879 
L 313.735636 -266.206256 
L 313.754247 -263.707632 
L 313.776379 -261.209009 
L 313.802842 -258.710385 
L 313.83485 -256.211762 
L 313.874175 -253.713139 
L 313.923179 -251.214515 
L 313.984722 -248.715892 
L 314.061951 -246.217268 
L 314.158006 -243.718645 
L 314.275688 -241.220022 
L 314.417136 -238.721398 
L 314.583554 -236.222775 
L 314.775043 -233.724151 
L 314.990571 -231.225528 
L 315.228073 -228.726904 
L 315.484679 -226.228281 
L 315.756993 -223.729658 
L 316.041343 -221.231034 
L 316.333917 -218.732411 
L 316.630747 -216.233787 
L 316.927538 -213.735164 
L 317.219446 -211.23654 
L 317.500915 -208.737917 
L 317.765735 -206.239294 
L 318.007409 -203.74067 
L 318.219849 -201.242047 
L 318.398312 -198.743423 
L 318.540394 -196.2448 
L 318.646856 -193.746177 
L 318.722079 -191.247553 
L 318.774006 -188.74893 
L 318.813536 -186.250306 
L 318.853481 -183.751683 
L 318.907232 -181.253059 
L 318.987413 -178.754436 
L 319.104717 -176.255813 
L 319.267114 -173.757189 
L 319.479516 -171.258566 
L 319.743847 -168.759942 
L 320.0594 -166.261319 
L 320.423287 -163.762696 
L 320.830804 -161.264072 
L 321.275615 -158.765449 
L 321.749772 -156.266825 
L 322.243726 -153.768202 
L 322.7466 -151.269578 
L 323.246978 -148.770955 
L 323.734452 -146.272332 
L 324.201966 -143.773708 
L 324.648835 -141.275085 
L 325.084052 -138.776461 
L 325.529312 -136.277838 
L 326.020993 -133.779214 
L 326.610242 -131.280591 
L 327.360362 -128.781968 
L 328.340878 -126.283344 
L 329.618125 -123.784721 
L 331.242849 -121.286097 
L 333.236191 -118.787474 
L 335.576266 -116.288851 
L 338.188229 -113.790227 
L 340.940832 -111.291604 
L 343.651845 -108.79298 
L 346.10336 -106.294357 
L 348.065897 -103.795733 
L 349.328118 -101.29711 
L 349.727135 -98.798487 
L 349.173689 -96.299863 
L 347.66707 -93.80124 
L 345.296558 -91.302616 
L 342.228996 -88.803993 
L 338.685004 -86.30537 
L 334.908659 -83.806746 
L 331.136493 -81.308123 
L 327.571267 -78.809499 
L 324.364372 -76.310876 
L 321.608456 -73.812252 
L 319.3396 -71.313629 
L 317.546676 -68.815006 
L 316.1847 -66.316382 
L 315.189022 -63.817759 
z
" style="stroke: #4c4c4c; stroke-width: 1.5"/>
    </defs>
    <g clip-path="url(#p79c53fc22e)">
     <use xlink:href="#mcfe28f4b70" x="0" y="346.2575" style="fill: #cc8963; stroke: #4c4c4c; stroke-width: 1.5"/>
    </g>
   </g>
   <g id="line2d_8">
    <path d="M 102.49127 255.027621 
L 102.49127 189.029292 
" clip-path="url(#p79c53fc22e)" style="fill: none; stroke: #4c4c4c; stroke-width: 1.5; stroke-linecap: round"/>
   </g>
   <g id="line2d_9">
    <path d="M 102.49127 252.839285 
L 102.49127 226.803394 
" clip-path="url(#p79c53fc22e)" style="fill: none; stroke: #4c4c4c; stroke-width: 4.5; stroke-linecap: round"/>
   </g>
   <g id="line2d_10">
    <path d="M 207.859436 255.027621 
L 207.859436 187.009942 
" clip-path="url(#p79c53fc22e)" style="fill: none; stroke: #4c4c4c; stroke-width: 1.5; stroke-linecap: round"/>
   </g>
   <g id="line2d_11">
    <path d="M 207.859436 253.024981 
L 207.859436 225.95938 
" clip-path="url(#p79c53fc22e)" style="fill: none; stroke: #4c4c4c; stroke-width: 4.5; stroke-linecap: round"/>
   </g>
   <g id="line2d_12">
    <path d="M 313.227602 255.027621 
L 313.227602 182.74016 
" clip-path="url(#p79c53fc22e)" style="fill: none; stroke: #4c4c4c; stroke-width: 1.5; stroke-linecap: round"/>
   </g>
   <g id="line2d_13">
    <path d="M 313.227602 251.055681 
L 313.227602 223.419246 
" clip-path="url(#p79c53fc22e)" style="fill: none; stroke: #4c4c4c; stroke-width: 4.5; stroke-linecap: round"/>
   </g>
   <g id="patch_5">
    <path d="M 49.807187 302.991875 
L 49.807187 22.318125 
" style="fill: none; stroke: #262626; stroke-width: 1.25; stroke-linejoin: miter; stroke-linecap: square"/>
   </g>
   <g id="patch_6">
    <path d="M 49.807187 302.991875 
L 365.911685 302.991875 
" style="fill: none; stroke: #262626; stroke-width: 1.25; stroke-linejoin: miter; stroke-linecap: square"/>
   </g>
   <g id="PathCollection_1">
    <defs>
     <path id="m93dc86c672" d="M 0 1.5 
C 0.397805 1.5 0.77937 1.341951 1.06066 1.06066 
C 1.341951 0.77937 1.5 0.397805 1.5 0 
C 1.5 -0.397805 1.341951 -0.77937 1.06066 -1.06066 
C 0.77937 -1.341951 0.397805 -1.5 0 -1.5 
C -0.397805 -1.5 -0.77937 -1.341951 -1.06066 -1.06066 
C -1.341951 -0.77937 -1.5 -0.397805 -1.5 0 
C -1.5 0.397805 -1.341951 0.77937 -1.06066 1.06066 
C -0.77937 1.341951 -0.397805 1.5 0 1.5 
z
" style="stroke: #4c4c4c"/>
    </defs>
    <g clip-path="url(#p79c53fc22e)">
     <use xlink:href="#m93dc86c672" x="102.49127" y="249.520487" style="fill: #ffffff; stroke: #4c4c4c"/>
    </g>
   </g>
   <g id="PathCollection_2">
    <g clip-path="url(#p79c53fc22e)">
     <use xlink:href="#m93dc86c672" x="207.859436" y="249.6868" style="fill: #ffffff; stroke: #4c4c4c"/>
    </g>
   </g>
   <g id="PathCollection_3">
    <g clip-path="url(#p79c53fc22e)">
     <use xlink:href="#m93dc86c672" x="313.227602" y="245.549156" style="fill: #ffffff; stroke: #4c4c4c"/>
    </g>
   </g>
   <g id="text_10">
    <!-- Dyn_obs = 5.0 -->
    <g style="fill: #262626" transform="translate(163.896311 16.318125)scale(0.12 -0.12)">
     <defs>
      <path id="DejaVuSans-44" d="M 1259 4147 
L 1259 519 
L 2022 519 
Q 2988 519 3436 956 
Q 3884 1394 3884 2338 
Q 3884 3275 3436 3711 
Q 2988 4147 2022 4147 
L 1259 4147 
z
M 628 4666 
L 1925 4666 
Q 3281 4666 3915 4102 
Q 4550 3538 4550 2338 
Q 4550 1131 3912 565 
Q 3275 0 1925 0 
L 628 0 
L 628 4666 
z
" transform="scale(0.015625)"/>
      <path id="DejaVuSans-79" d="M 2059 -325 
Q 1816 -950 1584 -1140 
Q 1353 -1331 966 -1331 
L 506 -1331 
L 506 -850 
L 844 -850 
Q 1081 -850 1212 -737 
Q 1344 -625 1503 -206 
L 1606 56 
L 191 3500 
L 800 3500 
L 1894 763 
L 2988 3500 
L 3597 3500 
L 2059 -325 
z
" transform="scale(0.015625)"/>
      <path id="DejaVuSans-6e" d="M 3513 2113 
L 3513 0 
L 2938 0 
L 2938 2094 
Q 2938 2591 2744 2837 
Q 2550 3084 2163 3084 
Q 1697 3084 1428 2787 
Q 1159 2491 1159 1978 
L 1159 0 
L 581 0 
L 581 3500 
L 1159 3500 
L 1159 2956 
Q 1366 3272 1645 3428 
Q 1925 3584 2291 3584 
Q 2894 3584 3203 3211 
Q 3513 2838 3513 2113 
z
" transform="scale(0.015625)"/>
      <path id="DejaVuSans-62" d="M 3116 1747 
Q 3116 2381 2855 2742 
Q 2594 3103 2138 3103 
Q 1681 3103 1420 2742 
Q 1159 2381 1159 1747 
Q 1159 1113 1420 752 
Q 1681 391 2138 391 
Q 2594 391 2855 752 
Q 3116 1113 3116 1747 
z
M 1159 2969 
Q 1341 3281 1617 3432 
Q 1894 3584 2278 3584 
Q 2916 3584 3314 3078 
Q 3713 2572 3713 1747 
Q 3713 922 3314 415 
Q 2916 -91 2278 -91 
Q 1894 -91 1617 61 
Q 1341 213 1159 525 
L 1159 0 
L 581 0 
L 581 4863 
L 1159 4863 
L 1159 2969 
z
" transform="scale(0.015625)"/>
      <path id="DejaVuSans-20" transform="scale(0.015625)"/>
      <path id="DejaVuSans-3d" d="M 678 2906 
L 4684 2906 
L 4684 2381 
L 678 2381 
L 678 2906 
z
M 678 1631 
L 4684 1631 
L 4684 1100 
L 678 1100 
L 678 1631 
z
" transform="scale(0.015625)"/>
     </defs>
     <use xlink:href="#DejaVuSans-44"/>
     <use xlink:href="#DejaVuSans-79" x="77.001953"/>
     <use xlink:href="#DejaVuSans-6e" x="136.181641"/>
     <use xlink:href="#DejaVuSans-5f" x="199.560547"/>
     <use xlink:href="#DejaVuSans-6f" x="249.560547"/>
     <use xlink:href="#DejaVuSans-62" x="310.742188"/>
     <use xlink:href="#DejaVuSans-73" x="374.21875"/>
     <use xlink:href="#DejaVuSans-20" x="426.318359"/>
     <use xlink:href="#DejaVuSans-3d" x="458.105469"/>
     <use xlink:href="#DejaVuSans-20" x="541.894531"/>
     <use xlink:href="#DejaVuSans-35" x="573.681641"/>
     <use xlink:href="#DejaVuSans-2e" x="637.304688"/>
     <use xlink:href="#DejaVuSans-30" x="669.091797"/>
    </g>
   </g>
  </g>
  <g id="axes_2">
   <g id="patch_7">
    <path d="M 384.90064 302.991875 
L 701.005138 302.991875 
L 701.005138 22.318125 
L 384.90064 22.318125 
z
" style="fill: #ffffff"/>
   </g>
   <g id="matplotlib.axis_3">
    <g id="xtick_4">
     <g id="line2d_14">
      <g>
       <use xlink:href="#mdf97ea0f8b" x="437.584723" y="302.991875" style="fill: #262626; stroke: #262626; stroke-width: 1.25"/>
      </g>
     </g>
     <g id="text_11">
      <!-- map2 -->
      <g style="fill: #262626" transform="translate(421.865895 320.850156)scale(0.11 -0.11)">
       <use xlink:href="#DejaVuSans-6d"/>
       <use xlink:href="#DejaVuSans-61" x="97.412109"/>
       <use xlink:href="#DejaVuSans-70" x="158.691406"/>
       <use xlink:href="#DejaVuSans-32" x="222.167969"/>
      </g>
     </g>
    </g>
    <g id="xtick_5">
     <g id="line2d_15">
      <g>
       <use xlink:href="#mdf97ea0f8b" x="542.952889" y="302.991875" style="fill: #262626; stroke: #262626; stroke-width: 1.25"/>
      </g>
     </g>
     <g id="text_12">
      <!-- map5 -->
      <g style="fill: #262626" transform="translate(527.23406 320.850156)scale(0.11 -0.11)">
       <use xlink:href="#DejaVuSans-6d"/>
       <use xlink:href="#DejaVuSans-61" x="97.412109"/>
       <use xlink:href="#DejaVuSans-70" x="158.691406"/>
       <use xlink:href="#DejaVuSans-35" x="222.167969"/>
      </g>
     </g>
    </g>
    <g id="xtick_6">
     <g id="line2d_16">
      <g>
       <use xlink:href="#mdf97ea0f8b" x="648.321055" y="302.991875" style="fill: #262626; stroke: #262626; stroke-width: 1.25"/>
      </g>
     </g>
     <g id="text_13">
      <!-- small_warehouse -->
      <g style="fill: #262626" transform="translate(600.946289 320.850156)scale(0.11 -0.11)">
       <use xlink:href="#DejaVuSans-73"/>
       <use xlink:href="#DejaVuSans-6d" x="52.099609"/>
       <use xlink:href="#DejaVuSans-61" x="149.511719"/>
       <use xlink:href="#DejaVuSans-6c" x="210.791016"/>
       <use xlink:href="#DejaVuSans-6c" x="238.574219"/>
       <use xlink:href="#DejaVuSans-5f" x="266.357422"/>
       <use xlink:href="#DejaVuSans-77" x="316.357422"/>
       <use xlink:href="#DejaVuSans-61" x="398.144531"/>
       <use xlink:href="#DejaVuSans-72" x="459.423828"/>
       <use xlink:href="#DejaVuSans-65" x="498.287109"/>
       <use xlink:href="#DejaVuSans-68" x="559.810547"/>
       <use xlink:href="#DejaVuSans-6f" x="623.189453"/>
       <use xlink:href="#DejaVuSans-75" x="684.371094"/>
       <use xlink:href="#DejaVuSans-73" x="747.75"/>
       <use xlink:href="#DejaVuSans-65" x="799.849609"/>
      </g>
     </g>
    </g>
    <g id="text_14">
     <!-- World -->
     <g style="fill: #262626" transform="translate(525.759139 336.561875)scale(0.12 -0.12)">
      <use xlink:href="#DejaVuSans-57"/>
      <use xlink:href="#DejaVuSans-6f" x="93.001953"/>
      <use xlink:href="#DejaVuSans-72" x="154.183594"/>
      <use xlink:href="#DejaVuSans-6c" x="195.296875"/>
      <use xlink:href="#DejaVuSans-64" x="223.080078"/>
     </g>
    </g>
   </g>
   <g id="matplotlib.axis_4">
    <g id="ytick_5">
     <g id="line2d_17">
      <g>
       <use xlink:href="#m512887281d" x="384.90064" y="255.027621" style="fill: #262626; stroke: #262626; stroke-width: 1.25"/>
      </g>
     </g>
    </g>
    <g id="ytick_6">
     <g id="line2d_18">
      <g>
       <use xlink:href="#m512887281d" x="384.90064" y="192.885359" style="fill: #262626; stroke: #262626; stroke-width: 1.25"/>
      </g>
     </g>
    </g>
    <g id="ytick_7">
     <g id="line2d_19">
      <g>
       <use xlink:href="#m512887281d" x="384.90064" y="130.743096" style="fill: #262626; stroke: #262626; stroke-width: 1.25"/>
      </g>
     </g>
    </g>
    <g id="ytick_8">
     <g id="line2d_20">
      <g>
       <use xlink:href="#m512887281d" x="384.90064" y="68.600833" style="fill: #262626; stroke: #262626; stroke-width: 1.25"/>
      </g>
     </g>
    </g>
   </g>
   <g id="patch_8">
    <path d="M 437.584723 255.027621 
L 437.584723 255.027621 
L 437.584723 255.027621 
L 437.584723 255.027621 
z
" clip-path="url(#p153b393982)" style="fill: #5875a4; stroke: #4c4c4c; stroke-width: 0.75; stroke-linejoin: miter"/>
   </g>
   <g id="PolyCollection_7">
    <defs>
     <path id="m2a6a467fdf" d="M 437.584723 -72.804766 
L 435.54175 -72.804766 
L 434.562089 -74.421856 
L 433.234478 -76.038947 
L 431.49375 -77.656038 
L 429.287248 -79.273128 
L 426.586183 -80.890219 
L 423.397419 -82.50731 
L 419.773683 -84.1244 
L 415.819867 -85.741491 
L 411.693261 -87.358582 
L 407.596239 -88.975672 
L 403.761112 -90.592763 
L 400.428382 -92.209854 
L 397.821101 -93.826944 
L 396.119129 -95.444035 
L 395.437456 -97.061126 
L 395.812278 -98.678216 
L 397.197202 -100.295307 
L 399.470153 -101.912398 
L 402.449626 -103.529488 
L 405.917302 -105.146579 
L 409.643185 -106.76367 
L 413.409289 -108.38076 
L 417.028653 -109.997851 
L 420.357678 -111.614942 
L 423.301208 -113.232032 
L 425.811071 -114.849123 
L 427.879678 -116.466214 
L 429.5307 -118.083304 
L 430.808741 -119.700395 
L 431.769593 -121.317486 
L 432.472077 -122.934576 
L 432.971927 -124.551667 
L 433.31781 -126.168758 
L 433.549216 -127.785848 
L 433.695926 -129.402939 
L 433.778657 -131.02003 
L 433.810563 -132.63712 
L 433.799279 -134.254211 
L 433.749181 -135.871302 
L 433.663594 -137.488392 
L 433.546637 -139.105483 
L 433.404486 -140.722574 
L 433.24589 -142.339664 
L 433.081927 -143.956755 
L 432.925105 -145.573846 
L 432.788034 -147.190936 
L 432.681966 -148.808027 
L 432.615512 -150.425118 
L 432.593772 -152.042208 
L 432.618015 -153.659299 
L 432.685908 -155.27639 
L 432.792199 -156.89348 
L 432.929659 -158.510571 
L 433.090107 -160.127662 
L 433.265323 -161.744752 
L 433.447773 -163.361843 
L 433.631091 -164.978934 
L 433.810359 -166.596024 
L 433.98223 -168.213115 
L 434.144951 -169.830206 
L 434.298316 -171.447296 
L 434.443549 -173.064387 
L 434.583079 -174.681478 
L 434.720193 -176.298568 
L 434.858557 -177.915659 
L 435.001633 -179.53275 
L 435.152066 -181.14984 
L 435.311144 -182.766931 
L 435.478429 -184.384022 
L 435.651642 -186.001112 
L 435.826835 -187.618203 
L 435.998829 -189.235294 
L 436.16185 -190.852384 
L 436.31025 -192.469475 
L 436.439214 -194.086566 
L 436.545332 -195.703656 
L 436.626981 -197.320747 
L 436.684478 -198.937838 
L 436.720006 -200.554928 
L 436.737348 -202.172019 
L 436.741481 -203.78911 
L 436.738075 -205.4062 
L 436.732954 -207.023291 
L 436.731564 -208.640382 
L 436.7385 -210.257472 
L 436.757113 -211.874563 
L 436.789263 -213.491654 
L 436.835221 -215.108744 
L 436.893754 -216.725835 
L 436.96237 -218.342926 
L 437.037695 -219.960016 
L 437.115928 -221.577107 
L 437.193308 -223.194198 
L 437.266512 -224.811288 
L 437.332954 -226.428379 
L 437.390938 -228.04547 
L 437.439671 -229.66256 
L 437.479166 -231.279651 
L 437.510059 -232.896742 
L 437.584723 -232.896742 
L 437.584723 -232.896742 
L 437.584723 -231.279651 
L 437.584723 -229.66256 
L 437.584723 -228.04547 
L 437.584723 -226.428379 
L 437.584723 -224.811288 
L 437.584723 -223.194198 
L 437.584723 -221.577107 
L 437.584723 -219.960016 
L 437.584723 -218.342926 
L 437.584723 -216.725835 
L 437.584723 -215.108744 
L 437.584723 -213.491654 
L 437.584723 -211.874563 
L 437.584723 -210.257472 
L 437.584723 -208.640382 
L 437.584723 -207.023291 
L 437.584723 -205.4062 
L 437.584723 -203.78911 
L 437.584723 -202.172019 
L 437.584723 -200.554928 
L 437.584723 -198.937838 
L 437.584723 -197.320747 
L 437.584723 -195.703656 
L 437.584723 -194.086566 
L 437.584723 -192.469475 
L 437.584723 -190.852384 
L 437.584723 -189.235294 
L 437.584723 -187.618203 
L 437.584723 -186.001112 
L 437.584723 -184.384022 
L 437.584723 -182.766931 
L 437.584723 -181.14984 
L 437.584723 -179.53275 
L 437.584723 -177.915659 
L 437.584723 -176.298568 
L 437.584723 -174.681478 
L 437.584723 -173.064387 
L 437.584723 -171.447296 
L 437.584723 -169.830206 
L 437.584723 -168.213115 
L 437.584723 -166.596024 
L 437.584723 -164.978934 
L 437.584723 -163.361843 
L 437.584723 -161.744752 
L 437.584723 -160.127662 
L 437.584723 -158.510571 
L 437.584723 -156.89348 
L 437.584723 -155.27639 
L 437.584723 -153.659299 
L 437.584723 -152.042208 
L 437.584723 -150.425118 
L 437.584723 -148.808027 
L 437.584723 -147.190936 
L 437.584723 -145.573846 
L 437.584723 -143.956755 
L 437.584723 -142.339664 
L 437.584723 -140.722574 
L 437.584723 -139.105483 
L 437.584723 -137.488392 
L 437.584723 -135.871302 
L 437.584723 -134.254211 
L 437.584723 -132.63712 
L 437.584723 -131.02003 
L 437.584723 -129.402939 
L 437.584723 -127.785848 
L 437.584723 -126.168758 
L 437.584723 -124.551667 
L 437.584723 -122.934576 
L 437.584723 -121.317486 
L 437.584723 -119.700395 
L 437.584723 -118.083304 
L 437.584723 -116.466214 
L 437.584723 -114.849123 
L 437.584723 -113.232032 
L 437.584723 -111.614942 
L 437.584723 -109.997851 
L 437.584723 -108.38076 
L 437.584723 -106.76367 
L 437.584723 -105.146579 
L 437.584723 -103.529488 
L 437.584723 -101.912398 
L 437.584723 -100.295307 
L 437.584723 -98.678216 
L 437.584723 -97.061126 
L 437.584723 -95.444035 
L 437.584723 -93.826944 
L 437.584723 -92.209854 
L 437.584723 -90.592763 
L 437.584723 -88.975672 
L 437.584723 -87.358582 
L 437.584723 -85.741491 
L 437.584723 -84.1244 
L 437.584723 -82.50731 
L 437.584723 -80.890219 
L 437.584723 -79.273128 
L 437.584723 -77.656038 
L 437.584723 -76.038947 
L 437.584723 -74.421856 
L 437.584723 -72.804766 
z
" style="stroke: #4c4c4c; stroke-width: 1.5"/>
    </defs>
    <g clip-path="url(#p153b393982)">
     <use xlink:href="#m2a6a467fdf" x="0" y="346.2575" style="fill: #5875a4; stroke: #4c4c4c; stroke-width: 1.5"/>
    </g>
   </g>
   <g id="patch_9">
    <path d="M 437.584723 255.027621 
L 437.584723 255.027621 
L 437.584723 255.027621 
L 437.584723 255.027621 
z
" clip-path="url(#p153b393982)" style="fill: #cc8963; stroke: #4c4c4c; stroke-width: 0.75; stroke-linejoin: miter"/>
   </g>
   <g id="PolyCollection_8">
    <defs>
     <path id="mc0878f67cb" d="M 439.466242 -73.418772 
L 437.584723 -73.418772 
L 437.584723 -74.80196 
L 437.584723 -76.185148 
L 437.584723 -77.568336 
L 437.584723 -78.951524 
L 437.584723 -80.334712 
L 437.584723 -81.7179 
L 437.584723 -83.101088 
L 437.584723 -84.484276 
L 437.584723 -85.867463 
L 437.584723 -87.250651 
L 437.584723 -88.633839 
L 437.584723 -90.017027 
L 437.584723 -91.400215 
L 437.584723 -92.783403 
L 437.584723 -94.166591 
L 437.584723 -95.549779 
L 437.584723 -96.932967 
L 437.584723 -98.316155 
L 437.584723 -99.699343 
L 437.584723 -101.082531 
L 437.584723 -102.465719 
L 437.584723 -103.848907 
L 437.584723 -105.232095 
L 437.584723 -106.615283 
L 437.584723 -107.998471 
L 437.584723 -109.381659 
L 437.584723 -110.764847 
L 437.584723 -112.148035 
L 437.584723 -113.531223 
L 437.584723 -114.914411 
L 437.584723 -116.297599 
L 437.584723 -117.680787 
L 437.584723 -119.063975 
L 437.584723 -120.447163 
L 437.584723 -121.830351 
L 437.584723 -123.213538 
L 437.584723 -124.596726 
L 437.584723 -125.979914 
L 437.584723 -127.363102 
L 437.584723 -128.74629 
L 437.584723 -130.129478 
L 437.584723 -131.512666 
L 437.584723 -132.895854 
L 437.584723 -134.279042 
L 437.584723 -135.66223 
L 437.584723 -137.045418 
L 437.584723 -138.428606 
L 437.584723 -139.811794 
L 437.584723 -141.194982 
L 437.584723 -142.57817 
L 437.584723 -143.961358 
L 437.584723 -145.344546 
L 437.584723 -146.727734 
L 437.584723 -148.110922 
L 437.584723 -149.49411 
L 437.584723 -150.877298 
L 437.584723 -152.260486 
L 437.584723 -153.643674 
L 437.584723 -155.026862 
L 437.584723 -156.41005 
L 437.584723 -157.793238 
L 437.584723 -159.176426 
L 437.584723 -160.559614 
L 437.584723 -161.942801 
L 437.584723 -163.325989 
L 437.584723 -164.709177 
L 437.584723 -166.092365 
L 437.584723 -167.475553 
L 437.584723 -168.858741 
L 437.584723 -170.241929 
L 437.584723 -171.625117 
L 437.584723 -173.008305 
L 437.584723 -174.391493 
L 437.584723 -175.774681 
L 437.584723 -177.157869 
L 437.584723 -178.541057 
L 437.584723 -179.924245 
L 437.584723 -181.307433 
L 437.584723 -182.690621 
L 437.584723 -184.073809 
L 437.584723 -185.456997 
L 437.584723 -186.840185 
L 437.584723 -188.223373 
L 437.584723 -189.606561 
L 437.584723 -190.989749 
L 437.584723 -192.372937 
L 437.584723 -193.756125 
L 437.584723 -195.139313 
L 437.584723 -196.522501 
L 437.584723 -197.905689 
L 437.584723 -199.288877 
L 437.584723 -200.672064 
L 437.584723 -202.055252 
L 437.584723 -203.43844 
L 437.584723 -204.821628 
L 437.584723 -206.204816 
L 437.584723 -207.588004 
L 437.584723 -208.971192 
L 437.584723 -210.35438 
L 437.647566 -210.35438 
L 437.647566 -210.35438 
L 437.67336 -208.971192 
L 437.707365 -207.588004 
L 437.751257 -206.204816 
L 437.806728 -204.821628 
L 437.87538 -203.43844 
L 437.958588 -202.055252 
L 438.057351 -200.672064 
L 438.172153 -199.288877 
L 438.302828 -197.905689 
L 438.448482 -196.522501 
L 438.607475 -195.139313 
L 438.777478 -193.756125 
L 438.955641 -192.372937 
L 439.138845 -190.989749 
L 439.324028 -189.606561 
L 439.508559 -188.223373 
L 439.690587 -186.840185 
L 439.869324 -185.456997 
L 440.045191 -184.073809 
L 440.219784 -182.690621 
L 440.395645 -181.307433 
L 440.575845 -179.924245 
L 440.763436 -178.541057 
L 440.960843 -177.157869 
L 441.169294 -175.774681 
L 441.38837 -174.391493 
L 441.615766 -173.008305 
L 441.847295 -171.625117 
L 442.077135 -170.241929 
L 442.298309 -168.858741 
L 442.503317 -167.475553 
L 442.68485 -166.092365 
L 442.836492 -164.709177 
L 442.953343 -163.325989 
L 443.032488 -161.942801 
L 443.073282 -160.559614 
L 443.077437 -159.176426 
L 443.04892 -157.793238 
L 442.993714 -156.41005 
L 442.919476 -155.026862 
L 442.835163 -153.643674 
L 442.75067 -152.260486 
L 442.676509 -150.877298 
L 442.623548 -149.49411 
L 442.602767 -148.110922 
L 442.625021 -146.727734 
L 442.700733 -145.344546 
L 442.839497 -143.961358 
L 443.049565 -142.57817 
L 443.337235 -141.194982 
L 443.706188 -139.811794 
L 444.156859 -138.428606 
L 444.685931 -137.045418 
L 445.286042 -135.66223 
L 445.945782 -134.279042 
L 446.65002 -132.895854 
L 447.380576 -131.512666 
L 448.117224 -130.129478 
L 448.838989 -128.74629 
L 449.525694 -127.363102 
L 450.159692 -125.979914 
L 450.727724 -124.596726 
L 451.222788 -123.213538 
L 451.645896 -121.830351 
L 452.007533 -120.447163 
L 452.328575 -119.063975 
L 452.640401 -117.680787 
L 452.983907 -116.297599 
L 453.407201 -114.914411 
L 453.961835 -113.531223 
L 454.697628 -112.148035 
L 455.656368 -110.764847 
L 456.864942 -109.381659 
L 458.328689 -107.998471 
L 460.025978 -106.615283 
L 461.905024 -105.232095 
L 463.883875 -103.848907 
L 465.854131 -102.465719 
L 467.688498 -101.082531 
L 469.251655 -99.699343 
L 470.413298 -98.316155 
L 471.061779 -96.932967 
L 471.116461 -95.549779 
L 470.53702 -94.166591 
L 469.328307 -92.783403 
L 467.540018 -91.400215 
L 465.261261 -90.017027 
L 462.610875 -88.633839 
L 459.724959 -87.250651 
L 456.743462 -85.867463 
L 453.79762 -84.484276 
L 450.999781 -83.101088 
L 448.436594 -81.7179 
L 446.165935 -80.334712 
L 444.217324 -78.951524 
L 442.595162 -77.568336 
L 441.283807 -76.185148 
L 440.253503 -74.80196 
L 439.466242 -73.418772 
z
" style="stroke: #4c4c4c; stroke-width: 1.5"/>
    </defs>
    <g clip-path="url(#p153b393982)">
     <use xlink:href="#mc0878f67cb" x="0" y="346.2575" style="fill: #cc8963; stroke: #4c4c4c; stroke-width: 1.5"/>
    </g>
   </g>
   <g id="PolyCollection_9">
    <defs>
     <path id="m472d27abd1" d="M 542.952889 -70.953025 
L 540.730128 -70.953025 
L 539.548346 -72.970409 
L 537.918498 -74.987793 
L 535.763173 -77.005177 
L 533.032622 -79.02256 
L 529.722588 -81.039944 
L 525.88978 -83.057328 
L 521.660837 -85.074712 
L 517.231151 -87.092096 
L 512.851616 -89.10948 
L 508.80396 -91.126864 
L 505.368105 -93.144248 
L 502.787243 -95.161632 
L 501.237168 -97.179015 
L 500.805622 -99.196399 
L 501.485135 -101.213783 
L 503.179833 -103.231167 
L 505.72374 -105.248551 
L 508.90606 -107.265935 
L 512.49831 -109.283319 
L 516.278725 -111.300703 
L 520.050926 -113.318087 
L 523.655589 -115.33547 
L 526.975417 -117.352854 
L 529.934679 -119.370238 
L 532.494981 -121.387622 
L 534.648824 -123.405006 
L 536.412222 -125.42239 
L 537.817278 -127.439774 
L 538.905373 -129.457158 
L 539.721379 -131.474542 
L 540.309186 -133.491925 
L 540.708698 -135.509309 
L 540.954253 -137.526693 
L 541.074339 -139.544077 
L 541.092294 -141.561461 
L 541.027617 -143.578845 
L 540.897509 -145.596229 
L 540.718283 -147.613613 
L 540.506362 -149.630997 
L 540.278719 -151.64838 
L 540.052732 -153.665764 
L 539.845513 -155.683148 
L 539.672894 -157.700532 
L 539.548235 -159.717916 
L 539.48126 -161.7353 
L 539.47709 -163.752684 
L 539.535618 -165.770068 
L 539.651362 -167.787452 
L 539.81389 -169.804835 
L 540.008874 -171.822219 
L 540.21971 -173.839603 
L 540.42957 -175.856987 
L 540.623548 -177.874371 
L 540.790577 -179.891755 
L 540.924703 -181.909139 
L 541.025497 -183.926523 
L 541.097495 -185.943907 
L 541.148843 -187.96129 
L 541.189461 -189.978674 
L 541.229148 -191.996058 
L 541.276023 -194.013442 
L 541.335564 -196.030826 
L 541.410298 -198.04821 
L 541.500043 -200.065594 
L 541.602495 -202.082978 
L 541.713908 -204.100362 
L 541.82973 -206.117745 
L 541.945113 -208.135129 
L 542.055326 -210.152513 
L 542.156124 -212.169897 
L 542.244098 -214.187281 
L 542.316973 -216.204665 
L 542.373797 -218.222049 
L 542.414926 -220.239433 
L 542.441768 -222.256817 
L 542.456352 -224.2742 
L 542.460821 -226.291584 
L 542.457022 -228.308968 
L 542.446333 -230.326352 
L 542.429773 -232.343736 
L 542.408359 -234.36112 
L 542.383559 -236.378504 
L 542.357643 -238.395888 
L 542.333784 -240.413272 
L 542.31582 -242.430655 
L 542.307703 -244.448039 
L 542.312787 -246.465423 
L 542.333146 -248.482807 
L 542.369099 -250.500191 
L 542.41909 -252.517575 
L 542.479932 -254.534959 
L 542.547353 -256.552343 
L 542.616699 -258.569727 
L 542.683625 -260.58711 
L 542.744647 -262.604494 
L 542.797446 -264.621878 
L 542.840938 -266.639262 
L 542.875118 -268.656646 
L 542.900791 -270.67403 
L 542.952889 -270.67403 
L 542.952889 -270.67403 
L 542.952889 -268.656646 
L 542.952889 -266.639262 
L 542.952889 -264.621878 
L 542.952889 -262.604494 
L 542.952889 -260.58711 
L 542.952889 -258.569727 
L 542.952889 -256.552343 
L 542.952889 -254.534959 
L 542.952889 -252.517575 
L 542.952889 -250.500191 
L 542.952889 -248.482807 
L 542.952889 -246.465423 
L 542.952889 -244.448039 
L 542.952889 -242.430655 
L 542.952889 -240.413272 
L 542.952889 -238.395888 
L 542.952889 -236.378504 
L 542.952889 -234.36112 
L 542.952889 -232.343736 
L 542.952889 -230.326352 
L 542.952889 -228.308968 
L 542.952889 -226.291584 
L 542.952889 -224.2742 
L 542.952889 -222.256817 
L 542.952889 -220.239433 
L 542.952889 -218.222049 
L 542.952889 -216.204665 
L 542.952889 -214.187281 
L 542.952889 -212.169897 
L 542.952889 -210.152513 
L 542.952889 -208.135129 
L 542.952889 -206.117745 
L 542.952889 -204.100362 
L 542.952889 -202.082978 
L 542.952889 -200.065594 
L 542.952889 -198.04821 
L 542.952889 -196.030826 
L 542.952889 -194.013442 
L 542.952889 -191.996058 
L 542.952889 -189.978674 
L 542.952889 -187.96129 
L 542.952889 -185.943907 
L 542.952889 -183.926523 
L 542.952889 -181.909139 
L 542.952889 -179.891755 
L 542.952889 -177.874371 
L 542.952889 -175.856987 
L 542.952889 -173.839603 
L 542.952889 -171.822219 
L 542.952889 -169.804835 
L 542.952889 -167.787452 
L 542.952889 -165.770068 
L 542.952889 -163.752684 
L 542.952889 -161.7353 
L 542.952889 -159.717916 
L 542.952889 -157.700532 
L 542.952889 -155.683148 
L 542.952889 -153.665764 
L 542.952889 -151.64838 
L 542.952889 -149.630997 
L 542.952889 -147.613613 
L 542.952889 -145.596229 
L 542.952889 -143.578845 
L 542.952889 -141.561461 
L 542.952889 -139.544077 
L 542.952889 -137.526693 
L 542.952889 -135.509309 
L 542.952889 -133.491925 
L 542.952889 -131.474542 
L 542.952889 -129.457158 
L 542.952889 -127.439774 
L 542.952889 -125.42239 
L 542.952889 -123.405006 
L 542.952889 -121.387622 
L 542.952889 -119.370238 
L 542.952889 -117.352854 
L 542.952889 -115.33547 
L 542.952889 -113.318087 
L 542.952889 -111.300703 
L 542.952889 -109.283319 
L 542.952889 -107.265935 
L 542.952889 -105.248551 
L 542.952889 -103.231167 
L 542.952889 -101.213783 
L 542.952889 -99.196399 
L 542.952889 -97.179015 
L 542.952889 -95.161632 
L 542.952889 -93.144248 
L 542.952889 -91.126864 
L 542.952889 -89.10948 
L 542.952889 -87.092096 
L 542.952889 -85.074712 
L 542.952889 -83.057328 
L 542.952889 -81.039944 
L 542.952889 -79.02256 
L 542.952889 -77.005177 
L 542.952889 -74.987793 
L 542.952889 -72.970409 
L 542.952889 -70.953025 
z
" style="stroke: #4c4c4c; stroke-width: 1.5"/>
    </defs>
    <g clip-path="url(#p153b393982)">
     <use xlink:href="#m472d27abd1" x="0" y="346.2575" style="fill: #5875a4; stroke: #4c4c4c; stroke-width: 1.5"/>
    </g>
   </g>
   <g id="PolyCollection_10">
    <defs>
     <path id="m8d3c5d4a46" d="M 544.278583 -61.509928 
L 542.952889 -61.509928 
L 542.952889 -63.687528 
L 542.952889 -65.865128 
L 542.952889 -68.042728 
L 542.952889 -70.220328 
L 542.952889 -72.397928 
L 542.952889 -74.575529 
L 542.952889 -76.753129 
L 542.952889 -78.930729 
L 542.952889 -81.108329 
L 542.952889 -83.285929 
L 542.952889 -85.463529 
L 542.952889 -87.641129 
L 542.952889 -89.818729 
L 542.952889 -91.996329 
L 542.952889 -94.173929 
L 542.952889 -96.351529 
L 542.952889 -98.529129 
L 542.952889 -100.706729 
L 542.952889 -102.884329 
L 542.952889 -105.061929 
L 542.952889 -107.239529 
L 542.952889 -109.417129 
L 542.952889 -111.594729 
L 542.952889 -113.772329 
L 542.952889 -115.949929 
L 542.952889 -118.127529 
L 542.952889 -120.305129 
L 542.952889 -122.482729 
L 542.952889 -124.660329 
L 542.952889 -126.837929 
L 542.952889 -129.015529 
L 542.952889 -131.193129 
L 542.952889 -133.370729 
L 542.952889 -135.548329 
L 542.952889 -137.725929 
L 542.952889 -139.903529 
L 542.952889 -142.081129 
L 542.952889 -144.258729 
L 542.952889 -146.436329 
L 542.952889 -148.613929 
L 542.952889 -150.791529 
L 542.952889 -152.969129 
L 542.952889 -155.146729 
L 542.952889 -157.324329 
L 542.952889 -159.501929 
L 542.952889 -161.679529 
L 542.952889 -163.857129 
L 542.952889 -166.034729 
L 542.952889 -168.212329 
L 542.952889 -170.389929 
L 542.952889 -172.567529 
L 542.952889 -174.745129 
L 542.952889 -176.922729 
L 542.952889 -179.100329 
L 542.952889 -181.277929 
L 542.952889 -183.455529 
L 542.952889 -185.633129 
L 542.952889 -187.810729 
L 542.952889 -189.988329 
L 542.952889 -192.165929 
L 542.952889 -194.343529 
L 542.952889 -196.521129 
L 542.952889 -198.698729 
L 542.952889 -200.876329 
L 542.952889 -203.053929 
L 542.952889 -205.231529 
L 542.952889 -207.409129 
L 542.952889 -209.586729 
L 542.952889 -211.764329 
L 542.952889 -213.941929 
L 542.952889 -216.119529 
L 542.952889 -218.297129 
L 542.952889 -220.474729 
L 542.952889 -222.652329 
L 542.952889 -224.829929 
L 542.952889 -227.007529 
L 542.952889 -229.185129 
L 542.952889 -231.362729 
L 542.952889 -233.540329 
L 542.952889 -235.717929 
L 542.952889 -237.895529 
L 542.952889 -240.073129 
L 542.952889 -242.250729 
L 542.952889 -244.428329 
L 542.952889 -246.605929 
L 542.952889 -248.783529 
L 542.952889 -250.961129 
L 542.952889 -253.138729 
L 542.952889 -255.316329 
L 542.952889 -257.493929 
L 542.952889 -259.671529 
L 542.952889 -261.849129 
L 542.952889 -264.026729 
L 542.952889 -266.204329 
L 542.952889 -268.381929 
L 542.952889 -270.559529 
L 542.952889 -272.737129 
L 542.952889 -274.914729 
L 542.952889 -277.092329 
L 543.019462 -277.092329 
L 543.019462 -277.092329 
L 543.044741 -274.914729 
L 543.077341 -272.737129 
L 543.11854 -270.559529 
L 543.169576 -268.381929 
L 543.23157 -266.204329 
L 543.305446 -264.026729 
L 543.391852 -261.849129 
L 543.491103 -259.671529 
L 543.603143 -257.493929 
L 543.727534 -255.316329 
L 543.863475 -253.138729 
L 544.009844 -250.961129 
L 544.165266 -248.783529 
L 544.328189 -246.605929 
L 544.49697 -244.428329 
L 544.669956 -242.250729 
L 544.845566 -240.073129 
L 545.022361 -237.895529 
L 545.199105 -235.717929 
L 545.374814 -233.540329 
L 545.548784 -231.362729 
L 545.720598 -229.185129 
L 545.890089 -227.007529 
L 546.057272 -224.829929 
L 546.222227 -222.652329 
L 546.38495 -220.474729 
L 546.545185 -218.297129 
L 546.70227 -216.119529 
L 546.855025 -213.941929 
L 547.001705 -211.764329 
L 547.14006 -209.586729 
L 547.267486 -207.409129 
L 547.381265 -205.231529 
L 547.478867 -203.053929 
L 547.558253 -200.876329 
L 547.61815 -198.698729 
L 547.658223 -196.521129 
L 547.679145 -194.343529 
L 547.682532 -192.165929 
L 547.670769 -189.988329 
L 547.646761 -187.810729 
L 547.613654 -185.633129 
L 547.574584 -183.455529 
L 547.532489 -181.277929 
L 547.490005 -179.100329 
L 547.449457 -176.922729 
L 547.412922 -174.745129 
L 547.382327 -172.567529 
L 547.359549 -170.389929 
L 547.346495 -168.212329 
L 547.345128 -166.034729 
L 547.357465 -163.857129 
L 547.385541 -161.679529 
L 547.431395 -159.501929 
L 547.497096 -157.324329 
L 547.584836 -155.146729 
L 547.697101 -152.969129 
L 547.83692 -150.791529 
L 548.008145 -148.613929 
L 548.215744 -146.436329 
L 548.466047 -144.258729 
L 548.766898 -142.081129 
L 549.127682 -139.903529 
L 549.559181 -137.725929 
L 550.073221 -135.548329 
L 550.682092 -133.370729 
L 551.397695 -131.193129 
L 552.230397 -129.015529 
L 553.187598 -126.837929 
L 554.272038 -124.660329 
L 555.479953 -122.482729 
L 556.799227 -120.305129 
L 558.207816 -118.127529 
L 559.672713 -115.949929 
L 561.149786 -113.772329 
L 562.58477 -111.594729 
L 563.915563 -109.417129 
L 565.07585 -107.239529 
L 565.99983 -105.061929 
L 566.627641 -102.884329 
L 566.91088 -100.706729 
L 566.81754 -98.529129 
L 566.335688 -96.351529 
L 565.47533 -94.173929 
L 564.268167 -91.996329 
L 562.76519 -89.818729 
L 561.032416 -87.641129 
L 559.145289 -85.463529 
L 557.182444 -83.285929 
L 555.219609 -81.108329 
L 553.324307 -78.930729 
L 551.55189 -76.753129 
L 549.943192 -74.575529 
L 548.523832 -72.397928 
L 547.304999 -70.220328 
L 546.285385 -68.042728 
L 545.453828 -65.865128 
L 544.792262 -63.687528 
L 544.278583 -61.509928 
z
" style="stroke: #4c4c4c; stroke-width: 1.5"/>
    </defs>
    <g clip-path="url(#p153b393982)">
     <use xlink:href="#m8d3c5d4a46" x="0" y="346.2575" style="fill: #cc8963; stroke: #4c4c4c; stroke-width: 1.5"/>
    </g>
   </g>
   <g id="PolyCollection_11">
    <defs>
     <path id="m0f5ca4977c" d="M 648.321055 -64.642346 
L 646.551234 -64.642346 
L 645.808411 -66.706258 
L 644.829505 -68.770171 
L 643.57151 -70.834083 
L 641.995536 -72.897996 
L 640.071734 -74.961908 
L 637.784725 -77.025821 
L 635.138944 -79.089733 
L 632.163171 -81.153646 
L 628.913434 -83.217558 
L 625.473595 -85.281471 
L 621.953086 -87.345383 
L 618.481641 -89.409296 
L 615.20125 -91.473209 
L 612.256037 -93.537121 
L 609.781069 -95.601034 
L 607.891386 -97.664946 
L 606.672539 -99.728859 
L 606.173788 -101.792771 
L 606.404732 -103.856684 
L 607.33571 -105.920596 
L 608.901784 -107.984509 
L 611.009655 -110.048421 
L 613.54655 -112.112334 
L 616.389933 -114.176246 
L 619.416906 -116.240159 
L 622.512377 -118.304072 
L 625.575305 -120.367984 
L 628.522729 -122.431897 
L 631.291548 -124.495809 
L 633.838352 -126.559722 
L 636.137728 -128.623634 
L 638.179565 -130.687547 
L 639.965882 -132.751459 
L 641.507598 -134.815372 
L 642.821582 -136.879284 
L 643.928155 -138.943197 
L 644.849146 -141.00711 
L 645.60647 -143.071022 
L 646.221159 -145.134935 
L 646.712758 -147.198847 
L 647.098973 -149.26276 
L 647.395491 -151.326672 
L 647.615922 -153.390585 
L 647.771812 -155.454497 
L 647.872731 -157.51841 
L 647.926422 -159.582322 
L 647.939016 -161.646235 
L 647.915308 -163.710147 
L 647.859086 -165.77406 
L 647.773479 -167.837973 
L 647.6613 -169.901885 
L 647.525345 -171.965798 
L 647.368613 -174.02971 
L 647.194421 -176.093623 
L 647.006403 -178.157535 
L 646.808408 -180.221448 
L 646.604313 -182.28536 
L 646.397797 -184.349273 
L 646.192128 -186.413185 
L 645.989992 -188.477098 
L 645.793427 -190.54101 
L 645.603852 -192.604923 
L 645.422202 -194.668836 
L 645.249142 -196.732748 
L 645.085311 -198.796661 
L 644.93156 -200.860573 
L 644.78913 -202.924486 
L 644.659732 -204.988398 
L 644.545517 -207.052311 
L 644.44895 -209.116223 
L 644.372589 -211.180136 
L 644.318839 -213.244048 
L 644.289701 -215.307961 
L 644.286583 -217.371874 
L 644.310188 -219.435786 
L 644.360509 -221.499699 
L 644.436906 -223.563611 
L 644.538256 -225.627524 
L 644.663114 -227.691436 
L 644.809857 -229.755349 
L 644.976767 -231.819261 
L 645.162028 -233.883174 
L 645.363651 -235.947086 
L 645.579348 -238.010999 
L 645.806387 -240.074911 
L 646.041501 -242.138824 
L 646.280869 -244.202737 
L 646.5202 -246.266649 
L 646.754932 -248.330562 
L 646.980509 -250.394474 
L 647.192697 -252.458387 
L 647.387894 -254.522299 
L 647.563381 -256.586212 
L 647.717479 -258.650124 
L 647.849591 -260.714037 
L 647.960138 -262.777949 
L 648.050402 -264.841862 
L 648.122309 -266.905774 
L 648.178193 -268.969687 
L 648.321055 -268.969687 
L 648.321055 -268.969687 
L 648.321055 -266.905774 
L 648.321055 -264.841862 
L 648.321055 -262.777949 
L 648.321055 -260.714037 
L 648.321055 -258.650124 
L 648.321055 -256.586212 
L 648.321055 -254.522299 
L 648.321055 -252.458387 
L 648.321055 -250.394474 
L 648.321055 -248.330562 
L 648.321055 -246.266649 
L 648.321055 -244.202737 
L 648.321055 -242.138824 
L 648.321055 -240.074911 
L 648.321055 -238.010999 
L 648.321055 -235.947086 
L 648.321055 -233.883174 
L 648.321055 -231.819261 
L 648.321055 -229.755349 
L 648.321055 -227.691436 
L 648.321055 -225.627524 
L 648.321055 -223.563611 
L 648.321055 -221.499699 
L 648.321055 -219.435786 
L 648.321055 -217.371874 
L 648.321055 -215.307961 
L 648.321055 -213.244048 
L 648.321055 -211.180136 
L 648.321055 -209.116223 
L 648.321055 -207.052311 
L 648.321055 -204.988398 
L 648.321055 -202.924486 
L 648.321055 -200.860573 
L 648.321055 -198.796661 
L 648.321055 -196.732748 
L 648.321055 -194.668836 
L 648.321055 -192.604923 
L 648.321055 -190.54101 
L 648.321055 -188.477098 
L 648.321055 -186.413185 
L 648.321055 -184.349273 
L 648.321055 -182.28536 
L 648.321055 -180.221448 
L 648.321055 -178.157535 
L 648.321055 -176.093623 
L 648.321055 -174.02971 
L 648.321055 -171.965798 
L 648.321055 -169.901885 
L 648.321055 -167.837973 
L 648.321055 -165.77406 
L 648.321055 -163.710147 
L 648.321055 -161.646235 
L 648.321055 -159.582322 
L 648.321055 -157.51841 
L 648.321055 -155.454497 
L 648.321055 -153.390585 
L 648.321055 -151.326672 
L 648.321055 -149.26276 
L 648.321055 -147.198847 
L 648.321055 -145.134935 
L 648.321055 -143.071022 
L 648.321055 -141.00711 
L 648.321055 -138.943197 
L 648.321055 -136.879284 
L 648.321055 -134.815372 
L 648.321055 -132.751459 
L 648.321055 -130.687547 
L 648.321055 -128.623634 
L 648.321055 -126.559722 
L 648.321055 -124.495809 
L 648.321055 -122.431897 
L 648.321055 -120.367984 
L 648.321055 -118.304072 
L 648.321055 -116.240159 
L 648.321055 -114.176246 
L 648.321055 -112.112334 
L 648.321055 -110.048421 
L 648.321055 -107.984509 
L 648.321055 -105.920596 
L 648.321055 -103.856684 
L 648.321055 -101.792771 
L 648.321055 -99.728859 
L 648.321055 -97.664946 
L 648.321055 -95.601034 
L 648.321055 -93.537121 
L 648.321055 -91.473209 
L 648.321055 -89.409296 
L 648.321055 -87.345383 
L 648.321055 -85.281471 
L 648.321055 -83.217558 
L 648.321055 -81.153646 
L 648.321055 -79.089733 
L 648.321055 -77.025821 
L 648.321055 -74.961908 
L 648.321055 -72.897996 
L 648.321055 -70.834083 
L 648.321055 -68.770171 
L 648.321055 -66.706258 
L 648.321055 -64.642346 
z
" style="stroke: #4c4c4c; stroke-width: 1.5"/>
    </defs>
    <g clip-path="url(#p153b393982)">
     <use xlink:href="#m0f5ca4977c" x="0" y="346.2575" style="fill: #5875a4; stroke: #4c4c4c; stroke-width: 1.5"/>
    </g>
   </g>
   <g id="PolyCollection_12">
    <defs>
     <path id="m06f6386e86" d="M 649.674578 -56.023523 
L 648.321055 -56.023523 
L 648.321055 -58.592908 
L 648.321055 -61.162293 
L 648.321055 -63.731678 
L 648.321055 -66.301063 
L 648.321055 -68.870448 
L 648.321055 -71.439834 
L 648.321055 -74.009219 
L 648.321055 -76.578604 
L 648.321055 -79.147989 
L 648.321055 -81.717374 
L 648.321055 -84.286759 
L 648.321055 -86.856144 
L 648.321055 -89.42553 
L 648.321055 -91.994915 
L 648.321055 -94.5643 
L 648.321055 -97.133685 
L 648.321055 -99.70307 
L 648.321055 -102.272455 
L 648.321055 -104.84184 
L 648.321055 -107.411226 
L 648.321055 -109.980611 
L 648.321055 -112.549996 
L 648.321055 -115.119381 
L 648.321055 -117.688766 
L 648.321055 -120.258151 
L 648.321055 -122.827536 
L 648.321055 -125.396922 
L 648.321055 -127.966307 
L 648.321055 -130.535692 
L 648.321055 -133.105077 
L 648.321055 -135.674462 
L 648.321055 -138.243847 
L 648.321055 -140.813232 
L 648.321055 -143.382618 
L 648.321055 -145.952003 
L 648.321055 -148.521388 
L 648.321055 -151.090773 
L 648.321055 -153.660158 
L 648.321055 -156.229543 
L 648.321055 -158.798928 
L 648.321055 -161.368314 
L 648.321055 -163.937699 
L 648.321055 -166.507084 
L 648.321055 -169.076469 
L 648.321055 -171.645854 
L 648.321055 -174.215239 
L 648.321055 -176.784624 
L 648.321055 -179.35401 
L 648.321055 -181.923395 
L 648.321055 -184.49278 
L 648.321055 -187.062165 
L 648.321055 -189.63155 
L 648.321055 -192.200935 
L 648.321055 -194.77032 
L 648.321055 -197.339706 
L 648.321055 -199.909091 
L 648.321055 -202.478476 
L 648.321055 -205.047861 
L 648.321055 -207.617246 
L 648.321055 -210.186631 
L 648.321055 -212.756016 
L 648.321055 -215.325402 
L 648.321055 -217.894787 
L 648.321055 -220.464172 
L 648.321055 -223.033557 
L 648.321055 -225.602942 
L 648.321055 -228.172327 
L 648.321055 -230.741712 
L 648.321055 -233.311098 
L 648.321055 -235.880483 
L 648.321055 -238.449868 
L 648.321055 -241.019253 
L 648.321055 -243.588638 
L 648.321055 -246.158023 
L 648.321055 -248.727408 
L 648.321055 -251.296794 
L 648.321055 -253.866179 
L 648.321055 -256.435564 
L 648.321055 -259.004949 
L 648.321055 -261.574334 
L 648.321055 -264.143719 
L 648.321055 -266.713104 
L 648.321055 -269.28249 
L 648.321055 -271.851875 
L 648.321055 -274.42126 
L 648.321055 -276.990645 
L 648.321055 -279.56003 
L 648.321055 -282.129415 
L 648.321055 -284.6988 
L 648.321055 -287.268186 
L 648.321055 -289.837571 
L 648.321055 -292.406956 
L 648.321055 -294.976341 
L 648.321055 -297.545726 
L 648.321055 -300.115111 
L 648.321055 -302.684496 
L 648.321055 -305.253882 
L 648.321055 -307.823267 
L 648.321055 -310.392652 
L 648.40793 -310.392652 
L 648.40793 -310.392652 
L 648.440676 -307.823267 
L 648.482708 -305.253882 
L 648.535531 -302.684496 
L 648.600544 -300.115111 
L 648.678938 -297.545726 
L 648.771599 -294.976341 
L 648.879025 -292.406956 
L 649.001281 -289.837571 
L 649.137988 -287.268186 
L 649.288351 -284.6988 
L 649.451227 -282.129415 
L 649.625208 -279.56003 
L 649.808707 -276.990645 
L 650.000027 -274.42126 
L 650.197389 -271.851875 
L 650.398921 -269.28249 
L 650.602605 -266.713104 
L 650.806207 -264.143719 
L 651.007208 -261.574334 
L 651.202774 -259.004949 
L 651.38979 -256.435564 
L 651.564981 -253.866179 
L 651.725104 -251.296794 
L 651.867209 -248.727408 
L 651.988923 -246.158023 
L 652.088713 -243.588638 
L 652.166083 -241.019253 
L 652.221668 -238.449868 
L 652.257214 -235.880483 
L 652.275434 -233.311098 
L 652.279787 -230.741712 
L 652.274194 -228.172327 
L 652.262764 -225.602942 
L 652.249543 -223.033557 
L 652.238338 -220.464172 
L 652.232604 -217.894787 
L 652.235388 -215.325402 
L 652.24931 -212.756016 
L 652.276541 -210.186631 
L 652.31876 -207.617246 
L 652.37706 -205.047861 
L 652.451814 -202.478476 
L 652.542525 -199.909091 
L 652.647681 -197.339706 
L 652.764666 -194.77032 
L 652.889773 -192.200935 
L 653.018336 -189.63155 
L 653.145012 -187.062165 
L 653.264194 -184.49278 
L 653.370524 -181.923395 
L 653.459484 -179.35401 
L 653.527976 -176.784624 
L 653.574861 -174.215239 
L 653.6014 -171.645854 
L 653.611547 -169.076469 
L 653.612084 -166.507084 
L 653.612591 -163.937699 
L 653.625248 -161.368314 
L 653.664513 -158.798928 
L 653.746677 -156.229543 
L 653.889343 -153.660158 
L 654.110848 -151.090773 
L 654.429628 -148.521388 
L 654.863534 -145.952003 
L 655.429081 -143.382618 
L 656.140587 -140.813232 
L 657.00918 -138.243847 
L 658.04163 -135.674462 
L 659.239019 -133.105077 
L 660.595276 -130.535692 
L 662.095688 -127.966307 
L 663.715565 -125.396922 
L 665.419297 -122.827536 
L 667.160074 -120.258151 
L 668.880568 -117.688766 
L 670.51477 -115.119381 
L 671.991106 -112.549996 
L 673.236724 -109.980611 
L 674.182694 -107.411226 
L 674.769637 -104.84184 
L 674.953147 -102.272455 
L 674.708343 -99.70307 
L 674.032896 -97.133685 
L 672.948067 -94.5643 
L 671.497517 -91.994915 
L 669.74399 -89.42553 
L 667.764216 -86.856144 
L 665.642665 -84.286759 
L 663.464898 -81.717374 
L 661.311291 -79.147989 
L 659.251797 -76.578604 
L 657.342225 -74.009219 
L 655.622262 -71.439834 
L 654.115219 -68.870448 
L 652.829262 -66.301063 
L 651.759738 -63.731678 
L 650.892157 -61.162293 
L 650.205369 -58.592908 
L 649.674578 -56.023523 
z
" style="stroke: #4c4c4c; stroke-width: 1.5"/>
    </defs>
    <g clip-path="url(#p153b393982)">
     <use xlink:href="#m06f6386e86" x="0" y="346.2575" style="fill: #cc8963; stroke: #4c4c4c; stroke-width: 1.5"/>
    </g>
   </g>
   <g id="line2d_21">
    <path d="M 437.584723 255.027621 
L 437.584723 185.197822 
" clip-path="url(#p153b393982)" style="fill: none; stroke: #4c4c4c; stroke-width: 1.5; stroke-linecap: round"/>
   </g>
   <g id="line2d_22">
    <path d="M 437.584723 251.393065 
L 437.584723 224.573709 
" clip-path="url(#p153b393982)" style="fill: none; stroke: #4c4c4c; stroke-width: 4.5; stroke-linecap: round"/>
   </g>
   <g id="line2d_23">
    <path d="M 542.952889 254.872778 
L 542.952889 183.281129 
" clip-path="url(#p153b393982)" style="fill: none; stroke: #4c4c4c; stroke-width: 1.5; stroke-linecap: round"/>
   </g>
   <g id="line2d_24">
    <path d="M 542.952889 250.187245 
L 542.952889 222.879677 
" clip-path="url(#p153b393982)" style="fill: none; stroke: #4c4c4c; stroke-width: 4.5; stroke-linecap: round"/>
   </g>
   <g id="line2d_25">
    <path d="M 648.321055 255.027621 
L 648.321055 182.20737 
" clip-path="url(#p153b393982)" style="fill: none; stroke: #4c4c4c; stroke-width: 1.5; stroke-linecap: round"/>
   </g>
   <g id="line2d_26">
    <path d="M 648.321055 248.181862 
L 648.321055 220.943325 
" clip-path="url(#p153b393982)" style="fill: none; stroke: #4c4c4c; stroke-width: 4.5; stroke-linecap: round"/>
   </g>
   <g id="patch_10">
    <path d="M 384.90064 302.991875 
L 384.90064 22.318125 
" style="fill: none; stroke: #262626; stroke-width: 1.25; stroke-linejoin: miter; stroke-linecap: square"/>
   </g>
   <g id="patch_11">
    <path d="M 384.90064 302.991875 
L 701.005138 302.991875 
" style="fill: none; stroke: #262626; stroke-width: 1.25; stroke-linejoin: miter; stroke-linecap: square"/>
   </g>
   <g id="PathCollection_4">
    <g clip-path="url(#p153b393982)">
     <use xlink:href="#m93dc86c672" x="437.584723" y="247.481022" style="fill: #ffffff; stroke: #4c4c4c"/>
    </g>
   </g>
   <g id="PathCollection_5">
    <g clip-path="url(#p153b393982)">
     <use xlink:href="#m93dc86c672" x="542.952889" y="245.064307" style="fill: #ffffff; stroke: #4c4c4c"/>
    </g>
   </g>
   <g id="PathCollection_6">
    <g clip-path="url(#p153b393982)">
     <use xlink:href="#m93dc86c672" x="648.321055" y="241.733518" style="fill: #ffffff; stroke: #4c4c4c"/>
    </g>
   </g>
   <g id="text_15">
    <!-- Dyn_obs = 10.0 -->
    <g style="fill: #262626" transform="translate(495.172264 16.318125)scale(0.12 -0.12)">
     <defs>
      <path id="DejaVuSans-31" d="M 794 531 
L 1825 531 
L 1825 4091 
L 703 3866 
L 703 4441 
L 1819 4666 
L 2450 4666 
L 2450 531 
L 3481 531 
L 3481 0 
L 794 0 
L 794 531 
z
" transform="scale(0.015625)"/>
     </defs>
     <use xlink:href="#DejaVuSans-44"/>
     <use xlink:href="#DejaVuSans-79" x="77.001953"/>
     <use xlink:href="#DejaVuSans-6e" x="136.181641"/>
     <use xlink:href="#DejaVuSans-5f" x="199.560547"/>
     <use xlink:href="#DejaVuSans-6f" x="249.560547"/>
     <use xlink:href="#DejaVuSans-62" x="310.742188"/>
     <use xlink:href="#DejaVuSans-73" x="374.21875"/>
     <use xlink:href="#DejaVuSans-20" x="426.318359"/>
     <use xlink:href="#DejaVuSans-3d" x="458.105469"/>
     <use xlink:href="#DejaVuSans-20" x="541.894531"/>
     <use xlink:href="#DejaVuSans-31" x="573.681641"/>
     <use xlink:href="#DejaVuSans-30" x="637.304688"/>
     <use xlink:href="#DejaVuSans-2e" x="700.927734"/>
     <use xlink:href="#DejaVuSans-30" x="732.714844"/>
    </g>
   </g>
  </g>
  <g id="legend_1">
   <g id="text_16">
    <!-- dim -->
    <g style="fill: #262626" transform="translate(720.429809 160.294062)scale(0.12 -0.12)">
     <defs>
      <path id="DejaVuSans-69" d="M 603 3500 
L 1178 3500 
L 1178 0 
L 603 0 
L 603 3500 
z
M 603 4863 
L 1178 4863 
L 1178 4134 
L 603 4134 
L 603 4863 
z
" transform="scale(0.015625)"/>
     </defs>
     <use xlink:href="#DejaVuSans-64"/>
     <use xlink:href="#DejaVuSans-69" x="63.476562"/>
     <use xlink:href="#DejaVuSans-6d" x="91.259766"/>
    </g>
   </g>
   <g id="patch_12">
    <path d="M 709.359106 176.647969 
L 731.359106 176.647969 
L 731.359106 168.947969 
L 709.359106 168.947969 
z
" style="fill: #5875a4; stroke: #4c4c4c; stroke-width: 0.75; stroke-linejoin: miter"/>
   </g>
   <g id="text_17">
    <!-- 2d -->
    <g style="fill: #262626" transform="translate(740.159106 176.647969)scale(0.11 -0.11)">
     <use xlink:href="#DejaVuSans-32"/>
     <use xlink:href="#DejaVuSans-64" x="63.623047"/>
    </g>
   </g>
   <g id="patch_13">
    <path d="M 709.359106 192.793906 
L 731.359106 192.793906 
L 731.359106 185.093906 
L 709.359106 185.093906 
z
" style="fill: #cc8963; stroke: #4c4c4c; stroke-width: 0.75; stroke-linejoin: miter"/>
   </g>
   <g id="text_18">
    <!-- 3d -->
    <g style="fill: #262626" transform="translate(740.159106 192.793906)scale(0.11 -0.11)">
     <defs>
      <path id="DejaVuSans-33" d="M 2597 2516 
Q 3050 2419 3304 2112 
Q 3559 1806 3559 1356 
Q 3559 666 3084 287 
Q 2609 -91 1734 -91 
Q 1441 -91 1130 -33 
Q 819 25 488 141 
L 488 750 
Q 750 597 1062 519 
Q 1375 441 1716 441 
Q 2309 441 2620 675 
Q 2931 909 2931 1356 
Q 2931 1769 2642 2001 
Q 2353 2234 1838 2234 
L 1294 2234 
L 1294 2753 
L 1863 2753 
Q 2328 2753 2575 2939 
Q 2822 3125 2822 3475 
Q 2822 3834 2567 4026 
Q 2313 4219 1838 4219 
Q 1578 4219 1281 4162 
Q 984 4106 628 3988 
L 628 4550 
Q 988 4650 1302 4700 
Q 1616 4750 1894 4750 
Q 2613 4750 3031 4423 
Q 3450 4097 3450 3541 
Q 3450 3153 3228 2886 
Q 3006 2619 2597 2516 
z
" transform="scale(0.015625)"/>
     </defs>
     <use xlink:href="#DejaVuSans-33"/>
     <use xlink:href="#DejaVuSans-64" x="63.623047"/>
    </g>
   </g>
  </g>
 </g>
 <defs>
  <clipPath id="p79c53fc22e">
   <rect x="49.807187" y="22.318125" width="316.104498" height="280.67375"/>
  </clipPath>
  <clipPath id="p153b393982">
   <rect x="384.90064" y="22.318125" width="316.104498" height="280.67375"/>
  </clipPath>
 </defs>
</svg>
