<?xml version="1.0" encoding="utf-8" standalone="no"?>
<!DOCTYPE svg PUBLIC "-//W3C//DTD SVG 1.1//EN"
  "http://www.w3.org/Graphics/SVG/1.1/DTD/svg11.dtd">
<svg xmlns:xlink="http://www.w3.org/1999/xlink" width="764.374887pt" height="346.2575pt" viewBox="0 0 764.374887 346.2575" xmlns="http://www.w3.org/2000/svg" version="1.1">
 <metadata>
  <rdf:RDF xmlns:dc="http://purl.org/dc/elements/1.1/" xmlns:cc="http://creativecommons.org/ns#" xmlns:rdf="http://www.w3.org/1999/02/22-rdf-syntax-ns#">
   <cc:Work>
    <dc:type rdf:resource="http://purl.org/dc/dcmitype/StillImage"/>
    <dc:date>2022-03-24T23:54:21.158396</dc:date>
    <dc:format>image/svg+xml</dc:format>
    <dc:creator>
     <cc:Agent>
      <dc:title>Matplotlib v3.5.1, https://matplotlib.org/</dc:title>
     </cc:Agent>
    </dc:creator>
   </cc:Work>
  </rdf:RDF>
 </metadata>
 <defs>
  <style type="text/css">*{stroke-linejoin: round; stroke-linecap: butt}</style>
 </defs>
 <g id="figure_1">
  <g id="patch_1">
   <path d="M 0 346.2575 
L 764.374888 346.2575 
L 764.374888 0 
L 0 0 
z
" style="fill: #ffffff"/>
  </g>
  <g id="axes_1">
   <g id="patch_2">
    <path d="M 50.140938 302.991875 
L 366.245435 302.991875 
L 366.245435 22.318125 
L 50.140938 22.318125 
z
" style="fill: #ffffff"/>
   </g>
   <g id="matplotlib.axis_1">
    <g id="xtick_1">
     <g id="line2d_1">
      <defs>
       <path id="m70d8f7e8c2" d="M 0 0 
L 0 6 
" style="stroke: #262626; stroke-width: 1.25"/>
      </defs>
      <g>
       <use xlink:href="#m70d8f7e8c2" x="102.82502" y="302.991875" style="fill: #262626; stroke: #262626; stroke-width: 1.25"/>
      </g>
     </g>
     <g id="text_1">
      <!-- map2 -->
      <g style="fill: #262626" transform="translate(87.106192 320.850156)scale(0.11 -0.11)">
       <defs>
        <path id="DejaVuSans-6d" d="M 3328 2828 
Q 3544 3216 3844 3400 
Q 4144 3584 4550 3584 
Q 5097 3584 5394 3201 
Q 5691 2819 5691 2113 
L 5691 0 
L 5113 0 
L 5113 2094 
Q 5113 2597 4934 2840 
Q 4756 3084 4391 3084 
Q 3944 3084 3684 2787 
Q 3425 2491 3425 1978 
L 3425 0 
L 2847 0 
L 2847 2094 
Q 2847 2600 2669 2842 
Q 2491 3084 2119 3084 
Q 1678 3084 1418 2786 
Q 1159 2488 1159 1978 
L 1159 0 
L 581 0 
L 581 3500 
L 1159 3500 
L 1159 2956 
Q 1356 3278 1631 3431 
Q 1906 3584 2284 3584 
Q 2666 3584 2933 3390 
Q 3200 3197 3328 2828 
z
" transform="scale(0.015625)"/>
        <path id="DejaVuSans-61" d="M 2194 1759 
Q 1497 1759 1228 1600 
Q 959 1441 959 1056 
Q 959 750 1161 570 
Q 1363 391 1709 391 
Q 2188 391 2477 730 
Q 2766 1069 2766 1631 
L 2766 1759 
L 2194 1759 
z
M 3341 1997 
L 3341 0 
L 2766 0 
L 2766 531 
Q 2569 213 2275 61 
Q 1981 -91 1556 -91 
Q 1019 -91 701 211 
Q 384 513 384 1019 
Q 384 1609 779 1909 
Q 1175 2209 1959 2209 
L 2766 2209 
L 2766 2266 
Q 2766 2663 2505 2880 
Q 2244 3097 1772 3097 
Q 1472 3097 1187 3025 
Q 903 2953 641 2809 
L 641 3341 
Q 956 3463 1253 3523 
Q 1550 3584 1831 3584 
Q 2591 3584 2966 3190 
Q 3341 2797 3341 1997 
z
" transform="scale(0.015625)"/>
        <path id="DejaVuSans-70" d="M 1159 525 
L 1159 -1331 
L 581 -1331 
L 581 3500 
L 1159 3500 
L 1159 2969 
Q 1341 3281 1617 3432 
Q 1894 3584 2278 3584 
Q 2916 3584 3314 3078 
Q 3713 2572 3713 1747 
Q 3713 922 3314 415 
Q 2916 -91 2278 -91 
Q 1894 -91 1617 61 
Q 1341 213 1159 525 
z
M 3116 1747 
Q 3116 2381 2855 2742 
Q 2594 3103 2138 3103 
Q 1681 3103 1420 2742 
Q 1159 2381 1159 1747 
Q 1159 1113 1420 752 
Q 1681 391 2138 391 
Q 2594 391 2855 752 
Q 3116 1113 3116 1747 
z
" transform="scale(0.015625)"/>
        <path id="DejaVuSans-32" d="M 1228 531 
L 3431 531 
L 3431 0 
L 469 0 
L 469 531 
Q 828 903 1448 1529 
Q 2069 2156 2228 2338 
Q 2531 2678 2651 2914 
Q 2772 3150 2772 3378 
Q 2772 3750 2511 3984 
Q 2250 4219 1831 4219 
Q 1534 4219 1204 4116 
Q 875 4013 500 3803 
L 500 4441 
Q 881 4594 1212 4672 
Q 1544 4750 1819 4750 
Q 2544 4750 2975 4387 
Q 3406 4025 3406 3419 
Q 3406 3131 3298 2873 
Q 3191 2616 2906 2266 
Q 2828 2175 2409 1742 
Q 1991 1309 1228 531 
z
" transform="scale(0.015625)"/>
       </defs>
       <use xlink:href="#DejaVuSans-6d"/>
       <use xlink:href="#DejaVuSans-61" x="97.412109"/>
       <use xlink:href="#DejaVuSans-70" x="158.691406"/>
       <use xlink:href="#DejaVuSans-32" x="222.167969"/>
      </g>
     </g>
    </g>
    <g id="xtick_2">
     <g id="line2d_2">
      <g>
       <use xlink:href="#m70d8f7e8c2" x="208.193186" y="302.991875" style="fill: #262626; stroke: #262626; stroke-width: 1.25"/>
      </g>
     </g>
     <g id="text_2">
      <!-- map5 -->
      <g style="fill: #262626" transform="translate(192.474358 320.850156)scale(0.11 -0.11)">
       <defs>
        <path id="DejaVuSans-35" d="M 691 4666 
L 3169 4666 
L 3169 4134 
L 1269 4134 
L 1269 2991 
Q 1406 3038 1543 3061 
Q 1681 3084 1819 3084 
Q 2600 3084 3056 2656 
Q 3513 2228 3513 1497 
Q 3513 744 3044 326 
Q 2575 -91 1722 -91 
Q 1428 -91 1123 -41 
Q 819 9 494 109 
L 494 744 
Q 775 591 1075 516 
Q 1375 441 1709 441 
Q 2250 441 2565 725 
Q 2881 1009 2881 1497 
Q 2881 1984 2565 2268 
Q 2250 2553 1709 2553 
Q 1456 2553 1204 2497 
Q 953 2441 691 2322 
L 691 4666 
z
" transform="scale(0.015625)"/>
       </defs>
       <use xlink:href="#DejaVuSans-6d"/>
       <use xlink:href="#DejaVuSans-61" x="97.412109"/>
       <use xlink:href="#DejaVuSans-70" x="158.691406"/>
       <use xlink:href="#DejaVuSans-35" x="222.167969"/>
      </g>
     </g>
    </g>
    <g id="xtick_3">
     <g id="line2d_3">
      <g>
       <use xlink:href="#m70d8f7e8c2" x="313.561352" y="302.991875" style="fill: #262626; stroke: #262626; stroke-width: 1.25"/>
      </g>
     </g>
     <g id="text_3">
      <!-- small_warehouse -->
      <g style="fill: #262626" transform="translate(266.186587 320.850156)scale(0.11 -0.11)">
       <defs>
        <path id="DejaVuSans-73" d="M 2834 3397 
L 2834 2853 
Q 2591 2978 2328 3040 
Q 2066 3103 1784 3103 
Q 1356 3103 1142 2972 
Q 928 2841 928 2578 
Q 928 2378 1081 2264 
Q 1234 2150 1697 2047 
L 1894 2003 
Q 2506 1872 2764 1633 
Q 3022 1394 3022 966 
Q 3022 478 2636 193 
Q 2250 -91 1575 -91 
Q 1294 -91 989 -36 
Q 684 19 347 128 
L 347 722 
Q 666 556 975 473 
Q 1284 391 1588 391 
Q 1994 391 2212 530 
Q 2431 669 2431 922 
Q 2431 1156 2273 1281 
Q 2116 1406 1581 1522 
L 1381 1569 
Q 847 1681 609 1914 
Q 372 2147 372 2553 
Q 372 3047 722 3315 
Q 1072 3584 1716 3584 
Q 2034 3584 2315 3537 
Q 2597 3491 2834 3397 
z
" transform="scale(0.015625)"/>
        <path id="DejaVuSans-6c" d="M 603 4863 
L 1178 4863 
L 1178 0 
L 603 0 
L 603 4863 
z
" transform="scale(0.015625)"/>
        <path id="DejaVuSans-5f" d="M 3263 -1063 
L 3263 -1509 
L -63 -1509 
L -63 -1063 
L 3263 -1063 
z
" transform="scale(0.015625)"/>
        <path id="DejaVuSans-77" d="M 269 3500 
L 844 3500 
L 1563 769 
L 2278 3500 
L 2956 3500 
L 3675 769 
L 4391 3500 
L 4966 3500 
L 4050 0 
L 3372 0 
L 2619 2869 
L 1863 0 
L 1184 0 
L 269 3500 
z
" transform="scale(0.015625)"/>
        <path id="DejaVuSans-72" d="M 2631 2963 
Q 2534 3019 2420 3045 
Q 2306 3072 2169 3072 
Q 1681 3072 1420 2755 
Q 1159 2438 1159 1844 
L 1159 0 
L 581 0 
L 581 3500 
L 1159 3500 
L 1159 2956 
Q 1341 3275 1631 3429 
Q 1922 3584 2338 3584 
Q 2397 3584 2469 3576 
Q 2541 3569 2628 3553 
L 2631 2963 
z
" transform="scale(0.015625)"/>
        <path id="DejaVuSans-65" d="M 3597 1894 
L 3597 1613 
L 953 1613 
Q 991 1019 1311 708 
Q 1631 397 2203 397 
Q 2534 397 2845 478 
Q 3156 559 3463 722 
L 3463 178 
Q 3153 47 2828 -22 
Q 2503 -91 2169 -91 
Q 1331 -91 842 396 
Q 353 884 353 1716 
Q 353 2575 817 3079 
Q 1281 3584 2069 3584 
Q 2775 3584 3186 3129 
Q 3597 2675 3597 1894 
z
M 3022 2063 
Q 3016 2534 2758 2815 
Q 2500 3097 2075 3097 
Q 1594 3097 1305 2825 
Q 1016 2553 972 2059 
L 3022 2063 
z
" transform="scale(0.015625)"/>
        <path id="DejaVuSans-68" d="M 3513 2113 
L 3513 0 
L 2938 0 
L 2938 2094 
Q 2938 2591 2744 2837 
Q 2550 3084 2163 3084 
Q 1697 3084 1428 2787 
Q 1159 2491 1159 1978 
L 1159 0 
L 581 0 
L 581 4863 
L 1159 4863 
L 1159 2956 
Q 1366 3272 1645 3428 
Q 1925 3584 2291 3584 
Q 2894 3584 3203 3211 
Q 3513 2838 3513 2113 
z
" transform="scale(0.015625)"/>
        <path id="DejaVuSans-6f" d="M 1959 3097 
Q 1497 3097 1228 2736 
Q 959 2375 959 1747 
Q 959 1119 1226 758 
Q 1494 397 1959 397 
Q 2419 397 2687 759 
Q 2956 1122 2956 1747 
Q 2956 2369 2687 2733 
Q 2419 3097 1959 3097 
z
M 1959 3584 
Q 2709 3584 3137 3096 
Q 3566 2609 3566 1747 
Q 3566 888 3137 398 
Q 2709 -91 1959 -91 
Q 1206 -91 779 398 
Q 353 888 353 1747 
Q 353 2609 779 3096 
Q 1206 3584 1959 3584 
z
" transform="scale(0.015625)"/>
        <path id="DejaVuSans-75" d="M 544 1381 
L 544 3500 
L 1119 3500 
L 1119 1403 
Q 1119 906 1312 657 
Q 1506 409 1894 409 
Q 2359 409 2629 706 
Q 2900 1003 2900 1516 
L 2900 3500 
L 3475 3500 
L 3475 0 
L 2900 0 
L 2900 538 
Q 2691 219 2414 64 
Q 2138 -91 1772 -91 
Q 1169 -91 856 284 
Q 544 659 544 1381 
z
M 1991 3584 
L 1991 3584 
z
" transform="scale(0.015625)"/>
       </defs>
       <use xlink:href="#DejaVuSans-73"/>
       <use xlink:href="#DejaVuSans-6d" x="52.099609"/>
       <use xlink:href="#DejaVuSans-61" x="149.511719"/>
       <use xlink:href="#DejaVuSans-6c" x="210.791016"/>
       <use xlink:href="#DejaVuSans-6c" x="238.574219"/>
       <use xlink:href="#DejaVuSans-5f" x="266.357422"/>
       <use xlink:href="#DejaVuSans-77" x="316.357422"/>
       <use xlink:href="#DejaVuSans-61" x="398.144531"/>
       <use xlink:href="#DejaVuSans-72" x="459.423828"/>
       <use xlink:href="#DejaVuSans-65" x="498.287109"/>
       <use xlink:href="#DejaVuSans-68" x="559.810547"/>
       <use xlink:href="#DejaVuSans-6f" x="623.189453"/>
       <use xlink:href="#DejaVuSans-75" x="684.371094"/>
       <use xlink:href="#DejaVuSans-73" x="747.75"/>
       <use xlink:href="#DejaVuSans-65" x="799.849609"/>
      </g>
     </g>
    </g>
    <g id="text_4">
     <!-- World -->
     <g style="fill: #262626" transform="translate(190.999436 336.561875)scale(0.12 -0.12)">
      <defs>
       <path id="DejaVuSans-57" d="M 213 4666 
L 850 4666 
L 1831 722 
L 2809 4666 
L 3519 4666 
L 4500 722 
L 5478 4666 
L 6119 4666 
L 4947 0 
L 4153 0 
L 3169 4050 
L 2175 0 
L 1381 0 
L 213 4666 
z
" transform="scale(0.015625)"/>
       <path id="DejaVuSans-64" d="M 2906 2969 
L 2906 4863 
L 3481 4863 
L 3481 0 
L 2906 0 
L 2906 525 
Q 2725 213 2448 61 
Q 2172 -91 1784 -91 
Q 1150 -91 751 415 
Q 353 922 353 1747 
Q 353 2572 751 3078 
Q 1150 3584 1784 3584 
Q 2172 3584 2448 3432 
Q 2725 3281 2906 2969 
z
M 947 1747 
Q 947 1113 1208 752 
Q 1469 391 1925 391 
Q 2381 391 2643 752 
Q 2906 1113 2906 1747 
Q 2906 2381 2643 2742 
Q 2381 3103 1925 3103 
Q 1469 3103 1208 2742 
Q 947 2381 947 1747 
z
" transform="scale(0.015625)"/>
      </defs>
      <use xlink:href="#DejaVuSans-57"/>
      <use xlink:href="#DejaVuSans-6f" x="93.001953"/>
      <use xlink:href="#DejaVuSans-72" x="154.183594"/>
      <use xlink:href="#DejaVuSans-6c" x="195.296875"/>
      <use xlink:href="#DejaVuSans-64" x="223.080078"/>
     </g>
    </g>
   </g>
   <g id="matplotlib.axis_2">
    <g id="ytick_1">
     <g id="line2d_4">
      <defs>
       <path id="mf7a552e372" d="M 0 0 
L -6 0 
" style="stroke: #262626; stroke-width: 1.25"/>
      </defs>
      <g>
       <use xlink:href="#mf7a552e372" x="50.140938" y="260.765866" style="fill: #262626; stroke: #262626; stroke-width: 1.25"/>
      </g>
     </g>
     <g id="text_5">
      <!-- 0.0 -->
      <g style="fill: #262626" transform="translate(23.1475 264.945006)scale(0.11 -0.11)">
       <defs>
        <path id="DejaVuSans-30" d="M 2034 4250 
Q 1547 4250 1301 3770 
Q 1056 3291 1056 2328 
Q 1056 1369 1301 889 
Q 1547 409 2034 409 
Q 2525 409 2770 889 
Q 3016 1369 3016 2328 
Q 3016 3291 2770 3770 
Q 2525 4250 2034 4250 
z
M 2034 4750 
Q 2819 4750 3233 4129 
Q 3647 3509 3647 2328 
Q 3647 1150 3233 529 
Q 2819 -91 2034 -91 
Q 1250 -91 836 529 
Q 422 1150 422 2328 
Q 422 3509 836 4129 
Q 1250 4750 2034 4750 
z
" transform="scale(0.015625)"/>
        <path id="DejaVuSans-2e" d="M 684 794 
L 1344 794 
L 1344 0 
L 684 0 
L 684 794 
z
" transform="scale(0.015625)"/>
       </defs>
       <use xlink:href="#DejaVuSans-30"/>
       <use xlink:href="#DejaVuSans-2e" x="63.623047"/>
       <use xlink:href="#DejaVuSans-30" x="95.410156"/>
      </g>
     </g>
    </g>
    <g id="ytick_2">
     <g id="line2d_5">
      <g>
       <use xlink:href="#mf7a552e372" x="50.140938" y="201.1831" style="fill: #262626; stroke: #262626; stroke-width: 1.25"/>
      </g>
     </g>
     <g id="text_6">
      <!-- 0.5 -->
      <g style="fill: #262626" transform="translate(23.1475 205.36224)scale(0.11 -0.11)">
       <use xlink:href="#DejaVuSans-30"/>
       <use xlink:href="#DejaVuSans-2e" x="63.623047"/>
       <use xlink:href="#DejaVuSans-35" x="95.410156"/>
      </g>
     </g>
    </g>
    <g id="ytick_3">
     <g id="line2d_6">
      <g>
       <use xlink:href="#mf7a552e372" x="50.140938" y="141.600334" style="fill: #262626; stroke: #262626; stroke-width: 1.25"/>
      </g>
     </g>
     <g id="text_7">
      <!-- 1.0 -->
      <g style="fill: #262626" transform="translate(23.1475 145.779474)scale(0.11 -0.11)">
       <defs>
        <path id="DejaVuSans-31" d="M 794 531 
L 1825 531 
L 1825 4091 
L 703 3866 
L 703 4441 
L 1819 4666 
L 2450 4666 
L 2450 531 
L 3481 531 
L 3481 0 
L 794 0 
L 794 531 
z
" transform="scale(0.015625)"/>
       </defs>
       <use xlink:href="#DejaVuSans-31"/>
       <use xlink:href="#DejaVuSans-2e" x="63.623047"/>
       <use xlink:href="#DejaVuSans-30" x="95.410156"/>
      </g>
     </g>
    </g>
    <g id="ytick_4">
     <g id="line2d_7">
      <g>
       <use xlink:href="#mf7a552e372" x="50.140938" y="82.017568" style="fill: #262626; stroke: #262626; stroke-width: 1.25"/>
      </g>
     </g>
     <g id="text_8">
      <!-- 1.5 -->
      <g style="fill: #262626" transform="translate(23.1475 86.196708)scale(0.11 -0.11)">
       <use xlink:href="#DejaVuSans-31"/>
       <use xlink:href="#DejaVuSans-2e" x="63.623047"/>
       <use xlink:href="#DejaVuSans-35" x="95.410156"/>
      </g>
     </g>
    </g>
    <g id="ytick_5">
     <g id="line2d_8">
      <g>
       <use xlink:href="#mf7a552e372" x="50.140938" y="22.434802" style="fill: #262626; stroke: #262626; stroke-width: 1.25"/>
      </g>
     </g>
     <g id="text_9">
      <!-- 2.0 -->
      <g style="fill: #262626" transform="translate(23.1475 26.613942)scale(0.11 -0.11)">
       <use xlink:href="#DejaVuSans-32"/>
       <use xlink:href="#DejaVuSans-2e" x="63.623047"/>
       <use xlink:href="#DejaVuSans-30" x="95.410156"/>
      </g>
     </g>
    </g>
    <g id="text_10">
     <!-- normalized_curvature -->
     <g style="fill: #262626" transform="translate(16.318125 227.969687)rotate(-90)scale(0.12 -0.12)">
      <defs>
       <path id="DejaVuSans-6e" d="M 3513 2113 
L 3513 0 
L 2938 0 
L 2938 2094 
Q 2938 2591 2744 2837 
Q 2550 3084 2163 3084 
Q 1697 3084 1428 2787 
Q 1159 2491 1159 1978 
L 1159 0 
L 581 0 
L 581 3500 
L 1159 3500 
L 1159 2956 
Q 1366 3272 1645 3428 
Q 1925 3584 2291 3584 
Q 2894 3584 3203 3211 
Q 3513 2838 3513 2113 
z
" transform="scale(0.015625)"/>
       <path id="DejaVuSans-69" d="M 603 3500 
L 1178 3500 
L 1178 0 
L 603 0 
L 603 3500 
z
M 603 4863 
L 1178 4863 
L 1178 4134 
L 603 4134 
L 603 4863 
z
" transform="scale(0.015625)"/>
       <path id="DejaVuSans-7a" d="M 353 3500 
L 3084 3500 
L 3084 2975 
L 922 459 
L 3084 459 
L 3084 0 
L 275 0 
L 275 525 
L 2438 3041 
L 353 3041 
L 353 3500 
z
" transform="scale(0.015625)"/>
       <path id="DejaVuSans-63" d="M 3122 3366 
L 3122 2828 
Q 2878 2963 2633 3030 
Q 2388 3097 2138 3097 
Q 1578 3097 1268 2742 
Q 959 2388 959 1747 
Q 959 1106 1268 751 
Q 1578 397 2138 397 
Q 2388 397 2633 464 
Q 2878 531 3122 666 
L 3122 134 
Q 2881 22 2623 -34 
Q 2366 -91 2075 -91 
Q 1284 -91 818 406 
Q 353 903 353 1747 
Q 353 2603 823 3093 
Q 1294 3584 2113 3584 
Q 2378 3584 2631 3529 
Q 2884 3475 3122 3366 
z
" transform="scale(0.015625)"/>
       <path id="DejaVuSans-76" d="M 191 3500 
L 800 3500 
L 1894 563 
L 2988 3500 
L 3597 3500 
L 2284 0 
L 1503 0 
L 191 3500 
z
" transform="scale(0.015625)"/>
       <path id="DejaVuSans-74" d="M 1172 4494 
L 1172 3500 
L 2356 3500 
L 2356 3053 
L 1172 3053 
L 1172 1153 
Q 1172 725 1289 603 
Q 1406 481 1766 481 
L 2356 481 
L 2356 0 
L 1766 0 
Q 1100 0 847 248 
Q 594 497 594 1153 
L 594 3053 
L 172 3053 
L 172 3500 
L 594 3500 
L 594 4494 
L 1172 4494 
z
" transform="scale(0.015625)"/>
      </defs>
      <use xlink:href="#DejaVuSans-6e"/>
      <use xlink:href="#DejaVuSans-6f" x="63.378906"/>
      <use xlink:href="#DejaVuSans-72" x="124.560547"/>
      <use xlink:href="#DejaVuSans-6d" x="163.923828"/>
      <use xlink:href="#DejaVuSans-61" x="261.335938"/>
      <use xlink:href="#DejaVuSans-6c" x="322.615234"/>
      <use xlink:href="#DejaVuSans-69" x="350.398438"/>
      <use xlink:href="#DejaVuSans-7a" x="378.181641"/>
      <use xlink:href="#DejaVuSans-65" x="430.671875"/>
      <use xlink:href="#DejaVuSans-64" x="492.195312"/>
      <use xlink:href="#DejaVuSans-5f" x="555.671875"/>
      <use xlink:href="#DejaVuSans-63" x="605.671875"/>
      <use xlink:href="#DejaVuSans-75" x="660.652344"/>
      <use xlink:href="#DejaVuSans-72" x="724.03125"/>
      <use xlink:href="#DejaVuSans-76" x="765.144531"/>
      <use xlink:href="#DejaVuSans-61" x="824.324219"/>
      <use xlink:href="#DejaVuSans-74" x="885.603516"/>
      <use xlink:href="#DejaVuSans-75" x="924.8125"/>
      <use xlink:href="#DejaVuSans-72" x="988.191406"/>
      <use xlink:href="#DejaVuSans-65" x="1027.054688"/>
     </g>
    </g>
   </g>
   <g id="patch_3">
    <path d="M 102.82502 260.765866 
L 102.82502 260.765866 
L 102.82502 260.765866 
L 102.82502 260.765866 
z
" clip-path="url(#p38ab16c67b)" style="fill: #5875a4; stroke: #4c4c4c; stroke-width: 0.75; stroke-linejoin: miter"/>
   </g>
   <g id="PolyCollection_1">
    <defs>
     <path id="m4e55d02b65" d="M 102.82502 -81.51082 
L 100.96371 -81.51082 
L 100.159092 -82.3268 
L 99.094157 -83.142779 
L 97.722618 -83.958758 
L 96.00439 -84.774737 
L 93.91157 -85.590717 
L 91.434758 -86.406696 
L 88.588896 -87.222675 
L 85.417651 -88.038655 
L 81.995396 -88.854634 
L 78.426035 -89.670613 
L 74.838299 -90.486592 
L 71.37766 -91.302572 
L 68.195543 -92.118551 
L 65.437007 -92.93453 
L 63.228382 -93.75051 
L 61.666426 -94.566489 
L 60.810361 -95.382468 
L 60.677754 -96.198447 
L 61.24462 -97.014427 
L 62.449528 -97.830406 
L 64.200972 -98.646385 
L 66.38687 -99.462365 
L 68.884928 -100.278344 
L 71.572627 -101.094323 
L 74.335817 -101.910302 
L 77.075254 -102.726282 
L 79.710746 -103.542261 
L 82.182936 -104.35824 
L 84.453014 -105.17422 
L 86.500814 -105.990199 
L 88.321831 -106.806178 
L 89.923687 -107.622157 
L 91.322512 -108.438137 
L 92.539607 -109.254116 
L 93.59861 -110.070095 
L 94.523317 -110.886075 
L 95.336156 -111.702054 
L 96.057263 -112.518033 
L 96.704041 -113.334012 
L 97.291055 -114.149992 
L 97.830128 -114.965971 
L 98.330528 -115.78195 
L 98.79916 -116.59793 
L 99.240761 -117.413909 
L 99.658068 -118.229888 
L 100.052031 -119.045867 
L 100.422059 -119.861847 
L 100.766348 -120.677826 
L 101.082263 -121.493805 
L 101.366756 -122.309785 
L 101.616765 -123.125764 
L 101.82956 -123.941743 
L 102.002989 -124.757722 
L 102.135604 -125.573702 
L 102.226696 -126.389681 
L 102.276232 -127.20566 
L 102.284758 -128.02164 
L 102.253289 -128.837619 
L 102.183226 -129.653598 
L 102.0763 -130.469578 
L 101.934564 -131.285557 
L 101.760413 -132.101536 
L 101.556624 -132.917515 
L 101.326417 -133.733495 
L 101.073514 -134.549474 
L 100.802216 -135.365453 
L 100.517479 -136.181433 
L 100.224987 -136.997412 
L 99.931208 -137.813391 
L 99.643393 -138.62937 
L 99.369492 -139.44535 
L 99.11795 -140.261329 
L 98.897382 -141.077308 
L 98.71611 -141.893288 
L 98.581622 -142.709267 
L 98.500004 -143.525246 
L 98.475421 -144.341225 
L 98.509722 -145.157205 
L 98.602236 -145.973184 
L 98.749782 -146.789163 
L 98.946889 -147.605143 
L 99.1862 -148.421122 
L 99.458993 -149.237101 
L 99.755764 -150.05308 
L 100.066795 -150.86906 
L 100.382674 -151.685039 
L 100.694729 -152.501018 
L 100.995361 -153.316998 
L 101.27827 -154.132977 
L 101.538599 -154.948956 
L 101.772973 -155.764935 
L 101.979474 -156.580915 
L 102.157531 -157.396894 
L 102.307763 -158.212873 
L 102.431761 -159.028853 
L 102.531847 -159.844832 
L 102.610823 -160.660811 
L 102.671722 -161.47679 
L 102.717598 -162.29277 
L 102.82502 -162.29277 
L 102.82502 -162.29277 
L 102.82502 -161.47679 
L 102.82502 -160.660811 
L 102.82502 -159.844832 
L 102.82502 -159.028853 
L 102.82502 -158.212873 
L 102.82502 -157.396894 
L 102.82502 -156.580915 
L 102.82502 -155.764935 
L 102.82502 -154.948956 
L 102.82502 -154.132977 
L 102.82502 -153.316998 
L 102.82502 -152.501018 
L 102.82502 -151.685039 
L 102.82502 -150.86906 
L 102.82502 -150.05308 
L 102.82502 -149.237101 
L 102.82502 -148.421122 
L 102.82502 -147.605143 
L 102.82502 -146.789163 
L 102.82502 -145.973184 
L 102.82502 -145.157205 
L 102.82502 -144.341225 
L 102.82502 -143.525246 
L 102.82502 -142.709267 
L 102.82502 -141.893288 
L 102.82502 -141.077308 
L 102.82502 -140.261329 
L 102.82502 -139.44535 
L 102.82502 -138.62937 
L 102.82502 -137.813391 
L 102.82502 -136.997412 
L 102.82502 -136.181433 
L 102.82502 -135.365453 
L 102.82502 -134.549474 
L 102.82502 -133.733495 
L 102.82502 -132.917515 
L 102.82502 -132.101536 
L 102.82502 -131.285557 
L 102.82502 -130.469578 
L 102.82502 -129.653598 
L 102.82502 -128.837619 
L 102.82502 -128.02164 
L 102.82502 -127.20566 
L 102.82502 -126.389681 
L 102.82502 -125.573702 
L 102.82502 -124.757722 
L 102.82502 -123.941743 
L 102.82502 -123.125764 
L 102.82502 -122.309785 
L 102.82502 -121.493805 
L 102.82502 -120.677826 
L 102.82502 -119.861847 
L 102.82502 -119.045867 
L 102.82502 -118.229888 
L 102.82502 -117.413909 
L 102.82502 -116.59793 
L 102.82502 -115.78195 
L 102.82502 -114.965971 
L 102.82502 -114.149992 
L 102.82502 -113.334012 
L 102.82502 -112.518033 
L 102.82502 -111.702054 
L 102.82502 -110.886075 
L 102.82502 -110.070095 
L 102.82502 -109.254116 
L 102.82502 -108.438137 
L 102.82502 -107.622157 
L 102.82502 -106.806178 
L 102.82502 -105.990199 
L 102.82502 -105.17422 
L 102.82502 -104.35824 
L 102.82502 -103.542261 
L 102.82502 -102.726282 
L 102.82502 -101.910302 
L 102.82502 -101.094323 
L 102.82502 -100.278344 
L 102.82502 -99.462365 
L 102.82502 -98.646385 
L 102.82502 -97.830406 
L 102.82502 -97.014427 
L 102.82502 -96.198447 
L 102.82502 -95.382468 
L 102.82502 -94.566489 
L 102.82502 -93.75051 
L 102.82502 -92.93453 
L 102.82502 -92.118551 
L 102.82502 -91.302572 
L 102.82502 -90.486592 
L 102.82502 -89.670613 
L 102.82502 -88.854634 
L 102.82502 -88.038655 
L 102.82502 -87.222675 
L 102.82502 -86.406696 
L 102.82502 -85.590717 
L 102.82502 -84.774737 
L 102.82502 -83.958758 
L 102.82502 -83.142779 
L 102.82502 -82.3268 
L 102.82502 -81.51082 
z
" style="stroke: #4c4c4c; stroke-width: 1.5"/>
    </defs>
    <g clip-path="url(#p38ab16c67b)">
     <use xlink:href="#m4e55d02b65" x="0" y="346.2575" style="fill: #5875a4; stroke: #4c4c4c; stroke-width: 1.5"/>
    </g>
   </g>
   <g id="patch_4">
    <path d="M 102.82502 260.765866 
L 102.82502 260.765866 
L 102.82502 260.765866 
L 102.82502 260.765866 
z
" clip-path="url(#p38ab16c67b)" style="fill: #cc8963; stroke: #4c4c4c; stroke-width: 0.75; stroke-linejoin: miter"/>
   </g>
   <g id="PolyCollection_2">
    <defs>
     <path id="m2ae6363359" d="M 103.183165 -70.502364 
L 102.82502 -70.502364 
L 102.82502 -72.007991 
L 102.82502 -73.513618 
L 102.82502 -75.019246 
L 102.82502 -76.524873 
L 102.82502 -78.030501 
L 102.82502 -79.536128 
L 102.82502 -81.041756 
L 102.82502 -82.547383 
L 102.82502 -84.05301 
L 102.82502 -85.558638 
L 102.82502 -87.064265 
L 102.82502 -88.569893 
L 102.82502 -90.07552 
L 102.82502 -91.581147 
L 102.82502 -93.086775 
L 102.82502 -94.592402 
L 102.82502 -96.09803 
L 102.82502 -97.603657 
L 102.82502 -99.109285 
L 102.82502 -100.614912 
L 102.82502 -102.120539 
L 102.82502 -103.626167 
L 102.82502 -105.131794 
L 102.82502 -106.637422 
L 102.82502 -108.143049 
L 102.82502 -109.648676 
L 102.82502 -111.154304 
L 102.82502 -112.659931 
L 102.82502 -114.165559 
L 102.82502 -115.671186 
L 102.82502 -117.176814 
L 102.82502 -118.682441 
L 102.82502 -120.188068 
L 102.82502 -121.693696 
L 102.82502 -123.199323 
L 102.82502 -124.704951 
L 102.82502 -126.210578 
L 102.82502 -127.716205 
L 102.82502 -129.221833 
L 102.82502 -130.72746 
L 102.82502 -132.233088 
L 102.82502 -133.738715 
L 102.82502 -135.244342 
L 102.82502 -136.74997 
L 102.82502 -138.255597 
L 102.82502 -139.761225 
L 102.82502 -141.266852 
L 102.82502 -142.77248 
L 102.82502 -144.278107 
L 102.82502 -145.783734 
L 102.82502 -147.289362 
L 102.82502 -148.794989 
L 102.82502 -150.300617 
L 102.82502 -151.806244 
L 102.82502 -153.311871 
L 102.82502 -154.817499 
L 102.82502 -156.323126 
L 102.82502 -157.828754 
L 102.82502 -159.334381 
L 102.82502 -160.840009 
L 102.82502 -162.345636 
L 102.82502 -163.851263 
L 102.82502 -165.356891 
L 102.82502 -166.862518 
L 102.82502 -168.368146 
L 102.82502 -169.873773 
L 102.82502 -171.3794 
L 102.82502 -172.885028 
L 102.82502 -174.390655 
L 102.82502 -175.896283 
L 102.82502 -177.40191 
L 102.82502 -178.907538 
L 102.82502 -180.413165 
L 102.82502 -181.918792 
L 102.82502 -183.42442 
L 102.82502 -184.930047 
L 102.82502 -186.435675 
L 102.82502 -187.941302 
L 102.82502 -189.446929 
L 102.82502 -190.952557 
L 102.82502 -192.458184 
L 102.82502 -193.963812 
L 102.82502 -195.469439 
L 102.82502 -196.975067 
L 102.82502 -198.480694 
L 102.82502 -199.986321 
L 102.82502 -201.491949 
L 102.82502 -202.997576 
L 102.82502 -204.503204 
L 102.82502 -206.008831 
L 102.82502 -207.514458 
L 102.82502 -209.020086 
L 102.82502 -210.525713 
L 102.82502 -212.031341 
L 102.82502 -213.536968 
L 102.82502 -215.042595 
L 102.82502 -216.548223 
L 102.82502 -218.05385 
L 102.82502 -219.559478 
L 102.869582 -219.559478 
L 102.869582 -219.559478 
L 102.891805 -218.05385 
L 102.921258 -216.548223 
L 102.958366 -215.042595 
L 103.00268 -213.536968 
L 103.052629 -212.031341 
L 103.105428 -210.525713 
L 103.157225 -209.020086 
L 103.203513 -207.514458 
L 103.239764 -206.008831 
L 103.262173 -204.503204 
L 103.268353 -202.997576 
L 103.257821 -201.491949 
L 103.23214 -199.986321 
L 103.194701 -198.480694 
L 103.150185 -196.975067 
L 103.10383 -195.469439 
L 103.060681 -193.963812 
L 103.024931 -192.458184 
L 102.999478 -190.952557 
L 102.985706 -189.446929 
L 102.983511 -187.941302 
L 102.991504 -186.435675 
L 103.007382 -184.930047 
L 103.028415 -183.42442 
L 103.052007 -181.918792 
L 103.076276 -180.413165 
L 103.100565 -178.907538 
L 103.125813 -177.40191 
L 103.154685 -175.896283 
L 103.191438 -174.390655 
L 103.241524 -172.885028 
L 103.310991 -171.3794 
L 103.40578 -169.873773 
L 103.531002 -168.368146 
L 103.690282 -166.862518 
L 103.885217 -165.356891 
L 104.114957 -163.851263 
L 104.375943 -162.345636 
L 104.661813 -160.840009 
L 104.963505 -159.334381 
L 105.269614 -157.828754 
L 105.567021 -156.323126 
L 105.841814 -154.817499 
L 106.080485 -153.311871 
L 106.271308 -151.806244 
L 106.405796 -150.300617 
L 106.480022 -148.794989 
L 106.495592 -147.289362 
L 106.460015 -145.783734 
L 106.386289 -144.278107 
L 106.29163 -142.77248 
L 106.195441 -141.266852 
L 106.11681 -139.761225 
L 106.071961 -138.255597 
L 106.072127 -136.74997 
L 106.122263 -135.244342 
L 106.22084 -133.738715 
L 106.36074 -132.233088 
L 106.53106 -130.72746 
L 106.719476 -129.221833 
L 106.914807 -127.716205 
L 107.109458 -126.210578 
L 107.301565 -124.704951 
L 107.49678 -123.199323 
L 107.709685 -121.693696 
L 107.964729 -120.188068 
L 108.296436 -118.682441 
L 108.748448 -117.176814 
L 109.370876 -115.671186 
L 110.215534 -114.165559 
L 111.32897 -112.659931 
L 112.743708 -111.154304 
L 114.468741 -109.648676 
L 116.480849 -108.143049 
L 118.7186 -106.637422 
L 121.080867 -105.131794 
L 123.431192 -103.626167 
L 125.608447 -102.120539 
L 127.443068 -100.614912 
L 128.776888 -99.109285 
L 129.483561 -97.603657 
L 129.486061 -96.09803 
L 128.767951 -94.592402 
L 127.376146 -93.086775 
L 125.414496 -91.581147 
L 123.029384 -90.07552 
L 120.390118 -88.569893 
L 117.667826 -87.064265 
L 115.016549 -85.558638 
L 112.55938 -84.05301 
L 110.381114 -82.547383 
L 108.527376 -81.041756 
L 107.008965 -79.536128 
L 105.809519 -78.030501 
L 104.89446 -76.524873 
L 104.219556 -75.019246 
L 103.737989 -73.513618 
L 103.40544 -72.007991 
L 103.183165 -70.502364 
z
" style="stroke: #4c4c4c; stroke-width: 1.5"/>
    </defs>
    <g clip-path="url(#p38ab16c67b)">
     <use xlink:href="#m2ae6363359" x="0" y="346.2575" style="fill: #cc8963; stroke: #4c4c4c; stroke-width: 1.5"/>
    </g>
   </g>
   <g id="PolyCollection_3">
    <defs>
     <path id="m7a1c7775a2" d="M 208.193186 -79.737087 
L 205.518032 -79.737087 
L 204.453927 -80.527054 
L 203.084081 -81.317021 
L 201.368412 -82.106988 
L 199.278915 -82.896956 
L 196.805998 -83.686923 
L 193.964343 -84.47689 
L 190.797327 -85.266857 
L 187.379034 -86.056824 
L 183.813103 -86.846792 
L 180.228019 -87.636759 
L 176.769013 -88.426726 
L 173.587254 -89.216693 
L 170.827542 -90.006661 
L 168.615985 -90.796628 
L 167.049229 -91.586595 
L 166.186581 -92.376562 
L 166.04592 -93.16653 
L 166.603725 -93.956497 
L 167.798955 -94.746464 
L 169.540015 -95.536431 
L 171.713741 -96.326399 
L 174.195218 -97.116366 
L 176.857339 -97.906333 
L 179.579249 -98.6963 
L 182.2531 -99.486268 
L 184.788842 -100.276235 
L 187.117045 -101.066202 
L 189.189874 -101.856169 
L 190.980514 -102.646136 
L 192.481324 -103.436104 
L 193.701069 -104.226071 
L 194.661533 -105.016038 
L 195.39384 -105.806005 
L 195.934743 -106.595973 
L 196.323164 -107.38594 
L 196.597189 -108.175907 
L 196.791677 -108.965874 
L 196.936596 -109.755842 
L 197.056101 -110.545809 
L 197.168304 -111.335776 
L 197.285657 -112.125743 
L 197.415764 -112.915711 
L 197.562473 -113.705678 
L 197.727067 -114.495645 
L 197.909376 -115.285612 
L 198.108704 -116.07558 
L 198.324477 -116.865547 
L 198.556569 -117.655514 
L 198.805338 -118.445481 
L 199.071405 -119.235448 
L 199.355282 -120.025416 
L 199.656942 -120.815383 
L 199.975442 -121.60535 
L 200.308684 -122.395317 
L 200.653382 -123.185285 
L 201.005233 -123.975252 
L 201.359293 -124.765219 
L 201.710459 -125.555186 
L 202.05399 -126.345154 
L 202.385953 -127.135121 
L 202.703513 -127.925088 
L 203.005014 -128.715055 
L 203.289848 -129.505023 
L 203.558141 -130.29499 
L 203.810338 -131.084957 
L 204.046783 -131.874924 
L 204.26738 -132.664892 
L 204.471412 -133.454859 
L 204.657548 -134.244826 
L 204.824044 -135.034793 
L 204.969083 -135.82476 
L 205.091197 -136.614728 
L 205.189704 -137.404695 
L 205.265068 -138.194662 
L 205.319149 -138.984629 
L 205.35529 -139.774597 
L 205.378247 -140.564564 
L 205.393938 -141.354531 
L 205.409065 -142.144498 
L 205.430622 -142.934466 
L 205.465329 -143.724433 
L 205.519068 -144.5144 
L 205.596352 -145.304367 
L 205.699903 -146.094335 
L 205.830382 -146.884302 
L 205.986312 -147.674269 
L 206.164217 -148.464236 
L 206.358955 -149.254204 
L 206.564216 -150.044171 
L 206.773113 -150.834138 
L 206.978811 -151.624105 
L 207.175095 -152.414072 
L 207.356823 -153.20404 
L 207.520225 -153.994007 
L 207.663024 -154.783974 
L 207.784387 -155.573941 
L 207.884745 -156.363909 
L 207.965525 -157.153876 
L 208.028838 -157.943843 
L 208.193186 -157.943843 
L 208.193186 -157.943843 
L 208.193186 -157.153876 
L 208.193186 -156.363909 
L 208.193186 -155.573941 
L 208.193186 -154.783974 
L 208.193186 -153.994007 
L 208.193186 -153.20404 
L 208.193186 -152.414072 
L 208.193186 -151.624105 
L 208.193186 -150.834138 
L 208.193186 -150.044171 
L 208.193186 -149.254204 
L 208.193186 -148.464236 
L 208.193186 -147.674269 
L 208.193186 -146.884302 
L 208.193186 -146.094335 
L 208.193186 -145.304367 
L 208.193186 -144.5144 
L 208.193186 -143.724433 
L 208.193186 -142.934466 
L 208.193186 -142.144498 
L 208.193186 -141.354531 
L 208.193186 -140.564564 
L 208.193186 -139.774597 
L 208.193186 -138.984629 
L 208.193186 -138.194662 
L 208.193186 -137.404695 
L 208.193186 -136.614728 
L 208.193186 -135.82476 
L 208.193186 -135.034793 
L 208.193186 -134.244826 
L 208.193186 -133.454859 
L 208.193186 -132.664892 
L 208.193186 -131.874924 
L 208.193186 -131.084957 
L 208.193186 -130.29499 
L 208.193186 -129.505023 
L 208.193186 -128.715055 
L 208.193186 -127.925088 
L 208.193186 -127.135121 
L 208.193186 -126.345154 
L 208.193186 -125.555186 
L 208.193186 -124.765219 
L 208.193186 -123.975252 
L 208.193186 -123.185285 
L 208.193186 -122.395317 
L 208.193186 -121.60535 
L 208.193186 -120.815383 
L 208.193186 -120.025416 
L 208.193186 -119.235448 
L 208.193186 -118.445481 
L 208.193186 -117.655514 
L 208.193186 -116.865547 
L 208.193186 -116.07558 
L 208.193186 -115.285612 
L 208.193186 -114.495645 
L 208.193186 -113.705678 
L 208.193186 -112.915711 
L 208.193186 -112.125743 
L 208.193186 -111.335776 
L 208.193186 -110.545809 
L 208.193186 -109.755842 
L 208.193186 -108.965874 
L 208.193186 -108.175907 
L 208.193186 -107.38594 
L 208.193186 -106.595973 
L 208.193186 -105.806005 
L 208.193186 -105.016038 
L 208.193186 -104.226071 
L 208.193186 -103.436104 
L 208.193186 -102.646136 
L 208.193186 -101.856169 
L 208.193186 -101.066202 
L 208.193186 -100.276235 
L 208.193186 -99.486268 
L 208.193186 -98.6963 
L 208.193186 -97.906333 
L 208.193186 -97.116366 
L 208.193186 -96.326399 
L 208.193186 -95.536431 
L 208.193186 -94.746464 
L 208.193186 -93.956497 
L 208.193186 -93.16653 
L 208.193186 -92.376562 
L 208.193186 -91.586595 
L 208.193186 -90.796628 
L 208.193186 -90.006661 
L 208.193186 -89.216693 
L 208.193186 -88.426726 
L 208.193186 -87.636759 
L 208.193186 -86.846792 
L 208.193186 -86.056824 
L 208.193186 -85.266857 
L 208.193186 -84.47689 
L 208.193186 -83.686923 
L 208.193186 -82.896956 
L 208.193186 -82.106988 
L 208.193186 -81.317021 
L 208.193186 -80.527054 
L 208.193186 -79.737087 
z
" style="stroke: #4c4c4c; stroke-width: 1.5"/>
    </defs>
    <g clip-path="url(#p38ab16c67b)">
     <use xlink:href="#m7a1c7775a2" x="0" y="346.2575" style="fill: #5875a4; stroke: #4c4c4c; stroke-width: 1.5"/>
    </g>
   </g>
   <g id="PolyCollection_4">
    <defs>
     <path id="mb78f434af5" d="M 208.588225 -56.023523 
L 208.193186 -56.023523 
L 208.193186 -58.600876 
L 208.193186 -61.178229 
L 208.193186 -63.755582 
L 208.193186 -66.332935 
L 208.193186 -68.910288 
L 208.193186 -71.487641 
L 208.193186 -74.064994 
L 208.193186 -76.642347 
L 208.193186 -79.2197 
L 208.193186 -81.797053 
L 208.193186 -84.374407 
L 208.193186 -86.95176 
L 208.193186 -89.529113 
L 208.193186 -92.106466 
L 208.193186 -94.683819 
L 208.193186 -97.261172 
L 208.193186 -99.838525 
L 208.193186 -102.415878 
L 208.193186 -104.993231 
L 208.193186 -107.570584 
L 208.193186 -110.147937 
L 208.193186 -112.72529 
L 208.193186 -115.302643 
L 208.193186 -117.879997 
L 208.193186 -120.45735 
L 208.193186 -123.034703 
L 208.193186 -125.612056 
L 208.193186 -128.189409 
L 208.193186 -130.766762 
L 208.193186 -133.344115 
L 208.193186 -135.921468 
L 208.193186 -138.498821 
L 208.193186 -141.076174 
L 208.193186 -143.653527 
L 208.193186 -146.23088 
L 208.193186 -148.808233 
L 208.193186 -151.385587 
L 208.193186 -153.96294 
L 208.193186 -156.540293 
L 208.193186 -159.117646 
L 208.193186 -161.694999 
L 208.193186 -164.272352 
L 208.193186 -166.849705 
L 208.193186 -169.427058 
L 208.193186 -172.004411 
L 208.193186 -174.581764 
L 208.193186 -177.159117 
L 208.193186 -179.73647 
L 208.193186 -182.313823 
L 208.193186 -184.891177 
L 208.193186 -187.46853 
L 208.193186 -190.045883 
L 208.193186 -192.623236 
L 208.193186 -195.200589 
L 208.193186 -197.777942 
L 208.193186 -200.355295 
L 208.193186 -202.932648 
L 208.193186 -205.510001 
L 208.193186 -208.087354 
L 208.193186 -210.664707 
L 208.193186 -213.24206 
L 208.193186 -215.819413 
L 208.193186 -218.396767 
L 208.193186 -220.97412 
L 208.193186 -223.551473 
L 208.193186 -226.128826 
L 208.193186 -228.706179 
L 208.193186 -231.283532 
L 208.193186 -233.860885 
L 208.193186 -236.438238 
L 208.193186 -239.015591 
L 208.193186 -241.592944 
L 208.193186 -244.170297 
L 208.193186 -246.74765 
L 208.193186 -249.325003 
L 208.193186 -251.902357 
L 208.193186 -254.47971 
L 208.193186 -257.057063 
L 208.193186 -259.634416 
L 208.193186 -262.211769 
L 208.193186 -264.789122 
L 208.193186 -267.366475 
L 208.193186 -269.943828 
L 208.193186 -272.521181 
L 208.193186 -275.098534 
L 208.193186 -277.675887 
L 208.193186 -280.25324 
L 208.193186 -282.830593 
L 208.193186 -285.407947 
L 208.193186 -287.9853 
L 208.193186 -290.562653 
L 208.193186 -293.140006 
L 208.193186 -295.717359 
L 208.193186 -298.294712 
L 208.193186 -300.872065 
L 208.193186 -303.449418 
L 208.193186 -306.026771 
L 208.193186 -308.604124 
L 208.193186 -311.181477 
L 208.235161 -311.181477 
L 208.235161 -311.181477 
L 208.253768 -308.604124 
L 208.278277 -306.026771 
L 208.309542 -303.449418 
L 208.348165 -300.872065 
L 208.394361 -298.294712 
L 208.447844 -295.717359 
L 208.50776 -293.140006 
L 208.572668 -290.562653 
L 208.640608 -287.9853 
L 208.709224 -285.407947 
L 208.775941 -282.830593 
L 208.838167 -280.25324 
L 208.893491 -277.675887 
L 208.939857 -275.098534 
L 208.975685 -272.521181 
L 208.999947 -269.943828 
L 209.012201 -267.366475 
L 209.012589 -264.789122 
L 209.001814 -262.211769 
L 208.98111 -259.634416 
L 208.952185 -257.057063 
L 208.917151 -254.47971 
L 208.878407 -251.902357 
L 208.838496 -249.325003 
L 208.799917 -246.74765 
L 208.76493 -244.170297 
L 208.735382 -241.592944 
L 208.712582 -239.015591 
L 208.697269 -236.438238 
L 208.68967 -233.860885 
L 208.689661 -231.283532 
L 208.696974 -228.706179 
L 208.711417 -226.128826 
L 208.733047 -223.551473 
L 208.762239 -220.97412 
L 208.799636 -218.396767 
L 208.845985 -215.819413 
L 208.901892 -213.24206 
L 208.967567 -210.664707 
L 209.042635 -208.087354 
L 209.126069 -205.510001 
L 209.216298 -202.932648 
L 209.311471 -200.355295 
L 209.409844 -197.777942 
L 209.510194 -195.200589 
L 209.612175 -192.623236 
L 209.716497 -190.045883 
L 209.824879 -187.46853 
L 209.939758 -184.891177 
L 210.063804 -182.313823 
L 210.199325 -179.73647 
L 210.347718 -177.159117 
L 210.509087 -174.581764 
L 210.682145 -172.004411 
L 210.864459 -169.427058 
L 211.052985 -166.849705 
L 211.244821 -164.272352 
L 211.437993 -161.694999 
L 211.632098 -159.117646 
L 211.828651 -156.540293 
L 212.031049 -153.96294 
L 212.244169 -151.385587 
L 212.473721 -148.808233 
L 212.725553 -146.23088 
L 213.005125 -143.653527 
L 213.317326 -141.076174 
L 213.66668 -138.498821 
L 214.057875 -135.921468 
L 214.496348 -133.344115 
L 214.988615 -130.766762 
L 215.54199 -128.189409 
L 216.163426 -125.612056 
L 216.857424 -123.034703 
L 217.623186 -120.45735 
L 218.451477 -117.879997 
L 219.321879 -115.302643 
L 220.201206 -112.72529 
L 221.043775 -110.147937 
L 221.793994 -107.570584 
L 222.391258 -104.993231 
L 222.776683 -102.415878 
L 222.900703 -99.838525 
L 222.730266 -97.261172 
L 222.254284 -94.683819 
L 221.486255 -92.106466 
L 220.463471 -89.529113 
L 219.242894 -86.95176 
L 217.894412 -84.374407 
L 216.492691 -81.797053 
L 215.109018 -79.2197 
L 213.80442 -76.642347 
L 212.624987 -74.064994 
L 211.599791 -71.487641 
L 210.74128 -68.910288 
L 210.047619 -66.332935 
L 209.506208 -63.755582 
L 209.097612 -61.178229 
L 208.799222 -58.600876 
L 208.588225 -56.023523 
z
" style="stroke: #4c4c4c; stroke-width: 1.5"/>
    </defs>
    <g clip-path="url(#p38ab16c67b)">
     <use xlink:href="#mb78f434af5" x="0" y="346.2575" style="fill: #cc8963; stroke: #4c4c4c; stroke-width: 1.5"/>
    </g>
   </g>
   <g id="PolyCollection_5">
    <defs>
     <path id="m45a60fc40a" d="M 313.561352 -81.26177 
L 312.241346 -81.26177 
L 311.583378 -82.245051 
L 310.675369 -83.228332 
L 309.460245 -84.211613 
L 307.883872 -85.194894 
L 305.902247 -86.178175 
L 303.489783 -87.161456 
L 300.647674 -88.144737 
L 297.410995 -89.128018 
L 293.853094 -90.111299 
L 290.085977 -91.09458 
L 286.255872 -92.077861 
L 282.533863 -93.061142 
L 279.102314 -94.044423 
L 276.138609 -95.027704 
L 273.798305 -96.010985 
L 272.200007 -96.994266 
L 271.414086 -97.977547 
L 271.456781 -98.960828 
L 272.290364 -99.944109 
L 273.829101 -100.92739 
L 275.949904 -101.910671 
L 278.50592 -102.893952 
L 281.341093 -103.877233 
L 284.303785 -104.860514 
L 287.257966 -105.843795 
L 290.09106 -106.827076 
L 292.718164 -107.810357 
L 295.082887 -108.793638 
L 297.155488 -109.776919 
L 298.929136 -110.7602 
L 300.415158 -111.743481 
L 301.638009 -112.726762 
L 302.630506 -113.710043 
L 303.429679 -114.693324 
L 304.073392 -115.676605 
L 304.597768 -116.659886 
L 305.035361 -117.643167 
L 305.41397 -118.626448 
L 305.755958 -119.609729 
L 306.077966 -120.59301 
L 306.390935 -121.576291 
L 306.700376 -122.559572 
L 307.006875 -123.542853 
L 307.306821 -124.526134 
L 307.593372 -125.509415 
L 307.857614 -126.492696 
L 308.089846 -127.475977 
L 308.28089 -128.459258 
L 308.423274 -129.442539 
L 308.512172 -130.42582 
L 308.546008 -131.409101 
L 308.526685 -132.392382 
L 308.459476 -133.375663 
L 308.352652 -134.358944 
L 308.216949 -135.342225 
L 308.064951 -136.325506 
L 307.910441 -137.308787 
L 307.767723 -138.292068 
L 307.650893 -139.275349 
L 307.573041 -140.25863 
L 307.545397 -141.241911 
L 307.576473 -142.225192 
L 307.671322 -143.208473 
L 307.831047 -144.191754 
L 308.052669 -145.175035 
L 308.329438 -146.158316 
L 308.651561 -147.141597 
L 309.007256 -148.124878 
L 309.383953 -149.108159 
L 309.769461 -150.09144 
L 310.152891 -151.074721 
L 310.525252 -152.058002 
L 310.879645 -153.041283 
L 311.211139 -154.024564 
L 311.516414 -155.007845 
L 311.793345 -155.991126 
L 312.040638 -156.974407 
L 312.257617 -157.957688 
L 312.444187 -158.940969 
L 312.600943 -159.92425 
L 312.729322 -160.907531 
L 312.831738 -161.890812 
L 312.91158 -162.874093 
L 312.973057 -163.857374 
L 313.020871 -164.840655 
L 313.059783 -165.823936 
L 313.094143 -166.807217 
L 313.127474 -167.790498 
L 313.162195 -168.773779 
L 313.19951 -169.75706 
L 313.239493 -170.740341 
L 313.281319 -171.723622 
L 313.323583 -172.706903 
L 313.364657 -173.690184 
L 313.402999 -174.673465 
L 313.437385 -175.656746 
L 313.467035 -176.640027 
L 313.491638 -177.623308 
L 313.511305 -178.606589 
L 313.561352 -178.606589 
L 313.561352 -178.606589 
L 313.561352 -177.623308 
L 313.561352 -176.640027 
L 313.561352 -175.656746 
L 313.561352 -174.673465 
L 313.561352 -173.690184 
L 313.561352 -172.706903 
L 313.561352 -171.723622 
L 313.561352 -170.740341 
L 313.561352 -169.75706 
L 313.561352 -168.773779 
L 313.561352 -167.790498 
L 313.561352 -166.807217 
L 313.561352 -165.823936 
L 313.561352 -164.840655 
L 313.561352 -163.857374 
L 313.561352 -162.874093 
L 313.561352 -161.890812 
L 313.561352 -160.907531 
L 313.561352 -159.92425 
L 313.561352 -158.940969 
L 313.561352 -157.957688 
L 313.561352 -156.974407 
L 313.561352 -155.991126 
L 313.561352 -155.007845 
L 313.561352 -154.024564 
L 313.561352 -153.041283 
L 313.561352 -152.058002 
L 313.561352 -151.074721 
L 313.561352 -150.09144 
L 313.561352 -149.108159 
L 313.561352 -148.124878 
L 313.561352 -147.141597 
L 313.561352 -146.158316 
L 313.561352 -145.175035 
L 313.561352 -144.191754 
L 313.561352 -143.208473 
L 313.561352 -142.225192 
L 313.561352 -141.241911 
L 313.561352 -140.25863 
L 313.561352 -139.275349 
L 313.561352 -138.292068 
L 313.561352 -137.308787 
L 313.561352 -136.325506 
L 313.561352 -135.342225 
L 313.561352 -134.358944 
L 313.561352 -133.375663 
L 313.561352 -132.392382 
L 313.561352 -131.409101 
L 313.561352 -130.42582 
L 313.561352 -129.442539 
L 313.561352 -128.459258 
L 313.561352 -127.475977 
L 313.561352 -126.492696 
L 313.561352 -125.509415 
L 313.561352 -124.526134 
L 313.561352 -123.542853 
L 313.561352 -122.559572 
L 313.561352 -121.576291 
L 313.561352 -120.59301 
L 313.561352 -119.609729 
L 313.561352 -118.626448 
L 313.561352 -117.643167 
L 313.561352 -116.659886 
L 313.561352 -115.676605 
L 313.561352 -114.693324 
L 313.561352 -113.710043 
L 313.561352 -112.726762 
L 313.561352 -111.743481 
L 313.561352 -110.7602 
L 313.561352 -109.776919 
L 313.561352 -108.793638 
L 313.561352 -107.810357 
L 313.561352 -106.827076 
L 313.561352 -105.843795 
L 313.561352 -104.860514 
L 313.561352 -103.877233 
L 313.561352 -102.893952 
L 313.561352 -101.910671 
L 313.561352 -100.92739 
L 313.561352 -99.944109 
L 313.561352 -98.960828 
L 313.561352 -97.977547 
L 313.561352 -96.994266 
L 313.561352 -96.010985 
L 313.561352 -95.027704 
L 313.561352 -94.044423 
L 313.561352 -93.061142 
L 313.561352 -92.077861 
L 313.561352 -91.09458 
L 313.561352 -90.111299 
L 313.561352 -89.128018 
L 313.561352 -88.144737 
L 313.561352 -87.161456 
L 313.561352 -86.178175 
L 313.561352 -85.194894 
L 313.561352 -84.211613 
L 313.561352 -83.228332 
L 313.561352 -82.245051 
L 313.561352 -81.26177 
z
" style="stroke: #4c4c4c; stroke-width: 1.5"/>
    </defs>
    <g clip-path="url(#p38ab16c67b)">
     <use xlink:href="#m45a60fc40a" x="0" y="346.2575" style="fill: #5875a4; stroke: #4c4c4c; stroke-width: 1.5"/>
    </g>
   </g>
   <g id="PolyCollection_6">
    <defs>
     <path id="md91158e119" d="M 313.755113 -72.765907 
L 313.561352 -72.765907 
L 313.561352 -73.856671 
L 313.561352 -74.947434 
L 313.561352 -76.038197 
L 313.561352 -77.128961 
L 313.561352 -78.219724 
L 313.561352 -79.310488 
L 313.561352 -80.401251 
L 313.561352 -81.492014 
L 313.561352 -82.582778 
L 313.561352 -83.673541 
L 313.561352 -84.764304 
L 313.561352 -85.855068 
L 313.561352 -86.945831 
L 313.561352 -88.036594 
L 313.561352 -89.127358 
L 313.561352 -90.218121 
L 313.561352 -91.308885 
L 313.561352 -92.399648 
L 313.561352 -93.490411 
L 313.561352 -94.581175 
L 313.561352 -95.671938 
L 313.561352 -96.762701 
L 313.561352 -97.853465 
L 313.561352 -98.944228 
L 313.561352 -100.034991 
L 313.561352 -101.125755 
L 313.561352 -102.216518 
L 313.561352 -103.307282 
L 313.561352 -104.398045 
L 313.561352 -105.488808 
L 313.561352 -106.579572 
L 313.561352 -107.670335 
L 313.561352 -108.761098 
L 313.561352 -109.851862 
L 313.561352 -110.942625 
L 313.561352 -112.033389 
L 313.561352 -113.124152 
L 313.561352 -114.214915 
L 313.561352 -115.305679 
L 313.561352 -116.396442 
L 313.561352 -117.487205 
L 313.561352 -118.577969 
L 313.561352 -119.668732 
L 313.561352 -120.759495 
L 313.561352 -121.850259 
L 313.561352 -122.941022 
L 313.561352 -124.031786 
L 313.561352 -125.122549 
L 313.561352 -126.213312 
L 313.561352 -127.304076 
L 313.561352 -128.394839 
L 313.561352 -129.485602 
L 313.561352 -130.576366 
L 313.561352 -131.667129 
L 313.561352 -132.757892 
L 313.561352 -133.848656 
L 313.561352 -134.939419 
L 313.561352 -136.030183 
L 313.561352 -137.120946 
L 313.561352 -138.211709 
L 313.561352 -139.302473 
L 313.561352 -140.393236 
L 313.561352 -141.483999 
L 313.561352 -142.574763 
L 313.561352 -143.665526 
L 313.561352 -144.756289 
L 313.561352 -145.847053 
L 313.561352 -146.937816 
L 313.561352 -148.02858 
L 313.561352 -149.119343 
L 313.561352 -150.210106 
L 313.561352 -151.30087 
L 313.561352 -152.391633 
L 313.561352 -153.482396 
L 313.561352 -154.57316 
L 313.561352 -155.663923 
L 313.561352 -156.754687 
L 313.561352 -157.84545 
L 313.561352 -158.936213 
L 313.561352 -160.026977 
L 313.561352 -161.11774 
L 313.561352 -162.208503 
L 313.561352 -163.299267 
L 313.561352 -164.39003 
L 313.561352 -165.480793 
L 313.561352 -166.571557 
L 313.561352 -167.66232 
L 313.561352 -168.753084 
L 313.561352 -169.843847 
L 313.561352 -170.93461 
L 313.561352 -172.025374 
L 313.561352 -173.116137 
L 313.561352 -174.2069 
L 313.561352 -175.297664 
L 313.561352 -176.388427 
L 313.561352 -177.47919 
L 313.561352 -178.569954 
L 313.561352 -179.660717 
L 313.561352 -180.751481 
L 313.625199 -180.751481 
L 313.625199 -180.751481 
L 313.652941 -179.660717 
L 313.689426 -178.569954 
L 313.736046 -177.47919 
L 313.793964 -176.388427 
L 313.863992 -175.297664 
L 313.94652 -174.2069 
L 314.041504 -173.116137 
L 314.148557 -172.025374 
L 314.267126 -170.93461 
L 314.39675 -169.843847 
L 314.537358 -168.753084 
L 314.68955 -167.66232 
L 314.854814 -166.571557 
L 315.03562 -165.480793 
L 315.235365 -164.39003 
L 315.458151 -163.299267 
L 315.708402 -162.208503 
L 315.990369 -161.11774 
L 316.307553 -160.026977 
L 316.662115 -158.936213 
L 317.054336 -157.84545 
L 317.482191 -156.754687 
L 317.941115 -155.663923 
L 318.423997 -154.57316 
L 318.921453 -153.482396 
L 319.422372 -152.391633 
L 319.914714 -151.30087 
L 320.386468 -150.210106 
L 320.826668 -149.119343 
L 321.226324 -148.02858 
L 321.579121 -146.937816 
L 321.881803 -145.847053 
L 322.134163 -144.756289 
L 322.338692 -143.665526 
L 322.49996 -142.574763 
L 322.623912 -141.483999 
L 322.717231 -140.393236 
L 322.786933 -139.302473 
L 322.840255 -138.211709 
L 322.884815 -137.120946 
L 322.928928 -136.030183 
L 322.981893 -134.939419 
L 323.054052 -133.848656 
L 323.156509 -132.757892 
L 323.300454 -131.667129 
L 323.496219 -130.576366 
L 323.752235 -129.485602 
L 324.074174 -128.394839 
L 324.464492 -127.304076 
L 324.922524 -126.213312 
L 325.445148 -125.122549 
L 326.027883 -124.031786 
L 326.666172 -122.941022 
L 327.35653 -121.850259 
L 328.097279 -120.759495 
L 328.888627 -119.668732 
L 329.73202 -118.577969 
L 330.628817 -117.487205 
L 331.57848 -116.396442 
L 332.576579 -115.305679 
L 333.612936 -114.214915 
L 334.670229 -113.124152 
L 335.72332 -112.033389 
L 336.739471 -110.942625 
L 337.679515 -109.851862 
L 338.49993 -108.761098 
L 339.15568 -107.670335 
L 339.603566 -106.579572 
L 339.805771 -105.488808 
L 339.733252 -104.398045 
L 339.368574 -103.307282 
L 338.707889 -102.216518 
L 337.761788 -101.125755 
L 336.554926 -100.034991 
L 335.124452 -98.944228 
L 333.517414 -97.853465 
L 331.787416 -96.762701 
L 329.990864 -95.671938 
L 328.183187 -94.581175 
L 326.41533 -93.490411 
L 324.730859 -92.399648 
L 323.163862 -91.308885 
L 321.737832 -90.218121 
L 320.465547 -89.127358 
L 319.34992 -88.036594 
L 318.385642 -86.945831 
L 317.561345 -85.855068 
L 316.861983 -84.764304 
L 316.271082 -83.673541 
L 315.772595 -82.582778 
L 315.35217 -81.492014 
L 314.997794 -80.401251 
L 314.699865 -79.310488 
L 314.450865 -78.219724 
L 314.24481 -77.128961 
L 314.076672 -76.038197 
L 313.941904 -74.947434 
L 313.836148 -73.856671 
L 313.755113 -72.765907 
z
" style="stroke: #4c4c4c; stroke-width: 1.5"/>
    </defs>
    <g clip-path="url(#p38ab16c67b)">
     <use xlink:href="#md91158e119" x="0" y="346.2575" style="fill: #cc8963; stroke: #4c4c4c; stroke-width: 1.5"/>
    </g>
   </g>
   <g id="line2d_9">
    <path d="M 102.82502 260.765866 
L 102.82502 225.186921 
" clip-path="url(#p38ab16c67b)" style="fill: none; stroke: #4c4c4c; stroke-width: 1.5; stroke-linecap: round"/>
   </g>
   <g id="line2d_10">
    <path d="M 102.82502 251.90607 
L 102.82502 240.946499 
" clip-path="url(#p38ab16c67b)" style="fill: none; stroke: #4c4c4c; stroke-width: 4.5; stroke-linecap: round"/>
   </g>
   <g id="line2d_11">
    <path d="M 208.193186 260.765866 
L 208.193186 185.029605 
" clip-path="url(#p38ab16c67b)" style="fill: none; stroke: #4c4c4c; stroke-width: 1.5; stroke-linecap: round"/>
   </g>
   <g id="line2d_12">
    <path d="M 208.193186 252.961047 
L 208.193186 225.391562 
" clip-path="url(#p38ab16c67b)" style="fill: none; stroke: #4c4c4c; stroke-width: 4.5; stroke-linecap: round"/>
   </g>
   <g id="line2d_13">
    <path d="M 313.561352 260.765866 
L 313.561352 190.691394 
" clip-path="url(#p38ab16c67b)" style="fill: none; stroke: #4c4c4c; stroke-width: 1.5; stroke-linecap: round"/>
   </g>
   <g id="line2d_14">
    <path d="M 313.561352 247.691863 
L 313.561352 224.515874 
" clip-path="url(#p38ab16c67b)" style="fill: none; stroke: #4c4c4c; stroke-width: 4.5; stroke-linecap: round"/>
   </g>
   <g id="patch_5">
    <path d="M 50.140938 302.991875 
L 50.140938 22.318125 
" style="fill: none; stroke: #262626; stroke-width: 1.25; stroke-linejoin: miter; stroke-linecap: square"/>
   </g>
   <g id="patch_6">
    <path d="M 50.140938 302.991875 
L 366.245435 302.991875 
" style="fill: none; stroke: #262626; stroke-width: 1.25; stroke-linejoin: miter; stroke-linecap: square"/>
   </g>
   <g id="PathCollection_1">
    <defs>
     <path id="m911adc05d2" d="M 0 1.5 
C 0.397805 1.5 0.77937 1.341951 1.06066 1.06066 
C 1.341951 0.77937 1.5 0.397805 1.5 0 
C 1.5 -0.397805 1.341951 -0.77937 1.06066 -1.06066 
C 0.77937 -1.341951 0.397805 -1.5 0 -1.5 
C -0.397805 -1.5 -0.77937 -1.341951 -1.06066 -1.06066 
C -1.341951 -0.77937 -1.5 -0.397805 -1.5 0 
C -1.5 0.397805 -1.341951 0.77937 -1.06066 1.06066 
C -0.77937 1.341951 -0.397805 1.5 0 1.5 
z
" style="stroke: #4c4c4c"/>
    </defs>
    <g clip-path="url(#p38ab16c67b)">
     <use xlink:href="#m911adc05d2" x="102.82502" y="248.510644" style="fill: #ffffff; stroke: #4c4c4c"/>
    </g>
   </g>
   <g id="PathCollection_2">
    <g clip-path="url(#p38ab16c67b)">
     <use xlink:href="#m911adc05d2" x="208.193186" y="248.239651" style="fill: #ffffff; stroke: #4c4c4c"/>
    </g>
   </g>
   <g id="PathCollection_3">
    <g clip-path="url(#p38ab16c67b)">
     <use xlink:href="#m911adc05d2" x="313.561352" y="240.953752" style="fill: #ffffff; stroke: #4c4c4c"/>
    </g>
   </g>
   <g id="text_11">
    <!-- Dyn_obs = 5.0 -->
    <g style="fill: #262626" transform="translate(164.230061 16.318125)scale(0.12 -0.12)">
     <defs>
      <path id="DejaVuSans-44" d="M 1259 4147 
L 1259 519 
L 2022 519 
Q 2988 519 3436 956 
Q 3884 1394 3884 2338 
Q 3884 3275 3436 3711 
Q 2988 4147 2022 4147 
L 1259 4147 
z
M 628 4666 
L 1925 4666 
Q 3281 4666 3915 4102 
Q 4550 3538 4550 2338 
Q 4550 1131 3912 565 
Q 3275 0 1925 0 
L 628 0 
L 628 4666 
z
" transform="scale(0.015625)"/>
      <path id="DejaVuSans-79" d="M 2059 -325 
Q 1816 -950 1584 -1140 
Q 1353 -1331 966 -1331 
L 506 -1331 
L 506 -850 
L 844 -850 
Q 1081 -850 1212 -737 
Q 1344 -625 1503 -206 
L 1606 56 
L 191 3500 
L 800 3500 
L 1894 763 
L 2988 3500 
L 3597 3500 
L 2059 -325 
z
" transform="scale(0.015625)"/>
      <path id="DejaVuSans-62" d="M 3116 1747 
Q 3116 2381 2855 2742 
Q 2594 3103 2138 3103 
Q 1681 3103 1420 2742 
Q 1159 2381 1159 1747 
Q 1159 1113 1420 752 
Q 1681 391 2138 391 
Q 2594 391 2855 752 
Q 3116 1113 3116 1747 
z
M 1159 2969 
Q 1341 3281 1617 3432 
Q 1894 3584 2278 3584 
Q 2916 3584 3314 3078 
Q 3713 2572 3713 1747 
Q 3713 922 3314 415 
Q 2916 -91 2278 -91 
Q 1894 -91 1617 61 
Q 1341 213 1159 525 
L 1159 0 
L 581 0 
L 581 4863 
L 1159 4863 
L 1159 2969 
z
" transform="scale(0.015625)"/>
      <path id="DejaVuSans-20" transform="scale(0.015625)"/>
      <path id="DejaVuSans-3d" d="M 678 2906 
L 4684 2906 
L 4684 2381 
L 678 2381 
L 678 2906 
z
M 678 1631 
L 4684 1631 
L 4684 1100 
L 678 1100 
L 678 1631 
z
" transform="scale(0.015625)"/>
     </defs>
     <use xlink:href="#DejaVuSans-44"/>
     <use xlink:href="#DejaVuSans-79" x="77.001953"/>
     <use xlink:href="#DejaVuSans-6e" x="136.181641"/>
     <use xlink:href="#DejaVuSans-5f" x="199.560547"/>
     <use xlink:href="#DejaVuSans-6f" x="249.560547"/>
     <use xlink:href="#DejaVuSans-62" x="310.742188"/>
     <use xlink:href="#DejaVuSans-73" x="374.21875"/>
     <use xlink:href="#DejaVuSans-20" x="426.318359"/>
     <use xlink:href="#DejaVuSans-3d" x="458.105469"/>
     <use xlink:href="#DejaVuSans-20" x="541.894531"/>
     <use xlink:href="#DejaVuSans-35" x="573.681641"/>
     <use xlink:href="#DejaVuSans-2e" x="637.304688"/>
     <use xlink:href="#DejaVuSans-30" x="669.091797"/>
    </g>
   </g>
  </g>
  <g id="axes_2">
   <g id="patch_7">
    <path d="M 385.23439 302.991875 
L 701.338888 302.991875 
L 701.338888 22.318125 
L 385.23439 22.318125 
z
" style="fill: #ffffff"/>
   </g>
   <g id="matplotlib.axis_3">
    <g id="xtick_4">
     <g id="line2d_15">
      <g>
       <use xlink:href="#m70d8f7e8c2" x="437.918473" y="302.991875" style="fill: #262626; stroke: #262626; stroke-width: 1.25"/>
      </g>
     </g>
     <g id="text_12">
      <!-- map2 -->
      <g style="fill: #262626" transform="translate(422.199645 320.850156)scale(0.11 -0.11)">
       <use xlink:href="#DejaVuSans-6d"/>
       <use xlink:href="#DejaVuSans-61" x="97.412109"/>
       <use xlink:href="#DejaVuSans-70" x="158.691406"/>
       <use xlink:href="#DejaVuSans-32" x="222.167969"/>
      </g>
     </g>
    </g>
    <g id="xtick_5">
     <g id="line2d_16">
      <g>
       <use xlink:href="#m70d8f7e8c2" x="543.286639" y="302.991875" style="fill: #262626; stroke: #262626; stroke-width: 1.25"/>
      </g>
     </g>
     <g id="text_13">
      <!-- map5 -->
      <g style="fill: #262626" transform="translate(527.56781 320.850156)scale(0.11 -0.11)">
       <use xlink:href="#DejaVuSans-6d"/>
       <use xlink:href="#DejaVuSans-61" x="97.412109"/>
       <use xlink:href="#DejaVuSans-70" x="158.691406"/>
       <use xlink:href="#DejaVuSans-35" x="222.167969"/>
      </g>
     </g>
    </g>
    <g id="xtick_6">
     <g id="line2d_17">
      <g>
       <use xlink:href="#m70d8f7e8c2" x="648.654805" y="302.991875" style="fill: #262626; stroke: #262626; stroke-width: 1.25"/>
      </g>
     </g>
     <g id="text_14">
      <!-- small_warehouse -->
      <g style="fill: #262626" transform="translate(601.280039 320.850156)scale(0.11 -0.11)">
       <use xlink:href="#DejaVuSans-73"/>
       <use xlink:href="#DejaVuSans-6d" x="52.099609"/>
       <use xlink:href="#DejaVuSans-61" x="149.511719"/>
       <use xlink:href="#DejaVuSans-6c" x="210.791016"/>
       <use xlink:href="#DejaVuSans-6c" x="238.574219"/>
       <use xlink:href="#DejaVuSans-5f" x="266.357422"/>
       <use xlink:href="#DejaVuSans-77" x="316.357422"/>
       <use xlink:href="#DejaVuSans-61" x="398.144531"/>
       <use xlink:href="#DejaVuSans-72" x="459.423828"/>
       <use xlink:href="#DejaVuSans-65" x="498.287109"/>
       <use xlink:href="#DejaVuSans-68" x="559.810547"/>
       <use xlink:href="#DejaVuSans-6f" x="623.189453"/>
       <use xlink:href="#DejaVuSans-75" x="684.371094"/>
       <use xlink:href="#DejaVuSans-73" x="747.75"/>
       <use xlink:href="#DejaVuSans-65" x="799.849609"/>
      </g>
     </g>
    </g>
    <g id="text_15">
     <!-- World -->
     <g style="fill: #262626" transform="translate(526.092889 336.561875)scale(0.12 -0.12)">
      <use xlink:href="#DejaVuSans-57"/>
      <use xlink:href="#DejaVuSans-6f" x="93.001953"/>
      <use xlink:href="#DejaVuSans-72" x="154.183594"/>
      <use xlink:href="#DejaVuSans-6c" x="195.296875"/>
      <use xlink:href="#DejaVuSans-64" x="223.080078"/>
     </g>
    </g>
   </g>
   <g id="matplotlib.axis_4">
    <g id="ytick_6">
     <g id="line2d_18">
      <g>
       <use xlink:href="#mf7a552e372" x="385.23439" y="260.765866" style="fill: #262626; stroke: #262626; stroke-width: 1.25"/>
      </g>
     </g>
    </g>
    <g id="ytick_7">
     <g id="line2d_19">
      <g>
       <use xlink:href="#mf7a552e372" x="385.23439" y="201.1831" style="fill: #262626; stroke: #262626; stroke-width: 1.25"/>
      </g>
     </g>
    </g>
    <g id="ytick_8">
     <g id="line2d_20">
      <g>
       <use xlink:href="#mf7a552e372" x="385.23439" y="141.600334" style="fill: #262626; stroke: #262626; stroke-width: 1.25"/>
      </g>
     </g>
    </g>
    <g id="ytick_9">
     <g id="line2d_21">
      <g>
       <use xlink:href="#mf7a552e372" x="385.23439" y="82.017568" style="fill: #262626; stroke: #262626; stroke-width: 1.25"/>
      </g>
     </g>
    </g>
    <g id="ytick_10">
     <g id="line2d_22">
      <g>
       <use xlink:href="#mf7a552e372" x="385.23439" y="22.434802" style="fill: #262626; stroke: #262626; stroke-width: 1.25"/>
      </g>
     </g>
    </g>
   </g>
   <g id="patch_8">
    <path d="M 437.918473 260.765866 
L 437.918473 260.765866 
L 437.918473 260.765866 
L 437.918473 260.765866 
z
" clip-path="url(#p52afd0c83a)" style="fill: #5875a4; stroke: #4c4c4c; stroke-width: 0.75; stroke-linejoin: miter"/>
   </g>
   <g id="PolyCollection_7">
    <defs>
     <path id="mb12abdab1a" d="M 437.918473 -83.965665 
L 436.360974 -83.965665 
L 435.736704 -84.65711 
L 434.92235 -85.348556 
L 433.884316 -86.040002 
L 432.591652 -86.731448 
L 431.019348 -87.422894 
L 429.15193 -88.11434 
L 426.986963 -88.805786 
L 424.538019 -89.497232 
L 421.836613 -90.188677 
L 418.932684 -90.880123 
L 415.893334 -91.571569 
L 412.799727 -92.263015 
L 409.742324 -92.954461 
L 406.81488 -93.645907 
L 404.107819 -94.337353 
L 401.701772 -95.028799 
L 399.662029 -95.720245 
L 398.03458 -96.41169 
L 396.844198 -97.103136 
L 396.094692 -97.794582 
L 395.771206 -98.486028 
L 395.844095 -99.177474 
L 396.273743 -99.86892 
L 397.015603 -100.560366 
L 398.02474 -101.251812 
L 399.259325 -101.943258 
L 400.682756 -102.634703 
L 402.264296 -103.326149 
L 403.978423 -104.017595 
L 405.803228 -104.709041 
L 407.718338 -105.400487 
L 409.702854 -106.091933 
L 411.733737 -106.783379 
L 413.784927 -107.474825 
L 415.827345 -108.16627 
L 417.829725 -108.857716 
L 419.760097 -109.549162 
L 421.587639 -110.240608 
L 423.284588 -110.932054 
L 424.827876 -111.6235 
L 426.200295 -112.314946 
L 427.391025 -113.006392 
L 428.395512 -113.697838 
L 429.214784 -114.389283 
L 429.854352 -115.080729 
L 430.322925 -115.772175 
L 430.631141 -116.463621 
L 430.79052 -117.155067 
L 430.812781 -117.846513 
L 430.709582 -118.537959 
L 430.492691 -119.229405 
L 430.17449 -119.92085 
L 429.768693 -120.612296 
L 429.291084 -121.303742 
L 428.760103 -121.995188 
L 428.197096 -122.686634 
L 427.626118 -123.37808 
L 427.073216 -124.069526 
L 426.565221 -124.760972 
L 426.128145 -125.452418 
L 425.785364 -126.143863 
L 425.555807 -126.835309 
L 425.452402 -127.526755 
L 425.481001 -128.218201 
L 425.639944 -128.909647 
L 425.920361 -129.601093 
L 426.307172 -130.292539 
L 426.780681 -130.983985 
L 427.318555 -131.675431 
L 427.897929 -132.366876 
L 428.497394 -133.058322 
L 429.098607 -133.749768 
L 429.687382 -134.441214 
L 430.254172 -135.13266 
L 430.793952 -135.824106 
L 431.305594 -136.515552 
L 431.790903 -137.206998 
L 432.253478 -137.898443 
L 432.697582 -138.589889 
L 433.127174 -139.281335 
L 433.545201 -139.972781 
L 433.953191 -140.664227 
L 434.351142 -141.355673 
L 434.737664 -142.047119 
L 435.110295 -142.738565 
L 435.465919 -143.430011 
L 435.801203 -144.121456 
L 436.113 -144.812902 
L 436.398679 -145.504348 
L 436.656351 -146.195794 
L 436.884997 -146.88724 
L 437.084497 -147.578686 
L 437.255585 -148.270132 
L 437.399737 -148.961578 
L 437.519022 -149.653024 
L 437.615927 -150.344469 
L 437.693187 -151.035915 
L 437.753617 -151.727361 
L 437.799971 -152.418807 
L 437.918473 -152.418807 
L 437.918473 -152.418807 
L 437.918473 -151.727361 
L 437.918473 -151.035915 
L 437.918473 -150.344469 
L 437.918473 -149.653024 
L 437.918473 -148.961578 
L 437.918473 -148.270132 
L 437.918473 -147.578686 
L 437.918473 -146.88724 
L 437.918473 -146.195794 
L 437.918473 -145.504348 
L 437.918473 -144.812902 
L 437.918473 -144.121456 
L 437.918473 -143.430011 
L 437.918473 -142.738565 
L 437.918473 -142.047119 
L 437.918473 -141.355673 
L 437.918473 -140.664227 
L 437.918473 -139.972781 
L 437.918473 -139.281335 
L 437.918473 -138.589889 
L 437.918473 -137.898443 
L 437.918473 -137.206998 
L 437.918473 -136.515552 
L 437.918473 -135.824106 
L 437.918473 -135.13266 
L 437.918473 -134.441214 
L 437.918473 -133.749768 
L 437.918473 -133.058322 
L 437.918473 -132.366876 
L 437.918473 -131.675431 
L 437.918473 -130.983985 
L 437.918473 -130.292539 
L 437.918473 -129.601093 
L 437.918473 -128.909647 
L 437.918473 -128.218201 
L 437.918473 -127.526755 
L 437.918473 -126.835309 
L 437.918473 -126.143863 
L 437.918473 -125.452418 
L 437.918473 -124.760972 
L 437.918473 -124.069526 
L 437.918473 -123.37808 
L 437.918473 -122.686634 
L 437.918473 -121.995188 
L 437.918473 -121.303742 
L 437.918473 -120.612296 
L 437.918473 -119.92085 
L 437.918473 -119.229405 
L 437.918473 -118.537959 
L 437.918473 -117.846513 
L 437.918473 -117.155067 
L 437.918473 -116.463621 
L 437.918473 -115.772175 
L 437.918473 -115.080729 
L 437.918473 -114.389283 
L 437.918473 -113.697838 
L 437.918473 -113.006392 
L 437.918473 -112.314946 
L 437.918473 -111.6235 
L 437.918473 -110.932054 
L 437.918473 -110.240608 
L 437.918473 -109.549162 
L 437.918473 -108.857716 
L 437.918473 -108.16627 
L 437.918473 -107.474825 
L 437.918473 -106.783379 
L 437.918473 -106.091933 
L 437.918473 -105.400487 
L 437.918473 -104.709041 
L 437.918473 -104.017595 
L 437.918473 -103.326149 
L 437.918473 -102.634703 
L 437.918473 -101.943258 
L 437.918473 -101.251812 
L 437.918473 -100.560366 
L 437.918473 -99.86892 
L 437.918473 -99.177474 
L 437.918473 -98.486028 
L 437.918473 -97.794582 
L 437.918473 -97.103136 
L 437.918473 -96.41169 
L 437.918473 -95.720245 
L 437.918473 -95.028799 
L 437.918473 -94.337353 
L 437.918473 -93.645907 
L 437.918473 -92.954461 
L 437.918473 -92.263015 
L 437.918473 -91.571569 
L 437.918473 -90.880123 
L 437.918473 -90.188677 
L 437.918473 -89.497232 
L 437.918473 -88.805786 
L 437.918473 -88.11434 
L 437.918473 -87.422894 
L 437.918473 -86.731448 
L 437.918473 -86.040002 
L 437.918473 -85.348556 
L 437.918473 -84.65711 
L 437.918473 -83.965665 
z
" style="stroke: #4c4c4c; stroke-width: 1.5"/>
    </defs>
    <g clip-path="url(#p52afd0c83a)">
     <use xlink:href="#mb12abdab1a" x="0" y="346.2575" style="fill: #5875a4; stroke: #4c4c4c; stroke-width: 1.5"/>
    </g>
   </g>
   <g id="patch_9">
    <path d="M 437.918473 260.765866 
L 437.918473 260.765866 
L 437.918473 260.765866 
L 437.918473 260.765866 
z
" clip-path="url(#p52afd0c83a)" style="fill: #cc8963; stroke: #4c4c4c; stroke-width: 0.75; stroke-linejoin: miter"/>
   </g>
   <g id="PolyCollection_8">
    <defs>
     <path id="ma8019ec676" d="M 438.1877 -71.854076 
L 437.918473 -71.854076 
L 437.918473 -72.909717 
L 437.918473 -73.965357 
L 437.918473 -75.020998 
L 437.918473 -76.076638 
L 437.918473 -77.132279 
L 437.918473 -78.187919 
L 437.918473 -79.24356 
L 437.918473 -80.2992 
L 437.918473 -81.354841 
L 437.918473 -82.410481 
L 437.918473 -83.466122 
L 437.918473 -84.521763 
L 437.918473 -85.577403 
L 437.918473 -86.633044 
L 437.918473 -87.688684 
L 437.918473 -88.744325 
L 437.918473 -89.799965 
L 437.918473 -90.855606 
L 437.918473 -91.911246 
L 437.918473 -92.966887 
L 437.918473 -94.022527 
L 437.918473 -95.078168 
L 437.918473 -96.133809 
L 437.918473 -97.189449 
L 437.918473 -98.24509 
L 437.918473 -99.30073 
L 437.918473 -100.356371 
L 437.918473 -101.412011 
L 437.918473 -102.467652 
L 437.918473 -103.523292 
L 437.918473 -104.578933 
L 437.918473 -105.634574 
L 437.918473 -106.690214 
L 437.918473 -107.745855 
L 437.918473 -108.801495 
L 437.918473 -109.857136 
L 437.918473 -110.912776 
L 437.918473 -111.968417 
L 437.918473 -113.024057 
L 437.918473 -114.079698 
L 437.918473 -115.135338 
L 437.918473 -116.190979 
L 437.918473 -117.24662 
L 437.918473 -118.30226 
L 437.918473 -119.357901 
L 437.918473 -120.413541 
L 437.918473 -121.469182 
L 437.918473 -122.524822 
L 437.918473 -123.580463 
L 437.918473 -124.636103 
L 437.918473 -125.691744 
L 437.918473 -126.747384 
L 437.918473 -127.803025 
L 437.918473 -128.858666 
L 437.918473 -129.914306 
L 437.918473 -130.969947 
L 437.918473 -132.025587 
L 437.918473 -133.081228 
L 437.918473 -134.136868 
L 437.918473 -135.192509 
L 437.918473 -136.248149 
L 437.918473 -137.30379 
L 437.918473 -138.35943 
L 437.918473 -139.415071 
L 437.918473 -140.470712 
L 437.918473 -141.526352 
L 437.918473 -142.581993 
L 437.918473 -143.637633 
L 437.918473 -144.693274 
L 437.918473 -145.748914 
L 437.918473 -146.804555 
L 437.918473 -147.860195 
L 437.918473 -148.915836 
L 437.918473 -149.971476 
L 437.918473 -151.027117 
L 437.918473 -152.082758 
L 437.918473 -153.138398 
L 437.918473 -154.194039 
L 437.918473 -155.249679 
L 437.918473 -156.30532 
L 437.918473 -157.36096 
L 437.918473 -158.416601 
L 437.918473 -159.472241 
L 437.918473 -160.527882 
L 437.918473 -161.583523 
L 437.918473 -162.639163 
L 437.918473 -163.694804 
L 437.918473 -164.750444 
L 437.918473 -165.806085 
L 437.918473 -166.861725 
L 437.918473 -167.917366 
L 437.918473 -168.973006 
L 437.918473 -170.028647 
L 437.918473 -171.084287 
L 437.918473 -172.139928 
L 437.918473 -173.195569 
L 437.918473 -174.251209 
L 437.918473 -175.30685 
L 437.918473 -176.36249 
L 438.035729 -176.36249 
L 438.035729 -176.36249 
L 438.082516 -175.30685 
L 438.143225 -174.251209 
L 438.220139 -173.195569 
L 438.3153 -172.139928 
L 438.430296 -171.084287 
L 438.566064 -170.028647 
L 438.72271 -168.973006 
L 438.899407 -167.917366 
L 439.094367 -166.861725 
L 439.304921 -165.806085 
L 439.527705 -164.750444 
L 439.758935 -163.694804 
L 439.994758 -162.639163 
L 440.23163 -161.583523 
L 440.466686 -160.527882 
L 440.698061 -159.472241 
L 440.925112 -158.416601 
L 441.148513 -157.36096 
L 441.37021 -156.30532 
L 441.593213 -155.249679 
L 441.821247 -154.194039 
L 442.05828 -153.138398 
L 442.307977 -152.082758 
L 442.573129 -151.027117 
L 442.85513 -149.971476 
L 443.153578 -148.915836 
L 443.46605 -147.860195 
L 443.788114 -146.804555 
L 444.113588 -145.748914 
L 444.435023 -144.693274 
L 444.744366 -143.637633 
L 445.033717 -142.581993 
L 445.296064 -141.526352 
L 445.525911 -140.470712 
L 445.719698 -139.415071 
L 445.875964 -138.35943 
L 445.995239 -137.30379 
L 446.079708 -136.248149 
L 446.132705 -135.192509 
L 446.158147 -134.136868 
L 446.16 -133.081228 
L 446.141884 -132.025587 
L 446.106874 -130.969947 
L 446.057539 -129.914306 
L 445.996214 -128.858666 
L 445.92545 -127.803025 
L 445.848586 -126.747384 
L 445.770335 -125.691744 
L 445.697293 -124.636103 
L 445.638295 -123.580463 
L 445.604539 -122.524822 
L 445.60948 -121.469182 
L 445.668477 -120.413541 
L 445.79826 -119.357901 
L 446.016271 -118.30226 
L 446.339932 -117.24662 
L 446.785904 -116.190979 
L 447.369341 -115.135338 
L 448.103112 -114.079698 
L 448.99695 -113.024057 
L 450.05646 -111.968417 
L 451.281946 -110.912776 
L 452.667068 -109.857136 
L 454.197421 -108.801495 
L 455.849202 -107.745855 
L 457.588227 -106.690214 
L 459.369583 -105.634574 
L 461.138213 -104.578933 
L 462.83063 -103.523292 
L 464.377833 -102.467652 
L 465.709321 -101.412011 
L 466.757907 -100.356371 
L 467.464849 -99.30073 
L 467.784736 -98.24509 
L 467.689529 -97.189449 
L 467.171242 -96.133809 
L 466.242907 -95.078168 
L 464.937703 -94.022527 
L 463.306339 -92.966887 
L 461.413058 -91.911246 
L 459.330701 -90.855606 
L 457.135447 -89.799965 
L 454.901741 -88.744325 
L 452.697906 -87.688684 
L 450.58276 -86.633044 
L 448.603408 -85.577403 
L 446.794232 -84.521763 
L 445.176962 -83.466122 
L 443.761627 -82.410481 
L 442.548144 -81.354841 
L 441.528275 -80.2992 
L 440.687734 -79.24356 
L 440.008238 -78.187919 
L 439.46936 -77.132279 
L 439.050091 -76.076638 
L 438.730066 -75.020998 
L 438.490441 -73.965357 
L 438.314454 -72.909717 
L 438.1877 -71.854076 
z
" style="stroke: #4c4c4c; stroke-width: 1.5"/>
    </defs>
    <g clip-path="url(#p52afd0c83a)">
     <use xlink:href="#ma8019ec676" x="0" y="346.2575" style="fill: #cc8963; stroke: #4c4c4c; stroke-width: 1.5"/>
    </g>
   </g>
   <g id="PolyCollection_9">
    <defs>
     <path id="m7dbdb72240" d="M 543.286639 -78.576595 
L 542.161711 -78.576595 
L 541.484661 -79.840756 
L 540.497963 -81.104916 
L 539.115825 -82.369076 
L 537.255863 -83.633237 
L 534.852975 -84.897397 
L 531.875833 -86.161558 
L 528.343393 -87.425718 
L 524.337928 -88.689878 
L 520.010817 -89.954039 
L 515.578052 -91.218199 
L 511.304118 -92.482359 
L 507.475298 -93.74652 
L 504.366023 -95.01068 
L 502.203841 -96.274841 
L 501.139372 -97.539001 
L 501.226909 -98.803161 
L 502.41919 -100.067322 
L 504.576908 -101.331482 
L 507.490489 -102.595642 
L 510.909384 -103.859803 
L 514.573177 -105.123963 
L 518.239226 -106.388123 
L 521.703197 -107.652284 
L 524.810954 -108.916444 
L 527.462325 -110.180605 
L 529.60859 -111.444765 
L 531.246058 -112.708925 
L 532.40782 -113.973086 
L 533.155025 -115.237246 
L 533.568243 -116.501406 
L 533.739 -117.765567 
L 533.761428 -119.029727 
L 533.724237 -120.293887 
L 533.703579 -121.558048 
L 533.757619 -122.822208 
L 533.923587 -124.086369 
L 534.217701 -125.350529 
L 534.637809 -126.614689 
L 535.167954 -127.87885 
L 535.783768 -129.14301 
L 536.457524 -130.40717 
L 537.161986 -131.671331 
L 537.872719 -132.935491 
L 538.568988 -134.199651 
L 539.233733 -135.463812 
L 539.853199 -136.727972 
L 540.416632 -137.992133 
L 540.916249 -139.256293 
L 541.347426 -140.520453 
L 541.708903 -141.784614 
L 542.002831 -143.048774 
L 542.234512 -144.312934 
L 542.41183 -145.577095 
L 542.544414 -146.841255 
L 542.642651 -148.105415 
L 542.716672 -149.369576 
L 542.775414 -150.633736 
L 542.825893 -151.897897 
L 542.872749 -153.162057 
L 542.918131 -154.426217 
L 542.961921 -155.690378 
L 543.002234 -156.954538 
L 543.036103 -158.218698 
L 543.060204 -159.482859 
L 543.07154 -160.747019 
L 543.067959 -162.01118 
L 543.048502 -163.27534 
L 543.013531 -164.5395 
L 542.964659 -165.803661 
L 542.904506 -167.067821 
L 542.836298 -168.331981 
L 542.763368 -169.596142 
L 542.68864 -170.860302 
L 542.614183 -172.124462 
L 542.540935 -173.388623 
L 542.468692 -174.652783 
L 542.396386 -175.916944 
L 542.322643 -177.181104 
L 542.246522 -178.445264 
L 542.168279 -179.709425 
L 542.089972 -180.973585 
L 542.015717 -182.237745 
L 541.951474 -183.501906 
L 541.904341 -184.766066 
L 541.881443 -186.030226 
L 541.888639 -187.294387 
L 541.92933 -188.558547 
L 542.003639 -189.822708 
L 542.108171 -191.086868 
L 542.236412 -192.351028 
L 542.379683 -193.615189 
L 542.528418 -194.879349 
L 542.673495 -196.143509 
L 542.807348 -197.40767 
L 542.924675 -198.67183 
L 543.022667 -199.93599 
L 543.100815 -201.200151 
L 543.160414 -202.464311 
L 543.20393 -203.728472 
L 543.286639 -203.728472 
L 543.286639 -203.728472 
L 543.286639 -202.464311 
L 543.286639 -201.200151 
L 543.286639 -199.93599 
L 543.286639 -198.67183 
L 543.286639 -197.40767 
L 543.286639 -196.143509 
L 543.286639 -194.879349 
L 543.286639 -193.615189 
L 543.286639 -192.351028 
L 543.286639 -191.086868 
L 543.286639 -189.822708 
L 543.286639 -188.558547 
L 543.286639 -187.294387 
L 543.286639 -186.030226 
L 543.286639 -184.766066 
L 543.286639 -183.501906 
L 543.286639 -182.237745 
L 543.286639 -180.973585 
L 543.286639 -179.709425 
L 543.286639 -178.445264 
L 543.286639 -177.181104 
L 543.286639 -175.916944 
L 543.286639 -174.652783 
L 543.286639 -173.388623 
L 543.286639 -172.124462 
L 543.286639 -170.860302 
L 543.286639 -169.596142 
L 543.286639 -168.331981 
L 543.286639 -167.067821 
L 543.286639 -165.803661 
L 543.286639 -164.5395 
L 543.286639 -163.27534 
L 543.286639 -162.01118 
L 543.286639 -160.747019 
L 543.286639 -159.482859 
L 543.286639 -158.218698 
L 543.286639 -156.954538 
L 543.286639 -155.690378 
L 543.286639 -154.426217 
L 543.286639 -153.162057 
L 543.286639 -151.897897 
L 543.286639 -150.633736 
L 543.286639 -149.369576 
L 543.286639 -148.105415 
L 543.286639 -146.841255 
L 543.286639 -145.577095 
L 543.286639 -144.312934 
L 543.286639 -143.048774 
L 543.286639 -141.784614 
L 543.286639 -140.520453 
L 543.286639 -139.256293 
L 543.286639 -137.992133 
L 543.286639 -136.727972 
L 543.286639 -135.463812 
L 543.286639 -134.199651 
L 543.286639 -132.935491 
L 543.286639 -131.671331 
L 543.286639 -130.40717 
L 543.286639 -129.14301 
L 543.286639 -127.87885 
L 543.286639 -126.614689 
L 543.286639 -125.350529 
L 543.286639 -124.086369 
L 543.286639 -122.822208 
L 543.286639 -121.558048 
L 543.286639 -120.293887 
L 543.286639 -119.029727 
L 543.286639 -117.765567 
L 543.286639 -116.501406 
L 543.286639 -115.237246 
L 543.286639 -113.973086 
L 543.286639 -112.708925 
L 543.286639 -111.444765 
L 543.286639 -110.180605 
L 543.286639 -108.916444 
L 543.286639 -107.652284 
L 543.286639 -106.388123 
L 543.286639 -105.123963 
L 543.286639 -103.859803 
L 543.286639 -102.595642 
L 543.286639 -101.331482 
L 543.286639 -100.067322 
L 543.286639 -98.803161 
L 543.286639 -97.539001 
L 543.286639 -96.274841 
L 543.286639 -95.01068 
L 543.286639 -93.74652 
L 543.286639 -92.482359 
L 543.286639 -91.218199 
L 543.286639 -89.954039 
L 543.286639 -88.689878 
L 543.286639 -87.425718 
L 543.286639 -86.161558 
L 543.286639 -84.897397 
L 543.286639 -83.633237 
L 543.286639 -82.369076 
L 543.286639 -81.104916 
L 543.286639 -79.840756 
L 543.286639 -78.576595 
z
" style="stroke: #4c4c4c; stroke-width: 1.5"/>
    </defs>
    <g clip-path="url(#p52afd0c83a)">
     <use xlink:href="#m7dbdb72240" x="0" y="346.2575" style="fill: #5875a4; stroke: #4c4c4c; stroke-width: 1.5"/>
    </g>
   </g>
   <g id="PolyCollection_10">
    <defs>
     <path id="m2be8ee4f38" d="M 543.439624 -71.744803 
L 543.286639 -71.744803 
L 543.286639 -73.079949 
L 543.286639 -74.415094 
L 543.286639 -75.75024 
L 543.286639 -77.085385 
L 543.286639 -78.420531 
L 543.286639 -79.755676 
L 543.286639 -81.090822 
L 543.286639 -82.425967 
L 543.286639 -83.761113 
L 543.286639 -85.096258 
L 543.286639 -86.431404 
L 543.286639 -87.766549 
L 543.286639 -89.101695 
L 543.286639 -90.43684 
L 543.286639 -91.771986 
L 543.286639 -93.107132 
L 543.286639 -94.442277 
L 543.286639 -95.777423 
L 543.286639 -97.112568 
L 543.286639 -98.447714 
L 543.286639 -99.782859 
L 543.286639 -101.118005 
L 543.286639 -102.45315 
L 543.286639 -103.788296 
L 543.286639 -105.123441 
L 543.286639 -106.458587 
L 543.286639 -107.793732 
L 543.286639 -109.128878 
L 543.286639 -110.464023 
L 543.286639 -111.799169 
L 543.286639 -113.134314 
L 543.286639 -114.46946 
L 543.286639 -115.804605 
L 543.286639 -117.139751 
L 543.286639 -118.474896 
L 543.286639 -119.810042 
L 543.286639 -121.145187 
L 543.286639 -122.480333 
L 543.286639 -123.815478 
L 543.286639 -125.150624 
L 543.286639 -126.485769 
L 543.286639 -127.820915 
L 543.286639 -129.15606 
L 543.286639 -130.491206 
L 543.286639 -131.826351 
L 543.286639 -133.161497 
L 543.286639 -134.496642 
L 543.286639 -135.831788 
L 543.286639 -137.166933 
L 543.286639 -138.502079 
L 543.286639 -139.837224 
L 543.286639 -141.17237 
L 543.286639 -142.507515 
L 543.286639 -143.842661 
L 543.286639 -145.177806 
L 543.286639 -146.512952 
L 543.286639 -147.848097 
L 543.286639 -149.183243 
L 543.286639 -150.518388 
L 543.286639 -151.853534 
L 543.286639 -153.188679 
L 543.286639 -154.523825 
L 543.286639 -155.85897 
L 543.286639 -157.194116 
L 543.286639 -158.529261 
L 543.286639 -159.864407 
L 543.286639 -161.199552 
L 543.286639 -162.534698 
L 543.286639 -163.869843 
L 543.286639 -165.204989 
L 543.286639 -166.540134 
L 543.286639 -167.87528 
L 543.286639 -169.210425 
L 543.286639 -170.545571 
L 543.286639 -171.880716 
L 543.286639 -173.215862 
L 543.286639 -174.551007 
L 543.286639 -175.886153 
L 543.286639 -177.221298 
L 543.286639 -178.556444 
L 543.286639 -179.891589 
L 543.286639 -181.226735 
L 543.286639 -182.56188 
L 543.286639 -183.897026 
L 543.286639 -185.232171 
L 543.286639 -186.567317 
L 543.286639 -187.902462 
L 543.286639 -189.237608 
L 543.286639 -190.572753 
L 543.286639 -191.907899 
L 543.286639 -193.243044 
L 543.286639 -194.57819 
L 543.286639 -195.913335 
L 543.286639 -197.248481 
L 543.286639 -198.583626 
L 543.286639 -199.918772 
L 543.286639 -201.253917 
L 543.286639 -202.589063 
L 543.286639 -203.924208 
L 543.352047 -203.924208 
L 543.352047 -203.924208 
L 543.383899 -202.589063 
L 543.426286 -201.253917 
L 543.480357 -199.918772 
L 543.546459 -198.583626 
L 543.623884 -197.248481 
L 543.710772 -195.913335 
L 543.804219 -194.57819 
L 543.900612 -193.243044 
L 543.996122 -191.907899 
L 544.08725 -190.572753 
L 544.171279 -189.237608 
L 544.246517 -187.902462 
L 544.312259 -186.567317 
L 544.368526 -185.232171 
L 544.415679 -183.897026 
L 544.454083 -182.56188 
L 544.483953 -181.226735 
L 544.505459 -179.891589 
L 544.519073 -178.556444 
L 544.526038 -177.221298 
L 544.528808 -175.886153 
L 544.531319 -174.551007 
L 544.538959 -173.215862 
L 544.55823 -171.880716 
L 544.596128 -170.545571 
L 544.659332 -169.210425 
L 544.753348 -167.87528 
L 544.881709 -166.540134 
L 545.045359 -165.204989 
L 545.242276 -163.869843 
L 545.467348 -162.534698 
L 545.712502 -161.199552 
L 545.967062 -159.864407 
L 546.218343 -158.529261 
L 546.452542 -157.194116 
L 546.655953 -155.85897 
L 546.81656 -154.523825 
L 546.925894 -153.188679 
L 546.980937 -151.853534 
L 546.985724 -150.518388 
L 546.95223 -149.183243 
L 546.90024 -147.848097 
L 546.856055 -146.512952 
L 546.850163 -145.177806 
L 546.914206 -143.842661 
L 547.07768 -142.507515 
L 547.364811 -141.17237 
L 547.791925 -139.837224 
L 548.365507 -138.502079 
L 549.081073 -137.166933 
L 549.922965 -135.831788 
L 550.865218 -134.496642 
L 551.873674 -133.161497 
L 552.909401 -131.826351 
L 553.933285 -130.491206 
L 554.911288 -129.15606 
L 555.819621 -127.820915 
L 556.64882 -126.485769 
L 557.405841 -125.150624 
L 558.113519 -123.815478 
L 558.807292 -122.480333 
L 559.52958 -121.145187 
L 560.322711 -119.810042 
L 561.221513 -118.474896 
L 562.246743 -117.139751 
L 563.400303 -115.804605 
L 564.662879 -114.46946 
L 565.99425 -113.134314 
L 567.336106 -111.799169 
L 568.616935 -110.464023 
L 569.758287 -109.128878 
L 570.68162 -107.793732 
L 571.314965 -106.458587 
L 571.598774 -105.123441 
L 571.490544 -103.788296 
L 570.968036 -102.45315 
L 570.031069 -101.118005 
L 568.701949 -99.782859 
L 567.024515 -98.447714 
L 565.061738 -97.112568 
L 562.891749 -95.777423 
L 560.60233 -94.442277 
L 558.284149 -93.107132 
L 556.023391 -91.771986 
L 553.894778 -90.43684 
L 551.95601 -89.101695 
L 550.24456 -87.766549 
L 548.777229 -86.431404 
L 547.552331 -85.096258 
L 546.553826 -83.761113 
L 545.756381 -82.425967 
L 545.130334 -81.090822 
L 544.645744 -79.755676 
L 544.275122 -78.420531 
L 543.994813 -77.085385 
L 543.785308 -75.75024 
L 543.630897 -74.415094 
L 543.51902 -73.079949 
L 543.439624 -71.744803 
z
" style="stroke: #4c4c4c; stroke-width: 1.5"/>
    </defs>
    <g clip-path="url(#p52afd0c83a)">
     <use xlink:href="#m2be8ee4f38" x="0" y="346.2575" style="fill: #cc8963; stroke: #4c4c4c; stroke-width: 1.5"/>
    </g>
   </g>
   <g id="PolyCollection_11">
    <defs>
     <path id="m7cf70929a3" d="M 648.654805 -83.824685 
L 648.133494 -83.824685 
L 647.863609 -84.643913 
L 647.486177 -85.463142 
L 646.974143 -86.28237 
L 646.300151 -87.101599 
L 645.439117 -87.920827 
L 644.371196 -88.740056 
L 643.084742 -89.559284 
L 641.57872 -90.378513 
L 639.864053 -91.197741 
L 637.96344 -92.01697 
L 635.90947 -92.836198 
L 633.741148 -93.655427 
L 631.499352 -94.474655 
L 629.222031 -95.293884 
L 626.940153 -96.113112 
L 624.6754 -96.932341 
L 622.440309 -97.751569 
L 620.241111 -98.570798 
L 618.082905 -99.390026 
L 615.976166 -100.209255 
L 613.943181 -101.028483 
L 612.022776 -101.847712 
L 610.271953 -102.66694 
L 608.763577 -103.486169 
L 607.580093 -104.305397 
L 606.804124 -105.124626 
L 606.507538 -105.943854 
L 606.740963 -106.763083 
L 607.52566 -107.582311 
L 608.849189 -108.40154 
L 610.665513 -109.220768 
L 612.899312 -110.039997 
L 615.453523 -110.859225 
L 618.218667 -111.678454 
L 621.082417 -112.497683 
L 623.938103 -113.316911 
L 626.691268 -114.13614 
L 629.263944 -114.955368 
L 631.596736 -115.774597 
L 633.649138 -116.593825 
L 635.398596 -117.413054 
L 636.838793 -118.232282 
L 637.977497 -119.051511 
L 638.834137 -119.870739 
L 639.437177 -120.689968 
L 639.821296 -121.509196 
L 640.024478 -122.328425 
L 640.085155 -123.147653 
L 640.039668 -123.966882 
L 639.920308 -124.78611 
L 639.754153 -125.605339 
L 639.562785 -126.424567 
L 639.36282 -127.243796 
L 639.167033 -128.063024 
L 638.985806 -128.882253 
L 638.828564 -129.701481 
L 638.70494 -130.52071 
L 638.62547 -131.339938 
L 638.6017 -132.159167 
L 638.645677 -132.978395 
L 638.768887 -133.797624 
L 638.980787 -134.616852 
L 639.287166 -135.436081 
L 639.688631 -136.255309 
L 640.179556 -137.074538 
L 640.74778 -137.893766 
L 641.375206 -138.712995 
L 642.039318 -139.532223 
L 642.715388 -140.351452 
L 643.379032 -141.17068 
L 644.008658 -141.989909 
L 644.587399 -142.809137 
L 645.104225 -143.628366 
L 645.554139 -144.447594 
L 645.937541 -145.266823 
L 646.258998 -146.086051 
L 646.525754 -146.90528 
L 646.746286 -147.724508 
L 646.929152 -148.543737 
L 647.082231 -149.362965 
L 647.212371 -150.182194 
L 647.325339 -151.001422 
L 647.425952 -151.820651 
L 647.51824 -152.639879 
L 647.605557 -153.459108 
L 647.690603 -154.278336 
L 647.775352 -155.097565 
L 647.86096 -155.916793 
L 647.947693 -156.736022 
L 648.034952 -157.55525 
L 648.121397 -158.374479 
L 648.20519 -159.193708 
L 648.284295 -160.012936 
L 648.3568 -160.832165 
L 648.421185 -161.651393 
L 648.476502 -162.470622 
L 648.522446 -163.28985 
L 648.559317 -164.109079 
L 648.587899 -164.928307 
L 648.654805 -164.928307 
L 648.654805 -164.928307 
L 648.654805 -164.109079 
L 648.654805 -163.28985 
L 648.654805 -162.470622 
L 648.654805 -161.651393 
L 648.654805 -160.832165 
L 648.654805 -160.012936 
L 648.654805 -159.193708 
L 648.654805 -158.374479 
L 648.654805 -157.55525 
L 648.654805 -156.736022 
L 648.654805 -155.916793 
L 648.654805 -155.097565 
L 648.654805 -154.278336 
L 648.654805 -153.459108 
L 648.654805 -152.639879 
L 648.654805 -151.820651 
L 648.654805 -151.001422 
L 648.654805 -150.182194 
L 648.654805 -149.362965 
L 648.654805 -148.543737 
L 648.654805 -147.724508 
L 648.654805 -146.90528 
L 648.654805 -146.086051 
L 648.654805 -145.266823 
L 648.654805 -144.447594 
L 648.654805 -143.628366 
L 648.654805 -142.809137 
L 648.654805 -141.989909 
L 648.654805 -141.17068 
L 648.654805 -140.351452 
L 648.654805 -139.532223 
L 648.654805 -138.712995 
L 648.654805 -137.893766 
L 648.654805 -137.074538 
L 648.654805 -136.255309 
L 648.654805 -135.436081 
L 648.654805 -134.616852 
L 648.654805 -133.797624 
L 648.654805 -132.978395 
L 648.654805 -132.159167 
L 648.654805 -131.339938 
L 648.654805 -130.52071 
L 648.654805 -129.701481 
L 648.654805 -128.882253 
L 648.654805 -128.063024 
L 648.654805 -127.243796 
L 648.654805 -126.424567 
L 648.654805 -125.605339 
L 648.654805 -124.78611 
L 648.654805 -123.966882 
L 648.654805 -123.147653 
L 648.654805 -122.328425 
L 648.654805 -121.509196 
L 648.654805 -120.689968 
L 648.654805 -119.870739 
L 648.654805 -119.051511 
L 648.654805 -118.232282 
L 648.654805 -117.413054 
L 648.654805 -116.593825 
L 648.654805 -115.774597 
L 648.654805 -114.955368 
L 648.654805 -114.13614 
L 648.654805 -113.316911 
L 648.654805 -112.497683 
L 648.654805 -111.678454 
L 648.654805 -110.859225 
L 648.654805 -110.039997 
L 648.654805 -109.220768 
L 648.654805 -108.40154 
L 648.654805 -107.582311 
L 648.654805 -106.763083 
L 648.654805 -105.943854 
L 648.654805 -105.124626 
L 648.654805 -104.305397 
L 648.654805 -103.486169 
L 648.654805 -102.66694 
L 648.654805 -101.847712 
L 648.654805 -101.028483 
L 648.654805 -100.209255 
L 648.654805 -99.390026 
L 648.654805 -98.570798 
L 648.654805 -97.751569 
L 648.654805 -96.932341 
L 648.654805 -96.113112 
L 648.654805 -95.293884 
L 648.654805 -94.474655 
L 648.654805 -93.655427 
L 648.654805 -92.836198 
L 648.654805 -92.01697 
L 648.654805 -91.197741 
L 648.654805 -90.378513 
L 648.654805 -89.559284 
L 648.654805 -88.740056 
L 648.654805 -87.920827 
L 648.654805 -87.101599 
L 648.654805 -86.28237 
L 648.654805 -85.463142 
L 648.654805 -84.643913 
L 648.654805 -83.824685 
z
" style="stroke: #4c4c4c; stroke-width: 1.5"/>
    </defs>
    <g clip-path="url(#p52afd0c83a)">
     <use xlink:href="#m7cf70929a3" x="0" y="346.2575" style="fill: #5875a4; stroke: #4c4c4c; stroke-width: 1.5"/>
    </g>
   </g>
   <g id="PolyCollection_12">
    <defs>
     <path id="m3d27272f8b" d="M 648.881079 -69.875076 
L 648.654805 -69.875076 
L 648.654805 -71.133027 
L 648.654805 -72.390977 
L 648.654805 -73.648928 
L 648.654805 -74.906878 
L 648.654805 -76.164829 
L 648.654805 -77.42278 
L 648.654805 -78.68073 
L 648.654805 -79.938681 
L 648.654805 -81.196631 
L 648.654805 -82.454582 
L 648.654805 -83.712532 
L 648.654805 -84.970483 
L 648.654805 -86.228434 
L 648.654805 -87.486384 
L 648.654805 -88.744335 
L 648.654805 -90.002285 
L 648.654805 -91.260236 
L 648.654805 -92.518186 
L 648.654805 -93.776137 
L 648.654805 -95.034088 
L 648.654805 -96.292038 
L 648.654805 -97.549989 
L 648.654805 -98.807939 
L 648.654805 -100.06589 
L 648.654805 -101.32384 
L 648.654805 -102.581791 
L 648.654805 -103.839741 
L 648.654805 -105.097692 
L 648.654805 -106.355643 
L 648.654805 -107.613593 
L 648.654805 -108.871544 
L 648.654805 -110.129494 
L 648.654805 -111.387445 
L 648.654805 -112.645395 
L 648.654805 -113.903346 
L 648.654805 -115.161297 
L 648.654805 -116.419247 
L 648.654805 -117.677198 
L 648.654805 -118.935148 
L 648.654805 -120.193099 
L 648.654805 -121.451049 
L 648.654805 -122.709 
L 648.654805 -123.96695 
L 648.654805 -125.224901 
L 648.654805 -126.482852 
L 648.654805 -127.740802 
L 648.654805 -128.998753 
L 648.654805 -130.256703 
L 648.654805 -131.514654 
L 648.654805 -132.772604 
L 648.654805 -134.030555 
L 648.654805 -135.288506 
L 648.654805 -136.546456 
L 648.654805 -137.804407 
L 648.654805 -139.062357 
L 648.654805 -140.320308 
L 648.654805 -141.578258 
L 648.654805 -142.836209 
L 648.654805 -144.09416 
L 648.654805 -145.35211 
L 648.654805 -146.610061 
L 648.654805 -147.868011 
L 648.654805 -149.125962 
L 648.654805 -150.383912 
L 648.654805 -151.641863 
L 648.654805 -152.899813 
L 648.654805 -154.157764 
L 648.654805 -155.415715 
L 648.654805 -156.673665 
L 648.654805 -157.931616 
L 648.654805 -159.189566 
L 648.654805 -160.447517 
L 648.654805 -161.705467 
L 648.654805 -162.963418 
L 648.654805 -164.221369 
L 648.654805 -165.479319 
L 648.654805 -166.73727 
L 648.654805 -167.99522 
L 648.654805 -169.253171 
L 648.654805 -170.511121 
L 648.654805 -171.769072 
L 648.654805 -173.027022 
L 648.654805 -174.284973 
L 648.654805 -175.542924 
L 648.654805 -176.800874 
L 648.654805 -178.058825 
L 648.654805 -179.316775 
L 648.654805 -180.574726 
L 648.654805 -181.832676 
L 648.654805 -183.090627 
L 648.654805 -184.348578 
L 648.654805 -185.606528 
L 648.654805 -186.864479 
L 648.654805 -188.122429 
L 648.654805 -189.38038 
L 648.654805 -190.63833 
L 648.654805 -191.896281 
L 648.654805 -193.154232 
L 648.654805 -194.412182 
L 648.803548 -194.412182 
L 648.803548 -194.412182 
L 648.866647 -193.154232 
L 648.949792 -191.896281 
L 649.056572 -190.63833 
L 649.190235 -189.38038 
L 649.353337 -188.122429 
L 649.547366 -186.864479 
L 649.772418 -185.606528 
L 650.026944 -184.348578 
L 650.307636 -183.090627 
L 650.60947 -181.832676 
L 650.925917 -180.574726 
L 651.249317 -179.316775 
L 651.57138 -178.058825 
L 651.883772 -176.800874 
L 652.178722 -175.542924 
L 652.449609 -174.284973 
L 652.691455 -173.027022 
L 652.901304 -171.769072 
L 653.078427 -170.511121 
L 653.224347 -169.253171 
L 653.342664 -167.99522 
L 653.438693 -166.73727 
L 653.518926 -165.479319 
L 653.590379 -164.221369 
L 653.659889 -162.963418 
L 653.733429 -161.705467 
L 653.815568 -160.447517 
L 653.90912 -159.189566 
L 654.015074 -157.931616 
L 654.132806 -156.673665 
L 654.260542 -155.415715 
L 654.396003 -154.157764 
L 654.537086 -152.899813 
L 654.682468 -151.641863 
L 654.831997 -150.383912 
L 654.986793 -149.125962 
L 655.149045 -147.868011 
L 655.321565 -146.610061 
L 655.507217 -145.35211 
L 655.708371 -144.09416 
L 655.926545 -142.836209 
L 656.162336 -141.578258 
L 656.415679 -140.320308 
L 656.686391 -139.062357 
L 656.97489 -137.804407 
L 657.282905 -136.546456 
L 657.61402 -135.288506 
L 657.973905 -134.030555 
L 658.370151 -132.772604 
L 658.811718 -131.514654 
L 659.308059 -130.256703 
L 659.868061 -128.998753 
L 660.498931 -127.740802 
L 661.205195 -126.482852 
L 661.987885 -125.224901 
L 662.843989 -123.96695 
L 663.766144 -122.709 
L 664.742552 -121.451049 
L 665.757039 -120.193099 
L 666.789214 -118.935148 
L 667.814691 -117.677198 
L 668.805394 -116.419247 
L 669.729991 -115.161297 
L 670.554574 -113.903346 
L 671.243675 -112.645395 
L 671.761736 -111.387445 
L 672.075059 -110.129494 
L 672.154181 -108.871544 
L 671.976519 -107.613593 
L 671.529006 -106.355643 
L 670.810352 -105.097692 
L 669.832548 -103.839741 
L 668.621275 -102.581791 
L 667.214981 -101.32384 
L 665.662595 -100.06589 
L 664.020038 -98.807939 
L 662.3459 -97.549989 
L 660.6968 -96.292038 
L 659.123006 -95.034088 
L 657.664878 -93.776137 
L 656.350546 -92.518186 
L 655.195064 -91.260236 
L 654.201032 -90.002285 
L 653.36049 -88.744335 
L 652.657684 -87.486384 
L 652.072247 -86.228434 
L 651.582304 -84.970483 
L 651.167107 -83.712532 
L 650.808921 -82.454582 
L 650.494054 -81.196631 
L 650.213061 -79.938681 
L 649.960299 -78.68073 
L 649.733052 -77.42278 
L 649.530478 -76.164829 
L 649.3526 -74.906878 
L 649.199496 -73.648928 
L 649.070759 -72.390977 
L 648.965248 -71.133027 
L 648.881079 -69.875076 
z
" style="stroke: #4c4c4c; stroke-width: 1.5"/>
    </defs>
    <g clip-path="url(#p52afd0c83a)">
     <use xlink:href="#m3d27272f8b" x="0" y="346.2575" style="fill: #cc8963; stroke: #4c4c4c; stroke-width: 1.5"/>
    </g>
   </g>
   <g id="line2d_23">
    <path d="M 437.918473 260.765866 
L 437.918473 190.848525 
" clip-path="url(#p52afd0c83a)" style="fill: none; stroke: #4c4c4c; stroke-width: 1.5; stroke-linecap: round"/>
   </g>
   <g id="line2d_24">
    <path d="M 437.918473 249.545084 
L 437.918473 225.549715 
" clip-path="url(#p52afd0c83a)" style="fill: none; stroke: #4c4c4c; stroke-width: 4.5; stroke-linecap: round"/>
   </g>
   <g id="line2d_25">
    <path d="M 543.286639 260.765866 
L 543.286639 193.630743 
" clip-path="url(#p52afd0c83a)" style="fill: none; stroke: #4c4c4c; stroke-width: 1.5; stroke-linecap: round"/>
   </g>
   <g id="line2d_26">
    <path d="M 543.286639 248.40037 
L 543.286639 226.223089 
" clip-path="url(#p52afd0c83a)" style="fill: none; stroke: #4c4c4c; stroke-width: 4.5; stroke-linecap: round"/>
   </g>
   <g id="line2d_27">
    <path d="M 648.654805 260.765866 
L 648.654805 190.469829 
" clip-path="url(#p52afd0c83a)" style="fill: none; stroke: #4c4c4c; stroke-width: 1.5; stroke-linecap: round"/>
   </g>
   <g id="line2d_28">
    <path d="M 648.654805 242.094565 
L 648.654805 221.042482 
" clip-path="url(#p52afd0c83a)" style="fill: none; stroke: #4c4c4c; stroke-width: 4.5; stroke-linecap: round"/>
   </g>
   <g id="patch_10">
    <path d="M 385.23439 302.991875 
L 385.23439 22.318125 
" style="fill: none; stroke: #262626; stroke-width: 1.25; stroke-linejoin: miter; stroke-linecap: square"/>
   </g>
   <g id="patch_11">
    <path d="M 385.23439 302.991875 
L 701.338888 302.991875 
" style="fill: none; stroke: #262626; stroke-width: 1.25; stroke-linejoin: miter; stroke-linecap: square"/>
   </g>
   <g id="PathCollection_4">
    <g clip-path="url(#p52afd0c83a)">
     <use xlink:href="#m911adc05d2" x="437.918473" y="244.19461" style="fill: #ffffff; stroke: #4c4c4c"/>
    </g>
   </g>
   <g id="PathCollection_5">
    <g clip-path="url(#p52afd0c83a)">
     <use xlink:href="#m911adc05d2" x="543.286639" y="241.841017" style="fill: #ffffff; stroke: #4c4c4c"/>
    </g>
   </g>
   <g id="PathCollection_6">
    <g clip-path="url(#p52afd0c83a)">
     <use xlink:href="#m911adc05d2" x="648.654805" y="236.318228" style="fill: #ffffff; stroke: #4c4c4c"/>
    </g>
   </g>
   <g id="text_16">
    <!-- Dyn_obs = 10.0 -->
    <g style="fill: #262626" transform="translate(495.506014 16.318125)scale(0.12 -0.12)">
     <use xlink:href="#DejaVuSans-44"/>
     <use xlink:href="#DejaVuSans-79" x="77.001953"/>
     <use xlink:href="#DejaVuSans-6e" x="136.181641"/>
     <use xlink:href="#DejaVuSans-5f" x="199.560547"/>
     <use xlink:href="#DejaVuSans-6f" x="249.560547"/>
     <use xlink:href="#DejaVuSans-62" x="310.742188"/>
     <use xlink:href="#DejaVuSans-73" x="374.21875"/>
     <use xlink:href="#DejaVuSans-20" x="426.318359"/>
     <use xlink:href="#DejaVuSans-3d" x="458.105469"/>
     <use xlink:href="#DejaVuSans-20" x="541.894531"/>
     <use xlink:href="#DejaVuSans-31" x="573.681641"/>
     <use xlink:href="#DejaVuSans-30" x="637.304688"/>
     <use xlink:href="#DejaVuSans-2e" x="700.927734"/>
     <use xlink:href="#DejaVuSans-30" x="732.714844"/>
    </g>
   </g>
  </g>
  <g id="legend_1">
   <g id="text_17">
    <!-- dim -->
    <g style="fill: #262626" transform="translate(720.763559 160.294062)scale(0.12 -0.12)">
     <use xlink:href="#DejaVuSans-64"/>
     <use xlink:href="#DejaVuSans-69" x="63.476562"/>
     <use xlink:href="#DejaVuSans-6d" x="91.259766"/>
    </g>
   </g>
   <g id="patch_12">
    <path d="M 709.692856 176.647969 
L 731.692856 176.647969 
L 731.692856 168.947969 
L 709.692856 168.947969 
z
" style="fill: #5875a4; stroke: #4c4c4c; stroke-width: 0.75; stroke-linejoin: miter"/>
   </g>
   <g id="text_18">
    <!-- 2d -->
    <g style="fill: #262626" transform="translate(740.492856 176.647969)scale(0.11 -0.11)">
     <use xlink:href="#DejaVuSans-32"/>
     <use xlink:href="#DejaVuSans-64" x="63.623047"/>
    </g>
   </g>
   <g id="patch_13">
    <path d="M 709.692856 192.793906 
L 731.692856 192.793906 
L 731.692856 185.093906 
L 709.692856 185.093906 
z
" style="fill: #cc8963; stroke: #4c4c4c; stroke-width: 0.75; stroke-linejoin: miter"/>
   </g>
   <g id="text_19">
    <!-- 3d -->
    <g style="fill: #262626" transform="translate(740.492856 192.793906)scale(0.11 -0.11)">
     <defs>
      <path id="DejaVuSans-33" d="M 2597 2516 
Q 3050 2419 3304 2112 
Q 3559 1806 3559 1356 
Q 3559 666 3084 287 
Q 2609 -91 1734 -91 
Q 1441 -91 1130 -33 
Q 819 25 488 141 
L 488 750 
Q 750 597 1062 519 
Q 1375 441 1716 441 
Q 2309 441 2620 675 
Q 2931 909 2931 1356 
Q 2931 1769 2642 2001 
Q 2353 2234 1838 2234 
L 1294 2234 
L 1294 2753 
L 1863 2753 
Q 2328 2753 2575 2939 
Q 2822 3125 2822 3475 
Q 2822 3834 2567 4026 
Q 2313 4219 1838 4219 
Q 1578 4219 1281 4162 
Q 984 4106 628 3988 
L 628 4550 
Q 988 4650 1302 4700 
Q 1616 4750 1894 4750 
Q 2613 4750 3031 4423 
Q 3450 4097 3450 3541 
Q 3450 3153 3228 2886 
Q 3006 2619 2597 2516 
z
" transform="scale(0.015625)"/>
     </defs>
     <use xlink:href="#DejaVuSans-33"/>
     <use xlink:href="#DejaVuSans-64" x="63.623047"/>
    </g>
   </g>
  </g>
 </g>
 <defs>
  <clipPath id="p38ab16c67b">
   <rect x="50.140938" y="22.318125" width="316.104498" height="280.67375"/>
  </clipPath>
  <clipPath id="p52afd0c83a">
   <rect x="385.23439" y="22.318125" width="316.104498" height="280.67375"/>
  </clipPath>
 </defs>
</svg>
