<?xml version="1.0" encoding="utf-8" standalone="no"?>
<!DOCTYPE svg PUBLIC "-//W3C//DTD SVG 1.1//EN"
  "http://www.w3.org/Graphics/SVG/1.1/DTD/svg11.dtd">
<svg xmlns:xlink="http://www.w3.org/1999/xlink" width="764.041137pt" height="346.2575pt" viewBox="0 0 764.041137 346.2575" xmlns="http://www.w3.org/2000/svg" version="1.1">
 <metadata>
  <rdf:RDF xmlns:dc="http://purl.org/dc/elements/1.1/" xmlns:cc="http://creativecommons.org/ns#" xmlns:rdf="http://www.w3.org/1999/02/22-rdf-syntax-ns#">
   <cc:Work>
    <dc:type rdf:resource="http://purl.org/dc/dcmitype/StillImage"/>
    <dc:date>2022-03-24T23:54:21.643253</dc:date>
    <dc:format>image/svg+xml</dc:format>
    <dc:creator>
     <cc:Agent>
      <dc:title>Matplotlib v3.5.1, https://matplotlib.org/</dc:title>
     </cc:Agent>
    </dc:creator>
   </cc:Work>
  </rdf:RDF>
 </metadata>
 <defs>
  <style type="text/css">*{stroke-linejoin: round; stroke-linecap: butt}</style>
 </defs>
 <g id="figure_1">
  <g id="patch_1">
   <path d="M 0 346.2575 
L 764.041137 346.2575 
L 764.041137 0 
L 0 0 
z
" style="fill: #ffffff"/>
  </g>
  <g id="axes_1">
   <g id="patch_2">
    <path d="M 49.807188 302.991875 
L 365.911685 302.991875 
L 365.911685 22.318125 
L 49.807188 22.318125 
z
" style="fill: #ffffff"/>
   </g>
   <g id="matplotlib.axis_1">
    <g id="xtick_1">
     <g id="line2d_1">
      <defs>
       <path id="m93e5fd00f2" d="M 0 0 
L 0 6 
" style="stroke: #262626; stroke-width: 1.25"/>
      </defs>
      <g>
       <use xlink:href="#m93e5fd00f2" x="102.49127" y="302.991875" style="fill: #262626; stroke: #262626; stroke-width: 1.25"/>
      </g>
     </g>
     <g id="text_1">
      <!-- map2 -->
      <g style="fill: #262626" transform="translate(86.772442 320.850156)scale(0.11 -0.11)">
       <defs>
        <path id="DejaVuSans-6d" d="M 3328 2828 
Q 3544 3216 3844 3400 
Q 4144 3584 4550 3584 
Q 5097 3584 5394 3201 
Q 5691 2819 5691 2113 
L 5691 0 
L 5113 0 
L 5113 2094 
Q 5113 2597 4934 2840 
Q 4756 3084 4391 3084 
Q 3944 3084 3684 2787 
Q 3425 2491 3425 1978 
L 3425 0 
L 2847 0 
L 2847 2094 
Q 2847 2600 2669 2842 
Q 2491 3084 2119 3084 
Q 1678 3084 1418 2786 
Q 1159 2488 1159 1978 
L 1159 0 
L 581 0 
L 581 3500 
L 1159 3500 
L 1159 2956 
Q 1356 3278 1631 3431 
Q 1906 3584 2284 3584 
Q 2666 3584 2933 3390 
Q 3200 3197 3328 2828 
z
" transform="scale(0.015625)"/>
        <path id="DejaVuSans-61" d="M 2194 1759 
Q 1497 1759 1228 1600 
Q 959 1441 959 1056 
Q 959 750 1161 570 
Q 1363 391 1709 391 
Q 2188 391 2477 730 
Q 2766 1069 2766 1631 
L 2766 1759 
L 2194 1759 
z
M 3341 1997 
L 3341 0 
L 2766 0 
L 2766 531 
Q 2569 213 2275 61 
Q 1981 -91 1556 -91 
Q 1019 -91 701 211 
Q 384 513 384 1019 
Q 384 1609 779 1909 
Q 1175 2209 1959 2209 
L 2766 2209 
L 2766 2266 
Q 2766 2663 2505 2880 
Q 2244 3097 1772 3097 
Q 1472 3097 1187 3025 
Q 903 2953 641 2809 
L 641 3341 
Q 956 3463 1253 3523 
Q 1550 3584 1831 3584 
Q 2591 3584 2966 3190 
Q 3341 2797 3341 1997 
z
" transform="scale(0.015625)"/>
        <path id="DejaVuSans-70" d="M 1159 525 
L 1159 -1331 
L 581 -1331 
L 581 3500 
L 1159 3500 
L 1159 2969 
Q 1341 3281 1617 3432 
Q 1894 3584 2278 3584 
Q 2916 3584 3314 3078 
Q 3713 2572 3713 1747 
Q 3713 922 3314 415 
Q 2916 -91 2278 -91 
Q 1894 -91 1617 61 
Q 1341 213 1159 525 
z
M 3116 1747 
Q 3116 2381 2855 2742 
Q 2594 3103 2138 3103 
Q 1681 3103 1420 2742 
Q 1159 2381 1159 1747 
Q 1159 1113 1420 752 
Q 1681 391 2138 391 
Q 2594 391 2855 752 
Q 3116 1113 3116 1747 
z
" transform="scale(0.015625)"/>
        <path id="DejaVuSans-32" d="M 1228 531 
L 3431 531 
L 3431 0 
L 469 0 
L 469 531 
Q 828 903 1448 1529 
Q 2069 2156 2228 2338 
Q 2531 2678 2651 2914 
Q 2772 3150 2772 3378 
Q 2772 3750 2511 3984 
Q 2250 4219 1831 4219 
Q 1534 4219 1204 4116 
Q 875 4013 500 3803 
L 500 4441 
Q 881 4594 1212 4672 
Q 1544 4750 1819 4750 
Q 2544 4750 2975 4387 
Q 3406 4025 3406 3419 
Q 3406 3131 3298 2873 
Q 3191 2616 2906 2266 
Q 2828 2175 2409 1742 
Q 1991 1309 1228 531 
z
" transform="scale(0.015625)"/>
       </defs>
       <use xlink:href="#DejaVuSans-6d"/>
       <use xlink:href="#DejaVuSans-61" x="97.412109"/>
       <use xlink:href="#DejaVuSans-70" x="158.691406"/>
       <use xlink:href="#DejaVuSans-32" x="222.167969"/>
      </g>
     </g>
    </g>
    <g id="xtick_2">
     <g id="line2d_2">
      <g>
       <use xlink:href="#m93e5fd00f2" x="207.859436" y="302.991875" style="fill: #262626; stroke: #262626; stroke-width: 1.25"/>
      </g>
     </g>
     <g id="text_2">
      <!-- map5 -->
      <g style="fill: #262626" transform="translate(192.140608 320.850156)scale(0.11 -0.11)">
       <defs>
        <path id="DejaVuSans-35" d="M 691 4666 
L 3169 4666 
L 3169 4134 
L 1269 4134 
L 1269 2991 
Q 1406 3038 1543 3061 
Q 1681 3084 1819 3084 
Q 2600 3084 3056 2656 
Q 3513 2228 3513 1497 
Q 3513 744 3044 326 
Q 2575 -91 1722 -91 
Q 1428 -91 1123 -41 
Q 819 9 494 109 
L 494 744 
Q 775 591 1075 516 
Q 1375 441 1709 441 
Q 2250 441 2565 725 
Q 2881 1009 2881 1497 
Q 2881 1984 2565 2268 
Q 2250 2553 1709 2553 
Q 1456 2553 1204 2497 
Q 953 2441 691 2322 
L 691 4666 
z
" transform="scale(0.015625)"/>
       </defs>
       <use xlink:href="#DejaVuSans-6d"/>
       <use xlink:href="#DejaVuSans-61" x="97.412109"/>
       <use xlink:href="#DejaVuSans-70" x="158.691406"/>
       <use xlink:href="#DejaVuSans-35" x="222.167969"/>
      </g>
     </g>
    </g>
    <g id="xtick_3">
     <g id="line2d_3">
      <g>
       <use xlink:href="#m93e5fd00f2" x="313.227602" y="302.991875" style="fill: #262626; stroke: #262626; stroke-width: 1.25"/>
      </g>
     </g>
     <g id="text_3">
      <!-- small_warehouse -->
      <g style="fill: #262626" transform="translate(265.852837 320.850156)scale(0.11 -0.11)">
       <defs>
        <path id="DejaVuSans-73" d="M 2834 3397 
L 2834 2853 
Q 2591 2978 2328 3040 
Q 2066 3103 1784 3103 
Q 1356 3103 1142 2972 
Q 928 2841 928 2578 
Q 928 2378 1081 2264 
Q 1234 2150 1697 2047 
L 1894 2003 
Q 2506 1872 2764 1633 
Q 3022 1394 3022 966 
Q 3022 478 2636 193 
Q 2250 -91 1575 -91 
Q 1294 -91 989 -36 
Q 684 19 347 128 
L 347 722 
Q 666 556 975 473 
Q 1284 391 1588 391 
Q 1994 391 2212 530 
Q 2431 669 2431 922 
Q 2431 1156 2273 1281 
Q 2116 1406 1581 1522 
L 1381 1569 
Q 847 1681 609 1914 
Q 372 2147 372 2553 
Q 372 3047 722 3315 
Q 1072 3584 1716 3584 
Q 2034 3584 2315 3537 
Q 2597 3491 2834 3397 
z
" transform="scale(0.015625)"/>
        <path id="DejaVuSans-6c" d="M 603 4863 
L 1178 4863 
L 1178 0 
L 603 0 
L 603 4863 
z
" transform="scale(0.015625)"/>
        <path id="DejaVuSans-5f" d="M 3263 -1063 
L 3263 -1509 
L -63 -1509 
L -63 -1063 
L 3263 -1063 
z
" transform="scale(0.015625)"/>
        <path id="DejaVuSans-77" d="M 269 3500 
L 844 3500 
L 1563 769 
L 2278 3500 
L 2956 3500 
L 3675 769 
L 4391 3500 
L 4966 3500 
L 4050 0 
L 3372 0 
L 2619 2869 
L 1863 0 
L 1184 0 
L 269 3500 
z
" transform="scale(0.015625)"/>
        <path id="DejaVuSans-72" d="M 2631 2963 
Q 2534 3019 2420 3045 
Q 2306 3072 2169 3072 
Q 1681 3072 1420 2755 
Q 1159 2438 1159 1844 
L 1159 0 
L 581 0 
L 581 3500 
L 1159 3500 
L 1159 2956 
Q 1341 3275 1631 3429 
Q 1922 3584 2338 3584 
Q 2397 3584 2469 3576 
Q 2541 3569 2628 3553 
L 2631 2963 
z
" transform="scale(0.015625)"/>
        <path id="DejaVuSans-65" d="M 3597 1894 
L 3597 1613 
L 953 1613 
Q 991 1019 1311 708 
Q 1631 397 2203 397 
Q 2534 397 2845 478 
Q 3156 559 3463 722 
L 3463 178 
Q 3153 47 2828 -22 
Q 2503 -91 2169 -91 
Q 1331 -91 842 396 
Q 353 884 353 1716 
Q 353 2575 817 3079 
Q 1281 3584 2069 3584 
Q 2775 3584 3186 3129 
Q 3597 2675 3597 1894 
z
M 3022 2063 
Q 3016 2534 2758 2815 
Q 2500 3097 2075 3097 
Q 1594 3097 1305 2825 
Q 1016 2553 972 2059 
L 3022 2063 
z
" transform="scale(0.015625)"/>
        <path id="DejaVuSans-68" d="M 3513 2113 
L 3513 0 
L 2938 0 
L 2938 2094 
Q 2938 2591 2744 2837 
Q 2550 3084 2163 3084 
Q 1697 3084 1428 2787 
Q 1159 2491 1159 1978 
L 1159 0 
L 581 0 
L 581 4863 
L 1159 4863 
L 1159 2956 
Q 1366 3272 1645 3428 
Q 1925 3584 2291 3584 
Q 2894 3584 3203 3211 
Q 3513 2838 3513 2113 
z
" transform="scale(0.015625)"/>
        <path id="DejaVuSans-6f" d="M 1959 3097 
Q 1497 3097 1228 2736 
Q 959 2375 959 1747 
Q 959 1119 1226 758 
Q 1494 397 1959 397 
Q 2419 397 2687 759 
Q 2956 1122 2956 1747 
Q 2956 2369 2687 2733 
Q 2419 3097 1959 3097 
z
M 1959 3584 
Q 2709 3584 3137 3096 
Q 3566 2609 3566 1747 
Q 3566 888 3137 398 
Q 2709 -91 1959 -91 
Q 1206 -91 779 398 
Q 353 888 353 1747 
Q 353 2609 779 3096 
Q 1206 3584 1959 3584 
z
" transform="scale(0.015625)"/>
        <path id="DejaVuSans-75" d="M 544 1381 
L 544 3500 
L 1119 3500 
L 1119 1403 
Q 1119 906 1312 657 
Q 1506 409 1894 409 
Q 2359 409 2629 706 
Q 2900 1003 2900 1516 
L 2900 3500 
L 3475 3500 
L 3475 0 
L 2900 0 
L 2900 538 
Q 2691 219 2414 64 
Q 2138 -91 1772 -91 
Q 1169 -91 856 284 
Q 544 659 544 1381 
z
M 1991 3584 
L 1991 3584 
z
" transform="scale(0.015625)"/>
       </defs>
       <use xlink:href="#DejaVuSans-73"/>
       <use xlink:href="#DejaVuSans-6d" x="52.099609"/>
       <use xlink:href="#DejaVuSans-61" x="149.511719"/>
       <use xlink:href="#DejaVuSans-6c" x="210.791016"/>
       <use xlink:href="#DejaVuSans-6c" x="238.574219"/>
       <use xlink:href="#DejaVuSans-5f" x="266.357422"/>
       <use xlink:href="#DejaVuSans-77" x="316.357422"/>
       <use xlink:href="#DejaVuSans-61" x="398.144531"/>
       <use xlink:href="#DejaVuSans-72" x="459.423828"/>
       <use xlink:href="#DejaVuSans-65" x="498.287109"/>
       <use xlink:href="#DejaVuSans-68" x="559.810547"/>
       <use xlink:href="#DejaVuSans-6f" x="623.189453"/>
       <use xlink:href="#DejaVuSans-75" x="684.371094"/>
       <use xlink:href="#DejaVuSans-73" x="747.75"/>
       <use xlink:href="#DejaVuSans-65" x="799.849609"/>
      </g>
     </g>
    </g>
    <g id="text_4">
     <!-- World -->
     <g style="fill: #262626" transform="translate(190.665686 336.561875)scale(0.12 -0.12)">
      <defs>
       <path id="DejaVuSans-57" d="M 213 4666 
L 850 4666 
L 1831 722 
L 2809 4666 
L 3519 4666 
L 4500 722 
L 5478 4666 
L 6119 4666 
L 4947 0 
L 4153 0 
L 3169 4050 
L 2175 0 
L 1381 0 
L 213 4666 
z
" transform="scale(0.015625)"/>
       <path id="DejaVuSans-64" d="M 2906 2969 
L 2906 4863 
L 3481 4863 
L 3481 0 
L 2906 0 
L 2906 525 
Q 2725 213 2448 61 
Q 2172 -91 1784 -91 
Q 1150 -91 751 415 
Q 353 922 353 1747 
Q 353 2572 751 3078 
Q 1150 3584 1784 3584 
Q 2172 3584 2448 3432 
Q 2725 3281 2906 2969 
z
M 947 1747 
Q 947 1113 1208 752 
Q 1469 391 1925 391 
Q 2381 391 2643 752 
Q 2906 1113 2906 1747 
Q 2906 2381 2643 2742 
Q 2381 3103 1925 3103 
Q 1469 3103 1208 2742 
Q 947 2381 947 1747 
z
" transform="scale(0.015625)"/>
      </defs>
      <use xlink:href="#DejaVuSans-57"/>
      <use xlink:href="#DejaVuSans-6f" x="93.001953"/>
      <use xlink:href="#DejaVuSans-72" x="154.183594"/>
      <use xlink:href="#DejaVuSans-6c" x="195.296875"/>
      <use xlink:href="#DejaVuSans-64" x="223.080078"/>
     </g>
    </g>
   </g>
   <g id="matplotlib.axis_2">
    <g id="ytick_1">
     <g id="line2d_4">
      <defs>
       <path id="maa7aa7a9e9" d="M 0 0 
L -6 0 
" style="stroke: #262626; stroke-width: 1.25"/>
      </defs>
      <g>
       <use xlink:href="#maa7aa7a9e9" x="49.807188" y="268.350681" style="fill: #262626; stroke: #262626; stroke-width: 1.25"/>
      </g>
     </g>
     <g id="text_5">
      <!-- 0.0 -->
      <g style="fill: #262626" transform="translate(22.81375 272.529821)scale(0.11 -0.11)">
       <defs>
        <path id="DejaVuSans-30" d="M 2034 4250 
Q 1547 4250 1301 3770 
Q 1056 3291 1056 2328 
Q 1056 1369 1301 889 
Q 1547 409 2034 409 
Q 2525 409 2770 889 
Q 3016 1369 3016 2328 
Q 3016 3291 2770 3770 
Q 2525 4250 2034 4250 
z
M 2034 4750 
Q 2819 4750 3233 4129 
Q 3647 3509 3647 2328 
Q 3647 1150 3233 529 
Q 2819 -91 2034 -91 
Q 1250 -91 836 529 
Q 422 1150 422 2328 
Q 422 3509 836 4129 
Q 1250 4750 2034 4750 
z
" transform="scale(0.015625)"/>
        <path id="DejaVuSans-2e" d="M 684 794 
L 1344 794 
L 1344 0 
L 684 0 
L 684 794 
z
" transform="scale(0.015625)"/>
       </defs>
       <use xlink:href="#DejaVuSans-30"/>
       <use xlink:href="#DejaVuSans-2e" x="63.623047"/>
       <use xlink:href="#DejaVuSans-30" x="95.410156"/>
      </g>
     </g>
    </g>
    <g id="ytick_2">
     <g id="line2d_5">
      <g>
       <use xlink:href="#maa7aa7a9e9" x="49.807188" y="217.699223" style="fill: #262626; stroke: #262626; stroke-width: 1.25"/>
      </g>
     </g>
     <g id="text_6">
      <!-- 0.2 -->
      <g style="fill: #262626" transform="translate(22.81375 221.878364)scale(0.11 -0.11)">
       <use xlink:href="#DejaVuSans-30"/>
       <use xlink:href="#DejaVuSans-2e" x="63.623047"/>
       <use xlink:href="#DejaVuSans-32" x="95.410156"/>
      </g>
     </g>
    </g>
    <g id="ytick_3">
     <g id="line2d_6">
      <g>
       <use xlink:href="#maa7aa7a9e9" x="49.807188" y="167.047766" style="fill: #262626; stroke: #262626; stroke-width: 1.25"/>
      </g>
     </g>
     <g id="text_7">
      <!-- 0.4 -->
      <g style="fill: #262626" transform="translate(22.81375 171.226906)scale(0.11 -0.11)">
       <defs>
        <path id="DejaVuSans-34" d="M 2419 4116 
L 825 1625 
L 2419 1625 
L 2419 4116 
z
M 2253 4666 
L 3047 4666 
L 3047 1625 
L 3713 1625 
L 3713 1100 
L 3047 1100 
L 3047 0 
L 2419 0 
L 2419 1100 
L 313 1100 
L 313 1709 
L 2253 4666 
z
" transform="scale(0.015625)"/>
       </defs>
       <use xlink:href="#DejaVuSans-30"/>
       <use xlink:href="#DejaVuSans-2e" x="63.623047"/>
       <use xlink:href="#DejaVuSans-34" x="95.410156"/>
      </g>
     </g>
    </g>
    <g id="ytick_4">
     <g id="line2d_7">
      <g>
       <use xlink:href="#maa7aa7a9e9" x="49.807188" y="116.396308" style="fill: #262626; stroke: #262626; stroke-width: 1.25"/>
      </g>
     </g>
     <g id="text_8">
      <!-- 0.6 -->
      <g style="fill: #262626" transform="translate(22.81375 120.575449)scale(0.11 -0.11)">
       <defs>
        <path id="DejaVuSans-36" d="M 2113 2584 
Q 1688 2584 1439 2293 
Q 1191 2003 1191 1497 
Q 1191 994 1439 701 
Q 1688 409 2113 409 
Q 2538 409 2786 701 
Q 3034 994 3034 1497 
Q 3034 2003 2786 2293 
Q 2538 2584 2113 2584 
z
M 3366 4563 
L 3366 3988 
Q 3128 4100 2886 4159 
Q 2644 4219 2406 4219 
Q 1781 4219 1451 3797 
Q 1122 3375 1075 2522 
Q 1259 2794 1537 2939 
Q 1816 3084 2150 3084 
Q 2853 3084 3261 2657 
Q 3669 2231 3669 1497 
Q 3669 778 3244 343 
Q 2819 -91 2113 -91 
Q 1303 -91 875 529 
Q 447 1150 447 2328 
Q 447 3434 972 4092 
Q 1497 4750 2381 4750 
Q 2619 4750 2861 4703 
Q 3103 4656 3366 4563 
z
" transform="scale(0.015625)"/>
       </defs>
       <use xlink:href="#DejaVuSans-30"/>
       <use xlink:href="#DejaVuSans-2e" x="63.623047"/>
       <use xlink:href="#DejaVuSans-36" x="95.410156"/>
      </g>
     </g>
    </g>
    <g id="ytick_5">
     <g id="line2d_8">
      <g>
       <use xlink:href="#maa7aa7a9e9" x="49.807188" y="65.744851" style="fill: #262626; stroke: #262626; stroke-width: 1.25"/>
      </g>
     </g>
     <g id="text_9">
      <!-- 0.8 -->
      <g style="fill: #262626" transform="translate(22.81375 69.923991)scale(0.11 -0.11)">
       <defs>
        <path id="DejaVuSans-38" d="M 2034 2216 
Q 1584 2216 1326 1975 
Q 1069 1734 1069 1313 
Q 1069 891 1326 650 
Q 1584 409 2034 409 
Q 2484 409 2743 651 
Q 3003 894 3003 1313 
Q 3003 1734 2745 1975 
Q 2488 2216 2034 2216 
z
M 1403 2484 
Q 997 2584 770 2862 
Q 544 3141 544 3541 
Q 544 4100 942 4425 
Q 1341 4750 2034 4750 
Q 2731 4750 3128 4425 
Q 3525 4100 3525 3541 
Q 3525 3141 3298 2862 
Q 3072 2584 2669 2484 
Q 3125 2378 3379 2068 
Q 3634 1759 3634 1313 
Q 3634 634 3220 271 
Q 2806 -91 2034 -91 
Q 1263 -91 848 271 
Q 434 634 434 1313 
Q 434 1759 690 2068 
Q 947 2378 1403 2484 
z
M 1172 3481 
Q 1172 3119 1398 2916 
Q 1625 2713 2034 2713 
Q 2441 2713 2670 2916 
Q 2900 3119 2900 3481 
Q 2900 3844 2670 4047 
Q 2441 4250 2034 4250 
Q 1625 4250 1398 4047 
Q 1172 3844 1172 3481 
z
" transform="scale(0.015625)"/>
       </defs>
       <use xlink:href="#DejaVuSans-30"/>
       <use xlink:href="#DejaVuSans-2e" x="63.623047"/>
       <use xlink:href="#DejaVuSans-38" x="95.410156"/>
      </g>
     </g>
    </g>
    <g id="text_10">
     <!-- roughness -->
     <g style="fill: #262626" transform="translate(16.318125 193.8175)rotate(-90)scale(0.12 -0.12)">
      <defs>
       <path id="DejaVuSans-67" d="M 2906 1791 
Q 2906 2416 2648 2759 
Q 2391 3103 1925 3103 
Q 1463 3103 1205 2759 
Q 947 2416 947 1791 
Q 947 1169 1205 825 
Q 1463 481 1925 481 
Q 2391 481 2648 825 
Q 2906 1169 2906 1791 
z
M 3481 434 
Q 3481 -459 3084 -895 
Q 2688 -1331 1869 -1331 
Q 1566 -1331 1297 -1286 
Q 1028 -1241 775 -1147 
L 775 -588 
Q 1028 -725 1275 -790 
Q 1522 -856 1778 -856 
Q 2344 -856 2625 -561 
Q 2906 -266 2906 331 
L 2906 616 
Q 2728 306 2450 153 
Q 2172 0 1784 0 
Q 1141 0 747 490 
Q 353 981 353 1791 
Q 353 2603 747 3093 
Q 1141 3584 1784 3584 
Q 2172 3584 2450 3431 
Q 2728 3278 2906 2969 
L 2906 3500 
L 3481 3500 
L 3481 434 
z
" transform="scale(0.015625)"/>
       <path id="DejaVuSans-6e" d="M 3513 2113 
L 3513 0 
L 2938 0 
L 2938 2094 
Q 2938 2591 2744 2837 
Q 2550 3084 2163 3084 
Q 1697 3084 1428 2787 
Q 1159 2491 1159 1978 
L 1159 0 
L 581 0 
L 581 3500 
L 1159 3500 
L 1159 2956 
Q 1366 3272 1645 3428 
Q 1925 3584 2291 3584 
Q 2894 3584 3203 3211 
Q 3513 2838 3513 2113 
z
" transform="scale(0.015625)"/>
      </defs>
      <use xlink:href="#DejaVuSans-72"/>
      <use xlink:href="#DejaVuSans-6f" x="38.863281"/>
      <use xlink:href="#DejaVuSans-75" x="100.044922"/>
      <use xlink:href="#DejaVuSans-67" x="163.423828"/>
      <use xlink:href="#DejaVuSans-68" x="226.900391"/>
      <use xlink:href="#DejaVuSans-6e" x="290.279297"/>
      <use xlink:href="#DejaVuSans-65" x="353.658203"/>
      <use xlink:href="#DejaVuSans-73" x="415.181641"/>
      <use xlink:href="#DejaVuSans-73" x="467.28125"/>
     </g>
    </g>
   </g>
   <g id="patch_3">
    <path d="M 102.49127 268.350681 
L 102.49127 268.350681 
L 102.49127 268.350681 
L 102.49127 268.350681 
z
" clip-path="url(#pab5a9093f0)" style="fill: #5875a4; stroke: #4c4c4c; stroke-width: 0.75; stroke-linejoin: miter"/>
   </g>
   <g id="PolyCollection_1">
    <defs>
     <path id="m5e63de7040" d="M 102.49127 -75.152826 
L 100.535297 -75.152826 
L 98.706407 -75.784777 
L 95.751973 -76.416727 
L 91.43692 -77.048678 
L 85.766493 -77.680628 
L 79.116313 -78.312578 
L 72.257427 -78.944529 
L 66.220567 -79.576479 
L 62.020235 -80.20843 
L 60.344004 -80.84038 
L 61.346689 -81.47233 
L 64.641632 -82.104281 
L 69.47894 -82.736231 
L 75.0099 -83.368181 
L 80.513397 -84.000132 
L 85.507618 -84.632082 
L 89.745401 -85.264033 
L 93.14397 -85.895983 
L 95.70795 -86.527933 
L 97.481 -87.159884 
L 98.531613 -87.791834 
L 98.959892 -88.423785 
L 98.907202 -89.055735 
L 98.554328 -89.687685 
L 98.101712 -90.319636 
L 97.734726 -90.951586 
L 97.585548 -91.583536 
L 97.707072 -92.215487 
L 98.070521 -92.847437 
L 98.588184 -93.479388 
L 99.15149 -94.111338 
L 99.668841 -94.743288 
L 100.089685 -95.375239 
L 100.409006 -96.007189 
L 100.654787 -96.639139 
L 100.866698 -97.27109 
L 101.075811 -97.90304 
L 101.293021 -98.534991 
L 101.509109 -99.166941 
L 101.704102 -99.798891 
L 101.859905 -100.430842 
L 101.969737 -101.062792 
L 102.040476 -101.694743 
L 102.088009 -102.326693 
L 102.128976 -102.958643 
L 102.173429 -103.590594 
L 102.221683 -104.222544 
L 102.266081 -104.854494 
L 102.295978 -105.486445 
L 102.303347 -106.118395 
L 102.286776 -106.750346 
L 102.252714 -107.382296 
L 102.213747 -108.014246 
L 102.184519 -108.646197 
L 102.176697 -109.278147 
L 102.195006 -109.910098 
L 102.236079 -110.542048 
L 102.290557 -111.173998 
L 102.347214 -111.805949 
L 102.396946 -112.437899 
L 102.434931 -113.069849 
L 102.460575 -113.7018 
L 102.476015 -114.33375 
L 102.484355 -114.965701 
L 102.488411 -115.597651 
L 102.490192 -116.229601 
L 102.490899 -116.861552 
L 102.491154 -117.493502 
L 102.491237 -118.125452 
L 102.491262 -118.757403 
L 102.491268 -119.389353 
L 102.49127 -120.021304 
L 102.49127 -120.653254 
L 102.49127 -121.285204 
L 102.49127 -121.917155 
L 102.49127 -122.549105 
L 102.491269 -123.181056 
L 102.491265 -123.813006 
L 102.491248 -124.444956 
L 102.49119 -125.076907 
L 102.491006 -125.708857 
L 102.49048 -126.340807 
L 102.489115 -126.972758 
L 102.485913 -127.604708 
L 102.479122 -128.236659 
L 102.466142 -128.868609 
L 102.44386 -129.500559 
L 102.409678 -130.13251 
L 102.363187 -130.76446 
L 102.307868 -131.396411 
L 102.251728 -132.028361 
L 102.205887 -132.660311 
L 102.181142 -133.292262 
L 102.183858 -133.924212 
L 102.213319 -134.556162 
L 102.262034 -135.188113 
L 102.318819 -135.820063 
L 102.372935 -136.452014 
L 102.417202 -137.083964 
L 102.448983 -137.715914 
L 102.49127 -137.715914 
L 102.49127 -137.715914 
L 102.49127 -137.083964 
L 102.49127 -136.452014 
L 102.49127 -135.820063 
L 102.49127 -135.188113 
L 102.49127 -134.556162 
L 102.49127 -133.924212 
L 102.49127 -133.292262 
L 102.49127 -132.660311 
L 102.49127 -132.028361 
L 102.49127 -131.396411 
L 102.49127 -130.76446 
L 102.49127 -130.13251 
L 102.49127 -129.500559 
L 102.49127 -128.868609 
L 102.49127 -128.236659 
L 102.49127 -127.604708 
L 102.49127 -126.972758 
L 102.49127 -126.340807 
L 102.49127 -125.708857 
L 102.49127 -125.076907 
L 102.49127 -124.444956 
L 102.49127 -123.813006 
L 102.49127 -123.181056 
L 102.49127 -122.549105 
L 102.49127 -121.917155 
L 102.49127 -121.285204 
L 102.49127 -120.653254 
L 102.49127 -120.021304 
L 102.49127 -119.389353 
L 102.49127 -118.757403 
L 102.49127 -118.125452 
L 102.49127 -117.493502 
L 102.49127 -116.861552 
L 102.49127 -116.229601 
L 102.49127 -115.597651 
L 102.49127 -114.965701 
L 102.49127 -114.33375 
L 102.49127 -113.7018 
L 102.49127 -113.069849 
L 102.49127 -112.437899 
L 102.49127 -111.805949 
L 102.49127 -111.173998 
L 102.49127 -110.542048 
L 102.49127 -109.910098 
L 102.49127 -109.278147 
L 102.49127 -108.646197 
L 102.49127 -108.014246 
L 102.49127 -107.382296 
L 102.49127 -106.750346 
L 102.49127 -106.118395 
L 102.49127 -105.486445 
L 102.49127 -104.854494 
L 102.49127 -104.222544 
L 102.49127 -103.590594 
L 102.49127 -102.958643 
L 102.49127 -102.326693 
L 102.49127 -101.694743 
L 102.49127 -101.062792 
L 102.49127 -100.430842 
L 102.49127 -99.798891 
L 102.49127 -99.166941 
L 102.49127 -98.534991 
L 102.49127 -97.90304 
L 102.49127 -97.27109 
L 102.49127 -96.639139 
L 102.49127 -96.007189 
L 102.49127 -95.375239 
L 102.49127 -94.743288 
L 102.49127 -94.111338 
L 102.49127 -93.479388 
L 102.49127 -92.847437 
L 102.49127 -92.215487 
L 102.49127 -91.583536 
L 102.49127 -90.951586 
L 102.49127 -90.319636 
L 102.49127 -89.687685 
L 102.49127 -89.055735 
L 102.49127 -88.423785 
L 102.49127 -87.791834 
L 102.49127 -87.159884 
L 102.49127 -86.527933 
L 102.49127 -85.895983 
L 102.49127 -85.264033 
L 102.49127 -84.632082 
L 102.49127 -84.000132 
L 102.49127 -83.368181 
L 102.49127 -82.736231 
L 102.49127 -82.104281 
L 102.49127 -81.47233 
L 102.49127 -80.84038 
L 102.49127 -80.20843 
L 102.49127 -79.576479 
L 102.49127 -78.944529 
L 102.49127 -78.312578 
L 102.49127 -77.680628 
L 102.49127 -77.048678 
L 102.49127 -76.416727 
L 102.49127 -75.784777 
L 102.49127 -75.152826 
z
" style="stroke: #4c4c4c; stroke-width: 1.5"/>
    </defs>
    <g clip-path="url(#pab5a9093f0)">
     <use xlink:href="#m5e63de7040" x="0" y="346.2575" style="fill: #5875a4; stroke: #4c4c4c; stroke-width: 1.5"/>
    </g>
   </g>
   <g id="patch_4">
    <path d="M 102.49127 268.350681 
L 102.49127 268.350681 
L 102.49127 268.350681 
L 102.49127 268.350681 
z
" clip-path="url(#pab5a9093f0)" style="fill: #cc8963; stroke: #4c4c4c; stroke-width: 0.75; stroke-linejoin: miter"/>
   </g>
   <g id="PolyCollection_2">
    <defs>
     <path id="ma653c03820" d="M 103.085076 -71.406285 
L 102.49127 -71.406285 
L 102.49127 -72.189849 
L 102.49127 -72.973413 
L 102.49127 -73.756977 
L 102.49127 -74.540542 
L 102.49127 -75.324106 
L 102.49127 -76.10767 
L 102.49127 -76.891234 
L 102.49127 -77.674799 
L 102.49127 -78.458363 
L 102.49127 -79.241927 
L 102.49127 -80.025491 
L 102.49127 -80.809056 
L 102.49127 -81.59262 
L 102.49127 -82.376184 
L 102.49127 -83.159748 
L 102.49127 -83.943313 
L 102.49127 -84.726877 
L 102.49127 -85.510441 
L 102.49127 -86.294005 
L 102.49127 -87.07757 
L 102.49127 -87.861134 
L 102.49127 -88.644698 
L 102.49127 -89.428262 
L 102.49127 -90.211827 
L 102.49127 -90.995391 
L 102.49127 -91.778955 
L 102.49127 -92.562519 
L 102.49127 -93.346084 
L 102.49127 -94.129648 
L 102.49127 -94.913212 
L 102.49127 -95.696776 
L 102.49127 -96.480341 
L 102.49127 -97.263905 
L 102.49127 -98.047469 
L 102.49127 -98.831033 
L 102.49127 -99.614598 
L 102.49127 -100.398162 
L 102.49127 -101.181726 
L 102.49127 -101.96529 
L 102.49127 -102.748855 
L 102.49127 -103.532419 
L 102.49127 -104.315983 
L 102.49127 -105.099547 
L 102.49127 -105.883112 
L 102.49127 -106.666676 
L 102.49127 -107.45024 
L 102.49127 -108.233805 
L 102.49127 -109.017369 
L 102.49127 -109.800933 
L 102.49127 -110.584497 
L 102.49127 -111.368062 
L 102.49127 -112.151626 
L 102.49127 -112.93519 
L 102.49127 -113.718754 
L 102.49127 -114.502319 
L 102.49127 -115.285883 
L 102.49127 -116.069447 
L 102.49127 -116.853011 
L 102.49127 -117.636576 
L 102.49127 -118.42014 
L 102.49127 -119.203704 
L 102.49127 -119.987268 
L 102.49127 -120.770833 
L 102.49127 -121.554397 
L 102.49127 -122.337961 
L 102.49127 -123.121525 
L 102.49127 -123.90509 
L 102.49127 -124.688654 
L 102.49127 -125.472218 
L 102.49127 -126.255782 
L 102.49127 -127.039347 
L 102.49127 -127.822911 
L 102.49127 -128.606475 
L 102.49127 -129.390039 
L 102.49127 -130.173604 
L 102.49127 -130.957168 
L 102.49127 -131.740732 
L 102.49127 -132.524296 
L 102.49127 -133.307861 
L 102.49127 -134.091425 
L 102.49127 -134.874989 
L 102.49127 -135.658553 
L 102.49127 -136.442118 
L 102.49127 -137.225682 
L 102.49127 -138.009246 
L 102.49127 -138.79281 
L 102.49127 -139.576375 
L 102.49127 -140.359939 
L 102.49127 -141.143503 
L 102.49127 -141.927067 
L 102.49127 -142.710632 
L 102.49127 -143.494196 
L 102.49127 -144.27776 
L 102.49127 -145.061324 
L 102.49127 -145.844889 
L 102.49127 -146.628453 
L 102.49127 -147.412017 
L 102.49127 -148.195581 
L 102.49127 -148.979146 
L 102.5267 -148.979146 
L 102.5267 -148.979146 
L 102.548775 -148.195581 
L 102.579615 -147.412017 
L 102.619779 -146.628453 
L 102.668324 -145.844889 
L 102.722424 -145.061324 
L 102.777429 -144.27776 
L 102.827513 -143.494196 
L 102.866856 -142.710632 
L 102.89106 -141.927067 
L 102.898344 -141.143503 
L 102.890056 -140.359939 
L 102.87026 -139.576375 
L 102.844475 -138.79281 
L 102.818009 -138.009246 
L 102.794455 -137.225682 
L 102.774902 -136.442118 
L 102.758076 -135.658553 
L 102.741301 -134.874989 
L 102.721812 -134.091425 
L 102.697916 -133.307861 
L 102.669586 -132.524296 
L 102.638356 -131.740732 
L 102.606696 -130.957168 
L 102.577191 -130.173604 
L 102.551847 -129.390039 
L 102.531743 -128.606475 
L 102.517046 -127.822911 
L 102.507293 -127.039347 
L 102.501778 -126.255782 
L 102.49991 -125.472218 
L 102.501464 -124.688654 
L 102.506689 -123.90509 
L 102.516257 -123.121525 
L 102.531079 -122.337961 
L 102.552012 -121.554397 
L 102.579525 -120.770833 
L 102.613426 -119.987268 
L 102.652769 -119.203704 
L 102.696003 -118.42014 
L 102.741321 -117.636576 
L 102.78707 -116.853011 
L 102.832007 -116.069447 
L 102.875282 -115.285883 
L 102.916172 -114.502319 
L 102.953766 -113.718754 
L 102.986852 -112.93519 
L 103.014137 -112.151626 
L 103.03469 -111.368062 
L 103.048331 -110.584497 
L 103.055672 -109.800933 
L 103.057768 -109.017369 
L 103.055616 -108.233805 
L 103.049972 -107.45024 
L 103.041848 -106.666676 
L 103.03373 -105.883112 
L 103.031086 -105.099547 
L 103.043436 -104.315983 
L 103.084266 -103.532419 
L 103.169349 -102.748855 
L 103.313624 -101.96529 
L 103.527307 -101.181726 
L 103.81236 -100.398162 
L 104.160494 -99.614598 
L 104.55365 -98.831033 
L 104.967243 -98.047469 
L 105.375682 -97.263905 
L 105.758902 -96.480341 
L 106.108243 -95.696776 
L 106.430109 -94.913212 
L 106.746423 -94.129648 
L 107.091857 -93.346084 
L 107.508803 -92.562519 
L 108.04162 -91.778955 
L 108.731774 -90.995391 
L 109.614831 -90.211827 
L 110.719159 -89.428262 
L 112.06509 -88.644698 
L 113.662551 -87.861134 
L 115.505332 -87.07757 
L 117.561355 -86.294005 
L 119.760532 -85.510441 
L 121.984407 -84.726877 
L 124.063645 -83.943313 
L 125.789254 -83.159748 
L 126.940149 -82.376184 
L 127.323852 -81.59262 
L 126.820717 -80.809056 
L 125.418279 -80.025491 
L 123.223457 -79.241927 
L 120.446843 -78.458363 
L 117.362614 -77.674799 
L 114.255801 -76.891234 
L 111.372183 -76.10767 
L 108.883733 -75.324106 
L 106.875962 -74.540542 
L 105.355774 -73.756977 
L 104.272876 -72.973413 
L 103.545804 -72.189849 
L 103.085076 -71.406285 
z
" style="stroke: #4c4c4c; stroke-width: 1.5"/>
    </defs>
    <g clip-path="url(#pab5a9093f0)">
     <use xlink:href="#ma653c03820" x="0" y="346.2575" style="fill: #cc8963; stroke: #4c4c4c; stroke-width: 1.5"/>
    </g>
   </g>
   <g id="PolyCollection_3">
    <defs>
     <path id="ma901d91745" d="M 207.859436 -65.845622 
L 204.151719 -65.845622 
L 200.085913 -68.323762 
L 193.649973 -70.801902 
L 185.173319 -73.280042 
L 176.149217 -75.758182 
L 168.930896 -78.236322 
L 165.71217 -80.714462 
L 167.39939 -83.192602 
L 173.188415 -85.670742 
L 181.116035 -88.148882 
L 189.096104 -90.627022 
L 195.718062 -93.105162 
L 200.465057 -95.583301 
L 203.487143 -98.061441 
L 205.238347 -100.539581 
L 206.191358 -103.017721 
L 206.696869 -105.495861 
L 206.965192 -107.974001 
L 207.111467 -110.452141 
L 207.20513 -112.930281 
L 207.292177 -115.408421 
L 207.394528 -117.886561 
L 207.507494 -120.364701 
L 207.60776 -122.842841 
L 207.667996 -125.320981 
L 207.668858 -127.799121 
L 207.6052 -130.277261 
L 207.488948 -132.755401 
L 207.34928 -135.233541 
L 207.226622 -137.711681 
L 207.158638 -140.189821 
L 207.163779 -142.667961 
L 207.232576 -145.1461 
L 207.33314 -147.62424 
L 207.428244 -150.10238 
L 207.49414 -152.58052 
L 207.530151 -155.05866 
L 207.553746 -157.5368 
L 207.585362 -160.01494 
L 207.634258 -162.49308 
L 207.694911 -164.97122 
L 207.754077 -167.44936 
L 207.800688 -169.9275 
L 207.830996 -172.40564 
L 207.847499 -174.88378 
L 207.855094 -177.36192 
L 207.858068 -179.84006 
L 207.859063 -182.3182 
L 207.859348 -184.79634 
L 207.859418 -187.27448 
L 207.859433 -189.75262 
L 207.859436 -192.23076 
L 207.859436 -194.7089 
L 207.859436 -197.187039 
L 207.859436 -199.665179 
L 207.859436 -202.143319 
L 207.859436 -204.621459 
L 207.859436 -207.099599 
L 207.859436 -209.577739 
L 207.859436 -212.055879 
L 207.859436 -214.534019 
L 207.859436 -217.012159 
L 207.859436 -219.490299 
L 207.859436 -221.968439 
L 207.859436 -224.446579 
L 207.859436 -226.924719 
L 207.859436 -229.402859 
L 207.859436 -231.880999 
L 207.859436 -234.359139 
L 207.859436 -236.837279 
L 207.859436 -239.315419 
L 207.859436 -241.793559 
L 207.859436 -244.271699 
L 207.859436 -246.749839 
L 207.859436 -249.227978 
L 207.859436 -251.706118 
L 207.859436 -254.184258 
L 207.859436 -256.662398 
L 207.859436 -259.140538 
L 207.859436 -261.618678 
L 207.859436 -264.096818 
L 207.859434 -266.574958 
L 207.859423 -269.053098 
L 207.85937 -271.531238 
L 207.859148 -274.009378 
L 207.85835 -276.487518 
L 207.855897 -278.965658 
L 207.849447 -281.443798 
L 207.835012 -283.921938 
L 207.807711 -286.400078 
L 207.76455 -288.878218 
L 207.708669 -291.356358 
L 207.651934 -293.834498 
L 207.612067 -296.312638 
L 207.604002 -298.790778 
L 207.630971 -301.268917 
L 207.682437 -303.747057 
L 207.74066 -306.225197 
L 207.790397 -308.703337 
L 207.824677 -311.181477 
L 207.859436 -311.181477 
L 207.859436 -311.181477 
L 207.859436 -308.703337 
L 207.859436 -306.225197 
L 207.859436 -303.747057 
L 207.859436 -301.268917 
L 207.859436 -298.790778 
L 207.859436 -296.312638 
L 207.859436 -293.834498 
L 207.859436 -291.356358 
L 207.859436 -288.878218 
L 207.859436 -286.400078 
L 207.859436 -283.921938 
L 207.859436 -281.443798 
L 207.859436 -278.965658 
L 207.859436 -276.487518 
L 207.859436 -274.009378 
L 207.859436 -271.531238 
L 207.859436 -269.053098 
L 207.859436 -266.574958 
L 207.859436 -264.096818 
L 207.859436 -261.618678 
L 207.859436 -259.140538 
L 207.859436 -256.662398 
L 207.859436 -254.184258 
L 207.859436 -251.706118 
L 207.859436 -249.227978 
L 207.859436 -246.749839 
L 207.859436 -244.271699 
L 207.859436 -241.793559 
L 207.859436 -239.315419 
L 207.859436 -236.837279 
L 207.859436 -234.359139 
L 207.859436 -231.880999 
L 207.859436 -229.402859 
L 207.859436 -226.924719 
L 207.859436 -224.446579 
L 207.859436 -221.968439 
L 207.859436 -219.490299 
L 207.859436 -217.012159 
L 207.859436 -214.534019 
L 207.859436 -212.055879 
L 207.859436 -209.577739 
L 207.859436 -207.099599 
L 207.859436 -204.621459 
L 207.859436 -202.143319 
L 207.859436 -199.665179 
L 207.859436 -197.187039 
L 207.859436 -194.7089 
L 207.859436 -192.23076 
L 207.859436 -189.75262 
L 207.859436 -187.27448 
L 207.859436 -184.79634 
L 207.859436 -182.3182 
L 207.859436 -179.84006 
L 207.859436 -177.36192 
L 207.859436 -174.88378 
L 207.859436 -172.40564 
L 207.859436 -169.9275 
L 207.859436 -167.44936 
L 207.859436 -164.97122 
L 207.859436 -162.49308 
L 207.859436 -160.01494 
L 207.859436 -157.5368 
L 207.859436 -155.05866 
L 207.859436 -152.58052 
L 207.859436 -150.10238 
L 207.859436 -147.62424 
L 207.859436 -145.1461 
L 207.859436 -142.667961 
L 207.859436 -140.189821 
L 207.859436 -137.711681 
L 207.859436 -135.233541 
L 207.859436 -132.755401 
L 207.859436 -130.277261 
L 207.859436 -127.799121 
L 207.859436 -125.320981 
L 207.859436 -122.842841 
L 207.859436 -120.364701 
L 207.859436 -117.886561 
L 207.859436 -115.408421 
L 207.859436 -112.930281 
L 207.859436 -110.452141 
L 207.859436 -107.974001 
L 207.859436 -105.495861 
L 207.859436 -103.017721 
L 207.859436 -100.539581 
L 207.859436 -98.061441 
L 207.859436 -95.583301 
L 207.859436 -93.105162 
L 207.859436 -90.627022 
L 207.859436 -88.148882 
L 207.859436 -85.670742 
L 207.859436 -83.192602 
L 207.859436 -80.714462 
L 207.859436 -78.236322 
L 207.859436 -75.758182 
L 207.859436 -73.280042 
L 207.859436 -70.801902 
L 207.859436 -68.323762 
L 207.859436 -65.845622 
z
" style="stroke: #4c4c4c; stroke-width: 1.5"/>
    </defs>
    <g clip-path="url(#pab5a9093f0)">
     <use xlink:href="#ma901d91745" x="0" y="346.2575" style="fill: #5875a4; stroke: #4c4c4c; stroke-width: 1.5"/>
    </g>
   </g>
   <g id="PolyCollection_4">
    <defs>
     <path id="m177733ca91" d="M 209.030355 -56.023523 
L 207.859436 -56.023523 
L 207.859436 -58.491544 
L 207.859436 -60.959566 
L 207.859436 -63.427588 
L 207.859436 -65.89561 
L 207.859436 -68.363631 
L 207.859436 -70.831653 
L 207.859436 -73.299675 
L 207.859436 -75.767696 
L 207.859436 -78.235718 
L 207.859436 -80.70374 
L 207.859436 -83.171762 
L 207.859436 -85.639783 
L 207.859436 -88.107805 
L 207.859436 -90.575827 
L 207.859436 -93.043848 
L 207.859436 -95.51187 
L 207.859436 -97.979892 
L 207.859436 -100.447914 
L 207.859436 -102.915935 
L 207.859436 -105.383957 
L 207.859436 -107.851979 
L 207.859436 -110.32 
L 207.859436 -112.788022 
L 207.859436 -115.256044 
L 207.859436 -117.724065 
L 207.859436 -120.192087 
L 207.859436 -122.660109 
L 207.859436 -125.128131 
L 207.859436 -127.596152 
L 207.859436 -130.064174 
L 207.859436 -132.532196 
L 207.859436 -135.000217 
L 207.859436 -137.468239 
L 207.859436 -139.936261 
L 207.859436 -142.404283 
L 207.859436 -144.872304 
L 207.859436 -147.340326 
L 207.859436 -149.808348 
L 207.859436 -152.276369 
L 207.859436 -154.744391 
L 207.859436 -157.212413 
L 207.859436 -159.680435 
L 207.859436 -162.148456 
L 207.859436 -164.616478 
L 207.859436 -167.0845 
L 207.859436 -169.552521 
L 207.859436 -172.020543 
L 207.859436 -174.488565 
L 207.859436 -176.956586 
L 207.859436 -179.424608 
L 207.859436 -181.89263 
L 207.859436 -184.360652 
L 207.859436 -186.828673 
L 207.859436 -189.296695 
L 207.859436 -191.764717 
L 207.859436 -194.232738 
L 207.859436 -196.70076 
L 207.859436 -199.168782 
L 207.859436 -201.636804 
L 207.859436 -204.104825 
L 207.859436 -206.572847 
L 207.859436 -209.040869 
L 207.859436 -211.50889 
L 207.859436 -213.976912 
L 207.859436 -216.444934 
L 207.859436 -218.912956 
L 207.859436 -221.380977 
L 207.859436 -223.848999 
L 207.859436 -226.317021 
L 207.859436 -228.785042 
L 207.859436 -231.253064 
L 207.859436 -233.721086 
L 207.859436 -236.189108 
L 207.859436 -238.657129 
L 207.859436 -241.125151 
L 207.859436 -243.593173 
L 207.859436 -246.061194 
L 207.859436 -248.529216 
L 207.859436 -250.997238 
L 207.859436 -253.465259 
L 207.859436 -255.933281 
L 207.859436 -258.401303 
L 207.859436 -260.869325 
L 207.859436 -263.337346 
L 207.859436 -265.805368 
L 207.859436 -268.27339 
L 207.859436 -270.741411 
L 207.859436 -273.209433 
L 207.859436 -275.677455 
L 207.859436 -278.145477 
L 207.859436 -280.613498 
L 207.859436 -283.08152 
L 207.859436 -285.549542 
L 207.859436 -288.017563 
L 207.859436 -290.485585 
L 207.859436 -292.953607 
L 207.859436 -295.421629 
L 207.859436 -297.88965 
L 207.859436 -300.357672 
L 207.88239 -300.357672 
L 207.88239 -300.357672 
L 207.895337 -297.88965 
L 207.913034 -295.421629 
L 207.935872 -292.953607 
L 207.963639 -290.485585 
L 207.995353 -288.017563 
L 208.029195 -285.549542 
L 208.062636 -283.08152 
L 208.092714 -280.613498 
L 208.116458 -278.145477 
L 208.131349 -275.677455 
L 208.135739 -273.209433 
L 208.129132 -270.741411 
L 208.112273 -268.27339 
L 208.087016 -265.805368 
L 208.056008 -263.337346 
L 208.022259 -260.869325 
L 207.988678 -258.401303 
L 207.957681 -255.933281 
L 207.93094 -253.465259 
L 207.909323 -250.997238 
L 207.89299 -248.529216 
L 207.881611 -246.061194 
L 207.874635 -243.593173 
L 207.871535 -241.125151 
L 207.871976 -238.657129 
L 207.875886 -236.189108 
L 207.883409 -233.721086 
L 207.894757 -231.253064 
L 207.910005 -228.785042 
L 207.928881 -226.317021 
L 207.950638 -223.848999 
L 207.974093 -221.380977 
L 207.997864 -218.912956 
L 208.020791 -216.444934 
L 208.042413 -213.976912 
L 208.063342 -211.50889 
L 208.085361 -209.040869 
L 208.111135 -206.572847 
L 208.143595 -204.104825 
L 208.185179 -201.636804 
L 208.23718 -199.168782 
L 208.299479 -196.70076 
L 208.370734 -194.232738 
L 208.448977 -191.764717 
L 208.532332 -189.296695 
L 208.619557 -186.828673 
L 208.710138 -184.360652 
L 208.803884 -181.89263 
L 208.900155 -179.424608 
L 208.997063 -176.956586 
L 209.090976 -174.488565 
L 209.17661 -172.020543 
L 209.247748 -169.552521 
L 209.298415 -167.0845 
L 209.324146 -164.616478 
L 209.322972 -162.148456 
L 209.295814 -159.680435 
L 209.246268 -157.212413 
L 209.179932 -154.744391 
L 209.10364 -152.276369 
L 209.024854 -149.808348 
L 208.951344 -147.340326 
L 208.891013 -144.872304 
L 208.851612 -142.404283 
L 208.840163 -139.936261 
L 208.862139 -137.468239 
L 208.92069 -135.000217 
L 209.016407 -132.532196 
L 209.148006 -130.064174 
L 209.314108 -127.596152 
L 209.515885 -125.128131 
L 209.760074 -122.660109 
L 210.061681 -120.192087 
L 210.445678 -117.724065 
L 210.947146 -115.256044 
L 211.609436 -112.788022 
L 212.480056 -110.32 
L 213.604091 -107.851979 
L 215.015131 -105.383957 
L 216.724104 -102.915935 
L 218.707178 -100.447914 
L 220.895045 -97.979892 
L 223.166985 -95.51187 
L 225.353617 -93.043848 
L 227.251389 -90.575827 
L 228.649229 -88.107805 
L 229.363887 -85.639783 
L 229.276469 -83.171762 
L 228.360467 -80.70374 
L 226.692484 -78.235718 
L 224.441241 -75.767696 
L 221.836912 -73.299675 
L 219.128844 -70.831653 
L 216.543016 -68.363631 
L 214.249767 -65.89561 
L 212.348131 -63.427588 
L 210.867395 -60.959566 
L 209.781614 -58.491544 
L 209.030355 -56.023523 
z
" style="stroke: #4c4c4c; stroke-width: 1.5"/>
    </defs>
    <g clip-path="url(#pab5a9093f0)">
     <use xlink:href="#m177733ca91" x="0" y="346.2575" style="fill: #cc8963; stroke: #4c4c4c; stroke-width: 1.5"/>
    </g>
   </g>
   <g id="PolyCollection_5">
    <defs>
     <path id="m53c78283e8" d="M 313.227602 -68.816184 
L 310.876307 -68.816184 
L 308.687757 -70.467382 
L 305.209583 -72.118581 
L 300.259982 -73.76978 
L 293.996612 -75.420979 
L 287.033447 -77.072178 
L 280.391961 -78.723377 
L 275.251933 -80.374575 
L 272.581631 -82.025774 
L 272.813742 -83.676973 
L 275.722676 -85.328172 
L 280.550827 -86.979371 
L 286.300744 -88.63057 
L 292.043496 -90.281768 
L 297.121128 -91.932967 
L 301.204134 -93.584166 
L 304.23936 -95.235365 
L 306.351845 -96.886564 
L 307.750035 -98.537763 
L 308.655366 -100.188961 
L 309.257761 -101.84016 
L 309.693269 -103.491359 
L 310.040908 -105.142558 
L 310.334752 -106.793757 
L 310.583689 -108.444956 
L 310.789703 -110.096154 
L 310.958528 -111.747353 
L 311.102053 -113.398552 
L 311.235696 -115.049751 
L 311.374355 -116.70095 
L 311.528769 -118.352148 
L 311.702727 -120.003347 
L 311.891426 -121.654546 
L 312.081715 -123.305745 
L 312.254852 -124.956944 
L 312.391589 -126.608143 
L 312.478302 -128.259341 
L 312.512146 -129.91054 
L 312.503127 -131.561739 
L 312.471888 -133.212938 
L 312.443705 -134.864137 
L 312.440905 -136.515336 
L 312.476618 -138.166534 
L 312.551964 -139.817733 
L 312.657128 -141.468932 
L 312.77528 -143.120131 
L 312.8876 -144.77133 
L 312.977835 -146.422529 
L 313.035423 -148.073727 
L 313.05702 -149.724926 
L 313.046706 -151.376125 
L 313.015052 -153.027324 
L 312.976903 -154.678523 
L 312.947762 -156.329722 
L 312.939414 -157.98092 
L 312.95643 -159.632119 
L 312.995284 -161.283318 
L 313.046617 -162.934517 
L 313.099451 -164.585716 
L 313.14514 -166.236915 
L 313.179384 -167.888113 
L 313.201982 -169.539312 
L 313.215232 -171.190511 
L 313.222175 -172.84171 
L 313.225439 -174.492909 
L 313.226819 -176.144107 
L 313.227344 -177.795306 
L 313.227525 -179.446505 
L 313.227581 -181.097704 
L 313.227597 -182.748903 
L 313.227601 -184.400102 
L 313.227602 -186.0513 
L 313.227602 -187.702499 
L 313.227602 -189.353698 
L 313.227602 -191.004897 
L 313.227602 -192.656096 
L 313.227602 -194.307295 
L 313.2276 -195.958493 
L 313.227591 -197.609692 
L 313.227558 -199.260891 
L 313.227448 -200.91209 
L 313.227113 -202.563289 
L 313.226193 -204.214488 
L 313.223918 -205.865686 
L 313.218848 -207.516885 
L 313.208701 -209.168084 
L 313.190521 -210.819283 
L 313.161497 -212.470482 
L 313.120517 -214.121681 
L 313.069975 -215.772879 
L 313.016767 -217.424078 
L 312.971352 -219.075277 
L 312.944596 -220.726476 
L 312.943589 -222.377675 
L 312.968607 -224.028873 
L 313.01299 -225.680072 
L 313.066008 -227.331271 
L 313.117039 -228.98247 
L 313.158863 -230.633669 
L 313.188769 -232.284868 
L 313.227602 -232.284868 
L 313.227602 -232.284868 
L 313.227602 -230.633669 
L 313.227602 -228.98247 
L 313.227602 -227.331271 
L 313.227602 -225.680072 
L 313.227602 -224.028873 
L 313.227602 -222.377675 
L 313.227602 -220.726476 
L 313.227602 -219.075277 
L 313.227602 -217.424078 
L 313.227602 -215.772879 
L 313.227602 -214.121681 
L 313.227602 -212.470482 
L 313.227602 -210.819283 
L 313.227602 -209.168084 
L 313.227602 -207.516885 
L 313.227602 -205.865686 
L 313.227602 -204.214488 
L 313.227602 -202.563289 
L 313.227602 -200.91209 
L 313.227602 -199.260891 
L 313.227602 -197.609692 
L 313.227602 -195.958493 
L 313.227602 -194.307295 
L 313.227602 -192.656096 
L 313.227602 -191.004897 
L 313.227602 -189.353698 
L 313.227602 -187.702499 
L 313.227602 -186.0513 
L 313.227602 -184.400102 
L 313.227602 -182.748903 
L 313.227602 -181.097704 
L 313.227602 -179.446505 
L 313.227602 -177.795306 
L 313.227602 -176.144107 
L 313.227602 -174.492909 
L 313.227602 -172.84171 
L 313.227602 -171.190511 
L 313.227602 -169.539312 
L 313.227602 -167.888113 
L 313.227602 -166.236915 
L 313.227602 -164.585716 
L 313.227602 -162.934517 
L 313.227602 -161.283318 
L 313.227602 -159.632119 
L 313.227602 -157.98092 
L 313.227602 -156.329722 
L 313.227602 -154.678523 
L 313.227602 -153.027324 
L 313.227602 -151.376125 
L 313.227602 -149.724926 
L 313.227602 -148.073727 
L 313.227602 -146.422529 
L 313.227602 -144.77133 
L 313.227602 -143.120131 
L 313.227602 -141.468932 
L 313.227602 -139.817733 
L 313.227602 -138.166534 
L 313.227602 -136.515336 
L 313.227602 -134.864137 
L 313.227602 -133.212938 
L 313.227602 -131.561739 
L 313.227602 -129.91054 
L 313.227602 -128.259341 
L 313.227602 -126.608143 
L 313.227602 -124.956944 
L 313.227602 -123.305745 
L 313.227602 -121.654546 
L 313.227602 -120.003347 
L 313.227602 -118.352148 
L 313.227602 -116.70095 
L 313.227602 -115.049751 
L 313.227602 -113.398552 
L 313.227602 -111.747353 
L 313.227602 -110.096154 
L 313.227602 -108.444956 
L 313.227602 -106.793757 
L 313.227602 -105.142558 
L 313.227602 -103.491359 
L 313.227602 -101.84016 
L 313.227602 -100.188961 
L 313.227602 -98.537763 
L 313.227602 -96.886564 
L 313.227602 -95.235365 
L 313.227602 -93.584166 
L 313.227602 -91.932967 
L 313.227602 -90.281768 
L 313.227602 -88.63057 
L 313.227602 -86.979371 
L 313.227602 -85.328172 
L 313.227602 -83.676973 
L 313.227602 -82.025774 
L 313.227602 -80.374575 
L 313.227602 -78.723377 
L 313.227602 -77.072178 
L 313.227602 -75.420979 
L 313.227602 -73.76978 
L 313.227602 -72.118581 
L 313.227602 -70.467382 
L 313.227602 -68.816184 
z
" style="stroke: #4c4c4c; stroke-width: 1.5"/>
    </defs>
    <g clip-path="url(#pab5a9093f0)">
     <use xlink:href="#m53c78283e8" x="0" y="346.2575" style="fill: #5875a4; stroke: #4c4c4c; stroke-width: 1.5"/>
    </g>
   </g>
   <g id="PolyCollection_6">
    <defs>
     <path id="m7f563710b5" d="M 313.69011 -71.475643 
L 313.227602 -71.475643 
L 313.227602 -72.404983 
L 313.227602 -73.334323 
L 313.227602 -74.263663 
L 313.227602 -75.193003 
L 313.227602 -76.122343 
L 313.227602 -77.051683 
L 313.227602 -77.981023 
L 313.227602 -78.910362 
L 313.227602 -79.839702 
L 313.227602 -80.769042 
L 313.227602 -81.698382 
L 313.227602 -82.627722 
L 313.227602 -83.557062 
L 313.227602 -84.486402 
L 313.227602 -85.415742 
L 313.227602 -86.345082 
L 313.227602 -87.274422 
L 313.227602 -88.203762 
L 313.227602 -89.133101 
L 313.227602 -90.062441 
L 313.227602 -90.991781 
L 313.227602 -91.921121 
L 313.227602 -92.850461 
L 313.227602 -93.779801 
L 313.227602 -94.709141 
L 313.227602 -95.638481 
L 313.227602 -96.567821 
L 313.227602 -97.497161 
L 313.227602 -98.426501 
L 313.227602 -99.35584 
L 313.227602 -100.28518 
L 313.227602 -101.21452 
L 313.227602 -102.14386 
L 313.227602 -103.0732 
L 313.227602 -104.00254 
L 313.227602 -104.93188 
L 313.227602 -105.86122 
L 313.227602 -106.79056 
L 313.227602 -107.7199 
L 313.227602 -108.64924 
L 313.227602 -109.578579 
L 313.227602 -110.507919 
L 313.227602 -111.437259 
L 313.227602 -112.366599 
L 313.227602 -113.295939 
L 313.227602 -114.225279 
L 313.227602 -115.154619 
L 313.227602 -116.083959 
L 313.227602 -117.013299 
L 313.227602 -117.942639 
L 313.227602 -118.871979 
L 313.227602 -119.801319 
L 313.227602 -120.730658 
L 313.227602 -121.659998 
L 313.227602 -122.589338 
L 313.227602 -123.518678 
L 313.227602 -124.448018 
L 313.227602 -125.377358 
L 313.227602 -126.306698 
L 313.227602 -127.236038 
L 313.227602 -128.165378 
L 313.227602 -129.094718 
L 313.227602 -130.024058 
L 313.227602 -130.953397 
L 313.227602 -131.882737 
L 313.227602 -132.812077 
L 313.227602 -133.741417 
L 313.227602 -134.670757 
L 313.227602 -135.600097 
L 313.227602 -136.529437 
L 313.227602 -137.458777 
L 313.227602 -138.388117 
L 313.227602 -139.317457 
L 313.227602 -140.246797 
L 313.227602 -141.176136 
L 313.227602 -142.105476 
L 313.227602 -143.034816 
L 313.227602 -143.964156 
L 313.227602 -144.893496 
L 313.227602 -145.822836 
L 313.227602 -146.752176 
L 313.227602 -147.681516 
L 313.227602 -148.610856 
L 313.227602 -149.540196 
L 313.227602 -150.469536 
L 313.227602 -151.398875 
L 313.227602 -152.328215 
L 313.227602 -153.257555 
L 313.227602 -154.186895 
L 313.227602 -155.116235 
L 313.227602 -156.045575 
L 313.227602 -156.974915 
L 313.227602 -157.904255 
L 313.227602 -158.833595 
L 313.227602 -159.762935 
L 313.227602 -160.692275 
L 313.227602 -161.621614 
L 313.227602 -162.550954 
L 313.227602 -163.480294 
L 313.292041 -163.480294 
L 313.292041 -163.480294 
L 313.337766 -162.550954 
L 313.400846 -161.621614 
L 313.478213 -160.692275 
L 313.56108 -159.762935 
L 313.635789 -158.833595 
L 313.687198 -157.904255 
L 313.703614 -156.974915 
L 313.681108 -156.045575 
L 313.625044 -155.116235 
L 313.547999 -154.186895 
L 313.465192 -153.257555 
L 313.389668 -152.328215 
L 313.329293 -151.398875 
L 313.286296 -150.469536 
L 313.258765 -149.540196 
L 313.242822 -148.610856 
L 313.23444 -147.681516 
L 313.230428 -146.752176 
L 313.228676 -145.822836 
L 313.227978 -144.893496 
L 313.227723 -143.964156 
L 313.227638 -143.034816 
L 313.227612 -142.105476 
L 313.227605 -141.176136 
L 313.227603 -140.246797 
L 313.227603 -139.317457 
L 313.227604 -138.388117 
L 313.227608 -137.458777 
L 313.227623 -136.529437 
L 313.227675 -135.600097 
L 313.227839 -134.670757 
L 313.228307 -133.741417 
L 313.229541 -132.812077 
L 313.23252 -131.882737 
L 313.239125 -130.953397 
L 313.252568 -130.024058 
L 313.277713 -129.094718 
L 313.320983 -128.165378 
L 313.389605 -127.236038 
L 313.490105 -126.306698 
L 313.626341 -125.377358 
L 313.797591 -124.448018 
L 313.997222 -123.518678 
L 314.212224 -122.589338 
L 314.42369 -121.659998 
L 314.608467 -120.730658 
L 314.742392 -119.801319 
L 314.805307 -118.871979 
L 314.787089 -117.942639 
L 314.692717 -117.013299 
L 314.543955 -116.083959 
L 314.3761 -115.154619 
L 314.230236 -114.225279 
L 314.143378 -113.295939 
L 314.139956 -112.366599 
L 314.227887 -111.437259 
L 314.401098 -110.507919 
L 314.64815 -109.578579 
L 314.964154 -108.64924 
L 315.361272 -107.7199 
L 315.872744 -106.79056 
L 316.547251 -105.86122 
L 317.43414 -104.93188 
L 318.564308 -104.00254 
L 319.934319 -103.0732 
L 321.501096 -102.14386 
L 323.190832 -101.21452 
L 324.920215 -100.28518 
L 326.622836 -99.35584 
L 328.270963 -98.426501 
L 329.883483 -97.497161 
L 331.515007 -96.567821 
L 333.228625 -95.638481 
L 335.063561 -94.709141 
L 337.014585 -93.779801 
L 339.036682 -92.850461 
L 341.074932 -91.921121 
L 343.102203 -90.991781 
L 345.138111 -90.062441 
L 347.229918 -89.133101 
L 349.397195 -88.203762 
L 351.56483 -87.274422 
L 353.520043 -86.345082 
L 354.922421 -85.415742 
L 355.374869 -84.486402 
L 354.536632 -83.557062 
L 352.238519 -82.627722 
L 348.554922 -81.698382 
L 343.80221 -80.769042 
L 338.463228 -79.839702 
L 333.068305 -78.910362 
L 328.078131 -77.981023 
L 323.806313 -77.051683 
L 320.396569 -76.122343 
L 317.845854 -75.193003 
L 316.051931 -74.263663 
L 314.864115 -73.334323 
L 314.1238 -72.404983 
L 313.69011 -71.475643 
z
" style="stroke: #4c4c4c; stroke-width: 1.5"/>
    </defs>
    <g clip-path="url(#pab5a9093f0)">
     <use xlink:href="#m7f563710b5" x="0" y="346.2575" style="fill: #cc8963; stroke: #4c4c4c; stroke-width: 1.5"/>
    </g>
   </g>
   <g id="line2d_9">
    <path d="M 102.49127 268.350681 
L 102.49127 254.414681 
" clip-path="url(#pab5a9093f0)" style="fill: none; stroke: #4c4c4c; stroke-width: 1.5; stroke-linecap: round"/>
   </g>
   <g id="line2d_10">
    <path d="M 102.49127 265.928828 
L 102.49127 261.255601 
" clip-path="url(#pab5a9093f0)" style="fill: none; stroke: #4c4c4c; stroke-width: 4.5; stroke-linecap: round"/>
   </g>
   <g id="line2d_11">
    <path d="M 207.859436 268.350681 
L 207.859436 244.079847 
" clip-path="url(#pab5a9093f0)" style="fill: none; stroke: #4c4c4c; stroke-width: 1.5; stroke-linecap: round"/>
   </g>
   <g id="line2d_12">
    <path d="M 207.859436 266.376154 
L 207.859436 257.394384 
" clip-path="url(#pab5a9093f0)" style="fill: none; stroke: #4c4c4c; stroke-width: 4.5; stroke-linecap: round"/>
   </g>
   <g id="line2d_13">
    <path d="M 313.227602 268.350681 
L 313.227602 241.267496 
" clip-path="url(#pab5a9093f0)" style="fill: none; stroke: #4c4c4c; stroke-width: 1.5; stroke-linecap: round"/>
   </g>
   <g id="line2d_14">
    <path d="M 313.227602 264.495651 
L 313.227602 254.983908 
" clip-path="url(#pab5a9093f0)" style="fill: none; stroke: #4c4c4c; stroke-width: 4.5; stroke-linecap: round"/>
   </g>
   <g id="patch_5">
    <path d="M 49.807188 302.991875 
L 49.807188 22.318125 
" style="fill: none; stroke: #262626; stroke-width: 1.25; stroke-linejoin: miter; stroke-linecap: square"/>
   </g>
   <g id="patch_6">
    <path d="M 49.807188 302.991875 
L 365.911685 302.991875 
" style="fill: none; stroke: #262626; stroke-width: 1.25; stroke-linejoin: miter; stroke-linecap: square"/>
   </g>
   <g id="PathCollection_1">
    <defs>
     <path id="m14382810f4" d="M 0 1.5 
C 0.397805 1.5 0.77937 1.341951 1.06066 1.06066 
C 1.341951 0.77937 1.5 0.397805 1.5 0 
C 1.5 -0.397805 1.341951 -0.77937 1.06066 -1.06066 
C 0.77937 -1.341951 0.397805 -1.5 0 -1.5 
C -0.397805 -1.5 -0.77937 -1.341951 -1.06066 -1.06066 
C -1.341951 -0.77937 -1.5 -0.397805 -1.5 0 
C -1.5 0.397805 -1.341951 0.77937 -1.06066 1.06066 
C -0.77937 1.341951 -0.397805 1.5 0 1.5 
z
" style="stroke: #4c4c4c"/>
    </defs>
    <g clip-path="url(#pab5a9093f0)">
     <use xlink:href="#m14382810f4" x="102.49127" y="264.726473" style="fill: #ffffff; stroke: #4c4c4c"/>
    </g>
   </g>
   <g id="PathCollection_2">
    <g clip-path="url(#pab5a9093f0)">
     <use xlink:href="#m14382810f4" x="207.859436" y="264.47499" style="fill: #ffffff; stroke: #4c4c4c"/>
    </g>
   </g>
   <g id="PathCollection_3">
    <g clip-path="url(#pab5a9093f0)">
     <use xlink:href="#m14382810f4" x="313.227602" y="261.360373" style="fill: #ffffff; stroke: #4c4c4c"/>
    </g>
   </g>
   <g id="text_11">
    <!-- Dyn_obs = 5.0 -->
    <g style="fill: #262626" transform="translate(163.896311 16.318125)scale(0.12 -0.12)">
     <defs>
      <path id="DejaVuSans-44" d="M 1259 4147 
L 1259 519 
L 2022 519 
Q 2988 519 3436 956 
Q 3884 1394 3884 2338 
Q 3884 3275 3436 3711 
Q 2988 4147 2022 4147 
L 1259 4147 
z
M 628 4666 
L 1925 4666 
Q 3281 4666 3915 4102 
Q 4550 3538 4550 2338 
Q 4550 1131 3912 565 
Q 3275 0 1925 0 
L 628 0 
L 628 4666 
z
" transform="scale(0.015625)"/>
      <path id="DejaVuSans-79" d="M 2059 -325 
Q 1816 -950 1584 -1140 
Q 1353 -1331 966 -1331 
L 506 -1331 
L 506 -850 
L 844 -850 
Q 1081 -850 1212 -737 
Q 1344 -625 1503 -206 
L 1606 56 
L 191 3500 
L 800 3500 
L 1894 763 
L 2988 3500 
L 3597 3500 
L 2059 -325 
z
" transform="scale(0.015625)"/>
      <path id="DejaVuSans-62" d="M 3116 1747 
Q 3116 2381 2855 2742 
Q 2594 3103 2138 3103 
Q 1681 3103 1420 2742 
Q 1159 2381 1159 1747 
Q 1159 1113 1420 752 
Q 1681 391 2138 391 
Q 2594 391 2855 752 
Q 3116 1113 3116 1747 
z
M 1159 2969 
Q 1341 3281 1617 3432 
Q 1894 3584 2278 3584 
Q 2916 3584 3314 3078 
Q 3713 2572 3713 1747 
Q 3713 922 3314 415 
Q 2916 -91 2278 -91 
Q 1894 -91 1617 61 
Q 1341 213 1159 525 
L 1159 0 
L 581 0 
L 581 4863 
L 1159 4863 
L 1159 2969 
z
" transform="scale(0.015625)"/>
      <path id="DejaVuSans-20" transform="scale(0.015625)"/>
      <path id="DejaVuSans-3d" d="M 678 2906 
L 4684 2906 
L 4684 2381 
L 678 2381 
L 678 2906 
z
M 678 1631 
L 4684 1631 
L 4684 1100 
L 678 1100 
L 678 1631 
z
" transform="scale(0.015625)"/>
     </defs>
     <use xlink:href="#DejaVuSans-44"/>
     <use xlink:href="#DejaVuSans-79" x="77.001953"/>
     <use xlink:href="#DejaVuSans-6e" x="136.181641"/>
     <use xlink:href="#DejaVuSans-5f" x="199.560547"/>
     <use xlink:href="#DejaVuSans-6f" x="249.560547"/>
     <use xlink:href="#DejaVuSans-62" x="310.742188"/>
     <use xlink:href="#DejaVuSans-73" x="374.21875"/>
     <use xlink:href="#DejaVuSans-20" x="426.318359"/>
     <use xlink:href="#DejaVuSans-3d" x="458.105469"/>
     <use xlink:href="#DejaVuSans-20" x="541.894531"/>
     <use xlink:href="#DejaVuSans-35" x="573.681641"/>
     <use xlink:href="#DejaVuSans-2e" x="637.304688"/>
     <use xlink:href="#DejaVuSans-30" x="669.091797"/>
    </g>
   </g>
  </g>
  <g id="axes_2">
   <g id="patch_7">
    <path d="M 384.90064 302.991875 
L 701.005138 302.991875 
L 701.005138 22.318125 
L 384.90064 22.318125 
z
" style="fill: #ffffff"/>
   </g>
   <g id="matplotlib.axis_3">
    <g id="xtick_4">
     <g id="line2d_15">
      <g>
       <use xlink:href="#m93e5fd00f2" x="437.584723" y="302.991875" style="fill: #262626; stroke: #262626; stroke-width: 1.25"/>
      </g>
     </g>
     <g id="text_12">
      <!-- map2 -->
      <g style="fill: #262626" transform="translate(421.865895 320.850156)scale(0.11 -0.11)">
       <use xlink:href="#DejaVuSans-6d"/>
       <use xlink:href="#DejaVuSans-61" x="97.412109"/>
       <use xlink:href="#DejaVuSans-70" x="158.691406"/>
       <use xlink:href="#DejaVuSans-32" x="222.167969"/>
      </g>
     </g>
    </g>
    <g id="xtick_5">
     <g id="line2d_16">
      <g>
       <use xlink:href="#m93e5fd00f2" x="542.952889" y="302.991875" style="fill: #262626; stroke: #262626; stroke-width: 1.25"/>
      </g>
     </g>
     <g id="text_13">
      <!-- map5 -->
      <g style="fill: #262626" transform="translate(527.23406 320.850156)scale(0.11 -0.11)">
       <use xlink:href="#DejaVuSans-6d"/>
       <use xlink:href="#DejaVuSans-61" x="97.412109"/>
       <use xlink:href="#DejaVuSans-70" x="158.691406"/>
       <use xlink:href="#DejaVuSans-35" x="222.167969"/>
      </g>
     </g>
    </g>
    <g id="xtick_6">
     <g id="line2d_17">
      <g>
       <use xlink:href="#m93e5fd00f2" x="648.321055" y="302.991875" style="fill: #262626; stroke: #262626; stroke-width: 1.25"/>
      </g>
     </g>
     <g id="text_14">
      <!-- small_warehouse -->
      <g style="fill: #262626" transform="translate(600.946289 320.850156)scale(0.11 -0.11)">
       <use xlink:href="#DejaVuSans-73"/>
       <use xlink:href="#DejaVuSans-6d" x="52.099609"/>
       <use xlink:href="#DejaVuSans-61" x="149.511719"/>
       <use xlink:href="#DejaVuSans-6c" x="210.791016"/>
       <use xlink:href="#DejaVuSans-6c" x="238.574219"/>
       <use xlink:href="#DejaVuSans-5f" x="266.357422"/>
       <use xlink:href="#DejaVuSans-77" x="316.357422"/>
       <use xlink:href="#DejaVuSans-61" x="398.144531"/>
       <use xlink:href="#DejaVuSans-72" x="459.423828"/>
       <use xlink:href="#DejaVuSans-65" x="498.287109"/>
       <use xlink:href="#DejaVuSans-68" x="559.810547"/>
       <use xlink:href="#DejaVuSans-6f" x="623.189453"/>
       <use xlink:href="#DejaVuSans-75" x="684.371094"/>
       <use xlink:href="#DejaVuSans-73" x="747.75"/>
       <use xlink:href="#DejaVuSans-65" x="799.849609"/>
      </g>
     </g>
    </g>
    <g id="text_15">
     <!-- World -->
     <g style="fill: #262626" transform="translate(525.759139 336.561875)scale(0.12 -0.12)">
      <use xlink:href="#DejaVuSans-57"/>
      <use xlink:href="#DejaVuSans-6f" x="93.001953"/>
      <use xlink:href="#DejaVuSans-72" x="154.183594"/>
      <use xlink:href="#DejaVuSans-6c" x="195.296875"/>
      <use xlink:href="#DejaVuSans-64" x="223.080078"/>
     </g>
    </g>
   </g>
   <g id="matplotlib.axis_4">
    <g id="ytick_6">
     <g id="line2d_18">
      <g>
       <use xlink:href="#maa7aa7a9e9" x="384.90064" y="268.350681" style="fill: #262626; stroke: #262626; stroke-width: 1.25"/>
      </g>
     </g>
    </g>
    <g id="ytick_7">
     <g id="line2d_19">
      <g>
       <use xlink:href="#maa7aa7a9e9" x="384.90064" y="217.699223" style="fill: #262626; stroke: #262626; stroke-width: 1.25"/>
      </g>
     </g>
    </g>
    <g id="ytick_8">
     <g id="line2d_20">
      <g>
       <use xlink:href="#maa7aa7a9e9" x="384.90064" y="167.047766" style="fill: #262626; stroke: #262626; stroke-width: 1.25"/>
      </g>
     </g>
    </g>
    <g id="ytick_9">
     <g id="line2d_21">
      <g>
       <use xlink:href="#maa7aa7a9e9" x="384.90064" y="116.396308" style="fill: #262626; stroke: #262626; stroke-width: 1.25"/>
      </g>
     </g>
    </g>
    <g id="ytick_10">
     <g id="line2d_22">
      <g>
       <use xlink:href="#maa7aa7a9e9" x="384.90064" y="65.744851" style="fill: #262626; stroke: #262626; stroke-width: 1.25"/>
      </g>
     </g>
    </g>
   </g>
   <g id="patch_8">
    <path d="M 437.584723 268.350681 
L 437.584723 268.350681 
L 437.584723 268.350681 
L 437.584723 268.350681 
z
" clip-path="url(#p0ceee300c8)" style="fill: #5875a4; stroke: #4c4c4c; stroke-width: 0.75; stroke-linejoin: miter"/>
   </g>
   <g id="PolyCollection_7">
    <defs>
     <path id="m7f315ee5f3" d="M 437.584723 -70.501922 
L 435.3894 -70.501922 
L 432.543725 -72.343824 
L 427.582212 -74.185727 
L 420.363723 -76.027629 
L 411.716628 -77.869531 
L 403.429811 -79.711434 
L 397.556777 -81.553336 
L 395.437456 -83.395238 
L 397.16258 -85.237141 
L 401.803878 -87.079043 
L 408.053128 -88.920946 
L 414.717823 -90.762848 
L 420.892608 -92.60475 
L 425.982663 -94.446653 
L 429.730723 -96.288555 
L 432.211333 -98.130458 
L 433.723296 -99.97236 
L 434.620156 -101.814262 
L 435.177994 -103.656165 
L 435.553212 -105.498067 
L 435.813643 -107.339969 
L 435.995049 -109.181872 
L 436.139032 -111.023774 
L 436.293598 -112.865677 
L 436.490249 -114.707579 
L 436.727104 -116.549481 
L 436.974305 -118.391384 
L 437.194687 -120.233286 
L 437.363017 -122.075188 
L 437.473512 -123.917091 
L 437.535859 -125.758993 
L 437.566041 -127.600896 
L 437.578543 -129.442798 
L 437.582962 -131.2847 
L 437.584292 -133.126603 
L 437.584633 -134.968505 
L 437.584707 -136.810407 
L 437.58472 -138.65231 
L 437.584722 -140.494212 
L 437.584723 -142.336115 
L 437.584723 -144.178017 
L 437.584723 -146.019919 
L 437.584723 -147.861822 
L 437.584723 -149.703724 
L 437.584723 -151.545626 
L 437.584723 -153.387529 
L 437.584723 -155.229431 
L 437.584723 -157.071334 
L 437.584723 -158.913236 
L 437.584723 -160.755138 
L 437.584723 -162.597041 
L 437.584723 -164.438943 
L 437.584723 -166.280845 
L 437.584723 -168.122748 
L 437.584723 -169.96465 
L 437.584723 -171.806553 
L 437.584723 -173.648455 
L 437.584723 -175.490357 
L 437.584723 -177.33226 
L 437.584723 -179.174162 
L 437.584723 -181.016064 
L 437.584723 -182.857967 
L 437.584723 -184.699869 
L 437.584723 -186.541772 
L 437.584723 -188.383674 
L 437.584723 -190.225576 
L 437.584723 -192.067479 
L 437.584723 -193.909381 
L 437.584723 -195.751284 
L 437.584723 -197.593186 
L 437.584723 -199.435088 
L 437.584723 -201.276991 
L 437.584723 -203.118893 
L 437.584723 -204.960795 
L 437.584723 -206.802698 
L 437.584723 -208.6446 
L 437.584723 -210.486503 
L 437.584723 -212.328405 
L 437.584723 -214.170307 
L 437.584723 -216.01221 
L 437.584723 -217.854112 
L 437.584722 -219.696014 
L 437.58472 -221.537917 
L 437.584707 -223.379819 
L 437.584634 -225.221722 
L 437.584305 -227.063624 
L 437.583059 -228.905526 
L 437.579083 -230.747429 
L 437.568467 -232.589331 
L 437.54488 -234.431233 
L 437.501678 -236.273136 
L 437.437529 -238.115038 
L 437.362858 -239.956941 
L 437.300339 -241.798843 
L 437.274739 -243.640745 
L 437.297386 -245.482648 
L 437.358226 -247.32455 
L 437.432895 -249.166452 
L 437.498174 -251.008355 
L 437.542768 -252.850257 
L 437.584723 -252.850257 
L 437.584723 -252.850257 
L 437.584723 -251.008355 
L 437.584723 -249.166452 
L 437.584723 -247.32455 
L 437.584723 -245.482648 
L 437.584723 -243.640745 
L 437.584723 -241.798843 
L 437.584723 -239.956941 
L 437.584723 -238.115038 
L 437.584723 -236.273136 
L 437.584723 -234.431233 
L 437.584723 -232.589331 
L 437.584723 -230.747429 
L 437.584723 -228.905526 
L 437.584723 -227.063624 
L 437.584723 -225.221722 
L 437.584723 -223.379819 
L 437.584723 -221.537917 
L 437.584723 -219.696014 
L 437.584723 -217.854112 
L 437.584723 -216.01221 
L 437.584723 -214.170307 
L 437.584723 -212.328405 
L 437.584723 -210.486503 
L 437.584723 -208.6446 
L 437.584723 -206.802698 
L 437.584723 -204.960795 
L 437.584723 -203.118893 
L 437.584723 -201.276991 
L 437.584723 -199.435088 
L 437.584723 -197.593186 
L 437.584723 -195.751284 
L 437.584723 -193.909381 
L 437.584723 -192.067479 
L 437.584723 -190.225576 
L 437.584723 -188.383674 
L 437.584723 -186.541772 
L 437.584723 -184.699869 
L 437.584723 -182.857967 
L 437.584723 -181.016064 
L 437.584723 -179.174162 
L 437.584723 -177.33226 
L 437.584723 -175.490357 
L 437.584723 -173.648455 
L 437.584723 -171.806553 
L 437.584723 -169.96465 
L 437.584723 -168.122748 
L 437.584723 -166.280845 
L 437.584723 -164.438943 
L 437.584723 -162.597041 
L 437.584723 -160.755138 
L 437.584723 -158.913236 
L 437.584723 -157.071334 
L 437.584723 -155.229431 
L 437.584723 -153.387529 
L 437.584723 -151.545626 
L 437.584723 -149.703724 
L 437.584723 -147.861822 
L 437.584723 -146.019919 
L 437.584723 -144.178017 
L 437.584723 -142.336115 
L 437.584723 -140.494212 
L 437.584723 -138.65231 
L 437.584723 -136.810407 
L 437.584723 -134.968505 
L 437.584723 -133.126603 
L 437.584723 -131.2847 
L 437.584723 -129.442798 
L 437.584723 -127.600896 
L 437.584723 -125.758993 
L 437.584723 -123.917091 
L 437.584723 -122.075188 
L 437.584723 -120.233286 
L 437.584723 -118.391384 
L 437.584723 -116.549481 
L 437.584723 -114.707579 
L 437.584723 -112.865677 
L 437.584723 -111.023774 
L 437.584723 -109.181872 
L 437.584723 -107.339969 
L 437.584723 -105.498067 
L 437.584723 -103.656165 
L 437.584723 -101.814262 
L 437.584723 -99.97236 
L 437.584723 -98.130458 
L 437.584723 -96.288555 
L 437.584723 -94.446653 
L 437.584723 -92.60475 
L 437.584723 -90.762848 
L 437.584723 -88.920946 
L 437.584723 -87.079043 
L 437.584723 -85.237141 
L 437.584723 -83.395238 
L 437.584723 -81.553336 
L 437.584723 -79.711434 
L 437.584723 -77.869531 
L 437.584723 -76.027629 
L 437.584723 -74.185727 
L 437.584723 -72.343824 
L 437.584723 -70.501922 
z
" style="stroke: #4c4c4c; stroke-width: 1.5"/>
    </defs>
    <g clip-path="url(#p0ceee300c8)">
     <use xlink:href="#m7f315ee5f3" x="0" y="346.2575" style="fill: #5875a4; stroke: #4c4c4c; stroke-width: 1.5"/>
    </g>
   </g>
   <g id="patch_9">
    <path d="M 437.584723 268.350681 
L 437.584723 268.350681 
L 437.584723 268.350681 
L 437.584723 268.350681 
z
" clip-path="url(#p0ceee300c8)" style="fill: #cc8963; stroke: #4c4c4c; stroke-width: 0.75; stroke-linejoin: miter"/>
   </g>
   <g id="PolyCollection_8">
    <defs>
     <path id="ma49df79271" d="M 438.760306 -66.517438 
L 437.584723 -66.517438 
L 437.584723 -67.779151 
L 437.584723 -69.040864 
L 437.584723 -70.302577 
L 437.584723 -71.56429 
L 437.584723 -72.826003 
L 437.584723 -74.087715 
L 437.584723 -75.349428 
L 437.584723 -76.611141 
L 437.584723 -77.872854 
L 437.584723 -79.134567 
L 437.584723 -80.39628 
L 437.584723 -81.657993 
L 437.584723 -82.919706 
L 437.584723 -84.181419 
L 437.584723 -85.443132 
L 437.584723 -86.704845 
L 437.584723 -87.966557 
L 437.584723 -89.22827 
L 437.584723 -90.489983 
L 437.584723 -91.751696 
L 437.584723 -93.013409 
L 437.584723 -94.275122 
L 437.584723 -95.536835 
L 437.584723 -96.798548 
L 437.584723 -98.060261 
L 437.584723 -99.321974 
L 437.584723 -100.583687 
L 437.584723 -101.845399 
L 437.584723 -103.107112 
L 437.584723 -104.368825 
L 437.584723 -105.630538 
L 437.584723 -106.892251 
L 437.584723 -108.153964 
L 437.584723 -109.415677 
L 437.584723 -110.67739 
L 437.584723 -111.939103 
L 437.584723 -113.200816 
L 437.584723 -114.462529 
L 437.584723 -115.724241 
L 437.584723 -116.985954 
L 437.584723 -118.247667 
L 437.584723 -119.50938 
L 437.584723 -120.771093 
L 437.584723 -122.032806 
L 437.584723 -123.294519 
L 437.584723 -124.556232 
L 437.584723 -125.817945 
L 437.584723 -127.079658 
L 437.584723 -128.341371 
L 437.584723 -129.603083 
L 437.584723 -130.864796 
L 437.584723 -132.126509 
L 437.584723 -133.388222 
L 437.584723 -134.649935 
L 437.584723 -135.911648 
L 437.584723 -137.173361 
L 437.584723 -138.435074 
L 437.584723 -139.696787 
L 437.584723 -140.9585 
L 437.584723 -142.220212 
L 437.584723 -143.481925 
L 437.584723 -144.743638 
L 437.584723 -146.005351 
L 437.584723 -147.267064 
L 437.584723 -148.528777 
L 437.584723 -149.79049 
L 437.584723 -151.052203 
L 437.584723 -152.313916 
L 437.584723 -153.575629 
L 437.584723 -154.837342 
L 437.584723 -156.099054 
L 437.584723 -157.360767 
L 437.584723 -158.62248 
L 437.584723 -159.884193 
L 437.584723 -161.145906 
L 437.584723 -162.407619 
L 437.584723 -163.669332 
L 437.584723 -164.931045 
L 437.584723 -166.192758 
L 437.584723 -167.454471 
L 437.584723 -168.716184 
L 437.584723 -169.977896 
L 437.584723 -171.239609 
L 437.584723 -172.501322 
L 437.584723 -173.763035 
L 437.584723 -175.024748 
L 437.584723 -176.286461 
L 437.584723 -177.548174 
L 437.584723 -178.809887 
L 437.584723 -180.0716 
L 437.584723 -181.333313 
L 437.584723 -182.595026 
L 437.584723 -183.856738 
L 437.584723 -185.118451 
L 437.584723 -186.380164 
L 437.584723 -187.641877 
L 437.584723 -188.90359 
L 437.584723 -190.165303 
L 437.584723 -191.427016 
L 437.644641 -191.427016 
L 437.644641 -191.427016 
L 437.680656 -190.165303 
L 437.731609 -188.90359 
L 437.799852 -187.641877 
L 437.886183 -186.380164 
L 437.988984 -185.118451 
L 438.103618 -183.856738 
L 438.222336 -182.595026 
L 438.3349 -181.333313 
L 438.429944 -180.0716 
L 438.496876 -178.809887 
L 438.527911 -177.548174 
L 438.519737 -176.286461 
L 438.474344 -175.024748 
L 438.398764 -173.763035 
L 438.303761 -172.501322 
L 438.201777 -171.239609 
L 438.104644 -169.977896 
L 438.021574 -168.716184 
L 437.957863 -167.454471 
L 437.914499 -166.192758 
L 437.888669 -164.931045 
L 437.87495 -163.669332 
L 437.866851 -162.407619 
L 437.858338 -161.145906 
L 437.845013 -159.884193 
L 437.824739 -158.62248 
L 437.797649 -157.360767 
L 437.765644 -156.099054 
L 437.731594 -154.837342 
L 437.698497 -153.575629 
L 437.668826 -152.313916 
L 437.644178 -151.052203 
L 437.625238 -149.79049 
L 437.611995 -148.528777 
L 437.604069 -147.267064 
L 437.60105 -146.005351 
L 437.602743 -144.743638 
L 437.609279 -143.481925 
L 437.621067 -142.220212 
L 437.638597 -140.9585 
L 437.662151 -139.696787 
L 437.691491 -138.435074 
L 437.725648 -137.173361 
L 437.762905 -135.911648 
L 437.801083 -134.649935 
L 437.838089 -133.388222 
L 437.872637 -132.126509 
L 437.904924 -130.864796 
L 437.937011 -129.603083 
L 437.97274 -128.341371 
L 438.017112 -127.079658 
L 438.075221 -125.817945 
L 438.150976 -124.556232 
L 438.245897 -123.294519 
L 438.358275 -122.032806 
L 438.482915 -120.771093 
L 438.611612 -119.50938 
L 438.734392 -118.247667 
L 438.841423 -116.985954 
L 438.925381 -115.724241 
L 438.983886 -114.462529 
L 439.021549 -113.200816 
L 439.051179 -111.939103 
L 439.093816 -110.67739 
L 439.177512 -109.415677 
L 439.334993 -108.153964 
L 439.600528 -106.892251 
L 440.006437 -105.630538 
L 440.579646 -104.368825 
L 441.338739 -103.107112 
L 442.292056 -101.845399 
L 443.437443 -100.583687 
L 444.76427 -99.321974 
L 446.257934 -98.060261 
L 447.906218 -96.798548 
L 449.705696 -95.536835 
L 451.665258 -94.275122 
L 453.803499 -93.013409 
L 456.137711 -91.751696 
L 458.66481 -90.489983 
L 461.338101 -89.22827 
L 464.04726 -87.966557 
L 466.610406 -86.704845 
L 468.785591 -85.443132 
L 470.303936 -84.181419 
L 470.919415 -82.919706 
L 470.463416 -81.657993 
L 468.888666 -80.39628 
L 466.288825 -79.134567 
L 462.886866 -77.872854 
L 458.994896 -76.611141 
L 454.956716 -75.349428 
L 451.08889 -74.087715 
L 447.634979 -72.826003 
L 444.741896 -71.56429 
L 442.459689 -70.302577 
L 440.759505 -69.040864 
L 439.560976 -67.779151 
L 438.760306 -66.517438 
z
" style="stroke: #4c4c4c; stroke-width: 1.5"/>
    </defs>
    <g clip-path="url(#p0ceee300c8)">
     <use xlink:href="#ma49df79271" x="0" y="346.2575" style="fill: #cc8963; stroke: #4c4c4c; stroke-width: 1.5"/>
    </g>
   </g>
   <g id="PolyCollection_9">
    <defs>
     <path id="mfe22704d6f" d="M 542.952889 -66.794612 
L 540.227428 -66.794612 
L 538.200694 -68.423018 
L 535.186461 -70.051425 
L 531.050064 -71.679831 
L 525.834712 -73.308237 
L 519.833365 -74.936643 
L 513.602118 -76.56505 
L 507.888307 -78.193456 
L 503.478486 -79.821862 
L 501.009121 -81.450269 
L 500.805622 -83.078675 
L 502.808437 -84.707081 
L 506.610026 -86.335488 
L 511.581839 -87.963894 
L 517.038833 -89.5923 
L 522.38419 -91.220707 
L 527.196344 -92.849113 
L 531.249834 -94.477519 
L 534.485725 -96.105925 
L 536.957823 -97.734332 
L 538.778293 -99.362738 
L 540.076553 -100.991144 
L 540.974972 -102.619551 
L 541.578189 -104.247957 
L 541.970623 -105.876363 
L 542.217723 -107.50477 
L 542.368506 -109.133176 
L 542.458515 -110.761582 
L 542.512833 -112.389989 
L 542.548785 -114.018395 
L 542.577846 -115.646801 
L 542.606632 -117.275208 
L 542.637339 -118.903614 
L 542.668312 -120.53202 
L 542.695301 -122.160426 
L 542.713474 -123.788833 
L 542.719653 -125.417239 
L 542.714 -127.045645 
L 542.700454 -128.674052 
L 542.685728 -130.302458 
L 542.677223 -131.930864 
L 542.680665 -133.559271 
L 542.69836 -135.187677 
L 542.728661 -136.816083 
L 542.766717 -138.44449 
L 542.806031 -140.072896 
L 542.840133 -141.701302 
L 542.86378 -143.329708 
L 542.873475 -144.958115 
L 542.86748 -146.586521 
L 542.845624 -148.214927 
L 542.809121 -149.843334 
L 542.760362 -151.47174 
L 542.702504 -153.100146 
L 542.638762 -154.728553 
L 542.571613 -156.356959 
L 542.502374 -157.985365 
L 542.431577 -159.613772 
L 542.360197 -161.242178 
L 542.291159 -162.870584 
L 542.230228 -164.49899 
L 542.1855 -166.127397 
L 542.165413 -167.755803 
L 542.175947 -169.384209 
L 542.21817 -171.012616 
L 542.287163 -172.641022 
L 542.372788 -174.269428 
L 542.462036 -175.897835 
L 542.542191 -177.526241 
L 542.603838 -179.154647 
L 542.642906 -180.783054 
L 542.661211 -182.41146 
L 542.665417 -184.039866 
L 542.664738 -185.668273 
L 542.668108 -187.296679 
L 542.6817 -188.925085 
L 542.707548 -190.553491 
L 542.743628 -192.181898 
L 542.785133 -193.810304 
L 542.826304 -195.43871 
L 542.862038 -197.067117 
L 542.888762 -198.695523 
L 542.904501 -200.323929 
L 542.908429 -201.952336 
L 542.900391 -203.580742 
L 542.880758 -205.209148 
L 542.850741 -206.837555 
L 542.812947 -208.465961 
L 542.771769 -210.094367 
L 542.733165 -211.722773 
L 542.703663 -213.35118 
L 542.688784 -214.979586 
L 542.691481 -216.607992 
L 542.711239 -218.236399 
L 542.744261 -219.864805 
L 542.784672 -221.493211 
L 542.826217 -223.121618 
L 542.863804 -224.750024 
L 542.894378 -226.37843 
L 542.916998 -228.006837 
L 542.952889 -228.006837 
L 542.952889 -228.006837 
L 542.952889 -226.37843 
L 542.952889 -224.750024 
L 542.952889 -223.121618 
L 542.952889 -221.493211 
L 542.952889 -219.864805 
L 542.952889 -218.236399 
L 542.952889 -216.607992 
L 542.952889 -214.979586 
L 542.952889 -213.35118 
L 542.952889 -211.722773 
L 542.952889 -210.094367 
L 542.952889 -208.465961 
L 542.952889 -206.837555 
L 542.952889 -205.209148 
L 542.952889 -203.580742 
L 542.952889 -201.952336 
L 542.952889 -200.323929 
L 542.952889 -198.695523 
L 542.952889 -197.067117 
L 542.952889 -195.43871 
L 542.952889 -193.810304 
L 542.952889 -192.181898 
L 542.952889 -190.553491 
L 542.952889 -188.925085 
L 542.952889 -187.296679 
L 542.952889 -185.668273 
L 542.952889 -184.039866 
L 542.952889 -182.41146 
L 542.952889 -180.783054 
L 542.952889 -179.154647 
L 542.952889 -177.526241 
L 542.952889 -175.897835 
L 542.952889 -174.269428 
L 542.952889 -172.641022 
L 542.952889 -171.012616 
L 542.952889 -169.384209 
L 542.952889 -167.755803 
L 542.952889 -166.127397 
L 542.952889 -164.49899 
L 542.952889 -162.870584 
L 542.952889 -161.242178 
L 542.952889 -159.613772 
L 542.952889 -157.985365 
L 542.952889 -156.356959 
L 542.952889 -154.728553 
L 542.952889 -153.100146 
L 542.952889 -151.47174 
L 542.952889 -149.843334 
L 542.952889 -148.214927 
L 542.952889 -146.586521 
L 542.952889 -144.958115 
L 542.952889 -143.329708 
L 542.952889 -141.701302 
L 542.952889 -140.072896 
L 542.952889 -138.44449 
L 542.952889 -136.816083 
L 542.952889 -135.187677 
L 542.952889 -133.559271 
L 542.952889 -131.930864 
L 542.952889 -130.302458 
L 542.952889 -128.674052 
L 542.952889 -127.045645 
L 542.952889 -125.417239 
L 542.952889 -123.788833 
L 542.952889 -122.160426 
L 542.952889 -120.53202 
L 542.952889 -118.903614 
L 542.952889 -117.275208 
L 542.952889 -115.646801 
L 542.952889 -114.018395 
L 542.952889 -112.389989 
L 542.952889 -110.761582 
L 542.952889 -109.133176 
L 542.952889 -107.50477 
L 542.952889 -105.876363 
L 542.952889 -104.247957 
L 542.952889 -102.619551 
L 542.952889 -100.991144 
L 542.952889 -99.362738 
L 542.952889 -97.734332 
L 542.952889 -96.105925 
L 542.952889 -94.477519 
L 542.952889 -92.849113 
L 542.952889 -91.220707 
L 542.952889 -89.5923 
L 542.952889 -87.963894 
L 542.952889 -86.335488 
L 542.952889 -84.707081 
L 542.952889 -83.078675 
L 542.952889 -81.450269 
L 542.952889 -79.821862 
L 542.952889 -78.193456 
L 542.952889 -76.56505 
L 542.952889 -74.936643 
L 542.952889 -73.308237 
L 542.952889 -71.679831 
L 542.952889 -70.051425 
L 542.952889 -68.423018 
L 542.952889 -66.794612 
z
" style="stroke: #4c4c4c; stroke-width: 1.5"/>
    </defs>
    <g clip-path="url(#p0ceee300c8)">
     <use xlink:href="#mfe22704d6f" x="0" y="346.2575" style="fill: #5875a4; stroke: #4c4c4c; stroke-width: 1.5"/>
    </g>
   </g>
   <g id="PolyCollection_10">
    <defs>
     <path id="m9fccae5b2b" d="M 543.731017 -64.747311 
L 542.952889 -64.747311 
L 542.952889 -66.465913 
L 542.952889 -68.184514 
L 542.952889 -69.903116 
L 542.952889 -71.621717 
L 542.952889 -73.340319 
L 542.952889 -75.058921 
L 542.952889 -76.777522 
L 542.952889 -78.496124 
L 542.952889 -80.214725 
L 542.952889 -81.933327 
L 542.952889 -83.651929 
L 542.952889 -85.37053 
L 542.952889 -87.089132 
L 542.952889 -88.807733 
L 542.952889 -90.526335 
L 542.952889 -92.244937 
L 542.952889 -93.963538 
L 542.952889 -95.68214 
L 542.952889 -97.400741 
L 542.952889 -99.119343 
L 542.952889 -100.837944 
L 542.952889 -102.556546 
L 542.952889 -104.275148 
L 542.952889 -105.993749 
L 542.952889 -107.712351 
L 542.952889 -109.430952 
L 542.952889 -111.149554 
L 542.952889 -112.868156 
L 542.952889 -114.586757 
L 542.952889 -116.305359 
L 542.952889 -118.02396 
L 542.952889 -119.742562 
L 542.952889 -121.461164 
L 542.952889 -123.179765 
L 542.952889 -124.898367 
L 542.952889 -126.616968 
L 542.952889 -128.33557 
L 542.952889 -130.054171 
L 542.952889 -131.772773 
L 542.952889 -133.491375 
L 542.952889 -135.209976 
L 542.952889 -136.928578 
L 542.952889 -138.647179 
L 542.952889 -140.365781 
L 542.952889 -142.084383 
L 542.952889 -143.802984 
L 542.952889 -145.521586 
L 542.952889 -147.240187 
L 542.952889 -148.958789 
L 542.952889 -150.677391 
L 542.952889 -152.395992 
L 542.952889 -154.114594 
L 542.952889 -155.833195 
L 542.952889 -157.551797 
L 542.952889 -159.270398 
L 542.952889 -160.989 
L 542.952889 -162.707602 
L 542.952889 -164.426203 
L 542.952889 -166.144805 
L 542.952889 -167.863406 
L 542.952889 -169.582008 
L 542.952889 -171.30061 
L 542.952889 -173.019211 
L 542.952889 -174.737813 
L 542.952889 -176.456414 
L 542.952889 -178.175016 
L 542.952889 -179.893618 
L 542.952889 -181.612219 
L 542.952889 -183.330821 
L 542.952889 -185.049422 
L 542.952889 -186.768024 
L 542.952889 -188.486626 
L 542.952889 -190.205227 
L 542.952889 -191.923829 
L 542.952889 -193.64243 
L 542.952889 -195.361032 
L 542.952889 -197.079633 
L 542.952889 -198.798235 
L 542.952889 -200.516837 
L 542.952889 -202.235438 
L 542.952889 -203.95404 
L 542.952889 -205.672641 
L 542.952889 -207.391243 
L 542.952889 -209.109845 
L 542.952889 -210.828446 
L 542.952889 -212.547048 
L 542.952889 -214.265649 
L 542.952889 -215.984251 
L 542.952889 -217.702853 
L 542.952889 -219.421454 
L 542.952889 -221.140056 
L 542.952889 -222.858657 
L 542.952889 -224.577259 
L 542.952889 -226.29586 
L 542.952889 -228.014462 
L 542.952889 -229.733064 
L 542.952889 -231.451665 
L 542.952889 -233.170267 
L 542.952889 -234.888868 
L 542.986863 -234.888868 
L 542.986863 -234.888868 
L 543.008254 -233.170267 
L 543.037169 -231.451665 
L 543.072744 -229.733064 
L 543.112151 -228.014462 
L 543.150711 -226.29586 
L 543.182789 -224.577259 
L 543.203359 -222.858657 
L 543.209782 -221.140056 
L 543.203114 -219.421454 
L 543.188396 -217.702853 
L 543.173682 -215.984251 
L 543.168027 -214.265649 
L 543.178978 -212.547048 
L 543.210218 -210.828446 
L 543.260036 -209.109845 
L 543.321106 -207.391243 
L 543.381838 -205.672641 
L 543.42913 -203.95404 
L 543.451832 -202.235438 
L 543.443821 -200.516837 
L 543.405616 -198.798235 
L 543.343958 -197.079633 
L 543.269599 -195.361032 
L 543.194269 -193.64243 
L 543.127983 -191.923829 
L 543.077507 -190.205227 
L 543.046137 -188.486626 
L 543.034338 -186.768024 
L 543.04057 -185.049422 
L 543.061801 -183.330821 
L 543.093624 -181.612219 
L 543.130293 -179.893618 
L 543.165088 -178.175016 
L 543.19128 -176.456414 
L 543.203518 -174.737813 
L 543.199168 -173.019211 
L 543.178985 -171.30061 
L 543.146787 -169.582008 
L 543.108226 -167.863406 
L 543.069171 -166.144805 
L 543.034317 -164.426203 
L 543.00648 -162.707602 
L 542.986657 -160.989 
L 542.97468 -159.270398 
L 542.97009 -157.551797 
L 542.972931 -155.833195 
L 542.984222 -154.114594 
L 543.005961 -152.395992 
L 543.040575 -150.677391 
L 543.089843 -148.958789 
L 543.1535 -147.240187 
L 543.227997 -145.521586 
L 543.306067 -143.802984 
L 543.377634 -142.084383 
L 543.432202 -140.365781 
L 543.462151 -138.647179 
L 543.465852 -136.928578 
L 543.449409 -135.209976 
L 543.426278 -133.491375 
L 543.414847 -131.772773 
L 543.434762 -130.054171 
L 543.503126 -128.33557 
L 543.631498 -126.616968 
L 543.824198 -124.898367 
L 544.077948 -123.179765 
L 544.382637 -121.461164 
L 544.722921 -119.742562 
L 545.080483 -118.02396 
L 545.436951 -116.305359 
L 545.777585 -114.586757 
L 546.095858 -112.868156 
L 546.398718 -111.149554 
L 546.711814 -109.430952 
L 547.083525 -107.712351 
L 547.586556 -105.993749 
L 548.316172 -104.275148 
L 549.384421 -102.556546 
L 550.909423 -100.837944 
L 552.998141 -99.119343 
L 555.72102 -97.400741 
L 559.078944 -95.68214 
L 562.967796 -93.963538 
L 567.151934 -92.244937 
L 571.261802 -90.526335 
L 574.82866 -88.807733 
L 577.359436 -87.089132 
L 578.43909 -85.37053 
L 577.833066 -83.651929 
L 575.556072 -81.933327 
L 571.880701 -80.214725 
L 567.279158 -78.496124 
L 562.315567 -76.777522 
L 557.523952 -75.058921 
L 553.309746 -73.340319 
L 549.900111 -71.621717 
L 547.347592 -69.903116 
L 545.572995 -68.184514 
L 544.424373 -66.465913 
L 543.731017 -64.747311 
z
" style="stroke: #4c4c4c; stroke-width: 1.5"/>
    </defs>
    <g clip-path="url(#p0ceee300c8)">
     <use xlink:href="#m9fccae5b2b" x="0" y="346.2575" style="fill: #cc8963; stroke: #4c4c4c; stroke-width: 1.5"/>
    </g>
   </g>
   <g id="PolyCollection_11">
    <defs>
     <path id="m27bcb81cac" d="M 648.321055 -70.834707 
L 647.103369 -70.834707 
L 646.145703 -71.95291 
L 644.649443 -73.071113 
L 642.460165 -74.189317 
L 639.462398 -75.30752 
L 635.624962 -76.425723 
L 631.040291 -77.543926 
L 625.942174 -78.66213 
L 620.690487 -79.780333 
L 615.721959 -80.898536 
L 611.478466 -82.01674 
L 608.332872 -83.134943 
L 606.532687 -84.253146 
L 606.173788 -85.371349 
L 607.204859 -86.489553 
L 609.454005 -87.607756 
L 612.665853 -88.725959 
L 616.539933 -89.844162 
L 620.765634 -90.962366 
L 625.052183 -92.080569 
L 629.152673 -93.198772 
L 632.880444 -94.316976 
L 636.116023 -95.435179 
L 638.804192 -96.553382 
L 640.943047 -97.671585 
L 642.568754 -98.789789 
L 643.740267 -99.907992 
L 644.527338 -101.026195 
L 645.003268 -102.144399 
L 645.241744 -103.262602 
L 645.315602 -104.380805 
L 645.294993 -105.499008 
L 645.243399 -106.617212 
L 645.211797 -107.735415 
L 645.232988 -108.853618 
L 645.318732 -109.971821 
L 645.461446 -111.090025 
L 645.640335 -112.208228 
L 645.829967 -113.326431 
L 646.008487 -114.444635 
L 646.163115 -115.562838 
L 646.291875 -116.681041 
L 646.401848 -117.799244 
L 646.505078 -118.917448 
L 646.613613 -120.035651 
L 646.735093 -121.153854 
L 646.870128 -122.272058 
L 647.0122 -123.390261 
L 647.150075 -124.508464 
L 647.271777 -125.626667 
L 647.368569 -126.744871 
L 647.437446 -127.863074 
L 647.481378 -128.981277 
L 647.507602 -130.09948 
L 647.525015 -131.217684 
L 647.541841 -132.335887 
L 647.564319 -133.45409 
L 647.596444 -134.572294 
L 647.640305 -135.690497 
L 647.696435 -136.8087 
L 647.763848 -137.926903 
L 647.839849 -139.045107 
L 647.919945 -140.16331 
L 647.998163 -141.281513 
L 648.067842 -142.399717 
L 648.122717 -143.51792 
L 648.157978 -144.636123 
L 648.171089 -145.754326 
L 648.162306 -146.87253 
L 648.134897 -147.990733 
L 648.095003 -149.108936 
L 648.05099 -150.227139 
L 648.012179 -151.345343 
L 647.98705 -152.463546 
L 647.981361 -153.581749 
L 647.996813 -154.699953 
L 648.03079 -155.818156 
L 648.077282 -156.936359 
L 648.128645 -158.054562 
L 648.17748 -159.172766 
L 648.217974 -160.290969 
L 648.246393 -161.409172 
L 648.260808 -162.527376 
L 648.260487 -163.645579 
L 648.245444 -164.763782 
L 648.216452 -165.881985 
L 648.175506 -167.000189 
L 648.126434 -168.118392 
L 648.075141 -169.236595 
L 648.029095 -170.354798 
L 647.995969 -171.473002 
L 647.981784 -172.591205 
L 647.98925 -173.709408 
L 648.01698 -174.827612 
L 648.059942 -175.945815 
L 648.110955 -177.064018 
L 648.16265 -178.182221 
L 648.209147 -179.300425 
L 648.246975 -180.418628 
L 648.275105 -181.536831 
L 648.321055 -181.536831 
L 648.321055 -181.536831 
L 648.321055 -180.418628 
L 648.321055 -179.300425 
L 648.321055 -178.182221 
L 648.321055 -177.064018 
L 648.321055 -175.945815 
L 648.321055 -174.827612 
L 648.321055 -173.709408 
L 648.321055 -172.591205 
L 648.321055 -171.473002 
L 648.321055 -170.354798 
L 648.321055 -169.236595 
L 648.321055 -168.118392 
L 648.321055 -167.000189 
L 648.321055 -165.881985 
L 648.321055 -164.763782 
L 648.321055 -163.645579 
L 648.321055 -162.527376 
L 648.321055 -161.409172 
L 648.321055 -160.290969 
L 648.321055 -159.172766 
L 648.321055 -158.054562 
L 648.321055 -156.936359 
L 648.321055 -155.818156 
L 648.321055 -154.699953 
L 648.321055 -153.581749 
L 648.321055 -152.463546 
L 648.321055 -151.345343 
L 648.321055 -150.227139 
L 648.321055 -149.108936 
L 648.321055 -147.990733 
L 648.321055 -146.87253 
L 648.321055 -145.754326 
L 648.321055 -144.636123 
L 648.321055 -143.51792 
L 648.321055 -142.399717 
L 648.321055 -141.281513 
L 648.321055 -140.16331 
L 648.321055 -139.045107 
L 648.321055 -137.926903 
L 648.321055 -136.8087 
L 648.321055 -135.690497 
L 648.321055 -134.572294 
L 648.321055 -133.45409 
L 648.321055 -132.335887 
L 648.321055 -131.217684 
L 648.321055 -130.09948 
L 648.321055 -128.981277 
L 648.321055 -127.863074 
L 648.321055 -126.744871 
L 648.321055 -125.626667 
L 648.321055 -124.508464 
L 648.321055 -123.390261 
L 648.321055 -122.272058 
L 648.321055 -121.153854 
L 648.321055 -120.035651 
L 648.321055 -118.917448 
L 648.321055 -117.799244 
L 648.321055 -116.681041 
L 648.321055 -115.562838 
L 648.321055 -114.444635 
L 648.321055 -113.326431 
L 648.321055 -112.208228 
L 648.321055 -111.090025 
L 648.321055 -109.971821 
L 648.321055 -108.853618 
L 648.321055 -107.735415 
L 648.321055 -106.617212 
L 648.321055 -105.499008 
L 648.321055 -104.380805 
L 648.321055 -103.262602 
L 648.321055 -102.144399 
L 648.321055 -101.026195 
L 648.321055 -99.907992 
L 648.321055 -98.789789 
L 648.321055 -97.671585 
L 648.321055 -96.553382 
L 648.321055 -95.435179 
L 648.321055 -94.316976 
L 648.321055 -93.198772 
L 648.321055 -92.080569 
L 648.321055 -90.962366 
L 648.321055 -89.844162 
L 648.321055 -88.725959 
L 648.321055 -87.607756 
L 648.321055 -86.489553 
L 648.321055 -85.371349 
L 648.321055 -84.253146 
L 648.321055 -83.134943 
L 648.321055 -82.01674 
L 648.321055 -80.898536 
L 648.321055 -79.780333 
L 648.321055 -78.66213 
L 648.321055 -77.543926 
L 648.321055 -76.425723 
L 648.321055 -75.30752 
L 648.321055 -74.189317 
L 648.321055 -73.071113 
L 648.321055 -71.95291 
L 648.321055 -70.834707 
z
" style="stroke: #4c4c4c; stroke-width: 1.5"/>
    </defs>
    <g clip-path="url(#p0ceee300c8)">
     <use xlink:href="#m27bcb81cac" x="0" y="346.2575" style="fill: #5875a4; stroke: #4c4c4c; stroke-width: 1.5"/>
    </g>
   </g>
   <g id="PolyCollection_12">
    <defs>
     <path id="mc8be12bcc7" d="M 648.747064 -67.172001 
L 648.321055 -67.172001 
L 648.321055 -68.451135 
L 648.321055 -69.730269 
L 648.321055 -71.009403 
L 648.321055 -72.288537 
L 648.321055 -73.567671 
L 648.321055 -74.846805 
L 648.321055 -76.125939 
L 648.321055 -77.405073 
L 648.321055 -78.684207 
L 648.321055 -79.963341 
L 648.321055 -81.242475 
L 648.321055 -82.521609 
L 648.321055 -83.800743 
L 648.321055 -85.079877 
L 648.321055 -86.359011 
L 648.321055 -87.638145 
L 648.321055 -88.917279 
L 648.321055 -90.196413 
L 648.321055 -91.475547 
L 648.321055 -92.754681 
L 648.321055 -94.033815 
L 648.321055 -95.312949 
L 648.321055 -96.592083 
L 648.321055 -97.871217 
L 648.321055 -99.150351 
L 648.321055 -100.429485 
L 648.321055 -101.708619 
L 648.321055 -102.987753 
L 648.321055 -104.266887 
L 648.321055 -105.54602 
L 648.321055 -106.825154 
L 648.321055 -108.104288 
L 648.321055 -109.383422 
L 648.321055 -110.662556 
L 648.321055 -111.94169 
L 648.321055 -113.220824 
L 648.321055 -114.499958 
L 648.321055 -115.779092 
L 648.321055 -117.058226 
L 648.321055 -118.33736 
L 648.321055 -119.616494 
L 648.321055 -120.895628 
L 648.321055 -122.174762 
L 648.321055 -123.453896 
L 648.321055 -124.73303 
L 648.321055 -126.012164 
L 648.321055 -127.291298 
L 648.321055 -128.570432 
L 648.321055 -129.849566 
L 648.321055 -131.1287 
L 648.321055 -132.407834 
L 648.321055 -133.686968 
L 648.321055 -134.966102 
L 648.321055 -136.245236 
L 648.321055 -137.52437 
L 648.321055 -138.803504 
L 648.321055 -140.082638 
L 648.321055 -141.361772 
L 648.321055 -142.640906 
L 648.321055 -143.92004 
L 648.321055 -145.199174 
L 648.321055 -146.478308 
L 648.321055 -147.757442 
L 648.321055 -149.036576 
L 648.321055 -150.31571 
L 648.321055 -151.594844 
L 648.321055 -152.873978 
L 648.321055 -154.153112 
L 648.321055 -155.432246 
L 648.321055 -156.71138 
L 648.321055 -157.990514 
L 648.321055 -159.269647 
L 648.321055 -160.548781 
L 648.321055 -161.827915 
L 648.321055 -163.107049 
L 648.321055 -164.386183 
L 648.321055 -165.665317 
L 648.321055 -166.944451 
L 648.321055 -168.223585 
L 648.321055 -169.502719 
L 648.321055 -170.781853 
L 648.321055 -172.060987 
L 648.321055 -173.340121 
L 648.321055 -174.619255 
L 648.321055 -175.898389 
L 648.321055 -177.177523 
L 648.321055 -178.456657 
L 648.321055 -179.735791 
L 648.321055 -181.014925 
L 648.321055 -182.294059 
L 648.321055 -183.573193 
L 648.321055 -184.852327 
L 648.321055 -186.131461 
L 648.321055 -187.410595 
L 648.321055 -188.689729 
L 648.321055 -189.968863 
L 648.321055 -191.247997 
L 648.321055 -192.527131 
L 648.321055 -193.806265 
L 648.379311 -193.806265 
L 648.379311 -193.806265 
L 648.414478 -192.527131 
L 648.462745 -191.247997 
L 648.524296 -189.968863 
L 648.596779 -188.689729 
L 648.674836 -187.410595 
L 648.750391 -186.131461 
L 648.813849 -184.852327 
L 648.856041 -183.573193 
L 648.870379 -182.294059 
L 648.854546 -181.014925 
L 648.811106 -179.735791 
L 648.746836 -178.456657 
L 648.671004 -177.177523 
L 648.59323 -175.898389 
L 648.521592 -174.619255 
L 648.461521 -173.340121 
L 648.415618 -172.060987 
L 648.384226 -170.781853 
L 648.366374 -169.502719 
L 648.360693 -168.223585 
L 648.365997 -166.944451 
L 648.381416 -165.665317 
L 648.406103 -164.386183 
L 648.438714 -163.107049 
L 648.476903 -161.827915 
L 648.517128 -160.548781 
L 648.554965 -159.269647 
L 648.585956 -157.990514 
L 648.606814 -156.71138 
L 648.616594 -155.432246 
L 648.617393 -154.153112 
L 648.614245 -152.873978 
L 648.61412 -151.594844 
L 648.624255 -150.31571 
L 648.650269 -149.036576 
L 648.694617 -147.757442 
L 648.75587 -146.478308 
L 648.829073 -145.199174 
L 648.907099 -143.92004 
L 648.98262 -142.640906 
L 649.050094 -141.361772 
L 649.107166 -140.082638 
L 649.155095 -138.803504 
L 649.19815 -137.52437 
L 649.242272 -136.245236 
L 649.293417 -134.966102 
L 649.356025 -133.686968 
L 649.431845 -132.407834 
L 649.519247 -131.1287 
L 649.613118 -129.849566 
L 649.705447 -128.570432 
L 649.786797 -127.291298 
L 649.848645 -126.012164 
L 649.886364 -124.73303 
L 649.902177 -123.453896 
L 649.907242 -122.174762 
L 649.921986 -120.895628 
L 649.974144 -119.616494 
L 650.09455 -118.33736 
L 650.311353 -117.058226 
L 650.64397 -115.779092 
L 651.098426 -114.499958 
L 651.665684 -113.220824 
L 652.323981 -111.94169 
L 653.045083 -110.662556 
L 653.803038 -109.383422 
L 654.582903 -108.104288 
L 655.386648 -106.825154 
L 656.234245 -105.54602 
L 657.159615 -104.266887 
L 658.202967 -102.987753 
L 659.402258 -101.708619 
L 660.786398 -100.429485 
L 662.371478 -99.150351 
L 664.159358 -97.871217 
L 666.136437 -96.592083 
L 668.270201 -95.312949 
L 670.502618 -94.033815 
L 672.742082 -92.754681 
L 674.858171 -91.475547 
L 676.684526 -90.196413 
L 678.033696 -88.917279 
L 678.723938 -87.638145 
L 678.613101 -86.359011 
L 677.630929 -85.079877 
L 675.800208 -83.800743 
L 673.239772 -82.521609 
L 670.147659 -81.242475 
L 666.768593 -79.963341 
L 663.354322 -78.684207 
L 660.126641 -77.405073 
L 657.251058 -76.125939 
L 654.825044 -74.846805 
L 652.880388 -73.567671 
L 651.395844 -72.288537 
L 650.314806 -71.009403 
L 649.563148 -69.730269 
L 649.063877 -68.451135 
L 648.747064 -67.172001 
z
" style="stroke: #4c4c4c; stroke-width: 1.5"/>
    </defs>
    <g clip-path="url(#p0ceee300c8)">
     <use xlink:href="#mc8be12bcc7" x="0" y="346.2575" style="fill: #cc8963; stroke: #4c4c4c; stroke-width: 1.5"/>
    </g>
   </g>
   <g id="line2d_23">
    <path d="M 437.584723 268.350681 
L 437.584723 246.21252 
" clip-path="url(#p0ceee300c8)" style="fill: none; stroke: #4c4c4c; stroke-width: 1.5; stroke-linecap: round"/>
   </g>
   <g id="line2d_24">
    <path d="M 437.584723 265.15361 
L 437.584723 257.563532 
" clip-path="url(#p0ceee300c8)" style="fill: none; stroke: #4c4c4c; stroke-width: 4.5; stroke-linecap: round"/>
   </g>
   <g id="line2d_25">
    <path d="M 542.952889 268.350681 
L 542.952889 247.904469 
" clip-path="url(#p0ceee300c8)" style="fill: none; stroke: #4c4c4c; stroke-width: 1.5; stroke-linecap: round"/>
   </g>
   <g id="line2d_26">
    <path d="M 542.952889 265.228216 
L 542.952889 258.089672 
" clip-path="url(#p0ceee300c8)" style="fill: none; stroke: #4c4c4c; stroke-width: 4.5; stroke-linecap: round"/>
   </g>
   <g id="line2d_27">
    <path d="M 648.321055 268.350681 
L 648.321055 237.201856 
" clip-path="url(#p0ceee300c8)" style="fill: none; stroke: #4c4c4c; stroke-width: 1.5; stroke-linecap: round"/>
   </g>
   <g id="line2d_28">
    <path d="M 648.321055 262.565631 
L 648.321055 252.401602 
" clip-path="url(#p0ceee300c8)" style="fill: none; stroke: #4c4c4c; stroke-width: 4.5; stroke-linecap: round"/>
   </g>
   <g id="patch_10">
    <path d="M 384.90064 302.991875 
L 384.90064 22.318125 
" style="fill: none; stroke: #262626; stroke-width: 1.25; stroke-linejoin: miter; stroke-linecap: square"/>
   </g>
   <g id="patch_11">
    <path d="M 384.90064 302.991875 
L 701.005138 302.991875 
" style="fill: none; stroke: #262626; stroke-width: 1.25; stroke-linejoin: miter; stroke-linecap: square"/>
   </g>
   <g id="PathCollection_4">
    <g clip-path="url(#p0ceee300c8)">
     <use xlink:href="#m14382810f4" x="437.584723" y="262.86373" style="fill: #ffffff; stroke: #4c4c4c"/>
    </g>
   </g>
   <g id="PathCollection_5">
    <g clip-path="url(#p0ceee300c8)">
     <use xlink:href="#m14382810f4" x="542.952889" y="262.433143" style="fill: #ffffff; stroke: #4c4c4c"/>
    </g>
   </g>
   <g id="PathCollection_6">
    <g clip-path="url(#p0ceee300c8)">
     <use xlink:href="#m14382810f4" x="648.321055" y="258.937227" style="fill: #ffffff; stroke: #4c4c4c"/>
    </g>
   </g>
   <g id="text_16">
    <!-- Dyn_obs = 10.0 -->
    <g style="fill: #262626" transform="translate(495.172264 16.318125)scale(0.12 -0.12)">
     <defs>
      <path id="DejaVuSans-31" d="M 794 531 
L 1825 531 
L 1825 4091 
L 703 3866 
L 703 4441 
L 1819 4666 
L 2450 4666 
L 2450 531 
L 3481 531 
L 3481 0 
L 794 0 
L 794 531 
z
" transform="scale(0.015625)"/>
     </defs>
     <use xlink:href="#DejaVuSans-44"/>
     <use xlink:href="#DejaVuSans-79" x="77.001953"/>
     <use xlink:href="#DejaVuSans-6e" x="136.181641"/>
     <use xlink:href="#DejaVuSans-5f" x="199.560547"/>
     <use xlink:href="#DejaVuSans-6f" x="249.560547"/>
     <use xlink:href="#DejaVuSans-62" x="310.742188"/>
     <use xlink:href="#DejaVuSans-73" x="374.21875"/>
     <use xlink:href="#DejaVuSans-20" x="426.318359"/>
     <use xlink:href="#DejaVuSans-3d" x="458.105469"/>
     <use xlink:href="#DejaVuSans-20" x="541.894531"/>
     <use xlink:href="#DejaVuSans-31" x="573.681641"/>
     <use xlink:href="#DejaVuSans-30" x="637.304688"/>
     <use xlink:href="#DejaVuSans-2e" x="700.927734"/>
     <use xlink:href="#DejaVuSans-30" x="732.714844"/>
    </g>
   </g>
  </g>
  <g id="legend_1">
   <g id="text_17">
    <!-- dim -->
    <g style="fill: #262626" transform="translate(720.429809 160.294062)scale(0.12 -0.12)">
     <defs>
      <path id="DejaVuSans-69" d="M 603 3500 
L 1178 3500 
L 1178 0 
L 603 0 
L 603 3500 
z
M 603 4863 
L 1178 4863 
L 1178 4134 
L 603 4134 
L 603 4863 
z
" transform="scale(0.015625)"/>
     </defs>
     <use xlink:href="#DejaVuSans-64"/>
     <use xlink:href="#DejaVuSans-69" x="63.476562"/>
     <use xlink:href="#DejaVuSans-6d" x="91.259766"/>
    </g>
   </g>
   <g id="patch_12">
    <path d="M 709.359106 176.647969 
L 731.359106 176.647969 
L 731.359106 168.947969 
L 709.359106 168.947969 
z
" style="fill: #5875a4; stroke: #4c4c4c; stroke-width: 0.75; stroke-linejoin: miter"/>
   </g>
   <g id="text_18">
    <!-- 2d -->
    <g style="fill: #262626" transform="translate(740.159106 176.647969)scale(0.11 -0.11)">
     <use xlink:href="#DejaVuSans-32"/>
     <use xlink:href="#DejaVuSans-64" x="63.623047"/>
    </g>
   </g>
   <g id="patch_13">
    <path d="M 709.359106 192.793906 
L 731.359106 192.793906 
L 731.359106 185.093906 
L 709.359106 185.093906 
z
" style="fill: #cc8963; stroke: #4c4c4c; stroke-width: 0.75; stroke-linejoin: miter"/>
   </g>
   <g id="text_19">
    <!-- 3d -->
    <g style="fill: #262626" transform="translate(740.159106 192.793906)scale(0.11 -0.11)">
     <defs>
      <path id="DejaVuSans-33" d="M 2597 2516 
Q 3050 2419 3304 2112 
Q 3559 1806 3559 1356 
Q 3559 666 3084 287 
Q 2609 -91 1734 -91 
Q 1441 -91 1130 -33 
Q 819 25 488 141 
L 488 750 
Q 750 597 1062 519 
Q 1375 441 1716 441 
Q 2309 441 2620 675 
Q 2931 909 2931 1356 
Q 2931 1769 2642 2001 
Q 2353 2234 1838 2234 
L 1294 2234 
L 1294 2753 
L 1863 2753 
Q 2328 2753 2575 2939 
Q 2822 3125 2822 3475 
Q 2822 3834 2567 4026 
Q 2313 4219 1838 4219 
Q 1578 4219 1281 4162 
Q 984 4106 628 3988 
L 628 4550 
Q 988 4650 1302 4700 
Q 1616 4750 1894 4750 
Q 2613 4750 3031 4423 
Q 3450 4097 3450 3541 
Q 3450 3153 3228 2886 
Q 3006 2619 2597 2516 
z
" transform="scale(0.015625)"/>
     </defs>
     <use xlink:href="#DejaVuSans-33"/>
     <use xlink:href="#DejaVuSans-64" x="63.623047"/>
    </g>
   </g>
  </g>
 </g>
 <defs>
  <clipPath id="pab5a9093f0">
   <rect x="49.807188" y="22.318125" width="316.104498" height="280.67375"/>
  </clipPath>
  <clipPath id="p0ceee300c8">
   <rect x="384.90064" y="22.318125" width="316.104498" height="280.67375"/>
  </clipPath>
 </defs>
</svg>
