<?xml version="1.0" encoding="utf-8" standalone="no"?>
<!DOCTYPE svg PUBLIC "-//W3C//DTD SVG 1.1//EN"
  "http://www.w3.org/Graphics/SVG/1.1/DTD/svg11.dtd">
<svg xmlns:xlink="http://www.w3.org/1999/xlink" width="763.454488pt" height="346.2575pt" viewBox="0 0 763.454488 346.2575" xmlns="http://www.w3.org/2000/svg" version="1.1">
 <metadata>
  <rdf:RDF xmlns:dc="http://purl.org/dc/elements/1.1/" xmlns:cc="http://creativecommons.org/ns#" xmlns:rdf="http://www.w3.org/1999/02/22-rdf-syntax-ns#">
   <cc:Work>
    <dc:type rdf:resource="http://purl.org/dc/dcmitype/StillImage"/>
    <dc:date>2022-03-24T23:54:23.954025</dc:date>
    <dc:format>image/svg+xml</dc:format>
    <dc:creator>
     <cc:Agent>
      <dc:title>Matplotlib v3.5.1, https://matplotlib.org/</dc:title>
     </cc:Agent>
    </dc:creator>
   </cc:Work>
  </rdf:RDF>
 </metadata>
 <defs>
  <style type="text/css">*{stroke-linejoin: round; stroke-linecap: butt}</style>
 </defs>
 <g id="figure_1">
  <g id="patch_1">
   <path d="M 0 346.2575 
L 763.454488 346.2575 
L 763.454488 0 
L 0 0 
z
" style="fill: #ffffff"/>
  </g>
  <g id="axes_1">
   <g id="patch_2">
    <path d="M 59.024844 302.991875 
L 370.237028 302.991875 
L 370.237028 22.318125 
L 59.024844 22.318125 
z
" style="fill: #ffffff"/>
   </g>
   <g id="matplotlib.axis_1">
    <g id="xtick_1">
     <g id="line2d_1">
      <defs>
       <path id="m709bd742a3" d="M 0 0 
L 0 6 
" style="stroke: #262626; stroke-width: 1.25"/>
      </defs>
      <g>
       <use xlink:href="#m709bd742a3" x="110.893541" y="302.991875" style="fill: #262626; stroke: #262626; stroke-width: 1.25"/>
      </g>
     </g>
     <g id="text_1">
      <!-- map2 -->
      <g style="fill: #262626" transform="translate(95.174713 320.850156)scale(0.11 -0.11)">
       <defs>
        <path id="DejaVuSans-6d" d="M 3328 2828 
Q 3544 3216 3844 3400 
Q 4144 3584 4550 3584 
Q 5097 3584 5394 3201 
Q 5691 2819 5691 2113 
L 5691 0 
L 5113 0 
L 5113 2094 
Q 5113 2597 4934 2840 
Q 4756 3084 4391 3084 
Q 3944 3084 3684 2787 
Q 3425 2491 3425 1978 
L 3425 0 
L 2847 0 
L 2847 2094 
Q 2847 2600 2669 2842 
Q 2491 3084 2119 3084 
Q 1678 3084 1418 2786 
Q 1159 2488 1159 1978 
L 1159 0 
L 581 0 
L 581 3500 
L 1159 3500 
L 1159 2956 
Q 1356 3278 1631 3431 
Q 1906 3584 2284 3584 
Q 2666 3584 2933 3390 
Q 3200 3197 3328 2828 
z
" transform="scale(0.015625)"/>
        <path id="DejaVuSans-61" d="M 2194 1759 
Q 1497 1759 1228 1600 
Q 959 1441 959 1056 
Q 959 750 1161 570 
Q 1363 391 1709 391 
Q 2188 391 2477 730 
Q 2766 1069 2766 1631 
L 2766 1759 
L 2194 1759 
z
M 3341 1997 
L 3341 0 
L 2766 0 
L 2766 531 
Q 2569 213 2275 61 
Q 1981 -91 1556 -91 
Q 1019 -91 701 211 
Q 384 513 384 1019 
Q 384 1609 779 1909 
Q 1175 2209 1959 2209 
L 2766 2209 
L 2766 2266 
Q 2766 2663 2505 2880 
Q 2244 3097 1772 3097 
Q 1472 3097 1187 3025 
Q 903 2953 641 2809 
L 641 3341 
Q 956 3463 1253 3523 
Q 1550 3584 1831 3584 
Q 2591 3584 2966 3190 
Q 3341 2797 3341 1997 
z
" transform="scale(0.015625)"/>
        <path id="DejaVuSans-70" d="M 1159 525 
L 1159 -1331 
L 581 -1331 
L 581 3500 
L 1159 3500 
L 1159 2969 
Q 1341 3281 1617 3432 
Q 1894 3584 2278 3584 
Q 2916 3584 3314 3078 
Q 3713 2572 3713 1747 
Q 3713 922 3314 415 
Q 2916 -91 2278 -91 
Q 1894 -91 1617 61 
Q 1341 213 1159 525 
z
M 3116 1747 
Q 3116 2381 2855 2742 
Q 2594 3103 2138 3103 
Q 1681 3103 1420 2742 
Q 1159 2381 1159 1747 
Q 1159 1113 1420 752 
Q 1681 391 2138 391 
Q 2594 391 2855 752 
Q 3116 1113 3116 1747 
z
" transform="scale(0.015625)"/>
        <path id="DejaVuSans-32" d="M 1228 531 
L 3431 531 
L 3431 0 
L 469 0 
L 469 531 
Q 828 903 1448 1529 
Q 2069 2156 2228 2338 
Q 2531 2678 2651 2914 
Q 2772 3150 2772 3378 
Q 2772 3750 2511 3984 
Q 2250 4219 1831 4219 
Q 1534 4219 1204 4116 
Q 875 4013 500 3803 
L 500 4441 
Q 881 4594 1212 4672 
Q 1544 4750 1819 4750 
Q 2544 4750 2975 4387 
Q 3406 4025 3406 3419 
Q 3406 3131 3298 2873 
Q 3191 2616 2906 2266 
Q 2828 2175 2409 1742 
Q 1991 1309 1228 531 
z
" transform="scale(0.015625)"/>
       </defs>
       <use xlink:href="#DejaVuSans-6d"/>
       <use xlink:href="#DejaVuSans-61" x="97.412109"/>
       <use xlink:href="#DejaVuSans-70" x="158.691406"/>
       <use xlink:href="#DejaVuSans-32" x="222.167969"/>
      </g>
     </g>
    </g>
    <g id="xtick_2">
     <g id="line2d_2">
      <g>
       <use xlink:href="#m709bd742a3" x="214.630936" y="302.991875" style="fill: #262626; stroke: #262626; stroke-width: 1.25"/>
      </g>
     </g>
     <g id="text_2">
      <!-- map5 -->
      <g style="fill: #262626" transform="translate(198.912108 320.850156)scale(0.11 -0.11)">
       <defs>
        <path id="DejaVuSans-35" d="M 691 4666 
L 3169 4666 
L 3169 4134 
L 1269 4134 
L 1269 2991 
Q 1406 3038 1543 3061 
Q 1681 3084 1819 3084 
Q 2600 3084 3056 2656 
Q 3513 2228 3513 1497 
Q 3513 744 3044 326 
Q 2575 -91 1722 -91 
Q 1428 -91 1123 -41 
Q 819 9 494 109 
L 494 744 
Q 775 591 1075 516 
Q 1375 441 1709 441 
Q 2250 441 2565 725 
Q 2881 1009 2881 1497 
Q 2881 1984 2565 2268 
Q 2250 2553 1709 2553 
Q 1456 2553 1204 2497 
Q 953 2441 691 2322 
L 691 4666 
z
" transform="scale(0.015625)"/>
       </defs>
       <use xlink:href="#DejaVuSans-6d"/>
       <use xlink:href="#DejaVuSans-61" x="97.412109"/>
       <use xlink:href="#DejaVuSans-70" x="158.691406"/>
       <use xlink:href="#DejaVuSans-35" x="222.167969"/>
      </g>
     </g>
    </g>
    <g id="xtick_3">
     <g id="line2d_3">
      <g>
       <use xlink:href="#m709bd742a3" x="318.368331" y="302.991875" style="fill: #262626; stroke: #262626; stroke-width: 1.25"/>
      </g>
     </g>
     <g id="text_3">
      <!-- small_warehouse -->
      <g style="fill: #262626" transform="translate(270.993565 320.850156)scale(0.11 -0.11)">
       <defs>
        <path id="DejaVuSans-73" d="M 2834 3397 
L 2834 2853 
Q 2591 2978 2328 3040 
Q 2066 3103 1784 3103 
Q 1356 3103 1142 2972 
Q 928 2841 928 2578 
Q 928 2378 1081 2264 
Q 1234 2150 1697 2047 
L 1894 2003 
Q 2506 1872 2764 1633 
Q 3022 1394 3022 966 
Q 3022 478 2636 193 
Q 2250 -91 1575 -91 
Q 1294 -91 989 -36 
Q 684 19 347 128 
L 347 722 
Q 666 556 975 473 
Q 1284 391 1588 391 
Q 1994 391 2212 530 
Q 2431 669 2431 922 
Q 2431 1156 2273 1281 
Q 2116 1406 1581 1522 
L 1381 1569 
Q 847 1681 609 1914 
Q 372 2147 372 2553 
Q 372 3047 722 3315 
Q 1072 3584 1716 3584 
Q 2034 3584 2315 3537 
Q 2597 3491 2834 3397 
z
" transform="scale(0.015625)"/>
        <path id="DejaVuSans-6c" d="M 603 4863 
L 1178 4863 
L 1178 0 
L 603 0 
L 603 4863 
z
" transform="scale(0.015625)"/>
        <path id="DejaVuSans-5f" d="M 3263 -1063 
L 3263 -1509 
L -63 -1509 
L -63 -1063 
L 3263 -1063 
z
" transform="scale(0.015625)"/>
        <path id="DejaVuSans-77" d="M 269 3500 
L 844 3500 
L 1563 769 
L 2278 3500 
L 2956 3500 
L 3675 769 
L 4391 3500 
L 4966 3500 
L 4050 0 
L 3372 0 
L 2619 2869 
L 1863 0 
L 1184 0 
L 269 3500 
z
" transform="scale(0.015625)"/>
        <path id="DejaVuSans-72" d="M 2631 2963 
Q 2534 3019 2420 3045 
Q 2306 3072 2169 3072 
Q 1681 3072 1420 2755 
Q 1159 2438 1159 1844 
L 1159 0 
L 581 0 
L 581 3500 
L 1159 3500 
L 1159 2956 
Q 1341 3275 1631 3429 
Q 1922 3584 2338 3584 
Q 2397 3584 2469 3576 
Q 2541 3569 2628 3553 
L 2631 2963 
z
" transform="scale(0.015625)"/>
        <path id="DejaVuSans-65" d="M 3597 1894 
L 3597 1613 
L 953 1613 
Q 991 1019 1311 708 
Q 1631 397 2203 397 
Q 2534 397 2845 478 
Q 3156 559 3463 722 
L 3463 178 
Q 3153 47 2828 -22 
Q 2503 -91 2169 -91 
Q 1331 -91 842 396 
Q 353 884 353 1716 
Q 353 2575 817 3079 
Q 1281 3584 2069 3584 
Q 2775 3584 3186 3129 
Q 3597 2675 3597 1894 
z
M 3022 2063 
Q 3016 2534 2758 2815 
Q 2500 3097 2075 3097 
Q 1594 3097 1305 2825 
Q 1016 2553 972 2059 
L 3022 2063 
z
" transform="scale(0.015625)"/>
        <path id="DejaVuSans-68" d="M 3513 2113 
L 3513 0 
L 2938 0 
L 2938 2094 
Q 2938 2591 2744 2837 
Q 2550 3084 2163 3084 
Q 1697 3084 1428 2787 
Q 1159 2491 1159 1978 
L 1159 0 
L 581 0 
L 581 4863 
L 1159 4863 
L 1159 2956 
Q 1366 3272 1645 3428 
Q 1925 3584 2291 3584 
Q 2894 3584 3203 3211 
Q 3513 2838 3513 2113 
z
" transform="scale(0.015625)"/>
        <path id="DejaVuSans-6f" d="M 1959 3097 
Q 1497 3097 1228 2736 
Q 959 2375 959 1747 
Q 959 1119 1226 758 
Q 1494 397 1959 397 
Q 2419 397 2687 759 
Q 2956 1122 2956 1747 
Q 2956 2369 2687 2733 
Q 2419 3097 1959 3097 
z
M 1959 3584 
Q 2709 3584 3137 3096 
Q 3566 2609 3566 1747 
Q 3566 888 3137 398 
Q 2709 -91 1959 -91 
Q 1206 -91 779 398 
Q 353 888 353 1747 
Q 353 2609 779 3096 
Q 1206 3584 1959 3584 
z
" transform="scale(0.015625)"/>
        <path id="DejaVuSans-75" d="M 544 1381 
L 544 3500 
L 1119 3500 
L 1119 1403 
Q 1119 906 1312 657 
Q 1506 409 1894 409 
Q 2359 409 2629 706 
Q 2900 1003 2900 1516 
L 2900 3500 
L 3475 3500 
L 3475 0 
L 2900 0 
L 2900 538 
Q 2691 219 2414 64 
Q 2138 -91 1772 -91 
Q 1169 -91 856 284 
Q 544 659 544 1381 
z
M 1991 3584 
L 1991 3584 
z
" transform="scale(0.015625)"/>
       </defs>
       <use xlink:href="#DejaVuSans-73"/>
       <use xlink:href="#DejaVuSans-6d" x="52.099609"/>
       <use xlink:href="#DejaVuSans-61" x="149.511719"/>
       <use xlink:href="#DejaVuSans-6c" x="210.791016"/>
       <use xlink:href="#DejaVuSans-6c" x="238.574219"/>
       <use xlink:href="#DejaVuSans-5f" x="266.357422"/>
       <use xlink:href="#DejaVuSans-77" x="316.357422"/>
       <use xlink:href="#DejaVuSans-61" x="398.144531"/>
       <use xlink:href="#DejaVuSans-72" x="459.423828"/>
       <use xlink:href="#DejaVuSans-65" x="498.287109"/>
       <use xlink:href="#DejaVuSans-68" x="559.810547"/>
       <use xlink:href="#DejaVuSans-6f" x="623.189453"/>
       <use xlink:href="#DejaVuSans-75" x="684.371094"/>
       <use xlink:href="#DejaVuSans-73" x="747.75"/>
       <use xlink:href="#DejaVuSans-65" x="799.849609"/>
      </g>
     </g>
    </g>
    <g id="text_4">
     <!-- World -->
     <g style="fill: #262626" transform="translate(197.437186 336.561875)scale(0.12 -0.12)">
      <defs>
       <path id="DejaVuSans-57" d="M 213 4666 
L 850 4666 
L 1831 722 
L 2809 4666 
L 3519 4666 
L 4500 722 
L 5478 4666 
L 6119 4666 
L 4947 0 
L 4153 0 
L 3169 4050 
L 2175 0 
L 1381 0 
L 213 4666 
z
" transform="scale(0.015625)"/>
       <path id="DejaVuSans-64" d="M 2906 2969 
L 2906 4863 
L 3481 4863 
L 3481 0 
L 2906 0 
L 2906 525 
Q 2725 213 2448 61 
Q 2172 -91 1784 -91 
Q 1150 -91 751 415 
Q 353 922 353 1747 
Q 353 2572 751 3078 
Q 1150 3584 1784 3584 
Q 2172 3584 2448 3432 
Q 2725 3281 2906 2969 
z
M 947 1747 
Q 947 1113 1208 752 
Q 1469 391 1925 391 
Q 2381 391 2643 752 
Q 2906 1113 2906 1747 
Q 2906 2381 2643 2742 
Q 2381 3103 1925 3103 
Q 1469 3103 1208 2742 
Q 947 2381 947 1747 
z
" transform="scale(0.015625)"/>
      </defs>
      <use xlink:href="#DejaVuSans-57"/>
      <use xlink:href="#DejaVuSans-6f" x="93.001953"/>
      <use xlink:href="#DejaVuSans-72" x="154.183594"/>
      <use xlink:href="#DejaVuSans-6c" x="195.296875"/>
      <use xlink:href="#DejaVuSans-64" x="223.080078"/>
     </g>
    </g>
   </g>
   <g id="matplotlib.axis_2">
    <g id="ytick_1">
     <g id="line2d_4">
      <defs>
       <path id="m4a221971b6" d="M 0 0 
L -6 0 
" style="stroke: #262626; stroke-width: 1.25"/>
      </defs>
      <g>
       <use xlink:href="#m4a221971b6" x="59.024844" y="288.857156" style="fill: #262626; stroke: #262626; stroke-width: 1.25"/>
      </g>
     </g>
     <g id="text_5">
      <!-- −0.5 -->
      <g style="fill: #262626" transform="translate(22.81375 293.036296)scale(0.11 -0.11)">
       <defs>
        <path id="DejaVuSans-2212" d="M 678 2272 
L 4684 2272 
L 4684 1741 
L 678 1741 
L 678 2272 
z
" transform="scale(0.015625)"/>
        <path id="DejaVuSans-30" d="M 2034 4250 
Q 1547 4250 1301 3770 
Q 1056 3291 1056 2328 
Q 1056 1369 1301 889 
Q 1547 409 2034 409 
Q 2525 409 2770 889 
Q 3016 1369 3016 2328 
Q 3016 3291 2770 3770 
Q 2525 4250 2034 4250 
z
M 2034 4750 
Q 2819 4750 3233 4129 
Q 3647 3509 3647 2328 
Q 3647 1150 3233 529 
Q 2819 -91 2034 -91 
Q 1250 -91 836 529 
Q 422 1150 422 2328 
Q 422 3509 836 4129 
Q 1250 4750 2034 4750 
z
" transform="scale(0.015625)"/>
        <path id="DejaVuSans-2e" d="M 684 794 
L 1344 794 
L 1344 0 
L 684 0 
L 684 794 
z
" transform="scale(0.015625)"/>
       </defs>
       <use xlink:href="#DejaVuSans-2212"/>
       <use xlink:href="#DejaVuSans-30" x="83.789062"/>
       <use xlink:href="#DejaVuSans-2e" x="147.412109"/>
       <use xlink:href="#DejaVuSans-35" x="179.199219"/>
      </g>
     </g>
    </g>
    <g id="ytick_2">
     <g id="line2d_5">
      <g>
       <use xlink:href="#m4a221971b6" x="59.024844" y="246.089873" style="fill: #262626; stroke: #262626; stroke-width: 1.25"/>
      </g>
     </g>
     <g id="text_6">
      <!-- 0.0 -->
      <g style="fill: #262626" transform="translate(32.031406 250.269014)scale(0.11 -0.11)">
       <use xlink:href="#DejaVuSans-30"/>
       <use xlink:href="#DejaVuSans-2e" x="63.623047"/>
       <use xlink:href="#DejaVuSans-30" x="95.410156"/>
      </g>
     </g>
    </g>
    <g id="ytick_3">
     <g id="line2d_6">
      <g>
       <use xlink:href="#m4a221971b6" x="59.024844" y="203.322591" style="fill: #262626; stroke: #262626; stroke-width: 1.25"/>
      </g>
     </g>
     <g id="text_7">
      <!-- 0.5 -->
      <g style="fill: #262626" transform="translate(32.031406 207.501731)scale(0.11 -0.11)">
       <use xlink:href="#DejaVuSans-30"/>
       <use xlink:href="#DejaVuSans-2e" x="63.623047"/>
       <use xlink:href="#DejaVuSans-35" x="95.410156"/>
      </g>
     </g>
    </g>
    <g id="ytick_4">
     <g id="line2d_7">
      <g>
       <use xlink:href="#m4a221971b6" x="59.024844" y="160.555308" style="fill: #262626; stroke: #262626; stroke-width: 1.25"/>
      </g>
     </g>
     <g id="text_8">
      <!-- 1.0 -->
      <g style="fill: #262626" transform="translate(32.031406 164.734449)scale(0.11 -0.11)">
       <defs>
        <path id="DejaVuSans-31" d="M 794 531 
L 1825 531 
L 1825 4091 
L 703 3866 
L 703 4441 
L 1819 4666 
L 2450 4666 
L 2450 531 
L 3481 531 
L 3481 0 
L 794 0 
L 794 531 
z
" transform="scale(0.015625)"/>
       </defs>
       <use xlink:href="#DejaVuSans-31"/>
       <use xlink:href="#DejaVuSans-2e" x="63.623047"/>
       <use xlink:href="#DejaVuSans-30" x="95.410156"/>
      </g>
     </g>
    </g>
    <g id="ytick_5">
     <g id="line2d_8">
      <g>
       <use xlink:href="#m4a221971b6" x="59.024844" y="117.788026" style="fill: #262626; stroke: #262626; stroke-width: 1.25"/>
      </g>
     </g>
     <g id="text_9">
      <!-- 1.5 -->
      <g style="fill: #262626" transform="translate(32.031406 121.967166)scale(0.11 -0.11)">
       <use xlink:href="#DejaVuSans-31"/>
       <use xlink:href="#DejaVuSans-2e" x="63.623047"/>
       <use xlink:href="#DejaVuSans-35" x="95.410156"/>
      </g>
     </g>
    </g>
    <g id="ytick_6">
     <g id="line2d_9">
      <g>
       <use xlink:href="#m4a221971b6" x="59.024844" y="75.020743" style="fill: #262626; stroke: #262626; stroke-width: 1.25"/>
      </g>
     </g>
     <g id="text_10">
      <!-- 2.0 -->
      <g style="fill: #262626" transform="translate(32.031406 79.199884)scale(0.11 -0.11)">
       <use xlink:href="#DejaVuSans-32"/>
       <use xlink:href="#DejaVuSans-2e" x="63.623047"/>
       <use xlink:href="#DejaVuSans-30" x="95.410156"/>
      </g>
     </g>
    </g>
    <g id="ytick_7">
     <g id="line2d_10">
      <g>
       <use xlink:href="#m4a221971b6" x="59.024844" y="32.25346" style="fill: #262626; stroke: #262626; stroke-width: 1.25"/>
      </g>
     </g>
     <g id="text_11">
      <!-- 2.5 -->
      <g style="fill: #262626" transform="translate(32.031406 36.432601)scale(0.11 -0.11)">
       <use xlink:href="#DejaVuSans-32"/>
       <use xlink:href="#DejaVuSans-2e" x="63.623047"/>
       <use xlink:href="#DejaVuSans-35" x="95.410156"/>
      </g>
     </g>
    </g>
    <g id="text_12">
     <!-- vel -->
     <g style="fill: #262626" transform="translate(16.318125 171.565)rotate(-90)scale(0.12 -0.12)">
      <defs>
       <path id="DejaVuSans-76" d="M 191 3500 
L 800 3500 
L 1894 563 
L 2988 3500 
L 3597 3500 
L 2284 0 
L 1503 0 
L 191 3500 
z
" transform="scale(0.015625)"/>
      </defs>
      <use xlink:href="#DejaVuSans-76"/>
      <use xlink:href="#DejaVuSans-65" x="59.179688"/>
      <use xlink:href="#DejaVuSans-6c" x="120.703125"/>
     </g>
    </g>
   </g>
   <g id="patch_3">
    <path d="M 110.893541 246.089873 
L 110.893541 246.089873 
L 110.893541 246.089873 
L 110.893541 246.089873 
z
" clip-path="url(#p7158edbddc)" style="fill: #5875a4; stroke: #4c4c4c; stroke-width: 0.75; stroke-linejoin: miter"/>
   </g>
   <g id="PolyCollection_1">
    <defs>
     <path id="md5409d1d0a" d="M 110.893541 -85.332006 
L 106.928981 -85.332006 
L 105.624283 -87.471755 
L 104.019235 -89.611504 
L 102.090279 -91.751253 
L 99.827151 -93.891002 
L 97.237334 -96.03075 
L 94.349835 -98.170499 
L 91.217664 -100.310248 
L 87.918419 -102.449997 
L 84.552509 -104.589746 
L 81.238813 -106.729495 
L 78.107856 -108.869244 
L 75.292975 -111.008993 
L 72.920243 -113.148742 
L 71.098187 -115.288491 
L 69.908462 -117.42824 
L 69.398583 -119.567989 
L 69.577614 -121.707738 
L 70.415359 -123.847487 
L 71.84519 -125.987236 
L 73.770141 -128.126985 
L 76.071568 -130.266734 
L 78.619331 -132.406483 
L 81.282364 -134.546232 
L 83.938506 -136.685981 
L 86.482653 -138.82573 
L 88.832574 -140.965479 
L 90.932051 -143.105228 
L 92.751364 -145.244976 
L 94.285406 -147.384725 
L 95.549943 -149.524474 
L 96.576652 -151.664223 
L 97.407605 -153.803972 
L 98.0898 -155.943721 
L 98.67026 -158.08347 
L 99.192058 -160.223219 
L 99.691461 -162.362968 
L 100.196263 -164.502717 
L 100.72521 -166.642466 
L 101.288357 -168.782215 
L 101.88811 -170.921964 
L 102.520711 -173.061713 
L 103.177909 -175.201462 
L 103.848631 -177.341211 
L 104.52048 -179.48096 
L 105.180979 -181.620709 
L 105.818516 -183.760458 
L 106.42299 -185.900207 
L 106.986183 -188.039956 
L 107.501914 -190.179705 
L 107.966003 -192.319454 
L 108.376119 -194.459202 
L 108.731525 -196.598951 
L 109.032761 -198.7387 
L 109.281308 -200.878449 
L 109.479227 -203.018198 
L 109.628831 -205.157947 
L 109.732386 -207.297696 
L 109.791877 -209.437445 
L 109.808852 -211.577194 
L 109.784353 -213.716943 
L 109.71894 -215.856692 
L 109.612802 -217.996441 
L 109.46595 -220.13619 
L 109.278474 -222.275939 
L 109.050833 -224.415688 
L 108.784176 -226.555437 
L 108.480652 -228.695186 
L 108.143688 -230.834935 
L 107.778216 -232.974684 
L 107.390827 -235.114433 
L 106.989807 -237.254182 
L 106.585071 -239.393931 
L 106.187951 -241.53368 
L 105.810837 -243.673428 
L 105.466692 -245.813177 
L 105.168436 -247.952926 
L 104.928248 -250.092675 
L 104.756821 -252.232424 
L 104.662652 -254.372173 
L 104.651397 -256.511922 
L 104.725395 -258.651671 
L 104.883395 -260.79142 
L 105.120523 -262.931169 
L 105.428528 -265.070918 
L 105.796265 -267.210667 
L 106.210401 -269.350416 
L 106.656263 -271.490165 
L 107.118761 -273.629914 
L 107.583292 -275.769663 
L 108.036552 -277.909412 
L 108.467182 -280.049161 
L 108.86621 -282.18891 
L 109.227263 -284.328659 
L 109.546574 -286.468408 
L 109.822782 -288.608157 
L 110.0566 -290.747906 
L 110.25039 -292.887654 
L 110.407698 -295.027403 
L 110.532799 -297.167152 
L 110.893541 -297.167152 
L 110.893541 -297.167152 
L 110.893541 -295.027403 
L 110.893541 -292.887654 
L 110.893541 -290.747906 
L 110.893541 -288.608157 
L 110.893541 -286.468408 
L 110.893541 -284.328659 
L 110.893541 -282.18891 
L 110.893541 -280.049161 
L 110.893541 -277.909412 
L 110.893541 -275.769663 
L 110.893541 -273.629914 
L 110.893541 -271.490165 
L 110.893541 -269.350416 
L 110.893541 -267.210667 
L 110.893541 -265.070918 
L 110.893541 -262.931169 
L 110.893541 -260.79142 
L 110.893541 -258.651671 
L 110.893541 -256.511922 
L 110.893541 -254.372173 
L 110.893541 -252.232424 
L 110.893541 -250.092675 
L 110.893541 -247.952926 
L 110.893541 -245.813177 
L 110.893541 -243.673428 
L 110.893541 -241.53368 
L 110.893541 -239.393931 
L 110.893541 -237.254182 
L 110.893541 -235.114433 
L 110.893541 -232.974684 
L 110.893541 -230.834935 
L 110.893541 -228.695186 
L 110.893541 -226.555437 
L 110.893541 -224.415688 
L 110.893541 -222.275939 
L 110.893541 -220.13619 
L 110.893541 -217.996441 
L 110.893541 -215.856692 
L 110.893541 -213.716943 
L 110.893541 -211.577194 
L 110.893541 -209.437445 
L 110.893541 -207.297696 
L 110.893541 -205.157947 
L 110.893541 -203.018198 
L 110.893541 -200.878449 
L 110.893541 -198.7387 
L 110.893541 -196.598951 
L 110.893541 -194.459202 
L 110.893541 -192.319454 
L 110.893541 -190.179705 
L 110.893541 -188.039956 
L 110.893541 -185.900207 
L 110.893541 -183.760458 
L 110.893541 -181.620709 
L 110.893541 -179.48096 
L 110.893541 -177.341211 
L 110.893541 -175.201462 
L 110.893541 -173.061713 
L 110.893541 -170.921964 
L 110.893541 -168.782215 
L 110.893541 -166.642466 
L 110.893541 -164.502717 
L 110.893541 -162.362968 
L 110.893541 -160.223219 
L 110.893541 -158.08347 
L 110.893541 -155.943721 
L 110.893541 -153.803972 
L 110.893541 -151.664223 
L 110.893541 -149.524474 
L 110.893541 -147.384725 
L 110.893541 -145.244976 
L 110.893541 -143.105228 
L 110.893541 -140.965479 
L 110.893541 -138.82573 
L 110.893541 -136.685981 
L 110.893541 -134.546232 
L 110.893541 -132.406483 
L 110.893541 -130.266734 
L 110.893541 -128.126985 
L 110.893541 -125.987236 
L 110.893541 -123.847487 
L 110.893541 -121.707738 
L 110.893541 -119.567989 
L 110.893541 -117.42824 
L 110.893541 -115.288491 
L 110.893541 -113.148742 
L 110.893541 -111.008993 
L 110.893541 -108.869244 
L 110.893541 -106.729495 
L 110.893541 -104.589746 
L 110.893541 -102.449997 
L 110.893541 -100.310248 
L 110.893541 -98.170499 
L 110.893541 -96.03075 
L 110.893541 -93.891002 
L 110.893541 -91.751253 
L 110.893541 -89.611504 
L 110.893541 -87.471755 
L 110.893541 -85.332006 
z
" style="stroke: #4c4c4c; stroke-width: 1.5"/>
    </defs>
    <g clip-path="url(#p7158edbddc)">
     <use xlink:href="#md5409d1d0a" x="0" y="346.2575" style="fill: #5875a4; stroke: #4c4c4c; stroke-width: 1.5"/>
    </g>
   </g>
   <g id="patch_4">
    <path d="M 110.893541 246.089873 
L 110.893541 246.089873 
L 110.893541 246.089873 
L 110.893541 246.089873 
z
" clip-path="url(#p7158edbddc)" style="fill: #cc8963; stroke: #4c4c4c; stroke-width: 0.75; stroke-linejoin: miter"/>
   </g>
   <g id="PolyCollection_2">
    <defs>
     <path id="m98155c1420" d="M 111.344147 -57.79783 
L 110.893541 -57.79783 
L 110.893541 -60.341158 
L 110.893541 -62.884485 
L 110.893541 -65.427813 
L 110.893541 -67.971141 
L 110.893541 -70.514468 
L 110.893541 -73.057796 
L 110.893541 -75.601123 
L 110.893541 -78.144451 
L 110.893541 -80.687779 
L 110.893541 -83.231106 
L 110.893541 -85.774434 
L 110.893541 -88.317762 
L 110.893541 -90.861089 
L 110.893541 -93.404417 
L 110.893541 -95.947744 
L 110.893541 -98.491072 
L 110.893541 -101.0344 
L 110.893541 -103.577727 
L 110.893541 -106.121055 
L 110.893541 -108.664383 
L 110.893541 -111.20771 
L 110.893541 -113.751038 
L 110.893541 -116.294365 
L 110.893541 -118.837693 
L 110.893541 -121.381021 
L 110.893541 -123.924348 
L 110.893541 -126.467676 
L 110.893541 -129.011004 
L 110.893541 -131.554331 
L 110.893541 -134.097659 
L 110.893541 -136.640986 
L 110.893541 -139.184314 
L 110.893541 -141.727642 
L 110.893541 -144.270969 
L 110.893541 -146.814297 
L 110.893541 -149.357625 
L 110.893541 -151.900952 
L 110.893541 -154.44428 
L 110.893541 -156.987607 
L 110.893541 -159.530935 
L 110.893541 -162.074263 
L 110.893541 -164.61759 
L 110.893541 -167.160918 
L 110.893541 -169.704246 
L 110.893541 -172.247573 
L 110.893541 -174.790901 
L 110.893541 -177.334228 
L 110.893541 -179.877556 
L 110.893541 -182.420884 
L 110.893541 -184.964211 
L 110.893541 -187.507539 
L 110.893541 -190.050867 
L 110.893541 -192.594194 
L 110.893541 -195.137522 
L 110.893541 -197.68085 
L 110.893541 -200.224177 
L 110.893541 -202.767505 
L 110.893541 -205.310832 
L 110.893541 -207.85416 
L 110.893541 -210.397488 
L 110.893541 -212.940815 
L 110.893541 -215.484143 
L 110.893541 -218.027471 
L 110.893541 -220.570798 
L 110.893541 -223.114126 
L 110.893541 -225.657453 
L 110.893541 -228.200781 
L 110.893541 -230.744109 
L 110.893541 -233.287436 
L 110.893541 -235.830764 
L 110.893541 -238.374092 
L 110.893541 -240.917419 
L 110.893541 -243.460747 
L 110.893541 -246.004074 
L 110.893541 -248.547402 
L 110.893541 -251.09073 
L 110.893541 -253.634057 
L 110.893541 -256.177385 
L 110.893541 -258.720713 
L 110.893541 -261.26404 
L 110.893541 -263.807368 
L 110.893541 -266.350695 
L 110.893541 -268.894023 
L 110.893541 -271.437351 
L 110.893541 -273.980678 
L 110.893541 -276.524006 
L 110.893541 -279.067334 
L 110.893541 -281.610661 
L 110.893541 -284.153989 
L 110.893541 -286.697316 
L 110.893541 -289.240644 
L 110.893541 -291.783972 
L 110.893541 -294.327299 
L 110.893541 -296.870627 
L 110.893541 -299.413955 
L 110.893541 -301.957282 
L 110.893541 -304.50061 
L 110.893541 -307.043937 
L 110.893541 -309.587265 
L 111.62931 -309.587265 
L 111.62931 -309.587265 
L 111.857326 -307.043937 
L 112.138798 -304.50061 
L 112.480596 -301.957282 
L 112.88878 -299.413955 
L 113.368022 -296.870627 
L 113.920995 -294.327299 
L 114.547762 -291.783972 
L 115.245227 -289.240644 
L 116.006699 -286.697316 
L 116.821642 -284.153989 
L 117.675659 -281.610661 
L 118.550744 -279.067334 
L 119.425829 -276.524006 
L 120.277604 -273.980678 
L 121.081591 -271.437351 
L 121.813383 -268.894023 
L 122.449986 -266.350695 
L 122.971134 -263.807368 
L 123.360494 -261.26404 
L 123.606636 -258.720713 
L 123.703705 -256.177385 
L 123.651722 -253.634057 
L 123.456501 -251.09073 
L 123.129182 -248.547402 
L 122.685444 -246.004074 
L 122.14445 -243.460747 
L 121.527636 -240.917419 
L 120.857432 -238.374092 
L 120.156026 -235.830764 
L 119.444257 -233.287436 
L 118.740707 -230.744109 
L 118.061037 -228.200781 
L 117.417605 -225.657453 
L 116.819338 -223.114126 
L 116.271868 -220.570798 
L 115.777865 -218.027471 
L 115.337538 -215.484143 
L 114.949253 -212.940815 
L 114.610192 -210.397488 
L 114.317048 -207.85416 
L 114.066663 -205.310832 
L 113.856626 -202.767505 
L 113.685761 -200.224177 
L 113.554519 -197.68085 
L 113.465237 -195.137522 
L 113.422271 -192.594194 
L 113.431982 -190.050867 
L 113.502587 -187.507539 
L 113.643865 -184.964211 
L 113.866726 -182.420884 
L 114.182656 -179.877556 
L 114.60305 -177.334228 
L 115.138457 -174.790901 
L 115.797778 -172.247573 
L 116.587446 -169.704246 
L 117.510634 -167.160918 
L 118.566552 -164.61759 
L 119.749856 -162.074263 
L 121.050247 -159.530935 
L 122.452258 -156.987607 
L 123.935288 -154.44428 
L 125.473869 -151.900952 
L 127.038194 -149.357625 
L 128.594868 -146.814297 
L 130.107885 -144.270969 
L 131.53978 -141.727642 
L 132.852931 -139.184314 
L 134.010957 -136.640986 
L 134.980159 -134.097659 
L 135.730948 -131.554331 
L 136.239175 -129.011004 
L 136.487318 -126.467676 
L 136.465414 -123.924348 
L 136.171699 -121.381021 
L 135.612871 -118.837693 
L 134.803944 -116.294365 
L 133.767673 -113.751038 
L 132.533568 -111.20771 
L 131.136539 -108.664383 
L 129.615269 -106.121055 
L 128.010397 -103.577727 
L 126.36266 -101.0344 
L 124.711111 -98.491072 
L 123.091528 -95.947744 
L 121.535127 -93.404417 
L 120.067634 -90.861089 
L 118.708758 -88.317762 
L 117.472064 -85.774434 
L 116.365196 -83.231106 
L 115.390418 -80.687779 
L 114.545355 -78.144451 
L 113.823891 -75.601123 
L 113.217106 -73.057796 
L 112.714203 -70.514468 
L 112.303346 -67.971141 
L 111.972394 -65.427813 
L 111.70948 -62.884485 
L 111.503448 -60.341158 
L 111.344147 -57.79783 
z
" style="stroke: #4c4c4c; stroke-width: 1.5"/>
    </defs>
    <g clip-path="url(#p7158edbddc)">
     <use xlink:href="#m98155c1420" x="0" y="346.2575" style="fill: #cc8963; stroke: #4c4c4c; stroke-width: 1.5"/>
    </g>
   </g>
   <g id="PolyCollection_3">
    <defs>
     <path id="mef650e3baa" d="M 214.630936 -90.429742 
L 211.623779 -90.429742 
L 210.445544 -92.308775 
L 208.938643 -94.187807 
L 207.065244 -96.06684 
L 204.802895 -97.945873 
L 202.151408 -99.824906 
L 199.138867 -101.703939 
L 195.82558 -103.582971 
L 192.30489 -105.462004 
L 188.700067 -107.341037 
L 185.157028 -109.22007 
L 181.833354 -111.099103 
L 178.884756 -112.978135 
L 176.450731 -114.857168 
L 174.641442 -116.736201 
L 173.527764 -118.615234 
L 173.135978 -120.494267 
L 173.447807 -122.373299 
L 174.405588 -124.252332 
L 175.921484 -126.131365 
L 177.889048 -128.010398 
L 180.195163 -129.889431 
L 182.730567 -131.768463 
L 185.39763 -133.647496 
L 188.114758 -135.526529 
L 190.817527 -137.405562 
L 193.457205 -139.284595 
L 195.997719 -141.163628 
L 198.412127 -143.04266 
L 200.679527 -144.921693 
L 202.782961 -146.800726 
L 204.708476 -148.679759 
L 206.445209 -150.558792 
L 207.98608 -152.437824 
L 209.328657 -154.316857 
L 210.475775 -156.19589 
L 211.435657 -158.074923 
L 212.221442 -159.953956 
L 212.850186 -161.832988 
L 213.341526 -163.712021 
L 213.7162 -165.591054 
L 213.994666 -167.470087 
L 214.195947 -169.34912 
L 214.336807 -171.228152 
L 214.431276 -173.107185 
L 214.490481 -174.986218 
L 214.522725 -176.865251 
L 214.533738 -178.744284 
L 214.52703 -180.623316 
L 214.504293 -182.502349 
L 214.465814 -184.381382 
L 214.410887 -186.260415 
L 214.338216 -188.139448 
L 214.246296 -190.01848 
L 214.133779 -191.897513 
L 213.99981 -193.776546 
L 213.844314 -195.655579 
L 213.668206 -197.534612 
L 213.473514 -199.413645 
L 213.263376 -201.292677 
L 213.041925 -203.17171 
L 212.814036 -205.050743 
L 212.584985 -206.929776 
L 212.360036 -208.808809 
L 212.144028 -210.687841 
L 211.940995 -212.566874 
L 211.753899 -214.445907 
L 211.584503 -216.32494 
L 211.433416 -218.203973 
L 211.300313 -220.083005 
L 211.184285 -221.962038 
L 211.084294 -223.841071 
L 210.999624 -225.720104 
L 210.930291 -227.599137 
L 210.877302 -229.478169 
L 210.842741 -231.357202 
L 210.829637 -233.236235 
L 210.841634 -235.115268 
L 210.882501 -236.994301 
L 210.955566 -238.873333 
L 211.063135 -240.752366 
L 211.206006 -242.631399 
L 211.383144 -244.510432 
L 211.591557 -246.389465 
L 211.826403 -248.268497 
L 212.0813 -250.14753 
L 212.348799 -252.026563 
L 212.62096 -253.905596 
L 212.889944 -255.784629 
L 213.148571 -257.663662 
L 213.390759 -259.542694 
L 213.61184 -261.421727 
L 213.8087 -263.30076 
L 213.97978 -265.179793 
L 214.124943 -267.058826 
L 214.245238 -268.937858 
L 214.342618 -270.816891 
L 214.419636 -272.695924 
L 214.479155 -274.574957 
L 214.5241 -276.45399 
L 214.630936 -276.45399 
L 214.630936 -276.45399 
L 214.630936 -274.574957 
L 214.630936 -272.695924 
L 214.630936 -270.816891 
L 214.630936 -268.937858 
L 214.630936 -267.058826 
L 214.630936 -265.179793 
L 214.630936 -263.30076 
L 214.630936 -261.421727 
L 214.630936 -259.542694 
L 214.630936 -257.663662 
L 214.630936 -255.784629 
L 214.630936 -253.905596 
L 214.630936 -252.026563 
L 214.630936 -250.14753 
L 214.630936 -248.268497 
L 214.630936 -246.389465 
L 214.630936 -244.510432 
L 214.630936 -242.631399 
L 214.630936 -240.752366 
L 214.630936 -238.873333 
L 214.630936 -236.994301 
L 214.630936 -235.115268 
L 214.630936 -233.236235 
L 214.630936 -231.357202 
L 214.630936 -229.478169 
L 214.630936 -227.599137 
L 214.630936 -225.720104 
L 214.630936 -223.841071 
L 214.630936 -221.962038 
L 214.630936 -220.083005 
L 214.630936 -218.203973 
L 214.630936 -216.32494 
L 214.630936 -214.445907 
L 214.630936 -212.566874 
L 214.630936 -210.687841 
L 214.630936 -208.808809 
L 214.630936 -206.929776 
L 214.630936 -205.050743 
L 214.630936 -203.17171 
L 214.630936 -201.292677 
L 214.630936 -199.413645 
L 214.630936 -197.534612 
L 214.630936 -195.655579 
L 214.630936 -193.776546 
L 214.630936 -191.897513 
L 214.630936 -190.01848 
L 214.630936 -188.139448 
L 214.630936 -186.260415 
L 214.630936 -184.381382 
L 214.630936 -182.502349 
L 214.630936 -180.623316 
L 214.630936 -178.744284 
L 214.630936 -176.865251 
L 214.630936 -174.986218 
L 214.630936 -173.107185 
L 214.630936 -171.228152 
L 214.630936 -169.34912 
L 214.630936 -167.470087 
L 214.630936 -165.591054 
L 214.630936 -163.712021 
L 214.630936 -161.832988 
L 214.630936 -159.953956 
L 214.630936 -158.074923 
L 214.630936 -156.19589 
L 214.630936 -154.316857 
L 214.630936 -152.437824 
L 214.630936 -150.558792 
L 214.630936 -148.679759 
L 214.630936 -146.800726 
L 214.630936 -144.921693 
L 214.630936 -143.04266 
L 214.630936 -141.163628 
L 214.630936 -139.284595 
L 214.630936 -137.405562 
L 214.630936 -135.526529 
L 214.630936 -133.647496 
L 214.630936 -131.768463 
L 214.630936 -129.889431 
L 214.630936 -128.010398 
L 214.630936 -126.131365 
L 214.630936 -124.252332 
L 214.630936 -122.373299 
L 214.630936 -120.494267 
L 214.630936 -118.615234 
L 214.630936 -116.736201 
L 214.630936 -114.857168 
L 214.630936 -112.978135 
L 214.630936 -111.099103 
L 214.630936 -109.22007 
L 214.630936 -107.341037 
L 214.630936 -105.462004 
L 214.630936 -103.582971 
L 214.630936 -101.703939 
L 214.630936 -99.824906 
L 214.630936 -97.945873 
L 214.630936 -96.06684 
L 214.630936 -94.187807 
L 214.630936 -92.308775 
L 214.630936 -90.429742 
z
" style="stroke: #4c4c4c; stroke-width: 1.5"/>
    </defs>
    <g clip-path="url(#p7158edbddc)">
     <use xlink:href="#mef650e3baa" x="0" y="346.2575" style="fill: #5875a4; stroke: #4c4c4c; stroke-width: 1.5"/>
    </g>
   </g>
   <g id="PolyCollection_4">
    <defs>
     <path id="m40d4fcf066" d="M 215.01 -62.892071 
L 214.630936 -62.892071 
L 214.630936 -65.342912 
L 214.630936 -67.793753 
L 214.630936 -70.244595 
L 214.630936 -72.695436 
L 214.630936 -75.146277 
L 214.630936 -77.597119 
L 214.630936 -80.04796 
L 214.630936 -82.498801 
L 214.630936 -84.949643 
L 214.630936 -87.400484 
L 214.630936 -89.851325 
L 214.630936 -92.302167 
L 214.630936 -94.753008 
L 214.630936 -97.203849 
L 214.630936 -99.654691 
L 214.630936 -102.105532 
L 214.630936 -104.556373 
L 214.630936 -107.007215 
L 214.630936 -109.458056 
L 214.630936 -111.908897 
L 214.630936 -114.359739 
L 214.630936 -116.81058 
L 214.630936 -119.261421 
L 214.630936 -121.712263 
L 214.630936 -124.163104 
L 214.630936 -126.613945 
L 214.630936 -129.064787 
L 214.630936 -131.515628 
L 214.630936 -133.966469 
L 214.630936 -136.417311 
L 214.630936 -138.868152 
L 214.630936 -141.318993 
L 214.630936 -143.769835 
L 214.630936 -146.220676 
L 214.630936 -148.671517 
L 214.630936 -151.122359 
L 214.630936 -153.5732 
L 214.630936 -156.024041 
L 214.630936 -158.474883 
L 214.630936 -160.925724 
L 214.630936 -163.376565 
L 214.630936 -165.827407 
L 214.630936 -168.278248 
L 214.630936 -170.729089 
L 214.630936 -173.179931 
L 214.630936 -175.630772 
L 214.630936 -178.081613 
L 214.630936 -180.532455 
L 214.630936 -182.983296 
L 214.630936 -185.434137 
L 214.630936 -187.884979 
L 214.630936 -190.33582 
L 214.630936 -192.786662 
L 214.630936 -195.237503 
L 214.630936 -197.688344 
L 214.630936 -200.139186 
L 214.630936 -202.590027 
L 214.630936 -205.040868 
L 214.630936 -207.49171 
L 214.630936 -209.942551 
L 214.630936 -212.393392 
L 214.630936 -214.844234 
L 214.630936 -217.295075 
L 214.630936 -219.745916 
L 214.630936 -222.196758 
L 214.630936 -224.647599 
L 214.630936 -227.09844 
L 214.630936 -229.549282 
L 214.630936 -232.000123 
L 214.630936 -234.450964 
L 214.630936 -236.901806 
L 214.630936 -239.352647 
L 214.630936 -241.803488 
L 214.630936 -244.25433 
L 214.630936 -246.705171 
L 214.630936 -249.156012 
L 214.630936 -251.606854 
L 214.630936 -254.057695 
L 214.630936 -256.508536 
L 214.630936 -258.959378 
L 214.630936 -261.410219 
L 214.630936 -263.86106 
L 214.630936 -266.311902 
L 214.630936 -268.762743 
L 214.630936 -271.213584 
L 214.630936 -273.664426 
L 214.630936 -276.115267 
L 214.630936 -278.566108 
L 214.630936 -281.01695 
L 214.630936 -283.467791 
L 214.630936 -285.918632 
L 214.630936 -288.369474 
L 214.630936 -290.820315 
L 214.630936 -293.271156 
L 214.630936 -295.721998 
L 214.630936 -298.172839 
L 214.630936 -300.62368 
L 214.630936 -303.074522 
L 214.630936 -305.525363 
L 214.926909 -305.525363 
L 214.926909 -305.525363 
L 215.027027 -303.074522 
L 215.152678 -300.62368 
L 215.307466 -298.172839 
L 215.494606 -295.721998 
L 215.716619 -293.271156 
L 215.975013 -290.820315 
L 216.269978 -288.369474 
L 216.600126 -285.918632 
L 216.962308 -283.467791 
L 217.351548 -281.01695 
L 217.761097 -278.566108 
L 218.182636 -276.115267 
L 218.606607 -273.664426 
L 219.022666 -271.213584 
L 219.420206 -268.762743 
L 219.788926 -266.311902 
L 220.119378 -263.86106 
L 220.403457 -261.410219 
L 220.634787 -258.959378 
L 220.808967 -256.508536 
L 220.923687 -254.057695 
L 220.978688 -251.606854 
L 220.975599 -249.156012 
L 220.917683 -246.705171 
L 220.809518 -244.25433 
L 220.656651 -241.803488 
L 220.465269 -239.352647 
L 220.241894 -236.901806 
L 219.993147 -234.450964 
L 219.725551 -232.000123 
L 219.445402 -229.549282 
L 219.15868 -227.09844 
L 218.870986 -224.647599 
L 218.587496 -222.196758 
L 218.312919 -219.745916 
L 218.051448 -217.295075 
L 217.80671 -214.844234 
L 217.581718 -212.393392 
L 217.378847 -209.942551 
L 217.199841 -207.49171 
L 217.045866 -205.040868 
L 216.917629 -202.590027 
L 216.815564 -200.139186 
L 216.740071 -197.688344 
L 216.691811 -195.237503 
L 216.672022 -192.786662 
L 216.682825 -190.33582 
L 216.727501 -187.884979 
L 216.810682 -185.434137 
L 216.938447 -182.983296 
L 217.118277 -180.532455 
L 217.358869 -178.081613 
L 217.669797 -175.630772 
L 218.06102 -173.179931 
L 218.542271 -170.729089 
L 219.122353 -168.278248 
L 219.808373 -165.827407 
L 220.604984 -163.376565 
L 221.513665 -160.925724 
L 222.532096 -158.474883 
L 223.653666 -156.024041 
L 224.867153 -153.5732 
L 226.15658 -151.122359 
L 227.501278 -148.671517 
L 228.876148 -146.220676 
L 230.252121 -143.769835 
L 231.596837 -141.318993 
L 232.875522 -138.868152 
L 234.052088 -136.417311 
L 235.090431 -133.966469 
L 235.955933 -131.515628 
L 236.617087 -129.064787 
L 237.047205 -126.613945 
L 237.226071 -124.163104 
L 237.14141 -121.712263 
L 236.790032 -119.261421 
L 236.178482 -116.81058 
L 235.323108 -114.359739 
L 234.249471 -111.908897 
L 232.991094 -109.458056 
L 231.587654 -107.007215 
L 230.082735 -104.556373 
L 228.521359 -102.105532 
L 226.9475 -99.654691 
L 225.40182 -97.203849 
L 223.919782 -94.753008 
L 222.530306 -92.302167 
L 221.255005 -89.851325 
L 220.10802 -87.400484 
L 219.096377 -84.949643 
L 218.220771 -82.498801 
L 217.476644 -80.04796 
L 216.855403 -77.597119 
L 216.345677 -75.146277 
L 215.93448 -72.695436 
L 215.608232 -70.244595 
L 215.353565 -67.793753 
L 215.157932 -65.342912 
L 215.01 -62.892071 
z
" style="stroke: #4c4c4c; stroke-width: 1.5"/>
    </defs>
    <g clip-path="url(#p7158edbddc)">
     <use xlink:href="#m40d4fcf066" x="0" y="346.2575" style="fill: #cc8963; stroke: #4c4c4c; stroke-width: 1.5"/>
    </g>
   </g>
   <g id="PolyCollection_5">
    <defs>
     <path id="mb92343bd70" d="M 318.368331 -94.495602 
L 317.757261 -94.495602 
L 317.411756 -95.823839 
L 316.907786 -97.152076 
L 316.193482 -98.480313 
L 315.210278 -99.80855 
L 313.896849 -101.136787 
L 312.195298 -102.465024 
L 310.059465 -103.79326 
L 307.464729 -105.121497 
L 304.418108 -106.449734 
L 300.967003 -107.777971 
L 297.204627 -109.106208 
L 293.270317 -110.434445 
L 289.343428 -111.762682 
L 285.630512 -113.090919 
L 282.346699 -114.419156 
L 279.693441 -115.747393 
L 277.835772 -117.075629 
L 276.88261 -118.403866 
L 276.873373 -119.732103 
L 277.773166 -121.06034 
L 279.477353 -122.388577 
L 281.824681 -123.716814 
L 284.616711 -125.045051 
L 287.640373 -126.373288 
L 290.690259 -127.701525 
L 293.587638 -129.029762 
L 296.194126 -130.357999 
L 298.41907 -131.686235 
L 300.220775 -133.014472 
L 301.602551 -134.342709 
L 302.605 -135.670946 
L 303.296102 -136.999183 
L 303.760481 -138.32742 
L 304.088977 -139.655657 
L 304.369322 -140.983894 
L 304.678467 -142.312131 
L 305.076903 -143.640368 
L 305.605159 -144.968605 
L 306.282549 -146.296841 
L 307.108039 -147.625078 
L 308.062989 -148.953315 
L 309.115297 -150.281552 
L 310.224385 -151.609789 
L 311.346378 -152.938026 
L 312.438842 -154.266263 
L 313.464594 -155.5945 
L 314.394238 -156.922737 
L 315.207341 -158.250974 
L 315.89234 -159.579211 
L 316.445444 -160.907447 
L 316.868908 -162.235684 
L 317.169069 -163.563921 
L 317.354485 -164.892158 
L 317.434466 -166.220395 
L 317.418137 -167.548632 
L 317.314077 -168.876869 
L 317.130477 -170.205106 
L 316.875652 -171.533343 
L 316.558745 -172.86158 
L 316.190392 -174.189817 
L 315.783183 -175.518053 
L 315.35177 -176.84629 
L 314.912575 -178.174527 
L 314.483092 -179.502764 
L 314.080895 -180.831001 
L 313.722468 -182.159238 
L 313.42206 -183.487475 
L 313.190715 -184.815712 
L 313.035621 -186.143949 
L 312.959862 -187.472186 
L 312.962567 -188.800422 
L 313.039403 -190.128659 
L 313.183313 -191.456896 
L 313.385347 -192.785133 
L 313.635486 -194.11337 
L 313.923345 -195.441607 
L 314.238711 -196.769844 
L 314.571914 -198.098081 
L 314.914052 -199.426318 
L 315.257122 -200.754555 
L 315.594102 -202.082792 
L 315.919018 -203.411028 
L 316.227001 -204.739265 
L 316.514329 -206.067502 
L 316.778435 -207.395739 
L 317.01786 -208.723976 
L 317.232147 -210.052213 
L 317.42168 -211.38045 
L 317.587487 -212.708687 
L 317.731036 -214.036924 
L 317.854057 -215.365161 
L 317.958391 -216.693398 
L 318.045896 -218.021634 
L 318.118392 -219.349871 
L 318.17763 -220.678108 
L 318.225295 -222.006345 
L 318.262993 -223.334582 
L 318.29225 -224.662819 
L 318.314497 -225.991056 
L 318.368331 -225.991056 
L 318.368331 -225.991056 
L 318.368331 -224.662819 
L 318.368331 -223.334582 
L 318.368331 -222.006345 
L 318.368331 -220.678108 
L 318.368331 -219.349871 
L 318.368331 -218.021634 
L 318.368331 -216.693398 
L 318.368331 -215.365161 
L 318.368331 -214.036924 
L 318.368331 -212.708687 
L 318.368331 -211.38045 
L 318.368331 -210.052213 
L 318.368331 -208.723976 
L 318.368331 -207.395739 
L 318.368331 -206.067502 
L 318.368331 -204.739265 
L 318.368331 -203.411028 
L 318.368331 -202.082792 
L 318.368331 -200.754555 
L 318.368331 -199.426318 
L 318.368331 -198.098081 
L 318.368331 -196.769844 
L 318.368331 -195.441607 
L 318.368331 -194.11337 
L 318.368331 -192.785133 
L 318.368331 -191.456896 
L 318.368331 -190.128659 
L 318.368331 -188.800422 
L 318.368331 -187.472186 
L 318.368331 -186.143949 
L 318.368331 -184.815712 
L 318.368331 -183.487475 
L 318.368331 -182.159238 
L 318.368331 -180.831001 
L 318.368331 -179.502764 
L 318.368331 -178.174527 
L 318.368331 -176.84629 
L 318.368331 -175.518053 
L 318.368331 -174.189817 
L 318.368331 -172.86158 
L 318.368331 -171.533343 
L 318.368331 -170.205106 
L 318.368331 -168.876869 
L 318.368331 -167.548632 
L 318.368331 -166.220395 
L 318.368331 -164.892158 
L 318.368331 -163.563921 
L 318.368331 -162.235684 
L 318.368331 -160.907447 
L 318.368331 -159.579211 
L 318.368331 -158.250974 
L 318.368331 -156.922737 
L 318.368331 -155.5945 
L 318.368331 -154.266263 
L 318.368331 -152.938026 
L 318.368331 -151.609789 
L 318.368331 -150.281552 
L 318.368331 -148.953315 
L 318.368331 -147.625078 
L 318.368331 -146.296841 
L 318.368331 -144.968605 
L 318.368331 -143.640368 
L 318.368331 -142.312131 
L 318.368331 -140.983894 
L 318.368331 -139.655657 
L 318.368331 -138.32742 
L 318.368331 -136.999183 
L 318.368331 -135.670946 
L 318.368331 -134.342709 
L 318.368331 -133.014472 
L 318.368331 -131.686235 
L 318.368331 -130.357999 
L 318.368331 -129.029762 
L 318.368331 -127.701525 
L 318.368331 -126.373288 
L 318.368331 -125.045051 
L 318.368331 -123.716814 
L 318.368331 -122.388577 
L 318.368331 -121.06034 
L 318.368331 -119.732103 
L 318.368331 -118.403866 
L 318.368331 -117.075629 
L 318.368331 -115.747393 
L 318.368331 -114.419156 
L 318.368331 -113.090919 
L 318.368331 -111.762682 
L 318.368331 -110.434445 
L 318.368331 -109.106208 
L 318.368331 -107.777971 
L 318.368331 -106.449734 
L 318.368331 -105.121497 
L 318.368331 -103.79326 
L 318.368331 -102.465024 
L 318.368331 -101.136787 
L 318.368331 -99.80855 
L 318.368331 -98.480313 
L 318.368331 -97.152076 
L 318.368331 -95.823839 
L 318.368331 -94.495602 
z
" style="stroke: #4c4c4c; stroke-width: 1.5"/>
    </defs>
    <g clip-path="url(#p7158edbddc)">
     <use xlink:href="#mb92343bd70" x="0" y="346.2575" style="fill: #5875a4; stroke: #4c4c4c; stroke-width: 1.5"/>
    </g>
   </g>
   <g id="PolyCollection_6">
    <defs>
     <path id="me00188cbc9" d="M 318.595671 -62.021721 
L 318.368331 -62.021721 
L 318.368331 -64.337402 
L 318.368331 -66.653082 
L 318.368331 -68.968762 
L 318.368331 -71.284443 
L 318.368331 -73.600123 
L 318.368331 -75.915804 
L 318.368331 -78.231484 
L 318.368331 -80.547165 
L 318.368331 -82.862845 
L 318.368331 -85.178526 
L 318.368331 -87.494206 
L 318.368331 -89.809887 
L 318.368331 -92.125567 
L 318.368331 -94.441248 
L 318.368331 -96.756928 
L 318.368331 -99.072608 
L 318.368331 -101.388289 
L 318.368331 -103.703969 
L 318.368331 -106.01965 
L 318.368331 -108.33533 
L 318.368331 -110.651011 
L 318.368331 -112.966691 
L 318.368331 -115.282372 
L 318.368331 -117.598052 
L 318.368331 -119.913733 
L 318.368331 -122.229413 
L 318.368331 -124.545094 
L 318.368331 -126.860774 
L 318.368331 -129.176454 
L 318.368331 -131.492135 
L 318.368331 -133.807815 
L 318.368331 -136.123496 
L 318.368331 -138.439176 
L 318.368331 -140.754857 
L 318.368331 -143.070537 
L 318.368331 -145.386218 
L 318.368331 -147.701898 
L 318.368331 -150.017579 
L 318.368331 -152.333259 
L 318.368331 -154.64894 
L 318.368331 -156.96462 
L 318.368331 -159.2803 
L 318.368331 -161.595981 
L 318.368331 -163.911661 
L 318.368331 -166.227342 
L 318.368331 -168.543022 
L 318.368331 -170.858703 
L 318.368331 -173.174383 
L 318.368331 -175.490064 
L 318.368331 -177.805744 
L 318.368331 -180.121425 
L 318.368331 -182.437105 
L 318.368331 -184.752786 
L 318.368331 -187.068466 
L 318.368331 -189.384146 
L 318.368331 -191.699827 
L 318.368331 -194.015507 
L 318.368331 -196.331188 
L 318.368331 -198.646868 
L 318.368331 -200.962549 
L 318.368331 -203.278229 
L 318.368331 -205.59391 
L 318.368331 -207.90959 
L 318.368331 -210.225271 
L 318.368331 -212.540951 
L 318.368331 -214.856632 
L 318.368331 -217.172312 
L 318.368331 -219.487992 
L 318.368331 -221.803673 
L 318.368331 -224.119353 
L 318.368331 -226.435034 
L 318.368331 -228.750714 
L 318.368331 -231.066395 
L 318.368331 -233.382075 
L 318.368331 -235.697756 
L 318.368331 -238.013436 
L 318.368331 -240.329117 
L 318.368331 -242.644797 
L 318.368331 -244.960478 
L 318.368331 -247.276158 
L 318.368331 -249.591838 
L 318.368331 -251.907519 
L 318.368331 -254.223199 
L 318.368331 -256.53888 
L 318.368331 -258.85456 
L 318.368331 -261.170241 
L 318.368331 -263.485921 
L 318.368331 -265.801602 
L 318.368331 -268.117282 
L 318.368331 -270.432963 
L 318.368331 -272.748643 
L 318.368331 -275.064324 
L 318.368331 -277.380004 
L 318.368331 -279.695684 
L 318.368331 -282.011365 
L 318.368331 -284.327045 
L 318.368331 -286.642726 
L 318.368331 -288.958406 
L 318.368331 -291.274087 
L 318.748649 -291.274087 
L 318.748649 -291.274087 
L 318.870203 -288.958406 
L 319.021501 -286.642726 
L 319.206766 -284.327045 
L 319.4299 -282.011365 
L 319.694169 -279.695684 
L 320.001863 -277.380004 
L 320.353945 -275.064324 
L 320.749721 -272.748643 
L 321.186569 -270.432963 
L 321.659759 -268.117282 
L 322.162389 -265.801602 
L 322.685466 -263.485921 
L 323.218143 -261.170241 
L 323.748114 -258.85456 
L 324.262132 -256.53888 
L 324.74664 -254.223199 
L 325.188453 -251.907519 
L 325.57544 -249.591838 
L 325.897163 -247.276158 
L 326.145395 -244.960478 
L 326.314502 -242.644797 
L 326.401646 -240.329117 
L 326.406802 -238.013436 
L 326.332602 -235.697756 
L 326.184025 -233.382075 
L 325.967971 -231.066395 
L 325.692774 -228.750714 
L 325.367687 -226.435034 
L 325.002388 -224.119353 
L 324.606549 -221.803673 
L 324.189482 -219.487992 
L 323.759879 -217.172312 
L 323.325644 -214.856632 
L 322.893822 -212.540951 
L 322.470585 -210.225271 
L 322.06129 -207.90959 
L 321.670563 -205.59391 
L 321.302417 -203.278229 
L 320.960376 -200.962549 
L 320.647609 -198.646868 
L 320.367062 -196.331188 
L 320.121592 -194.015507 
L 319.914088 -191.699827 
L 319.747592 -189.384146 
L 319.6254 -187.068466 
L 319.551137 -184.752786 
L 319.528799 -182.437105 
L 319.562741 -180.121425 
L 319.657612 -177.805744 
L 319.818212 -175.490064 
L 320.049279 -173.174383 
L 320.355198 -170.858703 
L 320.739659 -168.543022 
L 321.205253 -166.227342 
L 321.753064 -163.911661 
L 322.382258 -161.595981 
L 323.08972 -159.2803 
L 323.869763 -156.96462 
L 324.713936 -154.64894 
L 325.610958 -152.333259 
L 326.546781 -150.017579 
L 327.504799 -147.701898 
L 328.466196 -145.386218 
L 329.410412 -143.070537 
L 330.315735 -140.754857 
L 331.15998 -138.439176 
L 331.921236 -136.123496 
L 332.57867 -133.807815 
L 333.11334 -131.492135 
L 333.509006 -129.176454 
L 333.752876 -126.860774 
L 333.836263 -124.545094 
L 333.755109 -122.229413 
L 333.510308 -119.913733 
L 333.107825 -117.598052 
L 332.558544 -115.282372 
L 331.877871 -112.966691 
L 331.085073 -110.651011 
L 330.202407 -108.33533 
L 329.254079 -106.01965 
L 328.265108 -103.703969 
L 327.260181 -101.388289 
L 326.262572 -99.072608 
L 325.293213 -96.756928 
L 324.369955 -94.441248 
L 323.50708 -92.125567 
L 322.71507 -89.809887 
L 322.000611 -87.494206 
L 321.366831 -85.178526 
L 320.813694 -82.862845 
L 320.338523 -80.547165 
L 319.936586 -78.231484 
L 319.601687 -75.915804 
L 319.326737 -73.600123 
L 319.104244 -71.284443 
L 318.926735 -68.968762 
L 318.787071 -66.653082 
L 318.678676 -64.337402 
L 318.595671 -62.021721 
z
" style="stroke: #4c4c4c; stroke-width: 1.5"/>
    </defs>
    <g clip-path="url(#p7158edbddc)">
     <use xlink:href="#me00188cbc9" x="0" y="346.2575" style="fill: #cc8963; stroke: #4c4c4c; stroke-width: 1.5"/>
    </g>
   </g>
   <g id="line2d_11">
    <path d="M 110.893541 246.089873 
L 110.893541 83.17985 
" clip-path="url(#p7158edbddc)" style="fill: none; stroke: #4c4c4c; stroke-width: 1.5; stroke-linecap: round"/>
   </g>
   <g id="line2d_12">
    <path d="M 110.893541 227.587234 
L 110.893541 169.706611 
" clip-path="url(#p7158edbddc)" style="fill: none; stroke: #4c4c4c; stroke-width: 4.5; stroke-linecap: round"/>
   </g>
   <g id="line2d_13">
    <path d="M 214.630936 246.089873 
L 214.630936 181.013179 
" clip-path="url(#p7158edbddc)" style="fill: none; stroke: #4c4c4c; stroke-width: 1.5; stroke-linecap: round"/>
   </g>
   <g id="line2d_14">
    <path d="M 214.630936 227.972282 
L 214.630936 206.238176 
" clip-path="url(#p7158edbddc)" style="fill: none; stroke: #4c4c4c; stroke-width: 4.5; stroke-linecap: round"/>
   </g>
   <g id="line2d_15">
    <path d="M 318.368331 246.089873 
L 318.368331 157.412363 
" clip-path="url(#p7158edbddc)" style="fill: none; stroke: #4c4c4c; stroke-width: 1.5; stroke-linecap: round"/>
   </g>
   <g id="line2d_16">
    <path d="M 318.368331 228.045741 
L 318.368331 199.231943 
" clip-path="url(#p7158edbddc)" style="fill: none; stroke: #4c4c4c; stroke-width: 4.5; stroke-linecap: round"/>
   </g>
   <g id="patch_5">
    <path d="M 59.024844 302.991875 
L 59.024844 22.318125 
" style="fill: none; stroke: #262626; stroke-width: 1.25; stroke-linejoin: miter; stroke-linecap: square"/>
   </g>
   <g id="patch_6">
    <path d="M 59.024844 302.991875 
L 370.237028 302.991875 
" style="fill: none; stroke: #262626; stroke-width: 1.25; stroke-linejoin: miter; stroke-linecap: square"/>
   </g>
   <g id="PathCollection_1">
    <defs>
     <path id="m623ee2c965" d="M 0 1.5 
C 0.397805 1.5 0.77937 1.341951 1.06066 1.06066 
C 1.341951 0.77937 1.5 0.397805 1.5 0 
C 1.5 -0.397805 1.341951 -0.77937 1.06066 -1.06066 
C 0.77937 -1.341951 0.397805 -1.5 0 -1.5 
C -0.397805 -1.5 -0.77937 -1.341951 -1.06066 -1.06066 
C -1.341951 -0.77937 -1.5 -0.397805 -1.5 0 
C -1.5 0.397805 -1.341951 0.77937 -1.06066 1.06066 
C -0.77937 1.341951 -0.397805 1.5 0 1.5 
z
" style="stroke: #4c4c4c"/>
    </defs>
    <g clip-path="url(#p7158edbddc)">
     <use xlink:href="#m623ee2c965" x="110.893541" y="226.668482" style="fill: #ffffff; stroke: #4c4c4c"/>
    </g>
   </g>
   <g id="PathCollection_2">
    <g clip-path="url(#p7158edbddc)">
     <use xlink:href="#m623ee2c965" x="214.630936" y="227.270339" style="fill: #ffffff; stroke: #4c4c4c"/>
    </g>
   </g>
   <g id="PathCollection_3">
    <g clip-path="url(#p7158edbddc)">
     <use xlink:href="#m623ee2c965" x="318.368331" y="222.845233" style="fill: #ffffff; stroke: #4c4c4c"/>
    </g>
   </g>
   <g id="text_13">
    <!-- Dyn_obs = 5.0 -->
    <g style="fill: #262626" transform="translate(170.667811 16.318125)scale(0.12 -0.12)">
     <defs>
      <path id="DejaVuSans-44" d="M 1259 4147 
L 1259 519 
L 2022 519 
Q 2988 519 3436 956 
Q 3884 1394 3884 2338 
Q 3884 3275 3436 3711 
Q 2988 4147 2022 4147 
L 1259 4147 
z
M 628 4666 
L 1925 4666 
Q 3281 4666 3915 4102 
Q 4550 3538 4550 2338 
Q 4550 1131 3912 565 
Q 3275 0 1925 0 
L 628 0 
L 628 4666 
z
" transform="scale(0.015625)"/>
      <path id="DejaVuSans-79" d="M 2059 -325 
Q 1816 -950 1584 -1140 
Q 1353 -1331 966 -1331 
L 506 -1331 
L 506 -850 
L 844 -850 
Q 1081 -850 1212 -737 
Q 1344 -625 1503 -206 
L 1606 56 
L 191 3500 
L 800 3500 
L 1894 763 
L 2988 3500 
L 3597 3500 
L 2059 -325 
z
" transform="scale(0.015625)"/>
      <path id="DejaVuSans-6e" d="M 3513 2113 
L 3513 0 
L 2938 0 
L 2938 2094 
Q 2938 2591 2744 2837 
Q 2550 3084 2163 3084 
Q 1697 3084 1428 2787 
Q 1159 2491 1159 1978 
L 1159 0 
L 581 0 
L 581 3500 
L 1159 3500 
L 1159 2956 
Q 1366 3272 1645 3428 
Q 1925 3584 2291 3584 
Q 2894 3584 3203 3211 
Q 3513 2838 3513 2113 
z
" transform="scale(0.015625)"/>
      <path id="DejaVuSans-62" d="M 3116 1747 
Q 3116 2381 2855 2742 
Q 2594 3103 2138 3103 
Q 1681 3103 1420 2742 
Q 1159 2381 1159 1747 
Q 1159 1113 1420 752 
Q 1681 391 2138 391 
Q 2594 391 2855 752 
Q 3116 1113 3116 1747 
z
M 1159 2969 
Q 1341 3281 1617 3432 
Q 1894 3584 2278 3584 
Q 2916 3584 3314 3078 
Q 3713 2572 3713 1747 
Q 3713 922 3314 415 
Q 2916 -91 2278 -91 
Q 1894 -91 1617 61 
Q 1341 213 1159 525 
L 1159 0 
L 581 0 
L 581 4863 
L 1159 4863 
L 1159 2969 
z
" transform="scale(0.015625)"/>
      <path id="DejaVuSans-20" transform="scale(0.015625)"/>
      <path id="DejaVuSans-3d" d="M 678 2906 
L 4684 2906 
L 4684 2381 
L 678 2381 
L 678 2906 
z
M 678 1631 
L 4684 1631 
L 4684 1100 
L 678 1100 
L 678 1631 
z
" transform="scale(0.015625)"/>
     </defs>
     <use xlink:href="#DejaVuSans-44"/>
     <use xlink:href="#DejaVuSans-79" x="77.001953"/>
     <use xlink:href="#DejaVuSans-6e" x="136.181641"/>
     <use xlink:href="#DejaVuSans-5f" x="199.560547"/>
     <use xlink:href="#DejaVuSans-6f" x="249.560547"/>
     <use xlink:href="#DejaVuSans-62" x="310.742188"/>
     <use xlink:href="#DejaVuSans-73" x="374.21875"/>
     <use xlink:href="#DejaVuSans-20" x="426.318359"/>
     <use xlink:href="#DejaVuSans-3d" x="458.105469"/>
     <use xlink:href="#DejaVuSans-20" x="541.894531"/>
     <use xlink:href="#DejaVuSans-35" x="573.681641"/>
     <use xlink:href="#DejaVuSans-2e" x="637.304688"/>
     <use xlink:href="#DejaVuSans-30" x="669.091797"/>
    </g>
   </g>
  </g>
  <g id="axes_2">
   <g id="patch_7">
    <path d="M 389.206304 302.991875 
L 700.418488 302.991875 
L 700.418488 22.318125 
L 389.206304 22.318125 
z
" style="fill: #ffffff"/>
   </g>
   <g id="matplotlib.axis_3">
    <g id="xtick_4">
     <g id="line2d_17">
      <g>
       <use xlink:href="#m709bd742a3" x="441.075001" y="302.991875" style="fill: #262626; stroke: #262626; stroke-width: 1.25"/>
      </g>
     </g>
     <g id="text_14">
      <!-- map2 -->
      <g style="fill: #262626" transform="translate(425.356173 320.850156)scale(0.11 -0.11)">
       <use xlink:href="#DejaVuSans-6d"/>
       <use xlink:href="#DejaVuSans-61" x="97.412109"/>
       <use xlink:href="#DejaVuSans-70" x="158.691406"/>
       <use xlink:href="#DejaVuSans-32" x="222.167969"/>
      </g>
     </g>
    </g>
    <g id="xtick_5">
     <g id="line2d_18">
      <g>
       <use xlink:href="#m709bd742a3" x="544.812396" y="302.991875" style="fill: #262626; stroke: #262626; stroke-width: 1.25"/>
      </g>
     </g>
     <g id="text_15">
      <!-- map5 -->
      <g style="fill: #262626" transform="translate(529.093568 320.850156)scale(0.11 -0.11)">
       <use xlink:href="#DejaVuSans-6d"/>
       <use xlink:href="#DejaVuSans-61" x="97.412109"/>
       <use xlink:href="#DejaVuSans-70" x="158.691406"/>
       <use xlink:href="#DejaVuSans-35" x="222.167969"/>
      </g>
     </g>
    </g>
    <g id="xtick_6">
     <g id="line2d_19">
      <g>
       <use xlink:href="#m709bd742a3" x="648.549791" y="302.991875" style="fill: #262626; stroke: #262626; stroke-width: 1.25"/>
      </g>
     </g>
     <g id="text_16">
      <!-- small_warehouse -->
      <g style="fill: #262626" transform="translate(601.175025 320.850156)scale(0.11 -0.11)">
       <use xlink:href="#DejaVuSans-73"/>
       <use xlink:href="#DejaVuSans-6d" x="52.099609"/>
       <use xlink:href="#DejaVuSans-61" x="149.511719"/>
       <use xlink:href="#DejaVuSans-6c" x="210.791016"/>
       <use xlink:href="#DejaVuSans-6c" x="238.574219"/>
       <use xlink:href="#DejaVuSans-5f" x="266.357422"/>
       <use xlink:href="#DejaVuSans-77" x="316.357422"/>
       <use xlink:href="#DejaVuSans-61" x="398.144531"/>
       <use xlink:href="#DejaVuSans-72" x="459.423828"/>
       <use xlink:href="#DejaVuSans-65" x="498.287109"/>
       <use xlink:href="#DejaVuSans-68" x="559.810547"/>
       <use xlink:href="#DejaVuSans-6f" x="623.189453"/>
       <use xlink:href="#DejaVuSans-75" x="684.371094"/>
       <use xlink:href="#DejaVuSans-73" x="747.75"/>
       <use xlink:href="#DejaVuSans-65" x="799.849609"/>
      </g>
     </g>
    </g>
    <g id="text_17">
     <!-- World -->
     <g style="fill: #262626" transform="translate(527.618646 336.561875)scale(0.12 -0.12)">
      <use xlink:href="#DejaVuSans-57"/>
      <use xlink:href="#DejaVuSans-6f" x="93.001953"/>
      <use xlink:href="#DejaVuSans-72" x="154.183594"/>
      <use xlink:href="#DejaVuSans-6c" x="195.296875"/>
      <use xlink:href="#DejaVuSans-64" x="223.080078"/>
     </g>
    </g>
   </g>
   <g id="matplotlib.axis_4">
    <g id="ytick_8">
     <g id="line2d_20">
      <g>
       <use xlink:href="#m4a221971b6" x="389.206304" y="288.857156" style="fill: #262626; stroke: #262626; stroke-width: 1.25"/>
      </g>
     </g>
    </g>
    <g id="ytick_9">
     <g id="line2d_21">
      <g>
       <use xlink:href="#m4a221971b6" x="389.206304" y="246.089873" style="fill: #262626; stroke: #262626; stroke-width: 1.25"/>
      </g>
     </g>
    </g>
    <g id="ytick_10">
     <g id="line2d_22">
      <g>
       <use xlink:href="#m4a221971b6" x="389.206304" y="203.322591" style="fill: #262626; stroke: #262626; stroke-width: 1.25"/>
      </g>
     </g>
    </g>
    <g id="ytick_11">
     <g id="line2d_23">
      <g>
       <use xlink:href="#m4a221971b6" x="389.206304" y="160.555308" style="fill: #262626; stroke: #262626; stroke-width: 1.25"/>
      </g>
     </g>
    </g>
    <g id="ytick_12">
     <g id="line2d_24">
      <g>
       <use xlink:href="#m4a221971b6" x="389.206304" y="117.788026" style="fill: #262626; stroke: #262626; stroke-width: 1.25"/>
      </g>
     </g>
    </g>
    <g id="ytick_13">
     <g id="line2d_25">
      <g>
       <use xlink:href="#m4a221971b6" x="389.206304" y="75.020743" style="fill: #262626; stroke: #262626; stroke-width: 1.25"/>
      </g>
     </g>
    </g>
    <g id="ytick_14">
     <g id="line2d_26">
      <g>
       <use xlink:href="#m4a221971b6" x="389.206304" y="32.25346" style="fill: #262626; stroke: #262626; stroke-width: 1.25"/>
      </g>
     </g>
    </g>
   </g>
   <g id="patch_8">
    <path d="M 441.075001 246.089873 
L 441.075001 246.089873 
L 441.075001 246.089873 
L 441.075001 246.089873 
z
" clip-path="url(#p1d6c8ecf71)" style="fill: #5875a4; stroke: #4c4c4c; stroke-width: 0.75; stroke-linejoin: miter"/>
   </g>
   <g id="PolyCollection_7">
    <defs>
     <path id="mac8ca872ec" d="M 441.075001 -74.269206 
L 440.304383 -74.269206 
L 439.94194 -76.536575 
L 439.441519 -78.803944 
L 438.7661 -81.071313 
L 437.875277 -83.338682 
L 436.727627 -85.606051 
L 435.284127 -87.87342 
L 433.512521 -90.140789 
L 431.392374 -92.408158 
L 428.920345 -94.675527 
L 426.115031 -96.942896 
L 423.020604 -99.210265 
L 419.708498 -101.477635 
L 416.276472 -103.745004 
L 412.844679 -106.012373 
L 409.548746 -108.279742 
L 406.530288 -110.547111 
L 403.925753 -112.81448 
L 401.854796 -115.081849 
L 400.409565 -117.349218 
L 399.646263 -119.616587 
L 399.580043 -121.883956 
L 400.183924 -124.151325 
L 401.391816 -126.418694 
L 403.105255 -128.686063 
L 405.202946 -130.953432 
L 407.551918 -133.220801 
L 410.018997 -135.48817 
L 412.481345 -137.755539 
L 414.835075 -140.022908 
L 417.001261 -142.290278 
L 418.929024 -144.557647 
L 420.595737 -146.825016 
L 422.004657 -149.092385 
L 423.180521 -151.359754 
L 424.163743 -153.627123 
L 425.003949 -155.894492 
L 425.753512 -158.161861 
L 426.461717 -160.42923 
L 427.170066 -162.696599 
L 427.909043 -164.963968 
L 428.696523 -167.231337 
L 429.537767 -169.498706 
L 430.426831 -171.766075 
L 431.34901 -174.033444 
L 432.283908 -176.300813 
L 433.208675 -178.568182 
L 434.100981 -180.835551 
L 434.941424 -183.102921 
L 435.715149 -185.37029 
L 436.412631 -187.637659 
L 437.029667 -189.905028 
L 437.566724 -192.172397 
L 438.027856 -194.439766 
L 438.419396 -196.707135 
L 438.748633 -198.974504 
L 439.022623 -201.241873 
L 439.247254 -203.509242 
L 439.426601 -205.776611 
L 439.562603 -208.04398 
L 439.655023 -210.311349 
L 439.70166 -212.578718 
L 439.698767 -214.846087 
L 439.641623 -217.113456 
L 439.525221 -219.380825 
L 439.345027 -221.648195 
L 439.097778 -223.915564 
L 438.782272 -226.182933 
L 438.400092 -228.450302 
L 437.956222 -230.717671 
L 437.459467 -232.98504 
L 436.922621 -235.252409 
L 436.362315 -237.519778 
L 435.798513 -239.787147 
L 435.253627 -242.054516 
L 434.751315 -244.321885 
L 434.314999 -246.589254 
L 433.966263 -248.856623 
L 433.72325 -251.123992 
L 433.599244 -253.391361 
L 433.60159 -255.65873 
L 433.731077 -257.926099 
L 433.981864 -260.193468 
L 434.341969 -262.460838 
L 434.794262 -264.728207 
L 435.317856 -266.995576 
L 435.889735 -269.262945 
L 436.486455 -271.530314 
L 437.085731 -273.797683 
L 437.667771 -276.065052 
L 438.216258 -278.332421 
L 438.718914 -280.59979 
L 439.167666 -282.867159 
L 439.558442 -285.134528 
L 439.890688 -287.401897 
L 440.166709 -289.669266 
L 440.390911 -291.936635 
L 440.569051 -294.204004 
L 440.707562 -296.471373 
L 440.812989 -298.738742 
L 441.075001 -298.738742 
L 441.075001 -298.738742 
L 441.075001 -296.471373 
L 441.075001 -294.204004 
L 441.075001 -291.936635 
L 441.075001 -289.669266 
L 441.075001 -287.401897 
L 441.075001 -285.134528 
L 441.075001 -282.867159 
L 441.075001 -280.59979 
L 441.075001 -278.332421 
L 441.075001 -276.065052 
L 441.075001 -273.797683 
L 441.075001 -271.530314 
L 441.075001 -269.262945 
L 441.075001 -266.995576 
L 441.075001 -264.728207 
L 441.075001 -262.460838 
L 441.075001 -260.193468 
L 441.075001 -257.926099 
L 441.075001 -255.65873 
L 441.075001 -253.391361 
L 441.075001 -251.123992 
L 441.075001 -248.856623 
L 441.075001 -246.589254 
L 441.075001 -244.321885 
L 441.075001 -242.054516 
L 441.075001 -239.787147 
L 441.075001 -237.519778 
L 441.075001 -235.252409 
L 441.075001 -232.98504 
L 441.075001 -230.717671 
L 441.075001 -228.450302 
L 441.075001 -226.182933 
L 441.075001 -223.915564 
L 441.075001 -221.648195 
L 441.075001 -219.380825 
L 441.075001 -217.113456 
L 441.075001 -214.846087 
L 441.075001 -212.578718 
L 441.075001 -210.311349 
L 441.075001 -208.04398 
L 441.075001 -205.776611 
L 441.075001 -203.509242 
L 441.075001 -201.241873 
L 441.075001 -198.974504 
L 441.075001 -196.707135 
L 441.075001 -194.439766 
L 441.075001 -192.172397 
L 441.075001 -189.905028 
L 441.075001 -187.637659 
L 441.075001 -185.37029 
L 441.075001 -183.102921 
L 441.075001 -180.835551 
L 441.075001 -178.568182 
L 441.075001 -176.300813 
L 441.075001 -174.033444 
L 441.075001 -171.766075 
L 441.075001 -169.498706 
L 441.075001 -167.231337 
L 441.075001 -164.963968 
L 441.075001 -162.696599 
L 441.075001 -160.42923 
L 441.075001 -158.161861 
L 441.075001 -155.894492 
L 441.075001 -153.627123 
L 441.075001 -151.359754 
L 441.075001 -149.092385 
L 441.075001 -146.825016 
L 441.075001 -144.557647 
L 441.075001 -142.290278 
L 441.075001 -140.022908 
L 441.075001 -137.755539 
L 441.075001 -135.48817 
L 441.075001 -133.220801 
L 441.075001 -130.953432 
L 441.075001 -128.686063 
L 441.075001 -126.418694 
L 441.075001 -124.151325 
L 441.075001 -121.883956 
L 441.075001 -119.616587 
L 441.075001 -117.349218 
L 441.075001 -115.081849 
L 441.075001 -112.81448 
L 441.075001 -110.547111 
L 441.075001 -108.279742 
L 441.075001 -106.012373 
L 441.075001 -103.745004 
L 441.075001 -101.477635 
L 441.075001 -99.210265 
L 441.075001 -96.942896 
L 441.075001 -94.675527 
L 441.075001 -92.408158 
L 441.075001 -90.140789 
L 441.075001 -87.87342 
L 441.075001 -85.606051 
L 441.075001 -83.338682 
L 441.075001 -81.071313 
L 441.075001 -78.803944 
L 441.075001 -76.536575 
L 441.075001 -74.269206 
z
" style="stroke: #4c4c4c; stroke-width: 1.5"/>
    </defs>
    <g clip-path="url(#p1d6c8ecf71)">
     <use xlink:href="#mac8ca872ec" x="0" y="346.2575" style="fill: #5875a4; stroke: #4c4c4c; stroke-width: 1.5"/>
    </g>
   </g>
   <g id="patch_9">
    <path d="M 441.075001 246.089873 
L 441.075001 246.089873 
L 441.075001 246.089873 
L 441.075001 246.089873 
z
" clip-path="url(#p1d6c8ecf71)" style="fill: #cc8963; stroke: #4c4c4c; stroke-width: 0.75; stroke-linejoin: miter"/>
   </g>
   <g id="PolyCollection_8">
    <defs>
     <path id="m4c45d8c40b" d="M 441.504163 -56.023523 
L 441.075001 -56.023523 
L 441.075001 -58.600876 
L 441.075001 -61.178229 
L 441.075001 -63.755582 
L 441.075001 -66.332935 
L 441.075001 -68.910288 
L 441.075001 -71.487641 
L 441.075001 -74.064994 
L 441.075001 -76.642347 
L 441.075001 -79.2197 
L 441.075001 -81.797053 
L 441.075001 -84.374407 
L 441.075001 -86.95176 
L 441.075001 -89.529113 
L 441.075001 -92.106466 
L 441.075001 -94.683819 
L 441.075001 -97.261172 
L 441.075001 -99.838525 
L 441.075001 -102.415878 
L 441.075001 -104.993231 
L 441.075001 -107.570584 
L 441.075001 -110.147937 
L 441.075001 -112.72529 
L 441.075001 -115.302643 
L 441.075001 -117.879997 
L 441.075001 -120.45735 
L 441.075001 -123.034703 
L 441.075001 -125.612056 
L 441.075001 -128.189409 
L 441.075001 -130.766762 
L 441.075001 -133.344115 
L 441.075001 -135.921468 
L 441.075001 -138.498821 
L 441.075001 -141.076174 
L 441.075001 -143.653527 
L 441.075001 -146.23088 
L 441.075001 -148.808233 
L 441.075001 -151.385587 
L 441.075001 -153.96294 
L 441.075001 -156.540293 
L 441.075001 -159.117646 
L 441.075001 -161.694999 
L 441.075001 -164.272352 
L 441.075001 -166.849705 
L 441.075001 -169.427058 
L 441.075001 -172.004411 
L 441.075001 -174.581764 
L 441.075001 -177.159117 
L 441.075001 -179.73647 
L 441.075001 -182.313823 
L 441.075001 -184.891177 
L 441.075001 -187.46853 
L 441.075001 -190.045883 
L 441.075001 -192.623236 
L 441.075001 -195.200589 
L 441.075001 -197.777942 
L 441.075001 -200.355295 
L 441.075001 -202.932648 
L 441.075001 -205.510001 
L 441.075001 -208.087354 
L 441.075001 -210.664707 
L 441.075001 -213.24206 
L 441.075001 -215.819413 
L 441.075001 -218.396767 
L 441.075001 -220.97412 
L 441.075001 -223.551473 
L 441.075001 -226.128826 
L 441.075001 -228.706179 
L 441.075001 -231.283532 
L 441.075001 -233.860885 
L 441.075001 -236.438238 
L 441.075001 -239.015591 
L 441.075001 -241.592944 
L 441.075001 -244.170297 
L 441.075001 -246.74765 
L 441.075001 -249.325003 
L 441.075001 -251.902357 
L 441.075001 -254.47971 
L 441.075001 -257.057063 
L 441.075001 -259.634416 
L 441.075001 -262.211769 
L 441.075001 -264.789122 
L 441.075001 -267.366475 
L 441.075001 -269.943828 
L 441.075001 -272.521181 
L 441.075001 -275.098534 
L 441.075001 -277.675887 
L 441.075001 -280.25324 
L 441.075001 -282.830593 
L 441.075001 -285.407947 
L 441.075001 -287.9853 
L 441.075001 -290.562653 
L 441.075001 -293.140006 
L 441.075001 -295.717359 
L 441.075001 -298.294712 
L 441.075001 -300.872065 
L 441.075001 -303.449418 
L 441.075001 -306.026771 
L 441.075001 -308.604124 
L 441.075001 -311.181477 
L 442.06383 -311.181477 
L 442.06383 -311.181477 
L 442.353607 -308.604124 
L 442.706848 -306.026771 
L 443.130715 -303.449418 
L 443.631236 -300.872065 
L 444.212686 -298.294712 
L 444.876945 -295.717359 
L 445.622881 -293.140006 
L 446.445815 -290.562653 
L 447.337139 -287.9853 
L 448.284126 -285.407947 
L 449.269998 -282.830593 
L 450.274276 -280.25324 
L 451.273424 -277.675887 
L 452.241765 -275.098534 
L 453.152625 -272.521181 
L 453.979639 -269.943828 
L 454.698124 -267.366475 
L 455.286403 -264.789122 
L 455.726998 -262.211769 
L 456.007575 -259.634416 
L 456.121572 -257.057063 
L 456.068461 -254.47971 
L 455.85363 -251.902357 
L 455.487898 -249.325003 
L 454.986722 -246.74765 
L 454.369166 -244.170297 
L 453.656732 -241.592944 
L 452.872141 -239.015591 
L 452.038174 -236.438238 
L 451.176639 -233.860885 
L 450.307537 -231.283532 
L 449.448457 -228.706179 
L 448.61422 -226.128826 
L 447.816752 -223.551473 
L 447.065171 -220.97412 
L 446.366035 -218.396767 
L 445.723721 -215.819413 
L 445.140876 -213.24206 
L 444.618901 -210.664707 
L 444.158438 -208.087354 
L 443.759829 -205.510001 
L 443.423526 -202.932648 
L 443.150448 -200.355295 
L 442.942263 -197.777942 
L 442.801612 -195.200589 
L 442.732245 -192.623236 
L 442.739085 -190.045883 
L 442.8282 -187.46853 
L 443.006683 -184.891177 
L 443.282428 -182.313823 
L 443.663801 -179.73647 
L 444.159203 -177.159117 
L 444.776529 -174.581764 
L 445.522538 -172.004411 
L 446.402153 -169.427058 
L 447.417729 -166.849705 
L 448.568317 -164.272352 
L 449.848977 -161.694999 
L 451.250185 -159.117646 
L 452.757395 -156.540293 
L 454.350797 -153.96294 
L 456.005308 -151.385587 
L 457.69086 -148.808233 
L 459.372969 -146.23088 
L 461.01362 -143.653527 
L 462.572447 -141.076174 
L 464.008163 -138.498821 
L 465.280203 -135.921468 
L 466.350481 -133.344115 
L 467.185183 -130.766762 
L 467.75647 -128.189409 
L 468.043989 -125.612056 
L 468.036066 -123.034703 
L 467.730494 -120.45735 
L 467.13483 -117.879997 
L 466.266169 -115.302643 
L 465.150386 -112.72529 
L 463.820891 -110.147937 
L 462.31697 -107.570584 
L 460.681841 -104.993231 
L 458.960548 -102.415878 
L 457.197851 -99.838525 
L 455.436248 -97.261172 
L 453.714275 -94.683819 
L 452.065155 -92.106466 
L 450.515884 -89.529113 
L 449.086755 -86.95176 
L 447.791319 -84.374407 
L 446.636731 -81.797053 
L 445.624392 -79.2197 
L 444.750827 -76.642347 
L 444.008675 -74.064994 
L 443.38773 -71.487641 
L 442.875934 -68.910288 
L 442.46028 -66.332935 
L 442.12758 -63.755582 
L 441.865067 -61.178229 
L 441.660841 -58.600876 
L 441.504163 -56.023523 
z
" style="stroke: #4c4c4c; stroke-width: 1.5"/>
    </defs>
    <g clip-path="url(#p1d6c8ecf71)">
     <use xlink:href="#m4c45d8c40b" x="0" y="346.2575" style="fill: #cc8963; stroke: #4c4c4c; stroke-width: 1.5"/>
    </g>
   </g>
   <g id="PolyCollection_9">
    <defs>
     <path id="m77977f02d9" d="M 544.812396 -87.842896 
L 543.132639 -87.842896 
L 542.358452 -89.767045 
L 541.314539 -91.691194 
L 539.947291 -93.615343 
L 538.208884 -95.539492 
L 536.064629 -97.463641 
L 533.501046 -99.38779 
L 530.533581 -101.311939 
L 527.212594 -103.236087 
L 523.626226 -105.160236 
L 519.898967 -107.084385 
L 516.185339 -109.008534 
L 512.658855 -110.932683 
L 509.497339 -112.856832 
L 506.866427 -114.780981 
L 504.90359 -116.70513 
L 503.705039 -118.629279 
L 503.317438 -120.553428 
L 503.735533 -122.477577 
L 504.905751 -124.401726 
L 506.734816 -126.325875 
L 509.101659 -128.250024 
L 511.870569 -130.174173 
L 514.903611 -132.098322 
L 518.070817 -134.022471 
L 521.257332 -135.94662 
L 524.367399 -137.870769 
L 527.32562 -139.794918 
L 530.076254 -141.719067 
L 532.581367 -143.643216 
L 534.818503 -145.567365 
L 536.77835 -147.491514 
L 538.462565 -149.415663 
L 539.881784 -151.339811 
L 541.053751 -153.26396 
L 542.001466 -155.188109 
L 542.751346 -157.112258 
L 543.331435 -159.036407 
L 543.76974 -160.960556 
L 544.092833 -162.884705 
L 544.324768 -164.808854 
L 544.486398 -166.733003 
L 544.595064 -168.657152 
L 544.664612 -170.581301 
L 544.705675 -172.50545 
L 544.726119 -174.429599 
L 544.731564 -176.353748 
L 544.725929 -178.277897 
L 544.711926 -180.202046 
L 544.691469 -182.126195 
L 544.665995 -184.050344 
L 544.636656 -185.974493 
L 544.604418 -187.898642 
L 544.570057 -189.822791 
L 544.534089 -191.74694 
L 544.496669 -193.671089 
L 544.457495 -195.595238 
L 544.415763 -197.519387 
L 544.370204 -199.443535 
L 544.319219 -201.367684 
L 544.261105 -203.291833 
L 544.194345 -205.215982 
L 544.117892 -207.140131 
L 544.031396 -209.06428 
L 543.9353 -210.988429 
L 543.830762 -212.912578 
L 543.719402 -214.836727 
L 543.602906 -216.760876 
L 543.482575 -218.685025 
L 543.358928 -220.609174 
L 543.231472 -222.533323 
L 543.098745 -224.457472 
L 542.958666 -226.381621 
L 542.809166 -228.30577 
L 542.649015 -230.229919 
L 542.478679 -232.154068 
L 542.301021 -234.078217 
L 542.121681 -236.002366 
L 541.948999 -237.926515 
L 541.793449 -239.850664 
L 541.66662 -241.774813 
L 541.5799 -243.698962 
L 541.543053 -245.623111 
L 541.562934 -247.547259 
L 541.642527 -249.471408 
L 541.780482 -251.395557 
L 541.971196 -253.319706 
L 542.205422 -255.243855 
L 542.471284 -257.168004 
L 542.755539 -259.092153 
L 543.044885 -261.016302 
L 543.327144 -262.940451 
L 543.59217 -264.8646 
L 543.832418 -266.788749 
L 544.043139 -268.712898 
L 544.222256 -270.637047 
L 544.369992 -272.561196 
L 544.48834 -274.485345 
L 544.580489 -276.409494 
L 544.650267 -278.333643 
L 544.812396 -278.333643 
L 544.812396 -278.333643 
L 544.812396 -276.409494 
L 544.812396 -274.485345 
L 544.812396 -272.561196 
L 544.812396 -270.637047 
L 544.812396 -268.712898 
L 544.812396 -266.788749 
L 544.812396 -264.8646 
L 544.812396 -262.940451 
L 544.812396 -261.016302 
L 544.812396 -259.092153 
L 544.812396 -257.168004 
L 544.812396 -255.243855 
L 544.812396 -253.319706 
L 544.812396 -251.395557 
L 544.812396 -249.471408 
L 544.812396 -247.547259 
L 544.812396 -245.623111 
L 544.812396 -243.698962 
L 544.812396 -241.774813 
L 544.812396 -239.850664 
L 544.812396 -237.926515 
L 544.812396 -236.002366 
L 544.812396 -234.078217 
L 544.812396 -232.154068 
L 544.812396 -230.229919 
L 544.812396 -228.30577 
L 544.812396 -226.381621 
L 544.812396 -224.457472 
L 544.812396 -222.533323 
L 544.812396 -220.609174 
L 544.812396 -218.685025 
L 544.812396 -216.760876 
L 544.812396 -214.836727 
L 544.812396 -212.912578 
L 544.812396 -210.988429 
L 544.812396 -209.06428 
L 544.812396 -207.140131 
L 544.812396 -205.215982 
L 544.812396 -203.291833 
L 544.812396 -201.367684 
L 544.812396 -199.443535 
L 544.812396 -197.519387 
L 544.812396 -195.595238 
L 544.812396 -193.671089 
L 544.812396 -191.74694 
L 544.812396 -189.822791 
L 544.812396 -187.898642 
L 544.812396 -185.974493 
L 544.812396 -184.050344 
L 544.812396 -182.126195 
L 544.812396 -180.202046 
L 544.812396 -178.277897 
L 544.812396 -176.353748 
L 544.812396 -174.429599 
L 544.812396 -172.50545 
L 544.812396 -170.581301 
L 544.812396 -168.657152 
L 544.812396 -166.733003 
L 544.812396 -164.808854 
L 544.812396 -162.884705 
L 544.812396 -160.960556 
L 544.812396 -159.036407 
L 544.812396 -157.112258 
L 544.812396 -155.188109 
L 544.812396 -153.26396 
L 544.812396 -151.339811 
L 544.812396 -149.415663 
L 544.812396 -147.491514 
L 544.812396 -145.567365 
L 544.812396 -143.643216 
L 544.812396 -141.719067 
L 544.812396 -139.794918 
L 544.812396 -137.870769 
L 544.812396 -135.94662 
L 544.812396 -134.022471 
L 544.812396 -132.098322 
L 544.812396 -130.174173 
L 544.812396 -128.250024 
L 544.812396 -126.325875 
L 544.812396 -124.401726 
L 544.812396 -122.477577 
L 544.812396 -120.553428 
L 544.812396 -118.629279 
L 544.812396 -116.70513 
L 544.812396 -114.780981 
L 544.812396 -112.856832 
L 544.812396 -110.932683 
L 544.812396 -109.008534 
L 544.812396 -107.084385 
L 544.812396 -105.160236 
L 544.812396 -103.236087 
L 544.812396 -101.311939 
L 544.812396 -99.38779 
L 544.812396 -97.463641 
L 544.812396 -95.539492 
L 544.812396 -93.615343 
L 544.812396 -91.691194 
L 544.812396 -89.767045 
L 544.812396 -87.842896 
z
" style="stroke: #4c4c4c; stroke-width: 1.5"/>
    </defs>
    <g clip-path="url(#p1d6c8ecf71)">
     <use xlink:href="#m77977f02d9" x="0" y="346.2575" style="fill: #5875a4; stroke: #4c4c4c; stroke-width: 1.5"/>
    </g>
   </g>
   <g id="PolyCollection_10">
    <defs>
     <path id="md2bda02237" d="M 545.092935 -59.533754 
L 544.812396 -59.533754 
L 544.812396 -62.019644 
L 544.812396 -64.505533 
L 544.812396 -66.991423 
L 544.812396 -69.477312 
L 544.812396 -71.963201 
L 544.812396 -74.449091 
L 544.812396 -76.93498 
L 544.812396 -79.420869 
L 544.812396 -81.906759 
L 544.812396 -84.392648 
L 544.812396 -86.878537 
L 544.812396 -89.364427 
L 544.812396 -91.850316 
L 544.812396 -94.336206 
L 544.812396 -96.822095 
L 544.812396 -99.307984 
L 544.812396 -101.793874 
L 544.812396 -104.279763 
L 544.812396 -106.765652 
L 544.812396 -109.251542 
L 544.812396 -111.737431 
L 544.812396 -114.22332 
L 544.812396 -116.70921 
L 544.812396 -119.195099 
L 544.812396 -121.680989 
L 544.812396 -124.166878 
L 544.812396 -126.652767 
L 544.812396 -129.138657 
L 544.812396 -131.624546 
L 544.812396 -134.110435 
L 544.812396 -136.596325 
L 544.812396 -139.082214 
L 544.812396 -141.568103 
L 544.812396 -144.053993 
L 544.812396 -146.539882 
L 544.812396 -149.025771 
L 544.812396 -151.511661 
L 544.812396 -153.99755 
L 544.812396 -156.48344 
L 544.812396 -158.969329 
L 544.812396 -161.455218 
L 544.812396 -163.941108 
L 544.812396 -166.426997 
L 544.812396 -168.912886 
L 544.812396 -171.398776 
L 544.812396 -173.884665 
L 544.812396 -176.370554 
L 544.812396 -178.856444 
L 544.812396 -181.342333 
L 544.812396 -183.828223 
L 544.812396 -186.314112 
L 544.812396 -188.800001 
L 544.812396 -191.285891 
L 544.812396 -193.77178 
L 544.812396 -196.257669 
L 544.812396 -198.743559 
L 544.812396 -201.229448 
L 544.812396 -203.715337 
L 544.812396 -206.201227 
L 544.812396 -208.687116 
L 544.812396 -211.173006 
L 544.812396 -213.658895 
L 544.812396 -216.144784 
L 544.812396 -218.630674 
L 544.812396 -221.116563 
L 544.812396 -223.602452 
L 544.812396 -226.088342 
L 544.812396 -228.574231 
L 544.812396 -231.06012 
L 544.812396 -233.54601 
L 544.812396 -236.031899 
L 544.812396 -238.517789 
L 544.812396 -241.003678 
L 544.812396 -243.489567 
L 544.812396 -245.975457 
L 544.812396 -248.461346 
L 544.812396 -250.947235 
L 544.812396 -253.433125 
L 544.812396 -255.919014 
L 544.812396 -258.404903 
L 544.812396 -260.890793 
L 544.812396 -263.376682 
L 544.812396 -265.862572 
L 544.812396 -268.348461 
L 544.812396 -270.83435 
L 544.812396 -273.32024 
L 544.812396 -275.806129 
L 544.812396 -278.292018 
L 544.812396 -280.777908 
L 544.812396 -283.263797 
L 544.812396 -285.749686 
L 544.812396 -288.235576 
L 544.812396 -290.721465 
L 544.812396 -293.207354 
L 544.812396 -295.693244 
L 544.812396 -298.179133 
L 544.812396 -300.665023 
L 544.812396 -303.150912 
L 544.812396 -305.636801 
L 545.233894 -305.636801 
L 545.233894 -305.636801 
L 545.364276 -303.150912 
L 545.525116 -300.665023 
L 545.720323 -298.179133 
L 545.953377 -295.693244 
L 546.227025 -293.207354 
L 546.542957 -290.721465 
L 546.901501 -288.235576 
L 547.30134 -285.749686 
L 547.739305 -283.263797 
L 548.210259 -280.777908 
L 548.707096 -278.292018 
L 549.220877 -275.806129 
L 549.741108 -273.32024 
L 550.256138 -270.83435 
L 550.753671 -268.348461 
L 551.221346 -265.862572 
L 551.647352 -263.376682 
L 552.021021 -260.890793 
L 552.333359 -258.404903 
L 552.577473 -255.919014 
L 552.748854 -253.433125 
L 552.845514 -250.947235 
L 552.867962 -248.461346 
L 552.819025 -245.975457 
L 552.703558 -243.489567 
L 552.528052 -241.003678 
L 552.300192 -238.517789 
L 552.028404 -236.031899 
L 551.721409 -233.54601 
L 551.387834 -231.06012 
L 551.035885 -228.574231 
L 550.673099 -226.088342 
L 550.306178 -223.602452 
L 549.940898 -221.116563 
L 549.582096 -218.630674 
L 549.233708 -216.144784 
L 548.898859 -213.658895 
L 548.579997 -211.173006 
L 548.279045 -208.687116 
L 547.997578 -206.201227 
L 547.737021 -203.715337 
L 547.498836 -201.229448 
L 547.284731 -198.743559 
L 547.096844 -196.257669 
L 546.937919 -193.77178 
L 546.811451 -191.285891 
L 546.72179 -188.800001 
L 546.67419 -186.314112 
L 546.674787 -183.828223 
L 546.730502 -181.342333 
L 546.848848 -178.856444 
L 547.037646 -176.370554 
L 547.304652 -173.884665 
L 547.657097 -171.398776 
L 548.101168 -168.912886 
L 548.641444 -166.426997 
L 549.280324 -163.941108 
L 550.017481 -161.455218 
L 550.849379 -158.969329 
L 551.768881 -156.48344 
L 552.765006 -153.99755 
L 553.82284 -151.511661 
L 554.923633 -149.025771 
L 556.045114 -146.539882 
L 557.161996 -144.053993 
L 558.246709 -141.568103 
L 559.270305 -139.082214 
L 560.20354 -136.596325 
L 561.01807 -134.110435 
L 561.687717 -131.624546 
L 562.189733 -129.138657 
L 562.505986 -126.652767 
L 562.623987 -124.166878 
L 562.537674 -121.680989 
L 562.247885 -119.195099 
L 561.762459 -116.70921 
L 561.095951 -114.22332 
L 560.268948 -111.737431 
L 559.307036 -109.251542 
L 558.239477 -106.765652 
L 557.097704 -104.279763 
L 555.913731 -101.793874 
L 554.718609 -99.307984 
L 553.54104 -96.822095 
L 552.406226 -94.336206 
L 551.335035 -91.850316 
L 550.343518 -89.364427 
L 549.442757 -86.878537 
L 548.639037 -84.392648 
L 547.934279 -81.906759 
L 547.326665 -79.420869 
L 546.811371 -76.93498 
L 546.381359 -74.449091 
L 546.028135 -71.963201 
L 545.742449 -69.477312 
L 545.514875 -66.991423 
L 545.336286 -64.505533 
L 545.198187 -62.019644 
L 545.092935 -59.533754 
z
" style="stroke: #4c4c4c; stroke-width: 1.5"/>
    </defs>
    <g clip-path="url(#p1d6c8ecf71)">
     <use xlink:href="#md2bda02237" x="0" y="346.2575" style="fill: #cc8963; stroke: #4c4c4c; stroke-width: 1.5"/>
    </g>
   </g>
   <g id="PolyCollection_11">
    <defs>
     <path id="mdc11a28e7c" d="M 648.549791 -96.376032 
L 647.752912 -96.376032 
L 647.351519 -97.547393 
L 646.787829 -98.718753 
L 646.016343 -99.890114 
L 644.987735 -101.061475 
L 643.652395 -102.232836 
L 641.96547 -103.404196 
L 639.893185 -104.575557 
L 637.419955 -105.746918 
L 634.555446 -106.918278 
L 631.340513 -108.089639 
L 627.85082 -109.261 
L 624.19704 -110.432361 
L 620.520863 -111.603721 
L 616.986582 -112.775082 
L 613.768741 -113.946443 
L 611.037019 -115.117804 
L 608.940154 -116.289164 
L 607.590999 -117.460525 
L 607.054833 -118.631886 
L 607.342582 -119.803246 
L 608.409961 -120.974607 
L 610.162602 -122.145968 
L 612.466361 -123.317329 
L 615.161273 -124.488689 
L 618.077194 -125.66005 
L 621.049074 -126.831411 
L 623.930122 -128.002772 
L 626.60157 -129.174132 
L 628.978428 -130.345493 
L 631.011194 -131.516854 
L 632.684005 -132.688215 
L 634.010052 -133.859575 
L 635.025188 -135.030936 
L 635.780699 -136.202297 
L 636.336055 -137.373657 
L 636.752308 -138.545018 
L 637.086609 -139.716379 
L 637.388136 -140.88774 
L 637.695543 -142.0591 
L 638.03591 -143.230461 
L 638.42501 -144.401822 
L 638.868621 -145.573183 
L 639.364519 -146.744543 
L 639.904787 -147.915904 
L 640.478082 -149.087265 
L 641.071581 -150.258626 
L 641.672443 -151.429986 
L 642.268731 -152.601347 
L 642.849854 -153.772708 
L 643.406641 -154.944068 
L 643.931216 -156.115429 
L 644.41681 -157.28679 
L 644.857619 -158.458151 
L 645.248752 -159.629511 
L 645.586268 -160.800872 
L 645.867257 -161.972233 
L 646.08991 -163.143594 
L 646.253527 -164.314954 
L 646.358446 -165.486315 
L 646.405899 -166.657676 
L 646.397828 -167.829037 
L 646.33673 -169.000397 
L 646.225585 -170.171758 
L 646.067898 -171.343119 
L 645.867882 -172.514479 
L 645.63074 -173.68584 
L 645.362991 -174.857201 
L 645.072745 -176.028562 
L 644.769847 -177.199922 
L 644.465795 -178.371283 
L 644.173394 -179.542644 
L 643.906157 -180.714005 
L 643.677483 -181.885365 
L 643.499722 -183.056726 
L 643.383234 -184.228087 
L 643.335578 -185.399448 
L 643.360916 -186.570808 
L 643.459724 -187.742169 
L 643.62882 -188.91353 
L 643.8617 -190.08489 
L 644.149119 -191.256251 
L 644.479843 -192.427612 
L 644.841482 -193.598973 
L 645.221314 -194.770333 
L 645.607045 -195.941694 
L 645.987433 -197.113055 
L 646.352773 -198.284416 
L 646.695208 -199.455776 
L 647.008889 -200.627137 
L 647.289986 -201.798498 
L 647.536568 -202.969859 
L 647.7484 -204.141219 
L 647.92666 -205.31258 
L 648.073617 -206.483941 
L 648.192308 -207.655301 
L 648.286218 -208.826662 
L 648.358999 -209.998023 
L 648.414244 -211.169384 
L 648.455308 -212.340744 
L 648.549791 -212.340744 
L 648.549791 -212.340744 
L 648.549791 -211.169384 
L 648.549791 -209.998023 
L 648.549791 -208.826662 
L 648.549791 -207.655301 
L 648.549791 -206.483941 
L 648.549791 -205.31258 
L 648.549791 -204.141219 
L 648.549791 -202.969859 
L 648.549791 -201.798498 
L 648.549791 -200.627137 
L 648.549791 -199.455776 
L 648.549791 -198.284416 
L 648.549791 -197.113055 
L 648.549791 -195.941694 
L 648.549791 -194.770333 
L 648.549791 -193.598973 
L 648.549791 -192.427612 
L 648.549791 -191.256251 
L 648.549791 -190.08489 
L 648.549791 -188.91353 
L 648.549791 -187.742169 
L 648.549791 -186.570808 
L 648.549791 -185.399448 
L 648.549791 -184.228087 
L 648.549791 -183.056726 
L 648.549791 -181.885365 
L 648.549791 -180.714005 
L 648.549791 -179.542644 
L 648.549791 -178.371283 
L 648.549791 -177.199922 
L 648.549791 -176.028562 
L 648.549791 -174.857201 
L 648.549791 -173.68584 
L 648.549791 -172.514479 
L 648.549791 -171.343119 
L 648.549791 -170.171758 
L 648.549791 -169.000397 
L 648.549791 -167.829037 
L 648.549791 -166.657676 
L 648.549791 -165.486315 
L 648.549791 -164.314954 
L 648.549791 -163.143594 
L 648.549791 -161.972233 
L 648.549791 -160.800872 
L 648.549791 -159.629511 
L 648.549791 -158.458151 
L 648.549791 -157.28679 
L 648.549791 -156.115429 
L 648.549791 -154.944068 
L 648.549791 -153.772708 
L 648.549791 -152.601347 
L 648.549791 -151.429986 
L 648.549791 -150.258626 
L 648.549791 -149.087265 
L 648.549791 -147.915904 
L 648.549791 -146.744543 
L 648.549791 -145.573183 
L 648.549791 -144.401822 
L 648.549791 -143.230461 
L 648.549791 -142.0591 
L 648.549791 -140.88774 
L 648.549791 -139.716379 
L 648.549791 -138.545018 
L 648.549791 -137.373657 
L 648.549791 -136.202297 
L 648.549791 -135.030936 
L 648.549791 -133.859575 
L 648.549791 -132.688215 
L 648.549791 -131.516854 
L 648.549791 -130.345493 
L 648.549791 -129.174132 
L 648.549791 -128.002772 
L 648.549791 -126.831411 
L 648.549791 -125.66005 
L 648.549791 -124.488689 
L 648.549791 -123.317329 
L 648.549791 -122.145968 
L 648.549791 -120.974607 
L 648.549791 -119.803246 
L 648.549791 -118.631886 
L 648.549791 -117.460525 
L 648.549791 -116.289164 
L 648.549791 -115.117804 
L 648.549791 -113.946443 
L 648.549791 -112.775082 
L 648.549791 -111.603721 
L 648.549791 -110.432361 
L 648.549791 -109.261 
L 648.549791 -108.089639 
L 648.549791 -106.918278 
L 648.549791 -105.746918 
L 648.549791 -104.575557 
L 648.549791 -103.404196 
L 648.549791 -102.232836 
L 648.549791 -101.061475 
L 648.549791 -99.890114 
L 648.549791 -98.718753 
L 648.549791 -97.547393 
L 648.549791 -96.376032 
z
" style="stroke: #4c4c4c; stroke-width: 1.5"/>
    </defs>
    <g clip-path="url(#p1d6c8ecf71)">
     <use xlink:href="#mdc11a28e7c" x="0" y="346.2575" style="fill: #5875a4; stroke: #4c4c4c; stroke-width: 1.5"/>
    </g>
   </g>
   <g id="PolyCollection_12">
    <defs>
     <path id="mc7936d6294" d="M 648.788599 -64.976149 
L 648.549791 -64.976149 
L 648.549791 -67.245277 
L 648.549791 -69.514405 
L 648.549791 -71.783533 
L 648.549791 -74.052662 
L 648.549791 -76.32179 
L 648.549791 -78.590918 
L 648.549791 -80.860046 
L 648.549791 -83.129174 
L 648.549791 -85.398303 
L 648.549791 -87.667431 
L 648.549791 -89.936559 
L 648.549791 -92.205687 
L 648.549791 -94.474816 
L 648.549791 -96.743944 
L 648.549791 -99.013072 
L 648.549791 -101.2822 
L 648.549791 -103.551328 
L 648.549791 -105.820457 
L 648.549791 -108.089585 
L 648.549791 -110.358713 
L 648.549791 -112.627841 
L 648.549791 -114.896969 
L 648.549791 -117.166098 
L 648.549791 -119.435226 
L 648.549791 -121.704354 
L 648.549791 -123.973482 
L 648.549791 -126.242611 
L 648.549791 -128.511739 
L 648.549791 -130.780867 
L 648.549791 -133.049995 
L 648.549791 -135.319123 
L 648.549791 -137.588252 
L 648.549791 -139.85738 
L 648.549791 -142.126508 
L 648.549791 -144.395636 
L 648.549791 -146.664765 
L 648.549791 -148.933893 
L 648.549791 -151.203021 
L 648.549791 -153.472149 
L 648.549791 -155.741277 
L 648.549791 -158.010406 
L 648.549791 -160.279534 
L 648.549791 -162.548662 
L 648.549791 -164.81779 
L 648.549791 -167.086918 
L 648.549791 -169.356047 
L 648.549791 -171.625175 
L 648.549791 -173.894303 
L 648.549791 -176.163431 
L 648.549791 -178.43256 
L 648.549791 -180.701688 
L 648.549791 -182.970816 
L 648.549791 -185.239944 
L 648.549791 -187.509072 
L 648.549791 -189.778201 
L 648.549791 -192.047329 
L 648.549791 -194.316457 
L 648.549791 -196.585585 
L 648.549791 -198.854714 
L 648.549791 -201.123842 
L 648.549791 -203.39297 
L 648.549791 -205.662098 
L 648.549791 -207.931226 
L 648.549791 -210.200355 
L 648.549791 -212.469483 
L 648.549791 -214.738611 
L 648.549791 -217.007739 
L 648.549791 -219.276867 
L 648.549791 -221.545996 
L 648.549791 -223.815124 
L 648.549791 -226.084252 
L 648.549791 -228.35338 
L 648.549791 -230.622509 
L 648.549791 -232.891637 
L 648.549791 -235.160765 
L 648.549791 -237.429893 
L 648.549791 -239.699021 
L 648.549791 -241.96815 
L 648.549791 -244.237278 
L 648.549791 -246.506406 
L 648.549791 -248.775534 
L 648.549791 -251.044663 
L 648.549791 -253.313791 
L 648.549791 -255.582919 
L 648.549791 -257.852047 
L 648.549791 -260.121175 
L 648.549791 -262.390304 
L 648.549791 -264.659432 
L 648.549791 -266.92856 
L 648.549791 -269.197688 
L 648.549791 -271.466817 
L 648.549791 -273.735945 
L 648.549791 -276.005073 
L 648.549791 -278.274201 
L 648.549791 -280.543329 
L 648.549791 -282.812458 
L 648.549791 -285.081586 
L 648.549791 -287.350714 
L 648.549791 -289.619842 
L 648.742035 -289.619842 
L 648.742035 -289.619842 
L 648.80918 -287.350714 
L 648.894588 -285.081586 
L 649.001366 -282.812458 
L 649.132556 -280.543329 
L 649.290932 -278.274201 
L 649.478773 -276.005073 
L 649.697608 -273.735945 
L 649.947973 -271.466817 
L 650.229204 -269.197688 
L 650.53927 -266.92856 
L 650.874704 -264.659432 
L 651.230616 -262.390304 
L 651.600831 -260.121175 
L 651.978123 -257.852047 
L 652.354559 -255.582919 
L 652.721902 -253.313791 
L 653.07206 -251.044663 
L 653.397527 -248.775534 
L 653.691775 -246.506406 
L 653.949571 -244.237278 
L 654.167166 -241.96815 
L 654.342373 -239.699021 
L 654.474501 -237.429893 
L 654.564186 -235.160765 
L 654.613132 -232.891637 
L 654.623797 -230.622509 
L 654.599082 -228.35338 
L 654.542032 -226.084252 
L 654.455607 -223.815124 
L 654.342524 -221.545996 
L 654.205187 -219.276867 
L 654.045701 -217.007739 
L 653.865945 -214.738611 
L 653.667702 -212.469483 
L 653.452795 -210.200355 
L 653.223227 -207.931226 
L 652.981303 -205.662098 
L 652.729704 -203.39297 
L 652.471531 -201.123842 
L 652.210311 -198.854714 
L 651.949975 -196.585585 
L 651.694825 -194.316457 
L 651.4495 -192.047329 
L 651.218961 -189.778201 
L 651.008489 -187.509072 
L 650.823703 -185.239944 
L 650.670597 -182.970816 
L 650.555565 -180.701688 
L 650.485405 -178.43256 
L 650.467274 -176.163431 
L 650.508579 -173.894303 
L 650.616771 -171.625175 
L 650.79906 -169.356047 
L 651.062024 -167.086918 
L 651.411154 -164.81779 
L 651.850351 -162.548662 
L 652.38141 -160.279534 
L 653.003546 -158.010406 
L 653.712987 -155.741277 
L 654.502698 -153.472149 
L 655.36224 -151.203021 
L 656.277794 -148.933893 
L 657.232351 -146.664765 
L 658.20607 -144.395636 
L 659.176772 -142.126508 
L 660.12057 -139.85738 
L 661.012608 -137.588252 
L 661.82789 -135.319123 
L 662.542188 -133.049995 
L 663.132995 -130.780867 
L 663.58051 -128.511739 
L 663.868593 -126.242611 
L 663.985658 -123.973482 
L 663.925421 -121.704354 
L 663.687438 -119.435226 
L 663.277357 -117.166098 
L 662.706842 -114.896969 
L 661.993126 -112.627841 
L 661.158207 -110.358713 
L 660.227731 -108.089585 
L 659.229635 -105.820457 
L 658.19267 -103.551328 
L 657.144918 -101.2822 
L 656.112432 -99.013072 
L 655.118098 -96.743944 
L 654.180802 -94.474816 
L 653.314949 -92.205687 
L 652.53032 -89.936559 
L 651.832256 -87.667431 
L 651.222091 -85.398303 
L 650.697776 -83.129174 
L 650.254605 -80.860046 
L 649.88596 -78.590918 
L 649.584034 -76.32179 
L 649.34046 -74.052662 
L 649.146837 -71.783533 
L 648.995121 -69.514405 
L 648.877908 -67.245277 
L 648.788599 -64.976149 
z
" style="stroke: #4c4c4c; stroke-width: 1.5"/>
    </defs>
    <g clip-path="url(#p1d6c8ecf71)">
     <use xlink:href="#mc7936d6294" x="0" y="346.2575" style="fill: #cc8963; stroke: #4c4c4c; stroke-width: 1.5"/>
    </g>
   </g>
   <g id="line2d_27">
    <path d="M 441.075001 246.089873 
L 441.075001 78.988101 
" clip-path="url(#p1d6c8ecf71)" style="fill: none; stroke: #4c4c4c; stroke-width: 1.5; stroke-linecap: round"/>
   </g>
   <g id="line2d_28">
    <path d="M 441.075001 227.610053 
L 441.075001 152.424238 
" clip-path="url(#p1d6c8ecf71)" style="fill: none; stroke: #4c4c4c; stroke-width: 4.5; stroke-linecap: round"/>
   </g>
   <g id="line2d_29">
    <path d="M 544.812396 246.037426 
L 544.812396 205.775298 
" clip-path="url(#p1d6c8ecf71)" style="fill: none; stroke: #4c4c4c; stroke-width: 1.5; stroke-linecap: round"/>
   </g>
   <g id="line2d_30">
    <path d="M 544.812396 228.079743 
L 544.812396 206.51479 
" clip-path="url(#p1d6c8ecf71)" style="fill: none; stroke: #4c4c4c; stroke-width: 4.5; stroke-linecap: round"/>
   </g>
   <g id="line2d_31">
    <path d="M 648.549791 246.089873 
L 648.549791 150.986936 
" clip-path="url(#p1d6c8ecf71)" style="fill: none; stroke: #4c4c4c; stroke-width: 1.5; stroke-linecap: round"/>
   </g>
   <g id="line2d_32">
    <path d="M 648.549791 228.419291 
L 648.549791 197.378269 
" clip-path="url(#p1d6c8ecf71)" style="fill: none; stroke: #4c4c4c; stroke-width: 4.5; stroke-linecap: round"/>
   </g>
   <g id="patch_10">
    <path d="M 389.206304 302.991875 
L 389.206304 22.318125 
" style="fill: none; stroke: #262626; stroke-width: 1.25; stroke-linejoin: miter; stroke-linecap: square"/>
   </g>
   <g id="patch_11">
    <path d="M 389.206304 302.991875 
L 700.418488 302.991875 
" style="fill: none; stroke: #262626; stroke-width: 1.25; stroke-linejoin: miter; stroke-linecap: square"/>
   </g>
   <g id="PathCollection_4">
    <g clip-path="url(#p1d6c8ecf71)">
     <use xlink:href="#m623ee2c965" x="441.075001" y="214.188719" style="fill: #ffffff; stroke: #4c4c4c"/>
    </g>
   </g>
   <g id="PathCollection_5">
    <g clip-path="url(#p1d6c8ecf71)">
     <use xlink:href="#m623ee2c965" x="544.812396" y="225.965839" style="fill: #ffffff; stroke: #4c4c4c"/>
    </g>
   </g>
   <g id="PathCollection_6">
    <g clip-path="url(#p1d6c8ecf71)">
     <use xlink:href="#m623ee2c965" x="648.549791" y="224.295982" style="fill: #ffffff; stroke: #4c4c4c"/>
    </g>
   </g>
   <g id="text_18">
    <!-- Dyn_obs = 10.0 -->
    <g style="fill: #262626" transform="translate(497.031771 16.318125)scale(0.12 -0.12)">
     <use xlink:href="#DejaVuSans-44"/>
     <use xlink:href="#DejaVuSans-79" x="77.001953"/>
     <use xlink:href="#DejaVuSans-6e" x="136.181641"/>
     <use xlink:href="#DejaVuSans-5f" x="199.560547"/>
     <use xlink:href="#DejaVuSans-6f" x="249.560547"/>
     <use xlink:href="#DejaVuSans-62" x="310.742188"/>
     <use xlink:href="#DejaVuSans-73" x="374.21875"/>
     <use xlink:href="#DejaVuSans-20" x="426.318359"/>
     <use xlink:href="#DejaVuSans-3d" x="458.105469"/>
     <use xlink:href="#DejaVuSans-20" x="541.894531"/>
     <use xlink:href="#DejaVuSans-31" x="573.681641"/>
     <use xlink:href="#DejaVuSans-30" x="637.304688"/>
     <use xlink:href="#DejaVuSans-2e" x="700.927734"/>
     <use xlink:href="#DejaVuSans-30" x="732.714844"/>
    </g>
   </g>
  </g>
  <g id="legend_1">
   <g id="text_19">
    <!-- dim -->
    <g style="fill: #262626" transform="translate(719.84316 160.294062)scale(0.12 -0.12)">
     <defs>
      <path id="DejaVuSans-69" d="M 603 3500 
L 1178 3500 
L 1178 0 
L 603 0 
L 603 3500 
z
M 603 4863 
L 1178 4863 
L 1178 4134 
L 603 4134 
L 603 4863 
z
" transform="scale(0.015625)"/>
     </defs>
     <use xlink:href="#DejaVuSans-64"/>
     <use xlink:href="#DejaVuSans-69" x="63.476562"/>
     <use xlink:href="#DejaVuSans-6d" x="91.259766"/>
    </g>
   </g>
   <g id="patch_12">
    <path d="M 708.772457 176.647969 
L 730.772457 176.647969 
L 730.772457 168.947969 
L 708.772457 168.947969 
z
" style="fill: #5875a4; stroke: #4c4c4c; stroke-width: 0.75; stroke-linejoin: miter"/>
   </g>
   <g id="text_20">
    <!-- 2d -->
    <g style="fill: #262626" transform="translate(739.572457 176.647969)scale(0.11 -0.11)">
     <use xlink:href="#DejaVuSans-32"/>
     <use xlink:href="#DejaVuSans-64" x="63.623047"/>
    </g>
   </g>
   <g id="patch_13">
    <path d="M 708.772457 192.793906 
L 730.772457 192.793906 
L 730.772457 185.093906 
L 708.772457 185.093906 
z
" style="fill: #cc8963; stroke: #4c4c4c; stroke-width: 0.75; stroke-linejoin: miter"/>
   </g>
   <g id="text_21">
    <!-- 3d -->
    <g style="fill: #262626" transform="translate(739.572457 192.793906)scale(0.11 -0.11)">
     <defs>
      <path id="DejaVuSans-33" d="M 2597 2516 
Q 3050 2419 3304 2112 
Q 3559 1806 3559 1356 
Q 3559 666 3084 287 
Q 2609 -91 1734 -91 
Q 1441 -91 1130 -33 
Q 819 25 488 141 
L 488 750 
Q 750 597 1062 519 
Q 1375 441 1716 441 
Q 2309 441 2620 675 
Q 2931 909 2931 1356 
Q 2931 1769 2642 2001 
Q 2353 2234 1838 2234 
L 1294 2234 
L 1294 2753 
L 1863 2753 
Q 2328 2753 2575 2939 
Q 2822 3125 2822 3475 
Q 2822 3834 2567 4026 
Q 2313 4219 1838 4219 
Q 1578 4219 1281 4162 
Q 984 4106 628 3988 
L 628 4550 
Q 988 4650 1302 4700 
Q 1616 4750 1894 4750 
Q 2613 4750 3031 4423 
Q 3450 4097 3450 3541 
Q 3450 3153 3228 2886 
Q 3006 2619 2597 2516 
z
" transform="scale(0.015625)"/>
     </defs>
     <use xlink:href="#DejaVuSans-33"/>
     <use xlink:href="#DejaVuSans-64" x="63.623047"/>
    </g>
   </g>
  </g>
 </g>
 <defs>
  <clipPath id="p7158edbddc">
   <rect x="59.024844" y="22.318125" width="311.212184" height="280.67375"/>
  </clipPath>
  <clipPath id="p1d6c8ecf71">
   <rect x="389.206304" y="22.318125" width="311.212184" height="280.67375"/>
  </clipPath>
 </defs>
</svg>
