<?xml version="1.0" encoding="utf-8" standalone="no"?>
<!DOCTYPE svg PUBLIC "-//W3C//DTD SVG 1.1//EN"
  "http://www.w3.org/Graphics/SVG/1.1/DTD/svg11.dtd">
<svg xmlns:xlink="http://www.w3.org/1999/xlink" width="763.005306pt" height="351.126562pt" viewBox="0 0 763.005306 351.126562" xmlns="http://www.w3.org/2000/svg" version="1.1">
 <metadata>
  <rdf:RDF xmlns:dc="http://purl.org/dc/elements/1.1/" xmlns:cc="http://creativecommons.org/ns#" xmlns:rdf="http://www.w3.org/1999/02/22-rdf-syntax-ns#">
   <cc:Work>
    <dc:type rdf:resource="http://purl.org/dc/dcmitype/StillImage"/>
    <dc:date>2022-03-28T23:39:15.826025</dc:date>
    <dc:format>image/svg+xml</dc:format>
    <dc:creator>
     <cc:Agent>
      <dc:title>Matplotlib v3.5.1, https://matplotlib.org/</dc:title>
     </cc:Agent>
    </dc:creator>
   </cc:Work>
  </rdf:RDF>
 </metadata>
 <defs>
  <style type="text/css">*{stroke-linejoin: round; stroke-linecap: butt}</style>
 </defs>
 <g id="figure_1">
  <g id="patch_1">
   <path d="M 0 351.126562 
L 763.005306 351.126562 
L 763.005306 0 
L 0 0 
z
" style="fill: #ffffff"/>
  </g>
  <g id="axes_1">
   <g id="patch_2">
    <path d="M 44.059375 313.292187 
L 367.065597 313.292187 
L 367.065597 20.798437 
L 44.059375 20.798437 
z
" style="fill: #ffffff"/>
   </g>
   <g id="matplotlib.axis_1">
    <g id="xtick_1">
     <g id="line2d_1">
      <defs>
       <path id="me273ee6856" d="M 0 0 
L 0 3.5 
" style="stroke: #262626; stroke-width: 0.8"/>
      </defs>
      <g>
       <use xlink:href="#me273ee6856" x="97.893745" y="313.292187" style="fill: #262626; stroke: #262626; stroke-width: 0.8"/>
      </g>
     </g>
     <g id="text_1">
      <!-- map2 -->
      <g style="fill: #262626" transform="translate(83.603902 327.890625)scale(0.1 -0.1)">
       <defs>
        <path id="DejaVuSans-6d" d="M 3328 2828 
Q 3544 3216 3844 3400 
Q 4144 3584 4550 3584 
Q 5097 3584 5394 3201 
Q 5691 2819 5691 2113 
L 5691 0 
L 5113 0 
L 5113 2094 
Q 5113 2597 4934 2840 
Q 4756 3084 4391 3084 
Q 3944 3084 3684 2787 
Q 3425 2491 3425 1978 
L 3425 0 
L 2847 0 
L 2847 2094 
Q 2847 2600 2669 2842 
Q 2491 3084 2119 3084 
Q 1678 3084 1418 2786 
Q 1159 2488 1159 1978 
L 1159 0 
L 581 0 
L 581 3500 
L 1159 3500 
L 1159 2956 
Q 1356 3278 1631 3431 
Q 1906 3584 2284 3584 
Q 2666 3584 2933 3390 
Q 3200 3197 3328 2828 
z
" transform="scale(0.015625)"/>
        <path id="DejaVuSans-61" d="M 2194 1759 
Q 1497 1759 1228 1600 
Q 959 1441 959 1056 
Q 959 750 1161 570 
Q 1363 391 1709 391 
Q 2188 391 2477 730 
Q 2766 1069 2766 1631 
L 2766 1759 
L 2194 1759 
z
M 3341 1997 
L 3341 0 
L 2766 0 
L 2766 531 
Q 2569 213 2275 61 
Q 1981 -91 1556 -91 
Q 1019 -91 701 211 
Q 384 513 384 1019 
Q 384 1609 779 1909 
Q 1175 2209 1959 2209 
L 2766 2209 
L 2766 2266 
Q 2766 2663 2505 2880 
Q 2244 3097 1772 3097 
Q 1472 3097 1187 3025 
Q 903 2953 641 2809 
L 641 3341 
Q 956 3463 1253 3523 
Q 1550 3584 1831 3584 
Q 2591 3584 2966 3190 
Q 3341 2797 3341 1997 
z
" transform="scale(0.015625)"/>
        <path id="DejaVuSans-70" d="M 1159 525 
L 1159 -1331 
L 581 -1331 
L 581 3500 
L 1159 3500 
L 1159 2969 
Q 1341 3281 1617 3432 
Q 1894 3584 2278 3584 
Q 2916 3584 3314 3078 
Q 3713 2572 3713 1747 
Q 3713 922 3314 415 
Q 2916 -91 2278 -91 
Q 1894 -91 1617 61 
Q 1341 213 1159 525 
z
M 3116 1747 
Q 3116 2381 2855 2742 
Q 2594 3103 2138 3103 
Q 1681 3103 1420 2742 
Q 1159 2381 1159 1747 
Q 1159 1113 1420 752 
Q 1681 391 2138 391 
Q 2594 391 2855 752 
Q 3116 1113 3116 1747 
z
" transform="scale(0.015625)"/>
        <path id="DejaVuSans-32" d="M 1228 531 
L 3431 531 
L 3431 0 
L 469 0 
L 469 531 
Q 828 903 1448 1529 
Q 2069 2156 2228 2338 
Q 2531 2678 2651 2914 
Q 2772 3150 2772 3378 
Q 2772 3750 2511 3984 
Q 2250 4219 1831 4219 
Q 1534 4219 1204 4116 
Q 875 4013 500 3803 
L 500 4441 
Q 881 4594 1212 4672 
Q 1544 4750 1819 4750 
Q 2544 4750 2975 4387 
Q 3406 4025 3406 3419 
Q 3406 3131 3298 2873 
Q 3191 2616 2906 2266 
Q 2828 2175 2409 1742 
Q 1991 1309 1228 531 
z
" transform="scale(0.015625)"/>
       </defs>
       <use xlink:href="#DejaVuSans-6d"/>
       <use xlink:href="#DejaVuSans-61" x="97.412109"/>
       <use xlink:href="#DejaVuSans-70" x="158.691406"/>
       <use xlink:href="#DejaVuSans-32" x="222.167969"/>
      </g>
     </g>
    </g>
    <g id="xtick_2">
     <g id="line2d_2">
      <g>
       <use xlink:href="#me273ee6856" x="205.562486" y="313.292187" style="fill: #262626; stroke: #262626; stroke-width: 0.8"/>
      </g>
     </g>
     <g id="text_2">
      <!-- map5 -->
      <g style="fill: #262626" transform="translate(191.272642 327.890625)scale(0.1 -0.1)">
       <defs>
        <path id="DejaVuSans-35" d="M 691 4666 
L 3169 4666 
L 3169 4134 
L 1269 4134 
L 1269 2991 
Q 1406 3038 1543 3061 
Q 1681 3084 1819 3084 
Q 2600 3084 3056 2656 
Q 3513 2228 3513 1497 
Q 3513 744 3044 326 
Q 2575 -91 1722 -91 
Q 1428 -91 1123 -41 
Q 819 9 494 109 
L 494 744 
Q 775 591 1075 516 
Q 1375 441 1709 441 
Q 2250 441 2565 725 
Q 2881 1009 2881 1497 
Q 2881 1984 2565 2268 
Q 2250 2553 1709 2553 
Q 1456 2553 1204 2497 
Q 953 2441 691 2322 
L 691 4666 
z
" transform="scale(0.015625)"/>
       </defs>
       <use xlink:href="#DejaVuSans-6d"/>
       <use xlink:href="#DejaVuSans-61" x="97.412109"/>
       <use xlink:href="#DejaVuSans-70" x="158.691406"/>
       <use xlink:href="#DejaVuSans-35" x="222.167969"/>
      </g>
     </g>
    </g>
    <g id="xtick_3">
     <g id="line2d_3">
      <g>
       <use xlink:href="#me273ee6856" x="313.231226" y="313.292187" style="fill: #262626; stroke: #262626; stroke-width: 0.8"/>
      </g>
     </g>
     <g id="text_3">
      <!-- small_warehouse -->
      <g style="fill: #262626" transform="translate(270.163258 327.890625)scale(0.1 -0.1)">
       <defs>
        <path id="DejaVuSans-73" d="M 2834 3397 
L 2834 2853 
Q 2591 2978 2328 3040 
Q 2066 3103 1784 3103 
Q 1356 3103 1142 2972 
Q 928 2841 928 2578 
Q 928 2378 1081 2264 
Q 1234 2150 1697 2047 
L 1894 2003 
Q 2506 1872 2764 1633 
Q 3022 1394 3022 966 
Q 3022 478 2636 193 
Q 2250 -91 1575 -91 
Q 1294 -91 989 -36 
Q 684 19 347 128 
L 347 722 
Q 666 556 975 473 
Q 1284 391 1588 391 
Q 1994 391 2212 530 
Q 2431 669 2431 922 
Q 2431 1156 2273 1281 
Q 2116 1406 1581 1522 
L 1381 1569 
Q 847 1681 609 1914 
Q 372 2147 372 2553 
Q 372 3047 722 3315 
Q 1072 3584 1716 3584 
Q 2034 3584 2315 3537 
Q 2597 3491 2834 3397 
z
" transform="scale(0.015625)"/>
        <path id="DejaVuSans-6c" d="M 603 4863 
L 1178 4863 
L 1178 0 
L 603 0 
L 603 4863 
z
" transform="scale(0.015625)"/>
        <path id="DejaVuSans-5f" d="M 3263 -1063 
L 3263 -1509 
L -63 -1509 
L -63 -1063 
L 3263 -1063 
z
" transform="scale(0.015625)"/>
        <path id="DejaVuSans-77" d="M 269 3500 
L 844 3500 
L 1563 769 
L 2278 3500 
L 2956 3500 
L 3675 769 
L 4391 3500 
L 4966 3500 
L 4050 0 
L 3372 0 
L 2619 2869 
L 1863 0 
L 1184 0 
L 269 3500 
z
" transform="scale(0.015625)"/>
        <path id="DejaVuSans-72" d="M 2631 2963 
Q 2534 3019 2420 3045 
Q 2306 3072 2169 3072 
Q 1681 3072 1420 2755 
Q 1159 2438 1159 1844 
L 1159 0 
L 581 0 
L 581 3500 
L 1159 3500 
L 1159 2956 
Q 1341 3275 1631 3429 
Q 1922 3584 2338 3584 
Q 2397 3584 2469 3576 
Q 2541 3569 2628 3553 
L 2631 2963 
z
" transform="scale(0.015625)"/>
        <path id="DejaVuSans-65" d="M 3597 1894 
L 3597 1613 
L 953 1613 
Q 991 1019 1311 708 
Q 1631 397 2203 397 
Q 2534 397 2845 478 
Q 3156 559 3463 722 
L 3463 178 
Q 3153 47 2828 -22 
Q 2503 -91 2169 -91 
Q 1331 -91 842 396 
Q 353 884 353 1716 
Q 353 2575 817 3079 
Q 1281 3584 2069 3584 
Q 2775 3584 3186 3129 
Q 3597 2675 3597 1894 
z
M 3022 2063 
Q 3016 2534 2758 2815 
Q 2500 3097 2075 3097 
Q 1594 3097 1305 2825 
Q 1016 2553 972 2059 
L 3022 2063 
z
" transform="scale(0.015625)"/>
        <path id="DejaVuSans-68" d="M 3513 2113 
L 3513 0 
L 2938 0 
L 2938 2094 
Q 2938 2591 2744 2837 
Q 2550 3084 2163 3084 
Q 1697 3084 1428 2787 
Q 1159 2491 1159 1978 
L 1159 0 
L 581 0 
L 581 4863 
L 1159 4863 
L 1159 2956 
Q 1366 3272 1645 3428 
Q 1925 3584 2291 3584 
Q 2894 3584 3203 3211 
Q 3513 2838 3513 2113 
z
" transform="scale(0.015625)"/>
        <path id="DejaVuSans-6f" d="M 1959 3097 
Q 1497 3097 1228 2736 
Q 959 2375 959 1747 
Q 959 1119 1226 758 
Q 1494 397 1959 397 
Q 2419 397 2687 759 
Q 2956 1122 2956 1747 
Q 2956 2369 2687 2733 
Q 2419 3097 1959 3097 
z
M 1959 3584 
Q 2709 3584 3137 3096 
Q 3566 2609 3566 1747 
Q 3566 888 3137 398 
Q 2709 -91 1959 -91 
Q 1206 -91 779 398 
Q 353 888 353 1747 
Q 353 2609 779 3096 
Q 1206 3584 1959 3584 
z
" transform="scale(0.015625)"/>
        <path id="DejaVuSans-75" d="M 544 1381 
L 544 3500 
L 1119 3500 
L 1119 1403 
Q 1119 906 1312 657 
Q 1506 409 1894 409 
Q 2359 409 2629 706 
Q 2900 1003 2900 1516 
L 2900 3500 
L 3475 3500 
L 3475 0 
L 2900 0 
L 2900 538 
Q 2691 219 2414 64 
Q 2138 -91 1772 -91 
Q 1169 -91 856 284 
Q 544 659 544 1381 
z
M 1991 3584 
L 1991 3584 
z
" transform="scale(0.015625)"/>
       </defs>
       <use xlink:href="#DejaVuSans-73"/>
       <use xlink:href="#DejaVuSans-6d" x="52.099609"/>
       <use xlink:href="#DejaVuSans-61" x="149.511719"/>
       <use xlink:href="#DejaVuSans-6c" x="210.791016"/>
       <use xlink:href="#DejaVuSans-6c" x="238.574219"/>
       <use xlink:href="#DejaVuSans-5f" x="266.357422"/>
       <use xlink:href="#DejaVuSans-77" x="316.357422"/>
       <use xlink:href="#DejaVuSans-61" x="398.144531"/>
       <use xlink:href="#DejaVuSans-72" x="459.423828"/>
       <use xlink:href="#DejaVuSans-65" x="498.287109"/>
       <use xlink:href="#DejaVuSans-68" x="559.810547"/>
       <use xlink:href="#DejaVuSans-6f" x="623.189453"/>
       <use xlink:href="#DejaVuSans-75" x="684.371094"/>
       <use xlink:href="#DejaVuSans-73" x="747.75"/>
       <use xlink:href="#DejaVuSans-65" x="799.849609"/>
      </g>
     </g>
    </g>
    <g id="text_4">
     <!-- World -->
     <g style="fill: #262626" transform="translate(191.234361 341.846875)scale(0.1 -0.1)">
      <defs>
       <path id="DejaVuSans-57" d="M 213 4666 
L 850 4666 
L 1831 722 
L 2809 4666 
L 3519 4666 
L 4500 722 
L 5478 4666 
L 6119 4666 
L 4947 0 
L 4153 0 
L 3169 4050 
L 2175 0 
L 1381 0 
L 213 4666 
z
" transform="scale(0.015625)"/>
       <path id="DejaVuSans-64" d="M 2906 2969 
L 2906 4863 
L 3481 4863 
L 3481 0 
L 2906 0 
L 2906 525 
Q 2725 213 2448 61 
Q 2172 -91 1784 -91 
Q 1150 -91 751 415 
Q 353 922 353 1747 
Q 353 2572 751 3078 
Q 1150 3584 1784 3584 
Q 2172 3584 2448 3432 
Q 2725 3281 2906 2969 
z
M 947 1747 
Q 947 1113 1208 752 
Q 1469 391 1925 391 
Q 2381 391 2643 752 
Q 2906 1113 2906 1747 
Q 2906 2381 2643 2742 
Q 2381 3103 1925 3103 
Q 1469 3103 1208 2742 
Q 947 2381 947 1747 
z
" transform="scale(0.015625)"/>
      </defs>
      <use xlink:href="#DejaVuSans-57"/>
      <use xlink:href="#DejaVuSans-6f" x="93.001953"/>
      <use xlink:href="#DejaVuSans-72" x="154.183594"/>
      <use xlink:href="#DejaVuSans-6c" x="195.296875"/>
      <use xlink:href="#DejaVuSans-64" x="223.080078"/>
     </g>
    </g>
   </g>
   <g id="matplotlib.axis_2">
    <g id="ytick_1">
     <g id="line2d_4">
      <defs>
       <path id="m6135aa4918" d="M 0 0 
L -3.5 0 
" style="stroke: #262626; stroke-width: 0.8"/>
      </defs>
      <g>
       <use xlink:href="#m6135aa4918" x="44.059375" y="269.287916" style="fill: #262626; stroke: #262626; stroke-width: 0.8"/>
      </g>
     </g>
     <g id="text_5">
      <!-- 0.0 -->
      <g style="fill: #262626" transform="translate(21.15625 273.087135)scale(0.1 -0.1)">
       <defs>
        <path id="DejaVuSans-30" d="M 2034 4250 
Q 1547 4250 1301 3770 
Q 1056 3291 1056 2328 
Q 1056 1369 1301 889 
Q 1547 409 2034 409 
Q 2525 409 2770 889 
Q 3016 1369 3016 2328 
Q 3016 3291 2770 3770 
Q 2525 4250 2034 4250 
z
M 2034 4750 
Q 2819 4750 3233 4129 
Q 3647 3509 3647 2328 
Q 3647 1150 3233 529 
Q 2819 -91 2034 -91 
Q 1250 -91 836 529 
Q 422 1150 422 2328 
Q 422 3509 836 4129 
Q 1250 4750 2034 4750 
z
" transform="scale(0.015625)"/>
        <path id="DejaVuSans-2e" d="M 684 794 
L 1344 794 
L 1344 0 
L 684 0 
L 684 794 
z
" transform="scale(0.015625)"/>
       </defs>
       <use xlink:href="#DejaVuSans-30"/>
       <use xlink:href="#DejaVuSans-2e" x="63.623047"/>
       <use xlink:href="#DejaVuSans-30" x="95.410156"/>
      </g>
     </g>
    </g>
    <g id="ytick_2">
     <g id="line2d_5">
      <g>
       <use xlink:href="#m6135aa4918" x="44.059375" y="207.195944" style="fill: #262626; stroke: #262626; stroke-width: 0.8"/>
      </g>
     </g>
     <g id="text_6">
      <!-- 0.5 -->
      <g style="fill: #262626" transform="translate(21.15625 210.995163)scale(0.1 -0.1)">
       <use xlink:href="#DejaVuSans-30"/>
       <use xlink:href="#DejaVuSans-2e" x="63.623047"/>
       <use xlink:href="#DejaVuSans-35" x="95.410156"/>
      </g>
     </g>
    </g>
    <g id="ytick_3">
     <g id="line2d_6">
      <g>
       <use xlink:href="#m6135aa4918" x="44.059375" y="145.103972" style="fill: #262626; stroke: #262626; stroke-width: 0.8"/>
      </g>
     </g>
     <g id="text_7">
      <!-- 1.0 -->
      <g style="fill: #262626" transform="translate(21.15625 148.903191)scale(0.1 -0.1)">
       <defs>
        <path id="DejaVuSans-31" d="M 794 531 
L 1825 531 
L 1825 4091 
L 703 3866 
L 703 4441 
L 1819 4666 
L 2450 4666 
L 2450 531 
L 3481 531 
L 3481 0 
L 794 0 
L 794 531 
z
" transform="scale(0.015625)"/>
       </defs>
       <use xlink:href="#DejaVuSans-31"/>
       <use xlink:href="#DejaVuSans-2e" x="63.623047"/>
       <use xlink:href="#DejaVuSans-30" x="95.410156"/>
      </g>
     </g>
    </g>
    <g id="ytick_4">
     <g id="line2d_7">
      <g>
       <use xlink:href="#m6135aa4918" x="44.059375" y="83.012" style="fill: #262626; stroke: #262626; stroke-width: 0.8"/>
      </g>
     </g>
     <g id="text_8">
      <!-- 1.5 -->
      <g style="fill: #262626" transform="translate(21.15625 86.811219)scale(0.1 -0.1)">
       <use xlink:href="#DejaVuSans-31"/>
       <use xlink:href="#DejaVuSans-2e" x="63.623047"/>
       <use xlink:href="#DejaVuSans-35" x="95.410156"/>
      </g>
     </g>
    </g>
    <g id="ytick_5">
     <g id="line2d_8">
      <g>
       <use xlink:href="#m6135aa4918" x="44.059375" y="20.920028" style="fill: #262626; stroke: #262626; stroke-width: 0.8"/>
      </g>
     </g>
     <g id="text_9">
      <!-- 2.0 -->
      <g style="fill: #262626" transform="translate(21.15625 24.719247)scale(0.1 -0.1)">
       <use xlink:href="#DejaVuSans-32"/>
       <use xlink:href="#DejaVuSans-2e" x="63.623047"/>
       <use xlink:href="#DejaVuSans-30" x="95.410156"/>
      </g>
     </g>
    </g>
    <g id="text_10">
     <!-- normalized_curvature -->
     <g style="fill: #262626" transform="translate(14.798438 221.474219)rotate(-90)scale(0.1 -0.1)">
      <defs>
       <path id="DejaVuSans-6e" d="M 3513 2113 
L 3513 0 
L 2938 0 
L 2938 2094 
Q 2938 2591 2744 2837 
Q 2550 3084 2163 3084 
Q 1697 3084 1428 2787 
Q 1159 2491 1159 1978 
L 1159 0 
L 581 0 
L 581 3500 
L 1159 3500 
L 1159 2956 
Q 1366 3272 1645 3428 
Q 1925 3584 2291 3584 
Q 2894 3584 3203 3211 
Q 3513 2838 3513 2113 
z
" transform="scale(0.015625)"/>
       <path id="DejaVuSans-69" d="M 603 3500 
L 1178 3500 
L 1178 0 
L 603 0 
L 603 3500 
z
M 603 4863 
L 1178 4863 
L 1178 4134 
L 603 4134 
L 603 4863 
z
" transform="scale(0.015625)"/>
       <path id="DejaVuSans-7a" d="M 353 3500 
L 3084 3500 
L 3084 2975 
L 922 459 
L 3084 459 
L 3084 0 
L 275 0 
L 275 525 
L 2438 3041 
L 353 3041 
L 353 3500 
z
" transform="scale(0.015625)"/>
       <path id="DejaVuSans-63" d="M 3122 3366 
L 3122 2828 
Q 2878 2963 2633 3030 
Q 2388 3097 2138 3097 
Q 1578 3097 1268 2742 
Q 959 2388 959 1747 
Q 959 1106 1268 751 
Q 1578 397 2138 397 
Q 2388 397 2633 464 
Q 2878 531 3122 666 
L 3122 134 
Q 2881 22 2623 -34 
Q 2366 -91 2075 -91 
Q 1284 -91 818 406 
Q 353 903 353 1747 
Q 353 2603 823 3093 
Q 1294 3584 2113 3584 
Q 2378 3584 2631 3529 
Q 2884 3475 3122 3366 
z
" transform="scale(0.015625)"/>
       <path id="DejaVuSans-76" d="M 191 3500 
L 800 3500 
L 1894 563 
L 2988 3500 
L 3597 3500 
L 2284 0 
L 1503 0 
L 191 3500 
z
" transform="scale(0.015625)"/>
       <path id="DejaVuSans-74" d="M 1172 4494 
L 1172 3500 
L 2356 3500 
L 2356 3053 
L 1172 3053 
L 1172 1153 
Q 1172 725 1289 603 
Q 1406 481 1766 481 
L 2356 481 
L 2356 0 
L 1766 0 
Q 1100 0 847 248 
Q 594 497 594 1153 
L 594 3053 
L 172 3053 
L 172 3500 
L 594 3500 
L 594 4494 
L 1172 4494 
z
" transform="scale(0.015625)"/>
      </defs>
      <use xlink:href="#DejaVuSans-6e"/>
      <use xlink:href="#DejaVuSans-6f" x="63.378906"/>
      <use xlink:href="#DejaVuSans-72" x="124.560547"/>
      <use xlink:href="#DejaVuSans-6d" x="163.923828"/>
      <use xlink:href="#DejaVuSans-61" x="261.335938"/>
      <use xlink:href="#DejaVuSans-6c" x="322.615234"/>
      <use xlink:href="#DejaVuSans-69" x="350.398438"/>
      <use xlink:href="#DejaVuSans-7a" x="378.181641"/>
      <use xlink:href="#DejaVuSans-65" x="430.671875"/>
      <use xlink:href="#DejaVuSans-64" x="492.195312"/>
      <use xlink:href="#DejaVuSans-5f" x="555.671875"/>
      <use xlink:href="#DejaVuSans-63" x="605.671875"/>
      <use xlink:href="#DejaVuSans-75" x="660.652344"/>
      <use xlink:href="#DejaVuSans-72" x="724.03125"/>
      <use xlink:href="#DejaVuSans-76" x="765.144531"/>
      <use xlink:href="#DejaVuSans-61" x="824.324219"/>
      <use xlink:href="#DejaVuSans-74" x="885.603516"/>
      <use xlink:href="#DejaVuSans-75" x="924.8125"/>
      <use xlink:href="#DejaVuSans-72" x="988.191406"/>
      <use xlink:href="#DejaVuSans-65" x="1027.054688"/>
     </g>
    </g>
   </g>
   <g id="patch_3">
    <path d="M 97.893745 269.287916 
L 97.893745 269.287916 
L 97.893745 269.287916 
L 97.893745 269.287916 
z
" clip-path="url(#p1fd6eb0096)" style="fill: #5875a4; stroke: #4c4c4c; stroke-width: 0.75; stroke-linejoin: miter"/>
   </g>
   <g id="PolyCollection_1">
    <defs>
     <path id="m2030f36bf7" d="M 97.893745 -77.690188 
L 95.991795 -77.690188 
L 95.16961 -78.540531 
L 94.081423 -79.390873 
L 92.679939 -80.241216 
L 90.924196 -81.091559 
L 88.785682 -81.941901 
L 86.254791 -82.792244 
L 83.346793 -83.642586 
L 80.106309 -84.492929 
L 76.609334 -85.343272 
L 72.96204 -86.193614 
L 69.295971 -87.043957 
L 65.759773 -87.894299 
L 62.508179 -88.744642 
L 59.689414 -89.594984 
L 57.432567 -90.445327 
L 55.836507 -91.29567 
L 54.961751 -92.146012 
L 54.826249 -92.996355 
L 55.405491 -93.846697 
L 56.636707 -94.69704 
L 58.426391 -95.547383 
L 60.660015 -96.397725 
L 63.212616 -97.248068 
L 65.958997 -98.09841 
L 68.782517 -98.948753 
L 71.581767 -99.799095 
L 74.274801 -100.649438 
L 76.800968 -101.499781 
L 79.12061 -102.350123 
L 81.213122 -103.200466 
L 83.073898 -104.050808 
L 84.710728 -104.901151 
L 86.140095 -105.751494 
L 87.383763 -106.601836 
L 88.465889 -107.452179 
L 89.410785 -108.302521 
L 90.241372 -109.152864 
L 90.978223 -110.003206 
L 91.639122 -110.853549 
L 92.238953 -111.703892 
L 92.789796 -112.554234 
L 93.301121 -113.404577 
L 93.779986 -114.254919 
L 94.231228 -115.105262 
L 94.657647 -115.955605 
L 95.060211 -116.805947 
L 95.438318 -117.65629 
L 95.790124 -118.506632 
L 96.112937 -119.356975 
L 96.403641 -120.207317 
L 96.659109 -121.05766 
L 96.87655 -121.908003 
L 97.053765 -122.758345 
L 97.189277 -123.608688 
L 97.282358 -124.45903 
L 97.332975 -125.309373 
L 97.341687 -126.159716 
L 97.309531 -127.010058 
L 97.237938 -127.860401 
L 97.128677 -128.710743 
L 96.983847 -129.561086 
L 96.805893 -130.411428 
L 96.597655 -131.261771 
L 96.362422 -132.112114 
L 96.103997 -132.962456 
L 95.826776 -133.812799 
L 95.535821 -134.663141 
L 95.236943 -135.513484 
L 94.93675 -136.363827 
L 94.642651 -137.214169 
L 94.362769 -138.064512 
L 94.105736 -138.914854 
L 93.880352 -139.765197 
L 93.695122 -140.61554 
L 93.557698 -141.465882 
L 93.474298 -142.316225 
L 93.449178 -143.166567 
L 93.484228 -144.01691 
L 93.578762 -144.867252 
L 93.729529 -145.717595 
L 93.93094 -146.567938 
L 94.175476 -147.41828 
L 94.454225 -148.268623 
L 94.757476 -149.118965 
L 95.075297 -149.969308 
L 95.398073 -150.819651 
L 95.716942 -151.669993 
L 96.024137 -152.520336 
L 96.313224 -153.370678 
L 96.579236 -154.221021 
L 96.818728 -155.071363 
L 97.029737 -155.921706 
L 97.211682 -156.772049 
L 97.365194 -157.622391 
L 97.4919 -158.472734 
L 97.594171 -159.323076 
L 97.674871 -160.173419 
L 97.7371 -161.023762 
L 97.783978 -161.874104 
L 97.893745 -161.874104 
L 97.893745 -161.874104 
L 97.893745 -161.023762 
L 97.893745 -160.173419 
L 97.893745 -159.323076 
L 97.893745 -158.472734 
L 97.893745 -157.622391 
L 97.893745 -156.772049 
L 97.893745 -155.921706 
L 97.893745 -155.071363 
L 97.893745 -154.221021 
L 97.893745 -153.370678 
L 97.893745 -152.520336 
L 97.893745 -151.669993 
L 97.893745 -150.819651 
L 97.893745 -149.969308 
L 97.893745 -149.118965 
L 97.893745 -148.268623 
L 97.893745 -147.41828 
L 97.893745 -146.567938 
L 97.893745 -145.717595 
L 97.893745 -144.867252 
L 97.893745 -144.01691 
L 97.893745 -143.166567 
L 97.893745 -142.316225 
L 97.893745 -141.465882 
L 97.893745 -140.61554 
L 97.893745 -139.765197 
L 97.893745 -138.914854 
L 97.893745 -138.064512 
L 97.893745 -137.214169 
L 97.893745 -136.363827 
L 97.893745 -135.513484 
L 97.893745 -134.663141 
L 97.893745 -133.812799 
L 97.893745 -132.962456 
L 97.893745 -132.112114 
L 97.893745 -131.261771 
L 97.893745 -130.411428 
L 97.893745 -129.561086 
L 97.893745 -128.710743 
L 97.893745 -127.860401 
L 97.893745 -127.010058 
L 97.893745 -126.159716 
L 97.893745 -125.309373 
L 97.893745 -124.45903 
L 97.893745 -123.608688 
L 97.893745 -122.758345 
L 97.893745 -121.908003 
L 97.893745 -121.05766 
L 97.893745 -120.207317 
L 97.893745 -119.356975 
L 97.893745 -118.506632 
L 97.893745 -117.65629 
L 97.893745 -116.805947 
L 97.893745 -115.955605 
L 97.893745 -115.105262 
L 97.893745 -114.254919 
L 97.893745 -113.404577 
L 97.893745 -112.554234 
L 97.893745 -111.703892 
L 97.893745 -110.853549 
L 97.893745 -110.003206 
L 97.893745 -109.152864 
L 97.893745 -108.302521 
L 97.893745 -107.452179 
L 97.893745 -106.601836 
L 97.893745 -105.751494 
L 97.893745 -104.901151 
L 97.893745 -104.050808 
L 97.893745 -103.200466 
L 97.893745 -102.350123 
L 97.893745 -101.499781 
L 97.893745 -100.649438 
L 97.893745 -99.799095 
L 97.893745 -98.948753 
L 97.893745 -98.09841 
L 97.893745 -97.248068 
L 97.893745 -96.397725 
L 97.893745 -95.547383 
L 97.893745 -94.69704 
L 97.893745 -93.846697 
L 97.893745 -92.996355 
L 97.893745 -92.146012 
L 97.893745 -91.29567 
L 97.893745 -90.445327 
L 97.893745 -89.594984 
L 97.893745 -88.744642 
L 97.893745 -87.894299 
L 97.893745 -87.043957 
L 97.893745 -86.193614 
L 97.893745 -85.343272 
L 97.893745 -84.492929 
L 97.893745 -83.642586 
L 97.893745 -82.792244 
L 97.893745 -81.941901 
L 97.893745 -81.091559 
L 97.893745 -80.241216 
L 97.893745 -79.390873 
L 97.893745 -78.540531 
L 97.893745 -77.690188 
z
" style="stroke: #4c4c4c; stroke-width: 1.5"/>
    </defs>
    <g clip-path="url(#p1fd6eb0096)">
     <use xlink:href="#m2030f36bf7" x="0" y="351.126562" style="fill: #5875a4; stroke: #4c4c4c; stroke-width: 1.5"/>
    </g>
   </g>
   <g id="patch_4">
    <path d="M 97.893745 269.287916 
L 97.893745 269.287916 
L 97.893745 269.287916 
L 97.893745 269.287916 
z
" clip-path="url(#p1fd6eb0096)" style="fill: #cc8963; stroke: #4c4c4c; stroke-width: 0.75; stroke-linejoin: miter"/>
   </g>
   <g id="PolyCollection_2">
    <defs>
     <path id="mc115da9610" d="M 98.259709 -66.218133 
L 97.893745 -66.218133 
L 97.893745 -67.787167 
L 97.893745 -69.356201 
L 97.893745 -70.925235 
L 97.893745 -72.494268 
L 97.893745 -74.063302 
L 97.893745 -75.632336 
L 97.893745 -77.20137 
L 97.893745 -78.770404 
L 97.893745 -80.339438 
L 97.893745 -81.908471 
L 97.893745 -83.477505 
L 97.893745 -85.046539 
L 97.893745 -86.615573 
L 97.893745 -88.184607 
L 97.893745 -89.753641 
L 97.893745 -91.322674 
L 97.893745 -92.891708 
L 97.893745 -94.460742 
L 97.893745 -96.029776 
L 97.893745 -97.59881 
L 97.893745 -99.167844 
L 97.893745 -100.736877 
L 97.893745 -102.305911 
L 97.893745 -103.874945 
L 97.893745 -105.443979 
L 97.893745 -107.013013 
L 97.893745 -108.582046 
L 97.893745 -110.15108 
L 97.893745 -111.720114 
L 97.893745 -113.289148 
L 97.893745 -114.858182 
L 97.893745 -116.427216 
L 97.893745 -117.996249 
L 97.893745 -119.565283 
L 97.893745 -121.134317 
L 97.893745 -122.703351 
L 97.893745 -124.272385 
L 97.893745 -125.841419 
L 97.893745 -127.410452 
L 97.893745 -128.979486 
L 97.893745 -130.54852 
L 97.893745 -132.117554 
L 97.893745 -133.686588 
L 97.893745 -135.255622 
L 97.893745 -136.824655 
L 97.893745 -138.393689 
L 97.893745 -139.962723 
L 97.893745 -141.531757 
L 97.893745 -143.100791 
L 97.893745 -144.669825 
L 97.893745 -146.238858 
L 97.893745 -147.807892 
L 97.893745 -149.376926 
L 97.893745 -150.94596 
L 97.893745 -152.514994 
L 97.893745 -154.084028 
L 97.893745 -155.653061 
L 97.893745 -157.222095 
L 97.893745 -158.791129 
L 97.893745 -160.360163 
L 97.893745 -161.929197 
L 97.893745 -163.498231 
L 97.893745 -165.067264 
L 97.893745 -166.636298 
L 97.893745 -168.205332 
L 97.893745 -169.774366 
L 97.893745 -171.3434 
L 97.893745 -172.912433 
L 97.893745 -174.481467 
L 97.893745 -176.050501 
L 97.893745 -177.619535 
L 97.893745 -179.188569 
L 97.893745 -180.757603 
L 97.893745 -182.326636 
L 97.893745 -183.89567 
L 97.893745 -185.464704 
L 97.893745 -187.033738 
L 97.893745 -188.602772 
L 97.893745 -190.171806 
L 97.893745 -191.740839 
L 97.893745 -193.309873 
L 97.893745 -194.878907 
L 97.893745 -196.447941 
L 97.893745 -198.016975 
L 97.893745 -199.586009 
L 97.893745 -201.155042 
L 97.893745 -202.724076 
L 97.893745 -204.29311 
L 97.893745 -205.862144 
L 97.893745 -207.431178 
L 97.893745 -209.000212 
L 97.893745 -210.569245 
L 97.893745 -212.138279 
L 97.893745 -213.707313 
L 97.893745 -215.276347 
L 97.893745 -216.845381 
L 97.893745 -218.414415 
L 97.893745 -219.983448 
L 97.893745 -221.552482 
L 97.93928 -221.552482 
L 97.93928 -221.552482 
L 97.961988 -219.983448 
L 97.992084 -218.414415 
L 98.030002 -216.845381 
L 98.075284 -215.276347 
L 98.126323 -213.707313 
L 98.180275 -212.138279 
L 98.233203 -210.569245 
L 98.280502 -209.000212 
L 98.317544 -207.431178 
L 98.340442 -205.862144 
L 98.346758 -204.29311 
L 98.335995 -202.724076 
L 98.309754 -201.155042 
L 98.271498 -199.586009 
L 98.226009 -198.016975 
L 98.178642 -196.447941 
L 98.134551 -194.878907 
L 98.098021 -193.309873 
L 98.072012 -191.740839 
L 98.05794 -190.171806 
L 98.055697 -188.602772 
L 98.063864 -187.033738 
L 98.080089 -185.464704 
L 98.101581 -183.89567 
L 98.125688 -182.326636 
L 98.150486 -180.757603 
L 98.175306 -179.188569 
L 98.201105 -177.619535 
L 98.230608 -176.050501 
L 98.268163 -174.481467 
L 98.319343 -172.912433 
L 98.390327 -171.3434 
L 98.487185 -169.774366 
L 98.615141 -168.205332 
L 98.777899 -166.636298 
L 98.97709 -165.067264 
L 99.211846 -163.498231 
L 99.478531 -161.929197 
L 99.770642 -160.360163 
L 100.078921 -158.791129 
L 100.391713 -157.222095 
L 100.695613 -155.653061 
L 100.976407 -154.084028 
L 101.220288 -152.514994 
L 101.415278 -150.94596 
L 101.552702 -149.376926 
L 101.628549 -147.807892 
L 101.644459 -146.238858 
L 101.608105 -144.669825 
L 101.53277 -143.100791 
L 101.436044 -141.531757 
L 101.337754 -139.962723 
L 101.257407 -138.393689 
L 101.211579 -136.824655 
L 101.211748 -135.255622 
L 101.262978 -133.686588 
L 101.363708 -132.117554 
L 101.506663 -130.54852 
L 101.680701 -128.979486 
L 101.873231 -127.410452 
L 102.072827 -125.841419 
L 102.271728 -124.272385 
L 102.468029 -122.703351 
L 102.667506 -121.134317 
L 102.88506 -119.565283 
L 103.145673 -117.996249 
L 103.484622 -116.427216 
L 103.946503 -114.858182 
L 104.582521 -113.289148 
L 105.445621 -111.720114 
L 106.583368 -110.15108 
L 108.028994 -108.582046 
L 109.791691 -107.013013 
L 111.84773 -105.443979 
L 114.13434 -103.874945 
L 116.548184 -102.305911 
L 118.949826 -100.736877 
L 121.174618 -99.167844 
L 123.049295 -97.59881 
L 124.412237 -96.029776 
L 125.13434 -94.460742 
L 125.136894 -92.891708 
L 124.403105 -91.322674 
L 122.980912 -89.753641 
L 120.976432 -88.184607 
L 118.539244 -86.615573 
L 115.842353 -85.046539 
L 113.060624 -83.477505 
L 110.35146 -81.908471 
L 107.840641 -80.339438 
L 105.614816 -78.770404 
L 103.720604 -77.20137 
L 102.169041 -75.632336 
L 100.943406 -74.063302 
L 100.008368 -72.494268 
L 99.318728 -70.925235 
L 98.826647 -69.356201 
L 98.486837 -67.787167 
L 98.259709 -66.218133 
z
" style="stroke: #4c4c4c; stroke-width: 1.5"/>
    </defs>
    <g clip-path="url(#p1fd6eb0096)">
     <use xlink:href="#mc115da9610" x="0" y="351.126562" style="fill: #cc8963; stroke: #4c4c4c; stroke-width: 1.5"/>
    </g>
   </g>
   <g id="PolyCollection_3">
    <defs>
     <path id="m85ffbf74c8" d="M 205.562486 -75.841757 
L 202.828923 -75.841757 
L 201.741585 -76.664993 
L 200.34183 -77.488228 
L 198.588701 -78.311463 
L 196.453583 -79.134698 
L 193.926674 -79.957933 
L 191.022975 -80.781168 
L 187.78681 -81.604403 
L 184.293884 -82.427638 
L 180.650095 -83.250873 
L 176.986736 -84.074108 
L 173.452207 -84.897343 
L 170.200979 -85.720579 
L 167.381012 -86.543814 
L 165.121169 -87.367049 
L 163.520204 -88.190284 
L 162.638722 -89.013519 
L 162.49499 -89.836754 
L 163.064974 -90.659989 
L 164.2863 -91.483224 
L 166.065374 -92.306459 
L 168.28656 -93.129694 
L 170.822217 -93.952929 
L 173.542462 -94.776165 
L 176.323801 -95.5994 
L 179.056032 -96.422635 
L 181.647139 -97.24587 
L 184.026175 -98.069105 
L 186.144262 -98.89234 
L 187.973998 -99.715575 
L 189.507576 -100.53881 
L 190.753952 -101.362045 
L 191.735387 -102.18528 
L 192.483683 -103.008515 
L 193.036395 -103.831751 
L 193.433297 -104.654986 
L 193.713305 -105.478221 
L 193.912039 -106.301456 
L 194.060123 -107.124691 
L 194.182237 -107.947926 
L 194.29689 -108.771161 
L 194.416805 -109.594396 
L 194.549752 -110.417631 
L 194.699665 -111.240866 
L 194.867853 -112.064101 
L 195.054142 -112.887337 
L 195.257822 -113.710572 
L 195.478306 -114.533807 
L 195.715466 -115.357042 
L 195.969666 -116.180277 
L 196.241542 -117.003512 
L 196.531617 -117.826747 
L 196.839864 -118.649982 
L 197.165318 -119.473217 
L 197.505836 -120.296452 
L 197.858059 -121.119687 
L 198.217593 -121.942922 
L 198.579384 -122.766158 
L 198.938217 -123.589393 
L 199.289248 -124.412628 
L 199.628459 -125.235863 
L 199.952952 -126.059098 
L 200.261036 -126.882333 
L 200.552089 -127.705568 
L 200.82624 -128.528803 
L 201.083943 -129.352038 
L 201.325551 -130.175273 
L 201.550965 -130.998508 
L 201.759451 -131.821744 
L 201.949651 -132.644979 
L 202.119783 -133.468214 
L 202.267988 -134.291449 
L 202.392769 -135.114684 
L 202.493427 -135.937919 
L 202.570436 -136.761154 
L 202.625697 -137.584389 
L 202.662628 -138.407624 
L 202.686086 -139.230859 
L 202.702119 -140.054094 
L 202.717577 -140.87733 
L 202.739604 -141.700565 
L 202.775069 -142.5238 
L 202.829981 -143.347035 
L 202.908953 -144.17027 
L 203.014765 -144.993505 
L 203.148092 -145.81674 
L 203.307427 -146.639975 
L 203.489216 -147.46321 
L 203.688207 -148.286445 
L 203.897949 -149.10968 
L 204.111407 -149.932916 
L 204.321596 -150.756151 
L 204.522166 -151.579386 
L 204.707861 -152.402621 
L 204.874831 -153.225856 
L 205.020748 -154.049091 
L 205.144761 -154.872326 
L 205.24731 -155.695561 
L 205.329854 -156.518796 
L 205.394549 -157.342031 
L 205.562486 -157.342031 
L 205.562486 -157.342031 
L 205.562486 -156.518796 
L 205.562486 -155.695561 
L 205.562486 -154.872326 
L 205.562486 -154.049091 
L 205.562486 -153.225856 
L 205.562486 -152.402621 
L 205.562486 -151.579386 
L 205.562486 -150.756151 
L 205.562486 -149.932916 
L 205.562486 -149.10968 
L 205.562486 -148.286445 
L 205.562486 -147.46321 
L 205.562486 -146.639975 
L 205.562486 -145.81674 
L 205.562486 -144.993505 
L 205.562486 -144.17027 
L 205.562486 -143.347035 
L 205.562486 -142.5238 
L 205.562486 -141.700565 
L 205.562486 -140.87733 
L 205.562486 -140.054094 
L 205.562486 -139.230859 
L 205.562486 -138.407624 
L 205.562486 -137.584389 
L 205.562486 -136.761154 
L 205.562486 -135.937919 
L 205.562486 -135.114684 
L 205.562486 -134.291449 
L 205.562486 -133.468214 
L 205.562486 -132.644979 
L 205.562486 -131.821744 
L 205.562486 -130.998508 
L 205.562486 -130.175273 
L 205.562486 -129.352038 
L 205.562486 -128.528803 
L 205.562486 -127.705568 
L 205.562486 -126.882333 
L 205.562486 -126.059098 
L 205.562486 -125.235863 
L 205.562486 -124.412628 
L 205.562486 -123.589393 
L 205.562486 -122.766158 
L 205.562486 -121.942922 
L 205.562486 -121.119687 
L 205.562486 -120.296452 
L 205.562486 -119.473217 
L 205.562486 -118.649982 
L 205.562486 -117.826747 
L 205.562486 -117.003512 
L 205.562486 -116.180277 
L 205.562486 -115.357042 
L 205.562486 -114.533807 
L 205.562486 -113.710572 
L 205.562486 -112.887337 
L 205.562486 -112.064101 
L 205.562486 -111.240866 
L 205.562486 -110.417631 
L 205.562486 -109.594396 
L 205.562486 -108.771161 
L 205.562486 -107.947926 
L 205.562486 -107.124691 
L 205.562486 -106.301456 
L 205.562486 -105.478221 
L 205.562486 -104.654986 
L 205.562486 -103.831751 
L 205.562486 -103.008515 
L 205.562486 -102.18528 
L 205.562486 -101.362045 
L 205.562486 -100.53881 
L 205.562486 -99.715575 
L 205.562486 -98.89234 
L 205.562486 -98.069105 
L 205.562486 -97.24587 
L 205.562486 -96.422635 
L 205.562486 -95.5994 
L 205.562486 -94.776165 
L 205.562486 -93.952929 
L 205.562486 -93.129694 
L 205.562486 -92.306459 
L 205.562486 -91.483224 
L 205.562486 -90.659989 
L 205.562486 -89.836754 
L 205.562486 -89.013519 
L 205.562486 -88.190284 
L 205.562486 -87.367049 
L 205.562486 -86.543814 
L 205.562486 -85.720579 
L 205.562486 -84.897343 
L 205.562486 -84.074108 
L 205.562486 -83.250873 
L 205.562486 -82.427638 
L 205.562486 -81.604403 
L 205.562486 -80.781168 
L 205.562486 -79.957933 
L 205.562486 -79.134698 
L 205.562486 -78.311463 
L 205.562486 -77.488228 
L 205.562486 -76.664993 
L 205.562486 -75.841757 
z
" style="stroke: #4c4c4c; stroke-width: 1.5"/>
    </defs>
    <g clip-path="url(#p1fd6eb0096)">
     <use xlink:href="#m85ffbf74c8" x="0" y="351.126562" style="fill: #5875a4; stroke: #4c4c4c; stroke-width: 1.5"/>
    </g>
   </g>
   <g id="PolyCollection_4">
    <defs>
     <path id="m0dc7a6eec7" d="M 205.966149 -51.129545 
L 205.562486 -51.129545 
L 205.562486 -53.815438 
L 205.562486 -56.501331 
L 205.562486 -59.187225 
L 205.562486 -61.873118 
L 205.562486 -64.559011 
L 205.562486 -67.244904 
L 205.562486 -69.930797 
L 205.562486 -72.61669 
L 205.562486 -75.302583 
L 205.562486 -77.988476 
L 205.562486 -80.674369 
L 205.562486 -83.360262 
L 205.562486 -86.046155 
L 205.562486 -88.732048 
L 205.562486 -91.417941 
L 205.562486 -94.103834 
L 205.562486 -96.789727 
L 205.562486 -99.47562 
L 205.562486 -102.161513 
L 205.562486 -104.847406 
L 205.562486 -107.533299 
L 205.562486 -110.219192 
L 205.562486 -112.905085 
L 205.562486 -115.590978 
L 205.562486 -118.276871 
L 205.562486 -120.962764 
L 205.562486 -123.648657 
L 205.562486 -126.33455 
L 205.562486 -129.020443 
L 205.562486 -131.706336 
L 205.562486 -134.392229 
L 205.562486 -137.078122 
L 205.562486 -139.764015 
L 205.562486 -142.449908 
L 205.562486 -145.135801 
L 205.562486 -147.821694 
L 205.562486 -150.507587 
L 205.562486 -153.19348 
L 205.562486 -155.879373 
L 205.562486 -158.565266 
L 205.562486 -161.251159 
L 205.562486 -163.937052 
L 205.562486 -166.622945 
L 205.562486 -169.308838 
L 205.562486 -171.994731 
L 205.562486 -174.680624 
L 205.562486 -177.366517 
L 205.562486 -180.05241 
L 205.562486 -182.738303 
L 205.562486 -185.424197 
L 205.562486 -188.11009 
L 205.562486 -190.795983 
L 205.562486 -193.481876 
L 205.562486 -196.167769 
L 205.562486 -198.853662 
L 205.562486 -201.539555 
L 205.562486 -204.225448 
L 205.562486 -206.911341 
L 205.562486 -209.597234 
L 205.562486 -212.283127 
L 205.562486 -214.96902 
L 205.562486 -217.654913 
L 205.562486 -220.340806 
L 205.562486 -223.026699 
L 205.562486 -225.712592 
L 205.562486 -228.398485 
L 205.562486 -231.084378 
L 205.562486 -233.770271 
L 205.562486 -236.456164 
L 205.562486 -239.142057 
L 205.562486 -241.82795 
L 205.562486 -244.513843 
L 205.562486 -247.199736 
L 205.562486 -249.885629 
L 205.562486 -252.571522 
L 205.562486 -255.257415 
L 205.562486 -257.943308 
L 205.562486 -260.629201 
L 205.562486 -263.315094 
L 205.562486 -266.000987 
L 205.562486 -268.68688 
L 205.562486 -271.372773 
L 205.562486 -274.058666 
L 205.562486 -276.744559 
L 205.562486 -279.430452 
L 205.562486 -282.116345 
L 205.562486 -284.802238 
L 205.562486 -287.488131 
L 205.562486 -290.174024 
L 205.562486 -292.859917 
L 205.562486 -295.54581 
L 205.562486 -298.231703 
L 205.562486 -300.917596 
L 205.562486 -303.603489 
L 205.562486 -306.289382 
L 205.562486 -308.975275 
L 205.562486 -311.661169 
L 205.562486 -314.347062 
L 205.562486 -317.032955 
L 205.605376 -317.032955 
L 205.605376 -317.032955 
L 205.62439 -314.347062 
L 205.649434 -311.661169 
L 205.681382 -308.975275 
L 205.720848 -306.289382 
L 205.768052 -303.603489 
L 205.822704 -300.917596 
L 205.883927 -298.231703 
L 205.950252 -295.54581 
L 206.019676 -292.859917 
L 206.089791 -290.174024 
L 206.157964 -287.488131 
L 206.221549 -284.802238 
L 206.278081 -282.116345 
L 206.325459 -279.430452 
L 206.362069 -276.744559 
L 206.386861 -274.058666 
L 206.399383 -271.372773 
L 206.399779 -268.68688 
L 206.388769 -266.000987 
L 206.367612 -263.315094 
L 206.338056 -260.629201 
L 206.302257 -257.943308 
L 206.262667 -255.257415 
L 206.221885 -252.571522 
L 206.182463 -249.885629 
L 206.146712 -247.199736 
L 206.116519 -244.513843 
L 206.093222 -241.82795 
L 206.077574 -239.142057 
L 206.06981 -236.456164 
L 206.0698 -233.770271 
L 206.077273 -231.084378 
L 206.092031 -228.398485 
L 206.114134 -225.712592 
L 206.143963 -223.026699 
L 206.182177 -220.340806 
L 206.229538 -217.654913 
L 206.286665 -214.96902 
L 206.353774 -212.283127 
L 206.430481 -209.597234 
L 206.515737 -206.911341 
L 206.607936 -204.225448 
L 206.705187 -201.539555 
L 206.805707 -198.853662 
L 206.908249 -196.167769 
L 207.012457 -193.481876 
L 207.119056 -190.795983 
L 207.229804 -188.11009 
L 207.347192 -185.424197 
L 207.473946 -182.738303 
L 207.612426 -180.05241 
L 207.764059 -177.366517 
L 207.928951 -174.680624 
L 208.105788 -171.994731 
L 208.292082 -169.308838 
L 208.484725 -166.622945 
L 208.680749 -163.937052 
L 208.878139 -161.251159 
L 209.076481 -158.565266 
L 209.277326 -155.879373 
L 209.484143 -153.19348 
L 209.701916 -150.507587 
L 209.93648 -147.821694 
L 210.193811 -145.135801 
L 210.479487 -142.449908 
L 210.798504 -139.764015 
L 211.155486 -137.078122 
L 211.555222 -134.392229 
L 212.003269 -131.706336 
L 212.506284 -129.020443 
L 213.071741 -126.33455 
L 213.706745 -123.648657 
L 214.415896 -120.962764 
L 215.198377 -118.276871 
L 216.044752 -115.590978 
L 216.934159 -112.905085 
L 217.832684 -110.219192 
L 218.69365 -107.533299 
L 219.460249 -104.847406 
L 220.070554 -102.161513 
L 220.464394 -99.47562 
L 220.591122 -96.789727 
L 220.416963 -94.103834 
L 219.930589 -91.417941 
L 219.145791 -88.732048 
L 218.100676 -86.046155 
L 216.853449 -83.360262 
L 215.475524 -80.674369 
L 214.043199 -77.988476 
L 212.629316 -75.302583 
L 211.296234 -72.61669 
L 210.091049 -69.930797 
L 209.043469 -67.244904 
L 208.166214 -64.559011 
L 207.457407 -61.873118 
L 206.904176 -59.187225 
L 206.486659 -56.501331 
L 206.181754 -53.815438 
L 205.966149 -51.129545 
z
" style="stroke: #4c4c4c; stroke-width: 1.5"/>
    </defs>
    <g clip-path="url(#p1fd6eb0096)">
     <use xlink:href="#m0dc7a6eec7" x="0" y="351.126562" style="fill: #cc8963; stroke: #4c4c4c; stroke-width: 1.5"/>
    </g>
   </g>
   <g id="PolyCollection_5">
    <defs>
     <path id="m5fe74165fc" d="M 313.231226 -77.430649 
L 311.882399 -77.430649 
L 311.210066 -78.455339 
L 310.282232 -79.480029 
L 309.040577 -80.504719 
L 307.429786 -81.529409 
L 305.404895 -82.554099 
L 302.939758 -83.578789 
L 300.035595 -84.603478 
L 296.728248 -85.628168 
L 293.092664 -86.652858 
L 289.243297 -87.677548 
L 285.329567 -88.702238 
L 281.526293 -89.726928 
L 278.01982 -90.751618 
L 274.991407 -91.776308 
L 272.600006 -92.800997 
L 270.966811 -93.825687 
L 270.16373 -94.850377 
L 270.207358 -95.875067 
L 271.05914 -96.899757 
L 272.631474 -97.924447 
L 274.798582 -98.949137 
L 277.410405 -99.973826 
L 280.307481 -100.998516 
L 283.334859 -102.023206 
L 286.35354 -103.047896 
L 289.248492 -104.072586 
L 291.932954 -105.097276 
L 294.349308 -106.121966 
L 296.467162 -107.146656 
L 298.279535 -108.171345 
L 299.798003 -109.196035 
L 301.047552 -110.220725 
L 302.061719 -111.245415 
L 302.878342 -112.270105 
L 303.536109 -113.294795 
L 304.071934 -114.319485 
L 304.519081 -115.344174 
L 304.905957 -116.368864 
L 305.255412 -117.393554 
L 305.58445 -118.418244 
L 305.904252 -119.442934 
L 306.22045 -120.467624 
L 306.533641 -121.492314 
L 306.840136 -122.517004 
L 307.132943 -123.541693 
L 307.402954 -124.566383 
L 307.640257 -125.591073 
L 307.835472 -126.615763 
L 307.980965 -127.640453 
L 308.071804 -128.665143 
L 308.106379 -129.689833 
L 308.086634 -130.714523 
L 308.017957 -131.739212 
L 307.908801 -132.763902 
L 307.770135 -133.788592 
L 307.614819 -134.813282 
L 307.456935 -135.837972 
L 307.311101 -136.862662 
L 307.19172 -137.887352 
L 307.112169 -138.912041 
L 307.083921 -139.936731 
L 307.115675 -140.961421 
L 307.212595 -141.986111 
L 307.375807 -143.010801 
L 307.602269 -144.035491 
L 307.88508 -145.060181 
L 308.214237 -146.084871 
L 308.577697 -147.10956 
L 308.96262 -148.13425 
L 309.356544 -149.15894 
L 309.748346 -150.18363 
L 310.128837 -151.20832 
L 310.490968 -152.23301 
L 310.829699 -153.2577 
L 311.14164 -154.282389 
L 311.424617 -155.307079 
L 311.677309 -156.331769 
L 311.899025 -157.356459 
L 312.08967 -158.381149 
L 312.249847 -159.405839 
L 312.38103 -160.430529 
L 312.485681 -161.455219 
L 312.567267 -162.479908 
L 312.630086 -163.504598 
L 312.678944 -164.529288 
L 312.718706 -165.553978 
L 312.753816 -166.578668 
L 312.787875 -167.603358 
L 312.823354 -168.628048 
L 312.861484 -169.652738 
L 312.90234 -170.677427 
L 312.945078 -171.702117 
L 312.988265 -172.726807 
L 313.030236 -173.751497 
L 313.069416 -174.776187 
L 313.104553 -175.800877 
L 313.134849 -176.825567 
L 313.15999 -177.850256 
L 313.180086 -178.874946 
L 313.231226 -178.874946 
L 313.231226 -178.874946 
L 313.231226 -177.850256 
L 313.231226 -176.825567 
L 313.231226 -175.800877 
L 313.231226 -174.776187 
L 313.231226 -173.751497 
L 313.231226 -172.726807 
L 313.231226 -171.702117 
L 313.231226 -170.677427 
L 313.231226 -169.652738 
L 313.231226 -168.628048 
L 313.231226 -167.603358 
L 313.231226 -166.578668 
L 313.231226 -165.553978 
L 313.231226 -164.529288 
L 313.231226 -163.504598 
L 313.231226 -162.479908 
L 313.231226 -161.455219 
L 313.231226 -160.430529 
L 313.231226 -159.405839 
L 313.231226 -158.381149 
L 313.231226 -157.356459 
L 313.231226 -156.331769 
L 313.231226 -155.307079 
L 313.231226 -154.282389 
L 313.231226 -153.2577 
L 313.231226 -152.23301 
L 313.231226 -151.20832 
L 313.231226 -150.18363 
L 313.231226 -149.15894 
L 313.231226 -148.13425 
L 313.231226 -147.10956 
L 313.231226 -146.084871 
L 313.231226 -145.060181 
L 313.231226 -144.035491 
L 313.231226 -143.010801 
L 313.231226 -141.986111 
L 313.231226 -140.961421 
L 313.231226 -139.936731 
L 313.231226 -138.912041 
L 313.231226 -137.887352 
L 313.231226 -136.862662 
L 313.231226 -135.837972 
L 313.231226 -134.813282 
L 313.231226 -133.788592 
L 313.231226 -132.763902 
L 313.231226 -131.739212 
L 313.231226 -130.714523 
L 313.231226 -129.689833 
L 313.231226 -128.665143 
L 313.231226 -127.640453 
L 313.231226 -126.615763 
L 313.231226 -125.591073 
L 313.231226 -124.566383 
L 313.231226 -123.541693 
L 313.231226 -122.517004 
L 313.231226 -121.492314 
L 313.231226 -120.467624 
L 313.231226 -119.442934 
L 313.231226 -118.418244 
L 313.231226 -117.393554 
L 313.231226 -116.368864 
L 313.231226 -115.344174 
L 313.231226 -114.319485 
L 313.231226 -113.294795 
L 313.231226 -112.270105 
L 313.231226 -111.245415 
L 313.231226 -110.220725 
L 313.231226 -109.196035 
L 313.231226 -108.171345 
L 313.231226 -107.146656 
L 313.231226 -106.121966 
L 313.231226 -105.097276 
L 313.231226 -104.072586 
L 313.231226 -103.047896 
L 313.231226 -102.023206 
L 313.231226 -100.998516 
L 313.231226 -99.973826 
L 313.231226 -98.949137 
L 313.231226 -97.924447 
L 313.231226 -96.899757 
L 313.231226 -95.875067 
L 313.231226 -94.850377 
L 313.231226 -93.825687 
L 313.231226 -92.800997 
L 313.231226 -91.776308 
L 313.231226 -90.751618 
L 313.231226 -89.726928 
L 313.231226 -88.702238 
L 313.231226 -87.677548 
L 313.231226 -86.652858 
L 313.231226 -85.628168 
L 313.231226 -84.603478 
L 313.231226 -83.578789 
L 313.231226 -82.554099 
L 313.231226 -81.529409 
L 313.231226 -80.504719 
L 313.231226 -79.480029 
L 313.231226 -78.455339 
L 313.231226 -77.430649 
z
" style="stroke: #4c4c4c; stroke-width: 1.5"/>
    </defs>
    <g clip-path="url(#p1fd6eb0096)">
     <use xlink:href="#m5fe74165fc" x="0" y="351.126562" style="fill: #5875a4; stroke: #4c4c4c; stroke-width: 1.5"/>
    </g>
   </g>
   <g id="PolyCollection_6">
    <defs>
     <path id="m951d0332da" d="M 313.429218 -68.577001 
L 313.231226 -68.577001 
L 313.231226 -69.7137 
L 313.231226 -70.850399 
L 313.231226 -71.987097 
L 313.231226 -73.123796 
L 313.231226 -74.260494 
L 313.231226 -75.397193 
L 313.231226 -76.533892 
L 313.231226 -77.67059 
L 313.231226 -78.807289 
L 313.231226 -79.943988 
L 313.231226 -81.080686 
L 313.231226 -82.217385 
L 313.231226 -83.354084 
L 313.231226 -84.490782 
L 313.231226 -85.627481 
L 313.231226 -86.764179 
L 313.231226 -87.900878 
L 313.231226 -89.037577 
L 313.231226 -90.174275 
L 313.231226 -91.310974 
L 313.231226 -92.447673 
L 313.231226 -93.584371 
L 313.231226 -94.72107 
L 313.231226 -95.857768 
L 313.231226 -96.994467 
L 313.231226 -98.131166 
L 313.231226 -99.267864 
L 313.231226 -100.404563 
L 313.231226 -101.541262 
L 313.231226 -102.67796 
L 313.231226 -103.814659 
L 313.231226 -104.951357 
L 313.231226 -106.088056 
L 313.231226 -107.224755 
L 313.231226 -108.361453 
L 313.231226 -109.498152 
L 313.231226 -110.634851 
L 313.231226 -111.771549 
L 313.231226 -112.908248 
L 313.231226 -114.044947 
L 313.231226 -115.181645 
L 313.231226 -116.318344 
L 313.231226 -117.455042 
L 313.231226 -118.591741 
L 313.231226 -119.72844 
L 313.231226 -120.865138 
L 313.231226 -122.001837 
L 313.231226 -123.138536 
L 313.231226 -124.275234 
L 313.231226 -125.411933 
L 313.231226 -126.548631 
L 313.231226 -127.68533 
L 313.231226 -128.822029 
L 313.231226 -129.958727 
L 313.231226 -131.095426 
L 313.231226 -132.232125 
L 313.231226 -133.368823 
L 313.231226 -134.505522 
L 313.231226 -135.64222 
L 313.231226 -136.778919 
L 313.231226 -137.915618 
L 313.231226 -139.052316 
L 313.231226 -140.189015 
L 313.231226 -141.325714 
L 313.231226 -142.462412 
L 313.231226 -143.599111 
L 313.231226 -144.73581 
L 313.231226 -145.872508 
L 313.231226 -147.009207 
L 313.231226 -148.145905 
L 313.231226 -149.282604 
L 313.231226 -150.419303 
L 313.231226 -151.556001 
L 313.231226 -152.6927 
L 313.231226 -153.829399 
L 313.231226 -154.966097 
L 313.231226 -156.102796 
L 313.231226 -157.239494 
L 313.231226 -158.376193 
L 313.231226 -159.512892 
L 313.231226 -160.64959 
L 313.231226 -161.786289 
L 313.231226 -162.922988 
L 313.231226 -164.059686 
L 313.231226 -165.196385 
L 313.231226 -166.333084 
L 313.231226 -167.469782 
L 313.231226 -168.606481 
L 313.231226 -169.743179 
L 313.231226 -170.879878 
L 313.231226 -172.016577 
L 313.231226 -173.153275 
L 313.231226 -174.289974 
L 313.231226 -175.426673 
L 313.231226 -176.563371 
L 313.231226 -177.70007 
L 313.231226 -178.836768 
L 313.231226 -179.973467 
L 313.231226 -181.110166 
L 313.296467 -181.110166 
L 313.296467 -181.110166 
L 313.324815 -179.973467 
L 313.362097 -178.836768 
L 313.409735 -177.70007 
L 313.468917 -176.563371 
L 313.540474 -175.426673 
L 313.624804 -174.289974 
L 313.721862 -173.153275 
L 313.831252 -172.016577 
L 313.952409 -170.879878 
L 314.084864 -169.743179 
L 314.228542 -168.606481 
L 314.384057 -167.469782 
L 314.552929 -166.333084 
L 314.737682 -165.196385 
L 314.941789 -164.059686 
L 315.169439 -162.922988 
L 315.425154 -161.786289 
L 315.713277 -160.64959 
L 316.037387 -159.512892 
L 316.39969 -158.376193 
L 316.800474 -157.239494 
L 317.237671 -156.102796 
L 317.706615 -154.966097 
L 318.200041 -153.829399 
L 318.708358 -152.6927 
L 319.220214 -151.556001 
L 319.723305 -150.419303 
L 320.205359 -149.282604 
L 320.655171 -148.145905 
L 321.063553 -147.009207 
L 321.424053 -145.872508 
L 321.733343 -144.73581 
L 321.991213 -143.599111 
L 322.200207 -142.462412 
L 322.364997 -141.325714 
L 322.491655 -140.189015 
L 322.587011 -139.052316 
L 322.658236 -137.915618 
L 322.712722 -136.778919 
L 322.758254 -135.64222 
L 322.803331 -134.505522 
L 322.857452 -133.368823 
L 322.931187 -132.232125 
L 323.03588 -131.095426 
L 323.182969 -129.958727 
L 323.383008 -128.822029 
L 323.644613 -127.68533 
L 323.973582 -126.548631 
L 324.372422 -125.411933 
L 324.840454 -124.275234 
L 325.374489 -123.138536 
L 325.969948 -122.001837 
L 326.622172 -120.865138 
L 327.327604 -119.72844 
L 328.084525 -118.591741 
L 328.893152 -117.455042 
L 329.75496 -116.318344 
L 330.671337 -115.181645 
L 331.641735 -114.044947 
L 332.661626 -112.908248 
L 333.72061 -111.771549 
L 334.800987 -110.634851 
L 335.877071 -109.498152 
L 336.915409 -108.361453 
L 337.875977 -107.224755 
L 338.714305 -106.088056 
L 339.384373 -104.951357 
L 339.842037 -103.814659 
L 340.048658 -102.67796 
L 339.974555 -101.541262 
L 339.601915 -100.404563 
L 338.926805 -99.267864 
L 337.960047 -98.131166 
L 336.726834 -96.994467 
L 335.265128 -95.857768 
L 333.623003 -94.72107 
L 331.855232 -93.584371 
L 330.019455 -92.447673 
L 328.172309 -91.310974 
L 326.365854 -90.174275 
L 324.644604 -89.037577 
L 323.043395 -87.900878 
L 321.586229 -86.764179 
L 320.286165 -85.627481 
L 319.14618 -84.490782 
L 318.160848 -83.354084 
L 317.318553 -82.217385 
L 316.603922 -81.080686 
L 316.00012 -79.943988 
L 315.490749 -78.807289 
L 315.061145 -77.67059 
L 314.69903 -76.533892 
L 314.394597 -75.397193 
L 314.140161 -74.260494 
L 313.929607 -73.123796 
L 313.757797 -71.987097 
L 313.620087 -70.850399 
L 313.512022 -69.7137 
L 313.429218 -68.577001 
z
" style="stroke: #4c4c4c; stroke-width: 1.5"/>
    </defs>
    <g clip-path="url(#p1fd6eb0096)">
     <use xlink:href="#m951d0332da" x="0" y="351.126562" style="fill: #cc8963; stroke: #4c4c4c; stroke-width: 1.5"/>
    </g>
   </g>
   <g id="line2d_9">
    <path d="M 97.893745 269.287916 
L 97.893745 232.210637 
" clip-path="url(#p1fd6eb0096)" style="fill: none; stroke: #4c4c4c; stroke-width: 1.5; stroke-linecap: round"/>
   </g>
   <g id="line2d_10">
    <path d="M 97.893745 260.055008 
L 97.893745 248.633898 
" clip-path="url(#p1fd6eb0096)" style="fill: none; stroke: #4c4c4c; stroke-width: 4.5; stroke-linecap: round"/>
   </g>
   <g id="line2d_11">
    <path d="M 205.562486 269.287916 
L 205.562486 190.362178 
" clip-path="url(#p1fd6eb0096)" style="fill: none; stroke: #4c4c4c; stroke-width: 1.5; stroke-linecap: round"/>
   </g>
   <g id="line2d_12">
    <path d="M 205.562486 261.154414 
L 205.562486 232.423896 
" clip-path="url(#p1fd6eb0096)" style="fill: none; stroke: #4c4c4c; stroke-width: 4.5; stroke-linecap: round"/>
   </g>
   <g id="line2d_13">
    <path d="M 313.231226 269.287916 
L 313.231226 196.262402 
" clip-path="url(#p1fd6eb0096)" style="fill: none; stroke: #4c4c4c; stroke-width: 1.5; stroke-linecap: round"/>
   </g>
   <g id="line2d_14">
    <path d="M 313.231226 255.663329 
L 313.231226 231.51133 
" clip-path="url(#p1fd6eb0096)" style="fill: none; stroke: #4c4c4c; stroke-width: 4.5; stroke-linecap: round"/>
   </g>
   <g id="patch_5">
    <path d="M 44.059375 313.292187 
L 44.059375 20.798437 
" style="fill: none; stroke: #262626; stroke-width: 0.8; stroke-linejoin: miter; stroke-linecap: square"/>
   </g>
   <g id="patch_6">
    <path d="M 44.059375 313.292187 
L 367.065597 313.292187 
" style="fill: none; stroke: #262626; stroke-width: 0.8; stroke-linejoin: miter; stroke-linecap: square"/>
   </g>
   <g id="PathCollection_1">
    <defs>
     <path id="m3d587f3a55" d="M 0 1.5 
C 0.397805 1.5 0.77937 1.341951 1.06066 1.06066 
C 1.341951 0.77937 1.5 0.397805 1.5 0 
C 1.5 -0.397805 1.341951 -0.77937 1.06066 -1.06066 
C 0.77937 -1.341951 0.397805 -1.5 0 -1.5 
C -0.397805 -1.5 -0.77937 -1.341951 -1.06066 -1.06066 
C -1.341951 -0.77937 -1.5 -0.397805 -1.5 0 
C -1.5 0.397805 -1.341951 0.77937 -1.06066 1.06066 
C -0.77937 1.341951 -0.397805 1.5 0 1.5 
z
" style="stroke: #4c4c4c"/>
    </defs>
    <g clip-path="url(#p1fd6eb0096)">
     <use xlink:href="#m3d587f3a55" x="97.893745" y="256.516591" style="fill: #ffffff; stroke: #4c4c4c"/>
    </g>
   </g>
   <g id="PathCollection_2">
    <g clip-path="url(#p1fd6eb0096)">
     <use xlink:href="#m3d587f3a55" x="205.562486" y="256.234186" style="fill: #ffffff; stroke: #4c4c4c"/>
    </g>
   </g>
   <g id="PathCollection_3">
    <g clip-path="url(#p1fd6eb0096)">
     <use xlink:href="#m3d587f3a55" x="313.231226" y="248.641456" style="fill: #ffffff; stroke: #4c4c4c"/>
    </g>
   </g>
   <g id="text_11">
    <!-- Dyn_obs = 5.0 -->
    <g style="fill: #262626" transform="translate(168.926548 14.798437)scale(0.1 -0.1)">
     <defs>
      <path id="DejaVuSans-44" d="M 1259 4147 
L 1259 519 
L 2022 519 
Q 2988 519 3436 956 
Q 3884 1394 3884 2338 
Q 3884 3275 3436 3711 
Q 2988 4147 2022 4147 
L 1259 4147 
z
M 628 4666 
L 1925 4666 
Q 3281 4666 3915 4102 
Q 4550 3538 4550 2338 
Q 4550 1131 3912 565 
Q 3275 0 1925 0 
L 628 0 
L 628 4666 
z
" transform="scale(0.015625)"/>
      <path id="DejaVuSans-79" d="M 2059 -325 
Q 1816 -950 1584 -1140 
Q 1353 -1331 966 -1331 
L 506 -1331 
L 506 -850 
L 844 -850 
Q 1081 -850 1212 -737 
Q 1344 -625 1503 -206 
L 1606 56 
L 191 3500 
L 800 3500 
L 1894 763 
L 2988 3500 
L 3597 3500 
L 2059 -325 
z
" transform="scale(0.015625)"/>
      <path id="DejaVuSans-62" d="M 3116 1747 
Q 3116 2381 2855 2742 
Q 2594 3103 2138 3103 
Q 1681 3103 1420 2742 
Q 1159 2381 1159 1747 
Q 1159 1113 1420 752 
Q 1681 391 2138 391 
Q 2594 391 2855 752 
Q 3116 1113 3116 1747 
z
M 1159 2969 
Q 1341 3281 1617 3432 
Q 1894 3584 2278 3584 
Q 2916 3584 3314 3078 
Q 3713 2572 3713 1747 
Q 3713 922 3314 415 
Q 2916 -91 2278 -91 
Q 1894 -91 1617 61 
Q 1341 213 1159 525 
L 1159 0 
L 581 0 
L 581 4863 
L 1159 4863 
L 1159 2969 
z
" transform="scale(0.015625)"/>
      <path id="DejaVuSans-20" transform="scale(0.015625)"/>
      <path id="DejaVuSans-3d" d="M 678 2906 
L 4684 2906 
L 4684 2381 
L 678 2381 
L 678 2906 
z
M 678 1631 
L 4684 1631 
L 4684 1100 
L 678 1100 
L 678 1631 
z
" transform="scale(0.015625)"/>
     </defs>
     <use xlink:href="#DejaVuSans-44"/>
     <use xlink:href="#DejaVuSans-79" x="77.001953"/>
     <use xlink:href="#DejaVuSans-6e" x="136.181641"/>
     <use xlink:href="#DejaVuSans-5f" x="199.560547"/>
     <use xlink:href="#DejaVuSans-6f" x="249.560547"/>
     <use xlink:href="#DejaVuSans-62" x="310.742188"/>
     <use xlink:href="#DejaVuSans-73" x="374.21875"/>
     <use xlink:href="#DejaVuSans-20" x="426.318359"/>
     <use xlink:href="#DejaVuSans-3d" x="458.105469"/>
     <use xlink:href="#DejaVuSans-20" x="541.894531"/>
     <use xlink:href="#DejaVuSans-35" x="573.681641"/>
     <use xlink:href="#DejaVuSans-2e" x="637.304688"/>
     <use xlink:href="#DejaVuSans-30" x="669.091797"/>
    </g>
   </g>
  </g>
  <g id="axes_2">
   <g id="patch_7">
    <path d="M 381.361584 313.292187 
L 704.367806 313.292187 
L 704.367806 20.798437 
L 381.361584 20.798437 
z
" style="fill: #ffffff"/>
   </g>
   <g id="matplotlib.axis_3">
    <g id="xtick_4">
     <g id="line2d_15">
      <g>
       <use xlink:href="#me273ee6856" x="435.195955" y="313.292187" style="fill: #262626; stroke: #262626; stroke-width: 0.8"/>
      </g>
     </g>
     <g id="text_12">
      <!-- map2 -->
      <g style="fill: #262626" transform="translate(420.906111 327.890625)scale(0.1 -0.1)">
       <use xlink:href="#DejaVuSans-6d"/>
       <use xlink:href="#DejaVuSans-61" x="97.412109"/>
       <use xlink:href="#DejaVuSans-70" x="158.691406"/>
       <use xlink:href="#DejaVuSans-32" x="222.167969"/>
      </g>
     </g>
    </g>
    <g id="xtick_5">
     <g id="line2d_16">
      <g>
       <use xlink:href="#me273ee6856" x="542.864695" y="313.292187" style="fill: #262626; stroke: #262626; stroke-width: 0.8"/>
      </g>
     </g>
     <g id="text_13">
      <!-- map5 -->
      <g style="fill: #262626" transform="translate(528.574851 327.890625)scale(0.1 -0.1)">
       <use xlink:href="#DejaVuSans-6d"/>
       <use xlink:href="#DejaVuSans-61" x="97.412109"/>
       <use xlink:href="#DejaVuSans-70" x="158.691406"/>
       <use xlink:href="#DejaVuSans-35" x="222.167969"/>
      </g>
     </g>
    </g>
    <g id="xtick_6">
     <g id="line2d_17">
      <g>
       <use xlink:href="#me273ee6856" x="650.533436" y="313.292187" style="fill: #262626; stroke: #262626; stroke-width: 0.8"/>
      </g>
     </g>
     <g id="text_14">
      <!-- small_warehouse -->
      <g style="fill: #262626" transform="translate(607.465467 327.890625)scale(0.1 -0.1)">
       <use xlink:href="#DejaVuSans-73"/>
       <use xlink:href="#DejaVuSans-6d" x="52.099609"/>
       <use xlink:href="#DejaVuSans-61" x="149.511719"/>
       <use xlink:href="#DejaVuSans-6c" x="210.791016"/>
       <use xlink:href="#DejaVuSans-6c" x="238.574219"/>
       <use xlink:href="#DejaVuSans-5f" x="266.357422"/>
       <use xlink:href="#DejaVuSans-77" x="316.357422"/>
       <use xlink:href="#DejaVuSans-61" x="398.144531"/>
       <use xlink:href="#DejaVuSans-72" x="459.423828"/>
       <use xlink:href="#DejaVuSans-65" x="498.287109"/>
       <use xlink:href="#DejaVuSans-68" x="559.810547"/>
       <use xlink:href="#DejaVuSans-6f" x="623.189453"/>
       <use xlink:href="#DejaVuSans-75" x="684.371094"/>
       <use xlink:href="#DejaVuSans-73" x="747.75"/>
       <use xlink:href="#DejaVuSans-65" x="799.849609"/>
      </g>
     </g>
    </g>
    <g id="text_15">
     <!-- World -->
     <g style="fill: #262626" transform="translate(528.53657 341.846875)scale(0.1 -0.1)">
      <use xlink:href="#DejaVuSans-57"/>
      <use xlink:href="#DejaVuSans-6f" x="93.001953"/>
      <use xlink:href="#DejaVuSans-72" x="154.183594"/>
      <use xlink:href="#DejaVuSans-6c" x="195.296875"/>
      <use xlink:href="#DejaVuSans-64" x="223.080078"/>
     </g>
    </g>
   </g>
   <g id="matplotlib.axis_4">
    <g id="ytick_6">
     <g id="line2d_18">
      <g>
       <use xlink:href="#m6135aa4918" x="381.361584" y="269.287916" style="fill: #262626; stroke: #262626; stroke-width: 0.8"/>
      </g>
     </g>
    </g>
    <g id="ytick_7">
     <g id="line2d_19">
      <g>
       <use xlink:href="#m6135aa4918" x="381.361584" y="207.195944" style="fill: #262626; stroke: #262626; stroke-width: 0.8"/>
      </g>
     </g>
    </g>
    <g id="ytick_8">
     <g id="line2d_20">
      <g>
       <use xlink:href="#m6135aa4918" x="381.361584" y="145.103972" style="fill: #262626; stroke: #262626; stroke-width: 0.8"/>
      </g>
     </g>
    </g>
    <g id="ytick_9">
     <g id="line2d_21">
      <g>
       <use xlink:href="#m6135aa4918" x="381.361584" y="83.012" style="fill: #262626; stroke: #262626; stroke-width: 0.8"/>
      </g>
     </g>
    </g>
    <g id="ytick_10">
     <g id="line2d_22">
      <g>
       <use xlink:href="#m6135aa4918" x="381.361584" y="20.920028" style="fill: #262626; stroke: #262626; stroke-width: 0.8"/>
      </g>
     </g>
    </g>
   </g>
   <g id="patch_8">
    <path d="M 435.195955 269.287916 
L 435.195955 269.287916 
L 435.195955 269.287916 
L 435.195955 269.287916 
z
" clip-path="url(#p3a9b0f5616)" style="fill: #5875a4; stroke: #4c4c4c; stroke-width: 0.75; stroke-linejoin: miter"/>
   </g>
   <g id="PolyCollection_7">
    <defs>
     <path id="mfad8b8b788" d="M 435.195955 -80.248413 
L 433.60445 -80.248413 
L 432.96655 -80.968978 
L 432.134416 -81.689543 
L 431.073718 -82.410107 
L 429.752829 -83.130672 
L 428.146197 -83.851237 
L 426.238006 -84.571802 
L 424.02577 -85.292366 
L 421.523357 -86.012931 
L 418.762969 -86.733496 
L 415.795636 -87.45406 
L 412.689926 -88.174625 
L 409.528774 -88.89519 
L 406.404617 -89.615755 
L 403.413256 -90.336319 
L 400.64709 -91.056884 
L 398.188511 -91.777449 
L 396.104232 -92.498013 
L 394.44125 -93.218578 
L 393.224877 -93.939143 
L 392.459007 -94.659708 
L 392.128458 -95.380272 
L 392.202938 -96.100837 
L 392.641967 -96.821402 
L 393.400025 -97.541966 
L 394.431195 -98.262531 
L 395.692736 -98.983096 
L 397.147245 -99.70366 
L 398.763316 -100.424225 
L 400.514868 -101.14479 
L 402.379516 -101.865355 
L 404.33644 -102.585919 
L 406.364285 -103.306484 
L 408.43951 -104.027049 
L 410.535485 -104.747613 
L 412.622497 -105.468178 
L 414.668596 -106.188743 
L 416.641114 -106.909308 
L 418.508559 -107.629872 
L 420.242558 -108.350437 
L 421.819542 -109.071002 
L 423.221926 -109.791566 
L 424.438654 -110.512131 
L 425.465073 -111.232696 
L 426.302232 -111.953261 
L 426.955765 -112.673825 
L 427.434569 -113.39439 
L 427.749514 -114.114955 
L 427.912373 -114.835519 
L 427.935119 -115.556084 
L 427.829668 -116.276649 
L 427.608041 -116.997214 
L 427.282892 -117.717778 
L 426.868235 -118.438343 
L 426.380199 -119.158908 
L 425.837624 -119.879472 
L 425.262325 -120.600037 
L 424.67888 -121.320602 
L 424.113906 -122.041167 
L 423.59482 -122.761731 
L 423.148201 -123.482296 
L 422.797935 -124.202861 
L 422.563366 -124.923425 
L 422.457704 -125.64399 
L 422.486927 -126.364555 
L 422.649341 -127.08512 
L 422.93588 -127.805684 
L 423.331137 -128.526249 
L 423.814984 -129.246814 
L 424.364601 -129.967378 
L 424.956626 -130.687943 
L 425.56918 -131.408508 
L 426.183519 -132.129073 
L 426.785149 -132.849637 
L 427.364314 -133.570202 
L 427.915879 -134.290767 
L 428.438692 -135.011331 
L 428.934598 -135.731896 
L 429.407273 -136.452461 
L 429.861072 -137.173025 
L 430.300044 -137.89359 
L 430.727198 -138.614155 
L 431.144096 -139.33472 
L 431.550736 -140.055284 
L 431.945697 -140.775849 
L 432.326465 -141.496414 
L 432.689853 -142.216978 
L 433.032457 -142.937543 
L 433.351062 -143.658108 
L 433.642979 -144.378673 
L 433.906277 -145.099237 
L 434.139914 -145.819802 
L 434.34377 -146.540367 
L 434.518594 -147.260931 
L 434.665893 -147.981496 
L 434.787782 -148.702061 
L 434.886804 -149.422626 
L 434.965751 -150.14319 
L 435.0275 -150.863755 
L 435.074865 -151.58432 
L 435.195955 -151.58432 
L 435.195955 -151.58432 
L 435.195955 -150.863755 
L 435.195955 -150.14319 
L 435.195955 -149.422626 
L 435.195955 -148.702061 
L 435.195955 -147.981496 
L 435.195955 -147.260931 
L 435.195955 -146.540367 
L 435.195955 -145.819802 
L 435.195955 -145.099237 
L 435.195955 -144.378673 
L 435.195955 -143.658108 
L 435.195955 -142.937543 
L 435.195955 -142.216978 
L 435.195955 -141.496414 
L 435.195955 -140.775849 
L 435.195955 -140.055284 
L 435.195955 -139.33472 
L 435.195955 -138.614155 
L 435.195955 -137.89359 
L 435.195955 -137.173025 
L 435.195955 -136.452461 
L 435.195955 -135.731896 
L 435.195955 -135.011331 
L 435.195955 -134.290767 
L 435.195955 -133.570202 
L 435.195955 -132.849637 
L 435.195955 -132.129073 
L 435.195955 -131.408508 
L 435.195955 -130.687943 
L 435.195955 -129.967378 
L 435.195955 -129.246814 
L 435.195955 -128.526249 
L 435.195955 -127.805684 
L 435.195955 -127.08512 
L 435.195955 -126.364555 
L 435.195955 -125.64399 
L 435.195955 -124.923425 
L 435.195955 -124.202861 
L 435.195955 -123.482296 
L 435.195955 -122.761731 
L 435.195955 -122.041167 
L 435.195955 -121.320602 
L 435.195955 -120.600037 
L 435.195955 -119.879472 
L 435.195955 -119.158908 
L 435.195955 -118.438343 
L 435.195955 -117.717778 
L 435.195955 -116.997214 
L 435.195955 -116.276649 
L 435.195955 -115.556084 
L 435.195955 -114.835519 
L 435.195955 -114.114955 
L 435.195955 -113.39439 
L 435.195955 -112.673825 
L 435.195955 -111.953261 
L 435.195955 -111.232696 
L 435.195955 -110.512131 
L 435.195955 -109.791566 
L 435.195955 -109.071002 
L 435.195955 -108.350437 
L 435.195955 -107.629872 
L 435.195955 -106.909308 
L 435.195955 -106.188743 
L 435.195955 -105.468178 
L 435.195955 -104.747613 
L 435.195955 -104.027049 
L 435.195955 -103.306484 
L 435.195955 -102.585919 
L 435.195955 -101.865355 
L 435.195955 -101.14479 
L 435.195955 -100.424225 
L 435.195955 -99.70366 
L 435.195955 -98.983096 
L 435.195955 -98.262531 
L 435.195955 -97.541966 
L 435.195955 -96.821402 
L 435.195955 -96.100837 
L 435.195955 -95.380272 
L 435.195955 -94.659708 
L 435.195955 -93.939143 
L 435.195955 -93.218578 
L 435.195955 -92.498013 
L 435.195955 -91.777449 
L 435.195955 -91.056884 
L 435.195955 -90.336319 
L 435.195955 -89.615755 
L 435.195955 -88.89519 
L 435.195955 -88.174625 
L 435.195955 -87.45406 
L 435.195955 -86.733496 
L 435.195955 -86.012931 
L 435.195955 -85.292366 
L 435.195955 -84.571802 
L 435.195955 -83.851237 
L 435.195955 -83.130672 
L 435.195955 -82.410107 
L 435.195955 -81.689543 
L 435.195955 -80.968978 
L 435.195955 -80.248413 
z
" style="stroke: #4c4c4c; stroke-width: 1.5"/>
    </defs>
    <g clip-path="url(#p3a9b0f5616)">
     <use xlink:href="#mfad8b8b788" x="0" y="351.126562" style="fill: #5875a4; stroke: #4c4c4c; stroke-width: 1.5"/>
    </g>
   </g>
   <g id="patch_9">
    <path d="M 435.195955 269.287916 
L 435.195955 269.287916 
L 435.195955 269.287916 
L 435.195955 269.287916 
z
" clip-path="url(#p3a9b0f5616)" style="fill: #cc8963; stroke: #4c4c4c; stroke-width: 0.75; stroke-linejoin: miter"/>
   </g>
   <g id="PolyCollection_8">
    <defs>
     <path id="mb6c1f2aab4" d="M 435.47106 -67.62677 
L 435.195955 -67.62677 
L 435.195955 -68.726867 
L 435.195955 -69.826963 
L 435.195955 -70.92706 
L 435.195955 -72.027157 
L 435.195955 -73.127253 
L 435.195955 -74.22735 
L 435.195955 -75.327447 
L 435.195955 -76.427544 
L 435.195955 -77.52764 
L 435.195955 -78.627737 
L 435.195955 -79.727834 
L 435.195955 -80.82793 
L 435.195955 -81.928027 
L 435.195955 -83.028124 
L 435.195955 -84.12822 
L 435.195955 -85.228317 
L 435.195955 -86.328414 
L 435.195955 -87.42851 
L 435.195955 -88.528607 
L 435.195955 -89.628704 
L 435.195955 -90.7288 
L 435.195955 -91.828897 
L 435.195955 -92.928994 
L 435.195955 -94.029091 
L 435.195955 -95.129187 
L 435.195955 -96.229284 
L 435.195955 -97.329381 
L 435.195955 -98.429477 
L 435.195955 -99.529574 
L 435.195955 -100.629671 
L 435.195955 -101.729767 
L 435.195955 -102.829864 
L 435.195955 -103.929961 
L 435.195955 -105.030057 
L 435.195955 -106.130154 
L 435.195955 -107.230251 
L 435.195955 -108.330347 
L 435.195955 -109.430444 
L 435.195955 -110.530541 
L 435.195955 -111.630638 
L 435.195955 -112.730734 
L 435.195955 -113.830831 
L 435.195955 -114.930928 
L 435.195955 -116.031024 
L 435.195955 -117.131121 
L 435.195955 -118.231218 
L 435.195955 -119.331314 
L 435.195955 -120.431411 
L 435.195955 -121.531508 
L 435.195955 -122.631604 
L 435.195955 -123.731701 
L 435.195955 -124.831798 
L 435.195955 -125.931894 
L 435.195955 -127.031991 
L 435.195955 -128.132088 
L 435.195955 -129.232184 
L 435.195955 -130.332281 
L 435.195955 -131.432378 
L 435.195955 -132.532475 
L 435.195955 -133.632571 
L 435.195955 -134.732668 
L 435.195955 -135.832765 
L 435.195955 -136.932861 
L 435.195955 -138.032958 
L 435.195955 -139.133055 
L 435.195955 -140.233151 
L 435.195955 -141.333248 
L 435.195955 -142.433345 
L 435.195955 -143.533441 
L 435.195955 -144.633538 
L 435.195955 -145.733635 
L 435.195955 -146.833731 
L 435.195955 -147.933828 
L 435.195955 -149.033925 
L 435.195955 -150.134022 
L 435.195955 -151.234118 
L 435.195955 -152.334215 
L 435.195955 -153.434312 
L 435.195955 -154.534408 
L 435.195955 -155.634505 
L 435.195955 -156.734602 
L 435.195955 -157.834698 
L 435.195955 -158.934795 
L 435.195955 -160.034892 
L 435.195955 -161.134988 
L 435.195955 -162.235085 
L 435.195955 -163.335182 
L 435.195955 -164.435278 
L 435.195955 -165.535375 
L 435.195955 -166.635472 
L 435.195955 -167.735569 
L 435.195955 -168.835665 
L 435.195955 -169.935762 
L 435.195955 -171.035859 
L 435.195955 -172.135955 
L 435.195955 -173.236052 
L 435.195955 -174.336149 
L 435.195955 -175.436245 
L 435.195955 -176.536342 
L 435.315771 -176.536342 
L 435.315771 -176.536342 
L 435.36358 -175.436245 
L 435.425614 -174.336149 
L 435.504208 -173.236052 
L 435.601446 -172.135955 
L 435.718953 -171.035859 
L 435.857685 -169.935762 
L 436.017751 -168.835665 
L 436.198306 -167.735569 
L 436.397523 -166.635472 
L 436.612674 -165.535375 
L 436.840322 -164.435278 
L 437.076601 -163.335182 
L 437.317573 -162.235085 
L 437.559617 -161.134988 
L 437.799805 -160.034892 
L 438.036232 -158.934795 
L 438.268239 -157.834698 
L 438.496518 -156.734602 
L 438.723056 -155.634505 
L 438.950928 -154.534408 
L 439.18394 -153.434312 
L 439.426149 -152.334215 
L 439.681298 -151.234118 
L 439.952239 -150.134022 
L 440.240398 -149.033925 
L 440.545361 -147.933828 
L 440.864655 -146.833731 
L 441.193752 -145.733635 
L 441.526332 -144.633538 
L 441.854785 -143.533441 
L 442.170883 -142.433345 
L 442.466551 -141.333248 
L 442.734626 -140.233151 
L 442.969491 -139.133055 
L 443.16751 -138.032958 
L 443.327187 -136.932861 
L 443.449066 -135.832765 
L 443.535379 -134.732668 
L 443.589534 -133.632571 
L 443.615531 -132.532475 
L 443.617425 -131.432378 
L 443.598914 -130.332281 
L 443.563139 -129.232184 
L 443.512727 -128.132088 
L 443.450063 -127.031991 
L 443.377754 -125.931894 
L 443.299212 -124.831798 
L 443.219252 -123.731701 
L 443.144616 -122.631604 
L 443.084329 -121.531508 
L 443.049836 -120.431411 
L 443.054885 -119.331314 
L 443.11517 -118.231218 
L 443.247787 -117.131121 
L 443.470558 -116.031024 
L 443.801285 -114.930928 
L 444.256995 -113.830831 
L 444.85317 -112.730734 
L 445.602962 -111.630638 
L 446.516316 -110.530541 
L 447.598959 -109.430444 
L 448.851201 -108.330347 
L 450.266566 -107.230251 
L 451.830332 -106.130154 
L 453.518178 -105.030057 
L 455.295172 -103.929961 
L 457.115421 -102.829864 
L 458.922668 -101.729767 
L 460.652036 -100.629671 
L 462.23302 -99.529574 
L 463.593579 -98.429477 
L 464.66506 -97.329381 
L 465.387437 -96.229284 
L 465.714308 -95.129187 
L 465.617022 -94.029091 
L 465.087419 -92.928994 
L 464.138816 -91.828897 
L 462.805114 -90.7288 
L 461.138132 -89.628704 
L 459.203513 -88.528607 
L 457.07569 -87.42851 
L 454.832506 -86.328414 
L 452.55003 -85.228317 
L 450.298077 -84.12822 
L 448.13675 -83.028124 
L 446.114181 -81.928027 
L 444.265504 -80.82793 
L 442.612923 -79.727834 
L 441.166687 -78.627737 
L 439.926709 -77.52764 
L 438.884572 -76.427544 
L 438.025679 -75.327447 
L 437.331347 -74.22735 
L 436.780704 -73.127253 
L 436.35228 -72.027157 
L 436.025268 -70.92706 
L 435.780411 -69.826963 
L 435.600581 -68.726867 
L 435.47106 -67.62677 
z
" style="stroke: #4c4c4c; stroke-width: 1.5"/>
    </defs>
    <g clip-path="url(#p3a9b0f5616)">
     <use xlink:href="#mb6c1f2aab4" x="0" y="351.126562" style="fill: #cc8963; stroke: #4c4c4c; stroke-width: 1.5"/>
    </g>
   </g>
   <g id="PolyCollection_9">
    <defs>
     <path id="m173b4c7c9c" d="M 542.864695 -74.632395 
L 541.715206 -74.632395 
L 541.023374 -75.949792 
L 540.015132 -77.26719 
L 538.602818 -78.584588 
L 536.702245 -79.901986 
L 534.246894 -81.219384 
L 531.204749 -82.536782 
L 527.595183 -83.85418 
L 523.502264 -85.171578 
L 519.080676 -86.488976 
L 514.551128 -87.806373 
L 510.183878 -89.123771 
L 506.271461 -90.441169 
L 503.0943 -91.758567 
L 500.884909 -93.075965 
L 499.797199 -94.393363 
L 499.886647 -95.710761 
L 501.104959 -97.028159 
L 503.309789 -98.345557 
L 506.286984 -99.662954 
L 509.780526 -100.980352 
L 513.524313 -102.29775 
L 517.270406 -103.615148 
L 520.810008 -104.932546 
L 523.985619 -106.249944 
L 526.694879 -107.567342 
L 528.888004 -108.88474 
L 530.561224 -110.202138 
L 531.748352 -111.519535 
L 532.511871 -112.836933 
L 532.934111 -114.154331 
L 533.108597 -115.471729 
L 533.131514 -116.789127 
L 533.093511 -118.106525 
L 533.072402 -119.423923 
L 533.127622 -120.741321 
L 533.297213 -122.058719 
L 533.59775 -123.376116 
L 534.02703 -124.693514 
L 534.56875 -126.010912 
L 535.19801 -127.32831 
L 535.886476 -128.645708 
L 536.606319 -129.963106 
L 537.33257 -131.280504 
L 538.04404 -132.597902 
L 538.7233 -133.9153 
L 539.356291 -135.232697 
L 539.932025 -136.550095 
L 540.442552 -137.867493 
L 540.883143 -139.184891 
L 541.252512 -140.502289 
L 541.552857 -141.819687 
L 541.789596 -143.137085 
L 541.970786 -144.454483 
L 542.106265 -145.771881 
L 542.206647 -147.089279 
L 542.282284 -148.406676 
L 542.342309 -149.724074 
L 542.39389 -151.041472 
L 542.441769 -152.35887 
L 542.488142 -153.676268 
L 542.532887 -154.993666 
L 542.574081 -156.311064 
L 542.608689 -157.628462 
L 542.633317 -158.94586 
L 542.6449 -160.263257 
L 542.641241 -161.580655 
L 542.621359 -162.898053 
L 542.585624 -164.215451 
L 542.535686 -165.532849 
L 542.47422 -166.850247 
L 542.404522 -168.167645 
L 542.33 -169.485043 
L 542.25364 -170.802441 
L 542.177557 -172.119838 
L 542.10271 -173.437236 
L 542.02889 -174.754634 
L 541.955005 -176.072032 
L 541.879652 -177.38943 
L 541.801869 -178.706828 
L 541.721918 -180.024226 
L 541.641901 -181.341624 
L 541.566024 -182.659022 
L 541.500379 -183.976419 
L 541.452217 -185.293817 
L 541.428819 -186.611215 
L 541.436172 -187.928613 
L 541.477751 -189.246011 
L 541.553683 -190.563409 
L 541.660497 -191.880807 
L 541.791538 -193.198205 
L 541.937937 -194.515603 
L 542.08992 -195.833 
L 542.238164 -197.150398 
L 542.37494 -198.467796 
L 542.494829 -199.785194 
L 542.59496 -201.102592 
L 542.674814 -202.41999 
L 542.735714 -203.737388 
L 542.780181 -205.054786 
L 542.864695 -205.054786 
L 542.864695 -205.054786 
L 542.864695 -203.737388 
L 542.864695 -202.41999 
L 542.864695 -201.102592 
L 542.864695 -199.785194 
L 542.864695 -198.467796 
L 542.864695 -197.150398 
L 542.864695 -195.833 
L 542.864695 -194.515603 
L 542.864695 -193.198205 
L 542.864695 -191.880807 
L 542.864695 -190.563409 
L 542.864695 -189.246011 
L 542.864695 -187.928613 
L 542.864695 -186.611215 
L 542.864695 -185.293817 
L 542.864695 -183.976419 
L 542.864695 -182.659022 
L 542.864695 -181.341624 
L 542.864695 -180.024226 
L 542.864695 -178.706828 
L 542.864695 -177.38943 
L 542.864695 -176.072032 
L 542.864695 -174.754634 
L 542.864695 -173.437236 
L 542.864695 -172.119838 
L 542.864695 -170.802441 
L 542.864695 -169.485043 
L 542.864695 -168.167645 
L 542.864695 -166.850247 
L 542.864695 -165.532849 
L 542.864695 -164.215451 
L 542.864695 -162.898053 
L 542.864695 -161.580655 
L 542.864695 -160.263257 
L 542.864695 -158.94586 
L 542.864695 -157.628462 
L 542.864695 -156.311064 
L 542.864695 -154.993666 
L 542.864695 -153.676268 
L 542.864695 -152.35887 
L 542.864695 -151.041472 
L 542.864695 -149.724074 
L 542.864695 -148.406676 
L 542.864695 -147.089279 
L 542.864695 -145.771881 
L 542.864695 -144.454483 
L 542.864695 -143.137085 
L 542.864695 -141.819687 
L 542.864695 -140.502289 
L 542.864695 -139.184891 
L 542.864695 -137.867493 
L 542.864695 -136.550095 
L 542.864695 -135.232697 
L 542.864695 -133.9153 
L 542.864695 -132.597902 
L 542.864695 -131.280504 
L 542.864695 -129.963106 
L 542.864695 -128.645708 
L 542.864695 -127.32831 
L 542.864695 -126.010912 
L 542.864695 -124.693514 
L 542.864695 -123.376116 
L 542.864695 -122.058719 
L 542.864695 -120.741321 
L 542.864695 -119.423923 
L 542.864695 -118.106525 
L 542.864695 -116.789127 
L 542.864695 -115.471729 
L 542.864695 -114.154331 
L 542.864695 -112.836933 
L 542.864695 -111.519535 
L 542.864695 -110.202138 
L 542.864695 -108.88474 
L 542.864695 -107.567342 
L 542.864695 -106.249944 
L 542.864695 -104.932546 
L 542.864695 -103.615148 
L 542.864695 -102.29775 
L 542.864695 -100.980352 
L 542.864695 -99.662954 
L 542.864695 -98.345557 
L 542.864695 -97.028159 
L 542.864695 -95.710761 
L 542.864695 -94.393363 
L 542.864695 -93.075965 
L 542.864695 -91.758567 
L 542.864695 -90.441169 
L 542.864695 -89.123771 
L 542.864695 -87.806373 
L 542.864695 -86.488976 
L 542.864695 -85.171578 
L 542.864695 -83.85418 
L 542.864695 -82.536782 
L 542.864695 -81.219384 
L 542.864695 -79.901986 
L 542.864695 -78.584588 
L 542.864695 -77.26719 
L 542.864695 -75.949792 
L 542.864695 -74.632395 
z
" style="stroke: #4c4c4c; stroke-width: 1.5"/>
    </defs>
    <g clip-path="url(#p3a9b0f5616)">
     <use xlink:href="#m173b4c7c9c" x="0" y="351.126562" style="fill: #5875a4; stroke: #4c4c4c; stroke-width: 1.5"/>
    </g>
   </g>
   <g id="PolyCollection_10">
    <defs>
     <path id="m9c19e79456" d="M 543.021021 -67.512896 
L 542.864695 -67.512896 
L 542.864695 -68.904268 
L 542.864695 -70.295641 
L 542.864695 -71.687013 
L 542.864695 -73.078385 
L 542.864695 -74.469758 
L 542.864695 -75.86113 
L 542.864695 -77.252503 
L 542.864695 -78.643875 
L 542.864695 -80.035248 
L 542.864695 -81.42662 
L 542.864695 -82.817992 
L 542.864695 -84.209365 
L 542.864695 -85.600737 
L 542.864695 -86.99211 
L 542.864695 -88.383482 
L 542.864695 -89.774854 
L 542.864695 -91.166227 
L 542.864695 -92.557599 
L 542.864695 -93.948972 
L 542.864695 -95.340344 
L 542.864695 -96.731717 
L 542.864695 -98.123089 
L 542.864695 -99.514461 
L 542.864695 -100.905834 
L 542.864695 -102.297206 
L 542.864695 -103.688579 
L 542.864695 -105.079951 
L 542.864695 -106.471323 
L 542.864695 -107.862696 
L 542.864695 -109.254068 
L 542.864695 -110.645441 
L 542.864695 -112.036813 
L 542.864695 -113.428186 
L 542.864695 -114.819558 
L 542.864695 -116.21093 
L 542.864695 -117.602303 
L 542.864695 -118.993675 
L 542.864695 -120.385048 
L 542.864695 -121.77642 
L 542.864695 -123.167793 
L 542.864695 -124.559165 
L 542.864695 -125.950537 
L 542.864695 -127.34191 
L 542.864695 -128.733282 
L 542.864695 -130.124655 
L 542.864695 -131.516027 
L 542.864695 -132.907399 
L 542.864695 -134.298772 
L 542.864695 -135.690144 
L 542.864695 -137.081517 
L 542.864695 -138.472889 
L 542.864695 -139.864262 
L 542.864695 -141.255634 
L 542.864695 -142.647006 
L 542.864695 -144.038379 
L 542.864695 -145.429751 
L 542.864695 -146.821124 
L 542.864695 -148.212496 
L 542.864695 -149.603868 
L 542.864695 -150.995241 
L 542.864695 -152.386613 
L 542.864695 -153.777986 
L 542.864695 -155.169358 
L 542.864695 -156.560731 
L 542.864695 -157.952103 
L 542.864695 -159.343475 
L 542.864695 -160.734848 
L 542.864695 -162.12622 
L 542.864695 -163.517593 
L 542.864695 -164.908965 
L 542.864695 -166.300337 
L 542.864695 -167.69171 
L 542.864695 -169.083082 
L 542.864695 -170.474455 
L 542.864695 -171.865827 
L 542.864695 -173.2572 
L 542.864695 -174.648572 
L 542.864695 -176.039944 
L 542.864695 -177.431317 
L 542.864695 -178.822689 
L 542.864695 -180.214062 
L 542.864695 -181.605434 
L 542.864695 -182.996807 
L 542.864695 -184.388179 
L 542.864695 -185.779551 
L 542.864695 -187.170924 
L 542.864695 -188.562296 
L 542.864695 -189.953669 
L 542.864695 -191.345041 
L 542.864695 -192.736413 
L 542.864695 -194.127786 
L 542.864695 -195.519158 
L 542.864695 -196.910531 
L 542.864695 -198.301903 
L 542.864695 -199.693276 
L 542.864695 -201.084648 
L 542.864695 -202.47602 
L 542.864695 -203.867393 
L 542.864695 -205.258765 
L 542.931532 -205.258765 
L 542.931532 -205.258765 
L 542.964079 -203.867393 
L 543.007391 -202.47602 
L 543.062643 -201.084648 
L 543.130189 -199.693276 
L 543.209304 -198.301903 
L 543.298089 -196.910531 
L 543.393576 -195.519158 
L 543.492074 -194.127786 
L 543.589669 -192.736413 
L 543.682787 -191.345041 
L 543.768651 -189.953669 
L 543.845532 -188.562296 
L 543.912709 -187.170924 
L 543.970204 -185.779551 
L 544.018387 -184.388179 
L 544.057629 -182.996807 
L 544.088151 -181.605434 
L 544.110127 -180.214062 
L 544.124038 -178.822689 
L 544.131155 -177.431317 
L 544.133986 -176.039944 
L 544.136552 -174.648572 
L 544.144359 -173.2572 
L 544.164051 -171.865827 
L 544.202775 -170.474455 
L 544.26736 -169.083082 
L 544.363429 -167.69171 
L 544.494592 -166.300337 
L 544.661815 -164.908965 
L 544.863031 -163.517593 
L 545.093017 -162.12622 
L 545.343524 -160.734848 
L 545.603642 -159.343475 
L 545.86041 -157.952103 
L 546.099722 -156.560731 
L 546.307574 -155.169358 
L 546.471688 -153.777986 
L 546.583409 -152.386613 
L 546.639654 -150.995241 
L 546.644545 -149.603868 
L 546.61032 -148.212496 
L 546.557194 -146.821124 
L 546.512045 -145.429751 
L 546.506025 -144.038379 
L 546.571466 -142.647006 
L 546.738509 -141.255634 
L 547.031909 -139.864262 
L 547.468348 -138.472889 
L 548.054454 -137.081517 
L 548.785643 -135.690144 
L 549.645917 -134.298772 
L 550.608743 -132.907399 
L 551.639217 -131.516027 
L 552.697558 -130.124655 
L 553.743797 -128.733282 
L 554.743154 -127.34191 
L 555.671318 -125.950537 
L 556.518622 -124.559165 
L 557.292171 -123.167793 
L 558.015301 -121.77642 
L 558.724221 -120.385048 
L 559.46228 -118.993675 
L 560.272728 -117.602303 
L 561.191154 -116.21093 
L 562.238769 -114.819558 
L 563.417514 -113.428186 
L 564.707658 -112.036813 
L 566.068098 -110.645441 
L 567.439251 -109.254068 
L 568.748045 -107.862696 
L 569.914317 -106.471323 
L 570.857809 -105.079951 
L 571.504983 -103.688579 
L 571.794988 -102.297206 
L 571.684396 -100.905834 
L 571.150479 -99.514461 
L 570.193055 -98.123089 
L 568.834915 -96.731717 
L 567.120857 -95.340344 
L 565.115225 -93.948972 
L 562.897857 -92.557599 
L 560.558452 -91.166227 
L 558.189656 -89.774854 
L 555.879538 -88.383482 
L 553.704449 -86.99211 
L 551.723351 -85.600737 
L 549.974534 -84.209365 
L 548.475165 -82.817992 
L 547.223523 -81.42662 
L 546.203217 -80.035248 
L 545.388361 -78.643875 
L 544.748645 -77.252503 
L 544.253475 -75.86113 
L 543.874761 -74.469758 
L 543.588331 -73.078385 
L 543.374253 -71.687013 
L 543.21647 -70.295641 
L 543.10215 -68.904268 
L 543.021021 -67.512896 
z
" style="stroke: #4c4c4c; stroke-width: 1.5"/>
    </defs>
    <g clip-path="url(#p3a9b0f5616)">
     <use xlink:href="#m9c19e79456" x="0" y="351.126562" style="fill: #cc8963; stroke: #4c4c4c; stroke-width: 1.5"/>
    </g>
   </g>
   <g id="PolyCollection_11">
    <defs>
     <path id="m406cc6f0bb" d="M 650.533436 -80.101496 
L 650.000743 -80.101496 
L 649.724965 -80.955225 
L 649.339292 -81.808954 
L 648.816079 -82.662682 
L 648.127372 -83.516411 
L 647.247538 -84.37014 
L 646.156301 -85.223868 
L 644.841758 -86.077597 
L 643.302855 -86.931326 
L 641.55075 -87.785054 
L 639.60864 -88.638783 
L 637.509823 -89.492511 
L 635.294159 -90.34624 
L 633.003417 -91.199969 
L 630.676373 -92.053697 
L 628.344674 -92.907426 
L 626.030473 -93.761155 
L 623.746581 -94.614883 
L 621.499367 -95.468612 
L 619.294039 -96.322341 
L 617.141303 -97.176069 
L 615.06393 -98.029798 
L 613.101595 -98.883526 
L 611.312545 -99.737255 
L 609.771236 -100.590984 
L 608.561912 -101.444712 
L 607.769001 -102.298441 
L 607.46594 -103.15217 
L 607.704461 -104.005898 
L 608.506291 -104.859627 
L 609.858717 -105.713356 
L 611.714698 -106.567084 
L 613.997269 -107.420813 
L 616.607248 -108.274541 
L 619.432765 -109.12827 
L 622.359041 -109.981999 
L 625.277077 -110.835727 
L 628.090355 -111.689456 
L 630.719201 -112.543185 
L 633.102927 -113.396913 
L 635.20014 -114.250642 
L 636.987796 -115.104371 
L 638.459437 -115.958099 
L 639.623003 -116.811828 
L 640.498347 -117.665557 
L 641.114553 -118.519285 
L 641.507059 -119.373014 
L 641.714678 -120.226742 
L 641.776679 -121.080471 
L 641.730199 -121.9342 
L 641.608233 -122.787928 
L 641.43845 -123.641657 
L 641.242904 -124.495386 
L 641.038573 -125.349114 
L 640.838511 -126.202843 
L 640.653328 -127.056572 
L 640.492652 -127.9103 
L 640.366329 -128.764029 
L 640.285124 -129.617757 
L 640.260835 -130.471486 
L 640.305772 -131.325215 
L 640.431672 -132.178943 
L 640.648199 -133.032672 
L 640.961268 -133.886401 
L 641.371498 -134.740129 
L 641.873142 -135.593858 
L 642.453772 -136.447587 
L 643.094897 -137.301315 
L 643.773509 -138.155044 
L 644.46434 -139.008773 
L 645.142474 -139.862501 
L 645.785847 -140.71623 
L 646.377224 -141.569958 
L 646.905333 -142.423687 
L 647.365071 -143.277416 
L 647.756845 -144.131144 
L 648.08532 -144.984873 
L 648.3579 -145.838602 
L 648.583248 -146.69233 
L 648.770106 -147.546059 
L 648.926528 -148.399788 
L 649.059508 -149.253516 
L 649.174943 -150.107245 
L 649.277753 -150.960973 
L 649.372055 -151.814702 
L 649.46128 -152.668431 
L 649.548182 -153.522159 
L 649.634782 -154.375888 
L 649.722258 -155.229617 
L 649.810886 -156.083345 
L 649.900049 -156.937074 
L 649.988382 -157.790803 
L 650.074004 -158.644531 
L 650.154837 -159.49826 
L 650.228925 -160.351988 
L 650.294716 -161.205717 
L 650.351241 -162.059446 
L 650.398188 -162.913174 
L 650.435863 -163.766903 
L 650.465069 -164.620632 
L 650.533436 -164.620632 
L 650.533436 -164.620632 
L 650.533436 -163.766903 
L 650.533436 -162.913174 
L 650.533436 -162.059446 
L 650.533436 -161.205717 
L 650.533436 -160.351988 
L 650.533436 -159.49826 
L 650.533436 -158.644531 
L 650.533436 -157.790803 
L 650.533436 -156.937074 
L 650.533436 -156.083345 
L 650.533436 -155.229617 
L 650.533436 -154.375888 
L 650.533436 -153.522159 
L 650.533436 -152.668431 
L 650.533436 -151.814702 
L 650.533436 -150.960973 
L 650.533436 -150.107245 
L 650.533436 -149.253516 
L 650.533436 -148.399788 
L 650.533436 -147.546059 
L 650.533436 -146.69233 
L 650.533436 -145.838602 
L 650.533436 -144.984873 
L 650.533436 -144.131144 
L 650.533436 -143.277416 
L 650.533436 -142.423687 
L 650.533436 -141.569958 
L 650.533436 -140.71623 
L 650.533436 -139.862501 
L 650.533436 -139.008773 
L 650.533436 -138.155044 
L 650.533436 -137.301315 
L 650.533436 -136.447587 
L 650.533436 -135.593858 
L 650.533436 -134.740129 
L 650.533436 -133.886401 
L 650.533436 -133.032672 
L 650.533436 -132.178943 
L 650.533436 -131.325215 
L 650.533436 -130.471486 
L 650.533436 -129.617757 
L 650.533436 -128.764029 
L 650.533436 -127.9103 
L 650.533436 -127.056572 
L 650.533436 -126.202843 
L 650.533436 -125.349114 
L 650.533436 -124.495386 
L 650.533436 -123.641657 
L 650.533436 -122.787928 
L 650.533436 -121.9342 
L 650.533436 -121.080471 
L 650.533436 -120.226742 
L 650.533436 -119.373014 
L 650.533436 -118.519285 
L 650.533436 -117.665557 
L 650.533436 -116.811828 
L 650.533436 -115.958099 
L 650.533436 -115.104371 
L 650.533436 -114.250642 
L 650.533436 -113.396913 
L 650.533436 -112.543185 
L 650.533436 -111.689456 
L 650.533436 -110.835727 
L 650.533436 -109.981999 
L 650.533436 -109.12827 
L 650.533436 -108.274541 
L 650.533436 -107.420813 
L 650.533436 -106.567084 
L 650.533436 -105.713356 
L 650.533436 -104.859627 
L 650.533436 -104.005898 
L 650.533436 -103.15217 
L 650.533436 -102.298441 
L 650.533436 -101.444712 
L 650.533436 -100.590984 
L 650.533436 -99.737255 
L 650.533436 -98.883526 
L 650.533436 -98.029798 
L 650.533436 -97.176069 
L 650.533436 -96.322341 
L 650.533436 -95.468612 
L 650.533436 -94.614883 
L 650.533436 -93.761155 
L 650.533436 -92.907426 
L 650.533436 -92.053697 
L 650.533436 -91.199969 
L 650.533436 -90.34624 
L 650.533436 -89.492511 
L 650.533436 -88.638783 
L 650.533436 -87.785054 
L 650.533436 -86.931326 
L 650.533436 -86.077597 
L 650.533436 -85.223868 
L 650.533436 -84.37014 
L 650.533436 -83.516411 
L 650.533436 -82.662682 
L 650.533436 -81.808954 
L 650.533436 -80.955225 
L 650.533436 -80.101496 
z
" style="stroke: #4c4c4c; stroke-width: 1.5"/>
    </defs>
    <g clip-path="url(#p3a9b0f5616)">
     <use xlink:href="#m406cc6f0bb" x="0" y="351.126562" style="fill: #5875a4; stroke: #4c4c4c; stroke-width: 1.5"/>
    </g>
   </g>
   <g id="PolyCollection_12">
    <defs>
     <path id="mfd7b82c86d" d="M 650.764651 -65.564429 
L 650.533436 -65.564429 
L 650.533436 -66.875355 
L 650.533436 -68.186282 
L 650.533436 -69.497208 
L 650.533436 -70.808135 
L 650.533436 -72.119062 
L 650.533436 -73.429988 
L 650.533436 -74.740915 
L 650.533436 -76.051841 
L 650.533436 -77.362768 
L 650.533436 -78.673694 
L 650.533436 -79.984621 
L 650.533436 -81.295548 
L 650.533436 -82.606474 
L 650.533436 -83.917401 
L 650.533436 -85.228327 
L 650.533436 -86.539254 
L 650.533436 -87.850181 
L 650.533436 -89.161107 
L 650.533436 -90.472034 
L 650.533436 -91.78296 
L 650.533436 -93.093887 
L 650.533436 -94.404813 
L 650.533436 -95.71574 
L 650.533436 -97.026667 
L 650.533436 -98.337593 
L 650.533436 -99.64852 
L 650.533436 -100.959446 
L 650.533436 -102.270373 
L 650.533436 -103.581299 
L 650.533436 -104.892226 
L 650.533436 -106.203153 
L 650.533436 -107.514079 
L 650.533436 -108.825006 
L 650.533436 -110.135932 
L 650.533436 -111.446859 
L 650.533436 -112.757785 
L 650.533436 -114.068712 
L 650.533436 -115.379639 
L 650.533436 -116.690565 
L 650.533436 -118.001492 
L 650.533436 -119.312418 
L 650.533436 -120.623345 
L 650.533436 -121.934271 
L 650.533436 -123.245198 
L 650.533436 -124.556125 
L 650.533436 -125.867051 
L 650.533436 -127.177978 
L 650.533436 -128.488904 
L 650.533436 -129.799831 
L 650.533436 -131.110758 
L 650.533436 -132.421684 
L 650.533436 -133.732611 
L 650.533436 -135.043537 
L 650.533436 -136.354464 
L 650.533436 -137.66539 
L 650.533436 -138.976317 
L 650.533436 -140.287244 
L 650.533436 -141.59817 
L 650.533436 -142.909097 
L 650.533436 -144.220023 
L 650.533436 -145.53095 
L 650.533436 -146.841876 
L 650.533436 -148.152803 
L 650.533436 -149.46373 
L 650.533436 -150.774656 
L 650.533436 -152.085583 
L 650.533436 -153.396509 
L 650.533436 -154.707436 
L 650.533436 -156.018362 
L 650.533436 -157.329289 
L 650.533436 -158.640216 
L 650.533436 -159.951142 
L 650.533436 -161.262069 
L 650.533436 -162.572995 
L 650.533436 -163.883922 
L 650.533436 -165.194848 
L 650.533436 -166.505775 
L 650.533436 -167.816702 
L 650.533436 -169.127628 
L 650.533436 -170.438555 
L 650.533436 -171.749481 
L 650.533436 -173.060408 
L 650.533436 -174.371335 
L 650.533436 -175.682261 
L 650.533436 -176.993188 
L 650.533436 -178.304114 
L 650.533436 -179.615041 
L 650.533436 -180.925967 
L 650.533436 -182.236894 
L 650.533436 -183.547821 
L 650.533436 -184.858747 
L 650.533436 -186.169674 
L 650.533436 -187.4806 
L 650.533436 -188.791527 
L 650.533436 -190.102453 
L 650.533436 -191.41338 
L 650.533436 -192.724307 
L 650.533436 -194.035233 
L 650.533436 -195.34616 
L 650.685427 -195.34616 
L 650.685427 -195.34616 
L 650.749903 -194.035233 
L 650.834864 -192.724307 
L 650.943975 -191.41338 
L 651.080557 -190.102453 
L 651.247219 -188.791527 
L 651.445485 -187.4806 
L 651.675451 -186.169674 
L 651.935534 -184.858747 
L 652.222355 -183.547821 
L 652.530779 -182.236894 
L 652.854135 -180.925967 
L 653.184596 -179.615041 
L 653.513691 -178.304114 
L 653.832903 -176.993188 
L 654.134294 -175.682261 
L 654.411095 -174.371335 
L 654.658221 -173.060408 
L 654.872652 -171.749481 
L 655.053642 -170.438555 
L 655.202748 -169.127628 
L 655.323649 -167.816702 
L 655.421774 -166.505775 
L 655.503758 -165.194848 
L 655.576772 -163.883922 
L 655.647799 -162.572995 
L 655.722946 -161.262069 
L 655.806878 -159.951142 
L 655.902473 -158.640216 
L 656.01074 -157.329289 
L 656.131042 -156.018362 
L 656.261567 -154.707436 
L 656.399986 -153.396509 
L 656.544149 -152.085583 
L 656.692705 -150.774656 
L 656.845499 -149.46373 
L 657.003675 -148.152803 
L 657.169469 -146.841876 
L 657.345756 -145.53095 
L 657.535461 -144.220023 
L 657.741007 -142.909097 
L 657.963945 -141.59817 
L 658.204885 -140.287244 
L 658.463758 -138.976317 
L 658.740381 -137.66539 
L 659.035179 -136.354464 
L 659.349919 -135.043537 
L 659.688264 -133.732611 
L 660.056007 -132.421684 
L 660.460904 -131.110758 
L 660.912112 -129.799831 
L 661.41929 -128.488904 
L 661.991518 -127.177978 
L 662.636163 -125.867051 
L 663.357847 -124.556125 
L 664.157627 -123.245198 
L 665.032422 -121.934271 
L 665.974712 -120.623345 
L 666.972438 -119.312418 
L 668.009075 -118.001492 
L 669.063786 -116.690565 
L 670.111653 -115.379639 
L 671.123986 -114.068712 
L 672.068771 -112.757785 
L 672.911358 -111.446859 
L 673.615504 -110.135932 
L 674.144877 -108.825006 
L 674.465041 -107.514079 
L 674.54589 -106.203153 
L 674.364349 -104.892226 
L 673.907065 -103.581299 
L 673.17272 -102.270373 
L 672.173567 -100.959446 
L 670.935847 -99.64852 
L 669.498849 -98.337593 
L 667.912569 -97.026667 
L 666.234149 -95.71574 
L 664.523458 -94.404813 
L 662.838352 -93.093887 
L 661.230196 -91.78296 
L 659.740232 -90.472034 
L 658.397204 -89.161107 
L 657.216493 -87.850181 
L 656.200758 -86.539254 
L 655.341863 -85.228327 
L 654.623713 -83.917401 
L 654.025493 -82.606474 
L 653.524853 -81.295548 
L 653.100591 -79.984621 
L 652.734585 -78.673694 
L 652.412842 -77.362768 
L 652.125714 -76.051841 
L 651.867434 -74.740915 
L 651.635225 -73.429988 
L 651.428228 -72.119062 
L 651.246467 -70.808135 
L 651.09002 -69.497208 
L 650.958472 -68.186282 
L 650.850658 -66.875355 
L 650.764651 -65.564429 
z
" style="stroke: #4c4c4c; stroke-width: 1.5"/>
    </defs>
    <g clip-path="url(#p3a9b0f5616)">
     <use xlink:href="#mfd7b82c86d" x="0" y="351.126562" style="fill: #cc8963; stroke: #4c4c4c; stroke-width: 1.5"/>
    </g>
   </g>
   <g id="line2d_23">
    <path d="M 435.195955 269.287916 
L 435.195955 196.42615 
" clip-path="url(#p3a9b0f5616)" style="fill: none; stroke: #4c4c4c; stroke-width: 1.5; stroke-linecap: round"/>
   </g>
   <g id="line2d_24">
    <path d="M 435.195955 257.594595 
L 435.195955 232.58871 
" clip-path="url(#p3a9b0f5616)" style="fill: none; stroke: #4c4c4c; stroke-width: 4.5; stroke-linecap: round"/>
   </g>
   <g id="line2d_25">
    <path d="M 542.864695 269.287916 
L 542.864695 199.325535 
" clip-path="url(#p3a9b0f5616)" style="fill: none; stroke: #4c4c4c; stroke-width: 1.5; stroke-linecap: round"/>
   </g>
   <g id="line2d_26">
    <path d="M 542.864695 256.401673 
L 542.864695 233.290442 
" clip-path="url(#p3a9b0f5616)" style="fill: none; stroke: #4c4c4c; stroke-width: 4.5; stroke-linecap: round"/>
   </g>
   <g id="line2d_27">
    <path d="M 650.533436 269.287916 
L 650.533436 196.031506 
" clip-path="url(#p3a9b0f5616)" style="fill: none; stroke: #4c4c4c; stroke-width: 1.5; stroke-linecap: round"/>
   </g>
   <g id="line2d_28">
    <path d="M 650.533436 249.830312 
L 650.533436 227.891663 
" clip-path="url(#p3a9b0f5616)" style="fill: none; stroke: #4c4c4c; stroke-width: 4.5; stroke-linecap: round"/>
   </g>
   <g id="patch_10">
    <path d="M 381.361584 313.292187 
L 381.361584 20.798437 
" style="fill: none; stroke: #262626; stroke-width: 0.8; stroke-linejoin: miter; stroke-linecap: square"/>
   </g>
   <g id="patch_11">
    <path d="M 381.361584 313.292187 
L 704.367806 313.292187 
" style="fill: none; stroke: #262626; stroke-width: 0.8; stroke-linejoin: miter; stroke-linecap: square"/>
   </g>
   <g id="PathCollection_4">
    <g clip-path="url(#p3a9b0f5616)">
     <use xlink:href="#m3d587f3a55" x="435.195955" y="252.018796" style="fill: #ffffff; stroke: #4c4c4c"/>
    </g>
   </g>
   <g id="PathCollection_5">
    <g clip-path="url(#p3a9b0f5616)">
     <use xlink:href="#m3d587f3a55" x="542.864695" y="249.566086" style="fill: #ffffff; stroke: #4c4c4c"/>
    </g>
   </g>
   <g id="PathCollection_6">
    <g clip-path="url(#p3a9b0f5616)">
     <use xlink:href="#m3d587f3a55" x="650.533436" y="243.810717" style="fill: #ffffff; stroke: #4c4c4c"/>
    </g>
   </g>
   <g id="text_16">
    <!-- Dyn_obs = 10.0 -->
    <g style="fill: #262626" transform="translate(503.047508 14.798437)scale(0.1 -0.1)">
     <use xlink:href="#DejaVuSans-44"/>
     <use xlink:href="#DejaVuSans-79" x="77.001953"/>
     <use xlink:href="#DejaVuSans-6e" x="136.181641"/>
     <use xlink:href="#DejaVuSans-5f" x="199.560547"/>
     <use xlink:href="#DejaVuSans-6f" x="249.560547"/>
     <use xlink:href="#DejaVuSans-62" x="310.742188"/>
     <use xlink:href="#DejaVuSans-73" x="374.21875"/>
     <use xlink:href="#DejaVuSans-20" x="426.318359"/>
     <use xlink:href="#DejaVuSans-3d" x="458.105469"/>
     <use xlink:href="#DejaVuSans-20" x="541.894531"/>
     <use xlink:href="#DejaVuSans-31" x="573.681641"/>
     <use xlink:href="#DejaVuSans-30" x="637.304688"/>
     <use xlink:href="#DejaVuSans-2e" x="700.927734"/>
     <use xlink:href="#DejaVuSans-30" x="732.714844"/>
    </g>
   </g>
  </g>
  <g id="legend_1">
   <g id="text_17">
    <!-- dim -->
    <g style="fill: #262626" transform="translate(724.216243 163.644531)scale(0.1 -0.1)">
     <use xlink:href="#DejaVuSans-64"/>
     <use xlink:href="#DejaVuSans-69" x="63.476562"/>
     <use xlink:href="#DejaVuSans-6d" x="91.259766"/>
    </g>
   </g>
   <g id="patch_12">
    <path d="M 713.294368 178.322656 
L 733.294368 178.322656 
L 733.294368 171.322656 
L 713.294368 171.322656 
z
" style="fill: #5875a4; stroke: #4c4c4c; stroke-width: 0.75; stroke-linejoin: miter"/>
   </g>
   <g id="text_18">
    <!-- 2d -->
    <g style="fill: #262626" transform="translate(741.294368 178.322656)scale(0.1 -0.1)">
     <use xlink:href="#DejaVuSans-32"/>
     <use xlink:href="#DejaVuSans-64" x="63.623047"/>
    </g>
   </g>
   <g id="patch_13">
    <path d="M 713.294368 193.000781 
L 733.294368 193.000781 
L 733.294368 186.000781 
L 713.294368 186.000781 
z
" style="fill: #cc8963; stroke: #4c4c4c; stroke-width: 0.75; stroke-linejoin: miter"/>
   </g>
   <g id="text_19">
    <!-- 3d -->
    <g style="fill: #262626" transform="translate(741.294368 193.000781)scale(0.1 -0.1)">
     <defs>
      <path id="DejaVuSans-33" d="M 2597 2516 
Q 3050 2419 3304 2112 
Q 3559 1806 3559 1356 
Q 3559 666 3084 287 
Q 2609 -91 1734 -91 
Q 1441 -91 1130 -33 
Q 819 25 488 141 
L 488 750 
Q 750 597 1062 519 
Q 1375 441 1716 441 
Q 2309 441 2620 675 
Q 2931 909 2931 1356 
Q 2931 1769 2642 2001 
Q 2353 2234 1838 2234 
L 1294 2234 
L 1294 2753 
L 1863 2753 
Q 2328 2753 2575 2939 
Q 2822 3125 2822 3475 
Q 2822 3834 2567 4026 
Q 2313 4219 1838 4219 
Q 1578 4219 1281 4162 
Q 984 4106 628 3988 
L 628 4550 
Q 988 4650 1302 4700 
Q 1616 4750 1894 4750 
Q 2613 4750 3031 4423 
Q 3450 4097 3450 3541 
Q 3450 3153 3228 2886 
Q 3006 2619 2597 2516 
z
" transform="scale(0.015625)"/>
     </defs>
     <use xlink:href="#DejaVuSans-33"/>
     <use xlink:href="#DejaVuSans-64" x="63.623047"/>
    </g>
   </g>
  </g>
 </g>
 <defs>
  <clipPath id="p1fd6eb0096">
   <rect x="44.059375" y="20.798437" width="323.006222" height="292.49375"/>
  </clipPath>
  <clipPath id="p3a9b0f5616">
   <rect x="381.361584" y="20.798437" width="323.006222" height="292.49375"/>
  </clipPath>
 </defs>
</svg>
