<?xml version="1.0" encoding="utf-8" standalone="no"?>
<!DOCTYPE svg PUBLIC "-//W3C//DTD SVG 1.1//EN"
  "http://www.w3.org/Graphics/SVG/1.1/DTD/svg11.dtd">
<svg xmlns:xlink="http://www.w3.org/1999/xlink" width="763.557812pt" height="351.126562pt" viewBox="0 0 763.557812 351.126562" xmlns="http://www.w3.org/2000/svg" version="1.1">
 <metadata>
  <rdf:RDF xmlns:dc="http://purl.org/dc/elements/1.1/" xmlns:cc="http://creativecommons.org/ns#" xmlns:rdf="http://www.w3.org/1999/02/22-rdf-syntax-ns#">
   <cc:Work>
    <dc:type rdf:resource="http://purl.org/dc/dcmitype/StillImage"/>
    <dc:date>2022-03-25T19:39:59.516917</dc:date>
    <dc:format>image/svg+xml</dc:format>
    <dc:creator>
     <cc:Agent>
      <dc:title>Matplotlib v3.5.1, https://matplotlib.org/</dc:title>
     </cc:Agent>
    </dc:creator>
   </cc:Work>
  </rdf:RDF>
 </metadata>
 <defs>
  <style type="text/css">*{stroke-linejoin: round; stroke-linecap: butt}</style>
 </defs>
 <g id="figure_1">
  <g id="patch_1">
   <path d="M -0 351.126562 
L 763.557812 351.126562 
L 763.557812 0 
L -0 0 
L -0 351.126562 
z
" style="fill: none"/>
  </g>
  <g id="axes_1">
   <g id="patch_2">
    <path d="M 48.982813 313.292187 
L 369.8066 313.292187 
L 369.8066 20.798437 
L 48.982813 20.798437 
z
" style="fill: #ffffff"/>
   </g>
   <g id="patch_3">
    <path d="M 102.453444 262.075002 
L 102.453444 262.075002 
L 102.453444 262.075002 
L 102.453444 262.075002 
z
" clip-path="url(#p203fdc760d)" style="fill: #3274a1; stroke: #3f3f3f; stroke-width: 0.75; stroke-linejoin: miter"/>
   </g>
   <g id="PolyCollection_1">
    <defs>
     <path id="md58f06c93e" d="M 102.453444 -65.734526 
L 101.394685 -65.734526 
L 101.074338 -68.193534 
L 100.682303 -70.652542 
L 100.210453 -73.11155 
L 99.651935 -75.570559 
L 99.00181 -78.029567 
L 98.257671 -80.488575 
L 97.420199 -82.947583 
L 96.493596 -85.406592 
L 95.485836 -87.8656 
L 94.408712 -90.324608 
L 93.277658 -92.783616 
L 92.111341 -95.242625 
L 90.931061 -97.701633 
L 89.760005 -100.160641 
L 88.622405 -102.619649 
L 87.542675 -105.078658 
L 86.544573 -107.537666 
L 85.650444 -109.996674 
L 84.880562 -112.455682 
L 84.252583 -114.91469 
L 83.781098 -117.373699 
L 83.477274 -119.832707 
L 83.348559 -122.291715 
L 83.39843 -124.750723 
L 83.626208 -127.209732 
L 84.026927 -129.66874 
L 84.59131 -132.127748 
L 85.305873 -134.586756 
L 86.153205 -137.045765 
L 87.112441 -139.504773 
L 88.159936 -141.963781 
L 89.270123 -144.422789 
L 90.416502 -146.881798 
L 91.57269 -149.340806 
L 92.713452 -151.799814 
L 93.815613 -154.258822 
L 94.85878 -156.71783 
L 95.825785 -159.176839 
L 96.702837 -161.635847 
L 97.47935 -164.094855 
L 98.14748 -166.553863 
L 98.701419 -169.012872 
L 99.136517 -171.47188 
L 99.448327 -173.930888 
L 99.631661 -176.389896 
L 99.679771 -178.848905 
L 99.583734 -181.307913 
L 99.332132 -183.766921 
L 98.911094 -186.225929 
L 98.304747 -188.684938 
L 97.496082 -191.143946 
L 96.46824 -193.602954 
L 95.206161 -196.061962 
L 93.698493 -198.52097 
L 91.939665 -200.979979 
L 89.931922 -203.438987 
L 87.687165 -205.897995 
L 85.228372 -208.357003 
L 82.590414 -210.816012 
L 79.820111 -213.27502 
L 76.975394 -215.734028 
L 74.123565 -218.193036 
L 71.338669 -220.652045 
L 68.698159 -223.111053 
L 66.279036 -225.570061 
L 64.153786 -228.029069 
L 62.386435 -230.488078 
L 61.029039 -232.947086 
L 60.118932 -235.406094 
L 59.676939 -237.865102 
L 59.706704 -240.32411 
L 60.195151 -242.783119 
L 61.113989 -245.242127 
L 62.422094 -247.701135 
L 64.068488 -250.160143 
L 65.995655 -252.619152 
L 68.142864 -255.07816 
L 70.449262 -257.537168 
L 72.856511 -259.996176 
L 75.310837 -262.455185 
L 77.764443 -264.914193 
L 80.176304 -267.373201 
L 82.512403 -269.832209 
L 84.745556 -272.291217 
L 86.854923 -274.750226 
L 88.82536 -277.209234 
L 90.646705 -279.668242 
L 92.313088 -282.12725 
L 93.8223 -284.586259 
L 95.175255 -287.045267 
L 96.375527 -289.504275 
L 97.428941 -291.963283 
L 98.343212 -294.422292 
L 99.127583 -296.8813 
L 99.79247 -299.340308 
L 100.3491 -301.799316 
L 100.80914 -304.258325 
L 101.184344 -306.717333 
L 101.486218 -309.176341 
L 102.453444 -309.176341 
L 102.453444 -309.176341 
L 102.453444 -306.717333 
L 102.453444 -304.258325 
L 102.453444 -301.799316 
L 102.453444 -299.340308 
L 102.453444 -296.8813 
L 102.453444 -294.422292 
L 102.453444 -291.963283 
L 102.453444 -289.504275 
L 102.453444 -287.045267 
L 102.453444 -284.586259 
L 102.453444 -282.12725 
L 102.453444 -279.668242 
L 102.453444 -277.209234 
L 102.453444 -274.750226 
L 102.453444 -272.291217 
L 102.453444 -269.832209 
L 102.453444 -267.373201 
L 102.453444 -264.914193 
L 102.453444 -262.455185 
L 102.453444 -259.996176 
L 102.453444 -257.537168 
L 102.453444 -255.07816 
L 102.453444 -252.619152 
L 102.453444 -250.160143 
L 102.453444 -247.701135 
L 102.453444 -245.242127 
L 102.453444 -242.783119 
L 102.453444 -240.32411 
L 102.453444 -237.865102 
L 102.453444 -235.406094 
L 102.453444 -232.947086 
L 102.453444 -230.488078 
L 102.453444 -228.029069 
L 102.453444 -225.570061 
L 102.453444 -223.111053 
L 102.453444 -220.652045 
L 102.453444 -218.193036 
L 102.453444 -215.734028 
L 102.453444 -213.27502 
L 102.453444 -210.816012 
L 102.453444 -208.357003 
L 102.453444 -205.897995 
L 102.453444 -203.438987 
L 102.453444 -200.979979 
L 102.453444 -198.52097 
L 102.453444 -196.061962 
L 102.453444 -193.602954 
L 102.453444 -191.143946 
L 102.453444 -188.684938 
L 102.453444 -186.225929 
L 102.453444 -183.766921 
L 102.453444 -181.307913 
L 102.453444 -178.848905 
L 102.453444 -176.389896 
L 102.453444 -173.930888 
L 102.453444 -171.47188 
L 102.453444 -169.012872 
L 102.453444 -166.553863 
L 102.453444 -164.094855 
L 102.453444 -161.635847 
L 102.453444 -159.176839 
L 102.453444 -156.71783 
L 102.453444 -154.258822 
L 102.453444 -151.799814 
L 102.453444 -149.340806 
L 102.453444 -146.881798 
L 102.453444 -144.422789 
L 102.453444 -141.963781 
L 102.453444 -139.504773 
L 102.453444 -137.045765 
L 102.453444 -134.586756 
L 102.453444 -132.127748 
L 102.453444 -129.66874 
L 102.453444 -127.209732 
L 102.453444 -124.750723 
L 102.453444 -122.291715 
L 102.453444 -119.832707 
L 102.453444 -117.373699 
L 102.453444 -114.91469 
L 102.453444 -112.455682 
L 102.453444 -109.996674 
L 102.453444 -107.537666 
L 102.453444 -105.078658 
L 102.453444 -102.619649 
L 102.453444 -100.160641 
L 102.453444 -97.701633 
L 102.453444 -95.242625 
L 102.453444 -92.783616 
L 102.453444 -90.324608 
L 102.453444 -87.8656 
L 102.453444 -85.406592 
L 102.453444 -82.947583 
L 102.453444 -80.488575 
L 102.453444 -78.029567 
L 102.453444 -75.570559 
L 102.453444 -73.11155 
L 102.453444 -70.652542 
L 102.453444 -68.193534 
L 102.453444 -65.734526 
z
" style="stroke: #3f3f3f; stroke-width: 1.5"/>
    </defs>
    <g clip-path="url(#p203fdc760d)">
     <use xlink:href="#md58f06c93e" x="0" y="351.126562" style="fill: #3274a1; stroke: #3f3f3f; stroke-width: 1.5"/>
    </g>
   </g>
   <g id="patch_4">
    <path d="M 102.453444 262.075002 
L 102.453444 262.075002 
L 102.453444 262.075002 
L 102.453444 262.075002 
z
" clip-path="url(#p203fdc760d)" style="fill: #e1812c; stroke: #3f3f3f; stroke-width: 0.75; stroke-linejoin: miter"/>
   </g>
   <g id="PolyCollection_2">
    <defs>
     <path id="mb0cb2e5a61" d="M 103.726627 -54.131235 
L 102.453444 -54.131235 
L 102.453444 -56.740278 
L 102.453444 -59.349321 
L 102.453444 -61.958364 
L 102.453444 -64.567407 
L 102.453444 -67.17645 
L 102.453444 -69.785493 
L 102.453444 -72.394536 
L 102.453444 -75.003578 
L 102.453444 -77.612621 
L 102.453444 -80.221664 
L 102.453444 -82.830707 
L 102.453444 -85.43975 
L 102.453444 -88.048793 
L 102.453444 -90.657836 
L 102.453444 -93.266879 
L 102.453444 -95.875922 
L 102.453444 -98.484965 
L 102.453444 -101.094008 
L 102.453444 -103.70305 
L 102.453444 -106.312093 
L 102.453444 -108.921136 
L 102.453444 -111.530179 
L 102.453444 -114.139222 
L 102.453444 -116.748265 
L 102.453444 -119.357308 
L 102.453444 -121.966351 
L 102.453444 -124.575394 
L 102.453444 -127.184437 
L 102.453444 -129.793479 
L 102.453444 -132.402522 
L 102.453444 -135.011565 
L 102.453444 -137.620608 
L 102.453444 -140.229651 
L 102.453444 -142.838694 
L 102.453444 -145.447737 
L 102.453444 -148.05678 
L 102.453444 -150.665823 
L 102.453444 -153.274866 
L 102.453444 -155.883909 
L 102.453444 -158.492951 
L 102.453444 -161.101994 
L 102.453444 -163.711037 
L 102.453444 -166.32008 
L 102.453444 -168.929123 
L 102.453444 -171.538166 
L 102.453444 -174.147209 
L 102.453444 -176.756252 
L 102.453444 -179.365295 
L 102.453444 -181.974338 
L 102.453444 -184.583381 
L 102.453444 -187.192423 
L 102.453444 -189.801466 
L 102.453444 -192.410509 
L 102.453444 -195.019552 
L 102.453444 -197.628595 
L 102.453444 -200.237638 
L 102.453444 -202.846681 
L 102.453444 -205.455724 
L 102.453444 -208.064767 
L 102.453444 -210.67381 
L 102.453444 -213.282853 
L 102.453444 -215.891895 
L 102.453444 -218.500938 
L 102.453444 -221.109981 
L 102.453444 -223.719024 
L 102.453444 -226.328067 
L 102.453444 -228.93711 
L 102.453444 -231.546153 
L 102.453444 -234.155196 
L 102.453444 -236.764239 
L 102.453444 -239.373282 
L 102.453444 -241.982324 
L 102.453444 -244.591367 
L 102.453444 -247.20041 
L 102.453444 -249.809453 
L 102.453444 -252.418496 
L 102.453444 -255.027539 
L 102.453444 -257.636582 
L 102.453444 -260.245625 
L 102.453444 -262.854668 
L 102.453444 -265.463711 
L 102.453444 -268.072754 
L 102.453444 -270.681796 
L 102.453444 -273.290839 
L 102.453444 -275.899882 
L 102.453444 -278.508925 
L 102.453444 -281.117968 
L 102.453444 -283.727011 
L 102.453444 -286.336054 
L 102.453444 -288.945097 
L 102.453444 -291.55414 
L 102.453444 -294.163183 
L 102.453444 -296.772226 
L 102.453444 -299.381268 
L 102.453444 -301.990311 
L 102.453444 -304.599354 
L 102.453444 -307.208397 
L 102.453444 -309.81744 
L 102.453444 -312.426483 
L 103.068651 -312.426483 
L 103.068651 -312.426483 
L 103.26913 -309.81744 
L 103.522637 -307.208397 
L 103.839165 -304.599354 
L 104.229405 -301.990311 
L 104.704435 -299.381268 
L 105.275301 -296.772226 
L 105.952479 -294.163183 
L 106.745217 -291.55414 
L 107.660774 -288.945097 
L 108.703585 -286.336054 
L 109.874379 -283.727011 
L 111.169326 -281.117968 
L 112.579254 -278.508925 
L 114.089043 -275.899882 
L 115.677254 -273.290839 
L 117.316093 -270.681796 
L 118.971764 -268.072754 
L 120.605272 -265.463711 
L 122.173669 -262.854668 
L 123.631738 -260.245625 
L 124.934035 -257.636582 
L 126.037177 -255.027539 
L 126.902223 -252.418496 
L 127.496985 -249.809453 
L 127.798072 -247.20041 
L 127.792498 -244.591367 
L 127.478712 -241.982324 
L 126.866953 -239.373282 
L 125.978887 -236.764239 
L 124.84655 -234.155196 
L 123.510698 -231.546153 
L 122.01869 -228.93711 
L 120.422087 -226.328067 
L 118.774164 -223.719024 
L 117.127519 -221.109981 
L 115.531943 -218.500938 
L 114.032674 -215.891895 
L 112.669096 -213.282853 
L 111.473917 -210.67381 
L 110.472768 -208.064767 
L 109.684174 -205.455724 
L 109.119782 -202.846681 
L 108.784748 -200.237638 
L 108.678188 -197.628595 
L 108.793615 -195.019552 
L 109.119328 -192.410509 
L 109.638744 -189.801466 
L 110.330709 -187.192423 
L 111.169845 -184.583381 
L 112.127015 -181.974338 
L 113.16998 -179.365295 
L 114.264312 -176.756252 
L 115.374596 -174.147209 
L 116.465922 -171.538166 
L 117.505589 -168.929123 
L 118.464942 -166.32008 
L 119.321171 -163.711037 
L 120.058904 -161.101994 
L 120.671417 -158.492951 
L 121.161265 -155.883909 
L 121.54022 -153.274866 
L 121.828427 -150.665823 
L 122.052773 -148.05678 
L 122.244553 -145.447737 
L 122.436586 -142.838694 
L 122.66003 -140.229651 
L 122.941158 -137.620608 
L 123.29842 -135.011565 
L 123.74008 -132.402522 
L 124.262701 -129.793479 
L 124.850641 -127.184437 
L 125.476668 -124.575394 
L 126.103677 -121.966351 
L 126.687362 -119.357308 
L 127.179624 -116.748265 
L 127.532405 -114.139222 
L 127.701581 -111.530179 
L 127.650569 -108.921136 
L 127.353299 -106.312093 
L 126.796293 -103.70305 
L 125.979683 -101.094008 
L 124.917106 -98.484965 
L 123.634535 -95.875922 
L 122.168201 -93.266879 
L 120.561837 -90.657836 
L 118.863554 -88.048793 
L 117.122615 -85.43975 
L 115.386431 -82.830707 
L 113.697976 -80.221664 
L 112.093818 -77.612621 
L 110.602837 -75.003578 
L 109.245651 -72.394536 
L 108.03469 -69.785493 
L 106.974818 -67.17645 
L 106.064351 -64.567407 
L 105.296324 -61.958364 
L 104.659869 -59.349321 
L 104.141558 -56.740278 
L 103.726627 -54.131235 
z
" style="stroke: #3f3f3f; stroke-width: 1.5"/>
    </defs>
    <g clip-path="url(#p203fdc760d)">
     <use xlink:href="#mb0cb2e5a61" x="0" y="351.126562" style="fill: #e1812c; stroke: #3f3f3f; stroke-width: 1.5"/>
    </g>
   </g>
   <g id="PolyCollection_3">
    <defs>
     <path id="m40902fa42b" d="M 209.394706 -74.903598 
L 208.576661 -74.903598 
L 208.257133 -77.161102 
L 207.849498 -79.418605 
L 207.344347 -81.676109 
L 206.736755 -83.933613 
L 206.028129 -86.191117 
L 205.227718 -88.44862 
L 204.353433 -90.706124 
L 203.431641 -92.963628 
L 202.495698 -95.221132 
L 201.58316 -97.478635 
L 200.731829 -99.736139 
L 199.975067 -101.993643 
L 199.336992 -104.251147 
L 198.828326 -106.50865 
L 198.443671 -108.766154 
L 198.160838 -111.023658 
L 197.942617 -113.281162 
L 197.74097 -115.538665 
L 197.503239 -117.796169 
L 197.179605 -120.053673 
L 196.730715 -122.311177 
L 196.134358 -124.56868 
L 195.390081 -126.826184 
L 194.520964 -129.083688 
L 193.572154 -131.341192 
L 192.606263 -133.598695 
L 191.696211 -135.856199 
L 190.916499 -138.113703 
L 190.334105 -140.371207 
L 190.000246 -142.62871 
L 189.944063 -144.886214 
L 190.168956 -147.143718 
L 190.651882 -149.401222 
L 191.345519 -151.658725 
L 192.182818 -153.916229 
L 193.083268 -156.173733 
L 193.960051 -158.431237 
L 194.72734 -160.68874 
L 195.307014 -162.946244 
L 195.634264 -165.203748 
L 195.66166 -167.461252 
L 195.361392 -169.718755 
L 194.725546 -171.976259 
L 193.764454 -174.233763 
L 192.503349 -176.491267 
L 190.97783 -178.74877 
L 189.228864 -181.006274 
L 187.298224 -183.263778 
L 185.225294 -185.521282 
L 183.045983 -187.778785 
L 180.79409 -190.036289 
L 178.504927 -192.293793 
L 176.220397 -194.551296 
L 173.994194 -196.8088 
L 171.895581 -199.066304 
L 170.010288 -201.323808 
L 168.437521 -203.581311 
L 167.282906 -205.838815 
L 166.648041 -208.096319 
L 166.618201 -210.353823 
L 167.250233 -212.611326 
L 168.562838 -214.86883 
L 170.531053 -217.126334 
L 173.086028 -219.383838 
L 176.120221 -221.641341 
L 179.497208 -223.898845 
L 183.064513 -226.156349 
L 186.667502 -228.413853 
L 190.162355 -230.671356 
L 193.4265 -232.92886 
L 196.365513 -235.186364 
L 198.916171 -237.443868 
L 201.046006 -239.701371 
L 202.750128 -241.958875 
L 204.046371 -244.216379 
L 204.969751 -246.473883 
L 205.567065 -248.731386 
L 205.892168 -250.98889 
L 206.002132 -253.246394 
L 205.954263 -255.503898 
L 205.803769 -257.761401 
L 205.601853 -260.018905 
L 205.394034 -262.276409 
L 205.218628 -264.533913 
L 205.105438 -266.791416 
L 205.074803 -269.04892 
L 205.137181 -271.306424 
L 205.293417 -273.563928 
L 205.535765 -275.821431 
L 205.849586 -278.078935 
L 206.215554 -280.336439 
L 206.612089 -282.593943 
L 207.017727 -284.851446 
L 207.413142 -287.10895 
L 207.782609 -289.366454 
L 208.114828 -291.623958 
L 208.403106 -293.881461 
L 208.644997 -296.138965 
L 208.841564 -298.396469 
L 209.394706 -298.396469 
L 209.394706 -298.396469 
L 209.394706 -296.138965 
L 209.394706 -293.881461 
L 209.394706 -291.623958 
L 209.394706 -289.366454 
L 209.394706 -287.10895 
L 209.394706 -284.851446 
L 209.394706 -282.593943 
L 209.394706 -280.336439 
L 209.394706 -278.078935 
L 209.394706 -275.821431 
L 209.394706 -273.563928 
L 209.394706 -271.306424 
L 209.394706 -269.04892 
L 209.394706 -266.791416 
L 209.394706 -264.533913 
L 209.394706 -262.276409 
L 209.394706 -260.018905 
L 209.394706 -257.761401 
L 209.394706 -255.503898 
L 209.394706 -253.246394 
L 209.394706 -250.98889 
L 209.394706 -248.731386 
L 209.394706 -246.473883 
L 209.394706 -244.216379 
L 209.394706 -241.958875 
L 209.394706 -239.701371 
L 209.394706 -237.443868 
L 209.394706 -235.186364 
L 209.394706 -232.92886 
L 209.394706 -230.671356 
L 209.394706 -228.413853 
L 209.394706 -226.156349 
L 209.394706 -223.898845 
L 209.394706 -221.641341 
L 209.394706 -219.383838 
L 209.394706 -217.126334 
L 209.394706 -214.86883 
L 209.394706 -212.611326 
L 209.394706 -210.353823 
L 209.394706 -208.096319 
L 209.394706 -205.838815 
L 209.394706 -203.581311 
L 209.394706 -201.323808 
L 209.394706 -199.066304 
L 209.394706 -196.8088 
L 209.394706 -194.551296 
L 209.394706 -192.293793 
L 209.394706 -190.036289 
L 209.394706 -187.778785 
L 209.394706 -185.521282 
L 209.394706 -183.263778 
L 209.394706 -181.006274 
L 209.394706 -178.74877 
L 209.394706 -176.491267 
L 209.394706 -174.233763 
L 209.394706 -171.976259 
L 209.394706 -169.718755 
L 209.394706 -167.461252 
L 209.394706 -165.203748 
L 209.394706 -162.946244 
L 209.394706 -160.68874 
L 209.394706 -158.431237 
L 209.394706 -156.173733 
L 209.394706 -153.916229 
L 209.394706 -151.658725 
L 209.394706 -149.401222 
L 209.394706 -147.143718 
L 209.394706 -144.886214 
L 209.394706 -142.62871 
L 209.394706 -140.371207 
L 209.394706 -138.113703 
L 209.394706 -135.856199 
L 209.394706 -133.598695 
L 209.394706 -131.341192 
L 209.394706 -129.083688 
L 209.394706 -126.826184 
L 209.394706 -124.56868 
L 209.394706 -122.311177 
L 209.394706 -120.053673 
L 209.394706 -117.796169 
L 209.394706 -115.538665 
L 209.394706 -113.281162 
L 209.394706 -111.023658 
L 209.394706 -108.766154 
L 209.394706 -106.50865 
L 209.394706 -104.251147 
L 209.394706 -101.993643 
L 209.394706 -99.736139 
L 209.394706 -97.478635 
L 209.394706 -95.221132 
L 209.394706 -92.963628 
L 209.394706 -90.706124 
L 209.394706 -88.44862 
L 209.394706 -86.191117 
L 209.394706 -83.933613 
L 209.394706 -81.676109 
L 209.394706 -79.418605 
L 209.394706 -77.161102 
L 209.394706 -74.903598 
z
" style="stroke: #3f3f3f; stroke-width: 1.5"/>
    </defs>
    <g clip-path="url(#p203fdc760d)">
     <use xlink:href="#m40902fa42b" x="0" y="351.126562" style="fill: #3274a1; stroke: #3f3f3f; stroke-width: 1.5"/>
    </g>
   </g>
   <g id="PolyCollection_4">
    <defs>
     <path id="m33b4c10f34" d="M 210.243365 -56.885007 
L 209.394706 -56.885007 
L 209.394706 -59.413446 
L 209.394706 -61.941885 
L 209.394706 -64.470325 
L 209.394706 -66.998764 
L 209.394706 -69.527203 
L 209.394706 -72.055642 
L 209.394706 -74.584081 
L 209.394706 -77.11252 
L 209.394706 -79.64096 
L 209.394706 -82.169399 
L 209.394706 -84.697838 
L 209.394706 -87.226277 
L 209.394706 -89.754716 
L 209.394706 -92.283155 
L 209.394706 -94.811594 
L 209.394706 -97.340034 
L 209.394706 -99.868473 
L 209.394706 -102.396912 
L 209.394706 -104.925351 
L 209.394706 -107.45379 
L 209.394706 -109.982229 
L 209.394706 -112.510669 
L 209.394706 -115.039108 
L 209.394706 -117.567547 
L 209.394706 -120.095986 
L 209.394706 -122.624425 
L 209.394706 -125.152864 
L 209.394706 -127.681303 
L 209.394706 -130.209743 
L 209.394706 -132.738182 
L 209.394706 -135.266621 
L 209.394706 -137.79506 
L 209.394706 -140.323499 
L 209.394706 -142.851938 
L 209.394706 -145.380377 
L 209.394706 -147.908817 
L 209.394706 -150.437256 
L 209.394706 -152.965695 
L 209.394706 -155.494134 
L 209.394706 -158.022573 
L 209.394706 -160.551012 
L 209.394706 -163.079452 
L 209.394706 -165.607891 
L 209.394706 -168.13633 
L 209.394706 -170.664769 
L 209.394706 -173.193208 
L 209.394706 -175.721647 
L 209.394706 -178.250086 
L 209.394706 -180.778526 
L 209.394706 -183.306965 
L 209.394706 -185.835404 
L 209.394706 -188.363843 
L 209.394706 -190.892282 
L 209.394706 -193.420721 
L 209.394706 -195.94916 
L 209.394706 -198.4776 
L 209.394706 -201.006039 
L 209.394706 -203.534478 
L 209.394706 -206.062917 
L 209.394706 -208.591356 
L 209.394706 -211.119795 
L 209.394706 -213.648235 
L 209.394706 -216.176674 
L 209.394706 -218.705113 
L 209.394706 -221.233552 
L 209.394706 -223.761991 
L 209.394706 -226.29043 
L 209.394706 -228.818869 
L 209.394706 -231.347309 
L 209.394706 -233.875748 
L 209.394706 -236.404187 
L 209.394706 -238.932626 
L 209.394706 -241.461065 
L 209.394706 -243.989504 
L 209.394706 -246.517943 
L 209.394706 -249.046383 
L 209.394706 -251.574822 
L 209.394706 -254.103261 
L 209.394706 -256.6317 
L 209.394706 -259.160139 
L 209.394706 -261.688578 
L 209.394706 -264.217018 
L 209.394706 -266.745457 
L 209.394706 -269.273896 
L 209.394706 -271.802335 
L 209.394706 -274.330774 
L 209.394706 -276.859213 
L 209.394706 -279.387652 
L 209.394706 -281.916092 
L 209.394706 -284.444531 
L 209.394706 -286.97297 
L 209.394706 -289.501409 
L 209.394706 -292.029848 
L 209.394706 -294.558287 
L 209.394706 -297.086727 
L 209.394706 -299.615166 
L 209.394706 -302.143605 
L 209.394706 -304.672044 
L 209.394706 -307.200483 
L 210.21562 -307.200483 
L 210.21562 -307.200483 
L 210.465951 -304.672044 
L 210.768367 -302.143605 
L 211.125743 -299.615166 
L 211.538647 -297.086727 
L 212.004769 -294.558287 
L 212.518502 -292.029848 
L 213.070764 -289.501409 
L 213.649123 -286.97297 
L 214.23827 -284.444531 
L 214.820856 -281.916092 
L 215.37863 -279.387652 
L 215.893827 -276.859213 
L 216.350656 -274.330774 
L 216.736765 -271.802335 
L 217.044534 -269.273896 
L 217.272056 -266.745457 
L 217.423702 -264.217018 
L 217.510228 -261.688578 
L 217.548393 -259.160139 
L 217.560128 -256.6317 
L 217.571326 -254.103261 
L 217.610342 -251.574822 
L 217.706293 -249.046383 
L 217.887256 -246.517943 
L 218.178458 -243.989504 
L 218.600514 -241.461065 
L 219.167808 -238.932626 
L 219.887071 -236.404187 
L 220.75625 -233.875748 
L 221.763755 -231.347309 
L 222.88819 -228.818869 
L 224.098662 -226.29043 
L 225.355744 -223.761991 
L 226.613141 -221.233552 
L 227.820026 -218.705113 
L 228.923966 -216.176674 
L 229.874264 -213.648235 
L 230.625477 -211.119795 
L 231.140817 -208.591356 
L 231.395124 -206.062917 
L 231.377118 -203.534478 
L 231.090672 -201.006039 
L 230.554964 -198.4776 
L 229.803455 -195.94916 
L 228.88177 -193.420721 
L 227.844663 -190.892282 
L 226.752342 -188.363843 
L 225.666488 -185.835404 
L 224.646299 -183.306965 
L 223.744886 -180.778526 
L 223.00629 -178.250086 
L 222.463282 -175.721647 
L 222.136071 -173.193208 
L 222.031917 -170.664769 
L 222.145609 -168.13633 
L 222.460695 -165.607891 
L 222.951334 -163.079452 
L 223.584612 -160.551012 
L 224.323167 -158.022573 
L 225.127937 -155.494134 
L 225.960879 -152.965695 
L 226.787465 -150.437256 
L 227.578781 -147.908817 
L 228.313057 -145.380377 
L 228.976479 -142.851938 
L 229.563179 -140.323499 
L 230.074377 -137.79506 
L 230.516725 -135.266621 
L 230.900017 -132.738182 
L 231.234514 -130.209743 
L 231.528202 -127.681303 
L 231.784362 -125.152864 
L 231.999787 -122.624425 
L 232.163932 -120.095986 
L 232.259172 -117.567547 
L 232.262185 -115.039108 
L 232.146322 -112.510669 
L 231.884677 -109.982229 
L 231.453469 -107.45379 
L 230.835291 -104.925351 
L 230.021779 -102.396912 
L 229.015375 -99.868473 
L 227.829924 -97.340034 
L 226.490084 -94.811594 
L 225.0296 -92.283155 
L 223.488718 -89.754716 
L 221.911067 -87.226277 
L 220.340374 -84.697838 
L 218.817416 -82.169399 
L 217.377477 -79.64096 
L 216.048554 -77.11252 
L 214.850385 -74.584081 
L 213.794293 -72.055642 
L 212.883738 -69.527203 
L 212.115407 -66.998764 
L 211.480641 -64.470325 
L 210.966997 -61.941885 
L 210.559773 -59.413446 
L 210.243365 -56.885007 
z
" style="stroke: #3f3f3f; stroke-width: 1.5"/>
    </defs>
    <g clip-path="url(#p203fdc760d)">
     <use xlink:href="#m33b4c10f34" x="0" y="351.126562" style="fill: #e1812c; stroke: #3f3f3f; stroke-width: 1.5"/>
    </g>
   </g>
   <g id="PolyCollection_5">
    <defs>
     <path id="m11907143b6" d="M 316.335969 -76.648842 
L 315.978217 -76.648842 
L 315.805288 -78.891502 
L 315.564273 -81.134163 
L 315.235806 -83.376823 
L 314.798132 -85.619484 
L 314.228025 -87.862144 
L 313.502207 -90.104804 
L 312.599241 -92.347465 
L 311.501831 -94.590125 
L 310.199371 -96.832786 
L 308.690493 -99.075446 
L 306.985353 -101.318107 
L 305.107331 -103.560767 
L 303.093862 -105.803428 
L 300.996174 -108.046088 
L 298.877779 -110.288749 
L 296.81172 -112.531409 
L 294.876664 -114.77407 
L 293.152088 -117.01673 
L 291.712893 -119.259391 
L 290.623882 -121.502051 
L 289.934563 -123.744712 
L 289.674777 -125.987372 
L 289.85157 -128.230033 
L 290.44767 -130.472693 
L 291.421761 -132.715354 
L 292.710581 -134.958014 
L 294.232672 -137.200675 
L 295.893418 -139.443335 
L 297.590877 -141.685995 
L 299.221839 -143.928656 
L 300.687556 -146.171316 
L 301.898688 -148.413977 
L 302.779187 -150.656637 
L 303.269016 -152.899298 
L 303.325779 -155.141958 
L 302.925486 -157.384619 
L 302.0627 -159.627279 
L 300.750312 -161.86994 
L 299.019079 -164.1126 
L 296.916931 -166.355261 
L 294.507931 -168.597921 
L 291.870692 -170.840582 
L 289.096021 -173.083242 
L 286.283637 -175.325903 
L 283.537938 -177.568563 
L 280.962964 -179.811224 
L 278.656885 -182.053884 
L 276.706503 -184.296545 
L 275.18233 -186.539205 
L 274.13479 -188.781865 
L 273.592015 -191.024526 
L 273.559464 -193.267186 
L 274.0214 -195.509847 
L 274.943972 -197.752507 
L 276.27942 -199.995168 
L 277.970811 -202.237828 
L 279.956642 -204.480489 
L 282.174751 -206.723149 
L 284.565173 -208.96581 
L 287.071784 -211.20847 
L 289.642849 -213.451131 
L 292.230787 -215.693791 
L 294.791546 -217.936452 
L 297.284005 -220.179112 
L 299.669695 -222.421773 
L 301.913 -224.664433 
L 303.981813 -226.907094 
L 305.848481 -229.149754 
L 307.490817 -231.392415 
L 308.89296 -233.635075 
L 310.045918 -235.877736 
L 310.947757 -238.120396 
L 311.603458 -240.363056 
L 312.024577 -242.605717 
L 312.22881 -244.848377 
L 312.239566 -247.091038 
L 312.085544 -249.333698 
L 311.80024 -251.576359 
L 311.421254 -253.819019 
L 310.989224 -256.06168 
L 310.546272 -258.30434 
L 310.133954 -260.547001 
L 309.790792 -262.789661 
L 309.549651 -265.032322 
L 309.435286 -267.274982 
L 309.462419 -269.517643 
L 309.634694 -271.760303 
L 309.944709 -274.002964 
L 310.375169 -276.245624 
L 310.901031 -278.488285 
L 311.492342 -280.730945 
L 312.117364 -282.973606 
L 312.745594 -285.216266 
L 313.350273 -287.458927 
L 313.910163 -289.701587 
L 314.410453 -291.944247 
L 314.842833 -294.186908 
L 315.204878 -296.429568 
L 315.498964 -298.672229 
L 316.335969 -298.672229 
L 316.335969 -298.672229 
L 316.335969 -296.429568 
L 316.335969 -294.186908 
L 316.335969 -291.944247 
L 316.335969 -289.701587 
L 316.335969 -287.458927 
L 316.335969 -285.216266 
L 316.335969 -282.973606 
L 316.335969 -280.730945 
L 316.335969 -278.488285 
L 316.335969 -276.245624 
L 316.335969 -274.002964 
L 316.335969 -271.760303 
L 316.335969 -269.517643 
L 316.335969 -267.274982 
L 316.335969 -265.032322 
L 316.335969 -262.789661 
L 316.335969 -260.547001 
L 316.335969 -258.30434 
L 316.335969 -256.06168 
L 316.335969 -253.819019 
L 316.335969 -251.576359 
L 316.335969 -249.333698 
L 316.335969 -247.091038 
L 316.335969 -244.848377 
L 316.335969 -242.605717 
L 316.335969 -240.363056 
L 316.335969 -238.120396 
L 316.335969 -235.877736 
L 316.335969 -233.635075 
L 316.335969 -231.392415 
L 316.335969 -229.149754 
L 316.335969 -226.907094 
L 316.335969 -224.664433 
L 316.335969 -222.421773 
L 316.335969 -220.179112 
L 316.335969 -217.936452 
L 316.335969 -215.693791 
L 316.335969 -213.451131 
L 316.335969 -211.20847 
L 316.335969 -208.96581 
L 316.335969 -206.723149 
L 316.335969 -204.480489 
L 316.335969 -202.237828 
L 316.335969 -199.995168 
L 316.335969 -197.752507 
L 316.335969 -195.509847 
L 316.335969 -193.267186 
L 316.335969 -191.024526 
L 316.335969 -188.781865 
L 316.335969 -186.539205 
L 316.335969 -184.296545 
L 316.335969 -182.053884 
L 316.335969 -179.811224 
L 316.335969 -177.568563 
L 316.335969 -175.325903 
L 316.335969 -173.083242 
L 316.335969 -170.840582 
L 316.335969 -168.597921 
L 316.335969 -166.355261 
L 316.335969 -164.1126 
L 316.335969 -161.86994 
L 316.335969 -159.627279 
L 316.335969 -157.384619 
L 316.335969 -155.141958 
L 316.335969 -152.899298 
L 316.335969 -150.656637 
L 316.335969 -148.413977 
L 316.335969 -146.171316 
L 316.335969 -143.928656 
L 316.335969 -141.685995 
L 316.335969 -139.443335 
L 316.335969 -137.200675 
L 316.335969 -134.958014 
L 316.335969 -132.715354 
L 316.335969 -130.472693 
L 316.335969 -128.230033 
L 316.335969 -125.987372 
L 316.335969 -123.744712 
L 316.335969 -121.502051 
L 316.335969 -119.259391 
L 316.335969 -117.01673 
L 316.335969 -114.77407 
L 316.335969 -112.531409 
L 316.335969 -110.288749 
L 316.335969 -108.046088 
L 316.335969 -105.803428 
L 316.335969 -103.560767 
L 316.335969 -101.318107 
L 316.335969 -99.075446 
L 316.335969 -96.832786 
L 316.335969 -94.590125 
L 316.335969 -92.347465 
L 316.335969 -90.104804 
L 316.335969 -87.862144 
L 316.335969 -85.619484 
L 316.335969 -83.376823 
L 316.335969 -81.134163 
L 316.335969 -78.891502 
L 316.335969 -76.648842 
z
" style="stroke: #3f3f3f; stroke-width: 1.5"/>
    </defs>
    <g clip-path="url(#p203fdc760d)">
     <use xlink:href="#m11907143b6" x="0" y="351.126562" style="fill: #3274a1; stroke: #3f3f3f; stroke-width: 1.5"/>
    </g>
   </g>
   <g id="PolyCollection_6">
    <defs>
     <path id="meb6c7ad15a" d="M 318.721071 -62.59941 
L 316.335969 -62.59941 
L 316.335969 -65.040269 
L 316.335969 -67.481128 
L 316.335969 -69.921987 
L 316.335969 -72.362846 
L 316.335969 -74.803705 
L 316.335969 -77.244564 
L 316.335969 -79.685423 
L 316.335969 -82.126282 
L 316.335969 -84.567141 
L 316.335969 -87.008 
L 316.335969 -89.448859 
L 316.335969 -91.889718 
L 316.335969 -94.330577 
L 316.335969 -96.771436 
L 316.335969 -99.212295 
L 316.335969 -101.653154 
L 316.335969 -104.094013 
L 316.335969 -106.534872 
L 316.335969 -108.975731 
L 316.335969 -111.41659 
L 316.335969 -113.857449 
L 316.335969 -116.298308 
L 316.335969 -118.739167 
L 316.335969 -121.180026 
L 316.335969 -123.620885 
L 316.335969 -126.061744 
L 316.335969 -128.502603 
L 316.335969 -130.943462 
L 316.335969 -133.384321 
L 316.335969 -135.82518 
L 316.335969 -138.266039 
L 316.335969 -140.706898 
L 316.335969 -143.147757 
L 316.335969 -145.588616 
L 316.335969 -148.029475 
L 316.335969 -150.470334 
L 316.335969 -152.911193 
L 316.335969 -155.352052 
L 316.335969 -157.792911 
L 316.335969 -160.23377 
L 316.335969 -162.674629 
L 316.335969 -165.115488 
L 316.335969 -167.556347 
L 316.335969 -169.997206 
L 316.335969 -172.438065 
L 316.335969 -174.878924 
L 316.335969 -177.319783 
L 316.335969 -179.760642 
L 316.335969 -182.201501 
L 316.335969 -184.64236 
L 316.335969 -187.083219 
L 316.335969 -189.524078 
L 316.335969 -191.964937 
L 316.335969 -194.405796 
L 316.335969 -196.846655 
L 316.335969 -199.287514 
L 316.335969 -201.728373 
L 316.335969 -204.169232 
L 316.335969 -206.610091 
L 316.335969 -209.05095 
L 316.335969 -211.491809 
L 316.335969 -213.932668 
L 316.335969 -216.373527 
L 316.335969 -218.814386 
L 316.335969 -221.255245 
L 316.335969 -223.696104 
L 316.335969 -226.136963 
L 316.335969 -228.577822 
L 316.335969 -231.018681 
L 316.335969 -233.45954 
L 316.335969 -235.900399 
L 316.335969 -238.341258 
L 316.335969 -240.782117 
L 316.335969 -243.222976 
L 316.335969 -245.663835 
L 316.335969 -248.104694 
L 316.335969 -250.545553 
L 316.335969 -252.986412 
L 316.335969 -255.427271 
L 316.335969 -257.86813 
L 316.335969 -260.308989 
L 316.335969 -262.749848 
L 316.335969 -265.190707 
L 316.335969 -267.631566 
L 316.335969 -270.072425 
L 316.335969 -272.513284 
L 316.335969 -274.954143 
L 316.335969 -277.395002 
L 316.335969 -279.835861 
L 316.335969 -282.27672 
L 316.335969 -284.717579 
L 316.335969 -287.158438 
L 316.335969 -289.599297 
L 316.335969 -292.040156 
L 316.335969 -294.481015 
L 316.335969 -296.921874 
L 316.335969 -299.362733 
L 316.335969 -301.803592 
L 316.335969 -304.244451 
L 316.743016 -304.244451 
L 316.743016 -304.244451 
L 316.875843 -301.803592 
L 317.03864 -299.362733 
L 317.23355 -296.921874 
L 317.461396 -294.481015 
L 317.721309 -292.040156 
L 318.010443 -289.599297 
L 318.323854 -287.158438 
L 318.654564 -284.717579 
L 318.993878 -282.27672 
L 319.331911 -279.835861 
L 319.658334 -277.395002 
L 319.963249 -274.954143 
L 320.238115 -272.513284 
L 320.476622 -270.072425 
L 320.675403 -267.631566 
L 320.834521 -265.190707 
L 320.95765 -262.749848 
L 321.051965 -260.308989 
L 321.12775 -257.86813 
L 321.197794 -255.427271 
L 321.276658 -252.986412 
L 321.379901 -250.545553 
L 321.523347 -248.104694 
L 321.722443 -245.663835 
L 321.991743 -243.222976 
L 322.344483 -240.782117 
L 322.792247 -238.341258 
L 323.344623 -235.900399 
L 324.008826 -233.45954 
L 324.789211 -231.018681 
L 325.686678 -228.577822 
L 326.69796 -226.136963 
L 327.814861 -223.696104 
L 329.023539 -221.255245 
L 330.303954 -218.814386 
L 331.629625 -216.373527 
L 332.967838 -213.932668 
L 334.280414 -211.491809 
L 335.525097 -209.05095 
L 336.657555 -206.610091 
L 337.63391 -204.169232 
L 338.413632 -201.728373 
L 338.962559 -199.287514 
L 339.255776 -196.846655 
L 339.280067 -194.405796 
L 339.035674 -191.964937 
L 338.53716 -189.524078 
L 337.813256 -187.083219 
L 336.905663 -184.64236 
L 335.866881 -182.201501 
L 334.757227 -179.760642 
L 333.641248 -177.319783 
L 332.583824 -174.878924 
L 331.646202 -172.438065 
L 330.882267 -169.997206 
L 330.335279 -167.556347 
L 330.035315 -165.115488 
L 329.997588 -162.674629 
L 330.221789 -160.23377 
L 330.692555 -157.792911 
L 331.381087 -155.352052 
L 332.247859 -152.911193 
L 333.24629 -150.470334 
L 334.3271 -148.029475 
L 335.442963 -145.588616 
L 336.553005 -143.147757 
L 337.62657 -140.706898 
L 338.64576 -138.266039 
L 339.606277 -135.82518 
L 340.516317 -133.384321 
L 341.393489 -130.943462 
L 342.260047 -128.502603 
L 343.136997 -126.061744 
L 344.037913 -123.620885 
L 344.963383 -121.180026 
L 345.897047 -118.739167 
L 346.803971 -116.298308 
L 347.63183 -113.857449 
L 348.314906 -111.41659 
L 348.780514 -108.975731 
L 348.95702 -106.534872 
L 348.782371 -104.094013 
L 348.211931 -101.653154 
L 347.224514 -99.212295 
L 345.825774 -96.771436 
L 344.048538 -94.330577 
L 341.950077 -91.889718 
L 339.606811 -89.448859 
L 337.107229 -87.008 
L 334.544019 -84.567141 
L 332.006426 -82.126282 
L 329.573707 -79.685423 
L 327.310314 -77.244564 
L 325.263112 -74.803705 
L 323.460655 -72.362846 
L 321.914236 -69.921987 
L 320.620295 -67.481128 
L 319.563656 -65.040269 
L 318.721071 -62.59941 
z
" style="stroke: #3f3f3f; stroke-width: 1.5"/>
    </defs>
    <g clip-path="url(#p203fdc760d)">
     <use xlink:href="#meb6c7ad15a" x="0" y="351.126562" style="fill: #e1812c; stroke: #3f3f3f; stroke-width: 1.5"/>
    </g>
   </g>
   <g id="matplotlib.axis_1">
    <g id="xtick_1">
     <g id="line2d_1">
      <defs>
       <path id="m1c9af8c7bd" d="M 0 0 
L 0 3.5 
" style="stroke: #000000; stroke-width: 0.8"/>
      </defs>
      <g>
       <use xlink:href="#m1c9af8c7bd" x="102.453444" y="313.292187" style="stroke: #000000; stroke-width: 0.8"/>
      </g>
     </g>
     <g id="text_1">
      <!-- map2 -->
      <g transform="translate(88.1636 327.890625)scale(0.1 -0.1)">
       <defs>
        <path id="DejaVuSans-6d" d="M 3328 2828 
Q 3544 3216 3844 3400 
Q 4144 3584 4550 3584 
Q 5097 3584 5394 3201 
Q 5691 2819 5691 2113 
L 5691 0 
L 5113 0 
L 5113 2094 
Q 5113 2597 4934 2840 
Q 4756 3084 4391 3084 
Q 3944 3084 3684 2787 
Q 3425 2491 3425 1978 
L 3425 0 
L 2847 0 
L 2847 2094 
Q 2847 2600 2669 2842 
Q 2491 3084 2119 3084 
Q 1678 3084 1418 2786 
Q 1159 2488 1159 1978 
L 1159 0 
L 581 0 
L 581 3500 
L 1159 3500 
L 1159 2956 
Q 1356 3278 1631 3431 
Q 1906 3584 2284 3584 
Q 2666 3584 2933 3390 
Q 3200 3197 3328 2828 
z
" transform="scale(0.015625)"/>
        <path id="DejaVuSans-61" d="M 2194 1759 
Q 1497 1759 1228 1600 
Q 959 1441 959 1056 
Q 959 750 1161 570 
Q 1363 391 1709 391 
Q 2188 391 2477 730 
Q 2766 1069 2766 1631 
L 2766 1759 
L 2194 1759 
z
M 3341 1997 
L 3341 0 
L 2766 0 
L 2766 531 
Q 2569 213 2275 61 
Q 1981 -91 1556 -91 
Q 1019 -91 701 211 
Q 384 513 384 1019 
Q 384 1609 779 1909 
Q 1175 2209 1959 2209 
L 2766 2209 
L 2766 2266 
Q 2766 2663 2505 2880 
Q 2244 3097 1772 3097 
Q 1472 3097 1187 3025 
Q 903 2953 641 2809 
L 641 3341 
Q 956 3463 1253 3523 
Q 1550 3584 1831 3584 
Q 2591 3584 2966 3190 
Q 3341 2797 3341 1997 
z
" transform="scale(0.015625)"/>
        <path id="DejaVuSans-70" d="M 1159 525 
L 1159 -1331 
L 581 -1331 
L 581 3500 
L 1159 3500 
L 1159 2969 
Q 1341 3281 1617 3432 
Q 1894 3584 2278 3584 
Q 2916 3584 3314 3078 
Q 3713 2572 3713 1747 
Q 3713 922 3314 415 
Q 2916 -91 2278 -91 
Q 1894 -91 1617 61 
Q 1341 213 1159 525 
z
M 3116 1747 
Q 3116 2381 2855 2742 
Q 2594 3103 2138 3103 
Q 1681 3103 1420 2742 
Q 1159 2381 1159 1747 
Q 1159 1113 1420 752 
Q 1681 391 2138 391 
Q 2594 391 2855 752 
Q 3116 1113 3116 1747 
z
" transform="scale(0.015625)"/>
        <path id="DejaVuSans-32" d="M 1228 531 
L 3431 531 
L 3431 0 
L 469 0 
L 469 531 
Q 828 903 1448 1529 
Q 2069 2156 2228 2338 
Q 2531 2678 2651 2914 
Q 2772 3150 2772 3378 
Q 2772 3750 2511 3984 
Q 2250 4219 1831 4219 
Q 1534 4219 1204 4116 
Q 875 4013 500 3803 
L 500 4441 
Q 881 4594 1212 4672 
Q 1544 4750 1819 4750 
Q 2544 4750 2975 4387 
Q 3406 4025 3406 3419 
Q 3406 3131 3298 2873 
Q 3191 2616 2906 2266 
Q 2828 2175 2409 1742 
Q 1991 1309 1228 531 
z
" transform="scale(0.015625)"/>
       </defs>
       <use xlink:href="#DejaVuSans-6d"/>
       <use xlink:href="#DejaVuSans-61" x="97.412109"/>
       <use xlink:href="#DejaVuSans-70" x="158.691406"/>
       <use xlink:href="#DejaVuSans-32" x="222.167969"/>
      </g>
     </g>
    </g>
    <g id="xtick_2">
     <g id="line2d_2">
      <g>
       <use xlink:href="#m1c9af8c7bd" x="209.394706" y="313.292187" style="stroke: #000000; stroke-width: 0.8"/>
      </g>
     </g>
     <g id="text_2">
      <!-- map5 -->
      <g transform="translate(195.104863 327.890625)scale(0.1 -0.1)">
       <defs>
        <path id="DejaVuSans-35" d="M 691 4666 
L 3169 4666 
L 3169 4134 
L 1269 4134 
L 1269 2991 
Q 1406 3038 1543 3061 
Q 1681 3084 1819 3084 
Q 2600 3084 3056 2656 
Q 3513 2228 3513 1497 
Q 3513 744 3044 326 
Q 2575 -91 1722 -91 
Q 1428 -91 1123 -41 
Q 819 9 494 109 
L 494 744 
Q 775 591 1075 516 
Q 1375 441 1709 441 
Q 2250 441 2565 725 
Q 2881 1009 2881 1497 
Q 2881 1984 2565 2268 
Q 2250 2553 1709 2553 
Q 1456 2553 1204 2497 
Q 953 2441 691 2322 
L 691 4666 
z
" transform="scale(0.015625)"/>
       </defs>
       <use xlink:href="#DejaVuSans-6d"/>
       <use xlink:href="#DejaVuSans-61" x="97.412109"/>
       <use xlink:href="#DejaVuSans-70" x="158.691406"/>
       <use xlink:href="#DejaVuSans-35" x="222.167969"/>
      </g>
     </g>
    </g>
    <g id="xtick_3">
     <g id="line2d_3">
      <g>
       <use xlink:href="#m1c9af8c7bd" x="316.335969" y="313.292187" style="stroke: #000000; stroke-width: 0.8"/>
      </g>
     </g>
     <g id="text_3">
      <!-- small_warehouse -->
      <g transform="translate(273.268 327.890625)scale(0.1 -0.1)">
       <defs>
        <path id="DejaVuSans-73" d="M 2834 3397 
L 2834 2853 
Q 2591 2978 2328 3040 
Q 2066 3103 1784 3103 
Q 1356 3103 1142 2972 
Q 928 2841 928 2578 
Q 928 2378 1081 2264 
Q 1234 2150 1697 2047 
L 1894 2003 
Q 2506 1872 2764 1633 
Q 3022 1394 3022 966 
Q 3022 478 2636 193 
Q 2250 -91 1575 -91 
Q 1294 -91 989 -36 
Q 684 19 347 128 
L 347 722 
Q 666 556 975 473 
Q 1284 391 1588 391 
Q 1994 391 2212 530 
Q 2431 669 2431 922 
Q 2431 1156 2273 1281 
Q 2116 1406 1581 1522 
L 1381 1569 
Q 847 1681 609 1914 
Q 372 2147 372 2553 
Q 372 3047 722 3315 
Q 1072 3584 1716 3584 
Q 2034 3584 2315 3537 
Q 2597 3491 2834 3397 
z
" transform="scale(0.015625)"/>
        <path id="DejaVuSans-6c" d="M 603 4863 
L 1178 4863 
L 1178 0 
L 603 0 
L 603 4863 
z
" transform="scale(0.015625)"/>
        <path id="DejaVuSans-5f" d="M 3263 -1063 
L 3263 -1509 
L -63 -1509 
L -63 -1063 
L 3263 -1063 
z
" transform="scale(0.015625)"/>
        <path id="DejaVuSans-77" d="M 269 3500 
L 844 3500 
L 1563 769 
L 2278 3500 
L 2956 3500 
L 3675 769 
L 4391 3500 
L 4966 3500 
L 4050 0 
L 3372 0 
L 2619 2869 
L 1863 0 
L 1184 0 
L 269 3500 
z
" transform="scale(0.015625)"/>
        <path id="DejaVuSans-72" d="M 2631 2963 
Q 2534 3019 2420 3045 
Q 2306 3072 2169 3072 
Q 1681 3072 1420 2755 
Q 1159 2438 1159 1844 
L 1159 0 
L 581 0 
L 581 3500 
L 1159 3500 
L 1159 2956 
Q 1341 3275 1631 3429 
Q 1922 3584 2338 3584 
Q 2397 3584 2469 3576 
Q 2541 3569 2628 3553 
L 2631 2963 
z
" transform="scale(0.015625)"/>
        <path id="DejaVuSans-65" d="M 3597 1894 
L 3597 1613 
L 953 1613 
Q 991 1019 1311 708 
Q 1631 397 2203 397 
Q 2534 397 2845 478 
Q 3156 559 3463 722 
L 3463 178 
Q 3153 47 2828 -22 
Q 2503 -91 2169 -91 
Q 1331 -91 842 396 
Q 353 884 353 1716 
Q 353 2575 817 3079 
Q 1281 3584 2069 3584 
Q 2775 3584 3186 3129 
Q 3597 2675 3597 1894 
z
M 3022 2063 
Q 3016 2534 2758 2815 
Q 2500 3097 2075 3097 
Q 1594 3097 1305 2825 
Q 1016 2553 972 2059 
L 3022 2063 
z
" transform="scale(0.015625)"/>
        <path id="DejaVuSans-68" d="M 3513 2113 
L 3513 0 
L 2938 0 
L 2938 2094 
Q 2938 2591 2744 2837 
Q 2550 3084 2163 3084 
Q 1697 3084 1428 2787 
Q 1159 2491 1159 1978 
L 1159 0 
L 581 0 
L 581 4863 
L 1159 4863 
L 1159 2956 
Q 1366 3272 1645 3428 
Q 1925 3584 2291 3584 
Q 2894 3584 3203 3211 
Q 3513 2838 3513 2113 
z
" transform="scale(0.015625)"/>
        <path id="DejaVuSans-6f" d="M 1959 3097 
Q 1497 3097 1228 2736 
Q 959 2375 959 1747 
Q 959 1119 1226 758 
Q 1494 397 1959 397 
Q 2419 397 2687 759 
Q 2956 1122 2956 1747 
Q 2956 2369 2687 2733 
Q 2419 3097 1959 3097 
z
M 1959 3584 
Q 2709 3584 3137 3096 
Q 3566 2609 3566 1747 
Q 3566 888 3137 398 
Q 2709 -91 1959 -91 
Q 1206 -91 779 398 
Q 353 888 353 1747 
Q 353 2609 779 3096 
Q 1206 3584 1959 3584 
z
" transform="scale(0.015625)"/>
        <path id="DejaVuSans-75" d="M 544 1381 
L 544 3500 
L 1119 3500 
L 1119 1403 
Q 1119 906 1312 657 
Q 1506 409 1894 409 
Q 2359 409 2629 706 
Q 2900 1003 2900 1516 
L 2900 3500 
L 3475 3500 
L 3475 0 
L 2900 0 
L 2900 538 
Q 2691 219 2414 64 
Q 2138 -91 1772 -91 
Q 1169 -91 856 284 
Q 544 659 544 1381 
z
M 1991 3584 
L 1991 3584 
z
" transform="scale(0.015625)"/>
       </defs>
       <use xlink:href="#DejaVuSans-73"/>
       <use xlink:href="#DejaVuSans-6d" x="52.099609"/>
       <use xlink:href="#DejaVuSans-61" x="149.511719"/>
       <use xlink:href="#DejaVuSans-6c" x="210.791016"/>
       <use xlink:href="#DejaVuSans-6c" x="238.574219"/>
       <use xlink:href="#DejaVuSans-5f" x="266.357422"/>
       <use xlink:href="#DejaVuSans-77" x="316.357422"/>
       <use xlink:href="#DejaVuSans-61" x="398.144531"/>
       <use xlink:href="#DejaVuSans-72" x="459.423828"/>
       <use xlink:href="#DejaVuSans-65" x="498.287109"/>
       <use xlink:href="#DejaVuSans-68" x="559.810547"/>
       <use xlink:href="#DejaVuSans-6f" x="623.189453"/>
       <use xlink:href="#DejaVuSans-75" x="684.371094"/>
       <use xlink:href="#DejaVuSans-73" x="747.75"/>
       <use xlink:href="#DejaVuSans-65" x="799.849609"/>
      </g>
     </g>
    </g>
    <g id="text_4">
     <!-- World -->
     <g transform="translate(195.066581 341.846875)scale(0.1 -0.1)">
      <defs>
       <path id="DejaVuSans-57" d="M 213 4666 
L 850 4666 
L 1831 722 
L 2809 4666 
L 3519 4666 
L 4500 722 
L 5478 4666 
L 6119 4666 
L 4947 0 
L 4153 0 
L 3169 4050 
L 2175 0 
L 1381 0 
L 213 4666 
z
" transform="scale(0.015625)"/>
       <path id="DejaVuSans-64" d="M 2906 2969 
L 2906 4863 
L 3481 4863 
L 3481 0 
L 2906 0 
L 2906 525 
Q 2725 213 2448 61 
Q 2172 -91 1784 -91 
Q 1150 -91 751 415 
Q 353 922 353 1747 
Q 353 2572 751 3078 
Q 1150 3584 1784 3584 
Q 2172 3584 2448 3432 
Q 2725 3281 2906 2969 
z
M 947 1747 
Q 947 1113 1208 752 
Q 1469 391 1925 391 
Q 2381 391 2643 752 
Q 2906 1113 2906 1747 
Q 2906 2381 2643 2742 
Q 2381 3103 1925 3103 
Q 1469 3103 1208 2742 
Q 947 2381 947 1747 
z
" transform="scale(0.015625)"/>
      </defs>
      <use xlink:href="#DejaVuSans-57"/>
      <use xlink:href="#DejaVuSans-6f" x="93.001953"/>
      <use xlink:href="#DejaVuSans-72" x="154.183594"/>
      <use xlink:href="#DejaVuSans-6c" x="195.296875"/>
      <use xlink:href="#DejaVuSans-64" x="223.080078"/>
     </g>
    </g>
   </g>
   <g id="matplotlib.axis_2">
    <g id="ytick_1">
     <g id="line2d_4">
      <defs>
       <path id="m9b03fe1de7" d="M 0 0 
L -3.5 0 
" style="stroke: #000000; stroke-width: 0.8"/>
      </defs>
      <g>
       <use xlink:href="#m9b03fe1de7" x="48.982813" y="312.099847" style="stroke: #000000; stroke-width: 0.8"/>
      </g>
     </g>
     <g id="text_5">
      <!-- −50 -->
      <g transform="translate(20.878125 315.899066)scale(0.1 -0.1)">
       <defs>
        <path id="DejaVuSans-2212" d="M 678 2272 
L 4684 2272 
L 4684 1741 
L 678 1741 
L 678 2272 
z
" transform="scale(0.015625)"/>
        <path id="DejaVuSans-30" d="M 2034 4250 
Q 1547 4250 1301 3770 
Q 1056 3291 1056 2328 
Q 1056 1369 1301 889 
Q 1547 409 2034 409 
Q 2525 409 2770 889 
Q 3016 1369 3016 2328 
Q 3016 3291 2770 3770 
Q 2525 4250 2034 4250 
z
M 2034 4750 
Q 2819 4750 3233 4129 
Q 3647 3509 3647 2328 
Q 3647 1150 3233 529 
Q 2819 -91 2034 -91 
Q 1250 -91 836 529 
Q 422 1150 422 2328 
Q 422 3509 836 4129 
Q 1250 4750 2034 4750 
z
" transform="scale(0.015625)"/>
       </defs>
       <use xlink:href="#DejaVuSans-2212"/>
       <use xlink:href="#DejaVuSans-35" x="83.789062"/>
       <use xlink:href="#DejaVuSans-30" x="147.412109"/>
      </g>
     </g>
    </g>
    <g id="ytick_2">
     <g id="line2d_5">
      <g>
       <use xlink:href="#m9b03fe1de7" x="48.982813" y="262.075002" style="stroke: #000000; stroke-width: 0.8"/>
      </g>
     </g>
     <g id="text_6">
      <!-- 0 -->
      <g transform="translate(35.620312 265.874221)scale(0.1 -0.1)">
       <use xlink:href="#DejaVuSans-30"/>
      </g>
     </g>
    </g>
    <g id="ytick_3">
     <g id="line2d_6">
      <g>
       <use xlink:href="#m9b03fe1de7" x="48.982813" y="212.050157" style="stroke: #000000; stroke-width: 0.8"/>
      </g>
     </g>
     <g id="text_7">
      <!-- 50 -->
      <g transform="translate(29.257812 215.849376)scale(0.1 -0.1)">
       <use xlink:href="#DejaVuSans-35"/>
       <use xlink:href="#DejaVuSans-30" x="63.623047"/>
      </g>
     </g>
    </g>
    <g id="ytick_4">
     <g id="line2d_7">
      <g>
       <use xlink:href="#m9b03fe1de7" x="48.982813" y="162.025312" style="stroke: #000000; stroke-width: 0.8"/>
      </g>
     </g>
     <g id="text_8">
      <!-- 100 -->
      <g transform="translate(22.895312 165.82453)scale(0.1 -0.1)">
       <defs>
        <path id="DejaVuSans-31" d="M 794 531 
L 1825 531 
L 1825 4091 
L 703 3866 
L 703 4441 
L 1819 4666 
L 2450 4666 
L 2450 531 
L 3481 531 
L 3481 0 
L 794 0 
L 794 531 
z
" transform="scale(0.015625)"/>
       </defs>
       <use xlink:href="#DejaVuSans-31"/>
       <use xlink:href="#DejaVuSans-30" x="63.623047"/>
       <use xlink:href="#DejaVuSans-30" x="127.246094"/>
      </g>
     </g>
    </g>
    <g id="ytick_5">
     <g id="line2d_8">
      <g>
       <use xlink:href="#m9b03fe1de7" x="48.982813" y="112.000467" style="stroke: #000000; stroke-width: 0.8"/>
      </g>
     </g>
     <g id="text_9">
      <!-- 150 -->
      <g transform="translate(22.895312 115.799685)scale(0.1 -0.1)">
       <use xlink:href="#DejaVuSans-31"/>
       <use xlink:href="#DejaVuSans-35" x="63.623047"/>
       <use xlink:href="#DejaVuSans-30" x="127.246094"/>
      </g>
     </g>
    </g>
    <g id="ytick_6">
     <g id="line2d_9">
      <g>
       <use xlink:href="#m9b03fe1de7" x="48.982813" y="61.975622" style="stroke: #000000; stroke-width: 0.8"/>
      </g>
     </g>
     <g id="text_10">
      <!-- 200 -->
      <g transform="translate(22.895312 65.77484)scale(0.1 -0.1)">
       <use xlink:href="#DejaVuSans-32"/>
       <use xlink:href="#DejaVuSans-30" x="63.623047"/>
       <use xlink:href="#DejaVuSans-30" x="127.246094"/>
      </g>
     </g>
    </g>
    <g id="text_11">
     <!-- time -->
     <g transform="translate(14.798438 178.341406)rotate(-90)scale(0.1 -0.1)">
      <defs>
       <path id="DejaVuSans-74" d="M 1172 4494 
L 1172 3500 
L 2356 3500 
L 2356 3053 
L 1172 3053 
L 1172 1153 
Q 1172 725 1289 603 
Q 1406 481 1766 481 
L 2356 481 
L 2356 0 
L 1766 0 
Q 1100 0 847 248 
Q 594 497 594 1153 
L 594 3053 
L 172 3053 
L 172 3500 
L 594 3500 
L 594 4494 
L 1172 4494 
z
" transform="scale(0.015625)"/>
       <path id="DejaVuSans-69" d="M 603 3500 
L 1178 3500 
L 1178 0 
L 603 0 
L 603 3500 
z
M 603 4863 
L 1178 4863 
L 1178 4134 
L 603 4134 
L 603 4863 
z
" transform="scale(0.015625)"/>
      </defs>
      <use xlink:href="#DejaVuSans-74"/>
      <use xlink:href="#DejaVuSans-69" x="39.208984"/>
      <use xlink:href="#DejaVuSans-6d" x="66.992188"/>
      <use xlink:href="#DejaVuSans-65" x="164.404297"/>
     </g>
    </g>
   </g>
   <g id="line2d_10">
    <path d="M 102.453444 253.810897 
L 102.453444 81.495316 
" clip-path="url(#p203fdc760d)" style="fill: none; stroke: #3f3f3f; stroke-width: 1.5; stroke-linecap: square"/>
   </g>
   <g id="line2d_11">
    <path d="M 102.453444 227.56036 
L 102.453444 107.398181 
" clip-path="url(#p203fdc760d)" style="fill: none; stroke: #3f3f3f; stroke-width: 4.5; stroke-linecap: square"/>
   </g>
   <g id="line2d_12">
    <path d="M 209.394706 256.584275 
L 209.394706 81.58336 
" clip-path="url(#p203fdc760d)" style="fill: none; stroke: #3f3f3f; stroke-width: 1.5; stroke-linecap: square"/>
   </g>
   <g id="line2d_13">
    <path d="M 209.394706 212.652456 
L 209.394706 138.66621 
" clip-path="url(#p203fdc760d)" style="fill: none; stroke: #3f3f3f; stroke-width: 4.5; stroke-linecap: square"/>
   </g>
   <g id="line2d_14">
    <path d="M 316.335969 253.737861 
L 316.335969 81.645391 
" clip-path="url(#p203fdc760d)" style="fill: none; stroke: #3f3f3f; stroke-width: 1.5; stroke-linecap: square"/>
   </g>
   <g id="line2d_15">
    <path d="M 316.335969 224.313748 
L 316.335969 152.665663 
" clip-path="url(#p203fdc760d)" style="fill: none; stroke: #3f3f3f; stroke-width: 4.5; stroke-linecap: square"/>
   </g>
   <g id="patch_5">
    <path d="M 48.982813 313.292187 
L 48.982813 20.798437 
" style="fill: none; stroke: #000000; stroke-width: 0.8; stroke-linejoin: miter; stroke-linecap: square"/>
   </g>
   <g id="patch_6">
    <path d="M 48.982813 313.292187 
L 369.8066 313.292187 
" style="fill: none; stroke: #000000; stroke-width: 0.8; stroke-linejoin: miter; stroke-linecap: square"/>
   </g>
   <g id="PathCollection_1">
    <defs>
     <path id="mce8d21ab2e" d="M 0 1.5 
C 0.397805 1.5 0.77937 1.341951 1.06066 1.06066 
C 1.341951 0.77937 1.5 0.397805 1.5 0 
C 1.5 -0.397805 1.341951 -0.77937 1.06066 -1.06066 
C 0.77937 -1.341951 0.397805 -1.5 0 -1.5 
C -0.397805 -1.5 -0.77937 -1.341951 -1.06066 -1.06066 
C -1.341951 -0.77937 -1.5 -0.397805 -1.5 0 
C -1.5 0.397805 -1.341951 0.77937 -1.06066 1.06066 
C -0.77937 1.341951 -0.397805 1.5 0 1.5 
z
" style="stroke: #3f3f3f"/>
    </defs>
    <g clip-path="url(#p203fdc760d)">
     <use xlink:href="#mce8d21ab2e" x="102.453444" y="122.280572" style="fill: #ffffff; stroke: #3f3f3f"/>
    </g>
   </g>
   <g id="PathCollection_2">
    <g clip-path="url(#p203fdc760d)">
     <use xlink:href="#mce8d21ab2e" x="209.394706" y="162.475535" style="fill: #ffffff; stroke: #3f3f3f"/>
    </g>
   </g>
   <g id="PathCollection_3">
    <g clip-path="url(#p203fdc760d)">
     <use xlink:href="#mce8d21ab2e" x="316.335969" y="171.409973" style="fill: #ffffff; stroke: #3f3f3f"/>
    </g>
   </g>
   <g id="text_12">
    <!-- Dyn_obs = 5.0 -->
    <g transform="translate(172.758769 14.798437)scale(0.1 -0.1)">
     <defs>
      <path id="DejaVuSans-44" d="M 1259 4147 
L 1259 519 
L 2022 519 
Q 2988 519 3436 956 
Q 3884 1394 3884 2338 
Q 3884 3275 3436 3711 
Q 2988 4147 2022 4147 
L 1259 4147 
z
M 628 4666 
L 1925 4666 
Q 3281 4666 3915 4102 
Q 4550 3538 4550 2338 
Q 4550 1131 3912 565 
Q 3275 0 1925 0 
L 628 0 
L 628 4666 
z
" transform="scale(0.015625)"/>
      <path id="DejaVuSans-79" d="M 2059 -325 
Q 1816 -950 1584 -1140 
Q 1353 -1331 966 -1331 
L 506 -1331 
L 506 -850 
L 844 -850 
Q 1081 -850 1212 -737 
Q 1344 -625 1503 -206 
L 1606 56 
L 191 3500 
L 800 3500 
L 1894 763 
L 2988 3500 
L 3597 3500 
L 2059 -325 
z
" transform="scale(0.015625)"/>
      <path id="DejaVuSans-6e" d="M 3513 2113 
L 3513 0 
L 2938 0 
L 2938 2094 
Q 2938 2591 2744 2837 
Q 2550 3084 2163 3084 
Q 1697 3084 1428 2787 
Q 1159 2491 1159 1978 
L 1159 0 
L 581 0 
L 581 3500 
L 1159 3500 
L 1159 2956 
Q 1366 3272 1645 3428 
Q 1925 3584 2291 3584 
Q 2894 3584 3203 3211 
Q 3513 2838 3513 2113 
z
" transform="scale(0.015625)"/>
      <path id="DejaVuSans-62" d="M 3116 1747 
Q 3116 2381 2855 2742 
Q 2594 3103 2138 3103 
Q 1681 3103 1420 2742 
Q 1159 2381 1159 1747 
Q 1159 1113 1420 752 
Q 1681 391 2138 391 
Q 2594 391 2855 752 
Q 3116 1113 3116 1747 
z
M 1159 2969 
Q 1341 3281 1617 3432 
Q 1894 3584 2278 3584 
Q 2916 3584 3314 3078 
Q 3713 2572 3713 1747 
Q 3713 922 3314 415 
Q 2916 -91 2278 -91 
Q 1894 -91 1617 61 
Q 1341 213 1159 525 
L 1159 0 
L 581 0 
L 581 4863 
L 1159 4863 
L 1159 2969 
z
" transform="scale(0.015625)"/>
      <path id="DejaVuSans-20" transform="scale(0.015625)"/>
      <path id="DejaVuSans-3d" d="M 678 2906 
L 4684 2906 
L 4684 2381 
L 678 2381 
L 678 2906 
z
M 678 1631 
L 4684 1631 
L 4684 1100 
L 678 1100 
L 678 1631 
z
" transform="scale(0.015625)"/>
      <path id="DejaVuSans-2e" d="M 684 794 
L 1344 794 
L 1344 0 
L 684 0 
L 684 794 
z
" transform="scale(0.015625)"/>
     </defs>
     <use xlink:href="#DejaVuSans-44"/>
     <use xlink:href="#DejaVuSans-79" x="77.001953"/>
     <use xlink:href="#DejaVuSans-6e" x="136.181641"/>
     <use xlink:href="#DejaVuSans-5f" x="199.560547"/>
     <use xlink:href="#DejaVuSans-6f" x="249.560547"/>
     <use xlink:href="#DejaVuSans-62" x="310.742188"/>
     <use xlink:href="#DejaVuSans-73" x="374.21875"/>
     <use xlink:href="#DejaVuSans-20" x="426.318359"/>
     <use xlink:href="#DejaVuSans-3d" x="458.105469"/>
     <use xlink:href="#DejaVuSans-20" x="541.894531"/>
     <use xlink:href="#DejaVuSans-35" x="573.681641"/>
     <use xlink:href="#DejaVuSans-2e" x="637.304688"/>
     <use xlink:href="#DejaVuSans-30" x="669.091797"/>
    </g>
   </g>
  </g>
  <g id="axes_2">
   <g id="patch_7">
    <path d="M 384.096525 313.292187 
L 704.920313 313.292187 
L 704.920313 20.798437 
L 384.096525 20.798437 
z
" style="fill: #ffffff"/>
   </g>
   <g id="patch_8">
    <path d="M 437.567156 262.075002 
L 437.567156 262.075002 
L 437.567156 262.075002 
L 437.567156 262.075002 
z
" clip-path="url(#pa93b5f0c24)" style="fill: #3274a1; stroke: #3f3f3f; stroke-width: 0.75; stroke-linejoin: miter"/>
   </g>
   <g id="PolyCollection_7">
    <defs>
     <path id="m59b97f1b2a" d="M 437.567156 -57.257604 
L 436.289634 -57.257604 
L 435.944714 -59.881598 
L 435.529381 -62.505591 
L 435.035714 -65.129584 
L 434.456544 -67.753578 
L 433.785919 -70.377571 
L 433.0196 -73.001565 
L 432.155538 -75.625558 
L 431.194328 -78.249552 
L 430.139591 -80.873545 
L 428.99825 -83.497539 
L 427.780678 -86.121532 
L 426.500689 -88.745525 
L 425.175355 -91.369519 
L 423.824659 -93.993512 
L 422.470963 -96.617506 
L 421.138336 -99.241499 
L 419.851759 -101.865493 
L 418.636237 -104.489486 
L 417.515873 -107.113479 
L 416.512953 -109.737473 
L 415.647074 -112.361466 
L 414.934381 -114.98546 
L 414.38695 -117.609453 
L 414.012344 -120.233447 
L 413.81338 -122.85744 
L 413.788115 -125.481434 
L 413.930056 -128.105427 
L 414.228573 -130.72942 
L 414.669514 -133.353414 
L 415.235949 -135.977407 
L 415.909032 -138.601401 
L 416.668898 -141.225394 
L 417.495553 -143.849388 
L 418.369693 -146.473381 
L 419.27341 -149.097374 
L 420.190729 -151.721368 
L 421.107972 -154.345361 
L 422.013918 -156.969355 
L 422.899783 -159.593348 
L 423.759028 -162.217342 
L 424.587036 -164.841335 
L 425.380699 -167.465329 
L 426.137955 -170.089322 
L 426.857319 -172.713315 
L 427.537447 -175.337309 
L 428.176751 -177.961302 
L 428.773085 -180.585296 
L 429.323511 -183.209289 
L 429.824127 -185.833283 
L 430.269948 -188.457276 
L 430.654833 -191.08127 
L 430.971433 -193.705263 
L 431.21115 -196.329256 
L 431.364107 -198.95325 
L 431.419143 -201.577243 
L 431.363834 -204.201237 
L 431.184584 -206.82523 
L 430.866811 -209.449224 
L 430.395266 -212.073217 
L 429.754525 -214.69721 
L 428.929673 -217.321204 
L 427.907204 -219.945197 
L 426.676121 -222.569191 
L 425.2292 -225.193184 
L 423.564376 -227.817178 
L 421.686136 -230.441171 
L 419.606832 -233.065165 
L 417.34777 -235.689158 
L 414.939937 -238.313151 
L 412.42424 -240.937145 
L 409.85115 -243.561138 
L 407.279669 -246.185132 
L 404.7756 -248.809125 
L 402.409162 -251.433119 
L 400.252045 -254.057112 
L 398.374066 -256.681105 
L 396.839641 -259.305099 
L 395.704324 -261.929092 
L 395.011666 -264.553086 
L 394.790651 -267.177079 
L 395.053915 -269.801073 
L 395.796904 -272.425066 
L 396.998047 -275.04906 
L 398.619934 -277.673053 
L 400.611409 -280.297046 
L 402.910416 -282.92104 
L 405.447367 -285.545033 
L 408.148779 -288.169027 
L 410.94091 -290.79302 
L 413.753145 -293.417014 
L 416.520922 -296.041007 
L 419.188031 -298.665 
L 421.708205 -301.288994 
L 424.045964 -303.912987 
L 426.176756 -306.536981 
L 428.086466 -309.160974 
L 429.770434 -311.784968 
L 431.232106 -314.408961 
L 432.481474 -317.032955 
L 437.567156 -317.032955 
L 437.567156 -317.032955 
L 437.567156 -314.408961 
L 437.567156 -311.784968 
L 437.567156 -309.160974 
L 437.567156 -306.536981 
L 437.567156 -303.912987 
L 437.567156 -301.288994 
L 437.567156 -298.665 
L 437.567156 -296.041007 
L 437.567156 -293.417014 
L 437.567156 -290.79302 
L 437.567156 -288.169027 
L 437.567156 -285.545033 
L 437.567156 -282.92104 
L 437.567156 -280.297046 
L 437.567156 -277.673053 
L 437.567156 -275.04906 
L 437.567156 -272.425066 
L 437.567156 -269.801073 
L 437.567156 -267.177079 
L 437.567156 -264.553086 
L 437.567156 -261.929092 
L 437.567156 -259.305099 
L 437.567156 -256.681105 
L 437.567156 -254.057112 
L 437.567156 -251.433119 
L 437.567156 -248.809125 
L 437.567156 -246.185132 
L 437.567156 -243.561138 
L 437.567156 -240.937145 
L 437.567156 -238.313151 
L 437.567156 -235.689158 
L 437.567156 -233.065165 
L 437.567156 -230.441171 
L 437.567156 -227.817178 
L 437.567156 -225.193184 
L 437.567156 -222.569191 
L 437.567156 -219.945197 
L 437.567156 -217.321204 
L 437.567156 -214.69721 
L 437.567156 -212.073217 
L 437.567156 -209.449224 
L 437.567156 -206.82523 
L 437.567156 -204.201237 
L 437.567156 -201.577243 
L 437.567156 -198.95325 
L 437.567156 -196.329256 
L 437.567156 -193.705263 
L 437.567156 -191.08127 
L 437.567156 -188.457276 
L 437.567156 -185.833283 
L 437.567156 -183.209289 
L 437.567156 -180.585296 
L 437.567156 -177.961302 
L 437.567156 -175.337309 
L 437.567156 -172.713315 
L 437.567156 -170.089322 
L 437.567156 -167.465329 
L 437.567156 -164.841335 
L 437.567156 -162.217342 
L 437.567156 -159.593348 
L 437.567156 -156.969355 
L 437.567156 -154.345361 
L 437.567156 -151.721368 
L 437.567156 -149.097374 
L 437.567156 -146.473381 
L 437.567156 -143.849388 
L 437.567156 -141.225394 
L 437.567156 -138.601401 
L 437.567156 -135.977407 
L 437.567156 -133.353414 
L 437.567156 -130.72942 
L 437.567156 -128.105427 
L 437.567156 -125.481434 
L 437.567156 -122.85744 
L 437.567156 -120.233447 
L 437.567156 -117.609453 
L 437.567156 -114.98546 
L 437.567156 -112.361466 
L 437.567156 -109.737473 
L 437.567156 -107.113479 
L 437.567156 -104.489486 
L 437.567156 -101.865493 
L 437.567156 -99.241499 
L 437.567156 -96.617506 
L 437.567156 -93.993512 
L 437.567156 -91.369519 
L 437.567156 -88.745525 
L 437.567156 -86.121532 
L 437.567156 -83.497539 
L 437.567156 -80.873545 
L 437.567156 -78.249552 
L 437.567156 -75.625558 
L 437.567156 -73.001565 
L 437.567156 -70.377571 
L 437.567156 -67.753578 
L 437.567156 -65.129584 
L 437.567156 -62.505591 
L 437.567156 -59.881598 
L 437.567156 -57.257604 
z
" style="stroke: #3f3f3f; stroke-width: 1.5"/>
    </defs>
    <g clip-path="url(#pa93b5f0c24)">
     <use xlink:href="#m59b97f1b2a" x="0" y="351.126562" style="fill: #3274a1; stroke: #3f3f3f; stroke-width: 1.5"/>
    </g>
   </g>
   <g id="patch_9">
    <path d="M 437.567156 262.075002 
L 437.567156 262.075002 
L 437.567156 262.075002 
L 437.567156 262.075002 
z
" clip-path="url(#pa93b5f0c24)" style="fill: #e1812c; stroke: #3f3f3f; stroke-width: 0.75; stroke-linejoin: miter"/>
   </g>
   <g id="PolyCollection_8">
    <defs>
     <path id="m287df77027" d="M 439.529535 -51.129545 
L 437.567156 -51.129545 
L 437.567156 -53.811174 
L 437.567156 -56.492802 
L 437.567156 -59.174431 
L 437.567156 -61.856059 
L 437.567156 -64.537688 
L 437.567156 -67.219316 
L 437.567156 -69.900944 
L 437.567156 -72.582573 
L 437.567156 -75.264201 
L 437.567156 -77.94583 
L 437.567156 -80.627458 
L 437.567156 -83.309087 
L 437.567156 -85.990715 
L 437.567156 -88.672343 
L 437.567156 -91.353972 
L 437.567156 -94.0356 
L 437.567156 -96.717229 
L 437.567156 -99.398857 
L 437.567156 -102.080486 
L 437.567156 -104.762114 
L 437.567156 -107.443742 
L 437.567156 -110.125371 
L 437.567156 -112.806999 
L 437.567156 -115.488628 
L 437.567156 -118.170256 
L 437.567156 -120.851885 
L 437.567156 -123.533513 
L 437.567156 -126.215141 
L 437.567156 -128.89677 
L 437.567156 -131.578398 
L 437.567156 -134.260027 
L 437.567156 -136.941655 
L 437.567156 -139.623284 
L 437.567156 -142.304912 
L 437.567156 -144.986541 
L 437.567156 -147.668169 
L 437.567156 -150.349797 
L 437.567156 -153.031426 
L 437.567156 -155.713054 
L 437.567156 -158.394683 
L 437.567156 -161.076311 
L 437.567156 -163.75794 
L 437.567156 -166.439568 
L 437.567156 -169.121196 
L 437.567156 -171.802825 
L 437.567156 -174.484453 
L 437.567156 -177.166082 
L 437.567156 -179.84771 
L 437.567156 -182.529339 
L 437.567156 -185.210967 
L 437.567156 -187.892595 
L 437.567156 -190.574224 
L 437.567156 -193.255852 
L 437.567156 -195.937481 
L 437.567156 -198.619109 
L 437.567156 -201.300738 
L 437.567156 -203.982366 
L 437.567156 -206.663994 
L 437.567156 -209.345623 
L 437.567156 -212.027251 
L 437.567156 -214.70888 
L 437.567156 -217.390508 
L 437.567156 -220.072137 
L 437.567156 -222.753765 
L 437.567156 -225.435393 
L 437.567156 -228.117022 
L 437.567156 -230.79865 
L 437.567156 -233.480279 
L 437.567156 -236.161907 
L 437.567156 -238.843536 
L 437.567156 -241.525164 
L 437.567156 -244.206792 
L 437.567156 -246.888421 
L 437.567156 -249.570049 
L 437.567156 -252.251678 
L 437.567156 -254.933306 
L 437.567156 -257.614935 
L 437.567156 -260.296563 
L 437.567156 -262.978191 
L 437.567156 -265.65982 
L 437.567156 -268.341448 
L 437.567156 -271.023077 
L 437.567156 -273.704705 
L 437.567156 -276.386334 
L 437.567156 -279.067962 
L 437.567156 -281.74959 
L 437.567156 -284.431219 
L 437.567156 -287.112847 
L 437.567156 -289.794476 
L 437.567156 -292.476104 
L 437.567156 -295.157733 
L 437.567156 -297.839361 
L 437.567156 -300.520989 
L 437.567156 -303.202618 
L 437.567156 -305.884246 
L 437.567156 -308.565875 
L 437.567156 -311.247503 
L 437.567156 -313.929132 
L 437.567156 -316.61076 
L 439.618092 -316.61076 
L 439.618092 -316.61076 
L 440.16193 -313.929132 
L 440.810774 -311.247503 
L 441.573812 -308.565875 
L 442.458173 -305.884246 
L 443.468183 -303.202618 
L 444.60464 -300.520989 
L 445.864186 -297.839361 
L 447.23882 -295.157733 
L 448.715616 -292.476104 
L 450.276685 -289.794476 
L 451.8994 -287.112847 
L 453.55691 -284.431219 
L 455.218908 -281.74959 
L 456.852629 -279.067962 
L 458.424015 -276.386334 
L 459.898985 -273.704705 
L 461.244721 -271.023077 
L 462.430911 -268.341448 
L 463.430869 -265.65982 
L 464.222482 -262.978191 
L 464.788942 -260.296563 
L 465.119257 -257.614935 
L 465.208511 -254.933306 
L 465.057918 -252.251678 
L 464.674663 -249.570049 
L 464.071577 -246.888421 
L 463.266654 -244.206792 
L 462.282458 -241.525164 
L 461.145425 -238.843536 
L 459.885088 -236.161907 
L 458.53325 -233.480279 
L 457.123105 -230.79865 
L 455.688354 -228.117022 
L 454.262311 -225.435393 
L 452.877048 -222.753765 
L 451.562592 -220.072137 
L 450.346202 -217.390508 
L 449.251763 -214.70888 
L 448.299289 -212.027251 
L 447.504573 -209.345623 
L 446.878966 -206.663994 
L 446.429291 -203.982366 
L 446.157867 -201.300738 
L 446.062652 -198.619109 
L 446.137457 -195.937481 
L 446.372259 -193.255852 
L 446.753569 -190.574224 
L 447.264891 -187.892595 
L 447.887253 -185.210967 
L 448.599837 -182.529339 
L 449.380706 -179.84771 
L 450.207638 -177.166082 
L 451.059047 -174.484453 
L 451.914971 -171.802825 
L 452.758081 -169.121196 
L 453.574636 -166.439568 
L 454.355313 -163.75794 
L 455.095818 -161.076311 
L 455.79718 -158.394683 
L 456.465661 -155.713054 
L 457.112213 -153.031426 
L 457.751483 -150.349797 
L 458.400365 -147.668169 
L 459.076197 -144.986541 
L 459.794708 -142.304912 
L 460.567892 -139.623284 
L 461.401992 -136.941655 
L 462.295798 -134.260027 
L 463.239459 -131.578398 
L 464.213964 -128.89677 
L 465.191396 -126.215141 
L 466.136004 -123.533513 
L 467.006048 -120.851885 
L 467.756302 -118.170256 
L 468.341013 -115.488628 
L 468.717096 -112.806999 
L 468.847254 -110.125371 
L 468.702793 -107.443742 
L 468.26584 -104.762114 
L 467.530807 -102.080486 
L 466.50495 -99.398857 
L 465.208011 -96.717229 
L 463.67098 -94.0356 
L 461.934118 -91.353972 
L 460.044424 -88.672343 
L 458.052783 -85.990715 
L 456.011048 -83.309087 
L 453.969269 -80.627458 
L 451.97329 -77.94583 
L 450.062846 -75.264201 
L 448.270256 -72.582573 
L 446.619735 -69.900944 
L 445.127294 -67.219316 
L 443.801152 -64.537688 
L 442.642557 -61.856059 
L 441.646885 -59.174431 
L 440.80489 -56.492802 
L 440.103999 -53.811174 
L 439.529535 -51.129545 
z
" style="stroke: #3f3f3f; stroke-width: 1.5"/>
    </defs>
    <g clip-path="url(#pa93b5f0c24)">
     <use xlink:href="#m287df77027" x="0" y="351.126562" style="fill: #e1812c; stroke: #3f3f3f; stroke-width: 1.5"/>
    </g>
   </g>
   <g id="PolyCollection_9">
    <defs>
     <path id="mff09917fb5" d="M 544.508419 -69.899757 
L 543.560674 -69.899757 
L 543.233895 -72.24329 
L 542.828639 -74.586824 
L 542.33856 -76.930357 
L 541.76103 -79.27389 
L 541.098352 -81.617424 
L 540.358698 -83.960957 
L 539.556581 -86.304491 
L 538.712649 -88.648024 
L 537.852688 -90.991558 
L 537.005774 -93.335091 
L 536.201679 -95.678625 
L 535.467724 -98.022158 
L 534.825438 -100.365692 
L 534.287424 -102.709225 
L 533.854913 -105.052759 
L 533.516398 -107.396292 
L 533.247684 -109.739826 
L 533.013502 -112.083359 
L 532.770636 -114.426892 
L 532.472311 -116.770426 
L 532.073405 -119.113959 
L 531.535892 -121.457493 
L 530.83387 -123.801026 
L 529.957539 -126.14456 
L 528.915579 -128.488093 
L 527.735565 -130.831627 
L 526.462279 -133.17516 
L 525.153996 -135.518694 
L 523.877129 -137.862227 
L 522.699748 -140.205761 
L 521.68469 -142.549294 
L 520.882995 -144.892828 
L 520.328383 -147.236361 
L 520.033349 -149.579894 
L 519.987284 -151.923428 
L 520.15676 -154.266961 
L 520.487925 -156.610495 
L 520.910698 -158.954028 
L 521.34433 -161.297562 
L 521.703797 -163.641095 
L 521.906453 -165.984629 
L 521.878442 -168.328162 
L 521.560422 -170.671696 
L 520.912256 -173.015229 
L 519.916424 -175.358763 
L 518.579981 -177.702296 
L 516.934949 -180.04583 
L 515.037101 -182.389363 
L 512.963122 -184.732896 
L 510.806241 -187.07643 
L 508.67052 -189.419963 
L 506.66409 -191.763497 
L 504.891787 -194.10703 
L 503.447748 -196.450564 
L 502.408582 -198.794097 
L 501.827781 -201.137631 
L 501.731913 -203.481164 
L 502.119036 -205.824698 
L 502.959489 -208.168231 
L 504.199012 -210.511765 
L 505.763838 -212.855298 
L 507.567208 -215.198832 
L 509.51659 -217.542365 
L 511.520836 -219.885898 
L 513.496558 -222.229432 
L 515.37314 -224.572965 
L 517.096018 -226.916499 
L 518.628088 -229.260032 
L 519.949388 -231.603566 
L 521.055349 -233.947099 
L 521.954121 -236.290633 
L 522.663474 -238.634166 
L 523.207778 -240.9777 
L 523.61546 -243.321233 
L 523.917129 -245.664767 
L 524.144425 -248.0083 
L 524.32943 -250.351834 
L 524.504394 -252.695367 
L 524.70145 -255.0389 
L 524.952032 -257.382434 
L 525.285835 -259.725967 
L 525.729273 -262.069501 
L 526.303577 -264.413034 
L 527.022811 -266.756568 
L 527.892149 -269.100101 
L 528.90678 -271.443635 
L 530.051703 -273.787168 
L 531.302557 -276.130702 
L 532.627442 -278.474235 
L 533.989541 -280.817769 
L 535.350194 -283.161302 
L 536.672051 -285.504835 
L 537.921894 -287.848369 
L 539.072832 -290.191902 
L 540.105655 -292.535436 
L 541.009301 -294.878969 
L 541.780492 -297.222503 
L 542.422715 -299.566036 
L 542.944772 -301.90957 
L 544.508419 -301.90957 
L 544.508419 -301.90957 
L 544.508419 -299.566036 
L 544.508419 -297.222503 
L 544.508419 -294.878969 
L 544.508419 -292.535436 
L 544.508419 -290.191902 
L 544.508419 -287.848369 
L 544.508419 -285.504835 
L 544.508419 -283.161302 
L 544.508419 -280.817769 
L 544.508419 -278.474235 
L 544.508419 -276.130702 
L 544.508419 -273.787168 
L 544.508419 -271.443635 
L 544.508419 -269.100101 
L 544.508419 -266.756568 
L 544.508419 -264.413034 
L 544.508419 -262.069501 
L 544.508419 -259.725967 
L 544.508419 -257.382434 
L 544.508419 -255.0389 
L 544.508419 -252.695367 
L 544.508419 -250.351834 
L 544.508419 -248.0083 
L 544.508419 -245.664767 
L 544.508419 -243.321233 
L 544.508419 -240.9777 
L 544.508419 -238.634166 
L 544.508419 -236.290633 
L 544.508419 -233.947099 
L 544.508419 -231.603566 
L 544.508419 -229.260032 
L 544.508419 -226.916499 
L 544.508419 -224.572965 
L 544.508419 -222.229432 
L 544.508419 -219.885898 
L 544.508419 -217.542365 
L 544.508419 -215.198832 
L 544.508419 -212.855298 
L 544.508419 -210.511765 
L 544.508419 -208.168231 
L 544.508419 -205.824698 
L 544.508419 -203.481164 
L 544.508419 -201.137631 
L 544.508419 -198.794097 
L 544.508419 -196.450564 
L 544.508419 -194.10703 
L 544.508419 -191.763497 
L 544.508419 -189.419963 
L 544.508419 -187.07643 
L 544.508419 -184.732896 
L 544.508419 -182.389363 
L 544.508419 -180.04583 
L 544.508419 -177.702296 
L 544.508419 -175.358763 
L 544.508419 -173.015229 
L 544.508419 -170.671696 
L 544.508419 -168.328162 
L 544.508419 -165.984629 
L 544.508419 -163.641095 
L 544.508419 -161.297562 
L 544.508419 -158.954028 
L 544.508419 -156.610495 
L 544.508419 -154.266961 
L 544.508419 -151.923428 
L 544.508419 -149.579894 
L 544.508419 -147.236361 
L 544.508419 -144.892828 
L 544.508419 -142.549294 
L 544.508419 -140.205761 
L 544.508419 -137.862227 
L 544.508419 -135.518694 
L 544.508419 -133.17516 
L 544.508419 -130.831627 
L 544.508419 -128.488093 
L 544.508419 -126.14456 
L 544.508419 -123.801026 
L 544.508419 -121.457493 
L 544.508419 -119.113959 
L 544.508419 -116.770426 
L 544.508419 -114.426892 
L 544.508419 -112.083359 
L 544.508419 -109.739826 
L 544.508419 -107.396292 
L 544.508419 -105.052759 
L 544.508419 -102.709225 
L 544.508419 -100.365692 
L 544.508419 -98.022158 
L 544.508419 -95.678625 
L 544.508419 -93.335091 
L 544.508419 -90.991558 
L 544.508419 -88.648024 
L 544.508419 -86.304491 
L 544.508419 -83.960957 
L 544.508419 -81.617424 
L 544.508419 -79.27389 
L 544.508419 -76.930357 
L 544.508419 -74.586824 
L 544.508419 -72.24329 
L 544.508419 -69.899757 
z
" style="stroke: #3f3f3f; stroke-width: 1.5"/>
    </defs>
    <g clip-path="url(#pa93b5f0c24)">
     <use xlink:href="#mff09917fb5" x="0" y="351.126562" style="fill: #3274a1; stroke: #3f3f3f; stroke-width: 1.5"/>
    </g>
   </g>
   <g id="PolyCollection_10">
    <defs>
     <path id="m9a919c91d2" d="M 546.463557 -55.787465 
L 544.508419 -55.787465 
L 544.508419 -58.346707 
L 544.508419 -60.90595 
L 544.508419 -63.465192 
L 544.508419 -66.024434 
L 544.508419 -68.583676 
L 544.508419 -71.142919 
L 544.508419 -73.702161 
L 544.508419 -76.261403 
L 544.508419 -78.820646 
L 544.508419 -81.379888 
L 544.508419 -83.93913 
L 544.508419 -86.498372 
L 544.508419 -89.057615 
L 544.508419 -91.616857 
L 544.508419 -94.176099 
L 544.508419 -96.735341 
L 544.508419 -99.294584 
L 544.508419 -101.853826 
L 544.508419 -104.413068 
L 544.508419 -106.97231 
L 544.508419 -109.531553 
L 544.508419 -112.090795 
L 544.508419 -114.650037 
L 544.508419 -117.20928 
L 544.508419 -119.768522 
L 544.508419 -122.327764 
L 544.508419 -124.887006 
L 544.508419 -127.446249 
L 544.508419 -130.005491 
L 544.508419 -132.564733 
L 544.508419 -135.123975 
L 544.508419 -137.683218 
L 544.508419 -140.24246 
L 544.508419 -142.801702 
L 544.508419 -145.360944 
L 544.508419 -147.920187 
L 544.508419 -150.479429 
L 544.508419 -153.038671 
L 544.508419 -155.597914 
L 544.508419 -158.157156 
L 544.508419 -160.716398 
L 544.508419 -163.27564 
L 544.508419 -165.834883 
L 544.508419 -168.394125 
L 544.508419 -170.953367 
L 544.508419 -173.512609 
L 544.508419 -176.071852 
L 544.508419 -178.631094 
L 544.508419 -181.190336 
L 544.508419 -183.749578 
L 544.508419 -186.308821 
L 544.508419 -188.868063 
L 544.508419 -191.427305 
L 544.508419 -193.986548 
L 544.508419 -196.54579 
L 544.508419 -199.105032 
L 544.508419 -201.664274 
L 544.508419 -204.223517 
L 544.508419 -206.782759 
L 544.508419 -209.342001 
L 544.508419 -211.901243 
L 544.508419 -214.460486 
L 544.508419 -217.019728 
L 544.508419 -219.57897 
L 544.508419 -222.138212 
L 544.508419 -224.697455 
L 544.508419 -227.256697 
L 544.508419 -229.815939 
L 544.508419 -232.375182 
L 544.508419 -234.934424 
L 544.508419 -237.493666 
L 544.508419 -240.052908 
L 544.508419 -242.612151 
L 544.508419 -245.171393 
L 544.508419 -247.730635 
L 544.508419 -250.289877 
L 544.508419 -252.84912 
L 544.508419 -255.408362 
L 544.508419 -257.967604 
L 544.508419 -260.526846 
L 544.508419 -263.086089 
L 544.508419 -265.645331 
L 544.508419 -268.204573 
L 544.508419 -270.763816 
L 544.508419 -273.323058 
L 544.508419 -275.8823 
L 544.508419 -278.441542 
L 544.508419 -281.000785 
L 544.508419 -283.560027 
L 544.508419 -286.119269 
L 544.508419 -288.678511 
L 544.508419 -291.237754 
L 544.508419 -293.796996 
L 544.508419 -296.356238 
L 544.508419 -298.91548 
L 544.508419 -301.474723 
L 544.508419 -304.033965 
L 544.508419 -306.593207 
L 544.508419 -309.15245 
L 545.354305 -309.15245 
L 545.354305 -309.15245 
L 545.60711 -306.593207 
L 545.912917 -304.033965 
L 546.275663 -301.474723 
L 546.697503 -298.91548 
L 547.178308 -296.356238 
L 547.715287 -293.796996 
L 548.302797 -291.237754 
L 548.932403 -288.678511 
L 549.593242 -286.119269 
L 550.272697 -283.560027 
L 550.957357 -281.000785 
L 551.634201 -278.441542 
L 552.291906 -275.8823 
L 552.92213 -273.323058 
L 553.520629 -270.763816 
L 554.088061 -268.204573 
L 554.630354 -265.645331 
L 555.158546 -263.086089 
L 555.688083 -260.526846 
L 556.237603 -257.967604 
L 556.827293 -255.408362 
L 557.476962 -252.84912 
L 558.204003 -250.289877 
L 559.021431 -247.730635 
L 559.936158 -245.171393 
L 560.947679 -242.612151 
L 562.047273 -240.052908 
L 563.217782 -237.493666 
L 564.434013 -234.934424 
L 565.663724 -232.375182 
L 566.869157 -229.815939 
L 568.009006 -227.256697 
L 569.040728 -224.697455 
L 569.923046 -222.138212 
L 570.618497 -219.57897 
L 571.095858 -217.019728 
L 571.332299 -214.460486 
L 571.315082 -211.901243 
L 571.042704 -209.342001 
L 570.525345 -206.782759 
L 569.784599 -204.223517 
L 568.852458 -201.664274 
L 567.769639 -199.105032 
L 566.583356 -196.54579 
L 565.344714 -193.986548 
L 564.105915 -191.427305 
L 562.917503 -188.868063 
L 561.825824 -186.308821 
L 560.870881 -183.749578 
L 560.084685 -181.190336 
L 559.490189 -178.631094 
L 559.100797 -176.071852 
L 558.920436 -173.512609 
L 558.944135 -170.953367 
L 559.159039 -168.394125 
L 559.545792 -165.834883 
L 560.080214 -163.27564 
L 560.7352 -160.716398 
L 561.482768 -158.157156 
L 562.29614 -155.597914 
L 563.151742 -153.038671 
L 564.030948 -150.479429 
L 564.921394 -147.920187 
L 565.817671 -145.360944 
L 566.721222 -142.801702 
L 567.639348 -140.24246 
L 568.583305 -137.683218 
L 569.565594 -135.123975 
L 570.596676 -132.564733 
L 571.681473 -130.005491 
L 572.816084 -127.446249 
L 573.985194 -124.887006 
L 575.160601 -122.327764 
L 576.301205 -119.768522 
L 577.354617 -117.20928 
L 578.260352 -114.650037 
L 578.954355 -112.090795 
L 579.37441 -109.531553 
L 579.465831 -106.97231 
L 579.186811 -104.413068 
L 578.512769 -101.853826 
L 577.439212 -99.294584 
L 575.982761 -96.735341 
L 574.180255 -94.176099 
L 572.086053 -91.616857 
L 569.767888 -89.057615 
L 567.301748 -86.498372 
L 564.766377 -83.93913 
L 562.237962 -81.379888 
L 559.785505 -78.820646 
L 557.467251 -76.261403 
L 555.328391 -73.702161 
L 553.400086 -71.142919 
L 551.699697 -68.583676 
L 550.232025 -66.024434 
L 548.991265 -63.465192 
L 547.963369 -60.90595 
L 547.128532 -58.346707 
L 546.463557 -55.787465 
z
" style="stroke: #3f3f3f; stroke-width: 1.5"/>
    </defs>
    <g clip-path="url(#pa93b5f0c24)">
     <use xlink:href="#m9a919c91d2" x="0" y="351.126562" style="fill: #e1812c; stroke: #3f3f3f; stroke-width: 1.5"/>
    </g>
   </g>
   <g id="PolyCollection_11">
    <defs>
     <path id="m33c76a2dfc" d="M 651.449681 -74.401245 
L 650.882547 -74.401245 
L 650.645514 -76.704168 
L 650.329079 -79.00709 
L 649.914928 -81.310012 
L 649.383582 -83.612935 
L 648.71544 -85.915857 
L 647.892146 -88.218779 
L 646.898262 -90.521702 
L 645.723121 -92.824624 
L 644.362733 -95.127546 
L 642.821544 -97.430469 
L 641.113849 -99.733391 
L 639.264652 -102.036313 
L 637.309803 -104.339236 
L 635.295295 -106.642158 
L 633.275678 -108.94508 
L 631.31165 -111.248003 
L 629.466947 -113.550925 
L 627.804748 -115.853847 
L 626.383862 -118.15677 
L 625.254997 -120.459692 
L 624.457392 -122.762614 
L 624.016105 -125.065537 
L 623.940159 -127.368459 
L 624.221729 -129.671381 
L 624.836418 -131.974304 
L 625.744637 -134.277226 
L 626.893982 -136.580148 
L 628.222423 -138.883071 
L 629.662049 -141.185993 
L 631.143056 -143.488915 
L 632.597661 -145.791837 
L 633.963586 -148.09476 
L 635.186867 -150.397682 
L 636.223769 -152.700604 
L 637.041706 -155.003527 
L 637.619187 -157.306449 
L 637.944906 -159.609371 
L 638.01618 -161.912294 
L 637.836993 -164.215216 
L 637.415951 -166.518138 
L 636.7644 -168.821061 
L 635.894939 -171.123983 
L 634.820488 -173.426905 
L 633.55398 -175.729828 
L 632.10867 -178.03275 
L 630.498978 -180.335672 
L 628.741708 -182.638595 
L 626.857435 -184.941517 
L 624.871836 -187.244439 
L 622.816708 -189.547362 
L 620.730464 -191.850284 
L 618.657933 -194.153206 
L 616.649358 -196.456129 
L 614.758605 -198.759051 
L 613.040683 -201.061973 
L 611.548796 -203.364896 
L 610.331197 -205.667818 
L 609.428202 -207.97074 
L 608.869662 -210.273663 
L 608.673176 -212.576585 
L 608.843202 -214.879507 
L 609.371121 -217.18243 
L 610.23617 -219.485352 
L 611.407073 -221.788274 
L 612.844123 -224.091197 
L 614.501486 -226.394119 
L 616.329487 -228.697041 
L 618.276759 -230.999963 
L 620.292159 -233.302886 
L 622.32648 -235.605808 
L 624.333972 -237.90873 
L 626.27377 -240.211653 
L 628.111218 -242.514575 
L 629.819101 -244.817497 
L 631.378688 -247.12042 
L 632.78047 -249.423342 
L 634.024438 -251.726264 
L 635.119769 -254.029187 
L 636.083826 -256.332109 
L 636.940487 -258.635031 
L 637.717876 -260.937954 
L 638.445715 -263.240876 
L 639.152542 -265.543798 
L 639.863105 -267.846721 
L 640.59624 -270.149643 
L 641.363439 -272.452565 
L 642.168284 -274.755488 
L 643.006751 -277.05841 
L 643.868309 -279.361332 
L 644.737615 -281.664255 
L 645.596559 -283.967177 
L 646.426379 -286.270099 
L 647.209596 -288.573022 
L 647.931556 -290.875944 
L 648.581464 -293.178866 
L 649.15287 -295.481789 
L 649.643635 -297.784711 
L 650.055485 -300.087633 
L 650.393277 -302.390556 
L 651.449681 -302.390556 
L 651.449681 -302.390556 
L 651.449681 -300.087633 
L 651.449681 -297.784711 
L 651.449681 -295.481789 
L 651.449681 -293.178866 
L 651.449681 -290.875944 
L 651.449681 -288.573022 
L 651.449681 -286.270099 
L 651.449681 -283.967177 
L 651.449681 -281.664255 
L 651.449681 -279.361332 
L 651.449681 -277.05841 
L 651.449681 -274.755488 
L 651.449681 -272.452565 
L 651.449681 -270.149643 
L 651.449681 -267.846721 
L 651.449681 -265.543798 
L 651.449681 -263.240876 
L 651.449681 -260.937954 
L 651.449681 -258.635031 
L 651.449681 -256.332109 
L 651.449681 -254.029187 
L 651.449681 -251.726264 
L 651.449681 -249.423342 
L 651.449681 -247.12042 
L 651.449681 -244.817497 
L 651.449681 -242.514575 
L 651.449681 -240.211653 
L 651.449681 -237.90873 
L 651.449681 -235.605808 
L 651.449681 -233.302886 
L 651.449681 -230.999963 
L 651.449681 -228.697041 
L 651.449681 -226.394119 
L 651.449681 -224.091197 
L 651.449681 -221.788274 
L 651.449681 -219.485352 
L 651.449681 -217.18243 
L 651.449681 -214.879507 
L 651.449681 -212.576585 
L 651.449681 -210.273663 
L 651.449681 -207.97074 
L 651.449681 -205.667818 
L 651.449681 -203.364896 
L 651.449681 -201.061973 
L 651.449681 -198.759051 
L 651.449681 -196.456129 
L 651.449681 -194.153206 
L 651.449681 -191.850284 
L 651.449681 -189.547362 
L 651.449681 -187.244439 
L 651.449681 -184.941517 
L 651.449681 -182.638595 
L 651.449681 -180.335672 
L 651.449681 -178.03275 
L 651.449681 -175.729828 
L 651.449681 -173.426905 
L 651.449681 -171.123983 
L 651.449681 -168.821061 
L 651.449681 -166.518138 
L 651.449681 -164.215216 
L 651.449681 -161.912294 
L 651.449681 -159.609371 
L 651.449681 -157.306449 
L 651.449681 -155.003527 
L 651.449681 -152.700604 
L 651.449681 -150.397682 
L 651.449681 -148.09476 
L 651.449681 -145.791837 
L 651.449681 -143.488915 
L 651.449681 -141.185993 
L 651.449681 -138.883071 
L 651.449681 -136.580148 
L 651.449681 -134.277226 
L 651.449681 -131.974304 
L 651.449681 -129.671381 
L 651.449681 -127.368459 
L 651.449681 -125.065537 
L 651.449681 -122.762614 
L 651.449681 -120.459692 
L 651.449681 -118.15677 
L 651.449681 -115.853847 
L 651.449681 -113.550925 
L 651.449681 -111.248003 
L 651.449681 -108.94508 
L 651.449681 -106.642158 
L 651.449681 -104.339236 
L 651.449681 -102.036313 
L 651.449681 -99.733391 
L 651.449681 -97.430469 
L 651.449681 -95.127546 
L 651.449681 -92.824624 
L 651.449681 -90.521702 
L 651.449681 -88.218779 
L 651.449681 -85.915857 
L 651.449681 -83.612935 
L 651.449681 -81.310012 
L 651.449681 -79.00709 
L 651.449681 -76.704168 
L 651.449681 -74.401245 
z
" style="stroke: #3f3f3f; stroke-width: 1.5"/>
    </defs>
    <g clip-path="url(#pa93b5f0c24)">
     <use xlink:href="#m33c76a2dfc" x="0" y="351.126562" style="fill: #3274a1; stroke: #3f3f3f; stroke-width: 1.5"/>
    </g>
   </g>
   <g id="PolyCollection_12">
    <defs>
     <path id="m88eb45cf61" d="M 654.388581 -62.639051 
L 651.449681 -62.639051 
L 651.449681 -65.099867 
L 651.449681 -67.560683 
L 651.449681 -70.021499 
L 651.449681 -72.482315 
L 651.449681 -74.943131 
L 651.449681 -77.403947 
L 651.449681 -79.864763 
L 651.449681 -82.325579 
L 651.449681 -84.786395 
L 651.449681 -87.247211 
L 651.449681 -89.708027 
L 651.449681 -92.168842 
L 651.449681 -94.629658 
L 651.449681 -97.090474 
L 651.449681 -99.55129 
L 651.449681 -102.012106 
L 651.449681 -104.472922 
L 651.449681 -106.933738 
L 651.449681 -109.394554 
L 651.449681 -111.85537 
L 651.449681 -114.316186 
L 651.449681 -116.777002 
L 651.449681 -119.237818 
L 651.449681 -121.698634 
L 651.449681 -124.15945 
L 651.449681 -126.620266 
L 651.449681 -129.081082 
L 651.449681 -131.541898 
L 651.449681 -134.002714 
L 651.449681 -136.46353 
L 651.449681 -138.924345 
L 651.449681 -141.385161 
L 651.449681 -143.845977 
L 651.449681 -146.306793 
L 651.449681 -148.767609 
L 651.449681 -151.228425 
L 651.449681 -153.689241 
L 651.449681 -156.150057 
L 651.449681 -158.610873 
L 651.449681 -161.071689 
L 651.449681 -163.532505 
L 651.449681 -165.993321 
L 651.449681 -168.454137 
L 651.449681 -170.914953 
L 651.449681 -173.375769 
L 651.449681 -175.836585 
L 651.449681 -178.297401 
L 651.449681 -180.758217 
L 651.449681 -183.219032 
L 651.449681 -185.679848 
L 651.449681 -188.140664 
L 651.449681 -190.60148 
L 651.449681 -193.062296 
L 651.449681 -195.523112 
L 651.449681 -197.983928 
L 651.449681 -200.444744 
L 651.449681 -202.90556 
L 651.449681 -205.366376 
L 651.449681 -207.827192 
L 651.449681 -210.288008 
L 651.449681 -212.748824 
L 651.449681 -215.20964 
L 651.449681 -217.670456 
L 651.449681 -220.131272 
L 651.449681 -222.592088 
L 651.449681 -225.052904 
L 651.449681 -227.51372 
L 651.449681 -229.974535 
L 651.449681 -232.435351 
L 651.449681 -234.896167 
L 651.449681 -237.356983 
L 651.449681 -239.817799 
L 651.449681 -242.278615 
L 651.449681 -244.739431 
L 651.449681 -247.200247 
L 651.449681 -249.661063 
L 651.449681 -252.121879 
L 651.449681 -254.582695 
L 651.449681 -257.043511 
L 651.449681 -259.504327 
L 651.449681 -261.965143 
L 651.449681 -264.425959 
L 651.449681 -266.886775 
L 651.449681 -269.347591 
L 651.449681 -271.808407 
L 651.449681 -274.269222 
L 651.449681 -276.730038 
L 651.449681 -279.190854 
L 651.449681 -281.65167 
L 651.449681 -284.112486 
L 651.449681 -286.573302 
L 651.449681 -289.034118 
L 651.449681 -291.494934 
L 651.449681 -293.95575 
L 651.449681 -296.416566 
L 651.449681 -298.877382 
L 651.449681 -301.338198 
L 651.449681 -303.799014 
L 651.449681 -306.25983 
L 652.24166 -306.25983 
L 652.24166 -306.25983 
L 652.481731 -303.799014 
L 652.771208 -301.338198 
L 653.112577 -298.877382 
L 653.506044 -296.416566 
L 653.948995 -293.95575 
L 654.43561 -291.494934 
L 654.95673 -289.034118 
L 655.50003 -286.573302 
L 656.05056 -284.112486 
L 656.591648 -281.65167 
L 657.106125 -279.190854 
L 657.57778 -276.730038 
L 657.992916 -274.269222 
L 658.341845 -271.808407 
L 658.620151 -269.347591 
L 658.829582 -266.886775 
L 658.978428 -264.425959 
L 659.081348 -261.965143 
L 659.15863 -259.504327 
L 659.234936 -257.043511 
L 659.33766 -254.582695 
L 659.495045 -252.121879 
L 659.734219 -249.661063 
L 660.079326 -247.200247 
L 660.54989 -244.739431 
L 661.159524 -242.278615 
L 661.915049 -239.817799 
L 662.816045 -237.356983 
L 663.854825 -234.896167 
L 665.016784 -232.435351 
L 666.281051 -229.974535 
L 667.621391 -227.51372 
L 669.007253 -225.052904 
L 670.404931 -222.592088 
L 671.778761 -220.131272 
L 673.092334 -217.670456 
L 674.309698 -215.20964 
L 675.396554 -212.748824 
L 676.321432 -210.288008 
L 677.056871 -207.827192 
L 677.580571 -205.366376 
L 677.876531 -202.90556 
L 677.936091 -200.444744 
L 677.75885 -197.983928 
L 677.353349 -195.523112 
L 676.737431 -193.062296 
L 675.938186 -190.60148 
L 674.991393 -188.140664 
L 673.940409 -185.679848 
L 672.834509 -183.219032 
L 671.726709 -180.758217 
L 670.671191 -178.297401 
L 669.720465 -175.836585 
L 668.922482 -173.375769 
L 668.317898 -170.914953 
L 667.937718 -168.454137 
L 667.801538 -165.993321 
L 667.916547 -163.532505 
L 668.277427 -161.071689 
L 668.867188 -158.610873 
L 669.658928 -156.150057 
L 670.618386 -153.689241 
L 671.707074 -151.228425 
L 672.885711 -148.767609 
L 674.117578 -146.306793 
L 675.371427 -143.845977 
L 676.623559 -141.385161 
L 677.858767 -138.924345 
L 679.069959 -136.46353 
L 680.256442 -134.002714 
L 681.421027 -131.541898 
L 682.566319 -129.081082 
L 683.690704 -126.620266 
L 684.784647 -124.15945 
L 685.827923 -121.698634 
L 686.788317 -119.237818 
L 687.62214 -116.777002 
L 688.276672 -114.316186 
L 688.694342 -111.85537 
L 688.818194 -109.394554 
L 688.597969 -106.933738 
L 687.996011 -104.472922 
L 686.992219 -102.012106 
L 685.587364 -99.55129 
L 683.804342 -97.090474 
L 681.687194 -94.629658 
L 679.298027 -92.168842 
L 676.712264 -89.708027 
L 674.012815 -87.247211 
L 671.283874 -84.786395 
L 668.605044 -82.325579 
L 666.046374 -79.864763 
L 663.664737 -77.403947 
L 661.501737 -74.943131 
L 659.583174 -72.482315 
L 657.919857 -70.021499 
L 656.509487 -67.560683 
L 655.339227 -65.099867 
L 654.388581 -62.639051 
z
" style="stroke: #3f3f3f; stroke-width: 1.5"/>
    </defs>
    <g clip-path="url(#pa93b5f0c24)">
     <use xlink:href="#m88eb45cf61" x="0" y="351.126562" style="fill: #e1812c; stroke: #3f3f3f; stroke-width: 1.5"/>
    </g>
   </g>
   <g id="matplotlib.axis_3">
    <g id="xtick_4">
     <g id="line2d_16">
      <g>
       <use xlink:href="#m1c9af8c7bd" x="437.567156" y="313.292187" style="stroke: #000000; stroke-width: 0.8"/>
      </g>
     </g>
     <g id="text_13">
      <!-- map2 -->
      <g transform="translate(423.277312 327.890625)scale(0.1 -0.1)">
       <use xlink:href="#DejaVuSans-6d"/>
       <use xlink:href="#DejaVuSans-61" x="97.412109"/>
       <use xlink:href="#DejaVuSans-70" x="158.691406"/>
       <use xlink:href="#DejaVuSans-32" x="222.167969"/>
      </g>
     </g>
    </g>
    <g id="xtick_5">
     <g id="line2d_17">
      <g>
       <use xlink:href="#m1c9af8c7bd" x="544.508419" y="313.292187" style="stroke: #000000; stroke-width: 0.8"/>
      </g>
     </g>
     <g id="text_14">
      <!-- map5 -->
      <g transform="translate(530.218575 327.890625)scale(0.1 -0.1)">
       <use xlink:href="#DejaVuSans-6d"/>
       <use xlink:href="#DejaVuSans-61" x="97.412109"/>
       <use xlink:href="#DejaVuSans-70" x="158.691406"/>
       <use xlink:href="#DejaVuSans-35" x="222.167969"/>
      </g>
     </g>
    </g>
    <g id="xtick_6">
     <g id="line2d_18">
      <g>
       <use xlink:href="#m1c9af8c7bd" x="651.449681" y="313.292187" style="stroke: #000000; stroke-width: 0.8"/>
      </g>
     </g>
     <g id="text_15">
      <!-- small_warehouse -->
      <g transform="translate(608.381712 327.890625)scale(0.1 -0.1)">
       <use xlink:href="#DejaVuSans-73"/>
       <use xlink:href="#DejaVuSans-6d" x="52.099609"/>
       <use xlink:href="#DejaVuSans-61" x="149.511719"/>
       <use xlink:href="#DejaVuSans-6c" x="210.791016"/>
       <use xlink:href="#DejaVuSans-6c" x="238.574219"/>
       <use xlink:href="#DejaVuSans-5f" x="266.357422"/>
       <use xlink:href="#DejaVuSans-77" x="316.357422"/>
       <use xlink:href="#DejaVuSans-61" x="398.144531"/>
       <use xlink:href="#DejaVuSans-72" x="459.423828"/>
       <use xlink:href="#DejaVuSans-65" x="498.287109"/>
       <use xlink:href="#DejaVuSans-68" x="559.810547"/>
       <use xlink:href="#DejaVuSans-6f" x="623.189453"/>
       <use xlink:href="#DejaVuSans-75" x="684.371094"/>
       <use xlink:href="#DejaVuSans-73" x="747.75"/>
       <use xlink:href="#DejaVuSans-65" x="799.849609"/>
      </g>
     </g>
    </g>
    <g id="text_16">
     <!-- World -->
     <g transform="translate(530.180294 341.846875)scale(0.1 -0.1)">
      <use xlink:href="#DejaVuSans-57"/>
      <use xlink:href="#DejaVuSans-6f" x="93.001953"/>
      <use xlink:href="#DejaVuSans-72" x="154.183594"/>
      <use xlink:href="#DejaVuSans-6c" x="195.296875"/>
      <use xlink:href="#DejaVuSans-64" x="223.080078"/>
     </g>
    </g>
   </g>
   <g id="matplotlib.axis_4">
    <g id="ytick_7">
     <g id="line2d_19">
      <g>
       <use xlink:href="#m9b03fe1de7" x="384.096525" y="312.099847" style="stroke: #000000; stroke-width: 0.8"/>
      </g>
     </g>
    </g>
    <g id="ytick_8">
     <g id="line2d_20">
      <g>
       <use xlink:href="#m9b03fe1de7" x="384.096525" y="262.075002" style="stroke: #000000; stroke-width: 0.8"/>
      </g>
     </g>
    </g>
    <g id="ytick_9">
     <g id="line2d_21">
      <g>
       <use xlink:href="#m9b03fe1de7" x="384.096525" y="212.050157" style="stroke: #000000; stroke-width: 0.8"/>
      </g>
     </g>
    </g>
    <g id="ytick_10">
     <g id="line2d_22">
      <g>
       <use xlink:href="#m9b03fe1de7" x="384.096525" y="162.025312" style="stroke: #000000; stroke-width: 0.8"/>
      </g>
     </g>
    </g>
    <g id="ytick_11">
     <g id="line2d_23">
      <g>
       <use xlink:href="#m9b03fe1de7" x="384.096525" y="112.000467" style="stroke: #000000; stroke-width: 0.8"/>
      </g>
     </g>
    </g>
    <g id="ytick_12">
     <g id="line2d_24">
      <g>
       <use xlink:href="#m9b03fe1de7" x="384.096525" y="61.975622" style="stroke: #000000; stroke-width: 0.8"/>
      </g>
     </g>
    </g>
   </g>
   <g id="line2d_25">
    <path d="M 437.567156 252.927459 
L 437.567156 81.585361 
" clip-path="url(#pa93b5f0c24)" style="fill: none; stroke: #3f3f3f; stroke-width: 1.5; stroke-linecap: square"/>
   </g>
   <g id="line2d_26">
    <path d="M 437.567156 234.98905 
L 437.567156 82.240686 
" clip-path="url(#pa93b5f0c24)" style="fill: none; stroke: #3f3f3f; stroke-width: 4.5; stroke-linecap: square"/>
   </g>
   <g id="line2d_27">
    <path d="M 544.508419 255.622797 
L 544.508419 81.690413 
" clip-path="url(#pa93b5f0c24)" style="fill: none; stroke: #3f3f3f; stroke-width: 1.5; stroke-linecap: square"/>
   </g>
   <g id="line2d_28">
    <path d="M 544.508419 212.898828 
L 544.508419 137.666464 
" clip-path="url(#pa93b5f0c24)" style="fill: none; stroke: #3f3f3f; stroke-width: 4.5; stroke-linecap: square"/>
   </g>
   <g id="line2d_29">
    <path d="M 651.449681 251.667833 
L 651.449681 81.686411 
" clip-path="url(#pa93b5f0c24)" style="fill: none; stroke: #3f3f3f; stroke-width: 1.5; stroke-linecap: square"/>
   </g>
   <g id="line2d_30">
    <path d="M 651.449681 221.972585 
L 651.449681 138.22174 
" clip-path="url(#pa93b5f0c24)" style="fill: none; stroke: #3f3f3f; stroke-width: 4.5; stroke-linecap: square"/>
   </g>
   <g id="patch_10">
    <path d="M 384.096525 313.292187 
L 384.096525 20.798437 
" style="fill: none; stroke: #000000; stroke-width: 0.8; stroke-linejoin: miter; stroke-linecap: square"/>
   </g>
   <g id="patch_11">
    <path d="M 384.096525 313.292187 
L 704.920312 313.292187 
" style="fill: none; stroke: #000000; stroke-width: 0.8; stroke-linejoin: miter; stroke-linecap: square"/>
   </g>
   <g id="PathCollection_4">
    <g clip-path="url(#pa93b5f0c24)">
     <use xlink:href="#mce8d21ab2e" x="437.567156" y="159.254936" style="fill: #ffffff; stroke: #3f3f3f"/>
    </g>
   </g>
   <g id="PathCollection_5">
    <g clip-path="url(#pa93b5f0c24)">
     <use xlink:href="#mce8d21ab2e" x="544.508419" y="153.681168" style="fill: #ffffff; stroke: #3f3f3f"/>
    </g>
   </g>
   <g id="PathCollection_6">
    <g clip-path="url(#pa93b5f0c24)">
     <use xlink:href="#mce8d21ab2e" x="651.449681" y="163.689138" style="fill: #ffffff; stroke: #3f3f3f"/>
    </g>
   </g>
   <g id="text_17">
    <!-- Dyn_obs = 10.0 -->
    <g transform="translate(504.691231 14.798437)scale(0.1 -0.1)">
     <use xlink:href="#DejaVuSans-44"/>
     <use xlink:href="#DejaVuSans-79" x="77.001953"/>
     <use xlink:href="#DejaVuSans-6e" x="136.181641"/>
     <use xlink:href="#DejaVuSans-5f" x="199.560547"/>
     <use xlink:href="#DejaVuSans-6f" x="249.560547"/>
     <use xlink:href="#DejaVuSans-62" x="310.742188"/>
     <use xlink:href="#DejaVuSans-73" x="374.21875"/>
     <use xlink:href="#DejaVuSans-20" x="426.318359"/>
     <use xlink:href="#DejaVuSans-3d" x="458.105469"/>
     <use xlink:href="#DejaVuSans-20" x="541.894531"/>
     <use xlink:href="#DejaVuSans-31" x="573.681641"/>
     <use xlink:href="#DejaVuSans-30" x="637.304688"/>
     <use xlink:href="#DejaVuSans-2e" x="700.927734"/>
     <use xlink:href="#DejaVuSans-30" x="732.714844"/>
    </g>
   </g>
  </g>
  <g id="legend_1">
   <g id="text_18">
    <!-- dim -->
    <g transform="translate(724.76875 163.644531)scale(0.1 -0.1)">
     <use xlink:href="#DejaVuSans-64"/>
     <use xlink:href="#DejaVuSans-69" x="63.476562"/>
     <use xlink:href="#DejaVuSans-6d" x="91.259766"/>
    </g>
   </g>
   <g id="patch_12">
    <path d="M 713.846875 178.322656 
L 733.846875 178.322656 
L 733.846875 171.322656 
L 713.846875 171.322656 
z
" style="fill: #3274a1; stroke: #3f3f3f; stroke-width: 0.75; stroke-linejoin: miter"/>
   </g>
   <g id="text_19">
    <!-- 2d -->
    <g transform="translate(741.846875 178.322656)scale(0.1 -0.1)">
     <use xlink:href="#DejaVuSans-32"/>
     <use xlink:href="#DejaVuSans-64" x="63.623047"/>
    </g>
   </g>
   <g id="patch_13">
    <path d="M 713.846875 193.000781 
L 733.846875 193.000781 
L 733.846875 186.000781 
L 713.846875 186.000781 
z
" style="fill: #e1812c; stroke: #3f3f3f; stroke-width: 0.75; stroke-linejoin: miter"/>
   </g>
   <g id="text_20">
    <!-- 3d -->
    <g transform="translate(741.846875 193.000781)scale(0.1 -0.1)">
     <defs>
      <path id="DejaVuSans-33" d="M 2597 2516 
Q 3050 2419 3304 2112 
Q 3559 1806 3559 1356 
Q 3559 666 3084 287 
Q 2609 -91 1734 -91 
Q 1441 -91 1130 -33 
Q 819 25 488 141 
L 488 750 
Q 750 597 1062 519 
Q 1375 441 1716 441 
Q 2309 441 2620 675 
Q 2931 909 2931 1356 
Q 2931 1769 2642 2001 
Q 2353 2234 1838 2234 
L 1294 2234 
L 1294 2753 
L 1863 2753 
Q 2328 2753 2575 2939 
Q 2822 3125 2822 3475 
Q 2822 3834 2567 4026 
Q 2313 4219 1838 4219 
Q 1578 4219 1281 4162 
Q 984 4106 628 3988 
L 628 4550 
Q 988 4650 1302 4700 
Q 1616 4750 1894 4750 
Q 2613 4750 3031 4423 
Q 3450 4097 3450 3541 
Q 3450 3153 3228 2886 
Q 3006 2619 2597 2516 
z
" transform="scale(0.015625)"/>
     </defs>
     <use xlink:href="#DejaVuSans-33"/>
     <use xlink:href="#DejaVuSans-64" x="63.623047"/>
    </g>
   </g>
  </g>
 </g>
 <defs>
  <clipPath id="p203fdc760d">
   <rect x="48.982813" y="20.798437" width="320.823788" height="292.49375"/>
  </clipPath>
  <clipPath id="pa93b5f0c24">
   <rect x="384.096525" y="20.798437" width="320.823788" height="292.49375"/>
  </clipPath>
 </defs>
</svg>
