<?xml version="1.0" encoding="utf-8" standalone="no"?>
<!DOCTYPE svg PUBLIC "-//W3C//DTD SVG 1.1//EN"
  "http://www.w3.org/Graphics/SVG/1.1/DTD/svg11.dtd">
<svg xmlns:xlink="http://www.w3.org/1999/xlink" width="763.828255pt" height="351.126562pt" viewBox="0 0 763.828255 351.126562" xmlns="http://www.w3.org/2000/svg" version="1.1">
 <metadata>
  <rdf:RDF xmlns:dc="http://purl.org/dc/elements/1.1/" xmlns:cc="http://creativecommons.org/ns#" xmlns:rdf="http://www.w3.org/1999/02/22-rdf-syntax-ns#">
   <cc:Work>
    <dc:type rdf:resource="http://purl.org/dc/dcmitype/StillImage"/>
    <dc:date>2022-03-28T23:39:19.139866</dc:date>
    <dc:format>image/svg+xml</dc:format>
    <dc:creator>
     <cc:Agent>
      <dc:title>Matplotlib v3.5.1, https://matplotlib.org/</dc:title>
     </cc:Agent>
    </dc:creator>
   </cc:Work>
  </rdf:RDF>
 </metadata>
 <defs>
  <style type="text/css">*{stroke-linejoin: round; stroke-linecap: butt}</style>
 </defs>
 <g id="figure_1">
  <g id="patch_1">
   <path d="M 0 351.126562 
L 763.828255 351.126562 
L 763.828255 0 
L 0 0 
z
" style="fill: #ffffff"/>
  </g>
  <g id="axes_1">
   <g id="patch_2">
    <path d="M 43.78125 313.292187 
L 367.337251 313.292187 
L 367.337251 20.798437 
L 43.78125 20.798437 
z
" style="fill: #ffffff"/>
   </g>
   <g id="matplotlib.axis_1">
    <g id="xtick_1">
     <g id="line2d_1">
      <defs>
       <path id="m5b986e49db" d="M 0 0 
L 0 3.5 
" style="stroke: #262626; stroke-width: 0.8"/>
      </defs>
      <g>
       <use xlink:href="#m5b986e49db" x="97.70725" y="313.292187" style="fill: #262626; stroke: #262626; stroke-width: 0.8"/>
      </g>
     </g>
     <g id="text_1">
      <!-- map2 -->
      <g style="fill: #262626" transform="translate(83.417406 327.890625)scale(0.1 -0.1)">
       <defs>
        <path id="DejaVuSans-6d" d="M 3328 2828 
Q 3544 3216 3844 3400 
Q 4144 3584 4550 3584 
Q 5097 3584 5394 3201 
Q 5691 2819 5691 2113 
L 5691 0 
L 5113 0 
L 5113 2094 
Q 5113 2597 4934 2840 
Q 4756 3084 4391 3084 
Q 3944 3084 3684 2787 
Q 3425 2491 3425 1978 
L 3425 0 
L 2847 0 
L 2847 2094 
Q 2847 2600 2669 2842 
Q 2491 3084 2119 3084 
Q 1678 3084 1418 2786 
Q 1159 2488 1159 1978 
L 1159 0 
L 581 0 
L 581 3500 
L 1159 3500 
L 1159 2956 
Q 1356 3278 1631 3431 
Q 1906 3584 2284 3584 
Q 2666 3584 2933 3390 
Q 3200 3197 3328 2828 
z
" transform="scale(0.015625)"/>
        <path id="DejaVuSans-61" d="M 2194 1759 
Q 1497 1759 1228 1600 
Q 959 1441 959 1056 
Q 959 750 1161 570 
Q 1363 391 1709 391 
Q 2188 391 2477 730 
Q 2766 1069 2766 1631 
L 2766 1759 
L 2194 1759 
z
M 3341 1997 
L 3341 0 
L 2766 0 
L 2766 531 
Q 2569 213 2275 61 
Q 1981 -91 1556 -91 
Q 1019 -91 701 211 
Q 384 513 384 1019 
Q 384 1609 779 1909 
Q 1175 2209 1959 2209 
L 2766 2209 
L 2766 2266 
Q 2766 2663 2505 2880 
Q 2244 3097 1772 3097 
Q 1472 3097 1187 3025 
Q 903 2953 641 2809 
L 641 3341 
Q 956 3463 1253 3523 
Q 1550 3584 1831 3584 
Q 2591 3584 2966 3190 
Q 3341 2797 3341 1997 
z
" transform="scale(0.015625)"/>
        <path id="DejaVuSans-70" d="M 1159 525 
L 1159 -1331 
L 581 -1331 
L 581 3500 
L 1159 3500 
L 1159 2969 
Q 1341 3281 1617 3432 
Q 1894 3584 2278 3584 
Q 2916 3584 3314 3078 
Q 3713 2572 3713 1747 
Q 3713 922 3314 415 
Q 2916 -91 2278 -91 
Q 1894 -91 1617 61 
Q 1341 213 1159 525 
z
M 3116 1747 
Q 3116 2381 2855 2742 
Q 2594 3103 2138 3103 
Q 1681 3103 1420 2742 
Q 1159 2381 1159 1747 
Q 1159 1113 1420 752 
Q 1681 391 2138 391 
Q 2594 391 2855 752 
Q 3116 1113 3116 1747 
z
" transform="scale(0.015625)"/>
        <path id="DejaVuSans-32" d="M 1228 531 
L 3431 531 
L 3431 0 
L 469 0 
L 469 531 
Q 828 903 1448 1529 
Q 2069 2156 2228 2338 
Q 2531 2678 2651 2914 
Q 2772 3150 2772 3378 
Q 2772 3750 2511 3984 
Q 2250 4219 1831 4219 
Q 1534 4219 1204 4116 
Q 875 4013 500 3803 
L 500 4441 
Q 881 4594 1212 4672 
Q 1544 4750 1819 4750 
Q 2544 4750 2975 4387 
Q 3406 4025 3406 3419 
Q 3406 3131 3298 2873 
Q 3191 2616 2906 2266 
Q 2828 2175 2409 1742 
Q 1991 1309 1228 531 
z
" transform="scale(0.015625)"/>
       </defs>
       <use xlink:href="#DejaVuSans-6d"/>
       <use xlink:href="#DejaVuSans-61" x="97.412109"/>
       <use xlink:href="#DejaVuSans-70" x="158.691406"/>
       <use xlink:href="#DejaVuSans-32" x="222.167969"/>
      </g>
     </g>
    </g>
    <g id="xtick_2">
     <g id="line2d_2">
      <g>
       <use xlink:href="#m5b986e49db" x="205.55925" y="313.292187" style="fill: #262626; stroke: #262626; stroke-width: 0.8"/>
      </g>
     </g>
     <g id="text_2">
      <!-- map5 -->
      <g style="fill: #262626" transform="translate(191.269407 327.890625)scale(0.1 -0.1)">
       <defs>
        <path id="DejaVuSans-35" d="M 691 4666 
L 3169 4666 
L 3169 4134 
L 1269 4134 
L 1269 2991 
Q 1406 3038 1543 3061 
Q 1681 3084 1819 3084 
Q 2600 3084 3056 2656 
Q 3513 2228 3513 1497 
Q 3513 744 3044 326 
Q 2575 -91 1722 -91 
Q 1428 -91 1123 -41 
Q 819 9 494 109 
L 494 744 
Q 775 591 1075 516 
Q 1375 441 1709 441 
Q 2250 441 2565 725 
Q 2881 1009 2881 1497 
Q 2881 1984 2565 2268 
Q 2250 2553 1709 2553 
Q 1456 2553 1204 2497 
Q 953 2441 691 2322 
L 691 4666 
z
" transform="scale(0.015625)"/>
       </defs>
       <use xlink:href="#DejaVuSans-6d"/>
       <use xlink:href="#DejaVuSans-61" x="97.412109"/>
       <use xlink:href="#DejaVuSans-70" x="158.691406"/>
       <use xlink:href="#DejaVuSans-35" x="222.167969"/>
      </g>
     </g>
    </g>
    <g id="xtick_3">
     <g id="line2d_3">
      <g>
       <use xlink:href="#m5b986e49db" x="313.411251" y="313.292187" style="fill: #262626; stroke: #262626; stroke-width: 0.8"/>
      </g>
     </g>
     <g id="text_3">
      <!-- small_warehouse -->
      <g style="fill: #262626" transform="translate(270.343282 327.890625)scale(0.1 -0.1)">
       <defs>
        <path id="DejaVuSans-73" d="M 2834 3397 
L 2834 2853 
Q 2591 2978 2328 3040 
Q 2066 3103 1784 3103 
Q 1356 3103 1142 2972 
Q 928 2841 928 2578 
Q 928 2378 1081 2264 
Q 1234 2150 1697 2047 
L 1894 2003 
Q 2506 1872 2764 1633 
Q 3022 1394 3022 966 
Q 3022 478 2636 193 
Q 2250 -91 1575 -91 
Q 1294 -91 989 -36 
Q 684 19 347 128 
L 347 722 
Q 666 556 975 473 
Q 1284 391 1588 391 
Q 1994 391 2212 530 
Q 2431 669 2431 922 
Q 2431 1156 2273 1281 
Q 2116 1406 1581 1522 
L 1381 1569 
Q 847 1681 609 1914 
Q 372 2147 372 2553 
Q 372 3047 722 3315 
Q 1072 3584 1716 3584 
Q 2034 3584 2315 3537 
Q 2597 3491 2834 3397 
z
" transform="scale(0.015625)"/>
        <path id="DejaVuSans-6c" d="M 603 4863 
L 1178 4863 
L 1178 0 
L 603 0 
L 603 4863 
z
" transform="scale(0.015625)"/>
        <path id="DejaVuSans-5f" d="M 3263 -1063 
L 3263 -1509 
L -63 -1509 
L -63 -1063 
L 3263 -1063 
z
" transform="scale(0.015625)"/>
        <path id="DejaVuSans-77" d="M 269 3500 
L 844 3500 
L 1563 769 
L 2278 3500 
L 2956 3500 
L 3675 769 
L 4391 3500 
L 4966 3500 
L 4050 0 
L 3372 0 
L 2619 2869 
L 1863 0 
L 1184 0 
L 269 3500 
z
" transform="scale(0.015625)"/>
        <path id="DejaVuSans-72" d="M 2631 2963 
Q 2534 3019 2420 3045 
Q 2306 3072 2169 3072 
Q 1681 3072 1420 2755 
Q 1159 2438 1159 1844 
L 1159 0 
L 581 0 
L 581 3500 
L 1159 3500 
L 1159 2956 
Q 1341 3275 1631 3429 
Q 1922 3584 2338 3584 
Q 2397 3584 2469 3576 
Q 2541 3569 2628 3553 
L 2631 2963 
z
" transform="scale(0.015625)"/>
        <path id="DejaVuSans-65" d="M 3597 1894 
L 3597 1613 
L 953 1613 
Q 991 1019 1311 708 
Q 1631 397 2203 397 
Q 2534 397 2845 478 
Q 3156 559 3463 722 
L 3463 178 
Q 3153 47 2828 -22 
Q 2503 -91 2169 -91 
Q 1331 -91 842 396 
Q 353 884 353 1716 
Q 353 2575 817 3079 
Q 1281 3584 2069 3584 
Q 2775 3584 3186 3129 
Q 3597 2675 3597 1894 
z
M 3022 2063 
Q 3016 2534 2758 2815 
Q 2500 3097 2075 3097 
Q 1594 3097 1305 2825 
Q 1016 2553 972 2059 
L 3022 2063 
z
" transform="scale(0.015625)"/>
        <path id="DejaVuSans-68" d="M 3513 2113 
L 3513 0 
L 2938 0 
L 2938 2094 
Q 2938 2591 2744 2837 
Q 2550 3084 2163 3084 
Q 1697 3084 1428 2787 
Q 1159 2491 1159 1978 
L 1159 0 
L 581 0 
L 581 4863 
L 1159 4863 
L 1159 2956 
Q 1366 3272 1645 3428 
Q 1925 3584 2291 3584 
Q 2894 3584 3203 3211 
Q 3513 2838 3513 2113 
z
" transform="scale(0.015625)"/>
        <path id="DejaVuSans-6f" d="M 1959 3097 
Q 1497 3097 1228 2736 
Q 959 2375 959 1747 
Q 959 1119 1226 758 
Q 1494 397 1959 397 
Q 2419 397 2687 759 
Q 2956 1122 2956 1747 
Q 2956 2369 2687 2733 
Q 2419 3097 1959 3097 
z
M 1959 3584 
Q 2709 3584 3137 3096 
Q 3566 2609 3566 1747 
Q 3566 888 3137 398 
Q 2709 -91 1959 -91 
Q 1206 -91 779 398 
Q 353 888 353 1747 
Q 353 2609 779 3096 
Q 1206 3584 1959 3584 
z
" transform="scale(0.015625)"/>
        <path id="DejaVuSans-75" d="M 544 1381 
L 544 3500 
L 1119 3500 
L 1119 1403 
Q 1119 906 1312 657 
Q 1506 409 1894 409 
Q 2359 409 2629 706 
Q 2900 1003 2900 1516 
L 2900 3500 
L 3475 3500 
L 3475 0 
L 2900 0 
L 2900 538 
Q 2691 219 2414 64 
Q 2138 -91 1772 -91 
Q 1169 -91 856 284 
Q 544 659 544 1381 
z
M 1991 3584 
L 1991 3584 
z
" transform="scale(0.015625)"/>
       </defs>
       <use xlink:href="#DejaVuSans-73"/>
       <use xlink:href="#DejaVuSans-6d" x="52.099609"/>
       <use xlink:href="#DejaVuSans-61" x="149.511719"/>
       <use xlink:href="#DejaVuSans-6c" x="210.791016"/>
       <use xlink:href="#DejaVuSans-6c" x="238.574219"/>
       <use xlink:href="#DejaVuSans-5f" x="266.357422"/>
       <use xlink:href="#DejaVuSans-77" x="316.357422"/>
       <use xlink:href="#DejaVuSans-61" x="398.144531"/>
       <use xlink:href="#DejaVuSans-72" x="459.423828"/>
       <use xlink:href="#DejaVuSans-65" x="498.287109"/>
       <use xlink:href="#DejaVuSans-68" x="559.810547"/>
       <use xlink:href="#DejaVuSans-6f" x="623.189453"/>
       <use xlink:href="#DejaVuSans-75" x="684.371094"/>
       <use xlink:href="#DejaVuSans-73" x="747.75"/>
       <use xlink:href="#DejaVuSans-65" x="799.849609"/>
      </g>
     </g>
    </g>
    <g id="text_4">
     <!-- World -->
     <g style="fill: #262626" transform="translate(191.231125 341.846875)scale(0.1 -0.1)">
      <defs>
       <path id="DejaVuSans-57" d="M 213 4666 
L 850 4666 
L 1831 722 
L 2809 4666 
L 3519 4666 
L 4500 722 
L 5478 4666 
L 6119 4666 
L 4947 0 
L 4153 0 
L 3169 4050 
L 2175 0 
L 1381 0 
L 213 4666 
z
" transform="scale(0.015625)"/>
       <path id="DejaVuSans-64" d="M 2906 2969 
L 2906 4863 
L 3481 4863 
L 3481 0 
L 2906 0 
L 2906 525 
Q 2725 213 2448 61 
Q 2172 -91 1784 -91 
Q 1150 -91 751 415 
Q 353 922 353 1747 
Q 353 2572 751 3078 
Q 1150 3584 1784 3584 
Q 2172 3584 2448 3432 
Q 2725 3281 2906 2969 
z
M 947 1747 
Q 947 1113 1208 752 
Q 1469 391 1925 391 
Q 2381 391 2643 752 
Q 2906 1113 2906 1747 
Q 2906 2381 2643 2742 
Q 2381 3103 1925 3103 
Q 1469 3103 1208 2742 
Q 947 2381 947 1747 
z
" transform="scale(0.015625)"/>
      </defs>
      <use xlink:href="#DejaVuSans-57"/>
      <use xlink:href="#DejaVuSans-6f" x="93.001953"/>
      <use xlink:href="#DejaVuSans-72" x="154.183594"/>
      <use xlink:href="#DejaVuSans-6c" x="195.296875"/>
      <use xlink:href="#DejaVuSans-64" x="223.080078"/>
     </g>
    </g>
   </g>
   <g id="matplotlib.axis_2">
    <g id="ytick_1">
     <g id="line2d_4">
      <defs>
       <path id="m84c9596361" d="M 0 0 
L -3.5 0 
" style="stroke: #262626; stroke-width: 0.8"/>
      </defs>
      <g>
       <use xlink:href="#m84c9596361" x="43.78125" y="263.308017" style="fill: #262626; stroke: #262626; stroke-width: 0.8"/>
      </g>
     </g>
     <g id="text_5">
      <!-- 0.0 -->
      <g style="fill: #262626" transform="translate(20.878125 267.107236)scale(0.1 -0.1)">
       <defs>
        <path id="DejaVuSans-30" d="M 2034 4250 
Q 1547 4250 1301 3770 
Q 1056 3291 1056 2328 
Q 1056 1369 1301 889 
Q 1547 409 2034 409 
Q 2525 409 2770 889 
Q 3016 1369 3016 2328 
Q 3016 3291 2770 3770 
Q 2525 4250 2034 4250 
z
M 2034 4750 
Q 2819 4750 3233 4129 
Q 3647 3509 3647 2328 
Q 3647 1150 3233 529 
Q 2819 -91 2034 -91 
Q 1250 -91 836 529 
Q 422 1150 422 2328 
Q 422 3509 836 4129 
Q 1250 4750 2034 4750 
z
" transform="scale(0.015625)"/>
        <path id="DejaVuSans-2e" d="M 684 794 
L 1344 794 
L 1344 0 
L 684 0 
L 684 794 
z
" transform="scale(0.015625)"/>
       </defs>
       <use xlink:href="#DejaVuSans-30"/>
       <use xlink:href="#DejaVuSans-2e" x="63.623047"/>
       <use xlink:href="#DejaVuSans-30" x="95.410156"/>
      </g>
     </g>
    </g>
    <g id="ytick_2">
     <g id="line2d_5">
      <g>
       <use xlink:href="#m84c9596361" x="43.78125" y="198.548761" style="fill: #262626; stroke: #262626; stroke-width: 0.8"/>
      </g>
     </g>
     <g id="text_6">
      <!-- 0.2 -->
      <g style="fill: #262626" transform="translate(20.878125 202.347979)scale(0.1 -0.1)">
       <use xlink:href="#DejaVuSans-30"/>
       <use xlink:href="#DejaVuSans-2e" x="63.623047"/>
       <use xlink:href="#DejaVuSans-32" x="95.410156"/>
      </g>
     </g>
    </g>
    <g id="ytick_3">
     <g id="line2d_6">
      <g>
       <use xlink:href="#m84c9596361" x="43.78125" y="133.789504" style="fill: #262626; stroke: #262626; stroke-width: 0.8"/>
      </g>
     </g>
     <g id="text_7">
      <!-- 0.4 -->
      <g style="fill: #262626" transform="translate(20.878125 137.588723)scale(0.1 -0.1)">
       <defs>
        <path id="DejaVuSans-34" d="M 2419 4116 
L 825 1625 
L 2419 1625 
L 2419 4116 
z
M 2253 4666 
L 3047 4666 
L 3047 1625 
L 3713 1625 
L 3713 1100 
L 3047 1100 
L 3047 0 
L 2419 0 
L 2419 1100 
L 313 1100 
L 313 1709 
L 2253 4666 
z
" transform="scale(0.015625)"/>
       </defs>
       <use xlink:href="#DejaVuSans-30"/>
       <use xlink:href="#DejaVuSans-2e" x="63.623047"/>
       <use xlink:href="#DejaVuSans-34" x="95.410156"/>
      </g>
     </g>
    </g>
    <g id="ytick_4">
     <g id="line2d_7">
      <g>
       <use xlink:href="#m84c9596361" x="43.78125" y="69.030247" style="fill: #262626; stroke: #262626; stroke-width: 0.8"/>
      </g>
     </g>
     <g id="text_8">
      <!-- 0.6 -->
      <g style="fill: #262626" transform="translate(20.878125 72.829466)scale(0.1 -0.1)">
       <defs>
        <path id="DejaVuSans-36" d="M 2113 2584 
Q 1688 2584 1439 2293 
Q 1191 2003 1191 1497 
Q 1191 994 1439 701 
Q 1688 409 2113 409 
Q 2538 409 2786 701 
Q 3034 994 3034 1497 
Q 3034 2003 2786 2293 
Q 2538 2584 2113 2584 
z
M 3366 4563 
L 3366 3988 
Q 3128 4100 2886 4159 
Q 2644 4219 2406 4219 
Q 1781 4219 1451 3797 
Q 1122 3375 1075 2522 
Q 1259 2794 1537 2939 
Q 1816 3084 2150 3084 
Q 2853 3084 3261 2657 
Q 3669 2231 3669 1497 
Q 3669 778 3244 343 
Q 2819 -91 2113 -91 
Q 1303 -91 875 529 
Q 447 1150 447 2328 
Q 447 3434 972 4092 
Q 1497 4750 2381 4750 
Q 2619 4750 2861 4703 
Q 3103 4656 3366 4563 
z
" transform="scale(0.015625)"/>
       </defs>
       <use xlink:href="#DejaVuSans-30"/>
       <use xlink:href="#DejaVuSans-2e" x="63.623047"/>
       <use xlink:href="#DejaVuSans-36" x="95.410156"/>
      </g>
     </g>
    </g>
    <g id="text_9">
     <!-- jerk -->
     <g style="fill: #262626" transform="translate(14.798438 176.461719)rotate(-90)scale(0.1 -0.1)">
      <defs>
       <path id="DejaVuSans-6a" d="M 603 3500 
L 1178 3500 
L 1178 -63 
Q 1178 -731 923 -1031 
Q 669 -1331 103 -1331 
L -116 -1331 
L -116 -844 
L 38 -844 
Q 366 -844 484 -692 
Q 603 -541 603 -63 
L 603 3500 
z
M 603 4863 
L 1178 4863 
L 1178 4134 
L 603 4134 
L 603 4863 
z
" transform="scale(0.015625)"/>
       <path id="DejaVuSans-6b" d="M 581 4863 
L 1159 4863 
L 1159 1991 
L 2875 3500 
L 3609 3500 
L 1753 1863 
L 3688 0 
L 2938 0 
L 1159 1709 
L 1159 0 
L 581 0 
L 581 4863 
z
" transform="scale(0.015625)"/>
      </defs>
      <use xlink:href="#DejaVuSans-6a"/>
      <use xlink:href="#DejaVuSans-65" x="27.783203"/>
      <use xlink:href="#DejaVuSans-72" x="89.306641"/>
      <use xlink:href="#DejaVuSans-6b" x="130.419922"/>
     </g>
    </g>
   </g>
   <g id="patch_3">
    <path d="M 97.70725 263.308017 
L 97.70725 263.308017 
L 97.70725 263.308017 
L 97.70725 263.308017 
z
" clip-path="url(#pe885b1a19b)" style="fill: #5875a4; stroke: #4c4c4c; stroke-width: 0.75; stroke-linejoin: miter"/>
   </g>
   <g id="PolyCollection_1">
    <defs>
     <path id="m6c141ae04c" d="M 97.70725 -68.381445 
L 94.179542 -68.381445 
L 92.625606 -70.096345 
L 90.598717 -71.811246 
L 88.049699 -73.526146 
L 84.962877 -75.241046 
L 81.369409 -76.955946 
L 77.357236 -78.670846 
L 73.074748 -80.385746 
L 68.725853 -82.100646 
L 64.555469 -83.815546 
L 60.826311 -85.530446 
L 57.78987 -87.245346 
L 55.656015 -88.960247 
L 54.56645 -90.675147 
L 54.576775 -92.390047 
L 55.65042 -94.104947 
L 57.665398 -95.819847 
L 60.432358 -97.534747 
L 63.720334 -99.249647 
L 67.285426 -100.964547 
L 70.8976 -102.679447 
L 74.361725 -104.394347 
L 77.530598 -106.109248 
L 80.30949 -107.824148 
L 82.65335 -109.539048 
L 84.558776 -111.253948 
L 86.053292 -112.968848 
L 87.184244 -114.683748 
L 88.009018 -116.398648 
L 88.587543 -118.113548 
L 88.977295 -119.828448 
L 89.230456 -121.543348 
L 89.392622 -123.258248 
L 89.502364 -124.973149 
L 89.591125 -126.688049 
L 89.683169 -128.402949 
L 89.795544 -130.117849 
L 89.938223 -131.832749 
L 90.11462 -133.547649 
L 90.32262 -135.262549 
L 90.556135 -136.977449 
L 90.806973 -138.692349 
L 91.06676 -140.407249 
L 91.328525 -142.12215 
L 91.587718 -143.83705 
L 91.842503 -145.55195 
L 92.093389 -147.26685 
L 92.342395 -148.98175 
L 92.592024 -150.69665 
L 92.844334 -152.41155 
L 93.100278 -154.12645 
L 93.359406 -155.84135 
L 93.619883 -157.55625 
L 93.878707 -159.271151 
L 94.132023 -160.986051 
L 94.375443 -162.700951 
L 94.604342 -164.415851 
L 94.814176 -166.130751 
L 95.000851 -167.845651 
L 95.161163 -169.560551 
L 95.293286 -171.275451 
L 95.397203 -172.990351 
L 95.474984 -174.705251 
L 95.530786 -176.420152 
L 95.570529 -178.135052 
L 95.601269 -179.849952 
L 95.630348 -181.564852 
L 95.664487 -183.279752 
L 95.70896 -184.994652 
L 95.767013 -186.709552 
L 95.839581 -188.424452 
L 95.925357 -190.139352 
L 96.021155 -191.854252 
L 96.12249 -193.569152 
L 96.224275 -195.284053 
L 96.321534 -196.998953 
L 96.410029 -198.713853 
L 96.486744 -200.428753 
L 96.550194 -202.143653 
L 96.600514 -203.858553 
L 96.639374 -205.573453 
L 96.669711 -207.288353 
L 96.695328 -209.003253 
L 96.720411 -210.718153 
L 96.749008 -212.433054 
L 96.78454 -214.147954 
L 96.829404 -215.862854 
L 96.884701 -217.577754 
L 96.950159 -219.292654 
L 97.024221 -221.007554 
L 97.104309 -222.722454 
L 97.187205 -224.437354 
L 97.269485 -226.152254 
L 97.347937 -227.867154 
L 97.419901 -229.582055 
L 97.483491 -231.296955 
L 97.537673 -233.011855 
L 97.58223 -234.726755 
L 97.617617 -236.441655 
L 97.644776 -238.156555 
L 97.70725 -238.156555 
L 97.70725 -238.156555 
L 97.70725 -236.441655 
L 97.70725 -234.726755 
L 97.70725 -233.011855 
L 97.70725 -231.296955 
L 97.70725 -229.582055 
L 97.70725 -227.867154 
L 97.70725 -226.152254 
L 97.70725 -224.437354 
L 97.70725 -222.722454 
L 97.70725 -221.007554 
L 97.70725 -219.292654 
L 97.70725 -217.577754 
L 97.70725 -215.862854 
L 97.70725 -214.147954 
L 97.70725 -212.433054 
L 97.70725 -210.718153 
L 97.70725 -209.003253 
L 97.70725 -207.288353 
L 97.70725 -205.573453 
L 97.70725 -203.858553 
L 97.70725 -202.143653 
L 97.70725 -200.428753 
L 97.70725 -198.713853 
L 97.70725 -196.998953 
L 97.70725 -195.284053 
L 97.70725 -193.569152 
L 97.70725 -191.854252 
L 97.70725 -190.139352 
L 97.70725 -188.424452 
L 97.70725 -186.709552 
L 97.70725 -184.994652 
L 97.70725 -183.279752 
L 97.70725 -181.564852 
L 97.70725 -179.849952 
L 97.70725 -178.135052 
L 97.70725 -176.420152 
L 97.70725 -174.705251 
L 97.70725 -172.990351 
L 97.70725 -171.275451 
L 97.70725 -169.560551 
L 97.70725 -167.845651 
L 97.70725 -166.130751 
L 97.70725 -164.415851 
L 97.70725 -162.700951 
L 97.70725 -160.986051 
L 97.70725 -159.271151 
L 97.70725 -157.55625 
L 97.70725 -155.84135 
L 97.70725 -154.12645 
L 97.70725 -152.41155 
L 97.70725 -150.69665 
L 97.70725 -148.98175 
L 97.70725 -147.26685 
L 97.70725 -145.55195 
L 97.70725 -143.83705 
L 97.70725 -142.12215 
L 97.70725 -140.407249 
L 97.70725 -138.692349 
L 97.70725 -136.977449 
L 97.70725 -135.262549 
L 97.70725 -133.547649 
L 97.70725 -131.832749 
L 97.70725 -130.117849 
L 97.70725 -128.402949 
L 97.70725 -126.688049 
L 97.70725 -124.973149 
L 97.70725 -123.258248 
L 97.70725 -121.543348 
L 97.70725 -119.828448 
L 97.70725 -118.113548 
L 97.70725 -116.398648 
L 97.70725 -114.683748 
L 97.70725 -112.968848 
L 97.70725 -111.253948 
L 97.70725 -109.539048 
L 97.70725 -107.824148 
L 97.70725 -106.109248 
L 97.70725 -104.394347 
L 97.70725 -102.679447 
L 97.70725 -100.964547 
L 97.70725 -99.249647 
L 97.70725 -97.534747 
L 97.70725 -95.819847 
L 97.70725 -94.104947 
L 97.70725 -92.390047 
L 97.70725 -90.675147 
L 97.70725 -88.960247 
L 97.70725 -87.245346 
L 97.70725 -85.530446 
L 97.70725 -83.815546 
L 97.70725 -82.100646 
L 97.70725 -80.385746 
L 97.70725 -78.670846 
L 97.70725 -76.955946 
L 97.70725 -75.241046 
L 97.70725 -73.526146 
L 97.70725 -71.811246 
L 97.70725 -70.096345 
L 97.70725 -68.381445 
z
" style="stroke: #4c4c4c; stroke-width: 1.5"/>
    </defs>
    <g clip-path="url(#pe885b1a19b)">
     <use xlink:href="#m6c141ae04c" x="0" y="351.126562" style="fill: #5875a4; stroke: #4c4c4c; stroke-width: 1.5"/>
    </g>
   </g>
   <g id="patch_4">
    <path d="M 97.70725 263.308017 
L 97.70725 263.308017 
L 97.70725 263.308017 
L 97.70725 263.308017 
z
" clip-path="url(#pe885b1a19b)" style="fill: #cc8963; stroke: #4c4c4c; stroke-width: 0.75; stroke-linejoin: miter"/>
   </g>
   <g id="PolyCollection_2">
    <defs>
     <path id="m571c1b91d5" d="M 100.191887 -66.743188 
L 97.70725 -66.743188 
L 97.70725 -68.699381 
L 97.70725 -70.655573 
L 97.70725 -72.611766 
L 97.70725 -74.567959 
L 97.70725 -76.524151 
L 97.70725 -78.480344 
L 97.70725 -80.436537 
L 97.70725 -82.392729 
L 97.70725 -84.348922 
L 97.70725 -86.305115 
L 97.70725 -88.261307 
L 97.70725 -90.2175 
L 97.70725 -92.173693 
L 97.70725 -94.129885 
L 97.70725 -96.086078 
L 97.70725 -98.042271 
L 97.70725 -99.998463 
L 97.70725 -101.954656 
L 97.70725 -103.910849 
L 97.70725 -105.867041 
L 97.70725 -107.823234 
L 97.70725 -109.779427 
L 97.70725 -111.73562 
L 97.70725 -113.691812 
L 97.70725 -115.648005 
L 97.70725 -117.604198 
L 97.70725 -119.56039 
L 97.70725 -121.516583 
L 97.70725 -123.472776 
L 97.70725 -125.428968 
L 97.70725 -127.385161 
L 97.70725 -129.341354 
L 97.70725 -131.297546 
L 97.70725 -133.253739 
L 97.70725 -135.209932 
L 97.70725 -137.166124 
L 97.70725 -139.122317 
L 97.70725 -141.07851 
L 97.70725 -143.034702 
L 97.70725 -144.990895 
L 97.70725 -146.947088 
L 97.70725 -148.90328 
L 97.70725 -150.859473 
L 97.70725 -152.815666 
L 97.70725 -154.771858 
L 97.70725 -156.728051 
L 97.70725 -158.684244 
L 97.70725 -160.640436 
L 97.70725 -162.596629 
L 97.70725 -164.552822 
L 97.70725 -166.509014 
L 97.70725 -168.465207 
L 97.70725 -170.4214 
L 97.70725 -172.377592 
L 97.70725 -174.333785 
L 97.70725 -176.289978 
L 97.70725 -178.246171 
L 97.70725 -180.202363 
L 97.70725 -182.158556 
L 97.70725 -184.114749 
L 97.70725 -186.070941 
L 97.70725 -188.027134 
L 97.70725 -189.983327 
L 97.70725 -191.939519 
L 97.70725 -193.895712 
L 97.70725 -195.851905 
L 97.70725 -197.808097 
L 97.70725 -199.76429 
L 97.70725 -201.720483 
L 97.70725 -203.676675 
L 97.70725 -205.632868 
L 97.70725 -207.589061 
L 97.70725 -209.545253 
L 97.70725 -211.501446 
L 97.70725 -213.457639 
L 97.70725 -215.413831 
L 97.70725 -217.370024 
L 97.70725 -219.326217 
L 97.70725 -221.282409 
L 97.70725 -223.238602 
L 97.70725 -225.194795 
L 97.70725 -227.150987 
L 97.70725 -229.10718 
L 97.70725 -231.063373 
L 97.70725 -233.019565 
L 97.70725 -234.975758 
L 97.70725 -236.931951 
L 97.70725 -238.888143 
L 97.70725 -240.844336 
L 97.70725 -242.800529 
L 97.70725 -244.756722 
L 97.70725 -246.712914 
L 97.70725 -248.669107 
L 97.70725 -250.6253 
L 97.70725 -252.581492 
L 97.70725 -254.537685 
L 97.70725 -256.493878 
L 97.70725 -258.45007 
L 97.70725 -260.406263 
L 97.750151 -260.406263 
L 97.750151 -260.406263 
L 97.768377 -258.45007 
L 97.791397 -256.493878 
L 97.819164 -254.537685 
L 97.851055 -252.581492 
L 97.885786 -250.6253 
L 97.92142 -248.669107 
L 97.955513 -246.712914 
L 97.985388 -244.756722 
L 98.008507 -242.800529 
L 98.02289 -240.844336 
L 98.027496 -238.888143 
L 98.022497 -236.931951 
L 98.009396 -234.975758 
L 97.990961 -233.019565 
L 97.971008 -231.063373 
L 97.954064 -229.10718 
L 97.944978 -227.150987 
L 97.948533 -225.194795 
L 97.969085 -223.238602 
L 98.010264 -221.282409 
L 98.074729 -219.326217 
L 98.163997 -217.370024 
L 98.278345 -215.413831 
L 98.4168 -213.457639 
L 98.577225 -211.501446 
L 98.756482 -209.545253 
L 98.950646 -207.589061 
L 99.155213 -205.632868 
L 99.365258 -203.676675 
L 99.575519 -201.720483 
L 99.780434 -199.76429 
L 99.974187 -197.808097 
L 100.150863 -195.851905 
L 100.304792 -193.895712 
L 100.431092 -191.939519 
L 100.526369 -189.983327 
L 100.589442 -188.027134 
L 100.621913 -186.070941 
L 100.628424 -184.114749 
L 100.616507 -182.158556 
L 100.596024 -180.202363 
L 100.578282 -178.246171 
L 100.574975 -176.289978 
L 100.597104 -174.333785 
L 100.653997 -172.377592 
L 100.752514 -170.4214 
L 100.896447 -168.465207 
L 101.086163 -166.509014 
L 101.31848 -164.552822 
L 101.58684 -162.596629 
L 101.881798 -160.640436 
L 102.191842 -158.684244 
L 102.504483 -156.728051 
L 102.807491 -154.771858 
L 103.090122 -152.815666 
L 103.344146 -150.859473 
L 103.564574 -148.90328 
L 103.750008 -146.947088 
L 103.902688 -144.990895 
L 104.028287 -143.034702 
L 104.135571 -141.07851 
L 104.235939 -139.122317 
L 104.342863 -137.166124 
L 104.47116 -135.209932 
L 104.636129 -133.253739 
L 104.85264 -131.297546 
L 105.134452 -129.341354 
L 105.494087 -127.385161 
L 105.943612 -125.428968 
L 106.496492 -123.472776 
L 107.170348 -121.516583 
L 107.989976 -119.56039 
L 108.989586 -117.604198 
L 110.212884 -115.648005 
L 111.709691 -113.691812 
L 113.528218 -111.73562 
L 115.703072 -109.779427 
L 118.240275 -107.823234 
L 121.101988 -105.867041 
L 124.194629 -103.910849 
L 127.364381 -101.954656 
L 130.403348 -99.998463 
L 133.067678 -98.042271 
L 135.106269 -96.086078 
L 136.295788 -94.129885 
L 136.475494 -92.173693 
L 135.574657 -90.2175 
L 133.626463 -88.261307 
L 130.765111 -86.305115 
L 127.206568 -84.348922 
L 123.217084 -82.392729 
L 119.076108 -80.436537 
L 115.040932 -78.480344 
L 111.319285 -76.524151 
L 108.053598 -74.567959 
L 105.317676 -72.611766 
L 103.123864 -70.655573 
L 101.437118 -68.699381 
L 100.191887 -66.743188 
z
" style="stroke: #4c4c4c; stroke-width: 1.5"/>
    </defs>
    <g clip-path="url(#pe885b1a19b)">
     <use xlink:href="#m571c1b91d5" x="0" y="351.126562" style="fill: #cc8963; stroke: #4c4c4c; stroke-width: 1.5"/>
    </g>
   </g>
   <g id="PolyCollection_3">
    <defs>
     <path id="m8b955072a1" d="M 205.55925 -65.464743 
L 201.617832 -65.464743 
L 200.072464 -67.281303 
L 198.110964 -69.097863 
L 195.698687 -70.914423 
L 192.827328 -72.730983 
L 189.523848 -74.547543 
L 185.857053 -76.364103 
L 181.940092 -78.180663 
L 177.927483 -79.997223 
L 174.005997 -81.813783 
L 170.379777 -83.630342 
L 167.25115 -85.446902 
L 164.799658 -87.263462 
L 163.162346 -89.080022 
L 162.41845 -90.896582 
L 162.58098 -92.713142 
L 163.596592 -94.529702 
L 165.353714 -96.346262 
L 167.697488 -98.162822 
L 170.448984 -99.979382 
L 173.425601 -101.795941 
L 176.459601 -103.612501 
L 179.412345 -105.429061 
L 182.182781 -107.245621 
L 184.709847 -109.062181 
L 186.969466 -110.878741 
L 188.967535 -112.695301 
L 190.730679 -114.511861 
L 192.296543 -116.328421 
L 193.705082 -118.14498 
L 194.991852 -119.96154 
L 196.183796 -121.7781 
L 197.297495 -123.59466 
L 198.339546 -125.41122 
L 199.308459 -127.22778 
L 200.197409 -129.04434 
L 200.997227 -130.8609 
L 201.699114 -132.67746 
L 202.296751 -134.49402 
L 202.787631 -136.310579 
L 203.173614 -138.127139 
L 203.460787 -139.943699 
L 203.658823 -141.760259 
L 203.780013 -143.576819 
L 203.838167 -145.393379 
L 203.847538 -147.209939 
L 203.821859 -149.026499 
L 203.773562 -150.843059 
L 203.713198 -152.659618 
L 203.649047 -154.476178 
L 203.586913 -156.292738 
L 203.53008 -158.109298 
L 203.47943 -159.925858 
L 203.433712 -161.742418 
L 203.389973 -163.558978 
L 203.344124 -165.375538 
L 203.291613 -167.192098 
L 203.228156 -169.008658 
L 203.150436 -170.825217 
L 203.056688 -172.641777 
L 202.947074 -174.458337 
L 202.823805 -176.274897 
L 202.690962 -178.091457 
L 202.554075 -179.908017 
L 202.4195 -181.724577 
L 202.293738 -183.541137 
L 202.18278 -185.357697 
L 202.091609 -187.174257 
L 202.02391 -188.990816 
L 201.982009 -190.807376 
L 201.967021 -192.623936 
L 201.979111 -194.440496 
L 202.017802 -196.257056 
L 202.082233 -198.073616 
L 202.17131 -199.890176 
L 202.283733 -201.706736 
L 202.417927 -203.523296 
L 202.57191 -205.339855 
L 202.743187 -207.156415 
L 202.928702 -208.972975 
L 203.124899 -210.789535 
L 203.327873 -212.606095 
L 203.533605 -214.422655 
L 203.738212 -216.239215 
L 203.938177 -218.055775 
L 204.130514 -219.872335 
L 204.31284 -221.688895 
L 204.483382 -223.505454 
L 204.640909 -225.322014 
L 204.784646 -227.138574 
L 204.914185 -228.955134 
L 205.029413 -230.771694 
L 205.130475 -232.588254 
L 205.217755 -234.404814 
L 205.291868 -236.221374 
L 205.353652 -238.037934 
L 205.404148 -239.854494 
L 205.444556 -241.671053 
L 205.476181 -243.487613 
L 205.500364 -245.304173 
L 205.55925 -245.304173 
L 205.55925 -245.304173 
L 205.55925 -243.487613 
L 205.55925 -241.671053 
L 205.55925 -239.854494 
L 205.55925 -238.037934 
L 205.55925 -236.221374 
L 205.55925 -234.404814 
L 205.55925 -232.588254 
L 205.55925 -230.771694 
L 205.55925 -228.955134 
L 205.55925 -227.138574 
L 205.55925 -225.322014 
L 205.55925 -223.505454 
L 205.55925 -221.688895 
L 205.55925 -219.872335 
L 205.55925 -218.055775 
L 205.55925 -216.239215 
L 205.55925 -214.422655 
L 205.55925 -212.606095 
L 205.55925 -210.789535 
L 205.55925 -208.972975 
L 205.55925 -207.156415 
L 205.55925 -205.339855 
L 205.55925 -203.523296 
L 205.55925 -201.706736 
L 205.55925 -199.890176 
L 205.55925 -198.073616 
L 205.55925 -196.257056 
L 205.55925 -194.440496 
L 205.55925 -192.623936 
L 205.55925 -190.807376 
L 205.55925 -188.990816 
L 205.55925 -187.174257 
L 205.55925 -185.357697 
L 205.55925 -183.541137 
L 205.55925 -181.724577 
L 205.55925 -179.908017 
L 205.55925 -178.091457 
L 205.55925 -176.274897 
L 205.55925 -174.458337 
L 205.55925 -172.641777 
L 205.55925 -170.825217 
L 205.55925 -169.008658 
L 205.55925 -167.192098 
L 205.55925 -165.375538 
L 205.55925 -163.558978 
L 205.55925 -161.742418 
L 205.55925 -159.925858 
L 205.55925 -158.109298 
L 205.55925 -156.292738 
L 205.55925 -154.476178 
L 205.55925 -152.659618 
L 205.55925 -150.843059 
L 205.55925 -149.026499 
L 205.55925 -147.209939 
L 205.55925 -145.393379 
L 205.55925 -143.576819 
L 205.55925 -141.760259 
L 205.55925 -139.943699 
L 205.55925 -138.127139 
L 205.55925 -136.310579 
L 205.55925 -134.49402 
L 205.55925 -132.67746 
L 205.55925 -130.8609 
L 205.55925 -129.04434 
L 205.55925 -127.22778 
L 205.55925 -125.41122 
L 205.55925 -123.59466 
L 205.55925 -121.7781 
L 205.55925 -119.96154 
L 205.55925 -118.14498 
L 205.55925 -116.328421 
L 205.55925 -114.511861 
L 205.55925 -112.695301 
L 205.55925 -110.878741 
L 205.55925 -109.062181 
L 205.55925 -107.245621 
L 205.55925 -105.429061 
L 205.55925 -103.612501 
L 205.55925 -101.795941 
L 205.55925 -99.979382 
L 205.55925 -98.162822 
L 205.55925 -96.346262 
L 205.55925 -94.529702 
L 205.55925 -92.713142 
L 205.55925 -90.896582 
L 205.55925 -89.080022 
L 205.55925 -87.263462 
L 205.55925 -85.446902 
L 205.55925 -83.630342 
L 205.55925 -81.813783 
L 205.55925 -79.997223 
L 205.55925 -78.180663 
L 205.55925 -76.364103 
L 205.55925 -74.547543 
L 205.55925 -72.730983 
L 205.55925 -70.914423 
L 205.55925 -69.097863 
L 205.55925 -67.281303 
L 205.55925 -65.464743 
z
" style="stroke: #4c4c4c; stroke-width: 1.5"/>
    </defs>
    <g clip-path="url(#pe885b1a19b)">
     <use xlink:href="#m8b955072a1" x="0" y="351.126562" style="fill: #5875a4; stroke: #4c4c4c; stroke-width: 1.5"/>
    </g>
   </g>
   <g id="PolyCollection_4">
    <defs>
     <path id="m54929675b4" d="M 207.661084 -60.81911 
L 205.55925 -60.81911 
L 205.55925 -63.121914 
L 205.55925 -65.424717 
L 205.55925 -67.727521 
L 205.55925 -70.030325 
L 205.55925 -72.333129 
L 205.55925 -74.635933 
L 205.55925 -76.938736 
L 205.55925 -79.24154 
L 205.55925 -81.544344 
L 205.55925 -83.847148 
L 205.55925 -86.149951 
L 205.55925 -88.452755 
L 205.55925 -90.755559 
L 205.55925 -93.058363 
L 205.55925 -95.361167 
L 205.55925 -97.66397 
L 205.55925 -99.966774 
L 205.55925 -102.269578 
L 205.55925 -104.572382 
L 205.55925 -106.875185 
L 205.55925 -109.177989 
L 205.55925 -111.480793 
L 205.55925 -113.783597 
L 205.55925 -116.086401 
L 205.55925 -118.389204 
L 205.55925 -120.692008 
L 205.55925 -122.994812 
L 205.55925 -125.297616 
L 205.55925 -127.600419 
L 205.55925 -129.903223 
L 205.55925 -132.206027 
L 205.55925 -134.508831 
L 205.55925 -136.811634 
L 205.55925 -139.114438 
L 205.55925 -141.417242 
L 205.55925 -143.720046 
L 205.55925 -146.02285 
L 205.55925 -148.325653 
L 205.55925 -150.628457 
L 205.55925 -152.931261 
L 205.55925 -155.234065 
L 205.55925 -157.536868 
L 205.55925 -159.839672 
L 205.55925 -162.142476 
L 205.55925 -164.44528 
L 205.55925 -166.748084 
L 205.55925 -169.050887 
L 205.55925 -171.353691 
L 205.55925 -173.656495 
L 205.55925 -175.959299 
L 205.55925 -178.262102 
L 205.55925 -180.564906 
L 205.55925 -182.86771 
L 205.55925 -185.170514 
L 205.55925 -187.473318 
L 205.55925 -189.776121 
L 205.55925 -192.078925 
L 205.55925 -194.381729 
L 205.55925 -196.684533 
L 205.55925 -198.987336 
L 205.55925 -201.29014 
L 205.55925 -203.592944 
L 205.55925 -205.895748 
L 205.55925 -208.198552 
L 205.55925 -210.501355 
L 205.55925 -212.804159 
L 205.55925 -215.106963 
L 205.55925 -217.409767 
L 205.55925 -219.71257 
L 205.55925 -222.015374 
L 205.55925 -224.318178 
L 205.55925 -226.620982 
L 205.55925 -228.923786 
L 205.55925 -231.226589 
L 205.55925 -233.529393 
L 205.55925 -235.832197 
L 205.55925 -238.135001 
L 205.55925 -240.437804 
L 205.55925 -242.740608 
L 205.55925 -245.043412 
L 205.55925 -247.346216 
L 205.55925 -249.64902 
L 205.55925 -251.951823 
L 205.55925 -254.254627 
L 205.55925 -256.557431 
L 205.55925 -258.860235 
L 205.55925 -261.163038 
L 205.55925 -263.465842 
L 205.55925 -265.768646 
L 205.55925 -268.07145 
L 205.55925 -270.374253 
L 205.55925 -272.677057 
L 205.55925 -274.979861 
L 205.55925 -277.282665 
L 205.55925 -279.585469 
L 205.55925 -281.888272 
L 205.55925 -284.191076 
L 205.55925 -286.49388 
L 205.55925 -288.796684 
L 205.603747 -288.796684 
L 205.603747 -288.796684 
L 205.622304 -286.49388 
L 205.646233 -284.191076 
L 205.676101 -281.888272 
L 205.712164 -279.585469 
L 205.754265 -277.282665 
L 205.80176 -274.979861 
L 205.853521 -272.677057 
L 205.908009 -270.374253 
L 205.963457 -268.07145 
L 206.018119 -265.768646 
L 206.070576 -263.465842 
L 206.120038 -261.163038 
L 206.166573 -258.860235 
L 206.211223 -256.557431 
L 206.255937 -254.254627 
L 206.303326 -251.951823 
L 206.356248 -249.64902 
L 206.41728 -247.346216 
L 206.488184 -245.043412 
L 206.569442 -242.740608 
L 206.659997 -240.437804 
L 206.757236 -238.135001 
L 206.857268 -235.832197 
L 206.955474 -233.529393 
L 207.047235 -231.226589 
L 207.128753 -228.923786 
L 207.197806 -226.620982 
L 207.254329 -224.318178 
L 207.300702 -222.015374 
L 207.341683 -219.71257 
L 207.383984 -217.409767 
L 207.43552 -215.106963 
L 207.504426 -212.804159 
L 207.597971 -210.501355 
L 207.721524 -208.198552 
L 207.877711 -205.895748 
L 208.065905 -203.592944 
L 208.282139 -201.29014 
L 208.519465 -198.987336 
L 208.768738 -196.684533 
L 209.019704 -194.381729 
L 209.262248 -192.078925 
L 209.487611 -189.776121 
L 209.689399 -187.473318 
L 209.864235 -185.170514 
L 210.011973 -182.86771 
L 210.135461 -180.564906 
L 210.239921 -178.262102 
L 210.332058 -175.959299 
L 210.419048 -173.656495 
L 210.507566 -171.353691 
L 210.602977 -169.050887 
L 210.708804 -166.748084 
L 210.826513 -164.44528 
L 210.955648 -162.142476 
L 211.094264 -159.839672 
L 211.239615 -157.536868 
L 211.388987 -155.234065 
L 211.540573 -152.931261 
L 211.694258 -150.628457 
L 211.852228 -148.325653 
L 212.019312 -146.02285 
L 212.203037 -143.720046 
L 212.41344 -141.417242 
L 212.662725 -139.114438 
L 212.964887 -136.811634 
L 213.335426 -134.508831 
L 213.791225 -132.206027 
L 214.350588 -129.903223 
L 215.03329 -127.600419 
L 215.860396 -125.297616 
L 216.853494 -122.994812 
L 218.032953 -120.692008 
L 219.414939 -118.389204 
L 221.007092 -116.086401 
L 222.803162 -113.783597 
L 224.777308 -111.480793 
L 226.879176 -109.177989 
L 229.031139 -106.875185 
L 231.129063 -104.572382 
L 233.04756 -102.269578 
L 234.649956 -99.966774 
L 235.802175 -97.66397 
L 236.388773 -95.361167 
L 236.328536 -93.058363 
L 235.586859 -90.755559 
L 234.182446 -88.452755 
L 232.186872 -86.149951 
L 229.71688 -83.847148 
L 226.920701 -81.544344 
L 223.960791 -79.24154 
L 220.995949 -76.938736 
L 218.165658 -74.635933 
L 215.578825 -72.333129 
L 213.308013 -70.030325 
L 211.389144 -67.727521 
L 209.825705 -65.424717 
L 208.595907 -63.121914 
L 207.661084 -60.81911 
z
" style="stroke: #4c4c4c; stroke-width: 1.5"/>
    </defs>
    <g clip-path="url(#pe885b1a19b)">
     <use xlink:href="#m54929675b4" x="0" y="351.126562" style="fill: #cc8963; stroke: #4c4c4c; stroke-width: 1.5"/>
    </g>
   </g>
   <g id="PolyCollection_5">
    <defs>
     <path id="mf3547cc454" d="M 313.411251 -55.663416 
L 310.527109 -55.663416 
L 309.364365 -58.2194 
L 307.865338 -60.775384 
L 305.987353 -63.331369 
L 303.702478 -65.887353 
L 301.004855 -68.443337 
L 297.917336 -70.999321 
L 294.496219 -73.555306 
L 290.832932 -76.11129 
L 287.051827 -78.667274 
L 283.303724 -81.223259 
L 279.75554 -83.779243 
L 276.577033 -86.335227 
L 273.926243 -88.891211 
L 271.935532 -91.447196 
L 270.700101 -94.00318 
L 270.270451 -96.559164 
L 270.649649 -99.115149 
L 271.79546 -101.671133 
L 273.626677 -104.227117 
L 276.03246 -106.783101 
L 278.8832 -109.339086 
L 282.041462 -111.89507 
L 285.371828 -114.451054 
L 288.748856 -117.007039 
L 292.062802 -119.563023 
L 295.223124 -122.119007 
L 298.160017 -124.674991 
L 300.824381 -127.230976 
L 303.186602 -129.78696 
L 305.234519 -132.342944 
L 306.970841 -134.898929 
L 308.41026 -137.454913 
L 309.576433 -140.010897 
L 310.498994 -142.566882 
L 311.210752 -145.122866 
L 311.745188 -147.67885 
L 312.134378 -150.234834 
L 312.407399 -152.790819 
L 312.589262 -155.346803 
L 312.700361 -157.902787 
L 312.756407 -160.458772 
L 312.768779 -163.014756 
L 312.745201 -165.57074 
L 312.690641 -168.126724 
L 312.60832 -170.682709 
L 312.500714 -173.238693 
L 312.370438 -175.794677 
L 312.220898 -178.350662 
L 312.056655 -180.906646 
L 311.883459 -183.46263 
L 311.707961 -186.018614 
L 311.537168 -188.574599 
L 311.377746 -191.130583 
L 311.235291 -193.686567 
L 311.113716 -196.242552 
L 311.014848 -198.798536 
L 310.938335 -201.35452 
L 310.881854 -203.910504 
L 310.841601 -206.466489 
L 310.812967 -209.022473 
L 310.79128 -211.578457 
L 310.772499 -214.134442 
L 310.753753 -216.690426 
L 310.733632 -219.24641 
L 310.712237 -221.802394 
L 310.69097 -224.358379 
L 310.672139 -226.914363 
L 310.658432 -229.470347 
L 310.652372 -232.026332 
L 310.65582 -234.582316 
L 310.66961 -237.1383 
L 310.693365 -239.694284 
L 310.725538 -242.250269 
L 310.763659 -244.806253 
L 310.804772 -247.362237 
L 310.845992 -249.918222 
L 310.88509 -252.474206 
L 310.921022 -255.03019 
L 310.954278 -257.586174 
L 310.987 -260.142159 
L 311.022802 -262.698143 
L 311.066328 -265.254127 
L 311.122584 -267.810112 
L 311.196171 -270.366096 
L 311.290529 -272.92208 
L 311.407332 -275.478065 
L 311.546141 -278.034049 
L 311.70436 -280.590033 
L 311.877494 -283.146017 
L 312.059679 -285.702002 
L 312.244349 -288.257986 
L 312.424962 -290.81397 
L 312.595649 -293.369955 
L 312.751712 -295.925939 
L 312.889915 -298.481923 
L 313.008559 -301.037907 
L 313.107375 -303.593892 
L 313.187278 -306.149876 
L 313.250037 -308.70586 
L 313.411251 -308.70586 
L 313.411251 -308.70586 
L 313.411251 -306.149876 
L 313.411251 -303.593892 
L 313.411251 -301.037907 
L 313.411251 -298.481923 
L 313.411251 -295.925939 
L 313.411251 -293.369955 
L 313.411251 -290.81397 
L 313.411251 -288.257986 
L 313.411251 -285.702002 
L 313.411251 -283.146017 
L 313.411251 -280.590033 
L 313.411251 -278.034049 
L 313.411251 -275.478065 
L 313.411251 -272.92208 
L 313.411251 -270.366096 
L 313.411251 -267.810112 
L 313.411251 -265.254127 
L 313.411251 -262.698143 
L 313.411251 -260.142159 
L 313.411251 -257.586174 
L 313.411251 -255.03019 
L 313.411251 -252.474206 
L 313.411251 -249.918222 
L 313.411251 -247.362237 
L 313.411251 -244.806253 
L 313.411251 -242.250269 
L 313.411251 -239.694284 
L 313.411251 -237.1383 
L 313.411251 -234.582316 
L 313.411251 -232.026332 
L 313.411251 -229.470347 
L 313.411251 -226.914363 
L 313.411251 -224.358379 
L 313.411251 -221.802394 
L 313.411251 -219.24641 
L 313.411251 -216.690426 
L 313.411251 -214.134442 
L 313.411251 -211.578457 
L 313.411251 -209.022473 
L 313.411251 -206.466489 
L 313.411251 -203.910504 
L 313.411251 -201.35452 
L 313.411251 -198.798536 
L 313.411251 -196.242552 
L 313.411251 -193.686567 
L 313.411251 -191.130583 
L 313.411251 -188.574599 
L 313.411251 -186.018614 
L 313.411251 -183.46263 
L 313.411251 -180.906646 
L 313.411251 -178.350662 
L 313.411251 -175.794677 
L 313.411251 -173.238693 
L 313.411251 -170.682709 
L 313.411251 -168.126724 
L 313.411251 -165.57074 
L 313.411251 -163.014756 
L 313.411251 -160.458772 
L 313.411251 -157.902787 
L 313.411251 -155.346803 
L 313.411251 -152.790819 
L 313.411251 -150.234834 
L 313.411251 -147.67885 
L 313.411251 -145.122866 
L 313.411251 -142.566882 
L 313.411251 -140.010897 
L 313.411251 -137.454913 
L 313.411251 -134.898929 
L 313.411251 -132.342944 
L 313.411251 -129.78696 
L 313.411251 -127.230976 
L 313.411251 -124.674991 
L 313.411251 -122.119007 
L 313.411251 -119.563023 
L 313.411251 -117.007039 
L 313.411251 -114.451054 
L 313.411251 -111.89507 
L 313.411251 -109.339086 
L 313.411251 -106.783101 
L 313.411251 -104.227117 
L 313.411251 -101.671133 
L 313.411251 -99.115149 
L 313.411251 -96.559164 
L 313.411251 -94.00318 
L 313.411251 -91.447196 
L 313.411251 -88.891211 
L 313.411251 -86.335227 
L 313.411251 -83.779243 
L 313.411251 -81.223259 
L 313.411251 -78.667274 
L 313.411251 -76.11129 
L 313.411251 -73.555306 
L 313.411251 -70.999321 
L 313.411251 -68.443337 
L 313.411251 -65.887353 
L 313.411251 -63.331369 
L 313.411251 -60.775384 
L 313.411251 -58.2194 
L 313.411251 -55.663416 
z
" style="stroke: #4c4c4c; stroke-width: 1.5"/>
    </defs>
    <g clip-path="url(#pe885b1a19b)">
     <use xlink:href="#mf3547cc454" x="0" y="351.126562" style="fill: #5875a4; stroke: #4c4c4c; stroke-width: 1.5"/>
    </g>
   </g>
   <g id="PolyCollection_6">
    <defs>
     <path id="m5401b458aa" d="M 315.418906 -59.25202 
L 313.411251 -59.25202 
L 313.411251 -61.855868 
L 313.411251 -64.459715 
L 313.411251 -67.063563 
L 313.411251 -69.667411 
L 313.411251 -72.271259 
L 313.411251 -74.875107 
L 313.411251 -77.478955 
L 313.411251 -80.082802 
L 313.411251 -82.68665 
L 313.411251 -85.290498 
L 313.411251 -87.894346 
L 313.411251 -90.498194 
L 313.411251 -93.102041 
L 313.411251 -95.705889 
L 313.411251 -98.309737 
L 313.411251 -100.913585 
L 313.411251 -103.517433 
L 313.411251 -106.121281 
L 313.411251 -108.725128 
L 313.411251 -111.328976 
L 313.411251 -113.932824 
L 313.411251 -116.536672 
L 313.411251 -119.14052 
L 313.411251 -121.744368 
L 313.411251 -124.348215 
L 313.411251 -126.952063 
L 313.411251 -129.555911 
L 313.411251 -132.159759 
L 313.411251 -134.763607 
L 313.411251 -137.367455 
L 313.411251 -139.971302 
L 313.411251 -142.57515 
L 313.411251 -145.178998 
L 313.411251 -147.782846 
L 313.411251 -150.386694 
L 313.411251 -152.990541 
L 313.411251 -155.594389 
L 313.411251 -158.198237 
L 313.411251 -160.802085 
L 313.411251 -163.405933 
L 313.411251 -166.009781 
L 313.411251 -168.613628 
L 313.411251 -171.217476 
L 313.411251 -173.821324 
L 313.411251 -176.425172 
L 313.411251 -179.02902 
L 313.411251 -181.632868 
L 313.411251 -184.236715 
L 313.411251 -186.840563 
L 313.411251 -189.444411 
L 313.411251 -192.048259 
L 313.411251 -194.652107 
L 313.411251 -197.255955 
L 313.411251 -199.859802 
L 313.411251 -202.46365 
L 313.411251 -205.067498 
L 313.411251 -207.671346 
L 313.411251 -210.275194 
L 313.411251 -212.879041 
L 313.411251 -215.482889 
L 313.411251 -218.086737 
L 313.411251 -220.690585 
L 313.411251 -223.294433 
L 313.411251 -225.898281 
L 313.411251 -228.502128 
L 313.411251 -231.105976 
L 313.411251 -233.709824 
L 313.411251 -236.313672 
L 313.411251 -238.91752 
L 313.411251 -241.521368 
L 313.411251 -244.125215 
L 313.411251 -246.729063 
L 313.411251 -249.332911 
L 313.411251 -251.936759 
L 313.411251 -254.540607 
L 313.411251 -257.144455 
L 313.411251 -259.748302 
L 313.411251 -262.35215 
L 313.411251 -264.955998 
L 313.411251 -267.559846 
L 313.411251 -270.163694 
L 313.411251 -272.767542 
L 313.411251 -275.371389 
L 313.411251 -277.975237 
L 313.411251 -280.579085 
L 313.411251 -283.182933 
L 313.411251 -285.786781 
L 313.411251 -288.390628 
L 313.411251 -290.994476 
L 313.411251 -293.598324 
L 313.411251 -296.202172 
L 313.411251 -298.80602 
L 313.411251 -301.409868 
L 313.411251 -304.013715 
L 313.411251 -306.617563 
L 313.411251 -309.221411 
L 313.411251 -311.825259 
L 313.411251 -314.429107 
L 313.411251 -317.032955 
L 313.456877 -317.032955 
L 313.456877 -317.032955 
L 313.476026 -314.429107 
L 313.500288 -311.825259 
L 313.529785 -309.221411 
L 313.564159 -306.617563 
L 313.602501 -304.013715 
L 313.643376 -301.409868 
L 313.684956 -298.80602 
L 313.725247 -296.202172 
L 313.762393 -293.598324 
L 313.794973 -290.994476 
L 313.822241 -288.390628 
L 313.844232 -285.786781 
L 313.861716 -283.182933 
L 313.876008 -280.579085 
L 313.888685 -277.975237 
L 313.901301 -275.371389 
L 313.915165 -272.767542 
L 313.93126 -270.163694 
L 313.95031 -267.559846 
L 313.972963 -264.955998 
L 314.000051 -262.35215 
L 314.032813 -259.748302 
L 314.073065 -257.144455 
L 314.123224 -254.540607 
L 314.186218 -251.936759 
L 314.265267 -249.332911 
L 314.363586 -246.729063 
L 314.484043 -244.125215 
L 314.628825 -241.521368 
L 314.799166 -238.91752 
L 314.995169 -236.313672 
L 315.215778 -233.709824 
L 315.458878 -231.105976 
L 315.721533 -228.502128 
L 316.000267 -225.898281 
L 316.29132 -223.294433 
L 316.590791 -220.690585 
L 316.894617 -218.086737 
L 317.198405 -215.482889 
L 317.497194 -212.879041 
L 317.785298 -210.275194 
L 318.05636 -207.671346 
L 318.303731 -205.067498 
L 318.521179 -202.46365 
L 318.703849 -199.859802 
L 318.849281 -197.255955 
L 318.958252 -194.652107 
L 319.035249 -192.048259 
L 319.088399 -189.444411 
L 319.128862 -186.840563 
L 319.169747 -184.236715 
L 319.224766 -181.632868 
L 319.306837 -179.02902 
L 319.426906 -176.425172 
L 319.593131 -173.821324 
L 319.81054 -171.217476 
L 320.081102 -168.613628 
L 320.404094 -166.009781 
L 320.776558 -163.405933 
L 321.193682 -160.802085 
L 321.648979 -158.198237 
L 322.134313 -155.594389 
L 322.639911 -152.990541 
L 323.154639 -150.386694 
L 323.666812 -147.782846 
L 324.165777 -145.178998 
L 324.644313 -142.57515 
L 325.101716 -139.971302 
L 325.547192 -137.367455 
L 326.002948 -134.763607 
L 326.506219 -132.159759 
L 327.109359 -129.555911 
L 327.877161 -126.952063 
L 328.880791 -124.348215 
L 330.188145 -121.744368 
L 331.851169 -119.14052 
L 333.8915 -116.536672 
L 336.286737 -113.932824 
L 338.960273 -111.328976 
L 341.777762 -108.725128 
L 344.552682 -106.121281 
L 347.061985 -103.517433 
L 349.070786 -100.913585 
L 350.362761 -98.309737 
L 350.771184 -95.705889 
L 350.204691 -93.102041 
L 348.662557 -90.498194 
L 346.236166 -87.894346 
L 343.096292 -85.290498 
L 339.468757 -82.68665 
L 335.603393 -80.082802 
L 331.742306 -77.478955 
L 328.093037 -74.875107 
L 324.810546 -72.271259 
L 321.989666 -69.667411 
L 319.667326 -67.063563 
L 317.832138 -64.459715 
L 316.438056 -61.855868 
L 315.418906 -59.25202 
z
" style="stroke: #4c4c4c; stroke-width: 1.5"/>
    </defs>
    <g clip-path="url(#pe885b1a19b)">
     <use xlink:href="#m5401b458aa" x="0" y="351.126562" style="fill: #cc8963; stroke: #4c4c4c; stroke-width: 1.5"/>
    </g>
   </g>
   <g id="line2d_8">
    <path d="M 97.70725 263.308017 
L 97.70725 194.530303 
" clip-path="url(#pe885b1a19b)" style="fill: none; stroke: #4c4c4c; stroke-width: 1.5; stroke-linecap: round"/>
   </g>
   <g id="line2d_9">
    <path d="M 97.70725 261.027524 
L 97.70725 233.895184 
" clip-path="url(#pe885b1a19b)" style="fill: none; stroke: #4c4c4c; stroke-width: 4.5; stroke-linecap: round"/>
   </g>
   <g id="line2d_10">
    <path d="M 205.55925 263.308017 
L 205.55925 192.425913 
" clip-path="url(#pe885b1a19b)" style="fill: none; stroke: #4c4c4c; stroke-width: 1.5; stroke-linecap: round"/>
   </g>
   <g id="line2d_11">
    <path d="M 205.55925 261.22104 
L 205.55925 233.015627 
" clip-path="url(#pe885b1a19b)" style="fill: none; stroke: #4c4c4c; stroke-width: 4.5; stroke-linecap: round"/>
   </g>
   <g id="line2d_12">
    <path d="M 313.411251 263.308017 
L 313.411251 187.976318 
" clip-path="url(#pe885b1a19b)" style="fill: none; stroke: #4c4c4c; stroke-width: 1.5; stroke-linecap: round"/>
   </g>
   <g id="line2d_13">
    <path d="M 313.411251 259.168807 
L 313.411251 230.36852 
" clip-path="url(#pe885b1a19b)" style="fill: none; stroke: #4c4c4c; stroke-width: 4.5; stroke-linecap: round"/>
   </g>
   <g id="patch_5">
    <path d="M 43.78125 313.292187 
L 43.78125 20.798437 
" style="fill: none; stroke: #262626; stroke-width: 0.8; stroke-linejoin: miter; stroke-linecap: square"/>
   </g>
   <g id="patch_6">
    <path d="M 43.78125 313.292187 
L 367.337251 313.292187 
" style="fill: none; stroke: #262626; stroke-width: 0.8; stroke-linejoin: miter; stroke-linecap: square"/>
   </g>
   <g id="PathCollection_1">
    <defs>
     <path id="ma4ec2e3732" d="M 0 1.5 
C 0.397805 1.5 0.77937 1.341951 1.06066 1.06066 
C 1.341951 0.77937 1.5 0.397805 1.5 0 
C 1.5 -0.397805 1.341951 -0.77937 1.06066 -1.06066 
C 0.77937 -1.341951 0.397805 -1.5 0 -1.5 
C -0.397805 -1.5 -0.77937 -1.341951 -1.06066 -1.06066 
C -1.341951 -0.77937 -1.5 -0.397805 -1.5 0 
C -1.5 0.397805 -1.341951 0.77937 -1.06066 1.06066 
C -0.77937 1.341951 -0.397805 1.5 0 1.5 
z
" style="stroke: #4c4c4c"/>
    </defs>
    <g clip-path="url(#pe885b1a19b)">
     <use xlink:href="#ma4ec2e3732" x="97.70725" y="257.568961" style="fill: #ffffff; stroke: #4c4c4c"/>
    </g>
   </g>
   <g id="PathCollection_2">
    <g clip-path="url(#pe885b1a19b)">
     <use xlink:href="#ma4ec2e3732" x="205.55925" y="257.742279" style="fill: #ffffff; stroke: #4c4c4c"/>
    </g>
   </g>
   <g id="PathCollection_3">
    <g clip-path="url(#pe885b1a19b)">
     <use xlink:href="#ma4ec2e3732" x="313.411251" y="253.430386" style="fill: #ffffff; stroke: #4c4c4c"/>
    </g>
   </g>
   <g id="text_10">
    <!-- Dyn_obs = 5.0 -->
    <g style="fill: #262626" transform="translate(168.923313 14.798437)scale(0.1 -0.1)">
     <defs>
      <path id="DejaVuSans-44" d="M 1259 4147 
L 1259 519 
L 2022 519 
Q 2988 519 3436 956 
Q 3884 1394 3884 2338 
Q 3884 3275 3436 3711 
Q 2988 4147 2022 4147 
L 1259 4147 
z
M 628 4666 
L 1925 4666 
Q 3281 4666 3915 4102 
Q 4550 3538 4550 2338 
Q 4550 1131 3912 565 
Q 3275 0 1925 0 
L 628 0 
L 628 4666 
z
" transform="scale(0.015625)"/>
      <path id="DejaVuSans-79" d="M 2059 -325 
Q 1816 -950 1584 -1140 
Q 1353 -1331 966 -1331 
L 506 -1331 
L 506 -850 
L 844 -850 
Q 1081 -850 1212 -737 
Q 1344 -625 1503 -206 
L 1606 56 
L 191 3500 
L 800 3500 
L 1894 763 
L 2988 3500 
L 3597 3500 
L 2059 -325 
z
" transform="scale(0.015625)"/>
      <path id="DejaVuSans-6e" d="M 3513 2113 
L 3513 0 
L 2938 0 
L 2938 2094 
Q 2938 2591 2744 2837 
Q 2550 3084 2163 3084 
Q 1697 3084 1428 2787 
Q 1159 2491 1159 1978 
L 1159 0 
L 581 0 
L 581 3500 
L 1159 3500 
L 1159 2956 
Q 1366 3272 1645 3428 
Q 1925 3584 2291 3584 
Q 2894 3584 3203 3211 
Q 3513 2838 3513 2113 
z
" transform="scale(0.015625)"/>
      <path id="DejaVuSans-62" d="M 3116 1747 
Q 3116 2381 2855 2742 
Q 2594 3103 2138 3103 
Q 1681 3103 1420 2742 
Q 1159 2381 1159 1747 
Q 1159 1113 1420 752 
Q 1681 391 2138 391 
Q 2594 391 2855 752 
Q 3116 1113 3116 1747 
z
M 1159 2969 
Q 1341 3281 1617 3432 
Q 1894 3584 2278 3584 
Q 2916 3584 3314 3078 
Q 3713 2572 3713 1747 
Q 3713 922 3314 415 
Q 2916 -91 2278 -91 
Q 1894 -91 1617 61 
Q 1341 213 1159 525 
L 1159 0 
L 581 0 
L 581 4863 
L 1159 4863 
L 1159 2969 
z
" transform="scale(0.015625)"/>
      <path id="DejaVuSans-20" transform="scale(0.015625)"/>
      <path id="DejaVuSans-3d" d="M 678 2906 
L 4684 2906 
L 4684 2381 
L 678 2381 
L 678 2906 
z
M 678 1631 
L 4684 1631 
L 4684 1100 
L 678 1100 
L 678 1631 
z
" transform="scale(0.015625)"/>
     </defs>
     <use xlink:href="#DejaVuSans-44"/>
     <use xlink:href="#DejaVuSans-79" x="77.001953"/>
     <use xlink:href="#DejaVuSans-6e" x="136.181641"/>
     <use xlink:href="#DejaVuSans-5f" x="199.560547"/>
     <use xlink:href="#DejaVuSans-6f" x="249.560547"/>
     <use xlink:href="#DejaVuSans-62" x="310.742188"/>
     <use xlink:href="#DejaVuSans-73" x="374.21875"/>
     <use xlink:href="#DejaVuSans-20" x="426.318359"/>
     <use xlink:href="#DejaVuSans-3d" x="458.105469"/>
     <use xlink:href="#DejaVuSans-20" x="541.894531"/>
     <use xlink:href="#DejaVuSans-35" x="573.681641"/>
     <use xlink:href="#DejaVuSans-2e" x="637.304688"/>
     <use xlink:href="#DejaVuSans-30" x="669.091797"/>
    </g>
   </g>
  </g>
  <g id="axes_2">
   <g id="patch_7">
    <path d="M 381.634754 313.292187 
L 705.190755 313.292187 
L 705.190755 20.798437 
L 381.634754 20.798437 
z
" style="fill: #ffffff"/>
   </g>
   <g id="matplotlib.axis_3">
    <g id="xtick_4">
     <g id="line2d_14">
      <g>
       <use xlink:href="#m5b986e49db" x="435.560754" y="313.292187" style="fill: #262626; stroke: #262626; stroke-width: 0.8"/>
      </g>
     </g>
     <g id="text_11">
      <!-- map2 -->
      <g style="fill: #262626" transform="translate(421.270911 327.890625)scale(0.1 -0.1)">
       <use xlink:href="#DejaVuSans-6d"/>
       <use xlink:href="#DejaVuSans-61" x="97.412109"/>
       <use xlink:href="#DejaVuSans-70" x="158.691406"/>
       <use xlink:href="#DejaVuSans-32" x="222.167969"/>
      </g>
     </g>
    </g>
    <g id="xtick_5">
     <g id="line2d_15">
      <g>
       <use xlink:href="#m5b986e49db" x="543.412755" y="313.292187" style="fill: #262626; stroke: #262626; stroke-width: 0.8"/>
      </g>
     </g>
     <g id="text_12">
      <!-- map5 -->
      <g style="fill: #262626" transform="translate(529.122911 327.890625)scale(0.1 -0.1)">
       <use xlink:href="#DejaVuSans-6d"/>
       <use xlink:href="#DejaVuSans-61" x="97.412109"/>
       <use xlink:href="#DejaVuSans-70" x="158.691406"/>
       <use xlink:href="#DejaVuSans-35" x="222.167969"/>
      </g>
     </g>
    </g>
    <g id="xtick_6">
     <g id="line2d_16">
      <g>
       <use xlink:href="#m5b986e49db" x="651.264755" y="313.292187" style="fill: #262626; stroke: #262626; stroke-width: 0.8"/>
      </g>
     </g>
     <g id="text_13">
      <!-- small_warehouse -->
      <g style="fill: #262626" transform="translate(608.196786 327.890625)scale(0.1 -0.1)">
       <use xlink:href="#DejaVuSans-73"/>
       <use xlink:href="#DejaVuSans-6d" x="52.099609"/>
       <use xlink:href="#DejaVuSans-61" x="149.511719"/>
       <use xlink:href="#DejaVuSans-6c" x="210.791016"/>
       <use xlink:href="#DejaVuSans-6c" x="238.574219"/>
       <use xlink:href="#DejaVuSans-5f" x="266.357422"/>
       <use xlink:href="#DejaVuSans-77" x="316.357422"/>
       <use xlink:href="#DejaVuSans-61" x="398.144531"/>
       <use xlink:href="#DejaVuSans-72" x="459.423828"/>
       <use xlink:href="#DejaVuSans-65" x="498.287109"/>
       <use xlink:href="#DejaVuSans-68" x="559.810547"/>
       <use xlink:href="#DejaVuSans-6f" x="623.189453"/>
       <use xlink:href="#DejaVuSans-75" x="684.371094"/>
       <use xlink:href="#DejaVuSans-73" x="747.75"/>
       <use xlink:href="#DejaVuSans-65" x="799.849609"/>
      </g>
     </g>
    </g>
    <g id="text_14">
     <!-- World -->
     <g style="fill: #262626" transform="translate(529.08463 341.846875)scale(0.1 -0.1)">
      <use xlink:href="#DejaVuSans-57"/>
      <use xlink:href="#DejaVuSans-6f" x="93.001953"/>
      <use xlink:href="#DejaVuSans-72" x="154.183594"/>
      <use xlink:href="#DejaVuSans-6c" x="195.296875"/>
      <use xlink:href="#DejaVuSans-64" x="223.080078"/>
     </g>
    </g>
   </g>
   <g id="matplotlib.axis_4">
    <g id="ytick_5">
     <g id="line2d_17">
      <g>
       <use xlink:href="#m84c9596361" x="381.634754" y="263.308017" style="fill: #262626; stroke: #262626; stroke-width: 0.8"/>
      </g>
     </g>
    </g>
    <g id="ytick_6">
     <g id="line2d_18">
      <g>
       <use xlink:href="#m84c9596361" x="381.634754" y="198.548761" style="fill: #262626; stroke: #262626; stroke-width: 0.8"/>
      </g>
     </g>
    </g>
    <g id="ytick_7">
     <g id="line2d_19">
      <g>
       <use xlink:href="#m84c9596361" x="381.634754" y="133.789504" style="fill: #262626; stroke: #262626; stroke-width: 0.8"/>
      </g>
     </g>
    </g>
    <g id="ytick_8">
     <g id="line2d_20">
      <g>
       <use xlink:href="#m84c9596361" x="381.634754" y="69.030247" style="fill: #262626; stroke: #262626; stroke-width: 0.8"/>
      </g>
     </g>
    </g>
   </g>
   <g id="patch_8">
    <path d="M 435.560754 263.308017 
L 435.560754 263.308017 
L 435.560754 263.308017 
L 435.560754 263.308017 
z
" clip-path="url(#pc379696017)" style="fill: #5875a4; stroke: #4c4c4c; stroke-width: 0.75; stroke-linejoin: miter"/>
   </g>
   <g id="PolyCollection_7">
    <defs>
     <path id="mdc6052b49b" d="M 435.560754 -68.617496 
L 433.469623 -68.617496 
L 432.466868 -70.302687 
L 431.107962 -71.987878 
L 429.3262 -73.67307 
L 427.067684 -75.358261 
L 424.302947 -77.043452 
L 421.039015 -78.728643 
L 417.329857 -80.413834 
L 413.282837 -82.099025 
L 409.058955 -83.784216 
L 404.865355 -85.469407 
L 400.939823 -87.154599 
L 397.528531 -88.83979 
L 394.859789 -90.524981 
L 393.117696 -92.210172 
L 392.419954 -93.895363 
L 392.803612 -95.580554 
L 394.221182 -97.265745 
L 396.547713 -98.950936 
L 399.597421 -100.636128 
L 403.146841 -102.321319 
L 406.960554 -104.00651 
L 410.815435 -105.691701 
L 414.520119 -107.376892 
L 417.927618 -109.062083 
L 420.940536 -110.747274 
L 423.509563 -112.432465 
L 425.626934 -114.117657 
L 427.316875 -115.802848 
L 428.625043 -117.488039 
L 429.608546 -119.17323 
L 430.327588 -120.858421 
L 430.839222 -122.543612 
L 431.193258 -124.228803 
L 431.430119 -125.913994 
L 431.580288 -127.599186 
L 431.664968 -129.284377 
L 431.697627 -130.969568 
L 431.686076 -132.654759 
L 431.634797 -134.33995 
L 431.547193 -136.025141 
L 431.42748 -137.710332 
L 431.281978 -139.395523 
L 431.119643 -141.080715 
L 430.951814 -142.765906 
L 430.791296 -144.451097 
L 430.650994 -146.136288 
L 430.542426 -147.821479 
L 430.474405 -149.50667 
L 430.452153 -151.191861 
L 430.476967 -152.877052 
L 430.546461 -154.562244 
L 430.655257 -156.247435 
L 430.795958 -157.932626 
L 430.960188 -159.617817 
L 431.139534 -161.303008 
L 431.326285 -162.988199 
L 431.513924 -164.67339 
L 431.697418 -166.358582 
L 431.87334 -168.043773 
L 432.039897 -169.728964 
L 432.196878 -171.414155 
L 432.345535 -173.099346 
L 432.488353 -174.784537 
L 432.628699 -176.469728 
L 432.770325 -178.154919 
L 432.916774 -179.840111 
L 433.070753 -181.525302 
L 433.233581 -183.210493 
L 433.404809 -184.895684 
L 433.582105 -186.580875 
L 433.761428 -188.266066 
L 433.937477 -189.951257 
L 434.10434 -191.636448 
L 434.256239 -193.32164 
L 434.388243 -195.006831 
L 434.496862 -196.692022 
L 434.580436 -198.377213 
L 434.639288 -200.062404 
L 434.675653 -201.747595 
L 434.693404 -203.432786 
L 434.697635 -205.117977 
L 434.694149 -206.803169 
L 434.688907 -208.48836 
L 434.687485 -210.173551 
L 434.694584 -211.858742 
L 434.713636 -213.543933 
L 434.746543 -215.229124 
L 434.793585 -216.914315 
L 434.853498 -218.599506 
L 434.923731 -220.284698 
L 435.000831 -221.969889 
L 435.080909 -223.65508 
L 435.160113 -225.340271 
L 435.235043 -227.025462 
L 435.303051 -228.710653 
L 435.362402 -230.395844 
L 435.412284 -232.081035 
L 435.452709 -233.766227 
L 435.484331 -235.451418 
L 435.560754 -235.451418 
L 435.560754 -235.451418 
L 435.560754 -233.766227 
L 435.560754 -232.081035 
L 435.560754 -230.395844 
L 435.560754 -228.710653 
L 435.560754 -227.025462 
L 435.560754 -225.340271 
L 435.560754 -223.65508 
L 435.560754 -221.969889 
L 435.560754 -220.284698 
L 435.560754 -218.599506 
L 435.560754 -216.914315 
L 435.560754 -215.229124 
L 435.560754 -213.543933 
L 435.560754 -211.858742 
L 435.560754 -210.173551 
L 435.560754 -208.48836 
L 435.560754 -206.803169 
L 435.560754 -205.117977 
L 435.560754 -203.432786 
L 435.560754 -201.747595 
L 435.560754 -200.062404 
L 435.560754 -198.377213 
L 435.560754 -196.692022 
L 435.560754 -195.006831 
L 435.560754 -193.32164 
L 435.560754 -191.636448 
L 435.560754 -189.951257 
L 435.560754 -188.266066 
L 435.560754 -186.580875 
L 435.560754 -184.895684 
L 435.560754 -183.210493 
L 435.560754 -181.525302 
L 435.560754 -179.840111 
L 435.560754 -178.154919 
L 435.560754 -176.469728 
L 435.560754 -174.784537 
L 435.560754 -173.099346 
L 435.560754 -171.414155 
L 435.560754 -169.728964 
L 435.560754 -168.043773 
L 435.560754 -166.358582 
L 435.560754 -164.67339 
L 435.560754 -162.988199 
L 435.560754 -161.303008 
L 435.560754 -159.617817 
L 435.560754 -157.932626 
L 435.560754 -156.247435 
L 435.560754 -154.562244 
L 435.560754 -152.877052 
L 435.560754 -151.191861 
L 435.560754 -149.50667 
L 435.560754 -147.821479 
L 435.560754 -146.136288 
L 435.560754 -144.451097 
L 435.560754 -142.765906 
L 435.560754 -141.080715 
L 435.560754 -139.395523 
L 435.560754 -137.710332 
L 435.560754 -136.025141 
L 435.560754 -134.33995 
L 435.560754 -132.654759 
L 435.560754 -130.969568 
L 435.560754 -129.284377 
L 435.560754 -127.599186 
L 435.560754 -125.913994 
L 435.560754 -124.228803 
L 435.560754 -122.543612 
L 435.560754 -120.858421 
L 435.560754 -119.17323 
L 435.560754 -117.488039 
L 435.560754 -115.802848 
L 435.560754 -114.117657 
L 435.560754 -112.432465 
L 435.560754 -110.747274 
L 435.560754 -109.062083 
L 435.560754 -107.376892 
L 435.560754 -105.691701 
L 435.560754 -104.00651 
L 435.560754 -102.321319 
L 435.560754 -100.636128 
L 435.560754 -98.950936 
L 435.560754 -97.265745 
L 435.560754 -95.580554 
L 435.560754 -93.895363 
L 435.560754 -92.210172 
L 435.560754 -90.524981 
L 435.560754 -88.83979 
L 435.560754 -87.154599 
L 435.560754 -85.469407 
L 435.560754 -83.784216 
L 435.560754 -82.099025 
L 435.560754 -80.413834 
L 435.560754 -78.728643 
L 435.560754 -77.043452 
L 435.560754 -75.358261 
L 435.560754 -73.67307 
L 435.560754 -71.987878 
L 435.560754 -70.302687 
L 435.560754 -68.617496 
z
" style="stroke: #4c4c4c; stroke-width: 1.5"/>
    </defs>
    <g clip-path="url(#pc379696017)">
     <use xlink:href="#mdc6052b49b" x="0" y="351.126562" style="fill: #5875a4; stroke: #4c4c4c; stroke-width: 1.5"/>
    </g>
   </g>
   <g id="patch_9">
    <path d="M 435.560754 263.308017 
L 435.560754 263.308017 
L 435.560754 263.308017 
L 435.560754 263.308017 
z
" clip-path="url(#pc379696017)" style="fill: #cc8963; stroke: #4c4c4c; stroke-width: 0.75; stroke-linejoin: miter"/>
   </g>
   <g id="PolyCollection_8">
    <defs>
     <path id="m527fa95866" d="M 437.486626 -69.25736 
L 435.560754 -69.25736 
L 435.560754 -70.698798 
L 435.560754 -72.140236 
L 435.560754 -73.581674 
L 435.560754 -75.023112 
L 435.560754 -76.46455 
L 435.560754 -77.905988 
L 435.560754 -79.347426 
L 435.560754 -80.788865 
L 435.560754 -82.230303 
L 435.560754 -83.671741 
L 435.560754 -85.113179 
L 435.560754 -86.554617 
L 435.560754 -87.996055 
L 435.560754 -89.437493 
L 435.560754 -90.878931 
L 435.560754 -92.320369 
L 435.560754 -93.761807 
L 435.560754 -95.203245 
L 435.560754 -96.644684 
L 435.560754 -98.086122 
L 435.560754 -99.52756 
L 435.560754 -100.968998 
L 435.560754 -102.410436 
L 435.560754 -103.851874 
L 435.560754 -105.293312 
L 435.560754 -106.73475 
L 435.560754 -108.176188 
L 435.560754 -109.617626 
L 435.560754 -111.059064 
L 435.560754 -112.500503 
L 435.560754 -113.941941 
L 435.560754 -115.383379 
L 435.560754 -116.824817 
L 435.560754 -118.266255 
L 435.560754 -119.707693 
L 435.560754 -121.149131 
L 435.560754 -122.590569 
L 435.560754 -124.032007 
L 435.560754 -125.473445 
L 435.560754 -126.914883 
L 435.560754 -128.356322 
L 435.560754 -129.79776 
L 435.560754 -131.239198 
L 435.560754 -132.680636 
L 435.560754 -134.122074 
L 435.560754 -135.563512 
L 435.560754 -137.00495 
L 435.560754 -138.446388 
L 435.560754 -139.887826 
L 435.560754 -141.329264 
L 435.560754 -142.770702 
L 435.560754 -144.212141 
L 435.560754 -145.653579 
L 435.560754 -147.095017 
L 435.560754 -148.536455 
L 435.560754 -149.977893 
L 435.560754 -151.419331 
L 435.560754 -152.860769 
L 435.560754 -154.302207 
L 435.560754 -155.743645 
L 435.560754 -157.185083 
L 435.560754 -158.626521 
L 435.560754 -160.06796 
L 435.560754 -161.509398 
L 435.560754 -162.950836 
L 435.560754 -164.392274 
L 435.560754 -165.833712 
L 435.560754 -167.27515 
L 435.560754 -168.716588 
L 435.560754 -170.158026 
L 435.560754 -171.599464 
L 435.560754 -173.040902 
L 435.560754 -174.48234 
L 435.560754 -175.923779 
L 435.560754 -177.365217 
L 435.560754 -178.806655 
L 435.560754 -180.248093 
L 435.560754 -181.689531 
L 435.560754 -183.130969 
L 435.560754 -184.572407 
L 435.560754 -186.013845 
L 435.560754 -187.455283 
L 435.560754 -188.896721 
L 435.560754 -190.338159 
L 435.560754 -191.779598 
L 435.560754 -193.221036 
L 435.560754 -194.662474 
L 435.560754 -196.103912 
L 435.560754 -197.54535 
L 435.560754 -198.986788 
L 435.560754 -200.428226 
L 435.560754 -201.869664 
L 435.560754 -203.311102 
L 435.560754 -204.75254 
L 435.560754 -206.193978 
L 435.560754 -207.635417 
L 435.560754 -209.076855 
L 435.560754 -210.518293 
L 435.560754 -211.959731 
L 435.62508 -211.959731 
L 435.62508 -211.959731 
L 435.651481 -210.518293 
L 435.686288 -209.076855 
L 435.731214 -207.635417 
L 435.787993 -206.193978 
L 435.858264 -204.75254 
L 435.943433 -203.311102 
L 436.044524 -201.869664 
L 436.162032 -200.428226 
L 436.295787 -198.986788 
L 436.444876 -197.54535 
L 436.607616 -196.103912 
L 436.781626 -194.662474 
L 436.96399 -193.221036 
L 437.151512 -191.779598 
L 437.34106 -190.338159 
L 437.529941 -188.896721 
L 437.71626 -187.455283 
L 437.89921 -186.013845 
L 438.079223 -184.572407 
L 438.257932 -183.130969 
L 438.437939 -181.689531 
L 438.622386 -180.248093 
L 438.814399 -178.806655 
L 439.01646 -177.365217 
L 439.229824 -175.923779 
L 439.454064 -174.48234 
L 439.686822 -173.040902 
L 439.923808 -171.599464 
L 440.159066 -170.158026 
L 440.385453 -168.716588 
L 440.595295 -167.27515 
L 440.781107 -165.833712 
L 440.936324 -164.392274 
L 441.055929 -162.950836 
L 441.136939 -161.509398 
L 441.178695 -160.06796 
L 441.182948 -158.626521 
L 441.153759 -157.185083 
L 441.097251 -155.743645 
L 441.021263 -154.302207 
L 440.934963 -152.860769 
L 440.848478 -151.419331 
L 440.772569 -149.977893 
L 440.718359 -148.536455 
L 440.697089 -147.095017 
L 440.719867 -145.653579 
L 440.797364 -144.212141 
L 440.939399 -142.770702 
L 441.154419 -141.329264 
L 441.44887 -139.887826 
L 441.82652 -138.446388 
L 442.287815 -137.00495 
L 442.829359 -135.563512 
L 443.443616 -134.122074 
L 444.118908 -132.680636 
L 444.839747 -131.239198 
L 445.587525 -129.79776 
L 446.341538 -128.356322 
L 447.080317 -126.914883 
L 447.783209 -125.473445 
L 448.432152 -124.032007 
L 449.013575 -122.590569 
L 449.520308 -121.149131 
L 449.95339 -119.707693 
L 450.323552 -118.266255 
L 450.652162 -116.824817 
L 450.971339 -115.383379 
L 451.322942 -113.941941 
L 451.756215 -112.500503 
L 452.323923 -111.059064 
L 453.07706 -109.617626 
L 454.058401 -108.176188 
L 455.295464 -106.73475 
L 456.793717 -105.293312 
L 458.531015 -103.851874 
L 460.454356 -102.410436 
L 462.479854 -100.968998 
L 464.496555 -99.52756 
L 466.374164 -98.086122 
L 467.974168 -96.644684 
L 469.163195 -95.203245 
L 469.826962 -93.761807 
L 469.882933 -92.320369 
L 469.289834 -90.878931 
L 468.052628 -89.437493 
L 466.222183 -87.996055 
L 463.88971 -86.554617 
L 461.176846 -85.113179 
L 458.222901 -83.671741 
L 455.171121 -82.230303 
L 452.155837 -80.788865 
L 449.292045 -79.347426 
L 446.668436 -77.905988 
L 444.344251 -76.46455 
L 442.349706 -75.023112 
L 440.689304 -73.581674 
L 439.347037 -72.140236 
L 438.292446 -70.698798 
L 437.486626 -69.25736 
z
" style="stroke: #4c4c4c; stroke-width: 1.5"/>
    </defs>
    <g clip-path="url(#pc379696017)">
     <use xlink:href="#m527fa95866" x="0" y="351.126562" style="fill: #cc8963; stroke: #4c4c4c; stroke-width: 1.5"/>
    </g>
   </g>
   <g id="PolyCollection_9">
    <defs>
     <path id="md409f7451c" d="M 543.412755 -66.687773 
L 541.137597 -66.687773 
L 539.927957 -68.790115 
L 538.259689 -70.892457 
L 536.053557 -72.994799 
L 533.258638 -75.097141 
L 529.870577 -77.199482 
L 525.947419 -79.301824 
L 521.618788 -81.404166 
L 517.08468 -83.506508 
L 512.601907 -85.60885 
L 508.458837 -87.711192 
L 504.941988 -89.813534 
L 502.300287 -91.915876 
L 500.713674 -94.018217 
L 500.271955 -96.120559 
L 500.967485 -98.222901 
L 502.702133 -100.325243 
L 505.306007 -102.427585 
L 508.563344 -104.529927 
L 512.240273 -106.632269 
L 516.109803 -108.734611 
L 519.970926 -110.836952 
L 523.660562 -112.939294 
L 527.058648 -115.041636 
L 530.087668 -117.143978 
L 532.708324 -119.24632 
L 534.91294 -121.348662 
L 536.717905 -123.451004 
L 538.156083 -125.553346 
L 539.269828 -127.655688 
L 540.105069 -129.758029 
L 540.706733 -131.860371 
L 541.115662 -133.962713 
L 541.367005 -136.065055 
L 541.489923 -138.167397 
L 541.508301 -140.269739 
L 541.442099 -142.372081 
L 541.308924 -144.474423 
L 541.125473 -146.576764 
L 540.908556 -148.679106 
L 540.675548 -150.781448 
L 540.444233 -152.88379 
L 540.232129 -154.986132 
L 540.055441 -157.088474 
L 539.927843 -159.190816 
L 539.85929 -161.293158 
L 539.855021 -163.395499 
L 539.914929 -165.497841 
L 540.033401 -167.600183 
L 540.199761 -169.702525 
L 540.399341 -171.804867 
L 540.615148 -173.907209 
L 540.829954 -176.009551 
L 541.028505 -178.111893 
L 541.199471 -180.214234 
L 541.336759 -182.316576 
L 541.439929 -184.418918 
L 541.513624 -186.52126 
L 541.566183 -188.623602 
L 541.607758 -190.725944 
L 541.64838 -192.828286 
L 541.696361 -194.930628 
L 541.757305 -197.03297 
L 541.8338 -199.135311 
L 541.925661 -201.237653 
L 542.030528 -203.339995 
L 542.144568 -205.442337 
L 542.26312 -207.544679 
L 542.381223 -209.647021 
L 542.494034 -211.749363 
L 542.597209 -213.851705 
L 542.687256 -215.954046 
L 542.761848 -218.056388 
L 542.820012 -220.15873 
L 542.86211 -222.261072 
L 542.889585 -224.363414 
L 542.904513 -226.465756 
L 542.909087 -228.568098 
L 542.905199 -230.67044 
L 542.894258 -232.772781 
L 542.877307 -234.875123 
L 542.855389 -236.977465 
L 542.830004 -239.079807 
L 542.803477 -241.182149 
L 542.779056 -243.284491 
L 542.760668 -245.386833 
L 542.75236 -247.489175 
L 542.757564 -249.591516 
L 542.778403 -251.693858 
L 542.815203 -253.7962 
L 542.866373 -255.898542 
L 542.928649 -258.000884 
L 542.99766 -260.103226 
L 543.06864 -262.205568 
L 543.137144 -264.30791 
L 543.199604 -266.410251 
L 543.253648 -268.512593 
L 543.298165 -270.614935 
L 543.333151 -272.717277 
L 543.359429 -274.819619 
L 543.412755 -274.819619 
L 543.412755 -274.819619 
L 543.412755 -272.717277 
L 543.412755 -270.614935 
L 543.412755 -268.512593 
L 543.412755 -266.410251 
L 543.412755 -264.30791 
L 543.412755 -262.205568 
L 543.412755 -260.103226 
L 543.412755 -258.000884 
L 543.412755 -255.898542 
L 543.412755 -253.7962 
L 543.412755 -251.693858 
L 543.412755 -249.591516 
L 543.412755 -247.489175 
L 543.412755 -245.386833 
L 543.412755 -243.284491 
L 543.412755 -241.182149 
L 543.412755 -239.079807 
L 543.412755 -236.977465 
L 543.412755 -234.875123 
L 543.412755 -232.772781 
L 543.412755 -230.67044 
L 543.412755 -228.568098 
L 543.412755 -226.465756 
L 543.412755 -224.363414 
L 543.412755 -222.261072 
L 543.412755 -220.15873 
L 543.412755 -218.056388 
L 543.412755 -215.954046 
L 543.412755 -213.851705 
L 543.412755 -211.749363 
L 543.412755 -209.647021 
L 543.412755 -207.544679 
L 543.412755 -205.442337 
L 543.412755 -203.339995 
L 543.412755 -201.237653 
L 543.412755 -199.135311 
L 543.412755 -197.03297 
L 543.412755 -194.930628 
L 543.412755 -192.828286 
L 543.412755 -190.725944 
L 543.412755 -188.623602 
L 543.412755 -186.52126 
L 543.412755 -184.418918 
L 543.412755 -182.316576 
L 543.412755 -180.214234 
L 543.412755 -178.111893 
L 543.412755 -176.009551 
L 543.412755 -173.907209 
L 543.412755 -171.804867 
L 543.412755 -169.702525 
L 543.412755 -167.600183 
L 543.412755 -165.497841 
L 543.412755 -163.395499 
L 543.412755 -161.293158 
L 543.412755 -159.190816 
L 543.412755 -157.088474 
L 543.412755 -154.986132 
L 543.412755 -152.88379 
L 543.412755 -150.781448 
L 543.412755 -148.679106 
L 543.412755 -146.576764 
L 543.412755 -144.474423 
L 543.412755 -142.372081 
L 543.412755 -140.269739 
L 543.412755 -138.167397 
L 543.412755 -136.065055 
L 543.412755 -133.962713 
L 543.412755 -131.860371 
L 543.412755 -129.758029 
L 543.412755 -127.655688 
L 543.412755 -125.553346 
L 543.412755 -123.451004 
L 543.412755 -121.348662 
L 543.412755 -119.24632 
L 543.412755 -117.143978 
L 543.412755 -115.041636 
L 543.412755 -112.939294 
L 543.412755 -110.836952 
L 543.412755 -108.734611 
L 543.412755 -106.632269 
L 543.412755 -104.529927 
L 543.412755 -102.427585 
L 543.412755 -100.325243 
L 543.412755 -98.222901 
L 543.412755 -96.120559 
L 543.412755 -94.018217 
L 543.412755 -91.915876 
L 543.412755 -89.813534 
L 543.412755 -87.711192 
L 543.412755 -85.60885 
L 543.412755 -83.506508 
L 543.412755 -81.404166 
L 543.412755 -79.301824 
L 543.412755 -77.199482 
L 543.412755 -75.097141 
L 543.412755 -72.994799 
L 543.412755 -70.892457 
L 543.412755 -68.790115 
L 543.412755 -66.687773 
z
" style="stroke: #4c4c4c; stroke-width: 1.5"/>
    </defs>
    <g clip-path="url(#pc379696017)">
     <use xlink:href="#md409f7451c" x="0" y="351.126562" style="fill: #5875a4; stroke: #4c4c4c; stroke-width: 1.5"/>
    </g>
   </g>
   <g id="PolyCollection_10">
    <defs>
     <path id="m2647353097" d="M 544.769699 -56.847 
L 543.412755 -56.847 
L 543.412755 -59.116305 
L 543.412755 -61.38561 
L 543.412755 -63.654915 
L 543.412755 -65.924221 
L 543.412755 -68.193526 
L 543.412755 -70.462831 
L 543.412755 -72.732136 
L 543.412755 -75.001441 
L 543.412755 -77.270746 
L 543.412755 -79.540052 
L 543.412755 -81.809357 
L 543.412755 -84.078662 
L 543.412755 -86.347967 
L 543.412755 -88.617272 
L 543.412755 -90.886578 
L 543.412755 -93.155883 
L 543.412755 -95.425188 
L 543.412755 -97.694493 
L 543.412755 -99.963798 
L 543.412755 -102.233103 
L 543.412755 -104.502409 
L 543.412755 -106.771714 
L 543.412755 -109.041019 
L 543.412755 -111.310324 
L 543.412755 -113.579629 
L 543.412755 -115.848934 
L 543.412755 -118.11824 
L 543.412755 -120.387545 
L 543.412755 -122.65685 
L 543.412755 -124.926155 
L 543.412755 -127.19546 
L 543.412755 -129.464765 
L 543.412755 -131.734071 
L 543.412755 -134.003376 
L 543.412755 -136.272681 
L 543.412755 -138.541986 
L 543.412755 -140.811291 
L 543.412755 -143.080597 
L 543.412755 -145.349902 
L 543.412755 -147.619207 
L 543.412755 -149.888512 
L 543.412755 -152.157817 
L 543.412755 -154.427122 
L 543.412755 -156.696428 
L 543.412755 -158.965733 
L 543.412755 -161.235038 
L 543.412755 -163.504343 
L 543.412755 -165.773648 
L 543.412755 -168.042953 
L 543.412755 -170.312259 
L 543.412755 -172.581564 
L 543.412755 -174.850869 
L 543.412755 -177.120174 
L 543.412755 -179.389479 
L 543.412755 -181.658784 
L 543.412755 -183.92809 
L 543.412755 -186.197395 
L 543.412755 -188.4667 
L 543.412755 -190.736005 
L 543.412755 -193.00531 
L 543.412755 -195.274616 
L 543.412755 -197.543921 
L 543.412755 -199.813226 
L 543.412755 -202.082531 
L 543.412755 -204.351836 
L 543.412755 -206.621141 
L 543.412755 -208.890447 
L 543.412755 -211.159752 
L 543.412755 -213.429057 
L 543.412755 -215.698362 
L 543.412755 -217.967667 
L 543.412755 -220.236972 
L 543.412755 -222.506278 
L 543.412755 -224.775583 
L 543.412755 -227.044888 
L 543.412755 -229.314193 
L 543.412755 -231.583498 
L 543.412755 -233.852803 
L 543.412755 -236.122109 
L 543.412755 -238.391414 
L 543.412755 -240.660719 
L 543.412755 -242.930024 
L 543.412755 -245.199329 
L 543.412755 -247.468635 
L 543.412755 -249.73794 
L 543.412755 -252.007245 
L 543.412755 -254.27655 
L 543.412755 -256.545855 
L 543.412755 -258.81516 
L 543.412755 -261.084466 
L 543.412755 -263.353771 
L 543.412755 -265.623076 
L 543.412755 -267.892381 
L 543.412755 -270.161686 
L 543.412755 -272.430991 
L 543.412755 -274.700297 
L 543.412755 -276.969602 
L 543.412755 -279.238907 
L 543.412755 -281.508212 
L 543.480898 -281.508212 
L 543.480898 -281.508212 
L 543.506772 -279.238907 
L 543.540141 -276.969602 
L 543.582311 -274.700297 
L 543.63455 -272.430991 
L 543.698006 -270.161686 
L 543.773623 -267.892381 
L 543.862065 -265.623076 
L 543.963656 -263.353771 
L 544.078337 -261.084466 
L 544.205661 -258.81516 
L 544.344806 -256.545855 
L 544.494625 -254.27655 
L 544.653711 -252.007245 
L 544.820475 -249.73794 
L 544.993234 -247.468635 
L 545.170298 -245.199329 
L 545.350048 -242.930024 
L 545.531011 -240.660719 
L 545.711921 -238.391414 
L 545.891772 -236.122109 
L 546.069843 -233.852803 
L 546.245707 -231.583498 
L 546.419193 -229.314193 
L 546.590318 -227.044888 
L 546.759161 -224.775583 
L 546.92572 -222.506278 
L 547.089732 -220.236972 
L 547.25052 -217.967667 
L 547.406875 -215.698362 
L 547.557013 -213.429057 
L 547.69863 -211.159752 
L 547.82906 -208.890447 
L 547.945521 -206.621141 
L 548.045423 -204.351836 
L 548.126681 -202.082531 
L 548.18799 -199.813226 
L 548.229007 -197.543921 
L 548.250422 -195.274616 
L 548.253889 -193.00531 
L 548.241849 -190.736005 
L 548.217275 -188.4667 
L 548.183388 -186.197395 
L 548.143397 -183.92809 
L 548.10031 -181.658784 
L 548.056824 -179.389479 
L 548.01532 -177.120174 
L 547.977924 -174.850869 
L 547.946608 -172.581564 
L 547.923293 -170.312259 
L 547.909931 -168.042953 
L 547.908532 -165.773648 
L 547.921159 -163.504343 
L 547.949897 -161.235038 
L 547.996833 -158.965733 
L 548.064083 -156.696428 
L 548.15389 -154.427122 
L 548.268802 -152.157817 
L 548.411916 -149.888512 
L 548.587178 -147.619207 
L 548.799671 -145.349902 
L 549.055874 -143.080597 
L 549.363817 -140.811291 
L 549.733106 -138.541986 
L 550.174776 -136.272681 
L 550.700934 -134.003376 
L 551.324158 -131.734071 
L 552.05663 -129.464765 
L 552.908961 -127.19546 
L 553.888726 -124.926155 
L 554.99873 -122.65685 
L 556.235118 -120.387545 
L 557.585492 -118.11824 
L 559.027285 -115.848934 
L 560.526714 -113.579629 
L 562.038606 -111.310324 
L 563.507417 -109.041019 
L 564.86958 -106.771714 
L 566.057219 -104.502409 
L 567.00298 -102.233103 
L 567.64559 -99.963798 
L 567.935506 -97.694493 
L 567.839966 -95.425188 
L 567.346754 -93.155883 
L 566.466116 -90.886578 
L 565.230496 -88.617272 
L 563.692089 -86.347967 
L 561.918469 -84.078662 
L 559.986857 -81.809357 
L 557.977742 -79.540052 
L 555.968637 -77.270746 
L 554.028657 -75.001441 
L 552.21446 -72.732136 
L 550.56784 -70.462831 
L 549.115021 -68.193526 
L 547.867457 -65.924221 
L 546.823807 -63.654915 
L 545.972648 -61.38561 
L 545.295487 -59.116305 
L 544.769699 -56.847 
z
" style="stroke: #4c4c4c; stroke-width: 1.5"/>
    </defs>
    <g clip-path="url(#pc379696017)">
     <use xlink:href="#m2647353097" x="0" y="351.126562" style="fill: #cc8963; stroke: #4c4c4c; stroke-width: 1.5"/>
    </g>
   </g>
   <g id="PolyCollection_11">
    <defs>
     <path id="mdf2c9176e8" d="M 651.264755 -60.111332 
L 649.453215 -60.111332 
L 648.692881 -62.262162 
L 647.690899 -64.412992 
L 646.40325 -66.563822 
L 644.790126 -68.714652 
L 642.820974 -70.865482 
L 640.480053 -73.016312 
L 637.771904 -75.167142 
L 634.725983 -77.317972 
L 631.39964 -79.468802 
L 627.878714 -81.619632 
L 624.275217 -83.770462 
L 620.721939 -85.921292 
L 617.36422 -88.072122 
L 614.34958 -90.222952 
L 611.81627 -92.373782 
L 609.882041 -94.524612 
L 608.634463 -96.675442 
L 608.123955 -98.826272 
L 608.360343 -100.977102 
L 609.313267 -103.127932 
L 610.916257 -105.278762 
L 613.073817 -107.429592 
L 615.670515 -109.580422 
L 618.580924 -111.731252 
L 621.679252 -113.882082 
L 624.847692 -116.032912 
L 627.982822 -118.183742 
L 630.999725 -120.334572 
L 633.833813 -122.485402 
L 636.440653 -124.636232 
L 638.794232 -126.787062 
L 640.884201 -128.937892 
L 642.712626 -131.088722 
L 644.290686 -133.239552 
L 645.635644 -135.390382 
L 646.768302 -137.541212 
L 647.711004 -139.692042 
L 648.48618 -141.842872 
L 649.115359 -143.993702 
L 649.618547 -146.144532 
L 650.013866 -148.295362 
L 650.317374 -150.446192 
L 650.543001 -152.597022 
L 650.702565 -154.747852 
L 650.805863 -156.898682 
L 650.86082 -159.049512 
L 650.873711 -161.200342 
L 650.849444 -163.351172 
L 650.791897 -165.502002 
L 650.704272 -167.652832 
L 650.589448 -169.803662 
L 650.450288 -171.954492 
L 650.289862 -174.105322 
L 650.111563 -176.256152 
L 649.919113 -178.406982 
L 649.716451 -180.557812 
L 649.507545 -182.708642 
L 649.296161 -184.859472 
L 649.085643 -187.010302 
L 648.878742 -189.161132 
L 648.677544 -191.311962 
L 648.4835 -193.462792 
L 648.297569 -195.613622 
L 648.120428 -197.764452 
L 647.952735 -199.915282 
L 647.79536 -202.066112 
L 647.649573 -204.216942 
L 647.517124 -206.367772 
L 647.400217 -208.518602 
L 647.301373 -210.669432 
L 647.223213 -212.820262 
L 647.168196 -214.971092 
L 647.138371 -217.121922 
L 647.135179 -219.272751 
L 647.159341 -221.423581 
L 647.210848 -223.574411 
L 647.289046 -225.725241 
L 647.392785 -227.876071 
L 647.520586 -230.026901 
L 647.670789 -232.177731 
L 647.841633 -234.328561 
L 648.031261 -236.479391 
L 648.237637 -238.630221 
L 648.458418 -240.781051 
L 648.690809 -242.931881 
L 648.931466 -245.082711 
L 649.176476 -247.233541 
L 649.421449 -249.384371 
L 649.661715 -251.535201 
L 649.892609 -253.686031 
L 650.109799 -255.836861 
L 650.309597 -257.987691 
L 650.489221 -260.138521 
L 650.646951 -262.289351 
L 650.782178 -264.440181 
L 650.895331 -266.591011 
L 650.987722 -268.741841 
L 651.061325 -270.892671 
L 651.118526 -273.043501 
L 651.264755 -273.043501 
L 651.264755 -273.043501 
L 651.264755 -270.892671 
L 651.264755 -268.741841 
L 651.264755 -266.591011 
L 651.264755 -264.440181 
L 651.264755 -262.289351 
L 651.264755 -260.138521 
L 651.264755 -257.987691 
L 651.264755 -255.836861 
L 651.264755 -253.686031 
L 651.264755 -251.535201 
L 651.264755 -249.384371 
L 651.264755 -247.233541 
L 651.264755 -245.082711 
L 651.264755 -242.931881 
L 651.264755 -240.781051 
L 651.264755 -238.630221 
L 651.264755 -236.479391 
L 651.264755 -234.328561 
L 651.264755 -232.177731 
L 651.264755 -230.026901 
L 651.264755 -227.876071 
L 651.264755 -225.725241 
L 651.264755 -223.574411 
L 651.264755 -221.423581 
L 651.264755 -219.272751 
L 651.264755 -217.121922 
L 651.264755 -214.971092 
L 651.264755 -212.820262 
L 651.264755 -210.669432 
L 651.264755 -208.518602 
L 651.264755 -206.367772 
L 651.264755 -204.216942 
L 651.264755 -202.066112 
L 651.264755 -199.915282 
L 651.264755 -197.764452 
L 651.264755 -195.613622 
L 651.264755 -193.462792 
L 651.264755 -191.311962 
L 651.264755 -189.161132 
L 651.264755 -187.010302 
L 651.264755 -184.859472 
L 651.264755 -182.708642 
L 651.264755 -180.557812 
L 651.264755 -178.406982 
L 651.264755 -176.256152 
L 651.264755 -174.105322 
L 651.264755 -171.954492 
L 651.264755 -169.803662 
L 651.264755 -167.652832 
L 651.264755 -165.502002 
L 651.264755 -163.351172 
L 651.264755 -161.200342 
L 651.264755 -159.049512 
L 651.264755 -156.898682 
L 651.264755 -154.747852 
L 651.264755 -152.597022 
L 651.264755 -150.446192 
L 651.264755 -148.295362 
L 651.264755 -146.144532 
L 651.264755 -143.993702 
L 651.264755 -141.842872 
L 651.264755 -139.692042 
L 651.264755 -137.541212 
L 651.264755 -135.390382 
L 651.264755 -133.239552 
L 651.264755 -131.088722 
L 651.264755 -128.937892 
L 651.264755 -126.787062 
L 651.264755 -124.636232 
L 651.264755 -122.485402 
L 651.264755 -120.334572 
L 651.264755 -118.183742 
L 651.264755 -116.032912 
L 651.264755 -113.882082 
L 651.264755 -111.731252 
L 651.264755 -109.580422 
L 651.264755 -107.429592 
L 651.264755 -105.278762 
L 651.264755 -103.127932 
L 651.264755 -100.977102 
L 651.264755 -98.826272 
L 651.264755 -96.675442 
L 651.264755 -94.524612 
L 651.264755 -92.373782 
L 651.264755 -90.222952 
L 651.264755 -88.072122 
L 651.264755 -85.921292 
L 651.264755 -83.770462 
L 651.264755 -81.619632 
L 651.264755 -79.468802 
L 651.264755 -77.317972 
L 651.264755 -75.167142 
L 651.264755 -73.016312 
L 651.264755 -70.865482 
L 651.264755 -68.714652 
L 651.264755 -66.563822 
L 651.264755 -64.412992 
L 651.264755 -62.262162 
L 651.264755 -60.111332 
z
" style="stroke: #4c4c4c; stroke-width: 1.5"/>
    </defs>
    <g clip-path="url(#pc379696017)">
     <use xlink:href="#mdf2c9176e8" x="0" y="351.126562" style="fill: #5875a4; stroke: #4c4c4c; stroke-width: 1.5"/>
    </g>
   </g>
   <g id="PolyCollection_12">
    <defs>
     <path id="mff34d13808" d="M 652.650185 -51.129545 
L 651.264755 -51.129545 
L 651.264755 -53.807135 
L 651.264755 -56.484725 
L 651.264755 -59.162314 
L 651.264755 -61.839904 
L 651.264755 -64.517493 
L 651.264755 -67.195083 
L 651.264755 -69.872672 
L 651.264755 -72.550262 
L 651.264755 -75.227851 
L 651.264755 -77.905441 
L 651.264755 -80.58303 
L 651.264755 -83.26062 
L 651.264755 -85.938209 
L 651.264755 -88.615799 
L 651.264755 -91.293388 
L 651.264755 -93.970978 
L 651.264755 -96.648568 
L 651.264755 -99.326157 
L 651.264755 -102.003747 
L 651.264755 -104.681336 
L 651.264755 -107.358926 
L 651.264755 -110.036515 
L 651.264755 -112.714105 
L 651.264755 -115.391694 
L 651.264755 -118.069284 
L 651.264755 -120.746873 
L 651.264755 -123.424463 
L 651.264755 -126.102052 
L 651.264755 -128.779642 
L 651.264755 -131.457231 
L 651.264755 -134.134821 
L 651.264755 -136.812411 
L 651.264755 -139.49 
L 651.264755 -142.16759 
L 651.264755 -144.845179 
L 651.264755 -147.522769 
L 651.264755 -150.200358 
L 651.264755 -152.877948 
L 651.264755 -155.555537 
L 651.264755 -158.233127 
L 651.264755 -160.910716 
L 651.264755 -163.588306 
L 651.264755 -166.265895 
L 651.264755 -168.943485 
L 651.264755 -171.621074 
L 651.264755 -174.298664 
L 651.264755 -176.976254 
L 651.264755 -179.653843 
L 651.264755 -182.331433 
L 651.264755 -185.009022 
L 651.264755 -187.686612 
L 651.264755 -190.364201 
L 651.264755 -193.041791 
L 651.264755 -195.71938 
L 651.264755 -198.39697 
L 651.264755 -201.074559 
L 651.264755 -203.752149 
L 651.264755 -206.429738 
L 651.264755 -209.107328 
L 651.264755 -211.784917 
L 651.264755 -214.462507 
L 651.264755 -217.140097 
L 651.264755 -219.817686 
L 651.264755 -222.495276 
L 651.264755 -225.172865 
L 651.264755 -227.850455 
L 651.264755 -230.528044 
L 651.264755 -233.205634 
L 651.264755 -235.883223 
L 651.264755 -238.560813 
L 651.264755 -241.238402 
L 651.264755 -243.915992 
L 651.264755 -246.593581 
L 651.264755 -249.271171 
L 651.264755 -251.94876 
L 651.264755 -254.62635 
L 651.264755 -257.30394 
L 651.264755 -259.981529 
L 651.264755 -262.659119 
L 651.264755 -265.336708 
L 651.264755 -268.014298 
L 651.264755 -270.691887 
L 651.264755 -273.369477 
L 651.264755 -276.047066 
L 651.264755 -278.724656 
L 651.264755 -281.402245 
L 651.264755 -284.079835 
L 651.264755 -286.757424 
L 651.264755 -289.435014 
L 651.264755 -292.112603 
L 651.264755 -294.790193 
L 651.264755 -297.467783 
L 651.264755 -300.145372 
L 651.264755 -302.822962 
L 651.264755 -305.500551 
L 651.264755 -308.178141 
L 651.264755 -310.85573 
L 651.264755 -313.53332 
L 651.264755 -316.210909 
L 651.353679 -316.210909 
L 651.353679 -316.210909 
L 651.387196 -313.53332 
L 651.430219 -310.85573 
L 651.484287 -308.178141 
L 651.550833 -305.500551 
L 651.631075 -302.822962 
L 651.72592 -300.145372 
L 651.835878 -297.467783 
L 651.961017 -294.790193 
L 652.100946 -292.112603 
L 652.254853 -289.435014 
L 652.421569 -286.757424 
L 652.599651 -284.079835 
L 652.787476 -281.402245 
L 652.983306 -278.724656 
L 653.185321 -276.047066 
L 653.391603 -273.369477 
L 653.600089 -270.691887 
L 653.80849 -268.014298 
L 654.014229 -265.336708 
L 654.214405 -262.659119 
L 654.40583 -259.981529 
L 654.58515 -257.30394 
L 654.749048 -254.62635 
L 654.894503 -251.94876 
L 655.019086 -249.271171 
L 655.121228 -246.593581 
L 655.200422 -243.915992 
L 655.257317 -241.238402 
L 655.293701 -238.560813 
L 655.312351 -235.883223 
L 655.316806 -233.205634 
L 655.311082 -230.528044 
L 655.299382 -227.850455 
L 655.285849 -225.172865 
L 655.27438 -222.495276 
L 655.268511 -219.817686 
L 655.271361 -217.140097 
L 655.285611 -214.462507 
L 655.313484 -211.784917 
L 655.356698 -209.107328 
L 655.416372 -206.429738 
L 655.492888 -203.752149 
L 655.585738 -201.074559 
L 655.693373 -198.39697 
L 655.813115 -195.71938 
L 655.941171 -193.041791 
L 656.072765 -190.364201 
L 656.202428 -187.686612 
L 656.324418 -185.009022 
L 656.433256 -182.331433 
L 656.524313 -179.653843 
L 656.594418 -176.976254 
L 656.642409 -174.298664 
L 656.669574 -171.621074 
L 656.679959 -168.943485 
L 656.68051 -166.265895 
L 656.681028 -163.588306 
L 656.693984 -160.910716 
L 656.734175 -158.233127 
L 656.818275 -155.555537 
L 656.964305 -152.877948 
L 657.191031 -150.200358 
L 657.517325 -147.522769 
L 657.96146 -144.845179 
L 658.540339 -142.16759 
L 659.268617 -139.49 
L 660.157685 -136.812411 
L 661.214473 -134.134821 
L 662.440088 -131.457231 
L 663.828316 -128.779642 
L 665.364096 -126.102052 
L 667.022159 -123.424463 
L 668.766053 -120.746873 
L 670.547865 -118.069284 
L 672.308916 -115.391694 
L 673.981641 -112.714105 
L 675.492779 -110.036515 
L 676.767759 -107.358926 
L 677.736029 -104.681336 
L 678.336807 -102.003747 
L 678.524643 -99.326157 
L 678.274068 -96.648568 
L 677.5827 -93.970978 
L 676.472298 -91.293388 
L 674.987554 -88.615799 
L 673.192691 -85.938209 
L 671.166248 -83.26062 
L 668.994686 -80.58303 
L 666.765583 -77.905441 
L 664.561209 -75.227851 
L 662.453167 -72.550262 
L 660.498581 -69.872672 
L 658.738073 -67.195083 
L 657.195505 -64.517493 
L 655.879234 -61.839904 
L 654.784498 -59.162314 
L 653.896466 -56.484725 
L 653.193488 -53.807135 
L 652.650185 -51.129545 
z
" style="stroke: #4c4c4c; stroke-width: 1.5"/>
    </defs>
    <g clip-path="url(#pc379696017)">
     <use xlink:href="#mff34d13808" x="0" y="351.126562" style="fill: #cc8963; stroke: #4c4c4c; stroke-width: 1.5"/>
    </g>
   </g>
   <g id="line2d_21">
    <path d="M 435.560754 263.308017 
L 435.560754 190.53748 
" clip-path="url(#pc379696017)" style="fill: none; stroke: #4c4c4c; stroke-width: 1.5; stroke-linecap: round"/>
   </g>
   <g id="line2d_22">
    <path d="M 435.560754 259.520399 
L 435.560754 231.571601 
" clip-path="url(#pc379696017)" style="fill: none; stroke: #4c4c4c; stroke-width: 4.5; stroke-linecap: round"/>
   </g>
   <g id="line2d_23">
    <path d="M 543.412755 263.146653 
L 543.412755 188.540068 
" clip-path="url(#pc379696017)" style="fill: none; stroke: #4c4c4c; stroke-width: 1.5; stroke-linecap: round"/>
   </g>
   <g id="line2d_24">
    <path d="M 543.412755 258.263799 
L 543.412755 229.806229 
" clip-path="url(#pc379696017)" style="fill: none; stroke: #4c4c4c; stroke-width: 4.5; stroke-linecap: round"/>
   </g>
   <g id="line2d_25">
    <path d="M 651.264755 263.308017 
L 651.264755 187.42109 
" clip-path="url(#pc379696017)" style="fill: none; stroke: #4c4c4c; stroke-width: 1.5; stroke-linecap: round"/>
   </g>
   <g id="line2d_26">
    <path d="M 651.264755 256.173963 
L 651.264755 227.788331 
" clip-path="url(#pc379696017)" style="fill: none; stroke: #4c4c4c; stroke-width: 4.5; stroke-linecap: round"/>
   </g>
   <g id="patch_10">
    <path d="M 381.634754 313.292187 
L 381.634754 20.798437 
" style="fill: none; stroke: #262626; stroke-width: 0.8; stroke-linejoin: miter; stroke-linecap: square"/>
   </g>
   <g id="patch_11">
    <path d="M 381.634754 313.292187 
L 705.190755 313.292187 
" style="fill: none; stroke: #262626; stroke-width: 0.8; stroke-linejoin: miter; stroke-linecap: square"/>
   </g>
   <g id="PathCollection_4">
    <g clip-path="url(#pc379696017)">
     <use xlink:href="#ma4ec2e3732" x="435.560754" y="255.443609" style="fill: #ffffff; stroke: #4c4c4c"/>
    </g>
   </g>
   <g id="PathCollection_5">
    <g clip-path="url(#pc379696017)">
     <use xlink:href="#ma4ec2e3732" x="543.412755" y="252.925119" style="fill: #ffffff; stroke: #4c4c4c"/>
    </g>
   </g>
   <g id="PathCollection_6">
    <g clip-path="url(#pc379696017)">
     <use xlink:href="#ma4ec2e3732" x="651.264755" y="249.45406" style="fill: #ffffff; stroke: #4c4c4c"/>
    </g>
   </g>
   <g id="text_15">
    <!-- Dyn_obs = 10.0 -->
    <g style="fill: #262626" transform="translate(503.595567 14.798437)scale(0.1 -0.1)">
     <defs>
      <path id="DejaVuSans-31" d="M 794 531 
L 1825 531 
L 1825 4091 
L 703 3866 
L 703 4441 
L 1819 4666 
L 2450 4666 
L 2450 531 
L 3481 531 
L 3481 0 
L 794 0 
L 794 531 
z
" transform="scale(0.015625)"/>
     </defs>
     <use xlink:href="#DejaVuSans-44"/>
     <use xlink:href="#DejaVuSans-79" x="77.001953"/>
     <use xlink:href="#DejaVuSans-6e" x="136.181641"/>
     <use xlink:href="#DejaVuSans-5f" x="199.560547"/>
     <use xlink:href="#DejaVuSans-6f" x="249.560547"/>
     <use xlink:href="#DejaVuSans-62" x="310.742188"/>
     <use xlink:href="#DejaVuSans-73" x="374.21875"/>
     <use xlink:href="#DejaVuSans-20" x="426.318359"/>
     <use xlink:href="#DejaVuSans-3d" x="458.105469"/>
     <use xlink:href="#DejaVuSans-20" x="541.894531"/>
     <use xlink:href="#DejaVuSans-31" x="573.681641"/>
     <use xlink:href="#DejaVuSans-30" x="637.304688"/>
     <use xlink:href="#DejaVuSans-2e" x="700.927734"/>
     <use xlink:href="#DejaVuSans-30" x="732.714844"/>
    </g>
   </g>
  </g>
  <g id="legend_1">
   <g id="text_16">
    <!-- dim -->
    <g style="fill: #262626" transform="translate(725.039193 163.644531)scale(0.1 -0.1)">
     <defs>
      <path id="DejaVuSans-69" d="M 603 3500 
L 1178 3500 
L 1178 0 
L 603 0 
L 603 3500 
z
M 603 4863 
L 1178 4863 
L 1178 4134 
L 603 4134 
L 603 4863 
z
" transform="scale(0.015625)"/>
     </defs>
     <use xlink:href="#DejaVuSans-64"/>
     <use xlink:href="#DejaVuSans-69" x="63.476562"/>
     <use xlink:href="#DejaVuSans-6d" x="91.259766"/>
    </g>
   </g>
   <g id="patch_12">
    <path d="M 714.117318 178.322656 
L 734.117318 178.322656 
L 734.117318 171.322656 
L 714.117318 171.322656 
z
" style="fill: #5875a4; stroke: #4c4c4c; stroke-width: 0.75; stroke-linejoin: miter"/>
   </g>
   <g id="text_17">
    <!-- 2d -->
    <g style="fill: #262626" transform="translate(742.117318 178.322656)scale(0.1 -0.1)">
     <use xlink:href="#DejaVuSans-32"/>
     <use xlink:href="#DejaVuSans-64" x="63.623047"/>
    </g>
   </g>
   <g id="patch_13">
    <path d="M 714.117318 193.000781 
L 734.117318 193.000781 
L 734.117318 186.000781 
L 714.117318 186.000781 
z
" style="fill: #cc8963; stroke: #4c4c4c; stroke-width: 0.75; stroke-linejoin: miter"/>
   </g>
   <g id="text_18">
    <!-- 3d -->
    <g style="fill: #262626" transform="translate(742.117318 193.000781)scale(0.1 -0.1)">
     <defs>
      <path id="DejaVuSans-33" d="M 2597 2516 
Q 3050 2419 3304 2112 
Q 3559 1806 3559 1356 
Q 3559 666 3084 287 
Q 2609 -91 1734 -91 
Q 1441 -91 1130 -33 
Q 819 25 488 141 
L 488 750 
Q 750 597 1062 519 
Q 1375 441 1716 441 
Q 2309 441 2620 675 
Q 2931 909 2931 1356 
Q 2931 1769 2642 2001 
Q 2353 2234 1838 2234 
L 1294 2234 
L 1294 2753 
L 1863 2753 
Q 2328 2753 2575 2939 
Q 2822 3125 2822 3475 
Q 2822 3834 2567 4026 
Q 2313 4219 1838 4219 
Q 1578 4219 1281 4162 
Q 984 4106 628 3988 
L 628 4550 
Q 988 4650 1302 4700 
Q 1616 4750 1894 4750 
Q 2613 4750 3031 4423 
Q 3450 4097 3450 3541 
Q 3450 3153 3228 2886 
Q 3006 2619 2597 2516 
z
" transform="scale(0.015625)"/>
     </defs>
     <use xlink:href="#DejaVuSans-33"/>
     <use xlink:href="#DejaVuSans-64" x="63.623047"/>
    </g>
   </g>
  </g>
 </g>
 <defs>
  <clipPath id="pe885b1a19b">
   <rect x="43.78125" y="20.798437" width="323.556001" height="292.49375"/>
  </clipPath>
  <clipPath id="pc379696017">
   <rect x="381.634754" y="20.798437" width="323.556001" height="292.49375"/>
  </clipPath>
 </defs>
</svg>
