<?xml version="1.0" encoding="utf-8" standalone="no"?>
<!DOCTYPE svg PUBLIC "-//W3C//DTD SVG 1.1//EN"
  "http://www.w3.org/Graphics/SVG/1.1/DTD/svg11.dtd">
<svg xmlns:xlink="http://www.w3.org/1999/xlink" width="763.828255pt" height="351.126562pt" viewBox="0 0 763.828255 351.126562" xmlns="http://www.w3.org/2000/svg" version="1.1">
 <metadata>
  <rdf:RDF xmlns:dc="http://purl.org/dc/elements/1.1/" xmlns:cc="http://creativecommons.org/ns#" xmlns:rdf="http://www.w3.org/1999/02/22-rdf-syntax-ns#">
   <cc:Work>
    <dc:type rdf:resource="http://purl.org/dc/dcmitype/StillImage"/>
    <dc:date>2022-03-28T23:39:16.644386</dc:date>
    <dc:format>image/svg+xml</dc:format>
    <dc:creator>
     <cc:Agent>
      <dc:title>Matplotlib v3.5.1, https://matplotlib.org/</dc:title>
     </cc:Agent>
    </dc:creator>
   </cc:Work>
  </rdf:RDF>
 </metadata>
 <defs>
  <style type="text/css">*{stroke-linejoin: round; stroke-linecap: butt}</style>
 </defs>
 <g id="figure_1">
  <g id="patch_1">
   <path d="M 0 351.126562 
L 763.828255 351.126562 
L 763.828255 0 
L 0 0 
z
" style="fill: #ffffff"/>
  </g>
  <g id="axes_1">
   <g id="patch_2">
    <path d="M 43.78125 313.292187 
L 367.337251 313.292187 
L 367.337251 20.798437 
L 43.78125 20.798437 
z
" style="fill: #ffffff"/>
   </g>
   <g id="matplotlib.axis_1">
    <g id="xtick_1">
     <g id="line2d_1">
      <defs>
       <path id="m58115429ed" d="M 0 0 
L 0 3.5 
" style="stroke: #262626; stroke-width: 0.8"/>
      </defs>
      <g>
       <use xlink:href="#m58115429ed" x="97.70725" y="313.292187" style="fill: #262626; stroke: #262626; stroke-width: 0.8"/>
      </g>
     </g>
     <g id="text_1">
      <!-- map2 -->
      <g style="fill: #262626" transform="translate(83.417406 327.890625)scale(0.1 -0.1)">
       <defs>
        <path id="DejaVuSans-6d" d="M 3328 2828 
Q 3544 3216 3844 3400 
Q 4144 3584 4550 3584 
Q 5097 3584 5394 3201 
Q 5691 2819 5691 2113 
L 5691 0 
L 5113 0 
L 5113 2094 
Q 5113 2597 4934 2840 
Q 4756 3084 4391 3084 
Q 3944 3084 3684 2787 
Q 3425 2491 3425 1978 
L 3425 0 
L 2847 0 
L 2847 2094 
Q 2847 2600 2669 2842 
Q 2491 3084 2119 3084 
Q 1678 3084 1418 2786 
Q 1159 2488 1159 1978 
L 1159 0 
L 581 0 
L 581 3500 
L 1159 3500 
L 1159 2956 
Q 1356 3278 1631 3431 
Q 1906 3584 2284 3584 
Q 2666 3584 2933 3390 
Q 3200 3197 3328 2828 
z
" transform="scale(0.015625)"/>
        <path id="DejaVuSans-61" d="M 2194 1759 
Q 1497 1759 1228 1600 
Q 959 1441 959 1056 
Q 959 750 1161 570 
Q 1363 391 1709 391 
Q 2188 391 2477 730 
Q 2766 1069 2766 1631 
L 2766 1759 
L 2194 1759 
z
M 3341 1997 
L 3341 0 
L 2766 0 
L 2766 531 
Q 2569 213 2275 61 
Q 1981 -91 1556 -91 
Q 1019 -91 701 211 
Q 384 513 384 1019 
Q 384 1609 779 1909 
Q 1175 2209 1959 2209 
L 2766 2209 
L 2766 2266 
Q 2766 2663 2505 2880 
Q 2244 3097 1772 3097 
Q 1472 3097 1187 3025 
Q 903 2953 641 2809 
L 641 3341 
Q 956 3463 1253 3523 
Q 1550 3584 1831 3584 
Q 2591 3584 2966 3190 
Q 3341 2797 3341 1997 
z
" transform="scale(0.015625)"/>
        <path id="DejaVuSans-70" d="M 1159 525 
L 1159 -1331 
L 581 -1331 
L 581 3500 
L 1159 3500 
L 1159 2969 
Q 1341 3281 1617 3432 
Q 1894 3584 2278 3584 
Q 2916 3584 3314 3078 
Q 3713 2572 3713 1747 
Q 3713 922 3314 415 
Q 2916 -91 2278 -91 
Q 1894 -91 1617 61 
Q 1341 213 1159 525 
z
M 3116 1747 
Q 3116 2381 2855 2742 
Q 2594 3103 2138 3103 
Q 1681 3103 1420 2742 
Q 1159 2381 1159 1747 
Q 1159 1113 1420 752 
Q 1681 391 2138 391 
Q 2594 391 2855 752 
Q 3116 1113 3116 1747 
z
" transform="scale(0.015625)"/>
        <path id="DejaVuSans-32" d="M 1228 531 
L 3431 531 
L 3431 0 
L 469 0 
L 469 531 
Q 828 903 1448 1529 
Q 2069 2156 2228 2338 
Q 2531 2678 2651 2914 
Q 2772 3150 2772 3378 
Q 2772 3750 2511 3984 
Q 2250 4219 1831 4219 
Q 1534 4219 1204 4116 
Q 875 4013 500 3803 
L 500 4441 
Q 881 4594 1212 4672 
Q 1544 4750 1819 4750 
Q 2544 4750 2975 4387 
Q 3406 4025 3406 3419 
Q 3406 3131 3298 2873 
Q 3191 2616 2906 2266 
Q 2828 2175 2409 1742 
Q 1991 1309 1228 531 
z
" transform="scale(0.015625)"/>
       </defs>
       <use xlink:href="#DejaVuSans-6d"/>
       <use xlink:href="#DejaVuSans-61" x="97.412109"/>
       <use xlink:href="#DejaVuSans-70" x="158.691406"/>
       <use xlink:href="#DejaVuSans-32" x="222.167969"/>
      </g>
     </g>
    </g>
    <g id="xtick_2">
     <g id="line2d_2">
      <g>
       <use xlink:href="#m58115429ed" x="205.55925" y="313.292187" style="fill: #262626; stroke: #262626; stroke-width: 0.8"/>
      </g>
     </g>
     <g id="text_2">
      <!-- map5 -->
      <g style="fill: #262626" transform="translate(191.269407 327.890625)scale(0.1 -0.1)">
       <defs>
        <path id="DejaVuSans-35" d="M 691 4666 
L 3169 4666 
L 3169 4134 
L 1269 4134 
L 1269 2991 
Q 1406 3038 1543 3061 
Q 1681 3084 1819 3084 
Q 2600 3084 3056 2656 
Q 3513 2228 3513 1497 
Q 3513 744 3044 326 
Q 2575 -91 1722 -91 
Q 1428 -91 1123 -41 
Q 819 9 494 109 
L 494 744 
Q 775 591 1075 516 
Q 1375 441 1709 441 
Q 2250 441 2565 725 
Q 2881 1009 2881 1497 
Q 2881 1984 2565 2268 
Q 2250 2553 1709 2553 
Q 1456 2553 1204 2497 
Q 953 2441 691 2322 
L 691 4666 
z
" transform="scale(0.015625)"/>
       </defs>
       <use xlink:href="#DejaVuSans-6d"/>
       <use xlink:href="#DejaVuSans-61" x="97.412109"/>
       <use xlink:href="#DejaVuSans-70" x="158.691406"/>
       <use xlink:href="#DejaVuSans-35" x="222.167969"/>
      </g>
     </g>
    </g>
    <g id="xtick_3">
     <g id="line2d_3">
      <g>
       <use xlink:href="#m58115429ed" x="313.411251" y="313.292187" style="fill: #262626; stroke: #262626; stroke-width: 0.8"/>
      </g>
     </g>
     <g id="text_3">
      <!-- small_warehouse -->
      <g style="fill: #262626" transform="translate(270.343282 327.890625)scale(0.1 -0.1)">
       <defs>
        <path id="DejaVuSans-73" d="M 2834 3397 
L 2834 2853 
Q 2591 2978 2328 3040 
Q 2066 3103 1784 3103 
Q 1356 3103 1142 2972 
Q 928 2841 928 2578 
Q 928 2378 1081 2264 
Q 1234 2150 1697 2047 
L 1894 2003 
Q 2506 1872 2764 1633 
Q 3022 1394 3022 966 
Q 3022 478 2636 193 
Q 2250 -91 1575 -91 
Q 1294 -91 989 -36 
Q 684 19 347 128 
L 347 722 
Q 666 556 975 473 
Q 1284 391 1588 391 
Q 1994 391 2212 530 
Q 2431 669 2431 922 
Q 2431 1156 2273 1281 
Q 2116 1406 1581 1522 
L 1381 1569 
Q 847 1681 609 1914 
Q 372 2147 372 2553 
Q 372 3047 722 3315 
Q 1072 3584 1716 3584 
Q 2034 3584 2315 3537 
Q 2597 3491 2834 3397 
z
" transform="scale(0.015625)"/>
        <path id="DejaVuSans-6c" d="M 603 4863 
L 1178 4863 
L 1178 0 
L 603 0 
L 603 4863 
z
" transform="scale(0.015625)"/>
        <path id="DejaVuSans-5f" d="M 3263 -1063 
L 3263 -1509 
L -63 -1509 
L -63 -1063 
L 3263 -1063 
z
" transform="scale(0.015625)"/>
        <path id="DejaVuSans-77" d="M 269 3500 
L 844 3500 
L 1563 769 
L 2278 3500 
L 2956 3500 
L 3675 769 
L 4391 3500 
L 4966 3500 
L 4050 0 
L 3372 0 
L 2619 2869 
L 1863 0 
L 1184 0 
L 269 3500 
z
" transform="scale(0.015625)"/>
        <path id="DejaVuSans-72" d="M 2631 2963 
Q 2534 3019 2420 3045 
Q 2306 3072 2169 3072 
Q 1681 3072 1420 2755 
Q 1159 2438 1159 1844 
L 1159 0 
L 581 0 
L 581 3500 
L 1159 3500 
L 1159 2956 
Q 1341 3275 1631 3429 
Q 1922 3584 2338 3584 
Q 2397 3584 2469 3576 
Q 2541 3569 2628 3553 
L 2631 2963 
z
" transform="scale(0.015625)"/>
        <path id="DejaVuSans-65" d="M 3597 1894 
L 3597 1613 
L 953 1613 
Q 991 1019 1311 708 
Q 1631 397 2203 397 
Q 2534 397 2845 478 
Q 3156 559 3463 722 
L 3463 178 
Q 3153 47 2828 -22 
Q 2503 -91 2169 -91 
Q 1331 -91 842 396 
Q 353 884 353 1716 
Q 353 2575 817 3079 
Q 1281 3584 2069 3584 
Q 2775 3584 3186 3129 
Q 3597 2675 3597 1894 
z
M 3022 2063 
Q 3016 2534 2758 2815 
Q 2500 3097 2075 3097 
Q 1594 3097 1305 2825 
Q 1016 2553 972 2059 
L 3022 2063 
z
" transform="scale(0.015625)"/>
        <path id="DejaVuSans-68" d="M 3513 2113 
L 3513 0 
L 2938 0 
L 2938 2094 
Q 2938 2591 2744 2837 
Q 2550 3084 2163 3084 
Q 1697 3084 1428 2787 
Q 1159 2491 1159 1978 
L 1159 0 
L 581 0 
L 581 4863 
L 1159 4863 
L 1159 2956 
Q 1366 3272 1645 3428 
Q 1925 3584 2291 3584 
Q 2894 3584 3203 3211 
Q 3513 2838 3513 2113 
z
" transform="scale(0.015625)"/>
        <path id="DejaVuSans-6f" d="M 1959 3097 
Q 1497 3097 1228 2736 
Q 959 2375 959 1747 
Q 959 1119 1226 758 
Q 1494 397 1959 397 
Q 2419 397 2687 759 
Q 2956 1122 2956 1747 
Q 2956 2369 2687 2733 
Q 2419 3097 1959 3097 
z
M 1959 3584 
Q 2709 3584 3137 3096 
Q 3566 2609 3566 1747 
Q 3566 888 3137 398 
Q 2709 -91 1959 -91 
Q 1206 -91 779 398 
Q 353 888 353 1747 
Q 353 2609 779 3096 
Q 1206 3584 1959 3584 
z
" transform="scale(0.015625)"/>
        <path id="DejaVuSans-75" d="M 544 1381 
L 544 3500 
L 1119 3500 
L 1119 1403 
Q 1119 906 1312 657 
Q 1506 409 1894 409 
Q 2359 409 2629 706 
Q 2900 1003 2900 1516 
L 2900 3500 
L 3475 3500 
L 3475 0 
L 2900 0 
L 2900 538 
Q 2691 219 2414 64 
Q 2138 -91 1772 -91 
Q 1169 -91 856 284 
Q 544 659 544 1381 
z
M 1991 3584 
L 1991 3584 
z
" transform="scale(0.015625)"/>
       </defs>
       <use xlink:href="#DejaVuSans-73"/>
       <use xlink:href="#DejaVuSans-6d" x="52.099609"/>
       <use xlink:href="#DejaVuSans-61" x="149.511719"/>
       <use xlink:href="#DejaVuSans-6c" x="210.791016"/>
       <use xlink:href="#DejaVuSans-6c" x="238.574219"/>
       <use xlink:href="#DejaVuSans-5f" x="266.357422"/>
       <use xlink:href="#DejaVuSans-77" x="316.357422"/>
       <use xlink:href="#DejaVuSans-61" x="398.144531"/>
       <use xlink:href="#DejaVuSans-72" x="459.423828"/>
       <use xlink:href="#DejaVuSans-65" x="498.287109"/>
       <use xlink:href="#DejaVuSans-68" x="559.810547"/>
       <use xlink:href="#DejaVuSans-6f" x="623.189453"/>
       <use xlink:href="#DejaVuSans-75" x="684.371094"/>
       <use xlink:href="#DejaVuSans-73" x="747.75"/>
       <use xlink:href="#DejaVuSans-65" x="799.849609"/>
      </g>
     </g>
    </g>
    <g id="text_4">
     <!-- World -->
     <g style="fill: #262626" transform="translate(191.231125 341.846875)scale(0.1 -0.1)">
      <defs>
       <path id="DejaVuSans-57" d="M 213 4666 
L 850 4666 
L 1831 722 
L 2809 4666 
L 3519 4666 
L 4500 722 
L 5478 4666 
L 6119 4666 
L 4947 0 
L 4153 0 
L 3169 4050 
L 2175 0 
L 1381 0 
L 213 4666 
z
" transform="scale(0.015625)"/>
       <path id="DejaVuSans-64" d="M 2906 2969 
L 2906 4863 
L 3481 4863 
L 3481 0 
L 2906 0 
L 2906 525 
Q 2725 213 2448 61 
Q 2172 -91 1784 -91 
Q 1150 -91 751 415 
Q 353 922 353 1747 
Q 353 2572 751 3078 
Q 1150 3584 1784 3584 
Q 2172 3584 2448 3432 
Q 2725 3281 2906 2969 
z
M 947 1747 
Q 947 1113 1208 752 
Q 1469 391 1925 391 
Q 2381 391 2643 752 
Q 2906 1113 2906 1747 
Q 2906 2381 2643 2742 
Q 2381 3103 1925 3103 
Q 1469 3103 1208 2742 
Q 947 2381 947 1747 
z
" transform="scale(0.015625)"/>
      </defs>
      <use xlink:href="#DejaVuSans-57"/>
      <use xlink:href="#DejaVuSans-6f" x="93.001953"/>
      <use xlink:href="#DejaVuSans-72" x="154.183594"/>
      <use xlink:href="#DejaVuSans-6c" x="195.296875"/>
      <use xlink:href="#DejaVuSans-64" x="223.080078"/>
     </g>
    </g>
   </g>
   <g id="matplotlib.axis_2">
    <g id="ytick_1">
     <g id="line2d_4">
      <defs>
       <path id="mb6ba572c71" d="M 0 0 
L -3.5 0 
" style="stroke: #262626; stroke-width: 0.8"/>
      </defs>
      <g>
       <use xlink:href="#mb6ba572c71" x="43.78125" y="277.19215" style="fill: #262626; stroke: #262626; stroke-width: 0.8"/>
      </g>
     </g>
     <g id="text_5">
      <!-- 0.0 -->
      <g style="fill: #262626" transform="translate(20.878125 280.991369)scale(0.1 -0.1)">
       <defs>
        <path id="DejaVuSans-30" d="M 2034 4250 
Q 1547 4250 1301 3770 
Q 1056 3291 1056 2328 
Q 1056 1369 1301 889 
Q 1547 409 2034 409 
Q 2525 409 2770 889 
Q 3016 1369 3016 2328 
Q 3016 3291 2770 3770 
Q 2525 4250 2034 4250 
z
M 2034 4750 
Q 2819 4750 3233 4129 
Q 3647 3509 3647 2328 
Q 3647 1150 3233 529 
Q 2819 -91 2034 -91 
Q 1250 -91 836 529 
Q 422 1150 422 2328 
Q 422 3509 836 4129 
Q 1250 4750 2034 4750 
z
" transform="scale(0.015625)"/>
        <path id="DejaVuSans-2e" d="M 684 794 
L 1344 794 
L 1344 0 
L 684 0 
L 684 794 
z
" transform="scale(0.015625)"/>
       </defs>
       <use xlink:href="#DejaVuSans-30"/>
       <use xlink:href="#DejaVuSans-2e" x="63.623047"/>
       <use xlink:href="#DejaVuSans-30" x="95.410156"/>
      </g>
     </g>
    </g>
    <g id="ytick_2">
     <g id="line2d_5">
      <g>
       <use xlink:href="#mb6ba572c71" x="43.78125" y="224.40761" style="fill: #262626; stroke: #262626; stroke-width: 0.8"/>
      </g>
     </g>
     <g id="text_6">
      <!-- 0.2 -->
      <g style="fill: #262626" transform="translate(20.878125 228.206829)scale(0.1 -0.1)">
       <use xlink:href="#DejaVuSans-30"/>
       <use xlink:href="#DejaVuSans-2e" x="63.623047"/>
       <use xlink:href="#DejaVuSans-32" x="95.410156"/>
      </g>
     </g>
    </g>
    <g id="ytick_3">
     <g id="line2d_6">
      <g>
       <use xlink:href="#mb6ba572c71" x="43.78125" y="171.62307" style="fill: #262626; stroke: #262626; stroke-width: 0.8"/>
      </g>
     </g>
     <g id="text_7">
      <!-- 0.4 -->
      <g style="fill: #262626" transform="translate(20.878125 175.422289)scale(0.1 -0.1)">
       <defs>
        <path id="DejaVuSans-34" d="M 2419 4116 
L 825 1625 
L 2419 1625 
L 2419 4116 
z
M 2253 4666 
L 3047 4666 
L 3047 1625 
L 3713 1625 
L 3713 1100 
L 3047 1100 
L 3047 0 
L 2419 0 
L 2419 1100 
L 313 1100 
L 313 1709 
L 2253 4666 
z
" transform="scale(0.015625)"/>
       </defs>
       <use xlink:href="#DejaVuSans-30"/>
       <use xlink:href="#DejaVuSans-2e" x="63.623047"/>
       <use xlink:href="#DejaVuSans-34" x="95.410156"/>
      </g>
     </g>
    </g>
    <g id="ytick_4">
     <g id="line2d_7">
      <g>
       <use xlink:href="#mb6ba572c71" x="43.78125" y="118.838531" style="fill: #262626; stroke: #262626; stroke-width: 0.8"/>
      </g>
     </g>
     <g id="text_8">
      <!-- 0.6 -->
      <g style="fill: #262626" transform="translate(20.878125 122.637749)scale(0.1 -0.1)">
       <defs>
        <path id="DejaVuSans-36" d="M 2113 2584 
Q 1688 2584 1439 2293 
Q 1191 2003 1191 1497 
Q 1191 994 1439 701 
Q 1688 409 2113 409 
Q 2538 409 2786 701 
Q 3034 994 3034 1497 
Q 3034 2003 2786 2293 
Q 2538 2584 2113 2584 
z
M 3366 4563 
L 3366 3988 
Q 3128 4100 2886 4159 
Q 2644 4219 2406 4219 
Q 1781 4219 1451 3797 
Q 1122 3375 1075 2522 
Q 1259 2794 1537 2939 
Q 1816 3084 2150 3084 
Q 2853 3084 3261 2657 
Q 3669 2231 3669 1497 
Q 3669 778 3244 343 
Q 2819 -91 2113 -91 
Q 1303 -91 875 529 
Q 447 1150 447 2328 
Q 447 3434 972 4092 
Q 1497 4750 2381 4750 
Q 2619 4750 2861 4703 
Q 3103 4656 3366 4563 
z
" transform="scale(0.015625)"/>
       </defs>
       <use xlink:href="#DejaVuSans-30"/>
       <use xlink:href="#DejaVuSans-2e" x="63.623047"/>
       <use xlink:href="#DejaVuSans-36" x="95.410156"/>
      </g>
     </g>
    </g>
    <g id="ytick_5">
     <g id="line2d_8">
      <g>
       <use xlink:href="#mb6ba572c71" x="43.78125" y="66.053991" style="fill: #262626; stroke: #262626; stroke-width: 0.8"/>
      </g>
     </g>
     <g id="text_9">
      <!-- 0.8 -->
      <g style="fill: #262626" transform="translate(20.878125 69.853209)scale(0.1 -0.1)">
       <defs>
        <path id="DejaVuSans-38" d="M 2034 2216 
Q 1584 2216 1326 1975 
Q 1069 1734 1069 1313 
Q 1069 891 1326 650 
Q 1584 409 2034 409 
Q 2484 409 2743 651 
Q 3003 894 3003 1313 
Q 3003 1734 2745 1975 
Q 2488 2216 2034 2216 
z
M 1403 2484 
Q 997 2584 770 2862 
Q 544 3141 544 3541 
Q 544 4100 942 4425 
Q 1341 4750 2034 4750 
Q 2731 4750 3128 4425 
Q 3525 4100 3525 3541 
Q 3525 3141 3298 2862 
Q 3072 2584 2669 2484 
Q 3125 2378 3379 2068 
Q 3634 1759 3634 1313 
Q 3634 634 3220 271 
Q 2806 -91 2034 -91 
Q 1263 -91 848 271 
Q 434 634 434 1313 
Q 434 1759 690 2068 
Q 947 2378 1403 2484 
z
M 1172 3481 
Q 1172 3119 1398 2916 
Q 1625 2713 2034 2713 
Q 2441 2713 2670 2916 
Q 2900 3119 2900 3481 
Q 2900 3844 2670 4047 
Q 2441 4250 2034 4250 
Q 1625 4250 1398 4047 
Q 1172 3844 1172 3481 
z
" transform="scale(0.015625)"/>
       </defs>
       <use xlink:href="#DejaVuSans-30"/>
       <use xlink:href="#DejaVuSans-2e" x="63.623047"/>
       <use xlink:href="#DejaVuSans-38" x="95.410156"/>
      </g>
     </g>
    </g>
    <g id="text_10">
     <!-- roughness -->
     <g style="fill: #262626" transform="translate(14.798438 193.014062)rotate(-90)scale(0.1 -0.1)">
      <defs>
       <path id="DejaVuSans-67" d="M 2906 1791 
Q 2906 2416 2648 2759 
Q 2391 3103 1925 3103 
Q 1463 3103 1205 2759 
Q 947 2416 947 1791 
Q 947 1169 1205 825 
Q 1463 481 1925 481 
Q 2391 481 2648 825 
Q 2906 1169 2906 1791 
z
M 3481 434 
Q 3481 -459 3084 -895 
Q 2688 -1331 1869 -1331 
Q 1566 -1331 1297 -1286 
Q 1028 -1241 775 -1147 
L 775 -588 
Q 1028 -725 1275 -790 
Q 1522 -856 1778 -856 
Q 2344 -856 2625 -561 
Q 2906 -266 2906 331 
L 2906 616 
Q 2728 306 2450 153 
Q 2172 0 1784 0 
Q 1141 0 747 490 
Q 353 981 353 1791 
Q 353 2603 747 3093 
Q 1141 3584 1784 3584 
Q 2172 3584 2450 3431 
Q 2728 3278 2906 2969 
L 2906 3500 
L 3481 3500 
L 3481 434 
z
" transform="scale(0.015625)"/>
       <path id="DejaVuSans-6e" d="M 3513 2113 
L 3513 0 
L 2938 0 
L 2938 2094 
Q 2938 2591 2744 2837 
Q 2550 3084 2163 3084 
Q 1697 3084 1428 2787 
Q 1159 2491 1159 1978 
L 1159 0 
L 581 0 
L 581 3500 
L 1159 3500 
L 1159 2956 
Q 1366 3272 1645 3428 
Q 1925 3584 2291 3584 
Q 2894 3584 3203 3211 
Q 3513 2838 3513 2113 
z
" transform="scale(0.015625)"/>
      </defs>
      <use xlink:href="#DejaVuSans-72"/>
      <use xlink:href="#DejaVuSans-6f" x="38.863281"/>
      <use xlink:href="#DejaVuSans-75" x="100.044922"/>
      <use xlink:href="#DejaVuSans-67" x="163.423828"/>
      <use xlink:href="#DejaVuSans-68" x="226.900391"/>
      <use xlink:href="#DejaVuSans-6e" x="290.279297"/>
      <use xlink:href="#DejaVuSans-65" x="353.658203"/>
      <use xlink:href="#DejaVuSans-73" x="415.181641"/>
      <use xlink:href="#DejaVuSans-73" x="467.28125"/>
     </g>
    </g>
   </g>
   <g id="patch_3">
    <path d="M 97.70725 277.19215 
L 97.70725 277.19215 
L 97.70725 277.19215 
L 97.70725 277.19215 
z
" clip-path="url(#p2e7cdcff9c)" style="fill: #5875a4; stroke: #4c4c4c; stroke-width: 0.75; stroke-linejoin: miter"/>
   </g>
   <g id="PolyCollection_1">
    <defs>
     <path id="maf6dc170e6" d="M 97.70725 -71.064441 
L 95.705169 -71.064441 
L 93.833166 -71.723004 
L 90.809088 -72.381568 
L 86.392316 -73.040132 
L 80.588221 -73.698695 
L 73.781277 -74.357259 
L 66.760707 -75.015823 
L 60.581541 -75.674386 
L 56.282195 -76.33295 
L 54.56645 -76.991514 
L 55.592771 -77.650077 
L 58.965386 -78.308641 
L 63.916723 -78.967205 
L 69.578063 -79.625768 
L 75.211294 -80.284332 
L 80.323243 -80.942896 
L 84.660924 -81.601459 
L 88.139607 -82.260023 
L 90.764027 -82.918587 
L 92.578873 -83.577151 
L 93.654252 -84.235714 
L 94.092627 -84.894278 
L 94.038695 -85.552842 
L 93.677503 -86.211405 
L 93.214217 -86.869969 
L 92.83858 -87.528533 
L 92.685886 -88.187096 
L 92.810274 -88.84566 
L 93.182291 -89.504224 
L 93.712156 -90.162787 
L 94.288742 -90.821351 
L 94.818288 -91.479915 
L 95.249053 -92.138478 
L 95.575901 -92.797042 
L 95.827476 -93.455606 
L 96.044382 -94.114169 
L 96.258425 -94.772733 
L 96.480755 -95.431297 
L 96.701937 -96.08986 
L 96.901526 -96.748424 
L 97.061001 -97.406988 
L 97.173423 -98.065551 
L 97.245829 -98.724115 
L 97.294482 -99.382679 
L 97.336416 -100.041242 
L 97.381916 -100.699806 
L 97.431308 -101.35837 
L 97.476752 -102.016934 
L 97.507354 -102.675497 
L 97.514897 -103.334061 
L 97.497936 -103.992625 
L 97.46307 -104.651188 
L 97.423185 -105.309752 
L 97.393268 -105.968316 
L 97.385261 -106.626879 
L 97.404002 -107.285443 
L 97.446043 -107.944007 
L 97.501805 -108.60257 
L 97.559798 -109.261134 
L 97.610702 -109.919698 
L 97.649583 -110.578261 
L 97.675831 -111.236825 
L 97.691636 -111.895389 
L 97.700172 -112.553952 
L 97.704323 -113.212516 
L 97.706146 -113.87108 
L 97.70687 -114.529643 
L 97.707131 -115.188207 
L 97.707216 -115.846771 
L 97.707241 -116.505334 
L 97.707248 -117.163898 
L 97.70725 -117.822462 
L 97.70725 -118.481025 
L 97.70725 -119.139589 
L 97.70725 -119.798153 
L 97.70725 -120.456717 
L 97.707249 -121.11528 
L 97.707244 -121.773844 
L 97.707227 -122.432408 
L 97.707167 -123.090971 
L 97.706979 -123.749535 
L 97.706441 -124.408099 
L 97.705044 -125.066662 
L 97.701767 -125.725226 
L 97.694815 -126.38379 
L 97.681529 -127.042353 
L 97.658722 -127.700917 
L 97.623734 -128.359481 
L 97.576147 -129.018044 
L 97.519525 -129.676608 
L 97.462061 -130.335172 
L 97.41514 -130.993735 
L 97.389811 -131.652299 
L 97.392591 -132.310863 
L 97.422747 -132.969426 
L 97.47261 -133.62799 
L 97.530734 -134.286554 
L 97.586125 -134.945117 
L 97.631436 -135.603681 
L 97.663965 -136.262245 
L 97.70725 -136.262245 
L 97.70725 -136.262245 
L 97.70725 -135.603681 
L 97.70725 -134.945117 
L 97.70725 -134.286554 
L 97.70725 -133.62799 
L 97.70725 -132.969426 
L 97.70725 -132.310863 
L 97.70725 -131.652299 
L 97.70725 -130.993735 
L 97.70725 -130.335172 
L 97.70725 -129.676608 
L 97.70725 -129.018044 
L 97.70725 -128.359481 
L 97.70725 -127.700917 
L 97.70725 -127.042353 
L 97.70725 -126.38379 
L 97.70725 -125.725226 
L 97.70725 -125.066662 
L 97.70725 -124.408099 
L 97.70725 -123.749535 
L 97.70725 -123.090971 
L 97.70725 -122.432408 
L 97.70725 -121.773844 
L 97.70725 -121.11528 
L 97.70725 -120.456717 
L 97.70725 -119.798153 
L 97.70725 -119.139589 
L 97.70725 -118.481025 
L 97.70725 -117.822462 
L 97.70725 -117.163898 
L 97.70725 -116.505334 
L 97.70725 -115.846771 
L 97.70725 -115.188207 
L 97.70725 -114.529643 
L 97.70725 -113.87108 
L 97.70725 -113.212516 
L 97.70725 -112.553952 
L 97.70725 -111.895389 
L 97.70725 -111.236825 
L 97.70725 -110.578261 
L 97.70725 -109.919698 
L 97.70725 -109.261134 
L 97.70725 -108.60257 
L 97.70725 -107.944007 
L 97.70725 -107.285443 
L 97.70725 -106.626879 
L 97.70725 -105.968316 
L 97.70725 -105.309752 
L 97.70725 -104.651188 
L 97.70725 -103.992625 
L 97.70725 -103.334061 
L 97.70725 -102.675497 
L 97.70725 -102.016934 
L 97.70725 -101.35837 
L 97.70725 -100.699806 
L 97.70725 -100.041242 
L 97.70725 -99.382679 
L 97.70725 -98.724115 
L 97.70725 -98.065551 
L 97.70725 -97.406988 
L 97.70725 -96.748424 
L 97.70725 -96.08986 
L 97.70725 -95.431297 
L 97.70725 -94.772733 
L 97.70725 -94.114169 
L 97.70725 -93.455606 
L 97.70725 -92.797042 
L 97.70725 -92.138478 
L 97.70725 -91.479915 
L 97.70725 -90.821351 
L 97.70725 -90.162787 
L 97.70725 -89.504224 
L 97.70725 -88.84566 
L 97.70725 -88.187096 
L 97.70725 -87.528533 
L 97.70725 -86.869969 
L 97.70725 -86.211405 
L 97.70725 -85.552842 
L 97.70725 -84.894278 
L 97.70725 -84.235714 
L 97.70725 -83.577151 
L 97.70725 -82.918587 
L 97.70725 -82.260023 
L 97.70725 -81.601459 
L 97.70725 -80.942896 
L 97.70725 -80.284332 
L 97.70725 -79.625768 
L 97.70725 -78.967205 
L 97.70725 -78.308641 
L 97.70725 -77.650077 
L 97.70725 -76.991514 
L 97.70725 -76.33295 
L 97.70725 -75.674386 
L 97.70725 -75.015823 
L 97.70725 -74.357259 
L 97.70725 -73.698695 
L 97.70725 -73.040132 
L 97.70725 -72.381568 
L 97.70725 -71.723004 
L 97.70725 -71.064441 
z
" style="stroke: #4c4c4c; stroke-width: 1.5"/>
    </defs>
    <g clip-path="url(#p2e7cdcff9c)">
     <use xlink:href="#maf6dc170e6" x="0" y="351.126562" style="fill: #5875a4; stroke: #4c4c4c; stroke-width: 1.5"/>
    </g>
   </g>
   <g id="patch_4">
    <path d="M 97.70725 277.19215 
L 97.70725 277.19215 
L 97.70725 277.19215 
L 97.70725 277.19215 
z
" clip-path="url(#p2e7cdcff9c)" style="fill: #cc8963; stroke: #4c4c4c; stroke-width: 0.75; stroke-linejoin: miter"/>
   </g>
   <g id="PolyCollection_2">
    <defs>
     <path id="mf87db5c6a4" d="M 98.315054 -67.160121 
L 97.70725 -67.160121 
L 97.70725 -67.976683 
L 97.70725 -68.793246 
L 97.70725 -69.609808 
L 97.70725 -70.426371 
L 97.70725 -71.242933 
L 97.70725 -72.059496 
L 97.70725 -72.876058 
L 97.70725 -73.69262 
L 97.70725 -74.509183 
L 97.70725 -75.325745 
L 97.70725 -76.142308 
L 97.70725 -76.95887 
L 97.70725 -77.775433 
L 97.70725 -78.591995 
L 97.70725 -79.408558 
L 97.70725 -80.22512 
L 97.70725 -81.041683 
L 97.70725 -81.858245 
L 97.70725 -82.674807 
L 97.70725 -83.49137 
L 97.70725 -84.307932 
L 97.70725 -85.124495 
L 97.70725 -85.941057 
L 97.70725 -86.75762 
L 97.70725 -87.574182 
L 97.70725 -88.390745 
L 97.70725 -89.207307 
L 97.70725 -90.02387 
L 97.70725 -90.840432 
L 97.70725 -91.656995 
L 97.70725 -92.473557 
L 97.70725 -93.290119 
L 97.70725 -94.106682 
L 97.70725 -94.923244 
L 97.70725 -95.739807 
L 97.70725 -96.556369 
L 97.70725 -97.372932 
L 97.70725 -98.189494 
L 97.70725 -99.006057 
L 97.70725 -99.822619 
L 97.70725 -100.639182 
L 97.70725 -101.455744 
L 97.70725 -102.272306 
L 97.70725 -103.088869 
L 97.70725 -103.905431 
L 97.70725 -104.721994 
L 97.70725 -105.538556 
L 97.70725 -106.355119 
L 97.70725 -107.171681 
L 97.70725 -107.988244 
L 97.70725 -108.804806 
L 97.70725 -109.621369 
L 97.70725 -110.437931 
L 97.70725 -111.254493 
L 97.70725 -112.071056 
L 97.70725 -112.887618 
L 97.70725 -113.704181 
L 97.70725 -114.520743 
L 97.70725 -115.337306 
L 97.70725 -116.153868 
L 97.70725 -116.970431 
L 97.70725 -117.786993 
L 97.70725 -118.603556 
L 97.70725 -119.420118 
L 97.70725 -120.236681 
L 97.70725 -121.053243 
L 97.70725 -121.869805 
L 97.70725 -122.686368 
L 97.70725 -123.50293 
L 97.70725 -124.319493 
L 97.70725 -125.136055 
L 97.70725 -125.952618 
L 97.70725 -126.76918 
L 97.70725 -127.585743 
L 97.70725 -128.402305 
L 97.70725 -129.218868 
L 97.70725 -130.03543 
L 97.70725 -130.851992 
L 97.70725 -131.668555 
L 97.70725 -132.485117 
L 97.70725 -133.30168 
L 97.70725 -134.118242 
L 97.70725 -134.934805 
L 97.70725 -135.751367 
L 97.70725 -136.56793 
L 97.70725 -137.384492 
L 97.70725 -138.201055 
L 97.70725 -139.017617 
L 97.70725 -139.83418 
L 97.70725 -140.650742 
L 97.70725 -141.467304 
L 97.70725 -142.283867 
L 97.70725 -143.100429 
L 97.70725 -143.916992 
L 97.70725 -144.733554 
L 97.70725 -145.550117 
L 97.70725 -146.366679 
L 97.70725 -147.183242 
L 97.70725 -147.999804 
L 97.743514 -147.999804 
L 97.743514 -147.999804 
L 97.76611 -147.183242 
L 97.797677 -146.366679 
L 97.838788 -145.550117 
L 97.888477 -144.733554 
L 97.943853 -143.916992 
L 98.000154 -143.100429 
L 98.051419 -142.283867 
L 98.091689 -141.467304 
L 98.116464 -140.650742 
L 98.12392 -139.83418 
L 98.115437 -139.017617 
L 98.095173 -138.201055 
L 98.068781 -137.384492 
L 98.041691 -136.56793 
L 98.017582 -135.751367 
L 97.997567 -134.934805 
L 97.980345 -134.118242 
L 97.963175 -133.30168 
L 97.943226 -132.485117 
L 97.918767 -131.668555 
L 97.889769 -130.851992 
L 97.857802 -130.03543 
L 97.825397 -129.218868 
L 97.795196 -128.402305 
L 97.769255 -127.585743 
L 97.748677 -126.76918 
L 97.733633 -125.952618 
L 97.723651 -125.136055 
L 97.718005 -124.319493 
L 97.716093 -123.50293 
L 97.717684 -122.686368 
L 97.723032 -121.869805 
L 97.732826 -121.053243 
L 97.747997 -120.236681 
L 97.769424 -119.420118 
L 97.797586 -118.603556 
L 97.832286 -117.786993 
L 97.872556 -116.970431 
L 97.916809 -116.153868 
L 97.963195 -115.337306 
L 98.010023 -114.520743 
L 98.056019 -113.704181 
L 98.100314 -112.887618 
L 98.142168 -112.071056 
L 98.180648 -111.254493 
L 98.214514 -110.437931 
L 98.242443 -109.621369 
L 98.26348 -108.804806 
L 98.277442 -107.988244 
L 98.284957 -107.171681 
L 98.287102 -106.355119 
L 98.284899 -105.538556 
L 98.279122 -104.721994 
L 98.270806 -103.905431 
L 98.262497 -103.088869 
L 98.25979 -102.272306 
L 98.272432 -101.455744 
L 98.314224 -100.639182 
L 98.401313 -99.822619 
L 98.548989 -99.006057 
L 98.767709 -98.189494 
L 99.059482 -97.372932 
L 99.415822 -96.556369 
L 99.818246 -95.739807 
L 100.241589 -94.923244 
L 100.659656 -94.106682 
L 101.051909 -93.290119 
L 101.409485 -92.473557 
L 101.738939 -91.656995 
L 102.062709 -90.840432 
L 102.416286 -90.02387 
L 102.843061 -89.207307 
L 103.388437 -88.390745 
L 104.09486 -87.574182 
L 104.998734 -86.75762 
L 106.129094 -85.941057 
L 107.506752 -85.124495 
L 109.14187 -84.307932 
L 111.028091 -83.49137 
L 113.13258 -82.674807 
L 115.383599 -81.858245 
L 117.659897 -81.041683 
L 119.788148 -80.22512 
L 121.554435 -79.408558 
L 122.73246 -78.591995 
L 123.125208 -77.775433 
L 122.610212 -76.95887 
L 121.174715 -76.142308 
L 118.928155 -75.325745 
L 116.086088 -74.509183 
L 112.929155 -73.69262 
L 109.749105 -72.876058 
L 106.797511 -72.059496 
L 104.250402 -71.242933 
L 102.195302 -70.426371 
L 100.639279 -69.609808 
L 99.530853 -68.793246 
L 98.786642 -67.976683 
L 98.315054 -67.160121 
z
" style="stroke: #4c4c4c; stroke-width: 1.5"/>
    </defs>
    <g clip-path="url(#p2e7cdcff9c)">
     <use xlink:href="#mf87db5c6a4" x="0" y="351.126562" style="fill: #cc8963; stroke: #4c4c4c; stroke-width: 1.5"/>
    </g>
   </g>
   <g id="PolyCollection_3">
    <defs>
     <path id="m6974d063a4" d="M 205.55925 -61.365282 
L 201.764132 -61.365282 
L 197.602482 -63.947784 
L 191.014828 -66.530286 
L 182.338355 -69.112788 
L 173.101529 -71.695289 
L 165.713052 -74.277791 
L 162.41845 -76.860293 
L 164.145443 -79.442795 
L 170.070932 -82.025296 
L 178.185429 -84.607798 
L 186.353612 -87.1903 
L 193.131668 -89.772801 
L 197.990564 -92.355303 
L 201.08389 -94.937805 
L 202.876374 -97.520307 
L 203.851851 -100.102808 
L 204.369278 -102.68531 
L 204.643927 -105.267812 
L 204.79365 -107.850314 
L 204.88952 -110.432815 
L 204.978619 -113.015317 
L 205.083383 -115.597819 
L 205.199012 -118.180321 
L 205.301642 -120.762822 
L 205.363297 -123.345324 
L 205.364179 -125.927826 
L 205.299021 -128.510328 
L 205.180028 -131.092829 
L 205.037068 -133.675331 
L 204.911519 -136.257833 
L 204.841933 -138.840335 
L 204.847194 -141.422836 
L 204.917613 -144.005338 
L 205.020548 -146.58784 
L 205.117894 -149.170341 
L 205.185343 -151.752843 
L 205.222202 -154.335345 
L 205.246354 -156.917847 
L 205.278715 -159.500348 
L 205.328764 -162.08285 
L 205.390847 -164.665352 
L 205.451407 -167.247854 
L 205.499117 -169.830355 
L 205.53014 -172.412857 
L 205.547031 -174.995359 
L 205.554806 -177.577861 
L 205.55785 -180.160362 
L 205.558868 -182.742864 
L 205.55916 -185.325366 
L 205.559232 -187.907868 
L 205.559247 -190.490369 
L 205.55925 -193.072871 
L 205.55925 -195.655373 
L 205.55925 -198.237875 
L 205.55925 -200.820376 
L 205.55925 -203.402878 
L 205.55925 -205.98538 
L 205.55925 -208.567881 
L 205.55925 -211.150383 
L 205.55925 -213.732885 
L 205.55925 -216.315387 
L 205.55925 -218.897888 
L 205.55925 -221.48039 
L 205.55925 -224.062892 
L 205.55925 -226.645394 
L 205.55925 -229.227895 
L 205.55925 -231.810397 
L 205.55925 -234.392899 
L 205.55925 -236.975401 
L 205.55925 -239.557902 
L 205.55925 -242.140404 
L 205.55925 -244.722906 
L 205.55925 -247.305408 
L 205.55925 -249.887909 
L 205.55925 -252.470411 
L 205.55925 -255.052913 
L 205.55925 -257.635415 
L 205.55925 -260.217916 
L 205.55925 -262.800418 
L 205.55925 -265.38292 
L 205.55925 -267.965421 
L 205.559248 -270.547923 
L 205.559237 -273.130425 
L 205.559182 -275.712927 
L 205.558955 -278.295428 
L 205.558139 -280.87793 
L 205.555628 -283.460432 
L 205.549026 -286.042934 
L 205.534251 -288.625435 
L 205.506306 -291.207937 
L 205.462128 -293.790439 
L 205.404929 -296.372941 
L 205.346857 -298.955442 
L 205.30605 -301.537944 
L 205.297795 -304.120446 
L 205.325399 -306.702948 
L 205.378079 -309.285449 
L 205.437674 -311.867951 
L 205.488583 -314.450453 
L 205.523671 -317.032955 
L 205.55925 -317.032955 
L 205.55925 -317.032955 
L 205.55925 -314.450453 
L 205.55925 -311.867951 
L 205.55925 -309.285449 
L 205.55925 -306.702948 
L 205.55925 -304.120446 
L 205.55925 -301.537944 
L 205.55925 -298.955442 
L 205.55925 -296.372941 
L 205.55925 -293.790439 
L 205.55925 -291.207937 
L 205.55925 -288.625435 
L 205.55925 -286.042934 
L 205.55925 -283.460432 
L 205.55925 -280.87793 
L 205.55925 -278.295428 
L 205.55925 -275.712927 
L 205.55925 -273.130425 
L 205.55925 -270.547923 
L 205.55925 -267.965421 
L 205.55925 -265.38292 
L 205.55925 -262.800418 
L 205.55925 -260.217916 
L 205.55925 -257.635415 
L 205.55925 -255.052913 
L 205.55925 -252.470411 
L 205.55925 -249.887909 
L 205.55925 -247.305408 
L 205.55925 -244.722906 
L 205.55925 -242.140404 
L 205.55925 -239.557902 
L 205.55925 -236.975401 
L 205.55925 -234.392899 
L 205.55925 -231.810397 
L 205.55925 -229.227895 
L 205.55925 -226.645394 
L 205.55925 -224.062892 
L 205.55925 -221.48039 
L 205.55925 -218.897888 
L 205.55925 -216.315387 
L 205.55925 -213.732885 
L 205.55925 -211.150383 
L 205.55925 -208.567881 
L 205.55925 -205.98538 
L 205.55925 -203.402878 
L 205.55925 -200.820376 
L 205.55925 -198.237875 
L 205.55925 -195.655373 
L 205.55925 -193.072871 
L 205.55925 -190.490369 
L 205.55925 -187.907868 
L 205.55925 -185.325366 
L 205.55925 -182.742864 
L 205.55925 -180.160362 
L 205.55925 -177.577861 
L 205.55925 -174.995359 
L 205.55925 -172.412857 
L 205.55925 -169.830355 
L 205.55925 -167.247854 
L 205.55925 -164.665352 
L 205.55925 -162.08285 
L 205.55925 -159.500348 
L 205.55925 -156.917847 
L 205.55925 -154.335345 
L 205.55925 -151.752843 
L 205.55925 -149.170341 
L 205.55925 -146.58784 
L 205.55925 -144.005338 
L 205.55925 -141.422836 
L 205.55925 -138.840335 
L 205.55925 -136.257833 
L 205.55925 -133.675331 
L 205.55925 -131.092829 
L 205.55925 -128.510328 
L 205.55925 -125.927826 
L 205.55925 -123.345324 
L 205.55925 -120.762822 
L 205.55925 -118.180321 
L 205.55925 -115.597819 
L 205.55925 -113.015317 
L 205.55925 -110.432815 
L 205.55925 -107.850314 
L 205.55925 -105.267812 
L 205.55925 -102.68531 
L 205.55925 -100.102808 
L 205.55925 -97.520307 
L 205.55925 -94.937805 
L 205.55925 -92.355303 
L 205.55925 -89.772801 
L 205.55925 -87.1903 
L 205.55925 -84.607798 
L 205.55925 -82.025296 
L 205.55925 -79.442795 
L 205.55925 -76.860293 
L 205.55925 -74.277791 
L 205.55925 -71.695289 
L 205.55925 -69.112788 
L 205.55925 -66.530286 
L 205.55925 -63.947784 
L 205.55925 -61.365282 
z
" style="stroke: #4c4c4c; stroke-width: 1.5"/>
    </defs>
    <g clip-path="url(#p2e7cdcff9c)">
     <use xlink:href="#m6974d063a4" x="0" y="351.126562" style="fill: #5875a4; stroke: #4c4c4c; stroke-width: 1.5"/>
    </g>
   </g>
   <g id="PolyCollection_4">
    <defs>
     <path id="mb10c8013d8" d="M 206.757771 -51.129545 
L 205.55925 -51.129545 
L 205.55925 -53.701503 
L 205.55925 -56.27346 
L 205.55925 -58.845418 
L 205.55925 -61.417375 
L 205.55925 -63.989332 
L 205.55925 -66.56129 
L 205.55925 -69.133247 
L 205.55925 -71.705205 
L 205.55925 -74.277162 
L 205.55925 -76.849119 
L 205.55925 -79.421077 
L 205.55925 -81.993034 
L 205.55925 -84.564991 
L 205.55925 -87.136949 
L 205.55925 -89.708906 
L 205.55925 -92.280864 
L 205.55925 -94.852821 
L 205.55925 -97.424778 
L 205.55925 -99.996736 
L 205.55925 -102.568693 
L 205.55925 -105.140651 
L 205.55925 -107.712608 
L 205.55925 -110.284565 
L 205.55925 -112.856523 
L 205.55925 -115.42848 
L 205.55925 -118.000438 
L 205.55925 -120.572395 
L 205.55925 -123.144352 
L 205.55925 -125.71631 
L 205.55925 -128.288267 
L 205.55925 -130.860224 
L 205.55925 -133.432182 
L 205.55925 -136.004139 
L 205.55925 -138.576097 
L 205.55925 -141.148054 
L 205.55925 -143.720011 
L 205.55925 -146.291969 
L 205.55925 -148.863926 
L 205.55925 -151.435884 
L 205.55925 -154.007841 
L 205.55925 -156.579798 
L 205.55925 -159.151756 
L 205.55925 -161.723713 
L 205.55925 -164.295671 
L 205.55925 -166.867628 
L 205.55925 -169.439585 
L 205.55925 -172.011543 
L 205.55925 -174.5835 
L 205.55925 -177.155457 
L 205.55925 -179.727415 
L 205.55925 -182.299372 
L 205.55925 -184.87133 
L 205.55925 -187.443287 
L 205.55925 -190.015244 
L 205.55925 -192.587202 
L 205.55925 -195.159159 
L 205.55925 -197.731117 
L 205.55925 -200.303074 
L 205.55925 -202.875031 
L 205.55925 -205.446989 
L 205.55925 -208.018946 
L 205.55925 -210.590904 
L 205.55925 -213.162861 
L 205.55925 -215.734818 
L 205.55925 -218.306776 
L 205.55925 -220.878733 
L 205.55925 -223.45069 
L 205.55925 -226.022648 
L 205.55925 -228.594605 
L 205.55925 -231.166563 
L 205.55925 -233.73852 
L 205.55925 -236.310477 
L 205.55925 -238.882435 
L 205.55925 -241.454392 
L 205.55925 -244.02635 
L 205.55925 -246.598307 
L 205.55925 -249.170264 
L 205.55925 -251.742222 
L 205.55925 -254.314179 
L 205.55925 -256.886136 
L 205.55925 -259.458094 
L 205.55925 -262.030051 
L 205.55925 -264.602009 
L 205.55925 -267.173966 
L 205.55925 -269.745923 
L 205.55925 -272.317881 
L 205.55925 -274.889838 
L 205.55925 -277.461796 
L 205.55925 -280.033753 
L 205.55925 -282.60571 
L 205.55925 -285.177668 
L 205.55925 -287.749625 
L 205.55925 -290.321583 
L 205.55925 -292.89354 
L 205.55925 -295.465497 
L 205.55925 -298.037455 
L 205.55925 -300.609412 
L 205.55925 -303.181369 
L 205.55925 -305.753327 
L 205.582745 -305.753327 
L 205.582745 -305.753327 
L 205.595998 -303.181369 
L 205.614112 -300.609412 
L 205.637487 -298.037455 
L 205.66591 -295.465497 
L 205.698371 -292.89354 
L 205.733011 -290.321583 
L 205.76724 -287.749625 
L 205.798028 -285.177668 
L 205.822331 -282.60571 
L 205.837573 -280.033753 
L 205.842066 -277.461796 
L 205.835304 -274.889838 
L 205.818048 -272.317881 
L 205.792194 -269.745923 
L 205.760455 -267.173966 
L 205.725911 -264.602009 
L 205.691539 -262.030051 
L 205.659811 -259.458094 
L 205.63244 -256.886136 
L 205.610313 -254.314179 
L 205.593595 -251.742222 
L 205.581947 -249.170264 
L 205.574807 -246.598307 
L 205.571634 -244.02635 
L 205.572086 -241.454392 
L 205.576088 -238.882435 
L 205.583788 -236.310477 
L 205.595404 -233.73852 
L 205.611012 -231.166563 
L 205.630332 -228.594605 
L 205.652602 -226.022648 
L 205.67661 -223.45069 
L 205.700941 -220.878733 
L 205.724409 -218.306776 
L 205.74654 -215.734818 
L 205.767963 -213.162861 
L 205.790501 -210.590904 
L 205.816882 -208.018946 
L 205.850108 -205.446989 
L 205.892671 -202.875031 
L 205.945899 -200.303074 
L 206.009666 -197.731117 
L 206.082601 -195.159159 
L 206.162688 -192.587202 
L 206.248008 -190.015244 
L 206.337289 -187.443287 
L 206.430005 -184.87133 
L 206.525961 -182.299372 
L 206.624502 -179.727415 
L 206.723695 -177.155457 
L 206.819821 -174.5835 
L 206.907474 -172.011543 
L 206.980289 -169.439585 
L 207.03215 -166.867628 
L 207.058488 -164.295671 
L 207.057285 -161.723713 
L 207.029488 -159.151756 
L 206.978773 -156.579798 
L 206.910874 -154.007841 
L 206.832784 -151.435884 
L 206.75214 -148.863926 
L 206.676898 -146.291969 
L 206.615145 -143.720011 
L 206.574814 -141.148054 
L 206.563096 -138.576097 
L 206.58559 -136.004139 
L 206.645521 -133.432182 
L 206.743494 -130.860224 
L 206.878195 -128.288267 
L 207.048213 -125.71631 
L 207.254746 -123.144352 
L 207.504692 -120.572395 
L 207.813408 -118.000438 
L 208.206457 -115.42848 
L 208.719746 -112.856523 
L 209.397648 -110.284565 
L 210.288791 -107.712608 
L 211.439323 -105.140651 
L 212.883626 -102.568693 
L 214.632884 -99.996736 
L 216.662705 -97.424778 
L 218.902147 -94.852821 
L 221.227642 -92.280864 
L 223.46582 -89.708906 
L 225.408327 -87.136949 
L 226.839119 -84.564991 
L 227.570624 -81.993034 
L 227.481145 -79.421077 
L 226.54355 -76.849119 
L 224.836247 -74.277162 
L 222.531936 -71.705205 
L 219.866216 -69.133247 
L 217.094311 -66.56129 
L 214.447528 -63.989332 
L 212.10022 -61.417375 
L 210.153757 -58.845418 
L 208.638116 -56.27346 
L 207.526739 -53.701503 
L 206.757771 -51.129545 
z
" style="stroke: #4c4c4c; stroke-width: 1.5"/>
    </defs>
    <g clip-path="url(#p2e7cdcff9c)">
     <use xlink:href="#mb10c8013d8" x="0" y="351.126562" style="fill: #cc8963; stroke: #4c4c4c; stroke-width: 1.5"/>
    </g>
   </g>
   <g id="PolyCollection_5">
    <defs>
     <path id="maeed259cd6" d="M 313.411251 -64.460943 
L 311.004529 -64.460943 
L 308.764389 -66.181679 
L 305.204223 -67.902414 
L 300.137946 -69.62315 
L 293.72693 -71.343886 
L 286.599623 -73.064622 
L 279.801577 -74.785357 
L 274.540384 -76.506093 
L 271.807135 -78.226829 
L 272.044718 -79.947564 
L 275.022224 -81.6683 
L 279.964189 -83.389036 
L 285.849648 -85.109771 
L 291.727773 -86.830507 
L 296.9251 -88.551243 
L 301.104355 -90.271978 
L 304.211129 -91.992714 
L 306.373412 -93.71345 
L 307.804561 -95.434185 
L 308.731233 -97.154921 
L 309.347829 -98.875657 
L 309.793603 -100.596392 
L 310.149436 -102.317128 
L 310.450207 -104.037864 
L 310.705013 -105.7586 
L 310.915883 -107.479335 
L 311.088688 -109.200071 
L 311.235596 -110.920807 
L 311.37239 -112.641542 
L 311.514317 -114.362278 
L 311.672371 -116.083014 
L 311.85043 -117.803749 
L 312.043577 -119.524485 
L 312.238351 -121.245221 
L 312.41557 -122.965956 
L 312.55553 -124.686692 
L 312.644287 -126.407428 
L 312.678929 -128.128163 
L 312.669697 -129.848899 
L 312.637722 -131.569635 
L 312.608875 -133.29037 
L 312.606009 -135.011106 
L 312.642564 -136.731842 
L 312.719686 -138.452578 
L 312.827329 -140.173313 
L 312.948266 -141.894049 
L 313.063234 -143.614785 
L 313.155596 -145.33552 
L 313.214541 -147.056256 
L 313.236648 -148.776992 
L 313.226091 -150.497727 
L 313.19369 -152.218463 
L 313.154642 -153.939199 
L 313.124814 -155.659934 
L 313.116269 -157.38067 
L 313.133687 -159.101406 
L 313.173456 -160.822141 
L 313.226 -162.542877 
L 313.280079 -164.263613 
L 313.326845 -165.984348 
L 313.361896 -167.705084 
L 313.385027 -169.42582 
L 313.398589 -171.146556 
L 313.405696 -172.867291 
L 313.409036 -174.588027 
L 313.410449 -176.308763 
L 313.410987 -178.029498 
L 313.411172 -179.750234 
L 313.411229 -181.47097 
L 313.411245 -183.191705 
L 313.41125 -184.912441 
L 313.411251 -186.633177 
L 313.411251 -188.353912 
L 313.411251 -190.074648 
L 313.411251 -191.795384 
L 313.411251 -193.516119 
L 313.41125 -195.236855 
L 313.411248 -196.957591 
L 313.411239 -198.678326 
L 313.411205 -200.399062 
L 313.411092 -202.119798 
L 313.41075 -203.840534 
L 313.409808 -205.561269 
L 313.407479 -207.282005 
L 313.40229 -209.002741 
L 313.391904 -210.723476 
L 313.373295 -212.444212 
L 313.343587 -214.164948 
L 313.301641 -215.885683 
L 313.249908 -217.606419 
L 313.195446 -219.327155 
L 313.14896 -221.04789 
L 313.121573 -222.768626 
L 313.120542 -224.489362 
L 313.146151 -226.210097 
L 313.19158 -227.930833 
L 313.245847 -229.651569 
L 313.298082 -231.372304 
L 313.340891 -233.09304 
L 313.371502 -234.813776 
L 313.411251 -234.813776 
L 313.411251 -234.813776 
L 313.411251 -233.09304 
L 313.411251 -231.372304 
L 313.411251 -229.651569 
L 313.411251 -227.930833 
L 313.411251 -226.210097 
L 313.411251 -224.489362 
L 313.411251 -222.768626 
L 313.411251 -221.04789 
L 313.411251 -219.327155 
L 313.411251 -217.606419 
L 313.411251 -215.885683 
L 313.411251 -214.164948 
L 313.411251 -212.444212 
L 313.411251 -210.723476 
L 313.411251 -209.002741 
L 313.411251 -207.282005 
L 313.411251 -205.561269 
L 313.411251 -203.840534 
L 313.411251 -202.119798 
L 313.411251 -200.399062 
L 313.411251 -198.678326 
L 313.411251 -196.957591 
L 313.411251 -195.236855 
L 313.411251 -193.516119 
L 313.411251 -191.795384 
L 313.411251 -190.074648 
L 313.411251 -188.353912 
L 313.411251 -186.633177 
L 313.411251 -184.912441 
L 313.411251 -183.191705 
L 313.411251 -181.47097 
L 313.411251 -179.750234 
L 313.411251 -178.029498 
L 313.411251 -176.308763 
L 313.411251 -174.588027 
L 313.411251 -172.867291 
L 313.411251 -171.146556 
L 313.411251 -169.42582 
L 313.411251 -167.705084 
L 313.411251 -165.984348 
L 313.411251 -164.263613 
L 313.411251 -162.542877 
L 313.411251 -160.822141 
L 313.411251 -159.101406 
L 313.411251 -157.38067 
L 313.411251 -155.659934 
L 313.411251 -153.939199 
L 313.411251 -152.218463 
L 313.411251 -150.497727 
L 313.411251 -148.776992 
L 313.411251 -147.056256 
L 313.411251 -145.33552 
L 313.411251 -143.614785 
L 313.411251 -141.894049 
L 313.411251 -140.173313 
L 313.411251 -138.452578 
L 313.411251 -136.731842 
L 313.411251 -135.011106 
L 313.411251 -133.29037 
L 313.411251 -131.569635 
L 313.411251 -129.848899 
L 313.411251 -128.128163 
L 313.411251 -126.407428 
L 313.411251 -124.686692 
L 313.411251 -122.965956 
L 313.411251 -121.245221 
L 313.411251 -119.524485 
L 313.411251 -117.803749 
L 313.411251 -116.083014 
L 313.411251 -114.362278 
L 313.411251 -112.641542 
L 313.411251 -110.920807 
L 313.411251 -109.200071 
L 313.411251 -107.479335 
L 313.411251 -105.7586 
L 313.411251 -104.037864 
L 313.411251 -102.317128 
L 313.411251 -100.596392 
L 313.411251 -98.875657 
L 313.411251 -97.154921 
L 313.411251 -95.434185 
L 313.411251 -93.71345 
L 313.411251 -91.992714 
L 313.411251 -90.271978 
L 313.411251 -88.551243 
L 313.411251 -86.830507 
L 313.411251 -85.109771 
L 313.411251 -83.389036 
L 313.411251 -81.6683 
L 313.411251 -79.947564 
L 313.411251 -78.226829 
L 313.411251 -76.506093 
L 313.411251 -74.785357 
L 313.411251 -73.064622 
L 313.411251 -71.343886 
L 313.411251 -69.62315 
L 313.411251 -67.902414 
L 313.411251 -66.181679 
L 313.411251 -64.460943 
z
" style="stroke: #4c4c4c; stroke-width: 1.5"/>
    </defs>
    <g clip-path="url(#p2e7cdcff9c)">
     <use xlink:href="#maeed259cd6" x="0" y="351.126562" style="fill: #5875a4; stroke: #4c4c4c; stroke-width: 1.5"/>
    </g>
   </g>
   <g id="PolyCollection_6">
    <defs>
     <path id="m7b35bf6b64" d="M 313.884661 -67.2324 
L 313.411251 -67.2324 
L 313.411251 -68.200877 
L 313.411251 -69.169355 
L 313.411251 -70.137832 
L 313.411251 -71.106309 
L 313.411251 -72.074786 
L 313.411251 -73.043263 
L 313.411251 -74.01174 
L 313.411251 -74.980218 
L 313.411251 -75.948695 
L 313.411251 -76.917172 
L 313.411251 -77.885649 
L 313.411251 -78.854126 
L 313.411251 -79.822603 
L 313.411251 -80.791081 
L 313.411251 -81.759558 
L 313.411251 -82.728035 
L 313.411251 -83.696512 
L 313.411251 -84.664989 
L 313.411251 -85.633466 
L 313.411251 -86.601943 
L 313.411251 -87.570421 
L 313.411251 -88.538898 
L 313.411251 -89.507375 
L 313.411251 -90.475852 
L 313.411251 -91.444329 
L 313.411251 -92.412806 
L 313.411251 -93.381284 
L 313.411251 -94.349761 
L 313.411251 -95.318238 
L 313.411251 -96.286715 
L 313.411251 -97.255192 
L 313.411251 -98.223669 
L 313.411251 -99.192146 
L 313.411251 -100.160624 
L 313.411251 -101.129101 
L 313.411251 -102.097578 
L 313.411251 -103.066055 
L 313.411251 -104.034532 
L 313.411251 -105.003009 
L 313.411251 -105.971487 
L 313.411251 -106.939964 
L 313.411251 -107.908441 
L 313.411251 -108.876918 
L 313.411251 -109.845395 
L 313.411251 -110.813872 
L 313.411251 -111.78235 
L 313.411251 -112.750827 
L 313.411251 -113.719304 
L 313.411251 -114.687781 
L 313.411251 -115.656258 
L 313.411251 -116.624735 
L 313.411251 -117.593212 
L 313.411251 -118.56169 
L 313.411251 -119.530167 
L 313.411251 -120.498644 
L 313.411251 -121.467121 
L 313.411251 -122.435598 
L 313.411251 -123.404075 
L 313.411251 -124.372553 
L 313.411251 -125.34103 
L 313.411251 -126.309507 
L 313.411251 -127.277984 
L 313.411251 -128.246461 
L 313.411251 -129.214938 
L 313.411251 -130.183415 
L 313.411251 -131.151893 
L 313.411251 -132.12037 
L 313.411251 -133.088847 
L 313.411251 -134.057324 
L 313.411251 -135.025801 
L 313.411251 -135.994278 
L 313.411251 -136.962756 
L 313.411251 -137.931233 
L 313.411251 -138.89971 
L 313.411251 -139.868187 
L 313.411251 -140.836664 
L 313.411251 -141.805141 
L 313.411251 -142.773619 
L 313.411251 -143.742096 
L 313.411251 -144.710573 
L 313.411251 -145.67905 
L 313.411251 -146.647527 
L 313.411251 -147.616004 
L 313.411251 -148.584481 
L 313.411251 -149.552959 
L 313.411251 -150.521436 
L 313.411251 -151.489913 
L 313.411251 -152.45839 
L 313.411251 -153.426867 
L 313.411251 -154.395344 
L 313.411251 -155.363822 
L 313.411251 -156.332299 
L 313.411251 -157.300776 
L 313.411251 -158.269253 
L 313.411251 -159.23773 
L 313.411251 -160.206207 
L 313.411251 -161.174684 
L 313.411251 -162.143162 
L 313.411251 -163.111639 
L 313.477208 -163.111639 
L 313.477208 -163.111639 
L 313.524011 -162.143162 
L 313.588578 -161.174684 
L 313.667769 -160.206207 
L 313.75259 -159.23773 
L 313.82906 -158.269253 
L 313.88168 -157.300776 
L 313.898483 -156.332299 
L 313.875447 -155.363822 
L 313.818061 -154.395344 
L 313.7392 -153.426867 
L 313.654441 -152.45839 
L 313.577137 -151.489913 
L 313.515338 -150.521436 
L 313.471328 -149.552959 
L 313.443148 -148.584481 
L 313.426829 -147.616004 
L 313.418249 -146.647527 
L 313.414143 -145.67905 
L 313.41235 -144.710573 
L 313.411635 -143.742096 
L 313.411374 -142.773619 
L 313.411287 -141.805141 
L 313.411261 -140.836664 
L 313.411253 -139.868187 
L 313.411251 -138.89971 
L 313.411251 -137.931233 
L 313.411252 -136.962756 
L 313.411256 -135.994278 
L 313.411272 -135.025801 
L 313.411325 -134.057324 
L 313.411493 -133.088847 
L 313.411972 -132.12037 
L 313.413235 -131.151893 
L 313.416285 -130.183415 
L 313.423045 -129.214938 
L 313.436805 -128.246461 
L 313.462543 -127.277984 
L 313.506833 -126.309507 
L 313.577072 -125.34103 
L 313.679941 -124.372553 
L 313.819389 -123.404075 
L 313.994676 -122.435598 
L 314.199013 -121.467121 
L 314.419083 -120.498644 
L 314.635533 -119.530167 
L 314.824667 -118.56169 
L 314.961749 -117.593212 
L 315.026147 -116.624735 
L 315.007499 -115.656258 
L 314.910903 -114.687781 
L 314.758634 -113.719304 
L 314.586822 -112.750827 
L 314.43752 -111.78235 
L 314.348614 -110.813872 
L 314.345111 -109.845395 
L 314.435115 -108.876918 
L 314.612409 -107.908441 
L 314.865285 -106.939964 
L 315.188738 -105.971487 
L 315.595217 -105.003009 
L 316.118746 -104.034532 
L 316.809153 -103.066055 
L 317.716949 -102.097578 
L 318.873758 -101.129101 
L 320.276065 -100.160624 
L 321.879775 -99.192146 
L 323.609343 -98.223669 
L 325.379493 -97.255192 
L 327.122249 -96.286715 
L 328.809227 -95.318238 
L 330.459759 -94.349761 
L 332.129743 -93.381284 
L 333.883756 -92.412806 
L 335.761947 -91.444329 
L 337.758961 -90.475852 
L 339.828726 -89.507375 
L 341.915023 -88.538898 
L 343.990083 -87.570421 
L 346.073983 -86.601943 
L 348.2151 -85.633466 
L 350.433466 -84.664989 
L 352.652199 -83.696512 
L 354.653501 -82.728035 
L 356.088938 -81.759558 
L 356.552051 -80.791081 
L 355.694054 -79.822603 
L 353.341768 -78.854126 
L 349.571338 -77.885649 
L 344.706591 -76.917172 
L 339.241753 -75.948695 
L 333.719657 -74.980218 
L 328.611849 -74.01174 
L 324.239332 -73.043263 
L 320.749211 -72.074786 
L 318.138368 -71.106309 
L 316.302157 -70.137832 
L 315.086341 -69.169355 
L 314.328575 -68.200877 
L 313.884661 -67.2324 
z
" style="stroke: #4c4c4c; stroke-width: 1.5"/>
    </defs>
    <g clip-path="url(#p2e7cdcff9c)">
     <use xlink:href="#m7b35bf6b64" x="0" y="351.126562" style="fill: #cc8963; stroke: #4c4c4c; stroke-width: 1.5"/>
    </g>
   </g>
   <g id="line2d_9">
    <path d="M 97.70725 277.19215 
L 97.70725 262.669265 
" clip-path="url(#p2e7cdcff9c)" style="fill: none; stroke: #4c4c4c; stroke-width: 1.5; stroke-linecap: round"/>
   </g>
   <g id="line2d_10">
    <path d="M 97.70725 274.668306 
L 97.70725 269.798276 
" clip-path="url(#p2e7cdcff9c)" style="fill: none; stroke: #4c4c4c; stroke-width: 4.5; stroke-linecap: round"/>
   </g>
   <g id="line2d_11">
    <path d="M 205.55925 277.19215 
L 205.55925 251.8992 
" clip-path="url(#p2e7cdcff9c)" style="fill: none; stroke: #4c4c4c; stroke-width: 1.5; stroke-linecap: round"/>
   </g>
   <g id="line2d_12">
    <path d="M 205.55925 275.13447 
L 205.55925 265.774452 
" clip-path="url(#p2e7cdcff9c)" style="fill: none; stroke: #4c4c4c; stroke-width: 4.5; stroke-linecap: round"/>
   </g>
   <g id="line2d_13">
    <path d="M 313.411251 277.19215 
L 313.411251 248.968413 
" clip-path="url(#p2e7cdcff9c)" style="fill: none; stroke: #4c4c4c; stroke-width: 1.5; stroke-linecap: round"/>
   </g>
   <g id="line2d_14">
    <path d="M 313.411251 273.174774 
L 313.411251 263.262464 
" clip-path="url(#p2e7cdcff9c)" style="fill: none; stroke: #4c4c4c; stroke-width: 4.5; stroke-linecap: round"/>
   </g>
   <g id="patch_5">
    <path d="M 43.78125 313.292187 
L 43.78125 20.798437 
" style="fill: none; stroke: #262626; stroke-width: 0.8; stroke-linejoin: miter; stroke-linecap: square"/>
   </g>
   <g id="patch_6">
    <path d="M 43.78125 313.292187 
L 367.337251 313.292187 
" style="fill: none; stroke: #262626; stroke-width: 0.8; stroke-linejoin: miter; stroke-linecap: square"/>
   </g>
   <g id="PathCollection_1">
    <defs>
     <path id="m48515df256" d="M 0 1.5 
C 0.397805 1.5 0.77937 1.341951 1.06066 1.06066 
C 1.341951 0.77937 1.5 0.397805 1.5 0 
C 1.5 -0.397805 1.341951 -0.77937 1.06066 -1.06066 
C 0.77937 -1.341951 0.397805 -1.5 0 -1.5 
C -0.397805 -1.5 -0.77937 -1.341951 -1.06066 -1.06066 
C -1.341951 -0.77937 -1.5 -0.397805 -1.5 0 
C -1.5 0.397805 -1.341951 0.77937 -1.06066 1.06066 
C -0.77937 1.341951 -0.397805 1.5 0 1.5 
z
" style="stroke: #4c4c4c"/>
    </defs>
    <g clip-path="url(#p2e7cdcff9c)">
     <use xlink:href="#m48515df256" x="97.70725" y="273.415317" style="fill: #ffffff; stroke: #4c4c4c"/>
    </g>
   </g>
   <g id="PathCollection_2">
    <g clip-path="url(#p2e7cdcff9c)">
     <use xlink:href="#m48515df256" x="205.55925" y="273.153243" style="fill: #ffffff; stroke: #4c4c4c"/>
    </g>
   </g>
   <g id="PathCollection_3">
    <g clip-path="url(#p2e7cdcff9c)">
     <use xlink:href="#m48515df256" x="313.411251" y="269.907461" style="fill: #ffffff; stroke: #4c4c4c"/>
    </g>
   </g>
   <g id="text_11">
    <!-- Dyn_obs = 5.0 -->
    <g style="fill: #262626" transform="translate(168.923313 14.798437)scale(0.1 -0.1)">
     <defs>
      <path id="DejaVuSans-44" d="M 1259 4147 
L 1259 519 
L 2022 519 
Q 2988 519 3436 956 
Q 3884 1394 3884 2338 
Q 3884 3275 3436 3711 
Q 2988 4147 2022 4147 
L 1259 4147 
z
M 628 4666 
L 1925 4666 
Q 3281 4666 3915 4102 
Q 4550 3538 4550 2338 
Q 4550 1131 3912 565 
Q 3275 0 1925 0 
L 628 0 
L 628 4666 
z
" transform="scale(0.015625)"/>
      <path id="DejaVuSans-79" d="M 2059 -325 
Q 1816 -950 1584 -1140 
Q 1353 -1331 966 -1331 
L 506 -1331 
L 506 -850 
L 844 -850 
Q 1081 -850 1212 -737 
Q 1344 -625 1503 -206 
L 1606 56 
L 191 3500 
L 800 3500 
L 1894 763 
L 2988 3500 
L 3597 3500 
L 2059 -325 
z
" transform="scale(0.015625)"/>
      <path id="DejaVuSans-62" d="M 3116 1747 
Q 3116 2381 2855 2742 
Q 2594 3103 2138 3103 
Q 1681 3103 1420 2742 
Q 1159 2381 1159 1747 
Q 1159 1113 1420 752 
Q 1681 391 2138 391 
Q 2594 391 2855 752 
Q 3116 1113 3116 1747 
z
M 1159 2969 
Q 1341 3281 1617 3432 
Q 1894 3584 2278 3584 
Q 2916 3584 3314 3078 
Q 3713 2572 3713 1747 
Q 3713 922 3314 415 
Q 2916 -91 2278 -91 
Q 1894 -91 1617 61 
Q 1341 213 1159 525 
L 1159 0 
L 581 0 
L 581 4863 
L 1159 4863 
L 1159 2969 
z
" transform="scale(0.015625)"/>
      <path id="DejaVuSans-20" transform="scale(0.015625)"/>
      <path id="DejaVuSans-3d" d="M 678 2906 
L 4684 2906 
L 4684 2381 
L 678 2381 
L 678 2906 
z
M 678 1631 
L 4684 1631 
L 4684 1100 
L 678 1100 
L 678 1631 
z
" transform="scale(0.015625)"/>
     </defs>
     <use xlink:href="#DejaVuSans-44"/>
     <use xlink:href="#DejaVuSans-79" x="77.001953"/>
     <use xlink:href="#DejaVuSans-6e" x="136.181641"/>
     <use xlink:href="#DejaVuSans-5f" x="199.560547"/>
     <use xlink:href="#DejaVuSans-6f" x="249.560547"/>
     <use xlink:href="#DejaVuSans-62" x="310.742188"/>
     <use xlink:href="#DejaVuSans-73" x="374.21875"/>
     <use xlink:href="#DejaVuSans-20" x="426.318359"/>
     <use xlink:href="#DejaVuSans-3d" x="458.105469"/>
     <use xlink:href="#DejaVuSans-20" x="541.894531"/>
     <use xlink:href="#DejaVuSans-35" x="573.681641"/>
     <use xlink:href="#DejaVuSans-2e" x="637.304688"/>
     <use xlink:href="#DejaVuSans-30" x="669.091797"/>
    </g>
   </g>
  </g>
  <g id="axes_2">
   <g id="patch_7">
    <path d="M 381.634754 313.292187 
L 705.190755 313.292187 
L 705.190755 20.798437 
L 381.634754 20.798437 
z
" style="fill: #ffffff"/>
   </g>
   <g id="matplotlib.axis_3">
    <g id="xtick_4">
     <g id="line2d_15">
      <g>
       <use xlink:href="#m58115429ed" x="435.560754" y="313.292187" style="fill: #262626; stroke: #262626; stroke-width: 0.8"/>
      </g>
     </g>
     <g id="text_12">
      <!-- map2 -->
      <g style="fill: #262626" transform="translate(421.270911 327.890625)scale(0.1 -0.1)">
       <use xlink:href="#DejaVuSans-6d"/>
       <use xlink:href="#DejaVuSans-61" x="97.412109"/>
       <use xlink:href="#DejaVuSans-70" x="158.691406"/>
       <use xlink:href="#DejaVuSans-32" x="222.167969"/>
      </g>
     </g>
    </g>
    <g id="xtick_5">
     <g id="line2d_16">
      <g>
       <use xlink:href="#m58115429ed" x="543.412755" y="313.292187" style="fill: #262626; stroke: #262626; stroke-width: 0.8"/>
      </g>
     </g>
     <g id="text_13">
      <!-- map5 -->
      <g style="fill: #262626" transform="translate(529.122911 327.890625)scale(0.1 -0.1)">
       <use xlink:href="#DejaVuSans-6d"/>
       <use xlink:href="#DejaVuSans-61" x="97.412109"/>
       <use xlink:href="#DejaVuSans-70" x="158.691406"/>
       <use xlink:href="#DejaVuSans-35" x="222.167969"/>
      </g>
     </g>
    </g>
    <g id="xtick_6">
     <g id="line2d_17">
      <g>
       <use xlink:href="#m58115429ed" x="651.264755" y="313.292187" style="fill: #262626; stroke: #262626; stroke-width: 0.8"/>
      </g>
     </g>
     <g id="text_14">
      <!-- small_warehouse -->
      <g style="fill: #262626" transform="translate(608.196786 327.890625)scale(0.1 -0.1)">
       <use xlink:href="#DejaVuSans-73"/>
       <use xlink:href="#DejaVuSans-6d" x="52.099609"/>
       <use xlink:href="#DejaVuSans-61" x="149.511719"/>
       <use xlink:href="#DejaVuSans-6c" x="210.791016"/>
       <use xlink:href="#DejaVuSans-6c" x="238.574219"/>
       <use xlink:href="#DejaVuSans-5f" x="266.357422"/>
       <use xlink:href="#DejaVuSans-77" x="316.357422"/>
       <use xlink:href="#DejaVuSans-61" x="398.144531"/>
       <use xlink:href="#DejaVuSans-72" x="459.423828"/>
       <use xlink:href="#DejaVuSans-65" x="498.287109"/>
       <use xlink:href="#DejaVuSans-68" x="559.810547"/>
       <use xlink:href="#DejaVuSans-6f" x="623.189453"/>
       <use xlink:href="#DejaVuSans-75" x="684.371094"/>
       <use xlink:href="#DejaVuSans-73" x="747.75"/>
       <use xlink:href="#DejaVuSans-65" x="799.849609"/>
      </g>
     </g>
    </g>
    <g id="text_15">
     <!-- World -->
     <g style="fill: #262626" transform="translate(529.08463 341.846875)scale(0.1 -0.1)">
      <use xlink:href="#DejaVuSans-57"/>
      <use xlink:href="#DejaVuSans-6f" x="93.001953"/>
      <use xlink:href="#DejaVuSans-72" x="154.183594"/>
      <use xlink:href="#DejaVuSans-6c" x="195.296875"/>
      <use xlink:href="#DejaVuSans-64" x="223.080078"/>
     </g>
    </g>
   </g>
   <g id="matplotlib.axis_4">
    <g id="ytick_6">
     <g id="line2d_18">
      <g>
       <use xlink:href="#mb6ba572c71" x="381.634754" y="277.19215" style="fill: #262626; stroke: #262626; stroke-width: 0.8"/>
      </g>
     </g>
    </g>
    <g id="ytick_7">
     <g id="line2d_19">
      <g>
       <use xlink:href="#mb6ba572c71" x="381.634754" y="224.40761" style="fill: #262626; stroke: #262626; stroke-width: 0.8"/>
      </g>
     </g>
    </g>
    <g id="ytick_8">
     <g id="line2d_20">
      <g>
       <use xlink:href="#mb6ba572c71" x="381.634754" y="171.62307" style="fill: #262626; stroke: #262626; stroke-width: 0.8"/>
      </g>
     </g>
    </g>
    <g id="ytick_9">
     <g id="line2d_21">
      <g>
       <use xlink:href="#mb6ba572c71" x="381.634754" y="118.838531" style="fill: #262626; stroke: #262626; stroke-width: 0.8"/>
      </g>
     </g>
    </g>
    <g id="ytick_10">
     <g id="line2d_22">
      <g>
       <use xlink:href="#mb6ba572c71" x="381.634754" y="66.053991" style="fill: #262626; stroke: #262626; stroke-width: 0.8"/>
      </g>
     </g>
    </g>
   </g>
   <g id="patch_8">
    <path d="M 435.560754 277.19215 
L 435.560754 277.19215 
L 435.560754 277.19215 
L 435.560754 277.19215 
z
" clip-path="url(#p7f03007b57)" style="fill: #5875a4; stroke: #4c4c4c; stroke-width: 0.75; stroke-linejoin: miter"/>
   </g>
   <g id="PolyCollection_7">
    <defs>
     <path id="ma0213bd363" d="M 435.560754 -66.217673 
L 433.313682 -66.217673 
L 430.400925 -68.137143 
L 425.322455 -70.056613 
L 417.933806 -71.976084 
L 409.082874 -73.895554 
L 400.600712 -75.815024 
L 394.589234 -77.734495 
L 392.419954 -79.653965 
L 394.185744 -81.573435 
L 398.936452 -83.492906 
L 405.333014 -85.412376 
L 412.154815 -87.331846 
L 418.475158 -89.251317 
L 423.685201 -91.170787 
L 427.521613 -93.090257 
L 430.060699 -95.009728 
L 431.608303 -96.929198 
L 432.526305 -98.848668 
L 433.097293 -100.768139 
L 433.481356 -102.687609 
L 433.747926 -104.607079 
L 433.933607 -106.526549 
L 434.080985 -108.44602 
L 434.239194 -110.36549 
L 434.440481 -112.28496 
L 434.682919 -114.204431 
L 434.935947 -116.123901 
L 435.161525 -118.043371 
L 435.333822 -119.962842 
L 435.446922 -121.882312 
L 435.510739 -123.801782 
L 435.541633 -125.721253 
L 435.554429 -127.640723 
L 435.558952 -129.560193 
L 435.560314 -131.479664 
L 435.560662 -133.399134 
L 435.560738 -135.318604 
L 435.560752 -137.238075 
L 435.560754 -139.157545 
L 435.560754 -141.077015 
L 435.560754 -142.996486 
L 435.560754 -144.915956 
L 435.560754 -146.835426 
L 435.560754 -148.754897 
L 435.560754 -150.674367 
L 435.560754 -152.593837 
L 435.560754 -154.513308 
L 435.560754 -156.432778 
L 435.560754 -158.352248 
L 435.560754 -160.271719 
L 435.560754 -162.191189 
L 435.560754 -164.110659 
L 435.560754 -166.030129 
L 435.560754 -167.9496 
L 435.560754 -169.86907 
L 435.560754 -171.78854 
L 435.560754 -173.708011 
L 435.560754 -175.627481 
L 435.560754 -177.546951 
L 435.560754 -179.466422 
L 435.560754 -181.385892 
L 435.560754 -183.305362 
L 435.560754 -185.224833 
L 435.560754 -187.144303 
L 435.560754 -189.063773 
L 435.560754 -190.983244 
L 435.560754 -192.902714 
L 435.560754 -194.822184 
L 435.560754 -196.741655 
L 435.560754 -198.661125 
L 435.560754 -200.580595 
L 435.560754 -202.500066 
L 435.560754 -204.419536 
L 435.560754 -206.339006 
L 435.560754 -208.258477 
L 435.560754 -210.177947 
L 435.560754 -212.097417 
L 435.560754 -214.016888 
L 435.560754 -215.936358 
L 435.560754 -217.855828 
L 435.560754 -219.775299 
L 435.560754 -221.694769 
L 435.560752 -223.614239 
L 435.560738 -225.533709 
L 435.560663 -227.45318 
L 435.560327 -229.37265 
L 435.559051 -231.29212 
L 435.554981 -233.211591 
L 435.544115 -235.131061 
L 435.519972 -237.050531 
L 435.475752 -238.970002 
L 435.410091 -240.889472 
L 435.33366 -242.808942 
L 435.269668 -244.728413 
L 435.243464 -246.647883 
L 435.266645 -248.567353 
L 435.328919 -250.486824 
L 435.405348 -252.406294 
L 435.472166 -254.325764 
L 435.51781 -256.245235 
L 435.560754 -256.245235 
L 435.560754 -256.245235 
L 435.560754 -254.325764 
L 435.560754 -252.406294 
L 435.560754 -250.486824 
L 435.560754 -248.567353 
L 435.560754 -246.647883 
L 435.560754 -244.728413 
L 435.560754 -242.808942 
L 435.560754 -240.889472 
L 435.560754 -238.970002 
L 435.560754 -237.050531 
L 435.560754 -235.131061 
L 435.560754 -233.211591 
L 435.560754 -231.29212 
L 435.560754 -229.37265 
L 435.560754 -227.45318 
L 435.560754 -225.533709 
L 435.560754 -223.614239 
L 435.560754 -221.694769 
L 435.560754 -219.775299 
L 435.560754 -217.855828 
L 435.560754 -215.936358 
L 435.560754 -214.016888 
L 435.560754 -212.097417 
L 435.560754 -210.177947 
L 435.560754 -208.258477 
L 435.560754 -206.339006 
L 435.560754 -204.419536 
L 435.560754 -202.500066 
L 435.560754 -200.580595 
L 435.560754 -198.661125 
L 435.560754 -196.741655 
L 435.560754 -194.822184 
L 435.560754 -192.902714 
L 435.560754 -190.983244 
L 435.560754 -189.063773 
L 435.560754 -187.144303 
L 435.560754 -185.224833 
L 435.560754 -183.305362 
L 435.560754 -181.385892 
L 435.560754 -179.466422 
L 435.560754 -177.546951 
L 435.560754 -175.627481 
L 435.560754 -173.708011 
L 435.560754 -171.78854 
L 435.560754 -169.86907 
L 435.560754 -167.9496 
L 435.560754 -166.030129 
L 435.560754 -164.110659 
L 435.560754 -162.191189 
L 435.560754 -160.271719 
L 435.560754 -158.352248 
L 435.560754 -156.432778 
L 435.560754 -154.513308 
L 435.560754 -152.593837 
L 435.560754 -150.674367 
L 435.560754 -148.754897 
L 435.560754 -146.835426 
L 435.560754 -144.915956 
L 435.560754 -142.996486 
L 435.560754 -141.077015 
L 435.560754 -139.157545 
L 435.560754 -137.238075 
L 435.560754 -135.318604 
L 435.560754 -133.399134 
L 435.560754 -131.479664 
L 435.560754 -129.560193 
L 435.560754 -127.640723 
L 435.560754 -125.721253 
L 435.560754 -123.801782 
L 435.560754 -121.882312 
L 435.560754 -119.962842 
L 435.560754 -118.043371 
L 435.560754 -116.123901 
L 435.560754 -114.204431 
L 435.560754 -112.28496 
L 435.560754 -110.36549 
L 435.560754 -108.44602 
L 435.560754 -106.526549 
L 435.560754 -104.607079 
L 435.560754 -102.687609 
L 435.560754 -100.768139 
L 435.560754 -98.848668 
L 435.560754 -96.929198 
L 435.560754 -95.009728 
L 435.560754 -93.090257 
L 435.560754 -91.170787 
L 435.560754 -89.251317 
L 435.560754 -87.331846 
L 435.560754 -85.412376 
L 435.560754 -83.492906 
L 435.560754 -81.573435 
L 435.560754 -79.653965 
L 435.560754 -77.734495 
L 435.560754 -75.815024 
L 435.560754 -73.895554 
L 435.560754 -71.976084 
L 435.560754 -70.056613 
L 435.560754 -68.137143 
L 435.560754 -66.217673 
z
" style="stroke: #4c4c4c; stroke-width: 1.5"/>
    </defs>
    <g clip-path="url(#p7f03007b57)">
     <use xlink:href="#ma0213bd363" x="0" y="351.126562" style="fill: #5875a4; stroke: #4c4c4c; stroke-width: 1.5"/>
    </g>
   </g>
   <g id="patch_9">
    <path d="M 435.560754 277.19215 
L 435.560754 277.19215 
L 435.560754 277.19215 
L 435.560754 277.19215 
z
" clip-path="url(#p7f03007b57)" style="fill: #cc8963; stroke: #4c4c4c; stroke-width: 0.75; stroke-linejoin: miter"/>
   </g>
   <g id="PolyCollection_8">
    <defs>
     <path id="m4f7b1f8174" d="M 436.76405 -62.06539 
L 435.560754 -62.06539 
L 435.560754 -63.380238 
L 435.560754 -64.695085 
L 435.560754 -66.009933 
L 435.560754 -67.32478 
L 435.560754 -68.639627 
L 435.560754 -69.954475 
L 435.560754 -71.269322 
L 435.560754 -72.584169 
L 435.560754 -73.899017 
L 435.560754 -75.213864 
L 435.560754 -76.528711 
L 435.560754 -77.843559 
L 435.560754 -79.158406 
L 435.560754 -80.473254 
L 435.560754 -81.788101 
L 435.560754 -83.102948 
L 435.560754 -84.417796 
L 435.560754 -85.732643 
L 435.560754 -87.04749 
L 435.560754 -88.362338 
L 435.560754 -89.677185 
L 435.560754 -90.992032 
L 435.560754 -92.30688 
L 435.560754 -93.621727 
L 435.560754 -94.936575 
L 435.560754 -96.251422 
L 435.560754 -97.566269 
L 435.560754 -98.881117 
L 435.560754 -100.195964 
L 435.560754 -101.510811 
L 435.560754 -102.825659 
L 435.560754 -104.140506 
L 435.560754 -105.455353 
L 435.560754 -106.770201 
L 435.560754 -108.085048 
L 435.560754 -109.399896 
L 435.560754 -110.714743 
L 435.560754 -112.02959 
L 435.560754 -113.344438 
L 435.560754 -114.659285 
L 435.560754 -115.974132 
L 435.560754 -117.28898 
L 435.560754 -118.603827 
L 435.560754 -119.918674 
L 435.560754 -121.233522 
L 435.560754 -122.548369 
L 435.560754 -123.863217 
L 435.560754 -125.178064 
L 435.560754 -126.492911 
L 435.560754 -127.807759 
L 435.560754 -129.122606 
L 435.560754 -130.437453 
L 435.560754 -131.752301 
L 435.560754 -133.067148 
L 435.560754 -134.381995 
L 435.560754 -135.696843 
L 435.560754 -137.01169 
L 435.560754 -138.326538 
L 435.560754 -139.641385 
L 435.560754 -140.956232 
L 435.560754 -142.27108 
L 435.560754 -143.585927 
L 435.560754 -144.900774 
L 435.560754 -146.215622 
L 435.560754 -147.530469 
L 435.560754 -148.845316 
L 435.560754 -150.160164 
L 435.560754 -151.475011 
L 435.560754 -152.789858 
L 435.560754 -154.104706 
L 435.560754 -155.419553 
L 435.560754 -156.734401 
L 435.560754 -158.049248 
L 435.560754 -159.364095 
L 435.560754 -160.678943 
L 435.560754 -161.99379 
L 435.560754 -163.308637 
L 435.560754 -164.623485 
L 435.560754 -165.938332 
L 435.560754 -167.253179 
L 435.560754 -168.568027 
L 435.560754 -169.882874 
L 435.560754 -171.197722 
L 435.560754 -172.512569 
L 435.560754 -173.827416 
L 435.560754 -175.142264 
L 435.560754 -176.457111 
L 435.560754 -177.771958 
L 435.560754 -179.086806 
L 435.560754 -180.401653 
L 435.560754 -181.7165 
L 435.560754 -183.031348 
L 435.560754 -184.346195 
L 435.560754 -185.661043 
L 435.560754 -186.97589 
L 435.560754 -188.290737 
L 435.560754 -189.605585 
L 435.560754 -190.920432 
L 435.560754 -192.235279 
L 435.622085 -192.235279 
L 435.622085 -192.235279 
L 435.658949 -190.920432 
L 435.711103 -189.605585 
L 435.780955 -188.290737 
L 435.869321 -186.97589 
L 435.974545 -185.661043 
L 436.091881 -184.346195 
L 436.213398 -183.031348 
L 436.328616 -181.7165 
L 436.4259 -180.401653 
L 436.494409 -179.086806 
L 436.526176 -177.771958 
L 436.51781 -176.457111 
L 436.471347 -175.142264 
L 436.393986 -173.827416 
L 436.296743 -172.512569 
L 436.192355 -171.197722 
L 436.092932 -169.882874 
L 436.007904 -168.568027 
L 435.942691 -167.253179 
L 435.898305 -165.938332 
L 435.871866 -164.623485 
L 435.857823 -163.308637 
L 435.849533 -161.99379 
L 435.840819 -160.678943 
L 435.827181 -159.364095 
L 435.806429 -158.049248 
L 435.7787 -156.734401 
L 435.745941 -155.419553 
L 435.711088 -154.104706 
L 435.677211 -152.789858 
L 435.646841 -151.475011 
L 435.621611 -150.160164 
L 435.602225 -148.845316 
L 435.58867 -147.530469 
L 435.580557 -146.215622 
L 435.577467 -144.900774 
L 435.5792 -143.585927 
L 435.58589 -142.27108 
L 435.597956 -140.956232 
L 435.615899 -139.641385 
L 435.640007 -138.326538 
L 435.67004 -137.01169 
L 435.705002 -135.696843 
L 435.743137 -134.381995 
L 435.782215 -133.067148 
L 435.820093 -131.752301 
L 435.855456 -130.437453 
L 435.888504 -129.122606 
L 435.921347 -127.807759 
L 435.957918 -126.492911 
L 436.003337 -125.178064 
L 436.062816 -123.863217 
L 436.140356 -122.548369 
L 436.237515 -121.233522 
L 436.352542 -119.918674 
L 436.48012 -118.603827 
L 436.611851 -117.28898 
L 436.737525 -115.974132 
L 436.847079 -114.659285 
L 436.933016 -113.344438 
L 436.9929 -112.02959 
L 437.031451 -110.714743 
L 437.061779 -109.399896 
L 437.105421 -108.085048 
L 437.191091 -106.770201 
L 437.352283 -105.455353 
L 437.624078 -104.140506 
L 438.039556 -102.825659 
L 438.626277 -101.510811 
L 439.403264 -100.195964 
L 440.379053 -98.881117 
L 441.55144 -97.566269 
L 442.909544 -96.251422 
L 444.438418 -94.936575 
L 446.125557 -93.621727 
L 447.967455 -92.30688 
L 449.973209 -90.992032 
L 452.161854 -89.677185 
L 454.551091 -88.362338 
L 457.13776 -87.04749 
L 459.874069 -85.732643 
L 462.647091 -84.417796 
L 465.270657 -83.102948 
L 467.497118 -81.788101 
L 469.051255 -80.473254 
L 469.681243 -79.158406 
L 469.214495 -77.843559 
L 467.602623 -76.528711 
L 464.941496 -75.213864 
L 461.459343 -73.899017 
L 457.475628 -72.584169 
L 453.342256 -71.269322 
L 449.383254 -69.954475 
L 445.847925 -68.639627 
L 442.886643 -67.32478 
L 440.550638 -66.009933 
L 438.810375 -64.695085 
L 437.583594 -63.380238 
L 436.76405 -62.06539 
z
" style="stroke: #4c4c4c; stroke-width: 1.5"/>
    </defs>
    <g clip-path="url(#p7f03007b57)">
     <use xlink:href="#m4f7b1f8174" x="0" y="351.126562" style="fill: #cc8963; stroke: #4c4c4c; stroke-width: 1.5"/>
    </g>
   </g>
   <g id="PolyCollection_9">
    <defs>
     <path id="m976aae22f7" d="M 543.412755 -62.354237 
L 540.623047 -62.354237 
L 538.548537 -64.05122 
L 535.46325 -65.748204 
L 531.229346 -67.445187 
L 525.891053 -69.14217 
L 519.748236 -70.839154 
L 513.370101 -72.536137 
L 507.521599 -74.23312 
L 503.007826 -75.930103 
L 500.48025 -77.627087 
L 500.271955 -79.32407 
L 502.321982 -81.021053 
L 506.213185 -82.718037 
L 511.302199 -84.41502 
L 516.887829 -86.112003 
L 522.359192 -87.808987 
L 527.284782 -89.50597 
L 531.433825 -91.202953 
L 534.745996 -92.899936 
L 537.276368 -94.59692 
L 539.139752 -96.293903 
L 540.468615 -97.990886 
L 541.388213 -99.68787 
L 542.00565 -101.384853 
L 542.407335 -103.081836 
L 542.660259 -104.77882 
L 542.814597 -106.475803 
L 542.906727 -108.172786 
L 542.962326 -109.86977 
L 542.999125 -111.566753 
L 543.028871 -113.263736 
L 543.058336 -114.960719 
L 543.089767 -116.657703 
L 543.12147 -118.354686 
L 543.149095 -120.051669 
L 543.167696 -121.748653 
L 543.174021 -123.445636 
L 543.168235 -125.142619 
L 543.15437 -126.839603 
L 543.139297 -128.536586 
L 543.130591 -130.233569 
L 543.134114 -131.930553 
L 543.152226 -133.627536 
L 543.183241 -135.324519 
L 543.222194 -137.021502 
L 543.262435 -138.718486 
L 543.297341 -140.415469 
L 543.321545 -142.112452 
L 543.331469 -143.809436 
L 543.325333 -145.506419 
L 543.302962 -147.203402 
L 543.265598 -148.900386 
L 543.21569 -150.597369 
L 543.156468 -152.294352 
L 543.091223 -153.991335 
L 543.022492 -155.688319 
L 542.95162 -157.385302 
L 542.879154 -159.082285 
L 542.806091 -160.779269 
L 542.735427 -162.476252 
L 542.673059 -164.173235 
L 542.627277 -165.870219 
L 542.606716 -167.567202 
L 542.617498 -169.264185 
L 542.660717 -170.961169 
L 542.731336 -172.658152 
L 542.81898 -174.355135 
L 542.910332 -176.052118 
L 542.992375 -177.749102 
L 543.055476 -179.446085 
L 543.095465 -181.143068 
L 543.114202 -182.840052 
L 543.118506 -184.537035 
L 543.117811 -186.234018 
L 543.121261 -187.931002 
L 543.135173 -189.627985 
L 543.161631 -191.324968 
L 543.198561 -193.021952 
L 543.241044 -194.718935 
L 543.283186 -196.415918 
L 543.319762 -198.112901 
L 543.347117 -199.809885 
L 543.363227 -201.506868 
L 543.367247 -203.203851 
L 543.359019 -204.900835 
L 543.338924 -206.597818 
L 543.308199 -208.294801 
L 543.269514 -209.991785 
L 543.227365 -211.688768 
L 543.187852 -213.385751 
L 543.157654 -215.082735 
L 543.142425 -216.779718 
L 543.145185 -218.476701 
L 543.165409 -220.173684 
L 543.199209 -221.870668 
L 543.240573 -223.567651 
L 543.283097 -225.264634 
L 543.321571 -226.961618 
L 543.352865 -228.658601 
L 543.376018 -230.355584 
L 543.412755 -230.355584 
L 543.412755 -230.355584 
L 543.412755 -228.658601 
L 543.412755 -226.961618 
L 543.412755 -225.264634 
L 543.412755 -223.567651 
L 543.412755 -221.870668 
L 543.412755 -220.173684 
L 543.412755 -218.476701 
L 543.412755 -216.779718 
L 543.412755 -215.082735 
L 543.412755 -213.385751 
L 543.412755 -211.688768 
L 543.412755 -209.991785 
L 543.412755 -208.294801 
L 543.412755 -206.597818 
L 543.412755 -204.900835 
L 543.412755 -203.203851 
L 543.412755 -201.506868 
L 543.412755 -199.809885 
L 543.412755 -198.112901 
L 543.412755 -196.415918 
L 543.412755 -194.718935 
L 543.412755 -193.021952 
L 543.412755 -191.324968 
L 543.412755 -189.627985 
L 543.412755 -187.931002 
L 543.412755 -186.234018 
L 543.412755 -184.537035 
L 543.412755 -182.840052 
L 543.412755 -181.143068 
L 543.412755 -179.446085 
L 543.412755 -177.749102 
L 543.412755 -176.052118 
L 543.412755 -174.355135 
L 543.412755 -172.658152 
L 543.412755 -170.961169 
L 543.412755 -169.264185 
L 543.412755 -167.567202 
L 543.412755 -165.870219 
L 543.412755 -164.173235 
L 543.412755 -162.476252 
L 543.412755 -160.779269 
L 543.412755 -159.082285 
L 543.412755 -157.385302 
L 543.412755 -155.688319 
L 543.412755 -153.991335 
L 543.412755 -152.294352 
L 543.412755 -150.597369 
L 543.412755 -148.900386 
L 543.412755 -147.203402 
L 543.412755 -145.506419 
L 543.412755 -143.809436 
L 543.412755 -142.112452 
L 543.412755 -140.415469 
L 543.412755 -138.718486 
L 543.412755 -137.021502 
L 543.412755 -135.324519 
L 543.412755 -133.627536 
L 543.412755 -131.930553 
L 543.412755 -130.233569 
L 543.412755 -128.536586 
L 543.412755 -126.839603 
L 543.412755 -125.142619 
L 543.412755 -123.445636 
L 543.412755 -121.748653 
L 543.412755 -120.051669 
L 543.412755 -118.354686 
L 543.412755 -116.657703 
L 543.412755 -114.960719 
L 543.412755 -113.263736 
L 543.412755 -111.566753 
L 543.412755 -109.86977 
L 543.412755 -108.172786 
L 543.412755 -106.475803 
L 543.412755 -104.77882 
L 543.412755 -103.081836 
L 543.412755 -101.384853 
L 543.412755 -99.68787 
L 543.412755 -97.990886 
L 543.412755 -96.293903 
L 543.412755 -94.59692 
L 543.412755 -92.899936 
L 543.412755 -91.202953 
L 543.412755 -89.50597 
L 543.412755 -87.808987 
L 543.412755 -86.112003 
L 543.412755 -84.41502 
L 543.412755 -82.718037 
L 543.412755 -81.021053 
L 543.412755 -79.32407 
L 543.412755 -77.627087 
L 543.412755 -75.930103 
L 543.412755 -74.23312 
L 543.412755 -72.536137 
L 543.412755 -70.839154 
L 543.412755 -69.14217 
L 543.412755 -67.445187 
L 543.412755 -65.748204 
L 543.412755 -64.05122 
L 543.412755 -62.354237 
z
" style="stroke: #4c4c4c; stroke-width: 1.5"/>
    </defs>
    <g clip-path="url(#p7f03007b57)">
     <use xlink:href="#m976aae22f7" x="0" y="351.126562" style="fill: #5875a4; stroke: #4c4c4c; stroke-width: 1.5"/>
    </g>
   </g>
   <g id="PolyCollection_10">
    <defs>
     <path id="mc65180a1ab" d="M 544.209226 -60.220718 
L 543.412755 -60.220718 
L 543.412755 -62.011695 
L 543.412755 -63.802672 
L 543.412755 -65.593649 
L 543.412755 -67.384626 
L 543.412755 -69.175603 
L 543.412755 -70.96658 
L 543.412755 -72.757557 
L 543.412755 -74.548534 
L 543.412755 -76.339511 
L 543.412755 -78.130488 
L 543.412755 -79.921465 
L 543.412755 -81.712442 
L 543.412755 -83.503419 
L 543.412755 -85.294396 
L 543.412755 -87.085373 
L 543.412755 -88.87635 
L 543.412755 -90.667327 
L 543.412755 -92.458304 
L 543.412755 -94.249281 
L 543.412755 -96.040258 
L 543.412755 -97.831235 
L 543.412755 -99.622212 
L 543.412755 -101.413189 
L 543.412755 -103.204166 
L 543.412755 -104.995143 
L 543.412755 -106.78612 
L 543.412755 -108.577097 
L 543.412755 -110.368074 
L 543.412755 -112.159051 
L 543.412755 -113.950028 
L 543.412755 -115.741005 
L 543.412755 -117.531981 
L 543.412755 -119.322958 
L 543.412755 -121.113935 
L 543.412755 -122.904912 
L 543.412755 -124.695889 
L 543.412755 -126.486866 
L 543.412755 -128.277843 
L 543.412755 -130.06882 
L 543.412755 -131.859797 
L 543.412755 -133.650774 
L 543.412755 -135.441751 
L 543.412755 -137.232728 
L 543.412755 -139.023705 
L 543.412755 -140.814682 
L 543.412755 -142.605659 
L 543.412755 -144.396636 
L 543.412755 -146.187613 
L 543.412755 -147.97859 
L 543.412755 -149.769567 
L 543.412755 -151.560544 
L 543.412755 -153.351521 
L 543.412755 -155.142498 
L 543.412755 -156.933475 
L 543.412755 -158.724452 
L 543.412755 -160.515429 
L 543.412755 -162.306406 
L 543.412755 -164.097383 
L 543.412755 -165.88836 
L 543.412755 -167.679337 
L 543.412755 -169.470314 
L 543.412755 -171.261291 
L 543.412755 -173.052268 
L 543.412755 -174.843245 
L 543.412755 -176.634222 
L 543.412755 -178.425199 
L 543.412755 -180.216176 
L 543.412755 -182.007153 
L 543.412755 -183.79813 
L 543.412755 -185.589107 
L 543.412755 -187.380083 
L 543.412755 -189.17106 
L 543.412755 -190.962037 
L 543.412755 -192.753014 
L 543.412755 -194.543991 
L 543.412755 -196.334968 
L 543.412755 -198.125945 
L 543.412755 -199.916922 
L 543.412755 -201.707899 
L 543.412755 -203.498876 
L 543.412755 -205.289853 
L 543.412755 -207.08083 
L 543.412755 -208.871807 
L 543.412755 -210.662784 
L 543.412755 -212.453761 
L 543.412755 -214.244738 
L 543.412755 -216.035715 
L 543.412755 -217.826692 
L 543.412755 -219.617669 
L 543.412755 -221.408646 
L 543.412755 -223.199623 
L 543.412755 -224.9906 
L 543.412755 -226.781577 
L 543.412755 -228.572554 
L 543.412755 -230.363531 
L 543.412755 -232.154508 
L 543.412755 -233.945485 
L 543.412755 -235.736462 
L 543.412755 -237.527439 
L 543.44753 -237.527439 
L 543.44753 -237.527439 
L 543.469425 -235.736462 
L 543.499022 -233.945485 
L 543.535436 -232.154508 
L 543.575772 -230.363531 
L 543.615241 -228.572554 
L 543.648075 -226.781577 
L 543.66913 -224.9906 
L 543.675703 -223.199623 
L 543.668879 -221.408646 
L 543.653814 -219.617669 
L 543.638753 -217.826692 
L 543.632965 -216.035715 
L 543.644173 -214.244738 
L 543.67615 -212.453761 
L 543.727143 -210.662784 
L 543.789652 -208.871807 
L 543.851815 -207.08083 
L 543.900222 -205.289853 
L 543.92346 -203.498876 
L 543.91526 -201.707899 
L 543.876154 -199.916922 
L 543.813043 -198.125945 
L 543.736931 -196.334968 
L 543.659826 -194.543991 
L 543.591977 -192.753014 
L 543.540311 -190.962037 
L 543.508201 -189.17106 
L 543.496124 -187.380083 
L 543.502503 -185.589107 
L 543.524234 -183.79813 
L 543.556808 -182.007153 
L 543.594341 -180.216176 
L 543.629957 -178.425199 
L 543.656766 -176.634222 
L 543.669292 -174.843245 
L 543.664839 -173.052268 
L 543.644181 -171.261291 
L 543.611224 -169.470314 
L 543.571754 -167.679337 
L 543.531778 -165.88836 
L 543.496103 -164.097383 
L 543.467609 -162.306406 
L 543.447319 -160.515429 
L 543.435059 -158.724452 
L 543.430361 -156.933475 
L 543.433269 -155.142498 
L 543.444827 -153.351521 
L 543.467078 -151.560544 
L 543.502508 -149.769567 
L 543.552937 -147.97859 
L 543.618095 -146.187613 
L 543.694348 -144.396636 
L 543.774258 -142.605659 
L 543.847512 -140.814682 
L 543.903367 -139.023705 
L 543.934022 -137.232728 
L 543.93781 -135.441751 
L 543.920979 -133.650774 
L 543.897303 -131.859797 
L 543.885603 -130.06882 
L 543.905988 -128.277843 
L 543.975963 -126.486866 
L 544.107361 -124.695889 
L 544.304603 -122.904912 
L 544.564335 -121.113935 
L 544.876207 -119.322958 
L 545.224512 -117.531981 
L 545.590503 -115.741005 
L 545.955374 -113.950028 
L 546.304037 -112.159051 
L 546.629813 -110.368074 
L 546.939812 -108.577097 
L 547.260289 -106.78612 
L 547.640763 -104.995143 
L 548.155651 -103.204166 
L 548.902467 -101.413189 
L 549.995897 -99.622212 
L 551.556847 -97.831235 
L 553.694803 -96.040258 
L 556.481868 -94.249281 
L 559.918948 -92.458304 
L 563.899472 -90.667327 
L 568.182242 -88.87635 
L 572.388991 -87.085373 
L 576.039931 -85.294396 
L 578.630365 -83.503419 
L 579.735469 -81.712442 
L 579.115159 -79.921465 
L 576.78449 -78.130488 
L 573.02248 -76.339511 
L 568.312465 -74.548534 
L 563.231868 -72.757557 
L 558.327301 -70.96658 
L 554.013753 -69.175603 
L 550.523743 -67.384626 
L 547.911054 -65.593649 
L 546.094625 -63.802672 
L 544.918926 -62.011695 
L 544.209226 -60.220718 
z
" style="stroke: #4c4c4c; stroke-width: 1.5"/>
    </defs>
    <g clip-path="url(#p7f03007b57)">
     <use xlink:href="#mc65180a1ab" x="0" y="351.126562" style="fill: #cc8963; stroke: #4c4c4c; stroke-width: 1.5"/>
    </g>
   </g>
   <g id="PolyCollection_11">
    <defs>
     <path id="mca99cc7fba" d="M 651.264755 -66.564472 
L 650.018365 -66.564472 
L 649.038124 -67.729766 
L 647.506592 -68.89506 
L 645.265707 -70.060355 
L 642.197275 -71.225649 
L 638.269378 -72.390943 
L 633.576634 -73.556237 
L 628.358339 -74.721531 
L 622.982854 -75.886825 
L 617.897204 -77.052119 
L 613.55368 -78.217413 
L 610.333935 -79.382707 
L 608.491314 -80.548002 
L 608.123955 -81.713296 
L 609.179332 -82.87859 
L 611.481496 -84.043884 
L 614.769057 -85.209178 
L 618.73446 -86.374472 
L 623.059773 -87.539766 
L 627.447368 -88.70506 
L 631.644519 -89.870355 
L 635.460165 -91.035649 
L 638.772015 -92.200943 
L 641.523552 -93.366237 
L 643.712827 -94.531531 
L 645.376856 -95.696825 
L 646.575985 -96.862119 
L 647.38161 -98.027413 
L 647.868758 -99.192707 
L 648.112856 -100.358002 
L 648.188455 -101.523296 
L 648.167361 -102.68859 
L 648.11455 -103.853884 
L 648.082203 -105.019178 
L 648.103894 -106.184472 
L 648.191659 -107.349766 
L 648.337738 -108.51506 
L 648.520843 -109.680355 
L 648.714946 -110.845649 
L 648.897674 -112.010943 
L 649.055947 -113.176237 
L 649.187742 -114.341531 
L 649.300307 -115.506825 
L 649.405971 -116.672119 
L 649.517064 -117.837413 
L 649.641408 -119.002707 
L 649.779626 -120.168002 
L 649.925047 -121.333296 
L 650.066172 -122.49859 
L 650.190743 -123.663884 
L 650.289817 -124.829178 
L 650.360318 -125.994472 
L 650.405285 -127.159766 
L 650.432127 -128.32506 
L 650.44995 -129.490355 
L 650.467174 -130.655649 
L 650.490181 -131.820943 
L 650.523063 -132.986237 
L 650.567959 -134.151531 
L 650.625412 -135.316825 
L 650.694413 -136.482119 
L 650.772206 -137.647413 
L 650.854191 -138.812707 
L 650.934252 -139.978002 
L 651.005573 -141.143296 
L 651.061743 -142.30859 
L 651.097835 -143.473884 
L 651.111254 -144.639178 
L 651.102264 -145.804472 
L 651.074209 -146.969766 
L 651.033374 -148.13506 
L 650.988324 -149.300355 
L 650.948599 -150.465649 
L 650.922877 -151.630943 
L 650.917054 -152.796237 
L 650.932871 -153.961531 
L 650.967648 -155.126825 
L 651.015236 -156.292119 
L 651.06781 -157.457413 
L 651.117796 -158.622707 
L 651.159245 -159.788002 
L 651.188334 -160.953296 
L 651.203088 -162.11859 
L 651.202759 -163.283884 
L 651.187362 -164.449178 
L 651.157686 -165.614472 
L 651.115776 -166.779766 
L 651.065547 -167.94506 
L 651.013045 -169.110355 
L 650.965913 -170.275649 
L 650.932006 -171.440943 
L 650.917487 -172.606237 
L 650.925128 -173.771531 
L 650.953513 -174.936825 
L 650.997487 -176.102119 
L 651.049703 -177.267413 
L 651.102616 -178.432707 
L 651.150209 -179.598002 
L 651.188929 -180.763296 
L 651.217722 -181.92859 
L 651.264755 -181.92859 
L 651.264755 -181.92859 
L 651.264755 -180.763296 
L 651.264755 -179.598002 
L 651.264755 -178.432707 
L 651.264755 -177.267413 
L 651.264755 -176.102119 
L 651.264755 -174.936825 
L 651.264755 -173.771531 
L 651.264755 -172.606237 
L 651.264755 -171.440943 
L 651.264755 -170.275649 
L 651.264755 -169.110355 
L 651.264755 -167.94506 
L 651.264755 -166.779766 
L 651.264755 -165.614472 
L 651.264755 -164.449178 
L 651.264755 -163.283884 
L 651.264755 -162.11859 
L 651.264755 -160.953296 
L 651.264755 -159.788002 
L 651.264755 -158.622707 
L 651.264755 -157.457413 
L 651.264755 -156.292119 
L 651.264755 -155.126825 
L 651.264755 -153.961531 
L 651.264755 -152.796237 
L 651.264755 -151.630943 
L 651.264755 -150.465649 
L 651.264755 -149.300355 
L 651.264755 -148.13506 
L 651.264755 -146.969766 
L 651.264755 -145.804472 
L 651.264755 -144.639178 
L 651.264755 -143.473884 
L 651.264755 -142.30859 
L 651.264755 -141.143296 
L 651.264755 -139.978002 
L 651.264755 -138.812707 
L 651.264755 -137.647413 
L 651.264755 -136.482119 
L 651.264755 -135.316825 
L 651.264755 -134.151531 
L 651.264755 -132.986237 
L 651.264755 -131.820943 
L 651.264755 -130.655649 
L 651.264755 -129.490355 
L 651.264755 -128.32506 
L 651.264755 -127.159766 
L 651.264755 -125.994472 
L 651.264755 -124.829178 
L 651.264755 -123.663884 
L 651.264755 -122.49859 
L 651.264755 -121.333296 
L 651.264755 -120.168002 
L 651.264755 -119.002707 
L 651.264755 -117.837413 
L 651.264755 -116.672119 
L 651.264755 -115.506825 
L 651.264755 -114.341531 
L 651.264755 -113.176237 
L 651.264755 -112.010943 
L 651.264755 -110.845649 
L 651.264755 -109.680355 
L 651.264755 -108.51506 
L 651.264755 -107.349766 
L 651.264755 -106.184472 
L 651.264755 -105.019178 
L 651.264755 -103.853884 
L 651.264755 -102.68859 
L 651.264755 -101.523296 
L 651.264755 -100.358002 
L 651.264755 -99.192707 
L 651.264755 -98.027413 
L 651.264755 -96.862119 
L 651.264755 -95.696825 
L 651.264755 -94.531531 
L 651.264755 -93.366237 
L 651.264755 -92.200943 
L 651.264755 -91.035649 
L 651.264755 -89.870355 
L 651.264755 -88.70506 
L 651.264755 -87.539766 
L 651.264755 -86.374472 
L 651.264755 -85.209178 
L 651.264755 -84.043884 
L 651.264755 -82.87859 
L 651.264755 -81.713296 
L 651.264755 -80.548002 
L 651.264755 -79.382707 
L 651.264755 -78.217413 
L 651.264755 -77.052119 
L 651.264755 -75.886825 
L 651.264755 -74.721531 
L 651.264755 -73.556237 
L 651.264755 -72.390943 
L 651.264755 -71.225649 
L 651.264755 -70.060355 
L 651.264755 -68.89506 
L 651.264755 -67.729766 
L 651.264755 -66.564472 
z
" style="stroke: #4c4c4c; stroke-width: 1.5"/>
    </defs>
    <g clip-path="url(#p7f03007b57)">
     <use xlink:href="#mca99cc7fba" x="0" y="351.126562" style="fill: #5875a4; stroke: #4c4c4c; stroke-width: 1.5"/>
    </g>
   </g>
   <g id="PolyCollection_12">
    <defs>
     <path id="m765be57583" d="M 651.700807 -62.747519 
L 651.264755 -62.747519 
L 651.264755 -64.080521 
L 651.264755 -65.413523 
L 651.264755 -66.746526 
L 651.264755 -68.079528 
L 651.264755 -69.41253 
L 651.264755 -70.745532 
L 651.264755 -72.078534 
L 651.264755 -73.411536 
L 651.264755 -74.744538 
L 651.264755 -76.07754 
L 651.264755 -77.410542 
L 651.264755 -78.743544 
L 651.264755 -80.076546 
L 651.264755 -81.409548 
L 651.264755 -82.742551 
L 651.264755 -84.075553 
L 651.264755 -85.408555 
L 651.264755 -86.741557 
L 651.264755 -88.074559 
L 651.264755 -89.407561 
L 651.264755 -90.740563 
L 651.264755 -92.073565 
L 651.264755 -93.406567 
L 651.264755 -94.739569 
L 651.264755 -96.072571 
L 651.264755 -97.405573 
L 651.264755 -98.738575 
L 651.264755 -100.071578 
L 651.264755 -101.40458 
L 651.264755 -102.737582 
L 651.264755 -104.070584 
L 651.264755 -105.403586 
L 651.264755 -106.736588 
L 651.264755 -108.06959 
L 651.264755 -109.402592 
L 651.264755 -110.735594 
L 651.264755 -112.068596 
L 651.264755 -113.401598 
L 651.264755 -114.7346 
L 651.264755 -116.067603 
L 651.264755 -117.400605 
L 651.264755 -118.733607 
L 651.264755 -120.066609 
L 651.264755 -121.399611 
L 651.264755 -122.732613 
L 651.264755 -124.065615 
L 651.264755 -125.398617 
L 651.264755 -126.731619 
L 651.264755 -128.064621 
L 651.264755 -129.397623 
L 651.264755 -130.730625 
L 651.264755 -132.063628 
L 651.264755 -133.39663 
L 651.264755 -134.729632 
L 651.264755 -136.062634 
L 651.264755 -137.395636 
L 651.264755 -138.728638 
L 651.264755 -140.06164 
L 651.264755 -141.394642 
L 651.264755 -142.727644 
L 651.264755 -144.060646 
L 651.264755 -145.393648 
L 651.264755 -146.72665 
L 651.264755 -148.059653 
L 651.264755 -149.392655 
L 651.264755 -150.725657 
L 651.264755 -152.058659 
L 651.264755 -153.391661 
L 651.264755 -154.724663 
L 651.264755 -156.057665 
L 651.264755 -157.390667 
L 651.264755 -158.723669 
L 651.264755 -160.056671 
L 651.264755 -161.389673 
L 651.264755 -162.722675 
L 651.264755 -164.055678 
L 651.264755 -165.38868 
L 651.264755 -166.721682 
L 651.264755 -168.054684 
L 651.264755 -169.387686 
L 651.264755 -170.720688 
L 651.264755 -172.05369 
L 651.264755 -173.386692 
L 651.264755 -174.719694 
L 651.264755 -176.052696 
L 651.264755 -177.385698 
L 651.264755 -178.7187 
L 651.264755 -180.051703 
L 651.264755 -181.384705 
L 651.264755 -182.717707 
L 651.264755 -184.050709 
L 651.264755 -185.383711 
L 651.264755 -186.716713 
L 651.264755 -188.049715 
L 651.264755 -189.382717 
L 651.264755 -190.715719 
L 651.264755 -192.048721 
L 651.264755 -193.381723 
L 651.264755 -194.714725 
L 651.324385 -194.714725 
L 651.324385 -194.714725 
L 651.36038 -193.381723 
L 651.409785 -192.048721 
L 651.472787 -190.715719 
L 651.546979 -189.382717 
L 651.626877 -188.049715 
L 651.704213 -186.716713 
L 651.769167 -185.383711 
L 651.812352 -184.050709 
L 651.827029 -182.717707 
L 651.810822 -181.384705 
L 651.766359 -180.051703 
L 651.700573 -178.7187 
L 651.622954 -177.385698 
L 651.543346 -176.052696 
L 651.47002 -174.719694 
L 651.408533 -173.386692 
L 651.361548 -172.05369 
L 651.329415 -170.720688 
L 651.311143 -169.387686 
L 651.305328 -168.054684 
L 651.310757 -166.721682 
L 651.326539 -165.38868 
L 651.351808 -164.055678 
L 651.385188 -162.722675 
L 651.424277 -161.389673 
L 651.465451 -160.056671 
L 651.504179 -158.723669 
L 651.535901 -157.390667 
L 651.55725 -156.057665 
L 651.567261 -154.724663 
L 651.568079 -153.391661 
L 651.564857 -152.058659 
L 651.564729 -150.725657 
L 651.575103 -149.392655 
L 651.60173 -148.059653 
L 651.647123 -146.72665 
L 651.709821 -145.393648 
L 651.784749 -144.060646 
L 651.864614 -142.727644 
L 651.941916 -141.394642 
L 652.01098 -140.06164 
L 652.069398 -138.728638 
L 652.118456 -137.395636 
L 652.162527 -136.062634 
L 652.207688 -134.729632 
L 652.260039 -133.39663 
L 652.324123 -132.063628 
L 652.40173 -130.730625 
L 652.491193 -129.397623 
L 652.587276 -128.064621 
L 652.681782 -126.731619 
L 652.765049 -125.398617 
L 652.828356 -124.065615 
L 652.866963 -122.732613 
L 652.883149 -121.399611 
L 652.888334 -120.066609 
L 652.903425 -118.733607 
L 652.956813 -117.400605 
L 653.080057 -116.067603 
L 653.301971 -114.7346 
L 653.642429 -113.401598 
L 654.107597 -112.068596 
L 654.688227 -110.735594 
L 655.362042 -109.402592 
L 656.100143 -108.06959 
L 656.875965 -106.736588 
L 657.674213 -105.403586 
L 658.496905 -104.070584 
L 659.364483 -102.737582 
L 660.311666 -101.40458 
L 661.379613 -100.071578 
L 662.607174 -98.738575 
L 664.023943 -97.405573 
L 665.646388 -96.072571 
L 667.476413 -94.739569 
L 669.500098 -93.406567 
L 671.684161 -92.073565 
L 673.969203 -90.740563 
L 676.261458 -89.407561 
L 678.427429 -88.074559 
L 680.296836 -86.741557 
L 681.677809 -85.408555 
L 682.384323 -84.075553 
L 682.270873 -82.742551 
L 681.265549 -81.409548 
L 679.391672 -80.076546 
L 676.770879 -78.743544 
L 673.605876 -77.410542 
L 670.147156 -76.07754 
L 666.652401 -74.744538 
L 663.348634 -73.411536 
L 660.405265 -72.078534 
L 657.922062 -70.745532 
L 655.931565 -69.41253 
L 654.412026 -68.079528 
L 653.305505 -66.746526 
L 652.536128 -65.413523 
L 652.025088 -64.080521 
L 651.700807 -62.747519 
z
" style="stroke: #4c4c4c; stroke-width: 1.5"/>
    </defs>
    <g clip-path="url(#p7f03007b57)">
     <use xlink:href="#m765be57583" x="0" y="351.126562" style="fill: #cc8963; stroke: #4c4c4c; stroke-width: 1.5"/>
    </g>
   </g>
   <g id="line2d_23">
    <path d="M 435.560754 277.19215 
L 435.560754 254.121686 
" clip-path="url(#p7f03007b57)" style="fill: none; stroke: #4c4c4c; stroke-width: 1.5; stroke-linecap: round"/>
   </g>
   <g id="line2d_24">
    <path d="M 435.560754 273.860441 
L 435.560754 265.950723 
" clip-path="url(#p7f03007b57)" style="fill: none; stroke: #4c4c4c; stroke-width: 4.5; stroke-linecap: round"/>
   </g>
   <g id="line2d_25">
    <path d="M 543.412755 277.19215 
L 543.412755 255.884888 
" clip-path="url(#p7f03007b57)" style="fill: none; stroke: #4c4c4c; stroke-width: 1.5; stroke-linecap: round"/>
   </g>
   <g id="line2d_26">
    <path d="M 543.412755 273.938189 
L 543.412755 266.49902 
" clip-path="url(#p7f03007b57)" style="fill: none; stroke: #4c4c4c; stroke-width: 4.5; stroke-linecap: round"/>
   </g>
   <g id="line2d_27">
    <path d="M 651.264755 277.19215 
L 651.264755 244.731556 
" clip-path="url(#p7f03007b57)" style="fill: none; stroke: #4c4c4c; stroke-width: 1.5; stroke-linecap: round"/>
   </g>
   <g id="line2d_28">
    <path d="M 651.264755 271.163475 
L 651.264755 260.571408 
" clip-path="url(#p7f03007b57)" style="fill: none; stroke: #4c4c4c; stroke-width: 4.5; stroke-linecap: round"/>
   </g>
   <g id="patch_10">
    <path d="M 381.634754 313.292187 
L 381.634754 20.798437 
" style="fill: none; stroke: #262626; stroke-width: 0.8; stroke-linejoin: miter; stroke-linecap: square"/>
   </g>
   <g id="patch_11">
    <path d="M 381.634754 313.292187 
L 705.190755 313.292187 
" style="fill: none; stroke: #262626; stroke-width: 0.8; stroke-linejoin: miter; stroke-linecap: square"/>
   </g>
   <g id="PathCollection_4">
    <g clip-path="url(#p7f03007b57)">
     <use xlink:href="#m48515df256" x="435.560754" y="271.474128" style="fill: #ffffff; stroke: #4c4c4c"/>
    </g>
   </g>
   <g id="PathCollection_5">
    <g clip-path="url(#p7f03007b57)">
     <use xlink:href="#m48515df256" x="543.412755" y="271.025408" style="fill: #ffffff; stroke: #4c4c4c"/>
    </g>
   </g>
   <g id="PathCollection_6">
    <g clip-path="url(#p7f03007b57)">
     <use xlink:href="#m48515df256" x="651.264755" y="267.382268" style="fill: #ffffff; stroke: #4c4c4c"/>
    </g>
   </g>
   <g id="text_16">
    <!-- Dyn_obs = 10.0 -->
    <g style="fill: #262626" transform="translate(503.595567 14.798437)scale(0.1 -0.1)">
     <defs>
      <path id="DejaVuSans-31" d="M 794 531 
L 1825 531 
L 1825 4091 
L 703 3866 
L 703 4441 
L 1819 4666 
L 2450 4666 
L 2450 531 
L 3481 531 
L 3481 0 
L 794 0 
L 794 531 
z
" transform="scale(0.015625)"/>
     </defs>
     <use xlink:href="#DejaVuSans-44"/>
     <use xlink:href="#DejaVuSans-79" x="77.001953"/>
     <use xlink:href="#DejaVuSans-6e" x="136.181641"/>
     <use xlink:href="#DejaVuSans-5f" x="199.560547"/>
     <use xlink:href="#DejaVuSans-6f" x="249.560547"/>
     <use xlink:href="#DejaVuSans-62" x="310.742188"/>
     <use xlink:href="#DejaVuSans-73" x="374.21875"/>
     <use xlink:href="#DejaVuSans-20" x="426.318359"/>
     <use xlink:href="#DejaVuSans-3d" x="458.105469"/>
     <use xlink:href="#DejaVuSans-20" x="541.894531"/>
     <use xlink:href="#DejaVuSans-31" x="573.681641"/>
     <use xlink:href="#DejaVuSans-30" x="637.304688"/>
     <use xlink:href="#DejaVuSans-2e" x="700.927734"/>
     <use xlink:href="#DejaVuSans-30" x="732.714844"/>
    </g>
   </g>
  </g>
  <g id="legend_1">
   <g id="text_17">
    <!-- dim -->
    <g style="fill: #262626" transform="translate(725.039193 163.644531)scale(0.1 -0.1)">
     <defs>
      <path id="DejaVuSans-69" d="M 603 3500 
L 1178 3500 
L 1178 0 
L 603 0 
L 603 3500 
z
M 603 4863 
L 1178 4863 
L 1178 4134 
L 603 4134 
L 603 4863 
z
" transform="scale(0.015625)"/>
     </defs>
     <use xlink:href="#DejaVuSans-64"/>
     <use xlink:href="#DejaVuSans-69" x="63.476562"/>
     <use xlink:href="#DejaVuSans-6d" x="91.259766"/>
    </g>
   </g>
   <g id="patch_12">
    <path d="M 714.117318 178.322656 
L 734.117318 178.322656 
L 734.117318 171.322656 
L 714.117318 171.322656 
z
" style="fill: #5875a4; stroke: #4c4c4c; stroke-width: 0.75; stroke-linejoin: miter"/>
   </g>
   <g id="text_18">
    <!-- 2d -->
    <g style="fill: #262626" transform="translate(742.117318 178.322656)scale(0.1 -0.1)">
     <use xlink:href="#DejaVuSans-32"/>
     <use xlink:href="#DejaVuSans-64" x="63.623047"/>
    </g>
   </g>
   <g id="patch_13">
    <path d="M 714.117318 193.000781 
L 734.117318 193.000781 
L 734.117318 186.000781 
L 714.117318 186.000781 
z
" style="fill: #cc8963; stroke: #4c4c4c; stroke-width: 0.75; stroke-linejoin: miter"/>
   </g>
   <g id="text_19">
    <!-- 3d -->
    <g style="fill: #262626" transform="translate(742.117318 193.000781)scale(0.1 -0.1)">
     <defs>
      <path id="DejaVuSans-33" d="M 2597 2516 
Q 3050 2419 3304 2112 
Q 3559 1806 3559 1356 
Q 3559 666 3084 287 
Q 2609 -91 1734 -91 
Q 1441 -91 1130 -33 
Q 819 25 488 141 
L 488 750 
Q 750 597 1062 519 
Q 1375 441 1716 441 
Q 2309 441 2620 675 
Q 2931 909 2931 1356 
Q 2931 1769 2642 2001 
Q 2353 2234 1838 2234 
L 1294 2234 
L 1294 2753 
L 1863 2753 
Q 2328 2753 2575 2939 
Q 2822 3125 2822 3475 
Q 2822 3834 2567 4026 
Q 2313 4219 1838 4219 
Q 1578 4219 1281 4162 
Q 984 4106 628 3988 
L 628 4550 
Q 988 4650 1302 4700 
Q 1616 4750 1894 4750 
Q 2613 4750 3031 4423 
Q 3450 4097 3450 3541 
Q 3450 3153 3228 2886 
Q 3006 2619 2597 2516 
z
" transform="scale(0.015625)"/>
     </defs>
     <use xlink:href="#DejaVuSans-33"/>
     <use xlink:href="#DejaVuSans-64" x="63.623047"/>
    </g>
   </g>
  </g>
 </g>
 <defs>
  <clipPath id="p2e7cdcff9c">
   <rect x="43.78125" y="20.798437" width="323.556001" height="292.49375"/>
  </clipPath>
  <clipPath id="p7f03007b57">
   <rect x="381.634754" y="20.798437" width="323.556001" height="292.49375"/>
  </clipPath>
 </defs>
</svg>
