<?xml version="1.0" encoding="utf-8" standalone="no"?>
<!DOCTYPE svg PUBLIC "-//W3C//DTD SVG 1.1//EN"
  "http://www.w3.org/Graphics/SVG/1.1/DTD/svg11.dtd">
<svg xmlns:xlink="http://www.w3.org/1999/xlink" width="762.821745pt" height="351.126562pt" viewBox="0 0 762.821745 351.126562" xmlns="http://www.w3.org/2000/svg" version="1.1">
 <metadata>
  <rdf:RDF xmlns:dc="http://purl.org/dc/elements/1.1/" xmlns:cc="http://creativecommons.org/ns#" xmlns:rdf="http://www.w3.org/1999/02/22-rdf-syntax-ns#">
   <cc:Work>
    <dc:type rdf:resource="http://purl.org/dc/dcmitype/StillImage"/>
    <dc:date>2022-03-28T23:39:13.779327</dc:date>
    <dc:format>image/svg+xml</dc:format>
    <dc:creator>
     <cc:Agent>
      <dc:title>Matplotlib v3.5.1, https://matplotlib.org/</dc:title>
     </cc:Agent>
    </dc:creator>
   </cc:Work>
  </rdf:RDF>
 </metadata>
 <defs>
  <style type="text/css">*{stroke-linejoin: round; stroke-linecap: butt}</style>
 </defs>
 <g id="figure_1">
  <g id="patch_1">
   <path d="M 0 351.126562 
L 762.821745 351.126562 
L 762.821745 0 
L 0 0 
z
" style="fill: #ffffff"/>
  </g>
  <g id="axes_1">
   <g id="patch_2">
    <path d="M 58.523438 313.292187 
L 374.216158 313.292187 
L 374.216158 20.798437 
L 58.523438 20.798437 
z
" style="fill: #ffffff"/>
   </g>
   <g id="matplotlib.axis_1">
    <g id="xtick_1">
     <g id="line2d_1">
      <defs>
       <path id="m01dcb62ac1" d="M 0 0 
L 0 3.5 
" style="stroke: #262626; stroke-width: 0.8"/>
      </defs>
      <g>
       <use xlink:href="#m01dcb62ac1" x="111.138891" y="313.292187" style="fill: #262626; stroke: #262626; stroke-width: 0.8"/>
      </g>
     </g>
     <g id="text_1">
      <!-- map2 -->
      <g style="fill: #262626" transform="translate(96.849047 327.890625)scale(0.1 -0.1)">
       <defs>
        <path id="DejaVuSans-6d" d="M 3328 2828 
Q 3544 3216 3844 3400 
Q 4144 3584 4550 3584 
Q 5097 3584 5394 3201 
Q 5691 2819 5691 2113 
L 5691 0 
L 5113 0 
L 5113 2094 
Q 5113 2597 4934 2840 
Q 4756 3084 4391 3084 
Q 3944 3084 3684 2787 
Q 3425 2491 3425 1978 
L 3425 0 
L 2847 0 
L 2847 2094 
Q 2847 2600 2669 2842 
Q 2491 3084 2119 3084 
Q 1678 3084 1418 2786 
Q 1159 2488 1159 1978 
L 1159 0 
L 581 0 
L 581 3500 
L 1159 3500 
L 1159 2956 
Q 1356 3278 1631 3431 
Q 1906 3584 2284 3584 
Q 2666 3584 2933 3390 
Q 3200 3197 3328 2828 
z
" transform="scale(0.015625)"/>
        <path id="DejaVuSans-61" d="M 2194 1759 
Q 1497 1759 1228 1600 
Q 959 1441 959 1056 
Q 959 750 1161 570 
Q 1363 391 1709 391 
Q 2188 391 2477 730 
Q 2766 1069 2766 1631 
L 2766 1759 
L 2194 1759 
z
M 3341 1997 
L 3341 0 
L 2766 0 
L 2766 531 
Q 2569 213 2275 61 
Q 1981 -91 1556 -91 
Q 1019 -91 701 211 
Q 384 513 384 1019 
Q 384 1609 779 1909 
Q 1175 2209 1959 2209 
L 2766 2209 
L 2766 2266 
Q 2766 2663 2505 2880 
Q 2244 3097 1772 3097 
Q 1472 3097 1187 3025 
Q 903 2953 641 2809 
L 641 3341 
Q 956 3463 1253 3523 
Q 1550 3584 1831 3584 
Q 2591 3584 2966 3190 
Q 3341 2797 3341 1997 
z
" transform="scale(0.015625)"/>
        <path id="DejaVuSans-70" d="M 1159 525 
L 1159 -1331 
L 581 -1331 
L 581 3500 
L 1159 3500 
L 1159 2969 
Q 1341 3281 1617 3432 
Q 1894 3584 2278 3584 
Q 2916 3584 3314 3078 
Q 3713 2572 3713 1747 
Q 3713 922 3314 415 
Q 2916 -91 2278 -91 
Q 1894 -91 1617 61 
Q 1341 213 1159 525 
z
M 3116 1747 
Q 3116 2381 2855 2742 
Q 2594 3103 2138 3103 
Q 1681 3103 1420 2742 
Q 1159 2381 1159 1747 
Q 1159 1113 1420 752 
Q 1681 391 2138 391 
Q 2594 391 2855 752 
Q 3116 1113 3116 1747 
z
" transform="scale(0.015625)"/>
        <path id="DejaVuSans-32" d="M 1228 531 
L 3431 531 
L 3431 0 
L 469 0 
L 469 531 
Q 828 903 1448 1529 
Q 2069 2156 2228 2338 
Q 2531 2678 2651 2914 
Q 2772 3150 2772 3378 
Q 2772 3750 2511 3984 
Q 2250 4219 1831 4219 
Q 1534 4219 1204 4116 
Q 875 4013 500 3803 
L 500 4441 
Q 881 4594 1212 4672 
Q 1544 4750 1819 4750 
Q 2544 4750 2975 4387 
Q 3406 4025 3406 3419 
Q 3406 3131 3298 2873 
Q 3191 2616 2906 2266 
Q 2828 2175 2409 1742 
Q 1991 1309 1228 531 
z
" transform="scale(0.015625)"/>
       </defs>
       <use xlink:href="#DejaVuSans-6d"/>
       <use xlink:href="#DejaVuSans-61" x="97.412109"/>
       <use xlink:href="#DejaVuSans-70" x="158.691406"/>
       <use xlink:href="#DejaVuSans-32" x="222.167969"/>
      </g>
     </g>
    </g>
    <g id="xtick_2">
     <g id="line2d_2">
      <g>
       <use xlink:href="#m01dcb62ac1" x="216.369798" y="313.292187" style="fill: #262626; stroke: #262626; stroke-width: 0.8"/>
      </g>
     </g>
     <g id="text_2">
      <!-- map5 -->
      <g style="fill: #262626" transform="translate(202.079954 327.890625)scale(0.1 -0.1)">
       <defs>
        <path id="DejaVuSans-35" d="M 691 4666 
L 3169 4666 
L 3169 4134 
L 1269 4134 
L 1269 2991 
Q 1406 3038 1543 3061 
Q 1681 3084 1819 3084 
Q 2600 3084 3056 2656 
Q 3513 2228 3513 1497 
Q 3513 744 3044 326 
Q 2575 -91 1722 -91 
Q 1428 -91 1123 -41 
Q 819 9 494 109 
L 494 744 
Q 775 591 1075 516 
Q 1375 441 1709 441 
Q 2250 441 2565 725 
Q 2881 1009 2881 1497 
Q 2881 1984 2565 2268 
Q 2250 2553 1709 2553 
Q 1456 2553 1204 2497 
Q 953 2441 691 2322 
L 691 4666 
z
" transform="scale(0.015625)"/>
       </defs>
       <use xlink:href="#DejaVuSans-6d"/>
       <use xlink:href="#DejaVuSans-61" x="97.412109"/>
       <use xlink:href="#DejaVuSans-70" x="158.691406"/>
       <use xlink:href="#DejaVuSans-35" x="222.167969"/>
      </g>
     </g>
    </g>
    <g id="xtick_3">
     <g id="line2d_3">
      <g>
       <use xlink:href="#m01dcb62ac1" x="321.600705" y="313.292187" style="fill: #262626; stroke: #262626; stroke-width: 0.8"/>
      </g>
     </g>
     <g id="text_3">
      <!-- small_warehouse -->
      <g style="fill: #262626" transform="translate(278.532736 327.890625)scale(0.1 -0.1)">
       <defs>
        <path id="DejaVuSans-73" d="M 2834 3397 
L 2834 2853 
Q 2591 2978 2328 3040 
Q 2066 3103 1784 3103 
Q 1356 3103 1142 2972 
Q 928 2841 928 2578 
Q 928 2378 1081 2264 
Q 1234 2150 1697 2047 
L 1894 2003 
Q 2506 1872 2764 1633 
Q 3022 1394 3022 966 
Q 3022 478 2636 193 
Q 2250 -91 1575 -91 
Q 1294 -91 989 -36 
Q 684 19 347 128 
L 347 722 
Q 666 556 975 473 
Q 1284 391 1588 391 
Q 1994 391 2212 530 
Q 2431 669 2431 922 
Q 2431 1156 2273 1281 
Q 2116 1406 1581 1522 
L 1381 1569 
Q 847 1681 609 1914 
Q 372 2147 372 2553 
Q 372 3047 722 3315 
Q 1072 3584 1716 3584 
Q 2034 3584 2315 3537 
Q 2597 3491 2834 3397 
z
" transform="scale(0.015625)"/>
        <path id="DejaVuSans-6c" d="M 603 4863 
L 1178 4863 
L 1178 0 
L 603 0 
L 603 4863 
z
" transform="scale(0.015625)"/>
        <path id="DejaVuSans-5f" d="M 3263 -1063 
L 3263 -1509 
L -63 -1509 
L -63 -1063 
L 3263 -1063 
z
" transform="scale(0.015625)"/>
        <path id="DejaVuSans-77" d="M 269 3500 
L 844 3500 
L 1563 769 
L 2278 3500 
L 2956 3500 
L 3675 769 
L 4391 3500 
L 4966 3500 
L 4050 0 
L 3372 0 
L 2619 2869 
L 1863 0 
L 1184 0 
L 269 3500 
z
" transform="scale(0.015625)"/>
        <path id="DejaVuSans-72" d="M 2631 2963 
Q 2534 3019 2420 3045 
Q 2306 3072 2169 3072 
Q 1681 3072 1420 2755 
Q 1159 2438 1159 1844 
L 1159 0 
L 581 0 
L 581 3500 
L 1159 3500 
L 1159 2956 
Q 1341 3275 1631 3429 
Q 1922 3584 2338 3584 
Q 2397 3584 2469 3576 
Q 2541 3569 2628 3553 
L 2631 2963 
z
" transform="scale(0.015625)"/>
        <path id="DejaVuSans-65" d="M 3597 1894 
L 3597 1613 
L 953 1613 
Q 991 1019 1311 708 
Q 1631 397 2203 397 
Q 2534 397 2845 478 
Q 3156 559 3463 722 
L 3463 178 
Q 3153 47 2828 -22 
Q 2503 -91 2169 -91 
Q 1331 -91 842 396 
Q 353 884 353 1716 
Q 353 2575 817 3079 
Q 1281 3584 2069 3584 
Q 2775 3584 3186 3129 
Q 3597 2675 3597 1894 
z
M 3022 2063 
Q 3016 2534 2758 2815 
Q 2500 3097 2075 3097 
Q 1594 3097 1305 2825 
Q 1016 2553 972 2059 
L 3022 2063 
z
" transform="scale(0.015625)"/>
        <path id="DejaVuSans-68" d="M 3513 2113 
L 3513 0 
L 2938 0 
L 2938 2094 
Q 2938 2591 2744 2837 
Q 2550 3084 2163 3084 
Q 1697 3084 1428 2787 
Q 1159 2491 1159 1978 
L 1159 0 
L 581 0 
L 581 4863 
L 1159 4863 
L 1159 2956 
Q 1366 3272 1645 3428 
Q 1925 3584 2291 3584 
Q 2894 3584 3203 3211 
Q 3513 2838 3513 2113 
z
" transform="scale(0.015625)"/>
        <path id="DejaVuSans-6f" d="M 1959 3097 
Q 1497 3097 1228 2736 
Q 959 2375 959 1747 
Q 959 1119 1226 758 
Q 1494 397 1959 397 
Q 2419 397 2687 759 
Q 2956 1122 2956 1747 
Q 2956 2369 2687 2733 
Q 2419 3097 1959 3097 
z
M 1959 3584 
Q 2709 3584 3137 3096 
Q 3566 2609 3566 1747 
Q 3566 888 3137 398 
Q 2709 -91 1959 -91 
Q 1206 -91 779 398 
Q 353 888 353 1747 
Q 353 2609 779 3096 
Q 1206 3584 1959 3584 
z
" transform="scale(0.015625)"/>
        <path id="DejaVuSans-75" d="M 544 1381 
L 544 3500 
L 1119 3500 
L 1119 1403 
Q 1119 906 1312 657 
Q 1506 409 1894 409 
Q 2359 409 2629 706 
Q 2900 1003 2900 1516 
L 2900 3500 
L 3475 3500 
L 3475 0 
L 2900 0 
L 2900 538 
Q 2691 219 2414 64 
Q 2138 -91 1772 -91 
Q 1169 -91 856 284 
Q 544 659 544 1381 
z
M 1991 3584 
L 1991 3584 
z
" transform="scale(0.015625)"/>
       </defs>
       <use xlink:href="#DejaVuSans-73"/>
       <use xlink:href="#DejaVuSans-6d" x="52.099609"/>
       <use xlink:href="#DejaVuSans-61" x="149.511719"/>
       <use xlink:href="#DejaVuSans-6c" x="210.791016"/>
       <use xlink:href="#DejaVuSans-6c" x="238.574219"/>
       <use xlink:href="#DejaVuSans-5f" x="266.357422"/>
       <use xlink:href="#DejaVuSans-77" x="316.357422"/>
       <use xlink:href="#DejaVuSans-61" x="398.144531"/>
       <use xlink:href="#DejaVuSans-72" x="459.423828"/>
       <use xlink:href="#DejaVuSans-65" x="498.287109"/>
       <use xlink:href="#DejaVuSans-68" x="559.810547"/>
       <use xlink:href="#DejaVuSans-6f" x="623.189453"/>
       <use xlink:href="#DejaVuSans-75" x="684.371094"/>
       <use xlink:href="#DejaVuSans-73" x="747.75"/>
       <use xlink:href="#DejaVuSans-65" x="799.849609"/>
      </g>
     </g>
    </g>
    <g id="text_4">
     <!-- World -->
     <g style="fill: #262626" transform="translate(202.041673 341.846875)scale(0.1 -0.1)">
      <defs>
       <path id="DejaVuSans-57" d="M 213 4666 
L 850 4666 
L 1831 722 
L 2809 4666 
L 3519 4666 
L 4500 722 
L 5478 4666 
L 6119 4666 
L 4947 0 
L 4153 0 
L 3169 4050 
L 2175 0 
L 1381 0 
L 213 4666 
z
" transform="scale(0.015625)"/>
       <path id="DejaVuSans-64" d="M 2906 2969 
L 2906 4863 
L 3481 4863 
L 3481 0 
L 2906 0 
L 2906 525 
Q 2725 213 2448 61 
Q 2172 -91 1784 -91 
Q 1150 -91 751 415 
Q 353 922 353 1747 
Q 353 2572 751 3078 
Q 1150 3584 1784 3584 
Q 2172 3584 2448 3432 
Q 2725 3281 2906 2969 
z
M 947 1747 
Q 947 1113 1208 752 
Q 1469 391 1925 391 
Q 2381 391 2643 752 
Q 2906 1113 2906 1747 
Q 2906 2381 2643 2742 
Q 2381 3103 1925 3103 
Q 1469 3103 1208 2742 
Q 947 2381 947 1747 
z
" transform="scale(0.015625)"/>
      </defs>
      <use xlink:href="#DejaVuSans-57"/>
      <use xlink:href="#DejaVuSans-6f" x="93.001953"/>
      <use xlink:href="#DejaVuSans-72" x="154.183594"/>
      <use xlink:href="#DejaVuSans-6c" x="195.296875"/>
      <use xlink:href="#DejaVuSans-64" x="223.080078"/>
     </g>
    </g>
   </g>
   <g id="matplotlib.axis_2">
    <g id="ytick_1">
     <g id="line2d_4">
      <defs>
       <path id="m8177469b3d" d="M 0 0 
L -3.5 0 
" style="stroke: #262626; stroke-width: 0.8"/>
      </defs>
      <g>
       <use xlink:href="#m8177469b3d" x="58.523438" y="284.31314" style="fill: #262626; stroke: #262626; stroke-width: 0.8"/>
      </g>
     </g>
     <g id="text_5">
      <!-- −0.25 -->
      <g style="fill: #262626" transform="translate(20.878125 288.112359)scale(0.1 -0.1)">
       <defs>
        <path id="DejaVuSans-2212" d="M 678 2272 
L 4684 2272 
L 4684 1741 
L 678 1741 
L 678 2272 
z
" transform="scale(0.015625)"/>
        <path id="DejaVuSans-30" d="M 2034 4250 
Q 1547 4250 1301 3770 
Q 1056 3291 1056 2328 
Q 1056 1369 1301 889 
Q 1547 409 2034 409 
Q 2525 409 2770 889 
Q 3016 1369 3016 2328 
Q 3016 3291 2770 3770 
Q 2525 4250 2034 4250 
z
M 2034 4750 
Q 2819 4750 3233 4129 
Q 3647 3509 3647 2328 
Q 3647 1150 3233 529 
Q 2819 -91 2034 -91 
Q 1250 -91 836 529 
Q 422 1150 422 2328 
Q 422 3509 836 4129 
Q 1250 4750 2034 4750 
z
" transform="scale(0.015625)"/>
        <path id="DejaVuSans-2e" d="M 684 794 
L 1344 794 
L 1344 0 
L 684 0 
L 684 794 
z
" transform="scale(0.015625)"/>
       </defs>
       <use xlink:href="#DejaVuSans-2212"/>
       <use xlink:href="#DejaVuSans-30" x="83.789062"/>
       <use xlink:href="#DejaVuSans-2e" x="147.412109"/>
       <use xlink:href="#DejaVuSans-32" x="179.199219"/>
       <use xlink:href="#DejaVuSans-35" x="242.822266"/>
      </g>
     </g>
    </g>
    <g id="ytick_2">
     <g id="line2d_5">
      <g>
       <use xlink:href="#m8177469b3d" x="58.523438" y="245.223864" style="fill: #262626; stroke: #262626; stroke-width: 0.8"/>
      </g>
     </g>
     <g id="text_6">
      <!-- 0.00 -->
      <g style="fill: #262626" transform="translate(29.257813 249.023083)scale(0.1 -0.1)">
       <use xlink:href="#DejaVuSans-30"/>
       <use xlink:href="#DejaVuSans-2e" x="63.623047"/>
       <use xlink:href="#DejaVuSans-30" x="95.410156"/>
       <use xlink:href="#DejaVuSans-30" x="159.033203"/>
      </g>
     </g>
    </g>
    <g id="ytick_3">
     <g id="line2d_6">
      <g>
       <use xlink:href="#m8177469b3d" x="58.523438" y="206.134588" style="fill: #262626; stroke: #262626; stroke-width: 0.8"/>
      </g>
     </g>
     <g id="text_7">
      <!-- 0.25 -->
      <g style="fill: #262626" transform="translate(29.257813 209.933807)scale(0.1 -0.1)">
       <use xlink:href="#DejaVuSans-30"/>
       <use xlink:href="#DejaVuSans-2e" x="63.623047"/>
       <use xlink:href="#DejaVuSans-32" x="95.410156"/>
       <use xlink:href="#DejaVuSans-35" x="159.033203"/>
      </g>
     </g>
    </g>
    <g id="ytick_4">
     <g id="line2d_7">
      <g>
       <use xlink:href="#m8177469b3d" x="58.523438" y="167.045312" style="fill: #262626; stroke: #262626; stroke-width: 0.8"/>
      </g>
     </g>
     <g id="text_8">
      <!-- 0.50 -->
      <g style="fill: #262626" transform="translate(29.257813 170.844531)scale(0.1 -0.1)">
       <use xlink:href="#DejaVuSans-30"/>
       <use xlink:href="#DejaVuSans-2e" x="63.623047"/>
       <use xlink:href="#DejaVuSans-35" x="95.410156"/>
       <use xlink:href="#DejaVuSans-30" x="159.033203"/>
      </g>
     </g>
    </g>
    <g id="ytick_5">
     <g id="line2d_8">
      <g>
       <use xlink:href="#m8177469b3d" x="58.523438" y="127.956037" style="fill: #262626; stroke: #262626; stroke-width: 0.8"/>
      </g>
     </g>
     <g id="text_9">
      <!-- 0.75 -->
      <g style="fill: #262626" transform="translate(29.257813 131.755255)scale(0.1 -0.1)">
       <defs>
        <path id="DejaVuSans-37" d="M 525 4666 
L 3525 4666 
L 3525 4397 
L 1831 0 
L 1172 0 
L 2766 4134 
L 525 4134 
L 525 4666 
z
" transform="scale(0.015625)"/>
       </defs>
       <use xlink:href="#DejaVuSans-30"/>
       <use xlink:href="#DejaVuSans-2e" x="63.623047"/>
       <use xlink:href="#DejaVuSans-37" x="95.410156"/>
       <use xlink:href="#DejaVuSans-35" x="159.033203"/>
      </g>
     </g>
    </g>
    <g id="ytick_6">
     <g id="line2d_9">
      <g>
       <use xlink:href="#m8177469b3d" x="58.523438" y="88.866761" style="fill: #262626; stroke: #262626; stroke-width: 0.8"/>
      </g>
     </g>
     <g id="text_10">
      <!-- 1.00 -->
      <g style="fill: #262626" transform="translate(29.257813 92.665979)scale(0.1 -0.1)">
       <defs>
        <path id="DejaVuSans-31" d="M 794 531 
L 1825 531 
L 1825 4091 
L 703 3866 
L 703 4441 
L 1819 4666 
L 2450 4666 
L 2450 531 
L 3481 531 
L 3481 0 
L 794 0 
L 794 531 
z
" transform="scale(0.015625)"/>
       </defs>
       <use xlink:href="#DejaVuSans-31"/>
       <use xlink:href="#DejaVuSans-2e" x="63.623047"/>
       <use xlink:href="#DejaVuSans-30" x="95.410156"/>
       <use xlink:href="#DejaVuSans-30" x="159.033203"/>
      </g>
     </g>
    </g>
    <g id="ytick_7">
     <g id="line2d_10">
      <g>
       <use xlink:href="#m8177469b3d" x="58.523438" y="49.777485" style="fill: #262626; stroke: #262626; stroke-width: 0.8"/>
      </g>
     </g>
     <g id="text_11">
      <!-- 1.25 -->
      <g style="fill: #262626" transform="translate(29.257813 53.576703)scale(0.1 -0.1)">
       <use xlink:href="#DejaVuSans-31"/>
       <use xlink:href="#DejaVuSans-2e" x="63.623047"/>
       <use xlink:href="#DejaVuSans-32" x="95.410156"/>
       <use xlink:href="#DejaVuSans-35" x="159.033203"/>
      </g>
     </g>
    </g>
    <g id="text_12">
     <!-- success -->
     <g style="fill: #262626" transform="translate(14.798438 186.603125)rotate(-90)scale(0.1 -0.1)">
      <defs>
       <path id="DejaVuSans-63" d="M 3122 3366 
L 3122 2828 
Q 2878 2963 2633 3030 
Q 2388 3097 2138 3097 
Q 1578 3097 1268 2742 
Q 959 2388 959 1747 
Q 959 1106 1268 751 
Q 1578 397 2138 397 
Q 2388 397 2633 464 
Q 2878 531 3122 666 
L 3122 134 
Q 2881 22 2623 -34 
Q 2366 -91 2075 -91 
Q 1284 -91 818 406 
Q 353 903 353 1747 
Q 353 2603 823 3093 
Q 1294 3584 2113 3584 
Q 2378 3584 2631 3529 
Q 2884 3475 3122 3366 
z
" transform="scale(0.015625)"/>
      </defs>
      <use xlink:href="#DejaVuSans-73"/>
      <use xlink:href="#DejaVuSans-75" x="52.099609"/>
      <use xlink:href="#DejaVuSans-63" x="115.478516"/>
      <use xlink:href="#DejaVuSans-63" x="170.458984"/>
      <use xlink:href="#DejaVuSans-65" x="225.439453"/>
      <use xlink:href="#DejaVuSans-73" x="286.962891"/>
      <use xlink:href="#DejaVuSans-73" x="339.0625"/>
     </g>
    </g>
   </g>
   <g id="patch_3">
    <path d="M 111.138891 245.223864 
L 111.138891 245.223864 
L 111.138891 245.223864 
L 111.138891 245.223864 
z
" clip-path="url(#pa61a82eb86)" style="fill: #5875a4; stroke: #4c4c4c; stroke-width: 0.75; stroke-linejoin: miter"/>
   </g>
   <g id="PolyCollection_1">
    <defs>
     <path id="mc3743bd91f" d="M 111.138891 -76.50236 
L 110.673557 -76.50236 
L 110.520258 -78.67567 
L 110.334238 -80.848981 
L 110.11491 -83.022292 
L 109.863973 -85.195603 
L 109.585859 -87.368914 
L 109.28798 -89.542225 
L 108.980657 -91.715536 
L 108.676717 -93.888847 
L 108.390704 -96.062158 
L 108.137784 -98.235469 
L 107.932445 -100.40878 
L 107.787123 -102.582091 
L 107.710965 -104.755401 
L 107.708874 -106.928712 
L 107.780985 -109.102023 
L 107.922652 -111.275334 
L 108.124945 -113.448645 
L 108.375578 -115.621956 
L 108.660144 -117.795267 
L 108.963478 -119.968578 
L 109.270969 -122.141889 
L 109.569674 -124.3152 
L 109.849113 -126.488511 
L 110.101711 -128.661822 
L 110.322871 -130.835132 
L 110.510753 -133.008443 
L 110.665831 -135.181754 
L 110.790325 -137.355065 
L 110.887609 -139.528376 
L 110.961657 -141.701687 
L 111.016588 -143.874998 
L 111.056318 -146.048309 
L 111.084348 -148.22162 
L 111.103641 -150.394931 
L 111.116603 -152.568242 
L 111.125103 -154.741553 
L 111.130546 -156.914864 
L 111.133949 -159.088174 
L 111.136028 -161.261485 
L 111.137268 -163.434796 
L 111.137991 -165.608107 
L 111.138403 -167.781418 
L 111.138632 -169.954729 
L 111.138756 -172.12804 
L 111.138822 -174.301351 
L 111.138855 -176.474662 
L 111.138871 -178.647973 
L 111.138874 -180.821284 
L 111.138868 -182.994595 
L 111.138846 -185.167905 
L 111.138797 -187.341216 
L 111.138695 -189.514527 
L 111.138489 -191.687838 
L 111.138084 -193.861149 
L 111.137302 -196.03446 
L 111.135832 -198.207771 
L 111.133128 -200.381082 
L 111.128271 -202.554393 
L 111.119741 -204.727704 
L 111.105106 -206.901015 
L 111.080578 -209.074326 
L 111.040417 -211.247636 
L 110.976191 -213.420947 
L 110.875889 -215.594258 
L 110.722944 -217.767569 
L 110.495279 -219.94088 
L 110.164534 -222.114191 
L 109.695715 -224.287502 
L 109.047535 -226.460813 
L 108.173759 -228.634124 
L 107.025807 -230.807435 
L 105.556779 -232.980746 
L 103.726864 -235.154057 
L 101.509854 -237.327368 
L 98.900167 -239.500678 
L 95.919514 -241.673989 
L 92.622129 -243.8473 
L 89.097415 -246.020611 
L 85.469018 -248.193922 
L 81.889676 -250.367233 
L 78.531793 -252.540544 
L 75.574324 -254.713855 
L 73.18727 -256.887166 
L 71.515596 -259.060477 
L 70.664691 -261.233788 
L 70.689367 -263.407099 
L 71.588026 -265.580409 
L 73.302823 -267.75372 
L 75.725832 -269.927031 
L 78.710281 -272.100342 
L 82.085243 -274.273653 
L 85.671736 -276.446964 
L 89.298136 -278.620275 
L 92.813118 -280.793586 
L 96.094854 -282.966897 
L 99.055915 -285.140208 
L 101.64398 -287.313519 
L 103.839018 -289.48683 
L 105.647945 -291.66014 
L 111.138891 -291.66014 
L 111.138891 -291.66014 
L 111.138891 -289.48683 
L 111.138891 -287.313519 
L 111.138891 -285.140208 
L 111.138891 -282.966897 
L 111.138891 -280.793586 
L 111.138891 -278.620275 
L 111.138891 -276.446964 
L 111.138891 -274.273653 
L 111.138891 -272.100342 
L 111.138891 -269.927031 
L 111.138891 -267.75372 
L 111.138891 -265.580409 
L 111.138891 -263.407099 
L 111.138891 -261.233788 
L 111.138891 -259.060477 
L 111.138891 -256.887166 
L 111.138891 -254.713855 
L 111.138891 -252.540544 
L 111.138891 -250.367233 
L 111.138891 -248.193922 
L 111.138891 -246.020611 
L 111.138891 -243.8473 
L 111.138891 -241.673989 
L 111.138891 -239.500678 
L 111.138891 -237.327368 
L 111.138891 -235.154057 
L 111.138891 -232.980746 
L 111.138891 -230.807435 
L 111.138891 -228.634124 
L 111.138891 -226.460813 
L 111.138891 -224.287502 
L 111.138891 -222.114191 
L 111.138891 -219.94088 
L 111.138891 -217.767569 
L 111.138891 -215.594258 
L 111.138891 -213.420947 
L 111.138891 -211.247636 
L 111.138891 -209.074326 
L 111.138891 -206.901015 
L 111.138891 -204.727704 
L 111.138891 -202.554393 
L 111.138891 -200.381082 
L 111.138891 -198.207771 
L 111.138891 -196.03446 
L 111.138891 -193.861149 
L 111.138891 -191.687838 
L 111.138891 -189.514527 
L 111.138891 -187.341216 
L 111.138891 -185.167905 
L 111.138891 -182.994595 
L 111.138891 -180.821284 
L 111.138891 -178.647973 
L 111.138891 -176.474662 
L 111.138891 -174.301351 
L 111.138891 -172.12804 
L 111.138891 -169.954729 
L 111.138891 -167.781418 
L 111.138891 -165.608107 
L 111.138891 -163.434796 
L 111.138891 -161.261485 
L 111.138891 -159.088174 
L 111.138891 -156.914864 
L 111.138891 -154.741553 
L 111.138891 -152.568242 
L 111.138891 -150.394931 
L 111.138891 -148.22162 
L 111.138891 -146.048309 
L 111.138891 -143.874998 
L 111.138891 -141.701687 
L 111.138891 -139.528376 
L 111.138891 -137.355065 
L 111.138891 -135.181754 
L 111.138891 -133.008443 
L 111.138891 -130.835132 
L 111.138891 -128.661822 
L 111.138891 -126.488511 
L 111.138891 -124.3152 
L 111.138891 -122.141889 
L 111.138891 -119.968578 
L 111.138891 -117.795267 
L 111.138891 -115.621956 
L 111.138891 -113.448645 
L 111.138891 -111.275334 
L 111.138891 -109.102023 
L 111.138891 -106.928712 
L 111.138891 -104.755401 
L 111.138891 -102.582091 
L 111.138891 -100.40878 
L 111.138891 -98.235469 
L 111.138891 -96.062158 
L 111.138891 -93.888847 
L 111.138891 -91.715536 
L 111.138891 -89.542225 
L 111.138891 -87.368914 
L 111.138891 -85.195603 
L 111.138891 -83.022292 
L 111.138891 -80.848981 
L 111.138891 -78.67567 
L 111.138891 -76.50236 
z
" style="stroke: #4c4c4c; stroke-width: 1.5"/>
    </defs>
    <g clip-path="url(#pa61a82eb86)">
     <use xlink:href="#mc3743bd91f" x="0" y="351.126562" style="fill: #5875a4; stroke: #4c4c4c; stroke-width: 1.5"/>
    </g>
   </g>
   <g id="patch_4">
    <path d="M 111.138891 245.223864 
L 111.138891 245.223864 
L 111.138891 245.223864 
L 111.138891 245.223864 
z
" clip-path="url(#pa61a82eb86)" style="fill: #cc8963; stroke: #4c4c4c; stroke-width: 0.75; stroke-linejoin: miter"/>
   </g>
   <g id="PolyCollection_2">
    <defs>
     <path id="m53ea446c9c" d="M 111.587182 -77.41915 
L 111.138891 -77.41915 
L 111.138891 -79.57394 
L 111.138891 -81.72873 
L 111.138891 -83.88352 
L 111.138891 -86.03831 
L 111.138891 -88.193099 
L 111.138891 -90.347889 
L 111.138891 -92.502679 
L 111.138891 -94.657469 
L 111.138891 -96.812259 
L 111.138891 -98.967049 
L 111.138891 -101.121839 
L 111.138891 -103.276629 
L 111.138891 -105.431419 
L 111.138891 -107.586209 
L 111.138891 -109.740998 
L 111.138891 -111.895788 
L 111.138891 -114.050578 
L 111.138891 -116.205368 
L 111.138891 -118.360158 
L 111.138891 -120.514948 
L 111.138891 -122.669738 
L 111.138891 -124.824528 
L 111.138891 -126.979318 
L 111.138891 -129.134108 
L 111.138891 -131.288897 
L 111.138891 -133.443687 
L 111.138891 -135.598477 
L 111.138891 -137.753267 
L 111.138891 -139.908057 
L 111.138891 -142.062847 
L 111.138891 -144.217637 
L 111.138891 -146.372427 
L 111.138891 -148.527217 
L 111.138891 -150.682007 
L 111.138891 -152.836796 
L 111.138891 -154.991586 
L 111.138891 -157.146376 
L 111.138891 -159.301166 
L 111.138891 -161.455956 
L 111.138891 -163.610746 
L 111.138891 -165.765536 
L 111.138891 -167.920326 
L 111.138891 -170.075116 
L 111.138891 -172.229906 
L 111.138891 -174.384695 
L 111.138891 -176.539485 
L 111.138891 -178.694275 
L 111.138891 -180.849065 
L 111.138891 -183.003855 
L 111.138891 -185.158645 
L 111.138891 -187.313435 
L 111.138891 -189.468225 
L 111.138891 -191.623015 
L 111.138891 -193.777805 
L 111.138891 -195.932594 
L 111.138891 -198.087384 
L 111.138891 -200.242174 
L 111.138891 -202.396964 
L 111.138891 -204.551754 
L 111.138891 -206.706544 
L 111.138891 -208.861334 
L 111.138891 -211.016124 
L 111.138891 -213.170914 
L 111.138891 -215.325704 
L 111.138891 -217.480493 
L 111.138891 -219.635283 
L 111.138891 -221.790073 
L 111.138891 -223.944863 
L 111.138891 -226.099653 
L 111.138891 -228.254443 
L 111.138891 -230.409233 
L 111.138891 -232.564023 
L 111.138891 -234.718813 
L 111.138891 -236.873603 
L 111.138891 -239.028392 
L 111.138891 -241.183182 
L 111.138891 -243.337972 
L 111.138891 -245.492762 
L 111.138891 -247.647552 
L 111.138891 -249.802342 
L 111.138891 -251.957132 
L 111.138891 -254.111922 
L 111.138891 -256.266712 
L 111.138891 -258.421502 
L 111.138891 -260.576291 
L 111.138891 -262.731081 
L 111.138891 -264.885871 
L 111.138891 -267.040661 
L 111.138891 -269.195451 
L 111.138891 -271.350241 
L 111.138891 -273.505031 
L 111.138891 -275.659821 
L 111.138891 -277.814611 
L 111.138891 -279.969401 
L 111.138891 -282.12419 
L 111.138891 -284.27898 
L 111.138891 -286.43377 
L 111.138891 -288.58856 
L 111.138891 -290.74335 
L 116.838593 -290.74335 
L 116.838593 -290.74335 
L 118.764935 -288.58856 
L 121.111405 -286.43377 
L 123.884723 -284.27898 
L 127.060608 -282.12419 
L 130.577706 -279.969401 
L 134.334611 -277.814611 
L 138.191185 -275.659821 
L 141.974926 -273.505031 
L 145.492402 -271.350241 
L 148.544946 -269.195451 
L 150.946937 -267.040661 
L 152.544387 -264.885871 
L 153.231254 -262.731081 
L 152.961083 -260.576291 
L 151.752208 -258.421502 
L 149.685689 -256.266712 
L 146.896324 -254.111922 
L 143.558109 -251.957132 
L 139.86633 -249.802342 
L 136.018839 -247.647552 
L 132.19898 -245.492762 
L 128.562139 -243.337972 
L 125.227114 -241.183182 
L 122.272641 -239.028392 
L 119.738623 -236.873603 
L 117.631011 -234.718813 
L 115.92901 -232.564023 
L 114.593225 -230.409233 
L 113.573563 -228.254443 
L 112.816052 -226.099653 
L 112.268082 -223.944863 
L 111.881941 -221.790073 
L 111.61678 -219.635283 
L 111.439287 -217.480493 
L 111.323443 -215.325704 
L 111.249707 -213.170914 
L 111.203926 -211.016124 
L 111.176194 -208.861334 
L 111.159803 -206.706544 
L 111.150349 -204.551754 
L 111.145027 -202.396964 
L 111.142103 -200.242174 
L 111.140534 -198.087384 
L 111.139712 -195.932594 
L 111.139292 -193.777805 
L 111.139083 -191.623015 
L 111.138981 -189.468225 
L 111.138932 -187.313435 
L 111.13891 -185.158645 
L 111.1389 -183.003855 
L 111.138898 -180.849065 
L 111.138899 -178.694275 
L 111.138907 -176.539485 
L 111.138923 -174.384695 
L 111.138956 -172.229906 
L 111.13902 -170.075116 
L 111.139144 -167.920326 
L 111.139374 -165.765536 
L 111.139792 -163.610746 
L 111.140536 -161.455956 
L 111.141825 -159.301166 
L 111.144006 -157.146376 
L 111.147607 -154.991586 
L 111.153406 -152.836796 
L 111.162518 -150.682007 
L 111.176478 -148.527217 
L 111.197333 -146.372427 
L 111.227704 -144.217637 
L 111.270803 -142.062847 
L 111.330382 -139.908057 
L 111.41058 -137.753267 
L 111.515642 -135.598477 
L 111.649507 -133.443687 
L 111.815274 -131.288897 
L 112.014579 -129.134108 
L 112.246953 -126.979318 
L 112.509259 -124.824528 
L 112.795302 -122.669738 
L 113.095741 -120.514948 
L 113.398352 -118.360158 
L 113.688717 -116.205368 
L 113.951273 -114.050578 
L 114.170662 -111.895788 
L 114.333197 -109.740998 
L 114.428277 -107.586209 
L 114.449526 -105.431419 
L 114.395503 -103.276629 
L 114.269861 -101.121839 
L 114.08094 -98.967049 
L 113.840852 -96.812259 
L 113.564197 -94.657469 
L 113.2666 -92.502679 
L 112.963273 -90.347889 
L 112.667787 -88.193099 
L 112.391161 -86.03831 
L 112.141372 -83.88352 
L 111.923246 -81.72873 
L 111.738692 -79.57394 
L 111.587182 -77.41915 
z
" style="stroke: #4c4c4c; stroke-width: 1.5"/>
    </defs>
    <g clip-path="url(#pa61a82eb86)">
     <use xlink:href="#m53ea446c9c" x="0" y="351.126562" style="fill: #cc8963; stroke: #4c4c4c; stroke-width: 1.5"/>
    </g>
   </g>
   <g id="PolyCollection_3">
    <defs>
     <path id="m447b66fe12" d="M 216.369798 -82.746521 
L 216.089213 -82.746521 
L 215.97638 -84.793687 
L 215.835152 -86.840853 
L 215.66559 -88.888019 
L 215.4708 -90.935186 
L 215.257454 -92.982352 
L 215.035841 -95.029518 
L 214.819314 -97.076684 
L 214.623111 -99.123851 
L 214.462644 -101.171017 
L 214.351529 -103.218183 
L 214.299682 -105.265349 
L 214.311856 -107.312516 
L 214.386929 -109.359682 
L 214.518068 -111.406848 
L 214.69376 -113.454014 
L 214.899476 -115.501181 
L 215.119643 -117.548347 
L 215.339559 -119.595513 
L 215.546922 -121.642679 
L 215.732777 -123.689846 
L 215.891834 -125.737012 
L 216.022214 -127.784178 
L 216.124809 -129.831344 
L 216.202436 -131.878511 
L 216.258986 -133.925677 
L 216.298686 -135.972843 
L 216.325568 -138.020009 
L 216.343134 -140.067176 
L 216.354219 -142.114342 
L 216.360976 -144.161508 
L 216.364956 -146.208674 
L 216.367222 -148.255841 
L 216.36847 -150.303007 
L 216.369134 -152.350173 
L 216.369476 -154.397339 
L 216.369647 -156.444506 
L 216.369729 -158.491672 
L 216.369768 -160.538838 
L 216.369785 -162.586004 
L 216.369793 -164.633171 
L 216.369796 -166.680337 
L 216.369797 -168.727503 
L 216.369798 -170.774669 
L 216.369798 -172.821836 
L 216.369798 -174.869002 
L 216.369798 -176.916168 
L 216.369798 -178.963334 
L 216.369798 -181.010501 
L 216.369798 -183.057667 
L 216.369798 -185.104833 
L 216.369798 -187.151999 
L 216.369798 -189.199166 
L 216.369798 -191.246332 
L 216.369797 -193.293498 
L 216.369796 -195.340664 
L 216.369792 -197.387831 
L 216.369781 -199.434997 
L 216.369754 -201.482163 
L 216.369689 -203.529329 
L 216.369535 -205.576496 
L 216.369182 -207.623662 
L 216.368402 -209.670828 
L 216.366729 -211.717994 
L 216.363261 -213.765161 
L 216.356302 -215.812327 
L 216.342792 -217.859493 
L 216.317419 -219.906659 
L 216.271337 -221.953826 
L 216.190409 -224.000992 
L 216.053023 -226.048158 
L 215.827637 -228.095324 
L 215.470448 -230.142491 
L 214.923854 -232.189657 
L 214.116614 -234.236823 
L 212.966777 -236.283989 
L 211.388356 -238.331156 
L 209.302259 -240.378322 
L 206.651195 -242.425488 
L 203.417044 -244.472654 
L 199.637985 -246.519821 
L 195.421611 -248.566987 
L 190.949976 -250.614153 
L 186.473243 -252.661319 
L 182.290362 -254.708486 
L 178.717956 -256.755652 
L 176.051456 -258.802818 
L 174.52498 -260.849984 
L 174.277435 -262.897151 
L 175.331672 -264.944317 
L 177.591001 -266.991483 
L 180.853824 -269.038649 
L 184.8433 -271.085816 
L 189.246011 -273.132982 
L 193.752147 -275.180148 
L 198.090173 -277.227314 
L 202.050898 -279.274481 
L 205.498669 -281.321647 
L 208.37031 -283.368813 
L 210.664578 -285.415979 
L 216.369798 -285.415979 
L 216.369798 -285.415979 
L 216.369798 -283.368813 
L 216.369798 -281.321647 
L 216.369798 -279.274481 
L 216.369798 -277.227314 
L 216.369798 -275.180148 
L 216.369798 -273.132982 
L 216.369798 -271.085816 
L 216.369798 -269.038649 
L 216.369798 -266.991483 
L 216.369798 -264.944317 
L 216.369798 -262.897151 
L 216.369798 -260.849984 
L 216.369798 -258.802818 
L 216.369798 -256.755652 
L 216.369798 -254.708486 
L 216.369798 -252.661319 
L 216.369798 -250.614153 
L 216.369798 -248.566987 
L 216.369798 -246.519821 
L 216.369798 -244.472654 
L 216.369798 -242.425488 
L 216.369798 -240.378322 
L 216.369798 -238.331156 
L 216.369798 -236.283989 
L 216.369798 -234.236823 
L 216.369798 -232.189657 
L 216.369798 -230.142491 
L 216.369798 -228.095324 
L 216.369798 -226.048158 
L 216.369798 -224.000992 
L 216.369798 -221.953826 
L 216.369798 -219.906659 
L 216.369798 -217.859493 
L 216.369798 -215.812327 
L 216.369798 -213.765161 
L 216.369798 -211.717994 
L 216.369798 -209.670828 
L 216.369798 -207.623662 
L 216.369798 -205.576496 
L 216.369798 -203.529329 
L 216.369798 -201.482163 
L 216.369798 -199.434997 
L 216.369798 -197.387831 
L 216.369798 -195.340664 
L 216.369798 -193.293498 
L 216.369798 -191.246332 
L 216.369798 -189.199166 
L 216.369798 -187.151999 
L 216.369798 -185.104833 
L 216.369798 -183.057667 
L 216.369798 -181.010501 
L 216.369798 -178.963334 
L 216.369798 -176.916168 
L 216.369798 -174.869002 
L 216.369798 -172.821836 
L 216.369798 -170.774669 
L 216.369798 -168.727503 
L 216.369798 -166.680337 
L 216.369798 -164.633171 
L 216.369798 -162.586004 
L 216.369798 -160.538838 
L 216.369798 -158.491672 
L 216.369798 -156.444506 
L 216.369798 -154.397339 
L 216.369798 -152.350173 
L 216.369798 -150.303007 
L 216.369798 -148.255841 
L 216.369798 -146.208674 
L 216.369798 -144.161508 
L 216.369798 -142.114342 
L 216.369798 -140.067176 
L 216.369798 -138.020009 
L 216.369798 -135.972843 
L 216.369798 -133.925677 
L 216.369798 -131.878511 
L 216.369798 -129.831344 
L 216.369798 -127.784178 
L 216.369798 -125.737012 
L 216.369798 -123.689846 
L 216.369798 -121.642679 
L 216.369798 -119.595513 
L 216.369798 -117.548347 
L 216.369798 -115.501181 
L 216.369798 -113.454014 
L 216.369798 -111.406848 
L 216.369798 -109.359682 
L 216.369798 -107.312516 
L 216.369798 -105.265349 
L 216.369798 -103.218183 
L 216.369798 -101.171017 
L 216.369798 -99.123851 
L 216.369798 -97.076684 
L 216.369798 -95.029518 
L 216.369798 -92.982352 
L 216.369798 -90.935186 
L 216.369798 -88.888019 
L 216.369798 -86.840853 
L 216.369798 -84.793687 
L 216.369798 -82.746521 
z
" style="stroke: #4c4c4c; stroke-width: 1.5"/>
    </defs>
    <g clip-path="url(#pa61a82eb86)">
     <use xlink:href="#m447b66fe12" x="0" y="351.126562" style="fill: #5875a4; stroke: #4c4c4c; stroke-width: 1.5"/>
    </g>
   </g>
   <g id="PolyCollection_4">
    <defs>
     <path id="ma86146239d" d="M 216.789095 -73.189732 
L 216.369798 -73.189732 
L 216.369798 -75.429965 
L 216.369798 -77.670198 
L 216.369798 -79.91043 
L 216.369798 -82.150663 
L 216.369798 -84.390896 
L 216.369798 -86.631128 
L 216.369798 -88.871361 
L 216.369798 -91.111594 
L 216.369798 -93.351826 
L 216.369798 -95.592059 
L 216.369798 -97.832292 
L 216.369798 -100.072524 
L 216.369798 -102.312757 
L 216.369798 -104.55299 
L 216.369798 -106.793222 
L 216.369798 -109.033455 
L 216.369798 -111.273688 
L 216.369798 -113.51392 
L 216.369798 -115.754153 
L 216.369798 -117.994386 
L 216.369798 -120.234619 
L 216.369798 -122.474851 
L 216.369798 -124.715084 
L 216.369798 -126.955317 
L 216.369798 -129.195549 
L 216.369798 -131.435782 
L 216.369798 -133.676015 
L 216.369798 -135.916247 
L 216.369798 -138.15648 
L 216.369798 -140.396713 
L 216.369798 -142.636945 
L 216.369798 -144.877178 
L 216.369798 -147.117411 
L 216.369798 -149.357643 
L 216.369798 -151.597876 
L 216.369798 -153.838109 
L 216.369798 -156.078341 
L 216.369798 -158.318574 
L 216.369798 -160.558807 
L 216.369798 -162.79904 
L 216.369798 -165.039272 
L 216.369798 -167.279505 
L 216.369798 -169.519738 
L 216.369798 -171.75997 
L 216.369798 -174.000203 
L 216.369798 -176.240436 
L 216.369798 -178.480668 
L 216.369798 -180.720901 
L 216.369798 -182.961134 
L 216.369798 -185.201366 
L 216.369798 -187.441599 
L 216.369798 -189.681832 
L 216.369798 -191.922064 
L 216.369798 -194.162297 
L 216.369798 -196.40253 
L 216.369798 -198.642762 
L 216.369798 -200.882995 
L 216.369798 -203.123228 
L 216.369798 -205.36346 
L 216.369798 -207.603693 
L 216.369798 -209.843926 
L 216.369798 -212.084159 
L 216.369798 -214.324391 
L 216.369798 -216.564624 
L 216.369798 -218.804857 
L 216.369798 -221.045089 
L 216.369798 -223.285322 
L 216.369798 -225.525555 
L 216.369798 -227.765787 
L 216.369798 -230.00602 
L 216.369798 -232.246253 
L 216.369798 -234.486485 
L 216.369798 -236.726718 
L 216.369798 -238.966951 
L 216.369798 -241.207183 
L 216.369798 -243.447416 
L 216.369798 -245.687649 
L 216.369798 -247.927881 
L 216.369798 -250.168114 
L 216.369798 -252.408347 
L 216.369798 -254.64858 
L 216.369798 -256.888812 
L 216.369798 -259.129045 
L 216.369798 -261.369278 
L 216.369798 -263.60951 
L 216.369798 -265.849743 
L 216.369798 -268.089976 
L 216.369798 -270.330208 
L 216.369798 -272.570441 
L 216.369798 -274.810674 
L 216.369798 -277.050906 
L 216.369798 -279.291139 
L 216.369798 -281.531372 
L 216.369798 -283.771604 
L 216.369798 -286.011837 
L 216.369798 -288.25207 
L 216.369798 -290.492302 
L 216.369798 -292.732535 
L 216.369798 -294.972768 
L 220.187608 -294.972768 
L 220.187608 -294.972768 
L 221.343794 -292.732535 
L 222.729689 -290.492302 
L 224.350609 -288.25207 
L 226.19853 -286.011837 
L 228.249379 -283.771604 
L 230.461319 -281.531372 
L 232.774478 -279.291139 
L 235.112439 -277.050906 
L 237.385647 -274.810674 
L 239.496634 -272.570441 
L 241.346704 -270.330208 
L 242.84347 -268.089976 
L 243.908461 -265.849743 
L 244.483929 -263.60951 
L 244.538031 -261.369278 
L 244.067751 -259.129045 
L 243.099177 -256.888812 
L 241.685105 -254.64858 
L 239.900272 -252.408347 
L 237.834816 -250.168114 
L 235.586771 -247.927881 
L 233.25444 -245.687649 
L 230.929478 -243.447416 
L 228.691337 -241.207183 
L 226.603463 -238.966951 
L 224.711422 -236.726718 
L 223.042828 -234.486485 
L 221.608802 -232.246253 
L 220.406508 -230.00602 
L 219.422324 -227.765787 
L 218.635196 -225.525555 
L 218.019793 -223.285322 
L 217.549233 -221.045089 
L 217.197203 -218.804857 
L 216.939458 -216.564624 
L 216.754715 -214.324391 
L 216.625051 -212.084159 
L 216.53592 -209.843926 
L 216.475903 -207.603693 
L 216.43631 -205.36346 
L 216.410716 -203.123228 
L 216.394503 -200.882995 
L 216.384437 -198.642762 
L 216.378312 -196.40253 
L 216.374658 -194.162297 
L 216.372522 -191.922064 
L 216.3713 -189.681832 
L 216.370617 -187.441599 
L 216.37025 -185.201366 
L 216.370067 -182.961134 
L 216.37 -180.720901 
L 216.370019 -178.480668 
L 216.370125 -176.240436 
L 216.370345 -174.000203 
L 216.370739 -171.75997 
L 216.371409 -169.519738 
L 216.372513 -167.279505 
L 216.374292 -165.039272 
L 216.377103 -162.79904 
L 216.381451 -160.558807 
L 216.388043 -158.318574 
L 216.397832 -156.078341 
L 216.412072 -153.838109 
L 216.432362 -151.597876 
L 216.460669 -149.357643 
L 216.499331 -147.117411 
L 216.551011 -144.877178 
L 216.618599 -142.636945 
L 216.705047 -140.396713 
L 216.813136 -138.15648 
L 216.94518 -135.916247 
L 217.102674 -133.676015 
L 217.28593 -131.435782 
L 217.493726 -129.195549 
L 217.723031 -126.955317 
L 217.968838 -124.715084 
L 218.224181 -122.474851 
L 218.480333 -120.234619 
L 218.727228 -117.994386 
L 218.95407 -115.754153 
L 219.150092 -113.51392 
L 219.305395 -111.273688 
L 219.41177 -109.033455 
L 219.463419 -106.793222 
L 219.457477 -104.55299 
L 219.394275 -102.312757 
L 219.277311 -100.072524 
L 219.112926 -97.832292 
L 218.909739 -95.592059 
L 218.677897 -93.351826 
L 218.428238 -91.111594 
L 218.171468 -88.871361 
L 217.917422 -86.631128 
L 217.674492 -84.390896 
L 217.449254 -82.150663 
L 217.246303 -79.91043 
L 217.068283 -77.670198 
L 216.916075 -75.429965 
L 216.789095 -73.189732 
z
" style="stroke: #4c4c4c; stroke-width: 1.5"/>
    </defs>
    <g clip-path="url(#pa61a82eb86)">
     <use xlink:href="#ma86146239d" x="0" y="351.126562" style="fill: #cc8963; stroke: #4c4c4c; stroke-width: 1.5"/>
    </g>
   </g>
   <g id="PolyCollection_5">
    <defs>
     <path id="mc9d3a8679f" d="M 321.600705 -72.437046 
L 321.121664 -72.437046 
L 320.979112 -74.692485 
L 320.808663 -76.947923 
L 320.609645 -79.203362 
L 320.382946 -81.4588 
L 320.131333 -83.714238 
L 319.859652 -85.969677 
L 319.574882 -88.225115 
L 319.285974 -90.480554 
L 319.003483 -92.735992 
L 318.738986 -94.991431 
L 318.504325 -97.246869 
L 318.310742 -99.502308 
L 318.167994 -101.757746 
L 318.083539 -104.013185 
L 318.061889 -106.268623 
L 318.104213 -108.524062 
L 318.208231 -110.7795 
L 318.368417 -113.034938 
L 318.576489 -115.290377 
L 318.82211 -117.545815 
L 319.093748 -119.801254 
L 319.379554 -122.056692 
L 319.668208 -124.312131 
L 319.949622 -126.567569 
L 320.215454 -128.823008 
L 320.459411 -131.078446 
L 320.677335 -133.333885 
L 320.867098 -135.589323 
L 321.028356 -137.844762 
L 321.162207 -140.1002 
L 321.270804 -142.355638 
L 321.356975 -144.611077 
L 321.42388 -146.866515 
L 321.474729 -149.121954 
L 321.512571 -151.377392 
L 321.540156 -153.632831 
L 321.559856 -155.888269 
L 321.573643 -158.143708 
L 321.583099 -160.399146 
L 321.589457 -162.654585 
L 321.593647 -164.910023 
L 321.596355 -167.165462 
L 321.598069 -169.4209 
L 321.599129 -171.676338 
L 321.599766 -173.931777 
L 321.600128 -176.187215 
L 321.600303 -178.442654 
L 321.600332 -180.698092 
L 321.600214 -182.953531 
L 321.599901 -185.208969 
L 321.599285 -187.464408 
L 321.598166 -189.719846 
L 321.596208 -191.975285 
L 321.592864 -194.230723 
L 321.587268 -196.486162 
L 321.578088 -198.7416 
L 321.563321 -200.997038 
L 321.540022 -203.252477 
L 321.503977 -205.507915 
L 321.449296 -207.763354 
L 321.367971 -210.018792 
L 321.249405 -212.274231 
L 321.079984 -214.529669 
L 320.842753 -216.785108 
L 320.517308 -219.040546 
L 320.080007 -221.295985 
L 319.504624 -223.551423 
L 318.763555 -225.806862 
L 317.829621 -228.0623 
L 316.678503 -230.317738 
L 315.291682 -232.573177 
L 313.659722 -234.828615 
L 311.78558 -237.084054 
L 309.687548 -239.339492 
L 307.401392 -241.594931 
L 304.981232 -243.850369 
L 302.498804 -246.105808 
L 300.040872 -248.361246 
L 297.704792 -250.616685 
L 295.592444 -252.872123 
L 293.803032 -255.127562 
L 292.425427 -257.383 
L 291.530872 -259.638438 
L 291.166885 -261.893877 
L 291.353075 -264.149315 
L 292.07939 -266.404754 
L 293.307023 -268.660192 
L 294.971838 -270.915631 
L 296.989926 -273.171069 
L 299.264599 -275.426508 
L 301.694017 -277.681946 
L 304.178625 -279.937385 
L 306.627649 -282.192823 
L 308.964102 -284.448262 
L 311.127981 -286.7037 
L 313.077589 -288.959138 
L 314.789145 -291.214577 
L 316.255009 -293.470015 
L 317.48095 -295.725454 
L 321.600705 -295.725454 
L 321.600705 -295.725454 
L 321.600705 -293.470015 
L 321.600705 -291.214577 
L 321.600705 -288.959138 
L 321.600705 -286.7037 
L 321.600705 -284.448262 
L 321.600705 -282.192823 
L 321.600705 -279.937385 
L 321.600705 -277.681946 
L 321.600705 -275.426508 
L 321.600705 -273.171069 
L 321.600705 -270.915631 
L 321.600705 -268.660192 
L 321.600705 -266.404754 
L 321.600705 -264.149315 
L 321.600705 -261.893877 
L 321.600705 -259.638438 
L 321.600705 -257.383 
L 321.600705 -255.127562 
L 321.600705 -252.872123 
L 321.600705 -250.616685 
L 321.600705 -248.361246 
L 321.600705 -246.105808 
L 321.600705 -243.850369 
L 321.600705 -241.594931 
L 321.600705 -239.339492 
L 321.600705 -237.084054 
L 321.600705 -234.828615 
L 321.600705 -232.573177 
L 321.600705 -230.317738 
L 321.600705 -228.0623 
L 321.600705 -225.806862 
L 321.600705 -223.551423 
L 321.600705 -221.295985 
L 321.600705 -219.040546 
L 321.600705 -216.785108 
L 321.600705 -214.529669 
L 321.600705 -212.274231 
L 321.600705 -210.018792 
L 321.600705 -207.763354 
L 321.600705 -205.507915 
L 321.600705 -203.252477 
L 321.600705 -200.997038 
L 321.600705 -198.7416 
L 321.600705 -196.486162 
L 321.600705 -194.230723 
L 321.600705 -191.975285 
L 321.600705 -189.719846 
L 321.600705 -187.464408 
L 321.600705 -185.208969 
L 321.600705 -182.953531 
L 321.600705 -180.698092 
L 321.600705 -178.442654 
L 321.600705 -176.187215 
L 321.600705 -173.931777 
L 321.600705 -171.676338 
L 321.600705 -169.4209 
L 321.600705 -167.165462 
L 321.600705 -164.910023 
L 321.600705 -162.654585 
L 321.600705 -160.399146 
L 321.600705 -158.143708 
L 321.600705 -155.888269 
L 321.600705 -153.632831 
L 321.600705 -151.377392 
L 321.600705 -149.121954 
L 321.600705 -146.866515 
L 321.600705 -144.611077 
L 321.600705 -142.355638 
L 321.600705 -140.1002 
L 321.600705 -137.844762 
L 321.600705 -135.589323 
L 321.600705 -133.333885 
L 321.600705 -131.078446 
L 321.600705 -128.823008 
L 321.600705 -126.567569 
L 321.600705 -124.312131 
L 321.600705 -122.056692 
L 321.600705 -119.801254 
L 321.600705 -117.545815 
L 321.600705 -115.290377 
L 321.600705 -113.034938 
L 321.600705 -110.7795 
L 321.600705 -108.524062 
L 321.600705 -106.268623 
L 321.600705 -104.013185 
L 321.600705 -101.757746 
L 321.600705 -99.502308 
L 321.600705 -97.246869 
L 321.600705 -94.991431 
L 321.600705 -92.735992 
L 321.600705 -90.480554 
L 321.600705 -88.225115 
L 321.600705 -85.969677 
L 321.600705 -83.714238 
L 321.600705 -81.4588 
L 321.600705 -79.203362 
L 321.600705 -76.947923 
L 321.600705 -74.692485 
L 321.600705 -72.437046 
z
" style="stroke: #4c4c4c; stroke-width: 1.5"/>
    </defs>
    <g clip-path="url(#pa61a82eb86)">
     <use xlink:href="#mc9d3a8679f" x="0" y="351.126562" style="fill: #5875a4; stroke: #4c4c4c; stroke-width: 1.5"/>
    </g>
   </g>
   <g id="PolyCollection_6">
    <defs>
     <path id="ma7615cb666" d="M 321.947026 -80.442856 
L 321.600705 -80.442856 
L 321.600705 -82.536561 
L 321.600705 -84.630266 
L 321.600705 -86.723971 
L 321.600705 -88.817676 
L 321.600705 -90.911381 
L 321.600705 -93.005086 
L 321.600705 -95.098791 
L 321.600705 -97.192496 
L 321.600705 -99.286201 
L 321.600705 -101.379906 
L 321.600705 -103.473611 
L 321.600705 -105.567315 
L 321.600705 -107.66102 
L 321.600705 -109.754725 
L 321.600705 -111.84843 
L 321.600705 -113.942135 
L 321.600705 -116.03584 
L 321.600705 -118.129545 
L 321.600705 -120.22325 
L 321.600705 -122.316955 
L 321.600705 -124.41066 
L 321.600705 -126.504365 
L 321.600705 -128.59807 
L 321.600705 -130.691775 
L 321.600705 -132.785479 
L 321.600705 -134.879184 
L 321.600705 -136.972889 
L 321.600705 -139.066594 
L 321.600705 -141.160299 
L 321.600705 -143.254004 
L 321.600705 -145.347709 
L 321.600705 -147.441414 
L 321.600705 -149.535119 
L 321.600705 -151.628824 
L 321.600705 -153.722529 
L 321.600705 -155.816234 
L 321.600705 -157.909938 
L 321.600705 -160.003643 
L 321.600705 -162.097348 
L 321.600705 -164.191053 
L 321.600705 -166.284758 
L 321.600705 -168.378463 
L 321.600705 -170.472168 
L 321.600705 -172.565873 
L 321.600705 -174.659578 
L 321.600705 -176.753283 
L 321.600705 -178.846988 
L 321.600705 -180.940693 
L 321.600705 -183.034398 
L 321.600705 -185.128102 
L 321.600705 -187.221807 
L 321.600705 -189.315512 
L 321.600705 -191.409217 
L 321.600705 -193.502922 
L 321.600705 -195.596627 
L 321.600705 -197.690332 
L 321.600705 -199.784037 
L 321.600705 -201.877742 
L 321.600705 -203.971447 
L 321.600705 -206.065152 
L 321.600705 -208.158857 
L 321.600705 -210.252562 
L 321.600705 -212.346266 
L 321.600705 -214.439971 
L 321.600705 -216.533676 
L 321.600705 -218.627381 
L 321.600705 -220.721086 
L 321.600705 -222.814791 
L 321.600705 -224.908496 
L 321.600705 -227.002201 
L 321.600705 -229.095906 
L 321.600705 -231.189611 
L 321.600705 -233.283316 
L 321.600705 -235.377021 
L 321.600705 -237.470725 
L 321.600705 -239.56443 
L 321.600705 -241.658135 
L 321.600705 -243.75184 
L 321.600705 -245.845545 
L 321.600705 -247.93925 
L 321.600705 -250.032955 
L 321.600705 -252.12666 
L 321.600705 -254.220365 
L 321.600705 -256.31407 
L 321.600705 -258.407775 
L 321.600705 -260.50148 
L 321.600705 -262.595185 
L 321.600705 -264.688889 
L 321.600705 -266.782594 
L 321.600705 -268.876299 
L 321.600705 -270.970004 
L 321.600705 -273.063709 
L 321.600705 -275.157414 
L 321.600705 -277.251119 
L 321.600705 -279.344824 
L 321.600705 -281.438529 
L 321.600705 -283.532234 
L 321.600705 -285.625939 
L 321.600705 -287.719644 
L 327.299264 -287.719644 
L 327.299264 -287.719644 
L 329.412465 -285.625939 
L 332.023513 -283.532234 
L 335.136152 -281.438529 
L 338.709225 -279.344824 
L 342.648388 -277.251119 
L 346.803467 -275.157414 
L 350.973414 -273.063709 
L 354.919697 -270.970004 
L 358.38748 -268.876299 
L 361.132231 -266.782594 
L 362.948032 -264.688889 
L 363.693068 -262.595185 
L 363.307918 -260.50148 
L 361.823389 -258.407775 
L 359.356439 -256.31407 
L 356.094962 -254.220365 
L 352.274158 -252.12666 
L 348.148628 -250.032955 
L 343.964754 -247.93925 
L 339.937453 -245.845545 
L 336.234137 -243.75184 
L 332.967083 -241.658135 
L 330.193807 -239.56443 
L 327.923802 -237.470725 
L 326.129282 -235.377021 
L 324.757495 -233.283316 
L 323.742518 -231.189611 
L 323.015096 -229.095906 
L 322.5098 -227.002201 
L 322.169429 -224.908496 
L 321.946999 -222.814791 
L 321.805935 -220.721086 
L 321.719088 -218.627381 
L 321.667169 -216.533676 
L 321.637024 -214.439971 
L 321.620022 -212.346266 
L 321.610705 -210.252562 
L 321.605743 -208.158857 
L 321.603176 -206.065152 
L 321.601884 -203.971447 
L 321.601253 -201.877742 
L 321.600953 -199.784037 
L 321.600814 -197.690332 
L 321.600752 -195.596627 
L 321.600724 -193.502922 
L 321.600713 -191.409217 
L 321.600708 -189.315512 
L 321.600706 -187.221807 
L 321.600705 -185.128102 
L 321.600705 -183.034398 
L 321.600705 -180.940693 
L 321.600705 -178.846988 
L 321.600705 -176.753283 
L 321.600706 -174.659578 
L 321.600708 -172.565873 
L 321.600712 -170.472168 
L 321.60072 -168.378463 
L 321.600738 -166.284758 
L 321.600777 -164.191053 
L 321.600855 -162.097348 
L 321.601011 -160.003643 
L 321.601313 -157.909938 
L 321.601879 -155.816234 
L 321.602912 -153.722529 
L 321.604744 -151.628824 
L 321.607899 -149.535119 
L 321.613177 -147.441414 
L 321.62175 -145.347709 
L 321.635268 -143.254004 
L 321.655954 -141.160299 
L 321.686662 -139.066594 
L 321.73087 -136.972889 
L 321.792554 -134.879184 
L 321.875922 -132.785479 
L 321.984982 -130.691775 
L 322.122938 -128.59807 
L 322.291479 -126.504365 
L 322.49003 -124.41066 
L 322.715093 -122.316955 
L 322.959846 -120.22325 
L 323.214115 -118.129545 
L 323.464837 -116.03584 
L 323.697041 -113.942135 
L 323.895252 -111.84843 
L 324.045177 -109.754725 
L 324.135397 -107.66102 
L 324.158804 -105.567315 
L 324.113526 -103.473611 
L 324.003173 -101.379906 
L 323.836365 -99.286201 
L 323.625616 -97.192496 
L 323.385787 -95.098791 
L 323.132364 -93.005086 
L 322.879846 -90.911381 
L 322.640449 -88.817676 
L 322.423301 -86.723971 
L 322.234135 -84.630266 
L 322.075453 -82.536561 
L 321.947026 -80.442856 
z
" style="stroke: #4c4c4c; stroke-width: 1.5"/>
    </defs>
    <g clip-path="url(#pa61a82eb86)">
     <use xlink:href="#ma7615cb666" x="0" y="351.126562" style="fill: #cc8963; stroke: #4c4c4c; stroke-width: 1.5"/>
    </g>
   </g>
   <g id="line2d_11">
    <path d="M 111.138891 88.866761 
L 111.138891 88.866761 
" clip-path="url(#pa61a82eb86)" style="fill: none; stroke: #4c4c4c; stroke-width: 1.5; stroke-linecap: round"/>
   </g>
   <g id="line2d_12">
    <path d="M 111.138891 88.866761 
L 111.138891 88.866761 
" clip-path="url(#pa61a82eb86)" style="fill: none; stroke: #4c4c4c; stroke-width: 4.5; stroke-linecap: round"/>
   </g>
   <g id="line2d_13">
    <path d="M 216.369798 88.866761 
L 216.369798 88.866761 
" clip-path="url(#pa61a82eb86)" style="fill: none; stroke: #4c4c4c; stroke-width: 1.5; stroke-linecap: round"/>
   </g>
   <g id="line2d_14">
    <path d="M 216.369798 88.866761 
L 216.369798 88.866761 
" clip-path="url(#pa61a82eb86)" style="fill: none; stroke: #4c4c4c; stroke-width: 4.5; stroke-linecap: round"/>
   </g>
   <g id="line2d_15">
    <path d="M 321.600705 88.866761 
L 321.600705 88.866761 
" clip-path="url(#pa61a82eb86)" style="fill: none; stroke: #4c4c4c; stroke-width: 1.5; stroke-linecap: round"/>
   </g>
   <g id="line2d_16">
    <path d="M 321.600705 88.866761 
L 321.600705 88.866761 
" clip-path="url(#pa61a82eb86)" style="fill: none; stroke: #4c4c4c; stroke-width: 4.5; stroke-linecap: round"/>
   </g>
   <g id="patch_5">
    <path d="M 58.523438 313.292187 
L 58.523438 20.798437 
" style="fill: none; stroke: #262626; stroke-width: 0.8; stroke-linejoin: miter; stroke-linecap: square"/>
   </g>
   <g id="patch_6">
    <path d="M 58.523438 313.292187 
L 374.216158 313.292187 
" style="fill: none; stroke: #262626; stroke-width: 0.8; stroke-linejoin: miter; stroke-linecap: square"/>
   </g>
   <g id="PathCollection_1">
    <defs>
     <path id="md3cf8160e9" d="M 0 1.5 
C 0.397805 1.5 0.77937 1.341951 1.06066 1.06066 
C 1.341951 0.77937 1.5 0.397805 1.5 0 
C 1.5 -0.397805 1.341951 -0.77937 1.06066 -1.06066 
C 0.77937 -1.341951 0.397805 -1.5 0 -1.5 
C -0.397805 -1.5 -0.77937 -1.341951 -1.06066 -1.06066 
C -1.341951 -0.77937 -1.5 -0.397805 -1.5 0 
C -1.5 0.397805 -1.341951 0.77937 -1.06066 1.06066 
C -0.77937 1.341951 -0.397805 1.5 0 1.5 
z
" style="stroke: #4c4c4c"/>
    </defs>
    <g clip-path="url(#pa61a82eb86)">
     <use xlink:href="#md3cf8160e9" x="111.138891" y="88.866761" style="fill: #ffffff; stroke: #4c4c4c"/>
    </g>
   </g>
   <g id="PathCollection_2">
    <g clip-path="url(#pa61a82eb86)">
     <use xlink:href="#md3cf8160e9" x="216.369798" y="88.866761" style="fill: #ffffff; stroke: #4c4c4c"/>
    </g>
   </g>
   <g id="PathCollection_3">
    <g clip-path="url(#pa61a82eb86)">
     <use xlink:href="#md3cf8160e9" x="321.600705" y="88.866761" style="fill: #ffffff; stroke: #4c4c4c"/>
    </g>
   </g>
   <g id="text_13">
    <!-- Dyn_obs = 5.0 -->
    <g style="fill: #262626" transform="translate(179.73386 14.798437)scale(0.1 -0.1)">
     <defs>
      <path id="DejaVuSans-44" d="M 1259 4147 
L 1259 519 
L 2022 519 
Q 2988 519 3436 956 
Q 3884 1394 3884 2338 
Q 3884 3275 3436 3711 
Q 2988 4147 2022 4147 
L 1259 4147 
z
M 628 4666 
L 1925 4666 
Q 3281 4666 3915 4102 
Q 4550 3538 4550 2338 
Q 4550 1131 3912 565 
Q 3275 0 1925 0 
L 628 0 
L 628 4666 
z
" transform="scale(0.015625)"/>
      <path id="DejaVuSans-79" d="M 2059 -325 
Q 1816 -950 1584 -1140 
Q 1353 -1331 966 -1331 
L 506 -1331 
L 506 -850 
L 844 -850 
Q 1081 -850 1212 -737 
Q 1344 -625 1503 -206 
L 1606 56 
L 191 3500 
L 800 3500 
L 1894 763 
L 2988 3500 
L 3597 3500 
L 2059 -325 
z
" transform="scale(0.015625)"/>
      <path id="DejaVuSans-6e" d="M 3513 2113 
L 3513 0 
L 2938 0 
L 2938 2094 
Q 2938 2591 2744 2837 
Q 2550 3084 2163 3084 
Q 1697 3084 1428 2787 
Q 1159 2491 1159 1978 
L 1159 0 
L 581 0 
L 581 3500 
L 1159 3500 
L 1159 2956 
Q 1366 3272 1645 3428 
Q 1925 3584 2291 3584 
Q 2894 3584 3203 3211 
Q 3513 2838 3513 2113 
z
" transform="scale(0.015625)"/>
      <path id="DejaVuSans-62" d="M 3116 1747 
Q 3116 2381 2855 2742 
Q 2594 3103 2138 3103 
Q 1681 3103 1420 2742 
Q 1159 2381 1159 1747 
Q 1159 1113 1420 752 
Q 1681 391 2138 391 
Q 2594 391 2855 752 
Q 3116 1113 3116 1747 
z
M 1159 2969 
Q 1341 3281 1617 3432 
Q 1894 3584 2278 3584 
Q 2916 3584 3314 3078 
Q 3713 2572 3713 1747 
Q 3713 922 3314 415 
Q 2916 -91 2278 -91 
Q 1894 -91 1617 61 
Q 1341 213 1159 525 
L 1159 0 
L 581 0 
L 581 4863 
L 1159 4863 
L 1159 2969 
z
" transform="scale(0.015625)"/>
      <path id="DejaVuSans-20" transform="scale(0.015625)"/>
      <path id="DejaVuSans-3d" d="M 678 2906 
L 4684 2906 
L 4684 2381 
L 678 2381 
L 678 2906 
z
M 678 1631 
L 4684 1631 
L 4684 1100 
L 678 1100 
L 678 1631 
z
" transform="scale(0.015625)"/>
     </defs>
     <use xlink:href="#DejaVuSans-44"/>
     <use xlink:href="#DejaVuSans-79" x="77.001953"/>
     <use xlink:href="#DejaVuSans-6e" x="136.181641"/>
     <use xlink:href="#DejaVuSans-5f" x="199.560547"/>
     <use xlink:href="#DejaVuSans-6f" x="249.560547"/>
     <use xlink:href="#DejaVuSans-62" x="310.742188"/>
     <use xlink:href="#DejaVuSans-73" x="374.21875"/>
     <use xlink:href="#DejaVuSans-20" x="426.318359"/>
     <use xlink:href="#DejaVuSans-3d" x="458.105469"/>
     <use xlink:href="#DejaVuSans-20" x="541.894531"/>
     <use xlink:href="#DejaVuSans-35" x="573.681641"/>
     <use xlink:href="#DejaVuSans-2e" x="637.304688"/>
     <use xlink:href="#DejaVuSans-30" x="669.091797"/>
    </g>
   </g>
  </g>
  <g id="axes_2">
   <g id="patch_7">
    <path d="M 388.491524 313.292187 
L 704.184245 313.292187 
L 704.184245 20.798437 
L 388.491524 20.798437 
z
" style="fill: #ffffff"/>
   </g>
   <g id="matplotlib.axis_3">
    <g id="xtick_4">
     <g id="line2d_17">
      <g>
       <use xlink:href="#m01dcb62ac1" x="441.106977" y="313.292187" style="fill: #262626; stroke: #262626; stroke-width: 0.8"/>
      </g>
     </g>
     <g id="text_14">
      <!-- map2 -->
      <g style="fill: #262626" transform="translate(426.817134 327.890625)scale(0.1 -0.1)">
       <use xlink:href="#DejaVuSans-6d"/>
       <use xlink:href="#DejaVuSans-61" x="97.412109"/>
       <use xlink:href="#DejaVuSans-70" x="158.691406"/>
       <use xlink:href="#DejaVuSans-32" x="222.167969"/>
      </g>
     </g>
    </g>
    <g id="xtick_5">
     <g id="line2d_18">
      <g>
       <use xlink:href="#m01dcb62ac1" x="546.337884" y="313.292187" style="fill: #262626; stroke: #262626; stroke-width: 0.8"/>
      </g>
     </g>
     <g id="text_15">
      <!-- map5 -->
      <g style="fill: #262626" transform="translate(532.048041 327.890625)scale(0.1 -0.1)">
       <use xlink:href="#DejaVuSans-6d"/>
       <use xlink:href="#DejaVuSans-61" x="97.412109"/>
       <use xlink:href="#DejaVuSans-70" x="158.691406"/>
       <use xlink:href="#DejaVuSans-35" x="222.167969"/>
      </g>
     </g>
    </g>
    <g id="xtick_6">
     <g id="line2d_19">
      <g>
       <use xlink:href="#m01dcb62ac1" x="651.568791" y="313.292187" style="fill: #262626; stroke: #262626; stroke-width: 0.8"/>
      </g>
     </g>
     <g id="text_16">
      <!-- small_warehouse -->
      <g style="fill: #262626" transform="translate(608.500823 327.890625)scale(0.1 -0.1)">
       <use xlink:href="#DejaVuSans-73"/>
       <use xlink:href="#DejaVuSans-6d" x="52.099609"/>
       <use xlink:href="#DejaVuSans-61" x="149.511719"/>
       <use xlink:href="#DejaVuSans-6c" x="210.791016"/>
       <use xlink:href="#DejaVuSans-6c" x="238.574219"/>
       <use xlink:href="#DejaVuSans-5f" x="266.357422"/>
       <use xlink:href="#DejaVuSans-77" x="316.357422"/>
       <use xlink:href="#DejaVuSans-61" x="398.144531"/>
       <use xlink:href="#DejaVuSans-72" x="459.423828"/>
       <use xlink:href="#DejaVuSans-65" x="498.287109"/>
       <use xlink:href="#DejaVuSans-68" x="559.810547"/>
       <use xlink:href="#DejaVuSans-6f" x="623.189453"/>
       <use xlink:href="#DejaVuSans-75" x="684.371094"/>
       <use xlink:href="#DejaVuSans-73" x="747.75"/>
       <use xlink:href="#DejaVuSans-65" x="799.849609"/>
      </g>
     </g>
    </g>
    <g id="text_17">
     <!-- World -->
     <g style="fill: #262626" transform="translate(532.009759 341.846875)scale(0.1 -0.1)">
      <use xlink:href="#DejaVuSans-57"/>
      <use xlink:href="#DejaVuSans-6f" x="93.001953"/>
      <use xlink:href="#DejaVuSans-72" x="154.183594"/>
      <use xlink:href="#DejaVuSans-6c" x="195.296875"/>
      <use xlink:href="#DejaVuSans-64" x="223.080078"/>
     </g>
    </g>
   </g>
   <g id="matplotlib.axis_4">
    <g id="ytick_8">
     <g id="line2d_20">
      <g>
       <use xlink:href="#m8177469b3d" x="388.491524" y="284.31314" style="fill: #262626; stroke: #262626; stroke-width: 0.8"/>
      </g>
     </g>
    </g>
    <g id="ytick_9">
     <g id="line2d_21">
      <g>
       <use xlink:href="#m8177469b3d" x="388.491524" y="245.223864" style="fill: #262626; stroke: #262626; stroke-width: 0.8"/>
      </g>
     </g>
    </g>
    <g id="ytick_10">
     <g id="line2d_22">
      <g>
       <use xlink:href="#m8177469b3d" x="388.491524" y="206.134588" style="fill: #262626; stroke: #262626; stroke-width: 0.8"/>
      </g>
     </g>
    </g>
    <g id="ytick_11">
     <g id="line2d_23">
      <g>
       <use xlink:href="#m8177469b3d" x="388.491524" y="167.045312" style="fill: #262626; stroke: #262626; stroke-width: 0.8"/>
      </g>
     </g>
    </g>
    <g id="ytick_12">
     <g id="line2d_24">
      <g>
       <use xlink:href="#m8177469b3d" x="388.491524" y="127.956037" style="fill: #262626; stroke: #262626; stroke-width: 0.8"/>
      </g>
     </g>
    </g>
    <g id="ytick_13">
     <g id="line2d_25">
      <g>
       <use xlink:href="#m8177469b3d" x="388.491524" y="88.866761" style="fill: #262626; stroke: #262626; stroke-width: 0.8"/>
      </g>
     </g>
    </g>
    <g id="ytick_14">
     <g id="line2d_26">
      <g>
       <use xlink:href="#m8177469b3d" x="388.491524" y="49.777485" style="fill: #262626; stroke: #262626; stroke-width: 0.8"/>
      </g>
     </g>
    </g>
   </g>
   <g id="patch_8">
    <path d="M 441.106977 245.223864 
L 441.106977 245.223864 
L 441.106977 245.223864 
L 441.106977 245.223864 
z
" clip-path="url(#p4644890991)" style="fill: #5875a4; stroke: #4c4c4c; stroke-width: 0.75; stroke-linejoin: miter"/>
   </g>
   <g id="PolyCollection_7">
    <defs>
     <path id="m7529fe5888" d="M 441.106977 -51.129545 
L 438.246334 -51.129545 
L 437.643116 -53.815438 
L 436.952847 -56.501331 
L 436.172712 -59.187225 
L 435.302172 -61.873118 
L 434.343412 -64.559011 
L 433.301734 -67.244904 
L 432.185845 -69.930797 
L 431.008024 -72.61669 
L 429.784134 -75.302583 
L 428.533442 -77.988476 
L 427.278252 -80.674369 
L 426.043347 -83.360262 
L 424.855234 -86.046155 
L 423.741247 -88.732048 
L 422.728525 -91.417941 
L 421.842926 -94.103834 
L 421.10794 -96.789727 
L 420.543652 -99.47562 
L 420.165833 -102.161513 
L 419.98521 -104.847406 
L 420.006956 -107.533299 
L 420.230445 -110.219192 
L 420.649285 -112.905085 
L 421.251618 -115.590978 
L 422.020677 -118.276871 
L 422.935565 -120.962764 
L 423.972192 -123.648657 
L 425.104327 -126.33455 
L 426.304693 -129.020443 
L 427.546037 -131.706336 
L 428.802133 -134.392229 
L 430.048647 -137.078122 
L 431.263843 -139.764015 
L 432.429104 -142.449908 
L 433.529244 -145.135801 
L 434.552639 -147.821694 
L 435.491166 -150.507587 
L 436.339995 -153.19348 
L 437.097245 -155.879373 
L 437.76356 -158.565266 
L 438.341617 -161.251159 
L 438.835607 -163.937052 
L 439.250725 -166.622945 
L 439.592676 -169.308838 
L 439.867225 -171.994731 
L 440.079804 -174.680624 
L 440.235176 -177.366517 
L 440.337174 -180.05241 
L 440.388496 -182.738303 
L 440.390575 -185.424197 
L 440.343513 -188.11009 
L 440.246084 -190.795983 
L 440.095792 -193.481876 
L 439.889012 -196.167769 
L 439.62118 -198.853662 
L 439.287059 -201.539555 
L 438.881069 -204.225448 
L 438.397675 -206.911341 
L 437.831832 -209.597234 
L 437.179463 -212.283127 
L 436.437973 -214.96902 
L 435.606747 -217.654913 
L 434.68764 -220.340806 
L 433.685394 -223.026699 
L 432.607969 -225.712592 
L 431.466755 -228.398485 
L 430.276629 -231.084378 
L 429.055826 -233.770271 
L 427.825634 -236.456164 
L 426.609888 -239.142057 
L 425.434275 -241.82795 
L 424.325484 -244.513843 
L 423.310232 -247.199736 
L 422.414209 -249.885629 
L 421.661006 -252.571522 
L 421.071093 -255.257415 
L 420.660889 -257.943308 
L 420.442007 -260.629201 
L 420.42071 -263.315094 
L 420.597609 -266.000987 
L 420.967638 -268.68688 
L 421.520291 -271.372773 
L 422.240123 -274.058666 
L 423.107462 -276.744559 
L 424.099303 -279.430452 
L 425.190321 -282.116345 
L 426.353937 -284.802238 
L 427.563381 -287.488131 
L 428.79269 -290.174024 
L 430.017595 -292.859917 
L 431.21625 -295.54581 
L 432.369786 -298.231703 
L 433.462667 -300.917596 
L 434.482867 -303.603489 
L 435.421858 -306.289382 
L 436.274449 -308.975275 
L 437.038499 -311.661169 
L 437.714536 -314.347062 
L 438.305317 -317.032955 
L 441.106977 -317.032955 
L 441.106977 -317.032955 
L 441.106977 -314.347062 
L 441.106977 -311.661169 
L 441.106977 -308.975275 
L 441.106977 -306.289382 
L 441.106977 -303.603489 
L 441.106977 -300.917596 
L 441.106977 -298.231703 
L 441.106977 -295.54581 
L 441.106977 -292.859917 
L 441.106977 -290.174024 
L 441.106977 -287.488131 
L 441.106977 -284.802238 
L 441.106977 -282.116345 
L 441.106977 -279.430452 
L 441.106977 -276.744559 
L 441.106977 -274.058666 
L 441.106977 -271.372773 
L 441.106977 -268.68688 
L 441.106977 -266.000987 
L 441.106977 -263.315094 
L 441.106977 -260.629201 
L 441.106977 -257.943308 
L 441.106977 -255.257415 
L 441.106977 -252.571522 
L 441.106977 -249.885629 
L 441.106977 -247.199736 
L 441.106977 -244.513843 
L 441.106977 -241.82795 
L 441.106977 -239.142057 
L 441.106977 -236.456164 
L 441.106977 -233.770271 
L 441.106977 -231.084378 
L 441.106977 -228.398485 
L 441.106977 -225.712592 
L 441.106977 -223.026699 
L 441.106977 -220.340806 
L 441.106977 -217.654913 
L 441.106977 -214.96902 
L 441.106977 -212.283127 
L 441.106977 -209.597234 
L 441.106977 -206.911341 
L 441.106977 -204.225448 
L 441.106977 -201.539555 
L 441.106977 -198.853662 
L 441.106977 -196.167769 
L 441.106977 -193.481876 
L 441.106977 -190.795983 
L 441.106977 -188.11009 
L 441.106977 -185.424197 
L 441.106977 -182.738303 
L 441.106977 -180.05241 
L 441.106977 -177.366517 
L 441.106977 -174.680624 
L 441.106977 -171.994731 
L 441.106977 -169.308838 
L 441.106977 -166.622945 
L 441.106977 -163.937052 
L 441.106977 -161.251159 
L 441.106977 -158.565266 
L 441.106977 -155.879373 
L 441.106977 -153.19348 
L 441.106977 -150.507587 
L 441.106977 -147.821694 
L 441.106977 -145.135801 
L 441.106977 -142.449908 
L 441.106977 -139.764015 
L 441.106977 -137.078122 
L 441.106977 -134.392229 
L 441.106977 -131.706336 
L 441.106977 -129.020443 
L 441.106977 -126.33455 
L 441.106977 -123.648657 
L 441.106977 -120.962764 
L 441.106977 -118.276871 
L 441.106977 -115.590978 
L 441.106977 -112.905085 
L 441.106977 -110.219192 
L 441.106977 -107.533299 
L 441.106977 -104.847406 
L 441.106977 -102.161513 
L 441.106977 -99.47562 
L 441.106977 -96.789727 
L 441.106977 -94.103834 
L 441.106977 -91.417941 
L 441.106977 -88.732048 
L 441.106977 -86.046155 
L 441.106977 -83.360262 
L 441.106977 -80.674369 
L 441.106977 -77.988476 
L 441.106977 -75.302583 
L 441.106977 -72.61669 
L 441.106977 -69.930797 
L 441.106977 -67.244904 
L 441.106977 -64.559011 
L 441.106977 -61.873118 
L 441.106977 -59.187225 
L 441.106977 -56.501331 
L 441.106977 -53.815438 
L 441.106977 -51.129545 
z
" style="stroke: #4c4c4c; stroke-width: 1.5"/>
    </defs>
    <g clip-path="url(#p4644890991)">
     <use xlink:href="#m7529fe5888" x="0" y="351.126562" style="fill: #5875a4; stroke: #4c4c4c; stroke-width: 1.5"/>
    </g>
   </g>
   <g id="patch_9">
    <path d="M 441.106977 245.223864 
L 441.106977 245.223864 
L 441.106977 245.223864 
L 441.106977 245.223864 
z
" clip-path="url(#p4644890991)" style="fill: #cc8963; stroke: #4c4c4c; stroke-width: 0.75; stroke-linejoin: miter"/>
   </g>
   <g id="PolyCollection_8">
    <defs>
     <path id="m2ba86b975b" d="M 442.513255 -62.253906 
L 441.106977 -62.253906 
L 441.106977 -64.715065 
L 441.106977 -67.176223 
L 441.106977 -69.637382 
L 441.106977 -72.09854 
L 441.106977 -74.559699 
L 441.106977 -77.020857 
L 441.106977 -79.482015 
L 441.106977 -81.943174 
L 441.106977 -84.404332 
L 441.106977 -86.865491 
L 441.106977 -89.326649 
L 441.106977 -91.787808 
L 441.106977 -94.248966 
L 441.106977 -96.710125 
L 441.106977 -99.171283 
L 441.106977 -101.632442 
L 441.106977 -104.0936 
L 441.106977 -106.554758 
L 441.106977 -109.015917 
L 441.106977 -111.477075 
L 441.106977 -113.938234 
L 441.106977 -116.399392 
L 441.106977 -118.860551 
L 441.106977 -121.321709 
L 441.106977 -123.782868 
L 441.106977 -126.244026 
L 441.106977 -128.705185 
L 441.106977 -131.166343 
L 441.106977 -133.627502 
L 441.106977 -136.08866 
L 441.106977 -138.549818 
L 441.106977 -141.010977 
L 441.106977 -143.472135 
L 441.106977 -145.933294 
L 441.106977 -148.394452 
L 441.106977 -150.855611 
L 441.106977 -153.316769 
L 441.106977 -155.777928 
L 441.106977 -158.239086 
L 441.106977 -160.700245 
L 441.106977 -163.161403 
L 441.106977 -165.622562 
L 441.106977 -168.08372 
L 441.106977 -170.544878 
L 441.106977 -173.006037 
L 441.106977 -175.467195 
L 441.106977 -177.928354 
L 441.106977 -180.389512 
L 441.106977 -182.850671 
L 441.106977 -185.311829 
L 441.106977 -187.772988 
L 441.106977 -190.234146 
L 441.106977 -192.695305 
L 441.106977 -195.156463 
L 441.106977 -197.617622 
L 441.106977 -200.07878 
L 441.106977 -202.539938 
L 441.106977 -205.001097 
L 441.106977 -207.462255 
L 441.106977 -209.923414 
L 441.106977 -212.384572 
L 441.106977 -214.845731 
L 441.106977 -217.306889 
L 441.106977 -219.768048 
L 441.106977 -222.229206 
L 441.106977 -224.690365 
L 441.106977 -227.151523 
L 441.106977 -229.612682 
L 441.106977 -232.07384 
L 441.106977 -234.534998 
L 441.106977 -236.996157 
L 441.106977 -239.457315 
L 441.106977 -241.918474 
L 441.106977 -244.379632 
L 441.106977 -246.840791 
L 441.106977 -249.301949 
L 441.106977 -251.763108 
L 441.106977 -254.224266 
L 441.106977 -256.685425 
L 441.106977 -259.146583 
L 441.106977 -261.607742 
L 441.106977 -264.0689 
L 441.106977 -266.530058 
L 441.106977 -268.991217 
L 441.106977 -271.452375 
L 441.106977 -273.913534 
L 441.106977 -276.374692 
L 441.106977 -278.835851 
L 441.106977 -281.297009 
L 441.106977 -283.758168 
L 441.106977 -286.219326 
L 441.106977 -288.680485 
L 441.106977 -291.141643 
L 441.106977 -293.602801 
L 441.106977 -296.06396 
L 441.106977 -298.525118 
L 441.106977 -300.986277 
L 441.106977 -303.447435 
L 441.106977 -305.908594 
L 446.806102 -305.908594 
L 446.806102 -305.908594 
L 448.202727 -303.447435 
L 449.829967 -300.986277 
L 451.694865 -298.525118 
L 453.796062 -296.06396 
L 456.122076 -293.602801 
L 458.649944 -291.141643 
L 461.344383 -288.680485 
L 464.157649 -286.219326 
L 467.030217 -283.758168 
L 469.892355 -281.297009 
L 472.66658 -278.835851 
L 475.270927 -276.374692 
L 477.622841 -273.913534 
L 479.643455 -271.452375 
L 481.261958 -268.991217 
L 482.419695 -266.530058 
L 483.0737 -264.0689 
L 483.19934 -261.607742 
L 482.791852 -259.146583 
L 481.866646 -256.685425 
L 480.458337 -254.224266 
L 478.618594 -251.763108 
L 476.412999 -249.301949 
L 473.917166 -246.840791 
L 471.212462 -244.379632 
L 468.381645 -241.918474 
L 465.504754 -239.457315 
L 462.655525 -236.996157 
L 459.898531 -234.534998 
L 457.287195 -232.07384 
L 454.862686 -229.612682 
L 452.653695 -227.151523 
L 450.67696 -224.690365 
L 448.938402 -222.229206 
L 447.434703 -219.768048 
L 446.155126 -217.306889 
L 445.083421 -214.845731 
L 444.199676 -212.384572 
L 443.48198 -209.923414 
L 442.907849 -207.462255 
L 442.455358 -205.001097 
L 442.10398 -202.539938 
L 441.835141 -200.07878 
L 441.63254 -197.617622 
L 441.482261 -195.156463 
L 441.372737 -192.695305 
L 441.294613 -190.234146 
L 441.240548 -187.772988 
L 441.204982 -185.311829 
L 441.183919 -182.850671 
L 441.174717 -180.389512 
L 441.175916 -177.928354 
L 441.187103 -175.467195 
L 441.208812 -173.006037 
L 441.242446 -170.544878 
L 441.290233 -168.08372 
L 441.355177 -165.622562 
L 441.441013 -163.161403 
L 441.552133 -160.700245 
L 441.693478 -158.239086 
L 441.870379 -155.777928 
L 442.088331 -153.316769 
L 442.352711 -150.855611 
L 442.668413 -148.394452 
L 443.039434 -145.933294 
L 443.468416 -143.472135 
L 443.956175 -141.010977 
L 444.501247 -138.549818 
L 445.099501 -136.08866 
L 445.743855 -133.627502 
L 446.424152 -131.166343 
L 447.127208 -128.705185 
L 447.83709 -126.244026 
L 448.535603 -123.782868 
L 449.202998 -121.321709 
L 449.818853 -118.860551 
L 450.363091 -116.399392 
L 450.817053 -113.938234 
L 451.164558 -111.477075 
L 451.392856 -109.015917 
L 451.493405 -106.554758 
L 451.462403 -104.0936 
L 451.301025 -101.632442 
L 451.015349 -99.171283 
L 450.615978 -96.710125 
L 450.117385 -94.248966 
L 449.537043 -91.787808 
L 448.894412 -89.326649 
L 448.209863 -86.865491 
L 447.503621 -84.404332 
L 446.794805 -81.943174 
L 446.100623 -79.482015 
L 445.435761 -77.020857 
L 444.812002 -74.559699 
L 444.23805 -72.09854 
L 443.719573 -69.637382 
L 443.259403 -67.176223 
L 442.857877 -64.715065 
L 442.513255 -62.253906 
z
" style="stroke: #4c4c4c; stroke-width: 1.5"/>
    </defs>
    <g clip-path="url(#p4644890991)">
     <use xlink:href="#m2ba86b975b" x="0" y="351.126562" style="fill: #cc8963; stroke: #4c4c4c; stroke-width: 1.5"/>
    </g>
   </g>
   <g id="PolyCollection_9">
    <defs>
     <path id="m9bfc77c3b4" d="M 546.337884 -63.1431 
L 545.404506 -63.1431 
L 545.172468 -65.586295 
L 544.901626 -68.02949 
L 544.590805 -70.472684 
L 544.24029 -72.915879 
L 543.852127 -75.359074 
L 543.430352 -77.802269 
L 542.981135 -80.245464 
L 542.512793 -82.688659 
L 542.035657 -85.131854 
L 541.561784 -87.575049 
L 541.104507 -90.018244 
L 540.677847 -92.461439 
L 540.295824 -94.904634 
L 539.971698 -97.347829 
L 539.71721 -99.791024 
L 539.54188 -102.234219 
L 539.452413 -104.677414 
L 539.452278 -107.120609 
L 539.541478 -109.563804 
L 539.716558 -112.006999 
L 539.97082 -114.450194 
L 540.294753 -116.893389 
L 540.67662 -119.336584 
L 541.103166 -121.779779 
L 541.560372 -124.222974 
L 542.034215 -126.666168 
L 542.51136 -129.109363 
L 542.979745 -131.552558 
L 543.429034 -133.995753 
L 543.850902 -136.438948 
L 544.239172 -138.882143 
L 544.589803 -141.325338 
L 544.900742 -143.768533 
L 545.171698 -146.211728 
L 545.40384 -148.654923 
L 545.599464 -151.098118 
L 545.761667 -153.541313 
L 545.894033 -155.984508 
L 546.000356 -158.427703 
L 546.084414 -160.870898 
L 546.149794 -163.314093 
L 546.19976 -165.757288 
L 546.23717 -168.200483 
L 546.264421 -170.643678 
L 546.283424 -173.086873 
L 546.295581 -175.530068 
L 546.301777 -177.973263 
L 546.302349 -180.416458 
L 546.297052 -182.859653 
L 546.284988 -185.302847 
L 546.264516 -187.746042 
L 546.233131 -190.189237 
L 546.187312 -192.632432 
L 546.12235 -195.075627 
L 546.032166 -197.518822 
L 545.90914 -199.962017 
L 545.743965 -202.405212 
L 545.525566 -204.848407 
L 545.241118 -207.291602 
L 544.876189 -209.734797 
L 544.415059 -212.177992 
L 543.841242 -214.621187 
L 543.138227 -217.064382 
L 542.290447 -219.507577 
L 541.284461 -221.950772 
L 540.110294 -224.393967 
L 538.762878 -226.837162 
L 537.243473 -229.280357 
L 535.560962 -231.723552 
L 533.732867 -234.166747 
L 531.78595 -236.609942 
L 529.75628 -239.053137 
L 527.688652 -241.496332 
L 525.635331 -243.939526 
L 523.654104 -246.382721 
L 521.80574 -248.825916 
L 520.15098 -251.269111 
L 518.747271 -253.712306 
L 517.645469 -256.155501 
L 516.88679 -258.598696 
L 516.500255 -261.041891 
L 516.500843 -263.485086 
L 516.888531 -265.928281 
L 517.648295 -268.371476 
L 518.751077 -270.814671 
L 520.155624 -273.257866 
L 521.811057 -275.701061 
L 523.659914 -278.144256 
L 525.641449 -280.587451 
L 527.694899 -283.030646 
L 529.762487 -285.473841 
L 531.791971 -287.917036 
L 533.738579 -290.360231 
L 535.566271 -292.803426 
L 537.248311 -295.246621 
L 538.767206 -297.689816 
L 540.114099 -300.13301 
L 541.287749 -302.576205 
L 542.293243 -305.0194 
L 546.337884 -305.0194 
L 546.337884 -305.0194 
L 546.337884 -302.576205 
L 546.337884 -300.13301 
L 546.337884 -297.689816 
L 546.337884 -295.246621 
L 546.337884 -292.803426 
L 546.337884 -290.360231 
L 546.337884 -287.917036 
L 546.337884 -285.473841 
L 546.337884 -283.030646 
L 546.337884 -280.587451 
L 546.337884 -278.144256 
L 546.337884 -275.701061 
L 546.337884 -273.257866 
L 546.337884 -270.814671 
L 546.337884 -268.371476 
L 546.337884 -265.928281 
L 546.337884 -263.485086 
L 546.337884 -261.041891 
L 546.337884 -258.598696 
L 546.337884 -256.155501 
L 546.337884 -253.712306 
L 546.337884 -251.269111 
L 546.337884 -248.825916 
L 546.337884 -246.382721 
L 546.337884 -243.939526 
L 546.337884 -241.496332 
L 546.337884 -239.053137 
L 546.337884 -236.609942 
L 546.337884 -234.166747 
L 546.337884 -231.723552 
L 546.337884 -229.280357 
L 546.337884 -226.837162 
L 546.337884 -224.393967 
L 546.337884 -221.950772 
L 546.337884 -219.507577 
L 546.337884 -217.064382 
L 546.337884 -214.621187 
L 546.337884 -212.177992 
L 546.337884 -209.734797 
L 546.337884 -207.291602 
L 546.337884 -204.848407 
L 546.337884 -202.405212 
L 546.337884 -199.962017 
L 546.337884 -197.518822 
L 546.337884 -195.075627 
L 546.337884 -192.632432 
L 546.337884 -190.189237 
L 546.337884 -187.746042 
L 546.337884 -185.302847 
L 546.337884 -182.859653 
L 546.337884 -180.416458 
L 546.337884 -177.973263 
L 546.337884 -175.530068 
L 546.337884 -173.086873 
L 546.337884 -170.643678 
L 546.337884 -168.200483 
L 546.337884 -165.757288 
L 546.337884 -163.314093 
L 546.337884 -160.870898 
L 546.337884 -158.427703 
L 546.337884 -155.984508 
L 546.337884 -153.541313 
L 546.337884 -151.098118 
L 546.337884 -148.654923 
L 546.337884 -146.211728 
L 546.337884 -143.768533 
L 546.337884 -141.325338 
L 546.337884 -138.882143 
L 546.337884 -136.438948 
L 546.337884 -133.995753 
L 546.337884 -131.552558 
L 546.337884 -129.109363 
L 546.337884 -126.666168 
L 546.337884 -124.222974 
L 546.337884 -121.779779 
L 546.337884 -119.336584 
L 546.337884 -116.893389 
L 546.337884 -114.450194 
L 546.337884 -112.006999 
L 546.337884 -109.563804 
L 546.337884 -107.120609 
L 546.337884 -104.677414 
L 546.337884 -102.234219 
L 546.337884 -99.791024 
L 546.337884 -97.347829 
L 546.337884 -94.904634 
L 546.337884 -92.461439 
L 546.337884 -90.018244 
L 546.337884 -87.575049 
L 546.337884 -85.131854 
L 546.337884 -82.688659 
L 546.337884 -80.245464 
L 546.337884 -77.802269 
L 546.337884 -75.359074 
L 546.337884 -72.915879 
L 546.337884 -70.472684 
L 546.337884 -68.02949 
L 546.337884 -65.586295 
L 546.337884 -63.1431 
z
" style="stroke: #4c4c4c; stroke-width: 1.5"/>
    </defs>
    <g clip-path="url(#p4644890991)">
     <use xlink:href="#m9bfc77c3b4" x="0" y="351.126562" style="fill: #5875a4; stroke: #4c4c4c; stroke-width: 1.5"/>
    </g>
   </g>
   <g id="PolyCollection_10">
    <defs>
     <path id="m23150baab1" d="M 547.000436 -72.437046 
L 546.337884 -72.437046 
L 546.337884 -74.692485 
L 546.337884 -76.947923 
L 546.337884 -79.203362 
L 546.337884 -81.4588 
L 546.337884 -83.714238 
L 546.337884 -85.969677 
L 546.337884 -88.225115 
L 546.337884 -90.480554 
L 546.337884 -92.735992 
L 546.337884 -94.991431 
L 546.337884 -97.246869 
L 546.337884 -99.502308 
L 546.337884 -101.757746 
L 546.337884 -104.013185 
L 546.337884 -106.268623 
L 546.337884 -108.524062 
L 546.337884 -110.7795 
L 546.337884 -113.034938 
L 546.337884 -115.290377 
L 546.337884 -117.545815 
L 546.337884 -119.801254 
L 546.337884 -122.056692 
L 546.337884 -124.312131 
L 546.337884 -126.567569 
L 546.337884 -128.823008 
L 546.337884 -131.078446 
L 546.337884 -133.333885 
L 546.337884 -135.589323 
L 546.337884 -137.844762 
L 546.337884 -140.1002 
L 546.337884 -142.355638 
L 546.337884 -144.611077 
L 546.337884 -146.866515 
L 546.337884 -149.121954 
L 546.337884 -151.377392 
L 546.337884 -153.632831 
L 546.337884 -155.888269 
L 546.337884 -158.143708 
L 546.337884 -160.399146 
L 546.337884 -162.654585 
L 546.337884 -164.910023 
L 546.337884 -167.165462 
L 546.337884 -169.4209 
L 546.337884 -171.676338 
L 546.337884 -173.931777 
L 546.337884 -176.187215 
L 546.337884 -178.442654 
L 546.337884 -180.698092 
L 546.337884 -182.953531 
L 546.337884 -185.208969 
L 546.337884 -187.464408 
L 546.337884 -189.719846 
L 546.337884 -191.975285 
L 546.337884 -194.230723 
L 546.337884 -196.486162 
L 546.337884 -198.7416 
L 546.337884 -200.997038 
L 546.337884 -203.252477 
L 546.337884 -205.507915 
L 546.337884 -207.763354 
L 546.337884 -210.018792 
L 546.337884 -212.274231 
L 546.337884 -214.529669 
L 546.337884 -216.785108 
L 546.337884 -219.040546 
L 546.337884 -221.295985 
L 546.337884 -223.551423 
L 546.337884 -225.806862 
L 546.337884 -228.0623 
L 546.337884 -230.317738 
L 546.337884 -232.573177 
L 546.337884 -234.828615 
L 546.337884 -237.084054 
L 546.337884 -239.339492 
L 546.337884 -241.594931 
L 546.337884 -243.850369 
L 546.337884 -246.105808 
L 546.337884 -248.361246 
L 546.337884 -250.616685 
L 546.337884 -252.872123 
L 546.337884 -255.127562 
L 546.337884 -257.383 
L 546.337884 -259.638438 
L 546.337884 -261.893877 
L 546.337884 -264.149315 
L 546.337884 -266.404754 
L 546.337884 -268.660192 
L 546.337884 -270.915631 
L 546.337884 -273.171069 
L 546.337884 -275.426508 
L 546.337884 -277.681946 
L 546.337884 -279.937385 
L 546.337884 -282.192823 
L 546.337884 -284.448262 
L 546.337884 -286.7037 
L 546.337884 -288.959138 
L 546.337884 -291.214577 
L 546.337884 -293.470015 
L 546.337884 -295.725454 
L 552.035829 -295.725454 
L 552.035829 -295.725454 
L 553.731402 -293.470015 
L 555.758807 -291.214577 
L 558.126023 -288.959138 
L 560.822484 -286.7037 
L 563.815298 -284.448262 
L 567.046797 -282.192823 
L 570.43399 -279.937385 
L 573.870398 -277.681946 
L 577.230474 -275.426508 
L 580.376525 -273.171069 
L 583.167699 -270.915631 
L 585.470269 -268.660192 
L 587.168181 -266.404754 
L 588.172733 -264.149315 
L 588.430247 -261.893877 
L 587.926825 -259.638438 
L 586.689585 -257.383 
L 584.784249 -255.127562 
L 582.309352 -252.872123 
L 579.387809 -250.616685 
L 576.156826 -248.361246 
L 572.757314 -246.105808 
L 569.32392 -243.850369 
L 565.976649 -241.594931 
L 562.814716 -239.339492 
L 559.912973 -237.084054 
L 557.320887 -234.828615 
L 555.063759 -232.573177 
L 553.145676 -230.317738 
L 551.553589 -228.0623 
L 550.261886 -225.806862 
L 549.236928 -223.551423 
L 548.441129 -221.295985 
L 547.836307 -219.040546 
L 547.386191 -216.785108 
L 547.058082 -214.529669 
L 546.823759 -212.274231 
L 546.659774 -210.018792 
L 546.547295 -207.763354 
L 546.471667 -205.507915 
L 546.421813 -203.252477 
L 546.38959 -200.997038 
L 546.369165 -198.7416 
L 546.356469 -196.486162 
L 546.348729 -194.230723 
L 546.344103 -191.975285 
L 546.341395 -189.719846 
L 546.339848 -187.464408 
L 546.338996 -185.208969 
L 546.338564 -182.953531 
L 546.338401 -180.698092 
L 546.33844 -178.442654 
L 546.338682 -176.187215 
L 546.339182 -173.931777 
L 546.340063 -171.676338 
L 546.34153 -169.4209 
L 546.343901 -167.165462 
L 546.347645 -164.910023 
L 546.353441 -162.654585 
L 546.362235 -160.399146 
L 546.375314 -158.143708 
L 546.394382 -155.888269 
L 546.421628 -153.632831 
L 546.45978 -151.377392 
L 546.51212 -149.121954 
L 546.582448 -146.866515 
L 546.674982 -144.611077 
L 546.794164 -142.355638 
L 546.944362 -140.1002 
L 547.129488 -137.844762 
L 547.352521 -135.589323 
L 547.614978 -133.333885 
L 547.916383 -131.078446 
L 548.253795 -128.823008 
L 548.621462 -126.567569 
L 549.010679 -124.312131 
L 549.409911 -122.056692 
L 549.805203 -119.801254 
L 550.180899 -117.545815 
L 550.520613 -115.290377 
L 550.808392 -113.034938 
L 551.029943 -110.7795 
L 551.173808 -108.524062 
L 551.232345 -106.268623 
L 551.202402 -104.013185 
L 551.085593 -101.757746 
L 550.888162 -99.502308 
L 550.620421 -97.246869 
L 550.295866 -94.991431 
L 549.930046 -92.735992 
L 549.539339 -90.480554 
L 549.139757 -88.225115 
L 548.745897 -85.969677 
L 548.370142 -83.714238 
L 548.02214 -81.4588 
L 547.708598 -79.203362 
L 547.433341 -76.947923 
L 547.197596 -74.692485 
L 547.000436 -72.437046 
z
" style="stroke: #4c4c4c; stroke-width: 1.5"/>
    </defs>
    <g clip-path="url(#p4644890991)">
     <use xlink:href="#m23150baab1" x="0" y="351.126562" style="fill: #cc8963; stroke: #4c4c4c; stroke-width: 1.5"/>
    </g>
   </g>
   <g id="PolyCollection_11">
    <defs>
     <path id="m56909a345f" d="M 651.568791 -58.799218 
L 650.172175 -58.799218 
L 649.847276 -61.330168 
L 649.471159 -63.861118 
L 649.042216 -66.392068 
L 648.5605 -68.923018 
L 648.028067 -71.453968 
L 647.449249 -73.984918 
L 646.830842 -76.515869 
L 646.18217 -79.046819 
L 645.515005 -81.577769 
L 644.843326 -84.108719 
L 644.182913 -86.639669 
L 643.550781 -89.170619 
L 642.964489 -91.701569 
L 642.441345 -94.23252 
L 641.997566 -96.76347 
L 641.64745 -99.29442 
L 641.402611 -101.82537 
L 641.271337 -104.35632 
L 641.258131 -106.88727 
L 641.363445 -109.418221 
L 641.583664 -111.949171 
L 641.911306 -114.480121 
L 642.335446 -117.011071 
L 642.842318 -119.542021 
L 643.416062 -122.072971 
L 644.039538 -124.603921 
L 644.695173 -127.134872 
L 645.365765 -129.665822 
L 646.035206 -132.196772 
L 646.689076 -134.727722 
L 647.315084 -137.258672 
L 647.903347 -139.789622 
L 648.446503 -142.320573 
L 648.939677 -144.851523 
L 649.380316 -147.382473 
L 649.767926 -149.913423 
L 650.103742 -152.444373 
L 650.390363 -154.975323 
L 650.631375 -157.506273 
L 650.830985 -160.037224 
L 650.993695 -162.568174 
L 651.124006 -165.099124 
L 651.226173 -167.630074 
L 651.304001 -170.161024 
L 651.360681 -172.691974 
L 651.398657 -175.222924 
L 651.419509 -177.753875 
L 651.423852 -180.284825 
L 651.411233 -182.815775 
L 651.380036 -185.346725 
L 651.327368 -187.877675 
L 651.248958 -190.408625 
L 651.139054 -192.939576 
L 650.990341 -195.470526 
L 650.793899 -198.001476 
L 650.539218 -200.532426 
L 650.214298 -203.063376 
L 649.805866 -205.594326 
L 649.299714 -208.125276 
L 648.681209 -210.656227 
L 647.935957 -213.187177 
L 647.050628 -215.718127 
L 646.013935 -218.249077 
L 644.817712 -220.780027 
L 643.458048 -223.310977 
L 641.936406 -225.841927 
L 640.260623 -228.372878 
L 638.445719 -230.903828 
L 636.514389 -233.434778 
L 634.497113 -235.965728 
L 632.431806 -238.496678 
L 630.362953 -241.027628 
L 628.340247 -243.558579 
L 626.416756 -246.089529 
L 624.646694 -248.620479 
L 623.082938 -251.151429 
L 621.774423 -253.682379 
L 620.763612 -256.213329 
L 620.084212 -258.744279 
L 619.759306 -261.27523 
L 619.800051 -263.80618 
L 620.205043 -266.33713 
L 620.960399 -268.86808 
L 622.040544 -271.39903 
L 623.409648 -273.92998 
L 625.023604 -276.460931 
L 626.832377 -278.991881 
L 628.78257 -281.522831 
L 630.820015 -284.053781 
L 632.892216 -286.584731 
L 634.950491 -289.115681 
L 636.951713 -291.646631 
L 638.859564 -294.177582 
L 640.645279 -296.708532 
L 642.287892 -299.239482 
L 643.774037 -301.770432 
L 645.097374 -304.301382 
L 646.257734 -306.832332 
L 647.260082 -309.363282 
L 651.568791 -309.363282 
L 651.568791 -309.363282 
L 651.568791 -306.832332 
L 651.568791 -304.301382 
L 651.568791 -301.770432 
L 651.568791 -299.239482 
L 651.568791 -296.708532 
L 651.568791 -294.177582 
L 651.568791 -291.646631 
L 651.568791 -289.115681 
L 651.568791 -286.584731 
L 651.568791 -284.053781 
L 651.568791 -281.522831 
L 651.568791 -278.991881 
L 651.568791 -276.460931 
L 651.568791 -273.92998 
L 651.568791 -271.39903 
L 651.568791 -268.86808 
L 651.568791 -266.33713 
L 651.568791 -263.80618 
L 651.568791 -261.27523 
L 651.568791 -258.744279 
L 651.568791 -256.213329 
L 651.568791 -253.682379 
L 651.568791 -251.151429 
L 651.568791 -248.620479 
L 651.568791 -246.089529 
L 651.568791 -243.558579 
L 651.568791 -241.027628 
L 651.568791 -238.496678 
L 651.568791 -235.965728 
L 651.568791 -233.434778 
L 651.568791 -230.903828 
L 651.568791 -228.372878 
L 651.568791 -225.841927 
L 651.568791 -223.310977 
L 651.568791 -220.780027 
L 651.568791 -218.249077 
L 651.568791 -215.718127 
L 651.568791 -213.187177 
L 651.568791 -210.656227 
L 651.568791 -208.125276 
L 651.568791 -205.594326 
L 651.568791 -203.063376 
L 651.568791 -200.532426 
L 651.568791 -198.001476 
L 651.568791 -195.470526 
L 651.568791 -192.939576 
L 651.568791 -190.408625 
L 651.568791 -187.877675 
L 651.568791 -185.346725 
L 651.568791 -182.815775 
L 651.568791 -180.284825 
L 651.568791 -177.753875 
L 651.568791 -175.222924 
L 651.568791 -172.691974 
L 651.568791 -170.161024 
L 651.568791 -167.630074 
L 651.568791 -165.099124 
L 651.568791 -162.568174 
L 651.568791 -160.037224 
L 651.568791 -157.506273 
L 651.568791 -154.975323 
L 651.568791 -152.444373 
L 651.568791 -149.913423 
L 651.568791 -147.382473 
L 651.568791 -144.851523 
L 651.568791 -142.320573 
L 651.568791 -139.789622 
L 651.568791 -137.258672 
L 651.568791 -134.727722 
L 651.568791 -132.196772 
L 651.568791 -129.665822 
L 651.568791 -127.134872 
L 651.568791 -124.603921 
L 651.568791 -122.072971 
L 651.568791 -119.542021 
L 651.568791 -117.011071 
L 651.568791 -114.480121 
L 651.568791 -111.949171 
L 651.568791 -109.418221 
L 651.568791 -106.88727 
L 651.568791 -104.35632 
L 651.568791 -101.82537 
L 651.568791 -99.29442 
L 651.568791 -96.76347 
L 651.568791 -94.23252 
L 651.568791 -91.701569 
L 651.568791 -89.170619 
L 651.568791 -86.639669 
L 651.568791 -84.108719 
L 651.568791 -81.577769 
L 651.568791 -79.046819 
L 651.568791 -76.515869 
L 651.568791 -73.984918 
L 651.568791 -71.453968 
L 651.568791 -68.923018 
L 651.568791 -66.392068 
L 651.568791 -63.861118 
L 651.568791 -61.330168 
L 651.568791 -58.799218 
z
" style="stroke: #4c4c4c; stroke-width: 1.5"/>
    </defs>
    <g clip-path="url(#p4644890991)">
     <use xlink:href="#m56909a345f" x="0" y="351.126562" style="fill: #5875a4; stroke: #4c4c4c; stroke-width: 1.5"/>
    </g>
   </g>
   <g id="PolyCollection_12">
    <defs>
     <path id="m077daf459f" d="M 652.62443 -66.125132 
L 651.568791 -66.125132 
L 651.568791 -68.508084 
L 651.568791 -70.891036 
L 651.568791 -73.273988 
L 651.568791 -75.65694 
L 651.568791 -78.039892 
L 651.568791 -80.422843 
L 651.568791 -82.805795 
L 651.568791 -85.188747 
L 651.568791 -87.571699 
L 651.568791 -89.954651 
L 651.568791 -92.337603 
L 651.568791 -94.720555 
L 651.568791 -97.103507 
L 651.568791 -99.486458 
L 651.568791 -101.86941 
L 651.568791 -104.252362 
L 651.568791 -106.635314 
L 651.568791 -109.018266 
L 651.568791 -111.401218 
L 651.568791 -113.78417 
L 651.568791 -116.167122 
L 651.568791 -118.550073 
L 651.568791 -120.933025 
L 651.568791 -123.315977 
L 651.568791 -125.698929 
L 651.568791 -128.081881 
L 651.568791 -130.464833 
L 651.568791 -132.847785 
L 651.568791 -135.230737 
L 651.568791 -137.613688 
L 651.568791 -139.99664 
L 651.568791 -142.379592 
L 651.568791 -144.762544 
L 651.568791 -147.145496 
L 651.568791 -149.528448 
L 651.568791 -151.9114 
L 651.568791 -154.294352 
L 651.568791 -156.677303 
L 651.568791 -159.060255 
L 651.568791 -161.443207 
L 651.568791 -163.826159 
L 651.568791 -166.209111 
L 651.568791 -168.592063 
L 651.568791 -170.975015 
L 651.568791 -173.357967 
L 651.568791 -175.740918 
L 651.568791 -178.12387 
L 651.568791 -180.506822 
L 651.568791 -182.889774 
L 651.568791 -185.272726 
L 651.568791 -187.655678 
L 651.568791 -190.03863 
L 651.568791 -192.421582 
L 651.568791 -194.804533 
L 651.568791 -197.187485 
L 651.568791 -199.570437 
L 651.568791 -201.953389 
L 651.568791 -204.336341 
L 651.568791 -206.719293 
L 651.568791 -209.102245 
L 651.568791 -211.485197 
L 651.568791 -213.868148 
L 651.568791 -216.2511 
L 651.568791 -218.634052 
L 651.568791 -221.017004 
L 651.568791 -223.399956 
L 651.568791 -225.782908 
L 651.568791 -228.16586 
L 651.568791 -230.548812 
L 651.568791 -232.931763 
L 651.568791 -235.314715 
L 651.568791 -237.697667 
L 651.568791 -240.080619 
L 651.568791 -242.463571 
L 651.568791 -244.846523 
L 651.568791 -247.229475 
L 651.568791 -249.612427 
L 651.568791 -251.995378 
L 651.568791 -254.37833 
L 651.568791 -256.761282 
L 651.568791 -259.144234 
L 651.568791 -261.527186 
L 651.568791 -263.910138 
L 651.568791 -266.29309 
L 651.568791 -268.676042 
L 651.568791 -271.058993 
L 651.568791 -273.441945 
L 651.568791 -275.824897 
L 651.568791 -278.207849 
L 651.568791 -280.590801 
L 651.568791 -282.973753 
L 651.568791 -285.356705 
L 651.568791 -287.739657 
L 651.568791 -290.122608 
L 651.568791 -292.50556 
L 651.568791 -294.888512 
L 651.568791 -297.271464 
L 651.568791 -299.654416 
L 651.568791 -302.037368 
L 657.269239 -302.037368 
L 657.269239 -302.037368 
L 658.760975 -299.654416 
L 660.513744 -297.271464 
L 662.535112 -294.888512 
L 664.821643 -292.50556 
L 667.356652 -290.122608 
L 670.108495 -287.739657 
L 673.029687 -285.356705 
L 676.057079 -282.973753 
L 679.11327 -280.590801 
L 682.109298 -278.207849 
L 684.948572 -275.824897 
L 687.531819 -273.441945 
L 689.762741 -271.058993 
L 691.553914 -268.676042 
L 692.832461 -266.29309 
L 693.54496 -263.910138 
L 693.661154 -261.527186 
L 693.176074 -259.144234 
L 692.110397 -256.761282 
L 690.508983 -254.37833 
L 688.437742 -251.995378 
L 685.979135 -249.612427 
L 683.226741 -247.229475 
L 680.279381 -244.846523 
L 677.235311 -242.463571 
L 674.186958 -240.080619 
L 671.216565 -237.697667 
L 668.393008 -235.314715 
L 665.769889 -232.931763 
L 663.384901 -230.548812 
L 661.260328 -228.16586 
L 659.404465 -225.782908 
L 657.813693 -223.399956 
L 656.474937 -221.017004 
L 655.368242 -218.634052 
L 654.469251 -216.2511 
L 653.751414 -213.868148 
L 653.187827 -211.485197 
L 652.752655 -209.102245 
L 652.422119 -206.719293 
L 652.175117 -204.336341 
L 651.993496 -201.953389 
L 651.862083 -199.570437 
L 651.768522 -197.187485 
L 651.703002 -194.804533 
L 651.657916 -192.421582 
L 651.627508 -190.03863 
L 651.607542 -187.655678 
L 651.594994 -185.272726 
L 651.587806 -182.889774 
L 651.584684 -180.506822 
L 651.584954 -178.12387 
L 651.588459 -175.740918 
L 651.59551 -173.357967 
L 651.606862 -170.975015 
L 651.623725 -168.592063 
L 651.647791 -166.209111 
L 651.681269 -163.826159 
L 651.726922 -161.443207 
L 651.788083 -159.060255 
L 651.868644 -156.677303 
L 651.972997 -154.294352 
L 652.105922 -151.9114 
L 652.272398 -149.528448 
L 652.477339 -147.145496 
L 652.725256 -144.762544 
L 653.019843 -142.379592 
L 653.363521 -139.99664 
L 653.75696 -137.613688 
L 654.198624 -135.230737 
L 654.684387 -132.847785 
L 655.207268 -130.464833 
L 655.757341 -128.081881 
L 656.32185 -125.698929 
L 656.885567 -123.315977 
L 657.431375 -120.933025 
L 657.941077 -118.550073 
L 658.396375 -116.167122 
L 658.779938 -113.78417 
L 659.076496 -111.401218 
L 659.273844 -109.018266 
L 659.363673 -106.635314 
L 659.342156 -104.252362 
L 659.210212 -101.86941 
L 658.973444 -99.486458 
L 658.641745 -97.103507 
L 658.228611 -94.720555 
L 657.750232 -92.337603 
L 657.224441 -89.954651 
L 656.669621 -87.571699 
L 656.103659 -85.188747 
L 655.543031 -82.805795 
L 655.00207 -80.422843 
L 654.492469 -78.039892 
L 654.023023 -75.65694 
L 653.599591 -73.273988 
L 653.225264 -70.891036 
L 652.900677 -68.508084 
L 652.62443 -66.125132 
z
" style="stroke: #4c4c4c; stroke-width: 1.5"/>
    </defs>
    <g clip-path="url(#p4644890991)">
     <use xlink:href="#m077daf459f" x="0" y="351.126562" style="fill: #cc8963; stroke: #4c4c4c; stroke-width: 1.5"/>
    </g>
   </g>
   <g id="line2d_27">
    <path d="M 441.106977 245.223864 
L 441.106977 88.866761 
" clip-path="url(#p4644890991)" style="fill: none; stroke: #4c4c4c; stroke-width: 1.5; stroke-linecap: round"/>
   </g>
   <g id="line2d_28">
    <path d="M 441.106977 245.223864 
L 441.106977 88.866761 
" clip-path="url(#p4644890991)" style="fill: none; stroke: #4c4c4c; stroke-width: 4.5; stroke-linecap: round"/>
   </g>
   <g id="line2d_29">
    <path d="M 546.337884 88.866761 
L 546.337884 88.866761 
" clip-path="url(#p4644890991)" style="fill: none; stroke: #4c4c4c; stroke-width: 1.5; stroke-linecap: round"/>
   </g>
   <g id="line2d_30">
    <path d="M 546.337884 88.866761 
L 546.337884 88.866761 
" clip-path="url(#p4644890991)" style="fill: none; stroke: #4c4c4c; stroke-width: 4.5; stroke-linecap: round"/>
   </g>
   <g id="line2d_31">
    <path d="M 651.568791 88.866761 
L 651.568791 88.866761 
" clip-path="url(#p4644890991)" style="fill: none; stroke: #4c4c4c; stroke-width: 1.5; stroke-linecap: round"/>
   </g>
   <g id="line2d_32">
    <path d="M 651.568791 88.866761 
L 651.568791 88.866761 
" clip-path="url(#p4644890991)" style="fill: none; stroke: #4c4c4c; stroke-width: 4.5; stroke-linecap: round"/>
   </g>
   <g id="patch_10">
    <path d="M 388.491524 313.292187 
L 388.491524 20.798437 
" style="fill: none; stroke: #262626; stroke-width: 0.8; stroke-linejoin: miter; stroke-linecap: square"/>
   </g>
   <g id="patch_11">
    <path d="M 388.491524 313.292187 
L 704.184245 313.292187 
" style="fill: none; stroke: #262626; stroke-width: 0.8; stroke-linejoin: miter; stroke-linecap: square"/>
   </g>
   <g id="PathCollection_4">
    <g clip-path="url(#p4644890991)">
     <use xlink:href="#md3cf8160e9" x="441.106977" y="88.866761" style="fill: #ffffff; stroke: #4c4c4c"/>
    </g>
   </g>
   <g id="PathCollection_5">
    <g clip-path="url(#p4644890991)">
     <use xlink:href="#md3cf8160e9" x="546.337884" y="88.866761" style="fill: #ffffff; stroke: #4c4c4c"/>
    </g>
   </g>
   <g id="PathCollection_6">
    <g clip-path="url(#p4644890991)">
     <use xlink:href="#md3cf8160e9" x="651.568791" y="88.866761" style="fill: #ffffff; stroke: #4c4c4c"/>
    </g>
   </g>
   <g id="text_18">
    <!-- Dyn_obs = 10.0 -->
    <g style="fill: #262626" transform="translate(506.520697 14.798437)scale(0.1 -0.1)">
     <use xlink:href="#DejaVuSans-44"/>
     <use xlink:href="#DejaVuSans-79" x="77.001953"/>
     <use xlink:href="#DejaVuSans-6e" x="136.181641"/>
     <use xlink:href="#DejaVuSans-5f" x="199.560547"/>
     <use xlink:href="#DejaVuSans-6f" x="249.560547"/>
     <use xlink:href="#DejaVuSans-62" x="310.742188"/>
     <use xlink:href="#DejaVuSans-73" x="374.21875"/>
     <use xlink:href="#DejaVuSans-20" x="426.318359"/>
     <use xlink:href="#DejaVuSans-3d" x="458.105469"/>
     <use xlink:href="#DejaVuSans-20" x="541.894531"/>
     <use xlink:href="#DejaVuSans-31" x="573.681641"/>
     <use xlink:href="#DejaVuSans-30" x="637.304688"/>
     <use xlink:href="#DejaVuSans-2e" x="700.927734"/>
     <use xlink:href="#DejaVuSans-30" x="732.714844"/>
    </g>
   </g>
  </g>
  <g id="legend_1">
   <g id="text_19">
    <!-- dim -->
    <g style="fill: #262626" transform="translate(724.032682 163.644531)scale(0.1 -0.1)">
     <defs>
      <path id="DejaVuSans-69" d="M 603 3500 
L 1178 3500 
L 1178 0 
L 603 0 
L 603 3500 
z
M 603 4863 
L 1178 4863 
L 1178 4134 
L 603 4134 
L 603 4863 
z
" transform="scale(0.015625)"/>
     </defs>
     <use xlink:href="#DejaVuSans-64"/>
     <use xlink:href="#DejaVuSans-69" x="63.476562"/>
     <use xlink:href="#DejaVuSans-6d" x="91.259766"/>
    </g>
   </g>
   <g id="patch_12">
    <path d="M 713.110807 178.322656 
L 733.110807 178.322656 
L 733.110807 171.322656 
L 713.110807 171.322656 
z
" style="fill: #5875a4; stroke: #4c4c4c; stroke-width: 0.75; stroke-linejoin: miter"/>
   </g>
   <g id="text_20">
    <!-- 2d -->
    <g style="fill: #262626" transform="translate(741.110807 178.322656)scale(0.1 -0.1)">
     <use xlink:href="#DejaVuSans-32"/>
     <use xlink:href="#DejaVuSans-64" x="63.623047"/>
    </g>
   </g>
   <g id="patch_13">
    <path d="M 713.110807 193.000781 
L 733.110807 193.000781 
L 733.110807 186.000781 
L 713.110807 186.000781 
z
" style="fill: #cc8963; stroke: #4c4c4c; stroke-width: 0.75; stroke-linejoin: miter"/>
   </g>
   <g id="text_21">
    <!-- 3d -->
    <g style="fill: #262626" transform="translate(741.110807 193.000781)scale(0.1 -0.1)">
     <defs>
      <path id="DejaVuSans-33" d="M 2597 2516 
Q 3050 2419 3304 2112 
Q 3559 1806 3559 1356 
Q 3559 666 3084 287 
Q 2609 -91 1734 -91 
Q 1441 -91 1130 -33 
Q 819 25 488 141 
L 488 750 
Q 750 597 1062 519 
Q 1375 441 1716 441 
Q 2309 441 2620 675 
Q 2931 909 2931 1356 
Q 2931 1769 2642 2001 
Q 2353 2234 1838 2234 
L 1294 2234 
L 1294 2753 
L 1863 2753 
Q 2328 2753 2575 2939 
Q 2822 3125 2822 3475 
Q 2822 3834 2567 4026 
Q 2313 4219 1838 4219 
Q 1578 4219 1281 4162 
Q 984 4106 628 3988 
L 628 4550 
Q 988 4650 1302 4700 
Q 1616 4750 1894 4750 
Q 2613 4750 3031 4423 
Q 3450 4097 3450 3541 
Q 3450 3153 3228 2886 
Q 3006 2619 2597 2516 
z
" transform="scale(0.015625)"/>
     </defs>
     <use xlink:href="#DejaVuSans-33"/>
     <use xlink:href="#DejaVuSans-64" x="63.623047"/>
    </g>
   </g>
  </g>
 </g>
 <defs>
  <clipPath id="pa61a82eb86">
   <rect x="58.523438" y="20.798437" width="315.692721" height="292.49375"/>
  </clipPath>
  <clipPath id="p4644890991">
   <rect x="388.491524" y="20.798437" width="315.692721" height="292.49375"/>
  </clipPath>
 </defs>
</svg>
