<?xml version="1.0" encoding="utf-8" standalone="no"?>
<!DOCTYPE svg PUBLIC "-//W3C//DTD SVG 1.1//EN"
  "http://www.w3.org/Graphics/SVG/1.1/DTD/svg11.dtd">
<svg xmlns:xlink="http://www.w3.org/1999/xlink" width="763.265885pt" height="351.126562pt" viewBox="0 0 763.265885 351.126562" xmlns="http://www.w3.org/2000/svg" version="1.1">
 <metadata>
  <rdf:RDF xmlns:dc="http://purl.org/dc/elements/1.1/" xmlns:cc="http://creativecommons.org/ns#" xmlns:rdf="http://www.w3.org/1999/02/22-rdf-syntax-ns#">
   <cc:Work>
    <dc:type rdf:resource="http://purl.org/dc/dcmitype/StillImage"/>
    <dc:date>2022-03-28T23:39:20.027824</dc:date>
    <dc:format>image/svg+xml</dc:format>
    <dc:creator>
     <cc:Agent>
      <dc:title>Matplotlib v3.5.1, https://matplotlib.org/</dc:title>
     </cc:Agent>
    </dc:creator>
   </cc:Work>
  </rdf:RDF>
 </metadata>
 <defs>
  <style type="text/css">*{stroke-linejoin: round; stroke-linecap: butt}</style>
 </defs>
 <g id="figure_1">
  <g id="patch_1">
   <path d="M 0 351.126562 
L 763.265885 351.126562 
L 763.265885 0 
L 0 0 
z
" style="fill: #ffffff"/>
  </g>
  <g id="axes_1">
   <g id="patch_2">
    <path d="M 52.160938 313.292187 
L 371.252133 313.292187 
L 371.252133 20.798437 
L 52.160938 20.798437 
z
" style="fill: #ffffff"/>
   </g>
   <g id="matplotlib.axis_1">
    <g id="xtick_1">
     <g id="line2d_1">
      <defs>
       <path id="m0d5c16bc34" d="M 0 0 
L 0 3.5 
" style="stroke: #262626; stroke-width: 0.8"/>
      </defs>
      <g>
       <use xlink:href="#m0d5c16bc34" x="105.342803" y="313.292187" style="fill: #262626; stroke: #262626; stroke-width: 0.8"/>
      </g>
     </g>
     <g id="text_1">
      <!-- map2 -->
      <g style="fill: #262626" transform="translate(91.05296 327.890625)scale(0.1 -0.1)">
       <defs>
        <path id="DejaVuSans-6d" d="M 3328 2828 
Q 3544 3216 3844 3400 
Q 4144 3584 4550 3584 
Q 5097 3584 5394 3201 
Q 5691 2819 5691 2113 
L 5691 0 
L 5113 0 
L 5113 2094 
Q 5113 2597 4934 2840 
Q 4756 3084 4391 3084 
Q 3944 3084 3684 2787 
Q 3425 2491 3425 1978 
L 3425 0 
L 2847 0 
L 2847 2094 
Q 2847 2600 2669 2842 
Q 2491 3084 2119 3084 
Q 1678 3084 1418 2786 
Q 1159 2488 1159 1978 
L 1159 0 
L 581 0 
L 581 3500 
L 1159 3500 
L 1159 2956 
Q 1356 3278 1631 3431 
Q 1906 3584 2284 3584 
Q 2666 3584 2933 3390 
Q 3200 3197 3328 2828 
z
" transform="scale(0.015625)"/>
        <path id="DejaVuSans-61" d="M 2194 1759 
Q 1497 1759 1228 1600 
Q 959 1441 959 1056 
Q 959 750 1161 570 
Q 1363 391 1709 391 
Q 2188 391 2477 730 
Q 2766 1069 2766 1631 
L 2766 1759 
L 2194 1759 
z
M 3341 1997 
L 3341 0 
L 2766 0 
L 2766 531 
Q 2569 213 2275 61 
Q 1981 -91 1556 -91 
Q 1019 -91 701 211 
Q 384 513 384 1019 
Q 384 1609 779 1909 
Q 1175 2209 1959 2209 
L 2766 2209 
L 2766 2266 
Q 2766 2663 2505 2880 
Q 2244 3097 1772 3097 
Q 1472 3097 1187 3025 
Q 903 2953 641 2809 
L 641 3341 
Q 956 3463 1253 3523 
Q 1550 3584 1831 3584 
Q 2591 3584 2966 3190 
Q 3341 2797 3341 1997 
z
" transform="scale(0.015625)"/>
        <path id="DejaVuSans-70" d="M 1159 525 
L 1159 -1331 
L 581 -1331 
L 581 3500 
L 1159 3500 
L 1159 2969 
Q 1341 3281 1617 3432 
Q 1894 3584 2278 3584 
Q 2916 3584 3314 3078 
Q 3713 2572 3713 1747 
Q 3713 922 3314 415 
Q 2916 -91 2278 -91 
Q 1894 -91 1617 61 
Q 1341 213 1159 525 
z
M 3116 1747 
Q 3116 2381 2855 2742 
Q 2594 3103 2138 3103 
Q 1681 3103 1420 2742 
Q 1159 2381 1159 1747 
Q 1159 1113 1420 752 
Q 1681 391 2138 391 
Q 2594 391 2855 752 
Q 3116 1113 3116 1747 
z
" transform="scale(0.015625)"/>
        <path id="DejaVuSans-32" d="M 1228 531 
L 3431 531 
L 3431 0 
L 469 0 
L 469 531 
Q 828 903 1448 1529 
Q 2069 2156 2228 2338 
Q 2531 2678 2651 2914 
Q 2772 3150 2772 3378 
Q 2772 3750 2511 3984 
Q 2250 4219 1831 4219 
Q 1534 4219 1204 4116 
Q 875 4013 500 3803 
L 500 4441 
Q 881 4594 1212 4672 
Q 1544 4750 1819 4750 
Q 2544 4750 2975 4387 
Q 3406 4025 3406 3419 
Q 3406 3131 3298 2873 
Q 3191 2616 2906 2266 
Q 2828 2175 2409 1742 
Q 1991 1309 1228 531 
z
" transform="scale(0.015625)"/>
       </defs>
       <use xlink:href="#DejaVuSans-6d"/>
       <use xlink:href="#DejaVuSans-61" x="97.412109"/>
       <use xlink:href="#DejaVuSans-70" x="158.691406"/>
       <use xlink:href="#DejaVuSans-32" x="222.167969"/>
      </g>
     </g>
    </g>
    <g id="xtick_2">
     <g id="line2d_2">
      <g>
       <use xlink:href="#m0d5c16bc34" x="211.706535" y="313.292187" style="fill: #262626; stroke: #262626; stroke-width: 0.8"/>
      </g>
     </g>
     <g id="text_2">
      <!-- map5 -->
      <g style="fill: #262626" transform="translate(197.416692 327.890625)scale(0.1 -0.1)">
       <defs>
        <path id="DejaVuSans-35" d="M 691 4666 
L 3169 4666 
L 3169 4134 
L 1269 4134 
L 1269 2991 
Q 1406 3038 1543 3061 
Q 1681 3084 1819 3084 
Q 2600 3084 3056 2656 
Q 3513 2228 3513 1497 
Q 3513 744 3044 326 
Q 2575 -91 1722 -91 
Q 1428 -91 1123 -41 
Q 819 9 494 109 
L 494 744 
Q 775 591 1075 516 
Q 1375 441 1709 441 
Q 2250 441 2565 725 
Q 2881 1009 2881 1497 
Q 2881 1984 2565 2268 
Q 2250 2553 1709 2553 
Q 1456 2553 1204 2497 
Q 953 2441 691 2322 
L 691 4666 
z
" transform="scale(0.015625)"/>
       </defs>
       <use xlink:href="#DejaVuSans-6d"/>
       <use xlink:href="#DejaVuSans-61" x="97.412109"/>
       <use xlink:href="#DejaVuSans-70" x="158.691406"/>
       <use xlink:href="#DejaVuSans-35" x="222.167969"/>
      </g>
     </g>
    </g>
    <g id="xtick_3">
     <g id="line2d_3">
      <g>
       <use xlink:href="#m0d5c16bc34" x="318.070267" y="313.292187" style="fill: #262626; stroke: #262626; stroke-width: 0.8"/>
      </g>
     </g>
     <g id="text_3">
      <!-- small_warehouse -->
      <g style="fill: #262626" transform="translate(275.002299 327.890625)scale(0.1 -0.1)">
       <defs>
        <path id="DejaVuSans-73" d="M 2834 3397 
L 2834 2853 
Q 2591 2978 2328 3040 
Q 2066 3103 1784 3103 
Q 1356 3103 1142 2972 
Q 928 2841 928 2578 
Q 928 2378 1081 2264 
Q 1234 2150 1697 2047 
L 1894 2003 
Q 2506 1872 2764 1633 
Q 3022 1394 3022 966 
Q 3022 478 2636 193 
Q 2250 -91 1575 -91 
Q 1294 -91 989 -36 
Q 684 19 347 128 
L 347 722 
Q 666 556 975 473 
Q 1284 391 1588 391 
Q 1994 391 2212 530 
Q 2431 669 2431 922 
Q 2431 1156 2273 1281 
Q 2116 1406 1581 1522 
L 1381 1569 
Q 847 1681 609 1914 
Q 372 2147 372 2553 
Q 372 3047 722 3315 
Q 1072 3584 1716 3584 
Q 2034 3584 2315 3537 
Q 2597 3491 2834 3397 
z
" transform="scale(0.015625)"/>
        <path id="DejaVuSans-6c" d="M 603 4863 
L 1178 4863 
L 1178 0 
L 603 0 
L 603 4863 
z
" transform="scale(0.015625)"/>
        <path id="DejaVuSans-5f" d="M 3263 -1063 
L 3263 -1509 
L -63 -1509 
L -63 -1063 
L 3263 -1063 
z
" transform="scale(0.015625)"/>
        <path id="DejaVuSans-77" d="M 269 3500 
L 844 3500 
L 1563 769 
L 2278 3500 
L 2956 3500 
L 3675 769 
L 4391 3500 
L 4966 3500 
L 4050 0 
L 3372 0 
L 2619 2869 
L 1863 0 
L 1184 0 
L 269 3500 
z
" transform="scale(0.015625)"/>
        <path id="DejaVuSans-72" d="M 2631 2963 
Q 2534 3019 2420 3045 
Q 2306 3072 2169 3072 
Q 1681 3072 1420 2755 
Q 1159 2438 1159 1844 
L 1159 0 
L 581 0 
L 581 3500 
L 1159 3500 
L 1159 2956 
Q 1341 3275 1631 3429 
Q 1922 3584 2338 3584 
Q 2397 3584 2469 3576 
Q 2541 3569 2628 3553 
L 2631 2963 
z
" transform="scale(0.015625)"/>
        <path id="DejaVuSans-65" d="M 3597 1894 
L 3597 1613 
L 953 1613 
Q 991 1019 1311 708 
Q 1631 397 2203 397 
Q 2534 397 2845 478 
Q 3156 559 3463 722 
L 3463 178 
Q 3153 47 2828 -22 
Q 2503 -91 2169 -91 
Q 1331 -91 842 396 
Q 353 884 353 1716 
Q 353 2575 817 3079 
Q 1281 3584 2069 3584 
Q 2775 3584 3186 3129 
Q 3597 2675 3597 1894 
z
M 3022 2063 
Q 3016 2534 2758 2815 
Q 2500 3097 2075 3097 
Q 1594 3097 1305 2825 
Q 1016 2553 972 2059 
L 3022 2063 
z
" transform="scale(0.015625)"/>
        <path id="DejaVuSans-68" d="M 3513 2113 
L 3513 0 
L 2938 0 
L 2938 2094 
Q 2938 2591 2744 2837 
Q 2550 3084 2163 3084 
Q 1697 3084 1428 2787 
Q 1159 2491 1159 1978 
L 1159 0 
L 581 0 
L 581 4863 
L 1159 4863 
L 1159 2956 
Q 1366 3272 1645 3428 
Q 1925 3584 2291 3584 
Q 2894 3584 3203 3211 
Q 3513 2838 3513 2113 
z
" transform="scale(0.015625)"/>
        <path id="DejaVuSans-6f" d="M 1959 3097 
Q 1497 3097 1228 2736 
Q 959 2375 959 1747 
Q 959 1119 1226 758 
Q 1494 397 1959 397 
Q 2419 397 2687 759 
Q 2956 1122 2956 1747 
Q 2956 2369 2687 2733 
Q 2419 3097 1959 3097 
z
M 1959 3584 
Q 2709 3584 3137 3096 
Q 3566 2609 3566 1747 
Q 3566 888 3137 398 
Q 2709 -91 1959 -91 
Q 1206 -91 779 398 
Q 353 888 353 1747 
Q 353 2609 779 3096 
Q 1206 3584 1959 3584 
z
" transform="scale(0.015625)"/>
        <path id="DejaVuSans-75" d="M 544 1381 
L 544 3500 
L 1119 3500 
L 1119 1403 
Q 1119 906 1312 657 
Q 1506 409 1894 409 
Q 2359 409 2629 706 
Q 2900 1003 2900 1516 
L 2900 3500 
L 3475 3500 
L 3475 0 
L 2900 0 
L 2900 538 
Q 2691 219 2414 64 
Q 2138 -91 1772 -91 
Q 1169 -91 856 284 
Q 544 659 544 1381 
z
M 1991 3584 
L 1991 3584 
z
" transform="scale(0.015625)"/>
       </defs>
       <use xlink:href="#DejaVuSans-73"/>
       <use xlink:href="#DejaVuSans-6d" x="52.099609"/>
       <use xlink:href="#DejaVuSans-61" x="149.511719"/>
       <use xlink:href="#DejaVuSans-6c" x="210.791016"/>
       <use xlink:href="#DejaVuSans-6c" x="238.574219"/>
       <use xlink:href="#DejaVuSans-5f" x="266.357422"/>
       <use xlink:href="#DejaVuSans-77" x="316.357422"/>
       <use xlink:href="#DejaVuSans-61" x="398.144531"/>
       <use xlink:href="#DejaVuSans-72" x="459.423828"/>
       <use xlink:href="#DejaVuSans-65" x="498.287109"/>
       <use xlink:href="#DejaVuSans-68" x="559.810547"/>
       <use xlink:href="#DejaVuSans-6f" x="623.189453"/>
       <use xlink:href="#DejaVuSans-75" x="684.371094"/>
       <use xlink:href="#DejaVuSans-73" x="747.75"/>
       <use xlink:href="#DejaVuSans-65" x="799.849609"/>
      </g>
     </g>
    </g>
    <g id="text_4">
     <!-- World -->
     <g style="fill: #262626" transform="translate(197.37841 341.846875)scale(0.1 -0.1)">
      <defs>
       <path id="DejaVuSans-57" d="M 213 4666 
L 850 4666 
L 1831 722 
L 2809 4666 
L 3519 4666 
L 4500 722 
L 5478 4666 
L 6119 4666 
L 4947 0 
L 4153 0 
L 3169 4050 
L 2175 0 
L 1381 0 
L 213 4666 
z
" transform="scale(0.015625)"/>
       <path id="DejaVuSans-64" d="M 2906 2969 
L 2906 4863 
L 3481 4863 
L 3481 0 
L 2906 0 
L 2906 525 
Q 2725 213 2448 61 
Q 2172 -91 1784 -91 
Q 1150 -91 751 415 
Q 353 922 353 1747 
Q 353 2572 751 3078 
Q 1150 3584 1784 3584 
Q 2172 3584 2448 3432 
Q 2725 3281 2906 2969 
z
M 947 1747 
Q 947 1113 1208 752 
Q 1469 391 1925 391 
Q 2381 391 2643 752 
Q 2906 1113 2906 1747 
Q 2906 2381 2643 2742 
Q 2381 3103 1925 3103 
Q 1469 3103 1208 2742 
Q 947 2381 947 1747 
z
" transform="scale(0.015625)"/>
      </defs>
      <use xlink:href="#DejaVuSans-57"/>
      <use xlink:href="#DejaVuSans-6f" x="93.001953"/>
      <use xlink:href="#DejaVuSans-72" x="154.183594"/>
      <use xlink:href="#DejaVuSans-6c" x="195.296875"/>
      <use xlink:href="#DejaVuSans-64" x="223.080078"/>
     </g>
    </g>
   </g>
   <g id="matplotlib.axis_2">
    <g id="ytick_1">
     <g id="line2d_4">
      <defs>
       <path id="m6fa6d65a39" d="M 0 0 
L -3.5 0 
" style="stroke: #262626; stroke-width: 0.8"/>
      </defs>
      <g>
       <use xlink:href="#m6fa6d65a39" x="52.160938" y="298.562213" style="fill: #262626; stroke: #262626; stroke-width: 0.8"/>
      </g>
     </g>
     <g id="text_5">
      <!-- −0.5 -->
      <g style="fill: #262626" transform="translate(20.878125 302.361432)scale(0.1 -0.1)">
       <defs>
        <path id="DejaVuSans-2212" d="M 678 2272 
L 4684 2272 
L 4684 1741 
L 678 1741 
L 678 2272 
z
" transform="scale(0.015625)"/>
        <path id="DejaVuSans-30" d="M 2034 4250 
Q 1547 4250 1301 3770 
Q 1056 3291 1056 2328 
Q 1056 1369 1301 889 
Q 1547 409 2034 409 
Q 2525 409 2770 889 
Q 3016 1369 3016 2328 
Q 3016 3291 2770 3770 
Q 2525 4250 2034 4250 
z
M 2034 4750 
Q 2819 4750 3233 4129 
Q 3647 3509 3647 2328 
Q 3647 1150 3233 529 
Q 2819 -91 2034 -91 
Q 1250 -91 836 529 
Q 422 1150 422 2328 
Q 422 3509 836 4129 
Q 1250 4750 2034 4750 
z
" transform="scale(0.015625)"/>
        <path id="DejaVuSans-2e" d="M 684 794 
L 1344 794 
L 1344 0 
L 684 0 
L 684 794 
z
" transform="scale(0.015625)"/>
       </defs>
       <use xlink:href="#DejaVuSans-2212"/>
       <use xlink:href="#DejaVuSans-30" x="83.789062"/>
       <use xlink:href="#DejaVuSans-2e" x="147.412109"/>
       <use xlink:href="#DejaVuSans-35" x="179.199219"/>
      </g>
     </g>
    </g>
    <g id="ytick_2">
     <g id="line2d_5">
      <g>
       <use xlink:href="#m6fa6d65a39" x="52.160938" y="253.993874" style="fill: #262626; stroke: #262626; stroke-width: 0.8"/>
      </g>
     </g>
     <g id="text_6">
      <!-- 0.0 -->
      <g style="fill: #262626" transform="translate(29.257812 257.793093)scale(0.1 -0.1)">
       <use xlink:href="#DejaVuSans-30"/>
       <use xlink:href="#DejaVuSans-2e" x="63.623047"/>
       <use xlink:href="#DejaVuSans-30" x="95.410156"/>
      </g>
     </g>
    </g>
    <g id="ytick_3">
     <g id="line2d_6">
      <g>
       <use xlink:href="#m6fa6d65a39" x="52.160938" y="209.425535" style="fill: #262626; stroke: #262626; stroke-width: 0.8"/>
      </g>
     </g>
     <g id="text_7">
      <!-- 0.5 -->
      <g style="fill: #262626" transform="translate(29.257812 213.224754)scale(0.1 -0.1)">
       <use xlink:href="#DejaVuSans-30"/>
       <use xlink:href="#DejaVuSans-2e" x="63.623047"/>
       <use xlink:href="#DejaVuSans-35" x="95.410156"/>
      </g>
     </g>
    </g>
    <g id="ytick_4">
     <g id="line2d_7">
      <g>
       <use xlink:href="#m6fa6d65a39" x="52.160938" y="164.857196" style="fill: #262626; stroke: #262626; stroke-width: 0.8"/>
      </g>
     </g>
     <g id="text_8">
      <!-- 1.0 -->
      <g style="fill: #262626" transform="translate(29.257812 168.656415)scale(0.1 -0.1)">
       <defs>
        <path id="DejaVuSans-31" d="M 794 531 
L 1825 531 
L 1825 4091 
L 703 3866 
L 703 4441 
L 1819 4666 
L 2450 4666 
L 2450 531 
L 3481 531 
L 3481 0 
L 794 0 
L 794 531 
z
" transform="scale(0.015625)"/>
       </defs>
       <use xlink:href="#DejaVuSans-31"/>
       <use xlink:href="#DejaVuSans-2e" x="63.623047"/>
       <use xlink:href="#DejaVuSans-30" x="95.410156"/>
      </g>
     </g>
    </g>
    <g id="ytick_5">
     <g id="line2d_8">
      <g>
       <use xlink:href="#m6fa6d65a39" x="52.160938" y="120.288857" style="fill: #262626; stroke: #262626; stroke-width: 0.8"/>
      </g>
     </g>
     <g id="text_9">
      <!-- 1.5 -->
      <g style="fill: #262626" transform="translate(29.257812 124.088076)scale(0.1 -0.1)">
       <use xlink:href="#DejaVuSans-31"/>
       <use xlink:href="#DejaVuSans-2e" x="63.623047"/>
       <use xlink:href="#DejaVuSans-35" x="95.410156"/>
      </g>
     </g>
    </g>
    <g id="ytick_6">
     <g id="line2d_9">
      <g>
       <use xlink:href="#m6fa6d65a39" x="52.160938" y="75.720518" style="fill: #262626; stroke: #262626; stroke-width: 0.8"/>
      </g>
     </g>
     <g id="text_10">
      <!-- 2.0 -->
      <g style="fill: #262626" transform="translate(29.257812 79.519737)scale(0.1 -0.1)">
       <use xlink:href="#DejaVuSans-32"/>
       <use xlink:href="#DejaVuSans-2e" x="63.623047"/>
       <use xlink:href="#DejaVuSans-30" x="95.410156"/>
      </g>
     </g>
    </g>
    <g id="ytick_7">
     <g id="line2d_10">
      <g>
       <use xlink:href="#m6fa6d65a39" x="52.160938" y="31.152179" style="fill: #262626; stroke: #262626; stroke-width: 0.8"/>
      </g>
     </g>
     <g id="text_11">
      <!-- 2.5 -->
      <g style="fill: #262626" transform="translate(29.257812 34.951398)scale(0.1 -0.1)">
       <use xlink:href="#DejaVuSans-32"/>
       <use xlink:href="#DejaVuSans-2e" x="63.623047"/>
       <use xlink:href="#DejaVuSans-35" x="95.410156"/>
      </g>
     </g>
    </g>
    <g id="text_12">
     <!-- vel -->
     <g style="fill: #262626" transform="translate(14.798438 174.470312)rotate(-90)scale(0.1 -0.1)">
      <defs>
       <path id="DejaVuSans-76" d="M 191 3500 
L 800 3500 
L 1894 563 
L 2988 3500 
L 3597 3500 
L 2284 0 
L 1503 0 
L 191 3500 
z
" transform="scale(0.015625)"/>
      </defs>
      <use xlink:href="#DejaVuSans-76"/>
      <use xlink:href="#DejaVuSans-65" x="59.179688"/>
      <use xlink:href="#DejaVuSans-6c" x="120.703125"/>
     </g>
    </g>
   </g>
   <g id="patch_3">
    <path d="M 105.342803 253.993874 
L 105.342803 253.993874 
L 105.342803 253.993874 
L 105.342803 253.993874 
z
" clip-path="url(#pa78f9f87bc)" style="fill: #5875a4; stroke: #4c4c4c; stroke-width: 0.75; stroke-linejoin: miter"/>
   </g>
   <g id="PolyCollection_1">
    <defs>
     <path id="mf9948a55e4" d="M 105.342803 -81.672295 
L 101.277872 -81.672295 
L 99.940143 -83.902155 
L 98.29446 -86.132015 
L 96.316668 -88.361875 
L 93.996244 -90.591736 
L 91.34086 -92.821596 
L 88.380257 -95.051456 
L 85.168789 -97.281316 
L 81.786016 -99.511176 
L 78.334891 -101.741036 
L 74.937301 -103.970896 
L 71.727077 -106.200756 
L 68.840932 -108.430616 
L 66.408129 -110.660476 
L 64.539943 -112.890337 
L 63.320098 -115.120197 
L 62.797311 -117.350057 
L 62.980874 -119.579917 
L 63.839829 -121.809777 
L 65.305859 -124.039637 
L 67.279544 -126.269497 
L 69.639237 -128.499357 
L 72.251502 -130.729217 
L 74.981956 -132.959077 
L 77.705343 -135.188938 
L 80.313901 -137.418798 
L 82.723315 -139.648658 
L 84.875945 -141.878518 
L 86.741318 -144.108378 
L 88.314198 -146.338238 
L 89.610748 -148.568098 
L 90.663451 -150.797958 
L 91.515441 -153.027818 
L 92.214907 -155.257678 
L 92.810064 -157.487539 
L 93.345072 -159.717399 
L 93.857119 -161.947259 
L 94.3747 -164.177119 
L 94.917039 -166.406979 
L 95.494443 -168.636839 
L 96.109381 -170.866699 
L 96.757997 -173.096559 
L 97.431833 -175.326419 
L 98.119536 -177.556279 
L 98.808394 -179.78614 
L 99.485615 -182.016 
L 100.139293 -184.24586 
L 100.75907 -186.47572 
L 101.336522 -188.70558 
L 101.86531 -190.93544 
L 102.341148 -193.1653 
L 102.761648 -195.39516 
L 103.126051 -197.62502 
L 103.434914 -199.85488 
L 103.689753 -202.084741 
L 103.892683 -204.314601 
L 104.046075 -206.544461 
L 104.152251 -208.774321 
L 104.213248 -211.004181 
L 104.230653 -213.234041 
L 104.205534 -215.463901 
L 104.138465 -217.693761 
L 104.029639 -219.923621 
L 103.87907 -222.153481 
L 103.686847 -224.383342 
L 103.453443 -226.613202 
L 103.180036 -228.843062 
L 102.868827 -231.072922 
L 102.523331 -233.302782 
L 102.148608 -235.532642 
L 101.75141 -237.762502 
L 101.340237 -239.992362 
L 100.925255 -242.222222 
L 100.518081 -244.452082 
L 100.13142 -246.681943 
L 99.778562 -248.911803 
L 99.472755 -251.141663 
L 99.226486 -253.371523 
L 99.050719 -255.601383 
L 98.954166 -257.831243 
L 98.942625 -260.061103 
L 99.018498 -262.290963 
L 99.180497 -264.520823 
L 99.423629 -266.750683 
L 99.739432 -268.980544 
L 100.116479 -271.210404 
L 100.5411 -273.440264 
L 100.99825 -275.670124 
L 101.472456 -277.899984 
L 101.948748 -280.129844 
L 102.413484 -282.359704 
L 102.855016 -284.589564 
L 103.264146 -286.819424 
L 103.63434 -289.049284 
L 103.961735 -291.279145 
L 104.244936 -293.509005 
L 104.484673 -295.738865 
L 104.68337 -297.968725 
L 104.844661 -300.198585 
L 104.972928 -302.428445 
L 105.342803 -302.428445 
L 105.342803 -302.428445 
L 105.342803 -300.198585 
L 105.342803 -297.968725 
L 105.342803 -295.738865 
L 105.342803 -293.509005 
L 105.342803 -291.279145 
L 105.342803 -289.049284 
L 105.342803 -286.819424 
L 105.342803 -284.589564 
L 105.342803 -282.359704 
L 105.342803 -280.129844 
L 105.342803 -277.899984 
L 105.342803 -275.670124 
L 105.342803 -273.440264 
L 105.342803 -271.210404 
L 105.342803 -268.980544 
L 105.342803 -266.750683 
L 105.342803 -264.520823 
L 105.342803 -262.290963 
L 105.342803 -260.061103 
L 105.342803 -257.831243 
L 105.342803 -255.601383 
L 105.342803 -253.371523 
L 105.342803 -251.141663 
L 105.342803 -248.911803 
L 105.342803 -246.681943 
L 105.342803 -244.452082 
L 105.342803 -242.222222 
L 105.342803 -239.992362 
L 105.342803 -237.762502 
L 105.342803 -235.532642 
L 105.342803 -233.302782 
L 105.342803 -231.072922 
L 105.342803 -228.843062 
L 105.342803 -226.613202 
L 105.342803 -224.383342 
L 105.342803 -222.153481 
L 105.342803 -219.923621 
L 105.342803 -217.693761 
L 105.342803 -215.463901 
L 105.342803 -213.234041 
L 105.342803 -211.004181 
L 105.342803 -208.774321 
L 105.342803 -206.544461 
L 105.342803 -204.314601 
L 105.342803 -202.084741 
L 105.342803 -199.85488 
L 105.342803 -197.62502 
L 105.342803 -195.39516 
L 105.342803 -193.1653 
L 105.342803 -190.93544 
L 105.342803 -188.70558 
L 105.342803 -186.47572 
L 105.342803 -184.24586 
L 105.342803 -182.016 
L 105.342803 -179.78614 
L 105.342803 -177.556279 
L 105.342803 -175.326419 
L 105.342803 -173.096559 
L 105.342803 -170.866699 
L 105.342803 -168.636839 
L 105.342803 -166.406979 
L 105.342803 -164.177119 
L 105.342803 -161.947259 
L 105.342803 -159.717399 
L 105.342803 -157.487539 
L 105.342803 -155.257678 
L 105.342803 -153.027818 
L 105.342803 -150.797958 
L 105.342803 -148.568098 
L 105.342803 -146.338238 
L 105.342803 -144.108378 
L 105.342803 -141.878518 
L 105.342803 -139.648658 
L 105.342803 -137.418798 
L 105.342803 -135.188938 
L 105.342803 -132.959077 
L 105.342803 -130.729217 
L 105.342803 -128.499357 
L 105.342803 -126.269497 
L 105.342803 -124.039637 
L 105.342803 -121.809777 
L 105.342803 -119.579917 
L 105.342803 -117.350057 
L 105.342803 -115.120197 
L 105.342803 -112.890337 
L 105.342803 -110.660476 
L 105.342803 -108.430616 
L 105.342803 -106.200756 
L 105.342803 -103.970896 
L 105.342803 -101.741036 
L 105.342803 -99.511176 
L 105.342803 -97.281316 
L 105.342803 -95.051456 
L 105.342803 -92.821596 
L 105.342803 -90.591736 
L 105.342803 -88.361875 
L 105.342803 -86.132015 
L 105.342803 -83.902155 
L 105.342803 -81.672295 
z
" style="stroke: #4c4c4c; stroke-width: 1.5"/>
    </defs>
    <g clip-path="url(#pa78f9f87bc)">
     <use xlink:href="#mf9948a55e4" x="0" y="351.126562" style="fill: #5875a4; stroke: #4c4c4c; stroke-width: 1.5"/>
    </g>
   </g>
   <g id="patch_4">
    <path d="M 105.342803 253.993874 
L 105.342803 253.993874 
L 105.342803 253.993874 
L 105.342803 253.993874 
z
" clip-path="url(#pa78f9f87bc)" style="fill: #cc8963; stroke: #4c4c4c; stroke-width: 0.75; stroke-linejoin: miter"/>
   </g>
   <g id="PolyCollection_2">
    <defs>
     <path id="md5a25a58d8" d="M 105.804817 -52.978574 
L 105.342803 -52.978574 
L 105.342803 -55.629009 
L 105.342803 -58.279443 
L 105.342803 -60.929878 
L 105.342803 -63.580313 
L 105.342803 -66.230747 
L 105.342803 -68.881182 
L 105.342803 -71.531617 
L 105.342803 -74.182051 
L 105.342803 -76.832486 
L 105.342803 -79.482921 
L 105.342803 -82.133355 
L 105.342803 -84.78379 
L 105.342803 -87.434225 
L 105.342803 -90.084659 
L 105.342803 -92.735094 
L 105.342803 -95.385529 
L 105.342803 -98.035963 
L 105.342803 -100.686398 
L 105.342803 -103.336833 
L 105.342803 -105.987267 
L 105.342803 -108.637702 
L 105.342803 -111.288137 
L 105.342803 -113.938571 
L 105.342803 -116.589006 
L 105.342803 -119.239441 
L 105.342803 -121.889875 
L 105.342803 -124.54031 
L 105.342803 -127.190745 
L 105.342803 -129.841179 
L 105.342803 -132.491614 
L 105.342803 -135.142049 
L 105.342803 -137.792483 
L 105.342803 -140.442918 
L 105.342803 -143.093352 
L 105.342803 -145.743787 
L 105.342803 -148.394222 
L 105.342803 -151.044656 
L 105.342803 -153.695091 
L 105.342803 -156.345526 
L 105.342803 -158.99596 
L 105.342803 -161.646395 
L 105.342803 -164.29683 
L 105.342803 -166.947264 
L 105.342803 -169.597699 
L 105.342803 -172.248134 
L 105.342803 -174.898568 
L 105.342803 -177.549003 
L 105.342803 -180.199438 
L 105.342803 -182.849872 
L 105.342803 -185.500307 
L 105.342803 -188.150742 
L 105.342803 -190.801176 
L 105.342803 -193.451611 
L 105.342803 -196.102046 
L 105.342803 -198.75248 
L 105.342803 -201.402915 
L 105.342803 -204.05335 
L 105.342803 -206.703784 
L 105.342803 -209.354219 
L 105.342803 -212.004654 
L 105.342803 -214.655088 
L 105.342803 -217.305523 
L 105.342803 -219.955958 
L 105.342803 -222.606392 
L 105.342803 -225.256827 
L 105.342803 -227.907262 
L 105.342803 -230.557696 
L 105.342803 -233.208131 
L 105.342803 -235.858566 
L 105.342803 -238.509 
L 105.342803 -241.159435 
L 105.342803 -243.80987 
L 105.342803 -246.460304 
L 105.342803 -249.110739 
L 105.342803 -251.761174 
L 105.342803 -254.411608 
L 105.342803 -257.062043 
L 105.342803 -259.712478 
L 105.342803 -262.362912 
L 105.342803 -265.013347 
L 105.342803 -267.663782 
L 105.342803 -270.314216 
L 105.342803 -272.964651 
L 105.342803 -275.615085 
L 105.342803 -278.26552 
L 105.342803 -280.915955 
L 105.342803 -283.566389 
L 105.342803 -286.216824 
L 105.342803 -288.867259 
L 105.342803 -291.517693 
L 105.342803 -294.168128 
L 105.342803 -296.818563 
L 105.342803 -299.468997 
L 105.342803 -302.119432 
L 105.342803 -304.769867 
L 105.342803 -307.420301 
L 105.342803 -310.070736 
L 105.342803 -312.721171 
L 105.342803 -315.371605 
L 106.0972 -315.371605 
L 106.0972 -315.371605 
L 106.330989 -312.721171 
L 106.619587 -310.070736 
L 106.970039 -307.420301 
L 107.388556 -304.769867 
L 107.879931 -302.119432 
L 108.446904 -299.468997 
L 109.089539 -296.818563 
L 109.804662 -294.168128 
L 110.585412 -291.517693 
L 111.420987 -288.867259 
L 112.296625 -286.216824 
L 113.193865 -283.566389 
L 114.091104 -280.915955 
L 114.964444 -278.26552 
L 115.788786 -275.615085 
L 116.539105 -272.964651 
L 117.191825 -270.314216 
L 117.726167 -267.663782 
L 118.125384 -265.013347 
L 118.377758 -262.362912 
L 118.477284 -259.712478 
L 118.423986 -257.062043 
L 118.223822 -254.411608 
L 117.888216 -251.761174 
L 117.433244 -249.110739 
L 116.878554 -246.460304 
L 116.246123 -243.80987 
L 115.558951 -241.159435 
L 114.839788 -238.509 
L 114.11 -235.858566 
L 113.388637 -233.208131 
L 112.69176 -230.557696 
L 112.032038 -227.907262 
L 111.418625 -225.256827 
L 110.857294 -222.606392 
L 110.350784 -219.955958 
L 109.89931 -217.305523 
L 109.501194 -214.655088 
L 109.15355 -212.004654 
L 108.852984 -209.354219 
L 108.59626 -206.703784 
L 108.380905 -204.05335 
L 108.205714 -201.402915 
L 108.07115 -198.75248 
L 107.979607 -196.102046 
L 107.935553 -193.451611 
L 107.94551 -190.801176 
L 108.017903 -188.150742 
L 108.162758 -185.500307 
L 108.391261 -182.849872 
L 108.71519 -180.199438 
L 109.146226 -177.549003 
L 109.695188 -174.898568 
L 110.371202 -172.248134 
L 111.180862 -169.597699 
L 112.127423 -166.947264 
L 113.210073 -164.29683 
L 114.423335 -161.646395 
L 115.756648 -158.99596 
L 117.194155 -156.345526 
L 118.71473 -153.695091 
L 120.292264 -151.044656 
L 121.896193 -148.394222 
L 123.492278 -145.743787 
L 125.043601 -143.093352 
L 126.511747 -140.442918 
L 127.858143 -137.792483 
L 129.045487 -135.142049 
L 130.039227 -132.491614 
L 130.809023 -129.841179 
L 131.330117 -127.190745 
L 131.584542 -124.54031 
L 131.562084 -121.889875 
L 131.260933 -119.239441 
L 130.687957 -116.589006 
L 129.85855 -113.938571 
L 128.796044 -111.288137 
L 127.530694 -108.637702 
L 126.098297 -105.987267 
L 124.538513 -103.336833 
L 122.89301 -100.686398 
L 121.203557 -98.035963 
L 119.510195 -95.385529 
L 117.849609 -92.735094 
L 116.253804 -90.084659 
L 114.749158 -87.434225 
L 113.35588 -84.78379 
L 112.087875 -82.133355 
L 110.952985 -79.482921 
L 109.953528 -76.832486 
L 109.087071 -74.182051 
L 108.347341 -71.531617 
L 107.725195 -68.881182 
L 107.209559 -66.230747 
L 106.788301 -63.580313 
L 106.44897 -60.929878 
L 106.1794 -58.279443 
L 105.968151 -55.629009 
L 105.804817 -52.978574 
z
" style="stroke: #4c4c4c; stroke-width: 1.5"/>
    </defs>
    <g clip-path="url(#pa78f9f87bc)">
     <use xlink:href="#md5a25a58d8" x="0" y="351.126562" style="fill: #cc8963; stroke: #4c4c4c; stroke-width: 1.5"/>
    </g>
   </g>
   <g id="PolyCollection_3">
    <defs>
     <path id="m11af9cd15c" d="M 211.706535 -86.984712 
L 208.623245 -86.984712 
L 207.415182 -88.942876 
L 205.87013 -90.901041 
L 203.949302 -92.859205 
L 201.629676 -94.81737 
L 198.911061 -96.775534 
L 195.822251 -98.733698 
L 192.425081 -100.691863 
L 188.815258 -102.650027 
L 185.119171 -104.608192 
L 181.486432 -106.566356 
L 178.078612 -108.524521 
L 175.055363 -110.482685 
L 172.559716 -112.440849 
L 170.704621 -114.399014 
L 169.562748 -116.357178 
L 169.161043 -118.315343 
L 169.480766 -120.273507 
L 170.462795 -122.231672 
L 172.01707 -124.189836 
L 174.034447 -126.148 
L 176.398946 -128.106165 
L 178.99854 -130.064329 
L 181.733125 -132.022494 
L 184.519043 -133.980658 
L 187.290238 -135.938822 
L 189.996746 -137.896987 
L 192.601578 -139.855151 
L 195.077112 -141.813316 
L 197.401917 -143.77148 
L 199.558603 -145.729645 
L 201.532867 -147.687809 
L 203.313569 -149.645973 
L 204.893451 -151.604138 
L 206.270018 -153.562302 
L 207.446178 -155.520467 
L 208.430361 -157.478631 
L 209.23604 -159.436796 
L 209.880703 -161.39496 
L 210.384481 -163.353124 
L 210.768642 -165.311289 
L 211.054157 -167.269453 
L 211.260533 -169.227618 
L 211.40496 -171.185782 
L 211.501821 -173.143947 
L 211.562525 -175.102111 
L 211.595585 -177.060275 
L 211.606877 -179.01844 
L 211.599999 -180.976604 
L 211.576686 -182.934769 
L 211.537233 -184.892933 
L 211.480916 -186.851098 
L 211.406405 -188.809262 
L 211.312157 -190.767426 
L 211.196792 -192.725591 
L 211.059432 -194.683755 
L 210.899999 -196.64192 
L 210.719432 -198.600084 
L 210.51981 -200.558248 
L 210.304353 -202.516413 
L 210.077296 -204.474577 
L 209.843637 -206.432742 
L 209.608786 -208.390906 
L 209.378143 -210.349071 
L 209.156666 -212.307235 
L 208.948493 -214.265399 
L 208.75666 -216.223564 
L 208.582975 -218.181728 
L 208.428063 -220.139893 
L 208.29159 -222.098057 
L 208.172626 -224.056222 
L 208.070102 -226.014386 
L 207.983289 -227.97255 
L 207.9122 -229.930715 
L 207.85787 -231.888879 
L 207.822434 -233.847044 
L 207.808999 -235.805208 
L 207.821299 -237.763373 
L 207.863201 -239.721537 
L 207.938116 -241.679701 
L 208.048408 -243.637866 
L 208.194896 -245.59603 
L 208.376518 -247.554195 
L 208.590208 -249.512359 
L 208.831 -251.470524 
L 209.09235 -253.428688 
L 209.366621 -255.386852 
L 209.645672 -257.345017 
L 209.921467 -259.303181 
L 210.186641 -261.261346 
L 210.434961 -263.21951 
L 210.661639 -265.177674 
L 210.863482 -267.135839 
L 211.038894 -269.094003 
L 211.187732 -271.052168 
L 211.311072 -273.010332 
L 211.410918 -274.968497 
L 211.489886 -276.926661 
L 211.550912 -278.884825 
L 211.596995 -280.84299 
L 211.706535 -280.84299 
L 211.706535 -280.84299 
L 211.706535 -278.884825 
L 211.706535 -276.926661 
L 211.706535 -274.968497 
L 211.706535 -273.010332 
L 211.706535 -271.052168 
L 211.706535 -269.094003 
L 211.706535 -267.135839 
L 211.706535 -265.177674 
L 211.706535 -263.21951 
L 211.706535 -261.261346 
L 211.706535 -259.303181 
L 211.706535 -257.345017 
L 211.706535 -255.386852 
L 211.706535 -253.428688 
L 211.706535 -251.470524 
L 211.706535 -249.512359 
L 211.706535 -247.554195 
L 211.706535 -245.59603 
L 211.706535 -243.637866 
L 211.706535 -241.679701 
L 211.706535 -239.721537 
L 211.706535 -237.763373 
L 211.706535 -235.805208 
L 211.706535 -233.847044 
L 211.706535 -231.888879 
L 211.706535 -229.930715 
L 211.706535 -227.97255 
L 211.706535 -226.014386 
L 211.706535 -224.056222 
L 211.706535 -222.098057 
L 211.706535 -220.139893 
L 211.706535 -218.181728 
L 211.706535 -216.223564 
L 211.706535 -214.265399 
L 211.706535 -212.307235 
L 211.706535 -210.349071 
L 211.706535 -208.390906 
L 211.706535 -206.432742 
L 211.706535 -204.474577 
L 211.706535 -202.516413 
L 211.706535 -200.558248 
L 211.706535 -198.600084 
L 211.706535 -196.64192 
L 211.706535 -194.683755 
L 211.706535 -192.725591 
L 211.706535 -190.767426 
L 211.706535 -188.809262 
L 211.706535 -186.851098 
L 211.706535 -184.892933 
L 211.706535 -182.934769 
L 211.706535 -180.976604 
L 211.706535 -179.01844 
L 211.706535 -177.060275 
L 211.706535 -175.102111 
L 211.706535 -173.143947 
L 211.706535 -171.185782 
L 211.706535 -169.227618 
L 211.706535 -167.269453 
L 211.706535 -165.311289 
L 211.706535 -163.353124 
L 211.706535 -161.39496 
L 211.706535 -159.436796 
L 211.706535 -157.478631 
L 211.706535 -155.520467 
L 211.706535 -153.562302 
L 211.706535 -151.604138 
L 211.706535 -149.645973 
L 211.706535 -147.687809 
L 211.706535 -145.729645 
L 211.706535 -143.77148 
L 211.706535 -141.813316 
L 211.706535 -139.855151 
L 211.706535 -137.896987 
L 211.706535 -135.938822 
L 211.706535 -133.980658 
L 211.706535 -132.022494 
L 211.706535 -130.064329 
L 211.706535 -128.106165 
L 211.706535 -126.148 
L 211.706535 -124.189836 
L 211.706535 -122.231672 
L 211.706535 -120.273507 
L 211.706535 -118.315343 
L 211.706535 -116.357178 
L 211.706535 -114.399014 
L 211.706535 -112.440849 
L 211.706535 -110.482685 
L 211.706535 -108.524521 
L 211.706535 -106.566356 
L 211.706535 -104.608192 
L 211.706535 -102.650027 
L 211.706535 -100.691863 
L 211.706535 -98.733698 
L 211.706535 -96.775534 
L 211.706535 -94.81737 
L 211.706535 -92.859205 
L 211.706535 -90.901041 
L 211.706535 -88.942876 
L 211.706535 -86.984712 
z
" style="stroke: #4c4c4c; stroke-width: 1.5"/>
    </defs>
    <g clip-path="url(#pa78f9f87bc)">
     <use xlink:href="#m11af9cd15c" x="0" y="351.126562" style="fill: #5875a4; stroke: #4c4c4c; stroke-width: 1.5"/>
    </g>
   </g>
   <g id="PolyCollection_4">
    <defs>
     <path id="m709011c389" d="M 212.095196 -58.287348 
L 211.706535 -58.287348 
L 211.706535 -60.841402 
L 211.706535 -63.395455 
L 211.706535 -65.949509 
L 211.706535 -68.503562 
L 211.706535 -71.057616 
L 211.706535 -73.611669 
L 211.706535 -76.165723 
L 211.706535 -78.719776 
L 211.706535 -81.27383 
L 211.706535 -83.827883 
L 211.706535 -86.381937 
L 211.706535 -88.93599 
L 211.706535 -91.490044 
L 211.706535 -94.044097 
L 211.706535 -96.598151 
L 211.706535 -99.152204 
L 211.706535 -101.706258 
L 211.706535 -104.260311 
L 211.706535 -106.814365 
L 211.706535 -109.368418 
L 211.706535 -111.922472 
L 211.706535 -114.476525 
L 211.706535 -117.030579 
L 211.706535 -119.584632 
L 211.706535 -122.138686 
L 211.706535 -124.692739 
L 211.706535 -127.246793 
L 211.706535 -129.800846 
L 211.706535 -132.3549 
L 211.706535 -134.908953 
L 211.706535 -137.463007 
L 211.706535 -140.01706 
L 211.706535 -142.571114 
L 211.706535 -145.125167 
L 211.706535 -147.679221 
L 211.706535 -150.233274 
L 211.706535 -152.787328 
L 211.706535 -155.341381 
L 211.706535 -157.895435 
L 211.706535 -160.449488 
L 211.706535 -163.003542 
L 211.706535 -165.557595 
L 211.706535 -168.111649 
L 211.706535 -170.665702 
L 211.706535 -173.219756 
L 211.706535 -175.773809 
L 211.706535 -178.327863 
L 211.706535 -180.881916 
L 211.706535 -183.43597 
L 211.706535 -185.990023 
L 211.706535 -188.544077 
L 211.706535 -191.09813 
L 211.706535 -193.652184 
L 211.706535 -196.206237 
L 211.706535 -198.760291 
L 211.706535 -201.314344 
L 211.706535 -203.868398 
L 211.706535 -206.422451 
L 211.706535 -208.976505 
L 211.706535 -211.530558 
L 211.706535 -214.084612 
L 211.706535 -216.638665 
L 211.706535 -219.192719 
L 211.706535 -221.746772 
L 211.706535 -224.300826 
L 211.706535 -226.854879 
L 211.706535 -229.408933 
L 211.706535 -231.962986 
L 211.706535 -234.51704 
L 211.706535 -237.071093 
L 211.706535 -239.625147 
L 211.706535 -242.1792 
L 211.706535 -244.733254 
L 211.706535 -247.287307 
L 211.706535 -249.841361 
L 211.706535 -252.395414 
L 211.706535 -254.949468 
L 211.706535 -257.503521 
L 211.706535 -260.057575 
L 211.706535 -262.611628 
L 211.706535 -265.165682 
L 211.706535 -267.719735 
L 211.706535 -270.273789 
L 211.706535 -272.827842 
L 211.706535 -275.381896 
L 211.706535 -277.935949 
L 211.706535 -280.490003 
L 211.706535 -283.044056 
L 211.706535 -285.59811 
L 211.706535 -288.152163 
L 211.706535 -290.706217 
L 211.706535 -293.26027 
L 211.706535 -295.814324 
L 211.706535 -298.368377 
L 211.706535 -300.922431 
L 211.706535 -303.476484 
L 211.706535 -306.030538 
L 211.706535 -308.584591 
L 211.706535 -311.138645 
L 212.010001 -311.138645 
L 212.010001 -311.138645 
L 212.112654 -308.584591 
L 212.241486 -306.030538 
L 212.400193 -303.476484 
L 212.592071 -300.922431 
L 212.819705 -298.368377 
L 213.084641 -295.814324 
L 213.387074 -293.26027 
L 213.72558 -290.706217 
L 214.096931 -288.152163 
L 214.496026 -285.59811 
L 214.915943 -283.044056 
L 215.348154 -280.490003 
L 215.78286 -277.935949 
L 216.209452 -275.381896 
L 216.617056 -272.827842 
L 216.995111 -270.273789 
L 217.333929 -267.719735 
L 217.625201 -265.165682 
L 217.862387 -262.611628 
L 218.040977 -260.057575 
L 218.158602 -257.503521 
L 218.214994 -254.949468 
L 218.211827 -252.395414 
L 218.152445 -249.841361 
L 218.041542 -247.287307 
L 217.884805 -244.733254 
L 217.688577 -242.1792 
L 217.459548 -239.625147 
L 217.204503 -237.071093 
L 216.930132 -234.51704 
L 216.642891 -231.962986 
L 216.348909 -229.408933 
L 216.053931 -226.854879 
L 215.763264 -224.300826 
L 215.481736 -221.746772 
L 215.213645 -219.192719 
L 214.962711 -216.638665 
L 214.732023 -214.084612 
L 214.524016 -211.530558 
L 214.340478 -208.976505 
L 214.182605 -206.422451 
L 214.051122 -203.868398 
L 213.946472 -201.314344 
L 213.869068 -198.760291 
L 213.819586 -196.206237 
L 213.799296 -193.652184 
L 213.810373 -191.09813 
L 213.85618 -188.544077 
L 213.941467 -185.990023 
L 214.072466 -183.43597 
L 214.256849 -180.881916 
L 214.503533 -178.327863 
L 214.822332 -175.773809 
L 215.223459 -173.219756 
L 215.716895 -170.665702 
L 216.311662 -168.111649 
L 217.01505 -165.557595 
L 217.83183 -163.003542 
L 218.763516 -160.449488 
L 219.80773 -157.895435 
L 220.957696 -155.341381 
L 222.201904 -152.787328 
L 223.523976 -150.233274 
L 224.902718 -147.679221 
L 226.312396 -145.125167 
L 227.723205 -142.571114 
L 229.101965 -140.01706 
L 230.413023 -137.463007 
L 231.619376 -134.908953 
L 232.684007 -132.3549 
L 233.571421 -129.800846 
L 234.249314 -127.246793 
L 234.690321 -124.692739 
L 234.873715 -122.138686 
L 234.786912 -119.584632 
L 234.426637 -117.030579 
L 233.799604 -114.476525 
L 232.922575 -111.922472 
L 231.821756 -109.368418 
L 230.531521 -106.814365 
L 229.09255 -104.260311 
L 227.549531 -101.706258 
L 225.948625 -99.152204 
L 224.33492 -96.598151 
L 222.750107 -94.044097 
L 221.230548 -91.490044 
L 219.805895 -88.93599 
L 218.498307 -86.381937 
L 217.322284 -83.827883 
L 216.285028 -81.27383 
L 215.387255 -78.719776 
L 214.624289 -76.165723 
L 213.98732 -73.611669 
L 213.464688 -71.057616 
L 213.043082 -68.503562 
L 212.708574 -65.949509 
L 212.44746 -63.395455 
L 212.246874 -60.841402 
L 212.095196 -58.287348 
z
" style="stroke: #4c4c4c; stroke-width: 1.5"/>
    </defs>
    <g clip-path="url(#pa78f9f87bc)">
     <use xlink:href="#m709011c389" x="0" y="351.126562" style="fill: #cc8963; stroke: #4c4c4c; stroke-width: 1.5"/>
    </g>
   </g>
   <g id="PolyCollection_5">
    <defs>
     <path id="m4c86df7b02" d="M 318.070267 -91.221798 
L 317.443728 -91.221798 
L 317.089475 -92.60597 
L 316.572746 -93.990143 
L 315.840358 -95.374316 
L 314.832262 -96.758489 
L 313.485581 -98.142662 
L 311.740951 -99.526835 
L 309.551045 -100.911008 
L 306.890617 -102.295181 
L 303.766865 -103.679354 
L 300.228387 -105.063526 
L 296.370759 -106.447699 
L 292.336843 -107.831872 
L 288.310536 -109.216045 
L 284.50362 -110.600218 
L 281.13667 -111.984391 
L 278.416239 -113.368564 
L 276.511539 -114.752737 
L 275.534245 -116.13691 
L 275.524775 -117.521082 
L 276.447348 -118.905255 
L 278.19468 -120.289428 
L 280.601436 -121.673601 
L 283.464152 -123.057774 
L 286.564365 -124.441947 
L 289.691466 -125.82612 
L 292.662198 -127.210293 
L 295.334675 -128.594465 
L 297.615948 -129.978638 
L 299.463267 -131.362811 
L 300.880026 -132.746984 
L 301.907854 -134.131157 
L 302.616453 -135.51533 
L 303.092588 -136.899503 
L 303.4294 -138.283676 
L 303.716843 -139.667849 
L 304.033816 -141.052021 
L 304.442339 -142.436194 
L 304.983969 -143.820367 
L 305.678508 -145.20454 
L 306.524897 -146.588713 
L 307.504024 -147.972886 
L 308.582973 -149.357059 
L 309.72014 -150.741232 
L 310.870538 -152.125404 
L 311.990661 -153.509577 
L 313.042382 -154.89375 
L 313.995562 -156.277923 
L 314.829251 -157.662096 
L 315.531592 -159.046269 
L 316.098699 -160.430442 
L 316.532884 -161.814615 
L 316.840644 -163.198788 
L 317.030754 -164.58296 
L 317.11276 -165.967133 
L 317.096017 -167.351306 
L 316.989324 -168.735479 
L 316.801075 -170.119652 
L 316.539798 -171.503825 
L 316.214868 -172.887998 
L 315.83719 -174.272171 
L 315.419671 -175.656344 
L 314.977336 -177.040516 
L 314.527021 -178.424689 
L 314.086666 -179.808862 
L 313.674286 -181.193035 
L 313.306785 -182.577208 
L 312.998772 -183.961381 
L 312.761569 -185.345554 
L 312.602548 -186.729727 
L 312.524872 -188.113899 
L 312.527645 -189.498072 
L 312.606427 -190.882245 
L 312.75398 -192.266418 
L 312.961129 -193.650591 
L 313.2176 -195.034764 
L 313.512747 -196.418937 
L 313.836097 -197.80311 
L 314.177736 -199.187283 
L 314.528536 -200.571455 
L 314.880292 -201.955628 
L 315.225803 -203.339801 
L 315.558945 -204.723974 
L 315.874726 -206.108147 
L 316.169328 -207.49232 
L 316.44012 -208.876493 
L 316.685606 -210.260666 
L 316.905319 -211.644838 
L 317.09965 -213.029011 
L 317.269655 -214.413184 
L 317.416838 -215.797357 
L 317.542973 -217.18153 
L 317.649949 -218.565703 
L 317.73967 -219.949876 
L 317.814001 -221.334049 
L 317.874739 -222.718222 
L 317.92361 -224.102394 
L 317.962263 -225.486567 
L 317.992261 -226.87074 
L 318.015071 -228.254913 
L 318.070267 -228.254913 
L 318.070267 -228.254913 
L 318.070267 -226.87074 
L 318.070267 -225.486567 
L 318.070267 -224.102394 
L 318.070267 -222.718222 
L 318.070267 -221.334049 
L 318.070267 -219.949876 
L 318.070267 -218.565703 
L 318.070267 -217.18153 
L 318.070267 -215.797357 
L 318.070267 -214.413184 
L 318.070267 -213.029011 
L 318.070267 -211.644838 
L 318.070267 -210.260666 
L 318.070267 -208.876493 
L 318.070267 -207.49232 
L 318.070267 -206.108147 
L 318.070267 -204.723974 
L 318.070267 -203.339801 
L 318.070267 -201.955628 
L 318.070267 -200.571455 
L 318.070267 -199.187283 
L 318.070267 -197.80311 
L 318.070267 -196.418937 
L 318.070267 -195.034764 
L 318.070267 -193.650591 
L 318.070267 -192.266418 
L 318.070267 -190.882245 
L 318.070267 -189.498072 
L 318.070267 -188.113899 
L 318.070267 -186.729727 
L 318.070267 -185.345554 
L 318.070267 -183.961381 
L 318.070267 -182.577208 
L 318.070267 -181.193035 
L 318.070267 -179.808862 
L 318.070267 -178.424689 
L 318.070267 -177.040516 
L 318.070267 -175.656344 
L 318.070267 -174.272171 
L 318.070267 -172.887998 
L 318.070267 -171.503825 
L 318.070267 -170.119652 
L 318.070267 -168.735479 
L 318.070267 -167.351306 
L 318.070267 -165.967133 
L 318.070267 -164.58296 
L 318.070267 -163.198788 
L 318.070267 -161.814615 
L 318.070267 -160.430442 
L 318.070267 -159.046269 
L 318.070267 -157.662096 
L 318.070267 -156.277923 
L 318.070267 -154.89375 
L 318.070267 -153.509577 
L 318.070267 -152.125404 
L 318.070267 -150.741232 
L 318.070267 -149.357059 
L 318.070267 -147.972886 
L 318.070267 -146.588713 
L 318.070267 -145.20454 
L 318.070267 -143.820367 
L 318.070267 -142.436194 
L 318.070267 -141.052021 
L 318.070267 -139.667849 
L 318.070267 -138.283676 
L 318.070267 -136.899503 
L 318.070267 -135.51533 
L 318.070267 -134.131157 
L 318.070267 -132.746984 
L 318.070267 -131.362811 
L 318.070267 -129.978638 
L 318.070267 -128.594465 
L 318.070267 -127.210293 
L 318.070267 -125.82612 
L 318.070267 -124.441947 
L 318.070267 -123.057774 
L 318.070267 -121.673601 
L 318.070267 -120.289428 
L 318.070267 -118.905255 
L 318.070267 -117.521082 
L 318.070267 -116.13691 
L 318.070267 -114.752737 
L 318.070267 -113.368564 
L 318.070267 -111.984391 
L 318.070267 -110.600218 
L 318.070267 -109.216045 
L 318.070267 -107.831872 
L 318.070267 -106.447699 
L 318.070267 -105.063526 
L 318.070267 -103.679354 
L 318.070267 -102.295181 
L 318.070267 -100.911008 
L 318.070267 -99.526835 
L 318.070267 -98.142662 
L 318.070267 -96.758489 
L 318.070267 -95.374316 
L 318.070267 -93.990143 
L 318.070267 -92.60597 
L 318.070267 -91.221798 
z
" style="stroke: #4c4c4c; stroke-width: 1.5"/>
    </defs>
    <g clip-path="url(#pa78f9f87bc)">
     <use xlink:href="#m4c86df7b02" x="0" y="351.126562" style="fill: #5875a4; stroke: #4c4c4c; stroke-width: 1.5"/>
    </g>
   </g>
   <g id="PolyCollection_6">
    <defs>
     <path id="m5db916ed22" d="M 318.303363 -57.380346 
L 318.070267 -57.380346 
L 318.070267 -59.793546 
L 318.070267 -62.206747 
L 318.070267 -64.619947 
L 318.070267 -67.033148 
L 318.070267 -69.446349 
L 318.070267 -71.859549 
L 318.070267 -74.27275 
L 318.070267 -76.68595 
L 318.070267 -79.099151 
L 318.070267 -81.512352 
L 318.070267 -83.925552 
L 318.070267 -86.338753 
L 318.070267 -88.751953 
L 318.070267 -91.165154 
L 318.070267 -93.578355 
L 318.070267 -95.991555 
L 318.070267 -98.404756 
L 318.070267 -100.817956 
L 318.070267 -103.231157 
L 318.070267 -105.644358 
L 318.070267 -108.057558 
L 318.070267 -110.470759 
L 318.070267 -112.883959 
L 318.070267 -115.29716 
L 318.070267 -117.710361 
L 318.070267 -120.123561 
L 318.070267 -122.536762 
L 318.070267 -124.949962 
L 318.070267 -127.363163 
L 318.070267 -129.776364 
L 318.070267 -132.189564 
L 318.070267 -134.602765 
L 318.070267 -137.015965 
L 318.070267 -139.429166 
L 318.070267 -141.842367 
L 318.070267 -144.255567 
L 318.070267 -146.668768 
L 318.070267 -149.081968 
L 318.070267 -151.495169 
L 318.070267 -153.90837 
L 318.070267 -156.32157 
L 318.070267 -158.734771 
L 318.070267 -161.147971 
L 318.070267 -163.561172 
L 318.070267 -165.974373 
L 318.070267 -168.387573 
L 318.070267 -170.800774 
L 318.070267 -173.213974 
L 318.070267 -175.627175 
L 318.070267 -178.040376 
L 318.070267 -180.453576 
L 318.070267 -182.866777 
L 318.070267 -185.279977 
L 318.070267 -187.693178 
L 318.070267 -190.106379 
L 318.070267 -192.519579 
L 318.070267 -194.93278 
L 318.070267 -197.34598 
L 318.070267 -199.759181 
L 318.070267 -202.172382 
L 318.070267 -204.585582 
L 318.070267 -206.998783 
L 318.070267 -209.411983 
L 318.070267 -211.825184 
L 318.070267 -214.238385 
L 318.070267 -216.651585 
L 318.070267 -219.064786 
L 318.070267 -221.477986 
L 318.070267 -223.891187 
L 318.070267 -226.304388 
L 318.070267 -228.717588 
L 318.070267 -231.130789 
L 318.070267 -233.543989 
L 318.070267 -235.95719 
L 318.070267 -238.370391 
L 318.070267 -240.783591 
L 318.070267 -243.196792 
L 318.070267 -245.609992 
L 318.070267 -248.023193 
L 318.070267 -250.436394 
L 318.070267 -252.849594 
L 318.070267 -255.262795 
L 318.070267 -257.675995 
L 318.070267 -260.089196 
L 318.070267 -262.502397 
L 318.070267 -264.915597 
L 318.070267 -267.328798 
L 318.070267 -269.741998 
L 318.070267 -272.155199 
L 318.070267 -274.5684 
L 318.070267 -276.9816 
L 318.070267 -279.394801 
L 318.070267 -281.808001 
L 318.070267 -284.221202 
L 318.070267 -286.634403 
L 318.070267 -289.047603 
L 318.070267 -291.460804 
L 318.070267 -293.874004 
L 318.070267 -296.287205 
L 318.460214 -296.287205 
L 318.460214 -296.287205 
L 318.584845 -293.874004 
L 318.739974 -291.460804 
L 318.929929 -289.047603 
L 319.158712 -286.634403 
L 319.429672 -284.221202 
L 319.745157 -281.808001 
L 320.106152 -279.394801 
L 320.511947 -276.9816 
L 320.959855 -274.5684 
L 321.445026 -272.155199 
L 321.960381 -269.741998 
L 322.4967 -267.328798 
L 323.042864 -264.915597 
L 323.586252 -262.502397 
L 324.113284 -260.089196 
L 324.610058 -257.675995 
L 325.063056 -255.262795 
L 325.459841 -252.849594 
L 325.789709 -250.436394 
L 326.044225 -248.023193 
L 326.217613 -245.609992 
L 326.306963 -243.196792 
L 326.31225 -240.783591 
L 326.236172 -238.370391 
L 326.083833 -235.95719 
L 325.862309 -233.543989 
L 325.580145 -231.130789 
L 325.246828 -228.717588 
L 324.87228 -226.304388 
L 324.46642 -223.891187 
L 324.038794 -221.477986 
L 323.598314 -219.064786 
L 323.153086 -216.651585 
L 322.710331 -214.238385 
L 322.276379 -211.825184 
L 321.856722 -209.411983 
L 321.456103 -206.998783 
L 321.078636 -204.585582 
L 320.727936 -202.172382 
L 320.40725 -199.759181 
L 320.119601 -197.34598 
L 319.867916 -194.93278 
L 319.655159 -192.519579 
L 319.484448 -190.106379 
L 319.359162 -187.693178 
L 319.28302 -185.279977 
L 319.260116 -182.866777 
L 319.294917 -180.453576 
L 319.39219 -178.040376 
L 319.556856 -175.627175 
L 319.793772 -173.213974 
L 320.107437 -170.800774 
L 320.501631 -168.387573 
L 320.979013 -165.974373 
L 321.540693 -163.561172 
L 322.185816 -161.147971 
L 322.911189 -158.734771 
L 323.71098 -156.32157 
L 324.576526 -153.90837 
L 325.496258 -151.495169 
L 326.455773 -149.081968 
L 327.438046 -146.668768 
L 328.423782 -144.255567 
L 329.391903 -141.842367 
L 330.320147 -139.429166 
L 331.185766 -137.015965 
L 331.966294 -134.602765 
L 332.640372 -132.189564 
L 333.188579 -129.776364 
L 333.594262 -127.363163 
L 333.844306 -124.949962 
L 333.929804 -122.536762 
L 333.846595 -120.123561 
L 333.595597 -117.710361 
L 333.182924 -115.29716 
L 332.619737 -112.883959 
L 331.921831 -110.470759 
L 331.108962 -108.057558 
L 330.20395 -105.644358 
L 329.231612 -103.231157 
L 328.217603 -100.817956 
L 327.187234 -98.404756 
L 326.164369 -95.991555 
L 325.170468 -93.578355 
L 324.223836 -91.165154 
L 323.339115 -88.751953 
L 322.527054 -86.338753 
L 321.794507 -83.925552 
L 321.144682 -81.512352 
L 320.577541 -79.099151 
L 320.09034 -76.68595 
L 319.678226 -74.27275 
L 319.334849 -71.859549 
L 319.052938 -69.446349 
L 318.824812 -67.033148 
L 318.642809 -64.619947 
L 318.49961 -62.206747 
L 318.38847 -59.793546 
L 318.303363 -57.380346 
z
" style="stroke: #4c4c4c; stroke-width: 1.5"/>
    </defs>
    <g clip-path="url(#pa78f9f87bc)">
     <use xlink:href="#m5db916ed22" x="0" y="351.126562" style="fill: #cc8963; stroke: #4c4c4c; stroke-width: 1.5"/>
    </g>
   </g>
   <g id="line2d_11">
    <path d="M 105.342803 253.993874 
L 105.342803 84.223229 
" clip-path="url(#pa78f9f87bc)" style="fill: none; stroke: #4c4c4c; stroke-width: 1.5; stroke-linecap: round"/>
   </g>
   <g id="line2d_12">
    <path d="M 105.342803 234.712035 
L 105.342803 174.393888 
" clip-path="url(#pa78f9f87bc)" style="fill: none; stroke: #4c4c4c; stroke-width: 4.5; stroke-linecap: round"/>
   </g>
   <g id="line2d_13">
    <path d="M 211.706535 253.993874 
L 211.706535 186.176609 
" clip-path="url(#pa78f9f87bc)" style="fill: none; stroke: #4c4c4c; stroke-width: 1.5; stroke-linecap: round"/>
   </g>
   <g id="line2d_14">
    <path d="M 211.706535 235.113298 
L 211.706535 212.463905 
" clip-path="url(#pa78f9f87bc)" style="fill: none; stroke: #4c4c4c; stroke-width: 4.5; stroke-linecap: round"/>
   </g>
   <g id="line2d_15">
    <path d="M 318.070267 253.993874 
L 318.070267 161.581893 
" clip-path="url(#pa78f9f87bc)" style="fill: none; stroke: #4c4c4c; stroke-width: 1.5; stroke-linecap: round"/>
   </g>
   <g id="line2d_16">
    <path d="M 318.070267 235.189851 
L 318.070267 205.162619 
" clip-path="url(#pa78f9f87bc)" style="fill: none; stroke: #4c4c4c; stroke-width: 4.5; stroke-linecap: round"/>
   </g>
   <g id="patch_5">
    <path d="M 52.160938 313.292187 
L 52.160938 20.798437 
" style="fill: none; stroke: #262626; stroke-width: 0.8; stroke-linejoin: miter; stroke-linecap: square"/>
   </g>
   <g id="patch_6">
    <path d="M 52.160938 313.292187 
L 371.252133 313.292187 
" style="fill: none; stroke: #262626; stroke-width: 0.8; stroke-linejoin: miter; stroke-linecap: square"/>
   </g>
   <g id="PathCollection_1">
    <defs>
     <path id="mbe737871e2" d="M 0 1.5 
C 0.397805 1.5 0.77937 1.341951 1.06066 1.06066 
C 1.341951 0.77937 1.5 0.397805 1.5 0 
C 1.5 -0.397805 1.341951 -0.77937 1.06066 -1.06066 
C 0.77937 -1.341951 0.397805 -1.5 0 -1.5 
C -0.397805 -1.5 -0.77937 -1.341951 -1.06066 -1.06066 
C -1.341951 -0.77937 -1.5 -0.397805 -1.5 0 
C -1.5 0.397805 -1.341951 0.77937 -1.06066 1.06066 
C -0.77937 1.341951 -0.397805 1.5 0 1.5 
z
" style="stroke: #4c4c4c"/>
    </defs>
    <g clip-path="url(#pa78f9f87bc)">
     <use xlink:href="#mbe737871e2" x="105.342803" y="233.754591" style="fill: #ffffff; stroke: #4c4c4c"/>
    </g>
   </g>
   <g id="PathCollection_2">
    <g clip-path="url(#pa78f9f87bc)">
     <use xlink:href="#mbe737871e2" x="211.706535" y="234.381794" style="fill: #ffffff; stroke: #4c4c4c"/>
    </g>
   </g>
   <g id="PathCollection_3">
    <g clip-path="url(#pa78f9f87bc)">
     <use xlink:href="#mbe737871e2" x="318.070267" y="229.770334" style="fill: #ffffff; stroke: #4c4c4c"/>
    </g>
   </g>
   <g id="text_13">
    <!-- Dyn_obs = 5.0 -->
    <g style="fill: #262626" transform="translate(175.070598 14.798437)scale(0.1 -0.1)">
     <defs>
      <path id="DejaVuSans-44" d="M 1259 4147 
L 1259 519 
L 2022 519 
Q 2988 519 3436 956 
Q 3884 1394 3884 2338 
Q 3884 3275 3436 3711 
Q 2988 4147 2022 4147 
L 1259 4147 
z
M 628 4666 
L 1925 4666 
Q 3281 4666 3915 4102 
Q 4550 3538 4550 2338 
Q 4550 1131 3912 565 
Q 3275 0 1925 0 
L 628 0 
L 628 4666 
z
" transform="scale(0.015625)"/>
      <path id="DejaVuSans-79" d="M 2059 -325 
Q 1816 -950 1584 -1140 
Q 1353 -1331 966 -1331 
L 506 -1331 
L 506 -850 
L 844 -850 
Q 1081 -850 1212 -737 
Q 1344 -625 1503 -206 
L 1606 56 
L 191 3500 
L 800 3500 
L 1894 763 
L 2988 3500 
L 3597 3500 
L 2059 -325 
z
" transform="scale(0.015625)"/>
      <path id="DejaVuSans-6e" d="M 3513 2113 
L 3513 0 
L 2938 0 
L 2938 2094 
Q 2938 2591 2744 2837 
Q 2550 3084 2163 3084 
Q 1697 3084 1428 2787 
Q 1159 2491 1159 1978 
L 1159 0 
L 581 0 
L 581 3500 
L 1159 3500 
L 1159 2956 
Q 1366 3272 1645 3428 
Q 1925 3584 2291 3584 
Q 2894 3584 3203 3211 
Q 3513 2838 3513 2113 
z
" transform="scale(0.015625)"/>
      <path id="DejaVuSans-62" d="M 3116 1747 
Q 3116 2381 2855 2742 
Q 2594 3103 2138 3103 
Q 1681 3103 1420 2742 
Q 1159 2381 1159 1747 
Q 1159 1113 1420 752 
Q 1681 391 2138 391 
Q 2594 391 2855 752 
Q 3116 1113 3116 1747 
z
M 1159 2969 
Q 1341 3281 1617 3432 
Q 1894 3584 2278 3584 
Q 2916 3584 3314 3078 
Q 3713 2572 3713 1747 
Q 3713 922 3314 415 
Q 2916 -91 2278 -91 
Q 1894 -91 1617 61 
Q 1341 213 1159 525 
L 1159 0 
L 581 0 
L 581 4863 
L 1159 4863 
L 1159 2969 
z
" transform="scale(0.015625)"/>
      <path id="DejaVuSans-20" transform="scale(0.015625)"/>
      <path id="DejaVuSans-3d" d="M 678 2906 
L 4684 2906 
L 4684 2381 
L 678 2381 
L 678 2906 
z
M 678 1631 
L 4684 1631 
L 4684 1100 
L 678 1100 
L 678 1631 
z
" transform="scale(0.015625)"/>
     </defs>
     <use xlink:href="#DejaVuSans-44"/>
     <use xlink:href="#DejaVuSans-79" x="77.001953"/>
     <use xlink:href="#DejaVuSans-6e" x="136.181641"/>
     <use xlink:href="#DejaVuSans-5f" x="199.560547"/>
     <use xlink:href="#DejaVuSans-6f" x="249.560547"/>
     <use xlink:href="#DejaVuSans-62" x="310.742188"/>
     <use xlink:href="#DejaVuSans-73" x="374.21875"/>
     <use xlink:href="#DejaVuSans-20" x="426.318359"/>
     <use xlink:href="#DejaVuSans-3d" x="458.105469"/>
     <use xlink:href="#DejaVuSans-20" x="541.894531"/>
     <use xlink:href="#DejaVuSans-35" x="573.681641"/>
     <use xlink:href="#DejaVuSans-2e" x="637.304688"/>
     <use xlink:href="#DejaVuSans-30" x="669.091797"/>
    </g>
   </g>
  </g>
  <g id="axes_2">
   <g id="patch_7">
    <path d="M 385.53719 313.292187 
L 704.628385 313.292187 
L 704.628385 20.798437 
L 385.53719 20.798437 
z
" style="fill: #ffffff"/>
   </g>
   <g id="matplotlib.axis_3">
    <g id="xtick_4">
     <g id="line2d_17">
      <g>
       <use xlink:href="#m0d5c16bc34" x="438.719056" y="313.292187" style="fill: #262626; stroke: #262626; stroke-width: 0.8"/>
      </g>
     </g>
     <g id="text_14">
      <!-- map2 -->
      <g style="fill: #262626" transform="translate(424.429212 327.890625)scale(0.1 -0.1)">
       <use xlink:href="#DejaVuSans-6d"/>
       <use xlink:href="#DejaVuSans-61" x="97.412109"/>
       <use xlink:href="#DejaVuSans-70" x="158.691406"/>
       <use xlink:href="#DejaVuSans-32" x="222.167969"/>
      </g>
     </g>
    </g>
    <g id="xtick_5">
     <g id="line2d_18">
      <g>
       <use xlink:href="#m0d5c16bc34" x="545.082788" y="313.292187" style="fill: #262626; stroke: #262626; stroke-width: 0.8"/>
      </g>
     </g>
     <g id="text_15">
      <!-- map5 -->
      <g style="fill: #262626" transform="translate(530.792944 327.890625)scale(0.1 -0.1)">
       <use xlink:href="#DejaVuSans-6d"/>
       <use xlink:href="#DejaVuSans-61" x="97.412109"/>
       <use xlink:href="#DejaVuSans-70" x="158.691406"/>
       <use xlink:href="#DejaVuSans-35" x="222.167969"/>
      </g>
     </g>
    </g>
    <g id="xtick_6">
     <g id="line2d_19">
      <g>
       <use xlink:href="#m0d5c16bc34" x="651.446519" y="313.292187" style="fill: #262626; stroke: #262626; stroke-width: 0.8"/>
      </g>
     </g>
     <g id="text_16">
      <!-- small_warehouse -->
      <g style="fill: #262626" transform="translate(608.378551 327.890625)scale(0.1 -0.1)">
       <use xlink:href="#DejaVuSans-73"/>
       <use xlink:href="#DejaVuSans-6d" x="52.099609"/>
       <use xlink:href="#DejaVuSans-61" x="149.511719"/>
       <use xlink:href="#DejaVuSans-6c" x="210.791016"/>
       <use xlink:href="#DejaVuSans-6c" x="238.574219"/>
       <use xlink:href="#DejaVuSans-5f" x="266.357422"/>
       <use xlink:href="#DejaVuSans-77" x="316.357422"/>
       <use xlink:href="#DejaVuSans-61" x="398.144531"/>
       <use xlink:href="#DejaVuSans-72" x="459.423828"/>
       <use xlink:href="#DejaVuSans-65" x="498.287109"/>
       <use xlink:href="#DejaVuSans-68" x="559.810547"/>
       <use xlink:href="#DejaVuSans-6f" x="623.189453"/>
       <use xlink:href="#DejaVuSans-75" x="684.371094"/>
       <use xlink:href="#DejaVuSans-73" x="747.75"/>
       <use xlink:href="#DejaVuSans-65" x="799.849609"/>
      </g>
     </g>
    </g>
    <g id="text_17">
     <!-- World -->
     <g style="fill: #262626" transform="translate(530.754663 341.846875)scale(0.1 -0.1)">
      <use xlink:href="#DejaVuSans-57"/>
      <use xlink:href="#DejaVuSans-6f" x="93.001953"/>
      <use xlink:href="#DejaVuSans-72" x="154.183594"/>
      <use xlink:href="#DejaVuSans-6c" x="195.296875"/>
      <use xlink:href="#DejaVuSans-64" x="223.080078"/>
     </g>
    </g>
   </g>
   <g id="matplotlib.axis_4">
    <g id="ytick_8">
     <g id="line2d_20">
      <g>
       <use xlink:href="#m6fa6d65a39" x="385.53719" y="298.562213" style="fill: #262626; stroke: #262626; stroke-width: 0.8"/>
      </g>
     </g>
    </g>
    <g id="ytick_9">
     <g id="line2d_21">
      <g>
       <use xlink:href="#m6fa6d65a39" x="385.53719" y="253.993874" style="fill: #262626; stroke: #262626; stroke-width: 0.8"/>
      </g>
     </g>
    </g>
    <g id="ytick_10">
     <g id="line2d_22">
      <g>
       <use xlink:href="#m6fa6d65a39" x="385.53719" y="209.425535" style="fill: #262626; stroke: #262626; stroke-width: 0.8"/>
      </g>
     </g>
    </g>
    <g id="ytick_11">
     <g id="line2d_23">
      <g>
       <use xlink:href="#m6fa6d65a39" x="385.53719" y="164.857196" style="fill: #262626; stroke: #262626; stroke-width: 0.8"/>
      </g>
     </g>
    </g>
    <g id="ytick_12">
     <g id="line2d_24">
      <g>
       <use xlink:href="#m6fa6d65a39" x="385.53719" y="120.288857" style="fill: #262626; stroke: #262626; stroke-width: 0.8"/>
      </g>
     </g>
    </g>
    <g id="ytick_13">
     <g id="line2d_25">
      <g>
       <use xlink:href="#m6fa6d65a39" x="385.53719" y="75.720518" style="fill: #262626; stroke: #262626; stroke-width: 0.8"/>
      </g>
     </g>
    </g>
    <g id="ytick_14">
     <g id="line2d_26">
      <g>
       <use xlink:href="#m6fa6d65a39" x="385.53719" y="31.152179" style="fill: #262626; stroke: #262626; stroke-width: 0.8"/>
      </g>
     </g>
    </g>
   </g>
   <g id="patch_8">
    <path d="M 438.719056 253.993874 
L 438.719056 253.993874 
L 438.719056 253.993874 
L 438.719056 253.993874 
z
" clip-path="url(#p5b4cc053e9)" style="fill: #5875a4; stroke: #4c4c4c; stroke-width: 0.75; stroke-linejoin: miter"/>
   </g>
   <g id="PolyCollection_7">
    <defs>
     <path id="md9fe5f52b7" d="M 438.719056 -70.143608 
L 437.928927 -70.143608 
L 437.557308 -72.506463 
L 437.044218 -74.869317 
L 436.351699 -77.232172 
L 435.438323 -79.595027 
L 434.261618 -81.957881 
L 432.781573 -84.320736 
L 430.965115 -86.683591 
L 428.791291 -89.046445 
L 426.256678 -91.4093 
L 423.380341 -93.772155 
L 420.207572 -96.135009 
L 416.811613 -98.497864 
L 413.292698 -100.860719 
L 409.774022 -103.223573 
L 406.394644 -105.586428 
L 403.299768 -107.949283 
L 400.629294 -110.312137 
L 398.505905 -112.674992 
L 397.024085 -115.037847 
L 396.241458 -117.400701 
L 396.173563 -119.763556 
L 396.792732 -122.126411 
L 398.031204 -124.489265 
L 399.788023 -126.85212 
L 401.938821 -129.214975 
L 404.347263 -131.577829 
L 406.876801 -133.940684 
L 409.401488 -136.303539 
L 411.814809 -138.666393 
L 414.035836 -141.029248 
L 416.012405 -143.392103 
L 417.721314 -145.754957 
L 419.165905 -148.117812 
L 420.371537 -150.480667 
L 421.379652 -152.843521 
L 422.24113 -155.206376 
L 423.00967 -157.569231 
L 423.735805 -159.932085 
L 424.462087 -162.29494 
L 425.219773 -164.657795 
L 426.027189 -167.020649 
L 426.889731 -169.383504 
L 427.801304 -171.746358 
L 428.74683 -174.109213 
L 429.705397 -176.472068 
L 430.653576 -178.834922 
L 431.568473 -181.197777 
L 432.430193 -183.560632 
L 433.223506 -185.923486 
L 433.938647 -188.286341 
L 434.571305 -190.649196 
L 435.121959 -193.01205 
L 435.594765 -195.374905 
L 435.996218 -197.73776 
L 436.33379 -200.100614 
L 436.614717 -202.463469 
L 436.845035 -204.826324 
L 437.028923 -207.189178 
L 437.168368 -209.552033 
L 437.263128 -211.914888 
L 437.310945 -214.277742 
L 437.307979 -216.640597 
L 437.249388 -219.003452 
L 437.130039 -221.366306 
L 436.945283 -223.729161 
L 436.691775 -226.092016 
L 436.36828 -228.45487 
L 435.976425 -230.817725 
L 435.521317 -233.18058 
L 435.011986 -235.543434 
L 434.461548 -237.906289 
L 433.887058 -240.269144 
L 433.308981 -242.631998 
L 432.750301 -244.994853 
L 432.235271 -247.357708 
L 431.787909 -249.720562 
L 431.430344 -252.083417 
L 431.181179 -254.446272 
L 431.054033 -256.809126 
L 431.056439 -259.171981 
L 431.189204 -261.534836 
L 431.44634 -263.89769 
L 431.815561 -266.260545 
L 432.279306 -268.6234 
L 432.816155 -270.986254 
L 433.402513 -273.349109 
L 434.01434 -275.711963 
L 434.628788 -278.074818 
L 435.225564 -280.437673 
L 435.787937 -282.800527 
L 436.303319 -285.163382 
L 436.763432 -287.526237 
L 437.164101 -289.889091 
L 437.504759 -292.251946 
L 437.787768 -294.614801 
L 438.017646 -296.977655 
L 438.200296 -299.34051 
L 438.342314 -301.703365 
L 438.45041 -304.066219 
L 438.719056 -304.066219 
L 438.719056 -304.066219 
L 438.719056 -301.703365 
L 438.719056 -299.34051 
L 438.719056 -296.977655 
L 438.719056 -294.614801 
L 438.719056 -292.251946 
L 438.719056 -289.889091 
L 438.719056 -287.526237 
L 438.719056 -285.163382 
L 438.719056 -282.800527 
L 438.719056 -280.437673 
L 438.719056 -278.074818 
L 438.719056 -275.711963 
L 438.719056 -273.349109 
L 438.719056 -270.986254 
L 438.719056 -268.6234 
L 438.719056 -266.260545 
L 438.719056 -263.89769 
L 438.719056 -261.534836 
L 438.719056 -259.171981 
L 438.719056 -256.809126 
L 438.719056 -254.446272 
L 438.719056 -252.083417 
L 438.719056 -249.720562 
L 438.719056 -247.357708 
L 438.719056 -244.994853 
L 438.719056 -242.631998 
L 438.719056 -240.269144 
L 438.719056 -237.906289 
L 438.719056 -235.543434 
L 438.719056 -233.18058 
L 438.719056 -230.817725 
L 438.719056 -228.45487 
L 438.719056 -226.092016 
L 438.719056 -223.729161 
L 438.719056 -221.366306 
L 438.719056 -219.003452 
L 438.719056 -216.640597 
L 438.719056 -214.277742 
L 438.719056 -211.914888 
L 438.719056 -209.552033 
L 438.719056 -207.189178 
L 438.719056 -204.826324 
L 438.719056 -202.463469 
L 438.719056 -200.100614 
L 438.719056 -197.73776 
L 438.719056 -195.374905 
L 438.719056 -193.01205 
L 438.719056 -190.649196 
L 438.719056 -188.286341 
L 438.719056 -185.923486 
L 438.719056 -183.560632 
L 438.719056 -181.197777 
L 438.719056 -178.834922 
L 438.719056 -176.472068 
L 438.719056 -174.109213 
L 438.719056 -171.746358 
L 438.719056 -169.383504 
L 438.719056 -167.020649 
L 438.719056 -164.657795 
L 438.719056 -162.29494 
L 438.719056 -159.932085 
L 438.719056 -157.569231 
L 438.719056 -155.206376 
L 438.719056 -152.843521 
L 438.719056 -150.480667 
L 438.719056 -148.117812 
L 438.719056 -145.754957 
L 438.719056 -143.392103 
L 438.719056 -141.029248 
L 438.719056 -138.666393 
L 438.719056 -136.303539 
L 438.719056 -133.940684 
L 438.719056 -131.577829 
L 438.719056 -129.214975 
L 438.719056 -126.85212 
L 438.719056 -124.489265 
L 438.719056 -122.126411 
L 438.719056 -119.763556 
L 438.719056 -117.400701 
L 438.719056 -115.037847 
L 438.719056 -112.674992 
L 438.719056 -110.312137 
L 438.719056 -107.949283 
L 438.719056 -105.586428 
L 438.719056 -103.223573 
L 438.719056 -100.860719 
L 438.719056 -98.497864 
L 438.719056 -96.135009 
L 438.719056 -93.772155 
L 438.719056 -91.4093 
L 438.719056 -89.046445 
L 438.719056 -86.683591 
L 438.719056 -84.320736 
L 438.719056 -81.957881 
L 438.719056 -79.595027 
L 438.719056 -77.232172 
L 438.719056 -74.869317 
L 438.719056 -72.506463 
L 438.719056 -70.143608 
z
" style="stroke: #4c4c4c; stroke-width: 1.5"/>
    </defs>
    <g clip-path="url(#p5b4cc053e9)">
     <use xlink:href="#md9fe5f52b7" x="0" y="351.126562" style="fill: #5875a4; stroke: #4c4c4c; stroke-width: 1.5"/>
    </g>
   </g>
   <g id="patch_9">
    <path d="M 438.719056 253.993874 
L 438.719056 253.993874 
L 438.719056 253.993874 
L 438.719056 253.993874 
z
" clip-path="url(#p5b4cc053e9)" style="fill: #cc8963; stroke: #4c4c4c; stroke-width: 0.75; stroke-linejoin: miter"/>
   </g>
   <g id="PolyCollection_8">
    <defs>
     <path id="m7a1f76bb8e" d="M 439.159083 -51.129545 
L 438.719056 -51.129545 
L 438.719056 -53.815438 
L 438.719056 -56.501331 
L 438.719056 -59.187225 
L 438.719056 -61.873118 
L 438.719056 -64.559011 
L 438.719056 -67.244904 
L 438.719056 -69.930797 
L 438.719056 -72.61669 
L 438.719056 -75.302583 
L 438.719056 -77.988476 
L 438.719056 -80.674369 
L 438.719056 -83.360262 
L 438.719056 -86.046155 
L 438.719056 -88.732048 
L 438.719056 -91.417941 
L 438.719056 -94.103834 
L 438.719056 -96.789727 
L 438.719056 -99.47562 
L 438.719056 -102.161513 
L 438.719056 -104.847406 
L 438.719056 -107.533299 
L 438.719056 -110.219192 
L 438.719056 -112.905085 
L 438.719056 -115.590978 
L 438.719056 -118.276871 
L 438.719056 -120.962764 
L 438.719056 -123.648657 
L 438.719056 -126.33455 
L 438.719056 -129.020443 
L 438.719056 -131.706336 
L 438.719056 -134.392229 
L 438.719056 -137.078122 
L 438.719056 -139.764015 
L 438.719056 -142.449908 
L 438.719056 -145.135801 
L 438.719056 -147.821694 
L 438.719056 -150.507587 
L 438.719056 -153.19348 
L 438.719056 -155.879373 
L 438.719056 -158.565266 
L 438.719056 -161.251159 
L 438.719056 -163.937052 
L 438.719056 -166.622945 
L 438.719056 -169.308838 
L 438.719056 -171.994731 
L 438.719056 -174.680624 
L 438.719056 -177.366517 
L 438.719056 -180.05241 
L 438.719056 -182.738303 
L 438.719056 -185.424197 
L 438.719056 -188.11009 
L 438.719056 -190.795983 
L 438.719056 -193.481876 
L 438.719056 -196.167769 
L 438.719056 -198.853662 
L 438.719056 -201.539555 
L 438.719056 -204.225448 
L 438.719056 -206.911341 
L 438.719056 -209.597234 
L 438.719056 -212.283127 
L 438.719056 -214.96902 
L 438.719056 -217.654913 
L 438.719056 -220.340806 
L 438.719056 -223.026699 
L 438.719056 -225.712592 
L 438.719056 -228.398485 
L 438.719056 -231.084378 
L 438.719056 -233.770271 
L 438.719056 -236.456164 
L 438.719056 -239.142057 
L 438.719056 -241.82795 
L 438.719056 -244.513843 
L 438.719056 -247.199736 
L 438.719056 -249.885629 
L 438.719056 -252.571522 
L 438.719056 -255.257415 
L 438.719056 -257.943308 
L 438.719056 -260.629201 
L 438.719056 -263.315094 
L 438.719056 -266.000987 
L 438.719056 -268.68688 
L 438.719056 -271.372773 
L 438.719056 -274.058666 
L 438.719056 -276.744559 
L 438.719056 -279.430452 
L 438.719056 -282.116345 
L 438.719056 -284.802238 
L 438.719056 -287.488131 
L 438.719056 -290.174024 
L 438.719056 -292.859917 
L 438.719056 -295.54581 
L 438.719056 -298.231703 
L 438.719056 -300.917596 
L 438.719056 -303.603489 
L 438.719056 -306.289382 
L 438.719056 -308.975275 
L 438.719056 -311.661169 
L 438.719056 -314.347062 
L 438.719056 -317.032955 
L 439.732919 -317.032955 
L 439.732919 -317.032955 
L 440.030032 -314.347062 
L 440.392216 -311.661169 
L 440.826814 -308.975275 
L 441.340007 -306.289382 
L 441.936178 -303.603489 
L 442.617254 -300.917596 
L 443.382074 -298.231703 
L 444.225843 -295.54581 
L 445.139733 -292.859917 
L 446.110695 -290.174024 
L 447.121526 -287.488131 
L 448.15123 -284.802238 
L 449.175674 -282.116345 
L 450.16853 -279.430452 
L 451.10245 -276.744559 
L 451.950402 -274.058666 
L 452.687077 -271.372773 
L 453.290249 -268.68688 
L 453.741999 -266.000987 
L 454.02968 -263.315094 
L 454.146563 -260.629201 
L 454.092108 -257.943308 
L 453.871838 -255.257415 
L 453.496846 -252.571522 
L 452.982981 -249.885629 
L 452.349791 -247.199736 
L 451.61932 -244.513843 
L 450.814865 -241.82795 
L 449.959785 -239.142057 
L 449.076438 -236.456164 
L 448.185333 -233.770271 
L 447.304503 -231.084378 
L 446.449146 -228.398485 
L 445.631489 -225.712592 
L 444.860879 -223.026699 
L 444.144043 -220.340806 
L 443.485467 -217.654913 
L 442.887866 -214.96902 
L 442.352676 -212.283127 
L 441.880556 -209.597234 
L 441.471855 -206.911341 
L 441.127038 -204.225448 
L 440.847046 -201.539555 
L 440.633591 -198.853662 
L 440.489379 -196.167769 
L 440.418256 -193.481876 
L 440.42527 -190.795983 
L 440.516641 -188.11009 
L 440.699642 -185.424197 
L 440.982368 -182.738303 
L 441.373396 -180.05241 
L 441.881341 -177.366517 
L 442.514296 -174.680624 
L 443.279191 -171.994731 
L 444.181075 -169.308838 
L 445.222363 -166.622945 
L 446.402081 -163.937052 
L 447.715163 -161.251159 
L 449.151846 -158.565266 
L 450.697215 -155.879373 
L 452.330956 -153.19348 
L 454.027356 -150.507587 
L 455.755581 -147.821694 
L 457.480276 -145.135801 
L 459.162464 -142.449908 
L 460.760755 -139.764015 
L 462.23282 -137.078122 
L 463.537064 -134.392229 
L 464.634439 -131.706336 
L 465.490273 -129.020443 
L 466.076024 -126.33455 
L 466.370822 -123.648657 
L 466.362698 -120.962764 
L 466.04939 -118.276871 
L 465.438645 -115.590978 
L 464.547992 -112.905085 
L 463.403961 -110.219192 
L 462.040806 -107.533299 
L 460.49881 -104.847406 
L 458.822285 -102.161513 
L 457.057414 -99.47562 
L 455.25009 -96.789727 
L 453.443888 -94.103834 
L 451.67832 -91.417941 
L 449.987449 -88.732048 
L 448.398955 -86.046155 
L 446.933644 -83.360262 
L 445.605412 -80.674369 
L 444.421592 -77.988476 
L 443.383624 -75.302583 
L 442.487943 -72.61669 
L 441.727002 -69.930797 
L 441.090336 -67.244904 
L 440.565582 -64.559011 
L 440.139406 -61.873118 
L 439.798283 -59.187225 
L 439.529124 -56.501331 
L 439.319727 -53.815438 
L 439.159083 -51.129545 
z
" style="stroke: #4c4c4c; stroke-width: 1.5"/>
    </defs>
    <g clip-path="url(#p5b4cc053e9)">
     <use xlink:href="#m7a1f76bb8e" x="0" y="351.126562" style="fill: #cc8963; stroke: #4c4c4c; stroke-width: 1.5"/>
    </g>
   </g>
   <g id="PolyCollection_9">
    <defs>
     <path id="mbd021544e0" d="M 545.082788 -84.288926 
L 543.360504 -84.288926 
L 542.566716 -86.294107 
L 541.496374 -88.299287 
L 540.094512 -90.304468 
L 538.312093 -92.309648 
L 536.113552 -94.314829 
L 533.485066 -96.32001 
L 530.442473 -98.32519 
L 527.037408 -100.330371 
L 523.360244 -102.335551 
L 519.538621 -104.340732 
L 515.730974 -106.345912 
L 512.11521 -108.351093 
L 508.873653 -110.356273 
L 506.176134 -112.361454 
L 504.163604 -114.366635 
L 502.934709 -116.371815 
L 502.537295 -118.376996 
L 502.965974 -120.382176 
L 504.165819 -122.387357 
L 506.041191 -124.392537 
L 508.467956 -126.397718 
L 511.306967 -128.402898 
L 514.416797 -130.408079 
L 517.664188 -132.413259 
L 520.931376 -134.41844 
L 524.120181 -136.423621 
L 527.153295 -138.428801 
L 529.973568 -140.433982 
L 532.542103 -142.439162 
L 534.835877 -144.444343 
L 536.845342 -146.449523 
L 538.572196 -148.454704 
L 540.027346 -150.459884 
L 541.228984 -152.465065 
L 542.200692 -154.470246 
L 542.969558 -156.475426 
L 543.564332 -158.480607 
L 544.013735 -160.485787 
L 544.345007 -162.490968 
L 544.582814 -164.496148 
L 544.748537 -166.501329 
L 544.859953 -168.506509 
L 544.931262 -170.51169 
L 544.973365 -172.516871 
L 544.994326 -174.522051 
L 544.999909 -176.527232 
L 544.994132 -178.532412 
L 544.979773 -180.537593 
L 544.958799 -182.542773 
L 544.93268 -184.547954 
L 544.902599 -186.553134 
L 544.869544 -188.558315 
L 544.834313 -190.563495 
L 544.797434 -192.568676 
L 544.759067 -194.573857 
L 544.718901 -196.579037 
L 544.676113 -198.584218 
L 544.629401 -200.589398 
L 544.577125 -202.594579 
L 544.51754 -204.599759 
L 544.449089 -206.60494 
L 544.3707 -208.61012 
L 544.282015 -210.615301 
L 544.183486 -212.620482 
L 544.076302 -214.625662 
L 543.962122 -216.630843 
L 543.842676 -218.636023 
L 543.719299 -220.641204 
L 543.592521 -222.646384 
L 543.461839 -224.651565 
L 543.325752 -226.656745 
L 543.182126 -228.661926 
L 543.028841 -230.667106 
L 542.864636 -232.672287 
L 542.689987 -234.677468 
L 542.507831 -236.682648 
L 542.323951 -238.687829 
L 542.146898 -240.693009 
L 541.98741 -242.69819 
L 541.85737 -244.70337 
L 541.768453 -246.708551 
L 541.730674 -248.713731 
L 541.751058 -250.718912 
L 541.832667 -252.724093 
L 541.974114 -254.729273 
L 542.169657 -256.734454 
L 542.409812 -258.739634 
L 542.682405 -260.744815 
L 542.973856 -262.749995 
L 543.270528 -264.755176 
L 543.559933 -266.760356 
L 543.831669 -268.765537 
L 544.077999 -270.770718 
L 544.294055 -272.775898 
L 544.477707 -274.781079 
L 544.629183 -276.786259 
L 544.750528 -278.79144 
L 544.845009 -280.79662 
L 544.916554 -282.801801 
L 545.082788 -282.801801 
L 545.082788 -282.801801 
L 545.082788 -280.79662 
L 545.082788 -278.79144 
L 545.082788 -276.786259 
L 545.082788 -274.781079 
L 545.082788 -272.775898 
L 545.082788 -270.770718 
L 545.082788 -268.765537 
L 545.082788 -266.760356 
L 545.082788 -264.755176 
L 545.082788 -262.749995 
L 545.082788 -260.744815 
L 545.082788 -258.739634 
L 545.082788 -256.734454 
L 545.082788 -254.729273 
L 545.082788 -252.724093 
L 545.082788 -250.718912 
L 545.082788 -248.713731 
L 545.082788 -246.708551 
L 545.082788 -244.70337 
L 545.082788 -242.69819 
L 545.082788 -240.693009 
L 545.082788 -238.687829 
L 545.082788 -236.682648 
L 545.082788 -234.677468 
L 545.082788 -232.672287 
L 545.082788 -230.667106 
L 545.082788 -228.661926 
L 545.082788 -226.656745 
L 545.082788 -224.651565 
L 545.082788 -222.646384 
L 545.082788 -220.641204 
L 545.082788 -218.636023 
L 545.082788 -216.630843 
L 545.082788 -214.625662 
L 545.082788 -212.620482 
L 545.082788 -210.615301 
L 545.082788 -208.61012 
L 545.082788 -206.60494 
L 545.082788 -204.599759 
L 545.082788 -202.594579 
L 545.082788 -200.589398 
L 545.082788 -198.584218 
L 545.082788 -196.579037 
L 545.082788 -194.573857 
L 545.082788 -192.568676 
L 545.082788 -190.563495 
L 545.082788 -188.558315 
L 545.082788 -186.553134 
L 545.082788 -184.547954 
L 545.082788 -182.542773 
L 545.082788 -180.537593 
L 545.082788 -178.532412 
L 545.082788 -176.527232 
L 545.082788 -174.522051 
L 545.082788 -172.516871 
L 545.082788 -170.51169 
L 545.082788 -168.506509 
L 545.082788 -166.501329 
L 545.082788 -164.496148 
L 545.082788 -162.490968 
L 545.082788 -160.485787 
L 545.082788 -158.480607 
L 545.082788 -156.475426 
L 545.082788 -154.470246 
L 545.082788 -152.465065 
L 545.082788 -150.459884 
L 545.082788 -148.454704 
L 545.082788 -146.449523 
L 545.082788 -144.444343 
L 545.082788 -142.439162 
L 545.082788 -140.433982 
L 545.082788 -138.428801 
L 545.082788 -136.423621 
L 545.082788 -134.41844 
L 545.082788 -132.413259 
L 545.082788 -130.408079 
L 545.082788 -128.402898 
L 545.082788 -126.397718 
L 545.082788 -124.392537 
L 545.082788 -122.387357 
L 545.082788 -120.382176 
L 545.082788 -118.376996 
L 545.082788 -116.371815 
L 545.082788 -114.366635 
L 545.082788 -112.361454 
L 545.082788 -110.356273 
L 545.082788 -108.351093 
L 545.082788 -106.345912 
L 545.082788 -104.340732 
L 545.082788 -102.335551 
L 545.082788 -100.330371 
L 545.082788 -98.32519 
L 545.082788 -96.32001 
L 545.082788 -94.314829 
L 545.082788 -92.309648 
L 545.082788 -90.304468 
L 545.082788 -88.299287 
L 545.082788 -86.294107 
L 545.082788 -84.288926 
z
" style="stroke: #4c4c4c; stroke-width: 1.5"/>
    </defs>
    <g clip-path="url(#p5b4cc053e9)">
     <use xlink:href="#mbd021544e0" x="0" y="351.126562" style="fill: #5875a4; stroke: #4c4c4c; stroke-width: 1.5"/>
    </g>
   </g>
   <g id="PolyCollection_10">
    <defs>
     <path id="mfab79758f6" d="M 545.370429 -54.787603 
L 545.082788 -54.787603 
L 545.082788 -57.378181 
L 545.082788 -59.968758 
L 545.082788 -62.559336 
L 545.082788 -65.149913 
L 545.082788 -67.740491 
L 545.082788 -70.331068 
L 545.082788 -72.921646 
L 545.082788 -75.512223 
L 545.082788 -78.102801 
L 545.082788 -80.693378 
L 545.082788 -83.283956 
L 545.082788 -85.874533 
L 545.082788 -88.465111 
L 545.082788 -91.055688 
L 545.082788 -93.646266 
L 545.082788 -96.236843 
L 545.082788 -98.827421 
L 545.082788 -101.417998 
L 545.082788 -104.008576 
L 545.082788 -106.599153 
L 545.082788 -109.189731 
L 545.082788 -111.780308 
L 545.082788 -114.370886 
L 545.082788 -116.961463 
L 545.082788 -119.552041 
L 545.082788 -122.142618 
L 545.082788 -124.733196 
L 545.082788 -127.323773 
L 545.082788 -129.914351 
L 545.082788 -132.504928 
L 545.082788 -135.095506 
L 545.082788 -137.686083 
L 545.082788 -140.276661 
L 545.082788 -142.867238 
L 545.082788 -145.457816 
L 545.082788 -148.048393 
L 545.082788 -150.638971 
L 545.082788 -153.229548 
L 545.082788 -155.820126 
L 545.082788 -158.410703 
L 545.082788 -161.001281 
L 545.082788 -163.591858 
L 545.082788 -166.182436 
L 545.082788 -168.773013 
L 545.082788 -171.363591 
L 545.082788 -173.954168 
L 545.082788 -176.544746 
L 545.082788 -179.135323 
L 545.082788 -181.725901 
L 545.082788 -184.316478 
L 545.082788 -186.907056 
L 545.082788 -189.497633 
L 545.082788 -192.088211 
L 545.082788 -194.678788 
L 545.082788 -197.269366 
L 545.082788 -199.859943 
L 545.082788 -202.450521 
L 545.082788 -205.041098 
L 545.082788 -207.631676 
L 545.082788 -210.222253 
L 545.082788 -212.812831 
L 545.082788 -215.403408 
L 545.082788 -217.993986 
L 545.082788 -220.584563 
L 545.082788 -223.175141 
L 545.082788 -225.765718 
L 545.082788 -228.356296 
L 545.082788 -230.946873 
L 545.082788 -233.537451 
L 545.082788 -236.128028 
L 545.082788 -238.718606 
L 545.082788 -241.309183 
L 545.082788 -243.899761 
L 545.082788 -246.490338 
L 545.082788 -249.080916 
L 545.082788 -251.671493 
L 545.082788 -254.262071 
L 545.082788 -256.852648 
L 545.082788 -259.443226 
L 545.082788 -262.033803 
L 545.082788 -264.624381 
L 545.082788 -267.214958 
L 545.082788 -269.805536 
L 545.082788 -272.396113 
L 545.082788 -274.986691 
L 545.082788 -277.577268 
L 545.082788 -280.167846 
L 545.082788 -282.758423 
L 545.082788 -285.349001 
L 545.082788 -287.939578 
L 545.082788 -290.530156 
L 545.082788 -293.120733 
L 545.082788 -295.711311 
L 545.082788 -298.301888 
L 545.082788 -300.892466 
L 545.082788 -303.483043 
L 545.082788 -306.073621 
L 545.082788 -308.664198 
L 545.082788 -311.254776 
L 545.514956 -311.254776 
L 545.514956 -311.254776 
L 545.64864 -308.664198 
L 545.813551 -306.073621 
L 546.0137 -303.483043 
L 546.252655 -300.892466 
L 546.533231 -298.301888 
L 546.857161 -295.711311 
L 547.224782 -293.120733 
L 547.634744 -290.530156 
L 548.083798 -287.939578 
L 548.566675 -285.349001 
L 549.07609 -282.758423 
L 549.602879 -280.167846 
L 550.136281 -277.577268 
L 550.66435 -274.986691 
L 551.174479 -272.396113 
L 551.653994 -269.805536 
L 552.090785 -267.214958 
L 552.473914 -264.624381 
L 552.79416 -262.033803 
L 553.044454 -259.443226 
L 553.220174 -256.852648 
L 553.319282 -254.262071 
L 553.342298 -251.671493 
L 553.292122 -249.080916 
L 553.173731 -246.490338 
L 552.993781 -243.899761 
L 552.760153 -241.309183 
L 552.481484 -238.718606 
L 552.166717 -236.128028 
L 551.824697 -233.537451 
L 551.463838 -230.946873 
L 551.091867 -228.356296 
L 550.715656 -225.765718 
L 550.341129 -223.175141 
L 549.973243 -220.584563 
L 549.616034 -217.993986 
L 549.272708 -215.403408 
L 548.945774 -212.812831 
L 548.637202 -210.222253 
L 548.34861 -207.631676 
L 548.081455 -205.041098 
L 547.83724 -202.450521 
L 547.617715 -199.859943 
L 547.425071 -197.269366 
L 547.262123 -194.678788 
L 547.132453 -192.088211 
L 547.040522 -189.497633 
L 546.991717 -186.907056 
L 546.992329 -184.316478 
L 547.049454 -181.725901 
L 547.170797 -179.135323 
L 547.364375 -176.544746 
L 547.63814 -173.954168 
L 547.999508 -171.363591 
L 548.454822 -168.773013 
L 549.008776 -166.182436 
L 549.66383 -163.591858 
L 550.419651 -161.001281 
L 551.272609 -158.410703 
L 552.215391 -155.820126 
L 553.236735 -153.229548 
L 554.32135 -150.638971 
L 555.450013 -148.048393 
L 556.599886 -145.457816 
L 557.745044 -142.867238 
L 558.857219 -140.276661 
L 559.90673 -137.686083 
L 560.863592 -135.095506 
L 561.698743 -132.504928 
L 562.385344 -129.914351 
L 562.900069 -127.323773 
L 563.224329 -124.733196 
L 563.345317 -122.142618 
L 563.25682 -119.552041 
L 562.959694 -116.961463 
L 562.461978 -114.370886 
L 561.778596 -111.780308 
L 560.930656 -109.189731 
L 559.944391 -106.599153 
L 558.849805 -104.008576 
L 557.679125 -101.417998 
L 556.465177 -98.827421 
L 555.239798 -96.236843 
L 554.032416 -93.646266 
L 552.868871 -91.055688 
L 551.770562 -88.465111 
L 550.753942 -85.874533 
L 549.830376 -83.283956 
L 549.006308 -80.693378 
L 548.283708 -78.102801 
L 547.66071 -75.512223 
L 547.132371 -72.921646 
L 546.691472 -70.331068 
L 546.329306 -67.740491 
L 546.036386 -65.149913 
L 545.803051 -62.559336 
L 545.619941 -59.968758 
L 545.478345 -57.378181 
L 545.370429 -54.787603 
z
" style="stroke: #4c4c4c; stroke-width: 1.5"/>
    </defs>
    <g clip-path="url(#p5b4cc053e9)">
     <use xlink:href="#mfab79758f6" x="0" y="351.126562" style="fill: #cc8963; stroke: #4c4c4c; stroke-width: 1.5"/>
    </g>
   </g>
   <g id="PolyCollection_11">
    <defs>
     <path id="m05f7141feb" d="M 651.446519 -93.181418 
L 650.629466 -93.181418 
L 650.217911 -94.402108 
L 649.63995 -95.622798 
L 648.848932 -96.843488 
L 647.794282 -98.064179 
L 646.425136 -99.284869 
L 644.695502 -100.505559 
L 642.570753 -101.726249 
L 640.034908 -102.946939 
L 637.097877 -104.16763 
L 633.801551 -105.38832 
L 630.223509 -106.60901 
L 626.477226 -107.8297 
L 622.707978 -109.05039 
L 619.08422 -110.27108 
L 615.784912 -111.491771 
L 612.984031 -112.712461 
L 610.834078 -113.933151 
L 609.450767 -115.153841 
L 608.901027 -116.374531 
L 609.196061 -117.595222 
L 610.290463 -118.815912 
L 612.087476 -120.036602 
L 614.449559 -121.257292 
L 617.212699 -122.477982 
L 620.202443 -123.698673 
L 623.249563 -124.919363 
L 626.20355 -126.140053 
L 628.942632 -127.360743 
L 631.379665 -128.581433 
L 633.463895 -129.802124 
L 635.179057 -131.022814 
L 636.538676 -132.243504 
L 637.579512 -133.464194 
L 638.35415 -134.684884 
L 638.923566 -135.905574 
L 639.350357 -137.126265 
L 639.693123 -138.346955 
L 640.002283 -139.567645 
L 640.317473 -140.788335 
L 640.666457 -142.009025 
L 641.065408 -143.229716 
L 641.52025 -144.450406 
L 642.028702 -145.671096 
L 642.582649 -146.891786 
L 643.170458 -148.112476 
L 643.778983 -149.333167 
L 644.395056 -150.553857 
L 645.006441 -151.774547 
L 645.602277 -152.995237 
L 646.17316 -154.215927 
L 646.711016 -155.436618 
L 647.208903 -156.657308 
L 647.660872 -157.877998 
L 648.061908 -159.098688 
L 648.407969 -160.319378 
L 648.696072 -161.540068 
L 648.924361 -162.760759 
L 649.09212 -163.981449 
L 649.199696 -165.202139 
L 649.24835 -166.422829 
L 649.240075 -167.643519 
L 649.17743 -168.86421 
L 649.063471 -170.0849 
L 648.901792 -171.30559 
L 648.696712 -172.52628 
L 648.453567 -173.74697 
L 648.179039 -174.967661 
L 647.881445 -176.188351 
L 647.570878 -177.409041 
L 647.259128 -178.629731 
L 646.959325 -179.850421 
L 646.685322 -181.071112 
L 646.450859 -182.291802 
L 646.268597 -183.512492 
L 646.14916 -184.733182 
L 646.100297 -185.953872 
L 646.126277 -187.174562 
L 646.227587 -188.395253 
L 646.400964 -189.615943 
L 646.63974 -190.836633 
L 646.934435 -192.057323 
L 647.273532 -193.278013 
L 647.644326 -194.498704 
L 648.033775 -195.719394 
L 648.429272 -196.940084 
L 648.81929 -198.160774 
L 649.193879 -199.381464 
L 649.544984 -200.602155 
L 649.866607 -201.822845 
L 650.154819 -203.043535 
L 650.407644 -204.264225 
L 650.62484 -205.484915 
L 650.807612 -206.705606 
L 650.958291 -207.926296 
L 651.079987 -209.146986 
L 651.176273 -210.367676 
L 651.250897 -211.588366 
L 651.307541 -212.809056 
L 651.349645 -214.029747 
L 651.446519 -214.029747 
L 651.446519 -214.029747 
L 651.446519 -212.809056 
L 651.446519 -211.588366 
L 651.446519 -210.367676 
L 651.446519 -209.146986 
L 651.446519 -207.926296 
L 651.446519 -206.705606 
L 651.446519 -205.484915 
L 651.446519 -204.264225 
L 651.446519 -203.043535 
L 651.446519 -201.822845 
L 651.446519 -200.602155 
L 651.446519 -199.381464 
L 651.446519 -198.160774 
L 651.446519 -196.940084 
L 651.446519 -195.719394 
L 651.446519 -194.498704 
L 651.446519 -193.278013 
L 651.446519 -192.057323 
L 651.446519 -190.836633 
L 651.446519 -189.615943 
L 651.446519 -188.395253 
L 651.446519 -187.174562 
L 651.446519 -185.953872 
L 651.446519 -184.733182 
L 651.446519 -183.512492 
L 651.446519 -182.291802 
L 651.446519 -181.071112 
L 651.446519 -179.850421 
L 651.446519 -178.629731 
L 651.446519 -177.409041 
L 651.446519 -176.188351 
L 651.446519 -174.967661 
L 651.446519 -173.74697 
L 651.446519 -172.52628 
L 651.446519 -171.30559 
L 651.446519 -170.0849 
L 651.446519 -168.86421 
L 651.446519 -167.643519 
L 651.446519 -166.422829 
L 651.446519 -165.202139 
L 651.446519 -163.981449 
L 651.446519 -162.760759 
L 651.446519 -161.540068 
L 651.446519 -160.319378 
L 651.446519 -159.098688 
L 651.446519 -157.877998 
L 651.446519 -156.657308 
L 651.446519 -155.436618 
L 651.446519 -154.215927 
L 651.446519 -152.995237 
L 651.446519 -151.774547 
L 651.446519 -150.553857 
L 651.446519 -149.333167 
L 651.446519 -148.112476 
L 651.446519 -146.891786 
L 651.446519 -145.671096 
L 651.446519 -144.450406 
L 651.446519 -143.229716 
L 651.446519 -142.009025 
L 651.446519 -140.788335 
L 651.446519 -139.567645 
L 651.446519 -138.346955 
L 651.446519 -137.126265 
L 651.446519 -135.905574 
L 651.446519 -134.684884 
L 651.446519 -133.464194 
L 651.446519 -132.243504 
L 651.446519 -131.022814 
L 651.446519 -129.802124 
L 651.446519 -128.581433 
L 651.446519 -127.360743 
L 651.446519 -126.140053 
L 651.446519 -124.919363 
L 651.446519 -123.698673 
L 651.446519 -122.477982 
L 651.446519 -121.257292 
L 651.446519 -120.036602 
L 651.446519 -118.815912 
L 651.446519 -117.595222 
L 651.446519 -116.374531 
L 651.446519 -115.153841 
L 651.446519 -113.933151 
L 651.446519 -112.712461 
L 651.446519 -111.491771 
L 651.446519 -110.27108 
L 651.446519 -109.05039 
L 651.446519 -107.8297 
L 651.446519 -106.60901 
L 651.446519 -105.38832 
L 651.446519 -104.16763 
L 651.446519 -102.946939 
L 651.446519 -101.726249 
L 651.446519 -100.505559 
L 651.446519 -99.284869 
L 651.446519 -98.064179 
L 651.446519 -96.843488 
L 651.446519 -95.622798 
L 651.446519 -94.402108 
L 651.446519 -93.181418 
z
" style="stroke: #4c4c4c; stroke-width: 1.5"/>
    </defs>
    <g clip-path="url(#p5b4cc053e9)">
     <use xlink:href="#m05f7141feb" x="0" y="351.126562" style="fill: #5875a4; stroke: #4c4c4c; stroke-width: 1.5"/>
    </g>
   </g>
   <g id="PolyCollection_12">
    <defs>
     <path id="m694458cd58" d="M 651.691374 -60.459193 
L 651.446519 -60.459193 
L 651.446519 -62.823881 
L 651.446519 -65.188569 
L 651.446519 -67.553257 
L 651.446519 -69.917945 
L 651.446519 -72.282632 
L 651.446519 -74.64732 
L 651.446519 -77.012008 
L 651.446519 -79.376696 
L 651.446519 -81.741384 
L 651.446519 -84.106072 
L 651.446519 -86.47076 
L 651.446519 -88.835448 
L 651.446519 -91.200136 
L 651.446519 -93.564824 
L 651.446519 -95.929511 
L 651.446519 -98.294199 
L 651.446519 -100.658887 
L 651.446519 -103.023575 
L 651.446519 -105.388263 
L 651.446519 -107.752951 
L 651.446519 -110.117639 
L 651.446519 -112.482327 
L 651.446519 -114.847015 
L 651.446519 -117.211703 
L 651.446519 -119.576391 
L 651.446519 -121.941078 
L 651.446519 -124.305766 
L 651.446519 -126.670454 
L 651.446519 -129.035142 
L 651.446519 -131.39983 
L 651.446519 -133.764518 
L 651.446519 -136.129206 
L 651.446519 -138.493894 
L 651.446519 -140.858582 
L 651.446519 -143.22327 
L 651.446519 -145.587957 
L 651.446519 -147.952645 
L 651.446519 -150.317333 
L 651.446519 -152.682021 
L 651.446519 -155.046709 
L 651.446519 -157.411397 
L 651.446519 -159.776085 
L 651.446519 -162.140773 
L 651.446519 -164.505461 
L 651.446519 -166.870149 
L 651.446519 -169.234837 
L 651.446519 -171.599524 
L 651.446519 -173.964212 
L 651.446519 -176.3289 
L 651.446519 -178.693588 
L 651.446519 -181.058276 
L 651.446519 -183.422964 
L 651.446519 -185.787652 
L 651.446519 -188.15234 
L 651.446519 -190.517028 
L 651.446519 -192.881716 
L 651.446519 -195.246403 
L 651.446519 -197.611091 
L 651.446519 -199.975779 
L 651.446519 -202.340467 
L 651.446519 -204.705155 
L 651.446519 -207.069843 
L 651.446519 -209.434531 
L 651.446519 -211.799219 
L 651.446519 -214.163907 
L 651.446519 -216.528595 
L 651.446519 -218.893282 
L 651.446519 -221.25797 
L 651.446519 -223.622658 
L 651.446519 -225.987346 
L 651.446519 -228.352034 
L 651.446519 -230.716722 
L 651.446519 -233.08141 
L 651.446519 -235.446098 
L 651.446519 -237.810786 
L 651.446519 -240.175474 
L 651.446519 -242.540162 
L 651.446519 -244.904849 
L 651.446519 -247.269537 
L 651.446519 -249.634225 
L 651.446519 -251.998913 
L 651.446519 -254.363601 
L 651.446519 -256.728289 
L 651.446519 -259.092977 
L 651.446519 -261.457665 
L 651.446519 -263.822353 
L 651.446519 -266.187041 
L 651.446519 -268.551728 
L 651.446519 -270.916416 
L 651.446519 -273.281104 
L 651.446519 -275.645792 
L 651.446519 -278.01048 
L 651.446519 -280.375168 
L 651.446519 -282.739856 
L 651.446519 -285.104544 
L 651.446519 -287.469232 
L 651.446519 -289.83392 
L 651.446519 -292.198608 
L 651.446519 -294.563295 
L 651.643631 -294.563295 
L 651.643631 -294.563295 
L 651.712475 -292.198608 
L 651.800046 -289.83392 
L 651.909527 -287.469232 
L 652.044038 -285.104544 
L 652.206425 -282.739856 
L 652.399021 -280.375168 
L 652.623396 -278.01048 
L 652.8801 -275.645792 
L 653.16845 -273.281104 
L 653.486367 -270.916416 
L 653.830293 -268.551728 
L 654.195216 -266.187041 
L 654.574803 -263.822353 
L 654.961647 -261.457665 
L 655.347614 -259.092977 
L 655.724257 -256.728289 
L 656.08328 -254.363601 
L 656.416986 -251.998913 
L 656.718685 -249.634225 
L 656.983006 -247.269537 
L 657.206111 -244.904849 
L 657.385753 -242.540162 
L 657.521226 -240.175474 
L 657.613183 -237.810786 
L 657.663367 -235.446098 
L 657.674302 -233.08141 
L 657.648961 -230.716722 
L 657.590467 -228.352034 
L 657.501854 -225.987346 
L 657.385908 -223.622658 
L 657.245094 -221.25797 
L 657.08157 -218.893282 
L 656.897264 -216.528595 
L 656.694002 -214.163907 
L 656.473653 -211.799219 
L 656.238274 -209.434531 
L 655.990225 -207.069843 
L 655.732256 -204.705155 
L 655.467547 -202.340467 
L 655.199714 -199.975779 
L 654.932787 -197.611091 
L 654.671177 -195.246403 
L 654.419641 -192.881716 
L 654.183266 -190.517028 
L 653.967465 -188.15234 
L 653.778 -185.787652 
L 653.621018 -183.422964 
L 653.503074 -181.058276 
L 653.431138 -178.693588 
L 653.412548 -176.3289 
L 653.454898 -173.964212 
L 653.56583 -171.599524 
L 653.752734 -169.234837 
L 654.022355 -166.870149 
L 654.380324 -164.505461 
L 654.83064 -162.140773 
L 655.375145 -159.776085 
L 656.013031 -157.411397 
L 656.740433 -155.046709 
L 657.550138 -152.682021 
L 658.431441 -150.317333 
L 659.370173 -147.952645 
L 660.348897 -145.587957 
L 661.347268 -143.22327 
L 662.342546 -140.858582 
L 663.310238 -138.493894 
L 664.22486 -136.129206 
L 665.060783 -133.764518 
L 665.793165 -131.39983 
L 666.39893 -129.035142 
L 666.857774 -126.670454 
L 667.15315 -124.305766 
L 667.273179 -121.941078 
L 667.211417 -119.576391 
L 666.967409 -117.211703 
L 666.546946 -114.847015 
L 665.961987 -112.482327 
L 665.230201 -110.117639 
L 664.374145 -107.752951 
L 663.420112 -105.388263 
L 662.396747 -103.023575 
L 661.333529 -100.658887 
L 660.259251 -98.294199 
L 659.200626 -95.929511 
L 658.181117 -93.564824 
L 657.220092 -91.200136 
L 656.332318 -88.835448 
L 655.527825 -86.47076 
L 654.812087 -84.106072 
L 654.186475 -81.741384 
L 653.648886 -79.376696 
L 653.194494 -77.012008 
L 652.816516 -74.64732 
L 652.506946 -72.282632 
L 652.257207 -69.917945 
L 652.058681 -67.553257 
L 651.903124 -65.188569 
L 651.782943 -62.823881 
L 651.691374 -60.459193 
z
" style="stroke: #4c4c4c; stroke-width: 1.5"/>
    </defs>
    <g clip-path="url(#p5b4cc053e9)">
     <use xlink:href="#m694458cd58" x="0" y="351.126562" style="fill: #cc8963; stroke: #4c4c4c; stroke-width: 1.5"/>
    </g>
   </g>
   <g id="line2d_27">
    <path d="M 438.719056 253.993874 
L 438.719056 79.854953 
" clip-path="url(#p5b4cc053e9)" style="fill: none; stroke: #4c4c4c; stroke-width: 1.5; stroke-linecap: round"/>
   </g>
   <g id="line2d_28">
    <path d="M 438.719056 234.735815 
L 438.719056 156.383703 
" clip-path="url(#p5b4cc053e9)" style="fill: none; stroke: #4c4c4c; stroke-width: 4.5; stroke-linecap: round"/>
   </g>
   <g id="line2d_29">
    <path d="M 545.082788 253.939219 
L 545.082788 211.981533 
" clip-path="url(#p5b4cc053e9)" style="fill: none; stroke: #4c4c4c; stroke-width: 1.5; stroke-linecap: round"/>
   </g>
   <g id="line2d_30">
    <path d="M 545.082788 235.225285 
L 545.082788 212.752168 
" clip-path="url(#p5b4cc053e9)" style="fill: none; stroke: #4c4c4c; stroke-width: 4.5; stroke-linecap: round"/>
   </g>
   <g id="line2d_31">
    <path d="M 651.446519 253.993874 
L 651.446519 154.885871 
" clip-path="url(#p5b4cc053e9)" style="fill: none; stroke: #4c4c4c; stroke-width: 1.5; stroke-linecap: round"/>
   </g>
   <g id="line2d_32">
    <path d="M 651.446519 235.579132 
L 651.446519 203.230881 
" clip-path="url(#p5b4cc053e9)" style="fill: none; stroke: #4c4c4c; stroke-width: 4.5; stroke-linecap: round"/>
   </g>
   <g id="patch_10">
    <path d="M 385.53719 313.292187 
L 385.53719 20.798437 
" style="fill: none; stroke: #262626; stroke-width: 0.8; stroke-linejoin: miter; stroke-linecap: square"/>
   </g>
   <g id="patch_11">
    <path d="M 385.53719 313.292187 
L 704.628385 313.292187 
" style="fill: none; stroke: #262626; stroke-width: 0.8; stroke-linejoin: miter; stroke-linecap: square"/>
   </g>
   <g id="PathCollection_4">
    <g clip-path="url(#p5b4cc053e9)">
     <use xlink:href="#mbe737871e2" x="438.719056" y="220.749268" style="fill: #ffffff; stroke: #4c4c4c"/>
    </g>
   </g>
   <g id="PathCollection_5">
    <g clip-path="url(#p5b4cc053e9)">
     <use xlink:href="#mbe737871e2" x="545.082788" y="233.022358" style="fill: #ffffff; stroke: #4c4c4c"/>
    </g>
   </g>
   <g id="PathCollection_6">
    <g clip-path="url(#p5b4cc053e9)">
     <use xlink:href="#mbe737871e2" x="651.446519" y="231.282179" style="fill: #ffffff; stroke: #4c4c4c"/>
    </g>
   </g>
   <g id="text_18">
    <!-- Dyn_obs = 10.0 -->
    <g style="fill: #262626" transform="translate(505.2656 14.798437)scale(0.1 -0.1)">
     <use xlink:href="#DejaVuSans-44"/>
     <use xlink:href="#DejaVuSans-79" x="77.001953"/>
     <use xlink:href="#DejaVuSans-6e" x="136.181641"/>
     <use xlink:href="#DejaVuSans-5f" x="199.560547"/>
     <use xlink:href="#DejaVuSans-6f" x="249.560547"/>
     <use xlink:href="#DejaVuSans-62" x="310.742188"/>
     <use xlink:href="#DejaVuSans-73" x="374.21875"/>
     <use xlink:href="#DejaVuSans-20" x="426.318359"/>
     <use xlink:href="#DejaVuSans-3d" x="458.105469"/>
     <use xlink:href="#DejaVuSans-20" x="541.894531"/>
     <use xlink:href="#DejaVuSans-31" x="573.681641"/>
     <use xlink:href="#DejaVuSans-30" x="637.304688"/>
     <use xlink:href="#DejaVuSans-2e" x="700.927734"/>
     <use xlink:href="#DejaVuSans-30" x="732.714844"/>
    </g>
   </g>
  </g>
  <g id="legend_1">
   <g id="text_19">
    <!-- dim -->
    <g style="fill: #262626" transform="translate(724.476823 163.644531)scale(0.1 -0.1)">
     <defs>
      <path id="DejaVuSans-69" d="M 603 3500 
L 1178 3500 
L 1178 0 
L 603 0 
L 603 3500 
z
M 603 4863 
L 1178 4863 
L 1178 4134 
L 603 4134 
L 603 4863 
z
" transform="scale(0.015625)"/>
     </defs>
     <use xlink:href="#DejaVuSans-64"/>
     <use xlink:href="#DejaVuSans-69" x="63.476562"/>
     <use xlink:href="#DejaVuSans-6d" x="91.259766"/>
    </g>
   </g>
   <g id="patch_12">
    <path d="M 713.554948 178.322656 
L 733.554948 178.322656 
L 733.554948 171.322656 
L 713.554948 171.322656 
z
" style="fill: #5875a4; stroke: #4c4c4c; stroke-width: 0.75; stroke-linejoin: miter"/>
   </g>
   <g id="text_20">
    <!-- 2d -->
    <g style="fill: #262626" transform="translate(741.554948 178.322656)scale(0.1 -0.1)">
     <use xlink:href="#DejaVuSans-32"/>
     <use xlink:href="#DejaVuSans-64" x="63.623047"/>
    </g>
   </g>
   <g id="patch_13">
    <path d="M 713.554948 193.000781 
L 733.554948 193.000781 
L 733.554948 186.000781 
L 713.554948 186.000781 
z
" style="fill: #cc8963; stroke: #4c4c4c; stroke-width: 0.75; stroke-linejoin: miter"/>
   </g>
   <g id="text_21">
    <!-- 3d -->
    <g style="fill: #262626" transform="translate(741.554948 193.000781)scale(0.1 -0.1)">
     <defs>
      <path id="DejaVuSans-33" d="M 2597 2516 
Q 3050 2419 3304 2112 
Q 3559 1806 3559 1356 
Q 3559 666 3084 287 
Q 2609 -91 1734 -91 
Q 1441 -91 1130 -33 
Q 819 25 488 141 
L 488 750 
Q 750 597 1062 519 
Q 1375 441 1716 441 
Q 2309 441 2620 675 
Q 2931 909 2931 1356 
Q 2931 1769 2642 2001 
Q 2353 2234 1838 2234 
L 1294 2234 
L 1294 2753 
L 1863 2753 
Q 2328 2753 2575 2939 
Q 2822 3125 2822 3475 
Q 2822 3834 2567 4026 
Q 2313 4219 1838 4219 
Q 1578 4219 1281 4162 
Q 984 4106 628 3988 
L 628 4550 
Q 988 4650 1302 4700 
Q 1616 4750 1894 4750 
Q 2613 4750 3031 4423 
Q 3450 4097 3450 3541 
Q 3450 3153 3228 2886 
Q 3006 2619 2597 2516 
z
" transform="scale(0.015625)"/>
     </defs>
     <use xlink:href="#DejaVuSans-33"/>
     <use xlink:href="#DejaVuSans-64" x="63.623047"/>
    </g>
   </g>
  </g>
 </g>
 <defs>
  <clipPath id="pa78f9f87bc">
   <rect x="52.160938" y="20.798437" width="319.091196" height="292.49375"/>
  </clipPath>
  <clipPath id="p5b4cc053e9">
   <rect x="385.53719" y="20.798437" width="319.091196" height="292.49375"/>
  </clipPath>
 </defs>
</svg>
