<?xml version="1.0" encoding="utf-8" standalone="no"?>
<!DOCTYPE svg PUBLIC "-//W3C//DTD SVG 1.1//EN"
  "http://www.w3.org/Graphics/SVG/1.1/DTD/svg11.dtd">
<svg xmlns:xlink="http://www.w3.org/1999/xlink" width="764.430859pt" height="351.126562pt" viewBox="0 0 764.430859 351.126562" xmlns="http://www.w3.org/2000/svg" version="1.1">
 <metadata>
  <rdf:RDF xmlns:dc="http://purl.org/dc/elements/1.1/" xmlns:cc="http://creativecommons.org/ns#" xmlns:rdf="http://www.w3.org/1999/02/22-rdf-syntax-ns#">
   <cc:Work>
    <dc:type rdf:resource="http://purl.org/dc/dcmitype/StillImage"/>
    <dc:date>2022-03-28T23:39:14.598979</dc:date>
    <dc:format>image/svg+xml</dc:format>
    <dc:creator>
     <cc:Agent>
      <dc:title>Matplotlib v3.5.1, https://matplotlib.org/</dc:title>
     </cc:Agent>
    </dc:creator>
   </cc:Work>
  </rdf:RDF>
 </metadata>
 <defs>
  <style type="text/css">*{stroke-linejoin: round; stroke-linecap: butt}</style>
 </defs>
 <g id="figure_1">
  <g id="patch_1">
   <path d="M 0 351.126562 
L 764.430859 351.126562 
L 764.430859 0 
L 0 0 
z
" style="fill: #ffffff"/>
  </g>
  <g id="axes_1">
   <g id="patch_2">
    <path d="M 34.240625 313.292187 
L 362.861369 313.292187 
L 362.861369 20.798437 
L 34.240625 20.798437 
z
" style="fill: #ffffff"/>
   </g>
   <g id="matplotlib.axis_1">
    <g id="xtick_1">
     <g id="line2d_1">
      <defs>
       <path id="m66716fcf4a" d="M 0 0 
L 0 3.5 
" style="stroke: #262626; stroke-width: 0.8"/>
      </defs>
      <g>
       <use xlink:href="#m66716fcf4a" x="89.010749" y="313.292187" style="fill: #262626; stroke: #262626; stroke-width: 0.8"/>
      </g>
     </g>
     <g id="text_1">
      <!-- map2 -->
      <g style="fill: #262626" transform="translate(74.720905 327.890625)scale(0.1 -0.1)">
       <defs>
        <path id="DejaVuSans-6d" d="M 3328 2828 
Q 3544 3216 3844 3400 
Q 4144 3584 4550 3584 
Q 5097 3584 5394 3201 
Q 5691 2819 5691 2113 
L 5691 0 
L 5113 0 
L 5113 2094 
Q 5113 2597 4934 2840 
Q 4756 3084 4391 3084 
Q 3944 3084 3684 2787 
Q 3425 2491 3425 1978 
L 3425 0 
L 2847 0 
L 2847 2094 
Q 2847 2600 2669 2842 
Q 2491 3084 2119 3084 
Q 1678 3084 1418 2786 
Q 1159 2488 1159 1978 
L 1159 0 
L 581 0 
L 581 3500 
L 1159 3500 
L 1159 2956 
Q 1356 3278 1631 3431 
Q 1906 3584 2284 3584 
Q 2666 3584 2933 3390 
Q 3200 3197 3328 2828 
z
" transform="scale(0.015625)"/>
        <path id="DejaVuSans-61" d="M 2194 1759 
Q 1497 1759 1228 1600 
Q 959 1441 959 1056 
Q 959 750 1161 570 
Q 1363 391 1709 391 
Q 2188 391 2477 730 
Q 2766 1069 2766 1631 
L 2766 1759 
L 2194 1759 
z
M 3341 1997 
L 3341 0 
L 2766 0 
L 2766 531 
Q 2569 213 2275 61 
Q 1981 -91 1556 -91 
Q 1019 -91 701 211 
Q 384 513 384 1019 
Q 384 1609 779 1909 
Q 1175 2209 1959 2209 
L 2766 2209 
L 2766 2266 
Q 2766 2663 2505 2880 
Q 2244 3097 1772 3097 
Q 1472 3097 1187 3025 
Q 903 2953 641 2809 
L 641 3341 
Q 956 3463 1253 3523 
Q 1550 3584 1831 3584 
Q 2591 3584 2966 3190 
Q 3341 2797 3341 1997 
z
" transform="scale(0.015625)"/>
        <path id="DejaVuSans-70" d="M 1159 525 
L 1159 -1331 
L 581 -1331 
L 581 3500 
L 1159 3500 
L 1159 2969 
Q 1341 3281 1617 3432 
Q 1894 3584 2278 3584 
Q 2916 3584 3314 3078 
Q 3713 2572 3713 1747 
Q 3713 922 3314 415 
Q 2916 -91 2278 -91 
Q 1894 -91 1617 61 
Q 1341 213 1159 525 
z
M 3116 1747 
Q 3116 2381 2855 2742 
Q 2594 3103 2138 3103 
Q 1681 3103 1420 2742 
Q 1159 2381 1159 1747 
Q 1159 1113 1420 752 
Q 1681 391 2138 391 
Q 2594 391 2855 752 
Q 3116 1113 3116 1747 
z
" transform="scale(0.015625)"/>
        <path id="DejaVuSans-32" d="M 1228 531 
L 3431 531 
L 3431 0 
L 469 0 
L 469 531 
Q 828 903 1448 1529 
Q 2069 2156 2228 2338 
Q 2531 2678 2651 2914 
Q 2772 3150 2772 3378 
Q 2772 3750 2511 3984 
Q 2250 4219 1831 4219 
Q 1534 4219 1204 4116 
Q 875 4013 500 3803 
L 500 4441 
Q 881 4594 1212 4672 
Q 1544 4750 1819 4750 
Q 2544 4750 2975 4387 
Q 3406 4025 3406 3419 
Q 3406 3131 3298 2873 
Q 3191 2616 2906 2266 
Q 2828 2175 2409 1742 
Q 1991 1309 1228 531 
z
" transform="scale(0.015625)"/>
       </defs>
       <use xlink:href="#DejaVuSans-6d"/>
       <use xlink:href="#DejaVuSans-61" x="97.412109"/>
       <use xlink:href="#DejaVuSans-70" x="158.691406"/>
       <use xlink:href="#DejaVuSans-32" x="222.167969"/>
      </g>
     </g>
    </g>
    <g id="xtick_2">
     <g id="line2d_2">
      <g>
       <use xlink:href="#m66716fcf4a" x="198.550997" y="313.292187" style="fill: #262626; stroke: #262626; stroke-width: 0.8"/>
      </g>
     </g>
     <g id="text_2">
      <!-- map5 -->
      <g style="fill: #262626" transform="translate(184.261153 327.890625)scale(0.1 -0.1)">
       <defs>
        <path id="DejaVuSans-35" d="M 691 4666 
L 3169 4666 
L 3169 4134 
L 1269 4134 
L 1269 2991 
Q 1406 3038 1543 3061 
Q 1681 3084 1819 3084 
Q 2600 3084 3056 2656 
Q 3513 2228 3513 1497 
Q 3513 744 3044 326 
Q 2575 -91 1722 -91 
Q 1428 -91 1123 -41 
Q 819 9 494 109 
L 494 744 
Q 775 591 1075 516 
Q 1375 441 1709 441 
Q 2250 441 2565 725 
Q 2881 1009 2881 1497 
Q 2881 1984 2565 2268 
Q 2250 2553 1709 2553 
Q 1456 2553 1204 2497 
Q 953 2441 691 2322 
L 691 4666 
z
" transform="scale(0.015625)"/>
       </defs>
       <use xlink:href="#DejaVuSans-6d"/>
       <use xlink:href="#DejaVuSans-61" x="97.412109"/>
       <use xlink:href="#DejaVuSans-70" x="158.691406"/>
       <use xlink:href="#DejaVuSans-35" x="222.167969"/>
      </g>
     </g>
    </g>
    <g id="xtick_3">
     <g id="line2d_3">
      <g>
       <use xlink:href="#m66716fcf4a" x="308.091245" y="313.292187" style="fill: #262626; stroke: #262626; stroke-width: 0.8"/>
      </g>
     </g>
     <g id="text_3">
      <!-- small_warehouse -->
      <g style="fill: #262626" transform="translate(265.023276 327.890625)scale(0.1 -0.1)">
       <defs>
        <path id="DejaVuSans-73" d="M 2834 3397 
L 2834 2853 
Q 2591 2978 2328 3040 
Q 2066 3103 1784 3103 
Q 1356 3103 1142 2972 
Q 928 2841 928 2578 
Q 928 2378 1081 2264 
Q 1234 2150 1697 2047 
L 1894 2003 
Q 2506 1872 2764 1633 
Q 3022 1394 3022 966 
Q 3022 478 2636 193 
Q 2250 -91 1575 -91 
Q 1294 -91 989 -36 
Q 684 19 347 128 
L 347 722 
Q 666 556 975 473 
Q 1284 391 1588 391 
Q 1994 391 2212 530 
Q 2431 669 2431 922 
Q 2431 1156 2273 1281 
Q 2116 1406 1581 1522 
L 1381 1569 
Q 847 1681 609 1914 
Q 372 2147 372 2553 
Q 372 3047 722 3315 
Q 1072 3584 1716 3584 
Q 2034 3584 2315 3537 
Q 2597 3491 2834 3397 
z
" transform="scale(0.015625)"/>
        <path id="DejaVuSans-6c" d="M 603 4863 
L 1178 4863 
L 1178 0 
L 603 0 
L 603 4863 
z
" transform="scale(0.015625)"/>
        <path id="DejaVuSans-5f" d="M 3263 -1063 
L 3263 -1509 
L -63 -1509 
L -63 -1063 
L 3263 -1063 
z
" transform="scale(0.015625)"/>
        <path id="DejaVuSans-77" d="M 269 3500 
L 844 3500 
L 1563 769 
L 2278 3500 
L 2956 3500 
L 3675 769 
L 4391 3500 
L 4966 3500 
L 4050 0 
L 3372 0 
L 2619 2869 
L 1863 0 
L 1184 0 
L 269 3500 
z
" transform="scale(0.015625)"/>
        <path id="DejaVuSans-72" d="M 2631 2963 
Q 2534 3019 2420 3045 
Q 2306 3072 2169 3072 
Q 1681 3072 1420 2755 
Q 1159 2438 1159 1844 
L 1159 0 
L 581 0 
L 581 3500 
L 1159 3500 
L 1159 2956 
Q 1341 3275 1631 3429 
Q 1922 3584 2338 3584 
Q 2397 3584 2469 3576 
Q 2541 3569 2628 3553 
L 2631 2963 
z
" transform="scale(0.015625)"/>
        <path id="DejaVuSans-65" d="M 3597 1894 
L 3597 1613 
L 953 1613 
Q 991 1019 1311 708 
Q 1631 397 2203 397 
Q 2534 397 2845 478 
Q 3156 559 3463 722 
L 3463 178 
Q 3153 47 2828 -22 
Q 2503 -91 2169 -91 
Q 1331 -91 842 396 
Q 353 884 353 1716 
Q 353 2575 817 3079 
Q 1281 3584 2069 3584 
Q 2775 3584 3186 3129 
Q 3597 2675 3597 1894 
z
M 3022 2063 
Q 3016 2534 2758 2815 
Q 2500 3097 2075 3097 
Q 1594 3097 1305 2825 
Q 1016 2553 972 2059 
L 3022 2063 
z
" transform="scale(0.015625)"/>
        <path id="DejaVuSans-68" d="M 3513 2113 
L 3513 0 
L 2938 0 
L 2938 2094 
Q 2938 2591 2744 2837 
Q 2550 3084 2163 3084 
Q 1697 3084 1428 2787 
Q 1159 2491 1159 1978 
L 1159 0 
L 581 0 
L 581 4863 
L 1159 4863 
L 1159 2956 
Q 1366 3272 1645 3428 
Q 1925 3584 2291 3584 
Q 2894 3584 3203 3211 
Q 3513 2838 3513 2113 
z
" transform="scale(0.015625)"/>
        <path id="DejaVuSans-6f" d="M 1959 3097 
Q 1497 3097 1228 2736 
Q 959 2375 959 1747 
Q 959 1119 1226 758 
Q 1494 397 1959 397 
Q 2419 397 2687 759 
Q 2956 1122 2956 1747 
Q 2956 2369 2687 2733 
Q 2419 3097 1959 3097 
z
M 1959 3584 
Q 2709 3584 3137 3096 
Q 3566 2609 3566 1747 
Q 3566 888 3137 398 
Q 2709 -91 1959 -91 
Q 1206 -91 779 398 
Q 353 888 353 1747 
Q 353 2609 779 3096 
Q 1206 3584 1959 3584 
z
" transform="scale(0.015625)"/>
        <path id="DejaVuSans-75" d="M 544 1381 
L 544 3500 
L 1119 3500 
L 1119 1403 
Q 1119 906 1312 657 
Q 1506 409 1894 409 
Q 2359 409 2629 706 
Q 2900 1003 2900 1516 
L 2900 3500 
L 3475 3500 
L 3475 0 
L 2900 0 
L 2900 538 
Q 2691 219 2414 64 
Q 2138 -91 1772 -91 
Q 1169 -91 856 284 
Q 544 659 544 1381 
z
M 1991 3584 
L 1991 3584 
z
" transform="scale(0.015625)"/>
       </defs>
       <use xlink:href="#DejaVuSans-73"/>
       <use xlink:href="#DejaVuSans-6d" x="52.099609"/>
       <use xlink:href="#DejaVuSans-61" x="149.511719"/>
       <use xlink:href="#DejaVuSans-6c" x="210.791016"/>
       <use xlink:href="#DejaVuSans-6c" x="238.574219"/>
       <use xlink:href="#DejaVuSans-5f" x="266.357422"/>
       <use xlink:href="#DejaVuSans-77" x="316.357422"/>
       <use xlink:href="#DejaVuSans-61" x="398.144531"/>
       <use xlink:href="#DejaVuSans-72" x="459.423828"/>
       <use xlink:href="#DejaVuSans-65" x="498.287109"/>
       <use xlink:href="#DejaVuSans-68" x="559.810547"/>
       <use xlink:href="#DejaVuSans-6f" x="623.189453"/>
       <use xlink:href="#DejaVuSans-75" x="684.371094"/>
       <use xlink:href="#DejaVuSans-73" x="747.75"/>
       <use xlink:href="#DejaVuSans-65" x="799.849609"/>
      </g>
     </g>
    </g>
    <g id="text_4">
     <!-- World -->
     <g style="fill: #262626" transform="translate(184.222872 341.846875)scale(0.1 -0.1)">
      <defs>
       <path id="DejaVuSans-57" d="M 213 4666 
L 850 4666 
L 1831 722 
L 2809 4666 
L 3519 4666 
L 4500 722 
L 5478 4666 
L 6119 4666 
L 4947 0 
L 4153 0 
L 3169 4050 
L 2175 0 
L 1381 0 
L 213 4666 
z
" transform="scale(0.015625)"/>
       <path id="DejaVuSans-64" d="M 2906 2969 
L 2906 4863 
L 3481 4863 
L 3481 0 
L 2906 0 
L 2906 525 
Q 2725 213 2448 61 
Q 2172 -91 1784 -91 
Q 1150 -91 751 415 
Q 353 922 353 1747 
Q 353 2572 751 3078 
Q 1150 3584 1784 3584 
Q 2172 3584 2448 3432 
Q 2725 3281 2906 2969 
z
M 947 1747 
Q 947 1113 1208 752 
Q 1469 391 1925 391 
Q 2381 391 2643 752 
Q 2906 1113 2906 1747 
Q 2906 2381 2643 2742 
Q 2381 3103 1925 3103 
Q 1469 3103 1208 2742 
Q 947 2381 947 1747 
z
" transform="scale(0.015625)"/>
      </defs>
      <use xlink:href="#DejaVuSans-57"/>
      <use xlink:href="#DejaVuSans-6f" x="93.001953"/>
      <use xlink:href="#DejaVuSans-72" x="154.183594"/>
      <use xlink:href="#DejaVuSans-6c" x="195.296875"/>
      <use xlink:href="#DejaVuSans-64" x="223.080078"/>
     </g>
    </g>
   </g>
   <g id="matplotlib.axis_2">
    <g id="ytick_1">
     <g id="line2d_4">
      <defs>
       <path id="m1d63fde2aa" d="M 0 0 
L -3.5 0 
" style="stroke: #262626; stroke-width: 0.8"/>
      </defs>
      <g>
       <use xlink:href="#m1d63fde2aa" x="34.240625" y="270.942621" style="fill: #262626; stroke: #262626; stroke-width: 0.8"/>
      </g>
     </g>
     <g id="text_5">
      <!-- 0 -->
      <g style="fill: #262626" transform="translate(20.878125 274.74184)scale(0.1 -0.1)">
       <defs>
        <path id="DejaVuSans-30" d="M 2034 4250 
Q 1547 4250 1301 3770 
Q 1056 3291 1056 2328 
Q 1056 1369 1301 889 
Q 1547 409 2034 409 
Q 2525 409 2770 889 
Q 3016 1369 3016 2328 
Q 3016 3291 2770 3770 
Q 2525 4250 2034 4250 
z
M 2034 4750 
Q 2819 4750 3233 4129 
Q 3647 3509 3647 2328 
Q 3647 1150 3233 529 
Q 2819 -91 2034 -91 
Q 1250 -91 836 529 
Q 422 1150 422 2328 
Q 422 3509 836 4129 
Q 1250 4750 2034 4750 
z
" transform="scale(0.015625)"/>
       </defs>
       <use xlink:href="#DejaVuSans-30"/>
      </g>
     </g>
    </g>
    <g id="ytick_2">
     <g id="line2d_5">
      <g>
       <use xlink:href="#m1d63fde2aa" x="34.240625" y="211.572731" style="fill: #262626; stroke: #262626; stroke-width: 0.8"/>
      </g>
     </g>
     <g id="text_6">
      <!-- 2 -->
      <g style="fill: #262626" transform="translate(20.878125 215.371949)scale(0.1 -0.1)">
       <use xlink:href="#DejaVuSans-32"/>
      </g>
     </g>
    </g>
    <g id="ytick_3">
     <g id="line2d_6">
      <g>
       <use xlink:href="#m1d63fde2aa" x="34.240625" y="152.20284" style="fill: #262626; stroke: #262626; stroke-width: 0.8"/>
      </g>
     </g>
     <g id="text_7">
      <!-- 4 -->
      <g style="fill: #262626" transform="translate(20.878125 156.002059)scale(0.1 -0.1)">
       <defs>
        <path id="DejaVuSans-34" d="M 2419 4116 
L 825 1625 
L 2419 1625 
L 2419 4116 
z
M 2253 4666 
L 3047 4666 
L 3047 1625 
L 3713 1625 
L 3713 1100 
L 3047 1100 
L 3047 0 
L 2419 0 
L 2419 1100 
L 313 1100 
L 313 1709 
L 2253 4666 
z
" transform="scale(0.015625)"/>
       </defs>
       <use xlink:href="#DejaVuSans-34"/>
      </g>
     </g>
    </g>
    <g id="ytick_4">
     <g id="line2d_7">
      <g>
       <use xlink:href="#m1d63fde2aa" x="34.240625" y="92.832949" style="fill: #262626; stroke: #262626; stroke-width: 0.8"/>
      </g>
     </g>
     <g id="text_8">
      <!-- 6 -->
      <g style="fill: #262626" transform="translate(20.878125 96.632168)scale(0.1 -0.1)">
       <defs>
        <path id="DejaVuSans-36" d="M 2113 2584 
Q 1688 2584 1439 2293 
Q 1191 2003 1191 1497 
Q 1191 994 1439 701 
Q 1688 409 2113 409 
Q 2538 409 2786 701 
Q 3034 994 3034 1497 
Q 3034 2003 2786 2293 
Q 2538 2584 2113 2584 
z
M 3366 4563 
L 3366 3988 
Q 3128 4100 2886 4159 
Q 2644 4219 2406 4219 
Q 1781 4219 1451 3797 
Q 1122 3375 1075 2522 
Q 1259 2794 1537 2939 
Q 1816 3084 2150 3084 
Q 2853 3084 3261 2657 
Q 3669 2231 3669 1497 
Q 3669 778 3244 343 
Q 2819 -91 2113 -91 
Q 1303 -91 875 529 
Q 447 1150 447 2328 
Q 447 3434 972 4092 
Q 1497 4750 2381 4750 
Q 2619 4750 2861 4703 
Q 3103 4656 3366 4563 
z
" transform="scale(0.015625)"/>
       </defs>
       <use xlink:href="#DejaVuSans-36"/>
      </g>
     </g>
    </g>
    <g id="ytick_5">
     <g id="line2d_8">
      <g>
       <use xlink:href="#m1d63fde2aa" x="34.240625" y="33.463058" style="fill: #262626; stroke: #262626; stroke-width: 0.8"/>
      </g>
     </g>
     <g id="text_9">
      <!-- 8 -->
      <g style="fill: #262626" transform="translate(20.878125 37.262277)scale(0.1 -0.1)">
       <defs>
        <path id="DejaVuSans-38" d="M 2034 2216 
Q 1584 2216 1326 1975 
Q 1069 1734 1069 1313 
Q 1069 891 1326 650 
Q 1584 409 2034 409 
Q 2484 409 2743 651 
Q 3003 894 3003 1313 
Q 3003 1734 2745 1975 
Q 2488 2216 2034 2216 
z
M 1403 2484 
Q 997 2584 770 2862 
Q 544 3141 544 3541 
Q 544 4100 942 4425 
Q 1341 4750 2034 4750 
Q 2731 4750 3128 4425 
Q 3525 4100 3525 3541 
Q 3525 3141 3298 2862 
Q 3072 2584 2669 2484 
Q 3125 2378 3379 2068 
Q 3634 1759 3634 1313 
Q 3634 634 3220 271 
Q 2806 -91 2034 -91 
Q 1263 -91 848 271 
Q 434 634 434 1313 
Q 434 1759 690 2068 
Q 947 2378 1403 2484 
z
M 1172 3481 
Q 1172 3119 1398 2916 
Q 1625 2713 2034 2713 
Q 2441 2713 2670 2916 
Q 2900 3119 2900 3481 
Q 2900 3844 2670 4047 
Q 2441 4250 2034 4250 
Q 1625 4250 1398 4047 
Q 1172 3844 1172 3481 
z
" transform="scale(0.015625)"/>
       </defs>
       <use xlink:href="#DejaVuSans-38"/>
      </g>
     </g>
    </g>
    <g id="text_10">
     <!-- collision -->
     <g style="fill: #262626" transform="translate(14.798438 187.242969)rotate(-90)scale(0.1 -0.1)">
      <defs>
       <path id="DejaVuSans-63" d="M 3122 3366 
L 3122 2828 
Q 2878 2963 2633 3030 
Q 2388 3097 2138 3097 
Q 1578 3097 1268 2742 
Q 959 2388 959 1747 
Q 959 1106 1268 751 
Q 1578 397 2138 397 
Q 2388 397 2633 464 
Q 2878 531 3122 666 
L 3122 134 
Q 2881 22 2623 -34 
Q 2366 -91 2075 -91 
Q 1284 -91 818 406 
Q 353 903 353 1747 
Q 353 2603 823 3093 
Q 1294 3584 2113 3584 
Q 2378 3584 2631 3529 
Q 2884 3475 3122 3366 
z
" transform="scale(0.015625)"/>
       <path id="DejaVuSans-69" d="M 603 3500 
L 1178 3500 
L 1178 0 
L 603 0 
L 603 3500 
z
M 603 4863 
L 1178 4863 
L 1178 4134 
L 603 4134 
L 603 4863 
z
" transform="scale(0.015625)"/>
       <path id="DejaVuSans-6e" d="M 3513 2113 
L 3513 0 
L 2938 0 
L 2938 2094 
Q 2938 2591 2744 2837 
Q 2550 3084 2163 3084 
Q 1697 3084 1428 2787 
Q 1159 2491 1159 1978 
L 1159 0 
L 581 0 
L 581 3500 
L 1159 3500 
L 1159 2956 
Q 1366 3272 1645 3428 
Q 1925 3584 2291 3584 
Q 2894 3584 3203 3211 
Q 3513 2838 3513 2113 
z
" transform="scale(0.015625)"/>
      </defs>
      <use xlink:href="#DejaVuSans-63"/>
      <use xlink:href="#DejaVuSans-6f" x="54.980469"/>
      <use xlink:href="#DejaVuSans-6c" x="116.162109"/>
      <use xlink:href="#DejaVuSans-6c" x="143.945312"/>
      <use xlink:href="#DejaVuSans-69" x="171.728516"/>
      <use xlink:href="#DejaVuSans-73" x="199.511719"/>
      <use xlink:href="#DejaVuSans-69" x="251.611328"/>
      <use xlink:href="#DejaVuSans-6f" x="279.394531"/>
      <use xlink:href="#DejaVuSans-6e" x="340.576172"/>
     </g>
    </g>
   </g>
   <g id="patch_3">
    <path d="M 89.010749 270.942621 
L 89.010749 270.942621 
L 89.010749 270.942621 
L 89.010749 270.942621 
z
" clip-path="url(#p196e56e832)" style="fill: #5875a4; stroke: #4c4c4c; stroke-width: 0.75; stroke-linejoin: miter"/>
   </g>
   <g id="PolyCollection_1">
    <defs>
     <path id="m824005f172" d="M 89.010749 -66.971539 
L 83.071066 -66.971539 
L 80.686204 -68.138 
L 77.701919 -69.304461 
L 74.119375 -70.470922 
L 70.003827 -71.637383 
L 65.495545 -72.803844 
L 60.810972 -73.970305 
L 56.231231 -75.136766 
L 52.07733 -76.303227 
L 48.674389 -77.469688 
L 46.310098 -78.636149 
L 45.19465 -79.80261 
L 45.42985 -80.969071 
L 46.993661 -82.135532 
L 49.743368 -83.301993 
L 53.436654 -84.468454 
L 57.766124 -85.634915 
L 62.400277 -86.801376 
L 67.023143 -87.967837 
L 71.365889 -89.134298 
L 75.226185 -90.300759 
L 78.474235 -91.46722 
L 81.047213 -92.633681 
L 82.935885 -93.800142 
L 84.167994 -94.966603 
L 84.792648 -96.133064 
L 84.868801 -97.299525 
L 84.45931 -98.465986 
L 83.630382 -99.632447 
L 82.454912 -100.798908 
L 81.017326 -101.965369 
L 79.417301 -103.13183 
L 77.770127 -104.298291 
L 76.202374 -105.464752 
L 74.842771 -106.631214 
L 73.809587 -107.797675 
L 73.196821 -108.964136 
L 73.062081 -110.130597 
L 73.418839 -111.297058 
L 74.23488 -112.463519 
L 75.437409 -113.62998 
L 76.923851 -114.796441 
L 78.576177 -115.962902 
L 80.275989 -117.129363 
L 81.917715 -118.295824 
L 83.417911 -119.462285 
L 84.719748 -120.628746 
L 85.792876 -121.795207 
L 86.629679 -122.961668 
L 87.239477 -124.128129 
L 87.642243 -125.29459 
L 87.86314 -126.461051 
L 87.928659 -127.627512 
L 87.864633 -128.793973 
L 87.695874 -129.960434 
L 87.446889 -131.126895 
L 87.142957 -132.293356 
L 86.810904 -133.459817 
L 86.479039 -134.626278 
L 86.176077 -135.792739 
L 85.929093 -136.9592 
L 85.760938 -138.125661 
L 85.68765 -139.292122 
L 85.716485 -140.458583 
L 85.845056 -141.625044 
L 86.061831 -142.791505 
L 86.347913 -143.957966 
L 86.679781 -145.124427 
L 87.032439 -146.290888 
L 87.38241 -147.457349 
L 87.710079 -148.62381 
L 88.00109 -149.790271 
L 88.246732 -150.956732 
L 88.443462 -152.123193 
L 88.59185 -153.289654 
L 88.695271 -154.456115 
L 88.758659 -155.622576 
L 88.787535 -156.789037 
L 88.787408 -157.955498 
L 88.763544 -159.121959 
L 88.721024 -160.28842 
L 88.664945 -161.454881 
L 88.60062 -162.621342 
L 88.533657 -163.787803 
L 88.469847 -164.954264 
L 88.41484 -166.120725 
L 88.373667 -167.287186 
L 88.350217 -168.453647 
L 88.346771 -169.620108 
L 88.363726 -170.786569 
L 88.399574 -171.953031 
L 88.451144 -173.119492 
L 88.514087 -174.285953 
L 88.583478 -175.452414 
L 88.654458 -176.618875 
L 88.722765 -177.785336 
L 88.785122 -178.951797 
L 88.839403 -180.118258 
L 88.88462 -181.284719 
L 88.920754 -182.45118 
L 89.010749 -182.45118 
L 89.010749 -182.45118 
L 89.010749 -181.284719 
L 89.010749 -180.118258 
L 89.010749 -178.951797 
L 89.010749 -177.785336 
L 89.010749 -176.618875 
L 89.010749 -175.452414 
L 89.010749 -174.285953 
L 89.010749 -173.119492 
L 89.010749 -171.953031 
L 89.010749 -170.786569 
L 89.010749 -169.620108 
L 89.010749 -168.453647 
L 89.010749 -167.287186 
L 89.010749 -166.120725 
L 89.010749 -164.954264 
L 89.010749 -163.787803 
L 89.010749 -162.621342 
L 89.010749 -161.454881 
L 89.010749 -160.28842 
L 89.010749 -159.121959 
L 89.010749 -157.955498 
L 89.010749 -156.789037 
L 89.010749 -155.622576 
L 89.010749 -154.456115 
L 89.010749 -153.289654 
L 89.010749 -152.123193 
L 89.010749 -150.956732 
L 89.010749 -149.790271 
L 89.010749 -148.62381 
L 89.010749 -147.457349 
L 89.010749 -146.290888 
L 89.010749 -145.124427 
L 89.010749 -143.957966 
L 89.010749 -142.791505 
L 89.010749 -141.625044 
L 89.010749 -140.458583 
L 89.010749 -139.292122 
L 89.010749 -138.125661 
L 89.010749 -136.9592 
L 89.010749 -135.792739 
L 89.010749 -134.626278 
L 89.010749 -133.459817 
L 89.010749 -132.293356 
L 89.010749 -131.126895 
L 89.010749 -129.960434 
L 89.010749 -128.793973 
L 89.010749 -127.627512 
L 89.010749 -126.461051 
L 89.010749 -125.29459 
L 89.010749 -124.128129 
L 89.010749 -122.961668 
L 89.010749 -121.795207 
L 89.010749 -120.628746 
L 89.010749 -119.462285 
L 89.010749 -118.295824 
L 89.010749 -117.129363 
L 89.010749 -115.962902 
L 89.010749 -114.796441 
L 89.010749 -113.62998 
L 89.010749 -112.463519 
L 89.010749 -111.297058 
L 89.010749 -110.130597 
L 89.010749 -108.964136 
L 89.010749 -107.797675 
L 89.010749 -106.631214 
L 89.010749 -105.464752 
L 89.010749 -104.298291 
L 89.010749 -103.13183 
L 89.010749 -101.965369 
L 89.010749 -100.798908 
L 89.010749 -99.632447 
L 89.010749 -98.465986 
L 89.010749 -97.299525 
L 89.010749 -96.133064 
L 89.010749 -94.966603 
L 89.010749 -93.800142 
L 89.010749 -92.633681 
L 89.010749 -91.46722 
L 89.010749 -90.300759 
L 89.010749 -89.134298 
L 89.010749 -87.967837 
L 89.010749 -86.801376 
L 89.010749 -85.634915 
L 89.010749 -84.468454 
L 89.010749 -83.301993 
L 89.010749 -82.135532 
L 89.010749 -80.969071 
L 89.010749 -79.80261 
L 89.010749 -78.636149 
L 89.010749 -77.469688 
L 89.010749 -76.303227 
L 89.010749 -75.136766 
L 89.010749 -73.970305 
L 89.010749 -72.803844 
L 89.010749 -71.637383 
L 89.010749 -70.470922 
L 89.010749 -69.304461 
L 89.010749 -68.138 
L 89.010749 -66.971539 
z
" style="stroke: #4c4c4c; stroke-width: 1.5"/>
    </defs>
    <g clip-path="url(#p196e56e832)">
     <use xlink:href="#m824005f172" x="0" y="351.126562" style="fill: #5875a4; stroke: #4c4c4c; stroke-width: 1.5"/>
    </g>
   </g>
   <g id="patch_4">
    <path d="M 89.010749 270.942621 
L 89.010749 270.942621 
L 89.010749 270.942621 
L 89.010749 270.942621 
z
" clip-path="url(#p196e56e832)" style="fill: #cc8963; stroke: #4c4c4c; stroke-width: 0.75; stroke-linejoin: miter"/>
   </g>
   <g id="PolyCollection_2">
    <defs>
     <path id="m8328504fe2" d="M 94.180785 -63.624709 
L 89.010749 -63.624709 
L 89.010749 -65.158631 
L 89.010749 -66.692553 
L 89.010749 -68.226474 
L 89.010749 -69.760396 
L 89.010749 -71.294318 
L 89.010749 -72.828239 
L 89.010749 -74.362161 
L 89.010749 -75.896083 
L 89.010749 -77.430004 
L 89.010749 -78.963926 
L 89.010749 -80.497848 
L 89.010749 -82.031769 
L 89.010749 -83.565691 
L 89.010749 -85.099613 
L 89.010749 -86.633534 
L 89.010749 -88.167456 
L 89.010749 -89.701378 
L 89.010749 -91.235299 
L 89.010749 -92.769221 
L 89.010749 -94.303143 
L 89.010749 -95.837064 
L 89.010749 -97.370986 
L 89.010749 -98.904908 
L 89.010749 -100.438829 
L 89.010749 -101.972751 
L 89.010749 -103.506673 
L 89.010749 -105.040594 
L 89.010749 -106.574516 
L 89.010749 -108.108438 
L 89.010749 -109.642359 
L 89.010749 -111.176281 
L 89.010749 -112.710203 
L 89.010749 -114.244124 
L 89.010749 -115.778046 
L 89.010749 -117.311968 
L 89.010749 -118.845889 
L 89.010749 -120.379811 
L 89.010749 -121.913733 
L 89.010749 -123.447654 
L 89.010749 -124.981576 
L 89.010749 -126.515498 
L 89.010749 -128.049419 
L 89.010749 -129.583341 
L 89.010749 -131.117263 
L 89.010749 -132.651184 
L 89.010749 -134.185106 
L 89.010749 -135.719028 
L 89.010749 -137.252949 
L 89.010749 -138.786871 
L 89.010749 -140.320793 
L 89.010749 -141.854714 
L 89.010749 -143.388636 
L 89.010749 -144.922558 
L 89.010749 -146.456479 
L 89.010749 -147.990401 
L 89.010749 -149.524323 
L 89.010749 -151.058244 
L 89.010749 -152.592166 
L 89.010749 -154.126088 
L 89.010749 -155.660009 
L 89.010749 -157.193931 
L 89.010749 -158.727853 
L 89.010749 -160.261774 
L 89.010749 -161.795696 
L 89.010749 -163.329618 
L 89.010749 -164.863539 
L 89.010749 -166.397461 
L 89.010749 -167.931383 
L 89.010749 -169.465304 
L 89.010749 -170.999226 
L 89.010749 -172.533148 
L 89.010749 -174.067069 
L 89.010749 -175.600991 
L 89.010749 -177.134913 
L 89.010749 -178.668834 
L 89.010749 -180.202756 
L 89.010749 -181.736678 
L 89.010749 -183.270599 
L 89.010749 -184.804521 
L 89.010749 -186.338443 
L 89.010749 -187.872364 
L 89.010749 -189.406286 
L 89.010749 -190.940208 
L 89.010749 -192.474129 
L 89.010749 -194.008051 
L 89.010749 -195.541973 
L 89.010749 -197.075894 
L 89.010749 -198.609816 
L 89.010749 -200.143738 
L 89.010749 -201.677659 
L 89.010749 -203.211581 
L 89.010749 -204.745503 
L 89.010749 -206.279424 
L 89.010749 -207.813346 
L 89.010749 -209.347268 
L 89.010749 -210.881189 
L 89.010749 -212.415111 
L 89.010749 -213.949033 
L 89.010749 -215.482954 
L 89.082555 -215.482954 
L 89.082555 -215.482954 
L 89.112991 -213.949033 
L 89.151416 -212.415111 
L 89.197752 -210.881189 
L 89.250967 -209.347268 
L 89.308919 -207.813346 
L 89.368379 -206.279424 
L 89.425254 -204.745503 
L 89.475034 -203.211581 
L 89.513391 -201.677659 
L 89.53685 -200.143738 
L 89.543402 -198.609816 
L 89.532934 -197.075894 
L 89.5074 -195.541973 
L 89.470704 -194.008051 
L 89.428333 -192.474129 
L 89.386811 -190.940208 
L 89.353079 -189.406286 
L 89.333864 -187.872364 
L 89.335081 -186.338443 
L 89.361277 -184.804521 
L 89.415101 -183.270599 
L 89.496817 -181.736678 
L 89.603903 -180.202756 
L 89.730845 -178.668834 
L 89.869244 -177.134913 
L 90.008363 -175.600991 
L 90.136135 -174.067069 
L 90.240593 -172.533148 
L 90.311499 -170.999226 
L 90.341922 -169.465304 
L 90.329451 -167.931383 
L 90.276808 -166.397461 
L 90.191744 -164.863539 
L 90.086271 -163.329618 
L 89.975389 -161.795696 
L 89.875553 -160.261774 
L 89.803095 -158.727853 
L 89.772753 -157.193931 
L 89.796348 -155.660009 
L 89.8816 -154.126088 
L 90.031062 -152.592166 
L 90.241227 -151.058244 
L 90.501979 -149.524323 
L 90.79663 -147.990401 
L 91.102821 -146.456479 
L 91.394434 -144.922558 
L 91.644467 -143.388636 
L 91.828559 -141.854714 
L 91.928609 -140.320793 
L 91.935832 -138.786871 
L 91.852694 -137.252949 
L 91.69333 -135.719028 
L 91.482444 -134.185106 
L 91.252947 -132.651184 
L 91.042784 -131.117263 
L 90.891431 -129.583341 
L 90.836395 -128.049419 
L 90.909836 -126.515498 
L 91.135316 -124.981576 
L 91.524629 -123.447654 
L 92.074871 -121.913733 
L 92.76618 -120.379811 
L 93.560858 -118.845889 
L 94.404678 -117.311968 
L 95.23098 -115.778046 
L 95.96768 -114.244124 
L 96.546574 -112.710203 
L 96.913668 -111.176281 
L 97.03884 -109.642359 
L 96.92313 -108.108438 
L 96.602431 -106.574516 
L 96.147122 -105.040594 
L 95.657934 -103.506673 
L 95.258862 -101.972751 
L 95.087995 -100.438829 
L 95.286785 -98.904908 
L 95.98776 -97.370986 
L 97.300404 -95.837064 
L 99.295198 -94.303143 
L 101.986746 -92.769221 
L 105.31834 -91.235299 
L 109.15167 -89.701378 
L 113.265989 -88.167456 
L 117.370342 -86.633534 
L 121.130197 -85.099613 
L 124.206395 -83.565691 
L 126.300728 -82.031769 
L 127.199708 -80.497848 
L 126.807443 -78.963926 
L 125.160305 -77.430004 
L 122.419951 -75.896083 
L 118.846254 -74.362161 
L 114.756155 -72.828239 
L 110.477313 -71.294318 
L 106.305745 -69.760396 
L 102.474708 -68.226474 
L 99.138644 -66.692553 
L 96.372133 -65.158631 
L 94.180785 -63.624709 
z
" style="stroke: #4c4c4c; stroke-width: 1.5"/>
    </defs>
    <g clip-path="url(#p196e56e832)">
     <use xlink:href="#m8328504fe2" x="0" y="351.126562" style="fill: #cc8963; stroke: #4c4c4c; stroke-width: 1.5"/>
    </g>
   </g>
   <g id="PolyCollection_3">
    <defs>
     <path id="m08e6f3c9e2" d="M 198.550997 -68.672647 
L 193.760876 -68.672647 
L 192.221031 -69.504895 
L 190.359261 -70.337142 
L 188.169255 -71.169389 
L 185.666004 -72.001636 
L 182.890057 -72.833884 
L 179.909913 -73.666131 
L 176.821774 -74.498378 
L 173.74613 -75.330625 
L 170.821033 -76.162873 
L 168.19242 -76.99512 
L 166.002331 -77.827367 
L 164.376299 -78.659614 
L 163.411472 -79.491862 
L 163.167005 -80.324109 
L 163.658057 -81.156356 
L 164.854231 -81.988604 
L 166.682684 -82.820851 
L 169.035464 -83.653098 
L 171.78003 -84.485345 
L 174.771549 -85.317593 
L 177.865363 -86.14984 
L 180.928153 -86.982087 
L 183.846646 -87.814334 
L 186.533168 -88.646582 
L 188.927859 -89.478829 
L 190.997837 -90.311076 
L 192.733939 -91.143323 
L 194.145854 -91.975571 
L 195.256523 -92.807818 
L 196.096578 -93.640065 
L 196.699424 -94.472312 
L 197.09736 -95.30456 
L 197.318936 -96.136807 
L 197.387562 -96.969054 
L 197.32126 -97.801301 
L 197.133371 -98.633549 
L 196.833966 -99.465796 
L 196.431708 -100.298043 
L 195.93587 -101.13029 
L 195.358244 -101.962538 
L 194.714676 -102.794785 
L 194.026001 -103.627032 
L 193.318197 -104.459279 
L 192.621687 -105.291527 
L 191.969795 -106.123774 
L 191.396505 -106.956021 
L 190.933766 -107.788268 
L 190.608683 -108.620516 
L 190.44097 -109.452763 
L 190.441012 -110.28501 
L 190.608831 -111.117257 
L 190.934092 -111.949505 
L 191.397163 -112.781752 
L 191.971076 -113.613999 
L 192.62412 -114.446247 
L 193.322723 -115.278494 
L 194.034244 -116.110741 
L 194.729378 -116.942988 
L 195.383919 -117.775236 
L 195.979783 -118.607483 
L 196.505259 -119.43973 
L 196.95461 -120.271977 
L 197.327166 -121.104225 
L 197.62612 -121.936472 
L 197.857213 -122.768719 
L 198.027486 -123.600966 
L 198.144213 -124.433214 
L 198.214103 -125.265461 
L 198.242802 -126.097708 
L 198.234691 -126.929955 
L 198.192946 -127.762203 
L 198.119818 -128.59445 
L 198.017072 -129.426697 
L 197.886511 -130.258944 
L 197.730518 -131.091192 
L 197.552546 -131.923439 
L 197.35747 -132.755686 
L 197.151763 -133.587933 
L 196.943429 -134.420181 
L 196.741695 -135.252428 
L 196.556467 -136.084675 
L 196.397611 -136.916922 
L 196.274128 -137.74917 
L 196.193336 -138.581417 
L 196.160172 -139.413664 
L 196.176698 -140.245911 
L 196.241893 -141.078159 
L 196.351761 -141.910406 
L 196.499741 -142.742653 
L 196.67735 -143.574901 
L 196.874992 -144.407148 
L 197.082806 -145.239395 
L 197.291464 -146.071642 
L 197.492825 -146.90389 
L 197.680389 -147.736137 
L 197.849528 -148.568384 
L 197.997501 -149.400631 
L 198.123297 -150.232879 
L 198.22734 -151.065126 
L 198.550997 -151.065126 
L 198.550997 -151.065126 
L 198.550997 -150.232879 
L 198.550997 -149.400631 
L 198.550997 -148.568384 
L 198.550997 -147.736137 
L 198.550997 -146.90389 
L 198.550997 -146.071642 
L 198.550997 -145.239395 
L 198.550997 -144.407148 
L 198.550997 -143.574901 
L 198.550997 -142.742653 
L 198.550997 -141.910406 
L 198.550997 -141.078159 
L 198.550997 -140.245911 
L 198.550997 -139.413664 
L 198.550997 -138.581417 
L 198.550997 -137.74917 
L 198.550997 -136.916922 
L 198.550997 -136.084675 
L 198.550997 -135.252428 
L 198.550997 -134.420181 
L 198.550997 -133.587933 
L 198.550997 -132.755686 
L 198.550997 -131.923439 
L 198.550997 -131.091192 
L 198.550997 -130.258944 
L 198.550997 -129.426697 
L 198.550997 -128.59445 
L 198.550997 -127.762203 
L 198.550997 -126.929955 
L 198.550997 -126.097708 
L 198.550997 -125.265461 
L 198.550997 -124.433214 
L 198.550997 -123.600966 
L 198.550997 -122.768719 
L 198.550997 -121.936472 
L 198.550997 -121.104225 
L 198.550997 -120.271977 
L 198.550997 -119.43973 
L 198.550997 -118.607483 
L 198.550997 -117.775236 
L 198.550997 -116.942988 
L 198.550997 -116.110741 
L 198.550997 -115.278494 
L 198.550997 -114.446247 
L 198.550997 -113.613999 
L 198.550997 -112.781752 
L 198.550997 -111.949505 
L 198.550997 -111.117257 
L 198.550997 -110.28501 
L 198.550997 -109.452763 
L 198.550997 -108.620516 
L 198.550997 -107.788268 
L 198.550997 -106.956021 
L 198.550997 -106.123774 
L 198.550997 -105.291527 
L 198.550997 -104.459279 
L 198.550997 -103.627032 
L 198.550997 -102.794785 
L 198.550997 -101.962538 
L 198.550997 -101.13029 
L 198.550997 -100.298043 
L 198.550997 -99.465796 
L 198.550997 -98.633549 
L 198.550997 -97.801301 
L 198.550997 -96.969054 
L 198.550997 -96.136807 
L 198.550997 -95.30456 
L 198.550997 -94.472312 
L 198.550997 -93.640065 
L 198.550997 -92.807818 
L 198.550997 -91.975571 
L 198.550997 -91.143323 
L 198.550997 -90.311076 
L 198.550997 -89.478829 
L 198.550997 -88.646582 
L 198.550997 -87.814334 
L 198.550997 -86.982087 
L 198.550997 -86.14984 
L 198.550997 -85.317593 
L 198.550997 -84.485345 
L 198.550997 -83.653098 
L 198.550997 -82.820851 
L 198.550997 -81.988604 
L 198.550997 -81.156356 
L 198.550997 -80.324109 
L 198.550997 -79.491862 
L 198.550997 -78.659614 
L 198.550997 -77.827367 
L 198.550997 -76.99512 
L 198.550997 -76.162873 
L 198.550997 -75.330625 
L 198.550997 -74.498378 
L 198.550997 -73.666131 
L 198.550997 -72.833884 
L 198.550997 -72.001636 
L 198.550997 -71.169389 
L 198.550997 -70.337142 
L 198.550997 -69.504895 
L 198.550997 -68.672647 
z
" style="stroke: #4c4c4c; stroke-width: 1.5"/>
    </defs>
    <g clip-path="url(#p196e56e832)">
     <use xlink:href="#m08e6f3c9e2" x="0" y="351.126562" style="fill: #5875a4; stroke: #4c4c4c; stroke-width: 1.5"/>
    </g>
   </g>
   <g id="PolyCollection_4">
    <defs>
     <path id="m8242f55996" d="M 204.499413 -69.786759 
L 198.550997 -69.786759 
L 198.550997 -70.896347 
L 198.550997 -72.005934 
L 198.550997 -73.115522 
L 198.550997 -74.22511 
L 198.550997 -75.334698 
L 198.550997 -76.444286 
L 198.550997 -77.553874 
L 198.550997 -78.663462 
L 198.550997 -79.77305 
L 198.550997 -80.882638 
L 198.550997 -81.992225 
L 198.550997 -83.101813 
L 198.550997 -84.211401 
L 198.550997 -85.320989 
L 198.550997 -86.430577 
L 198.550997 -87.540165 
L 198.550997 -88.649753 
L 198.550997 -89.759341 
L 198.550997 -90.868929 
L 198.550997 -91.978516 
L 198.550997 -93.088104 
L 198.550997 -94.197692 
L 198.550997 -95.30728 
L 198.550997 -96.416868 
L 198.550997 -97.526456 
L 198.550997 -98.636044 
L 198.550997 -99.745632 
L 198.550997 -100.85522 
L 198.550997 -101.964808 
L 198.550997 -103.074395 
L 198.550997 -104.183983 
L 198.550997 -105.293571 
L 198.550997 -106.403159 
L 198.550997 -107.512747 
L 198.550997 -108.622335 
L 198.550997 -109.731923 
L 198.550997 -110.841511 
L 198.550997 -111.951099 
L 198.550997 -113.060686 
L 198.550997 -114.170274 
L 198.550997 -115.279862 
L 198.550997 -116.38945 
L 198.550997 -117.499038 
L 198.550997 -118.608626 
L 198.550997 -119.718214 
L 198.550997 -120.827802 
L 198.550997 -121.93739 
L 198.550997 -123.046977 
L 198.550997 -124.156565 
L 198.550997 -125.266153 
L 198.550997 -126.375741 
L 198.550997 -127.485329 
L 198.550997 -128.594917 
L 198.550997 -129.704505 
L 198.550997 -130.814093 
L 198.550997 -131.923681 
L 198.550997 -133.033268 
L 198.550997 -134.142856 
L 198.550997 -135.252444 
L 198.550997 -136.362032 
L 198.550997 -137.47162 
L 198.550997 -138.581208 
L 198.550997 -139.690796 
L 198.550997 -140.800384 
L 198.550997 -141.909972 
L 198.550997 -143.019559 
L 198.550997 -144.129147 
L 198.550997 -145.238735 
L 198.550997 -146.348323 
L 198.550997 -147.457911 
L 198.550997 -148.567499 
L 198.550997 -149.677087 
L 198.550997 -150.786675 
L 198.550997 -151.896263 
L 198.550997 -153.005851 
L 198.550997 -154.115438 
L 198.550997 -155.225026 
L 198.550997 -156.334614 
L 198.550997 -157.444202 
L 198.550997 -158.55379 
L 198.550997 -159.663378 
L 198.550997 -160.772966 
L 198.550997 -161.882554 
L 198.550997 -162.992142 
L 198.550997 -164.101729 
L 198.550997 -165.211317 
L 198.550997 -166.320905 
L 198.550997 -167.430493 
L 198.550997 -168.540081 
L 198.550997 -169.649669 
L 198.550997 -170.759257 
L 198.550997 -171.868845 
L 198.550997 -172.978433 
L 198.550997 -174.08802 
L 198.550997 -175.197608 
L 198.550997 -176.307196 
L 198.550997 -177.416784 
L 198.550997 -178.526372 
L 198.550997 -179.63596 
L 198.622665 -179.63596 
L 198.622665 -179.63596 
L 198.658352 -178.526372 
L 198.704648 -177.416784 
L 198.761116 -176.307196 
L 198.82554 -175.197608 
L 198.89374 -174.08802 
L 198.959827 -172.978433 
L 199.01694 -171.868845 
L 199.058381 -170.759257 
L 199.078902 -169.649669 
L 199.075792 -168.540081 
L 199.049467 -167.430493 
L 199.003378 -166.320905 
L 198.94327 -165.211317 
L 198.876007 -164.101729 
L 198.808305 -162.992142 
L 198.745686 -161.882554 
L 198.691873 -160.772966 
L 198.64869 -159.663378 
L 198.616386 -158.55379 
L 198.594215 -157.444202 
L 198.581102 -156.334614 
L 198.576255 -155.225026 
L 198.579643 -154.115438 
L 198.592275 -153.005851 
L 198.616258 -151.896263 
L 198.654563 -150.786675 
L 198.710487 -149.677087 
L 198.78677 -148.567499 
L 198.884477 -147.457911 
L 199.001855 -146.348323 
L 199.133472 -145.238735 
L 199.270024 -144.129147 
L 199.39907 -143.019559 
L 199.506732 -141.909972 
L 199.580095 -140.800384 
L 199.609743 -139.690796 
L 199.591736 -138.581208 
L 199.528476 -137.47162 
L 199.428183 -136.362032 
L 199.30314 -135.252444 
L 199.167249 -134.142856 
L 199.033552 -133.033268 
L 198.912358 -131.923681 
L 198.810334 -130.814093 
L 198.730635 -129.704505 
L 198.673863 -128.594917 
L 198.639552 -127.485329 
L 198.627857 -126.375741 
L 198.641167 -125.266153 
L 198.68543 -124.156565 
L 198.770928 -123.046977 
L 198.91219 -121.93739 
L 199.126636 -120.827802 
L 199.431657 -119.718214 
L 199.840092 -118.608626 
L 200.35466 -117.499038 
L 200.962533 -116.38945 
L 201.63179 -115.279862 
L 202.311543 -114.170274 
L 202.936867 -113.060686 
L 203.438375 -111.951099 
L 203.754685 -110.841511 
L 203.844727 -109.731923 
L 203.696501 -108.622335 
L 203.329711 -107.512747 
L 202.791484 -106.403159 
L 202.146488 -105.293571 
L 201.464343 -104.183983 
L 200.807832 -103.074395 
L 200.224767 -101.964808 
L 199.745088 -100.85522 
L 199.383231 -99.745632 
L 199.144733 -98.636044 
L 199.035568 -97.526456 
L 199.072697 -96.416868 
L 199.29442 -95.30728 
L 199.768885 -94.197692 
L 200.598439 -93.088104 
L 201.916645 -91.978516 
L 203.874437 -90.868929 
L 206.612957 -89.759341 
L 210.223755 -88.649753 
L 214.702057 -87.540165 
L 219.904402 -86.430577 
L 225.525609 -85.320989 
L 231.109191 -84.211401 
L 236.098496 -83.101813 
L 239.923985 -81.992225 
L 242.108984 -80.882638 
L 242.367096 -79.77305 
L 240.663845 -78.663462 
L 237.224232 -77.553874 
L 232.483928 -76.444286 
L 226.998702 -75.334698 
L 221.338045 -74.22511 
L 215.990893 -73.115522 
L 211.304066 -72.005934 
L 207.461465 -70.896347 
L 204.499413 -69.786759 
z
" style="stroke: #4c4c4c; stroke-width: 1.5"/>
    </defs>
    <g clip-path="url(#p196e56e832)">
     <use xlink:href="#m8242f55996" x="0" y="351.126562" style="fill: #cc8963; stroke: #4c4c4c; stroke-width: 1.5"/>
    </g>
   </g>
   <g id="PolyCollection_5">
    <defs>
     <path id="m7fc5b0d214" d="M 308.091245 -59.440428 
L 304.35105 -59.440428 
L 302.768618 -61.358728 
L 300.771283 -63.277029 
L 298.362698 -65.195329 
L 295.595786 -67.11363 
L 292.580359 -69.031931 
L 289.482092 -70.950231 
L 286.510554 -72.868532 
L 283.896223 -74.786832 
L 281.859185 -76.705133 
L 280.574732 -78.623433 
L 280.142628 -80.541734 
L 280.566723 -82.460034 
L 281.749761 -84.378335 
L 283.505126 -86.296635 
L 285.583666 -88.214936 
L 287.710711 -90.133236 
L 289.626512 -92.051537 
L 291.123127 -93.969838 
L 292.071865 -95.888138 
L 292.437463 -97.806439 
L 292.277577 -99.724739 
L 291.728461 -101.64304 
L 290.979661 -103.56134 
L 290.241987 -105.479641 
L 289.713904 -107.397941 
L 289.551613 -109.316242 
L 289.847475 -111.234542 
L 290.619939 -113.152843 
L 291.816061 -115.071144 
L 293.325379 -116.989444 
L 295.001868 -118.907745 
L 296.689493 -120.826045 
L 298.246608 -122.744346 
L 299.565244 -124.662646 
L 300.582767 -126.580947 
L 301.285081 -128.499247 
L 301.702075 -130.417548 
L 301.897136 -132.335848 
L 301.953121 -134.254149 
L 301.957347 -136.172449 
L 301.987921 -138.09075 
L 302.103255 -140.009051 
L 302.335951 -141.927351 
L 302.691483 -143.845652 
L 303.151311 -145.763952 
L 303.679388 -147.682253 
L 304.230555 -149.600553 
L 304.759202 -151.518854 
L 305.226722 -153.437154 
L 305.606724 -155.355455 
L 305.887509 -157.273755 
L 306.071873 -159.192056 
L 306.174667 -161.110357 
L 306.218859 -163.028657 
L 306.2309 -164.946958 
L 306.23617 -166.865258 
L 306.255166 -168.783559 
L 306.300902 -170.701859 
L 306.37778 -172.62016 
L 306.481945 -174.53846 
L 306.602932 -176.456761 
L 306.726223 -178.375061 
L 306.836234 -180.293362 
L 306.919225 -182.211663 
L 306.96571 -184.129963 
L 306.972018 -186.048264 
L 306.940851 -187.966564 
L 306.880795 -189.884865 
L 306.80492 -191.803165 
L 306.728696 -193.721466 
L 306.667586 -195.639766 
L 306.63469 -197.558067 
L 306.638848 -199.476367 
L 306.683492 -201.394668 
L 306.766444 -203.312968 
L 306.880619 -205.231269 
L 307.015482 -207.14957 
L 307.158908 -209.06787 
L 307.299097 -210.986171 
L 307.426198 -212.904471 
L 307.533407 -214.822772 
L 307.61743 -216.741072 
L 307.678348 -218.659373 
L 307.719006 -220.577673 
L 307.744107 -222.495974 
L 307.759201 -224.414274 
L 307.769749 -226.332575 
L 307.78036 -228.250876 
L 307.79431 -230.169176 
L 307.813345 -232.087477 
L 307.837749 -234.005777 
L 307.866627 -235.924078 
L 307.898312 -237.842378 
L 307.930806 -239.760679 
L 307.962173 -241.678979 
L 307.990835 -243.59728 
L 308.01573 -245.51558 
L 308.036351 -247.433881 
L 308.052677 -249.352181 
L 308.091245 -249.352181 
L 308.091245 -249.352181 
L 308.091245 -247.433881 
L 308.091245 -245.51558 
L 308.091245 -243.59728 
L 308.091245 -241.678979 
L 308.091245 -239.760679 
L 308.091245 -237.842378 
L 308.091245 -235.924078 
L 308.091245 -234.005777 
L 308.091245 -232.087477 
L 308.091245 -230.169176 
L 308.091245 -228.250876 
L 308.091245 -226.332575 
L 308.091245 -224.414274 
L 308.091245 -222.495974 
L 308.091245 -220.577673 
L 308.091245 -218.659373 
L 308.091245 -216.741072 
L 308.091245 -214.822772 
L 308.091245 -212.904471 
L 308.091245 -210.986171 
L 308.091245 -209.06787 
L 308.091245 -207.14957 
L 308.091245 -205.231269 
L 308.091245 -203.312968 
L 308.091245 -201.394668 
L 308.091245 -199.476367 
L 308.091245 -197.558067 
L 308.091245 -195.639766 
L 308.091245 -193.721466 
L 308.091245 -191.803165 
L 308.091245 -189.884865 
L 308.091245 -187.966564 
L 308.091245 -186.048264 
L 308.091245 -184.129963 
L 308.091245 -182.211663 
L 308.091245 -180.293362 
L 308.091245 -178.375061 
L 308.091245 -176.456761 
L 308.091245 -174.53846 
L 308.091245 -172.62016 
L 308.091245 -170.701859 
L 308.091245 -168.783559 
L 308.091245 -166.865258 
L 308.091245 -164.946958 
L 308.091245 -163.028657 
L 308.091245 -161.110357 
L 308.091245 -159.192056 
L 308.091245 -157.273755 
L 308.091245 -155.355455 
L 308.091245 -153.437154 
L 308.091245 -151.518854 
L 308.091245 -149.600553 
L 308.091245 -147.682253 
L 308.091245 -145.763952 
L 308.091245 -143.845652 
L 308.091245 -141.927351 
L 308.091245 -140.009051 
L 308.091245 -138.09075 
L 308.091245 -136.172449 
L 308.091245 -134.254149 
L 308.091245 -132.335848 
L 308.091245 -130.417548 
L 308.091245 -128.499247 
L 308.091245 -126.580947 
L 308.091245 -124.662646 
L 308.091245 -122.744346 
L 308.091245 -120.826045 
L 308.091245 -118.907745 
L 308.091245 -116.989444 
L 308.091245 -115.071144 
L 308.091245 -113.152843 
L 308.091245 -111.234542 
L 308.091245 -109.316242 
L 308.091245 -107.397941 
L 308.091245 -105.479641 
L 308.091245 -103.56134 
L 308.091245 -101.64304 
L 308.091245 -99.724739 
L 308.091245 -97.806439 
L 308.091245 -95.888138 
L 308.091245 -93.969838 
L 308.091245 -92.051537 
L 308.091245 -90.133236 
L 308.091245 -88.214936 
L 308.091245 -86.296635 
L 308.091245 -84.378335 
L 308.091245 -82.460034 
L 308.091245 -80.541734 
L 308.091245 -78.623433 
L 308.091245 -76.705133 
L 308.091245 -74.786832 
L 308.091245 -72.868532 
L 308.091245 -70.950231 
L 308.091245 -69.031931 
L 308.091245 -67.11363 
L 308.091245 -65.195329 
L 308.091245 -63.277029 
L 308.091245 -61.358728 
L 308.091245 -59.440428 
z
" style="stroke: #4c4c4c; stroke-width: 1.5"/>
    </defs>
    <g clip-path="url(#p196e56e832)">
     <use xlink:href="#m7fc5b0d214" x="0" y="351.126562" style="fill: #5875a4; stroke: #4c4c4c; stroke-width: 1.5"/>
    </g>
   </g>
   <g id="PolyCollection_6">
    <defs>
     <path id="m161abe831a" d="M 314.021021 -60.895866 
L 308.091245 -60.895866 
L 308.091245 -63.38446 
L 308.091245 -65.873053 
L 308.091245 -68.361647 
L 308.091245 -70.850241 
L 308.091245 -73.338834 
L 308.091245 -75.827428 
L 308.091245 -78.316022 
L 308.091245 -80.804615 
L 308.091245 -83.293209 
L 308.091245 -85.781802 
L 308.091245 -88.270396 
L 308.091245 -90.75899 
L 308.091245 -93.247583 
L 308.091245 -95.736177 
L 308.091245 -98.22477 
L 308.091245 -100.713364 
L 308.091245 -103.201958 
L 308.091245 -105.690551 
L 308.091245 -108.179145 
L 308.091245 -110.667738 
L 308.091245 -113.156332 
L 308.091245 -115.644926 
L 308.091245 -118.133519 
L 308.091245 -120.622113 
L 308.091245 -123.110707 
L 308.091245 -125.5993 
L 308.091245 -128.087894 
L 308.091245 -130.576487 
L 308.091245 -133.065081 
L 308.091245 -135.553675 
L 308.091245 -138.042268 
L 308.091245 -140.530862 
L 308.091245 -143.019455 
L 308.091245 -145.508049 
L 308.091245 -147.996643 
L 308.091245 -150.485236 
L 308.091245 -152.97383 
L 308.091245 -155.462423 
L 308.091245 -157.951017 
L 308.091245 -160.439611 
L 308.091245 -162.928204 
L 308.091245 -165.416798 
L 308.091245 -167.905392 
L 308.091245 -170.393985 
L 308.091245 -172.882579 
L 308.091245 -175.371172 
L 308.091245 -177.859766 
L 308.091245 -180.34836 
L 308.091245 -182.836953 
L 308.091245 -185.325547 
L 308.091245 -187.81414 
L 308.091245 -190.302734 
L 308.091245 -192.791328 
L 308.091245 -195.279921 
L 308.091245 -197.768515 
L 308.091245 -200.257108 
L 308.091245 -202.745702 
L 308.091245 -205.234296 
L 308.091245 -207.722889 
L 308.091245 -210.211483 
L 308.091245 -212.700077 
L 308.091245 -215.18867 
L 308.091245 -217.677264 
L 308.091245 -220.165857 
L 308.091245 -222.654451 
L 308.091245 -225.143045 
L 308.091245 -227.631638 
L 308.091245 -230.120232 
L 308.091245 -232.608825 
L 308.091245 -235.097419 
L 308.091245 -237.586013 
L 308.091245 -240.074606 
L 308.091245 -242.5632 
L 308.091245 -245.051793 
L 308.091245 -247.540387 
L 308.091245 -250.028981 
L 308.091245 -252.517574 
L 308.091245 -255.006168 
L 308.091245 -257.494762 
L 308.091245 -259.983355 
L 308.091245 -262.471949 
L 308.091245 -264.960542 
L 308.091245 -267.449136 
L 308.091245 -269.93773 
L 308.091245 -272.426323 
L 308.091245 -274.914917 
L 308.091245 -277.40351 
L 308.091245 -279.892104 
L 308.091245 -282.380698 
L 308.091245 -284.869291 
L 308.091245 -287.357885 
L 308.091245 -289.846478 
L 308.091245 -292.335072 
L 308.091245 -294.823666 
L 308.091245 -297.312259 
L 308.091245 -299.800853 
L 308.091245 -302.289447 
L 308.091245 -304.77804 
L 308.091245 -307.266634 
L 308.132712 -307.266634 
L 308.132712 -307.266634 
L 308.158446 -304.77804 
L 308.193135 -302.289447 
L 308.23578 -299.800853 
L 308.283064 -297.312259 
L 308.329419 -294.823666 
L 308.367925 -292.335072 
L 308.391952 -289.846478 
L 308.397012 -287.357885 
L 308.382128 -284.869291 
L 308.350143 -282.380698 
L 308.306831 -279.892104 
L 308.2592 -277.40351 
L 308.213664 -274.914917 
L 308.174725 -272.426323 
L 308.144505 -269.93773 
L 308.123036 -267.449136 
L 308.108998 -264.960542 
L 308.100521 -262.471949 
L 308.095779 -259.983355 
L 308.093319 -257.494762 
L 308.092132 -255.006168 
L 308.0916 -252.517574 
L 308.091378 -250.028981 
L 308.091293 -247.540387 
L 308.091267 -245.051793 
L 308.091272 -242.5632 
L 308.091315 -240.074606 
L 308.091444 -237.586013 
L 308.091785 -235.097419 
L 308.092619 -232.608825 
L 308.094519 -230.120232 
L 308.098542 -227.631638 
L 308.106461 -225.143045 
L 308.120929 -222.654451 
L 308.145424 -220.165857 
L 308.183763 -217.677264 
L 308.239058 -215.18867 
L 308.312203 -212.700077 
L 308.400311 -210.211483 
L 308.495831 -207.722889 
L 308.587103 -205.234296 
L 308.660696 -202.745702 
L 308.705168 -200.257108 
L 308.715083 -197.768515 
L 308.693825 -195.279921 
L 308.653997 -192.791328 
L 308.615046 -190.302734 
L 308.598641 -187.81414 
L 308.622981 -185.325547 
L 308.697436 -182.836953 
L 308.81892 -180.34836 
L 308.971192 -177.859766 
L 309.127907 -175.371172 
L 309.259352 -172.882579 
L 309.341607 -170.393985 
L 309.365646 -167.905392 
L 309.343439 -165.416798 
L 309.308639 -162.928204 
L 309.310909 -160.439611 
L 309.404556 -157.951017 
L 309.633575 -155.462423 
L 310.01632 -152.97383 
L 310.533943 -150.485236 
L 311.127188 -147.996643 
L 311.705139 -145.508049 
L 312.166385 -143.019455 
L 312.428248 -140.530862 
L 312.45534 -138.042268 
L 312.277323 -135.553675 
L 311.98862 -133.065081 
L 311.728709 -130.576487 
L 311.647756 -128.087894 
L 311.866243 -125.5993 
L 312.438555 -123.110707 
L 313.33019 -120.622113 
L 314.41692 -118.133519 
L 315.511142 -115.644926 
L 316.414368 -113.156332 
L 316.985937 -110.667738 
L 317.209741 -108.179145 
L 317.237326 -105.690551 
L 317.389263 -103.201958 
L 318.105529 -100.713364 
L 319.846847 -98.22477 
L 322.960797 -95.736177 
L 327.539999 -93.247583 
L 333.313396 -90.75899 
L 339.61873 -88.270396 
L 345.492836 -85.781802 
L 349.880066 -83.293209 
L 351.907344 -80.804615 
L 351.132986 -78.316022 
L 347.673436 -75.827428 
L 342.156733 -73.338834 
L 335.523827 -70.850241 
L 328.760533 -68.361647 
L 322.661841 -65.873053 
L 317.701078 -63.38446 
L 314.021021 -60.895866 
z
" style="stroke: #4c4c4c; stroke-width: 1.5"/>
    </defs>
    <g clip-path="url(#p196e56e832)">
     <use xlink:href="#m161abe831a" x="0" y="351.126562" style="fill: #cc8963; stroke: #4c4c4c; stroke-width: 1.5"/>
    </g>
   </g>
   <g id="line2d_9">
    <path d="M 89.010749 270.942621 
L 89.010749 211.572731 
" clip-path="url(#p196e56e832)" style="fill: none; stroke: #4c4c4c; stroke-width: 1.5; stroke-linecap: round"/>
   </g>
   <g id="line2d_10">
    <path d="M 89.010749 270.942621 
L 89.010749 241.257676 
" clip-path="url(#p196e56e832)" style="fill: none; stroke: #4c4c4c; stroke-width: 4.5; stroke-linecap: round"/>
   </g>
   <g id="line2d_11">
    <path d="M 198.550997 270.942621 
L 198.550997 270.942621 
" clip-path="url(#p196e56e832)" style="fill: none; stroke: #4c4c4c; stroke-width: 1.5; stroke-linecap: round"/>
   </g>
   <g id="line2d_12">
    <path d="M 198.550997 270.942621 
L 198.550997 270.942621 
" clip-path="url(#p196e56e832)" style="fill: none; stroke: #4c4c4c; stroke-width: 4.5; stroke-linecap: round"/>
   </g>
   <g id="line2d_13">
    <path d="M 308.091245 270.942621 
L 308.091245 211.572731 
" clip-path="url(#p196e56e832)" style="fill: none; stroke: #4c4c4c; stroke-width: 1.5; stroke-linecap: round"/>
   </g>
   <g id="line2d_14">
    <path d="M 308.091245 270.942621 
L 308.091245 241.257676 
" clip-path="url(#p196e56e832)" style="fill: none; stroke: #4c4c4c; stroke-width: 4.5; stroke-linecap: round"/>
   </g>
   <g id="patch_5">
    <path d="M 34.240625 313.292187 
L 34.240625 20.798438 
" style="fill: none; stroke: #262626; stroke-width: 0.8; stroke-linejoin: miter; stroke-linecap: square"/>
   </g>
   <g id="patch_6">
    <path d="M 34.240625 313.292187 
L 362.861369 313.292187 
" style="fill: none; stroke: #262626; stroke-width: 0.8; stroke-linejoin: miter; stroke-linecap: square"/>
   </g>
   <g id="PathCollection_1">
    <defs>
     <path id="m3f15214c5e" d="M 0 1.5 
C 0.397805 1.5 0.77937 1.341951 1.06066 1.06066 
C 1.341951 0.77937 1.5 0.397805 1.5 0 
C 1.5 -0.397805 1.341951 -0.77937 1.06066 -1.06066 
C 0.77937 -1.341951 0.397805 -1.5 0 -1.5 
C -0.397805 -1.5 -0.77937 -1.341951 -1.06066 -1.06066 
C -1.341951 -0.77937 -1.5 -0.397805 -1.5 0 
C -1.5 0.397805 -1.341951 0.77937 -1.06066 1.06066 
C -0.77937 1.341951 -0.397805 1.5 0 1.5 
z
" style="stroke: #4c4c4c"/>
    </defs>
    <g clip-path="url(#p196e56e832)">
     <use xlink:href="#m3f15214c5e" x="89.010749" y="270.942621" style="fill: #ffffff; stroke: #4c4c4c"/>
    </g>
   </g>
   <g id="PathCollection_2">
    <g clip-path="url(#p196e56e832)">
     <use xlink:href="#m3f15214c5e" x="198.550997" y="270.942621" style="fill: #ffffff; stroke: #4c4c4c"/>
    </g>
   </g>
   <g id="PathCollection_3">
    <g clip-path="url(#p196e56e832)">
     <use xlink:href="#m3f15214c5e" x="308.091245" y="270.942621" style="fill: #ffffff; stroke: #4c4c4c"/>
    </g>
   </g>
   <g id="text_11">
    <!-- Dyn_obs = 5.0 -->
    <g style="fill: #262626" transform="translate(161.915059 14.798437)scale(0.1 -0.1)">
     <defs>
      <path id="DejaVuSans-44" d="M 1259 4147 
L 1259 519 
L 2022 519 
Q 2988 519 3436 956 
Q 3884 1394 3884 2338 
Q 3884 3275 3436 3711 
Q 2988 4147 2022 4147 
L 1259 4147 
z
M 628 4666 
L 1925 4666 
Q 3281 4666 3915 4102 
Q 4550 3538 4550 2338 
Q 4550 1131 3912 565 
Q 3275 0 1925 0 
L 628 0 
L 628 4666 
z
" transform="scale(0.015625)"/>
      <path id="DejaVuSans-79" d="M 2059 -325 
Q 1816 -950 1584 -1140 
Q 1353 -1331 966 -1331 
L 506 -1331 
L 506 -850 
L 844 -850 
Q 1081 -850 1212 -737 
Q 1344 -625 1503 -206 
L 1606 56 
L 191 3500 
L 800 3500 
L 1894 763 
L 2988 3500 
L 3597 3500 
L 2059 -325 
z
" transform="scale(0.015625)"/>
      <path id="DejaVuSans-62" d="M 3116 1747 
Q 3116 2381 2855 2742 
Q 2594 3103 2138 3103 
Q 1681 3103 1420 2742 
Q 1159 2381 1159 1747 
Q 1159 1113 1420 752 
Q 1681 391 2138 391 
Q 2594 391 2855 752 
Q 3116 1113 3116 1747 
z
M 1159 2969 
Q 1341 3281 1617 3432 
Q 1894 3584 2278 3584 
Q 2916 3584 3314 3078 
Q 3713 2572 3713 1747 
Q 3713 922 3314 415 
Q 2916 -91 2278 -91 
Q 1894 -91 1617 61 
Q 1341 213 1159 525 
L 1159 0 
L 581 0 
L 581 4863 
L 1159 4863 
L 1159 2969 
z
" transform="scale(0.015625)"/>
      <path id="DejaVuSans-20" transform="scale(0.015625)"/>
      <path id="DejaVuSans-3d" d="M 678 2906 
L 4684 2906 
L 4684 2381 
L 678 2381 
L 678 2906 
z
M 678 1631 
L 4684 1631 
L 4684 1100 
L 678 1100 
L 678 1631 
z
" transform="scale(0.015625)"/>
      <path id="DejaVuSans-2e" d="M 684 794 
L 1344 794 
L 1344 0 
L 684 0 
L 684 794 
z
" transform="scale(0.015625)"/>
     </defs>
     <use xlink:href="#DejaVuSans-44"/>
     <use xlink:href="#DejaVuSans-79" x="77.001953"/>
     <use xlink:href="#DejaVuSans-6e" x="136.181641"/>
     <use xlink:href="#DejaVuSans-5f" x="199.560547"/>
     <use xlink:href="#DejaVuSans-6f" x="249.560547"/>
     <use xlink:href="#DejaVuSans-62" x="310.742188"/>
     <use xlink:href="#DejaVuSans-73" x="374.21875"/>
     <use xlink:href="#DejaVuSans-20" x="426.318359"/>
     <use xlink:href="#DejaVuSans-3d" x="458.105469"/>
     <use xlink:href="#DejaVuSans-20" x="541.894531"/>
     <use xlink:href="#DejaVuSans-35" x="573.681641"/>
     <use xlink:href="#DejaVuSans-2e" x="637.304688"/>
     <use xlink:href="#DejaVuSans-30" x="669.091797"/>
    </g>
   </g>
  </g>
  <g id="axes_2">
   <g id="patch_7">
    <path d="M 377.172615 313.292187 
L 705.793359 313.292187 
L 705.793359 20.798437 
L 377.172615 20.798437 
z
" style="fill: #ffffff"/>
   </g>
   <g id="matplotlib.axis_3">
    <g id="xtick_4">
     <g id="line2d_15">
      <g>
       <use xlink:href="#m66716fcf4a" x="431.942739" y="313.292187" style="fill: #262626; stroke: #262626; stroke-width: 0.8"/>
      </g>
     </g>
     <g id="text_12">
      <!-- map2 -->
      <g style="fill: #262626" transform="translate(417.652896 327.890625)scale(0.1 -0.1)">
       <use xlink:href="#DejaVuSans-6d"/>
       <use xlink:href="#DejaVuSans-61" x="97.412109"/>
       <use xlink:href="#DejaVuSans-70" x="158.691406"/>
       <use xlink:href="#DejaVuSans-32" x="222.167969"/>
      </g>
     </g>
    </g>
    <g id="xtick_5">
     <g id="line2d_16">
      <g>
       <use xlink:href="#m66716fcf4a" x="541.482987" y="313.292187" style="fill: #262626; stroke: #262626; stroke-width: 0.8"/>
      </g>
     </g>
     <g id="text_13">
      <!-- map5 -->
      <g style="fill: #262626" transform="translate(527.193144 327.890625)scale(0.1 -0.1)">
       <use xlink:href="#DejaVuSans-6d"/>
       <use xlink:href="#DejaVuSans-61" x="97.412109"/>
       <use xlink:href="#DejaVuSans-70" x="158.691406"/>
       <use xlink:href="#DejaVuSans-35" x="222.167969"/>
      </g>
     </g>
    </g>
    <g id="xtick_6">
     <g id="line2d_17">
      <g>
       <use xlink:href="#m66716fcf4a" x="651.023235" y="313.292187" style="fill: #262626; stroke: #262626; stroke-width: 0.8"/>
      </g>
     </g>
     <g id="text_14">
      <!-- small_warehouse -->
      <g style="fill: #262626" transform="translate(607.955267 327.890625)scale(0.1 -0.1)">
       <use xlink:href="#DejaVuSans-73"/>
       <use xlink:href="#DejaVuSans-6d" x="52.099609"/>
       <use xlink:href="#DejaVuSans-61" x="149.511719"/>
       <use xlink:href="#DejaVuSans-6c" x="210.791016"/>
       <use xlink:href="#DejaVuSans-6c" x="238.574219"/>
       <use xlink:href="#DejaVuSans-5f" x="266.357422"/>
       <use xlink:href="#DejaVuSans-77" x="316.357422"/>
       <use xlink:href="#DejaVuSans-61" x="398.144531"/>
       <use xlink:href="#DejaVuSans-72" x="459.423828"/>
       <use xlink:href="#DejaVuSans-65" x="498.287109"/>
       <use xlink:href="#DejaVuSans-68" x="559.810547"/>
       <use xlink:href="#DejaVuSans-6f" x="623.189453"/>
       <use xlink:href="#DejaVuSans-75" x="684.371094"/>
       <use xlink:href="#DejaVuSans-73" x="747.75"/>
       <use xlink:href="#DejaVuSans-65" x="799.849609"/>
      </g>
     </g>
    </g>
    <g id="text_15">
     <!-- World -->
     <g style="fill: #262626" transform="translate(527.154862 341.846875)scale(0.1 -0.1)">
      <use xlink:href="#DejaVuSans-57"/>
      <use xlink:href="#DejaVuSans-6f" x="93.001953"/>
      <use xlink:href="#DejaVuSans-72" x="154.183594"/>
      <use xlink:href="#DejaVuSans-6c" x="195.296875"/>
      <use xlink:href="#DejaVuSans-64" x="223.080078"/>
     </g>
    </g>
   </g>
   <g id="matplotlib.axis_4">
    <g id="ytick_6">
     <g id="line2d_18">
      <g>
       <use xlink:href="#m1d63fde2aa" x="377.172615" y="270.942621" style="fill: #262626; stroke: #262626; stroke-width: 0.8"/>
      </g>
     </g>
    </g>
    <g id="ytick_7">
     <g id="line2d_19">
      <g>
       <use xlink:href="#m1d63fde2aa" x="377.172615" y="211.572731" style="fill: #262626; stroke: #262626; stroke-width: 0.8"/>
      </g>
     </g>
    </g>
    <g id="ytick_8">
     <g id="line2d_20">
      <g>
       <use xlink:href="#m1d63fde2aa" x="377.172615" y="152.20284" style="fill: #262626; stroke: #262626; stroke-width: 0.8"/>
      </g>
     </g>
    </g>
    <g id="ytick_9">
     <g id="line2d_21">
      <g>
       <use xlink:href="#m1d63fde2aa" x="377.172615" y="92.832949" style="fill: #262626; stroke: #262626; stroke-width: 0.8"/>
      </g>
     </g>
    </g>
    <g id="ytick_10">
     <g id="line2d_22">
      <g>
       <use xlink:href="#m1d63fde2aa" x="377.172615" y="33.463058" style="fill: #262626; stroke: #262626; stroke-width: 0.8"/>
      </g>
     </g>
    </g>
   </g>
   <g id="patch_8">
    <path d="M 431.942739 270.942621 
L 431.942739 270.942621 
L 431.942739 270.942621 
L 431.942739 270.942621 
z
" clip-path="url(#p610d12576d)" style="fill: #5875a4; stroke: #4c4c4c; stroke-width: 0.75; stroke-linejoin: miter"/>
   </g>
   <g id="PolyCollection_7">
    <defs>
     <path id="mfe37e96310" d="M 431.942739 -55.843498 
L 429.365362 -55.843498 
L 428.414844 -57.834463 
L 427.241018 -59.825429 
L 425.84155 -61.816395 
L 424.233567 -63.807361 
L 422.457127 -65.798327 
L 420.576155 -67.789292 
L 418.67598 -69.780258 
L 416.857092 -71.771224 
L 415.225435 -73.76219 
L 413.880281 -75.753156 
L 412.901438 -77.744121 
L 412.337877 -79.735087 
L 412.1999 -81.726053 
L 412.456478 -83.717019 
L 413.038563 -85.707985 
L 413.848109 -87.69895 
L 414.771504 -89.689916 
L 415.695275 -91.680882 
L 416.521521 -93.671848 
L 417.180563 -95.662814 
L 417.638826 -97.653779 
L 417.900828 -99.644745 
L 418.005149 -101.635711 
L 418.015319 -103.626677 
L 418.007319 -105.617643 
L 418.055928 -107.608608 
L 418.22221 -109.599574 
L 418.544126 -111.59054 
L 419.03164 -113.581506 
L 419.666826 -115.572472 
L 420.408612 -117.563437 
L 421.20104 -119.554403 
L 421.983384 -121.545369 
L 422.700289 -123.536335 
L 423.310226 -125.527301 
L 423.790981 -127.518266 
L 424.141501 -129.509232 
L 424.380101 -131.500198 
L 424.539626 -133.491164 
L 424.660647 -135.48213 
L 424.783983 -137.473095 
L 424.943865 -139.464061 
L 425.162824 -141.455027 
L 425.449018 -143.445993 
L 425.796224 -145.436959 
L 426.186271 -147.427924 
L 426.593278 -149.41889 
L 426.988819 -151.409856 
L 427.347059 -153.400822 
L 427.648994 -155.391788 
L 427.88516 -157.382753 
L 428.056491 -159.373719 
L 428.173361 -161.364685 
L 428.253118 -163.355651 
L 428.316677 -165.346617 
L 428.384822 -167.337582 
L 428.474848 -169.328548 
L 428.598104 -171.319514 
L 428.758722 -173.31048 
L 428.953666 -175.301446 
L 429.173945 -177.292411 
L 429.406666 -179.283377 
L 429.637516 -181.274343 
L 429.853189 -183.265309 
L 430.043382 -185.256274 
L 430.202064 -187.24724 
L 430.327896 -189.238206 
L 430.423835 -191.229172 
L 430.496082 -193.220138 
L 430.552628 -195.211103 
L 430.601693 -197.202069 
L 430.650323 -199.193035 
L 430.703372 -201.184001 
L 430.762983 -203.174967 
L 430.828616 -205.165932 
L 430.897537 -207.156898 
L 430.965653 -209.147864 
L 431.028497 -211.13883 
L 431.082196 -213.129796 
L 431.124235 -215.120761 
L 431.15392 -217.111727 
L 431.172487 -219.102693 
L 431.182858 -221.093659 
L 431.189127 -223.084625 
L 431.195877 -225.07559 
L 431.207463 -227.066556 
L 431.227377 -229.057522 
L 431.257801 -231.048488 
L 431.299388 -233.039454 
L 431.351304 -235.030419 
L 431.411471 -237.021385 
L 431.476975 -239.012351 
L 431.544521 -241.003317 
L 431.610888 -242.994283 
L 431.673292 -244.985248 
L 431.729629 -246.976214 
L 431.778582 -248.96718 
L 431.819601 -250.958146 
L 431.852795 -252.949112 
L 431.942739 -252.949112 
L 431.942739 -252.949112 
L 431.942739 -250.958146 
L 431.942739 -248.96718 
L 431.942739 -246.976214 
L 431.942739 -244.985248 
L 431.942739 -242.994283 
L 431.942739 -241.003317 
L 431.942739 -239.012351 
L 431.942739 -237.021385 
L 431.942739 -235.030419 
L 431.942739 -233.039454 
L 431.942739 -231.048488 
L 431.942739 -229.057522 
L 431.942739 -227.066556 
L 431.942739 -225.07559 
L 431.942739 -223.084625 
L 431.942739 -221.093659 
L 431.942739 -219.102693 
L 431.942739 -217.111727 
L 431.942739 -215.120761 
L 431.942739 -213.129796 
L 431.942739 -211.13883 
L 431.942739 -209.147864 
L 431.942739 -207.156898 
L 431.942739 -205.165932 
L 431.942739 -203.174967 
L 431.942739 -201.184001 
L 431.942739 -199.193035 
L 431.942739 -197.202069 
L 431.942739 -195.211103 
L 431.942739 -193.220138 
L 431.942739 -191.229172 
L 431.942739 -189.238206 
L 431.942739 -187.24724 
L 431.942739 -185.256274 
L 431.942739 -183.265309 
L 431.942739 -181.274343 
L 431.942739 -179.283377 
L 431.942739 -177.292411 
L 431.942739 -175.301446 
L 431.942739 -173.31048 
L 431.942739 -171.319514 
L 431.942739 -169.328548 
L 431.942739 -167.337582 
L 431.942739 -165.346617 
L 431.942739 -163.355651 
L 431.942739 -161.364685 
L 431.942739 -159.373719 
L 431.942739 -157.382753 
L 431.942739 -155.391788 
L 431.942739 -153.400822 
L 431.942739 -151.409856 
L 431.942739 -149.41889 
L 431.942739 -147.427924 
L 431.942739 -145.436959 
L 431.942739 -143.445993 
L 431.942739 -141.455027 
L 431.942739 -139.464061 
L 431.942739 -137.473095 
L 431.942739 -135.48213 
L 431.942739 -133.491164 
L 431.942739 -131.500198 
L 431.942739 -129.509232 
L 431.942739 -127.518266 
L 431.942739 -125.527301 
L 431.942739 -123.536335 
L 431.942739 -121.545369 
L 431.942739 -119.554403 
L 431.942739 -117.563437 
L 431.942739 -115.572472 
L 431.942739 -113.581506 
L 431.942739 -111.59054 
L 431.942739 -109.599574 
L 431.942739 -107.608608 
L 431.942739 -105.617643 
L 431.942739 -103.626677 
L 431.942739 -101.635711 
L 431.942739 -99.644745 
L 431.942739 -97.653779 
L 431.942739 -95.662814 
L 431.942739 -93.671848 
L 431.942739 -91.680882 
L 431.942739 -89.689916 
L 431.942739 -87.69895 
L 431.942739 -85.707985 
L 431.942739 -83.717019 
L 431.942739 -81.726053 
L 431.942739 -79.735087 
L 431.942739 -77.744121 
L 431.942739 -75.753156 
L 431.942739 -73.76219 
L 431.942739 -71.771224 
L 431.942739 -69.780258 
L 431.942739 -67.789292 
L 431.942739 -65.798327 
L 431.942739 -63.807361 
L 431.942739 -61.816395 
L 431.942739 -59.825429 
L 431.942739 -57.834463 
L 431.942739 -55.843498 
z
" style="stroke: #4c4c4c; stroke-width: 1.5"/>
    </defs>
    <g clip-path="url(#p610d12576d)">
     <use xlink:href="#mfe37e96310" x="0" y="351.126562" style="fill: #5875a4; stroke: #4c4c4c; stroke-width: 1.5"/>
    </g>
   </g>
   <g id="patch_9">
    <path d="M 431.942739 270.942621 
L 431.942739 270.942621 
L 431.942739 270.942621 
L 431.942739 270.942621 
z
" clip-path="url(#p610d12576d)" style="fill: #cc8963; stroke: #4c4c4c; stroke-width: 0.75; stroke-linejoin: miter"/>
   </g>
   <g id="PolyCollection_8">
    <defs>
     <path id="m10f65420b5" d="M 437.891751 -62.776215 
L 431.942739 -62.776215 
L 431.942739 -64.627126 
L 431.942739 -66.478037 
L 431.942739 -68.328948 
L 431.942739 -70.179858 
L 431.942739 -72.030769 
L 431.942739 -73.88168 
L 431.942739 -75.732591 
L 431.942739 -77.583502 
L 431.942739 -79.434413 
L 431.942739 -81.285324 
L 431.942739 -83.136235 
L 431.942739 -84.987146 
L 431.942739 -86.838057 
L 431.942739 -88.688967 
L 431.942739 -90.539878 
L 431.942739 -92.390789 
L 431.942739 -94.2417 
L 431.942739 -96.092611 
L 431.942739 -97.943522 
L 431.942739 -99.794433 
L 431.942739 -101.645344 
L 431.942739 -103.496255 
L 431.942739 -105.347166 
L 431.942739 -107.198077 
L 431.942739 -109.048987 
L 431.942739 -110.899898 
L 431.942739 -112.750809 
L 431.942739 -114.60172 
L 431.942739 -116.452631 
L 431.942739 -118.303542 
L 431.942739 -120.154453 
L 431.942739 -122.005364 
L 431.942739 -123.856275 
L 431.942739 -125.707186 
L 431.942739 -127.558097 
L 431.942739 -129.409007 
L 431.942739 -131.259918 
L 431.942739 -133.110829 
L 431.942739 -134.96174 
L 431.942739 -136.812651 
L 431.942739 -138.663562 
L 431.942739 -140.514473 
L 431.942739 -142.365384 
L 431.942739 -144.216295 
L 431.942739 -146.067206 
L 431.942739 -147.918116 
L 431.942739 -149.769027 
L 431.942739 -151.619938 
L 431.942739 -153.470849 
L 431.942739 -155.32176 
L 431.942739 -157.172671 
L 431.942739 -159.023582 
L 431.942739 -160.874493 
L 431.942739 -162.725404 
L 431.942739 -164.576315 
L 431.942739 -166.427226 
L 431.942739 -168.278136 
L 431.942739 -170.129047 
L 431.942739 -171.979958 
L 431.942739 -173.830869 
L 431.942739 -175.68178 
L 431.942739 -177.532691 
L 431.942739 -179.383602 
L 431.942739 -181.234513 
L 431.942739 -183.085424 
L 431.942739 -184.936335 
L 431.942739 -186.787245 
L 431.942739 -188.638156 
L 431.942739 -190.489067 
L 431.942739 -192.339978 
L 431.942739 -194.190889 
L 431.942739 -196.0418 
L 431.942739 -197.892711 
L 431.942739 -199.743622 
L 431.942739 -201.594533 
L 431.942739 -203.445444 
L 431.942739 -205.296355 
L 431.942739 -207.147265 
L 431.942739 -208.998176 
L 431.942739 -210.849087 
L 431.942739 -212.699998 
L 431.942739 -214.550909 
L 431.942739 -216.40182 
L 431.942739 -218.252731 
L 431.942739 -220.103642 
L 431.942739 -221.954553 
L 431.942739 -223.805464 
L 431.942739 -225.656375 
L 431.942739 -227.507285 
L 431.942739 -229.358196 
L 431.942739 -231.209107 
L 431.942739 -233.060018 
L 431.942739 -234.910929 
L 431.942739 -236.76184 
L 431.942739 -238.612751 
L 431.942739 -240.463662 
L 431.942739 -242.314573 
L 431.942739 -244.165484 
L 431.942739 -246.016394 
L 431.984634 -246.016394 
L 431.984634 -246.016394 
L 432.005408 -244.165484 
L 432.032339 -242.314573 
L 432.065181 -240.463662 
L 432.102668 -238.612751 
L 432.142409 -236.76184 
L 432.181035 -234.910929 
L 432.214635 -233.060018 
L 432.239424 -231.209107 
L 432.252524 -229.358196 
L 432.252649 -227.507285 
L 432.240533 -225.656375 
L 432.218981 -223.805464 
L 432.192537 -221.954553 
L 432.166845 -220.103642 
L 432.147851 -218.252731 
L 432.140963 -216.40182 
L 432.150277 -214.550909 
L 432.177917 -212.699998 
L 432.223538 -210.849087 
L 432.284076 -208.998176 
L 432.353836 -207.147265 
L 432.425039 -205.296355 
L 432.488856 -203.445444 
L 432.53682 -201.594533 
L 432.562383 -199.743622 
L 432.562259 -197.892711 
L 432.537221 -196.0418 
L 432.492148 -194.190889 
L 432.435303 -192.339978 
L 432.377038 -190.489067 
L 432.32821 -188.638156 
L 432.298607 -186.787245 
L 432.295578 -184.936335 
L 432.322989 -183.085424 
L 432.380538 -181.234513 
L 432.463502 -179.383602 
L 432.563031 -177.532691 
L 432.667102 -175.68178 
L 432.76219 -173.830869 
L 432.835524 -171.979958 
L 432.877592 -170.129047 
L 432.884405 -168.278136 
L 432.859043 -166.427226 
L 432.812116 -164.576315 
L 432.761057 -162.725404 
L 432.728343 -160.874493 
L 432.738873 -159.023582 
L 432.816699 -157.172671 
L 432.981286 -155.32176 
L 433.243535 -153.470849 
L 433.602009 -151.619938 
L 434.040169 -149.769027 
L 434.525678 -147.918116 
L 435.012755 -146.067206 
L 435.448031 -144.216295 
L 435.779373 -142.365384 
L 435.966099 -140.514473 
L 435.988287 -138.663562 
L 435.852871 -136.812651 
L 435.59498 -134.96174 
L 435.274232 -133.110829 
L 434.966844 -131.259918 
L 434.755174 -129.409007 
L 434.71629 -127.558097 
L 434.910762 -125.707186 
L 435.372492 -123.856275 
L 436.100417 -122.005364 
L 437.053443 -120.154453 
L 438.150525 -118.303542 
L 439.277844 -116.452631 
L 440.304043 -114.60172 
L 441.102424 -112.750809 
L 441.576689 -110.899898 
L 441.68509 -109.048987 
L 441.457654 -107.198077 
L 441.002607 -105.347166 
L 440.500556 -103.496255 
L 440.187281 -101.645344 
L 440.327131 -99.794433 
L 441.17905 -97.943522 
L 442.956831 -96.092611 
L 445.785921 -94.2417 
L 449.661505 -92.390789 
L 454.416401 -90.539878 
L 459.710234 -88.688967 
L 465.050823 -86.838057 
L 469.852913 -84.987146 
L 473.528782 -83.136235 
L 475.593437 -81.285324 
L 475.758839 -79.434413 
L 473.991413 -77.583502 
L 470.516089 -75.732591 
L 465.765573 -73.88168 
L 460.289683 -72.030769 
L 454.650238 -70.179858 
L 449.328589 -68.328948 
L 444.665591 -66.478037 
L 440.841596 -64.627126 
L 437.891751 -62.776215 
z
" style="stroke: #4c4c4c; stroke-width: 1.5"/>
    </defs>
    <g clip-path="url(#p610d12576d)">
     <use xlink:href="#m10f65420b5" x="0" y="351.126562" style="fill: #cc8963; stroke: #4c4c4c; stroke-width: 1.5"/>
    </g>
   </g>
   <g id="PolyCollection_9">
    <defs>
     <path id="mcbb1e1c228" d="M 541.482987 -56.979595 
L 538.774119 -56.979595 
L 537.733706 -58.947609 
L 536.440409 -60.915623 
L 534.892409 -62.883638 
L 533.111663 -64.851652 
L 531.147847 -66.819666 
L 529.07876 -68.787681 
L 527.006059 -70.755695 
L 525.045948 -72.72371 
L 523.315431 -74.691724 
L 521.915846 -76.659738 
L 520.91631 -78.627753 
L 520.340137 -80.595767 
L 520.157181 -82.563781 
L 520.284217 -84.531796 
L 520.594159 -86.49981 
L 520.933309 -88.467824 
L 521.14428 -90.435839 
L 521.091053 -92.403853 
L 520.682042 -94.371867 
L 519.887175 -96.339882 
L 518.74585 -98.307896 
L 517.364058 -100.27591 
L 515.90075 -102.243925 
L 514.545408 -104.211939 
L 513.490331 -106.179953 
L 512.902202 -108.147968 
L 512.897656 -110.115982 
L 513.526909 -112.083996 
L 514.768022 -114.052011 
L 516.532391 -116.020025 
L 518.680044 -117.988039 
L 521.041602 -119.956054 
L 523.442811 -121.924068 
L 525.727417 -123.892082 
L 527.774867 -125.860097 
L 529.510599 -127.828111 
L 530.908214 -129.796125 
L 531.984306 -131.76414 
L 532.787791 -133.732154 
L 533.386236 -135.700168 
L 533.851767 -137.668183 
L 534.248815 -139.636197 
L 534.625322 -141.604211 
L 535.008257 -143.572226 
L 535.403479 -145.54024 
L 535.799311 -147.508254 
L 536.172713 -149.476269 
L 536.496658 -151.444283 
L 536.747318 -153.412297 
L 536.909863 -155.380312 
L 536.982022 -157.348326 
L 536.975007 -159.31634 
L 536.911857 -161.284355 
L 536.823677 -163.252369 
L 536.744559 -165.220384 
L 536.706134 -167.188398 
L 536.732714 -169.156412 
L 536.837829 -171.124427 
L 537.022679 -173.092441 
L 537.276656 -175.060455 
L 537.579737 -177.02847 
L 537.906213 -178.996484 
L 538.229047 -180.964498 
L 538.524087 -182.932513 
L 538.773454 -184.900527 
L 538.967616 -186.868541 
L 539.105953 -188.836556 
L 539.195846 -190.80457 
L 539.250589 -192.772584 
L 539.28658 -194.740599 
L 539.320314 -196.708613 
L 539.365676 -198.676627 
L 539.431951 -200.644642 
L 539.522807 -202.612656 
L 539.636307 -204.58067 
L 539.765868 -206.548685 
L 539.90189 -208.516699 
L 540.033738 -210.484713 
L 540.151703 -212.452728 
L 540.248616 -214.420742 
L 540.320893 -216.388756 
L 540.368884 -218.356771 
L 540.39655 -220.324785 
L 540.410576 -222.292799 
L 540.419124 -224.260814 
L 540.430464 -226.228828 
L 540.451717 -228.196842 
L 540.487903 -230.164857 
L 540.541407 -232.132871 
L 540.611914 -234.100885 
L 540.696764 -236.0689 
L 540.791601 -238.036914 
L 540.891192 -240.004928 
L 540.990234 -241.972943 
L 541.084035 -243.940957 
L 541.168988 -245.908971 
L 541.242784 -247.876986 
L 541.304411 -249.845 
L 541.353976 -251.813015 
L 541.482987 -251.813015 
L 541.482987 -251.813015 
L 541.482987 -249.845 
L 541.482987 -247.876986 
L 541.482987 -245.908971 
L 541.482987 -243.940957 
L 541.482987 -241.972943 
L 541.482987 -240.004928 
L 541.482987 -238.036914 
L 541.482987 -236.0689 
L 541.482987 -234.100885 
L 541.482987 -232.132871 
L 541.482987 -230.164857 
L 541.482987 -228.196842 
L 541.482987 -226.228828 
L 541.482987 -224.260814 
L 541.482987 -222.292799 
L 541.482987 -220.324785 
L 541.482987 -218.356771 
L 541.482987 -216.388756 
L 541.482987 -214.420742 
L 541.482987 -212.452728 
L 541.482987 -210.484713 
L 541.482987 -208.516699 
L 541.482987 -206.548685 
L 541.482987 -204.58067 
L 541.482987 -202.612656 
L 541.482987 -200.644642 
L 541.482987 -198.676627 
L 541.482987 -196.708613 
L 541.482987 -194.740599 
L 541.482987 -192.772584 
L 541.482987 -190.80457 
L 541.482987 -188.836556 
L 541.482987 -186.868541 
L 541.482987 -184.900527 
L 541.482987 -182.932513 
L 541.482987 -180.964498 
L 541.482987 -178.996484 
L 541.482987 -177.02847 
L 541.482987 -175.060455 
L 541.482987 -173.092441 
L 541.482987 -171.124427 
L 541.482987 -169.156412 
L 541.482987 -167.188398 
L 541.482987 -165.220384 
L 541.482987 -163.252369 
L 541.482987 -161.284355 
L 541.482987 -159.31634 
L 541.482987 -157.348326 
L 541.482987 -155.380312 
L 541.482987 -153.412297 
L 541.482987 -151.444283 
L 541.482987 -149.476269 
L 541.482987 -147.508254 
L 541.482987 -145.54024 
L 541.482987 -143.572226 
L 541.482987 -141.604211 
L 541.482987 -139.636197 
L 541.482987 -137.668183 
L 541.482987 -135.700168 
L 541.482987 -133.732154 
L 541.482987 -131.76414 
L 541.482987 -129.796125 
L 541.482987 -127.828111 
L 541.482987 -125.860097 
L 541.482987 -123.892082 
L 541.482987 -121.924068 
L 541.482987 -119.956054 
L 541.482987 -117.988039 
L 541.482987 -116.020025 
L 541.482987 -114.052011 
L 541.482987 -112.083996 
L 541.482987 -110.115982 
L 541.482987 -108.147968 
L 541.482987 -106.179953 
L 541.482987 -104.211939 
L 541.482987 -102.243925 
L 541.482987 -100.27591 
L 541.482987 -98.307896 
L 541.482987 -96.339882 
L 541.482987 -94.371867 
L 541.482987 -92.403853 
L 541.482987 -90.435839 
L 541.482987 -88.467824 
L 541.482987 -86.49981 
L 541.482987 -84.531796 
L 541.482987 -82.563781 
L 541.482987 -80.595767 
L 541.482987 -78.627753 
L 541.482987 -76.659738 
L 541.482987 -74.691724 
L 541.482987 -72.72371 
L 541.482987 -70.755695 
L 541.482987 -68.787681 
L 541.482987 -66.819666 
L 541.482987 -64.851652 
L 541.482987 -62.883638 
L 541.482987 -60.915623 
L 541.482987 -58.947609 
L 541.482987 -56.979595 
z
" style="stroke: #4c4c4c; stroke-width: 1.5"/>
    </defs>
    <g clip-path="url(#p610d12576d)">
     <use xlink:href="#mcbb1e1c228" x="0" y="351.126562" style="fill: #5875a4; stroke: #4c4c4c; stroke-width: 1.5"/>
    </g>
   </g>
   <g id="PolyCollection_10">
    <defs>
     <path id="maecf7ce972" d="M 547.389923 -58.738653 
L 541.482987 -58.738653 
L 541.482987 -60.970979 
L 541.482987 -63.203305 
L 541.482987 -65.435631 
L 541.482987 -67.667956 
L 541.482987 -69.900282 
L 541.482987 -72.132608 
L 541.482987 -74.364934 
L 541.482987 -76.597259 
L 541.482987 -78.829585 
L 541.482987 -81.061911 
L 541.482987 -83.294237 
L 541.482987 -85.526562 
L 541.482987 -87.758888 
L 541.482987 -89.991214 
L 541.482987 -92.223539 
L 541.482987 -94.455865 
L 541.482987 -96.688191 
L 541.482987 -98.920517 
L 541.482987 -101.152842 
L 541.482987 -103.385168 
L 541.482987 -105.617494 
L 541.482987 -107.84982 
L 541.482987 -110.082145 
L 541.482987 -112.314471 
L 541.482987 -114.546797 
L 541.482987 -116.779123 
L 541.482987 -119.011448 
L 541.482987 -121.243774 
L 541.482987 -123.4761 
L 541.482987 -125.708426 
L 541.482987 -127.940751 
L 541.482987 -130.173077 
L 541.482987 -132.405403 
L 541.482987 -134.637728 
L 541.482987 -136.870054 
L 541.482987 -139.10238 
L 541.482987 -141.334706 
L 541.482987 -143.567031 
L 541.482987 -145.799357 
L 541.482987 -148.031683 
L 541.482987 -150.264009 
L 541.482987 -152.496334 
L 541.482987 -154.72866 
L 541.482987 -156.960986 
L 541.482987 -159.193312 
L 541.482987 -161.425637 
L 541.482987 -163.657963 
L 541.482987 -165.890289 
L 541.482987 -168.122614 
L 541.482987 -170.35494 
L 541.482987 -172.587266 
L 541.482987 -174.819592 
L 541.482987 -177.051917 
L 541.482987 -179.284243 
L 541.482987 -181.516569 
L 541.482987 -183.748895 
L 541.482987 -185.98122 
L 541.482987 -188.213546 
L 541.482987 -190.445872 
L 541.482987 -192.678198 
L 541.482987 -194.910523 
L 541.482987 -197.142849 
L 541.482987 -199.375175 
L 541.482987 -201.6075 
L 541.482987 -203.839826 
L 541.482987 -206.072152 
L 541.482987 -208.304478 
L 541.482987 -210.536803 
L 541.482987 -212.769129 
L 541.482987 -215.001455 
L 541.482987 -217.233781 
L 541.482987 -219.466106 
L 541.482987 -221.698432 
L 541.482987 -223.930758 
L 541.482987 -226.163084 
L 541.482987 -228.395409 
L 541.482987 -230.627735 
L 541.482987 -232.860061 
L 541.482987 -235.092386 
L 541.482987 -237.324712 
L 541.482987 -239.557038 
L 541.482987 -241.789364 
L 541.482987 -244.021689 
L 541.482987 -246.254015 
L 541.482987 -248.486341 
L 541.482987 -250.718667 
L 541.482987 -252.950992 
L 541.482987 -255.183318 
L 541.482987 -257.415644 
L 541.482987 -259.64797 
L 541.482987 -261.880295 
L 541.482987 -264.112621 
L 541.482987 -266.344947 
L 541.482987 -268.577272 
L 541.482987 -270.809598 
L 541.482987 -273.041924 
L 541.482987 -275.27425 
L 541.482987 -277.506575 
L 541.482987 -279.738901 
L 541.529498 -279.738901 
L 541.529498 -279.738901 
L 541.552006 -277.506575 
L 541.581063 -275.27425 
L 541.616442 -273.041924 
L 541.65688 -270.809598 
L 541.699961 -268.577272 
L 541.742231 -266.344947 
L 541.779598 -264.112621 
L 541.807956 -261.880295 
L 541.823924 -259.64797 
L 541.825505 -257.415644 
L 541.812498 -255.183318 
L 541.786541 -252.950992 
L 541.750773 -250.718667 
L 541.709214 -248.486341 
L 541.666036 -246.254015 
L 541.62491 -244.021689 
L 541.588574 -241.789364 
L 541.558698 -239.557038 
L 541.536024 -237.324712 
L 541.520712 -235.092386 
L 541.5128 -232.860061 
L 541.512678 -230.627735 
L 541.521493 -228.395409 
L 541.541405 -226.163084 
L 541.575616 -223.930758 
L 541.628091 -221.698432 
L 541.702903 -219.466106 
L 541.803219 -217.233781 
L 541.930032 -215.001455 
L 542.08091 -212.769129 
L 542.249144 -210.536803 
L 542.423709 -208.304478 
L 542.590328 -206.072152 
L 542.733695 -203.839826 
L 542.840525 -201.6075 
L 542.902779 -199.375175 
L 542.920236 -197.142849 
L 542.901622 -194.910523 
L 542.863803 -192.678198 
L 542.829014 -190.445872 
L 542.82058 -188.213546 
L 542.857967 -185.98122 
L 542.952248 -183.748895 
L 543.10305 -181.516569 
L 543.29782 -179.284243 
L 543.513868 -177.051917 
L 543.723037 -174.819592 
L 543.898253 -172.587266 
L 544.020638 -170.35494 
L 544.085548 -168.122614 
L 544.105953 -165.890289 
L 544.112 -163.657963 
L 544.146381 -161.425637 
L 544.256033 -159.193312 
L 544.481604 -156.960986 
L 544.846781 -154.72866 
L 545.349934 -152.496334 
L 545.960386 -150.264009 
L 546.620939 -148.031683 
L 547.257077 -145.799357 
L 547.791654 -143.567031 
L 548.162271 -141.334706 
L 548.3374 -139.10238 
L 548.327137 -136.870054 
L 548.185358 -134.637728 
L 548.0019 -132.405403 
L 547.885762 -130.173077 
L 547.942457 -127.940751 
L 548.250248 -125.708426 
L 548.840595 -123.4761 
L 549.687719 -121.243774 
L 550.710803 -119.011448 
L 551.789969 -116.779123 
L 552.794263 -114.546797 
L 553.616772 -112.314471 
L 554.20948 -110.082145 
L 554.60933 -107.84982 
L 554.947666 -105.617494 
L 555.437874 -103.385168 
L 556.340263 -101.152842 
L 557.908222 -98.920517 
L 560.324639 -96.688191 
L 563.641481 -94.455865 
L 567.737255 -92.223539 
L 572.305787 -89.991214 
L 576.884539 -87.758888 
L 580.921915 -85.526562 
L 583.872396 -83.294237 
L 585.299087 -81.061911 
L 584.958922 -78.829585 
L 582.848826 -76.597259 
L 579.201145 -74.364934 
L 574.430812 -72.132608 
L 569.049837 -69.900282 
L 563.572424 -67.667956 
L 558.433889 -65.435631 
L 553.939508 -63.203305 
L 550.248719 -60.970979 
L 547.389923 -58.738653 
z
" style="stroke: #4c4c4c; stroke-width: 1.5"/>
    </defs>
    <g clip-path="url(#p610d12576d)">
     <use xlink:href="#maecf7ce972" x="0" y="351.126562" style="fill: #cc8963; stroke: #4c4c4c; stroke-width: 1.5"/>
    </g>
   </g>
   <g id="PolyCollection_11">
    <defs>
     <path id="m601710c3a0" d="M 651.023235 -51.129545 
L 648.046481 -51.129545 
L 646.784355 -53.815438 
L 645.187853 -56.501331 
L 643.255964 -59.187225 
L 641.024355 -61.873118 
L 638.570435 -64.559011 
L 636.011533 -67.244904 
L 633.494608 -69.930797 
L 631.177896 -72.61669 
L 629.207134 -75.302583 
L 627.691088 -77.988476 
L 626.68213 -80.674369 
L 626.167093 -83.360262 
L 626.071501 -86.046155 
L 626.27698 -88.732048 
L 626.648041 -91.417941 
L 627.061782 -94.103834 
L 627.433 -96.789727 
L 627.728407 -99.47562 
L 627.966622 -102.161513 
L 628.204601 -104.847406 
L 628.514899 -107.533299 
L 628.960579 -110.219192 
L 629.574939 -112.905085 
L 630.351452 -115.590978 
L 631.24611 -118.276871 
L 632.190594 -120.962764 
L 633.111677 -123.648657 
L 633.950738 -126.33455 
L 634.677701 -129.020443 
L 635.295736 -131.706336 
L 635.836097 -134.392229 
L 636.345428 -137.078122 
L 636.869879 -139.764015 
L 637.441014 -142.449908 
L 638.06748 -145.135801 
L 638.7344 -147.821694 
L 639.409951 -150.507587 
L 640.056506 -153.19348 
L 640.642588 -155.879373 
L 641.151967 -158.565266 
L 641.587439 -161.251159 
L 641.968609 -163.937052 
L 642.324886 -166.622945 
L 642.686179 -169.308838 
L 643.074267 -171.994731 
L 643.497329 -174.680624 
L 643.948928 -177.366517 
L 644.411327 -180.05241 
L 644.861735 -182.738303 
L 645.279362 -185.424197 
L 645.651152 -188.11009 
L 645.974665 -190.795983 
L 646.257601 -193.481876 
L 646.514474 -196.167769 
L 646.761724 -198.853662 
L 647.012869 -201.539555 
L 647.275085 -204.225448 
L 647.548018 -206.911341 
L 647.824898 -209.597234 
L 648.095327 -212.283127 
L 648.348747 -214.96902 
L 648.577481 -217.654913 
L 648.778567 -220.340806 
L 648.954004 -223.026699 
L 649.109594 -225.712592 
L 649.252881 -228.398485 
L 649.390915 -231.084378 
L 649.528481 -233.770271 
L 649.667216 -236.456164 
L 649.805704 -239.142057 
L 649.940368 -241.82795 
L 650.06677 -244.513843 
L 650.180889 -247.199736 
L 650.280043 -249.885629 
L 650.363266 -252.571522 
L 650.431167 -255.257415 
L 650.485417 -257.943308 
L 650.528114 -260.629201 
L 650.561236 -263.315094 
L 650.586353 -266.000987 
L 650.604613 -268.68688 
L 650.616961 -271.372773 
L 650.624447 -274.058666 
L 650.628496 -276.744559 
L 650.631003 -279.430452 
L 650.634225 -282.116345 
L 650.640497 -284.802238 
L 650.651833 -287.488131 
L 650.669568 -290.174024 
L 650.694096 -292.859917 
L 650.724817 -295.54581 
L 650.760261 -298.231703 
L 650.798382 -300.917596 
L 650.836918 -303.603489 
L 650.873747 -306.289382 
L 650.907172 -308.975275 
L 650.936071 -311.661169 
L 650.959934 -314.347062 
L 650.97879 -317.032955 
L 651.023235 -317.032955 
L 651.023235 -317.032955 
L 651.023235 -314.347062 
L 651.023235 -311.661169 
L 651.023235 -308.975275 
L 651.023235 -306.289382 
L 651.023235 -303.603489 
L 651.023235 -300.917596 
L 651.023235 -298.231703 
L 651.023235 -295.54581 
L 651.023235 -292.859917 
L 651.023235 -290.174024 
L 651.023235 -287.488131 
L 651.023235 -284.802238 
L 651.023235 -282.116345 
L 651.023235 -279.430452 
L 651.023235 -276.744559 
L 651.023235 -274.058666 
L 651.023235 -271.372773 
L 651.023235 -268.68688 
L 651.023235 -266.000987 
L 651.023235 -263.315094 
L 651.023235 -260.629201 
L 651.023235 -257.943308 
L 651.023235 -255.257415 
L 651.023235 -252.571522 
L 651.023235 -249.885629 
L 651.023235 -247.199736 
L 651.023235 -244.513843 
L 651.023235 -241.82795 
L 651.023235 -239.142057 
L 651.023235 -236.456164 
L 651.023235 -233.770271 
L 651.023235 -231.084378 
L 651.023235 -228.398485 
L 651.023235 -225.712592 
L 651.023235 -223.026699 
L 651.023235 -220.340806 
L 651.023235 -217.654913 
L 651.023235 -214.96902 
L 651.023235 -212.283127 
L 651.023235 -209.597234 
L 651.023235 -206.911341 
L 651.023235 -204.225448 
L 651.023235 -201.539555 
L 651.023235 -198.853662 
L 651.023235 -196.167769 
L 651.023235 -193.481876 
L 651.023235 -190.795983 
L 651.023235 -188.11009 
L 651.023235 -185.424197 
L 651.023235 -182.738303 
L 651.023235 -180.05241 
L 651.023235 -177.366517 
L 651.023235 -174.680624 
L 651.023235 -171.994731 
L 651.023235 -169.308838 
L 651.023235 -166.622945 
L 651.023235 -163.937052 
L 651.023235 -161.251159 
L 651.023235 -158.565266 
L 651.023235 -155.879373 
L 651.023235 -153.19348 
L 651.023235 -150.507587 
L 651.023235 -147.821694 
L 651.023235 -145.135801 
L 651.023235 -142.449908 
L 651.023235 -139.764015 
L 651.023235 -137.078122 
L 651.023235 -134.392229 
L 651.023235 -131.706336 
L 651.023235 -129.020443 
L 651.023235 -126.33455 
L 651.023235 -123.648657 
L 651.023235 -120.962764 
L 651.023235 -118.276871 
L 651.023235 -115.590978 
L 651.023235 -112.905085 
L 651.023235 -110.219192 
L 651.023235 -107.533299 
L 651.023235 -104.847406 
L 651.023235 -102.161513 
L 651.023235 -99.47562 
L 651.023235 -96.789727 
L 651.023235 -94.103834 
L 651.023235 -91.417941 
L 651.023235 -88.732048 
L 651.023235 -86.046155 
L 651.023235 -83.360262 
L 651.023235 -80.674369 
L 651.023235 -77.988476 
L 651.023235 -75.302583 
L 651.023235 -72.61669 
L 651.023235 -69.930797 
L 651.023235 -67.244904 
L 651.023235 -64.559011 
L 651.023235 -61.873118 
L 651.023235 -59.187225 
L 651.023235 -56.501331 
L 651.023235 -53.815438 
L 651.023235 -51.129545 
z
" style="stroke: #4c4c4c; stroke-width: 1.5"/>
    </defs>
    <g clip-path="url(#p610d12576d)">
     <use xlink:href="#m601710c3a0" x="0" y="351.126562" style="fill: #5875a4; stroke: #4c4c4c; stroke-width: 1.5"/>
    </g>
   </g>
   <g id="PolyCollection_12">
    <defs>
     <path id="m7f90ac5c28" d="M 656.825371 -55.081863 
L 651.023235 -55.081863 
L 651.023235 -57.088216 
L 651.023235 -59.094568 
L 651.023235 -61.10092 
L 651.023235 -63.107273 
L 651.023235 -65.113625 
L 651.023235 -67.119977 
L 651.023235 -69.12633 
L 651.023235 -71.132682 
L 651.023235 -73.139034 
L 651.023235 -75.145387 
L 651.023235 -77.151739 
L 651.023235 -79.158092 
L 651.023235 -81.164444 
L 651.023235 -83.170796 
L 651.023235 -85.177149 
L 651.023235 -87.183501 
L 651.023235 -89.189853 
L 651.023235 -91.196206 
L 651.023235 -93.202558 
L 651.023235 -95.20891 
L 651.023235 -97.215263 
L 651.023235 -99.221615 
L 651.023235 -101.227967 
L 651.023235 -103.23432 
L 651.023235 -105.240672 
L 651.023235 -107.247024 
L 651.023235 -109.253377 
L 651.023235 -111.259729 
L 651.023235 -113.266081 
L 651.023235 -115.272434 
L 651.023235 -117.278786 
L 651.023235 -119.285139 
L 651.023235 -121.291491 
L 651.023235 -123.297843 
L 651.023235 -125.304196 
L 651.023235 -127.310548 
L 651.023235 -129.3169 
L 651.023235 -131.323253 
L 651.023235 -133.329605 
L 651.023235 -135.335957 
L 651.023235 -137.34231 
L 651.023235 -139.348662 
L 651.023235 -141.355014 
L 651.023235 -143.361367 
L 651.023235 -145.367719 
L 651.023235 -147.374071 
L 651.023235 -149.380424 
L 651.023235 -151.386776 
L 651.023235 -153.393128 
L 651.023235 -155.399481 
L 651.023235 -157.405833 
L 651.023235 -159.412186 
L 651.023235 -161.418538 
L 651.023235 -163.42489 
L 651.023235 -165.431243 
L 651.023235 -167.437595 
L 651.023235 -169.443947 
L 651.023235 -171.4503 
L 651.023235 -173.456652 
L 651.023235 -175.463004 
L 651.023235 -177.469357 
L 651.023235 -179.475709 
L 651.023235 -181.482061 
L 651.023235 -183.488414 
L 651.023235 -185.494766 
L 651.023235 -187.501118 
L 651.023235 -189.507471 
L 651.023235 -191.513823 
L 651.023235 -193.520175 
L 651.023235 -195.526528 
L 651.023235 -197.53288 
L 651.023235 -199.539233 
L 651.023235 -201.545585 
L 651.023235 -203.551937 
L 651.023235 -205.55829 
L 651.023235 -207.564642 
L 651.023235 -209.570994 
L 651.023235 -211.577347 
L 651.023235 -213.583699 
L 651.023235 -215.590051 
L 651.023235 -217.596404 
L 651.023235 -219.602756 
L 651.023235 -221.609108 
L 651.023235 -223.615461 
L 651.023235 -225.621813 
L 651.023235 -227.628165 
L 651.023235 -229.634518 
L 651.023235 -231.64087 
L 651.023235 -233.647222 
L 651.023235 -235.653575 
L 651.023235 -237.659927 
L 651.023235 -239.66628 
L 651.023235 -241.672632 
L 651.023235 -243.678984 
L 651.023235 -245.685337 
L 651.023235 -247.691689 
L 651.023235 -249.698041 
L 651.023235 -251.704394 
L 651.023235 -253.710746 
L 651.228748 -253.710746 
L 651.228748 -253.710746 
L 651.302683 -251.704394 
L 651.393691 -249.698041 
L 651.502067 -247.691689 
L 651.626751 -245.685337 
L 651.7651 -243.678984 
L 651.912836 -241.672632 
L 652.064234 -239.66628 
L 652.212576 -237.659927 
L 652.350855 -235.653575 
L 652.472655 -233.647222 
L 652.573078 -231.64087 
L 652.649572 -229.634518 
L 652.702494 -227.628165 
L 652.735265 -225.621813 
L 652.754057 -223.615461 
L 652.767 -221.609108 
L 652.783007 -219.602756 
L 652.810389 -217.596404 
L 652.855492 -215.590051 
L 652.921585 -213.583699 
L 653.008221 -211.577347 
L 653.111221 -209.570994 
L 653.223302 -207.564642 
L 653.335305 -205.55829 
L 653.437806 -203.551937 
L 653.522865 -201.545585 
L 653.585591 -199.539233 
L 653.625231 -197.53288 
L 653.64556 -195.526528 
L 653.654468 -193.520175 
L 653.662768 -191.513823 
L 653.682417 -189.507471 
L 653.724439 -187.501118 
L 653.796934 -185.494766 
L 653.90354 -183.488414 
L 654.042666 -181.482061 
L 654.207704 -179.475709 
L 654.388234 -177.469357 
L 654.57207 -175.463004 
L 654.747815 -173.456652 
L 654.907478 -171.4503 
L 655.04865 -169.443947 
L 655.175772 -167.437595 
L 655.30016 -165.431243 
L 655.438666 -163.42489 
L 655.611071 -161.418538 
L 655.83659 -159.412186 
L 656.130055 -157.405833 
L 656.498473 -155.399481 
L 656.938647 -153.393128 
L 657.436446 -151.386776 
L 657.968043 -149.380424 
L 658.50311 -147.374071 
L 659.009581 -145.367719 
L 659.459276 -143.361367 
L 659.833402 -141.355014 
L 660.126918 -139.348662 
L 660.35081 -137.34231 
L 660.53168 -135.335957 
L 660.708455 -133.329605 
L 660.926587 -131.323253 
L 661.230615 -129.3169 
L 661.65634 -127.310548 
L 662.224084 -125.304196 
L 662.934441 -123.297843 
L 663.767566 -121.291491 
L 664.686537 -119.285139 
L 665.644547 -117.278786 
L 666.594949 -115.272434 
L 667.5025 -113.266081 
L 668.353714 -111.259729 
L 669.164134 -109.253377 
L 669.980637 -107.247024 
L 670.877612 -105.240672 
L 671.946799 -103.23432 
L 673.281807 -101.227967 
L 674.959393 -99.221615 
L 677.020473 -97.215263 
L 679.454236 -95.20891 
L 682.188577 -93.202558 
L 685.08922 -91.196206 
L 687.968644 -89.189853 
L 690.604205 -87.183501 
L 692.763198 -85.177149 
L 694.231205 -83.170796 
L 694.839335 -81.164444 
L 694.485996 -79.158092 
L 693.149738 -77.151739 
L 690.891257 -75.145387 
L 687.844562 -73.139034 
L 684.199155 -71.132682 
L 680.176488 -69.12633 
L 676.004645 -67.119977 
L 671.895107 -65.113625 
L 668.02465 -63.107273 
L 664.524166 -61.10092 
L 661.474786 -59.094568 
L 658.91047 -57.088216 
L 656.825371 -55.081863 
z
" style="stroke: #4c4c4c; stroke-width: 1.5"/>
    </defs>
    <g clip-path="url(#p610d12576d)">
     <use xlink:href="#m7f90ac5c28" x="0" y="351.126562" style="fill: #cc8963; stroke: #4c4c4c; stroke-width: 1.5"/>
    </g>
   </g>
   <g id="line2d_23">
    <path d="M 431.942739 270.942621 
L 431.942739 211.572731 
" clip-path="url(#p610d12576d)" style="fill: none; stroke: #4c4c4c; stroke-width: 1.5; stroke-linecap: round"/>
   </g>
   <g id="line2d_24">
    <path d="M 431.942739 270.942621 
L 431.942739 241.257676 
" clip-path="url(#p610d12576d)" style="fill: none; stroke: #4c4c4c; stroke-width: 4.5; stroke-linecap: round"/>
   </g>
   <g id="line2d_25">
    <path d="M 541.482987 270.942621 
L 541.482987 211.572731 
" clip-path="url(#p610d12576d)" style="fill: none; stroke: #4c4c4c; stroke-width: 1.5; stroke-linecap: round"/>
   </g>
   <g id="line2d_26">
    <path d="M 541.482987 270.942621 
L 541.482987 241.257676 
" clip-path="url(#p610d12576d)" style="fill: none; stroke: #4c4c4c; stroke-width: 4.5; stroke-linecap: round"/>
   </g>
   <g id="line2d_27">
    <path d="M 651.023235 270.942621 
L 651.023235 122.517894 
" clip-path="url(#p610d12576d)" style="fill: none; stroke: #4c4c4c; stroke-width: 1.5; stroke-linecap: round"/>
   </g>
   <g id="line2d_28">
    <path d="M 651.023235 270.942621 
L 651.023235 211.572731 
" clip-path="url(#p610d12576d)" style="fill: none; stroke: #4c4c4c; stroke-width: 4.5; stroke-linecap: round"/>
   </g>
   <g id="patch_10">
    <path d="M 377.172615 313.292187 
L 377.172615 20.798438 
" style="fill: none; stroke: #262626; stroke-width: 0.8; stroke-linejoin: miter; stroke-linecap: square"/>
   </g>
   <g id="patch_11">
    <path d="M 377.172615 313.292187 
L 705.793359 313.292187 
" style="fill: none; stroke: #262626; stroke-width: 0.8; stroke-linejoin: miter; stroke-linecap: square"/>
   </g>
   <g id="PathCollection_4">
    <g clip-path="url(#p610d12576d)">
     <use xlink:href="#m3f15214c5e" x="431.942739" y="270.942621" style="fill: #ffffff; stroke: #4c4c4c"/>
    </g>
   </g>
   <g id="PathCollection_5">
    <g clip-path="url(#p610d12576d)">
     <use xlink:href="#m3f15214c5e" x="541.482987" y="241.257676" style="fill: #ffffff; stroke: #4c4c4c"/>
    </g>
   </g>
   <g id="PathCollection_6">
    <g clip-path="url(#p610d12576d)">
     <use xlink:href="#m3f15214c5e" x="651.023235" y="241.257676" style="fill: #ffffff; stroke: #4c4c4c"/>
    </g>
   </g>
   <g id="text_16">
    <!-- Dyn_obs = 10.0 -->
    <g style="fill: #262626" transform="translate(501.6658 14.798437)scale(0.1 -0.1)">
     <defs>
      <path id="DejaVuSans-31" d="M 794 531 
L 1825 531 
L 1825 4091 
L 703 3866 
L 703 4441 
L 1819 4666 
L 2450 4666 
L 2450 531 
L 3481 531 
L 3481 0 
L 794 0 
L 794 531 
z
" transform="scale(0.015625)"/>
     </defs>
     <use xlink:href="#DejaVuSans-44"/>
     <use xlink:href="#DejaVuSans-79" x="77.001953"/>
     <use xlink:href="#DejaVuSans-6e" x="136.181641"/>
     <use xlink:href="#DejaVuSans-5f" x="199.560547"/>
     <use xlink:href="#DejaVuSans-6f" x="249.560547"/>
     <use xlink:href="#DejaVuSans-62" x="310.742188"/>
     <use xlink:href="#DejaVuSans-73" x="374.21875"/>
     <use xlink:href="#DejaVuSans-20" x="426.318359"/>
     <use xlink:href="#DejaVuSans-3d" x="458.105469"/>
     <use xlink:href="#DejaVuSans-20" x="541.894531"/>
     <use xlink:href="#DejaVuSans-31" x="573.681641"/>
     <use xlink:href="#DejaVuSans-30" x="637.304688"/>
     <use xlink:href="#DejaVuSans-2e" x="700.927734"/>
     <use xlink:href="#DejaVuSans-30" x="732.714844"/>
    </g>
   </g>
  </g>
  <g id="legend_1">
   <g id="text_17">
    <!-- dim -->
    <g style="fill: #262626" transform="translate(725.641797 163.644531)scale(0.1 -0.1)">
     <use xlink:href="#DejaVuSans-64"/>
     <use xlink:href="#DejaVuSans-69" x="63.476562"/>
     <use xlink:href="#DejaVuSans-6d" x="91.259766"/>
    </g>
   </g>
   <g id="patch_12">
    <path d="M 714.719922 178.322656 
L 734.719922 178.322656 
L 734.719922 171.322656 
L 714.719922 171.322656 
z
" style="fill: #5875a4; stroke: #4c4c4c; stroke-width: 0.75; stroke-linejoin: miter"/>
   </g>
   <g id="text_18">
    <!-- 2d -->
    <g style="fill: #262626" transform="translate(742.719922 178.322656)scale(0.1 -0.1)">
     <use xlink:href="#DejaVuSans-32"/>
     <use xlink:href="#DejaVuSans-64" x="63.623047"/>
    </g>
   </g>
   <g id="patch_13">
    <path d="M 714.719922 193.000781 
L 734.719922 193.000781 
L 734.719922 186.000781 
L 714.719922 186.000781 
z
" style="fill: #cc8963; stroke: #4c4c4c; stroke-width: 0.75; stroke-linejoin: miter"/>
   </g>
   <g id="text_19">
    <!-- 3d -->
    <g style="fill: #262626" transform="translate(742.719922 193.000781)scale(0.1 -0.1)">
     <defs>
      <path id="DejaVuSans-33" d="M 2597 2516 
Q 3050 2419 3304 2112 
Q 3559 1806 3559 1356 
Q 3559 666 3084 287 
Q 2609 -91 1734 -91 
Q 1441 -91 1130 -33 
Q 819 25 488 141 
L 488 750 
Q 750 597 1062 519 
Q 1375 441 1716 441 
Q 2309 441 2620 675 
Q 2931 909 2931 1356 
Q 2931 1769 2642 2001 
Q 2353 2234 1838 2234 
L 1294 2234 
L 1294 2753 
L 1863 2753 
Q 2328 2753 2575 2939 
Q 2822 3125 2822 3475 
Q 2822 3834 2567 4026 
Q 2313 4219 1838 4219 
Q 1578 4219 1281 4162 
Q 984 4106 628 3988 
L 628 4550 
Q 988 4650 1302 4700 
Q 1616 4750 1894 4750 
Q 2613 4750 3031 4423 
Q 3450 4097 3450 3541 
Q 3450 3153 3228 2886 
Q 3006 2619 2597 2516 
z
" transform="scale(0.015625)"/>
     </defs>
     <use xlink:href="#DejaVuSans-33"/>
     <use xlink:href="#DejaVuSans-64" x="63.623047"/>
    </g>
   </g>
  </g>
 </g>
 <defs>
  <clipPath id="p196e56e832">
   <rect x="34.240625" y="20.798437" width="328.620744" height="292.49375"/>
  </clipPath>
  <clipPath id="p610d12576d">
   <rect x="377.172615" y="20.798437" width="328.620744" height="292.49375"/>
  </clipPath>
 </defs>
</svg>
