<?xml version="1.0" encoding="utf-8" standalone="no"?>
<!DOCTYPE svg PUBLIC "-//W3C//DTD SVG 1.1//EN"
  "http://www.w3.org/Graphics/SVG/1.1/DTD/svg11.dtd">
<svg xmlns:xlink="http://www.w3.org/1999/xlink" width="401.095247pt" height="352.15625pt" viewBox="0 0 401.095247 352.15625" xmlns="http://www.w3.org/2000/svg" version="1.1">
 <metadata>
  <rdf:RDF xmlns:dc="http://purl.org/dc/elements/1.1/" xmlns:cc="http://creativecommons.org/ns#" xmlns:rdf="http://www.w3.org/1999/02/22-rdf-syntax-ns#">
   <cc:Work>
    <dc:type rdf:resource="http://purl.org/dc/dcmitype/StillImage"/>
    <dc:date>2022-03-25T10:19:03.378390</dc:date>
    <dc:format>image/svg+xml</dc:format>
    <dc:creator>
     <cc:Agent>
      <dc:title>Matplotlib v3.5.1, https://matplotlib.org/</dc:title>
     </cc:Agent>
    </dc:creator>
   </cc:Work>
  </rdf:RDF>
 </metadata>
 <defs>
  <style type="text/css">*{stroke-linejoin: round; stroke-linecap: butt}</style>
 </defs>
 <g id="figure_1">
  <g id="patch_1">
   <path d="M 0 352.15625 
L 401.095247 352.15625 
L 401.095247 0 
L 0 0 
L 0 352.15625 
z
" style="fill: none"/>
  </g>
  <g id="axes_1">
   <g id="patch_2">
    <path d="M 34.51875 314.6 
L 346.057747 314.6 
L 346.057747 7.2 
L 34.51875 7.2 
z
" style="fill: #ffffff"/>
   </g>
   <g id="patch_3">
    <path d="M 86.441916 285.094149 
L 86.441916 285.094149 
L 86.441916 285.094149 
L 86.441916 285.094149 
z
" clip-path="url(#pfadfa18247)" style="fill: #3274a1; stroke: #3f3f3f; stroke-width: 0.75; stroke-linejoin: miter"/>
   </g>
   <g id="PolyCollection_1">
    <defs>
     <path id="mad77f7dff5" d="M 86.441916 -67.168189 
L 85.619719 -67.168189 
L 84.862212 -68.370591 
L 83.593767 -69.572993 
L 81.621076 -70.775395 
L 78.776788 -71.977797 
L 74.983595 -73.180199 
L 70.319171 -74.382601 
L 65.053261 -75.585004 
L 59.629282 -76.787406 
L 54.580123 -77.989808 
L 50.396847 -79.19221 
L 47.395521 -80.394612 
L 45.635314 -81.597014 
L 44.923089 -82.799416 
L 44.903383 -84.001818 
L 45.196424 -85.20422 
L 45.528752 -86.406623 
L 45.808528 -87.609025 
L 46.124156 -88.811427 
L 46.676428 -90.013829 
L 47.677125 -91.216231 
L 49.254217 -92.418633 
L 51.395828 -93.621035 
L 53.947846 -94.823437 
L 56.660501 -96.025839 
L 59.263816 -97.228242 
L 61.544553 -98.430644 
L 63.399237 -99.633046 
L 64.847927 -100.835448 
L 66.007913 -102.03785 
L 67.040482 -103.240252 
L 68.092118 -104.442654 
L 69.250991 -105.645056 
L 70.53082 -106.847458 
L 71.881981 -108.049861 
L 73.219672 -109.252263 
L 74.455415 -110.454665 
L 75.520962 -111.657067 
L 76.379914 -112.859469 
L 77.027995 -114.061871 
L 77.485909 -115.264273 
L 77.789035 -116.466675 
L 77.97739 -117.669078 
L 78.088249 -118.87148 
L 78.152993 -120.073882 
L 78.198397 -121.276284 
L 78.250817 -122.478686 
L 78.340045 -123.681088 
L 78.499381 -124.88349 
L 78.760343 -126.085892 
L 79.143662 -127.288294 
L 79.650888 -128.490697 
L 80.261197 -129.693099 
L 80.935606 -130.895501 
L 81.627042 -132.097903 
L 82.292031 -133.300305 
L 82.899383 -134.502707 
L 83.433278 -135.705109 
L 83.891017 -136.907511 
L 84.277844 -138.109913 
L 84.601855 -139.312316 
L 84.871011 -140.514718 
L 85.092669 -141.71712 
L 85.274607 -142.919522 
L 85.425978 -144.121924 
L 85.557022 -145.324326 
L 85.677381 -146.526728 
L 85.79388 -147.72913 
L 85.908992 -148.931532 
L 86.020835 -150.133935 
L 86.124715 -151.336337 
L 86.215416 -152.538739 
L 86.289239 -153.741141 
L 86.345042 -154.943543 
L 86.384167 -156.145945 
L 86.409601 -157.348347 
L 86.424912 -158.550749 
L 86.43338 -159.753151 
L 86.437505 -160.955554 
L 86.438843 -162.157956 
L 86.438033 -163.360358 
L 86.434891 -164.56276 
L 86.428522 -165.765162 
L 86.41749 -166.967564 
L 86.400133 -168.169966 
L 86.375119 -169.372368 
L 86.342181 -170.57477 
L 86.302851 -171.777173 
L 86.260841 -172.979575 
L 86.221741 -174.181977 
L 86.191912 -175.384379 
L 86.176824 -176.586781 
L 86.179424 -177.789183 
L 86.199197 -178.991585 
L 86.232331 -180.193987 
L 86.272915 -181.396389 
L 86.314658 -182.598792 
L 86.352431 -183.801194 
L 86.383156 -185.003596 
L 86.405884 -186.205998 
L 86.441916 -186.205998 
L 86.441916 -186.205998 
L 86.441916 -185.003596 
L 86.441916 -183.801194 
L 86.441916 -182.598792 
L 86.441916 -181.396389 
L 86.441916 -180.193987 
L 86.441916 -178.991585 
L 86.441916 -177.789183 
L 86.441916 -176.586781 
L 86.441916 -175.384379 
L 86.441916 -174.181977 
L 86.441916 -172.979575 
L 86.441916 -171.777173 
L 86.441916 -170.57477 
L 86.441916 -169.372368 
L 86.441916 -168.169966 
L 86.441916 -166.967564 
L 86.441916 -165.765162 
L 86.441916 -164.56276 
L 86.441916 -163.360358 
L 86.441916 -162.157956 
L 86.441916 -160.955554 
L 86.441916 -159.753151 
L 86.441916 -158.550749 
L 86.441916 -157.348347 
L 86.441916 -156.145945 
L 86.441916 -154.943543 
L 86.441916 -153.741141 
L 86.441916 -152.538739 
L 86.441916 -151.336337 
L 86.441916 -150.133935 
L 86.441916 -148.931532 
L 86.441916 -147.72913 
L 86.441916 -146.526728 
L 86.441916 -145.324326 
L 86.441916 -144.121924 
L 86.441916 -142.919522 
L 86.441916 -141.71712 
L 86.441916 -140.514718 
L 86.441916 -139.312316 
L 86.441916 -138.109913 
L 86.441916 -136.907511 
L 86.441916 -135.705109 
L 86.441916 -134.502707 
L 86.441916 -133.300305 
L 86.441916 -132.097903 
L 86.441916 -130.895501 
L 86.441916 -129.693099 
L 86.441916 -128.490697 
L 86.441916 -127.288294 
L 86.441916 -126.085892 
L 86.441916 -124.88349 
L 86.441916 -123.681088 
L 86.441916 -122.478686 
L 86.441916 -121.276284 
L 86.441916 -120.073882 
L 86.441916 -118.87148 
L 86.441916 -117.669078 
L 86.441916 -116.466675 
L 86.441916 -115.264273 
L 86.441916 -114.061871 
L 86.441916 -112.859469 
L 86.441916 -111.657067 
L 86.441916 -110.454665 
L 86.441916 -109.252263 
L 86.441916 -108.049861 
L 86.441916 -106.847458 
L 86.441916 -105.645056 
L 86.441916 -104.442654 
L 86.441916 -103.240252 
L 86.441916 -102.03785 
L 86.441916 -100.835448 
L 86.441916 -99.633046 
L 86.441916 -98.430644 
L 86.441916 -97.228242 
L 86.441916 -96.025839 
L 86.441916 -94.823437 
L 86.441916 -93.621035 
L 86.441916 -92.418633 
L 86.441916 -91.216231 
L 86.441916 -90.013829 
L 86.441916 -88.811427 
L 86.441916 -87.609025 
L 86.441916 -86.406623 
L 86.441916 -85.20422 
L 86.441916 -84.001818 
L 86.441916 -82.799416 
L 86.441916 -81.597014 
L 86.441916 -80.394612 
L 86.441916 -79.19221 
L 86.441916 -77.989808 
L 86.441916 -76.787406 
L 86.441916 -75.585004 
L 86.441916 -74.382601 
L 86.441916 -73.180199 
L 86.441916 -71.977797 
L 86.441916 -70.775395 
L 86.441916 -69.572993 
L 86.441916 -68.370591 
L 86.441916 -67.168189 
z
" style="stroke: #3f3f3f; stroke-width: 1.5"/>
    </defs>
    <g clip-path="url(#pfadfa18247)">
     <use xlink:href="#mad77f7dff5" x="0" y="352.15625" style="fill: #3274a1; stroke: #3f3f3f; stroke-width: 1.5"/>
    </g>
   </g>
   <g id="patch_4">
    <path d="M 86.441916 285.094149 
L 86.441916 285.094149 
L 86.441916 285.094149 
L 86.441916 285.094149 
z
" clip-path="url(#pfadfa18247)" style="fill: #e1812c; stroke: #3f3f3f; stroke-width: 0.75; stroke-linejoin: miter"/>
   </g>
   <g id="PolyCollection_2">
    <defs>
     <path id="m0e7598bb05" d="M 87.155546 -57.771415 
L 86.441916 -57.771415 
L 86.441916 -60.531134 
L 86.441916 -63.290852 
L 86.441916 -66.05057 
L 86.441916 -68.810288 
L 86.441916 -71.570007 
L 86.441916 -74.329725 
L 86.441916 -77.089443 
L 86.441916 -79.849161 
L 86.441916 -82.60888 
L 86.441916 -85.368598 
L 86.441916 -88.128316 
L 86.441916 -90.888034 
L 86.441916 -93.647753 
L 86.441916 -96.407471 
L 86.441916 -99.167189 
L 86.441916 -101.926907 
L 86.441916 -104.686626 
L 86.441916 -107.446344 
L 86.441916 -110.206062 
L 86.441916 -112.965781 
L 86.441916 -115.725499 
L 86.441916 -118.485217 
L 86.441916 -121.244935 
L 86.441916 -124.004654 
L 86.441916 -126.764372 
L 86.441916 -129.52409 
L 86.441916 -132.283808 
L 86.441916 -135.043527 
L 86.441916 -137.803245 
L 86.441916 -140.562963 
L 86.441916 -143.322681 
L 86.441916 -146.0824 
L 86.441916 -148.842118 
L 86.441916 -151.601836 
L 86.441916 -154.361554 
L 86.441916 -157.121273 
L 86.441916 -159.880991 
L 86.441916 -162.640709 
L 86.441916 -165.400427 
L 86.441916 -168.160146 
L 86.441916 -170.919864 
L 86.441916 -173.679582 
L 86.441916 -176.4393 
L 86.441916 -179.199019 
L 86.441916 -181.958737 
L 86.441916 -184.718455 
L 86.441916 -187.478173 
L 86.441916 -190.237892 
L 86.441916 -192.99761 
L 86.441916 -195.757328 
L 86.441916 -198.517046 
L 86.441916 -201.276765 
L 86.441916 -204.036483 
L 86.441916 -206.796201 
L 86.441916 -209.555919 
L 86.441916 -212.315638 
L 86.441916 -215.075356 
L 86.441916 -217.835074 
L 86.441916 -220.594792 
L 86.441916 -223.354511 
L 86.441916 -226.114229 
L 86.441916 -228.873947 
L 86.441916 -231.633666 
L 86.441916 -234.393384 
L 86.441916 -237.153102 
L 86.441916 -239.91282 
L 86.441916 -242.672539 
L 86.441916 -245.432257 
L 86.441916 -248.191975 
L 86.441916 -250.951693 
L 86.441916 -253.711412 
L 86.441916 -256.47113 
L 86.441916 -259.230848 
L 86.441916 -261.990566 
L 86.441916 -264.750285 
L 86.441916 -267.510003 
L 86.441916 -270.269721 
L 86.441916 -273.029439 
L 86.441916 -275.789158 
L 86.441916 -278.548876 
L 86.441916 -281.308594 
L 86.441916 -284.068312 
L 86.441916 -286.828031 
L 86.441916 -289.587749 
L 86.441916 -292.347467 
L 86.441916 -295.107185 
L 86.441916 -297.866904 
L 86.441916 -300.626622 
L 86.441916 -303.38634 
L 86.441916 -306.146058 
L 86.441916 -308.905777 
L 86.441916 -311.665495 
L 86.441916 -314.425213 
L 86.441916 -317.184931 
L 86.441916 -319.94465 
L 86.441916 -322.704368 
L 86.441916 -325.464086 
L 86.441916 -328.223804 
L 86.441916 -330.983523 
L 86.461014 -330.983523 
L 86.461014 -330.983523 
L 86.47625 -328.223804 
L 86.497782 -325.464086 
L 86.524299 -322.704368 
L 86.552301 -319.94465 
L 86.576995 -317.184931 
L 86.594358 -314.425213 
L 86.603403 -311.665495 
L 86.607154 -308.905777 
L 86.611445 -306.146058 
L 86.622015 -303.38634 
L 86.641599 -300.626622 
L 86.668661 -297.866904 
L 86.698343 -295.107185 
L 86.724724 -292.347467 
L 86.74292 -289.587749 
L 86.750021 -286.828031 
L 86.744885 -284.068312 
L 86.727555 -281.308594 
L 86.699052 -278.548876 
L 86.661703 -275.789158 
L 86.61951 -273.029439 
L 86.57796 -270.269721 
L 86.543044 -267.510003 
L 86.519853 -264.750285 
L 86.511269 -261.990566 
L 86.517117 -259.230848 
L 86.533926 -256.47113 
L 86.555435 -253.711412 
L 86.574039 -250.951693 
L 86.583035 -248.191975 
L 86.57887 -245.432257 
L 86.562281 -242.672539 
L 86.537646 -239.91282 
L 86.510927 -237.153102 
L 86.487412 -234.393384 
L 86.470438 -231.633666 
L 86.461482 -228.873947 
L 86.461164 -226.114229 
L 86.470288 -223.354511 
L 86.49023 -220.594792 
L 86.522436 -217.835074 
L 86.567376 -215.075356 
L 86.623642 -212.315638 
L 86.687896 -209.555919 
L 86.755883 -206.796201 
L 86.823987 -204.036483 
L 86.890242 -201.276765 
L 86.953998 -198.517046 
L 87.014277 -195.757328 
L 87.067955 -192.99761 
L 87.109237 -190.237892 
L 87.131212 -187.478173 
L 87.128941 -184.718455 
L 87.102447 -181.958737 
L 87.057995 -179.199019 
L 87.007158 -176.4393 
L 86.964458 -173.679582 
L 86.944897 -170.919864 
L 86.962318 -168.160146 
L 87.0288 -165.400427 
L 87.154725 -162.640709 
L 87.348782 -159.880991 
L 87.616875 -157.121273 
L 87.959085 -154.361554 
L 88.365136 -151.601836 
L 88.810843 -148.842118 
L 89.259323 -146.0824 
L 89.669432 -143.322681 
L 90.009881 -140.562963 
L 90.27324 -137.803245 
L 90.482879 -135.043527 
L 90.689537 -132.283808 
L 90.960056 -129.52409 
L 91.364402 -126.764372 
L 91.9658 -124.004654 
L 92.814634 -121.244935 
L 93.944234 -118.485217 
L 95.367959 -115.725499 
L 97.080071 -112.965781 
L 99.063616 -110.206062 
L 101.304709 -107.446344 
L 103.805626 -104.686626 
L 106.583131 -101.926907 
L 109.63867 -99.167189 
L 112.898068 -96.407471 
L 116.140176 -93.647753 
L 118.957221 -90.888034 
L 120.795493 -88.128316 
L 121.096903 -85.368598 
L 119.50388 -82.60888 
L 116.035553 -79.849161 
L 111.136209 -77.089443 
L 105.555343 -74.329725 
L 100.110234 -71.570007 
L 95.444827 -68.810288 
L 91.890401 -66.05057 
L 89.465592 -63.290852 
L 87.978162 -60.531134 
L 87.155546 -57.771415 
z
" style="stroke: #3f3f3f; stroke-width: 1.5"/>
    </defs>
    <g clip-path="url(#pfadfa18247)">
     <use xlink:href="#m0e7598bb05" x="0" y="352.15625" style="fill: #e1812c; stroke: #3f3f3f; stroke-width: 1.5"/>
    </g>
   </g>
   <g id="PolyCollection_3">
    <defs>
     <path id="m14cf257672" d="M 190.288249 -51.528977 
L 189.926092 -51.528977 
L 189.65836 -53.635949 
L 189.242708 -55.742921 
L 188.631304 -57.849893 
L 187.779993 -59.956864 
L 186.659383 -62.063836 
L 185.267367 -64.170808 
L 183.639882 -66.27778 
L 181.856084 -68.384751 
L 180.034808 -70.491723 
L 178.321198 -72.598695 
L 176.865338 -74.705667 
L 175.797388 -76.812638 
L 175.20524 -78.91961 
L 175.120185 -81.026582 
L 175.513912 -83.133553 
L 176.306931 -85.240525 
L 177.385586 -87.347497 
L 178.62299 -89.454469 
L 179.898968 -91.56144 
L 181.115153 -93.668412 
L 182.20326 -95.775384 
L 183.12648 -97.882356 
L 183.875447 -99.989327 
L 184.460997 -102.096299 
L 184.906011 -104.203271 
L 185.238139 -106.310243 
L 185.484446 -108.417214 
L 185.668277 -110.524186 
L 185.808066 -112.631158 
L 185.917498 -114.73813 
L 186.006417 -116.845101 
L 186.081965 -118.952073 
L 186.149609 -121.059045 
L 186.213934 -123.166017 
L 186.279123 -125.272988 
L 186.349163 -127.37996 
L 186.427811 -129.486932 
L 186.518365 -131.593904 
L 186.623331 -133.700875 
L 186.744083 -135.807847 
L 186.880663 -137.914819 
L 187.031788 -140.021791 
L 187.195096 -142.128762 
L 187.367539 -144.235734 
L 187.545803 -146.342706 
L 187.726632 -148.449678 
L 187.907025 -150.556649 
L 188.084348 -152.663621 
L 188.25645 -154.770593 
L 188.421819 -156.877565 
L 188.579747 -158.984536 
L 188.730385 -161.091508 
L 188.874594 -163.19848 
L 189.013567 -165.305452 
L 189.148312 -167.412423 
L 189.279176 -169.519395 
L 189.405592 -171.626367 
L 189.526124 -173.733339 
L 189.638779 -175.84031 
L 189.741449 -177.947282 
L 189.832318 -180.054254 
L 189.910124 -182.161226 
L 189.974246 -184.268197 
L 190.024651 -186.375169 
L 190.061785 -188.482141 
L 190.086477 -190.589113 
L 190.099886 -192.696084 
L 190.103506 -194.803056 
L 190.099203 -196.910028 
L 190.089259 -199.017 
L 190.07634 -201.123971 
L 190.06336 -203.230943 
L 190.053169 -205.337915 
L 190.048119 -207.444887 
L 190.049571 -209.551858 
L 190.057524 -211.65883 
L 190.070495 -213.765802 
L 190.085768 -215.872774 
L 190.099973 -217.979745 
L 190.109862 -220.086717 
L 190.113081 -222.193689 
L 190.108722 -224.300661 
L 190.097538 -226.407632 
L 190.081767 -228.514604 
L 190.064656 -230.621576 
L 190.049798 -232.728548 
L 190.040453 -234.835519 
L 190.038982 -236.942491 
L 190.046487 -239.049463 
L 190.062717 -241.156435 
L 190.086211 -243.263406 
L 190.114651 -245.370378 
L 190.145327 -247.47735 
L 190.175609 -249.584322 
L 190.203343 -251.691293 
L 190.22709 -253.798265 
L 190.246184 -255.905237 
L 190.260645 -258.012209 
L 190.270977 -260.11918 
L 190.288249 -260.11918 
L 190.288249 -260.11918 
L 190.288249 -258.012209 
L 190.288249 -255.905237 
L 190.288249 -253.798265 
L 190.288249 -251.691293 
L 190.288249 -249.584322 
L 190.288249 -247.47735 
L 190.288249 -245.370378 
L 190.288249 -243.263406 
L 190.288249 -241.156435 
L 190.288249 -239.049463 
L 190.288249 -236.942491 
L 190.288249 -234.835519 
L 190.288249 -232.728548 
L 190.288249 -230.621576 
L 190.288249 -228.514604 
L 190.288249 -226.407632 
L 190.288249 -224.300661 
L 190.288249 -222.193689 
L 190.288249 -220.086717 
L 190.288249 -217.979745 
L 190.288249 -215.872774 
L 190.288249 -213.765802 
L 190.288249 -211.65883 
L 190.288249 -209.551858 
L 190.288249 -207.444887 
L 190.288249 -205.337915 
L 190.288249 -203.230943 
L 190.288249 -201.123971 
L 190.288249 -199.017 
L 190.288249 -196.910028 
L 190.288249 -194.803056 
L 190.288249 -192.696084 
L 190.288249 -190.589113 
L 190.288249 -188.482141 
L 190.288249 -186.375169 
L 190.288249 -184.268197 
L 190.288249 -182.161226 
L 190.288249 -180.054254 
L 190.288249 -177.947282 
L 190.288249 -175.84031 
L 190.288249 -173.733339 
L 190.288249 -171.626367 
L 190.288249 -169.519395 
L 190.288249 -167.412423 
L 190.288249 -165.305452 
L 190.288249 -163.19848 
L 190.288249 -161.091508 
L 190.288249 -158.984536 
L 190.288249 -156.877565 
L 190.288249 -154.770593 
L 190.288249 -152.663621 
L 190.288249 -150.556649 
L 190.288249 -148.449678 
L 190.288249 -146.342706 
L 190.288249 -144.235734 
L 190.288249 -142.128762 
L 190.288249 -140.021791 
L 190.288249 -137.914819 
L 190.288249 -135.807847 
L 190.288249 -133.700875 
L 190.288249 -131.593904 
L 190.288249 -129.486932 
L 190.288249 -127.37996 
L 190.288249 -125.272988 
L 190.288249 -123.166017 
L 190.288249 -121.059045 
L 190.288249 -118.952073 
L 190.288249 -116.845101 
L 190.288249 -114.73813 
L 190.288249 -112.631158 
L 190.288249 -110.524186 
L 190.288249 -108.417214 
L 190.288249 -106.310243 
L 190.288249 -104.203271 
L 190.288249 -102.096299 
L 190.288249 -99.989327 
L 190.288249 -97.882356 
L 190.288249 -95.775384 
L 190.288249 -93.668412 
L 190.288249 -91.56144 
L 190.288249 -89.454469 
L 190.288249 -87.347497 
L 190.288249 -85.240525 
L 190.288249 -83.133553 
L 190.288249 -81.026582 
L 190.288249 -78.91961 
L 190.288249 -76.812638 
L 190.288249 -74.705667 
L 190.288249 -72.598695 
L 190.288249 -70.491723 
L 190.288249 -68.384751 
L 190.288249 -66.27778 
L 190.288249 -64.170808 
L 190.288249 -62.063836 
L 190.288249 -59.956864 
L 190.288249 -57.849893 
L 190.288249 -55.742921 
L 190.288249 -53.635949 
L 190.288249 -51.528977 
z
" style="stroke: #3f3f3f; stroke-width: 1.5"/>
    </defs>
    <g clip-path="url(#pfadfa18247)">
     <use xlink:href="#m14cf257672" x="0" y="352.15625" style="fill: #3274a1; stroke: #3f3f3f; stroke-width: 1.5"/>
    </g>
   </g>
   <g id="PolyCollection_4">
    <defs>
     <path id="mf561383b5a" d="M 190.881653 -58.201476 
L 190.288249 -58.201476 
L 190.288249 -59.788953 
L 190.288249 -61.37643 
L 190.288249 -62.963906 
L 190.288249 -64.551383 
L 190.288249 -66.13886 
L 190.288249 -67.726336 
L 190.288249 -69.313813 
L 190.288249 -70.90129 
L 190.288249 -72.488767 
L 190.288249 -74.076243 
L 190.288249 -75.66372 
L 190.288249 -77.251197 
L 190.288249 -78.838673 
L 190.288249 -80.42615 
L 190.288249 -82.013627 
L 190.288249 -83.601103 
L 190.288249 -85.18858 
L 190.288249 -86.776057 
L 190.288249 -88.363533 
L 190.288249 -89.95101 
L 190.288249 -91.538487 
L 190.288249 -93.125963 
L 190.288249 -94.71344 
L 190.288249 -96.300917 
L 190.288249 -97.888393 
L 190.288249 -99.47587 
L 190.288249 -101.063347 
L 190.288249 -102.650824 
L 190.288249 -104.2383 
L 190.288249 -105.825777 
L 190.288249 -107.413254 
L 190.288249 -109.00073 
L 190.288249 -110.588207 
L 190.288249 -112.175684 
L 190.288249 -113.76316 
L 190.288249 -115.350637 
L 190.288249 -116.938114 
L 190.288249 -118.52559 
L 190.288249 -120.113067 
L 190.288249 -121.700544 
L 190.288249 -123.28802 
L 190.288249 -124.875497 
L 190.288249 -126.462974 
L 190.288249 -128.05045 
L 190.288249 -129.637927 
L 190.288249 -131.225404 
L 190.288249 -132.812881 
L 190.288249 -134.400357 
L 190.288249 -135.987834 
L 190.288249 -137.575311 
L 190.288249 -139.162787 
L 190.288249 -140.750264 
L 190.288249 -142.337741 
L 190.288249 -143.925217 
L 190.288249 -145.512694 
L 190.288249 -147.100171 
L 190.288249 -148.687647 
L 190.288249 -150.275124 
L 190.288249 -151.862601 
L 190.288249 -153.450077 
L 190.288249 -155.037554 
L 190.288249 -156.625031 
L 190.288249 -158.212507 
L 190.288249 -159.799984 
L 190.288249 -161.387461 
L 190.288249 -162.974938 
L 190.288249 -164.562414 
L 190.288249 -166.149891 
L 190.288249 -167.737368 
L 190.288249 -169.324844 
L 190.288249 -170.912321 
L 190.288249 -172.499798 
L 190.288249 -174.087274 
L 190.288249 -175.674751 
L 190.288249 -177.262228 
L 190.288249 -178.849704 
L 190.288249 -180.437181 
L 190.288249 -182.024658 
L 190.288249 -183.612134 
L 190.288249 -185.199611 
L 190.288249 -186.787088 
L 190.288249 -188.374564 
L 190.288249 -189.962041 
L 190.288249 -191.549518 
L 190.288249 -193.136995 
L 190.288249 -194.724471 
L 190.288249 -196.311948 
L 190.288249 -197.899425 
L 190.288249 -199.486901 
L 190.288249 -201.074378 
L 190.288249 -202.661855 
L 190.288249 -204.249331 
L 190.288249 -205.836808 
L 190.288249 -207.424285 
L 190.288249 -209.011761 
L 190.288249 -210.599238 
L 190.288249 -212.186715 
L 190.288249 -213.774191 
L 190.288249 -215.361668 
L 190.309398 -215.361668 
L 190.309398 -215.361668 
L 190.330301 -213.774191 
L 190.362685 -212.186715 
L 190.405933 -210.599238 
L 190.455042 -209.011761 
L 190.500936 -207.424285 
L 190.533024 -205.836808 
L 190.543027 -204.249331 
L 190.528244 -202.661855 
L 190.492648 -201.074378 
L 190.445278 -199.486901 
L 190.396716 -197.899425 
L 190.355386 -196.311948 
L 190.325432 -194.724471 
L 190.306923 -193.136995 
L 190.297757 -191.549518 
L 190.295987 -189.962041 
L 190.30154 -188.374564 
L 190.316782 -186.787088 
L 190.345528 -185.199611 
L 190.390252 -183.612134 
L 190.448272 -182.024658 
L 190.509357 -180.437181 
L 190.557776 -178.849704 
L 190.579352 -177.262228 
L 190.569679 -175.674751 
L 190.537376 -174.087274 
L 190.499275 -172.499798 
L 190.470595 -170.912321 
L 190.457056 -169.324844 
L 190.45412 -167.737368 
L 190.452952 -166.149891 
L 190.447983 -164.562414 
L 190.44042 -162.974938 
L 190.435674 -161.387461 
L 190.437549 -159.799984 
L 190.444372 -158.212507 
L 190.450316 -156.625031 
L 190.450659 -155.037554 
L 190.446387 -153.450077 
L 190.444249 -151.862601 
L 190.452356 -150.275124 
L 190.475048 -148.687647 
L 190.51093 -147.100171 
L 190.554747 -145.512694 
L 190.600473 -143.925217 
L 190.642664 -142.337741 
L 190.675616 -140.750264 
L 190.692482 -139.162787 
L 190.686493 -137.575311 
L 190.654231 -135.987834 
L 190.598649 -134.400357 
L 190.529389 -132.812881 
L 190.459804 -131.225404 
L 190.40245 -129.637927 
L 190.365602 -128.05045 
L 190.352073 -126.462974 
L 190.359696 -124.875497 
L 190.382281 -123.28802 
L 190.410895 -121.700544 
L 190.436302 -120.113067 
L 190.452457 -118.52559 
L 190.458981 -116.938114 
L 190.460206 -115.350637 
L 190.460991 -113.76316 
L 190.46283 -112.175684 
L 190.464122 -110.588207 
L 190.464767 -109.00073 
L 190.471061 -107.413254 
L 190.49597 -105.825777 
L 190.553415 -104.2383 
L 190.650007 -102.650824 
L 190.780365 -101.063347 
L 190.930805 -99.47587 
L 191.091694 -97.888393 
L 191.274098 -96.300917 
L 191.525062 -94.71344 
L 191.938804 -93.125963 
L 192.664018 -91.538487 
L 193.904735 -89.95101 
L 195.904184 -88.363533 
L 198.897113 -86.776057 
L 203.026191 -85.18858 
L 208.241314 -83.601103 
L 214.222363 -82.013627 
L 220.369502 -80.42615 
L 225.884621 -78.838673 
L 229.931271 -77.251197 
L 231.826782 -75.66372 
L 231.207856 -74.076243 
L 228.12428 -72.488767 
L 223.039307 -70.90129 
L 216.733294 -69.313813 
L 210.124372 -67.726336 
L 204.049629 -66.13886 
L 199.080278 -64.551383 
L 195.439975 -62.963906 
L 193.04596 -61.37643 
L 191.631706 -59.788953 
L 190.881653 -58.201476 
z
" style="stroke: #3f3f3f; stroke-width: 1.5"/>
    </defs>
    <g clip-path="url(#pfadfa18247)">
     <use xlink:href="#mf561383b5a" x="0" y="352.15625" style="fill: #e1812c; stroke: #3f3f3f; stroke-width: 1.5"/>
    </g>
   </g>
   <g id="PolyCollection_5">
    <defs>
     <path id="m84deadc1bc" d="M 294.134581 -62.220418 
L 293.473524 -62.220418 
L 293.031166 -63.228131 
L 292.364819 -64.235844 
L 291.405983 -65.243558 
L 290.088729 -66.251271 
L 288.362218 -67.258984 
L 286.20523 -68.266697 
L 283.639641 -69.274411 
L 280.739003 -70.282124 
L 277.628653 -71.289837 
L 274.475468 -72.29755 
L 271.468082 -73.305263 
L 268.791319 -74.312977 
L 266.600692 -75.32069 
L 265.003041 -76.328403 
L 264.047601 -77.336116 
L 263.728522 -78.343829 
L 263.9964 -79.351543 
L 264.774062 -80.359256 
L 265.971509 -81.366969 
L 267.496458 -82.374682 
L 269.259462 -83.382396 
L 271.174935 -84.390109 
L 273.160618 -85.397822 
L 275.13781 -86.405535 
L 277.033509 -87.413248 
L 278.784173 -88.420962 
L 280.339858 -89.428675 
L 281.667349 -90.436388 
L 282.751406 -91.444101 
L 283.594056 -92.451815 
L 284.212493 -93.459528 
L 284.63634 -94.467241 
L 284.904828 -95.474954 
L 285.06401 -96.482667 
L 285.163731 -97.490381 
L 285.254046 -98.498094 
L 285.380974 -99.505807 
L 285.581935 -100.51352 
L 285.881628 -101.521234 
L 286.289259 -102.528947 
L 286.797858 -103.53666 
L 287.385999 -104.544373 
L 288.021638 -105.552086 
L 288.667366 -106.5598 
L 289.286103 -107.567513 
L 289.846237 -108.575226 
L 290.325457 -109.582939 
L 290.712798 -110.590653 
L 291.008751 -111.598366 
L 291.223632 -112.606079 
L 291.374631 -113.613792 
L 291.482174 -114.621505 
L 291.566271 -115.629219 
L 291.643503 -116.636932 
L 291.725114 -117.644645 
L 291.816417 -118.652358 
L 291.917453 -119.660072 
L 292.024598 -120.667785 
L 292.132638 -121.675498 
L 292.23678 -122.683211 
L 292.334137 -123.690924 
L 292.424396 -124.698638 
L 292.509607 -125.706351 
L 292.593271 -126.714064 
L 292.679079 -127.721777 
L 292.769708 -128.729491 
L 292.866026 -129.737204 
L 292.966867 -130.744917 
L 293.069367 -131.75263 
L 293.169664 -132.760343 
L 293.263709 -133.768057 
L 293.347939 -134.77577 
L 293.419705 -135.783483 
L 293.477434 -136.791196 
L 293.520611 -137.79891 
L 293.54972 -138.806623 
L 293.566185 -139.814336 
L 293.572334 -140.822049 
L 293.571304 -141.829762 
L 293.566801 -142.837476 
L 293.562681 -143.845189 
L 293.56243 -144.852902 
L 293.568655 -145.860615 
L 293.582769 -146.868329 
L 293.604964 -147.876042 
L 293.63446 -148.883755 
L 293.669922 -149.891468 
L 293.709868 -150.899181 
L 293.752935 -151.906895 
L 293.797934 -152.914608 
L 293.843762 -153.922321 
L 293.889267 -154.930034 
L 293.933182 -155.937748 
L 293.974174 -156.945461 
L 294.011009 -157.953174 
L 294.042744 -158.960887 
L 294.06888 -159.9686 
L 294.089414 -160.976314 
L 294.104784 -161.984027 
L 294.134581 -161.984027 
L 294.134581 -161.984027 
L 294.134581 -160.976314 
L 294.134581 -159.9686 
L 294.134581 -158.960887 
L 294.134581 -157.953174 
L 294.134581 -156.945461 
L 294.134581 -155.937748 
L 294.134581 -154.930034 
L 294.134581 -153.922321 
L 294.134581 -152.914608 
L 294.134581 -151.906895 
L 294.134581 -150.899181 
L 294.134581 -149.891468 
L 294.134581 -148.883755 
L 294.134581 -147.876042 
L 294.134581 -146.868329 
L 294.134581 -145.860615 
L 294.134581 -144.852902 
L 294.134581 -143.845189 
L 294.134581 -142.837476 
L 294.134581 -141.829762 
L 294.134581 -140.822049 
L 294.134581 -139.814336 
L 294.134581 -138.806623 
L 294.134581 -137.79891 
L 294.134581 -136.791196 
L 294.134581 -135.783483 
L 294.134581 -134.77577 
L 294.134581 -133.768057 
L 294.134581 -132.760343 
L 294.134581 -131.75263 
L 294.134581 -130.744917 
L 294.134581 -129.737204 
L 294.134581 -128.729491 
L 294.134581 -127.721777 
L 294.134581 -126.714064 
L 294.134581 -125.706351 
L 294.134581 -124.698638 
L 294.134581 -123.690924 
L 294.134581 -122.683211 
L 294.134581 -121.675498 
L 294.134581 -120.667785 
L 294.134581 -119.660072 
L 294.134581 -118.652358 
L 294.134581 -117.644645 
L 294.134581 -116.636932 
L 294.134581 -115.629219 
L 294.134581 -114.621505 
L 294.134581 -113.613792 
L 294.134581 -112.606079 
L 294.134581 -111.598366 
L 294.134581 -110.590653 
L 294.134581 -109.582939 
L 294.134581 -108.575226 
L 294.134581 -107.567513 
L 294.134581 -106.5598 
L 294.134581 -105.552086 
L 294.134581 -104.544373 
L 294.134581 -103.53666 
L 294.134581 -102.528947 
L 294.134581 -101.521234 
L 294.134581 -100.51352 
L 294.134581 -99.505807 
L 294.134581 -98.498094 
L 294.134581 -97.490381 
L 294.134581 -96.482667 
L 294.134581 -95.474954 
L 294.134581 -94.467241 
L 294.134581 -93.459528 
L 294.134581 -92.451815 
L 294.134581 -91.444101 
L 294.134581 -90.436388 
L 294.134581 -89.428675 
L 294.134581 -88.420962 
L 294.134581 -87.413248 
L 294.134581 -86.405535 
L 294.134581 -85.397822 
L 294.134581 -84.390109 
L 294.134581 -83.382396 
L 294.134581 -82.374682 
L 294.134581 -81.366969 
L 294.134581 -80.359256 
L 294.134581 -79.351543 
L 294.134581 -78.343829 
L 294.134581 -77.336116 
L 294.134581 -76.328403 
L 294.134581 -75.32069 
L 294.134581 -74.312977 
L 294.134581 -73.305263 
L 294.134581 -72.29755 
L 294.134581 -71.289837 
L 294.134581 -70.282124 
L 294.134581 -69.274411 
L 294.134581 -68.266697 
L 294.134581 -67.258984 
L 294.134581 -66.251271 
L 294.134581 -65.243558 
L 294.134581 -64.235844 
L 294.134581 -63.228131 
L 294.134581 -62.220418 
z
" style="stroke: #3f3f3f; stroke-width: 1.5"/>
    </defs>
    <g clip-path="url(#pfadfa18247)">
     <use xlink:href="#m84deadc1bc" x="0" y="352.15625" style="fill: #3274a1; stroke: #3f3f3f; stroke-width: 1.5"/>
    </g>
   </g>
   <g id="PolyCollection_6">
    <defs>
     <path id="mfe2b292794" d="M 295.684562 -62.685697 
L 294.134581 -62.685697 
L 294.134581 -63.272127 
L 294.134581 -63.858558 
L 294.134581 -64.444988 
L 294.134581 -65.031418 
L 294.134581 -65.617848 
L 294.134581 -66.204279 
L 294.134581 -66.790709 
L 294.134581 -67.377139 
L 294.134581 -67.963569 
L 294.134581 -68.549999 
L 294.134581 -69.13643 
L 294.134581 -69.72286 
L 294.134581 -70.30929 
L 294.134581 -70.89572 
L 294.134581 -71.482151 
L 294.134581 -72.068581 
L 294.134581 -72.655011 
L 294.134581 -73.241441 
L 294.134581 -73.827871 
L 294.134581 -74.414302 
L 294.134581 -75.000732 
L 294.134581 -75.587162 
L 294.134581 -76.173592 
L 294.134581 -76.760023 
L 294.134581 -77.346453 
L 294.134581 -77.932883 
L 294.134581 -78.519313 
L 294.134581 -79.105743 
L 294.134581 -79.692174 
L 294.134581 -80.278604 
L 294.134581 -80.865034 
L 294.134581 -81.451464 
L 294.134581 -82.037895 
L 294.134581 -82.624325 
L 294.134581 -83.210755 
L 294.134581 -83.797185 
L 294.134581 -84.383616 
L 294.134581 -84.970046 
L 294.134581 -85.556476 
L 294.134581 -86.142906 
L 294.134581 -86.729336 
L 294.134581 -87.315767 
L 294.134581 -87.902197 
L 294.134581 -88.488627 
L 294.134581 -89.075057 
L 294.134581 -89.661488 
L 294.134581 -90.247918 
L 294.134581 -90.834348 
L 294.134581 -91.420778 
L 294.134581 -92.007208 
L 294.134581 -92.593639 
L 294.134581 -93.180069 
L 294.134581 -93.766499 
L 294.134581 -94.352929 
L 294.134581 -94.93936 
L 294.134581 -95.52579 
L 294.134581 -96.11222 
L 294.134581 -96.69865 
L 294.134581 -97.28508 
L 294.134581 -97.871511 
L 294.134581 -98.457941 
L 294.134581 -99.044371 
L 294.134581 -99.630801 
L 294.134581 -100.217232 
L 294.134581 -100.803662 
L 294.134581 -101.390092 
L 294.134581 -101.976522 
L 294.134581 -102.562952 
L 294.134581 -103.149383 
L 294.134581 -103.735813 
L 294.134581 -104.322243 
L 294.134581 -104.908673 
L 294.134581 -105.495104 
L 294.134581 -106.081534 
L 294.134581 -106.667964 
L 294.134581 -107.254394 
L 294.134581 -107.840825 
L 294.134581 -108.427255 
L 294.134581 -109.013685 
L 294.134581 -109.600115 
L 294.134581 -110.186545 
L 294.134581 -110.772976 
L 294.134581 -111.359406 
L 294.134581 -111.945836 
L 294.134581 -112.532266 
L 294.134581 -113.118697 
L 294.134581 -113.705127 
L 294.134581 -114.291557 
L 294.134581 -114.877987 
L 294.134581 -115.464417 
L 294.134581 -116.050848 
L 294.134581 -116.637278 
L 294.134581 -117.223708 
L 294.134581 -117.810138 
L 294.134581 -118.396569 
L 294.134581 -118.982999 
L 294.134581 -119.569429 
L 294.134581 -120.155859 
L 294.134581 -120.742289 
L 294.189732 -120.742289 
L 294.189732 -120.742289 
L 294.217209 -120.155859 
L 294.254335 -119.569429 
L 294.302583 -118.982999 
L 294.362883 -118.396569 
L 294.43533 -117.810138 
L 294.51895 -117.223708 
L 294.611587 -116.637278 
L 294.709961 -116.050848 
L 294.809921 -115.464417 
L 294.906898 -114.877987 
L 294.996501 -114.291557 
L 295.075182 -113.705127 
L 295.140853 -113.118697 
L 295.193326 -112.532266 
L 295.234483 -111.945836 
L 295.26811 -111.359406 
L 295.29943 -110.772976 
L 295.334413 -110.186545 
L 295.379046 -109.600115 
L 295.438734 -109.013685 
L 295.517968 -108.427255 
L 295.620304 -107.840825 
L 295.74857 -107.254394 
L 295.905132 -106.667964 
L 296.091969 -106.081534 
L 296.310401 -105.495104 
L 296.560403 -104.908673 
L 296.839634 -104.322243 
L 297.142457 -103.735813 
L 297.459324 -103.149383 
L 297.776868 -102.562952 
L 298.078888 -101.976522 
L 298.348199 -101.390092 
L 298.56906 -100.803662 
L 298.729711 -100.217232 
L 298.824541 -99.630801 
L 298.855436 -99.044371 
L 298.8321 -98.457941 
L 298.771351 -97.871511 
L 298.695552 -97.28508 
L 298.630468 -96.69865 
L 298.602822 -96.11222 
L 298.637792 -95.52579 
L 298.75666 -94.93936 
L 298.974821 -94.352929 
L 299.3004 -93.766499 
L 299.733703 -93.180069 
L 300.267675 -92.593639 
L 300.889359 -92.007208 
L 301.582124 -91.420778 
L 302.328271 -90.834348 
L 303.111495 -90.247918 
L 303.918791 -89.661488 
L 304.741519 -89.075057 
L 305.575629 -88.488627 
L 306.421168 -87.902197 
L 307.281314 -87.315767 
L 308.161137 -86.729336 
L 309.066213 -86.142906 
L 310.001186 -85.556476 
L 310.968368 -84.970046 
L 311.966546 -84.383616 
L 312.990297 -83.797185 
L 314.030091 -83.210755 
L 315.073449 -82.624325 
L 316.107188 -82.037895 
L 317.120508 -81.451464 
L 318.1084 -80.865034 
L 319.07463 -80.278604 
L 320.03351 -79.692174 
L 321.009745 -79.105743 
L 322.035967 -78.519313 
L 323.147872 -77.932883 
L 324.377377 -77.346453 
L 325.744533 -76.760023 
L 327.249324 -76.173592 
L 328.864634 -75.587162 
L 330.531745 -75.000732 
L 332.159563 -74.414302 
L 333.628466 -73.827871 
L 334.799104 -73.241441 
L 335.525769 -72.655011 
L 335.673114 -72.068581 
L 335.134165 -71.482151 
L 333.846935 -70.89572 
L 331.806739 -70.30929 
L 329.071622 -69.72286 
L 325.759324 -69.13643 
L 322.035653 -68.549999 
L 318.09589 -67.963569 
L 314.142251 -67.377139 
L 310.36131 -66.790709 
L 306.905218 -66.204279 
L 303.87958 -65.617848 
L 301.339304 -65.031418 
L 299.291993 -64.444988 
L 297.707057 -63.858558 
L 296.527907 -63.272127 
L 295.684562 -62.685697 
z
" style="stroke: #3f3f3f; stroke-width: 1.5"/>
    </defs>
    <g clip-path="url(#pfadfa18247)">
     <use xlink:href="#mfe2b292794" x="0" y="352.15625" style="fill: #e1812c; stroke: #3f3f3f; stroke-width: 1.5"/>
    </g>
   </g>
   <g id="matplotlib.axis_1">
    <g id="xtick_1">
     <g id="line2d_1">
      <defs>
       <path id="m2ddf0e08e9" d="M 0 0 
L 0 3.5 
" style="stroke: #000000; stroke-width: 0.8"/>
      </defs>
      <g>
       <use xlink:href="#m2ddf0e08e9" x="86.441916" y="314.6" style="stroke: #000000; stroke-width: 0.8"/>
      </g>
     </g>
     <g id="text_1">
      <!-- burger -->
      <g transform="translate(69.824729 329.198437)scale(0.1 -0.1)">
       <defs>
        <path id="DejaVuSans-62" d="M 3116 1747 
Q 3116 2381 2855 2742 
Q 2594 3103 2138 3103 
Q 1681 3103 1420 2742 
Q 1159 2381 1159 1747 
Q 1159 1113 1420 752 
Q 1681 391 2138 391 
Q 2594 391 2855 752 
Q 3116 1113 3116 1747 
z
M 1159 2969 
Q 1341 3281 1617 3432 
Q 1894 3584 2278 3584 
Q 2916 3584 3314 3078 
Q 3713 2572 3713 1747 
Q 3713 922 3314 415 
Q 2916 -91 2278 -91 
Q 1894 -91 1617 61 
Q 1341 213 1159 525 
L 1159 0 
L 581 0 
L 581 4863 
L 1159 4863 
L 1159 2969 
z
" transform="scale(0.015625)"/>
        <path id="DejaVuSans-75" d="M 544 1381 
L 544 3500 
L 1119 3500 
L 1119 1403 
Q 1119 906 1312 657 
Q 1506 409 1894 409 
Q 2359 409 2629 706 
Q 2900 1003 2900 1516 
L 2900 3500 
L 3475 3500 
L 3475 0 
L 2900 0 
L 2900 538 
Q 2691 219 2414 64 
Q 2138 -91 1772 -91 
Q 1169 -91 856 284 
Q 544 659 544 1381 
z
M 1991 3584 
L 1991 3584 
z
" transform="scale(0.015625)"/>
        <path id="DejaVuSans-72" d="M 2631 2963 
Q 2534 3019 2420 3045 
Q 2306 3072 2169 3072 
Q 1681 3072 1420 2755 
Q 1159 2438 1159 1844 
L 1159 0 
L 581 0 
L 581 3500 
L 1159 3500 
L 1159 2956 
Q 1341 3275 1631 3429 
Q 1922 3584 2338 3584 
Q 2397 3584 2469 3576 
Q 2541 3569 2628 3553 
L 2631 2963 
z
" transform="scale(0.015625)"/>
        <path id="DejaVuSans-67" d="M 2906 1791 
Q 2906 2416 2648 2759 
Q 2391 3103 1925 3103 
Q 1463 3103 1205 2759 
Q 947 2416 947 1791 
Q 947 1169 1205 825 
Q 1463 481 1925 481 
Q 2391 481 2648 825 
Q 2906 1169 2906 1791 
z
M 3481 434 
Q 3481 -459 3084 -895 
Q 2688 -1331 1869 -1331 
Q 1566 -1331 1297 -1286 
Q 1028 -1241 775 -1147 
L 775 -588 
Q 1028 -725 1275 -790 
Q 1522 -856 1778 -856 
Q 2344 -856 2625 -561 
Q 2906 -266 2906 331 
L 2906 616 
Q 2728 306 2450 153 
Q 2172 0 1784 0 
Q 1141 0 747 490 
Q 353 981 353 1791 
Q 353 2603 747 3093 
Q 1141 3584 1784 3584 
Q 2172 3584 2450 3431 
Q 2728 3278 2906 2969 
L 2906 3500 
L 3481 3500 
L 3481 434 
z
" transform="scale(0.015625)"/>
        <path id="DejaVuSans-65" d="M 3597 1894 
L 3597 1613 
L 953 1613 
Q 991 1019 1311 708 
Q 1631 397 2203 397 
Q 2534 397 2845 478 
Q 3156 559 3463 722 
L 3463 178 
Q 3153 47 2828 -22 
Q 2503 -91 2169 -91 
Q 1331 -91 842 396 
Q 353 884 353 1716 
Q 353 2575 817 3079 
Q 1281 3584 2069 3584 
Q 2775 3584 3186 3129 
Q 3597 2675 3597 1894 
z
M 3022 2063 
Q 3016 2534 2758 2815 
Q 2500 3097 2075 3097 
Q 1594 3097 1305 2825 
Q 1016 2553 972 2059 
L 3022 2063 
z
" transform="scale(0.015625)"/>
       </defs>
       <use xlink:href="#DejaVuSans-62"/>
       <use xlink:href="#DejaVuSans-75" x="63.476562"/>
       <use xlink:href="#DejaVuSans-72" x="126.855469"/>
       <use xlink:href="#DejaVuSans-67" x="166.21875"/>
       <use xlink:href="#DejaVuSans-65" x="229.695312"/>
       <use xlink:href="#DejaVuSans-72" x="291.21875"/>
      </g>
     </g>
    </g>
    <g id="xtick_2">
     <g id="line2d_2">
      <g>
       <use xlink:href="#m2ddf0e08e9" x="190.288249" y="314.6" style="stroke: #000000; stroke-width: 0.8"/>
      </g>
     </g>
     <g id="text_2">
      <!-- jackal -->
      <g transform="translate(175.824967 329.198437)scale(0.1 -0.1)">
       <defs>
        <path id="DejaVuSans-6a" d="M 603 3500 
L 1178 3500 
L 1178 -63 
Q 1178 -731 923 -1031 
Q 669 -1331 103 -1331 
L -116 -1331 
L -116 -844 
L 38 -844 
Q 366 -844 484 -692 
Q 603 -541 603 -63 
L 603 3500 
z
M 603 4863 
L 1178 4863 
L 1178 4134 
L 603 4134 
L 603 4863 
z
" transform="scale(0.015625)"/>
        <path id="DejaVuSans-61" d="M 2194 1759 
Q 1497 1759 1228 1600 
Q 959 1441 959 1056 
Q 959 750 1161 570 
Q 1363 391 1709 391 
Q 2188 391 2477 730 
Q 2766 1069 2766 1631 
L 2766 1759 
L 2194 1759 
z
M 3341 1997 
L 3341 0 
L 2766 0 
L 2766 531 
Q 2569 213 2275 61 
Q 1981 -91 1556 -91 
Q 1019 -91 701 211 
Q 384 513 384 1019 
Q 384 1609 779 1909 
Q 1175 2209 1959 2209 
L 2766 2209 
L 2766 2266 
Q 2766 2663 2505 2880 
Q 2244 3097 1772 3097 
Q 1472 3097 1187 3025 
Q 903 2953 641 2809 
L 641 3341 
Q 956 3463 1253 3523 
Q 1550 3584 1831 3584 
Q 2591 3584 2966 3190 
Q 3341 2797 3341 1997 
z
" transform="scale(0.015625)"/>
        <path id="DejaVuSans-63" d="M 3122 3366 
L 3122 2828 
Q 2878 2963 2633 3030 
Q 2388 3097 2138 3097 
Q 1578 3097 1268 2742 
Q 959 2388 959 1747 
Q 959 1106 1268 751 
Q 1578 397 2138 397 
Q 2388 397 2633 464 
Q 2878 531 3122 666 
L 3122 134 
Q 2881 22 2623 -34 
Q 2366 -91 2075 -91 
Q 1284 -91 818 406 
Q 353 903 353 1747 
Q 353 2603 823 3093 
Q 1294 3584 2113 3584 
Q 2378 3584 2631 3529 
Q 2884 3475 3122 3366 
z
" transform="scale(0.015625)"/>
        <path id="DejaVuSans-6b" d="M 581 4863 
L 1159 4863 
L 1159 1991 
L 2875 3500 
L 3609 3500 
L 1753 1863 
L 3688 0 
L 2938 0 
L 1159 1709 
L 1159 0 
L 581 0 
L 581 4863 
z
" transform="scale(0.015625)"/>
        <path id="DejaVuSans-6c" d="M 603 4863 
L 1178 4863 
L 1178 0 
L 603 0 
L 603 4863 
z
" transform="scale(0.015625)"/>
       </defs>
       <use xlink:href="#DejaVuSans-6a"/>
       <use xlink:href="#DejaVuSans-61" x="27.783203"/>
       <use xlink:href="#DejaVuSans-63" x="89.0625"/>
       <use xlink:href="#DejaVuSans-6b" x="144.042969"/>
       <use xlink:href="#DejaVuSans-61" x="200.203125"/>
       <use xlink:href="#DejaVuSans-6c" x="261.482422"/>
      </g>
     </g>
    </g>
    <g id="xtick_3">
     <g id="line2d_3">
      <g>
       <use xlink:href="#m2ddf0e08e9" x="294.134581" y="314.6" style="stroke: #000000; stroke-width: 0.8"/>
      </g>
     </g>
     <g id="text_3">
      <!-- youbot -->
      <g transform="translate(276.753331 329.198437)scale(0.1 -0.1)">
       <defs>
        <path id="DejaVuSans-79" d="M 2059 -325 
Q 1816 -950 1584 -1140 
Q 1353 -1331 966 -1331 
L 506 -1331 
L 506 -850 
L 844 -850 
Q 1081 -850 1212 -737 
Q 1344 -625 1503 -206 
L 1606 56 
L 191 3500 
L 800 3500 
L 1894 763 
L 2988 3500 
L 3597 3500 
L 2059 -325 
z
" transform="scale(0.015625)"/>
        <path id="DejaVuSans-6f" d="M 1959 3097 
Q 1497 3097 1228 2736 
Q 959 2375 959 1747 
Q 959 1119 1226 758 
Q 1494 397 1959 397 
Q 2419 397 2687 759 
Q 2956 1122 2956 1747 
Q 2956 2369 2687 2733 
Q 2419 3097 1959 3097 
z
M 1959 3584 
Q 2709 3584 3137 3096 
Q 3566 2609 3566 1747 
Q 3566 888 3137 398 
Q 2709 -91 1959 -91 
Q 1206 -91 779 398 
Q 353 888 353 1747 
Q 353 2609 779 3096 
Q 1206 3584 1959 3584 
z
" transform="scale(0.015625)"/>
        <path id="DejaVuSans-74" d="M 1172 4494 
L 1172 3500 
L 2356 3500 
L 2356 3053 
L 1172 3053 
L 1172 1153 
Q 1172 725 1289 603 
Q 1406 481 1766 481 
L 2356 481 
L 2356 0 
L 1766 0 
Q 1100 0 847 248 
Q 594 497 594 1153 
L 594 3053 
L 172 3053 
L 172 3500 
L 594 3500 
L 594 4494 
L 1172 4494 
z
" transform="scale(0.015625)"/>
       </defs>
       <use xlink:href="#DejaVuSans-79"/>
       <use xlink:href="#DejaVuSans-6f" x="59.179688"/>
       <use xlink:href="#DejaVuSans-75" x="120.361328"/>
       <use xlink:href="#DejaVuSans-62" x="183.740234"/>
       <use xlink:href="#DejaVuSans-6f" x="247.216797"/>
       <use xlink:href="#DejaVuSans-74" x="308.398438"/>
      </g>
     </g>
    </g>
    <g id="text_4">
     <!-- Robot -->
     <g transform="translate(175.785905 342.876562)scale(0.1 -0.1)">
      <defs>
       <path id="DejaVuSans-52" d="M 2841 2188 
Q 3044 2119 3236 1894 
Q 3428 1669 3622 1275 
L 4263 0 
L 3584 0 
L 2988 1197 
Q 2756 1666 2539 1819 
Q 2322 1972 1947 1972 
L 1259 1972 
L 1259 0 
L 628 0 
L 628 4666 
L 2053 4666 
Q 2853 4666 3247 4331 
Q 3641 3997 3641 3322 
Q 3641 2881 3436 2590 
Q 3231 2300 2841 2188 
z
M 1259 4147 
L 1259 2491 
L 2053 2491 
Q 2509 2491 2742 2702 
Q 2975 2913 2975 3322 
Q 2975 3731 2742 3939 
Q 2509 4147 2053 4147 
L 1259 4147 
z
" transform="scale(0.015625)"/>
      </defs>
      <use xlink:href="#DejaVuSans-52"/>
      <use xlink:href="#DejaVuSans-6f" x="64.982422"/>
      <use xlink:href="#DejaVuSans-62" x="126.164062"/>
      <use xlink:href="#DejaVuSans-6f" x="189.640625"/>
      <use xlink:href="#DejaVuSans-74" x="250.822266"/>
     </g>
    </g>
   </g>
   <g id="matplotlib.axis_2">
    <g id="ytick_1">
     <g id="line2d_4">
      <defs>
       <path id="mcb350bdd6e" d="M 0 0 
L -3.5 0 
" style="stroke: #000000; stroke-width: 0.8"/>
      </defs>
      <g>
       <use xlink:href="#mcb350bdd6e" x="34.51875" y="285.094149" style="stroke: #000000; stroke-width: 0.8"/>
      </g>
     </g>
     <g id="text_5">
      <!-- 0 -->
      <g transform="translate(21.15625 288.893368)scale(0.1 -0.1)">
       <defs>
        <path id="DejaVuSans-30" d="M 2034 4250 
Q 1547 4250 1301 3770 
Q 1056 3291 1056 2328 
Q 1056 1369 1301 889 
Q 1547 409 2034 409 
Q 2525 409 2770 889 
Q 3016 1369 3016 2328 
Q 3016 3291 2770 3770 
Q 2525 4250 2034 4250 
z
M 2034 4750 
Q 2819 4750 3233 4129 
Q 3647 3509 3647 2328 
Q 3647 1150 3233 529 
Q 2819 -91 2034 -91 
Q 1250 -91 836 529 
Q 422 1150 422 2328 
Q 422 3509 836 4129 
Q 1250 4750 2034 4750 
z
" transform="scale(0.015625)"/>
       </defs>
       <use xlink:href="#DejaVuSans-30"/>
      </g>
     </g>
    </g>
    <g id="ytick_2">
     <g id="line2d_5">
      <g>
       <use xlink:href="#mcb350bdd6e" x="34.51875" y="249.411575" style="stroke: #000000; stroke-width: 0.8"/>
      </g>
     </g>
     <g id="text_6">
      <!-- 1 -->
      <g transform="translate(21.15625 253.210793)scale(0.1 -0.1)">
       <defs>
        <path id="DejaVuSans-31" d="M 794 531 
L 1825 531 
L 1825 4091 
L 703 3866 
L 703 4441 
L 1819 4666 
L 2450 4666 
L 2450 531 
L 3481 531 
L 3481 0 
L 794 0 
L 794 531 
z
" transform="scale(0.015625)"/>
       </defs>
       <use xlink:href="#DejaVuSans-31"/>
      </g>
     </g>
    </g>
    <g id="ytick_3">
     <g id="line2d_6">
      <g>
       <use xlink:href="#mcb350bdd6e" x="34.51875" y="213.729" style="stroke: #000000; stroke-width: 0.8"/>
      </g>
     </g>
     <g id="text_7">
      <!-- 2 -->
      <g transform="translate(21.15625 217.528219)scale(0.1 -0.1)">
       <defs>
        <path id="DejaVuSans-32" d="M 1228 531 
L 3431 531 
L 3431 0 
L 469 0 
L 469 531 
Q 828 903 1448 1529 
Q 2069 2156 2228 2338 
Q 2531 2678 2651 2914 
Q 2772 3150 2772 3378 
Q 2772 3750 2511 3984 
Q 2250 4219 1831 4219 
Q 1534 4219 1204 4116 
Q 875 4013 500 3803 
L 500 4441 
Q 881 4594 1212 4672 
Q 1544 4750 1819 4750 
Q 2544 4750 2975 4387 
Q 3406 4025 3406 3419 
Q 3406 3131 3298 2873 
Q 3191 2616 2906 2266 
Q 2828 2175 2409 1742 
Q 1991 1309 1228 531 
z
" transform="scale(0.015625)"/>
       </defs>
       <use xlink:href="#DejaVuSans-32"/>
      </g>
     </g>
    </g>
    <g id="ytick_4">
     <g id="line2d_7">
      <g>
       <use xlink:href="#mcb350bdd6e" x="34.51875" y="178.046425" style="stroke: #000000; stroke-width: 0.8"/>
      </g>
     </g>
     <g id="text_8">
      <!-- 3 -->
      <g transform="translate(21.15625 181.845644)scale(0.1 -0.1)">
       <defs>
        <path id="DejaVuSans-33" d="M 2597 2516 
Q 3050 2419 3304 2112 
Q 3559 1806 3559 1356 
Q 3559 666 3084 287 
Q 2609 -91 1734 -91 
Q 1441 -91 1130 -33 
Q 819 25 488 141 
L 488 750 
Q 750 597 1062 519 
Q 1375 441 1716 441 
Q 2309 441 2620 675 
Q 2931 909 2931 1356 
Q 2931 1769 2642 2001 
Q 2353 2234 1838 2234 
L 1294 2234 
L 1294 2753 
L 1863 2753 
Q 2328 2753 2575 2939 
Q 2822 3125 2822 3475 
Q 2822 3834 2567 4026 
Q 2313 4219 1838 4219 
Q 1578 4219 1281 4162 
Q 984 4106 628 3988 
L 628 4550 
Q 988 4650 1302 4700 
Q 1616 4750 1894 4750 
Q 2613 4750 3031 4423 
Q 3450 4097 3450 3541 
Q 3450 3153 3228 2886 
Q 3006 2619 2597 2516 
z
" transform="scale(0.015625)"/>
       </defs>
       <use xlink:href="#DejaVuSans-33"/>
      </g>
     </g>
    </g>
    <g id="ytick_5">
     <g id="line2d_8">
      <g>
       <use xlink:href="#mcb350bdd6e" x="34.51875" y="142.36385" style="stroke: #000000; stroke-width: 0.8"/>
      </g>
     </g>
     <g id="text_9">
      <!-- 4 -->
      <g transform="translate(21.15625 146.163069)scale(0.1 -0.1)">
       <defs>
        <path id="DejaVuSans-34" d="M 2419 4116 
L 825 1625 
L 2419 1625 
L 2419 4116 
z
M 2253 4666 
L 3047 4666 
L 3047 1625 
L 3713 1625 
L 3713 1100 
L 3047 1100 
L 3047 0 
L 2419 0 
L 2419 1100 
L 313 1100 
L 313 1709 
L 2253 4666 
z
" transform="scale(0.015625)"/>
       </defs>
       <use xlink:href="#DejaVuSans-34"/>
      </g>
     </g>
    </g>
    <g id="ytick_6">
     <g id="line2d_9">
      <g>
       <use xlink:href="#mcb350bdd6e" x="34.51875" y="106.681275" style="stroke: #000000; stroke-width: 0.8"/>
      </g>
     </g>
     <g id="text_10">
      <!-- 5 -->
      <g transform="translate(21.15625 110.480494)scale(0.1 -0.1)">
       <defs>
        <path id="DejaVuSans-35" d="M 691 4666 
L 3169 4666 
L 3169 4134 
L 1269 4134 
L 1269 2991 
Q 1406 3038 1543 3061 
Q 1681 3084 1819 3084 
Q 2600 3084 3056 2656 
Q 3513 2228 3513 1497 
Q 3513 744 3044 326 
Q 2575 -91 1722 -91 
Q 1428 -91 1123 -41 
Q 819 9 494 109 
L 494 744 
Q 775 591 1075 516 
Q 1375 441 1709 441 
Q 2250 441 2565 725 
Q 2881 1009 2881 1497 
Q 2881 1984 2565 2268 
Q 2250 2553 1709 2553 
Q 1456 2553 1204 2497 
Q 953 2441 691 2322 
L 691 4666 
z
" transform="scale(0.015625)"/>
       </defs>
       <use xlink:href="#DejaVuSans-35"/>
      </g>
     </g>
    </g>
    <g id="ytick_7">
     <g id="line2d_10">
      <g>
       <use xlink:href="#mcb350bdd6e" x="34.51875" y="70.998701" style="stroke: #000000; stroke-width: 0.8"/>
      </g>
     </g>
     <g id="text_11">
      <!-- 6 -->
      <g transform="translate(21.15625 74.797919)scale(0.1 -0.1)">
       <defs>
        <path id="DejaVuSans-36" d="M 2113 2584 
Q 1688 2584 1439 2293 
Q 1191 2003 1191 1497 
Q 1191 994 1439 701 
Q 1688 409 2113 409 
Q 2538 409 2786 701 
Q 3034 994 3034 1497 
Q 3034 2003 2786 2293 
Q 2538 2584 2113 2584 
z
M 3366 4563 
L 3366 3988 
Q 3128 4100 2886 4159 
Q 2644 4219 2406 4219 
Q 1781 4219 1451 3797 
Q 1122 3375 1075 2522 
Q 1259 2794 1537 2939 
Q 1816 3084 2150 3084 
Q 2853 3084 3261 2657 
Q 3669 2231 3669 1497 
Q 3669 778 3244 343 
Q 2819 -91 2113 -91 
Q 1303 -91 875 529 
Q 447 1150 447 2328 
Q 447 3434 972 4092 
Q 1497 4750 2381 4750 
Q 2619 4750 2861 4703 
Q 3103 4656 3366 4563 
z
" transform="scale(0.015625)"/>
       </defs>
       <use xlink:href="#DejaVuSans-36"/>
      </g>
     </g>
    </g>
    <g id="ytick_8">
     <g id="line2d_11">
      <g>
       <use xlink:href="#mcb350bdd6e" x="34.51875" y="35.316126" style="stroke: #000000; stroke-width: 0.8"/>
      </g>
     </g>
     <g id="text_12">
      <!-- 7 -->
      <g transform="translate(21.15625 39.115345)scale(0.1 -0.1)">
       <defs>
        <path id="DejaVuSans-37" d="M 525 4666 
L 3525 4666 
L 3525 4397 
L 1831 0 
L 1172 0 
L 2766 4134 
L 525 4134 
L 525 4666 
z
" transform="scale(0.015625)"/>
       </defs>
       <use xlink:href="#DejaVuSans-37"/>
      </g>
     </g>
    </g>
    <g id="text_13">
     <!-- angle_over_length -->
     <g transform="translate(14.798438 206.860938)rotate(-90)scale(0.1 -0.1)">
      <defs>
       <path id="DejaVuSans-6e" d="M 3513 2113 
L 3513 0 
L 2938 0 
L 2938 2094 
Q 2938 2591 2744 2837 
Q 2550 3084 2163 3084 
Q 1697 3084 1428 2787 
Q 1159 2491 1159 1978 
L 1159 0 
L 581 0 
L 581 3500 
L 1159 3500 
L 1159 2956 
Q 1366 3272 1645 3428 
Q 1925 3584 2291 3584 
Q 2894 3584 3203 3211 
Q 3513 2838 3513 2113 
z
" transform="scale(0.015625)"/>
       <path id="DejaVuSans-5f" d="M 3263 -1063 
L 3263 -1509 
L -63 -1509 
L -63 -1063 
L 3263 -1063 
z
" transform="scale(0.015625)"/>
       <path id="DejaVuSans-76" d="M 191 3500 
L 800 3500 
L 1894 563 
L 2988 3500 
L 3597 3500 
L 2284 0 
L 1503 0 
L 191 3500 
z
" transform="scale(0.015625)"/>
       <path id="DejaVuSans-68" d="M 3513 2113 
L 3513 0 
L 2938 0 
L 2938 2094 
Q 2938 2591 2744 2837 
Q 2550 3084 2163 3084 
Q 1697 3084 1428 2787 
Q 1159 2491 1159 1978 
L 1159 0 
L 581 0 
L 581 4863 
L 1159 4863 
L 1159 2956 
Q 1366 3272 1645 3428 
Q 1925 3584 2291 3584 
Q 2894 3584 3203 3211 
Q 3513 2838 3513 2113 
z
" transform="scale(0.015625)"/>
      </defs>
      <use xlink:href="#DejaVuSans-61"/>
      <use xlink:href="#DejaVuSans-6e" x="61.279297"/>
      <use xlink:href="#DejaVuSans-67" x="124.658203"/>
      <use xlink:href="#DejaVuSans-6c" x="188.134766"/>
      <use xlink:href="#DejaVuSans-65" x="215.917969"/>
      <use xlink:href="#DejaVuSans-5f" x="277.441406"/>
      <use xlink:href="#DejaVuSans-6f" x="327.441406"/>
      <use xlink:href="#DejaVuSans-76" x="388.623047"/>
      <use xlink:href="#DejaVuSans-65" x="447.802734"/>
      <use xlink:href="#DejaVuSans-72" x="509.326172"/>
      <use xlink:href="#DejaVuSans-5f" x="550.439453"/>
      <use xlink:href="#DejaVuSans-6c" x="600.439453"/>
      <use xlink:href="#DejaVuSans-65" x="628.222656"/>
      <use xlink:href="#DejaVuSans-6e" x="689.746094"/>
      <use xlink:href="#DejaVuSans-67" x="753.125"/>
      <use xlink:href="#DejaVuSans-74" x="816.601562"/>
      <use xlink:href="#DejaVuSans-68" x="855.810547"/>
     </g>
    </g>
   </g>
   <g id="line2d_12">
    <path d="M 86.441916 277.020645 
L 86.441916 219.979243 
" clip-path="url(#pfadfa18247)" style="fill: none; stroke: #3f3f3f; stroke-width: 1.5; stroke-linecap: square"/>
   </g>
   <g id="line2d_13">
    <path d="M 86.441916 269.306134 
L 86.441916 248.830493 
" clip-path="url(#pfadfa18247)" style="fill: none; stroke: #3f3f3f; stroke-width: 4.5; stroke-linecap: square"/>
   </g>
   <g id="line2d_14">
    <path d="M 190.288249 285.094149 
L 190.288249 241.945967 
" clip-path="url(#pfadfa18247)" style="fill: none; stroke: #3f3f3f; stroke-width: 1.5; stroke-linecap: square"/>
   </g>
   <g id="line2d_15">
    <path d="M 190.288249 277.494474 
L 190.288249 263.202406 
" clip-path="url(#pfadfa18247)" style="fill: none; stroke: #3f3f3f; stroke-width: 4.5; stroke-linecap: square"/>
   </g>
   <g id="line2d_16">
    <path d="M 294.134581 283.470476 
L 294.134581 246.834056 
" clip-path="url(#pfadfa18247)" style="fill: none; stroke: #3f3f3f; stroke-width: 1.5; stroke-linecap: square"/>
   </g>
   <g id="line2d_17">
    <path d="M 294.134581 277.90754 
L 294.134581 265.411508 
" clip-path="url(#pfadfa18247)" style="fill: none; stroke: #3f3f3f; stroke-width: 4.5; stroke-linecap: square"/>
   </g>
   <g id="patch_5">
    <path d="M 34.51875 314.6 
L 34.51875 7.2 
" style="fill: none; stroke: #000000; stroke-width: 0.8; stroke-linejoin: miter; stroke-linecap: square"/>
   </g>
   <g id="patch_6">
    <path d="M 34.51875 314.6 
L 346.057747 314.6 
" style="fill: none; stroke: #000000; stroke-width: 0.8; stroke-linejoin: miter; stroke-linecap: square"/>
   </g>
   <g id="PathCollection_1">
    <defs>
     <path id="m8ca1a0844d" d="M 0 1.5 
C 0.397805 1.5 0.77937 1.341951 1.06066 1.06066 
C 1.341951 0.77937 1.5 0.397805 1.5 0 
C 1.5 -0.397805 1.341951 -0.77937 1.06066 -1.06066 
C 0.77937 -1.341951 0.397805 -1.5 0 -1.5 
C -0.397805 -1.5 -0.77937 -1.341951 -1.06066 -1.06066 
C -1.341951 -0.77937 -1.5 -0.397805 -1.5 0 
C -1.5 0.397805 -1.341951 0.77937 -1.06066 1.06066 
C -0.77937 1.341951 -0.397805 1.5 0 1.5 
z
" style="stroke: #3f3f3f"/>
    </defs>
    <g clip-path="url(#pfadfa18247)">
     <use xlink:href="#m8ca1a0844d" x="86.441916" y="261.3548" style="fill: #ffffff; stroke: #3f3f3f"/>
    </g>
   </g>
   <g id="PathCollection_2">
    <g clip-path="url(#pfadfa18247)">
     <use xlink:href="#m8ca1a0844d" x="190.288249" y="273.509077" style="fill: #ffffff; stroke: #3f3f3f"/>
    </g>
   </g>
   <g id="PathCollection_3">
    <g clip-path="url(#pfadfa18247)">
     <use xlink:href="#m8ca1a0844d" x="294.134581" y="272.852104" style="fill: #ffffff; stroke: #3f3f3f"/>
    </g>
   </g>
  </g>
  <g id="legend_1">
   <g id="text_14">
    <!-- dim -->
    <g transform="translate(362.306185 164.159375)scale(0.1 -0.1)">
     <defs>
      <path id="DejaVuSans-64" d="M 2906 2969 
L 2906 4863 
L 3481 4863 
L 3481 0 
L 2906 0 
L 2906 525 
Q 2725 213 2448 61 
Q 2172 -91 1784 -91 
Q 1150 -91 751 415 
Q 353 922 353 1747 
Q 353 2572 751 3078 
Q 1150 3584 1784 3584 
Q 2172 3584 2448 3432 
Q 2725 3281 2906 2969 
z
M 947 1747 
Q 947 1113 1208 752 
Q 1469 391 1925 391 
Q 2381 391 2643 752 
Q 2906 1113 2906 1747 
Q 2906 2381 2643 2742 
Q 2381 3103 1925 3103 
Q 1469 3103 1208 2742 
Q 947 2381 947 1747 
z
" transform="scale(0.015625)"/>
      <path id="DejaVuSans-69" d="M 603 3500 
L 1178 3500 
L 1178 0 
L 603 0 
L 603 3500 
z
M 603 4863 
L 1178 4863 
L 1178 4134 
L 603 4134 
L 603 4863 
z
" transform="scale(0.015625)"/>
      <path id="DejaVuSans-6d" d="M 3328 2828 
Q 3544 3216 3844 3400 
Q 4144 3584 4550 3584 
Q 5097 3584 5394 3201 
Q 5691 2819 5691 2113 
L 5691 0 
L 5113 0 
L 5113 2094 
Q 5113 2597 4934 2840 
Q 4756 3084 4391 3084 
Q 3944 3084 3684 2787 
Q 3425 2491 3425 1978 
L 3425 0 
L 2847 0 
L 2847 2094 
Q 2847 2600 2669 2842 
Q 2491 3084 2119 3084 
Q 1678 3084 1418 2786 
Q 1159 2488 1159 1978 
L 1159 0 
L 581 0 
L 581 3500 
L 1159 3500 
L 1159 2956 
Q 1356 3278 1631 3431 
Q 1906 3584 2284 3584 
Q 2666 3584 2933 3390 
Q 3200 3197 3328 2828 
z
" transform="scale(0.015625)"/>
     </defs>
     <use xlink:href="#DejaVuSans-64"/>
     <use xlink:href="#DejaVuSans-69" x="63.476562"/>
     <use xlink:href="#DejaVuSans-6d" x="91.259766"/>
    </g>
   </g>
   <g id="patch_7">
    <path d="M 351.38431 178.8375 
L 371.38431 178.8375 
L 371.38431 171.8375 
L 351.38431 171.8375 
z
" style="fill: #3274a1; stroke: #3f3f3f; stroke-width: 0.75; stroke-linejoin: miter"/>
   </g>
   <g id="text_15">
    <!-- 2d -->
    <g transform="translate(379.38431 178.8375)scale(0.1 -0.1)">
     <use xlink:href="#DejaVuSans-32"/>
     <use xlink:href="#DejaVuSans-64" x="63.623047"/>
    </g>
   </g>
   <g id="patch_8">
    <path d="M 351.38431 193.515625 
L 371.38431 193.515625 
L 371.38431 186.515625 
L 351.38431 186.515625 
z
" style="fill: #e1812c; stroke: #3f3f3f; stroke-width: 0.75; stroke-linejoin: miter"/>
   </g>
   <g id="text_16">
    <!-- 3d -->
    <g transform="translate(379.38431 193.515625)scale(0.1 -0.1)">
     <use xlink:href="#DejaVuSans-33"/>
     <use xlink:href="#DejaVuSans-64" x="63.623047"/>
    </g>
   </g>
  </g>
 </g>
 <defs>
  <clipPath id="pfadfa18247">
   <rect x="34.51875" y="7.2" width="311.538997" height="307.4"/>
  </clipPath>
 </defs>
</svg>
