<?xml version="1.0" encoding="utf-8" standalone="no"?>
<!DOCTYPE svg PUBLIC "-//W3C//DTD SVG 1.1//EN"
  "http://www.w3.org/Graphics/SVG/1.1/DTD/svg11.dtd">
<svg xmlns:xlink="http://www.w3.org/1999/xlink" width="397.844206pt" height="352.15625pt" viewBox="0 0 397.844206 352.15625" xmlns="http://www.w3.org/2000/svg" version="1.1">
 <metadata>
  <rdf:RDF xmlns:dc="http://purl.org/dc/elements/1.1/" xmlns:cc="http://creativecommons.org/ns#" xmlns:rdf="http://www.w3.org/1999/02/22-rdf-syntax-ns#">
   <cc:Work>
    <dc:type rdf:resource="http://purl.org/dc/dcmitype/StillImage"/>
    <dc:date>2022-03-25T10:19:02.682770</dc:date>
    <dc:format>image/svg+xml</dc:format>
    <dc:creator>
     <cc:Agent>
      <dc:title>Matplotlib v3.5.1, https://matplotlib.org/</dc:title>
     </cc:Agent>
    </dc:creator>
   </cc:Work>
  </rdf:RDF>
 </metadata>
 <defs>
  <style type="text/css">*{stroke-linejoin: round; stroke-linecap: butt}</style>
 </defs>
 <g id="figure_1">
  <g id="patch_1">
   <path d="M 0 352.15625 
L 397.844206 352.15625 
L 397.844206 0 
L 0 0 
L 0 352.15625 
z
" style="fill: none"/>
  </g>
  <g id="axes_1">
   <g id="patch_2">
    <path d="M 58.801563 314.6 
L 342.806706 314.6 
L 342.806706 7.2 
L 58.801563 7.2 
z
" style="fill: #ffffff"/>
   </g>
   <g id="patch_3">
    <path d="M 106.135753 278.407907 
L 106.135753 278.407907 
L 106.135753 278.407907 
L 106.135753 278.407907 
z
" clip-path="url(#p057a3a09d9)" style="fill: #3274a1; stroke: #3f3f3f; stroke-width: 0.75; stroke-linejoin: miter"/>
   </g>
   <g id="PolyCollection_1">
    <defs>
     <path id="m7b3064c1cf" d="M 106.135753 -76.350888 
L 105.227998 -76.350888 
L 104.664638 -76.728076 
L 103.843796 -77.105264 
L 102.701167 -77.482452 
L 101.182188 -77.859639 
L 99.254705 -78.236827 
L 96.921456 -78.614015 
L 94.229071 -78.991203 
L 91.270344 -79.368391 
L 88.177663 -79.745579 
L 85.107592 -80.122766 
L 82.219073 -80.499954 
L 79.649745 -80.877142 
L 77.495611 -81.25433 
L 75.798559 -81.631518 
L 74.544114 -82.008706 
L 73.669209 -82.385893 
L 73.077427 -82.763081 
L 72.657949 -83.140269 
L 72.304341 -83.517457 
L 71.930231 -83.894645 
L 71.480123 -84.271833 
L 70.934775 -84.64902 
L 70.31123 -85.026208 
L 69.658057 -85.403396 
L 69.046603 -85.780584 
L 68.559431 -86.157772 
L 68.277552 -86.53496 
L 68.268401 -86.912147 
L 68.576545 -87.289335 
L 69.218692 -87.666523 
L 70.183657 -88.043711 
L 71.43687 -88.420899 
L 72.927984 -88.798087 
L 74.599562 -89.175274 
L 76.394785 -89.552462 
L 78.262732 -89.92965 
L 80.160662 -90.306838 
L 82.053713 -90.684026 
L 83.913104 -91.061214 
L 85.714079 -91.438401 
L 87.434531 -91.815589 
L 89.054613 -92.192777 
L 90.557065 -92.569965 
L 91.927653 -92.947153 
L 93.155214 -93.324341 
L 94.231177 -93.701528 
L 95.148866 -94.078716 
L 95.90313 -94.455904 
L 96.49081 -94.833092 
L 96.912166 -95.21028 
L 97.17298 -95.587468 
L 97.286674 -95.964655 
L 97.275689 -96.341843 
L 97.171512 -96.719031 
L 97.013073 -97.096219 
L 96.843611 -97.473407 
L 96.706421 -97.850595 
L 96.640159 -98.227782 
L 96.674427 -98.60497 
L 96.82641 -98.982158 
L 97.09917 -99.359346 
L 97.481967 -99.736534 
L 97.952624 -100.113722 
L 98.481562 -100.490909 
L 99.036767 -100.868097 
L 99.588759 -101.245285 
L 100.114626 -101.622473 
L 100.600416 -101.999661 
L 101.041579 -102.376849 
L 101.44159 -102.754036 
L 101.80926 -103.131224 
L 102.155515 -103.508412 
L 102.490385 -103.8856 
L 102.820848 -104.262788 
L 103.149818 -104.639976 
L 103.476251 -105.017163 
L 103.796082 -105.394351 
L 104.103537 -105.771539 
L 104.39243 -106.148727 
L 104.657163 -106.525915 
L 104.893353 -106.903103 
L 105.098162 -107.28029 
L 105.270446 -107.657478 
L 105.410834 -108.034666 
L 105.521718 -108.411854 
L 105.607108 -108.789042 
L 105.672252 -109.16623 
L 105.723023 -109.543417 
L 105.765136 -109.920605 
L 105.80338 -110.297793 
L 105.841041 -110.674981 
L 105.879666 -111.052169 
L 105.919216 -111.429357 
L 105.958511 -111.806544 
L 105.995827 -112.183732 
L 106.02948 -112.56092 
L 106.058234 -112.938108 
L 106.081509 -113.315296 
L 106.099367 -113.692484 
L 106.135753 -113.692484 
L 106.135753 -113.692484 
L 106.135753 -113.315296 
L 106.135753 -112.938108 
L 106.135753 -112.56092 
L 106.135753 -112.183732 
L 106.135753 -111.806544 
L 106.135753 -111.429357 
L 106.135753 -111.052169 
L 106.135753 -110.674981 
L 106.135753 -110.297793 
L 106.135753 -109.920605 
L 106.135753 -109.543417 
L 106.135753 -109.16623 
L 106.135753 -108.789042 
L 106.135753 -108.411854 
L 106.135753 -108.034666 
L 106.135753 -107.657478 
L 106.135753 -107.28029 
L 106.135753 -106.903103 
L 106.135753 -106.525915 
L 106.135753 -106.148727 
L 106.135753 -105.771539 
L 106.135753 -105.394351 
L 106.135753 -105.017163 
L 106.135753 -104.639976 
L 106.135753 -104.262788 
L 106.135753 -103.8856 
L 106.135753 -103.508412 
L 106.135753 -103.131224 
L 106.135753 -102.754036 
L 106.135753 -102.376849 
L 106.135753 -101.999661 
L 106.135753 -101.622473 
L 106.135753 -101.245285 
L 106.135753 -100.868097 
L 106.135753 -100.490909 
L 106.135753 -100.113722 
L 106.135753 -99.736534 
L 106.135753 -99.359346 
L 106.135753 -98.982158 
L 106.135753 -98.60497 
L 106.135753 -98.227782 
L 106.135753 -97.850595 
L 106.135753 -97.473407 
L 106.135753 -97.096219 
L 106.135753 -96.719031 
L 106.135753 -96.341843 
L 106.135753 -95.964655 
L 106.135753 -95.587468 
L 106.135753 -95.21028 
L 106.135753 -94.833092 
L 106.135753 -94.455904 
L 106.135753 -94.078716 
L 106.135753 -93.701528 
L 106.135753 -93.324341 
L 106.135753 -92.947153 
L 106.135753 -92.569965 
L 106.135753 -92.192777 
L 106.135753 -91.815589 
L 106.135753 -91.438401 
L 106.135753 -91.061214 
L 106.135753 -90.684026 
L 106.135753 -90.306838 
L 106.135753 -89.92965 
L 106.135753 -89.552462 
L 106.135753 -89.175274 
L 106.135753 -88.798087 
L 106.135753 -88.420899 
L 106.135753 -88.043711 
L 106.135753 -87.666523 
L 106.135753 -87.289335 
L 106.135753 -86.912147 
L 106.135753 -86.53496 
L 106.135753 -86.157772 
L 106.135753 -85.780584 
L 106.135753 -85.403396 
L 106.135753 -85.026208 
L 106.135753 -84.64902 
L 106.135753 -84.271833 
L 106.135753 -83.894645 
L 106.135753 -83.517457 
L 106.135753 -83.140269 
L 106.135753 -82.763081 
L 106.135753 -82.385893 
L 106.135753 -82.008706 
L 106.135753 -81.631518 
L 106.135753 -81.25433 
L 106.135753 -80.877142 
L 106.135753 -80.499954 
L 106.135753 -80.122766 
L 106.135753 -79.745579 
L 106.135753 -79.368391 
L 106.135753 -78.991203 
L 106.135753 -78.614015 
L 106.135753 -78.236827 
L 106.135753 -77.859639 
L 106.135753 -77.482452 
L 106.135753 -77.105264 
L 106.135753 -76.728076 
L 106.135753 -76.350888 
z
" style="stroke: #3f3f3f; stroke-width: 1.5"/>
    </defs>
    <g clip-path="url(#p057a3a09d9)">
     <use xlink:href="#m7b3064c1cf" x="0" y="352.15625" style="fill: #3274a1; stroke: #3f3f3f; stroke-width: 1.5"/>
    </g>
   </g>
   <g id="patch_4">
    <path d="M 106.135753 278.407907 
L 106.135753 278.407907 
L 106.135753 278.407907 
L 106.135753 278.407907 
z
" clip-path="url(#p057a3a09d9)" style="fill: #e1812c; stroke: #3f3f3f; stroke-width: 0.75; stroke-linejoin: miter"/>
   </g>
   <g id="PolyCollection_2">
    <defs>
     <path id="m1843159d25" d="M 106.268741 -72.18632 
L 106.135753 -72.18632 
L 106.135753 -73.291843 
L 106.135753 -74.397366 
L 106.135753 -75.502889 
L 106.135753 -76.608412 
L 106.135753 -77.713935 
L 106.135753 -78.819458 
L 106.135753 -79.924981 
L 106.135753 -81.030504 
L 106.135753 -82.136027 
L 106.135753 -83.24155 
L 106.135753 -84.347073 
L 106.135753 -85.452596 
L 106.135753 -86.558119 
L 106.135753 -87.663642 
L 106.135753 -88.769165 
L 106.135753 -89.874688 
L 106.135753 -90.980211 
L 106.135753 -92.085734 
L 106.135753 -93.191257 
L 106.135753 -94.29678 
L 106.135753 -95.402303 
L 106.135753 -96.507826 
L 106.135753 -97.613349 
L 106.135753 -98.718872 
L 106.135753 -99.824395 
L 106.135753 -100.929918 
L 106.135753 -102.035441 
L 106.135753 -103.140964 
L 106.135753 -104.246487 
L 106.135753 -105.35201 
L 106.135753 -106.457533 
L 106.135753 -107.563056 
L 106.135753 -108.668579 
L 106.135753 -109.774102 
L 106.135753 -110.879625 
L 106.135753 -111.985148 
L 106.135753 -113.090671 
L 106.135753 -114.196194 
L 106.135753 -115.301717 
L 106.135753 -116.40724 
L 106.135753 -117.512763 
L 106.135753 -118.618286 
L 106.135753 -119.723809 
L 106.135753 -120.829332 
L 106.135753 -121.934855 
L 106.135753 -123.040378 
L 106.135753 -124.145901 
L 106.135753 -125.251424 
L 106.135753 -126.356947 
L 106.135753 -127.46247 
L 106.135753 -128.567993 
L 106.135753 -129.673516 
L 106.135753 -130.779039 
L 106.135753 -131.884562 
L 106.135753 -132.990085 
L 106.135753 -134.095608 
L 106.135753 -135.201131 
L 106.135753 -136.306654 
L 106.135753 -137.412177 
L 106.135753 -138.5177 
L 106.135753 -139.623223 
L 106.135753 -140.728746 
L 106.135753 -141.834269 
L 106.135753 -142.939792 
L 106.135753 -144.045315 
L 106.135753 -145.150838 
L 106.135753 -146.256361 
L 106.135753 -147.361884 
L 106.135753 -148.467407 
L 106.135753 -149.57293 
L 106.135753 -150.678453 
L 106.135753 -151.783976 
L 106.135753 -152.889499 
L 106.135753 -153.995022 
L 106.135753 -155.100545 
L 106.135753 -156.206068 
L 106.135753 -157.311591 
L 106.135753 -158.417114 
L 106.135753 -159.522637 
L 106.135753 -160.62816 
L 106.135753 -161.733683 
L 106.135753 -162.839206 
L 106.135753 -163.944729 
L 106.135753 -165.050252 
L 106.135753 -166.155775 
L 106.135753 -167.261298 
L 106.135753 -168.366821 
L 106.135753 -169.472344 
L 106.135753 -170.577867 
L 106.135753 -171.68339 
L 106.135753 -172.788913 
L 106.135753 -173.894436 
L 106.135753 -174.999959 
L 106.135753 -176.105482 
L 106.135753 -177.211005 
L 106.135753 -178.316528 
L 106.135753 -179.422051 
L 106.135753 -180.527574 
L 106.135753 -181.633097 
L 106.154984 -181.633097 
L 106.154984 -181.633097 
L 106.170745 -180.527574 
L 106.19301 -179.422051 
L 106.220003 -178.316528 
L 106.247236 -177.211005 
L 106.268414 -176.105482 
L 106.27772 -174.999959 
L 106.272395 -173.894436 
L 106.254093 -172.788913 
L 106.228147 -171.68339 
L 106.201284 -170.577867 
L 106.179265 -169.472344 
L 106.165705 -168.366821 
L 106.162228 -167.261298 
L 106.169168 -166.155775 
L 106.185825 -165.050252 
L 106.209981 -163.944729 
L 106.237265 -162.839206 
L 106.261388 -161.733683 
L 106.275795 -160.62816 
L 106.276184 -159.522637 
L 106.262401 -158.417114 
L 106.238468 -157.311591 
L 106.210668 -156.206068 
L 106.18489 -155.100545 
L 106.164743 -153.995022 
L 106.151161 -152.889499 
L 106.143216 -151.783976 
L 106.139318 -150.678453 
L 106.138181 -149.57293 
L 106.139337 -148.467407 
L 106.14331 -147.361884 
L 106.151536 -146.256361 
L 106.166011 -145.150838 
L 106.188653 -144.045315 
L 106.220602 -142.939792 
L 106.262 -141.834269 
L 106.312654 -140.728746 
L 106.373257 -139.623223 
L 106.445884 -138.5177 
L 106.532476 -137.412177 
L 106.631502 -136.306654 
L 106.735019 -135.201131 
L 106.828982 -134.095608 
L 106.897834 -132.990085 
L 106.931465 -131.884562 
L 106.93081 -130.779039 
L 106.908974 -129.673516 
L 106.887065 -128.567993 
L 106.886484 -127.46247 
L 106.921126 -126.356947 
L 106.993179 -125.251424 
L 107.094528 -124.145901 
L 107.212771 -123.040378 
L 107.338214 -121.934855 
L 107.467814 -120.829332 
L 107.604331 -119.723809 
L 107.752251 -118.618286 
L 107.914054 -117.512763 
L 108.089899 -116.40724 
L 108.281247 -115.301717 
L 108.49602 -114.196194 
L 108.751397 -113.090671 
L 109.071395 -111.985148 
L 109.479744 -110.879625 
L 109.992096 -109.774102 
L 110.612291 -108.668579 
L 111.334213 -107.563056 
L 112.146326 -106.457533 
L 113.03497 -105.35201 
L 113.986008 -104.246487 
L 114.988137 -103.140964 
L 116.039547 -102.035441 
L 117.153177 -100.929918 
L 118.352156 -99.824395 
L 119.652323 -98.718872 
L 121.040426 -97.613349 
L 122.464044 -96.507826 
L 123.844544 -95.402303 
L 125.109633 -94.29678 
L 126.227603 -93.191257 
L 127.220871 -92.085734 
L 128.144963 -90.980211 
L 129.036621 -89.874688 
L 129.853495 -88.769165 
L 130.438712 -87.663642 
L 130.538905 -86.558119 
L 129.881943 -85.452596 
L 128.288395 -84.347073 
L 125.766207 -83.24155 
L 122.53909 -82.136027 
L 118.989945 -81.030504 
L 115.544622 -79.924981 
L 112.550544 -78.819458 
L 110.201242 -77.713935 
L 108.527401 -76.608412 
L 107.440227 -75.502889 
L 106.794728 -74.397366 
L 106.443727 -73.291843 
L 106.268741 -72.18632 
z
" style="stroke: #3f3f3f; stroke-width: 1.5"/>
    </defs>
    <g clip-path="url(#p057a3a09d9)">
     <use xlink:href="#m1843159d25" x="0" y="352.15625" style="fill: #e1812c; stroke: #3f3f3f; stroke-width: 1.5"/>
    </g>
   </g>
   <g id="PolyCollection_3">
    <defs>
     <path id="m6f9bfd862e" d="M 200.804134 -70.209661 
L 200.236396 -70.209661 
L 199.826129 -71.648237 
L 199.190716 -73.086812 
L 198.252507 -74.525388 
L 196.931328 -75.963964 
L 195.156535 -77.40254 
L 192.882093 -78.841116 
L 190.10215 -80.279692 
L 186.863587 -81.718268 
L 183.271738 -83.156844 
L 179.486339 -84.595419 
L 175.706644 -86.033995 
L 172.147365 -87.472571 
L 169.009801 -88.911147 
L 166.454345 -90.349723 
L 164.580592 -91.788299 
L 163.419275 -93.226875 
L 162.936782 -94.665451 
L 163.049329 -96.104026 
L 163.641523 -97.542602 
L 164.583857 -98.981178 
L 165.745626 -100.419754 
L 167.002615 -101.85833 
L 168.24126 -103.296906 
L 169.361876 -104.735482 
L 170.282782 -106.174058 
L 170.945587 -107.612633 
L 171.320431 -109.051209 
L 171.409408 -110.489785 
L 171.246677 -111.928361 
L 170.894661 -113.366937 
L 170.436571 -114.805513 
L 169.966179 -116.244089 
L 169.576182 -117.682664 
L 169.34678 -119.12124 
L 169.33625 -120.559816 
L 169.575116 -121.998392 
L 170.064997 -123.436968 
L 170.782203 -124.875544 
L 171.685047 -126.31412 
L 172.722996 -127.752696 
L 173.845484 -129.191271 
L 175.008635 -130.629847 
L 176.179065 -132.068423 
L 177.334974 -133.506999 
L 178.465476 -134.945575 
L 179.569273 -136.384151 
L 180.65335 -137.822727 
L 181.731653 -139.261303 
L 182.82317 -140.699878 
L 183.948778 -142.138454 
L 185.126826 -143.57703 
L 186.36821 -145.015606 
L 187.672379 -146.454182 
L 189.025666 -147.892758 
L 190.40265 -149.331334 
L 191.770203 -150.76991 
L 193.092899 -152.208485 
L 194.338167 -153.647061 
L 195.479872 -155.085637 
L 196.499827 -156.524213 
L 197.387539 -157.962789 
L 198.139003 -159.401365 
L 198.755388 -160.839941 
L 199.242138 -162.278517 
L 199.608546 -163.717092 
L 199.867535 -165.155668 
L 200.035244 -166.594244 
L 200.130141 -168.03282 
L 200.171619 -169.471396 
L 200.178282 -170.909972 
L 200.16627 -172.348548 
L 200.147985 -173.787124 
L 200.131468 -175.225699 
L 200.120479 -176.664275 
L 200.115161 -178.102851 
L 200.11304 -179.541427 
L 200.110106 -180.980003 
L 200.101795 -182.418579 
L 200.083837 -183.857155 
L 200.053009 -185.29573 
L 200.007872 -186.734306 
L 199.94946 -188.172882 
L 199.881772 -189.611458 
L 199.811816 -191.050034 
L 199.748988 -192.48861 
L 199.703734 -193.927186 
L 199.68569 -195.365762 
L 199.701718 -196.804337 
L 199.75436 -198.242913 
L 199.841158 -199.681489 
L 199.955054 -201.120065 
L 200.085758 -202.558641 
L 200.221724 -203.997217 
L 200.352186 -205.435793 
L 200.468772 -206.874369 
L 200.566371 -208.312944 
L 200.643195 -209.75152 
L 200.700194 -211.190096 
L 200.740124 -212.628672 
L 200.804134 -212.628672 
L 200.804134 -212.628672 
L 200.804134 -211.190096 
L 200.804134 -209.75152 
L 200.804134 -208.312944 
L 200.804134 -206.874369 
L 200.804134 -205.435793 
L 200.804134 -203.997217 
L 200.804134 -202.558641 
L 200.804134 -201.120065 
L 200.804134 -199.681489 
L 200.804134 -198.242913 
L 200.804134 -196.804337 
L 200.804134 -195.365762 
L 200.804134 -193.927186 
L 200.804134 -192.48861 
L 200.804134 -191.050034 
L 200.804134 -189.611458 
L 200.804134 -188.172882 
L 200.804134 -186.734306 
L 200.804134 -185.29573 
L 200.804134 -183.857155 
L 200.804134 -182.418579 
L 200.804134 -180.980003 
L 200.804134 -179.541427 
L 200.804134 -178.102851 
L 200.804134 -176.664275 
L 200.804134 -175.225699 
L 200.804134 -173.787124 
L 200.804134 -172.348548 
L 200.804134 -170.909972 
L 200.804134 -169.471396 
L 200.804134 -168.03282 
L 200.804134 -166.594244 
L 200.804134 -165.155668 
L 200.804134 -163.717092 
L 200.804134 -162.278517 
L 200.804134 -160.839941 
L 200.804134 -159.401365 
L 200.804134 -157.962789 
L 200.804134 -156.524213 
L 200.804134 -155.085637 
L 200.804134 -153.647061 
L 200.804134 -152.208485 
L 200.804134 -150.76991 
L 200.804134 -149.331334 
L 200.804134 -147.892758 
L 200.804134 -146.454182 
L 200.804134 -145.015606 
L 200.804134 -143.57703 
L 200.804134 -142.138454 
L 200.804134 -140.699878 
L 200.804134 -139.261303 
L 200.804134 -137.822727 
L 200.804134 -136.384151 
L 200.804134 -134.945575 
L 200.804134 -133.506999 
L 200.804134 -132.068423 
L 200.804134 -130.629847 
L 200.804134 -129.191271 
L 200.804134 -127.752696 
L 200.804134 -126.31412 
L 200.804134 -124.875544 
L 200.804134 -123.436968 
L 200.804134 -121.998392 
L 200.804134 -120.559816 
L 200.804134 -119.12124 
L 200.804134 -117.682664 
L 200.804134 -116.244089 
L 200.804134 -114.805513 
L 200.804134 -113.366937 
L 200.804134 -111.928361 
L 200.804134 -110.489785 
L 200.804134 -109.051209 
L 200.804134 -107.612633 
L 200.804134 -106.174058 
L 200.804134 -104.735482 
L 200.804134 -103.296906 
L 200.804134 -101.85833 
L 200.804134 -100.419754 
L 200.804134 -98.981178 
L 200.804134 -97.542602 
L 200.804134 -96.104026 
L 200.804134 -94.665451 
L 200.804134 -93.226875 
L 200.804134 -91.788299 
L 200.804134 -90.349723 
L 200.804134 -88.911147 
L 200.804134 -87.472571 
L 200.804134 -86.033995 
L 200.804134 -84.595419 
L 200.804134 -83.156844 
L 200.804134 -81.718268 
L 200.804134 -80.279692 
L 200.804134 -78.841116 
L 200.804134 -77.40254 
L 200.804134 -75.963964 
L 200.804134 -74.525388 
L 200.804134 -73.086812 
L 200.804134 -71.648237 
L 200.804134 -70.209661 
z
" style="stroke: #3f3f3f; stroke-width: 1.5"/>
    </defs>
    <g clip-path="url(#p057a3a09d9)">
     <use xlink:href="#m6f9bfd862e" x="0" y="352.15625" style="fill: #3274a1; stroke: #3f3f3f; stroke-width: 1.5"/>
    </g>
   </g>
   <g id="PolyCollection_4">
    <defs>
     <path id="ma8c2ab0ecf" d="M 201.36979 -51.528977 
L 200.804134 -51.528977 
L 200.804134 -54.35175 
L 200.804134 -57.174524 
L 200.804134 -59.997297 
L 200.804134 -62.82007 
L 200.804134 -65.642843 
L 200.804134 -68.465616 
L 200.804134 -71.28839 
L 200.804134 -74.111163 
L 200.804134 -76.933936 
L 200.804134 -79.756709 
L 200.804134 -82.579482 
L 200.804134 -85.402256 
L 200.804134 -88.225029 
L 200.804134 -91.047802 
L 200.804134 -93.870575 
L 200.804134 -96.693348 
L 200.804134 -99.516121 
L 200.804134 -102.338895 
L 200.804134 -105.161668 
L 200.804134 -107.984441 
L 200.804134 -110.807214 
L 200.804134 -113.629987 
L 200.804134 -116.452761 
L 200.804134 -119.275534 
L 200.804134 -122.098307 
L 200.804134 -124.92108 
L 200.804134 -127.743853 
L 200.804134 -130.566626 
L 200.804134 -133.3894 
L 200.804134 -136.212173 
L 200.804134 -139.034946 
L 200.804134 -141.857719 
L 200.804134 -144.680492 
L 200.804134 -147.503266 
L 200.804134 -150.326039 
L 200.804134 -153.148812 
L 200.804134 -155.971585 
L 200.804134 -158.794358 
L 200.804134 -161.617132 
L 200.804134 -164.439905 
L 200.804134 -167.262678 
L 200.804134 -170.085451 
L 200.804134 -172.908224 
L 200.804134 -175.730997 
L 200.804134 -178.553771 
L 200.804134 -181.376544 
L 200.804134 -184.199317 
L 200.804134 -187.02209 
L 200.804134 -189.844863 
L 200.804134 -192.667637 
L 200.804134 -195.49041 
L 200.804134 -198.313183 
L 200.804134 -201.135956 
L 200.804134 -203.958729 
L 200.804134 -206.781503 
L 200.804134 -209.604276 
L 200.804134 -212.427049 
L 200.804134 -215.249822 
L 200.804134 -218.072595 
L 200.804134 -220.895368 
L 200.804134 -223.718142 
L 200.804134 -226.540915 
L 200.804134 -229.363688 
L 200.804134 -232.186461 
L 200.804134 -235.009234 
L 200.804134 -237.832008 
L 200.804134 -240.654781 
L 200.804134 -243.477554 
L 200.804134 -246.300327 
L 200.804134 -249.1231 
L 200.804134 -251.945874 
L 200.804134 -254.768647 
L 200.804134 -257.59142 
L 200.804134 -260.414193 
L 200.804134 -263.236966 
L 200.804134 -266.059739 
L 200.804134 -268.882513 
L 200.804134 -271.705286 
L 200.804134 -274.528059 
L 200.804134 -277.350832 
L 200.804134 -280.173605 
L 200.804134 -282.996379 
L 200.804134 -285.819152 
L 200.804134 -288.641925 
L 200.804134 -291.464698 
L 200.804134 -294.287471 
L 200.804134 -297.110244 
L 200.804134 -299.933018 
L 200.804134 -302.755791 
L 200.804134 -305.578564 
L 200.804134 -308.401337 
L 200.804134 -311.22411 
L 200.804134 -314.046884 
L 200.804134 -316.869657 
L 200.804134 -319.69243 
L 200.804134 -322.515203 
L 200.804134 -325.337976 
L 200.804134 -328.16075 
L 200.804134 -330.983523 
L 200.84813 -330.983523 
L 200.84813 -330.983523 
L 200.877329 -328.16075 
L 200.918974 -325.337976 
L 200.974326 -322.515203 
L 201.042841 -319.69243 
L 201.121769 -316.869657 
L 201.20632 -314.046884 
L 201.290453 -311.22411 
L 201.368103 -308.401337 
L 201.434418 -305.578564 
L 201.486602 -302.755791 
L 201.52409 -299.933018 
L 201.548078 -297.110244 
L 201.560655 -294.287471 
L 201.563858 -291.464698 
L 201.558974 -288.641925 
L 201.54623 -285.819152 
L 201.524927 -282.996379 
L 201.493942 -280.173605 
L 201.452486 -277.350832 
L 201.400915 -274.528059 
L 201.341391 -271.705286 
L 201.278124 -268.882513 
L 201.21703 -266.059739 
L 201.164745 -263.236966 
L 201.127198 -260.414193 
L 201.108143 -257.59142 
L 201.108127 -254.768647 
L 201.124326 -251.945874 
L 201.151358 -249.1231 
L 201.182904 -246.300327 
L 201.213619 -243.477554 
L 201.240763 -240.654781 
L 201.265062 -237.832008 
L 201.290597 -235.009234 
L 201.323828 -232.186461 
L 201.372076 -229.363688 
L 201.441839 -226.540915 
L 201.537314 -223.718142 
L 201.659432 -220.895368 
L 201.805651 -218.072595 
L 201.970684 -215.249822 
L 202.148125 -212.427049 
L 202.332687 -209.604276 
L 202.522452 -206.781503 
L 202.720473 -203.958729 
L 202.935142 -201.135956 
L 203.179151 -198.313183 
L 203.467378 -195.49041 
L 203.814449 -192.667637 
L 204.232967 -189.844863 
L 204.733161 -187.02209 
L 205.324104 -184.199317 
L 206.015809 -181.376544 
L 206.820835 -178.553771 
L 207.753881 -175.730997 
L 208.82843 -172.908224 
L 210.050765 -170.085451 
L 211.413071 -167.262678 
L 212.888318 -164.439905 
L 214.429635 -161.617132 
L 215.975615 -158.794358 
L 217.460921 -155.971585 
L 218.829317 -153.148812 
L 220.044895 -150.326039 
L 221.097526 -147.503266 
L 222.000403 -144.680492 
L 222.780302 -141.857719 
L 223.463876 -139.034946 
L 224.064779 -136.212173 
L 224.576301 -133.3894 
L 224.972286 -130.566626 
L 225.216087 -127.743853 
L 225.274068 -124.92108 
L 225.128121 -122.098307 
L 224.78184 -119.275534 
L 224.257692 -116.452761 
L 223.586613 -113.629987 
L 222.795021 -110.807214 
L 221.895366 -107.984441 
L 220.884667 -105.161668 
L 219.751726 -102.338895 
L 218.489925 -99.516121 
L 217.110055 -96.693348 
L 215.647455 -93.870575 
L 214.159611 -91.047802 
L 212.713902 -88.225029 
L 211.369247 -85.402256 
L 210.158684 -82.579482 
L 209.080483 -79.756709 
L 208.102424 -76.933936 
L 207.178052 -74.111163 
L 206.26797 -71.28839 
L 205.356723 -68.465616 
L 204.458206 -65.642843 
L 203.608381 -62.82007 
L 202.850046 -59.997297 
L 202.217209 -57.174524 
L 201.725337 -54.35175 
L 201.36979 -51.528977 
z
" style="stroke: #3f3f3f; stroke-width: 1.5"/>
    </defs>
    <g clip-path="url(#p057a3a09d9)">
     <use xlink:href="#ma8c2ab0ecf" x="0" y="352.15625" style="fill: #e1812c; stroke: #3f3f3f; stroke-width: 1.5"/>
    </g>
   </g>
   <g id="PolyCollection_5">
    <defs>
     <path id="m1144704078" d="M 295.472515 -74.101301 
L 294.688541 -74.101301 
L 294.30421 -74.569803 
L 293.789144 -75.038305 
L 293.125943 -75.506807 
L 292.30533 -75.975308 
L 291.328931 -76.44381 
L 290.21017 -76.912312 
L 288.972411 -77.380814 
L 287.64408 -77.849315 
L 286.251396 -78.317817 
L 284.810342 -78.786319 
L 283.320226 -79.25482 
L 281.761219 -79.723322 
L 280.097582 -80.191824 
L 278.286794 -80.660326 
L 276.293053 -81.128827 
L 274.101996 -81.597329 
L 271.73276 -82.065831 
L 269.243805 -82.534333 
L 266.730411 -83.002834 
L 264.313907 -83.471336 
L 262.124905 -83.939838 
L 260.284352 -84.40834 
L 258.886687 -84.876841 
L 257.988589 -85.345343 
L 257.605163 -85.813845 
L 257.713365 -86.282346 
L 258.260733 -86.750848 
L 259.176537 -87.21935 
L 260.382397 -87.687852 
L 261.800259 -88.156353 
L 263.356787 -88.624855 
L 264.984534 -89.093357 
L 266.621125 -89.561859 
L 268.208014 -90.03036 
L 269.690204 -90.498862 
L 271.017703 -90.967364 
L 272.148751 -91.435866 
L 273.054148 -91.904367 
L 273.721585 -92.372869 
L 274.158734 -92.841371 
L 274.394051 -93.309872 
L 274.474716 -93.778374 
L 274.461715 -94.246876 
L 274.422664 -94.715378 
L 274.423495 -95.183879 
L 274.520345 -95.652381 
L 274.753042 -96.120883 
L 275.141255 -96.589385 
L 275.683926 -97.057886 
L 276.361952 -97.526388 
L 277.143474 -97.99489 
L 277.990618 -98.463392 
L 278.866317 -98.931893 
L 279.739876 -99.400395 
L 280.590344 -99.868897 
L 281.407295 -100.337398 
L 282.189268 -100.8059 
L 282.940623 -101.274402 
L 283.667857 -101.742904 
L 284.376355 -102.211405 
L 285.068342 -102.679907 
L 285.742281 -103.148409 
L 286.393607 -103.616911 
L 287.016296 -104.085412 
L 287.604654 -104.553914 
L 288.154791 -105.022416 
L 288.665407 -105.490918 
L 289.137804 -105.959419 
L 289.575284 -106.427921 
L 289.982225 -106.896423 
L 290.363173 -107.364924 
L 290.722196 -107.833426 
L 291.062629 -108.301928 
L 291.387136 -108.77043 
L 291.69795 -109.238931 
L 291.997075 -109.707433 
L 292.286315 -110.175935 
L 292.567089 -110.644437 
L 292.84011 -111.112938 
L 293.10508 -111.58144 
L 293.360583 -112.049942 
L 293.604255 -112.518444 
L 293.833245 -112.986945 
L 294.044834 -113.455447 
L 294.237042 -113.923949 
L 294.409051 -114.39245 
L 294.561313 -114.860952 
L 294.695362 -115.329454 
L 294.813381 -115.797956 
L 294.917696 -116.266457 
L 295.010337 -116.734959 
L 295.092769 -117.203461 
L 295.165837 -117.671963 
L 295.229901 -118.140464 
L 295.285066 -118.608966 
L 295.331436 -119.077468 
L 295.369303 -119.54597 
L 295.399242 -120.014471 
L 295.422104 -120.482973 
L 295.472515 -120.482973 
L 295.472515 -120.482973 
L 295.472515 -120.014471 
L 295.472515 -119.54597 
L 295.472515 -119.077468 
L 295.472515 -118.608966 
L 295.472515 -118.140464 
L 295.472515 -117.671963 
L 295.472515 -117.203461 
L 295.472515 -116.734959 
L 295.472515 -116.266457 
L 295.472515 -115.797956 
L 295.472515 -115.329454 
L 295.472515 -114.860952 
L 295.472515 -114.39245 
L 295.472515 -113.923949 
L 295.472515 -113.455447 
L 295.472515 -112.986945 
L 295.472515 -112.518444 
L 295.472515 -112.049942 
L 295.472515 -111.58144 
L 295.472515 -111.112938 
L 295.472515 -110.644437 
L 295.472515 -110.175935 
L 295.472515 -109.707433 
L 295.472515 -109.238931 
L 295.472515 -108.77043 
L 295.472515 -108.301928 
L 295.472515 -107.833426 
L 295.472515 -107.364924 
L 295.472515 -106.896423 
L 295.472515 -106.427921 
L 295.472515 -105.959419 
L 295.472515 -105.490918 
L 295.472515 -105.022416 
L 295.472515 -104.553914 
L 295.472515 -104.085412 
L 295.472515 -103.616911 
L 295.472515 -103.148409 
L 295.472515 -102.679907 
L 295.472515 -102.211405 
L 295.472515 -101.742904 
L 295.472515 -101.274402 
L 295.472515 -100.8059 
L 295.472515 -100.337398 
L 295.472515 -99.868897 
L 295.472515 -99.400395 
L 295.472515 -98.931893 
L 295.472515 -98.463392 
L 295.472515 -97.99489 
L 295.472515 -97.526388 
L 295.472515 -97.057886 
L 295.472515 -96.589385 
L 295.472515 -96.120883 
L 295.472515 -95.652381 
L 295.472515 -95.183879 
L 295.472515 -94.715378 
L 295.472515 -94.246876 
L 295.472515 -93.778374 
L 295.472515 -93.309872 
L 295.472515 -92.841371 
L 295.472515 -92.372869 
L 295.472515 -91.904367 
L 295.472515 -91.435866 
L 295.472515 -90.967364 
L 295.472515 -90.498862 
L 295.472515 -90.03036 
L 295.472515 -89.561859 
L 295.472515 -89.093357 
L 295.472515 -88.624855 
L 295.472515 -88.156353 
L 295.472515 -87.687852 
L 295.472515 -87.21935 
L 295.472515 -86.750848 
L 295.472515 -86.282346 
L 295.472515 -85.813845 
L 295.472515 -85.345343 
L 295.472515 -84.876841 
L 295.472515 -84.40834 
L 295.472515 -83.939838 
L 295.472515 -83.471336 
L 295.472515 -83.002834 
L 295.472515 -82.534333 
L 295.472515 -82.065831 
L 295.472515 -81.597329 
L 295.472515 -81.128827 
L 295.472515 -80.660326 
L 295.472515 -80.191824 
L 295.472515 -79.723322 
L 295.472515 -79.25482 
L 295.472515 -78.786319 
L 295.472515 -78.317817 
L 295.472515 -77.849315 
L 295.472515 -77.380814 
L 295.472515 -76.912312 
L 295.472515 -76.44381 
L 295.472515 -75.975308 
L 295.472515 -75.506807 
L 295.472515 -75.038305 
L 295.472515 -74.569803 
L 295.472515 -74.101301 
z
" style="stroke: #3f3f3f; stroke-width: 1.5"/>
    </defs>
    <g clip-path="url(#p057a3a09d9)">
     <use xlink:href="#m1144704078" x="0" y="352.15625" style="fill: #3274a1; stroke: #3f3f3f; stroke-width: 1.5"/>
    </g>
   </g>
   <g id="PolyCollection_6">
    <defs>
     <path id="m5061e5a9b4" d="M 295.777237 -64.347349 
L 295.472515 -64.347349 
L 295.472515 -65.76397 
L 295.472515 -67.18059 
L 295.472515 -68.597211 
L 295.472515 -70.013831 
L 295.472515 -71.430452 
L 295.472515 -72.847073 
L 295.472515 -74.263693 
L 295.472515 -75.680314 
L 295.472515 -77.096934 
L 295.472515 -78.513555 
L 295.472515 -79.930176 
L 295.472515 -81.346796 
L 295.472515 -82.763417 
L 295.472515 -84.180037 
L 295.472515 -85.596658 
L 295.472515 -87.013278 
L 295.472515 -88.429899 
L 295.472515 -89.84652 
L 295.472515 -91.26314 
L 295.472515 -92.679761 
L 295.472515 -94.096381 
L 295.472515 -95.513002 
L 295.472515 -96.929623 
L 295.472515 -98.346243 
L 295.472515 -99.762864 
L 295.472515 -101.179484 
L 295.472515 -102.596105 
L 295.472515 -104.012725 
L 295.472515 -105.429346 
L 295.472515 -106.845967 
L 295.472515 -108.262587 
L 295.472515 -109.679208 
L 295.472515 -111.095828 
L 295.472515 -112.512449 
L 295.472515 -113.92907 
L 295.472515 -115.34569 
L 295.472515 -116.762311 
L 295.472515 -118.178931 
L 295.472515 -119.595552 
L 295.472515 -121.012173 
L 295.472515 -122.428793 
L 295.472515 -123.845414 
L 295.472515 -125.262034 
L 295.472515 -126.678655 
L 295.472515 -128.095275 
L 295.472515 -129.511896 
L 295.472515 -130.928517 
L 295.472515 -132.345137 
L 295.472515 -133.761758 
L 295.472515 -135.178378 
L 295.472515 -136.594999 
L 295.472515 -138.01162 
L 295.472515 -139.42824 
L 295.472515 -140.844861 
L 295.472515 -142.261481 
L 295.472515 -143.678102 
L 295.472515 -145.094722 
L 295.472515 -146.511343 
L 295.472515 -147.927964 
L 295.472515 -149.344584 
L 295.472515 -150.761205 
L 295.472515 -152.177825 
L 295.472515 -153.594446 
L 295.472515 -155.011067 
L 295.472515 -156.427687 
L 295.472515 -157.844308 
L 295.472515 -159.260928 
L 295.472515 -160.677549 
L 295.472515 -162.094169 
L 295.472515 -163.51079 
L 295.472515 -164.927411 
L 295.472515 -166.344031 
L 295.472515 -167.760652 
L 295.472515 -169.177272 
L 295.472515 -170.593893 
L 295.472515 -172.010514 
L 295.472515 -173.427134 
L 295.472515 -174.843755 
L 295.472515 -176.260375 
L 295.472515 -177.676996 
L 295.472515 -179.093616 
L 295.472515 -180.510237 
L 295.472515 -181.926858 
L 295.472515 -183.343478 
L 295.472515 -184.760099 
L 295.472515 -186.176719 
L 295.472515 -187.59334 
L 295.472515 -189.009961 
L 295.472515 -190.426581 
L 295.472515 -191.843202 
L 295.472515 -193.259822 
L 295.472515 -194.676443 
L 295.472515 -196.093063 
L 295.472515 -197.509684 
L 295.472515 -198.926305 
L 295.472515 -200.342925 
L 295.472515 -201.759546 
L 295.472515 -203.176166 
L 295.472515 -204.592787 
L 295.491377 -204.592787 
L 295.491377 -204.592787 
L 295.501279 -203.176166 
L 295.514398 -201.759546 
L 295.530799 -200.342925 
L 295.550117 -198.926305 
L 295.571528 -197.509684 
L 295.593824 -196.093063 
L 295.615606 -194.676443 
L 295.635548 -193.259822 
L 295.652642 -191.843202 
L 295.666373 -190.426581 
L 295.676752 -189.009961 
L 295.684242 -187.59334 
L 295.689637 -186.176719 
L 295.693973 -184.760099 
L 295.698525 -183.343478 
L 295.704864 -181.926858 
L 295.714912 -180.510237 
L 295.730884 -179.093616 
L 295.755057 -177.676996 
L 295.789371 -176.260375 
L 295.834947 -174.843755 
L 295.89166 -173.427134 
L 295.957905 -172.010514 
L 296.030677 -170.593893 
L 296.105967 -169.177272 
L 296.179443 -167.760652 
L 296.247223 -166.344031 
L 296.306581 -164.927411 
L 296.356341 -163.51079 
L 296.396838 -162.094169 
L 296.429419 -160.677549 
L 296.45564 -159.260928 
L 296.47643 -157.844308 
L 296.491577 -156.427687 
L 296.49981 -155.011067 
L 296.499555 -153.594446 
L 296.490208 -152.177825 
L 296.47348 -150.761205 
L 296.454329 -149.344584 
L 296.441049 -147.927964 
L 296.444334 -146.511343 
L 296.475524 -145.094722 
L 296.544447 -143.678102 
L 296.657474 -142.261481 
L 296.816268 -140.844861 
L 297.017547 -139.42824 
L 297.25392 -138.01162 
L 297.515589 -136.594999 
L 297.792593 -135.178378 
L 298.077105 -133.761758 
L 298.365275 -132.345137 
L 298.658141 -130.928517 
L 298.961284 -129.511896 
L 299.283193 -128.095275 
L 299.632715 -126.678655 
L 300.016283 -125.262034 
L 300.435783 -123.845414 
L 300.887725 -122.428793 
L 301.363955 -121.012173 
L 301.853605 -119.595552 
L 302.345557 -118.178931 
L 302.830628 -116.762311 
L 303.302934 -115.34569 
L 303.760308 -113.92907 
L 304.204075 -112.512449 
L 304.638582 -111.095828 
L 305.07078 -109.679208 
L 305.509797 -108.262587 
L 305.966201 -106.845967 
L 306.450607 -105.429346 
L 306.971532 -104.012725 
L 307.532801 -102.596105 
L 308.131104 -101.179484 
L 308.754396 -99.762864 
L 309.381544 -98.346243 
L 309.983259 -96.929623 
L 310.524027 -95.513002 
L 310.96462 -94.096381 
L 311.264985 -92.679761 
L 311.387449 -91.26314 
L 311.300296 -89.84652 
L 310.98155 -88.429899 
L 310.422459 -87.013278 
L 309.629893 -85.596658 
L 308.626915 -84.180037 
L 307.451157 -82.763417 
L 306.151257 -81.346796 
L 304.78208 -79.930176 
L 303.399671 -78.513555 
L 302.056695 -77.096934 
L 300.798775 -75.680314 
L 299.661853 -74.263693 
L 298.670524 -72.847073 
L 297.837364 -71.430452 
L 297.163325 -70.013831 
L 296.639217 -68.597211 
L 296.248147 -67.18059 
L 295.968542 -65.76397 
L 295.777237 -64.347349 
z
" style="stroke: #3f3f3f; stroke-width: 1.5"/>
    </defs>
    <g clip-path="url(#p057a3a09d9)">
     <use xlink:href="#m5061e5a9b4" x="0" y="352.15625" style="fill: #e1812c; stroke: #3f3f3f; stroke-width: 1.5"/>
    </g>
   </g>
   <g id="matplotlib.axis_1">
    <g id="xtick_1">
     <g id="line2d_1">
      <defs>
       <path id="m7ca71cce19" d="M 0 0 
L 0 3.5 
" style="stroke: #000000; stroke-width: 0.8"/>
      </defs>
      <g>
       <use xlink:href="#m7ca71cce19" x="106.135753" y="314.6" style="stroke: #000000; stroke-width: 0.8"/>
      </g>
     </g>
     <g id="text_1">
      <!-- burger -->
      <g transform="translate(89.518566 329.198437)scale(0.1 -0.1)">
       <defs>
        <path id="DejaVuSans-62" d="M 3116 1747 
Q 3116 2381 2855 2742 
Q 2594 3103 2138 3103 
Q 1681 3103 1420 2742 
Q 1159 2381 1159 1747 
Q 1159 1113 1420 752 
Q 1681 391 2138 391 
Q 2594 391 2855 752 
Q 3116 1113 3116 1747 
z
M 1159 2969 
Q 1341 3281 1617 3432 
Q 1894 3584 2278 3584 
Q 2916 3584 3314 3078 
Q 3713 2572 3713 1747 
Q 3713 922 3314 415 
Q 2916 -91 2278 -91 
Q 1894 -91 1617 61 
Q 1341 213 1159 525 
L 1159 0 
L 581 0 
L 581 4863 
L 1159 4863 
L 1159 2969 
z
" transform="scale(0.015625)"/>
        <path id="DejaVuSans-75" d="M 544 1381 
L 544 3500 
L 1119 3500 
L 1119 1403 
Q 1119 906 1312 657 
Q 1506 409 1894 409 
Q 2359 409 2629 706 
Q 2900 1003 2900 1516 
L 2900 3500 
L 3475 3500 
L 3475 0 
L 2900 0 
L 2900 538 
Q 2691 219 2414 64 
Q 2138 -91 1772 -91 
Q 1169 -91 856 284 
Q 544 659 544 1381 
z
M 1991 3584 
L 1991 3584 
z
" transform="scale(0.015625)"/>
        <path id="DejaVuSans-72" d="M 2631 2963 
Q 2534 3019 2420 3045 
Q 2306 3072 2169 3072 
Q 1681 3072 1420 2755 
Q 1159 2438 1159 1844 
L 1159 0 
L 581 0 
L 581 3500 
L 1159 3500 
L 1159 2956 
Q 1341 3275 1631 3429 
Q 1922 3584 2338 3584 
Q 2397 3584 2469 3576 
Q 2541 3569 2628 3553 
L 2631 2963 
z
" transform="scale(0.015625)"/>
        <path id="DejaVuSans-67" d="M 2906 1791 
Q 2906 2416 2648 2759 
Q 2391 3103 1925 3103 
Q 1463 3103 1205 2759 
Q 947 2416 947 1791 
Q 947 1169 1205 825 
Q 1463 481 1925 481 
Q 2391 481 2648 825 
Q 2906 1169 2906 1791 
z
M 3481 434 
Q 3481 -459 3084 -895 
Q 2688 -1331 1869 -1331 
Q 1566 -1331 1297 -1286 
Q 1028 -1241 775 -1147 
L 775 -588 
Q 1028 -725 1275 -790 
Q 1522 -856 1778 -856 
Q 2344 -856 2625 -561 
Q 2906 -266 2906 331 
L 2906 616 
Q 2728 306 2450 153 
Q 2172 0 1784 0 
Q 1141 0 747 490 
Q 353 981 353 1791 
Q 353 2603 747 3093 
Q 1141 3584 1784 3584 
Q 2172 3584 2450 3431 
Q 2728 3278 2906 2969 
L 2906 3500 
L 3481 3500 
L 3481 434 
z
" transform="scale(0.015625)"/>
        <path id="DejaVuSans-65" d="M 3597 1894 
L 3597 1613 
L 953 1613 
Q 991 1019 1311 708 
Q 1631 397 2203 397 
Q 2534 397 2845 478 
Q 3156 559 3463 722 
L 3463 178 
Q 3153 47 2828 -22 
Q 2503 -91 2169 -91 
Q 1331 -91 842 396 
Q 353 884 353 1716 
Q 353 2575 817 3079 
Q 1281 3584 2069 3584 
Q 2775 3584 3186 3129 
Q 3597 2675 3597 1894 
z
M 3022 2063 
Q 3016 2534 2758 2815 
Q 2500 3097 2075 3097 
Q 1594 3097 1305 2825 
Q 1016 2553 972 2059 
L 3022 2063 
z
" transform="scale(0.015625)"/>
       </defs>
       <use xlink:href="#DejaVuSans-62"/>
       <use xlink:href="#DejaVuSans-75" x="63.476562"/>
       <use xlink:href="#DejaVuSans-72" x="126.855469"/>
       <use xlink:href="#DejaVuSans-67" x="166.21875"/>
       <use xlink:href="#DejaVuSans-65" x="229.695312"/>
       <use xlink:href="#DejaVuSans-72" x="291.21875"/>
      </g>
     </g>
    </g>
    <g id="xtick_2">
     <g id="line2d_2">
      <g>
       <use xlink:href="#m7ca71cce19" x="200.804134" y="314.6" style="stroke: #000000; stroke-width: 0.8"/>
      </g>
     </g>
     <g id="text_2">
      <!-- jackal -->
      <g transform="translate(186.340853 329.198437)scale(0.1 -0.1)">
       <defs>
        <path id="DejaVuSans-6a" d="M 603 3500 
L 1178 3500 
L 1178 -63 
Q 1178 -731 923 -1031 
Q 669 -1331 103 -1331 
L -116 -1331 
L -116 -844 
L 38 -844 
Q 366 -844 484 -692 
Q 603 -541 603 -63 
L 603 3500 
z
M 603 4863 
L 1178 4863 
L 1178 4134 
L 603 4134 
L 603 4863 
z
" transform="scale(0.015625)"/>
        <path id="DejaVuSans-61" d="M 2194 1759 
Q 1497 1759 1228 1600 
Q 959 1441 959 1056 
Q 959 750 1161 570 
Q 1363 391 1709 391 
Q 2188 391 2477 730 
Q 2766 1069 2766 1631 
L 2766 1759 
L 2194 1759 
z
M 3341 1997 
L 3341 0 
L 2766 0 
L 2766 531 
Q 2569 213 2275 61 
Q 1981 -91 1556 -91 
Q 1019 -91 701 211 
Q 384 513 384 1019 
Q 384 1609 779 1909 
Q 1175 2209 1959 2209 
L 2766 2209 
L 2766 2266 
Q 2766 2663 2505 2880 
Q 2244 3097 1772 3097 
Q 1472 3097 1187 3025 
Q 903 2953 641 2809 
L 641 3341 
Q 956 3463 1253 3523 
Q 1550 3584 1831 3584 
Q 2591 3584 2966 3190 
Q 3341 2797 3341 1997 
z
" transform="scale(0.015625)"/>
        <path id="DejaVuSans-63" d="M 3122 3366 
L 3122 2828 
Q 2878 2963 2633 3030 
Q 2388 3097 2138 3097 
Q 1578 3097 1268 2742 
Q 959 2388 959 1747 
Q 959 1106 1268 751 
Q 1578 397 2138 397 
Q 2388 397 2633 464 
Q 2878 531 3122 666 
L 3122 134 
Q 2881 22 2623 -34 
Q 2366 -91 2075 -91 
Q 1284 -91 818 406 
Q 353 903 353 1747 
Q 353 2603 823 3093 
Q 1294 3584 2113 3584 
Q 2378 3584 2631 3529 
Q 2884 3475 3122 3366 
z
" transform="scale(0.015625)"/>
        <path id="DejaVuSans-6b" d="M 581 4863 
L 1159 4863 
L 1159 1991 
L 2875 3500 
L 3609 3500 
L 1753 1863 
L 3688 0 
L 2938 0 
L 1159 1709 
L 1159 0 
L 581 0 
L 581 4863 
z
" transform="scale(0.015625)"/>
        <path id="DejaVuSans-6c" d="M 603 4863 
L 1178 4863 
L 1178 0 
L 603 0 
L 603 4863 
z
" transform="scale(0.015625)"/>
       </defs>
       <use xlink:href="#DejaVuSans-6a"/>
       <use xlink:href="#DejaVuSans-61" x="27.783203"/>
       <use xlink:href="#DejaVuSans-63" x="89.0625"/>
       <use xlink:href="#DejaVuSans-6b" x="144.042969"/>
       <use xlink:href="#DejaVuSans-61" x="200.203125"/>
       <use xlink:href="#DejaVuSans-6c" x="261.482422"/>
      </g>
     </g>
    </g>
    <g id="xtick_3">
     <g id="line2d_3">
      <g>
       <use xlink:href="#m7ca71cce19" x="295.472515" y="314.6" style="stroke: #000000; stroke-width: 0.8"/>
      </g>
     </g>
     <g id="text_3">
      <!-- youbot -->
      <g transform="translate(278.091265 329.198437)scale(0.1 -0.1)">
       <defs>
        <path id="DejaVuSans-79" d="M 2059 -325 
Q 1816 -950 1584 -1140 
Q 1353 -1331 966 -1331 
L 506 -1331 
L 506 -850 
L 844 -850 
Q 1081 -850 1212 -737 
Q 1344 -625 1503 -206 
L 1606 56 
L 191 3500 
L 800 3500 
L 1894 763 
L 2988 3500 
L 3597 3500 
L 2059 -325 
z
" transform="scale(0.015625)"/>
        <path id="DejaVuSans-6f" d="M 1959 3097 
Q 1497 3097 1228 2736 
Q 959 2375 959 1747 
Q 959 1119 1226 758 
Q 1494 397 1959 397 
Q 2419 397 2687 759 
Q 2956 1122 2956 1747 
Q 2956 2369 2687 2733 
Q 2419 3097 1959 3097 
z
M 1959 3584 
Q 2709 3584 3137 3096 
Q 3566 2609 3566 1747 
Q 3566 888 3137 398 
Q 2709 -91 1959 -91 
Q 1206 -91 779 398 
Q 353 888 353 1747 
Q 353 2609 779 3096 
Q 1206 3584 1959 3584 
z
" transform="scale(0.015625)"/>
        <path id="DejaVuSans-74" d="M 1172 4494 
L 1172 3500 
L 2356 3500 
L 2356 3053 
L 1172 3053 
L 1172 1153 
Q 1172 725 1289 603 
Q 1406 481 1766 481 
L 2356 481 
L 2356 0 
L 1766 0 
Q 1100 0 847 248 
Q 594 497 594 1153 
L 594 3053 
L 172 3053 
L 172 3500 
L 594 3500 
L 594 4494 
L 1172 4494 
z
" transform="scale(0.015625)"/>
       </defs>
       <use xlink:href="#DejaVuSans-79"/>
       <use xlink:href="#DejaVuSans-6f" x="59.179688"/>
       <use xlink:href="#DejaVuSans-75" x="120.361328"/>
       <use xlink:href="#DejaVuSans-62" x="183.740234"/>
       <use xlink:href="#DejaVuSans-6f" x="247.216797"/>
       <use xlink:href="#DejaVuSans-74" x="308.398438"/>
      </g>
     </g>
    </g>
    <g id="text_4">
     <!-- Robot -->
     <g transform="translate(186.30179 342.876562)scale(0.1 -0.1)">
      <defs>
       <path id="DejaVuSans-52" d="M 2841 2188 
Q 3044 2119 3236 1894 
Q 3428 1669 3622 1275 
L 4263 0 
L 3584 0 
L 2988 1197 
Q 2756 1666 2539 1819 
Q 2322 1972 1947 1972 
L 1259 1972 
L 1259 0 
L 628 0 
L 628 4666 
L 2053 4666 
Q 2853 4666 3247 4331 
Q 3641 3997 3641 3322 
Q 3641 2881 3436 2590 
Q 3231 2300 2841 2188 
z
M 1259 4147 
L 1259 2491 
L 2053 2491 
Q 2509 2491 2742 2702 
Q 2975 2913 2975 3322 
Q 2975 3731 2742 3939 
Q 2509 4147 2053 4147 
L 1259 4147 
z
" transform="scale(0.015625)"/>
      </defs>
      <use xlink:href="#DejaVuSans-52"/>
      <use xlink:href="#DejaVuSans-6f" x="64.982422"/>
      <use xlink:href="#DejaVuSans-62" x="126.164062"/>
      <use xlink:href="#DejaVuSans-6f" x="189.640625"/>
      <use xlink:href="#DejaVuSans-74" x="250.822266"/>
     </g>
    </g>
   </g>
   <g id="matplotlib.axis_2">
    <g id="ytick_1">
     <g id="line2d_4">
      <defs>
       <path id="mda742fb4d0" d="M 0 0 
L -3.5 0 
" style="stroke: #000000; stroke-width: 0.8"/>
      </defs>
      <g>
       <use xlink:href="#mda742fb4d0" x="58.801563" y="314.089206" style="stroke: #000000; stroke-width: 0.8"/>
      </g>
     </g>
     <g id="text_5">
      <!-- −0.25 -->
      <g transform="translate(21.15625 317.888424)scale(0.1 -0.1)">
       <defs>
        <path id="DejaVuSans-2212" d="M 678 2272 
L 4684 2272 
L 4684 1741 
L 678 1741 
L 678 2272 
z
" transform="scale(0.015625)"/>
        <path id="DejaVuSans-30" d="M 2034 4250 
Q 1547 4250 1301 3770 
Q 1056 3291 1056 2328 
Q 1056 1369 1301 889 
Q 1547 409 2034 409 
Q 2525 409 2770 889 
Q 3016 1369 3016 2328 
Q 3016 3291 2770 3770 
Q 2525 4250 2034 4250 
z
M 2034 4750 
Q 2819 4750 3233 4129 
Q 3647 3509 3647 2328 
Q 3647 1150 3233 529 
Q 2819 -91 2034 -91 
Q 1250 -91 836 529 
Q 422 1150 422 2328 
Q 422 3509 836 4129 
Q 1250 4750 2034 4750 
z
" transform="scale(0.015625)"/>
        <path id="DejaVuSans-2e" d="M 684 794 
L 1344 794 
L 1344 0 
L 684 0 
L 684 794 
z
" transform="scale(0.015625)"/>
        <path id="DejaVuSans-32" d="M 1228 531 
L 3431 531 
L 3431 0 
L 469 0 
L 469 531 
Q 828 903 1448 1529 
Q 2069 2156 2228 2338 
Q 2531 2678 2651 2914 
Q 2772 3150 2772 3378 
Q 2772 3750 2511 3984 
Q 2250 4219 1831 4219 
Q 1534 4219 1204 4116 
Q 875 4013 500 3803 
L 500 4441 
Q 881 4594 1212 4672 
Q 1544 4750 1819 4750 
Q 2544 4750 2975 4387 
Q 3406 4025 3406 3419 
Q 3406 3131 3298 2873 
Q 3191 2616 2906 2266 
Q 2828 2175 2409 1742 
Q 1991 1309 1228 531 
z
" transform="scale(0.015625)"/>
        <path id="DejaVuSans-35" d="M 691 4666 
L 3169 4666 
L 3169 4134 
L 1269 4134 
L 1269 2991 
Q 1406 3038 1543 3061 
Q 1681 3084 1819 3084 
Q 2600 3084 3056 2656 
Q 3513 2228 3513 1497 
Q 3513 744 3044 326 
Q 2575 -91 1722 -91 
Q 1428 -91 1123 -41 
Q 819 9 494 109 
L 494 744 
Q 775 591 1075 516 
Q 1375 441 1709 441 
Q 2250 441 2565 725 
Q 2881 1009 2881 1497 
Q 2881 1984 2565 2268 
Q 2250 2553 1709 2553 
Q 1456 2553 1204 2497 
Q 953 2441 691 2322 
L 691 4666 
z
" transform="scale(0.015625)"/>
       </defs>
       <use xlink:href="#DejaVuSans-2212"/>
       <use xlink:href="#DejaVuSans-30" x="83.789062"/>
       <use xlink:href="#DejaVuSans-2e" x="147.412109"/>
       <use xlink:href="#DejaVuSans-32" x="179.199219"/>
       <use xlink:href="#DejaVuSans-35" x="242.822266"/>
      </g>
     </g>
    </g>
    <g id="ytick_2">
     <g id="line2d_5">
      <g>
       <use xlink:href="#mda742fb4d0" x="58.801563" y="278.407907" style="stroke: #000000; stroke-width: 0.8"/>
      </g>
     </g>
     <g id="text_6">
      <!-- 0.00 -->
      <g transform="translate(29.535938 282.207126)scale(0.1 -0.1)">
       <use xlink:href="#DejaVuSans-30"/>
       <use xlink:href="#DejaVuSans-2e" x="63.623047"/>
       <use xlink:href="#DejaVuSans-30" x="95.410156"/>
       <use xlink:href="#DejaVuSans-30" x="159.033203"/>
      </g>
     </g>
    </g>
    <g id="ytick_3">
     <g id="line2d_6">
      <g>
       <use xlink:href="#mda742fb4d0" x="58.801563" y="242.726609" style="stroke: #000000; stroke-width: 0.8"/>
      </g>
     </g>
     <g id="text_7">
      <!-- 0.25 -->
      <g transform="translate(29.535938 246.525828)scale(0.1 -0.1)">
       <use xlink:href="#DejaVuSans-30"/>
       <use xlink:href="#DejaVuSans-2e" x="63.623047"/>
       <use xlink:href="#DejaVuSans-32" x="95.410156"/>
       <use xlink:href="#DejaVuSans-35" x="159.033203"/>
      </g>
     </g>
    </g>
    <g id="ytick_4">
     <g id="line2d_7">
      <g>
       <use xlink:href="#mda742fb4d0" x="58.801563" y="207.04531" style="stroke: #000000; stroke-width: 0.8"/>
      </g>
     </g>
     <g id="text_8">
      <!-- 0.50 -->
      <g transform="translate(29.535938 210.844529)scale(0.1 -0.1)">
       <use xlink:href="#DejaVuSans-30"/>
       <use xlink:href="#DejaVuSans-2e" x="63.623047"/>
       <use xlink:href="#DejaVuSans-35" x="95.410156"/>
       <use xlink:href="#DejaVuSans-30" x="159.033203"/>
      </g>
     </g>
    </g>
    <g id="ytick_5">
     <g id="line2d_8">
      <g>
       <use xlink:href="#mda742fb4d0" x="58.801563" y="171.364012" style="stroke: #000000; stroke-width: 0.8"/>
      </g>
     </g>
     <g id="text_9">
      <!-- 0.75 -->
      <g transform="translate(29.535938 175.163231)scale(0.1 -0.1)">
       <defs>
        <path id="DejaVuSans-37" d="M 525 4666 
L 3525 4666 
L 3525 4397 
L 1831 0 
L 1172 0 
L 2766 4134 
L 525 4134 
L 525 4666 
z
" transform="scale(0.015625)"/>
       </defs>
       <use xlink:href="#DejaVuSans-30"/>
       <use xlink:href="#DejaVuSans-2e" x="63.623047"/>
       <use xlink:href="#DejaVuSans-37" x="95.410156"/>
       <use xlink:href="#DejaVuSans-35" x="159.033203"/>
      </g>
     </g>
    </g>
    <g id="ytick_6">
     <g id="line2d_9">
      <g>
       <use xlink:href="#mda742fb4d0" x="58.801563" y="135.682714" style="stroke: #000000; stroke-width: 0.8"/>
      </g>
     </g>
     <g id="text_10">
      <!-- 1.00 -->
      <g transform="translate(29.535938 139.481933)scale(0.1 -0.1)">
       <defs>
        <path id="DejaVuSans-31" d="M 794 531 
L 1825 531 
L 1825 4091 
L 703 3866 
L 703 4441 
L 1819 4666 
L 2450 4666 
L 2450 531 
L 3481 531 
L 3481 0 
L 794 0 
L 794 531 
z
" transform="scale(0.015625)"/>
       </defs>
       <use xlink:href="#DejaVuSans-31"/>
       <use xlink:href="#DejaVuSans-2e" x="63.623047"/>
       <use xlink:href="#DejaVuSans-30" x="95.410156"/>
       <use xlink:href="#DejaVuSans-30" x="159.033203"/>
      </g>
     </g>
    </g>
    <g id="ytick_7">
     <g id="line2d_10">
      <g>
       <use xlink:href="#mda742fb4d0" x="58.801563" y="100.001415" style="stroke: #000000; stroke-width: 0.8"/>
      </g>
     </g>
     <g id="text_11">
      <!-- 1.25 -->
      <g transform="translate(29.535938 103.800634)scale(0.1 -0.1)">
       <use xlink:href="#DejaVuSans-31"/>
       <use xlink:href="#DejaVuSans-2e" x="63.623047"/>
       <use xlink:href="#DejaVuSans-32" x="95.410156"/>
       <use xlink:href="#DejaVuSans-35" x="159.033203"/>
      </g>
     </g>
    </g>
    <g id="ytick_8">
     <g id="line2d_11">
      <g>
       <use xlink:href="#mda742fb4d0" x="58.801563" y="64.320117" style="stroke: #000000; stroke-width: 0.8"/>
      </g>
     </g>
     <g id="text_12">
      <!-- 1.50 -->
      <g transform="translate(29.535938 68.119336)scale(0.1 -0.1)">
       <use xlink:href="#DejaVuSans-31"/>
       <use xlink:href="#DejaVuSans-2e" x="63.623047"/>
       <use xlink:href="#DejaVuSans-35" x="95.410156"/>
       <use xlink:href="#DejaVuSans-30" x="159.033203"/>
      </g>
     </g>
    </g>
    <g id="ytick_9">
     <g id="line2d_12">
      <g>
       <use xlink:href="#mda742fb4d0" x="58.801563" y="28.638819" style="stroke: #000000; stroke-width: 0.8"/>
      </g>
     </g>
     <g id="text_13">
      <!-- 1.75 -->
      <g transform="translate(29.535938 32.438037)scale(0.1 -0.1)">
       <use xlink:href="#DejaVuSans-31"/>
       <use xlink:href="#DejaVuSans-2e" x="63.623047"/>
       <use xlink:href="#DejaVuSans-37" x="95.410156"/>
       <use xlink:href="#DejaVuSans-35" x="159.033203"/>
      </g>
     </g>
    </g>
    <g id="text_14">
     <!-- normalized_curvature -->
     <g transform="translate(14.798438 215.328906)rotate(-90)scale(0.1 -0.1)">
      <defs>
       <path id="DejaVuSans-6e" d="M 3513 2113 
L 3513 0 
L 2938 0 
L 2938 2094 
Q 2938 2591 2744 2837 
Q 2550 3084 2163 3084 
Q 1697 3084 1428 2787 
Q 1159 2491 1159 1978 
L 1159 0 
L 581 0 
L 581 3500 
L 1159 3500 
L 1159 2956 
Q 1366 3272 1645 3428 
Q 1925 3584 2291 3584 
Q 2894 3584 3203 3211 
Q 3513 2838 3513 2113 
z
" transform="scale(0.015625)"/>
       <path id="DejaVuSans-6d" d="M 3328 2828 
Q 3544 3216 3844 3400 
Q 4144 3584 4550 3584 
Q 5097 3584 5394 3201 
Q 5691 2819 5691 2113 
L 5691 0 
L 5113 0 
L 5113 2094 
Q 5113 2597 4934 2840 
Q 4756 3084 4391 3084 
Q 3944 3084 3684 2787 
Q 3425 2491 3425 1978 
L 3425 0 
L 2847 0 
L 2847 2094 
Q 2847 2600 2669 2842 
Q 2491 3084 2119 3084 
Q 1678 3084 1418 2786 
Q 1159 2488 1159 1978 
L 1159 0 
L 581 0 
L 581 3500 
L 1159 3500 
L 1159 2956 
Q 1356 3278 1631 3431 
Q 1906 3584 2284 3584 
Q 2666 3584 2933 3390 
Q 3200 3197 3328 2828 
z
" transform="scale(0.015625)"/>
       <path id="DejaVuSans-69" d="M 603 3500 
L 1178 3500 
L 1178 0 
L 603 0 
L 603 3500 
z
M 603 4863 
L 1178 4863 
L 1178 4134 
L 603 4134 
L 603 4863 
z
" transform="scale(0.015625)"/>
       <path id="DejaVuSans-7a" d="M 353 3500 
L 3084 3500 
L 3084 2975 
L 922 459 
L 3084 459 
L 3084 0 
L 275 0 
L 275 525 
L 2438 3041 
L 353 3041 
L 353 3500 
z
" transform="scale(0.015625)"/>
       <path id="DejaVuSans-64" d="M 2906 2969 
L 2906 4863 
L 3481 4863 
L 3481 0 
L 2906 0 
L 2906 525 
Q 2725 213 2448 61 
Q 2172 -91 1784 -91 
Q 1150 -91 751 415 
Q 353 922 353 1747 
Q 353 2572 751 3078 
Q 1150 3584 1784 3584 
Q 2172 3584 2448 3432 
Q 2725 3281 2906 2969 
z
M 947 1747 
Q 947 1113 1208 752 
Q 1469 391 1925 391 
Q 2381 391 2643 752 
Q 2906 1113 2906 1747 
Q 2906 2381 2643 2742 
Q 2381 3103 1925 3103 
Q 1469 3103 1208 2742 
Q 947 2381 947 1747 
z
" transform="scale(0.015625)"/>
       <path id="DejaVuSans-5f" d="M 3263 -1063 
L 3263 -1509 
L -63 -1509 
L -63 -1063 
L 3263 -1063 
z
" transform="scale(0.015625)"/>
       <path id="DejaVuSans-76" d="M 191 3500 
L 800 3500 
L 1894 563 
L 2988 3500 
L 3597 3500 
L 2284 0 
L 1503 0 
L 191 3500 
z
" transform="scale(0.015625)"/>
      </defs>
      <use xlink:href="#DejaVuSans-6e"/>
      <use xlink:href="#DejaVuSans-6f" x="63.378906"/>
      <use xlink:href="#DejaVuSans-72" x="124.560547"/>
      <use xlink:href="#DejaVuSans-6d" x="163.923828"/>
      <use xlink:href="#DejaVuSans-61" x="261.335938"/>
      <use xlink:href="#DejaVuSans-6c" x="322.615234"/>
      <use xlink:href="#DejaVuSans-69" x="350.398438"/>
      <use xlink:href="#DejaVuSans-7a" x="378.181641"/>
      <use xlink:href="#DejaVuSans-65" x="430.671875"/>
      <use xlink:href="#DejaVuSans-64" x="492.195312"/>
      <use xlink:href="#DejaVuSans-5f" x="555.671875"/>
      <use xlink:href="#DejaVuSans-63" x="605.671875"/>
      <use xlink:href="#DejaVuSans-75" x="660.652344"/>
      <use xlink:href="#DejaVuSans-72" x="724.03125"/>
      <use xlink:href="#DejaVuSans-76" x="765.144531"/>
      <use xlink:href="#DejaVuSans-61" x="824.324219"/>
      <use xlink:href="#DejaVuSans-74" x="885.603516"/>
      <use xlink:href="#DejaVuSans-75" x="924.8125"/>
      <use xlink:href="#DejaVuSans-72" x="988.191406"/>
      <use xlink:href="#DejaVuSans-65" x="1027.054688"/>
     </g>
    </g>
   </g>
   <g id="line2d_13">
    <path d="M 106.135753 273.184111 
L 106.135753 242.989833 
" clip-path="url(#p057a3a09d9)" style="fill: none; stroke: #3f3f3f; stroke-width: 1.5; stroke-linecap: square"/>
   </g>
   <g id="line2d_14">
    <path d="M 106.135753 267.47165 
L 106.135753 257.401908 
" clip-path="url(#p057a3a09d9)" style="fill: none; stroke: #3f3f3f; stroke-width: 4.5; stroke-linecap: square"/>
   </g>
   <g id="line2d_15">
    <path d="M 200.804134 278.407907 
L 200.804134 158.143072 
" clip-path="url(#p057a3a09d9)" style="fill: none; stroke: #3f3f3f; stroke-width: 1.5; stroke-linecap: square"/>
   </g>
   <g id="line2d_16">
    <path d="M 200.804134 251.976372 
L 200.804134 213.980609 
" clip-path="url(#p057a3a09d9)" style="fill: none; stroke: #3f3f3f; stroke-width: 4.5; stroke-linecap: square"/>
   </g>
   <g id="line2d_17">
    <path d="M 295.472515 274.940965 
L 295.472515 226.699161 
" clip-path="url(#p057a3a09d9)" style="fill: none; stroke: #3f3f3f; stroke-width: 1.5; stroke-linecap: square"/>
   </g>
   <g id="line2d_18">
    <path d="M 295.472515 266.138219 
L 295.472515 250.042796 
" clip-path="url(#p057a3a09d9)" style="fill: none; stroke: #3f3f3f; stroke-width: 4.5; stroke-linecap: square"/>
   </g>
   <g id="patch_5">
    <path d="M 58.801563 314.6 
L 58.801563 7.2 
" style="fill: none; stroke: #000000; stroke-width: 0.8; stroke-linejoin: miter; stroke-linecap: square"/>
   </g>
   <g id="patch_6">
    <path d="M 58.801563 314.6 
L 342.806706 314.6 
" style="fill: none; stroke: #000000; stroke-width: 0.8; stroke-linejoin: miter; stroke-linecap: square"/>
   </g>
   <g id="PathCollection_1">
    <defs>
     <path id="mc0c1d37edd" d="M 0 1.5 
C 0.397805 1.5 0.77937 1.341951 1.06066 1.06066 
C 1.341951 0.77937 1.5 0.397805 1.5 0 
C 1.5 -0.397805 1.341951 -0.77937 1.06066 -1.06066 
C 0.77937 -1.341951 0.397805 -1.5 0 -1.5 
C -0.397805 -1.5 -0.77937 -1.341951 -1.06066 -1.06066 
C -1.341951 -0.77937 -1.5 -0.397805 -1.5 0 
C -1.5 0.397805 -1.341951 0.77937 -1.06066 1.06066 
C -0.77937 1.341951 -0.397805 1.5 0 1.5 
z
" style="stroke: #3f3f3f"/>
    </defs>
    <g clip-path="url(#p057a3a09d9)">
     <use xlink:href="#mc0c1d37edd" x="106.135753" y="263.695121" style="fill: #ffffff; stroke: #3f3f3f"/>
    </g>
   </g>
   <g id="PathCollection_2">
    <g clip-path="url(#p057a3a09d9)">
     <use xlink:href="#mc0c1d37edd" x="200.804134" y="232.244915" style="fill: #ffffff; stroke: #3f3f3f"/>
    </g>
   </g>
   <g id="PathCollection_3">
    <g clip-path="url(#p057a3a09d9)">
     <use xlink:href="#mc0c1d37edd" x="295.472515" y="259.842434" style="fill: #ffffff; stroke: #3f3f3f"/>
    </g>
   </g>
  </g>
  <g id="legend_1">
   <g id="text_15">
    <!-- dim -->
    <g transform="translate(359.055143 164.159375)scale(0.1 -0.1)">
     <use xlink:href="#DejaVuSans-64"/>
     <use xlink:href="#DejaVuSans-69" x="63.476562"/>
     <use xlink:href="#DejaVuSans-6d" x="91.259766"/>
    </g>
   </g>
   <g id="patch_7">
    <path d="M 348.133268 178.8375 
L 368.133268 178.8375 
L 368.133268 171.8375 
L 348.133268 171.8375 
z
" style="fill: #3274a1; stroke: #3f3f3f; stroke-width: 0.75; stroke-linejoin: miter"/>
   </g>
   <g id="text_16">
    <!-- 2d -->
    <g transform="translate(376.133268 178.8375)scale(0.1 -0.1)">
     <use xlink:href="#DejaVuSans-32"/>
     <use xlink:href="#DejaVuSans-64" x="63.623047"/>
    </g>
   </g>
   <g id="patch_8">
    <path d="M 348.133268 193.515625 
L 368.133268 193.515625 
L 368.133268 186.515625 
L 348.133268 186.515625 
z
" style="fill: #e1812c; stroke: #3f3f3f; stroke-width: 0.75; stroke-linejoin: miter"/>
   </g>
   <g id="text_17">
    <!-- 3d -->
    <g transform="translate(376.133268 193.515625)scale(0.1 -0.1)">
     <defs>
      <path id="DejaVuSans-33" d="M 2597 2516 
Q 3050 2419 3304 2112 
Q 3559 1806 3559 1356 
Q 3559 666 3084 287 
Q 2609 -91 1734 -91 
Q 1441 -91 1130 -33 
Q 819 25 488 141 
L 488 750 
Q 750 597 1062 519 
Q 1375 441 1716 441 
Q 2309 441 2620 675 
Q 2931 909 2931 1356 
Q 2931 1769 2642 2001 
Q 2353 2234 1838 2234 
L 1294 2234 
L 1294 2753 
L 1863 2753 
Q 2328 2753 2575 2939 
Q 2822 3125 2822 3475 
Q 2822 3834 2567 4026 
Q 2313 4219 1838 4219 
Q 1578 4219 1281 4162 
Q 984 4106 628 3988 
L 628 4550 
Q 988 4650 1302 4700 
Q 1616 4750 1894 4750 
Q 2613 4750 3031 4423 
Q 3450 4097 3450 3541 
Q 3450 3153 3228 2886 
Q 3006 2619 2597 2516 
z
" transform="scale(0.015625)"/>
     </defs>
     <use xlink:href="#DejaVuSans-33"/>
     <use xlink:href="#DejaVuSans-64" x="63.623047"/>
    </g>
   </g>
  </g>
 </g>
 <defs>
  <clipPath id="p057a3a09d9">
   <rect x="58.801563" y="7.2" width="284.005143" height="307.4"/>
  </clipPath>
 </defs>
</svg>
