<?xml version="1.0" encoding="utf-8" standalone="no"?>
<!DOCTYPE svg PUBLIC "-//W3C//DTD SVG 1.1//EN"
  "http://www.w3.org/Graphics/SVG/1.1/DTD/svg11.dtd">
<svg xmlns:xlink="http://www.w3.org/1999/xlink" width="401.846094pt" height="352.15625pt" viewBox="0 0 401.846094 352.15625" xmlns="http://www.w3.org/2000/svg" version="1.1">
 <metadata>
  <rdf:RDF xmlns:dc="http://purl.org/dc/elements/1.1/" xmlns:cc="http://creativecommons.org/ns#" xmlns:rdf="http://www.w3.org/1999/02/22-rdf-syntax-ns#">
   <cc:Work>
    <dc:type rdf:resource="http://purl.org/dc/dcmitype/StillImage"/>
    <dc:date>2022-03-25T19:30:54.222736</dc:date>
    <dc:format>image/svg+xml</dc:format>
    <dc:creator>
     <cc:Agent>
      <dc:title>Matplotlib v3.5.1, https://matplotlib.org/</dc:title>
     </cc:Agent>
    </dc:creator>
   </cc:Work>
  </rdf:RDF>
 </metadata>
 <defs>
  <style type="text/css">*{stroke-linejoin: round; stroke-linecap: butt}</style>
 </defs>
 <g id="figure_1">
  <g id="patch_1">
   <path d="M 0 352.15625 
L 401.846094 352.15625 
L 401.846094 0 
L 0 0 
L 0 352.15625 
z
" style="fill: none"/>
  </g>
  <g id="axes_1">
   <g id="patch_2">
    <path d="M 34.240625 314.6 
L 346.808594 314.6 
L 346.808594 7.2 
L 34.240625 7.2 
z
" style="fill: #ffffff"/>
   </g>
   <g id="patch_3">
    <path d="M 86.335286 275.643404 
L 86.335286 275.643404 
L 86.335286 275.643404 
L 86.335286 275.643404 
z
" clip-path="url(#p87fd1eb941)" style="fill: #3274a1; stroke: #3f3f3f; stroke-width: 0.75; stroke-linejoin: miter"/>
   </g>
   <g id="PolyCollection_1">
    <defs>
     <path id="madafe6098e" d="M 86.335286 -51.528977 
L 84.586846 -51.528977 
L 83.656775 -54.35175 
L 82.435803 -57.174524 
L 80.939818 -59.997297 
L 79.239056 -62.82007 
L 77.461161 -65.642843 
L 75.778211 -68.465616 
L 74.376742 -71.28839 
L 73.416079 -74.111163 
L 72.985983 -76.933936 
L 73.077117 -79.756709 
L 73.575475 -82.579482 
L 74.285143 -85.402256 
L 74.974851 -88.225029 
L 75.436078 -91.047802 
L 75.536556 -93.870575 
L 75.254141 -96.693348 
L 74.681492 -99.516121 
L 74.000248 -102.338895 
L 73.431905 -105.161668 
L 73.179178 -107.984441 
L 73.374255 -110.807214 
L 74.048066 -113.629987 
L 75.128111 -116.452761 
L 76.463547 -119.275534 
L 77.868228 -122.098307 
L 79.167975 -124.92108 
L 80.238633 -127.743853 
L 81.025945 -130.566626 
L 81.544702 -133.3894 
L 81.860717 -136.212173 
L 82.063176 -139.034946 
L 82.236136 -141.857719 
L 82.436718 -144.680492 
L 82.684585 -147.503266 
L 82.96373 -150.326039 
L 83.234264 -153.148812 
L 83.449632 -155.971585 
L 83.57384 -158.794358 
L 83.593906 -161.617132 
L 83.524499 -164.439905 
L 83.404081 -167.262678 
L 83.284179 -170.085451 
L 83.215173 -172.908224 
L 83.232811 -175.730997 
L 83.349251 -178.553771 
L 83.551006 -181.376544 
L 83.804014 -184.199317 
L 84.064001 -187.02209 
L 84.288876 -189.844863 
L 84.449561 -192.667637 
L 84.536443 -195.49041 
L 84.560063 -198.313183 
L 84.546409 -201.135956 
L 84.528556 -203.958729 
L 84.537232 -206.781503 
L 84.592946 -209.604276 
L 84.701662 -212.427049 
L 84.854824 -215.249822 
L 85.033254 -218.072595 
L 85.213379 -220.895368 
L 85.373792 -223.718142 
L 85.500313 -226.540915 
L 85.588406 -229.363688 
L 85.642738 -232.186461 
L 85.674455 -235.009234 
L 85.697258 -237.832008 
L 85.723516 -240.654781 
L 85.761406 -243.477554 
L 85.813658 -246.300327 
L 85.877937 -249.1231 
L 85.948468 -251.945874 
L 86.018216 -254.768647 
L 86.080926 -257.59142 
L 86.132513 -260.414193 
L 86.171567 -263.236966 
L 86.199058 -266.059739 
L 86.217506 -268.882513 
L 86.229976 -271.705286 
L 86.239192 -274.528059 
L 86.246972 -277.350832 
L 86.254059 -280.173605 
L 86.260286 -282.996379 
L 86.264972 -285.819152 
L 86.267397 -288.641925 
L 86.267203 -291.464698 
L 86.264636 -294.287471 
L 86.260569 -297.110244 
L 86.256316 -299.933018 
L 86.253324 -302.755791 
L 86.252814 -305.578564 
L 86.255501 -308.401337 
L 86.261449 -311.22411 
L 86.27011 -314.046884 
L 86.280504 -316.869657 
L 86.291481 -319.69243 
L 86.30198 -322.515203 
L 86.311215 -325.337976 
L 86.318752 -328.16075 
L 86.324494 -330.983523 
L 86.335286 -330.983523 
L 86.335286 -330.983523 
L 86.335286 -328.16075 
L 86.335286 -325.337976 
L 86.335286 -322.515203 
L 86.335286 -319.69243 
L 86.335286 -316.869657 
L 86.335286 -314.046884 
L 86.335286 -311.22411 
L 86.335286 -308.401337 
L 86.335286 -305.578564 
L 86.335286 -302.755791 
L 86.335286 -299.933018 
L 86.335286 -297.110244 
L 86.335286 -294.287471 
L 86.335286 -291.464698 
L 86.335286 -288.641925 
L 86.335286 -285.819152 
L 86.335286 -282.996379 
L 86.335286 -280.173605 
L 86.335286 -277.350832 
L 86.335286 -274.528059 
L 86.335286 -271.705286 
L 86.335286 -268.882513 
L 86.335286 -266.059739 
L 86.335286 -263.236966 
L 86.335286 -260.414193 
L 86.335286 -257.59142 
L 86.335286 -254.768647 
L 86.335286 -251.945874 
L 86.335286 -249.1231 
L 86.335286 -246.300327 
L 86.335286 -243.477554 
L 86.335286 -240.654781 
L 86.335286 -237.832008 
L 86.335286 -235.009234 
L 86.335286 -232.186461 
L 86.335286 -229.363688 
L 86.335286 -226.540915 
L 86.335286 -223.718142 
L 86.335286 -220.895368 
L 86.335286 -218.072595 
L 86.335286 -215.249822 
L 86.335286 -212.427049 
L 86.335286 -209.604276 
L 86.335286 -206.781503 
L 86.335286 -203.958729 
L 86.335286 -201.135956 
L 86.335286 -198.313183 
L 86.335286 -195.49041 
L 86.335286 -192.667637 
L 86.335286 -189.844863 
L 86.335286 -187.02209 
L 86.335286 -184.199317 
L 86.335286 -181.376544 
L 86.335286 -178.553771 
L 86.335286 -175.730997 
L 86.335286 -172.908224 
L 86.335286 -170.085451 
L 86.335286 -167.262678 
L 86.335286 -164.439905 
L 86.335286 -161.617132 
L 86.335286 -158.794358 
L 86.335286 -155.971585 
L 86.335286 -153.148812 
L 86.335286 -150.326039 
L 86.335286 -147.503266 
L 86.335286 -144.680492 
L 86.335286 -141.857719 
L 86.335286 -139.034946 
L 86.335286 -136.212173 
L 86.335286 -133.3894 
L 86.335286 -130.566626 
L 86.335286 -127.743853 
L 86.335286 -124.92108 
L 86.335286 -122.098307 
L 86.335286 -119.275534 
L 86.335286 -116.452761 
L 86.335286 -113.629987 
L 86.335286 -110.807214 
L 86.335286 -107.984441 
L 86.335286 -105.161668 
L 86.335286 -102.338895 
L 86.335286 -99.516121 
L 86.335286 -96.693348 
L 86.335286 -93.870575 
L 86.335286 -91.047802 
L 86.335286 -88.225029 
L 86.335286 -85.402256 
L 86.335286 -82.579482 
L 86.335286 -79.756709 
L 86.335286 -76.933936 
L 86.335286 -74.111163 
L 86.335286 -71.28839 
L 86.335286 -68.465616 
L 86.335286 -65.642843 
L 86.335286 -62.82007 
L 86.335286 -59.997297 
L 86.335286 -57.174524 
L 86.335286 -54.35175 
L 86.335286 -51.528977 
z
" style="stroke: #3f3f3f; stroke-width: 1.5"/>
    </defs>
    <g clip-path="url(#p87fd1eb941)">
     <use xlink:href="#madafe6098e" x="0" y="352.15625" style="fill: #3274a1; stroke: #3f3f3f; stroke-width: 1.5"/>
    </g>
   </g>
   <g id="patch_4">
    <path d="M 86.335286 275.643404 
L 86.335286 275.643404 
L 86.335286 275.643404 
L 86.335286 275.643404 
z
" clip-path="url(#p87fd1eb941)" style="fill: #e1812c; stroke: #3f3f3f; stroke-width: 0.75; stroke-linejoin: miter"/>
   </g>
   <g id="PolyCollection_2">
    <defs>
     <path id="m7b3fcd1ea6" d="M 91.975734 -60.596075 
L 86.335286 -60.596075 
L 86.335286 -62.573375 
L 86.335286 -64.550675 
L 86.335286 -66.527974 
L 86.335286 -68.505274 
L 86.335286 -70.482574 
L 86.335286 -72.459874 
L 86.335286 -74.437174 
L 86.335286 -76.414474 
L 86.335286 -78.391774 
L 86.335286 -80.369074 
L 86.335286 -82.346374 
L 86.335286 -84.323674 
L 86.335286 -86.300974 
L 86.335286 -88.278273 
L 86.335286 -90.255573 
L 86.335286 -92.232873 
L 86.335286 -94.210173 
L 86.335286 -96.187473 
L 86.335286 -98.164773 
L 86.335286 -100.142073 
L 86.335286 -102.119373 
L 86.335286 -104.096673 
L 86.335286 -106.073973 
L 86.335286 -108.051273 
L 86.335286 -110.028572 
L 86.335286 -112.005872 
L 86.335286 -113.983172 
L 86.335286 -115.960472 
L 86.335286 -117.937772 
L 86.335286 -119.915072 
L 86.335286 -121.892372 
L 86.335286 -123.869672 
L 86.335286 -125.846972 
L 86.335286 -127.824272 
L 86.335286 -129.801572 
L 86.335286 -131.778871 
L 86.335286 -133.756171 
L 86.335286 -135.733471 
L 86.335286 -137.710771 
L 86.335286 -139.688071 
L 86.335286 -141.665371 
L 86.335286 -143.642671 
L 86.335286 -145.619971 
L 86.335286 -147.597271 
L 86.335286 -149.574571 
L 86.335286 -151.551871 
L 86.335286 -153.529171 
L 86.335286 -155.50647 
L 86.335286 -157.48377 
L 86.335286 -159.46107 
L 86.335286 -161.43837 
L 86.335286 -163.41567 
L 86.335286 -165.39297 
L 86.335286 -167.37027 
L 86.335286 -169.34757 
L 86.335286 -171.32487 
L 86.335286 -173.30217 
L 86.335286 -175.27947 
L 86.335286 -177.256769 
L 86.335286 -179.234069 
L 86.335286 -181.211369 
L 86.335286 -183.188669 
L 86.335286 -185.165969 
L 86.335286 -187.143269 
L 86.335286 -189.120569 
L 86.335286 -191.097869 
L 86.335286 -193.075169 
L 86.335286 -195.052469 
L 86.335286 -197.029769 
L 86.335286 -199.007068 
L 86.335286 -200.984368 
L 86.335286 -202.961668 
L 86.335286 -204.938968 
L 86.335286 -206.916268 
L 86.335286 -208.893568 
L 86.335286 -210.870868 
L 86.335286 -212.848168 
L 86.335286 -214.825468 
L 86.335286 -216.802768 
L 86.335286 -218.780068 
L 86.335286 -220.757367 
L 86.335286 -222.734667 
L 86.335286 -224.711967 
L 86.335286 -226.689267 
L 86.335286 -228.666567 
L 86.335286 -230.643867 
L 86.335286 -232.621167 
L 86.335286 -234.598467 
L 86.335286 -236.575767 
L 86.335286 -238.553067 
L 86.335286 -240.530367 
L 86.335286 -242.507666 
L 86.335286 -244.484966 
L 86.335286 -246.462266 
L 86.335286 -248.439566 
L 86.335286 -250.416866 
L 86.335286 -252.394166 
L 86.335286 -254.371466 
L 86.335286 -256.348766 
L 86.352225 -256.348766 
L 86.352225 -256.348766 
L 86.362281 -254.371466 
L 86.375731 -252.394166 
L 86.392257 -250.416866 
L 86.410731 -248.439566 
L 86.429216 -246.462266 
L 86.445236 -244.484966 
L 86.456302 -242.507666 
L 86.460558 -240.530367 
L 86.457337 -238.553067 
L 86.447427 -236.575767 
L 86.432983 -234.598467 
L 86.417158 -232.621167 
L 86.403659 -230.643867 
L 86.396384 -228.666567 
L 86.399225 -226.689267 
L 86.415904 -224.711967 
L 86.449622 -222.734667 
L 86.502331 -220.757367 
L 86.57365 -218.780068 
L 86.659733 -216.802768 
L 86.752687 -214.825468 
L 86.841105 -212.848168 
L 86.911972 -210.870868 
L 86.953603 -208.893568 
L 86.958716 -206.916268 
L 86.926547 -204.938968 
L 86.863181 -202.961668 
L 86.780039 -200.984368 
L 86.691159 -199.007068 
L 86.610363 -197.029769 
L 86.549231 -195.052469 
L 86.516227 -193.075169 
L 86.516693 -191.097869 
L 86.553022 -189.120569 
L 86.62439 -187.143269 
L 86.725925 -185.165969 
L 86.847823 -183.188669 
L 86.975263 -181.211369 
L 87.089941 -179.234069 
L 87.173341 -177.256769 
L 87.211027 -175.27947 
L 87.196553 -173.30217 
L 87.133593 -171.32487 
L 87.035591 -169.34757 
L 86.923334 -167.37027 
L 86.82167 -165.39297 
L 86.756736 -163.41567 
L 86.754316 -161.43837 
L 86.838809 -159.46107 
L 87.031388 -157.48377 
L 87.345923 -155.50647 
L 87.782459 -153.529171 
L 88.319937 -151.551871 
L 88.911678 -149.574571 
L 89.487478 -147.597271 
L 89.964424 -145.619971 
L 90.264929 -143.642671 
L 90.336769 -141.665371 
L 90.168051 -139.688071 
L 89.791462 -137.710771 
L 89.276449 -135.733471 
L 88.712927 -133.756171 
L 88.193148 -131.778871 
L 87.797926 -129.801572 
L 87.590014 -127.824272 
L 87.613017 -125.846972 
L 87.891393 -123.869672 
L 88.42731 -121.892372 
L 89.193282 -119.915072 
L 90.123984 -117.937772 
L 91.113806 -115.960472 
L 92.026448 -113.983172 
L 92.718507 -112.005872 
L 93.072367 -110.028572 
L 93.028199 -108.051273 
L 92.603995 -106.073973 
L 91.897365 -104.096673 
L 91.070983 -102.119373 
L 90.330569 -100.142073 
L 89.905668 -98.164773 
L 90.038009 -96.187473 
L 90.972565 -94.210173 
L 92.938337 -92.232873 
L 96.105456 -90.255573 
L 100.515629 -88.278273 
L 106.001844 -86.300974 
L 112.13183 -84.323674 
L 118.216026 -82.346374 
L 123.405588 -80.369074 
L 126.870938 -78.391774 
L 128.011016 -76.414474 
L 126.619614 -74.437174 
L 122.944111 -72.459874 
L 117.612536 -70.482574 
L 111.457803 -68.505274 
L 105.306235 -66.527974 
L 99.80338 -64.550675 
L 95.324347 -62.573375 
L 91.975734 -60.596075 
z
" style="stroke: #3f3f3f; stroke-width: 1.5"/>
    </defs>
    <g clip-path="url(#p87fd1eb941)">
     <use xlink:href="#m7b3fcd1ea6" x="0" y="352.15625" style="fill: #e1812c; stroke: #3f3f3f; stroke-width: 1.5"/>
    </g>
   </g>
   <g id="PolyCollection_3">
    <defs>
     <path id="mdee68976c9" d="M 190.524609 -57.436144 
L 185.448126 -57.436144 
L 182.912732 -59.477281 
L 179.621907 -61.518418 
L 175.607276 -63.559555 
L 171.02772 -65.600692 
L 166.182302 -67.641828 
L 161.491666 -69.682965 
L 157.44384 -71.724102 
L 154.511404 -73.765239 
L 153.057828 -75.806376 
L 153.257063 -77.847513 
L 155.048762 -79.88865 
L 158.141874 -81.929787 
L 162.065219 -83.970924 
L 166.250609 -86.012061 
L 170.127028 -88.053197 
L 173.205318 -90.094334 
L 175.139939 -92.135471 
L 175.763406 -94.176608 
L 175.09568 -96.217745 
L 173.33295 -98.258882 
L 170.818778 -100.300019 
L 167.998545 -102.341156 
L 165.358387 -104.382293 
L 163.353529 -106.423429 
L 162.336476 -108.464566 
L 162.499537 -110.505703 
L 163.845681 -112.54684 
L 166.195653 -114.587977 
L 169.229636 -116.629114 
L 172.552311 -118.670251 
L 175.764741 -120.711388 
L 178.526946 -122.752525 
L 180.600492 -124.793662 
L 181.867825 -126.834798 
L 182.331289 -128.875935 
L 182.097634 -130.917072 
L 181.35347 -132.958209 
L 180.335171 -134.999346 
L 179.29526 -137.040483 
L 178.467448 -139.08162 
L 178.034072 -141.122757 
L 178.101227 -143.163894 
L 178.686906 -145.20503 
L 179.72518 -147.246167 
L 181.08553 -149.287304 
L 182.602369 -151.328441 
L 184.107319 -153.369578 
L 185.456911 -155.410715 
L 186.550709 -157.451852 
L 187.338345 -159.492989 
L 187.817022 -161.534126 
L 188.022699 -163.575263 
L 188.018286 -165.616399 
L 187.881245 -167.657536 
L 187.69188 -169.698673 
L 187.522949 -171.73981 
L 187.431133 -173.780947 
L 187.45116 -175.822084 
L 187.593427 -177.863221 
L 187.845585 -179.904358 
L 188.177784 -181.945495 
L 188.550318 -183.986631 
L 188.921918 -186.027768 
L 189.256871 -188.068905 
L 189.529767 -190.110042 
L 189.727452 -192.151179 
L 189.848584 -194.192316 
L 189.901546 -196.233453 
L 189.901582 -198.27459 
L 189.867734 -200.315727 
L 189.819916 -202.356864 
L 189.776296 -204.398 
L 189.751102 -206.439137 
L 189.753048 -208.480274 
L 189.784614 -210.521411 
L 189.842283 -212.562548 
L 189.917718 -214.603685 
L 189.999596 -216.644822 
L 190.075712 -218.685959 
L 190.134955 -220.727096 
L 190.16887 -222.768232 
L 190.172704 -224.809369 
L 190.145929 -226.850506 
L 190.092307 -228.891643 
L 190.019497 -230.93278 
L 189.938169 -232.973917 
L 189.860616 -235.015054 
L 189.798961 -237.056191 
L 189.763213 -239.097328 
L 189.759579 -241.138465 
L 189.78946 -243.179601 
L 189.84941 -245.220738 
L 189.932066 -247.261875 
L 190.027814 -249.303012 
L 190.126708 -251.344149 
L 190.220172 -253.385286 
L 190.302105 -255.426423 
L 190.369265 -257.46756 
L 190.421008 -259.508697 
L 190.524609 -259.508697 
L 190.524609 -259.508697 
L 190.524609 -257.46756 
L 190.524609 -255.426423 
L 190.524609 -253.385286 
L 190.524609 -251.344149 
L 190.524609 -249.303012 
L 190.524609 -247.261875 
L 190.524609 -245.220738 
L 190.524609 -243.179601 
L 190.524609 -241.138465 
L 190.524609 -239.097328 
L 190.524609 -237.056191 
L 190.524609 -235.015054 
L 190.524609 -232.973917 
L 190.524609 -230.93278 
L 190.524609 -228.891643 
L 190.524609 -226.850506 
L 190.524609 -224.809369 
L 190.524609 -222.768232 
L 190.524609 -220.727096 
L 190.524609 -218.685959 
L 190.524609 -216.644822 
L 190.524609 -214.603685 
L 190.524609 -212.562548 
L 190.524609 -210.521411 
L 190.524609 -208.480274 
L 190.524609 -206.439137 
L 190.524609 -204.398 
L 190.524609 -202.356864 
L 190.524609 -200.315727 
L 190.524609 -198.27459 
L 190.524609 -196.233453 
L 190.524609 -194.192316 
L 190.524609 -192.151179 
L 190.524609 -190.110042 
L 190.524609 -188.068905 
L 190.524609 -186.027768 
L 190.524609 -183.986631 
L 190.524609 -181.945495 
L 190.524609 -179.904358 
L 190.524609 -177.863221 
L 190.524609 -175.822084 
L 190.524609 -173.780947 
L 190.524609 -171.73981 
L 190.524609 -169.698673 
L 190.524609 -167.657536 
L 190.524609 -165.616399 
L 190.524609 -163.575263 
L 190.524609 -161.534126 
L 190.524609 -159.492989 
L 190.524609 -157.451852 
L 190.524609 -155.410715 
L 190.524609 -153.369578 
L 190.524609 -151.328441 
L 190.524609 -149.287304 
L 190.524609 -147.246167 
L 190.524609 -145.20503 
L 190.524609 -143.163894 
L 190.524609 -141.122757 
L 190.524609 -139.08162 
L 190.524609 -137.040483 
L 190.524609 -134.999346 
L 190.524609 -132.958209 
L 190.524609 -130.917072 
L 190.524609 -128.875935 
L 190.524609 -126.834798 
L 190.524609 -124.793662 
L 190.524609 -122.752525 
L 190.524609 -120.711388 
L 190.524609 -118.670251 
L 190.524609 -116.629114 
L 190.524609 -114.587977 
L 190.524609 -112.54684 
L 190.524609 -110.505703 
L 190.524609 -108.464566 
L 190.524609 -106.423429 
L 190.524609 -104.382293 
L 190.524609 -102.341156 
L 190.524609 -100.300019 
L 190.524609 -98.258882 
L 190.524609 -96.217745 
L 190.524609 -94.176608 
L 190.524609 -92.135471 
L 190.524609 -90.094334 
L 190.524609 -88.053197 
L 190.524609 -86.012061 
L 190.524609 -83.970924 
L 190.524609 -81.929787 
L 190.524609 -79.88865 
L 190.524609 -77.847513 
L 190.524609 -75.806376 
L 190.524609 -73.765239 
L 190.524609 -71.724102 
L 190.524609 -69.682965 
L 190.524609 -67.641828 
L 190.524609 -65.600692 
L 190.524609 -63.559555 
L 190.524609 -61.518418 
L 190.524609 -59.477281 
L 190.524609 -57.436144 
z
" style="stroke: #3f3f3f; stroke-width: 1.5"/>
    </defs>
    <g clip-path="url(#p87fd1eb941)">
     <use xlink:href="#mdee68976c9" x="0" y="352.15625" style="fill: #3274a1; stroke: #3f3f3f; stroke-width: 1.5"/>
    </g>
   </g>
   <g id="PolyCollection_4">
    <defs>
     <path id="m3493916c90" d="M 196.137119 -54.239834 
L 190.524609 -54.239834 
L 190.524609 -57.007842 
L 190.524609 -59.775851 
L 190.524609 -62.543859 
L 190.524609 -65.311867 
L 190.524609 -68.079876 
L 190.524609 -70.847884 
L 190.524609 -73.615893 
L 190.524609 -76.383901 
L 190.524609 -79.151909 
L 190.524609 -81.919918 
L 190.524609 -84.687926 
L 190.524609 -87.455935 
L 190.524609 -90.223943 
L 190.524609 -92.991952 
L 190.524609 -95.75996 
L 190.524609 -98.527968 
L 190.524609 -101.295977 
L 190.524609 -104.063985 
L 190.524609 -106.831994 
L 190.524609 -109.600002 
L 190.524609 -112.36801 
L 190.524609 -115.136019 
L 190.524609 -117.904027 
L 190.524609 -120.672036 
L 190.524609 -123.440044 
L 190.524609 -126.208052 
L 190.524609 -128.976061 
L 190.524609 -131.744069 
L 190.524609 -134.512078 
L 190.524609 -137.280086 
L 190.524609 -140.048094 
L 190.524609 -142.816103 
L 190.524609 -145.584111 
L 190.524609 -148.35212 
L 190.524609 -151.120128 
L 190.524609 -153.888136 
L 190.524609 -156.656145 
L 190.524609 -159.424153 
L 190.524609 -162.192162 
L 190.524609 -164.96017 
L 190.524609 -167.728179 
L 190.524609 -170.496187 
L 190.524609 -173.264195 
L 190.524609 -176.032204 
L 190.524609 -178.800212 
L 190.524609 -181.568221 
L 190.524609 -184.336229 
L 190.524609 -187.104237 
L 190.524609 -189.872246 
L 190.524609 -192.640254 
L 190.524609 -195.408263 
L 190.524609 -198.176271 
L 190.524609 -200.944279 
L 190.524609 -203.712288 
L 190.524609 -206.480296 
L 190.524609 -209.248305 
L 190.524609 -212.016313 
L 190.524609 -214.784321 
L 190.524609 -217.55233 
L 190.524609 -220.320338 
L 190.524609 -223.088347 
L 190.524609 -225.856355 
L 190.524609 -228.624364 
L 190.524609 -231.392372 
L 190.524609 -234.16038 
L 190.524609 -236.928389 
L 190.524609 -239.696397 
L 190.524609 -242.464406 
L 190.524609 -245.232414 
L 190.524609 -248.000422 
L 190.524609 -250.768431 
L 190.524609 -253.536439 
L 190.524609 -256.304448 
L 190.524609 -259.072456 
L 190.524609 -261.840464 
L 190.524609 -264.608473 
L 190.524609 -267.376481 
L 190.524609 -270.14449 
L 190.524609 -272.912498 
L 190.524609 -275.680506 
L 190.524609 -278.448515 
L 190.524609 -281.216523 
L 190.524609 -283.984532 
L 190.524609 -286.75254 
L 190.524609 -289.520548 
L 190.524609 -292.288557 
L 190.524609 -295.056565 
L 190.524609 -297.824574 
L 190.524609 -300.592582 
L 190.524609 -303.360591 
L 190.524609 -306.128599 
L 190.524609 -308.896607 
L 190.524609 -311.664616 
L 190.524609 -314.432624 
L 190.524609 -317.200633 
L 190.524609 -319.968641 
L 190.524609 -322.736649 
L 190.524609 -325.504658 
L 190.524609 -328.272666 
L 190.546794 -328.272666 
L 190.546794 -328.272666 
L 190.559971 -325.504658 
L 190.577602 -322.736649 
L 190.599273 -319.968641 
L 190.623521 -317.200633 
L 190.64784 -314.432624 
L 190.669055 -311.664616 
L 190.684039 -308.896607 
L 190.690593 -306.128599 
L 190.688189 -303.360591 
L 190.678286 -300.592582 
L 190.664077 -297.824574 
L 190.649716 -295.056565 
L 190.639259 -292.288557 
L 190.635621 -289.520548 
L 190.639841 -286.75254 
L 190.650853 -283.984532 
L 190.665823 -281.216523 
L 190.68101 -278.448515 
L 190.692965 -275.680506 
L 190.699772 -272.912498 
L 190.701989 -270.14449 
L 190.702992 -267.376481 
L 190.708496 -264.608473 
L 190.7253 -261.840464 
L 190.759403 -259.072456 
L 190.813942 -256.304448 
L 190.887482 -253.536439 
L 190.973307 -250.768431 
L 191.06024 -248.000422 
L 191.13514 -245.232414 
L 191.186667 -242.464406 
L 191.209297 -239.696397 
L 191.2063 -236.928389 
L 191.19048 -234.16038 
L 191.182127 -231.392372 
L 191.204361 -228.624364 
L 191.276862 -225.856355 
L 191.409465 -223.088347 
L 191.597431 -220.320338 
L 191.820095 -217.55233 
L 192.04404 -214.784321 
L 192.230769 -212.016313 
L 192.347278 -209.248305 
L 192.376529 -206.480296 
L 192.324364 -203.712288 
L 192.22021 -200.944279 
L 192.110846 -198.176271 
L 192.048657 -195.408263 
L 192.077466 -192.640254 
L 192.219689 -189.872246 
L 192.468351 -187.104237 
L 192.786594 -184.336229 
L 193.115737 -181.568221 
L 193.390819 -178.800212 
L 193.56011 -176.032204 
L 193.603178 -173.264195 
L 193.541718 -170.496187 
L 193.438965 -167.728179 
L 193.386608 -164.96017 
L 193.481681 -162.192162 
L 193.798751 -159.424153 
L 194.364449 -156.656145 
L 195.141805 -153.888136 
L 196.03072 -151.120128 
L 196.887726 -148.35212 
L 197.562828 -145.584111 
L 197.94488 -142.816103 
L 198.00219 -140.048094 
L 197.804474 -137.280086 
L 197.51681 -134.512078 
L 197.364312 -131.744069 
L 197.574817 -128.976061 
L 198.313336 -126.208052 
L 199.625336 -123.440044 
L 201.405957 -120.672036 
L 203.40866 -117.904027 
L 205.298508 -115.136019 
L 206.742456 -112.36801 
L 207.51488 -109.600002 
L 207.586892 -106.831994 
L 207.168309 -104.063985 
L 206.682757 -101.295977 
L 206.675142 -98.527968 
L 207.669995 -95.75996 
L 210.013726 -92.991952 
L 213.74159 -90.223943 
L 218.510246 -87.455935 
L 223.626841 -84.687926 
L 228.182839 -81.919918 
L 231.267253 -79.151909 
L 232.200339 -76.383901 
L 230.712236 -73.615893 
L 227.0046 -70.847884 
L 221.675354 -68.079876 
L 215.53887 -65.311867 
L 209.410703 -62.543859 
L 203.930572 -59.775851 
L 199.470816 -57.007842 
L 196.137119 -54.239834 
z
" style="stroke: #3f3f3f; stroke-width: 1.5"/>
    </defs>
    <g clip-path="url(#p87fd1eb941)">
     <use xlink:href="#m3493916c90" x="0" y="352.15625" style="fill: #e1812c; stroke: #3f3f3f; stroke-width: 1.5"/>
    </g>
   </g>
   <g id="PolyCollection_5">
    <defs>
     <path id="mc30173f6ea" d="M 294.713932 -63.644049 
L 289.895196 -63.644049 
L 287.063818 -65.228624 
L 283.283464 -66.813198 
L 278.640026 -68.397773 
L 273.440373 -69.982348 
L 268.215497 -71.566923 
L 263.649629 -73.151498 
L 260.439966 -74.736073 
L 259.12389 -76.320648 
L 259.931959 -77.905223 
L 262.721878 -79.489798 
L 267.019374 -81.074372 
L 272.149791 -82.658947 
L 277.410103 -84.243522 
L 282.221152 -85.828097 
L 286.216256 -87.412672 
L 289.253602 -88.997247 
L 291.369033 -90.581822 
L 292.701071 -92.166397 
L 293.419005 -93.750972 
L 293.673506 -95.335546 
L 293.575623 -96.920121 
L 293.19993 -98.504696 
L 292.602462 -100.089271 
L 291.842809 -101.673846 
L 291.000773 -103.258421 
L 290.180635 -104.842996 
L 289.500508 -106.427571 
L 289.069752 -108.012145 
L 288.962567 -109.59672 
L 289.198092 -111.181295 
L 289.735202 -112.76587 
L 290.484368 -114.350445 
L 291.332018 -115.93502 
L 292.168329 -117.519595 
L 292.909132 -119.10417 
L 293.50626 -120.688745 
L 293.945933 -122.273319 
L 294.23892 -123.857894 
L 294.407909 -125.442469 
L 294.476714 -127.027044 
L 294.463957 -128.611619 
L 294.381726 -130.196194 
L 294.238234 -131.780769 
L 294.042661 -133.365344 
L 293.809977 -134.949918 
L 293.563657 -136.534493 
L 293.334761 -138.119068 
L 293.157111 -139.703643 
L 293.059834 -141.288218 
L 293.059851 -142.872793 
L 293.157185 -144.457368 
L 293.334993 -146.041943 
L 293.564338 -147.626518 
L 293.811852 -149.211092 
L 294.047516 -150.795667 
L 294.250066 -152.380242 
L 294.408865 -153.964817 
L 294.522546 -155.549392 
L 294.595756 -157.133967 
L 294.635546 -158.718542 
L 294.648603 -160.303117 
L 294.63986 -161.887691 
L 294.61248 -163.472266 
L 294.568834 -165.056841 
L 294.511911 -166.641416 
L 294.44654 -168.225991 
L 294.379877 -169.810566 
L 294.320827 -171.395141 
L 294.278457 -172.979716 
L 294.259878 -174.564291 
L 294.268354 -176.148865 
L 294.3024 -177.73344 
L 294.356204 -179.318015 
L 294.421259 -180.90259 
L 294.488536 -182.487165 
L 294.550469 -184.07174 
L 294.602135 -185.656315 
L 294.641464 -187.24089 
L 294.668653 -188.825464 
L 294.685196 -190.410039 
L 294.692939 -191.994614 
L 294.69344 -193.579189 
L 294.68773 -195.163764 
L 294.676449 -196.748339 
L 294.660216 -198.332914 
L 294.640079 -199.917489 
L 294.617833 -201.502064 
L 294.596055 -203.086638 
L 294.577786 -204.671213 
L 294.565921 -206.255788 
L 294.562484 -207.840363 
L 294.568085 -209.424938 
L 294.581744 -211.009513 
L 294.601173 -212.594088 
L 294.623407 -214.178663 
L 294.645533 -215.763237 
L 294.665292 -217.347812 
L 294.681379 -218.932387 
L 294.693427 -220.516962 
L 294.713932 -220.516962 
L 294.713932 -220.516962 
L 294.713932 -218.932387 
L 294.713932 -217.347812 
L 294.713932 -215.763237 
L 294.713932 -214.178663 
L 294.713932 -212.594088 
L 294.713932 -211.009513 
L 294.713932 -209.424938 
L 294.713932 -207.840363 
L 294.713932 -206.255788 
L 294.713932 -204.671213 
L 294.713932 -203.086638 
L 294.713932 -201.502064 
L 294.713932 -199.917489 
L 294.713932 -198.332914 
L 294.713932 -196.748339 
L 294.713932 -195.163764 
L 294.713932 -193.579189 
L 294.713932 -191.994614 
L 294.713932 -190.410039 
L 294.713932 -188.825464 
L 294.713932 -187.24089 
L 294.713932 -185.656315 
L 294.713932 -184.07174 
L 294.713932 -182.487165 
L 294.713932 -180.90259 
L 294.713932 -179.318015 
L 294.713932 -177.73344 
L 294.713932 -176.148865 
L 294.713932 -174.564291 
L 294.713932 -172.979716 
L 294.713932 -171.395141 
L 294.713932 -169.810566 
L 294.713932 -168.225991 
L 294.713932 -166.641416 
L 294.713932 -165.056841 
L 294.713932 -163.472266 
L 294.713932 -161.887691 
L 294.713932 -160.303117 
L 294.713932 -158.718542 
L 294.713932 -157.133967 
L 294.713932 -155.549392 
L 294.713932 -153.964817 
L 294.713932 -152.380242 
L 294.713932 -150.795667 
L 294.713932 -149.211092 
L 294.713932 -147.626518 
L 294.713932 -146.041943 
L 294.713932 -144.457368 
L 294.713932 -142.872793 
L 294.713932 -141.288218 
L 294.713932 -139.703643 
L 294.713932 -138.119068 
L 294.713932 -136.534493 
L 294.713932 -134.949918 
L 294.713932 -133.365344 
L 294.713932 -131.780769 
L 294.713932 -130.196194 
L 294.713932 -128.611619 
L 294.713932 -127.027044 
L 294.713932 -125.442469 
L 294.713932 -123.857894 
L 294.713932 -122.273319 
L 294.713932 -120.688745 
L 294.713932 -119.10417 
L 294.713932 -117.519595 
L 294.713932 -115.93502 
L 294.713932 -114.350445 
L 294.713932 -112.76587 
L 294.713932 -111.181295 
L 294.713932 -109.59672 
L 294.713932 -108.012145 
L 294.713932 -106.427571 
L 294.713932 -104.842996 
L 294.713932 -103.258421 
L 294.713932 -101.673846 
L 294.713932 -100.089271 
L 294.713932 -98.504696 
L 294.713932 -96.920121 
L 294.713932 -95.335546 
L 294.713932 -93.750972 
L 294.713932 -92.166397 
L 294.713932 -90.581822 
L 294.713932 -88.997247 
L 294.713932 -87.412672 
L 294.713932 -85.828097 
L 294.713932 -84.243522 
L 294.713932 -82.658947 
L 294.713932 -81.074372 
L 294.713932 -79.489798 
L 294.713932 -77.905223 
L 294.713932 -76.320648 
L 294.713932 -74.736073 
L 294.713932 -73.151498 
L 294.713932 -71.566923 
L 294.713932 -69.982348 
L 294.713932 -68.397773 
L 294.713932 -66.813198 
L 294.713932 -65.228624 
L 294.713932 -63.644049 
z
" style="stroke: #3f3f3f; stroke-width: 1.5"/>
    </defs>
    <g clip-path="url(#p87fd1eb941)">
     <use xlink:href="#mc30173f6ea" x="0" y="352.15625" style="fill: #3274a1; stroke: #3f3f3f; stroke-width: 1.5"/>
    </g>
   </g>
   <g id="PolyCollection_6">
    <defs>
     <path id="m63505bc6de" d="M 300.379364 -64.915207 
L 294.713932 -64.915207 
L 294.713932 -66.142952 
L 294.713932 -67.370698 
L 294.713932 -68.598443 
L 294.713932 -69.826188 
L 294.713932 -71.053933 
L 294.713932 -72.281678 
L 294.713932 -73.509423 
L 294.713932 -74.737168 
L 294.713932 -75.964913 
L 294.713932 -77.192659 
L 294.713932 -78.420404 
L 294.713932 -79.648149 
L 294.713932 -80.875894 
L 294.713932 -82.103639 
L 294.713932 -83.331384 
L 294.713932 -84.559129 
L 294.713932 -85.786874 
L 294.713932 -87.014619 
L 294.713932 -88.242365 
L 294.713932 -89.47011 
L 294.713932 -90.697855 
L 294.713932 -91.9256 
L 294.713932 -93.153345 
L 294.713932 -94.38109 
L 294.713932 -95.608835 
L 294.713932 -96.83658 
L 294.713932 -98.064325 
L 294.713932 -99.292071 
L 294.713932 -100.519816 
L 294.713932 -101.747561 
L 294.713932 -102.975306 
L 294.713932 -104.203051 
L 294.713932 -105.430796 
L 294.713932 -106.658541 
L 294.713932 -107.886286 
L 294.713932 -109.114032 
L 294.713932 -110.341777 
L 294.713932 -111.569522 
L 294.713932 -112.797267 
L 294.713932 -114.025012 
L 294.713932 -115.252757 
L 294.713932 -116.480502 
L 294.713932 -117.708247 
L 294.713932 -118.935992 
L 294.713932 -120.163738 
L 294.713932 -121.391483 
L 294.713932 -122.619228 
L 294.713932 -123.846973 
L 294.713932 -125.074718 
L 294.713932 -126.302463 
L 294.713932 -127.530208 
L 294.713932 -128.757953 
L 294.713932 -129.985698 
L 294.713932 -131.213444 
L 294.713932 -132.441189 
L 294.713932 -133.668934 
L 294.713932 -134.896679 
L 294.713932 -136.124424 
L 294.713932 -137.352169 
L 294.713932 -138.579914 
L 294.713932 -139.807659 
L 294.713932 -141.035405 
L 294.713932 -142.26315 
L 294.713932 -143.490895 
L 294.713932 -144.71864 
L 294.713932 -145.946385 
L 294.713932 -147.17413 
L 294.713932 -148.401875 
L 294.713932 -149.62962 
L 294.713932 -150.857365 
L 294.713932 -152.085111 
L 294.713932 -153.312856 
L 294.713932 -154.540601 
L 294.713932 -155.768346 
L 294.713932 -156.996091 
L 294.713932 -158.223836 
L 294.713932 -159.451581 
L 294.713932 -160.679326 
L 294.713932 -161.907071 
L 294.713932 -163.134817 
L 294.713932 -164.362562 
L 294.713932 -165.590307 
L 294.713932 -166.818052 
L 294.713932 -168.045797 
L 294.713932 -169.273542 
L 294.713932 -170.501287 
L 294.713932 -171.729032 
L 294.713932 -172.956777 
L 294.713932 -174.184523 
L 294.713932 -175.412268 
L 294.713932 -176.640013 
L 294.713932 -177.867758 
L 294.713932 -179.095503 
L 294.713932 -180.323248 
L 294.713932 -181.550993 
L 294.713932 -182.778738 
L 294.713932 -184.006484 
L 294.713932 -185.234229 
L 294.713932 -186.461974 
L 294.827696 -186.461974 
L 294.827696 -186.461974 
L 294.883823 -185.234229 
L 294.95652 -184.006484 
L 295.045139 -182.778738 
L 295.146308 -181.550993 
L 295.253637 -180.323248 
L 295.358076 -179.095503 
L 295.449023 -177.867758 
L 295.516038 -176.640013 
L 295.550794 -175.412268 
L 295.548782 -174.184523 
L 295.510266 -172.956777 
L 295.440229 -171.729032 
L 295.347317 -170.501287 
L 295.242085 -169.273542 
L 295.135053 -168.045797 
L 295.035046 -166.818052 
L 294.948188 -165.590307 
L 294.877638 -164.362562 
L 294.823993 -163.134817 
L 294.786101 -161.907071 
L 294.762011 -160.679326 
L 294.749865 -159.451581 
L 294.748557 -158.223836 
L 294.758131 -156.996091 
L 294.779859 -155.768346 
L 294.816016 -154.540601 
L 294.869313 -153.312856 
L 294.942033 -152.085111 
L 295.034955 -150.857365 
L 295.14627 -149.62962 
L 295.270794 -148.401875 
L 295.399793 -147.17413 
L 295.521662 -145.946385 
L 295.623491 -144.71864 
L 295.693261 -143.490895 
L 295.72216 -142.26315 
L 295.706411 -141.035405 
L 295.648083 -139.807659 
L 295.554646 -138.579914 
L 295.437405 -137.352169 
L 295.309274 -136.124424 
L 295.182494 -134.896679 
L 295.066881 -133.668934 
L 294.968935 -132.441189 
L 294.891904 -131.213444 
L 294.836619 -129.985698 
L 294.802842 -128.757953 
L 294.790808 -127.530208 
L 294.802693 -126.302463 
L 294.843807 -125.074718 
L 294.92325 -123.846973 
L 295.053754 -122.619228 
L 295.250388 -121.391483 
L 295.52789 -120.163738 
L 295.896665 -118.935992 
L 296.357966 -117.708247 
L 296.899326 -116.480502 
L 297.491722 -115.252757 
L 298.089966 -114.025012 
L 298.6372 -112.797267 
L 299.073281 -111.569522 
L 299.345495 -110.341777 
L 299.418999 -109.114032 
L 299.28415 -107.886286 
L 298.958591 -106.658541 
L 298.483486 -105.430796 
L 297.915039 -104.203051 
L 297.313761 -102.975306 
L 296.734436 -101.747561 
L 296.219236 -100.519816 
L 295.795318 -99.292071 
L 295.477039 -98.064325 
L 295.271931 -96.83658 
L 295.189187 -95.608835 
L 295.249291 -94.38109 
L 295.493425 -93.153345 
L 295.990929 -91.9256 
L 296.842513 -90.697855 
L 298.176143 -89.47011 
L 300.132504 -88.242365 
L 302.83814 -87.014619 
L 306.367569 -85.786874 
L 310.700312 -84.559129 
L 315.683709 -83.331384 
L 321.015185 -82.103639 
L 326.256218 -80.875894 
L 330.883433 -79.648149 
L 334.371315 -78.420404 
L 336.289446 -77.192659 
L 336.389661 -75.964913 
L 334.658781 -74.737168 
L 331.321456 -73.509423 
L 326.792274 -72.281678 
L 321.591221 -71.053933 
L 316.246261 -69.826188 
L 311.208028 -68.598443 
L 306.794797 -67.370698 
L 303.174501 -66.142952 
L 300.379364 -64.915207 
z
" style="stroke: #3f3f3f; stroke-width: 1.5"/>
    </defs>
    <g clip-path="url(#p87fd1eb941)">
     <use xlink:href="#m63505bc6de" x="0" y="352.15625" style="fill: #e1812c; stroke: #3f3f3f; stroke-width: 1.5"/>
    </g>
   </g>
   <g id="matplotlib.axis_1">
    <g id="xtick_1">
     <g id="line2d_1">
      <defs>
       <path id="m8a2e0c85ec" d="M 0 0 
L 0 3.5 
" style="stroke: #000000; stroke-width: 0.8"/>
      </defs>
      <g>
       <use xlink:href="#m8a2e0c85ec" x="86.335286" y="314.6" style="stroke: #000000; stroke-width: 0.8"/>
      </g>
     </g>
     <g id="text_1">
      <!-- teb -->
      <g transform="translate(78.124349 329.198437)scale(0.1 -0.1)">
       <defs>
        <path id="DejaVuSans-74" d="M 1172 4494 
L 1172 3500 
L 2356 3500 
L 2356 3053 
L 1172 3053 
L 1172 1153 
Q 1172 725 1289 603 
Q 1406 481 1766 481 
L 2356 481 
L 2356 0 
L 1766 0 
Q 1100 0 847 248 
Q 594 497 594 1153 
L 594 3053 
L 172 3053 
L 172 3500 
L 594 3500 
L 594 4494 
L 1172 4494 
z
" transform="scale(0.015625)"/>
        <path id="DejaVuSans-65" d="M 3597 1894 
L 3597 1613 
L 953 1613 
Q 991 1019 1311 708 
Q 1631 397 2203 397 
Q 2534 397 2845 478 
Q 3156 559 3463 722 
L 3463 178 
Q 3153 47 2828 -22 
Q 2503 -91 2169 -91 
Q 1331 -91 842 396 
Q 353 884 353 1716 
Q 353 2575 817 3079 
Q 1281 3584 2069 3584 
Q 2775 3584 3186 3129 
Q 3597 2675 3597 1894 
z
M 3022 2063 
Q 3016 2534 2758 2815 
Q 2500 3097 2075 3097 
Q 1594 3097 1305 2825 
Q 1016 2553 972 2059 
L 3022 2063 
z
" transform="scale(0.015625)"/>
        <path id="DejaVuSans-62" d="M 3116 1747 
Q 3116 2381 2855 2742 
Q 2594 3103 2138 3103 
Q 1681 3103 1420 2742 
Q 1159 2381 1159 1747 
Q 1159 1113 1420 752 
Q 1681 391 2138 391 
Q 2594 391 2855 752 
Q 3116 1113 3116 1747 
z
M 1159 2969 
Q 1341 3281 1617 3432 
Q 1894 3584 2278 3584 
Q 2916 3584 3314 3078 
Q 3713 2572 3713 1747 
Q 3713 922 3314 415 
Q 2916 -91 2278 -91 
Q 1894 -91 1617 61 
Q 1341 213 1159 525 
L 1159 0 
L 581 0 
L 581 4863 
L 1159 4863 
L 1159 2969 
z
" transform="scale(0.015625)"/>
       </defs>
       <use xlink:href="#DejaVuSans-74"/>
       <use xlink:href="#DejaVuSans-65" x="39.208984"/>
       <use xlink:href="#DejaVuSans-62" x="100.732422"/>
      </g>
     </g>
    </g>
    <g id="xtick_2">
     <g id="line2d_2">
      <g>
       <use xlink:href="#m8a2e0c85ec" x="190.524609" y="314.6" style="stroke: #000000; stroke-width: 0.8"/>
      </g>
     </g>
     <g id="text_2">
      <!-- dwa -->
      <g transform="translate(180.197266 329.198437)scale(0.1 -0.1)">
       <defs>
        <path id="DejaVuSans-64" d="M 2906 2969 
L 2906 4863 
L 3481 4863 
L 3481 0 
L 2906 0 
L 2906 525 
Q 2725 213 2448 61 
Q 2172 -91 1784 -91 
Q 1150 -91 751 415 
Q 353 922 353 1747 
Q 353 2572 751 3078 
Q 1150 3584 1784 3584 
Q 2172 3584 2448 3432 
Q 2725 3281 2906 2969 
z
M 947 1747 
Q 947 1113 1208 752 
Q 1469 391 1925 391 
Q 2381 391 2643 752 
Q 2906 1113 2906 1747 
Q 2906 2381 2643 2742 
Q 2381 3103 1925 3103 
Q 1469 3103 1208 2742 
Q 947 2381 947 1747 
z
" transform="scale(0.015625)"/>
        <path id="DejaVuSans-77" d="M 269 3500 
L 844 3500 
L 1563 769 
L 2278 3500 
L 2956 3500 
L 3675 769 
L 4391 3500 
L 4966 3500 
L 4050 0 
L 3372 0 
L 2619 2869 
L 1863 0 
L 1184 0 
L 269 3500 
z
" transform="scale(0.015625)"/>
        <path id="DejaVuSans-61" d="M 2194 1759 
Q 1497 1759 1228 1600 
Q 959 1441 959 1056 
Q 959 750 1161 570 
Q 1363 391 1709 391 
Q 2188 391 2477 730 
Q 2766 1069 2766 1631 
L 2766 1759 
L 2194 1759 
z
M 3341 1997 
L 3341 0 
L 2766 0 
L 2766 531 
Q 2569 213 2275 61 
Q 1981 -91 1556 -91 
Q 1019 -91 701 211 
Q 384 513 384 1019 
Q 384 1609 779 1909 
Q 1175 2209 1959 2209 
L 2766 2209 
L 2766 2266 
Q 2766 2663 2505 2880 
Q 2244 3097 1772 3097 
Q 1472 3097 1187 3025 
Q 903 2953 641 2809 
L 641 3341 
Q 956 3463 1253 3523 
Q 1550 3584 1831 3584 
Q 2591 3584 2966 3190 
Q 3341 2797 3341 1997 
z
" transform="scale(0.015625)"/>
       </defs>
       <use xlink:href="#DejaVuSans-64"/>
       <use xlink:href="#DejaVuSans-77" x="63.476562"/>
       <use xlink:href="#DejaVuSans-61" x="145.263672"/>
      </g>
     </g>
    </g>
    <g id="xtick_3">
     <g id="line2d_3">
      <g>
       <use xlink:href="#m8a2e0c85ec" x="294.713932" y="314.6" style="stroke: #000000; stroke-width: 0.8"/>
      </g>
     </g>
     <g id="text_3">
      <!-- rosnav -->
      <g transform="translate(277.914714 329.198437)scale(0.1 -0.1)">
       <defs>
        <path id="DejaVuSans-72" d="M 2631 2963 
Q 2534 3019 2420 3045 
Q 2306 3072 2169 3072 
Q 1681 3072 1420 2755 
Q 1159 2438 1159 1844 
L 1159 0 
L 581 0 
L 581 3500 
L 1159 3500 
L 1159 2956 
Q 1341 3275 1631 3429 
Q 1922 3584 2338 3584 
Q 2397 3584 2469 3576 
Q 2541 3569 2628 3553 
L 2631 2963 
z
" transform="scale(0.015625)"/>
        <path id="DejaVuSans-6f" d="M 1959 3097 
Q 1497 3097 1228 2736 
Q 959 2375 959 1747 
Q 959 1119 1226 758 
Q 1494 397 1959 397 
Q 2419 397 2687 759 
Q 2956 1122 2956 1747 
Q 2956 2369 2687 2733 
Q 2419 3097 1959 3097 
z
M 1959 3584 
Q 2709 3584 3137 3096 
Q 3566 2609 3566 1747 
Q 3566 888 3137 398 
Q 2709 -91 1959 -91 
Q 1206 -91 779 398 
Q 353 888 353 1747 
Q 353 2609 779 3096 
Q 1206 3584 1959 3584 
z
" transform="scale(0.015625)"/>
        <path id="DejaVuSans-73" d="M 2834 3397 
L 2834 2853 
Q 2591 2978 2328 3040 
Q 2066 3103 1784 3103 
Q 1356 3103 1142 2972 
Q 928 2841 928 2578 
Q 928 2378 1081 2264 
Q 1234 2150 1697 2047 
L 1894 2003 
Q 2506 1872 2764 1633 
Q 3022 1394 3022 966 
Q 3022 478 2636 193 
Q 2250 -91 1575 -91 
Q 1294 -91 989 -36 
Q 684 19 347 128 
L 347 722 
Q 666 556 975 473 
Q 1284 391 1588 391 
Q 1994 391 2212 530 
Q 2431 669 2431 922 
Q 2431 1156 2273 1281 
Q 2116 1406 1581 1522 
L 1381 1569 
Q 847 1681 609 1914 
Q 372 2147 372 2553 
Q 372 3047 722 3315 
Q 1072 3584 1716 3584 
Q 2034 3584 2315 3537 
Q 2597 3491 2834 3397 
z
" transform="scale(0.015625)"/>
        <path id="DejaVuSans-6e" d="M 3513 2113 
L 3513 0 
L 2938 0 
L 2938 2094 
Q 2938 2591 2744 2837 
Q 2550 3084 2163 3084 
Q 1697 3084 1428 2787 
Q 1159 2491 1159 1978 
L 1159 0 
L 581 0 
L 581 3500 
L 1159 3500 
L 1159 2956 
Q 1366 3272 1645 3428 
Q 1925 3584 2291 3584 
Q 2894 3584 3203 3211 
Q 3513 2838 3513 2113 
z
" transform="scale(0.015625)"/>
        <path id="DejaVuSans-76" d="M 191 3500 
L 800 3500 
L 1894 563 
L 2988 3500 
L 3597 3500 
L 2284 0 
L 1503 0 
L 191 3500 
z
" transform="scale(0.015625)"/>
       </defs>
       <use xlink:href="#DejaVuSans-72"/>
       <use xlink:href="#DejaVuSans-6f" x="38.863281"/>
       <use xlink:href="#DejaVuSans-73" x="100.044922"/>
       <use xlink:href="#DejaVuSans-6e" x="152.144531"/>
       <use xlink:href="#DejaVuSans-61" x="215.523438"/>
       <use xlink:href="#DejaVuSans-76" x="276.802734"/>
      </g>
     </g>
    </g>
    <g id="text_4">
     <!-- Planner -->
     <g transform="translate(171.587109 342.876562)scale(0.1 -0.1)">
      <defs>
       <path id="DejaVuSans-50" d="M 1259 4147 
L 1259 2394 
L 2053 2394 
Q 2494 2394 2734 2622 
Q 2975 2850 2975 3272 
Q 2975 3691 2734 3919 
Q 2494 4147 2053 4147 
L 1259 4147 
z
M 628 4666 
L 2053 4666 
Q 2838 4666 3239 4311 
Q 3641 3956 3641 3272 
Q 3641 2581 3239 2228 
Q 2838 1875 2053 1875 
L 1259 1875 
L 1259 0 
L 628 0 
L 628 4666 
z
" transform="scale(0.015625)"/>
       <path id="DejaVuSans-6c" d="M 603 4863 
L 1178 4863 
L 1178 0 
L 603 0 
L 603 4863 
z
" transform="scale(0.015625)"/>
      </defs>
      <use xlink:href="#DejaVuSans-50"/>
      <use xlink:href="#DejaVuSans-6c" x="60.302734"/>
      <use xlink:href="#DejaVuSans-61" x="88.085938"/>
      <use xlink:href="#DejaVuSans-6e" x="149.365234"/>
      <use xlink:href="#DejaVuSans-6e" x="212.744141"/>
      <use xlink:href="#DejaVuSans-65" x="276.123047"/>
      <use xlink:href="#DejaVuSans-72" x="337.646484"/>
     </g>
    </g>
   </g>
   <g id="matplotlib.axis_2">
    <g id="ytick_1">
     <g id="line2d_4">
      <defs>
       <path id="m5738502265" d="M 0 0 
L -3.5 0 
" style="stroke: #000000; stroke-width: 0.8"/>
      </defs>
      <g>
       <use xlink:href="#m5738502265" x="34.240625" y="275.643404" style="stroke: #000000; stroke-width: 0.8"/>
      </g>
     </g>
     <g id="text_5">
      <!-- 0 -->
      <g transform="translate(20.878125 279.442623)scale(0.1 -0.1)">
       <defs>
        <path id="DejaVuSans-30" d="M 2034 4250 
Q 1547 4250 1301 3770 
Q 1056 3291 1056 2328 
Q 1056 1369 1301 889 
Q 1547 409 2034 409 
Q 2525 409 2770 889 
Q 3016 1369 3016 2328 
Q 3016 3291 2770 3770 
Q 2525 4250 2034 4250 
z
M 2034 4750 
Q 2819 4750 3233 4129 
Q 3647 3509 3647 2328 
Q 3647 1150 3233 529 
Q 2819 -91 2034 -91 
Q 1250 -91 836 529 
Q 422 1150 422 2328 
Q 422 3509 836 4129 
Q 1250 4750 2034 4750 
z
" transform="scale(0.015625)"/>
       </defs>
       <use xlink:href="#DejaVuSans-30"/>
      </g>
     </g>
    </g>
    <g id="ytick_2">
     <g id="line2d_5">
      <g>
       <use xlink:href="#m5738502265" x="34.240625" y="210.075745" style="stroke: #000000; stroke-width: 0.8"/>
      </g>
     </g>
     <g id="text_6">
      <!-- 2 -->
      <g transform="translate(20.878125 213.874963)scale(0.1 -0.1)">
       <defs>
        <path id="DejaVuSans-32" d="M 1228 531 
L 3431 531 
L 3431 0 
L 469 0 
L 469 531 
Q 828 903 1448 1529 
Q 2069 2156 2228 2338 
Q 2531 2678 2651 2914 
Q 2772 3150 2772 3378 
Q 2772 3750 2511 3984 
Q 2250 4219 1831 4219 
Q 1534 4219 1204 4116 
Q 875 4013 500 3803 
L 500 4441 
Q 881 4594 1212 4672 
Q 1544 4750 1819 4750 
Q 2544 4750 2975 4387 
Q 3406 4025 3406 3419 
Q 3406 3131 3298 2873 
Q 3191 2616 2906 2266 
Q 2828 2175 2409 1742 
Q 1991 1309 1228 531 
z
" transform="scale(0.015625)"/>
       </defs>
       <use xlink:href="#DejaVuSans-32"/>
      </g>
     </g>
    </g>
    <g id="ytick_3">
     <g id="line2d_6">
      <g>
       <use xlink:href="#m5738502265" x="34.240625" y="144.508085" style="stroke: #000000; stroke-width: 0.8"/>
      </g>
     </g>
     <g id="text_7">
      <!-- 4 -->
      <g transform="translate(20.878125 148.307304)scale(0.1 -0.1)">
       <defs>
        <path id="DejaVuSans-34" d="M 2419 4116 
L 825 1625 
L 2419 1625 
L 2419 4116 
z
M 2253 4666 
L 3047 4666 
L 3047 1625 
L 3713 1625 
L 3713 1100 
L 3047 1100 
L 3047 0 
L 2419 0 
L 2419 1100 
L 313 1100 
L 313 1709 
L 2253 4666 
z
" transform="scale(0.015625)"/>
       </defs>
       <use xlink:href="#DejaVuSans-34"/>
      </g>
     </g>
    </g>
    <g id="ytick_4">
     <g id="line2d_7">
      <g>
       <use xlink:href="#m5738502265" x="34.240625" y="78.940426" style="stroke: #000000; stroke-width: 0.8"/>
      </g>
     </g>
     <g id="text_8">
      <!-- 6 -->
      <g transform="translate(20.878125 82.739644)scale(0.1 -0.1)">
       <defs>
        <path id="DejaVuSans-36" d="M 2113 2584 
Q 1688 2584 1439 2293 
Q 1191 2003 1191 1497 
Q 1191 994 1439 701 
Q 1688 409 2113 409 
Q 2538 409 2786 701 
Q 3034 994 3034 1497 
Q 3034 2003 2786 2293 
Q 2538 2584 2113 2584 
z
M 3366 4563 
L 3366 3988 
Q 3128 4100 2886 4159 
Q 2644 4219 2406 4219 
Q 1781 4219 1451 3797 
Q 1122 3375 1075 2522 
Q 1259 2794 1537 2939 
Q 1816 3084 2150 3084 
Q 2853 3084 3261 2657 
Q 3669 2231 3669 1497 
Q 3669 778 3244 343 
Q 2819 -91 2113 -91 
Q 1303 -91 875 529 
Q 447 1150 447 2328 
Q 447 3434 972 4092 
Q 1497 4750 2381 4750 
Q 2619 4750 2861 4703 
Q 3103 4656 3366 4563 
z
" transform="scale(0.015625)"/>
       </defs>
       <use xlink:href="#DejaVuSans-36"/>
      </g>
     </g>
    </g>
    <g id="ytick_5">
     <g id="line2d_8">
      <g>
       <use xlink:href="#m5738502265" x="34.240625" y="13.372766" style="stroke: #000000; stroke-width: 0.8"/>
      </g>
     </g>
     <g id="text_9">
      <!-- 8 -->
      <g transform="translate(20.878125 17.171985)scale(0.1 -0.1)">
       <defs>
        <path id="DejaVuSans-38" d="M 2034 2216 
Q 1584 2216 1326 1975 
Q 1069 1734 1069 1313 
Q 1069 891 1326 650 
Q 1584 409 2034 409 
Q 2484 409 2743 651 
Q 3003 894 3003 1313 
Q 3003 1734 2745 1975 
Q 2488 2216 2034 2216 
z
M 1403 2484 
Q 997 2584 770 2862 
Q 544 3141 544 3541 
Q 544 4100 942 4425 
Q 1341 4750 2034 4750 
Q 2731 4750 3128 4425 
Q 3525 4100 3525 3541 
Q 3525 3141 3298 2862 
Q 3072 2584 2669 2484 
Q 3125 2378 3379 2068 
Q 3634 1759 3634 1313 
Q 3634 634 3220 271 
Q 2806 -91 2034 -91 
Q 1263 -91 848 271 
Q 434 634 434 1313 
Q 434 1759 690 2068 
Q 947 2378 1403 2484 
z
M 1172 3481 
Q 1172 3119 1398 2916 
Q 1625 2713 2034 2713 
Q 2441 2713 2670 2916 
Q 2900 3119 2900 3481 
Q 2900 3844 2670 4047 
Q 2441 4250 2034 4250 
Q 1625 4250 1398 4047 
Q 1172 3844 1172 3481 
z
" transform="scale(0.015625)"/>
       </defs>
       <use xlink:href="#DejaVuSans-38"/>
      </g>
     </g>
    </g>
    <g id="text_10">
     <!-- collision -->
     <g transform="translate(14.798438 181.097656)rotate(-90)scale(0.1 -0.1)">
      <defs>
       <path id="DejaVuSans-63" d="M 3122 3366 
L 3122 2828 
Q 2878 2963 2633 3030 
Q 2388 3097 2138 3097 
Q 1578 3097 1268 2742 
Q 959 2388 959 1747 
Q 959 1106 1268 751 
Q 1578 397 2138 397 
Q 2388 397 2633 464 
Q 2878 531 3122 666 
L 3122 134 
Q 2881 22 2623 -34 
Q 2366 -91 2075 -91 
Q 1284 -91 818 406 
Q 353 903 353 1747 
Q 353 2603 823 3093 
Q 1294 3584 2113 3584 
Q 2378 3584 2631 3529 
Q 2884 3475 3122 3366 
z
" transform="scale(0.015625)"/>
       <path id="DejaVuSans-69" d="M 603 3500 
L 1178 3500 
L 1178 0 
L 603 0 
L 603 3500 
z
M 603 4863 
L 1178 4863 
L 1178 4134 
L 603 4134 
L 603 4863 
z
" transform="scale(0.015625)"/>
      </defs>
      <use xlink:href="#DejaVuSans-63"/>
      <use xlink:href="#DejaVuSans-6f" x="54.980469"/>
      <use xlink:href="#DejaVuSans-6c" x="116.162109"/>
      <use xlink:href="#DejaVuSans-6c" x="143.945312"/>
      <use xlink:href="#DejaVuSans-69" x="171.728516"/>
      <use xlink:href="#DejaVuSans-73" x="199.511719"/>
      <use xlink:href="#DejaVuSans-69" x="251.611328"/>
      <use xlink:href="#DejaVuSans-6f" x="279.394531"/>
      <use xlink:href="#DejaVuSans-6e" x="340.576172"/>
     </g>
    </g>
   </g>
   <g id="line2d_9">
    <path d="M 86.335286 275.643404 
L 86.335286 210.075745 
" clip-path="url(#p87fd1eb941)" style="fill: none; stroke: #3f3f3f; stroke-width: 1.5; stroke-linecap: square"/>
   </g>
   <g id="line2d_10">
    <path d="M 86.335286 275.643404 
L 86.335286 242.859574 
" clip-path="url(#p87fd1eb941)" style="fill: none; stroke: #3f3f3f; stroke-width: 4.5; stroke-linecap: square"/>
   </g>
   <g id="line2d_11">
    <path d="M 190.524609 275.643404 
L 190.524609 210.075745 
" clip-path="url(#p87fd1eb941)" style="fill: none; stroke: #3f3f3f; stroke-width: 1.5; stroke-linecap: square"/>
   </g>
   <g id="line2d_12">
    <path d="M 190.524609 275.643404 
L 190.524609 242.859574 
" clip-path="url(#p87fd1eb941)" style="fill: none; stroke: #3f3f3f; stroke-width: 4.5; stroke-linecap: square"/>
   </g>
   <g id="line2d_13">
    <path d="M 294.713932 275.643404 
L 294.713932 275.643404 
" clip-path="url(#p87fd1eb941)" style="fill: none; stroke: #3f3f3f; stroke-width: 1.5; stroke-linecap: square"/>
   </g>
   <g id="line2d_14">
    <path d="M 294.713932 275.643404 
L 294.713932 275.643404 
" clip-path="url(#p87fd1eb941)" style="fill: none; stroke: #3f3f3f; stroke-width: 4.5; stroke-linecap: square"/>
   </g>
   <g id="patch_5">
    <path d="M 34.240625 314.6 
L 34.240625 7.2 
" style="fill: none; stroke: #000000; stroke-width: 0.8; stroke-linejoin: miter; stroke-linecap: square"/>
   </g>
   <g id="patch_6">
    <path d="M 34.240625 314.6 
L 346.808594 314.6 
" style="fill: none; stroke: #000000; stroke-width: 0.8; stroke-linejoin: miter; stroke-linecap: square"/>
   </g>
   <g id="PathCollection_1">
    <defs>
     <path id="m5a50ea389b" d="M 0 1.5 
C 0.397805 1.5 0.77937 1.341951 1.06066 1.06066 
C 1.341951 0.77937 1.5 0.397805 1.5 0 
C 1.5 -0.397805 1.341951 -0.77937 1.06066 -1.06066 
C 0.77937 -1.341951 0.397805 -1.5 0 -1.5 
C -0.397805 -1.5 -0.77937 -1.341951 -1.06066 -1.06066 
C -1.341951 -0.77937 -1.5 -0.397805 -1.5 0 
C -1.5 0.397805 -1.341951 0.77937 -1.06066 1.06066 
C -0.77937 1.341951 -0.397805 1.5 0 1.5 
z
" style="stroke: #3f3f3f"/>
    </defs>
    <g clip-path="url(#p87fd1eb941)">
     <use xlink:href="#m5a50ea389b" x="86.335286" y="275.643404" style="fill: #ffffff; stroke: #3f3f3f"/>
    </g>
   </g>
   <g id="PathCollection_2">
    <g clip-path="url(#p87fd1eb941)">
     <use xlink:href="#m5a50ea389b" x="190.524609" y="275.643404" style="fill: #ffffff; stroke: #3f3f3f"/>
    </g>
   </g>
   <g id="PathCollection_3">
    <g clip-path="url(#p87fd1eb941)">
     <use xlink:href="#m5a50ea389b" x="294.713932" y="275.643404" style="fill: #ffffff; stroke: #3f3f3f"/>
    </g>
   </g>
  </g>
  <g id="legend_1">
   <g id="text_11">
    <!-- dim -->
    <g transform="translate(363.057031 164.159375)scale(0.1 -0.1)">
     <defs>
      <path id="DejaVuSans-6d" d="M 3328 2828 
Q 3544 3216 3844 3400 
Q 4144 3584 4550 3584 
Q 5097 3584 5394 3201 
Q 5691 2819 5691 2113 
L 5691 0 
L 5113 0 
L 5113 2094 
Q 5113 2597 4934 2840 
Q 4756 3084 4391 3084 
Q 3944 3084 3684 2787 
Q 3425 2491 3425 1978 
L 3425 0 
L 2847 0 
L 2847 2094 
Q 2847 2600 2669 2842 
Q 2491 3084 2119 3084 
Q 1678 3084 1418 2786 
Q 1159 2488 1159 1978 
L 1159 0 
L 581 0 
L 581 3500 
L 1159 3500 
L 1159 2956 
Q 1356 3278 1631 3431 
Q 1906 3584 2284 3584 
Q 2666 3584 2933 3390 
Q 3200 3197 3328 2828 
z
" transform="scale(0.015625)"/>
     </defs>
     <use xlink:href="#DejaVuSans-64"/>
     <use xlink:href="#DejaVuSans-69" x="63.476562"/>
     <use xlink:href="#DejaVuSans-6d" x="91.259766"/>
    </g>
   </g>
   <g id="patch_7">
    <path d="M 352.135156 178.8375 
L 372.135156 178.8375 
L 372.135156 171.8375 
L 352.135156 171.8375 
z
" style="fill: #3274a1; stroke: #3f3f3f; stroke-width: 0.75; stroke-linejoin: miter"/>
   </g>
   <g id="text_12">
    <!-- 2d -->
    <g transform="translate(380.135156 178.8375)scale(0.1 -0.1)">
     <use xlink:href="#DejaVuSans-32"/>
     <use xlink:href="#DejaVuSans-64" x="63.623047"/>
    </g>
   </g>
   <g id="patch_8">
    <path d="M 352.135156 193.515625 
L 372.135156 193.515625 
L 372.135156 186.515625 
L 352.135156 186.515625 
z
" style="fill: #e1812c; stroke: #3f3f3f; stroke-width: 0.75; stroke-linejoin: miter"/>
   </g>
   <g id="text_13">
    <!-- 3d -->
    <g transform="translate(380.135156 193.515625)scale(0.1 -0.1)">
     <defs>
      <path id="DejaVuSans-33" d="M 2597 2516 
Q 3050 2419 3304 2112 
Q 3559 1806 3559 1356 
Q 3559 666 3084 287 
Q 2609 -91 1734 -91 
Q 1441 -91 1130 -33 
Q 819 25 488 141 
L 488 750 
Q 750 597 1062 519 
Q 1375 441 1716 441 
Q 2309 441 2620 675 
Q 2931 909 2931 1356 
Q 2931 1769 2642 2001 
Q 2353 2234 1838 2234 
L 1294 2234 
L 1294 2753 
L 1863 2753 
Q 2328 2753 2575 2939 
Q 2822 3125 2822 3475 
Q 2822 3834 2567 4026 
Q 2313 4219 1838 4219 
Q 1578 4219 1281 4162 
Q 984 4106 628 3988 
L 628 4550 
Q 988 4650 1302 4700 
Q 1616 4750 1894 4750 
Q 2613 4750 3031 4423 
Q 3450 4097 3450 3541 
Q 3450 3153 3228 2886 
Q 3006 2619 2597 2516 
z
" transform="scale(0.015625)"/>
     </defs>
     <use xlink:href="#DejaVuSans-33"/>
     <use xlink:href="#DejaVuSans-64" x="63.623047"/>
    </g>
   </g>
  </g>
 </g>
 <defs>
  <clipPath id="p87fd1eb941">
   <rect x="34.240625" y="7.2" width="312.567969" height="307.4"/>
  </clipPath>
 </defs>
</svg>
