<?xml version="1.0" encoding="utf-8" standalone="no"?>
<!DOCTYPE svg PUBLIC "-//W3C//DTD SVG 1.1//EN"
  "http://www.w3.org/Graphics/SVG/1.1/DTD/svg11.dtd">
<svg xmlns:xlink="http://www.w3.org/1999/xlink" width="401.235122pt" height="347.739688pt" viewBox="0 0 401.235122 347.739688" xmlns="http://www.w3.org/2000/svg" version="1.1">
 <metadata>
  <rdf:RDF xmlns:dc="http://purl.org/dc/elements/1.1/" xmlns:cc="http://creativecommons.org/ns#" xmlns:rdf="http://www.w3.org/1999/02/22-rdf-syntax-ns#">
   <cc:Work>
    <dc:type rdf:resource="http://purl.org/dc/dcmitype/StillImage"/>
    <dc:date>2022-03-28T16:02:02.384147</dc:date>
    <dc:format>image/svg+xml</dc:format>
    <dc:creator>
     <cc:Agent>
      <dc:title>Matplotlib v3.5.1, https://matplotlib.org/</dc:title>
     </cc:Agent>
    </dc:creator>
   </cc:Work>
  </rdf:RDF>
 </metadata>
 <defs>
  <style type="text/css">*{stroke-linejoin: round; stroke-linecap: butt}</style>
 </defs>
 <g id="figure_1">
  <g id="patch_1">
   <path d="M -0 347.739688 
L 401.235122 347.739688 
L 401.235122 0 
L -0 0 
z
" style="fill: #ffffff"/>
  </g>
  <g id="axes_1">
   <g id="patch_2">
    <path d="M 39.3125 304.78 
L 341.799122 304.78 
L 341.799122 7.2 
L 39.3125 7.2 
z
" style="fill: #ffffff"/>
   </g>
   <g id="matplotlib.axis_1">
    <g id="xtick_1">
     <g id="text_1">
      <!-- teb -->
      <g style="fill: #262626" transform="translate(80.694906 322.638281)scale(0.11 -0.11)">
       <defs>
        <path id="DejaVuSans-74" d="M 1172 4494 
L 1172 3500 
L 2356 3500 
L 2356 3053 
L 1172 3053 
L 1172 1153 
Q 1172 725 1289 603 
Q 1406 481 1766 481 
L 2356 481 
L 2356 0 
L 1766 0 
Q 1100 0 847 248 
Q 594 497 594 1153 
L 594 3053 
L 172 3053 
L 172 3500 
L 594 3500 
L 594 4494 
L 1172 4494 
z
" transform="scale(0.015625)"/>
        <path id="DejaVuSans-65" d="M 3597 1894 
L 3597 1613 
L 953 1613 
Q 991 1019 1311 708 
Q 1631 397 2203 397 
Q 2534 397 2845 478 
Q 3156 559 3463 722 
L 3463 178 
Q 3153 47 2828 -22 
Q 2503 -91 2169 -91 
Q 1331 -91 842 396 
Q 353 884 353 1716 
Q 353 2575 817 3079 
Q 1281 3584 2069 3584 
Q 2775 3584 3186 3129 
Q 3597 2675 3597 1894 
z
M 3022 2063 
Q 3016 2534 2758 2815 
Q 2500 3097 2075 3097 
Q 1594 3097 1305 2825 
Q 1016 2553 972 2059 
L 3022 2063 
z
" transform="scale(0.015625)"/>
        <path id="DejaVuSans-62" d="M 3116 1747 
Q 3116 2381 2855 2742 
Q 2594 3103 2138 3103 
Q 1681 3103 1420 2742 
Q 1159 2381 1159 1747 
Q 1159 1113 1420 752 
Q 1681 391 2138 391 
Q 2594 391 2855 752 
Q 3116 1113 3116 1747 
z
M 1159 2969 
Q 1341 3281 1617 3432 
Q 1894 3584 2278 3584 
Q 2916 3584 3314 3078 
Q 3713 2572 3713 1747 
Q 3713 922 3314 415 
Q 2916 -91 2278 -91 
Q 1894 -91 1617 61 
Q 1341 213 1159 525 
L 1159 0 
L 581 0 
L 581 4863 
L 1159 4863 
L 1159 2969 
z
" transform="scale(0.015625)"/>
       </defs>
       <use xlink:href="#DejaVuSans-74"/>
       <use xlink:href="#DejaVuSans-65" x="39.208984"/>
       <use xlink:href="#DejaVuSans-62" x="100.732422"/>
      </g>
     </g>
    </g>
    <g id="xtick_2">
     <g id="text_2">
      <!-- dwa -->
      <g style="fill: #262626" transform="translate(179.195733 322.638281)scale(0.11 -0.11)">
       <defs>
        <path id="DejaVuSans-64" d="M 2906 2969 
L 2906 4863 
L 3481 4863 
L 3481 0 
L 2906 0 
L 2906 525 
Q 2725 213 2448 61 
Q 2172 -91 1784 -91 
Q 1150 -91 751 415 
Q 353 922 353 1747 
Q 353 2572 751 3078 
Q 1150 3584 1784 3584 
Q 2172 3584 2448 3432 
Q 2725 3281 2906 2969 
z
M 947 1747 
Q 947 1113 1208 752 
Q 1469 391 1925 391 
Q 2381 391 2643 752 
Q 2906 1113 2906 1747 
Q 2906 2381 2643 2742 
Q 2381 3103 1925 3103 
Q 1469 3103 1208 2742 
Q 947 2381 947 1747 
z
" transform="scale(0.015625)"/>
        <path id="DejaVuSans-77" d="M 269 3500 
L 844 3500 
L 1563 769 
L 2278 3500 
L 2956 3500 
L 3675 769 
L 4391 3500 
L 4966 3500 
L 4050 0 
L 3372 0 
L 2619 2869 
L 1863 0 
L 1184 0 
L 269 3500 
z
" transform="scale(0.015625)"/>
        <path id="DejaVuSans-61" d="M 2194 1759 
Q 1497 1759 1228 1600 
Q 959 1441 959 1056 
Q 959 750 1161 570 
Q 1363 391 1709 391 
Q 2188 391 2477 730 
Q 2766 1069 2766 1631 
L 2766 1759 
L 2194 1759 
z
M 3341 1997 
L 3341 0 
L 2766 0 
L 2766 531 
Q 2569 213 2275 61 
Q 1981 -91 1556 -91 
Q 1019 -91 701 211 
Q 384 513 384 1019 
Q 384 1609 779 1909 
Q 1175 2209 1959 2209 
L 2766 2209 
L 2766 2266 
Q 2766 2663 2505 2880 
Q 2244 3097 1772 3097 
Q 1472 3097 1187 3025 
Q 903 2953 641 2809 
L 641 3341 
Q 956 3463 1253 3523 
Q 1550 3584 1831 3584 
Q 2591 3584 2966 3190 
Q 3341 2797 3341 1997 
z
" transform="scale(0.015625)"/>
       </defs>
       <use xlink:href="#DejaVuSans-64"/>
       <use xlink:href="#DejaVuSans-77" x="63.476562"/>
       <use xlink:href="#DejaVuSans-61" x="145.263672"/>
      </g>
     </g>
    </g>
    <g id="xtick_3">
     <g id="text_3">
      <!-- rosnav -->
      <g style="fill: #262626" transform="translate(272.905545 322.638281)scale(0.11 -0.11)">
       <defs>
        <path id="DejaVuSans-72" d="M 2631 2963 
Q 2534 3019 2420 3045 
Q 2306 3072 2169 3072 
Q 1681 3072 1420 2755 
Q 1159 2438 1159 1844 
L 1159 0 
L 581 0 
L 581 3500 
L 1159 3500 
L 1159 2956 
Q 1341 3275 1631 3429 
Q 1922 3584 2338 3584 
Q 2397 3584 2469 3576 
Q 2541 3569 2628 3553 
L 2631 2963 
z
" transform="scale(0.015625)"/>
        <path id="DejaVuSans-6f" d="M 1959 3097 
Q 1497 3097 1228 2736 
Q 959 2375 959 1747 
Q 959 1119 1226 758 
Q 1494 397 1959 397 
Q 2419 397 2687 759 
Q 2956 1122 2956 1747 
Q 2956 2369 2687 2733 
Q 2419 3097 1959 3097 
z
M 1959 3584 
Q 2709 3584 3137 3096 
Q 3566 2609 3566 1747 
Q 3566 888 3137 398 
Q 2709 -91 1959 -91 
Q 1206 -91 779 398 
Q 353 888 353 1747 
Q 353 2609 779 3096 
Q 1206 3584 1959 3584 
z
" transform="scale(0.015625)"/>
        <path id="DejaVuSans-73" d="M 2834 3397 
L 2834 2853 
Q 2591 2978 2328 3040 
Q 2066 3103 1784 3103 
Q 1356 3103 1142 2972 
Q 928 2841 928 2578 
Q 928 2378 1081 2264 
Q 1234 2150 1697 2047 
L 1894 2003 
Q 2506 1872 2764 1633 
Q 3022 1394 3022 966 
Q 3022 478 2636 193 
Q 2250 -91 1575 -91 
Q 1294 -91 989 -36 
Q 684 19 347 128 
L 347 722 
Q 666 556 975 473 
Q 1284 391 1588 391 
Q 1994 391 2212 530 
Q 2431 669 2431 922 
Q 2431 1156 2273 1281 
Q 2116 1406 1581 1522 
L 1381 1569 
Q 847 1681 609 1914 
Q 372 2147 372 2553 
Q 372 3047 722 3315 
Q 1072 3584 1716 3584 
Q 2034 3584 2315 3537 
Q 2597 3491 2834 3397 
z
" transform="scale(0.015625)"/>
        <path id="DejaVuSans-6e" d="M 3513 2113 
L 3513 0 
L 2938 0 
L 2938 2094 
Q 2938 2591 2744 2837 
Q 2550 3084 2163 3084 
Q 1697 3084 1428 2787 
Q 1159 2491 1159 1978 
L 1159 0 
L 581 0 
L 581 3500 
L 1159 3500 
L 1159 2956 
Q 1366 3272 1645 3428 
Q 1925 3584 2291 3584 
Q 2894 3584 3203 3211 
Q 3513 2838 3513 2113 
z
" transform="scale(0.015625)"/>
        <path id="DejaVuSans-76" d="M 191 3500 
L 800 3500 
L 1894 563 
L 2988 3500 
L 3597 3500 
L 2284 0 
L 1503 0 
L 191 3500 
z
" transform="scale(0.015625)"/>
       </defs>
       <use xlink:href="#DejaVuSans-72"/>
       <use xlink:href="#DejaVuSans-6f" x="38.863281"/>
       <use xlink:href="#DejaVuSans-73" x="100.044922"/>
       <use xlink:href="#DejaVuSans-6e" x="152.144531"/>
       <use xlink:href="#DejaVuSans-61" x="215.523438"/>
       <use xlink:href="#DejaVuSans-76" x="276.802734"/>
      </g>
     </g>
    </g>
    <g id="text_4">
     <!-- Planner -->
     <g style="fill: #262626" transform="translate(167.830811 338.044062)scale(0.12 -0.12)">
      <defs>
       <path id="DejaVuSans-50" d="M 1259 4147 
L 1259 2394 
L 2053 2394 
Q 2494 2394 2734 2622 
Q 2975 2850 2975 3272 
Q 2975 3691 2734 3919 
Q 2494 4147 2053 4147 
L 1259 4147 
z
M 628 4666 
L 2053 4666 
Q 2838 4666 3239 4311 
Q 3641 3956 3641 3272 
Q 3641 2581 3239 2228 
Q 2838 1875 2053 1875 
L 1259 1875 
L 1259 0 
L 628 0 
L 628 4666 
z
" transform="scale(0.015625)"/>
       <path id="DejaVuSans-6c" d="M 603 4863 
L 1178 4863 
L 1178 0 
L 603 0 
L 603 4863 
z
" transform="scale(0.015625)"/>
      </defs>
      <use xlink:href="#DejaVuSans-50"/>
      <use xlink:href="#DejaVuSans-6c" x="60.302734"/>
      <use xlink:href="#DejaVuSans-61" x="88.085938"/>
      <use xlink:href="#DejaVuSans-6e" x="149.365234"/>
      <use xlink:href="#DejaVuSans-6e" x="212.744141"/>
      <use xlink:href="#DejaVuSans-65" x="276.123047"/>
      <use xlink:href="#DejaVuSans-72" x="337.646484"/>
     </g>
    </g>
   </g>
   <g id="matplotlib.axis_2">
    <g id="ytick_1">
     <g id="line2d_1">
      <path d="M 39.3125 267.067886 
L 341.799122 267.067886 
" clip-path="url(#p7218c96f4e)" style="fill: none; stroke: #cccccc; stroke-linecap: round"/>
     </g>
     <g id="text_5">
      <!-- 0 -->
      <g style="fill: #262626" transform="translate(22.81375 271.247027)scale(0.11 -0.11)">
       <defs>
        <path id="DejaVuSans-30" d="M 2034 4250 
Q 1547 4250 1301 3770 
Q 1056 3291 1056 2328 
Q 1056 1369 1301 889 
Q 1547 409 2034 409 
Q 2525 409 2770 889 
Q 3016 1369 3016 2328 
Q 3016 3291 2770 3770 
Q 2525 4250 2034 4250 
z
M 2034 4750 
Q 2819 4750 3233 4129 
Q 3647 3509 3647 2328 
Q 3647 1150 3233 529 
Q 2819 -91 2034 -91 
Q 1250 -91 836 529 
Q 422 1150 422 2328 
Q 422 3509 836 4129 
Q 1250 4750 2034 4750 
z
" transform="scale(0.015625)"/>
       </defs>
       <use xlink:href="#DejaVuSans-30"/>
      </g>
     </g>
    </g>
    <g id="ytick_2">
     <g id="line2d_2">
      <path d="M 39.3125 203.594808 
L 341.799122 203.594808 
" clip-path="url(#p7218c96f4e)" style="fill: none; stroke: #cccccc; stroke-linecap: round"/>
     </g>
     <g id="text_6">
      <!-- 2 -->
      <g style="fill: #262626" transform="translate(22.81375 207.773949)scale(0.11 -0.11)">
       <defs>
        <path id="DejaVuSans-32" d="M 1228 531 
L 3431 531 
L 3431 0 
L 469 0 
L 469 531 
Q 828 903 1448 1529 
Q 2069 2156 2228 2338 
Q 2531 2678 2651 2914 
Q 2772 3150 2772 3378 
Q 2772 3750 2511 3984 
Q 2250 4219 1831 4219 
Q 1534 4219 1204 4116 
Q 875 4013 500 3803 
L 500 4441 
Q 881 4594 1212 4672 
Q 1544 4750 1819 4750 
Q 2544 4750 2975 4387 
Q 3406 4025 3406 3419 
Q 3406 3131 3298 2873 
Q 3191 2616 2906 2266 
Q 2828 2175 2409 1742 
Q 1991 1309 1228 531 
z
" transform="scale(0.015625)"/>
       </defs>
       <use xlink:href="#DejaVuSans-32"/>
      </g>
     </g>
    </g>
    <g id="ytick_3">
     <g id="line2d_3">
      <path d="M 39.3125 140.121731 
L 341.799122 140.121731 
" clip-path="url(#p7218c96f4e)" style="fill: none; stroke: #cccccc; stroke-linecap: round"/>
     </g>
     <g id="text_7">
      <!-- 4 -->
      <g style="fill: #262626" transform="translate(22.81375 144.300871)scale(0.11 -0.11)">
       <defs>
        <path id="DejaVuSans-34" d="M 2419 4116 
L 825 1625 
L 2419 1625 
L 2419 4116 
z
M 2253 4666 
L 3047 4666 
L 3047 1625 
L 3713 1625 
L 3713 1100 
L 3047 1100 
L 3047 0 
L 2419 0 
L 2419 1100 
L 313 1100 
L 313 1709 
L 2253 4666 
z
" transform="scale(0.015625)"/>
       </defs>
       <use xlink:href="#DejaVuSans-34"/>
      </g>
     </g>
    </g>
    <g id="ytick_4">
     <g id="line2d_4">
      <path d="M 39.3125 76.648653 
L 341.799122 76.648653 
" clip-path="url(#p7218c96f4e)" style="fill: none; stroke: #cccccc; stroke-linecap: round"/>
     </g>
     <g id="text_8">
      <!-- 6 -->
      <g style="fill: #262626" transform="translate(22.81375 80.827793)scale(0.11 -0.11)">
       <defs>
        <path id="DejaVuSans-36" d="M 2113 2584 
Q 1688 2584 1439 2293 
Q 1191 2003 1191 1497 
Q 1191 994 1439 701 
Q 1688 409 2113 409 
Q 2538 409 2786 701 
Q 3034 994 3034 1497 
Q 3034 2003 2786 2293 
Q 2538 2584 2113 2584 
z
M 3366 4563 
L 3366 3988 
Q 3128 4100 2886 4159 
Q 2644 4219 2406 4219 
Q 1781 4219 1451 3797 
Q 1122 3375 1075 2522 
Q 1259 2794 1537 2939 
Q 1816 3084 2150 3084 
Q 2853 3084 3261 2657 
Q 3669 2231 3669 1497 
Q 3669 778 3244 343 
Q 2819 -91 2113 -91 
Q 1303 -91 875 529 
Q 447 1150 447 2328 
Q 447 3434 972 4092 
Q 1497 4750 2381 4750 
Q 2619 4750 2861 4703 
Q 3103 4656 3366 4563 
z
" transform="scale(0.015625)"/>
       </defs>
       <use xlink:href="#DejaVuSans-36"/>
      </g>
     </g>
    </g>
    <g id="ytick_5">
     <g id="line2d_5">
      <path d="M 39.3125 13.175575 
L 341.799122 13.175575 
" clip-path="url(#p7218c96f4e)" style="fill: none; stroke: #cccccc; stroke-linecap: round"/>
     </g>
     <g id="text_9">
      <!-- 8 -->
      <g style="fill: #262626" transform="translate(22.81375 17.354716)scale(0.11 -0.11)">
       <defs>
        <path id="DejaVuSans-38" d="M 2034 2216 
Q 1584 2216 1326 1975 
Q 1069 1734 1069 1313 
Q 1069 891 1326 650 
Q 1584 409 2034 409 
Q 2484 409 2743 651 
Q 3003 894 3003 1313 
Q 3003 1734 2745 1975 
Q 2488 2216 2034 2216 
z
M 1403 2484 
Q 997 2584 770 2862 
Q 544 3141 544 3541 
Q 544 4100 942 4425 
Q 1341 4750 2034 4750 
Q 2731 4750 3128 4425 
Q 3525 4100 3525 3541 
Q 3525 3141 3298 2862 
Q 3072 2584 2669 2484 
Q 3125 2378 3379 2068 
Q 3634 1759 3634 1313 
Q 3634 634 3220 271 
Q 2806 -91 2034 -91 
Q 1263 -91 848 271 
Q 434 634 434 1313 
Q 434 1759 690 2068 
Q 947 2378 1403 2484 
z
M 1172 3481 
Q 1172 3119 1398 2916 
Q 1625 2713 2034 2713 
Q 2441 2713 2670 2916 
Q 2900 3119 2900 3481 
Q 2900 3844 2670 4047 
Q 2441 4250 2034 4250 
Q 1625 4250 1398 4047 
Q 1172 3844 1172 3481 
z
" transform="scale(0.015625)"/>
       </defs>
       <use xlink:href="#DejaVuSans-38"/>
      </g>
     </g>
    </g>
    <g id="text_10">
     <!-- collision -->
     <g style="fill: #262626" transform="translate(16.318125 180.227188)rotate(-90)scale(0.12 -0.12)">
      <defs>
       <path id="DejaVuSans-63" d="M 3122 3366 
L 3122 2828 
Q 2878 2963 2633 3030 
Q 2388 3097 2138 3097 
Q 1578 3097 1268 2742 
Q 959 2388 959 1747 
Q 959 1106 1268 751 
Q 1578 397 2138 397 
Q 2388 397 2633 464 
Q 2878 531 3122 666 
L 3122 134 
Q 2881 22 2623 -34 
Q 2366 -91 2075 -91 
Q 1284 -91 818 406 
Q 353 903 353 1747 
Q 353 2603 823 3093 
Q 1294 3584 2113 3584 
Q 2378 3584 2631 3529 
Q 2884 3475 3122 3366 
z
" transform="scale(0.015625)"/>
       <path id="DejaVuSans-69" d="M 603 3500 
L 1178 3500 
L 1178 0 
L 603 0 
L 603 3500 
z
M 603 4863 
L 1178 4863 
L 1178 4134 
L 603 4134 
L 603 4863 
z
" transform="scale(0.015625)"/>
      </defs>
      <use xlink:href="#DejaVuSans-63"/>
      <use xlink:href="#DejaVuSans-6f" x="54.980469"/>
      <use xlink:href="#DejaVuSans-6c" x="116.162109"/>
      <use xlink:href="#DejaVuSans-6c" x="143.945312"/>
      <use xlink:href="#DejaVuSans-69" x="171.728516"/>
      <use xlink:href="#DejaVuSans-73" x="199.511719"/>
      <use xlink:href="#DejaVuSans-69" x="251.611328"/>
      <use xlink:href="#DejaVuSans-6f" x="279.394531"/>
      <use xlink:href="#DejaVuSans-6e" x="340.576172"/>
     </g>
    </g>
   </g>
   <g id="patch_3">
    <path d="M 89.726937 267.067886 
L 89.726937 267.067886 
L 89.726937 267.067886 
L 89.726937 267.067886 
z
" clip-path="url(#p7218c96f4e)" style="fill: #5875a4; stroke: #4c4c4c; stroke-width: 0.75; stroke-linejoin: miter"/>
   </g>
   <g id="PolyCollection_1">
    <defs>
     <path id="m9997b97e0a" d="M 89.726937 -56.486051 
L 88.03489 -56.486051 
L 87.134817 -59.21865 
L 85.953225 -61.951249 
L 84.505491 -64.683847 
L 82.859583 -67.416446 
L 81.139031 -70.149045 
L 79.510362 -72.881643 
L 78.154095 -75.614242 
L 77.224416 -78.346841 
L 76.808193 -81.07944 
L 76.896387 -83.812038 
L 77.378672 -86.544637 
L 78.065451 -89.277236 
L 78.732913 -92.009834 
L 79.179263 -94.742433 
L 79.276501 -97.475032 
L 79.003195 -100.207631 
L 78.449016 -102.940229 
L 77.789745 -105.672828 
L 77.239732 -108.405427 
L 76.995156 -111.138025 
L 77.183941 -113.870624 
L 77.83602 -116.603223 
L 78.88123 -119.335822 
L 80.173593 -122.06842 
L 81.532969 -124.801019 
L 82.790795 -127.533618 
L 83.826921 -130.266216 
L 84.588839 -132.998815 
L 85.090865 -135.731414 
L 85.396687 -138.464013 
L 85.592616 -141.196611 
L 85.759998 -143.92921 
L 85.954111 -146.661809 
L 86.193983 -149.394407 
L 86.464124 -152.127006 
L 86.725932 -154.859605 
L 86.934354 -157.592204 
L 87.054557 -160.324802 
L 87.073976 -163.057401 
L 87.006807 -165.79 
L 86.890273 -168.522598 
L 86.774238 -171.255197 
L 86.707458 -173.987796 
L 86.724526 -176.720395 
L 86.837211 -179.452993 
L 87.032459 -182.185592 
L 87.277306 -184.918191 
L 87.528908 -187.650789 
L 87.74653 -190.383388 
L 87.902033 -193.115987 
L 87.986112 -195.848586 
L 88.00897 -198.581184 
L 87.995757 -201.313783 
L 87.97848 -204.046382 
L 87.986876 -206.77898 
L 88.040793 -209.511579 
L 88.146002 -212.244178 
L 88.294224 -214.976777 
L 88.466899 -217.709375 
L 88.641214 -220.441974 
L 88.796454 -223.174573 
L 88.918894 -225.907171 
L 89.004145 -228.63977 
L 89.056726 -231.372369 
L 89.087419 -234.104968 
L 89.109487 -236.837566 
L 89.134898 -239.570165 
L 89.171566 -242.302764 
L 89.222133 -245.035362 
L 89.284339 -247.767961 
L 89.352595 -250.50056 
L 89.420093 -253.233159 
L 89.48078 -255.965757 
L 89.530704 -258.698356 
L 89.568498 -261.430955 
L 89.595103 -264.163553 
L 89.612956 -266.896152 
L 89.625023 -269.628751 
L 89.633941 -272.36135 
L 89.641471 -275.093948 
L 89.648329 -277.826547 
L 89.654355 -280.559146 
L 89.65889 -283.291744 
L 89.661237 -286.024343 
L 89.661049 -288.756942 
L 89.658566 -291.489541 
L 89.654629 -294.222139 
L 89.650514 -296.954738 
L 89.647618 -299.687337 
L 89.647125 -302.419935 
L 89.649725 -305.152534 
L 89.655481 -307.885133 
L 89.663863 -310.617732 
L 89.673921 -313.35033 
L 89.684544 -316.082929 
L 89.694705 -318.815528 
L 89.703642 -321.548126 
L 89.710936 -324.280725 
L 89.716492 -327.013324 
L 89.726937 -327.013324 
L 89.726937 -327.013324 
L 89.726937 -324.280725 
L 89.726937 -321.548126 
L 89.726937 -318.815528 
L 89.726937 -316.082929 
L 89.726937 -313.35033 
L 89.726937 -310.617732 
L 89.726937 -307.885133 
L 89.726937 -305.152534 
L 89.726937 -302.419935 
L 89.726937 -299.687337 
L 89.726937 -296.954738 
L 89.726937 -294.222139 
L 89.726937 -291.489541 
L 89.726937 -288.756942 
L 89.726937 -286.024343 
L 89.726937 -283.291744 
L 89.726937 -280.559146 
L 89.726937 -277.826547 
L 89.726937 -275.093948 
L 89.726937 -272.36135 
L 89.726937 -269.628751 
L 89.726937 -266.896152 
L 89.726937 -264.163553 
L 89.726937 -261.430955 
L 89.726937 -258.698356 
L 89.726937 -255.965757 
L 89.726937 -253.233159 
L 89.726937 -250.50056 
L 89.726937 -247.767961 
L 89.726937 -245.035362 
L 89.726937 -242.302764 
L 89.726937 -239.570165 
L 89.726937 -236.837566 
L 89.726937 -234.104968 
L 89.726937 -231.372369 
L 89.726937 -228.63977 
L 89.726937 -225.907171 
L 89.726937 -223.174573 
L 89.726937 -220.441974 
L 89.726937 -217.709375 
L 89.726937 -214.976777 
L 89.726937 -212.244178 
L 89.726937 -209.511579 
L 89.726937 -206.77898 
L 89.726937 -204.046382 
L 89.726937 -201.313783 
L 89.726937 -198.581184 
L 89.726937 -195.848586 
L 89.726937 -193.115987 
L 89.726937 -190.383388 
L 89.726937 -187.650789 
L 89.726937 -184.918191 
L 89.726937 -182.185592 
L 89.726937 -179.452993 
L 89.726937 -176.720395 
L 89.726937 -173.987796 
L 89.726937 -171.255197 
L 89.726937 -168.522598 
L 89.726937 -165.79 
L 89.726937 -163.057401 
L 89.726937 -160.324802 
L 89.726937 -157.592204 
L 89.726937 -154.859605 
L 89.726937 -152.127006 
L 89.726937 -149.394407 
L 89.726937 -146.661809 
L 89.726937 -143.92921 
L 89.726937 -141.196611 
L 89.726937 -138.464013 
L 89.726937 -135.731414 
L 89.726937 -132.998815 
L 89.726937 -130.266216 
L 89.726937 -127.533618 
L 89.726937 -124.801019 
L 89.726937 -122.06842 
L 89.726937 -119.335822 
L 89.726937 -116.603223 
L 89.726937 -113.870624 
L 89.726937 -111.138025 
L 89.726937 -108.405427 
L 89.726937 -105.672828 
L 89.726937 -102.940229 
L 89.726937 -100.207631 
L 89.726937 -97.475032 
L 89.726937 -94.742433 
L 89.726937 -92.009834 
L 89.726937 -89.277236 
L 89.726937 -86.544637 
L 89.726937 -83.812038 
L 89.726937 -81.07944 
L 89.726937 -78.346841 
L 89.726937 -75.614242 
L 89.726937 -72.881643 
L 89.726937 -70.149045 
L 89.726937 -67.416446 
L 89.726937 -64.683847 
L 89.726937 -61.951249 
L 89.726937 -59.21865 
L 89.726937 -56.486051 
z
" style="stroke: #4c4c4c; stroke-width: 1.5"/>
    </defs>
    <g clip-path="url(#p7218c96f4e)">
     <use xlink:href="#m9997b97e0a" x="0" y="347.739688" style="fill: #5875a4; stroke: #4c4c4c; stroke-width: 1.5"/>
    </g>
   </g>
   <g id="patch_4">
    <path d="M 89.726937 267.067886 
L 89.726937 267.067886 
L 89.726937 267.067886 
L 89.726937 267.067886 
z
" clip-path="url(#p7218c96f4e)" style="fill: #cc8963; stroke: #4c4c4c; stroke-width: 0.75; stroke-linejoin: miter"/>
   </g>
   <g id="PolyCollection_2">
    <defs>
     <path id="mddb520366a" d="M 95.185462 -65.263497 
L 89.726937 -65.263497 
L 89.726937 -67.177631 
L 89.726937 -69.091766 
L 89.726937 -71.0059 
L 89.726937 -72.920035 
L 89.726937 -74.834169 
L 89.726937 -76.748303 
L 89.726937 -78.662438 
L 89.726937 -80.576572 
L 89.726937 -82.490706 
L 89.726937 -84.404841 
L 89.726937 -86.318975 
L 89.726937 -88.23311 
L 89.726937 -90.147244 
L 89.726937 -92.061378 
L 89.726937 -93.975513 
L 89.726937 -95.889647 
L 89.726937 -97.803781 
L 89.726937 -99.717916 
L 89.726937 -101.63205 
L 89.726937 -103.546185 
L 89.726937 -105.460319 
L 89.726937 -107.374453 
L 89.726937 -109.288588 
L 89.726937 -111.202722 
L 89.726937 -113.116856 
L 89.726937 -115.030991 
L 89.726937 -116.945125 
L 89.726937 -118.85926 
L 89.726937 -120.773394 
L 89.726937 -122.687528 
L 89.726937 -124.601663 
L 89.726937 -126.515797 
L 89.726937 -128.429931 
L 89.726937 -130.344066 
L 89.726937 -132.2582 
L 89.726937 -134.172335 
L 89.726937 -136.086469 
L 89.726937 -138.000603 
L 89.726937 -139.914738 
L 89.726937 -141.828872 
L 89.726937 -143.743006 
L 89.726937 -145.657141 
L 89.726937 -147.571275 
L 89.726937 -149.48541 
L 89.726937 -151.399544 
L 89.726937 -153.313678 
L 89.726937 -155.227813 
L 89.726937 -157.141947 
L 89.726937 -159.056081 
L 89.726937 -160.970216 
L 89.726937 -162.88435 
L 89.726937 -164.798485 
L 89.726937 -166.712619 
L 89.726937 -168.626753 
L 89.726937 -170.540888 
L 89.726937 -172.455022 
L 89.726937 -174.369156 
L 89.726937 -176.283291 
L 89.726937 -178.197425 
L 89.726937 -180.11156 
L 89.726937 -182.025694 
L 89.726937 -183.939828 
L 89.726937 -185.853963 
L 89.726937 -187.768097 
L 89.726937 -189.682231 
L 89.726937 -191.596366 
L 89.726937 -193.5105 
L 89.726937 -195.424635 
L 89.726937 -197.338769 
L 89.726937 -199.252903 
L 89.726937 -201.167038 
L 89.726937 -203.081172 
L 89.726937 -204.995306 
L 89.726937 -206.909441 
L 89.726937 -208.823575 
L 89.726937 -210.73771 
L 89.726937 -212.651844 
L 89.726937 -214.565978 
L 89.726937 -216.480113 
L 89.726937 -218.394247 
L 89.726937 -220.308381 
L 89.726937 -222.222516 
L 89.726937 -224.13665 
L 89.726937 -226.050785 
L 89.726937 -227.964919 
L 89.726937 -229.879053 
L 89.726937 -231.793188 
L 89.726937 -233.707322 
L 89.726937 -235.621456 
L 89.726937 -237.535591 
L 89.726937 -239.449725 
L 89.726937 -241.36386 
L 89.726937 -243.277994 
L 89.726937 -245.192128 
L 89.726937 -247.106263 
L 89.726937 -249.020397 
L 89.726937 -250.934532 
L 89.726937 -252.848666 
L 89.726937 -254.7628 
L 89.743329 -254.7628 
L 89.743329 -254.7628 
L 89.753061 -252.848666 
L 89.766077 -250.934532 
L 89.78207 -249.020397 
L 89.799948 -247.106263 
L 89.817837 -245.192128 
L 89.833341 -243.277994 
L 89.844049 -241.36386 
L 89.848168 -239.449725 
L 89.845051 -237.535591 
L 89.835461 -235.621456 
L 89.821482 -233.707322 
L 89.806168 -231.793188 
L 89.793104 -229.879053 
L 89.786064 -227.964919 
L 89.788813 -226.050785 
L 89.804954 -224.13665 
L 89.837584 -222.222516 
L 89.888594 -220.308381 
L 89.957613 -218.394247 
L 90.040919 -216.480113 
L 90.130875 -214.565978 
L 90.216441 -212.651844 
L 90.285023 -210.73771 
L 90.325311 -208.823575 
L 90.330259 -206.909441 
L 90.299127 -204.995306 
L 90.237806 -203.081172 
L 90.157345 -201.167038 
L 90.071331 -199.252903 
L 89.993142 -197.338769 
L 89.933982 -195.424635 
L 89.902041 -193.5105 
L 89.902493 -191.596366 
L 89.93765 -189.682231 
L 90.006716 -187.768097 
L 90.104977 -185.853963 
L 90.222942 -183.939828 
L 90.346272 -182.025694 
L 90.457251 -180.11156 
L 90.537962 -178.197425 
L 90.574432 -176.283291 
L 90.560425 -174.369156 
L 90.499495 -172.455022 
L 90.404655 -170.540888 
L 90.296018 -168.626753 
L 90.197633 -166.712619 
L 90.134794 -164.798485 
L 90.132451 -162.88435 
L 90.21422 -160.970216 
L 90.400587 -159.056081 
L 90.704977 -157.141947 
L 91.127434 -155.227813 
L 91.647576 -153.313678 
L 92.220231 -151.399544 
L 92.77746 -149.48541 
L 93.239023 -147.571275 
L 93.529835 -145.657141 
L 93.599359 -143.743006 
L 93.436082 -141.828872 
L 93.071639 -139.914738 
L 92.573237 -138.000603 
L 92.027891 -136.086469 
L 91.524877 -134.172335 
L 91.142402 -132.2582 
L 90.941196 -130.344066 
L 90.963457 -128.429931 
L 91.232854 -126.515797 
L 91.751486 -124.601663 
L 92.492753 -122.687528 
L 93.393437 -120.773394 
L 94.351334 -118.85926 
L 95.23454 -116.945125 
L 95.904278 -115.030991 
L 96.246725 -113.116856 
L 96.203981 -111.202722 
L 95.793459 -109.288588 
L 95.10962 -107.374453 
L 94.309892 -105.460319 
L 93.593359 -103.546185 
L 93.182162 -101.63205 
L 93.310234 -99.717916 
L 94.214648 -97.803781 
L 96.117017 -95.889647 
L 99.181986 -93.975513 
L 103.449917 -92.061378 
L 108.759183 -90.147244 
L 114.691457 -88.23311 
L 120.579418 -86.318975 
L 125.601599 -84.404841 
L 128.95518 -82.490706 
L 130.058487 -80.576572 
L 128.711963 -78.662438 
L 125.155007 -76.748303 
L 119.995393 -74.834169 
L 114.03917 -72.920035 
L 108.08601 -71.0059 
L 102.760641 -69.091766 
L 98.426071 -67.177631 
L 95.185462 -65.263497 
z
" style="stroke: #4c4c4c; stroke-width: 1.5"/>
    </defs>
    <g clip-path="url(#p7218c96f4e)">
     <use xlink:href="#mddb520366a" x="0" y="347.739688" style="fill: #cc8963; stroke: #4c4c4c; stroke-width: 1.5"/>
    </g>
   </g>
   <g id="PolyCollection_3">
    <defs>
     <path id="m18d239c673" d="M 190.555811 -62.204511 
L 185.643061 -62.204511 
L 183.189441 -64.180443 
L 180.004757 -66.156375 
L 176.119611 -68.132308 
L 171.68776 -70.10824 
L 166.998623 -72.084172 
L 162.459276 -74.060104 
L 158.542006 -76.036036 
L 155.70415 -78.011968 
L 154.297457 -79.9879 
L 154.490266 -81.963832 
L 156.224177 -83.939764 
L 159.217526 -85.915696 
L 163.01433 -87.891628 
L 167.064728 -89.86756 
L 170.816119 -91.843492 
L 173.795124 -93.819424 
L 175.667347 -95.795356 
L 176.270705 -97.771289 
L 175.624516 -99.747221 
L 173.918639 -101.723153 
L 171.485557 -103.699085 
L 168.756286 -105.675017 
L 166.201282 -107.650949 
L 164.261088 -109.626881 
L 163.276838 -111.602813 
L 163.434639 -113.578745 
L 164.737366 -115.554677 
L 167.011544 -117.530609 
L 169.94767 -119.506541 
L 173.163179 -121.482473 
L 176.271997 -123.458405 
L 178.945112 -125.434337 
L 180.951779 -127.41027 
L 182.178236 -129.386202 
L 182.626752 -131.362134 
L 182.400634 -133.338066 
L 181.680471 -135.313998 
L 180.695016 -137.28993 
L 179.688646 -139.265862 
L 178.887533 -141.241794 
L 178.468135 -143.217726 
L 178.533124 -145.193658 
L 179.099913 -147.16959 
L 180.104699 -149.145522 
L 181.421173 -151.121454 
L 182.889089 -153.097386 
L 184.345499 -155.073318 
L 185.651563 -157.049251 
L 186.710082 -159.025183 
L 187.472314 -161.001115 
L 187.935553 -162.977047 
L 188.134596 -164.952979 
L 188.130325 -166.928911 
L 187.997704 -168.904843 
L 187.814447 -170.880775 
L 187.650964 -172.856707 
L 187.562109 -174.832639 
L 187.581491 -176.808571 
L 187.719169 -178.784503 
L 187.963194 -180.760435 
L 188.284678 -182.736367 
L 188.645197 -184.712299 
L 189.004812 -186.688232 
L 189.328962 -188.664164 
L 189.593056 -190.640096 
L 189.784365 -192.616028 
L 189.901589 -194.59196 
L 189.952843 -196.567892 
L 189.952879 -198.543824 
L 189.920122 -200.519756 
L 189.873846 -202.495688 
L 189.831633 -204.47162 
L 189.807251 -206.447552 
L 189.809136 -208.423484 
L 189.839683 -210.399416 
L 189.895492 -212.375348 
L 189.968494 -214.35128 
L 190.047731 -216.327213 
L 190.121392 -218.303145 
L 190.178724 -220.279077 
L 190.211546 -222.255009 
L 190.215256 -224.230941 
L 190.189344 -226.206873 
L 190.137452 -228.182805 
L 190.06699 -230.158737 
L 189.988285 -232.134669 
L 189.913234 -234.110601 
L 189.853568 -236.086533 
L 189.818972 -238.062465 
L 189.815455 -240.038397 
L 189.844373 -242.014329 
L 189.902389 -243.990261 
L 189.982379 -245.966194 
L 190.075039 -247.942126 
L 190.170744 -249.918058 
L 190.261193 -251.89399 
L 190.340483 -253.869922 
L 190.405477 -255.845854 
L 190.455551 -257.821786 
L 190.555811 -257.821786 
L 190.555811 -257.821786 
L 190.555811 -255.845854 
L 190.555811 -253.869922 
L 190.555811 -251.89399 
L 190.555811 -249.918058 
L 190.555811 -247.942126 
L 190.555811 -245.966194 
L 190.555811 -243.990261 
L 190.555811 -242.014329 
L 190.555811 -240.038397 
L 190.555811 -238.062465 
L 190.555811 -236.086533 
L 190.555811 -234.110601 
L 190.555811 -232.134669 
L 190.555811 -230.158737 
L 190.555811 -228.182805 
L 190.555811 -226.206873 
L 190.555811 -224.230941 
L 190.555811 -222.255009 
L 190.555811 -220.279077 
L 190.555811 -218.303145 
L 190.555811 -216.327213 
L 190.555811 -214.35128 
L 190.555811 -212.375348 
L 190.555811 -210.399416 
L 190.555811 -208.423484 
L 190.555811 -206.447552 
L 190.555811 -204.47162 
L 190.555811 -202.495688 
L 190.555811 -200.519756 
L 190.555811 -198.543824 
L 190.555811 -196.567892 
L 190.555811 -194.59196 
L 190.555811 -192.616028 
L 190.555811 -190.640096 
L 190.555811 -188.664164 
L 190.555811 -186.688232 
L 190.555811 -184.712299 
L 190.555811 -182.736367 
L 190.555811 -180.760435 
L 190.555811 -178.784503 
L 190.555811 -176.808571 
L 190.555811 -174.832639 
L 190.555811 -172.856707 
L 190.555811 -170.880775 
L 190.555811 -168.904843 
L 190.555811 -166.928911 
L 190.555811 -164.952979 
L 190.555811 -162.977047 
L 190.555811 -161.001115 
L 190.555811 -159.025183 
L 190.555811 -157.049251 
L 190.555811 -155.073318 
L 190.555811 -153.097386 
L 190.555811 -151.121454 
L 190.555811 -149.145522 
L 190.555811 -147.16959 
L 190.555811 -145.193658 
L 190.555811 -143.217726 
L 190.555811 -141.241794 
L 190.555811 -139.265862 
L 190.555811 -137.28993 
L 190.555811 -135.313998 
L 190.555811 -133.338066 
L 190.555811 -131.362134 
L 190.555811 -129.386202 
L 190.555811 -127.41027 
L 190.555811 -125.434337 
L 190.555811 -123.458405 
L 190.555811 -121.482473 
L 190.555811 -119.506541 
L 190.555811 -117.530609 
L 190.555811 -115.554677 
L 190.555811 -113.578745 
L 190.555811 -111.602813 
L 190.555811 -109.626881 
L 190.555811 -107.650949 
L 190.555811 -105.675017 
L 190.555811 -103.699085 
L 190.555811 -101.723153 
L 190.555811 -99.747221 
L 190.555811 -97.771289 
L 190.555811 -95.795356 
L 190.555811 -93.819424 
L 190.555811 -91.843492 
L 190.555811 -89.86756 
L 190.555811 -87.891628 
L 190.555811 -85.915696 
L 190.555811 -83.939764 
L 190.555811 -81.963832 
L 190.555811 -79.9879 
L 190.555811 -78.011968 
L 190.555811 -76.036036 
L 190.555811 -74.060104 
L 190.555811 -72.084172 
L 190.555811 -70.10824 
L 190.555811 -68.132308 
L 190.555811 -66.156375 
L 190.555811 -64.180443 
L 190.555811 -62.204511 
z
" style="stroke: #4c4c4c; stroke-width: 1.5"/>
    </defs>
    <g clip-path="url(#p7218c96f4e)">
     <use xlink:href="#m18d239c673" x="0" y="347.739688" style="fill: #5875a4; stroke: #4c4c4c; stroke-width: 1.5"/>
    </g>
   </g>
   <g id="PolyCollection_4">
    <defs>
     <path id="mf3ca5d11ff" d="M 195.987299 -59.110308 
L 190.555811 -59.110308 
L 190.555811 -61.789892 
L 190.555811 -64.469475 
L 190.555811 -67.149059 
L 190.555811 -69.828642 
L 190.555811 -72.508225 
L 190.555811 -75.187809 
L 190.555811 -77.867392 
L 190.555811 -80.546976 
L 190.555811 -83.226559 
L 190.555811 -85.906143 
L 190.555811 -88.585726 
L 190.555811 -91.265309 
L 190.555811 -93.944893 
L 190.555811 -96.624476 
L 190.555811 -99.30406 
L 190.555811 -101.983643 
L 190.555811 -104.663226 
L 190.555811 -107.34281 
L 190.555811 -110.022393 
L 190.555811 -112.701977 
L 190.555811 -115.38156 
L 190.555811 -118.061144 
L 190.555811 -120.740727 
L 190.555811 -123.42031 
L 190.555811 -126.099894 
L 190.555811 -128.779477 
L 190.555811 -131.459061 
L 190.555811 -134.138644 
L 190.555811 -136.818227 
L 190.555811 -139.497811 
L 190.555811 -142.177394 
L 190.555811 -144.856978 
L 190.555811 -147.536561 
L 190.555811 -150.216145 
L 190.555811 -152.895728 
L 190.555811 -155.575311 
L 190.555811 -158.254895 
L 190.555811 -160.934478 
L 190.555811 -163.614062 
L 190.555811 -166.293645 
L 190.555811 -168.973228 
L 190.555811 -171.652812 
L 190.555811 -174.332395 
L 190.555811 -177.011979 
L 190.555811 -179.691562 
L 190.555811 -182.371146 
L 190.555811 -185.050729 
L 190.555811 -187.730312 
L 190.555811 -190.409896 
L 190.555811 -193.089479 
L 190.555811 -195.769063 
L 190.555811 -198.448646 
L 190.555811 -201.128229 
L 190.555811 -203.807813 
L 190.555811 -206.487396 
L 190.555811 -209.16698 
L 190.555811 -211.846563 
L 190.555811 -214.526147 
L 190.555811 -217.20573 
L 190.555811 -219.885313 
L 190.555811 -222.564897 
L 190.555811 -225.24448 
L 190.555811 -227.924064 
L 190.555811 -230.603647 
L 190.555811 -233.28323 
L 190.555811 -235.962814 
L 190.555811 -238.642397 
L 190.555811 -241.321981 
L 190.555811 -244.001564 
L 190.555811 -246.681148 
L 190.555811 -249.360731 
L 190.555811 -252.040314 
L 190.555811 -254.719898 
L 190.555811 -257.399481 
L 190.555811 -260.079065 
L 190.555811 -262.758648 
L 190.555811 -265.438231 
L 190.555811 -268.117815 
L 190.555811 -270.797398 
L 190.555811 -273.476982 
L 190.555811 -276.156565 
L 190.555811 -278.836149 
L 190.555811 -281.515732 
L 190.555811 -284.195315 
L 190.555811 -286.874899 
L 190.555811 -289.554482 
L 190.555811 -292.234066 
L 190.555811 -294.913649 
L 190.555811 -297.593232 
L 190.555811 -300.272816 
L 190.555811 -302.952399 
L 190.555811 -305.631983 
L 190.555811 -308.311566 
L 190.555811 -310.99115 
L 190.555811 -313.670733 
L 190.555811 -316.350316 
L 190.555811 -319.0299 
L 190.555811 -321.709483 
L 190.555811 -324.389067 
L 190.57728 -324.389067 
L 190.57728 -324.389067 
L 190.590033 -321.709483 
L 190.607095 -319.0299 
L 190.628066 -316.350316 
L 190.651532 -313.670733 
L 190.675067 -310.99115 
L 190.695598 -308.311566 
L 190.710098 -305.631983 
L 190.716441 -302.952399 
L 190.714115 -300.272816 
L 190.704531 -297.593232 
L 190.69078 -294.913649 
L 190.676882 -292.234066 
L 190.666763 -289.554482 
L 190.663242 -286.874899 
L 190.667326 -284.195315 
L 190.677983 -281.515732 
L 190.69247 -278.836149 
L 190.707167 -276.156565 
L 190.718737 -273.476982 
L 190.725324 -270.797398 
L 190.72747 -268.117815 
L 190.72844 -265.438231 
L 190.733767 -262.758648 
L 190.750028 -260.079065 
L 190.783031 -257.399481 
L 190.835812 -254.719898 
L 190.90698 -252.040314 
L 190.990036 -249.360731 
L 191.074166 -246.681148 
L 191.146651 -244.001564 
L 191.196515 -241.321981 
L 191.218416 -238.642397 
L 191.215515 -235.962814 
L 191.200206 -233.28323 
L 191.192121 -230.603647 
L 191.213639 -227.924064 
L 191.283801 -225.24448 
L 191.412128 -222.564897 
L 191.594031 -219.885313 
L 191.809513 -217.20573 
L 192.026235 -214.526147 
L 192.206941 -211.846563 
L 192.319692 -209.16698 
L 192.348 -206.487396 
L 192.297517 -203.807813 
L 192.196723 -201.128229 
L 192.090886 -198.448646 
L 192.030703 -195.769063 
L 192.058583 -193.089479 
L 192.196218 -190.409896 
L 192.43686 -187.730312 
L 192.744839 -185.050729 
L 193.063366 -182.371146 
L 193.329576 -179.691562 
L 193.493407 -177.011979 
L 193.535086 -174.332395 
L 193.475608 -171.652812 
L 193.376169 -168.973228 
L 193.325501 -166.293645 
L 193.417508 -163.614062 
L 193.724351 -160.934478 
L 194.271803 -158.254895 
L 195.024087 -155.575311 
L 195.884332 -152.895728 
L 196.713697 -150.216145 
L 197.367024 -147.536561 
L 197.736754 -144.856978 
L 197.792215 -142.177394 
L 197.600876 -139.497811 
L 197.32249 -136.818227 
L 197.174911 -134.138644 
L 197.378626 -131.459061 
L 198.093326 -128.779477 
L 199.36301 -126.099894 
L 201.086199 -123.42031 
L 203.024309 -120.740727 
L 204.853203 -118.061144 
L 206.250578 -115.38156 
L 206.99809 -112.701977 
L 207.067779 -110.022393 
L 206.662697 -107.34281 
L 206.192805 -104.663226 
L 206.185436 -101.983643 
L 207.148202 -99.30406 
L 209.41634 -96.624476 
L 213.023967 -93.944893 
L 217.638818 -91.265309 
L 222.590387 -88.585726 
L 226.999439 -85.906143 
L 229.98437 -83.226559 
L 230.887361 -80.546976 
L 229.447255 -77.867392 
L 225.859202 -75.187809 
L 220.701842 -72.508225 
L 214.76328 -69.828642 
L 208.832766 -67.149059 
L 203.529387 -64.469475 
L 199.213473 -61.789892 
L 195.987299 -59.110308 
z
" style="stroke: #4c4c4c; stroke-width: 1.5"/>
    </defs>
    <g clip-path="url(#p7218c96f4e)">
     <use xlink:href="#mf3ca5d11ff" x="0" y="347.739688" style="fill: #cc8963; stroke: #4c4c4c; stroke-width: 1.5"/>
    </g>
   </g>
   <g id="PolyCollection_5">
    <defs>
     <path id="mecfc306888" d="M 291.384685 -68.214102 
L 286.721369 -68.214102 
L 283.981312 -69.748058 
L 280.322888 -71.282013 
L 275.829216 -72.815968 
L 270.797268 -74.349923 
L 265.740912 -75.883878 
L 261.322308 -77.417833 
L 258.216167 -78.951788 
L 256.942539 -80.485743 
L 257.724545 -82.019698 
L 260.42448 -83.553653 
L 264.583368 -85.087608 
L 269.548311 -86.621563 
L 274.638961 -88.155519 
L 279.294838 -89.689474 
L 283.161087 -91.223429 
L 286.100468 -92.757384 
L 288.14767 -94.291339 
L 289.436746 -95.825294 
L 290.131524 -97.359249 
L 290.377816 -98.893204 
L 290.28309 -100.427159 
L 289.919515 -101.961114 
L 289.341317 -103.495069 
L 288.606166 -105.029024 
L 287.791287 -106.56298 
L 286.997602 -108.096935 
L 286.339411 -109.63089 
L 285.922548 -111.164845 
L 285.818821 -112.6988 
L 286.046749 -114.232755 
L 286.566535 -115.76671 
L 287.291538 -117.300665 
L 288.111848 -118.83462 
L 288.921186 -120.368575 
L 289.638096 -121.90253 
L 290.215965 -123.436486 
L 290.641456 -124.970441 
L 290.924994 -126.504396 
L 291.088532 -128.038351 
L 291.155118 -129.572306 
L 291.142772 -131.106261 
L 291.063193 -132.640216 
L 290.92433 -134.174171 
L 290.735065 -135.708126 
L 290.509886 -137.242081 
L 290.27151 -138.776036 
L 290.049997 -140.309991 
L 289.878077 -141.843947 
L 289.783937 -143.377902 
L 289.783953 -144.911857 
L 289.878148 -146.445812 
L 290.050222 -147.979767 
L 290.272169 -149.513722 
L 290.5117 -151.047677 
L 290.739763 -152.581632 
L 290.93578 -154.115587 
L 291.089457 -155.649542 
L 291.199472 -157.183497 
L 291.27032 -158.717453 
L 291.308827 -160.251408 
L 291.321463 -161.785363 
L 291.313002 -163.319318 
L 291.286505 -164.853273 
L 291.244267 -166.387228 
L 291.18918 -167.921183 
L 291.125917 -169.455138 
L 291.061404 -170.989093 
L 291.004259 -172.523048 
L 290.963256 -174.057003 
L 290.945275 -175.590958 
L 290.953479 -177.124914 
L 290.986426 -178.658869 
L 291.038495 -180.192824 
L 291.101452 -181.726779 
L 291.166559 -183.260734 
L 291.226494 -184.794689 
L 291.276494 -186.328644 
L 291.314555 -187.862599 
L 291.340867 -189.396554 
L 291.356875 -190.930509 
L 291.364369 -192.464464 
L 291.364854 -193.99842 
L 291.359328 -195.532375 
L 291.34841 -197.06633 
L 291.332701 -198.600285 
L 291.313214 -200.13424 
L 291.291685 -201.668195 
L 291.270609 -203.20215 
L 291.252931 -204.736105 
L 291.241448 -206.27006 
L 291.238122 -207.804015 
L 291.243542 -209.33797 
L 291.25676 -210.871925 
L 291.275563 -212.405881 
L 291.297079 -213.939836 
L 291.318492 -215.473791 
L 291.337614 -217.007746 
L 291.353181 -218.541701 
L 291.364841 -220.075656 
L 291.384685 -220.075656 
L 291.384685 -220.075656 
L 291.384685 -218.541701 
L 291.384685 -217.007746 
L 291.384685 -215.473791 
L 291.384685 -213.939836 
L 291.384685 -212.405881 
L 291.384685 -210.871925 
L 291.384685 -209.33797 
L 291.384685 -207.804015 
L 291.384685 -206.27006 
L 291.384685 -204.736105 
L 291.384685 -203.20215 
L 291.384685 -201.668195 
L 291.384685 -200.13424 
L 291.384685 -198.600285 
L 291.384685 -197.06633 
L 291.384685 -195.532375 
L 291.384685 -193.99842 
L 291.384685 -192.464464 
L 291.384685 -190.930509 
L 291.384685 -189.396554 
L 291.384685 -187.862599 
L 291.384685 -186.328644 
L 291.384685 -184.794689 
L 291.384685 -183.260734 
L 291.384685 -181.726779 
L 291.384685 -180.192824 
L 291.384685 -178.658869 
L 291.384685 -177.124914 
L 291.384685 -175.590958 
L 291.384685 -174.057003 
L 291.384685 -172.523048 
L 291.384685 -170.989093 
L 291.384685 -169.455138 
L 291.384685 -167.921183 
L 291.384685 -166.387228 
L 291.384685 -164.853273 
L 291.384685 -163.319318 
L 291.384685 -161.785363 
L 291.384685 -160.251408 
L 291.384685 -158.717453 
L 291.384685 -157.183497 
L 291.384685 -155.649542 
L 291.384685 -154.115587 
L 291.384685 -152.581632 
L 291.384685 -151.047677 
L 291.384685 -149.513722 
L 291.384685 -147.979767 
L 291.384685 -146.445812 
L 291.384685 -144.911857 
L 291.384685 -143.377902 
L 291.384685 -141.843947 
L 291.384685 -140.309991 
L 291.384685 -138.776036 
L 291.384685 -137.242081 
L 291.384685 -135.708126 
L 291.384685 -134.174171 
L 291.384685 -132.640216 
L 291.384685 -131.106261 
L 291.384685 -129.572306 
L 291.384685 -128.038351 
L 291.384685 -126.504396 
L 291.384685 -124.970441 
L 291.384685 -123.436486 
L 291.384685 -121.90253 
L 291.384685 -120.368575 
L 291.384685 -118.83462 
L 291.384685 -117.300665 
L 291.384685 -115.76671 
L 291.384685 -114.232755 
L 291.384685 -112.6988 
L 291.384685 -111.164845 
L 291.384685 -109.63089 
L 291.384685 -108.096935 
L 291.384685 -106.56298 
L 291.384685 -105.029024 
L 291.384685 -103.495069 
L 291.384685 -101.961114 
L 291.384685 -100.427159 
L 291.384685 -98.893204 
L 291.384685 -97.359249 
L 291.384685 -95.825294 
L 291.384685 -94.291339 
L 291.384685 -92.757384 
L 291.384685 -91.223429 
L 291.384685 -89.689474 
L 291.384685 -88.155519 
L 291.384685 -86.621563 
L 291.384685 -85.087608 
L 291.384685 -83.553653 
L 291.384685 -82.019698 
L 291.384685 -80.485743 
L 291.384685 -78.951788 
L 291.384685 -77.417833 
L 291.384685 -75.883878 
L 291.384685 -74.349923 
L 291.384685 -72.815968 
L 291.384685 -71.282013 
L 291.384685 -69.748058 
L 291.384685 -68.214102 
z
" style="stroke: #4c4c4c; stroke-width: 1.5"/>
    </defs>
    <g clip-path="url(#p7218c96f4e)">
     <use xlink:href="#mecfc306888" x="0" y="347.739688" style="fill: #5875a4; stroke: #4c4c4c; stroke-width: 1.5"/>
    </g>
   </g>
   <g id="PolyCollection_6">
    <defs>
     <path id="m55dce6477c" d="M 296.867388 -69.444653 
L 291.384685 -69.444653 
L 291.384685 -70.633178 
L 291.384685 -71.821702 
L 291.384685 -73.010227 
L 291.384685 -74.198751 
L 291.384685 -75.387275 
L 291.384685 -76.5758 
L 291.384685 -77.764324 
L 291.384685 -78.952848 
L 291.384685 -80.141373 
L 291.384685 -81.329897 
L 291.384685 -82.518422 
L 291.384685 -83.706946 
L 291.384685 -84.89547 
L 291.384685 -86.083995 
L 291.384685 -87.272519 
L 291.384685 -88.461043 
L 291.384685 -89.649568 
L 291.384685 -90.838092 
L 291.384685 -92.026616 
L 291.384685 -93.215141 
L 291.384685 -94.403665 
L 291.384685 -95.59219 
L 291.384685 -96.780714 
L 291.384685 -97.969238 
L 291.384685 -99.157763 
L 291.384685 -100.346287 
L 291.384685 -101.534811 
L 291.384685 -102.723336 
L 291.384685 -103.91186 
L 291.384685 -105.100385 
L 291.384685 -106.288909 
L 291.384685 -107.477433 
L 291.384685 -108.665958 
L 291.384685 -109.854482 
L 291.384685 -111.043006 
L 291.384685 -112.231531 
L 291.384685 -113.420055 
L 291.384685 -114.60858 
L 291.384685 -115.797104 
L 291.384685 -116.985628 
L 291.384685 -118.174153 
L 291.384685 -119.362677 
L 291.384685 -120.551201 
L 291.384685 -121.739726 
L 291.384685 -122.92825 
L 291.384685 -124.116774 
L 291.384685 -125.305299 
L 291.384685 -126.493823 
L 291.384685 -127.682348 
L 291.384685 -128.870872 
L 291.384685 -130.059396 
L 291.384685 -131.247921 
L 291.384685 -132.436445 
L 291.384685 -133.624969 
L 291.384685 -134.813494 
L 291.384685 -136.002018 
L 291.384685 -137.190543 
L 291.384685 -138.379067 
L 291.384685 -139.567591 
L 291.384685 -140.756116 
L 291.384685 -141.94464 
L 291.384685 -143.133164 
L 291.384685 -144.321689 
L 291.384685 -145.510213 
L 291.384685 -146.698738 
L 291.384685 -147.887262 
L 291.384685 -149.075786 
L 291.384685 -150.264311 
L 291.384685 -151.452835 
L 291.384685 -152.641359 
L 291.384685 -153.829884 
L 291.384685 -155.018408 
L 291.384685 -156.206932 
L 291.384685 -157.395457 
L 291.384685 -158.583981 
L 291.384685 -159.772506 
L 291.384685 -160.96103 
L 291.384685 -162.149554 
L 291.384685 -163.338079 
L 291.384685 -164.526603 
L 291.384685 -165.715127 
L 291.384685 -166.903652 
L 291.384685 -168.092176 
L 291.384685 -169.280701 
L 291.384685 -170.469225 
L 291.384685 -171.657749 
L 291.384685 -172.846274 
L 291.384685 -174.034798 
L 291.384685 -175.223322 
L 291.384685 -176.411847 
L 291.384685 -177.600371 
L 291.384685 -178.788895 
L 291.384685 -179.97742 
L 291.384685 -181.165944 
L 291.384685 -182.354469 
L 291.384685 -183.542993 
L 291.384685 -184.731517 
L 291.384685 -185.920042 
L 291.384685 -187.108566 
L 291.49478 -187.108566 
L 291.49478 -187.108566 
L 291.549097 -185.920042 
L 291.619449 -184.731517 
L 291.705209 -183.542993 
L 291.803116 -182.354469 
L 291.906983 -181.165944 
L 292.008053 -179.97742 
L 292.096067 -178.788895 
L 292.16092 -177.600371 
L 292.194556 -176.411847 
L 292.192608 -175.223322 
L 292.155334 -174.034798 
L 292.087557 -172.846274 
L 291.997641 -171.657749 
L 291.895803 -170.469225 
L 291.792223 -169.280701 
L 291.695442 -168.092176 
L 291.611385 -166.903652 
L 291.543111 -165.715127 
L 291.491196 -164.526603 
L 291.454526 -163.338079 
L 291.431213 -162.149554 
L 291.419459 -160.96103 
L 291.418194 -159.772506 
L 291.427458 -158.583981 
L 291.448486 -157.395457 
L 291.483477 -156.206932 
L 291.535055 -155.018408 
L 291.605429 -153.829884 
L 291.695353 -152.641359 
L 291.803078 -151.452835 
L 291.923586 -150.264311 
L 292.048424 -149.075786 
L 292.166363 -147.887262 
L 292.264908 -146.698738 
L 292.332427 -145.510213 
L 292.360394 -144.321689 
L 292.345153 -143.133164 
L 292.288706 -141.94464 
L 292.198283 -140.756116 
L 292.084824 -139.567591 
L 291.960825 -138.379067 
L 291.838134 -137.190543 
L 291.72625 -136.002018 
L 291.631464 -134.813494 
L 291.556916 -133.624969 
L 291.503414 -132.436445 
L 291.470728 -131.247921 
L 291.459081 -130.059396 
L 291.470583 -128.870872 
L 291.510371 -127.682348 
L 291.587252 -126.493823 
L 291.713547 -125.305299 
L 291.903839 -124.116774 
L 292.17239 -122.92825 
L 292.529271 -121.739726 
L 292.975694 -120.551201 
L 293.499592 -119.362677 
L 294.072882 -118.174153 
L 294.651831 -116.985628 
L 295.181415 -115.797104 
L 295.603431 -114.60858 
L 295.866865 -113.420055 
L 295.937998 -112.231531 
L 295.807498 -111.043006 
L 295.492439 -109.854482 
L 295.032659 -108.665958 
L 294.482546 -107.477433 
L 293.90066 -106.288909 
L 293.340021 -105.100385 
L 292.841438 -103.91186 
L 292.431192 -102.723336 
L 292.123179 -101.534811 
L 291.924687 -100.346287 
L 291.844611 -99.157763 
L 291.902777 -97.969238 
L 292.139036 -96.780714 
L 292.620495 -95.59219 
L 293.444612 -94.403665 
L 294.735228 -93.215141 
L 296.62849 -92.026616 
L 299.246861 -90.838092 
L 302.662453 -89.649568 
L 306.855451 -88.461043 
L 311.678117 -87.272519 
L 316.837636 -86.083995 
L 321.909628 -84.89547 
L 326.3876 -83.706946 
L 329.762986 -82.518422 
L 331.619252 -81.329897 
L 331.716235 -80.141373 
L 330.041181 -78.952848 
L 326.811496 -77.764324 
L 322.428395 -76.5758 
L 317.395093 -75.387275 
L 312.222525 -74.198751 
L 307.346792 -73.010227 
L 303.075903 -71.821702 
L 299.572372 -70.633178 
L 296.867388 -69.444653 
z
" style="stroke: #4c4c4c; stroke-width: 1.5"/>
    </defs>
    <g clip-path="url(#p7218c96f4e)">
     <use xlink:href="#m55dce6477c" x="0" y="347.739688" style="fill: #cc8963; stroke: #4c4c4c; stroke-width: 1.5"/>
    </g>
   </g>
   <g id="line2d_6">
    <path d="M 89.726937 267.067886 
L 89.726937 203.594808 
" clip-path="url(#p7218c96f4e)" style="fill: none; stroke: #4c4c4c; stroke-width: 1.5; stroke-linecap: round"/>
   </g>
   <g id="line2d_7">
    <path d="M 89.726937 267.067886 
L 89.726937 235.331347 
" clip-path="url(#p7218c96f4e)" style="fill: none; stroke: #4c4c4c; stroke-width: 4.5; stroke-linecap: round"/>
   </g>
   <g id="line2d_8">
    <path d="M 190.555811 267.067886 
L 190.555811 203.594808 
" clip-path="url(#p7218c96f4e)" style="fill: none; stroke: #4c4c4c; stroke-width: 1.5; stroke-linecap: round"/>
   </g>
   <g id="line2d_9">
    <path d="M 190.555811 267.067886 
L 190.555811 235.331347 
" clip-path="url(#p7218c96f4e)" style="fill: none; stroke: #4c4c4c; stroke-width: 4.5; stroke-linecap: round"/>
   </g>
   <g id="line2d_10">
    <path d="M 291.384685 267.067886 
L 291.384685 267.067886 
" clip-path="url(#p7218c96f4e)" style="fill: none; stroke: #4c4c4c; stroke-width: 1.5; stroke-linecap: round"/>
   </g>
   <g id="line2d_11">
    <path d="M 291.384685 267.067886 
L 291.384685 267.067886 
" clip-path="url(#p7218c96f4e)" style="fill: none; stroke: #4c4c4c; stroke-width: 4.5; stroke-linecap: round"/>
   </g>
   <g id="patch_5">
    <path d="M 39.3125 304.78 
L 39.3125 7.2 
" style="fill: none; stroke: #cccccc; stroke-width: 1.25; stroke-linejoin: miter; stroke-linecap: square"/>
   </g>
   <g id="patch_6">
    <path d="M 39.3125 304.78 
L 341.799122 304.78 
" style="fill: none; stroke: #cccccc; stroke-width: 1.25; stroke-linejoin: miter; stroke-linecap: square"/>
   </g>
   <g id="PathCollection_1">
    <defs>
     <path id="m7f037d5a55" d="M 0 1.5 
C 0.397805 1.5 0.77937 1.341951 1.06066 1.06066 
C 1.341951 0.77937 1.5 0.397805 1.5 0 
C 1.5 -0.397805 1.341951 -0.77937 1.06066 -1.06066 
C 0.77937 -1.341951 0.397805 -1.5 0 -1.5 
C -0.397805 -1.5 -0.77937 -1.341951 -1.06066 -1.06066 
C -1.341951 -0.77937 -1.5 -0.397805 -1.5 0 
C -1.5 0.397805 -1.341951 0.77937 -1.06066 1.06066 
C -0.77937 1.341951 -0.397805 1.5 0 1.5 
z
" style="stroke: #4c4c4c"/>
    </defs>
    <g clip-path="url(#p7218c96f4e)">
     <use xlink:href="#m7f037d5a55" x="89.726937" y="267.067886" style="fill: #ffffff; stroke: #4c4c4c"/>
    </g>
   </g>
   <g id="PathCollection_2">
    <g clip-path="url(#p7218c96f4e)">
     <use xlink:href="#m7f037d5a55" x="190.555811" y="267.067886" style="fill: #ffffff; stroke: #4c4c4c"/>
    </g>
   </g>
   <g id="PathCollection_3">
    <g clip-path="url(#p7218c96f4e)">
     <use xlink:href="#m7f037d5a55" x="291.384685" y="267.067886" style="fill: #ffffff; stroke: #4c4c4c"/>
    </g>
   </g>
  </g>
  <g id="legend_1">
   <g id="text_11">
    <!-- dim -->
    <g style="fill: #262626" transform="translate(357.623794 161.035156)scale(0.12 -0.12)">
     <defs>
      <path id="DejaVuSans-6d" d="M 3328 2828 
Q 3544 3216 3844 3400 
Q 4144 3584 4550 3584 
Q 5097 3584 5394 3201 
Q 5691 2819 5691 2113 
L 5691 0 
L 5113 0 
L 5113 2094 
Q 5113 2597 4934 2840 
Q 4756 3084 4391 3084 
Q 3944 3084 3684 2787 
Q 3425 2491 3425 1978 
L 3425 0 
L 2847 0 
L 2847 2094 
Q 2847 2600 2669 2842 
Q 2491 3084 2119 3084 
Q 1678 3084 1418 2786 
Q 1159 2488 1159 1978 
L 1159 0 
L 581 0 
L 581 3500 
L 1159 3500 
L 1159 2956 
Q 1356 3278 1631 3431 
Q 1906 3584 2284 3584 
Q 2666 3584 2933 3390 
Q 3200 3197 3328 2828 
z
" transform="scale(0.015625)"/>
     </defs>
     <use xlink:href="#DejaVuSans-64"/>
     <use xlink:href="#DejaVuSans-69" x="63.476562"/>
     <use xlink:href="#DejaVuSans-6d" x="91.259766"/>
    </g>
   </g>
   <g id="patch_7">
    <path d="M 346.553091 177.389062 
L 368.553091 177.389062 
L 368.553091 169.689063 
L 346.553091 169.689063 
z
" style="fill: #5875a4; stroke: #4c4c4c; stroke-width: 0.75; stroke-linejoin: miter"/>
   </g>
   <g id="text_12">
    <!-- 2d -->
    <g style="fill: #262626" transform="translate(377.353091 177.389062)scale(0.11 -0.11)">
     <use xlink:href="#DejaVuSans-32"/>
     <use xlink:href="#DejaVuSans-64" x="63.623047"/>
    </g>
   </g>
   <g id="patch_8">
    <path d="M 346.553091 193.535 
L 368.553091 193.535 
L 368.553091 185.835 
L 346.553091 185.835 
z
" style="fill: #cc8963; stroke: #4c4c4c; stroke-width: 0.75; stroke-linejoin: miter"/>
   </g>
   <g id="text_13">
    <!-- 3d -->
    <g style="fill: #262626" transform="translate(377.353091 193.535)scale(0.11 -0.11)">
     <defs>
      <path id="DejaVuSans-33" d="M 2597 2516 
Q 3050 2419 3304 2112 
Q 3559 1806 3559 1356 
Q 3559 666 3084 287 
Q 2609 -91 1734 -91 
Q 1441 -91 1130 -33 
Q 819 25 488 141 
L 488 750 
Q 750 597 1062 519 
Q 1375 441 1716 441 
Q 2309 441 2620 675 
Q 2931 909 2931 1356 
Q 2931 1769 2642 2001 
Q 2353 2234 1838 2234 
L 1294 2234 
L 1294 2753 
L 1863 2753 
Q 2328 2753 2575 2939 
Q 2822 3125 2822 3475 
Q 2822 3834 2567 4026 
Q 2313 4219 1838 4219 
Q 1578 4219 1281 4162 
Q 984 4106 628 3988 
L 628 4550 
Q 988 4650 1302 4700 
Q 1616 4750 1894 4750 
Q 2613 4750 3031 4423 
Q 3450 4097 3450 3541 
Q 3450 3153 3228 2886 
Q 3006 2619 2597 2516 
z
" transform="scale(0.015625)"/>
     </defs>
     <use xlink:href="#DejaVuSans-33"/>
     <use xlink:href="#DejaVuSans-64" x="63.623047"/>
    </g>
   </g>
  </g>
 </g>
 <defs>
  <clipPath id="p7218c96f4e">
   <rect x="39.3125" y="7.2" width="302.486622" height="297.58"/>
  </clipPath>
 </defs>
</svg>
