<?xml version="1.0" encoding="utf-8" standalone="no"?>
<!DOCTYPE svg PUBLIC "-//W3C//DTD SVG 1.1//EN"
  "http://www.w3.org/Graphics/SVG/1.1/DTD/svg11.dtd">
<svg xmlns:xlink="http://www.w3.org/1999/xlink" width="398.544133pt" height="347.739687pt" viewBox="0 0 398.544133 347.739687" xmlns="http://www.w3.org/2000/svg" version="1.1">
 <metadata>
  <rdf:RDF xmlns:dc="http://purl.org/dc/elements/1.1/" xmlns:cc="http://creativecommons.org/ns#" xmlns:rdf="http://www.w3.org/1999/02/22-rdf-syntax-ns#">
   <cc:Work>
    <dc:type rdf:resource="http://purl.org/dc/dcmitype/StillImage"/>
    <dc:date>2022-03-28T16:02:02.147683</dc:date>
    <dc:format>image/svg+xml</dc:format>
    <dc:creator>
     <cc:Agent>
      <dc:title>Matplotlib v3.5.1, https://matplotlib.org/</dc:title>
     </cc:Agent>
    </dc:creator>
   </cc:Work>
  </rdf:RDF>
 </metadata>
 <defs>
  <style type="text/css">*{stroke-linejoin: round; stroke-linecap: butt}</style>
 </defs>
 <g id="figure_1">
  <g id="patch_1">
   <path d="M 0 347.739687 
L 398.544133 347.739687 
L 398.544133 0 
L 0 0 
z
" style="fill: #ffffff"/>
  </g>
  <g id="axes_1">
   <g id="patch_2">
    <path d="M 59.024844 304.78 
L 339.108133 304.78 
L 339.108133 7.2 
L 59.024844 7.2 
z
" style="fill: #ffffff"/>
   </g>
   <g id="matplotlib.axis_1">
    <g id="xtick_1">
     <g id="text_1">
      <!-- teb -->
      <g style="fill: #262626" transform="translate(96.673361 322.638281)scale(0.11 -0.11)">
       <defs>
        <path id="DejaVuSans-74" d="M 1172 4494 
L 1172 3500 
L 2356 3500 
L 2356 3053 
L 1172 3053 
L 1172 1153 
Q 1172 725 1289 603 
Q 1406 481 1766 481 
L 2356 481 
L 2356 0 
L 1766 0 
Q 1100 0 847 248 
Q 594 497 594 1153 
L 594 3053 
L 172 3053 
L 172 3500 
L 594 3500 
L 594 4494 
L 1172 4494 
z
" transform="scale(0.015625)"/>
        <path id="DejaVuSans-65" d="M 3597 1894 
L 3597 1613 
L 953 1613 
Q 991 1019 1311 708 
Q 1631 397 2203 397 
Q 2534 397 2845 478 
Q 3156 559 3463 722 
L 3463 178 
Q 3153 47 2828 -22 
Q 2503 -91 2169 -91 
Q 1331 -91 842 396 
Q 353 884 353 1716 
Q 353 2575 817 3079 
Q 1281 3584 2069 3584 
Q 2775 3584 3186 3129 
Q 3597 2675 3597 1894 
z
M 3022 2063 
Q 3016 2534 2758 2815 
Q 2500 3097 2075 3097 
Q 1594 3097 1305 2825 
Q 1016 2553 972 2059 
L 3022 2063 
z
" transform="scale(0.015625)"/>
        <path id="DejaVuSans-62" d="M 3116 1747 
Q 3116 2381 2855 2742 
Q 2594 3103 2138 3103 
Q 1681 3103 1420 2742 
Q 1159 2381 1159 1747 
Q 1159 1113 1420 752 
Q 1681 391 2138 391 
Q 2594 391 2855 752 
Q 3116 1113 3116 1747 
z
M 1159 2969 
Q 1341 3281 1617 3432 
Q 1894 3584 2278 3584 
Q 2916 3584 3314 3078 
Q 3713 2572 3713 1747 
Q 3713 922 3314 415 
Q 2916 -91 2278 -91 
Q 1894 -91 1617 61 
Q 1341 213 1159 525 
L 1159 0 
L 581 0 
L 581 4863 
L 1159 4863 
L 1159 2969 
z
" transform="scale(0.015625)"/>
       </defs>
       <use xlink:href="#DejaVuSans-74"/>
       <use xlink:href="#DejaVuSans-65" x="39.208984"/>
       <use xlink:href="#DejaVuSans-62" x="100.732422"/>
      </g>
     </g>
    </g>
    <g id="xtick_2">
     <g id="text_2">
      <!-- dwa -->
      <g style="fill: #262626" transform="translate(187.70641 322.638281)scale(0.11 -0.11)">
       <defs>
        <path id="DejaVuSans-64" d="M 2906 2969 
L 2906 4863 
L 3481 4863 
L 3481 0 
L 2906 0 
L 2906 525 
Q 2725 213 2448 61 
Q 2172 -91 1784 -91 
Q 1150 -91 751 415 
Q 353 922 353 1747 
Q 353 2572 751 3078 
Q 1150 3584 1784 3584 
Q 2172 3584 2448 3432 
Q 2725 3281 2906 2969 
z
M 947 1747 
Q 947 1113 1208 752 
Q 1469 391 1925 391 
Q 2381 391 2643 752 
Q 2906 1113 2906 1747 
Q 2906 2381 2643 2742 
Q 2381 3103 1925 3103 
Q 1469 3103 1208 2742 
Q 947 2381 947 1747 
z
" transform="scale(0.015625)"/>
        <path id="DejaVuSans-77" d="M 269 3500 
L 844 3500 
L 1563 769 
L 2278 3500 
L 2956 3500 
L 3675 769 
L 4391 3500 
L 4966 3500 
L 4050 0 
L 3372 0 
L 2619 2869 
L 1863 0 
L 1184 0 
L 269 3500 
z
" transform="scale(0.015625)"/>
        <path id="DejaVuSans-61" d="M 2194 1759 
Q 1497 1759 1228 1600 
Q 959 1441 959 1056 
Q 959 750 1161 570 
Q 1363 391 1709 391 
Q 2188 391 2477 730 
Q 2766 1069 2766 1631 
L 2766 1759 
L 2194 1759 
z
M 3341 1997 
L 3341 0 
L 2766 0 
L 2766 531 
Q 2569 213 2275 61 
Q 1981 -91 1556 -91 
Q 1019 -91 701 211 
Q 384 513 384 1019 
Q 384 1609 779 1909 
Q 1175 2209 1959 2209 
L 2766 2209 
L 2766 2266 
Q 2766 2663 2505 2880 
Q 2244 3097 1772 3097 
Q 1472 3097 1187 3025 
Q 903 2953 641 2809 
L 641 3341 
Q 956 3463 1253 3523 
Q 1550 3584 1831 3584 
Q 2591 3584 2966 3190 
Q 3341 2797 3341 1997 
z
" transform="scale(0.015625)"/>
       </defs>
       <use xlink:href="#DejaVuSans-64"/>
       <use xlink:href="#DejaVuSans-77" x="63.476562"/>
       <use xlink:href="#DejaVuSans-61" x="145.263672"/>
      </g>
     </g>
    </g>
    <g id="xtick_3">
     <g id="text_3">
      <!-- rosnav -->
      <g style="fill: #262626" transform="translate(273.948444 322.638281)scale(0.11 -0.11)">
       <defs>
        <path id="DejaVuSans-72" d="M 2631 2963 
Q 2534 3019 2420 3045 
Q 2306 3072 2169 3072 
Q 1681 3072 1420 2755 
Q 1159 2438 1159 1844 
L 1159 0 
L 581 0 
L 581 3500 
L 1159 3500 
L 1159 2956 
Q 1341 3275 1631 3429 
Q 1922 3584 2338 3584 
Q 2397 3584 2469 3576 
Q 2541 3569 2628 3553 
L 2631 2963 
z
" transform="scale(0.015625)"/>
        <path id="DejaVuSans-6f" d="M 1959 3097 
Q 1497 3097 1228 2736 
Q 959 2375 959 1747 
Q 959 1119 1226 758 
Q 1494 397 1959 397 
Q 2419 397 2687 759 
Q 2956 1122 2956 1747 
Q 2956 2369 2687 2733 
Q 2419 3097 1959 3097 
z
M 1959 3584 
Q 2709 3584 3137 3096 
Q 3566 2609 3566 1747 
Q 3566 888 3137 398 
Q 2709 -91 1959 -91 
Q 1206 -91 779 398 
Q 353 888 353 1747 
Q 353 2609 779 3096 
Q 1206 3584 1959 3584 
z
" transform="scale(0.015625)"/>
        <path id="DejaVuSans-73" d="M 2834 3397 
L 2834 2853 
Q 2591 2978 2328 3040 
Q 2066 3103 1784 3103 
Q 1356 3103 1142 2972 
Q 928 2841 928 2578 
Q 928 2378 1081 2264 
Q 1234 2150 1697 2047 
L 1894 2003 
Q 2506 1872 2764 1633 
Q 3022 1394 3022 966 
Q 3022 478 2636 193 
Q 2250 -91 1575 -91 
Q 1294 -91 989 -36 
Q 684 19 347 128 
L 347 722 
Q 666 556 975 473 
Q 1284 391 1588 391 
Q 1994 391 2212 530 
Q 2431 669 2431 922 
Q 2431 1156 2273 1281 
Q 2116 1406 1581 1522 
L 1381 1569 
Q 847 1681 609 1914 
Q 372 2147 372 2553 
Q 372 3047 722 3315 
Q 1072 3584 1716 3584 
Q 2034 3584 2315 3537 
Q 2597 3491 2834 3397 
z
" transform="scale(0.015625)"/>
        <path id="DejaVuSans-6e" d="M 3513 2113 
L 3513 0 
L 2938 0 
L 2938 2094 
Q 2938 2591 2744 2837 
Q 2550 3084 2163 3084 
Q 1697 3084 1428 2787 
Q 1159 2491 1159 1978 
L 1159 0 
L 581 0 
L 581 3500 
L 1159 3500 
L 1159 2956 
Q 1366 3272 1645 3428 
Q 1925 3584 2291 3584 
Q 2894 3584 3203 3211 
Q 3513 2838 3513 2113 
z
" transform="scale(0.015625)"/>
        <path id="DejaVuSans-76" d="M 191 3500 
L 800 3500 
L 1894 563 
L 2988 3500 
L 3597 3500 
L 2284 0 
L 1503 0 
L 191 3500 
z
" transform="scale(0.015625)"/>
       </defs>
       <use xlink:href="#DejaVuSans-72"/>
       <use xlink:href="#DejaVuSans-6f" x="38.863281"/>
       <use xlink:href="#DejaVuSans-73" x="100.044922"/>
       <use xlink:href="#DejaVuSans-6e" x="152.144531"/>
       <use xlink:href="#DejaVuSans-61" x="215.523438"/>
       <use xlink:href="#DejaVuSans-76" x="276.802734"/>
      </g>
     </g>
    </g>
    <g id="text_4">
     <!-- Planner -->
     <g style="fill: #262626" transform="translate(176.341488 338.044062)scale(0.12 -0.12)">
      <defs>
       <path id="DejaVuSans-50" d="M 1259 4147 
L 1259 2394 
L 2053 2394 
Q 2494 2394 2734 2622 
Q 2975 2850 2975 3272 
Q 2975 3691 2734 3919 
Q 2494 4147 2053 4147 
L 1259 4147 
z
M 628 4666 
L 2053 4666 
Q 2838 4666 3239 4311 
Q 3641 3956 3641 3272 
Q 3641 2581 3239 2228 
Q 2838 1875 2053 1875 
L 1259 1875 
L 1259 0 
L 628 0 
L 628 4666 
z
" transform="scale(0.015625)"/>
       <path id="DejaVuSans-6c" d="M 603 4863 
L 1178 4863 
L 1178 0 
L 603 0 
L 603 4863 
z
" transform="scale(0.015625)"/>
      </defs>
      <use xlink:href="#DejaVuSans-50"/>
      <use xlink:href="#DejaVuSans-6c" x="60.302734"/>
      <use xlink:href="#DejaVuSans-61" x="88.085938"/>
      <use xlink:href="#DejaVuSans-6e" x="149.365234"/>
      <use xlink:href="#DejaVuSans-6e" x="212.744141"/>
      <use xlink:href="#DejaVuSans-65" x="276.123047"/>
      <use xlink:href="#DejaVuSans-72" x="337.646484"/>
     </g>
    </g>
   </g>
   <g id="matplotlib.axis_2">
    <g id="ytick_1">
     <g id="line2d_1">
      <path d="M 59.024844 281.936545 
L 339.108133 281.936545 
" clip-path="url(#p1c76d55dcc)" style="fill: none; stroke: #cccccc; stroke-linecap: round"/>
     </g>
     <g id="text_5">
      <!-- −0.2 -->
      <g style="fill: #262626" transform="translate(22.81375 286.115685)scale(0.11 -0.11)">
       <defs>
        <path id="DejaVuSans-2212" d="M 678 2272 
L 4684 2272 
L 4684 1741 
L 678 1741 
L 678 2272 
z
" transform="scale(0.015625)"/>
        <path id="DejaVuSans-30" d="M 2034 4250 
Q 1547 4250 1301 3770 
Q 1056 3291 1056 2328 
Q 1056 1369 1301 889 
Q 1547 409 2034 409 
Q 2525 409 2770 889 
Q 3016 1369 3016 2328 
Q 3016 3291 2770 3770 
Q 2525 4250 2034 4250 
z
M 2034 4750 
Q 2819 4750 3233 4129 
Q 3647 3509 3647 2328 
Q 3647 1150 3233 529 
Q 2819 -91 2034 -91 
Q 1250 -91 836 529 
Q 422 1150 422 2328 
Q 422 3509 836 4129 
Q 1250 4750 2034 4750 
z
" transform="scale(0.015625)"/>
        <path id="DejaVuSans-2e" d="M 684 794 
L 1344 794 
L 1344 0 
L 684 0 
L 684 794 
z
" transform="scale(0.015625)"/>
        <path id="DejaVuSans-32" d="M 1228 531 
L 3431 531 
L 3431 0 
L 469 0 
L 469 531 
Q 828 903 1448 1529 
Q 2069 2156 2228 2338 
Q 2531 2678 2651 2914 
Q 2772 3150 2772 3378 
Q 2772 3750 2511 3984 
Q 2250 4219 1831 4219 
Q 1534 4219 1204 4116 
Q 875 4013 500 3803 
L 500 4441 
Q 881 4594 1212 4672 
Q 1544 4750 1819 4750 
Q 2544 4750 2975 4387 
Q 3406 4025 3406 3419 
Q 3406 3131 3298 2873 
Q 3191 2616 2906 2266 
Q 2828 2175 2409 1742 
Q 1991 1309 1228 531 
z
" transform="scale(0.015625)"/>
       </defs>
       <use xlink:href="#DejaVuSans-2212"/>
       <use xlink:href="#DejaVuSans-30" x="83.789062"/>
       <use xlink:href="#DejaVuSans-2e" x="147.412109"/>
       <use xlink:href="#DejaVuSans-32" x="179.199219"/>
      </g>
     </g>
    </g>
    <g id="ytick_2">
     <g id="line2d_2">
      <path d="M 59.024844 245.951818 
L 339.108133 245.951818 
" clip-path="url(#p1c76d55dcc)" style="fill: none; stroke: #cccccc; stroke-linecap: round"/>
     </g>
     <g id="text_6">
      <!-- 0.0 -->
      <g style="fill: #262626" transform="translate(32.031406 250.130958)scale(0.11 -0.11)">
       <use xlink:href="#DejaVuSans-30"/>
       <use xlink:href="#DejaVuSans-2e" x="63.623047"/>
       <use xlink:href="#DejaVuSans-30" x="95.410156"/>
      </g>
     </g>
    </g>
    <g id="ytick_3">
     <g id="line2d_3">
      <path d="M 59.024844 209.967091 
L 339.108133 209.967091 
" clip-path="url(#p1c76d55dcc)" style="fill: none; stroke: #cccccc; stroke-linecap: round"/>
     </g>
     <g id="text_7">
      <!-- 0.2 -->
      <g style="fill: #262626" transform="translate(32.031406 214.146231)scale(0.11 -0.11)">
       <use xlink:href="#DejaVuSans-30"/>
       <use xlink:href="#DejaVuSans-2e" x="63.623047"/>
       <use xlink:href="#DejaVuSans-32" x="95.410156"/>
      </g>
     </g>
    </g>
    <g id="ytick_4">
     <g id="line2d_4">
      <path d="M 59.024844 173.982364 
L 339.108133 173.982364 
" clip-path="url(#p1c76d55dcc)" style="fill: none; stroke: #cccccc; stroke-linecap: round"/>
     </g>
     <g id="text_8">
      <!-- 0.4 -->
      <g style="fill: #262626" transform="translate(32.031406 178.161504)scale(0.11 -0.11)">
       <defs>
        <path id="DejaVuSans-34" d="M 2419 4116 
L 825 1625 
L 2419 1625 
L 2419 4116 
z
M 2253 4666 
L 3047 4666 
L 3047 1625 
L 3713 1625 
L 3713 1100 
L 3047 1100 
L 3047 0 
L 2419 0 
L 2419 1100 
L 313 1100 
L 313 1709 
L 2253 4666 
z
" transform="scale(0.015625)"/>
       </defs>
       <use xlink:href="#DejaVuSans-30"/>
       <use xlink:href="#DejaVuSans-2e" x="63.623047"/>
       <use xlink:href="#DejaVuSans-34" x="95.410156"/>
      </g>
     </g>
    </g>
    <g id="ytick_5">
     <g id="line2d_5">
      <path d="M 59.024844 137.997636 
L 339.108133 137.997636 
" clip-path="url(#p1c76d55dcc)" style="fill: none; stroke: #cccccc; stroke-linecap: round"/>
     </g>
     <g id="text_9">
      <!-- 0.6 -->
      <g style="fill: #262626" transform="translate(32.031406 142.176777)scale(0.11 -0.11)">
       <defs>
        <path id="DejaVuSans-36" d="M 2113 2584 
Q 1688 2584 1439 2293 
Q 1191 2003 1191 1497 
Q 1191 994 1439 701 
Q 1688 409 2113 409 
Q 2538 409 2786 701 
Q 3034 994 3034 1497 
Q 3034 2003 2786 2293 
Q 2538 2584 2113 2584 
z
M 3366 4563 
L 3366 3988 
Q 3128 4100 2886 4159 
Q 2644 4219 2406 4219 
Q 1781 4219 1451 3797 
Q 1122 3375 1075 2522 
Q 1259 2794 1537 2939 
Q 1816 3084 2150 3084 
Q 2853 3084 3261 2657 
Q 3669 2231 3669 1497 
Q 3669 778 3244 343 
Q 2819 -91 2113 -91 
Q 1303 -91 875 529 
Q 447 1150 447 2328 
Q 447 3434 972 4092 
Q 1497 4750 2381 4750 
Q 2619 4750 2861 4703 
Q 3103 4656 3366 4563 
z
" transform="scale(0.015625)"/>
       </defs>
       <use xlink:href="#DejaVuSans-30"/>
       <use xlink:href="#DejaVuSans-2e" x="63.623047"/>
       <use xlink:href="#DejaVuSans-36" x="95.410156"/>
      </g>
     </g>
    </g>
    <g id="ytick_6">
     <g id="line2d_6">
      <path d="M 59.024844 102.012909 
L 339.108133 102.012909 
" clip-path="url(#p1c76d55dcc)" style="fill: none; stroke: #cccccc; stroke-linecap: round"/>
     </g>
     <g id="text_10">
      <!-- 0.8 -->
      <g style="fill: #262626" transform="translate(32.031406 106.19205)scale(0.11 -0.11)">
       <defs>
        <path id="DejaVuSans-38" d="M 2034 2216 
Q 1584 2216 1326 1975 
Q 1069 1734 1069 1313 
Q 1069 891 1326 650 
Q 1584 409 2034 409 
Q 2484 409 2743 651 
Q 3003 894 3003 1313 
Q 3003 1734 2745 1975 
Q 2488 2216 2034 2216 
z
M 1403 2484 
Q 997 2584 770 2862 
Q 544 3141 544 3541 
Q 544 4100 942 4425 
Q 1341 4750 2034 4750 
Q 2731 4750 3128 4425 
Q 3525 4100 3525 3541 
Q 3525 3141 3298 2862 
Q 3072 2584 2669 2484 
Q 3125 2378 3379 2068 
Q 3634 1759 3634 1313 
Q 3634 634 3220 271 
Q 2806 -91 2034 -91 
Q 1263 -91 848 271 
Q 434 634 434 1313 
Q 434 1759 690 2068 
Q 947 2378 1403 2484 
z
M 1172 3481 
Q 1172 3119 1398 2916 
Q 1625 2713 2034 2713 
Q 2441 2713 2670 2916 
Q 2900 3119 2900 3481 
Q 2900 3844 2670 4047 
Q 2441 4250 2034 4250 
Q 1625 4250 1398 4047 
Q 1172 3844 1172 3481 
z
" transform="scale(0.015625)"/>
       </defs>
       <use xlink:href="#DejaVuSans-30"/>
       <use xlink:href="#DejaVuSans-2e" x="63.623047"/>
       <use xlink:href="#DejaVuSans-38" x="95.410156"/>
      </g>
     </g>
    </g>
    <g id="ytick_7">
     <g id="line2d_7">
      <path d="M 59.024844 66.028182 
L 339.108133 66.028182 
" clip-path="url(#p1c76d55dcc)" style="fill: none; stroke: #cccccc; stroke-linecap: round"/>
     </g>
     <g id="text_11">
      <!-- 1.0 -->
      <g style="fill: #262626" transform="translate(32.031406 70.207323)scale(0.11 -0.11)">
       <defs>
        <path id="DejaVuSans-31" d="M 794 531 
L 1825 531 
L 1825 4091 
L 703 3866 
L 703 4441 
L 1819 4666 
L 2450 4666 
L 2450 531 
L 3481 531 
L 3481 0 
L 794 0 
L 794 531 
z
" transform="scale(0.015625)"/>
       </defs>
       <use xlink:href="#DejaVuSans-31"/>
       <use xlink:href="#DejaVuSans-2e" x="63.623047"/>
       <use xlink:href="#DejaVuSans-30" x="95.410156"/>
      </g>
     </g>
    </g>
    <g id="ytick_8">
     <g id="line2d_8">
      <path d="M 59.024844 30.043455 
L 339.108133 30.043455 
" clip-path="url(#p1c76d55dcc)" style="fill: none; stroke: #cccccc; stroke-linecap: round"/>
     </g>
     <g id="text_12">
      <!-- 1.2 -->
      <g style="fill: #262626" transform="translate(32.031406 34.222596)scale(0.11 -0.11)">
       <use xlink:href="#DejaVuSans-31"/>
       <use xlink:href="#DejaVuSans-2e" x="63.623047"/>
       <use xlink:href="#DejaVuSans-32" x="95.410156"/>
      </g>
     </g>
    </g>
    <g id="text_13">
     <!-- success -->
     <g style="fill: #262626" transform="translate(16.318125 179.459375)rotate(-90)scale(0.12 -0.12)">
      <defs>
       <path id="DejaVuSans-75" d="M 544 1381 
L 544 3500 
L 1119 3500 
L 1119 1403 
Q 1119 906 1312 657 
Q 1506 409 1894 409 
Q 2359 409 2629 706 
Q 2900 1003 2900 1516 
L 2900 3500 
L 3475 3500 
L 3475 0 
L 2900 0 
L 2900 538 
Q 2691 219 2414 64 
Q 2138 -91 1772 -91 
Q 1169 -91 856 284 
Q 544 659 544 1381 
z
M 1991 3584 
L 1991 3584 
z
" transform="scale(0.015625)"/>
       <path id="DejaVuSans-63" d="M 3122 3366 
L 3122 2828 
Q 2878 2963 2633 3030 
Q 2388 3097 2138 3097 
Q 1578 3097 1268 2742 
Q 959 2388 959 1747 
Q 959 1106 1268 751 
Q 1578 397 2138 397 
Q 2388 397 2633 464 
Q 2878 531 3122 666 
L 3122 134 
Q 2881 22 2623 -34 
Q 2366 -91 2075 -91 
Q 1284 -91 818 406 
Q 353 903 353 1747 
Q 353 2603 823 3093 
Q 1294 3584 2113 3584 
Q 2378 3584 2631 3529 
Q 2884 3475 3122 3366 
z
" transform="scale(0.015625)"/>
      </defs>
      <use xlink:href="#DejaVuSans-73"/>
      <use xlink:href="#DejaVuSans-75" x="52.099609"/>
      <use xlink:href="#DejaVuSans-63" x="115.478516"/>
      <use xlink:href="#DejaVuSans-63" x="170.458984"/>
      <use xlink:href="#DejaVuSans-65" x="225.439453"/>
      <use xlink:href="#DejaVuSans-73" x="286.962891"/>
      <use xlink:href="#DejaVuSans-73" x="339.0625"/>
     </g>
    </g>
   </g>
   <g id="patch_3">
    <path d="M 105.705392 245.951818 
L 105.705392 245.951818 
L 105.705392 245.951818 
L 105.705392 245.951818 
z
" clip-path="url(#p1c76d55dcc)" style="fill: #5875a4; stroke: #4c4c4c; stroke-width: 0.75; stroke-linejoin: miter"/>
   </g>
   <g id="PolyCollection_1">
    <defs>
     <path id="m7e76a986a2" d="M 105.705392 -56.486051 
L 104.765141 -56.486051 
L 104.517246 -59.21865 
L 104.225687 -61.951249 
L 103.889209 -64.683847 
L 103.508425 -67.416446 
L 103.086204 -70.149045 
L 102.627955 -72.881643 
L 102.141776 -75.614242 
L 101.638412 -78.346841 
L 101.13101 -81.07944 
L 100.634643 -83.812038 
L 100.16563 -86.544637 
L 99.74068 -89.277236 
L 99.375926 -92.009834 
L 99.08591 -94.742433 
L 98.882629 -97.475032 
L 98.774712 -100.207631 
L 98.766811 -102.940229 
L 98.859266 -105.672828 
L 99.048089 -108.405427 
L 99.325239 -111.138025 
L 99.679197 -113.870624 
L 100.095757 -116.603223 
L 100.558971 -119.335822 
L 101.052154 -122.06842 
L 101.558864 -124.801019 
L 102.063784 -127.533618 
L 102.553429 -130.266216 
L 103.016655 -132.998815 
L 103.444942 -135.731414 
L 103.832465 -138.464013 
L 104.175975 -141.196611 
L 104.474527 -143.92921 
L 104.729112 -146.661809 
L 104.942228 -149.394407 
L 105.117441 -152.127006 
L 105.258971 -154.859605 
L 105.371327 -157.592204 
L 105.459012 -160.324802 
L 105.526297 -163.057401 
L 105.57707 -165.79 
L 105.614745 -168.522598 
L 105.642225 -171.255197 
L 105.661904 -173.987796 
L 105.675698 -176.720395 
L 105.685087 -179.452993 
L 105.691162 -182.185592 
L 105.694665 -184.918191 
L 105.696025 -187.650789 
L 105.695365 -190.383388 
L 105.692496 -193.115987 
L 105.68688 -195.848586 
L 105.677569 -198.581184 
L 105.663102 -201.313783 
L 105.641388 -204.046382 
L 105.609541 -206.77898 
L 105.563701 -209.511579 
L 105.498843 -212.244178 
L 105.408578 -214.976777 
L 105.284992 -217.709375 
L 105.118532 -220.441974 
L 104.897987 -223.174573 
L 104.610605 -225.907171 
L 104.242379 -228.63977 
L 103.778549 -231.372369 
L 103.204334 -234.104968 
L 102.505902 -236.837566 
L 101.671568 -239.570165 
L 100.693145 -242.302764 
L 99.567385 -245.035362 
L 98.297383 -247.767961 
L 96.893788 -250.50056 
L 95.375691 -253.233159 
L 93.771013 -255.965757 
L 92.116276 -258.698356 
L 90.455671 -261.430955 
L 88.8394 -264.163553 
L 87.321342 -266.896152 
L 85.956178 -269.628751 
L 84.796177 -272.36135 
L 83.887894 -275.093948 
L 83.26908 -277.826547 
L 82.966081 -280.559146 
L 82.991976 -283.291744 
L 83.345644 -286.024343 
L 84.011841 -288.756942 
L 84.962289 -291.489541 
L 86.157673 -294.222139 
L 87.550329 -296.954738 
L 89.087393 -299.687337 
L 90.714102 -302.419935 
L 92.376974 -305.152534 
L 94.026611 -307.885133 
L 95.619932 -310.617732 
L 97.121718 -313.35033 
L 98.505433 -316.082929 
L 99.753347 -318.815528 
L 100.856064 -321.548126 
L 101.811568 -324.280725 
L 102.623976 -327.013324 
L 105.705392 -327.013324 
L 105.705392 -327.013324 
L 105.705392 -324.280725 
L 105.705392 -321.548126 
L 105.705392 -318.815528 
L 105.705392 -316.082929 
L 105.705392 -313.35033 
L 105.705392 -310.617732 
L 105.705392 -307.885133 
L 105.705392 -305.152534 
L 105.705392 -302.419935 
L 105.705392 -299.687337 
L 105.705392 -296.954738 
L 105.705392 -294.222139 
L 105.705392 -291.489541 
L 105.705392 -288.756942 
L 105.705392 -286.024343 
L 105.705392 -283.291744 
L 105.705392 -280.559146 
L 105.705392 -277.826547 
L 105.705392 -275.093948 
L 105.705392 -272.36135 
L 105.705392 -269.628751 
L 105.705392 -266.896152 
L 105.705392 -264.163553 
L 105.705392 -261.430955 
L 105.705392 -258.698356 
L 105.705392 -255.965757 
L 105.705392 -253.233159 
L 105.705392 -250.50056 
L 105.705392 -247.767961 
L 105.705392 -245.035362 
L 105.705392 -242.302764 
L 105.705392 -239.570165 
L 105.705392 -236.837566 
L 105.705392 -234.104968 
L 105.705392 -231.372369 
L 105.705392 -228.63977 
L 105.705392 -225.907171 
L 105.705392 -223.174573 
L 105.705392 -220.441974 
L 105.705392 -217.709375 
L 105.705392 -214.976777 
L 105.705392 -212.244178 
L 105.705392 -209.511579 
L 105.705392 -206.77898 
L 105.705392 -204.046382 
L 105.705392 -201.313783 
L 105.705392 -198.581184 
L 105.705392 -195.848586 
L 105.705392 -193.115987 
L 105.705392 -190.383388 
L 105.705392 -187.650789 
L 105.705392 -184.918191 
L 105.705392 -182.185592 
L 105.705392 -179.452993 
L 105.705392 -176.720395 
L 105.705392 -173.987796 
L 105.705392 -171.255197 
L 105.705392 -168.522598 
L 105.705392 -165.79 
L 105.705392 -163.057401 
L 105.705392 -160.324802 
L 105.705392 -157.592204 
L 105.705392 -154.859605 
L 105.705392 -152.127006 
L 105.705392 -149.394407 
L 105.705392 -146.661809 
L 105.705392 -143.92921 
L 105.705392 -141.196611 
L 105.705392 -138.464013 
L 105.705392 -135.731414 
L 105.705392 -132.998815 
L 105.705392 -130.266216 
L 105.705392 -127.533618 
L 105.705392 -124.801019 
L 105.705392 -122.06842 
L 105.705392 -119.335822 
L 105.705392 -116.603223 
L 105.705392 -113.870624 
L 105.705392 -111.138025 
L 105.705392 -108.405427 
L 105.705392 -105.672828 
L 105.705392 -102.940229 
L 105.705392 -100.207631 
L 105.705392 -97.475032 
L 105.705392 -94.742433 
L 105.705392 -92.009834 
L 105.705392 -89.277236 
L 105.705392 -86.544637 
L 105.705392 -83.812038 
L 105.705392 -81.07944 
L 105.705392 -78.346841 
L 105.705392 -75.614242 
L 105.705392 -72.881643 
L 105.705392 -70.149045 
L 105.705392 -67.416446 
L 105.705392 -64.683847 
L 105.705392 -61.951249 
L 105.705392 -59.21865 
L 105.705392 -56.486051 
z
" style="stroke: #4c4c4c; stroke-width: 1.5"/>
    </defs>
    <g clip-path="url(#p1c76d55dcc)">
     <use xlink:href="#m7e76a986a2" x="0" y="347.739687" style="fill: #5875a4; stroke: #4c4c4c; stroke-width: 1.5"/>
    </g>
   </g>
   <g id="patch_4">
    <path d="M 105.705392 245.951818 
L 105.705392 245.951818 
L 105.705392 245.951818 
L 105.705392 245.951818 
z
" clip-path="url(#p1c76d55dcc)" style="fill: #cc8963; stroke: #4c4c4c; stroke-width: 0.75; stroke-linejoin: miter"/>
   </g>
   <g id="PolyCollection_2">
    <defs>
     <path id="m8384a9064f" d="M 106.278594 -69.414854 
L 105.705392 -69.414854 
L 105.705392 -71.886265 
L 105.705392 -74.357676 
L 105.705392 -76.829087 
L 105.705392 -79.300497 
L 105.705392 -81.771908 
L 105.705392 -84.243319 
L 105.705392 -86.71473 
L 105.705392 -89.186141 
L 105.705392 -91.657551 
L 105.705392 -94.128962 
L 105.705392 -96.600373 
L 105.705392 -99.071784 
L 105.705392 -101.543194 
L 105.705392 -104.014605 
L 105.705392 -106.486016 
L 105.705392 -108.957427 
L 105.705392 -111.428837 
L 105.705392 -113.900248 
L 105.705392 -116.371659 
L 105.705392 -118.84307 
L 105.705392 -121.314481 
L 105.705392 -123.785891 
L 105.705392 -126.257302 
L 105.705392 -128.728713 
L 105.705392 -131.200124 
L 105.705392 -133.671534 
L 105.705392 -136.142945 
L 105.705392 -138.614356 
L 105.705392 -141.085767 
L 105.705392 -143.557177 
L 105.705392 -146.028588 
L 105.705392 -148.499999 
L 105.705392 -150.97141 
L 105.705392 -153.442821 
L 105.705392 -155.914231 
L 105.705392 -158.385642 
L 105.705392 -160.857053 
L 105.705392 -163.328464 
L 105.705392 -165.799874 
L 105.705392 -168.271285 
L 105.705392 -170.742696 
L 105.705392 -173.214107 
L 105.705392 -175.685517 
L 105.705392 -178.156928 
L 105.705392 -180.628339 
L 105.705392 -183.09975 
L 105.705392 -185.571161 
L 105.705392 -188.042571 
L 105.705392 -190.513982 
L 105.705392 -192.985393 
L 105.705392 -195.456804 
L 105.705392 -197.928214 
L 105.705392 -200.399625 
L 105.705392 -202.871036 
L 105.705392 -205.342447 
L 105.705392 -207.813858 
L 105.705392 -210.285268 
L 105.705392 -212.756679 
L 105.705392 -215.22809 
L 105.705392 -217.699501 
L 105.705392 -220.170911 
L 105.705392 -222.642322 
L 105.705392 -225.113733 
L 105.705392 -227.585144 
L 105.705392 -230.056554 
L 105.705392 -232.527965 
L 105.705392 -234.999376 
L 105.705392 -237.470787 
L 105.705392 -239.942198 
L 105.705392 -242.413608 
L 105.705392 -244.885019 
L 105.705392 -247.35643 
L 105.705392 -249.827841 
L 105.705392 -252.299251 
L 105.705392 -254.770662 
L 105.705392 -257.242073 
L 105.705392 -259.713484 
L 105.705392 -262.184894 
L 105.705392 -264.656305 
L 105.705392 -267.127716 
L 105.705392 -269.599127 
L 105.705392 -272.070538 
L 105.705392 -274.541948 
L 105.705392 -277.013359 
L 105.705392 -279.48477 
L 105.705392 -281.956181 
L 105.705392 -284.427591 
L 105.705392 -286.899002 
L 105.705392 -289.370413 
L 105.705392 -291.841824 
L 105.705392 -294.313234 
L 105.705392 -296.784645 
L 105.705392 -299.256056 
L 105.705392 -301.727467 
L 105.705392 -304.198878 
L 105.705392 -306.670288 
L 105.705392 -309.141699 
L 105.705392 -311.61311 
L 105.705392 -314.084521 
L 110.75999 -314.084521 
L 110.75999 -314.084521 
L 112.485608 -311.61311 
L 114.590773 -309.141699 
L 117.081252 -306.670288 
L 119.934185 -304.198878 
L 123.092506 -301.727467 
L 126.462297 -299.256056 
L 129.914195 -296.784645 
L 133.289546 -294.313234 
L 136.41128 -291.841824 
L 139.098687 -289.370413 
L 141.184486 -286.899002 
L 142.531974 -284.427591 
L 143.04983 -281.956181 
L 142.702356 -279.48477 
L 141.513541 -277.013359 
L 139.564327 -274.541948 
L 136.983491 -272.070538 
L 133.933582 -269.599127 
L 130.594043 -267.127716 
L 127.143937 -264.656305 
L 123.74657 -262.184894 
L 120.537747 -259.713484 
L 117.618661 -257.242073 
L 115.05358 -254.770662 
L 112.871768 -252.299251 
L 111.072586 -249.827841 
L 109.632481 -247.35643 
L 108.512569 -244.885019 
L 107.665791 -242.413608 
L 107.042895 -239.942198 
L 106.59689 -237.470787 
L 106.285919 -234.999376 
L 106.074709 -232.527965 
L 105.934929 -230.056554 
L 105.844766 -227.585144 
L 105.788069 -225.113733 
L 105.753306 -222.642322 
L 105.73252 -220.170911 
L 105.720397 -217.699501 
L 105.713501 -215.22809 
L 105.709673 -212.756679 
L 105.7076 -210.285268 
L 105.706504 -207.813858 
L 105.70594 -205.342447 
L 105.705655 -202.871036 
L 105.705516 -200.399625 
L 105.705449 -197.928214 
L 105.705418 -195.456804 
L 105.705404 -192.985393 
L 105.705398 -190.513982 
L 105.705397 -188.042571 
L 105.705399 -185.571161 
L 105.705406 -183.09975 
L 105.705422 -180.628339 
L 105.705454 -178.156928 
L 105.705518 -175.685517 
L 105.705642 -173.214107 
L 105.705877 -170.742696 
L 105.706311 -168.271285 
L 105.707094 -165.799874 
L 105.708468 -163.328464 
L 105.710825 -160.857053 
L 105.714768 -158.385642 
L 105.721197 -155.914231 
L 105.731422 -153.442821 
L 105.747273 -150.97141 
L 105.771225 -148.499999 
L 105.80649 -146.028588 
L 105.857067 -143.557177 
L 105.927705 -141.085767 
L 106.023732 -138.614356 
L 106.150732 -136.142945 
L 106.314043 -133.671534 
L 106.518074 -131.200124 
L 106.765496 -128.728713 
L 107.056381 -126.257302 
L 107.387412 -123.785891 
L 107.751299 -121.314481 
L 108.136567 -118.84307 
L 108.527816 -116.371659 
L 108.906527 -113.900248 
L 109.252393 -111.428837 
L 109.545065 -108.957427 
L 109.76611 -106.486016 
L 109.900924 -104.014605 
L 109.940328 -101.543194 
L 109.881602 -99.071784 
L 109.728794 -96.600373 
L 109.49226 -94.128962 
L 109.187503 -91.657551 
L 108.833492 -89.186141 
L 108.45072 -86.71473 
L 108.059268 -84.243319 
L 107.677127 -81.771908 
L 107.318966 -79.300497 
L 106.995438 -76.829087 
L 106.713012 -74.357676 
L 106.474282 -71.886265 
L 106.278594 -69.414854 
z
" style="stroke: #4c4c4c; stroke-width: 1.5"/>
    </defs>
    <g clip-path="url(#p1c76d55dcc)">
     <use xlink:href="#m8384a9064f" x="0" y="347.739687" style="fill: #cc8963; stroke: #4c4c4c; stroke-width: 1.5"/>
    </g>
   </g>
   <g id="PolyCollection_3">
    <defs>
     <path id="m9697c060d2" d="M 199.066488 -58.142434 
L 198.079678 -58.142434 
L 197.812357 -60.84157 
L 197.496818 -63.540706 
L 197.131715 -66.239843 
L 196.717894 -68.938979 
L 196.258844 -71.638116 
L 195.761024 -74.337252 
L 195.234017 -77.036389 
L 194.690445 -79.735525 
L 194.145634 -82.434662 
L 193.617002 -85.133798 
L 193.123198 -87.832934 
L 192.683054 -90.532071 
L 192.3144 -93.231207 
L 192.032882 -95.930344 
L 191.85086 -98.62948 
L 191.776505 -101.328617 
L 191.813198 -104.027753 
L 191.959268 -106.72689 
L 192.208121 -109.426026 
L 192.548736 -112.125162 
L 192.966469 -114.824299 
L 193.444101 -117.523435 
L 193.963007 -120.222572 
L 194.50435 -122.921708 
L 195.050184 -125.620845 
L 195.58439 -128.319981 
L 196.093374 -131.019118 
L 196.566498 -133.718254 
L 196.996245 -136.41739 
L 197.378146 -139.116527 
L 197.7105 -141.815663 
L 197.993963 -144.5148 
L 198.231048 -147.213936 
L 198.425604 -149.913073 
L 198.582316 -152.612209 
L 198.70626 -155.311346 
L 198.802543 -158.010482 
L 198.876025 -160.709618 
L 198.931132 -163.408755 
L 198.971746 -166.107891 
L 199.001163 -168.807028 
L 199.022098 -171.506164 
L 199.036721 -174.205301 
L 199.046721 -176.904437 
L 199.053365 -179.603574 
L 199.057565 -182.30271 
L 199.059928 -185.001846 
L 199.060795 -187.700983 
L 199.060259 -190.400119 
L 199.058156 -193.099256 
L 199.054032 -195.798392 
L 199.047075 -198.497529 
L 199.036016 -201.196665 
L 199.018989 -203.895801 
L 198.993349 -206.594938 
L 198.955456 -209.294074 
L 198.900421 -211.993211 
L 198.821845 -214.692347 
L 198.711541 -217.391484 
L 198.559313 -220.09062 
L 198.352796 -222.789757 
L 198.07743 -225.488893 
L 197.716627 -228.188029 
L 197.252174 -230.887166 
L 196.664935 -233.586302 
L 195.935883 -236.285439 
L 195.047465 -238.984575 
L 193.985258 -241.683712 
L 192.739843 -244.382848 
L 191.308765 -247.081985 
L 189.698392 -249.781121 
L 187.925478 -252.480257 
L 186.018187 -255.179394 
L 184.01638 -257.87853 
L 181.971002 -260.577667 
L 179.942455 -263.276803 
L 177.997982 -265.97594 
L 176.208174 -268.675076 
L 174.642823 -271.374213 
L 173.366454 -274.073349 
L 172.433938 -276.772485 
L 171.886578 -279.471622 
L 171.74908 -282.170758 
L 172.027704 -284.869895 
L 172.709788 -287.569031 
L 173.764706 -290.268168 
L 175.146145 -292.967304 
L 176.79548 -295.666441 
L 178.645884 -298.365577 
L 180.626804 -301.064713 
L 182.668349 -303.76385 
L 184.70525 -306.462986 
L 186.68008 -309.162123 
L 188.545535 -311.861259 
L 190.265711 -314.560396 
L 191.816403 -317.259532 
L 193.184537 -319.958669 
L 194.366942 -322.657805 
L 195.36866 -325.356941 
L 199.066488 -325.356941 
L 199.066488 -325.356941 
L 199.066488 -322.657805 
L 199.066488 -319.958669 
L 199.066488 -317.259532 
L 199.066488 -314.560396 
L 199.066488 -311.861259 
L 199.066488 -309.162123 
L 199.066488 -306.462986 
L 199.066488 -303.76385 
L 199.066488 -301.064713 
L 199.066488 -298.365577 
L 199.066488 -295.666441 
L 199.066488 -292.967304 
L 199.066488 -290.268168 
L 199.066488 -287.569031 
L 199.066488 -284.869895 
L 199.066488 -282.170758 
L 199.066488 -279.471622 
L 199.066488 -276.772485 
L 199.066488 -274.073349 
L 199.066488 -271.374213 
L 199.066488 -268.675076 
L 199.066488 -265.97594 
L 199.066488 -263.276803 
L 199.066488 -260.577667 
L 199.066488 -257.87853 
L 199.066488 -255.179394 
L 199.066488 -252.480257 
L 199.066488 -249.781121 
L 199.066488 -247.081985 
L 199.066488 -244.382848 
L 199.066488 -241.683712 
L 199.066488 -238.984575 
L 199.066488 -236.285439 
L 199.066488 -233.586302 
L 199.066488 -230.887166 
L 199.066488 -228.188029 
L 199.066488 -225.488893 
L 199.066488 -222.789757 
L 199.066488 -220.09062 
L 199.066488 -217.391484 
L 199.066488 -214.692347 
L 199.066488 -211.993211 
L 199.066488 -209.294074 
L 199.066488 -206.594938 
L 199.066488 -203.895801 
L 199.066488 -201.196665 
L 199.066488 -198.497529 
L 199.066488 -195.798392 
L 199.066488 -193.099256 
L 199.066488 -190.400119 
L 199.066488 -187.700983 
L 199.066488 -185.001846 
L 199.066488 -182.30271 
L 199.066488 -179.603574 
L 199.066488 -176.904437 
L 199.066488 -174.205301 
L 199.066488 -171.506164 
L 199.066488 -168.807028 
L 199.066488 -166.107891 
L 199.066488 -163.408755 
L 199.066488 -160.709618 
L 199.066488 -158.010482 
L 199.066488 -155.311346 
L 199.066488 -152.612209 
L 199.066488 -149.913073 
L 199.066488 -147.213936 
L 199.066488 -144.5148 
L 199.066488 -141.815663 
L 199.066488 -139.116527 
L 199.066488 -136.41739 
L 199.066488 -133.718254 
L 199.066488 -131.019118 
L 199.066488 -128.319981 
L 199.066488 -125.620845 
L 199.066488 -122.921708 
L 199.066488 -120.222572 
L 199.066488 -117.523435 
L 199.066488 -114.824299 
L 199.066488 -112.125162 
L 199.066488 -109.426026 
L 199.066488 -106.72689 
L 199.066488 -104.027753 
L 199.066488 -101.328617 
L 199.066488 -98.62948 
L 199.066488 -95.930344 
L 199.066488 -93.231207 
L 199.066488 -90.532071 
L 199.066488 -87.832934 
L 199.066488 -85.133798 
L 199.066488 -82.434662 
L 199.066488 -79.735525 
L 199.066488 -77.036389 
L 199.066488 -74.337252 
L 199.066488 -71.638116 
L 199.066488 -68.938979 
L 199.066488 -66.239843 
L 199.066488 -63.540706 
L 199.066488 -60.84157 
L 199.066488 -58.142434 
z
" style="stroke: #4c4c4c; stroke-width: 1.5"/>
    </defs>
    <g clip-path="url(#p1c76d55dcc)">
     <use xlink:href="#m9697c060d2" x="0" y="347.739687" style="fill: #5875a4; stroke: #4c4c4c; stroke-width: 1.5"/>
    </g>
   </g>
   <g id="PolyCollection_4">
    <defs>
     <path id="m8f3d7c9410" d="M 199.788495 -66.389462 
L 199.066488 -66.389462 
L 199.066488 -68.921991 
L 199.066488 -71.454521 
L 199.066488 -73.987051 
L 199.066488 -76.519581 
L 199.066488 -79.052111 
L 199.066488 -81.58464 
L 199.066488 -84.11717 
L 199.066488 -86.6497 
L 199.066488 -89.18223 
L 199.066488 -91.71476 
L 199.066488 -94.24729 
L 199.066488 -96.779819 
L 199.066488 -99.312349 
L 199.066488 -101.844879 
L 199.066488 -104.377409 
L 199.066488 -106.909939 
L 199.066488 -109.442468 
L 199.066488 -111.974998 
L 199.066488 -114.507528 
L 199.066488 -117.040058 
L 199.066488 -119.572588 
L 199.066488 -122.105118 
L 199.066488 -124.637647 
L 199.066488 -127.170177 
L 199.066488 -129.702707 
L 199.066488 -132.235237 
L 199.066488 -134.767767 
L 199.066488 -137.300296 
L 199.066488 -139.832826 
L 199.066488 -142.365356 
L 199.066488 -144.897886 
L 199.066488 -147.430416 
L 199.066488 -149.962946 
L 199.066488 -152.495475 
L 199.066488 -155.028005 
L 199.066488 -157.560535 
L 199.066488 -160.093065 
L 199.066488 -162.625595 
L 199.066488 -165.158124 
L 199.066488 -167.690654 
L 199.066488 -170.223184 
L 199.066488 -172.755714 
L 199.066488 -175.288244 
L 199.066488 -177.820774 
L 199.066488 -180.353303 
L 199.066488 -182.885833 
L 199.066488 -185.418363 
L 199.066488 -187.950893 
L 199.066488 -190.483423 
L 199.066488 -193.015952 
L 199.066488 -195.548482 
L 199.066488 -198.081012 
L 199.066488 -200.613542 
L 199.066488 -203.146072 
L 199.066488 -205.678601 
L 199.066488 -208.211131 
L 199.066488 -210.743661 
L 199.066488 -213.276191 
L 199.066488 -215.808721 
L 199.066488 -218.341251 
L 199.066488 -220.87378 
L 199.066488 -223.40631 
L 199.066488 -225.93884 
L 199.066488 -228.47137 
L 199.066488 -231.0039 
L 199.066488 -233.536429 
L 199.066488 -236.068959 
L 199.066488 -238.601489 
L 199.066488 -241.134019 
L 199.066488 -243.666549 
L 199.066488 -246.199079 
L 199.066488 -248.731608 
L 199.066488 -251.264138 
L 199.066488 -253.796668 
L 199.066488 -256.329198 
L 199.066488 -258.861728 
L 199.066488 -261.394257 
L 199.066488 -263.926787 
L 199.066488 -266.459317 
L 199.066488 -268.991847 
L 199.066488 -271.524377 
L 199.066488 -274.056907 
L 199.066488 -276.589436 
L 199.066488 -279.121966 
L 199.066488 -281.654496 
L 199.066488 -284.187026 
L 199.066488 -286.719556 
L 199.066488 -289.252085 
L 199.066488 -291.784615 
L 199.066488 -294.317145 
L 199.066488 -296.849675 
L 199.066488 -299.382205 
L 199.066488 -301.914735 
L 199.066488 -304.447264 
L 199.066488 -306.979794 
L 199.066488 -309.512324 
L 199.066488 -312.044854 
L 199.066488 -314.577384 
L 199.066488 -317.109913 
L 204.120535 -317.109913 
L 204.120535 -317.109913 
L 205.726536 -314.577384 
L 207.665009 -312.044854 
L 209.942718 -309.512324 
L 212.544981 -306.979794 
L 215.431358 -304.447264 
L 218.533175 -301.914735 
L 221.753631 -299.382205 
L 224.971027 -296.849675 
L 228.045274 -294.317145 
L 230.827387 -291.784615 
L 233.171143 -289.252085 
L 234.945693 -286.719556 
L 236.047623 -284.187026 
L 236.410927 -281.654496 
L 236.013551 -279.121966 
L 234.879609 -276.589436 
L 233.076963 -274.056907 
L 230.710498 -271.524377 
L 227.912023 -268.991847 
L 224.828154 -266.459317 
L 221.607717 -263.926787 
L 218.390153 -261.394257 
L 215.296158 -258.861728 
L 212.421312 -256.329198 
L 209.832997 -253.796668 
L 207.570423 -251.264138 
L 205.647205 -248.731608 
L 204.055732 -246.199079 
L 202.772481 -243.666549 
L 201.763499 -241.134019 
L 200.989443 -238.601489 
L 200.40976 -236.068959 
L 199.985808 -233.536429 
L 199.68291 -231.0039 
L 199.471435 -228.47137 
L 199.327119 -225.93884 
L 199.230835 -223.40631 
L 199.168021 -220.87378 
L 199.127943 -218.341251 
L 199.102932 -215.808721 
L 199.087661 -213.276191 
L 199.07854 -210.743661 
L 199.07321 -208.211131 
L 199.070161 -205.678601 
L 199.068454 -203.146072 
L 199.06752 -200.613542 
L 199.06702 -198.081012 
L 199.066759 -195.548482 
L 199.066629 -193.015952 
L 199.066571 -190.483423 
L 199.066556 -187.950893 
L 199.066578 -185.418363 
L 199.066642 -182.885833 
L 199.066772 -180.353303 
L 199.067014 -177.820774 
L 199.067449 -175.288244 
L 199.06821 -172.755714 
L 199.069513 -170.223184 
L 199.071694 -167.690654 
L 199.075268 -165.158124 
L 199.080993 -162.625595 
L 199.089966 -160.093065 
L 199.103721 -157.560535 
L 199.124338 -155.028005 
L 199.154548 -152.495475 
L 199.19782 -149.962946 
L 199.258384 -147.430416 
L 199.341196 -144.897886 
L 199.451775 -142.365356 
L 199.595916 -139.832826 
L 199.779237 -137.300296 
L 200.006591 -134.767767 
L 200.281336 -132.235237 
L 200.604561 -129.702707 
L 200.97432 -127.170177 
L 201.385012 -124.637647 
L 201.827012 -122.105118 
L 202.286664 -119.572588 
L 202.746726 -117.040058 
L 203.187279 -114.507528 
L 203.587061 -111.974998 
L 203.925127 -109.442468 
L 204.182648 -106.909939 
L 204.34464 -104.377409 
L 204.401408 -101.844879 
L 204.349507 -99.312349 
L 204.192089 -96.779819 
L 203.938582 -94.24729 
L 203.603759 -91.71476 
L 203.206315 -89.18223 
L 202.767137 -86.6497 
L 202.307509 -84.11717 
L 201.847443 -81.58464 
L 201.404327 -79.052111 
L 200.991987 -76.519581 
L 200.620235 -73.987051 
L 200.294848 -71.454521 
L 200.017924 -68.921991 
L 199.788495 -66.389462 
z
" style="stroke: #4c4c4c; stroke-width: 1.5"/>
    </defs>
    <g clip-path="url(#p1c76d55dcc)">
     <use xlink:href="#m8f3d7c9410" x="0" y="347.739687" style="fill: #cc8963; stroke: #4c4c4c; stroke-width: 1.5"/>
    </g>
   </g>
   <g id="PolyCollection_5">
    <defs>
     <path id="ma7f47cf955" d="M 292.427584 -65.287481 
L 291.795322 -65.287481 
L 291.599197 -67.842273 
L 291.363297 -70.397065 
L 291.086755 -72.951857 
L 290.771137 -75.506649 
L 290.420936 -78.061441 
L 290.04387 -80.616233 
L 289.6509 -83.171025 
L 289.255912 -85.725817 
L 288.875041 -88.280609 
L 288.52565 -90.835401 
L 288.225064 -93.390193 
L 287.989157 -95.944985 
L 287.830972 -98.499777 
L 287.75953 -101.05457 
L 287.778971 -103.609362 
L 287.888165 -106.164154 
L 288.080815 -108.718946 
L 288.346061 -111.273738 
L 288.669493 -113.82853 
L 289.034444 -116.383322 
L 289.423406 -118.938114 
L 289.819396 -121.492906 
L 290.207131 -124.047698 
L 290.573909 -126.60249 
L 290.910132 -129.157282 
L 291.209476 -131.712074 
L 291.468744 -134.266866 
L 291.687475 -136.821658 
L 291.867395 -139.37645 
L 292.011805 -141.931242 
L 292.124976 -144.486034 
L 292.211617 -147.040827 
L 292.276443 -149.595619 
L 292.323862 -152.150411 
L 292.357786 -154.705203 
L 292.381526 -157.259995 
L 292.397781 -159.814787 
L 292.408674 -162.369579 
L 292.415818 -164.924371 
L 292.420405 -167.479163 
L 292.423289 -170.033955 
L 292.425064 -172.588747 
L 292.426133 -175.143539 
L 292.426763 -177.698331 
L 292.427125 -180.253123 
L 292.427323 -182.807915 
L 292.427421 -185.362707 
L 292.427448 -187.917499 
L 292.42741 -190.472291 
L 292.427288 -193.027084 
L 292.427031 -195.581876 
L 292.426536 -198.136668 
L 292.425619 -200.69146 
L 292.423964 -203.246252 
L 292.421042 -205.801044 
L 292.415987 -208.355836 
L 292.407426 -210.910628 
L 292.393223 -213.46542 
L 292.370152 -216.020212 
L 292.333454 -218.575004 
L 292.276298 -221.129796 
L 292.189158 -223.684588 
L 292.059115 -226.23938 
L 291.869196 -228.794172 
L 291.597809 -231.348964 
L 291.218449 -233.903756 
L 290.699845 -236.458548 
L 290.006717 -239.013341 
L 289.101347 -241.568133 
L 287.94607 -244.122925 
L 286.506711 -246.677717 
L 284.756864 -249.232509 
L 282.682718 -251.787301 
L 280.287965 -254.342093 
L 277.598183 -256.896885 
L 274.66396 -259.451677 
L 271.562078 -262.006469 
L 268.394159 -264.561261 
L 265.282462 -267.116053 
L 262.362852 -269.670845 
L 259.775398 -272.225637 
L 257.653429 -274.780429 
L 256.112228 -277.335221 
L 255.238677 -279.890013 
L 255.083146 -282.444805 
L 255.654688 -284.999598 
L 256.920163 -287.55439 
L 258.80742 -290.109182 
L 261.212111 -292.663974 
L 264.007236 -295.218766 
L 267.054207 -297.773558 
L 270.214107 -300.32835 
L 273.357868 -302.883142 
L 276.374396 -305.437934 
L 279.176002 -307.992726 
L 281.700947 -310.547518 
L 283.913286 -313.10231 
L 285.800485 -315.657102 
L 287.369483 -318.211894 
L 292.427584 -318.211894 
L 292.427584 -318.211894 
L 292.427584 -315.657102 
L 292.427584 -313.10231 
L 292.427584 -310.547518 
L 292.427584 -307.992726 
L 292.427584 -305.437934 
L 292.427584 -302.883142 
L 292.427584 -300.32835 
L 292.427584 -297.773558 
L 292.427584 -295.218766 
L 292.427584 -292.663974 
L 292.427584 -290.109182 
L 292.427584 -287.55439 
L 292.427584 -284.999598 
L 292.427584 -282.444805 
L 292.427584 -279.890013 
L 292.427584 -277.335221 
L 292.427584 -274.780429 
L 292.427584 -272.225637 
L 292.427584 -269.670845 
L 292.427584 -267.116053 
L 292.427584 -264.561261 
L 292.427584 -262.006469 
L 292.427584 -259.451677 
L 292.427584 -256.896885 
L 292.427584 -254.342093 
L 292.427584 -251.787301 
L 292.427584 -249.232509 
L 292.427584 -246.677717 
L 292.427584 -244.122925 
L 292.427584 -241.568133 
L 292.427584 -239.013341 
L 292.427584 -236.458548 
L 292.427584 -233.903756 
L 292.427584 -231.348964 
L 292.427584 -228.794172 
L 292.427584 -226.23938 
L 292.427584 -223.684588 
L 292.427584 -221.129796 
L 292.427584 -218.575004 
L 292.427584 -216.020212 
L 292.427584 -213.46542 
L 292.427584 -210.910628 
L 292.427584 -208.355836 
L 292.427584 -205.801044 
L 292.427584 -203.246252 
L 292.427584 -200.69146 
L 292.427584 -198.136668 
L 292.427584 -195.581876 
L 292.427584 -193.027084 
L 292.427584 -190.472291 
L 292.427584 -187.917499 
L 292.427584 -185.362707 
L 292.427584 -182.807915 
L 292.427584 -180.253123 
L 292.427584 -177.698331 
L 292.427584 -175.143539 
L 292.427584 -172.588747 
L 292.427584 -170.033955 
L 292.427584 -167.479163 
L 292.427584 -164.924371 
L 292.427584 -162.369579 
L 292.427584 -159.814787 
L 292.427584 -157.259995 
L 292.427584 -154.705203 
L 292.427584 -152.150411 
L 292.427584 -149.595619 
L 292.427584 -147.040827 
L 292.427584 -144.486034 
L 292.427584 -141.931242 
L 292.427584 -139.37645 
L 292.427584 -136.821658 
L 292.427584 -134.266866 
L 292.427584 -131.712074 
L 292.427584 -129.157282 
L 292.427584 -126.60249 
L 292.427584 -124.047698 
L 292.427584 -121.492906 
L 292.427584 -118.938114 
L 292.427584 -116.383322 
L 292.427584 -113.82853 
L 292.427584 -111.273738 
L 292.427584 -108.718946 
L 292.427584 -106.164154 
L 292.427584 -103.609362 
L 292.427584 -101.05457 
L 292.427584 -98.499777 
L 292.427584 -95.944985 
L 292.427584 -93.390193 
L 292.427584 -90.835401 
L 292.427584 -88.280609 
L 292.427584 -85.725817 
L 292.427584 -83.171025 
L 292.427584 -80.616233 
L 292.427584 -78.061441 
L 292.427584 -75.506649 
L 292.427584 -72.951857 
L 292.427584 -70.397065 
L 292.427584 -67.842273 
L 292.427584 -65.287481 
z
" style="stroke: #4c4c4c; stroke-width: 1.5"/>
    </defs>
    <g clip-path="url(#p1c76d55dcc)">
     <use xlink:href="#ma7f47cf955" x="0" y="347.739687" style="fill: #5875a4; stroke: #4c4c4c; stroke-width: 1.5"/>
    </g>
   </g>
   <g id="PolyCollection_6">
    <defs>
     <path id="m3b01329e55" d="M 293.081867 -64.311386 
L 292.427584 -64.311386 
L 292.427584 -66.885897 
L 292.427584 -69.460408 
L 292.427584 -72.034919 
L 292.427584 -74.60943 
L 292.427584 -77.183942 
L 292.427584 -79.758453 
L 292.427584 -82.332964 
L 292.427584 -84.907475 
L 292.427584 -87.481986 
L 292.427584 -90.056497 
L 292.427584 -92.631008 
L 292.427584 -95.20552 
L 292.427584 -97.780031 
L 292.427584 -100.354542 
L 292.427584 -102.929053 
L 292.427584 -105.503564 
L 292.427584 -108.078075 
L 292.427584 -110.652586 
L 292.427584 -113.227098 
L 292.427584 -115.801609 
L 292.427584 -118.37612 
L 292.427584 -120.950631 
L 292.427584 -123.525142 
L 292.427584 -126.099653 
L 292.427584 -128.674164 
L 292.427584 -131.248676 
L 292.427584 -133.823187 
L 292.427584 -136.397698 
L 292.427584 -138.972209 
L 292.427584 -141.54672 
L 292.427584 -144.121231 
L 292.427584 -146.695742 
L 292.427584 -149.270254 
L 292.427584 -151.844765 
L 292.427584 -154.419276 
L 292.427584 -156.993787 
L 292.427584 -159.568298 
L 292.427584 -162.142809 
L 292.427584 -164.71732 
L 292.427584 -167.291832 
L 292.427584 -169.866343 
L 292.427584 -172.440854 
L 292.427584 -175.015365 
L 292.427584 -177.589876 
L 292.427584 -180.164387 
L 292.427584 -182.738898 
L 292.427584 -185.31341 
L 292.427584 -187.887921 
L 292.427584 -190.462432 
L 292.427584 -193.036943 
L 292.427584 -195.611454 
L 292.427584 -198.185965 
L 292.427584 -200.760477 
L 292.427584 -203.334988 
L 292.427584 -205.909499 
L 292.427584 -208.48401 
L 292.427584 -211.058521 
L 292.427584 -213.633032 
L 292.427584 -216.207543 
L 292.427584 -218.782055 
L 292.427584 -221.356566 
L 292.427584 -223.931077 
L 292.427584 -226.505588 
L 292.427584 -229.080099 
L 292.427584 -231.65461 
L 292.427584 -234.229121 
L 292.427584 -236.803633 
L 292.427584 -239.378144 
L 292.427584 -241.952655 
L 292.427584 -244.527166 
L 292.427584 -247.101677 
L 292.427584 -249.676188 
L 292.427584 -252.250699 
L 292.427584 -254.825211 
L 292.427584 -257.399722 
L 292.427584 -259.974233 
L 292.427584 -262.548744 
L 292.427584 -265.123255 
L 292.427584 -267.697766 
L 292.427584 -270.272277 
L 292.427584 -272.846789 
L 292.427584 -275.4213 
L 292.427584 -277.995811 
L 292.427584 -280.570322 
L 292.427584 -283.144833 
L 292.427584 -285.719344 
L 292.427584 -288.293855 
L 292.427584 -290.868367 
L 292.427584 -293.442878 
L 292.427584 -296.017389 
L 292.427584 -298.5919 
L 292.427584 -301.166411 
L 292.427584 -303.740922 
L 292.427584 -306.315433 
L 292.427584 -308.889945 
L 292.427584 -311.464456 
L 292.427584 -314.038967 
L 292.427584 -316.613478 
L 292.427584 -319.187989 
L 297.315458 -319.187989 
L 297.315458 -319.187989 
L 298.80081 -316.613478 
L 300.582143 -314.038967 
L 302.666253 -311.464456 
L 305.042616 -308.889945 
L 307.679874 -306.315433 
L 310.523626 -303.740922 
L 313.496102 -301.166411 
L 316.498146 -298.5919 
L 319.413696 -296.017389 
L 322.11663 -293.442878 
L 324.479501 -290.868367 
L 326.383357 -288.293855 
L 327.727615 -285.719344 
L 328.43885 -283.144833 
L 328.47744 -280.570322 
L 327.84122 -277.995811 
L 326.565685 -275.4213 
L 324.720706 -272.846789 
L 322.404197 -270.272277 
L 319.733511 -267.697766 
L 316.835637 -265.123255 
L 313.837314 -262.548744 
L 310.856131 -259.974233 
L 307.993434 -257.399722 
L 305.329566 -254.825211 
L 302.921603 -252.250699 
L 300.803439 -249.676188 
L 298.987802 -247.101677 
L 297.469658 -244.527166 
L 296.230372 -241.952655 
L 295.242055 -239.378144 
L 294.471642 -236.803633 
L 293.884356 -234.229121 
L 293.446391 -231.65461 
L 293.126772 -229.080099 
L 292.898451 -226.505588 
L 292.738758 -223.931077 
L 292.62938 -221.356566 
L 292.556001 -218.782055 
L 292.507777 -216.207543 
L 292.476726 -213.633032 
L 292.457135 -211.058521 
L 292.445022 -208.48401 
L 292.437683 -205.909499 
L 292.433324 -203.334988 
L 292.430788 -200.760477 
L 292.429344 -198.185965 
L 292.428542 -195.611454 
L 292.428114 -193.036943 
L 292.427907 -190.462432 
L 292.42784 -187.887921 
L 292.427883 -185.31341 
L 292.428044 -182.738898 
L 292.428368 -180.164387 
L 292.428943 -177.589876 
L 292.429922 -175.015365 
L 292.431542 -172.440854 
L 292.434163 -169.866343 
L 292.438319 -167.291832 
L 292.444774 -164.71732 
L 292.454596 -162.142809 
L 292.469238 -159.568298 
L 292.490614 -156.993787 
L 292.521177 -154.419276 
L 292.56396 -151.844765 
L 292.622585 -149.270254 
L 292.701199 -146.695742 
L 292.804325 -144.121231 
L 292.936619 -141.54672 
L 293.102508 -138.972209 
L 293.305724 -136.397698 
L 293.548762 -133.823187 
L 293.832296 -131.248676 
L 294.154621 -128.674164 
L 294.511202 -126.099653 
L 294.894398 -123.525142 
L 295.293454 -120.950631 
L 295.694804 -118.37612 
L 296.082709 -115.801609 
L 296.440202 -113.227098 
L 296.750286 -110.652586 
L 296.997251 -108.078075 
L 297.167992 -105.503564 
L 297.253156 -102.929053 
L 297.24799 -100.354542 
L 297.152785 -97.780031 
L 296.972845 -95.20552 
L 296.717999 -92.631008 
L 296.401709 -90.056497 
L 296.039899 -87.481986 
L 295.649628 -84.907475 
L 295.24778 -82.332964 
L 294.849889 -79.758453 
L 294.46923 -77.183942 
L 294.116211 -74.60943 
L 293.798115 -72.034919 
L 293.51914 -69.460408 
L 293.280693 -66.885897 
L 293.081867 -64.311386 
z
" style="stroke: #4c4c4c; stroke-width: 1.5"/>
    </defs>
    <g clip-path="url(#p1c76d55dcc)">
     <use xlink:href="#m3b01329e55" x="0" y="347.739687" style="fill: #cc8963; stroke: #4c4c4c; stroke-width: 1.5"/>
    </g>
   </g>
   <g id="line2d_9">
    <path d="M 105.705392 66.028182 
L 105.705392 66.028182 
" clip-path="url(#p1c76d55dcc)" style="fill: none; stroke: #4c4c4c; stroke-width: 1.5; stroke-linecap: round"/>
   </g>
   <g id="line2d_10">
    <path d="M 105.705392 66.028182 
L 105.705392 66.028182 
" clip-path="url(#p1c76d55dcc)" style="fill: none; stroke: #4c4c4c; stroke-width: 4.5; stroke-linecap: round"/>
   </g>
   <g id="line2d_11">
    <path d="M 199.066488 66.028182 
L 199.066488 66.028182 
" clip-path="url(#p1c76d55dcc)" style="fill: none; stroke: #4c4c4c; stroke-width: 1.5; stroke-linecap: round"/>
   </g>
   <g id="line2d_12">
    <path d="M 199.066488 66.028182 
L 199.066488 66.028182 
" clip-path="url(#p1c76d55dcc)" style="fill: none; stroke: #4c4c4c; stroke-width: 4.5; stroke-linecap: round"/>
   </g>
   <g id="line2d_13">
    <path d="M 292.427584 66.028182 
L 292.427584 66.028182 
" clip-path="url(#p1c76d55dcc)" style="fill: none; stroke: #4c4c4c; stroke-width: 1.5; stroke-linecap: round"/>
   </g>
   <g id="line2d_14">
    <path d="M 292.427584 66.028182 
L 292.427584 66.028182 
" clip-path="url(#p1c76d55dcc)" style="fill: none; stroke: #4c4c4c; stroke-width: 4.5; stroke-linecap: round"/>
   </g>
   <g id="patch_5">
    <path d="M 59.024844 304.78 
L 59.024844 7.2 
" style="fill: none; stroke: #cccccc; stroke-width: 1.25; stroke-linejoin: miter; stroke-linecap: square"/>
   </g>
   <g id="patch_6">
    <path d="M 59.024844 304.78 
L 339.108133 304.78 
" style="fill: none; stroke: #cccccc; stroke-width: 1.25; stroke-linejoin: miter; stroke-linecap: square"/>
   </g>
   <g id="PathCollection_1">
    <defs>
     <path id="mbd3f51cc0a" d="M 0 1.5 
C 0.397805 1.5 0.77937 1.341951 1.06066 1.06066 
C 1.341951 0.77937 1.5 0.397805 1.5 0 
C 1.5 -0.397805 1.341951 -0.77937 1.06066 -1.06066 
C 0.77937 -1.341951 0.397805 -1.5 0 -1.5 
C -0.397805 -1.5 -0.77937 -1.341951 -1.06066 -1.06066 
C -1.341951 -0.77937 -1.5 -0.397805 -1.5 0 
C -1.5 0.397805 -1.341951 0.77937 -1.06066 1.06066 
C -0.77937 1.341951 -0.397805 1.5 0 1.5 
z
" style="stroke: #4c4c4c"/>
    </defs>
    <g clip-path="url(#p1c76d55dcc)">
     <use xlink:href="#mbd3f51cc0a" x="105.705392" y="66.028182" style="fill: #ffffff; stroke: #4c4c4c"/>
    </g>
   </g>
   <g id="PathCollection_2">
    <g clip-path="url(#p1c76d55dcc)">
     <use xlink:href="#mbd3f51cc0a" x="199.066488" y="66.028182" style="fill: #ffffff; stroke: #4c4c4c"/>
    </g>
   </g>
   <g id="PathCollection_3">
    <g clip-path="url(#p1c76d55dcc)">
     <use xlink:href="#mbd3f51cc0a" x="292.427584" y="66.028182" style="fill: #ffffff; stroke: #4c4c4c"/>
    </g>
   </g>
  </g>
  <g id="legend_1">
   <g id="text_14">
    <!-- dim -->
    <g style="fill: #262626" transform="translate(354.932805 161.035156)scale(0.12 -0.12)">
     <defs>
      <path id="DejaVuSans-69" d="M 603 3500 
L 1178 3500 
L 1178 0 
L 603 0 
L 603 3500 
z
M 603 4863 
L 1178 4863 
L 1178 4134 
L 603 4134 
L 603 4863 
z
" transform="scale(0.015625)"/>
      <path id="DejaVuSans-6d" d="M 3328 2828 
Q 3544 3216 3844 3400 
Q 4144 3584 4550 3584 
Q 5097 3584 5394 3201 
Q 5691 2819 5691 2113 
L 5691 0 
L 5113 0 
L 5113 2094 
Q 5113 2597 4934 2840 
Q 4756 3084 4391 3084 
Q 3944 3084 3684 2787 
Q 3425 2491 3425 1978 
L 3425 0 
L 2847 0 
L 2847 2094 
Q 2847 2600 2669 2842 
Q 2491 3084 2119 3084 
Q 1678 3084 1418 2786 
Q 1159 2488 1159 1978 
L 1159 0 
L 581 0 
L 581 3500 
L 1159 3500 
L 1159 2956 
Q 1356 3278 1631 3431 
Q 1906 3584 2284 3584 
Q 2666 3584 2933 3390 
Q 3200 3197 3328 2828 
z
" transform="scale(0.015625)"/>
     </defs>
     <use xlink:href="#DejaVuSans-64"/>
     <use xlink:href="#DejaVuSans-69" x="63.476562"/>
     <use xlink:href="#DejaVuSans-6d" x="91.259766"/>
    </g>
   </g>
   <g id="patch_7">
    <path d="M 343.862101 177.389062 
L 365.862101 177.389062 
L 365.862101 169.689062 
L 343.862101 169.689062 
z
" style="fill: #5875a4; stroke: #4c4c4c; stroke-width: 0.75; stroke-linejoin: miter"/>
   </g>
   <g id="text_15">
    <!-- 2d -->
    <g style="fill: #262626" transform="translate(374.662101 177.389062)scale(0.11 -0.11)">
     <use xlink:href="#DejaVuSans-32"/>
     <use xlink:href="#DejaVuSans-64" x="63.623047"/>
    </g>
   </g>
   <g id="patch_8">
    <path d="M 343.862101 193.535 
L 365.862101 193.535 
L 365.862101 185.835 
L 343.862101 185.835 
z
" style="fill: #cc8963; stroke: #4c4c4c; stroke-width: 0.75; stroke-linejoin: miter"/>
   </g>
   <g id="text_16">
    <!-- 3d -->
    <g style="fill: #262626" transform="translate(374.662101 193.535)scale(0.11 -0.11)">
     <defs>
      <path id="DejaVuSans-33" d="M 2597 2516 
Q 3050 2419 3304 2112 
Q 3559 1806 3559 1356 
Q 3559 666 3084 287 
Q 2609 -91 1734 -91 
Q 1441 -91 1130 -33 
Q 819 25 488 141 
L 488 750 
Q 750 597 1062 519 
Q 1375 441 1716 441 
Q 2309 441 2620 675 
Q 2931 909 2931 1356 
Q 2931 1769 2642 2001 
Q 2353 2234 1838 2234 
L 1294 2234 
L 1294 2753 
L 1863 2753 
Q 2328 2753 2575 2939 
Q 2822 3125 2822 3475 
Q 2822 3834 2567 4026 
Q 2313 4219 1838 4219 
Q 1578 4219 1281 4162 
Q 984 4106 628 3988 
L 628 4550 
Q 988 4650 1302 4700 
Q 1616 4750 1894 4750 
Q 2613 4750 3031 4423 
Q 3450 4097 3450 3541 
Q 3450 3153 3228 2886 
Q 3006 2619 2597 2516 
z
" transform="scale(0.015625)"/>
     </defs>
     <use xlink:href="#DejaVuSans-33"/>
     <use xlink:href="#DejaVuSans-64" x="63.623047"/>
    </g>
   </g>
  </g>
 </g>
 <defs>
  <clipPath id="p1c76d55dcc">
   <rect x="59.024844" y="7.2" width="280.083289" height="297.58"/>
  </clipPath>
 </defs>
</svg>
