<?xml version="1.0" encoding="utf-8" standalone="no"?>
<!DOCTYPE svg PUBLIC "-//W3C//DTD SVG 1.1//EN"
  "http://www.w3.org/Graphics/SVG/1.1/DTD/svg11.dtd">
<svg xmlns:xlink="http://www.w3.org/1999/xlink" width="400.236458pt" height="352.15625pt" viewBox="0 0 400.236458 352.15625" xmlns="http://www.w3.org/2000/svg" version="1.1">
 <metadata>
  <rdf:RDF xmlns:dc="http://purl.org/dc/elements/1.1/" xmlns:cc="http://creativecommons.org/ns#" xmlns:rdf="http://www.w3.org/1999/02/22-rdf-syntax-ns#">
   <cc:Work>
    <dc:type rdf:resource="http://purl.org/dc/dcmitype/StillImage"/>
    <dc:date>2022-03-25T19:30:53.396230</dc:date>
    <dc:format>image/svg+xml</dc:format>
    <dc:creator>
     <cc:Agent>
      <dc:title>Matplotlib v3.5.1, https://matplotlib.org/</dc:title>
     </cc:Agent>
    </dc:creator>
   </cc:Work>
  </rdf:RDF>
 </metadata>
 <defs>
  <style type="text/css">*{stroke-linejoin: round; stroke-linecap: butt}</style>
 </defs>
 <g id="figure_1">
  <g id="patch_1">
   <path d="M 0 352.15625 
L 400.236458 352.15625 
L 400.236458 0 
L 0 0 
L 0 352.15625 
z
" style="fill: none"/>
  </g>
  <g id="axes_1">
   <g id="patch_2">
    <path d="M 46.965625 314.6 
L 345.198958 314.6 
L 345.198958 7.2 
L 46.965625 7.2 
z
" style="fill: #ffffff"/>
   </g>
   <g id="patch_3">
    <path d="M 96.671181 266.701803 
L 96.671181 266.701803 
L 96.671181 266.701803 
L 96.671181 266.701803 
z
" clip-path="url(#pe2e0fccbf7)" style="fill: #3274a1; stroke: #3f3f3f; stroke-width: 0.75; stroke-linejoin: miter"/>
   </g>
   <g id="PolyCollection_1">
    <defs>
     <path id="m1995ba4479" d="M 96.671181 -112.098171 
L 96.630256 -112.098171 
L 96.611739 -114.049402 
L 96.58807 -116.000632 
L 96.55929 -117.951862 
L 96.526085 -119.903092 
L 96.48983 -121.854323 
L 96.45248 -123.805553 
L 96.416249 -125.756783 
L 96.38309 -127.708013 
L 96.354019 -129.659243 
L 96.328394 -131.610474 
L 96.303258 -133.561704 
L 96.272865 -135.512934 
L 96.228482 -137.464164 
L 96.158479 -139.415394 
L 96.048734 -141.366625 
L 95.88328 -143.317855 
L 95.645219 -145.269085 
L 95.317871 -147.220315 
L 94.886222 -149.171545 
L 94.338674 -151.122776 
L 93.669047 -153.074006 
L 92.8786 -155.025236 
L 91.977626 -156.976466 
L 90.986021 -158.927696 
L 89.932137 -160.878927 
L 88.849484 -162.830157 
L 87.771271 -164.781387 
L 86.723445 -166.732617 
L 85.717535 -168.683848 
L 84.745024 -170.635078 
L 83.774954 -172.586308 
L 82.755915 -174.537538 
L 81.622713 -176.488768 
L 80.306909 -178.439999 
L 78.749578 -180.391229 
L 76.914072 -182.342459 
L 74.796517 -184.293689 
L 72.43206 -186.244919 
L 69.895497 -188.19615 
L 67.295646 -190.14738 
L 64.763736 -192.09861 
L 62.437053 -194.04984 
L 60.440071 -196.00107 
L 58.866167 -197.952301 
L 57.763459 -199.903531 
L 57.128033 -201.854761 
L 56.906736 -203.805991 
L 57.009731 -205.757222 
L 57.330621 -207.708452 
L 57.769698 -209.659682 
L 58.254602 -211.610912 
L 58.75289 -213.562142 
L 59.272995 -215.513373 
L 59.853304 -217.464603 
L 60.542716 -219.415833 
L 61.378744 -221.367063 
L 62.370103 -223.318293 
L 63.489245 -225.269524 
L 64.676998 -227.220754 
L 65.857477 -229.171984 
L 66.958134 -231.123214 
L 67.92841 -233.074444 
L 68.751348 -235.025675 
L 69.445244 -236.976905 
L 70.055885 -238.928135 
L 70.642864 -240.879365 
L 71.264821 -242.830595 
L 71.968025 -244.781826 
L 72.780739 -246.733056 
L 73.713316 -248.684286 
L 74.761889 -250.635516 
L 75.912626 -252.586747 
L 77.143994 -254.537977 
L 78.426002 -256.489207 
L 79.717233 -258.440437 
L 80.961903 -260.391667 
L 82.089641 -262.342898 
L 83.020085 -264.294128 
L 83.672962 -266.245358 
L 83.982513 -268.196588 
L 83.913555 -270.147818 
L 83.475428 -272.099049 
L 82.729969 -274.050279 
L 81.790498 -276.001509 
L 80.810528 -277.952739 
L 79.963225 -279.903969 
L 79.41502 -281.8552 
L 79.29857 -283.80643 
L 79.690859 -285.75766 
L 80.601304 -287.70889 
L 81.972449 -289.660121 
L 83.692749 -291.611351 
L 85.618066 -293.562581 
L 87.59665 -295.513811 
L 89.49206 -297.465041 
L 91.199693 -299.416272 
L 92.654763 -301.367502 
L 93.831911 -303.318732 
L 94.738505 -305.269962 
L 96.671181 -305.269962 
L 96.671181 -305.269962 
L 96.671181 -303.318732 
L 96.671181 -301.367502 
L 96.671181 -299.416272 
L 96.671181 -297.465041 
L 96.671181 -295.513811 
L 96.671181 -293.562581 
L 96.671181 -291.611351 
L 96.671181 -289.660121 
L 96.671181 -287.70889 
L 96.671181 -285.75766 
L 96.671181 -283.80643 
L 96.671181 -281.8552 
L 96.671181 -279.903969 
L 96.671181 -277.952739 
L 96.671181 -276.001509 
L 96.671181 -274.050279 
L 96.671181 -272.099049 
L 96.671181 -270.147818 
L 96.671181 -268.196588 
L 96.671181 -266.245358 
L 96.671181 -264.294128 
L 96.671181 -262.342898 
L 96.671181 -260.391667 
L 96.671181 -258.440437 
L 96.671181 -256.489207 
L 96.671181 -254.537977 
L 96.671181 -252.586747 
L 96.671181 -250.635516 
L 96.671181 -248.684286 
L 96.671181 -246.733056 
L 96.671181 -244.781826 
L 96.671181 -242.830595 
L 96.671181 -240.879365 
L 96.671181 -238.928135 
L 96.671181 -236.976905 
L 96.671181 -235.025675 
L 96.671181 -233.074444 
L 96.671181 -231.123214 
L 96.671181 -229.171984 
L 96.671181 -227.220754 
L 96.671181 -225.269524 
L 96.671181 -223.318293 
L 96.671181 -221.367063 
L 96.671181 -219.415833 
L 96.671181 -217.464603 
L 96.671181 -215.513373 
L 96.671181 -213.562142 
L 96.671181 -211.610912 
L 96.671181 -209.659682 
L 96.671181 -207.708452 
L 96.671181 -205.757222 
L 96.671181 -203.805991 
L 96.671181 -201.854761 
L 96.671181 -199.903531 
L 96.671181 -197.952301 
L 96.671181 -196.00107 
L 96.671181 -194.04984 
L 96.671181 -192.09861 
L 96.671181 -190.14738 
L 96.671181 -188.19615 
L 96.671181 -186.244919 
L 96.671181 -184.293689 
L 96.671181 -182.342459 
L 96.671181 -180.391229 
L 96.671181 -178.439999 
L 96.671181 -176.488768 
L 96.671181 -174.537538 
L 96.671181 -172.586308 
L 96.671181 -170.635078 
L 96.671181 -168.683848 
L 96.671181 -166.732617 
L 96.671181 -164.781387 
L 96.671181 -162.830157 
L 96.671181 -160.878927 
L 96.671181 -158.927696 
L 96.671181 -156.976466 
L 96.671181 -155.025236 
L 96.671181 -153.074006 
L 96.671181 -151.122776 
L 96.671181 -149.171545 
L 96.671181 -147.220315 
L 96.671181 -145.269085 
L 96.671181 -143.317855 
L 96.671181 -141.366625 
L 96.671181 -139.415394 
L 96.671181 -137.464164 
L 96.671181 -135.512934 
L 96.671181 -133.561704 
L 96.671181 -131.610474 
L 96.671181 -129.659243 
L 96.671181 -127.708013 
L 96.671181 -125.756783 
L 96.671181 -123.805553 
L 96.671181 -121.854323 
L 96.671181 -119.903092 
L 96.671181 -117.951862 
L 96.671181 -116.000632 
L 96.671181 -114.049402 
L 96.671181 -112.098171 
z
" style="stroke: #3f3f3f; stroke-width: 1.5"/>
    </defs>
    <g clip-path="url(#pe2e0fccbf7)">
     <use xlink:href="#m1995ba4479" x="0" y="352.15625" style="fill: #3274a1; stroke: #3f3f3f; stroke-width: 1.5"/>
    </g>
   </g>
   <g id="patch_4">
    <path d="M 96.671181 266.701803 
L 96.671181 266.701803 
L 96.671181 266.701803 
L 96.671181 266.701803 
z
" clip-path="url(#pe2e0fccbf7)" style="fill: #e1812c; stroke: #3f3f3f; stroke-width: 0.75; stroke-linejoin: miter"/>
   </g>
   <g id="PolyCollection_2">
    <defs>
     <path id="m6e69397b6a" d="M 97.598681 -53.401686 
L 96.671181 -53.401686 
L 96.671181 -56.130627 
L 96.671181 -58.859567 
L 96.671181 -61.588508 
L 96.671181 -64.317448 
L 96.671181 -67.046388 
L 96.671181 -69.775329 
L 96.671181 -72.504269 
L 96.671181 -75.233209 
L 96.671181 -77.96215 
L 96.671181 -80.69109 
L 96.671181 -83.420031 
L 96.671181 -86.148971 
L 96.671181 -88.877911 
L 96.671181 -91.606852 
L 96.671181 -94.335792 
L 96.671181 -97.064732 
L 96.671181 -99.793673 
L 96.671181 -102.522613 
L 96.671181 -105.251554 
L 96.671181 -107.980494 
L 96.671181 -110.709434 
L 96.671181 -113.438375 
L 96.671181 -116.167315 
L 96.671181 -118.896256 
L 96.671181 -121.625196 
L 96.671181 -124.354136 
L 96.671181 -127.083077 
L 96.671181 -129.812017 
L 96.671181 -132.540957 
L 96.671181 -135.269898 
L 96.671181 -137.998838 
L 96.671181 -140.727779 
L 96.671181 -143.456719 
L 96.671181 -146.185659 
L 96.671181 -148.9146 
L 96.671181 -151.64354 
L 96.671181 -154.37248 
L 96.671181 -157.101421 
L 96.671181 -159.830361 
L 96.671181 -162.559302 
L 96.671181 -165.288242 
L 96.671181 -168.017182 
L 96.671181 -170.746123 
L 96.671181 -173.475063 
L 96.671181 -176.204003 
L 96.671181 -178.932944 
L 96.671181 -181.661884 
L 96.671181 -184.390825 
L 96.671181 -187.119765 
L 96.671181 -189.848705 
L 96.671181 -192.577646 
L 96.671181 -195.306586 
L 96.671181 -198.035526 
L 96.671181 -200.764467 
L 96.671181 -203.493407 
L 96.671181 -206.222348 
L 96.671181 -208.951288 
L 96.671181 -211.680228 
L 96.671181 -214.409169 
L 96.671181 -217.138109 
L 96.671181 -219.867049 
L 96.671181 -222.59599 
L 96.671181 -225.32493 
L 96.671181 -228.053871 
L 96.671181 -230.782811 
L 96.671181 -233.511751 
L 96.671181 -236.240692 
L 96.671181 -238.969632 
L 96.671181 -241.698572 
L 96.671181 -244.427513 
L 96.671181 -247.156453 
L 96.671181 -249.885394 
L 96.671181 -252.614334 
L 96.671181 -255.343274 
L 96.671181 -258.072215 
L 96.671181 -260.801155 
L 96.671181 -263.530095 
L 96.671181 -266.259036 
L 96.671181 -268.987976 
L 96.671181 -271.716917 
L 96.671181 -274.445857 
L 96.671181 -277.174797 
L 96.671181 -279.903738 
L 96.671181 -282.632678 
L 96.671181 -285.361618 
L 96.671181 -288.090559 
L 96.671181 -290.819499 
L 96.671181 -293.54844 
L 96.671181 -296.27738 
L 96.671181 -299.00632 
L 96.671181 -301.735261 
L 96.671181 -304.464201 
L 96.671181 -307.193141 
L 96.671181 -309.922082 
L 96.671181 -312.651022 
L 96.671181 -315.379963 
L 96.671181 -318.108903 
L 96.671181 -320.837843 
L 96.671181 -323.566784 
L 97.533224 -323.566784 
L 97.533224 -323.566784 
L 97.821507 -320.837843 
L 98.176542 -318.108903 
L 98.603384 -315.379963 
L 99.104137 -312.651022 
L 99.677107 -309.922082 
L 100.316164 -307.193141 
L 101.010475 -304.464201 
L 101.744691 -301.735261 
L 102.499655 -299.00632 
L 103.253613 -296.27738 
L 103.983839 -293.54844 
L 104.668489 -290.819499 
L 105.288487 -288.090559 
L 105.82919 -285.361618 
L 106.28161 -282.632678 
L 106.643034 -279.903738 
L 106.916977 -277.174797 
L 107.112477 -274.445857 
L 107.242856 -271.716917 
L 107.324144 -268.987976 
L 107.373371 -266.259036 
L 107.406956 -263.530095 
L 107.439351 -260.801155 
L 107.482074 -258.072215 
L 107.543137 -255.343274 
L 107.626868 -252.614334 
L 107.734042 -249.885394 
L 107.862236 -247.156453 
L 108.006318 -244.427513 
L 108.159012 -241.698572 
L 108.311491 -238.969632 
L 108.45401 -236.240692 
L 108.576557 -233.511751 
L 108.669554 -230.782811 
L 108.724595 -228.053871 
L 108.735193 -225.32493 
L 108.697496 -222.59599 
L 108.610904 -219.867049 
L 108.478506 -217.138109 
L 108.30728 -214.409169 
L 108.107989 -211.680228 
L 107.894751 -208.951288 
L 107.684291 -206.222348 
L 107.494919 -203.493407 
L 107.345304 -200.764467 
L 107.25314 -198.035526 
L 107.233829 -195.306586 
L 107.299266 -192.577646 
L 107.456854 -189.848705 
L 107.708801 -187.119765 
L 108.051775 -184.390825 
L 108.476923 -181.661884 
L 108.970259 -178.932944 
L 109.513394 -176.204003 
L 110.084568 -173.475063 
L 110.659942 -170.746123 
L 111.215095 -168.017182 
L 111.726674 -165.288242 
L 112.174133 -162.559302 
L 112.541481 -159.830361 
L 112.818939 -157.101421 
L 113.004369 -154.37248 
L 113.104299 -151.64354 
L 113.13437 -148.9146 
L 113.119009 -146.185659 
L 113.090185 -143.456719 
L 113.085156 -140.727779 
L 113.14325 -137.998838 
L 113.301851 -135.269898 
L 113.591905 -132.540957 
L 114.03343 -129.812017 
L 114.63157 -127.083077 
L 115.373783 -124.354136 
L 116.228697 -121.625196 
L 117.146982 -118.896256 
L 118.064371 -116.167315 
L 118.90667 -113.438375 
L 119.596285 -110.709434 
L 120.059568 -107.980494 
L 120.234092 -105.251554 
L 120.074969 -102.522613 
L 119.559394 -99.793673 
L 118.688873 -97.064732 
L 117.488871 -94.335792 
L 116.006 -91.606852 
L 114.3032 -88.877911 
L 112.453576 -86.148971 
L 110.533731 -83.420031 
L 108.617394 -80.69109 
L 106.770043 -77.96215 
L 105.044996 -75.233209 
L 103.481201 -72.504269 
L 102.102707 -69.775329 
L 100.919574 -67.046388 
L 99.929871 -64.317448 
L 99.122315 -61.588508 
L 98.479145 -58.859567 
L 97.978875 -56.130627 
L 97.598681 -53.401686 
z
" style="stroke: #3f3f3f; stroke-width: 1.5"/>
    </defs>
    <g clip-path="url(#pe2e0fccbf7)">
     <use xlink:href="#m6e69397b6a" x="0" y="352.15625" style="fill: #e1812c; stroke: #3f3f3f; stroke-width: 1.5"/>
    </g>
   </g>
   <g id="PolyCollection_3">
    <defs>
     <path id="me51c40738c" d="M 196.082292 -74.125264 
L 195.674107 -74.125264 
L 195.497182 -76.636605 
L 195.256029 -79.147946 
L 194.932785 -81.659287 
L 194.506756 -84.170628 
L 193.954748 -86.681969 
L 193.251738 -89.193311 
L 192.371938 -91.704652 
L 191.29027 -94.215993 
L 189.984254 -96.727334 
L 188.436221 -99.238675 
L 186.635734 -101.750016 
L 184.582042 -104.261357 
L 182.286306 -106.772699 
L 179.773354 -109.28404 
L 177.082689 -111.795381 
L 174.268504 -114.306722 
L 171.398557 -116.818063 
L 168.551819 -119.329404 
L 165.814975 -121.840745 
L 163.277947 -124.352087 
L 161.028794 -126.863428 
L 159.148358 -129.374769 
L 157.705174 -131.88611 
L 156.751063 -134.397451 
L 156.317847 -136.908792 
L 156.415471 -139.420133 
L 157.031685 -141.931475 
L 158.133275 -144.442816 
L 159.668688 -146.954157 
L 161.571738 -149.465498 
L 163.766024 -151.976839 
L 166.169628 -154.48818 
L 168.699685 -156.999521 
L 171.276473 -159.510863 
L 173.82675 -162.022204 
L 176.2862 -164.533545 
L 178.60092 -167.044886 
L 180.728017 -169.556227 
L 182.635424 -172.067568 
L 184.301147 -174.578909 
L 185.71212 -177.090251 
L 186.862893 -179.601592 
L 187.754333 -182.112933 
L 188.392477 -184.624274 
L 188.78764 -187.135615 
L 188.953809 -189.646956 
L 188.908296 -192.158297 
L 188.671601 -194.669639 
L 188.267356 -197.18098 
L 187.722236 -199.692321 
L 187.065706 -202.203662 
L 186.329494 -204.715003 
L 185.546739 -207.226344 
L 184.750796 -209.737685 
L 183.973764 -212.249027 
L 183.244843 -214.760368 
L 182.58869 -217.271709 
L 182.023945 -219.78305 
L 181.562105 -222.294391 
L 181.206877 -224.805732 
L 180.954097 -227.317073 
L 180.79223 -229.828415 
L 180.703388 -232.339756 
L 180.664775 -234.851097 
L 180.650408 -237.362438 
L 180.632967 -239.873779 
L 180.585652 -242.38512 
L 180.483942 -244.896461 
L 180.307196 -247.407803 
L 180.04007 -249.919144 
L 179.673728 -252.430485 
L 179.206839 -254.941826 
L 178.646319 -257.453167 
L 178.007729 -259.964508 
L 177.315266 -262.475849 
L 176.601184 -264.987191 
L 175.904592 -267.498532 
L 175.26954 -270.009873 
L 174.742448 -272.521214 
L 174.368988 -275.032555 
L 174.190659 -277.543896 
L 174.241371 -280.055237 
L 174.544407 -282.566579 
L 175.110112 -285.07792 
L 175.934627 -287.589261 
L 176.999838 -290.100602 
L 178.274589 -292.611943 
L 179.717039 -295.123284 
L 181.277899 -297.634625 
L 182.904185 -300.145967 
L 184.543075 -302.657308 
L 186.145468 -305.168649 
L 187.668892 -307.67999 
L 189.079562 -310.191331 
L 190.353453 -312.702672 
L 191.476428 -315.214013 
L 192.443551 -317.725355 
L 193.257774 -320.236696 
L 193.928248 -322.748037 
L 196.082292 -322.748037 
L 196.082292 -322.748037 
L 196.082292 -320.236696 
L 196.082292 -317.725355 
L 196.082292 -315.214013 
L 196.082292 -312.702672 
L 196.082292 -310.191331 
L 196.082292 -307.67999 
L 196.082292 -305.168649 
L 196.082292 -302.657308 
L 196.082292 -300.145967 
L 196.082292 -297.634625 
L 196.082292 -295.123284 
L 196.082292 -292.611943 
L 196.082292 -290.100602 
L 196.082292 -287.589261 
L 196.082292 -285.07792 
L 196.082292 -282.566579 
L 196.082292 -280.055237 
L 196.082292 -277.543896 
L 196.082292 -275.032555 
L 196.082292 -272.521214 
L 196.082292 -270.009873 
L 196.082292 -267.498532 
L 196.082292 -264.987191 
L 196.082292 -262.475849 
L 196.082292 -259.964508 
L 196.082292 -257.453167 
L 196.082292 -254.941826 
L 196.082292 -252.430485 
L 196.082292 -249.919144 
L 196.082292 -247.407803 
L 196.082292 -244.896461 
L 196.082292 -242.38512 
L 196.082292 -239.873779 
L 196.082292 -237.362438 
L 196.082292 -234.851097 
L 196.082292 -232.339756 
L 196.082292 -229.828415 
L 196.082292 -227.317073 
L 196.082292 -224.805732 
L 196.082292 -222.294391 
L 196.082292 -219.78305 
L 196.082292 -217.271709 
L 196.082292 -214.760368 
L 196.082292 -212.249027 
L 196.082292 -209.737685 
L 196.082292 -207.226344 
L 196.082292 -204.715003 
L 196.082292 -202.203662 
L 196.082292 -199.692321 
L 196.082292 -197.18098 
L 196.082292 -194.669639 
L 196.082292 -192.158297 
L 196.082292 -189.646956 
L 196.082292 -187.135615 
L 196.082292 -184.624274 
L 196.082292 -182.112933 
L 196.082292 -179.601592 
L 196.082292 -177.090251 
L 196.082292 -174.578909 
L 196.082292 -172.067568 
L 196.082292 -169.556227 
L 196.082292 -167.044886 
L 196.082292 -164.533545 
L 196.082292 -162.022204 
L 196.082292 -159.510863 
L 196.082292 -156.999521 
L 196.082292 -154.48818 
L 196.082292 -151.976839 
L 196.082292 -149.465498 
L 196.082292 -146.954157 
L 196.082292 -144.442816 
L 196.082292 -141.931475 
L 196.082292 -139.420133 
L 196.082292 -136.908792 
L 196.082292 -134.397451 
L 196.082292 -131.88611 
L 196.082292 -129.374769 
L 196.082292 -126.863428 
L 196.082292 -124.352087 
L 196.082292 -121.840745 
L 196.082292 -119.329404 
L 196.082292 -116.818063 
L 196.082292 -114.306722 
L 196.082292 -111.795381 
L 196.082292 -109.28404 
L 196.082292 -106.772699 
L 196.082292 -104.261357 
L 196.082292 -101.750016 
L 196.082292 -99.238675 
L 196.082292 -96.727334 
L 196.082292 -94.215993 
L 196.082292 -91.704652 
L 196.082292 -89.193311 
L 196.082292 -86.681969 
L 196.082292 -84.170628 
L 196.082292 -81.659287 
L 196.082292 -79.147946 
L 196.082292 -76.636605 
L 196.082292 -74.125264 
z
" style="stroke: #3f3f3f; stroke-width: 1.5"/>
    </defs>
    <g clip-path="url(#pe2e0fccbf7)">
     <use xlink:href="#me51c40738c" x="0" y="352.15625" style="fill: #3274a1; stroke: #3f3f3f; stroke-width: 1.5"/>
    </g>
   </g>
   <g id="PolyCollection_4">
    <defs>
     <path id="mb3db32f983" d="M 198.215155 -61.989458 
L 196.082292 -61.989458 
L 196.082292 -64.599788 
L 196.082292 -67.210118 
L 196.082292 -69.820449 
L 196.082292 -72.430779 
L 196.082292 -75.041109 
L 196.082292 -77.651439 
L 196.082292 -80.261769 
L 196.082292 -82.872099 
L 196.082292 -85.482429 
L 196.082292 -88.092759 
L 196.082292 -90.703089 
L 196.082292 -93.31342 
L 196.082292 -95.92375 
L 196.082292 -98.53408 
L 196.082292 -101.14441 
L 196.082292 -103.75474 
L 196.082292 -106.36507 
L 196.082292 -108.9754 
L 196.082292 -111.58573 
L 196.082292 -114.19606 
L 196.082292 -116.80639 
L 196.082292 -119.416721 
L 196.082292 -122.027051 
L 196.082292 -124.637381 
L 196.082292 -127.247711 
L 196.082292 -129.858041 
L 196.082292 -132.468371 
L 196.082292 -135.078701 
L 196.082292 -137.689031 
L 196.082292 -140.299361 
L 196.082292 -142.909692 
L 196.082292 -145.520022 
L 196.082292 -148.130352 
L 196.082292 -150.740682 
L 196.082292 -153.351012 
L 196.082292 -155.961342 
L 196.082292 -158.571672 
L 196.082292 -161.182002 
L 196.082292 -163.792332 
L 196.082292 -166.402663 
L 196.082292 -169.012993 
L 196.082292 -171.623323 
L 196.082292 -174.233653 
L 196.082292 -176.843983 
L 196.082292 -179.454313 
L 196.082292 -182.064643 
L 196.082292 -184.674973 
L 196.082292 -187.285303 
L 196.082292 -189.895634 
L 196.082292 -192.505964 
L 196.082292 -195.116294 
L 196.082292 -197.726624 
L 196.082292 -200.336954 
L 196.082292 -202.947284 
L 196.082292 -205.557614 
L 196.082292 -208.167944 
L 196.082292 -210.778274 
L 196.082292 -213.388605 
L 196.082292 -215.998935 
L 196.082292 -218.609265 
L 196.082292 -221.219595 
L 196.082292 -223.829925 
L 196.082292 -226.440255 
L 196.082292 -229.050585 
L 196.082292 -231.660915 
L 196.082292 -234.271245 
L 196.082292 -236.881576 
L 196.082292 -239.491906 
L 196.082292 -242.102236 
L 196.082292 -244.712566 
L 196.082292 -247.322896 
L 196.082292 -249.933226 
L 196.082292 -252.543556 
L 196.082292 -255.153886 
L 196.082292 -257.764216 
L 196.082292 -260.374547 
L 196.082292 -262.984877 
L 196.082292 -265.595207 
L 196.082292 -268.205537 
L 196.082292 -270.815867 
L 196.082292 -273.426197 
L 196.082292 -276.036527 
L 196.082292 -278.646857 
L 196.082292 -281.257187 
L 196.082292 -283.867517 
L 196.082292 -286.477848 
L 196.082292 -289.088178 
L 196.082292 -291.698508 
L 196.082292 -294.308838 
L 196.082292 -296.919168 
L 196.082292 -299.529498 
L 196.082292 -302.139828 
L 196.082292 -304.750158 
L 196.082292 -307.360488 
L 196.082292 -309.970819 
L 196.082292 -312.581149 
L 196.082292 -315.191479 
L 196.082292 -317.801809 
L 196.082292 -320.412139 
L 196.695973 -320.412139 
L 196.695973 -320.412139 
L 196.917082 -317.801809 
L 197.195322 -315.191479 
L 197.537319 -312.581149 
L 197.947943 -309.970819 
L 198.429578 -307.360488 
L 198.981515 -304.750158 
L 199.599546 -302.139828 
L 200.275846 -299.529498 
L 200.999168 -296.919168 
L 201.755354 -294.308838 
L 202.528097 -291.698508 
L 203.299861 -289.088178 
L 204.052863 -286.477848 
L 204.769992 -283.867517 
L 205.435611 -281.257187 
L 206.036192 -278.646857 
L 206.56081 -276.036527 
L 207.001533 -273.426197 
L 207.353766 -270.815867 
L 207.616595 -268.205537 
L 207.79312 -265.595207 
L 207.890749 -262.984877 
L 207.921344 -260.374547 
L 207.901106 -257.764216 
L 207.85008 -255.153886 
L 207.791205 -252.543556 
L 207.748875 -249.933226 
L 207.747094 -247.322896 
L 207.807356 -244.712566 
L 207.946472 -242.102236 
L 208.174579 -239.491906 
L 208.493597 -236.881576 
L 208.896339 -234.271245 
L 209.366424 -231.660915 
L 209.879076 -229.050585 
L 210.402757 -226.440255 
L 210.901544 -223.829925 
L 211.338044 -221.219595 
L 211.676603 -218.609265 
L 211.886534 -215.998935 
L 211.945082 -213.388605 
L 211.839858 -210.778274 
L 211.570533 -208.167944 
L 211.149634 -205.557614 
L 210.602364 -202.947284 
L 209.965441 -200.336954 
L 209.285054 -197.726624 
L 208.614071 -195.116294 
L 208.008715 -192.505964 
L 207.524937 -189.895634 
L 207.214755 -187.285303 
L 207.122797 -184.674973 
L 207.283292 -182.064643 
L 207.71769 -179.454313 
L 208.433068 -176.843983 
L 209.421421 -174.233653 
L 210.659863 -171.623323 
L 212.111731 -169.012993 
L 213.728515 -166.402663 
L 215.45251 -163.792332 
L 217.22005 -161.182002 
L 218.965183 -158.571672 
L 220.623628 -155.961342 
L 222.136844 -153.351012 
L 223.455999 -150.740682 
L 224.545605 -148.130352 
L 225.386473 -145.520022 
L 225.977639 -142.909692 
L 226.336858 -140.299361 
L 226.499313 -137.689031 
L 226.514353 -135.078701 
L 226.440267 -132.468371 
L 226.337448 -129.858041 
L 226.260605 -127.247711 
L 226.250974 -124.637381 
L 226.329645 -122.027051 
L 226.493101 -119.416721 
L 226.711842 -116.80639 
L 226.932573 -114.19606 
L 227.083875 -111.58573 
L 227.084729 -108.9754 
L 226.854751 -106.36507 
L 226.324698 -103.75474 
L 225.445709 -101.14441 
L 224.195977 -98.53408 
L 222.583915 -95.92375 
L 220.64749 -93.31342 
L 218.449983 -90.703089 
L 216.072961 -88.092759 
L 213.607608 -85.482429 
L 211.145705 -82.872099 
L 208.771466 -80.261769 
L 206.555157 -77.651439 
L 204.549061 -75.041109 
L 202.785912 -72.430779 
L 201.279577 -69.820449 
L 200.02748 -67.210118 
L 199.014138 -64.599788 
L 198.215155 -61.989458 
z
" style="stroke: #3f3f3f; stroke-width: 1.5"/>
    </defs>
    <g clip-path="url(#pe2e0fccbf7)">
     <use xlink:href="#mb3db32f983" x="0" y="352.15625" style="fill: #e1812c; stroke: #3f3f3f; stroke-width: 1.5"/>
    </g>
   </g>
   <g id="PolyCollection_5">
    <defs>
     <path id="mdb7486b795" d="M 295.493403 -57.661042 
L 292.892931 -57.661042 
L 292.041362 -60.39297 
L 290.982352 -63.124899 
L 289.690182 -65.856828 
L 288.143833 -68.588756 
L 286.329746 -71.320685 
L 284.244693 -74.052614 
L 281.898465 -76.784542 
L 279.316083 -79.516471 
L 276.539197 -82.2484 
L 273.626368 -84.980328 
L 270.652011 -87.712257 
L 267.703886 -90.444186 
L 264.879158 -93.176114 
L 262.279246 -95.908043 
L 260.003795 -98.639972 
L 258.144276 -101.371901 
L 256.777776 -104.103829 
L 255.961564 -106.835758 
L 255.728958 -109.567687 
L 256.086911 -112.299615 
L 257.015531 -115.031544 
L 258.469574 -117.763473 
L 260.381733 -120.495401 
L 262.667348 -123.22733 
L 265.230069 -125.959259 
L 267.967906 -128.691187 
L 270.779118 -131.423116 
L 273.567466 -134.155045 
L 276.246461 -136.886973 
L 278.742394 -139.618902 
L 280.996091 -142.350831 
L 282.963461 -145.082759 
L 284.615029 -147.814688 
L 285.93471 -150.546617 
L 286.918087 -153.278546 
L 287.570471 -156.010474 
L 287.904941 -158.742403 
L 287.94055 -161.474332 
L 287.70075 -164.20626 
L 287.212104 -166.938189 
L 286.503257 -169.670118 
L 285.604128 -172.402046 
L 284.545277 -175.133975 
L 283.357413 -177.865904 
L 282.070987 -180.597832 
L 280.715878 -183.329761 
L 279.321139 -186.06169 
L 277.914808 -188.793618 
L 276.523771 -191.525547 
L 275.173655 -194.257476 
L 273.888728 -196.989404 
L 272.691774 -199.721333 
L 271.603901 -202.453262 
L 270.644275 -205.185191 
L 269.829748 -207.917119 
L 269.174414 -210.649048 
L 268.689104 -213.380977 
L 268.380886 -216.112905 
L 268.252616 -218.844834 
L 268.302604 -221.576763 
L 268.524439 -224.308691 
L 268.907024 -227.04062 
L 269.434815 -229.772549 
L 270.088282 -232.504477 
L 270.844581 -235.236406 
L 271.678399 -237.968335 
L 272.56296 -240.700263 
L 273.471162 -243.432192 
L 274.376795 -246.164121 
L 275.255814 -248.896049 
L 276.087594 -251.627978 
L 276.856099 -254.359907 
L 277.550869 -257.091836 
L 278.167729 -259.823764 
L 278.709107 -262.555693 
L 279.183896 -265.287622 
L 279.606803 -268.01955 
L 279.997188 -270.751479 
L 280.377461 -273.483408 
L 280.771159 -276.215336 
L 281.200875 -278.947265 
L 281.686235 -281.679194 
L 282.242149 -284.411122 
L 282.877501 -287.143051 
L 283.594414 -289.87498 
L 284.388169 -292.606908 
L 285.247759 -295.338837 
L 286.156985 -298.070766 
L 287.095967 -300.802694 
L 288.042881 -303.534623 
L 288.975721 -306.266552 
L 289.87392 -308.998481 
L 290.719678 -311.730409 
L 291.498897 -314.462338 
L 292.2017 -317.194267 
L 292.822521 -319.926195 
L 293.359851 -322.658124 
L 293.815698 -325.390053 
L 294.194879 -328.121981 
L 295.493403 -328.121981 
L 295.493403 -328.121981 
L 295.493403 -325.390053 
L 295.493403 -322.658124 
L 295.493403 -319.926195 
L 295.493403 -317.194267 
L 295.493403 -314.462338 
L 295.493403 -311.730409 
L 295.493403 -308.998481 
L 295.493403 -306.266552 
L 295.493403 -303.534623 
L 295.493403 -300.802694 
L 295.493403 -298.070766 
L 295.493403 -295.338837 
L 295.493403 -292.606908 
L 295.493403 -289.87498 
L 295.493403 -287.143051 
L 295.493403 -284.411122 
L 295.493403 -281.679194 
L 295.493403 -278.947265 
L 295.493403 -276.215336 
L 295.493403 -273.483408 
L 295.493403 -270.751479 
L 295.493403 -268.01955 
L 295.493403 -265.287622 
L 295.493403 -262.555693 
L 295.493403 -259.823764 
L 295.493403 -257.091836 
L 295.493403 -254.359907 
L 295.493403 -251.627978 
L 295.493403 -248.896049 
L 295.493403 -246.164121 
L 295.493403 -243.432192 
L 295.493403 -240.700263 
L 295.493403 -237.968335 
L 295.493403 -235.236406 
L 295.493403 -232.504477 
L 295.493403 -229.772549 
L 295.493403 -227.04062 
L 295.493403 -224.308691 
L 295.493403 -221.576763 
L 295.493403 -218.844834 
L 295.493403 -216.112905 
L 295.493403 -213.380977 
L 295.493403 -210.649048 
L 295.493403 -207.917119 
L 295.493403 -205.185191 
L 295.493403 -202.453262 
L 295.493403 -199.721333 
L 295.493403 -196.989404 
L 295.493403 -194.257476 
L 295.493403 -191.525547 
L 295.493403 -188.793618 
L 295.493403 -186.06169 
L 295.493403 -183.329761 
L 295.493403 -180.597832 
L 295.493403 -177.865904 
L 295.493403 -175.133975 
L 295.493403 -172.402046 
L 295.493403 -169.670118 
L 295.493403 -166.938189 
L 295.493403 -164.20626 
L 295.493403 -161.474332 
L 295.493403 -158.742403 
L 295.493403 -156.010474 
L 295.493403 -153.278546 
L 295.493403 -150.546617 
L 295.493403 -147.814688 
L 295.493403 -145.082759 
L 295.493403 -142.350831 
L 295.493403 -139.618902 
L 295.493403 -136.886973 
L 295.493403 -134.155045 
L 295.493403 -131.423116 
L 295.493403 -128.691187 
L 295.493403 -125.959259 
L 295.493403 -123.22733 
L 295.493403 -120.495401 
L 295.493403 -117.763473 
L 295.493403 -115.031544 
L 295.493403 -112.299615 
L 295.493403 -109.567687 
L 295.493403 -106.835758 
L 295.493403 -104.103829 
L 295.493403 -101.371901 
L 295.493403 -98.639972 
L 295.493403 -95.908043 
L 295.493403 -93.176114 
L 295.493403 -90.444186 
L 295.493403 -87.712257 
L 295.493403 -84.980328 
L 295.493403 -82.2484 
L 295.493403 -79.516471 
L 295.493403 -76.784542 
L 295.493403 -74.052614 
L 295.493403 -71.320685 
L 295.493403 -68.588756 
L 295.493403 -65.856828 
L 295.493403 -63.124899 
L 295.493403 -60.39297 
L 295.493403 -57.661042 
z
" style="stroke: #3f3f3f; stroke-width: 1.5"/>
    </defs>
    <g clip-path="url(#pe2e0fccbf7)">
     <use xlink:href="#mdb7486b795" x="0" y="352.15625" style="fill: #3274a1; stroke: #3f3f3f; stroke-width: 1.5"/>
    </g>
   </g>
   <g id="PolyCollection_6">
    <defs>
     <path id="m98b56baeaa" d="M 298.532402 -51.528977 
L 295.493403 -51.528977 
L 295.493403 -54.35175 
L 295.493403 -57.174524 
L 295.493403 -59.997297 
L 295.493403 -62.82007 
L 295.493403 -65.642843 
L 295.493403 -68.465616 
L 295.493403 -71.28839 
L 295.493403 -74.111163 
L 295.493403 -76.933936 
L 295.493403 -79.756709 
L 295.493403 -82.579482 
L 295.493403 -85.402256 
L 295.493403 -88.225029 
L 295.493403 -91.047802 
L 295.493403 -93.870575 
L 295.493403 -96.693348 
L 295.493403 -99.516121 
L 295.493403 -102.338895 
L 295.493403 -105.161668 
L 295.493403 -107.984441 
L 295.493403 -110.807214 
L 295.493403 -113.629987 
L 295.493403 -116.452761 
L 295.493403 -119.275534 
L 295.493403 -122.098307 
L 295.493403 -124.92108 
L 295.493403 -127.743853 
L 295.493403 -130.566626 
L 295.493403 -133.3894 
L 295.493403 -136.212173 
L 295.493403 -139.034946 
L 295.493403 -141.857719 
L 295.493403 -144.680492 
L 295.493403 -147.503266 
L 295.493403 -150.326039 
L 295.493403 -153.148812 
L 295.493403 -155.971585 
L 295.493403 -158.794358 
L 295.493403 -161.617132 
L 295.493403 -164.439905 
L 295.493403 -167.262678 
L 295.493403 -170.085451 
L 295.493403 -172.908224 
L 295.493403 -175.730997 
L 295.493403 -178.553771 
L 295.493403 -181.376544 
L 295.493403 -184.199317 
L 295.493403 -187.02209 
L 295.493403 -189.844863 
L 295.493403 -192.667637 
L 295.493403 -195.49041 
L 295.493403 -198.313183 
L 295.493403 -201.135956 
L 295.493403 -203.958729 
L 295.493403 -206.781503 
L 295.493403 -209.604276 
L 295.493403 -212.427049 
L 295.493403 -215.249822 
L 295.493403 -218.072595 
L 295.493403 -220.895368 
L 295.493403 -223.718142 
L 295.493403 -226.540915 
L 295.493403 -229.363688 
L 295.493403 -232.186461 
L 295.493403 -235.009234 
L 295.493403 -237.832008 
L 295.493403 -240.654781 
L 295.493403 -243.477554 
L 295.493403 -246.300327 
L 295.493403 -249.1231 
L 295.493403 -251.945874 
L 295.493403 -254.768647 
L 295.493403 -257.59142 
L 295.493403 -260.414193 
L 295.493403 -263.236966 
L 295.493403 -266.059739 
L 295.493403 -268.882513 
L 295.493403 -271.705286 
L 295.493403 -274.528059 
L 295.493403 -277.350832 
L 295.493403 -280.173605 
L 295.493403 -282.996379 
L 295.493403 -285.819152 
L 295.493403 -288.641925 
L 295.493403 -291.464698 
L 295.493403 -294.287471 
L 295.493403 -297.110244 
L 295.493403 -299.933018 
L 295.493403 -302.755791 
L 295.493403 -305.578564 
L 295.493403 -308.401337 
L 295.493403 -311.22411 
L 295.493403 -314.046884 
L 295.493403 -316.869657 
L 295.493403 -319.69243 
L 295.493403 -322.515203 
L 295.493403 -325.337976 
L 295.493403 -328.16075 
L 295.493403 -330.983523 
L 296.737303 -330.983523 
L 296.737303 -330.983523 
L 297.09807 -328.16075 
L 297.534636 -325.337976 
L 298.054291 -322.515203 
L 298.662763 -319.69243 
L 299.363652 -316.869657 
L 300.157941 -314.046884 
L 301.043612 -311.22411 
L 302.015442 -308.401337 
L 303.064983 -305.578564 
L 304.180772 -302.755791 
L 305.348738 -299.933018 
L 306.552782 -297.110244 
L 307.775481 -294.287471 
L 308.998849 -291.464698 
L 310.205083 -288.641925 
L 311.377249 -285.819152 
L 312.499844 -282.996379 
L 313.559232 -280.173605 
L 314.543952 -277.350832 
L 315.444912 -274.528059 
L 316.255523 -271.705286 
L 316.971787 -268.882513 
L 317.59238 -266.059739 
L 318.118723 -263.236966 
L 318.555036 -260.414193 
L 318.908309 -257.59142 
L 319.188153 -254.768647 
L 319.406461 -251.945874 
L 319.57683 -249.1231 
L 319.713725 -246.300327 
L 319.831405 -243.477554 
L 319.942682 -240.654781 
L 320.057596 -237.832008 
L 320.182172 -235.009234 
L 320.31739 -232.186461 
L 320.458522 -229.363688 
L 320.594941 -226.540915 
L 320.710494 -223.718142 
L 320.784418 -220.895368 
L 320.792776 -218.072595 
L 320.710274 -215.249822 
L 320.512313 -212.427049 
L 320.177081 -209.604276 
L 319.687492 -206.781503 
L 319.032789 -203.958729 
L 318.209678 -201.135956 
L 317.222896 -198.313183 
L 316.085185 -195.49041 
L 314.816714 -192.667637 
L 313.444019 -189.844863 
L 311.998602 -187.02209 
L 310.515331 -184.199317 
L 309.030817 -181.376544 
L 307.58189 -178.553771 
L 306.204327 -175.730997 
L 304.931886 -172.908224 
L 303.795699 -170.085451 
L 302.824003 -167.262678 
L 302.042142 -164.439905 
L 301.472757 -161.617132 
L 301.136022 -158.794358 
L 301.049798 -155.971585 
L 301.229566 -153.148812 
L 301.688047 -150.326039 
L 302.434426 -147.503266 
L 303.473192 -144.680492 
L 304.802632 -141.857719 
L 306.413124 -139.034946 
L 308.285413 -136.212173 
L 310.3891 -133.3894 
L 312.681626 -130.566626 
L 315.107979 -127.743853 
L 317.601364 -124.92108 
L 320.084946 -122.098307 
L 322.474696 -119.275534 
L 324.683251 -116.452761 
L 326.624531 -113.629987 
L 328.218794 -110.807214 
L 329.397673 -107.984441 
L 330.108744 -105.161668 
L 330.319168 -102.338895 
L 330.018039 -99.516121 
L 329.217174 -96.693348 
L 327.950264 -93.870575 
L 326.270448 -91.047802 
L 324.246557 -88.225029 
L 321.958378 -85.402256 
L 319.491409 -82.579482 
L 316.931563 -79.756709 
L 314.360292 -76.933936 
L 311.850486 -74.111163 
L 309.463424 -71.28839 
L 307.246907 -68.465616 
L 305.23456 -65.642843 
L 303.446217 -62.82007 
L 301.889174 -59.997297 
L 300.560061 -57.174524 
L 299.44709 -54.35175 
L 298.532402 -51.528977 
z
" style="stroke: #3f3f3f; stroke-width: 1.5"/>
    </defs>
    <g clip-path="url(#pe2e0fccbf7)">
     <use xlink:href="#m98b56baeaa" x="0" y="352.15625" style="fill: #e1812c; stroke: #3f3f3f; stroke-width: 1.5"/>
    </g>
   </g>
   <g id="matplotlib.axis_1">
    <g id="xtick_1">
     <g id="line2d_1">
      <defs>
       <path id="m60a5cc117a" d="M 0 0 
L 0 3.5 
" style="stroke: #000000; stroke-width: 0.8"/>
      </defs>
      <g>
       <use xlink:href="#m60a5cc117a" x="96.671181" y="314.6" style="stroke: #000000; stroke-width: 0.8"/>
      </g>
     </g>
     <g id="text_1">
      <!-- teb -->
      <g transform="translate(88.460243 329.198437)scale(0.1 -0.1)">
       <defs>
        <path id="DejaVuSans-74" d="M 1172 4494 
L 1172 3500 
L 2356 3500 
L 2356 3053 
L 1172 3053 
L 1172 1153 
Q 1172 725 1289 603 
Q 1406 481 1766 481 
L 2356 481 
L 2356 0 
L 1766 0 
Q 1100 0 847 248 
Q 594 497 594 1153 
L 594 3053 
L 172 3053 
L 172 3500 
L 594 3500 
L 594 4494 
L 1172 4494 
z
" transform="scale(0.015625)"/>
        <path id="DejaVuSans-65" d="M 3597 1894 
L 3597 1613 
L 953 1613 
Q 991 1019 1311 708 
Q 1631 397 2203 397 
Q 2534 397 2845 478 
Q 3156 559 3463 722 
L 3463 178 
Q 3153 47 2828 -22 
Q 2503 -91 2169 -91 
Q 1331 -91 842 396 
Q 353 884 353 1716 
Q 353 2575 817 3079 
Q 1281 3584 2069 3584 
Q 2775 3584 3186 3129 
Q 3597 2675 3597 1894 
z
M 3022 2063 
Q 3016 2534 2758 2815 
Q 2500 3097 2075 3097 
Q 1594 3097 1305 2825 
Q 1016 2553 972 2059 
L 3022 2063 
z
" transform="scale(0.015625)"/>
        <path id="DejaVuSans-62" d="M 3116 1747 
Q 3116 2381 2855 2742 
Q 2594 3103 2138 3103 
Q 1681 3103 1420 2742 
Q 1159 2381 1159 1747 
Q 1159 1113 1420 752 
Q 1681 391 2138 391 
Q 2594 391 2855 752 
Q 3116 1113 3116 1747 
z
M 1159 2969 
Q 1341 3281 1617 3432 
Q 1894 3584 2278 3584 
Q 2916 3584 3314 3078 
Q 3713 2572 3713 1747 
Q 3713 922 3314 415 
Q 2916 -91 2278 -91 
Q 1894 -91 1617 61 
Q 1341 213 1159 525 
L 1159 0 
L 581 0 
L 581 4863 
L 1159 4863 
L 1159 2969 
z
" transform="scale(0.015625)"/>
       </defs>
       <use xlink:href="#DejaVuSans-74"/>
       <use xlink:href="#DejaVuSans-65" x="39.208984"/>
       <use xlink:href="#DejaVuSans-62" x="100.732422"/>
      </g>
     </g>
    </g>
    <g id="xtick_2">
     <g id="line2d_2">
      <g>
       <use xlink:href="#m60a5cc117a" x="196.082292" y="314.6" style="stroke: #000000; stroke-width: 0.8"/>
      </g>
     </g>
     <g id="text_2">
      <!-- dwa -->
      <g transform="translate(185.754948 329.198437)scale(0.1 -0.1)">
       <defs>
        <path id="DejaVuSans-64" d="M 2906 2969 
L 2906 4863 
L 3481 4863 
L 3481 0 
L 2906 0 
L 2906 525 
Q 2725 213 2448 61 
Q 2172 -91 1784 -91 
Q 1150 -91 751 415 
Q 353 922 353 1747 
Q 353 2572 751 3078 
Q 1150 3584 1784 3584 
Q 2172 3584 2448 3432 
Q 2725 3281 2906 2969 
z
M 947 1747 
Q 947 1113 1208 752 
Q 1469 391 1925 391 
Q 2381 391 2643 752 
Q 2906 1113 2906 1747 
Q 2906 2381 2643 2742 
Q 2381 3103 1925 3103 
Q 1469 3103 1208 2742 
Q 947 2381 947 1747 
z
" transform="scale(0.015625)"/>
        <path id="DejaVuSans-77" d="M 269 3500 
L 844 3500 
L 1563 769 
L 2278 3500 
L 2956 3500 
L 3675 769 
L 4391 3500 
L 4966 3500 
L 4050 0 
L 3372 0 
L 2619 2869 
L 1863 0 
L 1184 0 
L 269 3500 
z
" transform="scale(0.015625)"/>
        <path id="DejaVuSans-61" d="M 2194 1759 
Q 1497 1759 1228 1600 
Q 959 1441 959 1056 
Q 959 750 1161 570 
Q 1363 391 1709 391 
Q 2188 391 2477 730 
Q 2766 1069 2766 1631 
L 2766 1759 
L 2194 1759 
z
M 3341 1997 
L 3341 0 
L 2766 0 
L 2766 531 
Q 2569 213 2275 61 
Q 1981 -91 1556 -91 
Q 1019 -91 701 211 
Q 384 513 384 1019 
Q 384 1609 779 1909 
Q 1175 2209 1959 2209 
L 2766 2209 
L 2766 2266 
Q 2766 2663 2505 2880 
Q 2244 3097 1772 3097 
Q 1472 3097 1187 3025 
Q 903 2953 641 2809 
L 641 3341 
Q 956 3463 1253 3523 
Q 1550 3584 1831 3584 
Q 2591 3584 2966 3190 
Q 3341 2797 3341 1997 
z
" transform="scale(0.015625)"/>
       </defs>
       <use xlink:href="#DejaVuSans-64"/>
       <use xlink:href="#DejaVuSans-77" x="63.476562"/>
       <use xlink:href="#DejaVuSans-61" x="145.263672"/>
      </g>
     </g>
    </g>
    <g id="xtick_3">
     <g id="line2d_3">
      <g>
       <use xlink:href="#m60a5cc117a" x="295.493403" y="314.6" style="stroke: #000000; stroke-width: 0.8"/>
      </g>
     </g>
     <g id="text_3">
      <!-- rosnav -->
      <g transform="translate(278.694184 329.198437)scale(0.1 -0.1)">
       <defs>
        <path id="DejaVuSans-72" d="M 2631 2963 
Q 2534 3019 2420 3045 
Q 2306 3072 2169 3072 
Q 1681 3072 1420 2755 
Q 1159 2438 1159 1844 
L 1159 0 
L 581 0 
L 581 3500 
L 1159 3500 
L 1159 2956 
Q 1341 3275 1631 3429 
Q 1922 3584 2338 3584 
Q 2397 3584 2469 3576 
Q 2541 3569 2628 3553 
L 2631 2963 
z
" transform="scale(0.015625)"/>
        <path id="DejaVuSans-6f" d="M 1959 3097 
Q 1497 3097 1228 2736 
Q 959 2375 959 1747 
Q 959 1119 1226 758 
Q 1494 397 1959 397 
Q 2419 397 2687 759 
Q 2956 1122 2956 1747 
Q 2956 2369 2687 2733 
Q 2419 3097 1959 3097 
z
M 1959 3584 
Q 2709 3584 3137 3096 
Q 3566 2609 3566 1747 
Q 3566 888 3137 398 
Q 2709 -91 1959 -91 
Q 1206 -91 779 398 
Q 353 888 353 1747 
Q 353 2609 779 3096 
Q 1206 3584 1959 3584 
z
" transform="scale(0.015625)"/>
        <path id="DejaVuSans-73" d="M 2834 3397 
L 2834 2853 
Q 2591 2978 2328 3040 
Q 2066 3103 1784 3103 
Q 1356 3103 1142 2972 
Q 928 2841 928 2578 
Q 928 2378 1081 2264 
Q 1234 2150 1697 2047 
L 1894 2003 
Q 2506 1872 2764 1633 
Q 3022 1394 3022 966 
Q 3022 478 2636 193 
Q 2250 -91 1575 -91 
Q 1294 -91 989 -36 
Q 684 19 347 128 
L 347 722 
Q 666 556 975 473 
Q 1284 391 1588 391 
Q 1994 391 2212 530 
Q 2431 669 2431 922 
Q 2431 1156 2273 1281 
Q 2116 1406 1581 1522 
L 1381 1569 
Q 847 1681 609 1914 
Q 372 2147 372 2553 
Q 372 3047 722 3315 
Q 1072 3584 1716 3584 
Q 2034 3584 2315 3537 
Q 2597 3491 2834 3397 
z
" transform="scale(0.015625)"/>
        <path id="DejaVuSans-6e" d="M 3513 2113 
L 3513 0 
L 2938 0 
L 2938 2094 
Q 2938 2591 2744 2837 
Q 2550 3084 2163 3084 
Q 1697 3084 1428 2787 
Q 1159 2491 1159 1978 
L 1159 0 
L 581 0 
L 581 3500 
L 1159 3500 
L 1159 2956 
Q 1366 3272 1645 3428 
Q 1925 3584 2291 3584 
Q 2894 3584 3203 3211 
Q 3513 2838 3513 2113 
z
" transform="scale(0.015625)"/>
        <path id="DejaVuSans-76" d="M 191 3500 
L 800 3500 
L 1894 563 
L 2988 3500 
L 3597 3500 
L 2284 0 
L 1503 0 
L 191 3500 
z
" transform="scale(0.015625)"/>
       </defs>
       <use xlink:href="#DejaVuSans-72"/>
       <use xlink:href="#DejaVuSans-6f" x="38.863281"/>
       <use xlink:href="#DejaVuSans-73" x="100.044922"/>
       <use xlink:href="#DejaVuSans-6e" x="152.144531"/>
       <use xlink:href="#DejaVuSans-61" x="215.523438"/>
       <use xlink:href="#DejaVuSans-76" x="276.802734"/>
      </g>
     </g>
    </g>
    <g id="text_4">
     <!-- Planner -->
     <g transform="translate(177.144792 342.876562)scale(0.1 -0.1)">
      <defs>
       <path id="DejaVuSans-50" d="M 1259 4147 
L 1259 2394 
L 2053 2394 
Q 2494 2394 2734 2622 
Q 2975 2850 2975 3272 
Q 2975 3691 2734 3919 
Q 2494 4147 2053 4147 
L 1259 4147 
z
M 628 4666 
L 2053 4666 
Q 2838 4666 3239 4311 
Q 3641 3956 3641 3272 
Q 3641 2581 3239 2228 
Q 2838 1875 2053 1875 
L 1259 1875 
L 1259 0 
L 628 0 
L 628 4666 
z
" transform="scale(0.015625)"/>
       <path id="DejaVuSans-6c" d="M 603 4863 
L 1178 4863 
L 1178 0 
L 603 0 
L 603 4863 
z
" transform="scale(0.015625)"/>
      </defs>
      <use xlink:href="#DejaVuSans-50"/>
      <use xlink:href="#DejaVuSans-6c" x="60.302734"/>
      <use xlink:href="#DejaVuSans-61" x="88.085938"/>
      <use xlink:href="#DejaVuSans-6e" x="149.365234"/>
      <use xlink:href="#DejaVuSans-6e" x="212.744141"/>
      <use xlink:href="#DejaVuSans-65" x="276.123047"/>
      <use xlink:href="#DejaVuSans-72" x="337.646484"/>
     </g>
    </g>
   </g>
   <g id="matplotlib.axis_2">
    <g id="ytick_1">
     <g id="line2d_4">
      <defs>
       <path id="mc84db78504" d="M 0 0 
L -3.5 0 
" style="stroke: #000000; stroke-width: 0.8"/>
      </defs>
      <g>
       <use xlink:href="#mc84db78504" x="46.965625" y="266.701803" style="stroke: #000000; stroke-width: 0.8"/>
      </g>
     </g>
     <g id="text_5">
      <!-- 0 -->
      <g transform="translate(33.603125 270.501022)scale(0.1 -0.1)">
       <defs>
        <path id="DejaVuSans-30" d="M 2034 4250 
Q 1547 4250 1301 3770 
Q 1056 3291 1056 2328 
Q 1056 1369 1301 889 
Q 1547 409 2034 409 
Q 2525 409 2770 889 
Q 3016 1369 3016 2328 
Q 3016 3291 2770 3770 
Q 2525 4250 2034 4250 
z
M 2034 4750 
Q 2819 4750 3233 4129 
Q 3647 3509 3647 2328 
Q 3647 1150 3233 529 
Q 2819 -91 2034 -91 
Q 1250 -91 836 529 
Q 422 1150 422 2328 
Q 422 3509 836 4129 
Q 1250 4750 2034 4750 
z
" transform="scale(0.015625)"/>
       </defs>
       <use xlink:href="#DejaVuSans-30"/>
      </g>
     </g>
    </g>
    <g id="ytick_2">
     <g id="line2d_5">
      <g>
       <use xlink:href="#mc84db78504" x="46.965625" y="211.250415" style="stroke: #000000; stroke-width: 0.8"/>
      </g>
     </g>
     <g id="text_6">
      <!-- 50 -->
      <g transform="translate(27.240625 215.049634)scale(0.1 -0.1)">
       <defs>
        <path id="DejaVuSans-35" d="M 691 4666 
L 3169 4666 
L 3169 4134 
L 1269 4134 
L 1269 2991 
Q 1406 3038 1543 3061 
Q 1681 3084 1819 3084 
Q 2600 3084 3056 2656 
Q 3513 2228 3513 1497 
Q 3513 744 3044 326 
Q 2575 -91 1722 -91 
Q 1428 -91 1123 -41 
Q 819 9 494 109 
L 494 744 
Q 775 591 1075 516 
Q 1375 441 1709 441 
Q 2250 441 2565 725 
Q 2881 1009 2881 1497 
Q 2881 1984 2565 2268 
Q 2250 2553 1709 2553 
Q 1456 2553 1204 2497 
Q 953 2441 691 2322 
L 691 4666 
z
" transform="scale(0.015625)"/>
       </defs>
       <use xlink:href="#DejaVuSans-35"/>
       <use xlink:href="#DejaVuSans-30" x="63.623047"/>
      </g>
     </g>
    </g>
    <g id="ytick_3">
     <g id="line2d_6">
      <g>
       <use xlink:href="#mc84db78504" x="46.965625" y="155.799027" style="stroke: #000000; stroke-width: 0.8"/>
      </g>
     </g>
     <g id="text_7">
      <!-- 100 -->
      <g transform="translate(20.878125 159.598246)scale(0.1 -0.1)">
       <defs>
        <path id="DejaVuSans-31" d="M 794 531 
L 1825 531 
L 1825 4091 
L 703 3866 
L 703 4441 
L 1819 4666 
L 2450 4666 
L 2450 531 
L 3481 531 
L 3481 0 
L 794 0 
L 794 531 
z
" transform="scale(0.015625)"/>
       </defs>
       <use xlink:href="#DejaVuSans-31"/>
       <use xlink:href="#DejaVuSans-30" x="63.623047"/>
       <use xlink:href="#DejaVuSans-30" x="127.246094"/>
      </g>
     </g>
    </g>
    <g id="ytick_4">
     <g id="line2d_7">
      <g>
       <use xlink:href="#mc84db78504" x="46.965625" y="100.347639" style="stroke: #000000; stroke-width: 0.8"/>
      </g>
     </g>
     <g id="text_8">
      <!-- 150 -->
      <g transform="translate(20.878125 104.146857)scale(0.1 -0.1)">
       <use xlink:href="#DejaVuSans-31"/>
       <use xlink:href="#DejaVuSans-35" x="63.623047"/>
       <use xlink:href="#DejaVuSans-30" x="127.246094"/>
      </g>
     </g>
    </g>
    <g id="ytick_5">
     <g id="line2d_8">
      <g>
       <use xlink:href="#mc84db78504" x="46.965625" y="44.89625" style="stroke: #000000; stroke-width: 0.8"/>
      </g>
     </g>
     <g id="text_9">
      <!-- 200 -->
      <g transform="translate(20.878125 48.695469)scale(0.1 -0.1)">
       <defs>
        <path id="DejaVuSans-32" d="M 1228 531 
L 3431 531 
L 3431 0 
L 469 0 
L 469 531 
Q 828 903 1448 1529 
Q 2069 2156 2228 2338 
Q 2531 2678 2651 2914 
Q 2772 3150 2772 3378 
Q 2772 3750 2511 3984 
Q 2250 4219 1831 4219 
Q 1534 4219 1204 4116 
Q 875 4013 500 3803 
L 500 4441 
Q 881 4594 1212 4672 
Q 1544 4750 1819 4750 
Q 2544 4750 2975 4387 
Q 3406 4025 3406 3419 
Q 3406 3131 3298 2873 
Q 3191 2616 2906 2266 
Q 2828 2175 2409 1742 
Q 1991 1309 1228 531 
z
" transform="scale(0.015625)"/>
       </defs>
       <use xlink:href="#DejaVuSans-32"/>
       <use xlink:href="#DejaVuSans-30" x="63.623047"/>
       <use xlink:href="#DejaVuSans-30" x="127.246094"/>
      </g>
     </g>
    </g>
    <g id="text_10">
     <!-- time -->
     <g transform="translate(14.798438 172.196094)rotate(-90)scale(0.1 -0.1)">
      <defs>
       <path id="DejaVuSans-69" d="M 603 3500 
L 1178 3500 
L 1178 0 
L 603 0 
L 603 3500 
z
M 603 4863 
L 1178 4863 
L 1178 4134 
L 603 4134 
L 603 4863 
z
" transform="scale(0.015625)"/>
       <path id="DejaVuSans-6d" d="M 3328 2828 
Q 3544 3216 3844 3400 
Q 4144 3584 4550 3584 
Q 5097 3584 5394 3201 
Q 5691 2819 5691 2113 
L 5691 0 
L 5113 0 
L 5113 2094 
Q 5113 2597 4934 2840 
Q 4756 3084 4391 3084 
Q 3944 3084 3684 2787 
Q 3425 2491 3425 1978 
L 3425 0 
L 2847 0 
L 2847 2094 
Q 2847 2600 2669 2842 
Q 2491 3084 2119 3084 
Q 1678 3084 1418 2786 
Q 1159 2488 1159 1978 
L 1159 0 
L 581 0 
L 581 3500 
L 1159 3500 
L 1159 2956 
Q 1356 3278 1631 3431 
Q 1906 3584 2284 3584 
Q 2666 3584 2933 3390 
Q 3200 3197 3328 2828 
z
" transform="scale(0.015625)"/>
      </defs>
      <use xlink:href="#DejaVuSans-74"/>
      <use xlink:href="#DejaVuSans-69" x="39.208984"/>
      <use xlink:href="#DejaVuSans-6d" x="66.992188"/>
      <use xlink:href="#DejaVuSans-65" x="164.404297"/>
     </g>
    </g>
   </g>
   <g id="line2d_9">
    <path d="M 96.671181 260.615459 
L 96.671181 66.728571 
" clip-path="url(#pe2e0fccbf7)" style="fill: none; stroke: #3f3f3f; stroke-width: 1.5; stroke-linecap: square"/>
   </g>
   <g id="line2d_10">
    <path d="M 96.671181 195.213319 
L 96.671181 111.066946 
" clip-path="url(#pe2e0fccbf7)" style="fill: none; stroke: #3f3f3f; stroke-width: 4.5; stroke-linecap: square"/>
   </g>
   <g id="line2d_11">
    <path d="M 196.082292 255.165697 
L 196.082292 66.533382 
" clip-path="url(#pe2e0fccbf7)" style="fill: none; stroke: #3f3f3f; stroke-width: 1.5; stroke-linecap: square"/>
   </g>
   <g id="line2d_12">
    <path d="M 196.082292 219.412859 
L 196.082292 122.533739 
" clip-path="url(#pe2e0fccbf7)" style="fill: none; stroke: #3f3f3f; stroke-width: 4.5; stroke-linecap: square"/>
   </g>
   <g id="line2d_13">
    <path d="M 295.493403 255.169024 
L 295.493403 66.630976 
" clip-path="url(#pe2e0fccbf7)" style="fill: none; stroke: #3f3f3f; stroke-width: 1.5; stroke-linecap: square"/>
   </g>
   <g id="line2d_14">
    <path d="M 295.493403 246.453729 
L 295.493403 109.39176 
" clip-path="url(#pe2e0fccbf7)" style="fill: none; stroke: #3f3f3f; stroke-width: 4.5; stroke-linecap: square"/>
   </g>
   <g id="patch_5">
    <path d="M 46.965625 314.6 
L 46.965625 7.2 
" style="fill: none; stroke: #000000; stroke-width: 0.8; stroke-linejoin: miter; stroke-linecap: square"/>
   </g>
   <g id="patch_6">
    <path d="M 46.965625 314.6 
L 345.198958 314.6 
" style="fill: none; stroke: #000000; stroke-width: 0.8; stroke-linejoin: miter; stroke-linecap: square"/>
   </g>
   <g id="PathCollection_1">
    <defs>
     <path id="m378f5af35a" d="M 0 1.5 
C 0.397805 1.5 0.77937 1.341951 1.06066 1.06066 
C 1.341951 0.77937 1.5 0.397805 1.5 0 
C 1.5 -0.397805 1.341951 -0.77937 1.06066 -1.06066 
C 0.77937 -1.341951 0.397805 -1.5 0 -1.5 
C -0.397805 -1.5 -0.77937 -1.341951 -1.06066 -1.06066 
C -1.341951 -0.77937 -1.5 -0.397805 -1.5 0 
C -1.5 0.397805 -1.341951 0.77937 -1.06066 1.06066 
C -0.77937 1.341951 -0.397805 1.5 0 1.5 
z
" style="stroke: #3f3f3f"/>
    </defs>
    <g clip-path="url(#pe2e0fccbf7)">
     <use xlink:href="#m378f5af35a" x="96.671181" y="146.499829" style="fill: #ffffff; stroke: #3f3f3f"/>
    </g>
   </g>
   <g id="PathCollection_2">
    <g clip-path="url(#pe2e0fccbf7)">
     <use xlink:href="#m378f5af35a" x="196.082292" y="197.911029" style="fill: #ffffff; stroke: #3f3f3f"/>
    </g>
   </g>
   <g id="PathCollection_3">
    <g clip-path="url(#pe2e0fccbf7)">
     <use xlink:href="#m378f5af35a" x="295.493403" y="158.024291" style="fill: #ffffff; stroke: #3f3f3f"/>
    </g>
   </g>
  </g>
  <g id="legend_1">
   <g id="text_11">
    <!-- dim -->
    <g transform="translate(361.447396 164.159375)scale(0.1 -0.1)">
     <use xlink:href="#DejaVuSans-64"/>
     <use xlink:href="#DejaVuSans-69" x="63.476562"/>
     <use xlink:href="#DejaVuSans-6d" x="91.259766"/>
    </g>
   </g>
   <g id="patch_7">
    <path d="M 350.525521 178.8375 
L 370.525521 178.8375 
L 370.525521 171.8375 
L 350.525521 171.8375 
z
" style="fill: #3274a1; stroke: #3f3f3f; stroke-width: 0.75; stroke-linejoin: miter"/>
   </g>
   <g id="text_12">
    <!-- 2d -->
    <g transform="translate(378.525521 178.8375)scale(0.1 -0.1)">
     <use xlink:href="#DejaVuSans-32"/>
     <use xlink:href="#DejaVuSans-64" x="63.623047"/>
    </g>
   </g>
   <g id="patch_8">
    <path d="M 350.525521 193.515625 
L 370.525521 193.515625 
L 370.525521 186.515625 
L 350.525521 186.515625 
z
" style="fill: #e1812c; stroke: #3f3f3f; stroke-width: 0.75; stroke-linejoin: miter"/>
   </g>
   <g id="text_13">
    <!-- 3d -->
    <g transform="translate(378.525521 193.515625)scale(0.1 -0.1)">
     <defs>
      <path id="DejaVuSans-33" d="M 2597 2516 
Q 3050 2419 3304 2112 
Q 3559 1806 3559 1356 
Q 3559 666 3084 287 
Q 2609 -91 1734 -91 
Q 1441 -91 1130 -33 
Q 819 25 488 141 
L 488 750 
Q 750 597 1062 519 
Q 1375 441 1716 441 
Q 2309 441 2620 675 
Q 2931 909 2931 1356 
Q 2931 1769 2642 2001 
Q 2353 2234 1838 2234 
L 1294 2234 
L 1294 2753 
L 1863 2753 
Q 2328 2753 2575 2939 
Q 2822 3125 2822 3475 
Q 2822 3834 2567 4026 
Q 2313 4219 1838 4219 
Q 1578 4219 1281 4162 
Q 984 4106 628 3988 
L 628 4550 
Q 988 4650 1302 4700 
Q 1616 4750 1894 4750 
Q 2613 4750 3031 4423 
Q 3450 4097 3450 3541 
Q 3450 3153 3228 2886 
Q 3006 2619 2597 2516 
z
" transform="scale(0.015625)"/>
     </defs>
     <use xlink:href="#DejaVuSans-33"/>
     <use xlink:href="#DejaVuSans-64" x="63.623047"/>
    </g>
   </g>
  </g>
 </g>
 <defs>
  <clipPath id="pe2e0fccbf7">
   <rect x="46.965625" y="7.2" width="298.233333" height="307.4"/>
  </clipPath>
 </defs>
</svg>
