<?xml version="1.0" encoding="utf-8" standalone="no"?>
<!DOCTYPE svg PUBLIC "-//W3C//DTD SVG 1.1//EN"
  "http://www.w3.org/Graphics/SVG/1.1/DTD/svg11.dtd">
<svg xmlns:xlink="http://www.w3.org/1999/xlink" width="400.5254pt" height="347.739687pt" viewBox="0 0 400.5254 347.739687" xmlns="http://www.w3.org/2000/svg" version="1.1">
 <metadata>
  <rdf:RDF xmlns:dc="http://purl.org/dc/elements/1.1/" xmlns:cc="http://creativecommons.org/ns#" xmlns:rdf="http://www.w3.org/1999/02/22-rdf-syntax-ns#">
   <cc:Work>
    <dc:type rdf:resource="http://purl.org/dc/dcmitype/StillImage"/>
    <dc:date>2022-03-28T16:02:03.337627</dc:date>
    <dc:format>image/svg+xml</dc:format>
    <dc:creator>
     <cc:Agent>
      <dc:title>Matplotlib v3.5.1, https://matplotlib.org/</dc:title>
     </cc:Agent>
    </dc:creator>
   </cc:Work>
  </rdf:RDF>
 </metadata>
 <defs>
  <style type="text/css">*{stroke-linejoin: round; stroke-linecap: butt}</style>
 </defs>
 <g id="figure_1">
  <g id="patch_1">
   <path d="M 0 347.739687 
L 400.5254 347.739687 
L 400.5254 0 
L 0 0 
z
" style="fill: #ffffff"/>
  </g>
  <g id="axes_1">
   <g id="patch_2">
    <path d="M 46.645 304.78 
L 341.0894 304.78 
L 341.0894 7.2 
L 46.645 7.2 
z
" style="fill: #ffffff"/>
   </g>
   <g id="matplotlib.axis_1">
    <g id="xtick_1">
     <g id="text_1">
      <!-- teb -->
      <g style="fill: #262626" transform="translate(86.687035 322.638281)scale(0.11 -0.11)">
       <defs>
        <path id="DejaVuSans-74" d="M 1172 4494 
L 1172 3500 
L 2356 3500 
L 2356 3053 
L 1172 3053 
L 1172 1153 
Q 1172 725 1289 603 
Q 1406 481 1766 481 
L 2356 481 
L 2356 0 
L 1766 0 
Q 1100 0 847 248 
Q 594 497 594 1153 
L 594 3053 
L 172 3053 
L 172 3500 
L 594 3500 
L 594 4494 
L 1172 4494 
z
" transform="scale(0.015625)"/>
        <path id="DejaVuSans-65" d="M 3597 1894 
L 3597 1613 
L 953 1613 
Q 991 1019 1311 708 
Q 1631 397 2203 397 
Q 2534 397 2845 478 
Q 3156 559 3463 722 
L 3463 178 
Q 3153 47 2828 -22 
Q 2503 -91 2169 -91 
Q 1331 -91 842 396 
Q 353 884 353 1716 
Q 353 2575 817 3079 
Q 1281 3584 2069 3584 
Q 2775 3584 3186 3129 
Q 3597 2675 3597 1894 
z
M 3022 2063 
Q 3016 2534 2758 2815 
Q 2500 3097 2075 3097 
Q 1594 3097 1305 2825 
Q 1016 2553 972 2059 
L 3022 2063 
z
" transform="scale(0.015625)"/>
        <path id="DejaVuSans-62" d="M 3116 1747 
Q 3116 2381 2855 2742 
Q 2594 3103 2138 3103 
Q 1681 3103 1420 2742 
Q 1159 2381 1159 1747 
Q 1159 1113 1420 752 
Q 1681 391 2138 391 
Q 2594 391 2855 752 
Q 3116 1113 3116 1747 
z
M 1159 2969 
Q 1341 3281 1617 3432 
Q 1894 3584 2278 3584 
Q 2916 3584 3314 3078 
Q 3713 2572 3713 1747 
Q 3713 922 3314 415 
Q 2916 -91 2278 -91 
Q 1894 -91 1617 61 
Q 1341 213 1159 525 
L 1159 0 
L 581 0 
L 581 4863 
L 1159 4863 
L 1159 2969 
z
" transform="scale(0.015625)"/>
       </defs>
       <use xlink:href="#DejaVuSans-74"/>
       <use xlink:href="#DejaVuSans-65" x="39.208984"/>
       <use xlink:href="#DejaVuSans-62" x="100.732422"/>
      </g>
     </g>
    </g>
    <g id="xtick_2">
     <g id="text_2">
      <!-- dwa -->
      <g style="fill: #262626" transform="translate(182.507122 322.638281)scale(0.11 -0.11)">
       <defs>
        <path id="DejaVuSans-64" d="M 2906 2969 
L 2906 4863 
L 3481 4863 
L 3481 0 
L 2906 0 
L 2906 525 
Q 2725 213 2448 61 
Q 2172 -91 1784 -91 
Q 1150 -91 751 415 
Q 353 922 353 1747 
Q 353 2572 751 3078 
Q 1150 3584 1784 3584 
Q 2172 3584 2448 3432 
Q 2725 3281 2906 2969 
z
M 947 1747 
Q 947 1113 1208 752 
Q 1469 391 1925 391 
Q 2381 391 2643 752 
Q 2906 1113 2906 1747 
Q 2906 2381 2643 2742 
Q 2381 3103 1925 3103 
Q 1469 3103 1208 2742 
Q 947 2381 947 1747 
z
" transform="scale(0.015625)"/>
        <path id="DejaVuSans-77" d="M 269 3500 
L 844 3500 
L 1563 769 
L 2278 3500 
L 2956 3500 
L 3675 769 
L 4391 3500 
L 4966 3500 
L 4050 0 
L 3372 0 
L 2619 2869 
L 1863 0 
L 1184 0 
L 269 3500 
z
" transform="scale(0.015625)"/>
        <path id="DejaVuSans-61" d="M 2194 1759 
Q 1497 1759 1228 1600 
Q 959 1441 959 1056 
Q 959 750 1161 570 
Q 1363 391 1709 391 
Q 2188 391 2477 730 
Q 2766 1069 2766 1631 
L 2766 1759 
L 2194 1759 
z
M 3341 1997 
L 3341 0 
L 2766 0 
L 2766 531 
Q 2569 213 2275 61 
Q 1981 -91 1556 -91 
Q 1019 -91 701 211 
Q 384 513 384 1019 
Q 384 1609 779 1909 
Q 1175 2209 1959 2209 
L 2766 2209 
L 2766 2266 
Q 2766 2663 2505 2880 
Q 2244 3097 1772 3097 
Q 1472 3097 1187 3025 
Q 903 2953 641 2809 
L 641 3341 
Q 956 3463 1253 3523 
Q 1550 3584 1831 3584 
Q 2591 3584 2966 3190 
Q 3341 2797 3341 1997 
z
" transform="scale(0.015625)"/>
       </defs>
       <use xlink:href="#DejaVuSans-64"/>
       <use xlink:href="#DejaVuSans-77" x="63.476562"/>
       <use xlink:href="#DejaVuSans-61" x="145.263672"/>
      </g>
     </g>
    </g>
    <g id="xtick_3">
     <g id="text_3">
      <!-- rosnav -->
      <g style="fill: #262626" transform="translate(273.536193 322.638281)scale(0.11 -0.11)">
       <defs>
        <path id="DejaVuSans-72" d="M 2631 2963 
Q 2534 3019 2420 3045 
Q 2306 3072 2169 3072 
Q 1681 3072 1420 2755 
Q 1159 2438 1159 1844 
L 1159 0 
L 581 0 
L 581 3500 
L 1159 3500 
L 1159 2956 
Q 1341 3275 1631 3429 
Q 1922 3584 2338 3584 
Q 2397 3584 2469 3576 
Q 2541 3569 2628 3553 
L 2631 2963 
z
" transform="scale(0.015625)"/>
        <path id="DejaVuSans-6f" d="M 1959 3097 
Q 1497 3097 1228 2736 
Q 959 2375 959 1747 
Q 959 1119 1226 758 
Q 1494 397 1959 397 
Q 2419 397 2687 759 
Q 2956 1122 2956 1747 
Q 2956 2369 2687 2733 
Q 2419 3097 1959 3097 
z
M 1959 3584 
Q 2709 3584 3137 3096 
Q 3566 2609 3566 1747 
Q 3566 888 3137 398 
Q 2709 -91 1959 -91 
Q 1206 -91 779 398 
Q 353 888 353 1747 
Q 353 2609 779 3096 
Q 1206 3584 1959 3584 
z
" transform="scale(0.015625)"/>
        <path id="DejaVuSans-73" d="M 2834 3397 
L 2834 2853 
Q 2591 2978 2328 3040 
Q 2066 3103 1784 3103 
Q 1356 3103 1142 2972 
Q 928 2841 928 2578 
Q 928 2378 1081 2264 
Q 1234 2150 1697 2047 
L 1894 2003 
Q 2506 1872 2764 1633 
Q 3022 1394 3022 966 
Q 3022 478 2636 193 
Q 2250 -91 1575 -91 
Q 1294 -91 989 -36 
Q 684 19 347 128 
L 347 722 
Q 666 556 975 473 
Q 1284 391 1588 391 
Q 1994 391 2212 530 
Q 2431 669 2431 922 
Q 2431 1156 2273 1281 
Q 2116 1406 1581 1522 
L 1381 1569 
Q 847 1681 609 1914 
Q 372 2147 372 2553 
Q 372 3047 722 3315 
Q 1072 3584 1716 3584 
Q 2034 3584 2315 3537 
Q 2597 3491 2834 3397 
z
" transform="scale(0.015625)"/>
        <path id="DejaVuSans-6e" d="M 3513 2113 
L 3513 0 
L 2938 0 
L 2938 2094 
Q 2938 2591 2744 2837 
Q 2550 3084 2163 3084 
Q 1697 3084 1428 2787 
Q 1159 2491 1159 1978 
L 1159 0 
L 581 0 
L 581 3500 
L 1159 3500 
L 1159 2956 
Q 1366 3272 1645 3428 
Q 1925 3584 2291 3584 
Q 2894 3584 3203 3211 
Q 3513 2838 3513 2113 
z
" transform="scale(0.015625)"/>
        <path id="DejaVuSans-76" d="M 191 3500 
L 800 3500 
L 1894 563 
L 2988 3500 
L 3597 3500 
L 2284 0 
L 1503 0 
L 191 3500 
z
" transform="scale(0.015625)"/>
       </defs>
       <use xlink:href="#DejaVuSans-72"/>
       <use xlink:href="#DejaVuSans-6f" x="38.863281"/>
       <use xlink:href="#DejaVuSans-73" x="100.044922"/>
       <use xlink:href="#DejaVuSans-6e" x="152.144531"/>
       <use xlink:href="#DejaVuSans-61" x="215.523438"/>
       <use xlink:href="#DejaVuSans-76" x="276.802734"/>
      </g>
     </g>
    </g>
    <g id="text_4">
     <!-- Planner -->
     <g style="fill: #262626" transform="translate(171.1422 338.044062)scale(0.12 -0.12)">
      <defs>
       <path id="DejaVuSans-50" d="M 1259 4147 
L 1259 2394 
L 2053 2394 
Q 2494 2394 2734 2622 
Q 2975 2850 2975 3272 
Q 2975 3691 2734 3919 
Q 2494 4147 2053 4147 
L 1259 4147 
z
M 628 4666 
L 2053 4666 
Q 2838 4666 3239 4311 
Q 3641 3956 3641 3272 
Q 3641 2581 3239 2228 
Q 2838 1875 2053 1875 
L 1259 1875 
L 1259 0 
L 628 0 
L 628 4666 
z
" transform="scale(0.015625)"/>
       <path id="DejaVuSans-6c" d="M 603 4863 
L 1178 4863 
L 1178 0 
L 603 0 
L 603 4863 
z
" transform="scale(0.015625)"/>
      </defs>
      <use xlink:href="#DejaVuSans-50"/>
      <use xlink:href="#DejaVuSans-6c" x="60.302734"/>
      <use xlink:href="#DejaVuSans-61" x="88.085938"/>
      <use xlink:href="#DejaVuSans-6e" x="149.365234"/>
      <use xlink:href="#DejaVuSans-6e" x="212.744141"/>
      <use xlink:href="#DejaVuSans-65" x="276.123047"/>
      <use xlink:href="#DejaVuSans-72" x="337.646484"/>
     </g>
    </g>
   </g>
   <g id="matplotlib.axis_2">
    <g id="ytick_1">
     <g id="line2d_1">
      <path d="M 46.645 270.779242 
L 341.0894 270.779242 
" clip-path="url(#pba9d37626e)" style="fill: none; stroke: #cccccc; stroke-linecap: round"/>
     </g>
     <g id="text_5">
      <!-- 0 -->
      <g style="fill: #262626" transform="translate(30.14625 274.958382)scale(0.11 -0.11)">
       <defs>
        <path id="DejaVuSans-30" d="M 2034 4250 
Q 1547 4250 1301 3770 
Q 1056 3291 1056 2328 
Q 1056 1369 1301 889 
Q 1547 409 2034 409 
Q 2525 409 2770 889 
Q 3016 1369 3016 2328 
Q 3016 3291 2770 3770 
Q 2525 4250 2034 4250 
z
M 2034 4750 
Q 2819 4750 3233 4129 
Q 3647 3509 3647 2328 
Q 3647 1150 3233 529 
Q 2819 -91 2034 -91 
Q 1250 -91 836 529 
Q 422 1150 422 2328 
Q 422 3509 836 4129 
Q 1250 4750 2034 4750 
z
" transform="scale(0.015625)"/>
       </defs>
       <use xlink:href="#DejaVuSans-30"/>
      </g>
     </g>
    </g>
    <g id="ytick_2">
     <g id="line2d_2">
      <path d="M 46.645 235.247706 
L 341.0894 235.247706 
" clip-path="url(#pba9d37626e)" style="fill: none; stroke: #cccccc; stroke-linecap: round"/>
     </g>
     <g id="text_6">
      <!-- 10 -->
      <g style="fill: #262626" transform="translate(23.1475 239.426846)scale(0.11 -0.11)">
       <defs>
        <path id="DejaVuSans-31" d="M 794 531 
L 1825 531 
L 1825 4091 
L 703 3866 
L 703 4441 
L 1819 4666 
L 2450 4666 
L 2450 531 
L 3481 531 
L 3481 0 
L 794 0 
L 794 531 
z
" transform="scale(0.015625)"/>
       </defs>
       <use xlink:href="#DejaVuSans-31"/>
       <use xlink:href="#DejaVuSans-30" x="63.623047"/>
      </g>
     </g>
    </g>
    <g id="ytick_3">
     <g id="line2d_3">
      <path d="M 46.645 199.716169 
L 341.0894 199.716169 
" clip-path="url(#pba9d37626e)" style="fill: none; stroke: #cccccc; stroke-linecap: round"/>
     </g>
     <g id="text_7">
      <!-- 20 -->
      <g style="fill: #262626" transform="translate(23.1475 203.89531)scale(0.11 -0.11)">
       <defs>
        <path id="DejaVuSans-32" d="M 1228 531 
L 3431 531 
L 3431 0 
L 469 0 
L 469 531 
Q 828 903 1448 1529 
Q 2069 2156 2228 2338 
Q 2531 2678 2651 2914 
Q 2772 3150 2772 3378 
Q 2772 3750 2511 3984 
Q 2250 4219 1831 4219 
Q 1534 4219 1204 4116 
Q 875 4013 500 3803 
L 500 4441 
Q 881 4594 1212 4672 
Q 1544 4750 1819 4750 
Q 2544 4750 2975 4387 
Q 3406 4025 3406 3419 
Q 3406 3131 3298 2873 
Q 3191 2616 2906 2266 
Q 2828 2175 2409 1742 
Q 1991 1309 1228 531 
z
" transform="scale(0.015625)"/>
       </defs>
       <use xlink:href="#DejaVuSans-32"/>
       <use xlink:href="#DejaVuSans-30" x="63.623047"/>
      </g>
     </g>
    </g>
    <g id="ytick_4">
     <g id="line2d_4">
      <path d="M 46.645 164.184633 
L 341.0894 164.184633 
" clip-path="url(#pba9d37626e)" style="fill: none; stroke: #cccccc; stroke-linecap: round"/>
     </g>
     <g id="text_8">
      <!-- 30 -->
      <g style="fill: #262626" transform="translate(23.1475 168.363774)scale(0.11 -0.11)">
       <defs>
        <path id="DejaVuSans-33" d="M 2597 2516 
Q 3050 2419 3304 2112 
Q 3559 1806 3559 1356 
Q 3559 666 3084 287 
Q 2609 -91 1734 -91 
Q 1441 -91 1130 -33 
Q 819 25 488 141 
L 488 750 
Q 750 597 1062 519 
Q 1375 441 1716 441 
Q 2309 441 2620 675 
Q 2931 909 2931 1356 
Q 2931 1769 2642 2001 
Q 2353 2234 1838 2234 
L 1294 2234 
L 1294 2753 
L 1863 2753 
Q 2328 2753 2575 2939 
Q 2822 3125 2822 3475 
Q 2822 3834 2567 4026 
Q 2313 4219 1838 4219 
Q 1578 4219 1281 4162 
Q 984 4106 628 3988 
L 628 4550 
Q 988 4650 1302 4700 
Q 1616 4750 1894 4750 
Q 2613 4750 3031 4423 
Q 3450 4097 3450 3541 
Q 3450 3153 3228 2886 
Q 3006 2619 2597 2516 
z
" transform="scale(0.015625)"/>
       </defs>
       <use xlink:href="#DejaVuSans-33"/>
       <use xlink:href="#DejaVuSans-30" x="63.623047"/>
      </g>
     </g>
    </g>
    <g id="ytick_5">
     <g id="line2d_5">
      <path d="M 46.645 128.653097 
L 341.0894 128.653097 
" clip-path="url(#pba9d37626e)" style="fill: none; stroke: #cccccc; stroke-linecap: round"/>
     </g>
     <g id="text_9">
      <!-- 40 -->
      <g style="fill: #262626" transform="translate(23.1475 132.832238)scale(0.11 -0.11)">
       <defs>
        <path id="DejaVuSans-34" d="M 2419 4116 
L 825 1625 
L 2419 1625 
L 2419 4116 
z
M 2253 4666 
L 3047 4666 
L 3047 1625 
L 3713 1625 
L 3713 1100 
L 3047 1100 
L 3047 0 
L 2419 0 
L 2419 1100 
L 313 1100 
L 313 1709 
L 2253 4666 
z
" transform="scale(0.015625)"/>
       </defs>
       <use xlink:href="#DejaVuSans-34"/>
       <use xlink:href="#DejaVuSans-30" x="63.623047"/>
      </g>
     </g>
    </g>
    <g id="ytick_6">
     <g id="line2d_6">
      <path d="M 46.645 93.121561 
L 341.0894 93.121561 
" clip-path="url(#pba9d37626e)" style="fill: none; stroke: #cccccc; stroke-linecap: round"/>
     </g>
     <g id="text_10">
      <!-- 50 -->
      <g style="fill: #262626" transform="translate(23.1475 97.300701)scale(0.11 -0.11)">
       <defs>
        <path id="DejaVuSans-35" d="M 691 4666 
L 3169 4666 
L 3169 4134 
L 1269 4134 
L 1269 2991 
Q 1406 3038 1543 3061 
Q 1681 3084 1819 3084 
Q 2600 3084 3056 2656 
Q 3513 2228 3513 1497 
Q 3513 744 3044 326 
Q 2575 -91 1722 -91 
Q 1428 -91 1123 -41 
Q 819 9 494 109 
L 494 744 
Q 775 591 1075 516 
Q 1375 441 1709 441 
Q 2250 441 2565 725 
Q 2881 1009 2881 1497 
Q 2881 1984 2565 2268 
Q 2250 2553 1709 2553 
Q 1456 2553 1204 2497 
Q 953 2441 691 2322 
L 691 4666 
z
" transform="scale(0.015625)"/>
       </defs>
       <use xlink:href="#DejaVuSans-35"/>
       <use xlink:href="#DejaVuSans-30" x="63.623047"/>
      </g>
     </g>
    </g>
    <g id="ytick_7">
     <g id="line2d_7">
      <path d="M 46.645 57.590025 
L 341.0894 57.590025 
" clip-path="url(#pba9d37626e)" style="fill: none; stroke: #cccccc; stroke-linecap: round"/>
     </g>
     <g id="text_11">
      <!-- 60 -->
      <g style="fill: #262626" transform="translate(23.1475 61.769165)scale(0.11 -0.11)">
       <defs>
        <path id="DejaVuSans-36" d="M 2113 2584 
Q 1688 2584 1439 2293 
Q 1191 2003 1191 1497 
Q 1191 994 1439 701 
Q 1688 409 2113 409 
Q 2538 409 2786 701 
Q 3034 994 3034 1497 
Q 3034 2003 2786 2293 
Q 2538 2584 2113 2584 
z
M 3366 4563 
L 3366 3988 
Q 3128 4100 2886 4159 
Q 2644 4219 2406 4219 
Q 1781 4219 1451 3797 
Q 1122 3375 1075 2522 
Q 1259 2794 1537 2939 
Q 1816 3084 2150 3084 
Q 2853 3084 3261 2657 
Q 3669 2231 3669 1497 
Q 3669 778 3244 343 
Q 2819 -91 2113 -91 
Q 1303 -91 875 529 
Q 447 1150 447 2328 
Q 447 3434 972 4092 
Q 1497 4750 2381 4750 
Q 2619 4750 2861 4703 
Q 3103 4656 3366 4563 
z
" transform="scale(0.015625)"/>
       </defs>
       <use xlink:href="#DejaVuSans-36"/>
       <use xlink:href="#DejaVuSans-30" x="63.623047"/>
      </g>
     </g>
    </g>
    <g id="ytick_8">
     <g id="line2d_8">
      <path d="M 46.645 22.058488 
L 341.0894 22.058488 
" clip-path="url(#pba9d37626e)" style="fill: none; stroke: #cccccc; stroke-linecap: round"/>
     </g>
     <g id="text_12">
      <!-- 70 -->
      <g style="fill: #262626" transform="translate(23.1475 26.237629)scale(0.11 -0.11)">
       <defs>
        <path id="DejaVuSans-37" d="M 525 4666 
L 3525 4666 
L 3525 4397 
L 1831 0 
L 1172 0 
L 2766 4134 
L 525 4134 
L 525 4666 
z
" transform="scale(0.015625)"/>
       </defs>
       <use xlink:href="#DejaVuSans-37"/>
       <use xlink:href="#DejaVuSans-30" x="63.623047"/>
      </g>
     </g>
    </g>
    <g id="text_13">
     <!-- path_length -->
     <g style="fill: #262626" transform="translate(16.318125 191.755625)rotate(-90)scale(0.12 -0.12)">
      <defs>
       <path id="DejaVuSans-70" d="M 1159 525 
L 1159 -1331 
L 581 -1331 
L 581 3500 
L 1159 3500 
L 1159 2969 
Q 1341 3281 1617 3432 
Q 1894 3584 2278 3584 
Q 2916 3584 3314 3078 
Q 3713 2572 3713 1747 
Q 3713 922 3314 415 
Q 2916 -91 2278 -91 
Q 1894 -91 1617 61 
Q 1341 213 1159 525 
z
M 3116 1747 
Q 3116 2381 2855 2742 
Q 2594 3103 2138 3103 
Q 1681 3103 1420 2742 
Q 1159 2381 1159 1747 
Q 1159 1113 1420 752 
Q 1681 391 2138 391 
Q 2594 391 2855 752 
Q 3116 1113 3116 1747 
z
" transform="scale(0.015625)"/>
       <path id="DejaVuSans-68" d="M 3513 2113 
L 3513 0 
L 2938 0 
L 2938 2094 
Q 2938 2591 2744 2837 
Q 2550 3084 2163 3084 
Q 1697 3084 1428 2787 
Q 1159 2491 1159 1978 
L 1159 0 
L 581 0 
L 581 4863 
L 1159 4863 
L 1159 2956 
Q 1366 3272 1645 3428 
Q 1925 3584 2291 3584 
Q 2894 3584 3203 3211 
Q 3513 2838 3513 2113 
z
" transform="scale(0.015625)"/>
       <path id="DejaVuSans-5f" d="M 3263 -1063 
L 3263 -1509 
L -63 -1509 
L -63 -1063 
L 3263 -1063 
z
" transform="scale(0.015625)"/>
       <path id="DejaVuSans-67" d="M 2906 1791 
Q 2906 2416 2648 2759 
Q 2391 3103 1925 3103 
Q 1463 3103 1205 2759 
Q 947 2416 947 1791 
Q 947 1169 1205 825 
Q 1463 481 1925 481 
Q 2391 481 2648 825 
Q 2906 1169 2906 1791 
z
M 3481 434 
Q 3481 -459 3084 -895 
Q 2688 -1331 1869 -1331 
Q 1566 -1331 1297 -1286 
Q 1028 -1241 775 -1147 
L 775 -588 
Q 1028 -725 1275 -790 
Q 1522 -856 1778 -856 
Q 2344 -856 2625 -561 
Q 2906 -266 2906 331 
L 2906 616 
Q 2728 306 2450 153 
Q 2172 0 1784 0 
Q 1141 0 747 490 
Q 353 981 353 1791 
Q 353 2603 747 3093 
Q 1141 3584 1784 3584 
Q 2172 3584 2450 3431 
Q 2728 3278 2906 2969 
L 2906 3500 
L 3481 3500 
L 3481 434 
z
" transform="scale(0.015625)"/>
      </defs>
      <use xlink:href="#DejaVuSans-70"/>
      <use xlink:href="#DejaVuSans-61" x="63.476562"/>
      <use xlink:href="#DejaVuSans-74" x="124.755859"/>
      <use xlink:href="#DejaVuSans-68" x="163.964844"/>
      <use xlink:href="#DejaVuSans-5f" x="227.34375"/>
      <use xlink:href="#DejaVuSans-6c" x="277.34375"/>
      <use xlink:href="#DejaVuSans-65" x="305.126953"/>
      <use xlink:href="#DejaVuSans-6e" x="366.650391"/>
      <use xlink:href="#DejaVuSans-67" x="430.029297"/>
      <use xlink:href="#DejaVuSans-74" x="493.505859"/>
      <use xlink:href="#DejaVuSans-68" x="532.714844"/>
     </g>
    </g>
   </g>
   <g id="patch_3">
    <path d="M 95.719067 270.779242 
L 95.719067 270.779242 
L 95.719067 270.779242 
L 95.719067 270.779242 
z
" clip-path="url(#pba9d37626e)" style="fill: #5875a4; stroke: #4c4c4c; stroke-width: 0.75; stroke-linejoin: miter"/>
   </g>
   <g id="PolyCollection_1">
    <defs>
     <path id="mdd97317f46" d="M 95.719067 -96.4299 
L 95.689341 -96.4299 
L 95.671437 -98.025243 
L 95.646972 -99.620586 
L 95.615788 -101.215929 
L 95.578679 -102.811272 
L 95.537344 -104.406615 
L 95.493992 -106.001958 
L 95.450737 -107.597301 
L 95.409035 -109.192644 
L 95.369499 -110.787987 
L 95.332235 -112.38333 
L 95.297582 -113.978673 
L 95.266794 -115.574016 
L 95.242194 -117.169359 
L 95.226481 -118.764702 
L 95.221361 -120.360045 
L 95.226054 -121.955389 
L 95.236323 -123.550732 
L 95.244416 -125.146075 
L 95.239662 -126.741418 
L 95.20887 -128.336761 
L 95.135393 -129.932104 
L 94.996038 -131.527447 
L 94.755945 -133.12279 
L 94.362865 -134.718133 
L 93.743474 -136.313476 
L 92.804818 -137.908819 
L 91.443296 -139.504162 
L 89.561609 -141.099505 
L 87.091386 -142.694848 
L 84.016605 -144.290191 
L 80.391684 -145.885534 
L 76.348803 -147.480877 
L 72.091639 -149.07622 
L 67.876328 -150.671563 
L 63.983652 -152.266906 
L 60.688066 -153.862249 
L 58.228651 -155.457592 
L 56.785112 -157.052935 
L 56.459813 -158.648278 
L 57.265905 -160.243621 
L 59.122301 -161.838964 
L 61.857662 -163.434307 
L 65.225787 -165.02965 
L 68.932571 -166.624993 
L 72.670612 -168.220336 
L 76.153911 -169.81568 
L 79.144788 -171.411023 
L 81.468888 -173.006366 
L 83.019897 -174.601709 
L 83.759691 -176.197052 
L 83.7192 -177.792395 
L 83.000668 -179.387738 
L 81.776488 -180.983081 
L 80.277408 -182.578424 
L 78.76584 -184.173767 
L 77.496712 -185.76911 
L 76.675059 -187.364453 
L 76.422283 -188.959796 
L 76.760444 -190.555139 
L 77.617727 -192.150482 
L 78.851752 -193.745825 
L 80.283443 -195.341168 
L 81.733399 -196.936511 
L 83.053809 -198.531854 
L 84.150609 -200.127197 
L 84.992187 -201.72254 
L 85.603297 -203.317883 
L 86.046251 -204.913226 
L 86.395392 -206.508569 
L 86.713381 -208.103912 
L 87.037234 -209.699255 
L 87.377939 -211.294598 
L 87.731534 -212.889941 
L 88.09461 -214.485284 
L 88.475795 -216.080627 
L 88.897524 -217.675971 
L 89.387793 -219.271314 
L 89.966699 -220.866657 
L 90.634804 -222.462 
L 91.368898 -224.057343 
L 92.126763 -225.652686 
L 92.858289 -227.248029 
L 93.51802 -228.843372 
L 94.074575 -230.438715 
L 94.514549 -232.034058 
L 94.841166 -233.629401 
L 95.06962 -235.224744 
L 95.221389 -236.820087 
L 95.319214 -238.41543 
L 95.383484 -240.010773 
L 95.43012 -241.606116 
L 95.46977 -243.201459 
L 95.508034 -244.796802 
L 95.546477 -246.392145 
L 95.584076 -247.987488 
L 95.618727 -249.582831 
L 95.648459 -251.178174 
L 95.67214 -252.773517 
L 95.689652 -254.36886 
L 95.719067 -254.36886 
L 95.719067 -254.36886 
L 95.719067 -252.773517 
L 95.719067 -251.178174 
L 95.719067 -249.582831 
L 95.719067 -247.987488 
L 95.719067 -246.392145 
L 95.719067 -244.796802 
L 95.719067 -243.201459 
L 95.719067 -241.606116 
L 95.719067 -240.010773 
L 95.719067 -238.41543 
L 95.719067 -236.820087 
L 95.719067 -235.224744 
L 95.719067 -233.629401 
L 95.719067 -232.034058 
L 95.719067 -230.438715 
L 95.719067 -228.843372 
L 95.719067 -227.248029 
L 95.719067 -225.652686 
L 95.719067 -224.057343 
L 95.719067 -222.462 
L 95.719067 -220.866657 
L 95.719067 -219.271314 
L 95.719067 -217.675971 
L 95.719067 -216.080627 
L 95.719067 -214.485284 
L 95.719067 -212.889941 
L 95.719067 -211.294598 
L 95.719067 -209.699255 
L 95.719067 -208.103912 
L 95.719067 -206.508569 
L 95.719067 -204.913226 
L 95.719067 -203.317883 
L 95.719067 -201.72254 
L 95.719067 -200.127197 
L 95.719067 -198.531854 
L 95.719067 -196.936511 
L 95.719067 -195.341168 
L 95.719067 -193.745825 
L 95.719067 -192.150482 
L 95.719067 -190.555139 
L 95.719067 -188.959796 
L 95.719067 -187.364453 
L 95.719067 -185.76911 
L 95.719067 -184.173767 
L 95.719067 -182.578424 
L 95.719067 -180.983081 
L 95.719067 -179.387738 
L 95.719067 -177.792395 
L 95.719067 -176.197052 
L 95.719067 -174.601709 
L 95.719067 -173.006366 
L 95.719067 -171.411023 
L 95.719067 -169.81568 
L 95.719067 -168.220336 
L 95.719067 -166.624993 
L 95.719067 -165.02965 
L 95.719067 -163.434307 
L 95.719067 -161.838964 
L 95.719067 -160.243621 
L 95.719067 -158.648278 
L 95.719067 -157.052935 
L 95.719067 -155.457592 
L 95.719067 -153.862249 
L 95.719067 -152.266906 
L 95.719067 -150.671563 
L 95.719067 -149.07622 
L 95.719067 -147.480877 
L 95.719067 -145.885534 
L 95.719067 -144.290191 
L 95.719067 -142.694848 
L 95.719067 -141.099505 
L 95.719067 -139.504162 
L 95.719067 -137.908819 
L 95.719067 -136.313476 
L 95.719067 -134.718133 
L 95.719067 -133.12279 
L 95.719067 -131.527447 
L 95.719067 -129.932104 
L 95.719067 -128.336761 
L 95.719067 -126.741418 
L 95.719067 -125.146075 
L 95.719067 -123.550732 
L 95.719067 -121.955389 
L 95.719067 -120.360045 
L 95.719067 -118.764702 
L 95.719067 -117.169359 
L 95.719067 -115.574016 
L 95.719067 -113.978673 
L 95.719067 -112.38333 
L 95.719067 -110.787987 
L 95.719067 -109.192644 
L 95.719067 -107.597301 
L 95.719067 -106.001958 
L 95.719067 -104.406615 
L 95.719067 -102.811272 
L 95.719067 -101.215929 
L 95.719067 -99.620586 
L 95.719067 -98.025243 
L 95.719067 -96.4299 
z
" style="stroke: #4c4c4c; stroke-width: 1.5"/>
    </defs>
    <g clip-path="url(#pba9d37626e)">
     <use xlink:href="#mdd97317f46" x="0" y="347.739687" style="fill: #5875a4; stroke: #4c4c4c; stroke-width: 1.5"/>
    </g>
   </g>
   <g id="patch_4">
    <path d="M 95.719067 270.779242 
L 95.719067 270.779242 
L 95.719067 270.779242 
L 95.719067 270.779242 
z
" clip-path="url(#pba9d37626e)" style="fill: #cc8963; stroke: #4c4c4c; stroke-width: 0.75; stroke-linejoin: miter"/>
   </g>
   <g id="PolyCollection_2">
    <defs>
     <path id="m6857661591" d="M 95.791181 -101.226314 
L 95.719067 -101.226314 
L 95.719067 -102.834845 
L 95.719067 -104.443376 
L 95.719067 -106.051907 
L 95.719067 -107.660439 
L 95.719067 -109.26897 
L 95.719067 -110.877501 
L 95.719067 -112.486032 
L 95.719067 -114.094564 
L 95.719067 -115.703095 
L 95.719067 -117.311626 
L 95.719067 -118.920157 
L 95.719067 -120.528688 
L 95.719067 -122.13722 
L 95.719067 -123.745751 
L 95.719067 -125.354282 
L 95.719067 -126.962813 
L 95.719067 -128.571345 
L 95.719067 -130.179876 
L 95.719067 -131.788407 
L 95.719067 -133.396938 
L 95.719067 -135.005469 
L 95.719067 -136.614001 
L 95.719067 -138.222532 
L 95.719067 -139.831063 
L 95.719067 -141.439594 
L 95.719067 -143.048126 
L 95.719067 -144.656657 
L 95.719067 -146.265188 
L 95.719067 -147.873719 
L 95.719067 -149.482251 
L 95.719067 -151.090782 
L 95.719067 -152.699313 
L 95.719067 -154.307844 
L 95.719067 -155.916375 
L 95.719067 -157.524907 
L 95.719067 -159.133438 
L 95.719067 -160.741969 
L 95.719067 -162.3505 
L 95.719067 -163.959032 
L 95.719067 -165.567563 
L 95.719067 -167.176094 
L 95.719067 -168.784625 
L 95.719067 -170.393157 
L 95.719067 -172.001688 
L 95.719067 -173.610219 
L 95.719067 -175.21875 
L 95.719067 -176.827281 
L 95.719067 -178.435813 
L 95.719067 -180.044344 
L 95.719067 -181.652875 
L 95.719067 -183.261406 
L 95.719067 -184.869938 
L 95.719067 -186.478469 
L 95.719067 -188.087 
L 95.719067 -189.695531 
L 95.719067 -191.304063 
L 95.719067 -192.912594 
L 95.719067 -194.521125 
L 95.719067 -196.129656 
L 95.719067 -197.738187 
L 95.719067 -199.346719 
L 95.719067 -200.95525 
L 95.719067 -202.563781 
L 95.719067 -204.172312 
L 95.719067 -205.780844 
L 95.719067 -207.389375 
L 95.719067 -208.997906 
L 95.719067 -210.606437 
L 95.719067 -212.214969 
L 95.719067 -213.8235 
L 95.719067 -215.432031 
L 95.719067 -217.040562 
L 95.719067 -218.649093 
L 95.719067 -220.257625 
L 95.719067 -221.866156 
L 95.719067 -223.474687 
L 95.719067 -225.083218 
L 95.719067 -226.69175 
L 95.719067 -228.300281 
L 95.719067 -229.908812 
L 95.719067 -231.517343 
L 95.719067 -233.125875 
L 95.719067 -234.734406 
L 95.719067 -236.342937 
L 95.719067 -237.951468 
L 95.719067 -239.559999 
L 95.719067 -241.168531 
L 95.719067 -242.777062 
L 95.719067 -244.385593 
L 95.719067 -245.994124 
L 95.719067 -247.602656 
L 95.719067 -249.211187 
L 95.719067 -250.819718 
L 95.719067 -252.428249 
L 95.719067 -254.03678 
L 95.719067 -255.645312 
L 95.719067 -257.253843 
L 95.719067 -258.862374 
L 95.719067 -260.470905 
L 95.775007 -260.470905 
L 95.775007 -260.470905 
L 95.814214 -258.862374 
L 95.870814 -257.253843 
L 95.946014 -255.645312 
L 96.037355 -254.03678 
L 96.137685 -252.428249 
L 96.235393 -250.819718 
L 96.316295 -249.211187 
L 96.36691 -247.602656 
L 96.37814 -245.994124 
L 96.348006 -244.385593 
L 96.28238 -242.777062 
L 96.193476 -241.168531 
L 96.096802 -239.559999 
L 96.007928 -237.951468 
L 95.940301 -236.342937 
L 95.904727 -234.734406 
L 95.910315 -233.125875 
L 95.966013 -231.517343 
L 96.081769 -229.908812 
L 96.268584 -228.300281 
L 96.537262 -226.69175 
L 96.896194 -225.083218 
L 97.348926 -223.474687 
L 97.892407 -221.866156 
L 98.516686 -220.257625 
L 99.206437 -218.649093 
L 99.944024 -217.040562 
L 100.713218 -215.432031 
L 101.502339 -213.8235 
L 102.305889 -212.214969 
L 103.124557 -210.606437 
L 103.964344 -208.997906 
L 104.835891 -207.389375 
L 105.754515 -205.780844 
L 106.740374 -204.172312 
L 107.817287 -202.563781 
L 109.008788 -200.95525 
L 110.330985 -199.346719 
L 111.783272 -197.738187 
L 113.339165 -196.129656 
L 114.940187 -194.521125 
L 116.495765 -192.912594 
L 117.89164 -191.304063 
L 119.007827 -189.695531 
L 119.744373 -188.087 
L 120.049314 -186.478469 
L 119.939924 -184.869938 
L 119.508042 -183.261406 
L 118.90458 -181.652875 
L 118.306142 -180.044344 
L 117.874402 -178.435813 
L 117.721974 -176.827281 
L 117.895154 -175.21875 
L 118.375866 -173.610219 
L 119.097383 -172.001688 
L 119.964819 -170.393157 
L 120.873087 -168.784625 
L 121.719536 -167.176094 
L 122.412212 -165.567563 
L 122.875835 -163.959032 
L 123.056438 -162.3505 
L 122.923989 -160.741969 
L 122.471579 -159.133438 
L 121.710407 -157.524907 
L 120.661391 -155.916375 
L 119.346185 -154.307844 
L 117.781625 -152.699313 
L 115.981101 -151.090782 
L 113.963505 -149.482251 
L 111.766137 -147.873719 
L 109.454703 -146.265188 
L 107.123685 -144.656657 
L 104.884572 -143.048126 
L 102.845431 -141.439594 
L 101.089766 -139.831063 
L 99.662793 -138.222532 
L 98.569396 -136.614001 
L 97.782553 -135.005469 
L 97.257013 -133.396938 
L 96.942225 -131.788407 
L 96.790597 -130.179876 
L 96.760323 -128.571345 
L 96.81451 -126.962813 
L 96.919193 -125.354282 
L 97.04226 -123.745751 
L 97.154089 -122.13722 
L 97.2296 -120.528688 
L 97.25081 -118.920157 
L 97.208908 -117.311626 
L 97.105097 -115.703095 
L 96.94978 -114.094564 
L 96.760136 -112.486032 
L 96.556541 -110.877501 
L 96.358629 -109.26897 
L 96.181973 -107.660439 
L 96.036109 -106.051907 
L 95.92424 -104.443376 
L 95.84436 -102.834845 
L 95.791181 -101.226314 
z
" style="stroke: #4c4c4c; stroke-width: 1.5"/>
    </defs>
    <g clip-path="url(#pba9d37626e)">
     <use xlink:href="#m6857661591" x="0" y="347.739687" style="fill: #cc8963; stroke: #4c4c4c; stroke-width: 1.5"/>
    </g>
   </g>
   <g id="PolyCollection_3">
    <defs>
     <path id="m22e4ee83b5" d="M 193.8672 -77.715496 
L 193.831141 -77.715496 
L 193.808983 -79.207286 
L 193.777136 -80.699075 
L 193.733429 -82.190865 
L 193.676034 -83.682654 
L 193.603748 -85.174443 
L 193.516224 -86.666233 
L 193.414092 -88.158022 
L 193.298968 -89.649811 
L 193.173373 -91.141601 
L 193.040614 -92.63339 
L 192.904693 -94.12518 
L 192.770331 -95.616969 
L 192.643089 -97.108758 
L 192.529524 -98.600548 
L 192.437136 -100.092337 
L 192.37386 -101.584127 
L 192.346891 -103.075916 
L 192.360904 -104.567705 
L 192.416062 -106.059495 
L 192.506442 -107.551284 
L 192.619502 -109.043073 
L 192.7369 -110.534863 
L 192.836511 -112.026652 
L 192.895053 -113.518442 
L 192.890618 -115.010231 
L 192.804566 -116.50202 
L 192.622642 -117.99381 
L 192.335527 -119.485599 
L 191.939203 -120.977389 
L 191.435457 -122.469178 
L 190.832635 -123.960967 
L 190.146448 -125.452757 
L 189.400347 -126.944546 
L 188.624721 -128.436335 
L 187.854048 -129.928125 
L 187.121344 -131.419914 
L 186.450007 -132.911704 
L 185.844392 -134.403493 
L 185.281808 -135.895282 
L 184.709324 -137.387072 
L 184.048144 -138.878861 
L 183.206136 -140.37065 
L 182.096076 -141.86244 
L 180.654625 -143.354229 
L 178.856369 -144.846019 
L 176.719071 -146.337808 
L 174.299915 -147.829597 
L 171.686215 -149.321387 
L 168.98588 -150.813176 
L 166.32167 -152.304966 
L 163.829645 -153.796755 
L 161.658183 -155.288544 
L 159.961988 -156.780334 
L 158.887115 -158.272123 
L 158.547628 -159.763912 
L 158.999728 -161.255702 
L 160.222162 -162.747491 
L 162.11075 -164.239281 
L 164.490116 -165.73107 
L 167.13966 -167.222859 
L 169.826135 -168.714649 
L 172.334113 -170.206438 
L 174.488091 -171.698228 
L 176.164399 -173.190017 
L 177.294956 -174.681806 
L 177.866515 -176.173596 
L 177.918006 -177.665385 
L 177.536218 -179.157174 
L 176.84809 -180.648964 
L 176.007749 -182.140753 
L 175.178148 -183.632543 
L 174.509756 -185.124332 
L 174.120626 -186.616121 
L 174.082395 -188.107911 
L 174.415179 -189.5997 
L 175.091775 -191.09149 
L 176.049184 -192.583279 
L 177.204056 -194.075068 
L 178.468515 -195.566858 
L 179.763541 -197.058647 
L 181.028264 -198.550436 
L 182.224556 -200.042226 
L 183.337089 -201.534015 
L 184.369571 -203.025805 
L 185.338245 -204.517594 
L 186.264082 -206.009383 
L 187.165265 -207.501173 
L 188.0515 -208.992962 
L 188.92125 -210.484752 
L 189.762276 -211.976541 
L 190.554995 -213.46833 
L 191.277494 -214.96012 
L 191.910695 -216.451909 
L 192.442334 -217.943698 
L 192.868909 -219.435488 
L 193.195474 -220.927277 
L 193.433738 -222.419067 
L 193.599287 -223.910856 
L 193.708763 -225.402645 
L 193.8672 -225.402645 
L 193.8672 -225.402645 
L 193.8672 -223.910856 
L 193.8672 -222.419067 
L 193.8672 -220.927277 
L 193.8672 -219.435488 
L 193.8672 -217.943698 
L 193.8672 -216.451909 
L 193.8672 -214.96012 
L 193.8672 -213.46833 
L 193.8672 -211.976541 
L 193.8672 -210.484752 
L 193.8672 -208.992962 
L 193.8672 -207.501173 
L 193.8672 -206.009383 
L 193.8672 -204.517594 
L 193.8672 -203.025805 
L 193.8672 -201.534015 
L 193.8672 -200.042226 
L 193.8672 -198.550436 
L 193.8672 -197.058647 
L 193.8672 -195.566858 
L 193.8672 -194.075068 
L 193.8672 -192.583279 
L 193.8672 -191.09149 
L 193.8672 -189.5997 
L 193.8672 -188.107911 
L 193.8672 -186.616121 
L 193.8672 -185.124332 
L 193.8672 -183.632543 
L 193.8672 -182.140753 
L 193.8672 -180.648964 
L 193.8672 -179.157174 
L 193.8672 -177.665385 
L 193.8672 -176.173596 
L 193.8672 -174.681806 
L 193.8672 -173.190017 
L 193.8672 -171.698228 
L 193.8672 -170.206438 
L 193.8672 -168.714649 
L 193.8672 -167.222859 
L 193.8672 -165.73107 
L 193.8672 -164.239281 
L 193.8672 -162.747491 
L 193.8672 -161.255702 
L 193.8672 -159.763912 
L 193.8672 -158.272123 
L 193.8672 -156.780334 
L 193.8672 -155.288544 
L 193.8672 -153.796755 
L 193.8672 -152.304966 
L 193.8672 -150.813176 
L 193.8672 -149.321387 
L 193.8672 -147.829597 
L 193.8672 -146.337808 
L 193.8672 -144.846019 
L 193.8672 -143.354229 
L 193.8672 -141.86244 
L 193.8672 -140.37065 
L 193.8672 -138.878861 
L 193.8672 -137.387072 
L 193.8672 -135.895282 
L 193.8672 -134.403493 
L 193.8672 -132.911704 
L 193.8672 -131.419914 
L 193.8672 -129.928125 
L 193.8672 -128.436335 
L 193.8672 -126.944546 
L 193.8672 -125.452757 
L 193.8672 -123.960967 
L 193.8672 -122.469178 
L 193.8672 -120.977389 
L 193.8672 -119.485599 
L 193.8672 -117.99381 
L 193.8672 -116.50202 
L 193.8672 -115.010231 
L 193.8672 -113.518442 
L 193.8672 -112.026652 
L 193.8672 -110.534863 
L 193.8672 -109.043073 
L 193.8672 -107.551284 
L 193.8672 -106.059495 
L 193.8672 -104.567705 
L 193.8672 -103.075916 
L 193.8672 -101.584127 
L 193.8672 -100.092337 
L 193.8672 -98.600548 
L 193.8672 -97.108758 
L 193.8672 -95.616969 
L 193.8672 -94.12518 
L 193.8672 -92.63339 
L 193.8672 -91.141601 
L 193.8672 -89.649811 
L 193.8672 -88.158022 
L 193.8672 -86.666233 
L 193.8672 -85.174443 
L 193.8672 -83.682654 
L 193.8672 -82.190865 
L 193.8672 -80.699075 
L 193.8672 -79.207286 
L 193.8672 -77.715496 
z
" style="stroke: #4c4c4c; stroke-width: 1.5"/>
    </defs>
    <g clip-path="url(#pba9d37626e)">
     <use xlink:href="#m22e4ee83b5" x="0" y="347.739687" style="fill: #5875a4; stroke: #4c4c4c; stroke-width: 1.5"/>
    </g>
   </g>
   <g id="PolyCollection_4">
    <defs>
     <path id="mffb7bcd105" d="M 193.902124 -81.286421 
L 193.8672 -81.286421 
L 193.8672 -82.722881 
L 193.8672 -84.159341 
L 193.8672 -85.5958 
L 193.8672 -87.03226 
L 193.8672 -88.46872 
L 193.8672 -89.905179 
L 193.8672 -91.341639 
L 193.8672 -92.778099 
L 193.8672 -94.214559 
L 193.8672 -95.651018 
L 193.8672 -97.087478 
L 193.8672 -98.523938 
L 193.8672 -99.960397 
L 193.8672 -101.396857 
L 193.8672 -102.833317 
L 193.8672 -104.269777 
L 193.8672 -105.706236 
L 193.8672 -107.142696 
L 193.8672 -108.579156 
L 193.8672 -110.015615 
L 193.8672 -111.452075 
L 193.8672 -112.888535 
L 193.8672 -114.324994 
L 193.8672 -115.761454 
L 193.8672 -117.197914 
L 193.8672 -118.634374 
L 193.8672 -120.070833 
L 193.8672 -121.507293 
L 193.8672 -122.943753 
L 193.8672 -124.380212 
L 193.8672 -125.816672 
L 193.8672 -127.253132 
L 193.8672 -128.689592 
L 193.8672 -130.126051 
L 193.8672 -131.562511 
L 193.8672 -132.998971 
L 193.8672 -134.43543 
L 193.8672 -135.87189 
L 193.8672 -137.30835 
L 193.8672 -138.74481 
L 193.8672 -140.181269 
L 193.8672 -141.617729 
L 193.8672 -143.054189 
L 193.8672 -144.490648 
L 193.8672 -145.927108 
L 193.8672 -147.363568 
L 193.8672 -148.800028 
L 193.8672 -150.236487 
L 193.8672 -151.672947 
L 193.8672 -153.109407 
L 193.8672 -154.545866 
L 193.8672 -155.982326 
L 193.8672 -157.418786 
L 193.8672 -158.855245 
L 193.8672 -160.291705 
L 193.8672 -161.728165 
L 193.8672 -163.164625 
L 193.8672 -164.601084 
L 193.8672 -166.037544 
L 193.8672 -167.474004 
L 193.8672 -168.910463 
L 193.8672 -170.346923 
L 193.8672 -171.783383 
L 193.8672 -173.219843 
L 193.8672 -174.656302 
L 193.8672 -176.092762 
L 193.8672 -177.529222 
L 193.8672 -178.965681 
L 193.8672 -180.402141 
L 193.8672 -181.838601 
L 193.8672 -183.275061 
L 193.8672 -184.71152 
L 193.8672 -186.14798 
L 193.8672 -187.58444 
L 193.8672 -189.020899 
L 193.8672 -190.457359 
L 193.8672 -191.893819 
L 193.8672 -193.330279 
L 193.8672 -194.766738 
L 193.8672 -196.203198 
L 193.8672 -197.639658 
L 193.8672 -199.076117 
L 193.8672 -200.512577 
L 193.8672 -201.949037 
L 193.8672 -203.385496 
L 193.8672 -204.821956 
L 193.8672 -206.258416 
L 193.8672 -207.694876 
L 193.8672 -209.131335 
L 193.8672 -210.567795 
L 193.8672 -212.004255 
L 193.8672 -213.440714 
L 193.8672 -214.877174 
L 193.8672 -216.313634 
L 193.8672 -217.750094 
L 193.8672 -219.186553 
L 193.8672 -220.623013 
L 193.8672 -222.059473 
L 193.8672 -223.495932 
L 193.985779 -223.495932 
L 193.985779 -223.495932 
L 194.077154 -222.059473 
L 194.217748 -220.623013 
L 194.419753 -219.186553 
L 194.690714 -217.750094 
L 195.030157 -216.313634 
L 195.427999 -214.877174 
L 195.866359 -213.440714 
L 196.325301 -212.004255 
L 196.791362 -210.567795 
L 197.265891 -209.131335 
L 197.769503 -207.694876 
L 198.339863 -206.258416 
L 199.022686 -204.821956 
L 199.859075 -203.385496 
L 200.874798 -201.949037 
L 202.076994 -200.512577 
L 203.460733 -199.076117 
L 205.022412 -197.639658 
L 206.771564 -196.203198 
L 208.730464 -194.766738 
L 210.914375 -193.330279 
L 213.294643 -191.893819 
L 215.758609 -190.457359 
L 218.088421 -189.020899 
L 219.978932 -187.58444 
L 221.101033 -186.14798 
L 221.195497 -184.71152 
L 220.164286 -183.275061 
L 218.121975 -181.838601 
L 215.383775 -180.402141 
L 212.392615 -178.965681 
L 209.612722 -177.529222 
L 207.428654 -176.092762 
L 206.082159 -174.656302 
L 205.660102 -173.219843 
L 206.12559 -171.783383 
L 207.370678 -170.346923 
L 209.266332 -168.910463 
L 211.691869 -167.474004 
L 214.537573 -166.037544 
L 217.686289 -164.601084 
L 220.988903 -163.164625 
L 224.251585 -161.728165 
L 227.247761 -160.291705 
L 229.755577 -158.855245 
L 231.606948 -157.418786 
L 232.724687 -155.982326 
L 233.126453 -154.545866 
L 232.889645 -153.109407 
L 232.092952 -151.672947 
L 230.765785 -150.236487 
L 228.875497 -148.800028 
L 226.362796 -147.363568 
L 223.208279 -145.927108 
L 219.493906 -144.490648 
L 215.424488 -143.054189 
L 211.295272 -141.617729 
L 207.419796 -140.181269 
L 204.050876 -138.74481 
L 201.327598 -137.30835 
L 199.264934 -135.87189 
L 197.781494 -134.43543 
L 196.746501 -132.998971 
L 196.02478 -131.562511 
L 195.506028 -130.126051 
L 195.115269 -128.689592 
L 194.809343 -127.253132 
L 194.567028 -125.816672 
L 194.378959 -124.380212 
L 194.240387 -122.943753 
L 194.147125 -121.507293 
L 194.093766 -120.070833 
L 194.073106 -118.634374 
L 194.07619 -117.197914 
L 194.092851 -115.761454 
L 194.112759 -114.324994 
L 194.126883 -112.888535 
L 194.129016 -111.452075 
L 194.116838 -110.015615 
L 194.092109 -108.579156 
L 194.059874 -107.142696 
L 194.026954 -105.706236 
L 194.000225 -104.269777 
L 193.985124 -102.833317 
L 193.984654 -101.396857 
L 193.998897 -99.960397 
L 194.024998 -98.523938 
L 194.057591 -97.087478 
L 194.089732 -95.651018 
L 194.114291 -94.214559 
L 194.125569 -92.778099 
L 194.120669 -91.341639 
L 194.100136 -89.905179 
L 194.0676 -88.46872 
L 194.02856 -87.03226 
L 193.988785 -85.5958 
L 193.95293 -84.159341 
L 193.923765 -82.722881 
L 193.902124 -81.286421 
z
" style="stroke: #4c4c4c; stroke-width: 1.5"/>
    </defs>
    <g clip-path="url(#pba9d37626e)">
     <use xlink:href="#mffb7bcd105" x="0" y="347.739687" style="fill: #cc8963; stroke: #4c4c4c; stroke-width: 1.5"/>
    </g>
   </g>
   <g id="PolyCollection_5">
    <defs>
     <path id="m1f9205bb51" d="M 292.015333 -132.124235 
L 291.353715 -132.124235 
L 290.821523 -134.092812 
L 290.007021 -136.061389 
L 288.862631 -138.029965 
L 287.390428 -139.998542 
L 285.661047 -141.967119 
L 283.809281 -143.935695 
L 281.997531 -145.904272 
L 280.353292 -147.872849 
L 278.904228 -149.841425 
L 277.543118 -151.810002 
L 276.047195 -153.778579 
L 274.153322 -155.747155 
L 271.663336 -157.715732 
L 268.537497 -159.684309 
L 264.937484 -161.652885 
L 261.201654 -163.621462 
L 257.762868 -165.590038 
L 255.039082 -167.558615 
L 253.331488 -169.527192 
L 252.75608 -171.495768 
L 253.220878 -173.464345 
L 254.45053 -175.432922 
L 256.053857 -177.401498 
L 257.623692 -179.370075 
L 258.848218 -181.338652 
L 259.60207 -183.307228 
L 259.983143 -185.275805 
L 260.275049 -187.244382 
L 260.843464 -189.212958 
L 262.003805 -191.181535 
L 263.911104 -193.150112 
L 266.512204 -195.118688 
L 269.571457 -197.087265 
L 272.750534 -199.055842 
L 275.70633 -201.024418 
L 278.173492 -202.992995 
L 280.01306 -204.961572 
L 281.224624 -206.930148 
L 281.928441 -208.898725 
L 282.325919 -210.867301 
L 282.646784 -212.835878 
L 283.092853 -214.804455 
L 283.791326 -216.773031 
L 284.770744 -218.741608 
L 285.966893 -220.710185 
L 287.255273 -222.678761 
L 288.496544 -224.647338 
L 289.577487 -226.615915 
L 290.434448 -228.584491 
L 291.055661 -230.553068 
L 291.467836 -232.521645 
L 291.716591 -234.490221 
L 291.849233 -236.458798 
L 291.904302 -238.427375 
L 291.908176 -240.395951 
L 291.876574 -242.364528 
L 291.818233 -244.333105 
L 291.738584 -246.301681 
L 291.642191 -248.270258 
L 291.533722 -250.238834 
L 291.417932 -252.207411 
L 291.299573 -254.175988 
L 291.183907 -256.144564 
L 291.077837 -258.113141 
L 290.990817 -260.081718 
L 290.934432 -262.050294 
L 290.920069 -264.018871 
L 290.955229 -265.987448 
L 291.040078 -267.956024 
L 291.16597 -269.924601 
L 291.316848 -271.893178 
L 291.473018 -273.861754 
L 291.615713 -275.830331 
L 291.730697 -277.798908 
L 291.809918 -279.767484 
L 291.851304 -281.736061 
L 291.857594 -283.704638 
L 291.835127 -285.673214 
L 291.79296 -287.641791 
L 291.74202 -289.610367 
L 291.693699 -291.578944 
L 291.657677 -293.547521 
L 291.639463 -295.516097 
L 291.638746 -297.484674 
L 291.649619 -299.453251 
L 291.662966 -301.421827 
L 291.670268 -303.390404 
L 291.667224 -305.358981 
L 291.655619 -307.327557 
L 291.642564 -309.296134 
L 291.63748 -311.264711 
L 291.648226 -313.233287 
L 291.678056 -315.201864 
L 291.724654 -317.170441 
L 291.781387 -319.139017 
L 291.83993 -321.107594 
L 291.892982 -323.076171 
L 291.935985 -325.044747 
L 291.967507 -327.013324 
L 292.015333 -327.013324 
L 292.015333 -327.013324 
L 292.015333 -325.044747 
L 292.015333 -323.076171 
L 292.015333 -321.107594 
L 292.015333 -319.139017 
L 292.015333 -317.170441 
L 292.015333 -315.201864 
L 292.015333 -313.233287 
L 292.015333 -311.264711 
L 292.015333 -309.296134 
L 292.015333 -307.327557 
L 292.015333 -305.358981 
L 292.015333 -303.390404 
L 292.015333 -301.421827 
L 292.015333 -299.453251 
L 292.015333 -297.484674 
L 292.015333 -295.516097 
L 292.015333 -293.547521 
L 292.015333 -291.578944 
L 292.015333 -289.610367 
L 292.015333 -287.641791 
L 292.015333 -285.673214 
L 292.015333 -283.704638 
L 292.015333 -281.736061 
L 292.015333 -279.767484 
L 292.015333 -277.798908 
L 292.015333 -275.830331 
L 292.015333 -273.861754 
L 292.015333 -271.893178 
L 292.015333 -269.924601 
L 292.015333 -267.956024 
L 292.015333 -265.987448 
L 292.015333 -264.018871 
L 292.015333 -262.050294 
L 292.015333 -260.081718 
L 292.015333 -258.113141 
L 292.015333 -256.144564 
L 292.015333 -254.175988 
L 292.015333 -252.207411 
L 292.015333 -250.238834 
L 292.015333 -248.270258 
L 292.015333 -246.301681 
L 292.015333 -244.333105 
L 292.015333 -242.364528 
L 292.015333 -240.395951 
L 292.015333 -238.427375 
L 292.015333 -236.458798 
L 292.015333 -234.490221 
L 292.015333 -232.521645 
L 292.015333 -230.553068 
L 292.015333 -228.584491 
L 292.015333 -226.615915 
L 292.015333 -224.647338 
L 292.015333 -222.678761 
L 292.015333 -220.710185 
L 292.015333 -218.741608 
L 292.015333 -216.773031 
L 292.015333 -214.804455 
L 292.015333 -212.835878 
L 292.015333 -210.867301 
L 292.015333 -208.898725 
L 292.015333 -206.930148 
L 292.015333 -204.961572 
L 292.015333 -202.992995 
L 292.015333 -201.024418 
L 292.015333 -199.055842 
L 292.015333 -197.087265 
L 292.015333 -195.118688 
L 292.015333 -193.150112 
L 292.015333 -191.181535 
L 292.015333 -189.212958 
L 292.015333 -187.244382 
L 292.015333 -185.275805 
L 292.015333 -183.307228 
L 292.015333 -181.338652 
L 292.015333 -179.370075 
L 292.015333 -177.401498 
L 292.015333 -175.432922 
L 292.015333 -173.464345 
L 292.015333 -171.495768 
L 292.015333 -169.527192 
L 292.015333 -167.558615 
L 292.015333 -165.590038 
L 292.015333 -163.621462 
L 292.015333 -161.652885 
L 292.015333 -159.684309 
L 292.015333 -157.715732 
L 292.015333 -155.747155 
L 292.015333 -153.778579 
L 292.015333 -151.810002 
L 292.015333 -149.841425 
L 292.015333 -147.872849 
L 292.015333 -145.904272 
L 292.015333 -143.935695 
L 292.015333 -141.967119 
L 292.015333 -139.998542 
L 292.015333 -138.029965 
L 292.015333 -136.061389 
L 292.015333 -134.092812 
L 292.015333 -132.124235 
z
" style="stroke: #4c4c4c; stroke-width: 1.5"/>
    </defs>
    <g clip-path="url(#pba9d37626e)">
     <use xlink:href="#m1f9205bb51" x="0" y="347.739687" style="fill: #5875a4; stroke: #4c4c4c; stroke-width: 1.5"/>
    </g>
   </g>
   <g id="PolyCollection_6">
    <defs>
     <path id="m64497467fb" d="M 292.838934 -56.486051 
L 292.015333 -56.486051 
L 292.015333 -58.2241 
L 292.015333 -59.962148 
L 292.015333 -61.700197 
L 292.015333 -63.438246 
L 292.015333 -65.176294 
L 292.015333 -66.914343 
L 292.015333 -68.652391 
L 292.015333 -70.39044 
L 292.015333 -72.128489 
L 292.015333 -73.866537 
L 292.015333 -75.604586 
L 292.015333 -77.342634 
L 292.015333 -79.080683 
L 292.015333 -80.818732 
L 292.015333 -82.55678 
L 292.015333 -84.294829 
L 292.015333 -86.032877 
L 292.015333 -87.770926 
L 292.015333 -89.508975 
L 292.015333 -91.247023 
L 292.015333 -92.985072 
L 292.015333 -94.723121 
L 292.015333 -96.461169 
L 292.015333 -98.199218 
L 292.015333 -99.937266 
L 292.015333 -101.675315 
L 292.015333 -103.413364 
L 292.015333 -105.151412 
L 292.015333 -106.889461 
L 292.015333 -108.627509 
L 292.015333 -110.365558 
L 292.015333 -112.103607 
L 292.015333 -113.841655 
L 292.015333 -115.579704 
L 292.015333 -117.317752 
L 292.015333 -119.055801 
L 292.015333 -120.79385 
L 292.015333 -122.531898 
L 292.015333 -124.269947 
L 292.015333 -126.007995 
L 292.015333 -127.746044 
L 292.015333 -129.484093 
L 292.015333 -131.222141 
L 292.015333 -132.96019 
L 292.015333 -134.698238 
L 292.015333 -136.436287 
L 292.015333 -138.174336 
L 292.015333 -139.912384 
L 292.015333 -141.650433 
L 292.015333 -143.388482 
L 292.015333 -145.12653 
L 292.015333 -146.864579 
L 292.015333 -148.602627 
L 292.015333 -150.340676 
L 292.015333 -152.078725 
L 292.015333 -153.816773 
L 292.015333 -155.554822 
L 292.015333 -157.29287 
L 292.015333 -159.030919 
L 292.015333 -160.768968 
L 292.015333 -162.507016 
L 292.015333 -164.245065 
L 292.015333 -165.983113 
L 292.015333 -167.721162 
L 292.015333 -169.459211 
L 292.015333 -171.197259 
L 292.015333 -172.935308 
L 292.015333 -174.673356 
L 292.015333 -176.411405 
L 292.015333 -178.149454 
L 292.015333 -179.887502 
L 292.015333 -181.625551 
L 292.015333 -183.363599 
L 292.015333 -185.101648 
L 292.015333 -186.839697 
L 292.015333 -188.577745 
L 292.015333 -190.315794 
L 292.015333 -192.053843 
L 292.015333 -193.791891 
L 292.015333 -195.52994 
L 292.015333 -197.267988 
L 292.015333 -199.006037 
L 292.015333 -200.744086 
L 292.015333 -202.482134 
L 292.015333 -204.220183 
L 292.015333 -205.958231 
L 292.015333 -207.69628 
L 292.015333 -209.434329 
L 292.015333 -211.172377 
L 292.015333 -212.910426 
L 292.015333 -214.648474 
L 292.015333 -216.386523 
L 292.015333 -218.124572 
L 292.015333 -219.86262 
L 292.015333 -221.600669 
L 292.015333 -223.338717 
L 292.015333 -225.076766 
L 292.015333 -226.814815 
L 292.015333 -228.552863 
L 292.298441 -228.552863 
L 292.298441 -228.552863 
L 292.440769 -226.814815 
L 292.640293 -225.076766 
L 292.913169 -223.338717 
L 293.277357 -221.600669 
L 293.751808 -219.86262 
L 294.355303 -218.124572 
L 295.104971 -216.386523 
L 296.014569 -214.648474 
L 297.092653 -212.910426 
L 298.34079 -211.172377 
L 299.751989 -209.434329 
L 301.30951 -207.69628 
L 302.98622 -205.958231 
L 304.744627 -204.220183 
L 306.537731 -202.482134 
L 308.310787 -200.744086 
L 310.004085 -199.006037 
L 311.556743 -197.267988 
L 312.911442 -195.52994 
L 314.019843 -193.791891 
L 314.848212 -192.053843 
L 315.382594 -190.315794 
L 315.632686 -188.577745 
L 315.633576 -186.839697 
L 315.444628 -185.101648 
L 315.145155 -183.363599 
L 314.827012 -181.625551 
L 314.584772 -179.887502 
L 314.504679 -178.149454 
L 314.653869 -176.411405 
L 315.071447 -174.673356 
L 315.762788 -172.935308 
L 316.697957 -171.197259 
L 317.814502 -169.459211 
L 319.024199 -167.721162 
L 320.222697 -165.983113 
L 321.300638 -164.245065 
L 322.154667 -162.507016 
L 322.696923 -160.768968 
L 322.86196 -159.030919 
L 322.610619 -157.29287 
L 321.93088 -155.554822 
L 320.836192 -153.816773 
L 319.362021 -152.078725 
L 317.561409 -150.340676 
L 315.500188 -148.602627 
L 313.252274 -146.864579 
L 310.895212 -145.12653 
L 308.506037 -143.388482 
L 306.157408 -141.650433 
L 303.914107 -139.912384 
L 301.830035 -138.174336 
L 299.94596 -136.436287 
L 298.288268 -134.698238 
L 296.868873 -132.96019 
L 295.686317 -131.222141 
L 294.727875 -129.484093 
L 293.972378 -127.746044 
L 293.393318 -126.007995 
L 292.961869 -124.269947 
L 292.649467 -122.531898 
L 292.429774 -120.79385 
L 292.279943 -119.055801 
L 292.18124 -117.317752 
L 292.119166 -115.579704 
L 292.083248 -113.841655 
L 292.066666 -112.103607 
L 292.065863 -110.365558 
L 292.080217 -108.627509 
L 292.111821 -106.889461 
L 292.165319 -105.151412 
L 292.247736 -103.413364 
L 292.368172 -101.675315 
L 292.537222 -99.937266 
L 292.765997 -98.199218 
L 293.064692 -96.461169 
L 293.440719 -94.723121 
L 293.896575 -92.985072 
L 294.427747 -91.247023 
L 295.021073 -89.508975 
L 295.654003 -87.770926 
L 296.29515 -86.032877 
L 296.906345 -84.294829 
L 297.446127 -82.55678 
L 297.87427 -80.818732 
L 298.156703 -79.080683 
L 298.269976 -77.342634 
L 298.204476 -75.604586 
L 297.965776 -73.866537 
L 297.573848 -72.128489 
L 297.060307 -70.39044 
L 296.464202 -68.652391 
L 295.827139 -66.914343 
L 295.18857 -65.176294 
L 294.581972 -63.438246 
L 294.032386 -61.700197 
L 293.555473 -59.962148 
L 293.157931 -58.2241 
L 292.838934 -56.486051 
z
" style="stroke: #4c4c4c; stroke-width: 1.5"/>
    </defs>
    <g clip-path="url(#pba9d37626e)">
     <use xlink:href="#m64497467fb" x="0" y="347.739687" style="fill: #cc8963; stroke: #4c4c4c; stroke-width: 1.5"/>
    </g>
   </g>
   <g id="line2d_9">
    <path d="M 95.719067 234.093981 
L 95.719067 117.558111 
" clip-path="url(#pba9d37626e)" style="fill: none; stroke: #4c4c4c; stroke-width: 1.5; stroke-linecap: round"/>
   </g>
   <g id="line2d_10">
    <path d="M 95.719067 189.965758 
L 95.719067 158.768617 
" clip-path="url(#pba9d37626e)" style="fill: none; stroke: #4c4c4c; stroke-width: 4.5; stroke-linecap: round"/>
   </g>
   <g id="line2d_11">
    <path d="M 193.8672 240.474295 
L 193.8672 135.297399 
" clip-path="url(#pba9d37626e)" style="fill: none; stroke: #4c4c4c; stroke-width: 1.5; stroke-linecap: round"/>
   </g>
   <g id="line2d_12">
    <path d="M 193.8672 194.696368 
L 193.8672 163.70778 
" clip-path="url(#pba9d37626e)" style="fill: none; stroke: #4c4c4c; stroke-width: 4.5; stroke-linecap: round"/>
   </g>
   <g id="line2d_13">
    <path d="M 292.015333 204.392746 
L 292.015333 128.390756 
" clip-path="url(#pba9d37626e)" style="fill: none; stroke: #4c4c4c; stroke-width: 1.5; stroke-linecap: round"/>
   </g>
   <g id="line2d_14">
    <path d="M 292.015333 187.707679 
L 292.015333 157.876795 
" clip-path="url(#pba9d37626e)" style="fill: none; stroke: #4c4c4c; stroke-width: 4.5; stroke-linecap: round"/>
   </g>
   <g id="patch_5">
    <path d="M 46.645 304.78 
L 46.645 7.2 
" style="fill: none; stroke: #cccccc; stroke-width: 1.25; stroke-linejoin: miter; stroke-linecap: square"/>
   </g>
   <g id="patch_6">
    <path d="M 46.645 304.78 
L 341.0894 304.78 
" style="fill: none; stroke: #cccccc; stroke-width: 1.25; stroke-linejoin: miter; stroke-linecap: square"/>
   </g>
   <g id="PathCollection_1">
    <defs>
     <path id="m19ed15b7dc" d="M 0 1.5 
C 0.397805 1.5 0.77937 1.341951 1.06066 1.06066 
C 1.341951 0.77937 1.5 0.397805 1.5 0 
C 1.5 -0.397805 1.341951 -0.77937 1.06066 -1.06066 
C 0.77937 -1.341951 0.397805 -1.5 0 -1.5 
C -0.397805 -1.5 -0.77937 -1.341951 -1.06066 -1.06066 
C -1.341951 -0.77937 -1.5 -0.397805 -1.5 0 
C -1.5 0.397805 -1.341951 0.77937 -1.06066 1.06066 
C -0.77937 1.341951 -0.397805 1.5 0 1.5 
z
" style="stroke: #4c4c4c"/>
    </defs>
    <g clip-path="url(#pba9d37626e)">
     <use xlink:href="#m19ed15b7dc" x="95.719067" y="179.001109" style="fill: #ffffff; stroke: #4c4c4c"/>
    </g>
   </g>
   <g id="PathCollection_2">
    <g clip-path="url(#pba9d37626e)">
     <use xlink:href="#m19ed15b7dc" x="193.8672" y="185.607998" style="fill: #ffffff; stroke: #4c4c4c"/>
    </g>
   </g>
   <g id="PathCollection_3">
    <g clip-path="url(#pba9d37626e)">
     <use xlink:href="#m19ed15b7dc" x="292.015333" y="175.220152" style="fill: #ffffff; stroke: #4c4c4c"/>
    </g>
   </g>
  </g>
  <g id="legend_1">
   <g id="text_14">
    <!-- dim -->
    <g style="fill: #262626" transform="translate(356.914072 161.035156)scale(0.12 -0.12)">
     <defs>
      <path id="DejaVuSans-69" d="M 603 3500 
L 1178 3500 
L 1178 0 
L 603 0 
L 603 3500 
z
M 603 4863 
L 1178 4863 
L 1178 4134 
L 603 4134 
L 603 4863 
z
" transform="scale(0.015625)"/>
      <path id="DejaVuSans-6d" d="M 3328 2828 
Q 3544 3216 3844 3400 
Q 4144 3584 4550 3584 
Q 5097 3584 5394 3201 
Q 5691 2819 5691 2113 
L 5691 0 
L 5113 0 
L 5113 2094 
Q 5113 2597 4934 2840 
Q 4756 3084 4391 3084 
Q 3944 3084 3684 2787 
Q 3425 2491 3425 1978 
L 3425 0 
L 2847 0 
L 2847 2094 
Q 2847 2600 2669 2842 
Q 2491 3084 2119 3084 
Q 1678 3084 1418 2786 
Q 1159 2488 1159 1978 
L 1159 0 
L 581 0 
L 581 3500 
L 1159 3500 
L 1159 2956 
Q 1356 3278 1631 3431 
Q 1906 3584 2284 3584 
Q 2666 3584 2933 3390 
Q 3200 3197 3328 2828 
z
" transform="scale(0.015625)"/>
     </defs>
     <use xlink:href="#DejaVuSans-64"/>
     <use xlink:href="#DejaVuSans-69" x="63.476562"/>
     <use xlink:href="#DejaVuSans-6d" x="91.259766"/>
    </g>
   </g>
   <g id="patch_7">
    <path d="M 345.843369 177.389062 
L 367.843369 177.389062 
L 367.843369 169.689062 
L 345.843369 169.689062 
z
" style="fill: #5875a4; stroke: #4c4c4c; stroke-width: 0.75; stroke-linejoin: miter"/>
   </g>
   <g id="text_15">
    <!-- 2d -->
    <g style="fill: #262626" transform="translate(376.643369 177.389062)scale(0.11 -0.11)">
     <use xlink:href="#DejaVuSans-32"/>
     <use xlink:href="#DejaVuSans-64" x="63.623047"/>
    </g>
   </g>
   <g id="patch_8">
    <path d="M 345.843369 193.535 
L 367.843369 193.535 
L 367.843369 185.835 
L 345.843369 185.835 
z
" style="fill: #cc8963; stroke: #4c4c4c; stroke-width: 0.75; stroke-linejoin: miter"/>
   </g>
   <g id="text_16">
    <!-- 3d -->
    <g style="fill: #262626" transform="translate(376.643369 193.535)scale(0.11 -0.11)">
     <use xlink:href="#DejaVuSans-33"/>
     <use xlink:href="#DejaVuSans-64" x="63.623047"/>
    </g>
   </g>
  </g>
 </g>
 <defs>
  <clipPath id="pba9d37626e">
   <rect x="46.645" y="7.2" width="294.4444" height="297.58"/>
  </clipPath>
 </defs>
</svg>
