<?xml version="1.0" encoding="utf-8" standalone="no"?>
<!DOCTYPE svg PUBLIC "-//W3C//DTD SVG 1.1//EN"
  "http://www.w3.org/Graphics/SVG/1.1/DTD/svg11.dtd">
<svg xmlns:xlink="http://www.w3.org/1999/xlink" width="399.100365pt" height="347.739687pt" viewBox="0 0 399.100365 347.739687" xmlns="http://www.w3.org/2000/svg" version="1.1">
 <metadata>
  <rdf:RDF xmlns:dc="http://purl.org/dc/elements/1.1/" xmlns:cc="http://creativecommons.org/ns#" xmlns:rdf="http://www.w3.org/1999/02/22-rdf-syntax-ns#">
   <cc:Work>
    <dc:type rdf:resource="http://purl.org/dc/dcmitype/StillImage"/>
    <dc:date>2022-03-28T16:33:38.256907</dc:date>
    <dc:format>image/svg+xml</dc:format>
    <dc:creator>
     <cc:Agent>
      <dc:title>Matplotlib v3.5.1, https://matplotlib.org/</dc:title>
     </cc:Agent>
    </dc:creator>
   </cc:Work>
  </rdf:RDF>
 </metadata>
 <defs>
  <style type="text/css">*{stroke-linejoin: round; stroke-linecap: butt}</style>
 </defs>
 <g id="figure_1">
  <g id="patch_1">
   <path d="M 0 347.739687 
L 399.100365 347.739687 
L 399.100365 0 
L 0 0 
z
" style="fill: #ffffff"/>
  </g>
  <g id="axes_1">
   <g id="patch_2">
    <path d="M 57.139688 304.78 
L 339.664365 304.78 
L 339.664365 7.2 
L 57.139688 7.2 
z
" style="fill: #ffffff"/>
   </g>
   <g id="matplotlib.axis_1">
    <g id="xtick_1">
     <g id="line2d_1">
      <defs>
       <path id="mf71164564c" d="M 0 0 
L 0 6 
" style="stroke: #262626; stroke-width: 1.25"/>
      </defs>
      <g>
       <use xlink:href="#mf71164564c" x="104.227134" y="304.78" style="fill: #262626; stroke: #262626; stroke-width: 1.25"/>
      </g>
     </g>
     <g id="text_1">
      <!-- teb -->
      <g style="fill: #262626" transform="translate(95.195103 322.638281)scale(0.11 -0.11)">
       <defs>
        <path id="DejaVuSans-74" d="M 1172 4494 
L 1172 3500 
L 2356 3500 
L 2356 3053 
L 1172 3053 
L 1172 1153 
Q 1172 725 1289 603 
Q 1406 481 1766 481 
L 2356 481 
L 2356 0 
L 1766 0 
Q 1100 0 847 248 
Q 594 497 594 1153 
L 594 3053 
L 172 3053 
L 172 3500 
L 594 3500 
L 594 4494 
L 1172 4494 
z
" transform="scale(0.015625)"/>
        <path id="DejaVuSans-65" d="M 3597 1894 
L 3597 1613 
L 953 1613 
Q 991 1019 1311 708 
Q 1631 397 2203 397 
Q 2534 397 2845 478 
Q 3156 559 3463 722 
L 3463 178 
Q 3153 47 2828 -22 
Q 2503 -91 2169 -91 
Q 1331 -91 842 396 
Q 353 884 353 1716 
Q 353 2575 817 3079 
Q 1281 3584 2069 3584 
Q 2775 3584 3186 3129 
Q 3597 2675 3597 1894 
z
M 3022 2063 
Q 3016 2534 2758 2815 
Q 2500 3097 2075 3097 
Q 1594 3097 1305 2825 
Q 1016 2553 972 2059 
L 3022 2063 
z
" transform="scale(0.015625)"/>
        <path id="DejaVuSans-62" d="M 3116 1747 
Q 3116 2381 2855 2742 
Q 2594 3103 2138 3103 
Q 1681 3103 1420 2742 
Q 1159 2381 1159 1747 
Q 1159 1113 1420 752 
Q 1681 391 2138 391 
Q 2594 391 2855 752 
Q 3116 1113 3116 1747 
z
M 1159 2969 
Q 1341 3281 1617 3432 
Q 1894 3584 2278 3584 
Q 2916 3584 3314 3078 
Q 3713 2572 3713 1747 
Q 3713 922 3314 415 
Q 2916 -91 2278 -91 
Q 1894 -91 1617 61 
Q 1341 213 1159 525 
L 1159 0 
L 581 0 
L 581 4863 
L 1159 4863 
L 1159 2969 
z
" transform="scale(0.015625)"/>
       </defs>
       <use xlink:href="#DejaVuSans-74"/>
       <use xlink:href="#DejaVuSans-65" x="39.208984"/>
       <use xlink:href="#DejaVuSans-62" x="100.732422"/>
      </g>
     </g>
    </g>
    <g id="xtick_2">
     <g id="line2d_2">
      <g>
       <use xlink:href="#mf71164564c" x="198.402026" y="304.78" style="fill: #262626; stroke: #262626; stroke-width: 1.25"/>
      </g>
     </g>
     <g id="text_2">
      <!-- dwa -->
      <g style="fill: #262626" transform="translate(187.041948 322.638281)scale(0.11 -0.11)">
       <defs>
        <path id="DejaVuSans-64" d="M 2906 2969 
L 2906 4863 
L 3481 4863 
L 3481 0 
L 2906 0 
L 2906 525 
Q 2725 213 2448 61 
Q 2172 -91 1784 -91 
Q 1150 -91 751 415 
Q 353 922 353 1747 
Q 353 2572 751 3078 
Q 1150 3584 1784 3584 
Q 2172 3584 2448 3432 
Q 2725 3281 2906 2969 
z
M 947 1747 
Q 947 1113 1208 752 
Q 1469 391 1925 391 
Q 2381 391 2643 752 
Q 2906 1113 2906 1747 
Q 2906 2381 2643 2742 
Q 2381 3103 1925 3103 
Q 1469 3103 1208 2742 
Q 947 2381 947 1747 
z
" transform="scale(0.015625)"/>
        <path id="DejaVuSans-77" d="M 269 3500 
L 844 3500 
L 1563 769 
L 2278 3500 
L 2956 3500 
L 3675 769 
L 4391 3500 
L 4966 3500 
L 4050 0 
L 3372 0 
L 2619 2869 
L 1863 0 
L 1184 0 
L 269 3500 
z
" transform="scale(0.015625)"/>
        <path id="DejaVuSans-61" d="M 2194 1759 
Q 1497 1759 1228 1600 
Q 959 1441 959 1056 
Q 959 750 1161 570 
Q 1363 391 1709 391 
Q 2188 391 2477 730 
Q 2766 1069 2766 1631 
L 2766 1759 
L 2194 1759 
z
M 3341 1997 
L 3341 0 
L 2766 0 
L 2766 531 
Q 2569 213 2275 61 
Q 1981 -91 1556 -91 
Q 1019 -91 701 211 
Q 384 513 384 1019 
Q 384 1609 779 1909 
Q 1175 2209 1959 2209 
L 2766 2209 
L 2766 2266 
Q 2766 2663 2505 2880 
Q 2244 3097 1772 3097 
Q 1472 3097 1187 3025 
Q 903 2953 641 2809 
L 641 3341 
Q 956 3463 1253 3523 
Q 1550 3584 1831 3584 
Q 2591 3584 2966 3190 
Q 3341 2797 3341 1997 
z
" transform="scale(0.015625)"/>
       </defs>
       <use xlink:href="#DejaVuSans-64"/>
       <use xlink:href="#DejaVuSans-77" x="63.476562"/>
       <use xlink:href="#DejaVuSans-61" x="145.263672"/>
      </g>
     </g>
    </g>
    <g id="xtick_3">
     <g id="line2d_3">
      <g>
       <use xlink:href="#mf71164564c" x="292.576919" y="304.78" style="fill: #262626; stroke: #262626; stroke-width: 1.25"/>
      </g>
     </g>
     <g id="text_3">
      <!-- rosnav -->
      <g style="fill: #262626" transform="translate(274.097778 322.638281)scale(0.11 -0.11)">
       <defs>
        <path id="DejaVuSans-72" d="M 2631 2963 
Q 2534 3019 2420 3045 
Q 2306 3072 2169 3072 
Q 1681 3072 1420 2755 
Q 1159 2438 1159 1844 
L 1159 0 
L 581 0 
L 581 3500 
L 1159 3500 
L 1159 2956 
Q 1341 3275 1631 3429 
Q 1922 3584 2338 3584 
Q 2397 3584 2469 3576 
Q 2541 3569 2628 3553 
L 2631 2963 
z
" transform="scale(0.015625)"/>
        <path id="DejaVuSans-6f" d="M 1959 3097 
Q 1497 3097 1228 2736 
Q 959 2375 959 1747 
Q 959 1119 1226 758 
Q 1494 397 1959 397 
Q 2419 397 2687 759 
Q 2956 1122 2956 1747 
Q 2956 2369 2687 2733 
Q 2419 3097 1959 3097 
z
M 1959 3584 
Q 2709 3584 3137 3096 
Q 3566 2609 3566 1747 
Q 3566 888 3137 398 
Q 2709 -91 1959 -91 
Q 1206 -91 779 398 
Q 353 888 353 1747 
Q 353 2609 779 3096 
Q 1206 3584 1959 3584 
z
" transform="scale(0.015625)"/>
        <path id="DejaVuSans-73" d="M 2834 3397 
L 2834 2853 
Q 2591 2978 2328 3040 
Q 2066 3103 1784 3103 
Q 1356 3103 1142 2972 
Q 928 2841 928 2578 
Q 928 2378 1081 2264 
Q 1234 2150 1697 2047 
L 1894 2003 
Q 2506 1872 2764 1633 
Q 3022 1394 3022 966 
Q 3022 478 2636 193 
Q 2250 -91 1575 -91 
Q 1294 -91 989 -36 
Q 684 19 347 128 
L 347 722 
Q 666 556 975 473 
Q 1284 391 1588 391 
Q 1994 391 2212 530 
Q 2431 669 2431 922 
Q 2431 1156 2273 1281 
Q 2116 1406 1581 1522 
L 1381 1569 
Q 847 1681 609 1914 
Q 372 2147 372 2553 
Q 372 3047 722 3315 
Q 1072 3584 1716 3584 
Q 2034 3584 2315 3537 
Q 2597 3491 2834 3397 
z
" transform="scale(0.015625)"/>
        <path id="DejaVuSans-6e" d="M 3513 2113 
L 3513 0 
L 2938 0 
L 2938 2094 
Q 2938 2591 2744 2837 
Q 2550 3084 2163 3084 
Q 1697 3084 1428 2787 
Q 1159 2491 1159 1978 
L 1159 0 
L 581 0 
L 581 3500 
L 1159 3500 
L 1159 2956 
Q 1366 3272 1645 3428 
Q 1925 3584 2291 3584 
Q 2894 3584 3203 3211 
Q 3513 2838 3513 2113 
z
" transform="scale(0.015625)"/>
        <path id="DejaVuSans-76" d="M 191 3500 
L 800 3500 
L 1894 563 
L 2988 3500 
L 3597 3500 
L 2284 0 
L 1503 0 
L 191 3500 
z
" transform="scale(0.015625)"/>
       </defs>
       <use xlink:href="#DejaVuSans-72"/>
       <use xlink:href="#DejaVuSans-6f" x="38.863281"/>
       <use xlink:href="#DejaVuSans-73" x="100.044922"/>
       <use xlink:href="#DejaVuSans-6e" x="152.144531"/>
       <use xlink:href="#DejaVuSans-61" x="215.523438"/>
       <use xlink:href="#DejaVuSans-76" x="276.802734"/>
      </g>
     </g>
    </g>
    <g id="text_4">
     <!-- Planner -->
     <g style="fill: #262626" transform="translate(175.677026 338.044062)scale(0.12 -0.12)">
      <defs>
       <path id="DejaVuSans-50" d="M 1259 4147 
L 1259 2394 
L 2053 2394 
Q 2494 2394 2734 2622 
Q 2975 2850 2975 3272 
Q 2975 3691 2734 3919 
Q 2494 4147 2053 4147 
L 1259 4147 
z
M 628 4666 
L 2053 4666 
Q 2838 4666 3239 4311 
Q 3641 3956 3641 3272 
Q 3641 2581 3239 2228 
Q 2838 1875 2053 1875 
L 1259 1875 
L 1259 0 
L 628 0 
L 628 4666 
z
" transform="scale(0.015625)"/>
       <path id="DejaVuSans-6c" d="M 603 4863 
L 1178 4863 
L 1178 0 
L 603 0 
L 603 4863 
z
" transform="scale(0.015625)"/>
      </defs>
      <use xlink:href="#DejaVuSans-50"/>
      <use xlink:href="#DejaVuSans-6c" x="60.302734"/>
      <use xlink:href="#DejaVuSans-61" x="88.085938"/>
      <use xlink:href="#DejaVuSans-6e" x="149.365234"/>
      <use xlink:href="#DejaVuSans-6e" x="212.744141"/>
      <use xlink:href="#DejaVuSans-65" x="276.123047"/>
      <use xlink:href="#DejaVuSans-72" x="337.646484"/>
     </g>
    </g>
   </g>
   <g id="matplotlib.axis_2">
    <g id="ytick_1">
     <g id="line2d_4">
      <defs>
       <path id="m108bd14a71" d="M 0 0 
L -6 0 
" style="stroke: #262626; stroke-width: 1.25"/>
      </defs>
      <g>
       <use xlink:href="#m108bd14a71" x="57.139688" y="272.366071" style="fill: #262626; stroke: #262626; stroke-width: 1.25"/>
      </g>
     </g>
     <g id="text_5">
      <!-- 0.00 -->
      <g style="fill: #262626" transform="translate(23.1475 276.545212)scale(0.11 -0.11)">
       <defs>
        <path id="DejaVuSans-30" d="M 2034 4250 
Q 1547 4250 1301 3770 
Q 1056 3291 1056 2328 
Q 1056 1369 1301 889 
Q 1547 409 2034 409 
Q 2525 409 2770 889 
Q 3016 1369 3016 2328 
Q 3016 3291 2770 3770 
Q 2525 4250 2034 4250 
z
M 2034 4750 
Q 2819 4750 3233 4129 
Q 3647 3509 3647 2328 
Q 3647 1150 3233 529 
Q 2819 -91 2034 -91 
Q 1250 -91 836 529 
Q 422 1150 422 2328 
Q 422 3509 836 4129 
Q 1250 4750 2034 4750 
z
" transform="scale(0.015625)"/>
        <path id="DejaVuSans-2e" d="M 684 794 
L 1344 794 
L 1344 0 
L 684 0 
L 684 794 
z
" transform="scale(0.015625)"/>
       </defs>
       <use xlink:href="#DejaVuSans-30"/>
       <use xlink:href="#DejaVuSans-2e" x="63.623047"/>
       <use xlink:href="#DejaVuSans-30" x="95.410156"/>
       <use xlink:href="#DejaVuSans-30" x="159.033203"/>
      </g>
     </g>
    </g>
    <g id="ytick_2">
     <g id="line2d_5">
      <g>
       <use xlink:href="#m108bd14a71" x="57.139688" y="237.276145" style="fill: #262626; stroke: #262626; stroke-width: 1.25"/>
      </g>
     </g>
     <g id="text_6">
      <!-- 0.25 -->
      <g style="fill: #262626" transform="translate(23.1475 241.455285)scale(0.11 -0.11)">
       <defs>
        <path id="DejaVuSans-32" d="M 1228 531 
L 3431 531 
L 3431 0 
L 469 0 
L 469 531 
Q 828 903 1448 1529 
Q 2069 2156 2228 2338 
Q 2531 2678 2651 2914 
Q 2772 3150 2772 3378 
Q 2772 3750 2511 3984 
Q 2250 4219 1831 4219 
Q 1534 4219 1204 4116 
Q 875 4013 500 3803 
L 500 4441 
Q 881 4594 1212 4672 
Q 1544 4750 1819 4750 
Q 2544 4750 2975 4387 
Q 3406 4025 3406 3419 
Q 3406 3131 3298 2873 
Q 3191 2616 2906 2266 
Q 2828 2175 2409 1742 
Q 1991 1309 1228 531 
z
" transform="scale(0.015625)"/>
        <path id="DejaVuSans-35" d="M 691 4666 
L 3169 4666 
L 3169 4134 
L 1269 4134 
L 1269 2991 
Q 1406 3038 1543 3061 
Q 1681 3084 1819 3084 
Q 2600 3084 3056 2656 
Q 3513 2228 3513 1497 
Q 3513 744 3044 326 
Q 2575 -91 1722 -91 
Q 1428 -91 1123 -41 
Q 819 9 494 109 
L 494 744 
Q 775 591 1075 516 
Q 1375 441 1709 441 
Q 2250 441 2565 725 
Q 2881 1009 2881 1497 
Q 2881 1984 2565 2268 
Q 2250 2553 1709 2553 
Q 1456 2553 1204 2497 
Q 953 2441 691 2322 
L 691 4666 
z
" transform="scale(0.015625)"/>
       </defs>
       <use xlink:href="#DejaVuSans-30"/>
       <use xlink:href="#DejaVuSans-2e" x="63.623047"/>
       <use xlink:href="#DejaVuSans-32" x="95.410156"/>
       <use xlink:href="#DejaVuSans-35" x="159.033203"/>
      </g>
     </g>
    </g>
    <g id="ytick_3">
     <g id="line2d_6">
      <g>
       <use xlink:href="#m108bd14a71" x="57.139688" y="202.186218" style="fill: #262626; stroke: #262626; stroke-width: 1.25"/>
      </g>
     </g>
     <g id="text_7">
      <!-- 0.50 -->
      <g style="fill: #262626" transform="translate(23.1475 206.365359)scale(0.11 -0.11)">
       <use xlink:href="#DejaVuSans-30"/>
       <use xlink:href="#DejaVuSans-2e" x="63.623047"/>
       <use xlink:href="#DejaVuSans-35" x="95.410156"/>
       <use xlink:href="#DejaVuSans-30" x="159.033203"/>
      </g>
     </g>
    </g>
    <g id="ytick_4">
     <g id="line2d_7">
      <g>
       <use xlink:href="#m108bd14a71" x="57.139688" y="167.096292" style="fill: #262626; stroke: #262626; stroke-width: 1.25"/>
      </g>
     </g>
     <g id="text_8">
      <!-- 0.75 -->
      <g style="fill: #262626" transform="translate(23.1475 171.275432)scale(0.11 -0.11)">
       <defs>
        <path id="DejaVuSans-37" d="M 525 4666 
L 3525 4666 
L 3525 4397 
L 1831 0 
L 1172 0 
L 2766 4134 
L 525 4134 
L 525 4666 
z
" transform="scale(0.015625)"/>
       </defs>
       <use xlink:href="#DejaVuSans-30"/>
       <use xlink:href="#DejaVuSans-2e" x="63.623047"/>
       <use xlink:href="#DejaVuSans-37" x="95.410156"/>
       <use xlink:href="#DejaVuSans-35" x="159.033203"/>
      </g>
     </g>
    </g>
    <g id="ytick_5">
     <g id="line2d_8">
      <g>
       <use xlink:href="#m108bd14a71" x="57.139688" y="132.006365" style="fill: #262626; stroke: #262626; stroke-width: 1.25"/>
      </g>
     </g>
     <g id="text_9">
      <!-- 1.00 -->
      <g style="fill: #262626" transform="translate(23.1475 136.185506)scale(0.11 -0.11)">
       <defs>
        <path id="DejaVuSans-31" d="M 794 531 
L 1825 531 
L 1825 4091 
L 703 3866 
L 703 4441 
L 1819 4666 
L 2450 4666 
L 2450 531 
L 3481 531 
L 3481 0 
L 794 0 
L 794 531 
z
" transform="scale(0.015625)"/>
       </defs>
       <use xlink:href="#DejaVuSans-31"/>
       <use xlink:href="#DejaVuSans-2e" x="63.623047"/>
       <use xlink:href="#DejaVuSans-30" x="95.410156"/>
       <use xlink:href="#DejaVuSans-30" x="159.033203"/>
      </g>
     </g>
    </g>
    <g id="ytick_6">
     <g id="line2d_9">
      <g>
       <use xlink:href="#m108bd14a71" x="57.139688" y="96.916438" style="fill: #262626; stroke: #262626; stroke-width: 1.25"/>
      </g>
     </g>
     <g id="text_10">
      <!-- 1.25 -->
      <g style="fill: #262626" transform="translate(23.1475 101.095579)scale(0.11 -0.11)">
       <use xlink:href="#DejaVuSans-31"/>
       <use xlink:href="#DejaVuSans-2e" x="63.623047"/>
       <use xlink:href="#DejaVuSans-32" x="95.410156"/>
       <use xlink:href="#DejaVuSans-35" x="159.033203"/>
      </g>
     </g>
    </g>
    <g id="ytick_7">
     <g id="line2d_10">
      <g>
       <use xlink:href="#m108bd14a71" x="57.139688" y="61.826512" style="fill: #262626; stroke: #262626; stroke-width: 1.25"/>
      </g>
     </g>
     <g id="text_11">
      <!-- 1.50 -->
      <g style="fill: #262626" transform="translate(23.1475 66.005653)scale(0.11 -0.11)">
       <use xlink:href="#DejaVuSans-31"/>
       <use xlink:href="#DejaVuSans-2e" x="63.623047"/>
       <use xlink:href="#DejaVuSans-35" x="95.410156"/>
       <use xlink:href="#DejaVuSans-30" x="159.033203"/>
      </g>
     </g>
    </g>
    <g id="ytick_8">
     <g id="line2d_11">
      <g>
       <use xlink:href="#m108bd14a71" x="57.139688" y="26.736585" style="fill: #262626; stroke: #262626; stroke-width: 1.25"/>
      </g>
     </g>
     <g id="text_12">
      <!-- 1.75 -->
      <g style="fill: #262626" transform="translate(23.1475 30.915726)scale(0.11 -0.11)">
       <use xlink:href="#DejaVuSans-31"/>
       <use xlink:href="#DejaVuSans-2e" x="63.623047"/>
       <use xlink:href="#DejaVuSans-37" x="95.410156"/>
       <use xlink:href="#DejaVuSans-35" x="159.033203"/>
      </g>
     </g>
    </g>
    <g id="text_13">
     <!-- normalized_curvature -->
     <g style="fill: #262626" transform="translate(16.318125 221.304687)rotate(-90)scale(0.12 -0.12)">
      <defs>
       <path id="DejaVuSans-6d" d="M 3328 2828 
Q 3544 3216 3844 3400 
Q 4144 3584 4550 3584 
Q 5097 3584 5394 3201 
Q 5691 2819 5691 2113 
L 5691 0 
L 5113 0 
L 5113 2094 
Q 5113 2597 4934 2840 
Q 4756 3084 4391 3084 
Q 3944 3084 3684 2787 
Q 3425 2491 3425 1978 
L 3425 0 
L 2847 0 
L 2847 2094 
Q 2847 2600 2669 2842 
Q 2491 3084 2119 3084 
Q 1678 3084 1418 2786 
Q 1159 2488 1159 1978 
L 1159 0 
L 581 0 
L 581 3500 
L 1159 3500 
L 1159 2956 
Q 1356 3278 1631 3431 
Q 1906 3584 2284 3584 
Q 2666 3584 2933 3390 
Q 3200 3197 3328 2828 
z
" transform="scale(0.015625)"/>
       <path id="DejaVuSans-69" d="M 603 3500 
L 1178 3500 
L 1178 0 
L 603 0 
L 603 3500 
z
M 603 4863 
L 1178 4863 
L 1178 4134 
L 603 4134 
L 603 4863 
z
" transform="scale(0.015625)"/>
       <path id="DejaVuSans-7a" d="M 353 3500 
L 3084 3500 
L 3084 2975 
L 922 459 
L 3084 459 
L 3084 0 
L 275 0 
L 275 525 
L 2438 3041 
L 353 3041 
L 353 3500 
z
" transform="scale(0.015625)"/>
       <path id="DejaVuSans-5f" d="M 3263 -1063 
L 3263 -1509 
L -63 -1509 
L -63 -1063 
L 3263 -1063 
z
" transform="scale(0.015625)"/>
       <path id="DejaVuSans-63" d="M 3122 3366 
L 3122 2828 
Q 2878 2963 2633 3030 
Q 2388 3097 2138 3097 
Q 1578 3097 1268 2742 
Q 959 2388 959 1747 
Q 959 1106 1268 751 
Q 1578 397 2138 397 
Q 2388 397 2633 464 
Q 2878 531 3122 666 
L 3122 134 
Q 2881 22 2623 -34 
Q 2366 -91 2075 -91 
Q 1284 -91 818 406 
Q 353 903 353 1747 
Q 353 2603 823 3093 
Q 1294 3584 2113 3584 
Q 2378 3584 2631 3529 
Q 2884 3475 3122 3366 
z
" transform="scale(0.015625)"/>
       <path id="DejaVuSans-75" d="M 544 1381 
L 544 3500 
L 1119 3500 
L 1119 1403 
Q 1119 906 1312 657 
Q 1506 409 1894 409 
Q 2359 409 2629 706 
Q 2900 1003 2900 1516 
L 2900 3500 
L 3475 3500 
L 3475 0 
L 2900 0 
L 2900 538 
Q 2691 219 2414 64 
Q 2138 -91 1772 -91 
Q 1169 -91 856 284 
Q 544 659 544 1381 
z
M 1991 3584 
L 1991 3584 
z
" transform="scale(0.015625)"/>
      </defs>
      <use xlink:href="#DejaVuSans-6e"/>
      <use xlink:href="#DejaVuSans-6f" x="63.378906"/>
      <use xlink:href="#DejaVuSans-72" x="124.560547"/>
      <use xlink:href="#DejaVuSans-6d" x="163.923828"/>
      <use xlink:href="#DejaVuSans-61" x="261.335938"/>
      <use xlink:href="#DejaVuSans-6c" x="322.615234"/>
      <use xlink:href="#DejaVuSans-69" x="350.398438"/>
      <use xlink:href="#DejaVuSans-7a" x="378.181641"/>
      <use xlink:href="#DejaVuSans-65" x="430.671875"/>
      <use xlink:href="#DejaVuSans-64" x="492.195312"/>
      <use xlink:href="#DejaVuSans-5f" x="555.671875"/>
      <use xlink:href="#DejaVuSans-63" x="605.671875"/>
      <use xlink:href="#DejaVuSans-75" x="660.652344"/>
      <use xlink:href="#DejaVuSans-72" x="724.03125"/>
      <use xlink:href="#DejaVuSans-76" x="765.144531"/>
      <use xlink:href="#DejaVuSans-61" x="824.324219"/>
      <use xlink:href="#DejaVuSans-74" x="885.603516"/>
      <use xlink:href="#DejaVuSans-75" x="924.8125"/>
      <use xlink:href="#DejaVuSans-72" x="988.191406"/>
      <use xlink:href="#DejaVuSans-65" x="1027.054688"/>
     </g>
    </g>
   </g>
   <g id="patch_3">
    <path d="M 104.227134 272.366071 
L 104.227134 272.366071 
L 104.227134 272.366071 
L 104.227134 272.366071 
z
" clip-path="url(#pabc79d4c7e)" style="fill: #5875a4; stroke: #4c4c4c; stroke-width: 0.75; stroke-linejoin: miter"/>
   </g>
   <g id="PolyCollection_1">
    <defs>
     <path id="m3a5337adbc" d="M 104.227134 -71.55276 
L 103.052413 -71.55276 
L 102.432993 -72.393575 
L 101.569165 -73.23439 
L 100.405973 -74.075205 
L 98.893863 -74.916021 
L 96.996653 -75.756836 
L 94.700011 -76.597651 
L 92.01904 -77.438466 
L 89.003379 -78.279281 
L 85.738428 -79.120096 
L 82.341857 -79.960911 
L 78.955377 -80.801726 
L 75.732665 -81.642541 
L 72.825113 -82.483356 
L 70.367462 -83.324171 
L 68.465393 -84.164986 
L 67.18673 -85.005801 
L 66.557177 -85.846616 
L 66.560766 -86.687432 
L 67.144476 -87.528247 
L 68.226011 -88.369062 
L 69.703495 -89.209877 
L 71.465783 -90.050692 
L 73.402255 -90.891507 
L 75.411131 -91.732322 
L 77.405648 -92.573137 
L 79.317745 -93.413952 
L 81.099236 -94.254767 
L 82.720782 -95.095582 
L 84.169248 -95.936397 
L 85.444164 -96.777212 
L 86.55404 -97.618027 
L 87.513079 -98.458842 
L 88.338636 -99.299658 
L 89.049439 -100.140473 
L 89.664432 -100.981288 
L 90.201982 -101.822103 
L 90.679242 -102.662918 
L 91.111579 -103.503733 
L 91.512088 -104.344548 
L 91.891287 -105.185363 
L 92.257088 -106.026178 
L 92.615029 -106.866993 
L 92.968679 -107.707808 
L 93.320045 -108.548623 
L 93.669801 -109.389438 
L 94.017257 -110.230253 
L 94.360111 -111.071068 
L 94.694127 -111.911884 
L 95.013002 -112.752699 
L 95.308626 -113.593514 
L 95.571864 -114.434329 
L 95.793811 -115.275144 
L 95.967334 -116.115959 
L 96.088581 -116.956774 
L 96.158139 -117.797589 
L 96.18159 -118.638404 
L 96.169339 -119.479219 
L 96.135745 -120.320034 
L 96.097733 -121.160849 
L 96.073111 -122.001664 
L 96.078857 -122.842479 
L 96.129611 -123.683294 
L 96.236498 -124.52411 
L 96.406404 -125.364925 
L 96.641708 -126.20574 
L 96.940447 -127.046555 
L 97.29685 -127.88737 
L 97.702137 -128.728185 
L 98.145482 -129.569 
L 98.614985 -130.409815 
L 99.098575 -131.25063 
L 99.584716 -132.091445 
L 100.062898 -132.93226 
L 100.523907 -133.773075 
L 100.959924 -134.61389 
L 101.364521 -135.454705 
L 101.732652 -136.29552 
L 102.06068 -137.136336 
L 102.346474 -137.977151 
L 102.589559 -138.817966 
L 102.791259 -139.658781 
L 102.95476 -140.499596 
L 103.085005 -141.340411 
L 103.188362 -142.181226 
L 103.27207 -143.022041 
L 103.3435 -143.862856 
L 103.409353 -144.703671 
L 103.474938 -145.544486 
L 103.543662 -146.385301 
L 103.616845 -147.226116 
L 103.693878 -148.066931 
L 103.772676 -148.907746 
L 103.850319 -149.748562 
L 103.923717 -150.589377 
L 103.990192 -151.430192 
L 104.047865 -152.271007 
L 104.095817 -153.111822 
L 104.134054 -153.952637 
L 104.163314 -154.793452 
L 104.227134 -154.793452 
L 104.227134 -154.793452 
L 104.227134 -153.952637 
L 104.227134 -153.111822 
L 104.227134 -152.271007 
L 104.227134 -151.430192 
L 104.227134 -150.589377 
L 104.227134 -149.748562 
L 104.227134 -148.907746 
L 104.227134 -148.066931 
L 104.227134 -147.226116 
L 104.227134 -146.385301 
L 104.227134 -145.544486 
L 104.227134 -144.703671 
L 104.227134 -143.862856 
L 104.227134 -143.022041 
L 104.227134 -142.181226 
L 104.227134 -141.340411 
L 104.227134 -140.499596 
L 104.227134 -139.658781 
L 104.227134 -138.817966 
L 104.227134 -137.977151 
L 104.227134 -137.136336 
L 104.227134 -136.29552 
L 104.227134 -135.454705 
L 104.227134 -134.61389 
L 104.227134 -133.773075 
L 104.227134 -132.93226 
L 104.227134 -132.091445 
L 104.227134 -131.25063 
L 104.227134 -130.409815 
L 104.227134 -129.569 
L 104.227134 -128.728185 
L 104.227134 -127.88737 
L 104.227134 -127.046555 
L 104.227134 -126.20574 
L 104.227134 -125.364925 
L 104.227134 -124.52411 
L 104.227134 -123.683294 
L 104.227134 -122.842479 
L 104.227134 -122.001664 
L 104.227134 -121.160849 
L 104.227134 -120.320034 
L 104.227134 -119.479219 
L 104.227134 -118.638404 
L 104.227134 -117.797589 
L 104.227134 -116.956774 
L 104.227134 -116.115959 
L 104.227134 -115.275144 
L 104.227134 -114.434329 
L 104.227134 -113.593514 
L 104.227134 -112.752699 
L 104.227134 -111.911884 
L 104.227134 -111.071068 
L 104.227134 -110.230253 
L 104.227134 -109.389438 
L 104.227134 -108.548623 
L 104.227134 -107.707808 
L 104.227134 -106.866993 
L 104.227134 -106.026178 
L 104.227134 -105.185363 
L 104.227134 -104.344548 
L 104.227134 -103.503733 
L 104.227134 -102.662918 
L 104.227134 -101.822103 
L 104.227134 -100.981288 
L 104.227134 -100.140473 
L 104.227134 -99.299658 
L 104.227134 -98.458842 
L 104.227134 -97.618027 
L 104.227134 -96.777212 
L 104.227134 -95.936397 
L 104.227134 -95.095582 
L 104.227134 -94.254767 
L 104.227134 -93.413952 
L 104.227134 -92.573137 
L 104.227134 -91.732322 
L 104.227134 -90.891507 
L 104.227134 -90.050692 
L 104.227134 -89.209877 
L 104.227134 -88.369062 
L 104.227134 -87.528247 
L 104.227134 -86.687432 
L 104.227134 -85.846616 
L 104.227134 -85.005801 
L 104.227134 -84.164986 
L 104.227134 -83.324171 
L 104.227134 -82.483356 
L 104.227134 -81.642541 
L 104.227134 -80.801726 
L 104.227134 -79.960911 
L 104.227134 -79.120096 
L 104.227134 -78.279281 
L 104.227134 -77.438466 
L 104.227134 -76.597651 
L 104.227134 -75.756836 
L 104.227134 -74.916021 
L 104.227134 -74.075205 
L 104.227134 -73.23439 
L 104.227134 -72.393575 
L 104.227134 -71.55276 
z
" style="stroke: #4c4c4c; stroke-width: 1.5"/>
    </defs>
    <g clip-path="url(#pabc79d4c7e)">
     <use xlink:href="#m3a5337adbc" x="0" y="347.739687" style="fill: #5875a4; stroke: #4c4c4c; stroke-width: 1.5"/>
    </g>
   </g>
   <g id="patch_4">
    <path d="M 104.227134 272.366071 
L 104.227134 272.366071 
L 104.227134 272.366071 
L 104.227134 272.366071 
z
" clip-path="url(#pabc79d4c7e)" style="fill: #cc8963; stroke: #4c4c4c; stroke-width: 0.75; stroke-linejoin: miter"/>
   </g>
   <g id="PolyCollection_2">
    <defs>
     <path id="mecafd91f10" d="M 104.539075 -66.427962 
L 104.227134 -66.427962 
L 104.227134 -67.920284 
L 104.227134 -69.412606 
L 104.227134 -70.904929 
L 104.227134 -72.397251 
L 104.227134 -73.889573 
L 104.227134 -75.381895 
L 104.227134 -76.874217 
L 104.227134 -78.36654 
L 104.227134 -79.858862 
L 104.227134 -81.351184 
L 104.227134 -82.843506 
L 104.227134 -84.335828 
L 104.227134 -85.828151 
L 104.227134 -87.320473 
L 104.227134 -88.812795 
L 104.227134 -90.305117 
L 104.227134 -91.79744 
L 104.227134 -93.289762 
L 104.227134 -94.782084 
L 104.227134 -96.274406 
L 104.227134 -97.766728 
L 104.227134 -99.259051 
L 104.227134 -100.751373 
L 104.227134 -102.243695 
L 104.227134 -103.736017 
L 104.227134 -105.22834 
L 104.227134 -106.720662 
L 104.227134 -108.212984 
L 104.227134 -109.705306 
L 104.227134 -111.197628 
L 104.227134 -112.689951 
L 104.227134 -114.182273 
L 104.227134 -115.674595 
L 104.227134 -117.166917 
L 104.227134 -118.65924 
L 104.227134 -120.151562 
L 104.227134 -121.643884 
L 104.227134 -123.136206 
L 104.227134 -124.628528 
L 104.227134 -126.120851 
L 104.227134 -127.613173 
L 104.227134 -129.105495 
L 104.227134 -130.597817 
L 104.227134 -132.09014 
L 104.227134 -133.582462 
L 104.227134 -135.074784 
L 104.227134 -136.567106 
L 104.227134 -138.059428 
L 104.227134 -139.551751 
L 104.227134 -141.044073 
L 104.227134 -142.536395 
L 104.227134 -144.028717 
L 104.227134 -145.52104 
L 104.227134 -147.013362 
L 104.227134 -148.505684 
L 104.227134 -149.998006 
L 104.227134 -151.490328 
L 104.227134 -152.982651 
L 104.227134 -154.474973 
L 104.227134 -155.967295 
L 104.227134 -157.459617 
L 104.227134 -158.95194 
L 104.227134 -160.444262 
L 104.227134 -161.936584 
L 104.227134 -163.428906 
L 104.227134 -164.921228 
L 104.227134 -166.413551 
L 104.227134 -167.905873 
L 104.227134 -169.398195 
L 104.227134 -170.890517 
L 104.227134 -172.382839 
L 104.227134 -173.875162 
L 104.227134 -175.367484 
L 104.227134 -176.859806 
L 104.227134 -178.352128 
L 104.227134 -179.844451 
L 104.227134 -181.336773 
L 104.227134 -182.829095 
L 104.227134 -184.321417 
L 104.227134 -185.813739 
L 104.227134 -187.306062 
L 104.227134 -188.798384 
L 104.227134 -190.290706 
L 104.227134 -191.783028 
L 104.227134 -193.275351 
L 104.227134 -194.767673 
L 104.227134 -196.259995 
L 104.227134 -197.752317 
L 104.227134 -199.244639 
L 104.227134 -200.736962 
L 104.227134 -202.229284 
L 104.227134 -203.721606 
L 104.227134 -205.213928 
L 104.227134 -206.706251 
L 104.227134 -208.198573 
L 104.227134 -209.690895 
L 104.227134 -211.183217 
L 104.227134 -212.675539 
L 104.227134 -214.167862 
L 104.248361 -214.167862 
L 104.248361 -214.167862 
L 104.259231 -212.675539 
L 104.274249 -211.183217 
L 104.294361 -209.690895 
L 104.320511 -208.198573 
L 104.353594 -206.706251 
L 104.394424 -205.213928 
L 104.443717 -203.721606 
L 104.502102 -202.229284 
L 104.570128 -200.736962 
L 104.648261 -199.244639 
L 104.736837 -197.752317 
L 104.835965 -196.259995 
L 104.945382 -194.767673 
L 105.06429 -193.275351 
L 105.191246 -191.783028 
L 105.324139 -190.290706 
L 105.460327 -188.798384 
L 105.596917 -187.306062 
L 105.731171 -185.813739 
L 105.860934 -184.321417 
L 105.984995 -182.829095 
L 106.103284 -181.336773 
L 106.216841 -179.844451 
L 106.327586 -178.352128 
L 106.437946 -176.859806 
L 106.550447 -175.367484 
L 106.667405 -173.875162 
L 106.790774 -172.382839 
L 106.922175 -170.890517 
L 107.063038 -169.398195 
L 107.214727 -167.905873 
L 107.378504 -166.413551 
L 107.555234 -164.921228 
L 107.744827 -163.428906 
L 107.945551 -161.936584 
L 108.153448 -160.444262 
L 108.362148 -158.95194 
L 108.563297 -157.459617 
L 108.74768 -155.967295 
L 108.906896 -154.474973 
L 109.035244 -152.982651 
L 109.131361 -151.490328 
L 109.199164 -149.998006 
L 109.247823 -148.505684 
L 109.290716 -147.013362 
L 109.343589 -145.52104 
L 109.422342 -144.028717 
L 109.540907 -142.536395 
L 109.709641 -141.044073 
L 109.934427 -139.551751 
L 110.216534 -138.059428 
L 110.553032 -136.567106 
L 110.937545 -135.074784 
L 111.361087 -133.582462 
L 111.812851 -132.09014 
L 112.280965 -130.597817 
L 112.753289 -129.105495 
L 113.21839 -127.613173 
L 113.666727 -126.120851 
L 114.091961 -124.628528 
L 114.492168 -123.136206 
L 114.870617 -121.643884 
L 115.235823 -120.151562 
L 115.600664 -118.65924 
L 115.980595 -117.166917 
L 116.391189 -115.674595 
L 116.845438 -114.182273 
L 117.351326 -112.689951 
L 117.910119 -111.197628 
L 118.515683 -109.705306 
L 119.154857 -108.212984 
L 119.808691 -106.720662 
L 120.454167 -105.22834 
L 121.065942 -103.736017 
L 121.617742 -102.243695 
L 122.083194 -100.751373 
L 122.436146 -99.259051 
L 122.65075 -97.766728 
L 122.701718 -96.274406 
L 122.565187 -94.782084 
L 122.220475 -93.289762 
L 121.652727 -91.79744 
L 120.856128 -90.305117 
L 119.837023 -88.812795 
L 118.616142 -87.320473 
L 117.229156 -85.828151 
L 115.72506 -84.335828 
L 114.162356 -82.843506 
L 112.603511 -81.351184 
L 111.108608 -79.858862 
L 109.729325 -78.36654 
L 108.504304 -76.874217 
L 107.456623 -75.381895 
L 106.593631 -73.889573 
L 105.908861 -72.397251 
L 105.38539 -70.904929 
L 104.999833 -69.412606 
L 104.726204 -67.920284 
L 104.539075 -66.427962 
z
" style="stroke: #4c4c4c; stroke-width: 1.5"/>
    </defs>
    <g clip-path="url(#pabc79d4c7e)">
     <use xlink:href="#mecafd91f10" x="0" y="347.739687" style="fill: #cc8963; stroke: #4c4c4c; stroke-width: 1.5"/>
    </g>
   </g>
   <g id="PolyCollection_3">
    <defs>
     <path id="mcd80709158" d="M 198.402026 -76.991091 
L 197.894206 -76.991091 
L 197.568476 -77.500665 
L 197.091187 -78.010239 
L 196.424565 -78.519813 
L 195.536045 -79.029387 
L 194.403963 -79.538961 
L 193.021963 -80.048535 
L 191.400666 -80.558109 
L 189.565979 -81.067683 
L 187.554615 -81.577257 
L 185.408508 -82.086831 
L 183.170138 -82.596405 
L 180.880226 -83.105979 
L 178.577884 -83.615553 
L 176.301992 -84.125128 
L 174.091986 -84.634702 
L 171.986711 -85.144276 
L 170.02128 -85.65385 
L 168.223189 -86.163424 
L 166.609539 -86.672998 
L 165.186871 -87.182572 
L 163.954048 -87.692146 
L 162.907458 -88.20172 
L 162.047094 -88.711294 
L 161.381861 -89.220868 
L 160.932652 -89.730442 
L 160.732069 -90.240016 
L 160.820077 -90.74959 
L 161.235575 -91.259164 
L 162.005016 -91.768738 
L 163.130472 -92.278312 
L 164.580537 -92.787887 
L 166.287416 -93.297461 
L 168.152167 -93.807035 
L 170.057749 -94.316609 
L 171.887066 -94.826183 
L 173.541648 -95.335757 
L 174.956447 -95.845331 
L 176.107545 -96.354905 
L 177.011558 -96.864479 
L 177.717657 -97.374053 
L 178.294603 -97.883627 
L 178.815955 -98.393201 
L 179.346555 -98.902775 
L 179.932783 -99.412349 
L 180.598049 -99.921923 
L 181.343761 -100.431497 
L 182.154776 -100.941071 
L 183.007432 -101.450646 
L 183.877795 -101.96022 
L 184.748006 -102.469794 
L 185.609355 -102.979368 
L 186.461805 -103.488942 
L 187.310688 -103.998516 
L 188.162004 -104.50809 
L 189.017893 -105.017664 
L 189.873579 -105.527238 
L 190.716516 -106.036812 
L 191.527758 -106.546386 
L 192.285113 -107.05596 
L 192.967232 -107.565534 
L 193.557711 -108.075108 
L 194.048272 -108.584682 
L 194.440326 -109.094256 
L 194.744522 -109.60383 
L 194.978366 -110.113405 
L 195.162531 -110.622979 
L 195.316841 -111.132553 
L 195.457079 -111.642127 
L 195.593431 -112.151701 
L 195.730776 -112.661275 
L 195.870334 -113.170849 
L 196.011701 -113.680423 
L 196.154304 -114.189997 
L 196.297727 -114.699571 
L 196.441005 -115.209145 
L 196.581551 -115.718719 
L 196.714516 -116.228293 
L 196.833219 -116.737867 
L 196.930689 -117.247441 
L 197.001891 -117.757015 
L 197.045805 -118.26659 
L 197.066565 -118.776164 
L 197.073168 -119.285738 
L 197.077775 -119.795312 
L 197.093097 -120.304886 
L 197.12964 -120.81446 
L 197.193608 -121.324034 
L 197.285942 -121.833608 
L 197.402638 -122.343182 
L 197.536059 -122.852756 
L 197.676774 -123.36233 
L 197.815391 -123.871904 
L 197.944 -124.381478 
L 198.057023 -124.891052 
L 198.151468 -125.400626 
L 198.2267 -125.9102 
L 198.283914 -126.419774 
L 198.325489 -126.929349 
L 198.354363 -127.438923 
L 198.402026 -127.438923 
L 198.402026 -127.438923 
L 198.402026 -126.929349 
L 198.402026 -126.419774 
L 198.402026 -125.9102 
L 198.402026 -125.400626 
L 198.402026 -124.891052 
L 198.402026 -124.381478 
L 198.402026 -123.871904 
L 198.402026 -123.36233 
L 198.402026 -122.852756 
L 198.402026 -122.343182 
L 198.402026 -121.833608 
L 198.402026 -121.324034 
L 198.402026 -120.81446 
L 198.402026 -120.304886 
L 198.402026 -119.795312 
L 198.402026 -119.285738 
L 198.402026 -118.776164 
L 198.402026 -118.26659 
L 198.402026 -117.757015 
L 198.402026 -117.247441 
L 198.402026 -116.737867 
L 198.402026 -116.228293 
L 198.402026 -115.718719 
L 198.402026 -115.209145 
L 198.402026 -114.699571 
L 198.402026 -114.189997 
L 198.402026 -113.680423 
L 198.402026 -113.170849 
L 198.402026 -112.661275 
L 198.402026 -112.151701 
L 198.402026 -111.642127 
L 198.402026 -111.132553 
L 198.402026 -110.622979 
L 198.402026 -110.113405 
L 198.402026 -109.60383 
L 198.402026 -109.094256 
L 198.402026 -108.584682 
L 198.402026 -108.075108 
L 198.402026 -107.565534 
L 198.402026 -107.05596 
L 198.402026 -106.546386 
L 198.402026 -106.036812 
L 198.402026 -105.527238 
L 198.402026 -105.017664 
L 198.402026 -104.50809 
L 198.402026 -103.998516 
L 198.402026 -103.488942 
L 198.402026 -102.979368 
L 198.402026 -102.469794 
L 198.402026 -101.96022 
L 198.402026 -101.450646 
L 198.402026 -100.941071 
L 198.402026 -100.431497 
L 198.402026 -99.921923 
L 198.402026 -99.412349 
L 198.402026 -98.902775 
L 198.402026 -98.393201 
L 198.402026 -97.883627 
L 198.402026 -97.374053 
L 198.402026 -96.864479 
L 198.402026 -96.354905 
L 198.402026 -95.845331 
L 198.402026 -95.335757 
L 198.402026 -94.826183 
L 198.402026 -94.316609 
L 198.402026 -93.807035 
L 198.402026 -93.297461 
L 198.402026 -92.787887 
L 198.402026 -92.278312 
L 198.402026 -91.768738 
L 198.402026 -91.259164 
L 198.402026 -90.74959 
L 198.402026 -90.240016 
L 198.402026 -89.730442 
L 198.402026 -89.220868 
L 198.402026 -88.711294 
L 198.402026 -88.20172 
L 198.402026 -87.692146 
L 198.402026 -87.182572 
L 198.402026 -86.672998 
L 198.402026 -86.163424 
L 198.402026 -85.65385 
L 198.402026 -85.144276 
L 198.402026 -84.634702 
L 198.402026 -84.125128 
L 198.402026 -83.615553 
L 198.402026 -83.105979 
L 198.402026 -82.596405 
L 198.402026 -82.086831 
L 198.402026 -81.577257 
L 198.402026 -81.067683 
L 198.402026 -80.558109 
L 198.402026 -80.048535 
L 198.402026 -79.538961 
L 198.402026 -79.029387 
L 198.402026 -78.519813 
L 198.402026 -78.010239 
L 198.402026 -77.500665 
L 198.402026 -76.991091 
z
" style="stroke: #4c4c4c; stroke-width: 1.5"/>
    </defs>
    <g clip-path="url(#pabc79d4c7e)">
     <use xlink:href="#mcd80709158" x="0" y="347.739687" style="fill: #5875a4; stroke: #4c4c4c; stroke-width: 1.5"/>
    </g>
   </g>
   <g id="PolyCollection_4">
    <defs>
     <path id="md3b80ae21a" d="M 198.691585 -58.264119 
L 198.402026 -58.264119 
L 198.402026 -60.978758 
L 198.402026 -63.693396 
L 198.402026 -66.408035 
L 198.402026 -69.122673 
L 198.402026 -71.837312 
L 198.402026 -74.55195 
L 198.402026 -77.266588 
L 198.402026 -79.981227 
L 198.402026 -82.695865 
L 198.402026 -85.410504 
L 198.402026 -88.125142 
L 198.402026 -90.839781 
L 198.402026 -93.554419 
L 198.402026 -96.269057 
L 198.402026 -98.983696 
L 198.402026 -101.698334 
L 198.402026 -104.412973 
L 198.402026 -107.127611 
L 198.402026 -109.84225 
L 198.402026 -112.556888 
L 198.402026 -115.271526 
L 198.402026 -117.986165 
L 198.402026 -120.700803 
L 198.402026 -123.415442 
L 198.402026 -126.13008 
L 198.402026 -128.844719 
L 198.402026 -131.559357 
L 198.402026 -134.273995 
L 198.402026 -136.988634 
L 198.402026 -139.703272 
L 198.402026 -142.417911 
L 198.402026 -145.132549 
L 198.402026 -147.847188 
L 198.402026 -150.561826 
L 198.402026 -153.276464 
L 198.402026 -155.991103 
L 198.402026 -158.705741 
L 198.402026 -161.42038 
L 198.402026 -164.135018 
L 198.402026 -166.849657 
L 198.402026 -169.564295 
L 198.402026 -172.278933 
L 198.402026 -174.993572 
L 198.402026 -177.70821 
L 198.402026 -180.422849 
L 198.402026 -183.137487 
L 198.402026 -185.852126 
L 198.402026 -188.566764 
L 198.402026 -191.281402 
L 198.402026 -193.996041 
L 198.402026 -196.710679 
L 198.402026 -199.425318 
L 198.402026 -202.139956 
L 198.402026 -204.854595 
L 198.402026 -207.569233 
L 198.402026 -210.283871 
L 198.402026 -212.99851 
L 198.402026 -215.713148 
L 198.402026 -218.427787 
L 198.402026 -221.142425 
L 198.402026 -223.857064 
L 198.402026 -226.571702 
L 198.402026 -229.28634 
L 198.402026 -232.000979 
L 198.402026 -234.715617 
L 198.402026 -237.430256 
L 198.402026 -240.144894 
L 198.402026 -242.859533 
L 198.402026 -245.574171 
L 198.402026 -248.288809 
L 198.402026 -251.003448 
L 198.402026 -253.718086 
L 198.402026 -256.432725 
L 198.402026 -259.147363 
L 198.402026 -261.862002 
L 198.402026 -264.57664 
L 198.402026 -267.291278 
L 198.402026 -270.005917 
L 198.402026 -272.720555 
L 198.402026 -275.435194 
L 198.402026 -278.149832 
L 198.402026 -280.864471 
L 198.402026 -283.579109 
L 198.402026 -286.293747 
L 198.402026 -289.008386 
L 198.402026 -291.723024 
L 198.402026 -294.437663 
L 198.402026 -297.152301 
L 198.402026 -299.86694 
L 198.402026 -302.581578 
L 198.402026 -305.296216 
L 198.402026 -308.010855 
L 198.402026 -310.725493 
L 198.402026 -313.440132 
L 198.402026 -316.15477 
L 198.402026 -318.869409 
L 198.402026 -321.584047 
L 198.402026 -324.298685 
L 198.402026 -327.013324 
L 198.417008 -327.013324 
L 198.417008 -327.013324 
L 198.4274 -324.298685 
L 198.442342 -321.584047 
L 198.462225 -318.869409 
L 198.486697 -316.15477 
L 198.514527 -313.440132 
L 198.543736 -310.725493 
L 198.571991 -308.010855 
L 198.597132 -305.296216 
L 198.617642 -302.581578 
L 198.6329 -299.86694 
L 198.643127 -297.152301 
L 198.649103 -294.437663 
L 198.651784 -291.723024 
L 198.651958 -289.008386 
L 198.650024 -286.293747 
L 198.64593 -283.579109 
L 198.63926 -280.864471 
L 198.629426 -278.149832 
L 198.615944 -275.435194 
L 198.598736 -272.720555 
L 198.578392 -270.005917 
L 198.556305 -267.291278 
L 198.534587 -264.57664 
L 198.51573 -261.862002 
L 198.502063 -259.147363 
L 198.49515 -256.432725 
L 198.495333 -253.718086 
L 198.501576 -251.003448 
L 198.511706 -248.288809 
L 198.522976 -245.574171 
L 198.532776 -242.859533 
L 198.539264 -240.144894 
L 198.541736 -237.430256 
L 198.54069 -234.715617 
L 198.537641 -232.000979 
L 198.534813 -229.28634 
L 198.53478 -226.571702 
L 198.540017 -223.857064 
L 198.552331 -221.142425 
L 198.572181 -218.427787 
L 198.598127 -215.713148 
L 198.626723 -212.99851 
L 198.653107 -210.283871 
L 198.672236 -207.569233 
L 198.680409 -204.854595 
L 198.676474 -202.139956 
L 198.662262 -199.425318 
L 198.642093 -196.710679 
L 198.62162 -193.996041 
L 198.606487 -191.281402 
L 198.601317 -188.566764 
L 198.609272 -185.852126 
L 198.632146 -183.137487 
L 198.6707 -180.422849 
L 198.724849 -177.70821 
L 198.793528 -174.993572 
L 198.874348 -172.278933 
L 198.96342 -169.564295 
L 199.055751 -166.849657 
L 199.146283 -164.135018 
L 199.231197 -161.42038 
L 199.308867 -158.705741 
L 199.380012 -155.991103 
L 199.447092 -153.276464 
L 199.513521 -150.561826 
L 199.583357 -147.847188 
L 199.661776 -145.132549 
L 199.756101 -142.417911 
L 199.876758 -139.703272 
L 200.03764 -136.988634 
L 200.255656 -134.273995 
L 200.549688 -131.559357 
L 200.939269 -128.844719 
L 201.443277 -126.13008 
L 202.078696 -123.415442 
L 202.859407 -120.700803 
L 203.794755 -117.986165 
L 204.887423 -115.271526 
L 206.129943 -112.556888 
L 207.499347 -109.84225 
L 208.95037 -107.127611 
L 210.409137 -104.412973 
L 211.770826 -101.698334 
L 212.905185 -98.983696 
L 213.67231 -96.269057 
L 213.947574 -93.554419 
L 213.650331 -90.839781 
L 212.767851 -88.125142 
L 211.36587 -85.410504 
L 209.580648 -82.695865 
L 207.593609 -79.981227 
L 205.595771 -77.266588 
L 203.75253 -74.55195 
L 202.178611 -71.837312 
L 200.928524 -69.122673 
L 200.002135 -66.408035 
L 199.36037 -63.693396 
L 198.944266 -60.978758 
L 198.691585 -58.264119 
z
" style="stroke: #4c4c4c; stroke-width: 1.5"/>
    </defs>
    <g clip-path="url(#pabc79d4c7e)">
     <use xlink:href="#md3b80ae21a" x="0" y="347.739687" style="fill: #cc8963; stroke: #4c4c4c; stroke-width: 1.5"/>
    </g>
   </g>
   <g id="PolyCollection_5">
    <defs>
     <path id="m2d6ba1061c" d="M 292.576919 -65.378155 
L 291.785999 -65.378155 
L 291.30941 -66.898604 
L 290.609711 -68.419054 
L 289.619709 -69.939503 
L 288.270562 -71.459953 
L 286.501004 -72.980402 
L 284.269173 -74.500852 
L 281.56552 -76.021301 
L 278.424375 -77.541751 
L 274.931293 -79.0622 
L 271.223498 -80.58265 
L 267.481766 -82.103099 
L 263.913829 -83.623549 
L 260.73142 -85.143998 
L 258.124852 -86.664447 
L 256.239906 -88.184897 
L 255.161494 -89.705346 
L 254.906962 -91.225796 
L 255.429622 -92.746245 
L 256.630701 -94.266695 
L 258.376204 -95.787144 
L 260.51467 -97.307594 
L 262.892456 -98.828043 
L 265.364695 -100.348493 
L 267.801779 -101.868942 
L 270.092517 -103.389392 
L 272.145649 -104.909841 
L 273.891106 -106.43029 
L 275.281612 -107.95074 
L 276.294299 -109.471189 
L 276.931419 -110.991639 
L 277.219136 -112.512088 
L 277.203787 -114.032538 
L 276.94572 -115.552987 
L 276.511575 -117.073437 
L 275.966338 -118.593886 
L 275.366657 -120.114336 
L 274.756561 -121.634785 
L 274.166186 -123.155234 
L 273.613334 -124.675684 
L 273.107159 -126.196133 
L 272.652821 -127.716583 
L 272.255933 -129.237032 
L 271.925832 -130.757482 
L 271.677113 -132.277931 
L 271.529334 -133.798381 
L 271.505208 -135.31883 
L 271.627833 -136.83928 
L 271.917591 -138.359729 
L 272.389285 -139.880179 
L 273.049908 -141.400628 
L 273.897284 -142.921077 
L 274.919633 -144.441527 
L 276.096031 -145.961976 
L 277.397653 -147.482426 
L 278.789615 -149.002875 
L 280.233251 -150.523325 
L 281.688571 -152.043774 
L 283.116709 -153.564224 
L 284.482128 -155.084673 
L 285.754445 -156.605123 
L 286.909753 -158.125572 
L 287.931409 -159.646022 
L 288.810293 -161.166471 
L 289.544572 -162.68692 
L 290.139019 -164.20737 
L 290.603965 -165.727819 
L 290.953947 -167.248269 
L 291.206168 -168.768718 
L 291.378887 -170.289168 
L 291.489901 -171.809617 
L 291.555251 -173.330067 
L 291.588291 -174.850516 
L 291.599196 -176.370966 
L 291.594932 -177.891415 
L 291.579644 -179.411864 
L 291.555365 -180.932314 
L 291.522922 -182.452763 
L 291.482889 -183.973213 
L 291.436428 -185.493662 
L 291.3859 -187.014112 
L 291.33514 -188.534561 
L 291.289344 -190.055011 
L 291.254586 -191.57546 
L 291.237044 -193.09591 
L 291.242072 -194.616359 
L 291.273313 -196.136809 
L 291.33202 -197.657258 
L 291.416751 -199.177707 
L 291.523491 -200.698157 
L 291.646184 -202.218606 
L 291.777569 -203.739056 
L 291.910147 -205.259505 
L 292.03709 -206.779955 
L 292.152949 -208.300404 
L 292.254059 -209.820854 
L 292.338616 -211.341303 
L 292.406494 -212.861753 
L 292.458858 -214.382202 
L 292.497716 -215.902652 
L 292.576919 -215.902652 
L 292.576919 -215.902652 
L 292.576919 -214.382202 
L 292.576919 -212.861753 
L 292.576919 -211.341303 
L 292.576919 -209.820854 
L 292.576919 -208.300404 
L 292.576919 -206.779955 
L 292.576919 -205.259505 
L 292.576919 -203.739056 
L 292.576919 -202.218606 
L 292.576919 -200.698157 
L 292.576919 -199.177707 
L 292.576919 -197.657258 
L 292.576919 -196.136809 
L 292.576919 -194.616359 
L 292.576919 -193.09591 
L 292.576919 -191.57546 
L 292.576919 -190.055011 
L 292.576919 -188.534561 
L 292.576919 -187.014112 
L 292.576919 -185.493662 
L 292.576919 -183.973213 
L 292.576919 -182.452763 
L 292.576919 -180.932314 
L 292.576919 -179.411864 
L 292.576919 -177.891415 
L 292.576919 -176.370966 
L 292.576919 -174.850516 
L 292.576919 -173.330067 
L 292.576919 -171.809617 
L 292.576919 -170.289168 
L 292.576919 -168.768718 
L 292.576919 -167.248269 
L 292.576919 -165.727819 
L 292.576919 -164.20737 
L 292.576919 -162.68692 
L 292.576919 -161.166471 
L 292.576919 -159.646022 
L 292.576919 -158.125572 
L 292.576919 -156.605123 
L 292.576919 -155.084673 
L 292.576919 -153.564224 
L 292.576919 -152.043774 
L 292.576919 -150.523325 
L 292.576919 -149.002875 
L 292.576919 -147.482426 
L 292.576919 -145.961976 
L 292.576919 -144.441527 
L 292.576919 -142.921077 
L 292.576919 -141.400628 
L 292.576919 -139.880179 
L 292.576919 -138.359729 
L 292.576919 -136.83928 
L 292.576919 -135.31883 
L 292.576919 -133.798381 
L 292.576919 -132.277931 
L 292.576919 -130.757482 
L 292.576919 -129.237032 
L 292.576919 -127.716583 
L 292.576919 -126.196133 
L 292.576919 -124.675684 
L 292.576919 -123.155234 
L 292.576919 -121.634785 
L 292.576919 -120.114336 
L 292.576919 -118.593886 
L 292.576919 -117.073437 
L 292.576919 -115.552987 
L 292.576919 -114.032538 
L 292.576919 -112.512088 
L 292.576919 -110.991639 
L 292.576919 -109.471189 
L 292.576919 -107.95074 
L 292.576919 -106.43029 
L 292.576919 -104.909841 
L 292.576919 -103.389392 
L 292.576919 -101.868942 
L 292.576919 -100.348493 
L 292.576919 -98.828043 
L 292.576919 -97.307594 
L 292.576919 -95.787144 
L 292.576919 -94.266695 
L 292.576919 -92.746245 
L 292.576919 -91.225796 
L 292.576919 -89.705346 
L 292.576919 -88.184897 
L 292.576919 -86.664447 
L 292.576919 -85.143998 
L 292.576919 -83.623549 
L 292.576919 -82.103099 
L 292.576919 -80.58265 
L 292.576919 -79.0622 
L 292.576919 -77.541751 
L 292.576919 -76.021301 
L 292.576919 -74.500852 
L 292.576919 -72.980402 
L 292.576919 -71.459953 
L 292.576919 -69.939503 
L 292.576919 -68.419054 
L 292.576919 -66.898604 
L 292.576919 -65.378155 
z
" style="stroke: #4c4c4c; stroke-width: 1.5"/>
    </defs>
    <g clip-path="url(#pabc79d4c7e)">
     <use xlink:href="#m2d6ba1061c" x="0" y="347.739687" style="fill: #5875a4; stroke: #4c4c4c; stroke-width: 1.5"/>
    </g>
   </g>
   <g id="PolyCollection_6">
    <defs>
     <path id="m05221834fd" d="M 293.628644 -56.486051 
L 292.576919 -56.486051 
L 292.576919 -58.284358 
L 292.576919 -60.082666 
L 292.576919 -61.880973 
L 292.576919 -63.67928 
L 292.576919 -65.477587 
L 292.576919 -67.275894 
L 292.576919 -69.074201 
L 292.576919 -70.872509 
L 292.576919 -72.670816 
L 292.576919 -74.469123 
L 292.576919 -76.26743 
L 292.576919 -78.065737 
L 292.576919 -79.864045 
L 292.576919 -81.662352 
L 292.576919 -83.460659 
L 292.576919 -85.258966 
L 292.576919 -87.057273 
L 292.576919 -88.85558 
L 292.576919 -90.653888 
L 292.576919 -92.452195 
L 292.576919 -94.250502 
L 292.576919 -96.048809 
L 292.576919 -97.847116 
L 292.576919 -99.645424 
L 292.576919 -101.443731 
L 292.576919 -103.242038 
L 292.576919 -105.040345 
L 292.576919 -106.838652 
L 292.576919 -108.636959 
L 292.576919 -110.435267 
L 292.576919 -112.233574 
L 292.576919 -114.031881 
L 292.576919 -115.830188 
L 292.576919 -117.628495 
L 292.576919 -119.426803 
L 292.576919 -121.22511 
L 292.576919 -123.023417 
L 292.576919 -124.821724 
L 292.576919 -126.620031 
L 292.576919 -128.418338 
L 292.576919 -130.216646 
L 292.576919 -132.014953 
L 292.576919 -133.81326 
L 292.576919 -135.611567 
L 292.576919 -137.409874 
L 292.576919 -139.208182 
L 292.576919 -141.006489 
L 292.576919 -142.804796 
L 292.576919 -144.603103 
L 292.576919 -146.40141 
L 292.576919 -148.199717 
L 292.576919 -149.998025 
L 292.576919 -151.796332 
L 292.576919 -153.594639 
L 292.576919 -155.392946 
L 292.576919 -157.191253 
L 292.576919 -158.989561 
L 292.576919 -160.787868 
L 292.576919 -162.586175 
L 292.576919 -164.384482 
L 292.576919 -166.182789 
L 292.576919 -167.981096 
L 292.576919 -169.779404 
L 292.576919 -171.577711 
L 292.576919 -173.376018 
L 292.576919 -175.174325 
L 292.576919 -176.972632 
L 292.576919 -178.77094 
L 292.576919 -180.569247 
L 292.576919 -182.367554 
L 292.576919 -184.165861 
L 292.576919 -185.964168 
L 292.576919 -187.762475 
L 292.576919 -189.560783 
L 292.576919 -191.35909 
L 292.576919 -193.157397 
L 292.576919 -194.955704 
L 292.576919 -196.754011 
L 292.576919 -198.552319 
L 292.576919 -200.350626 
L 292.576919 -202.148933 
L 292.576919 -203.94724 
L 292.576919 -205.745547 
L 292.576919 -207.543854 
L 292.576919 -209.342162 
L 292.576919 -211.140469 
L 292.576919 -212.938776 
L 292.576919 -214.737083 
L 292.576919 -216.53539 
L 292.576919 -218.333698 
L 292.576919 -220.132005 
L 292.576919 -221.930312 
L 292.576919 -223.728619 
L 292.576919 -225.526926 
L 292.576919 -227.325233 
L 292.576919 -229.123541 
L 292.576919 -230.921848 
L 292.576919 -232.720155 
L 292.576919 -234.518462 
L 292.63161 -234.518462 
L 292.63161 -234.518462 
L 292.657277 -232.720155 
L 292.69094 -230.921848 
L 292.733191 -229.123541 
L 292.783863 -227.325233 
L 292.841829 -225.526926 
L 292.904932 -223.728619 
L 292.970126 -221.930312 
L 293.033826 -220.132005 
L 293.092455 -218.333698 
L 293.143067 -216.53539 
L 293.183904 -214.737083 
L 293.214747 -212.938776 
L 293.236939 -211.140469 
L 293.253056 -209.342162 
L 293.266301 -207.543854 
L 293.279788 -205.745547 
L 293.295915 -203.94724 
L 293.316019 -202.148933 
L 293.340421 -200.350626 
L 293.368851 -198.552319 
L 293.401122 -196.754011 
L 293.437865 -194.955704 
L 293.481096 -193.157397 
L 293.534458 -191.35909 
L 293.603064 -189.560783 
L 293.693013 -187.762475 
L 293.810715 -185.964168 
L 293.962253 -184.165861 
L 294.15297 -182.367554 
L 294.387397 -180.569247 
L 294.669515 -178.77094 
L 295.003207 -176.972632 
L 295.392645 -175.174325 
L 295.842337 -173.376018 
L 296.356646 -171.577711 
L 296.938746 -169.779404 
L 297.589217 -167.981096 
L 298.304659 -166.182789 
L 299.076804 -164.384482 
L 299.892533 -162.586175 
L 300.734972 -160.787868 
L 301.58555 -158.989561 
L 302.426573 -157.191253 
L 303.243683 -155.392946 
L 304.027552 -153.594639 
L 304.774354 -151.796332 
L 305.484862 -149.998025 
L 306.162417 -148.199717 
L 306.810289 -146.40141 
L 307.429108 -144.603103 
L 308.015019 -142.804796 
L 308.558961 -141.006489 
L 309.047185 -139.208182 
L 309.462841 -137.409874 
L 309.78819 -135.611567 
L 310.007018 -133.81326 
L 310.106829 -132.014953 
L 310.080645 -130.216646 
L 309.928358 -128.418338 
L 309.657742 -126.620031 
L 309.285214 -124.821724 
L 308.836347 -123.023417 
L 308.346005 -121.22511 
L 307.857871 -119.426803 
L 307.423125 -117.628495 
L 307.098088 -115.830188 
L 306.940814 -114.031881 
L 307.00674 -112.233574 
L 307.343649 -110.435267 
L 307.986288 -108.636959 
L 308.951067 -106.838652 
L 310.231334 -105.040345 
L 311.793835 -103.242038 
L 313.577088 -101.443731 
L 315.492377 -99.645424 
L 317.427967 -97.847116 
L 319.256746 -96.048809 
L 320.846898 -94.250502 
L 322.074526 -92.452195 
L 322.836485 -90.653888 
L 323.061385 -88.85558 
L 322.71684 -87.057273 
L 321.811714 -85.258966 
L 320.393116 -83.460659 
L 318.538978 -81.662352 
L 316.347893 -79.864045 
L 313.928244 -78.065737 
L 311.388392 -76.26743 
L 308.829079 -74.469123 
L 306.338364 -72.670816 
L 303.988789 -70.872509 
L 301.836133 -69.074201 
L 299.919162 -67.275894 
L 298.260028 -65.477587 
L 296.86526 -63.67928 
L 295.72746 -61.880973 
L 294.827744 -60.082666 
L 294.138858 -58.284358 
L 293.628644 -56.486051 
z
" style="stroke: #4c4c4c; stroke-width: 1.5"/>
    </defs>
    <g clip-path="url(#pabc79d4c7e)">
     <use xlink:href="#m05221834fd" x="0" y="347.739687" style="fill: #cc8963; stroke: #4c4c4c; stroke-width: 1.5"/>
    </g>
   </g>
   <g id="line2d_12">
    <path d="M 104.227134 267.144784 
L 104.227134 183.159745 
" clip-path="url(#pabc79d4c7e)" style="fill: none; stroke: #4c4c4c; stroke-width: 1.5; stroke-linecap: round"/>
   </g>
   <g id="line2d_13">
    <path d="M 104.227134 259.619382 
L 104.227134 229.01094 
" clip-path="url(#pabc79d4c7e)" style="fill: none; stroke: #4c4c4c; stroke-width: 4.5; stroke-linecap: round"/>
   </g>
   <g id="line2d_14">
    <path d="M 198.402026 268.956589 
L 198.402026 226.401709 
" clip-path="url(#pabc79d4c7e)" style="fill: none; stroke: #4c4c4c; stroke-width: 1.5; stroke-linecap: round"/>
   </g>
   <g id="line2d_15">
    <path d="M 198.402026 259.467379 
L 198.402026 246.037612 
" clip-path="url(#pabc79d4c7e)" style="fill: none; stroke: #4c4c4c; stroke-width: 4.5; stroke-linecap: round"/>
   </g>
   <g id="line2d_16">
    <path d="M 292.576919 272.366071 
L 292.576919 148.070456 
" clip-path="url(#pabc79d4c7e)" style="fill: none; stroke: #4c4c4c; stroke-width: 1.5; stroke-linecap: round"/>
   </g>
   <g id="line2d_17">
    <path d="M 292.576919 258.637021 
L 292.576919 213.504514 
" clip-path="url(#pabc79d4c7e)" style="fill: none; stroke: #4c4c4c; stroke-width: 4.5; stroke-linecap: round"/>
   </g>
   <g id="patch_5">
    <path d="M 57.139688 304.78 
L 57.139688 7.2 
" style="fill: none; stroke: #262626; stroke-width: 1.25; stroke-linejoin: miter; stroke-linecap: square"/>
   </g>
   <g id="patch_6">
    <path d="M 57.139688 304.78 
L 339.664365 304.78 
" style="fill: none; stroke: #262626; stroke-width: 1.25; stroke-linejoin: miter; stroke-linecap: square"/>
   </g>
   <g id="PathCollection_1">
    <defs>
     <path id="md5f19c693c" d="M 0 1.5 
C 0.397805 1.5 0.77937 1.341951 1.06066 1.06066 
C 1.341951 0.77937 1.5 0.397805 1.5 0 
C 1.5 -0.397805 1.341951 -0.77937 1.06066 -1.06066 
C 0.77937 -1.341951 0.397805 -1.5 0 -1.5 
C -0.397805 -1.5 -0.77937 -1.341951 -1.06066 -1.06066 
C -1.341951 -0.77937 -1.5 -0.397805 -1.5 0 
C -1.5 0.397805 -1.341951 0.77937 -1.06066 1.06066 
C -0.77937 1.341951 -0.397805 1.5 0 1.5 
z
" style="stroke: #4c4c4c"/>
    </defs>
    <g clip-path="url(#pabc79d4c7e)">
     <use xlink:href="#md5f19c693c" x="104.227134" y="248.269975" style="fill: #ffffff; stroke: #4c4c4c"/>
    </g>
   </g>
   <g id="PathCollection_2">
    <g clip-path="url(#pabc79d4c7e)">
     <use xlink:href="#md5f19c693c" x="198.402026" y="254.461101" style="fill: #ffffff; stroke: #4c4c4c"/>
    </g>
   </g>
   <g id="PathCollection_3">
    <g clip-path="url(#pabc79d4c7e)">
     <use xlink:href="#md5f19c693c" x="292.576919" y="244.174964" style="fill: #ffffff; stroke: #4c4c4c"/>
    </g>
   </g>
  </g>
  <g id="legend_1">
   <g id="text_14">
    <!-- dim -->
    <g style="fill: #262626" transform="translate(355.489037 161.035156)scale(0.12 -0.12)">
     <use xlink:href="#DejaVuSans-64"/>
     <use xlink:href="#DejaVuSans-69" x="63.476562"/>
     <use xlink:href="#DejaVuSans-6d" x="91.259766"/>
    </g>
   </g>
   <g id="patch_7">
    <path d="M 344.418334 177.389062 
L 366.418334 177.389062 
L 366.418334 169.689062 
L 344.418334 169.689062 
z
" style="fill: #5875a4; stroke: #4c4c4c; stroke-width: 0.75; stroke-linejoin: miter"/>
   </g>
   <g id="text_15">
    <!-- 2d -->
    <g style="fill: #262626" transform="translate(375.218334 177.389062)scale(0.11 -0.11)">
     <use xlink:href="#DejaVuSans-32"/>
     <use xlink:href="#DejaVuSans-64" x="63.623047"/>
    </g>
   </g>
   <g id="patch_8">
    <path d="M 344.418334 193.535 
L 366.418334 193.535 
L 366.418334 185.835 
L 344.418334 185.835 
z
" style="fill: #cc8963; stroke: #4c4c4c; stroke-width: 0.75; stroke-linejoin: miter"/>
   </g>
   <g id="text_16">
    <!-- 3d -->
    <g style="fill: #262626" transform="translate(375.218334 193.535)scale(0.11 -0.11)">
     <defs>
      <path id="DejaVuSans-33" d="M 2597 2516 
Q 3050 2419 3304 2112 
Q 3559 1806 3559 1356 
Q 3559 666 3084 287 
Q 2609 -91 1734 -91 
Q 1441 -91 1130 -33 
Q 819 25 488 141 
L 488 750 
Q 750 597 1062 519 
Q 1375 441 1716 441 
Q 2309 441 2620 675 
Q 2931 909 2931 1356 
Q 2931 1769 2642 2001 
Q 2353 2234 1838 2234 
L 1294 2234 
L 1294 2753 
L 1863 2753 
Q 2328 2753 2575 2939 
Q 2822 3125 2822 3475 
Q 2822 3834 2567 4026 
Q 2313 4219 1838 4219 
Q 1578 4219 1281 4162 
Q 984 4106 628 3988 
L 628 4550 
Q 988 4650 1302 4700 
Q 1616 4750 1894 4750 
Q 2613 4750 3031 4423 
Q 3450 4097 3450 3541 
Q 3450 3153 3228 2886 
Q 3006 2619 2597 2516 
z
" transform="scale(0.015625)"/>
     </defs>
     <use xlink:href="#DejaVuSans-33"/>
     <use xlink:href="#DejaVuSans-64" x="63.623047"/>
    </g>
   </g>
  </g>
 </g>
 <defs>
  <clipPath id="pabc79d4c7e">
   <rect x="57.139688" y="7.2" width="282.524678" height="297.58"/>
  </clipPath>
 </defs>
</svg>
