<?xml version="1.0" encoding="utf-8" standalone="no"?>
<!DOCTYPE svg PUBLIC "-//W3C//DTD SVG 1.1//EN"
  "http://www.w3.org/Graphics/SVG/1.1/DTD/svg11.dtd">
<svg xmlns:xlink="http://www.w3.org/1999/xlink" width="401.568872pt" height="347.739687pt" viewBox="0 0 401.568872 347.739687" xmlns="http://www.w3.org/2000/svg" version="1.1">
 <metadata>
  <rdf:RDF xmlns:dc="http://purl.org/dc/elements/1.1/" xmlns:cc="http://creativecommons.org/ns#" xmlns:rdf="http://www.w3.org/1999/02/22-rdf-syntax-ns#">
   <cc:Work>
    <dc:type rdf:resource="http://purl.org/dc/dcmitype/StillImage"/>
    <dc:date>2022-03-28T16:33:40.384916</dc:date>
    <dc:format>image/svg+xml</dc:format>
    <dc:creator>
     <cc:Agent>
      <dc:title>Matplotlib v3.5.1, https://matplotlib.org/</dc:title>
     </cc:Agent>
    </dc:creator>
   </cc:Work>
  </rdf:RDF>
 </metadata>
 <defs>
  <style type="text/css">*{stroke-linejoin: round; stroke-linecap: butt}</style>
 </defs>
 <g id="figure_1">
  <g id="patch_1">
   <path d="M -0 347.739687 
L 401.568872 347.739687 
L 401.568872 0 
L -0 0 
z
" style="fill: #ffffff"/>
  </g>
  <g id="axes_1">
   <g id="patch_2">
    <path d="M 39.64625 304.78 
L 342.132872 304.78 
L 342.132872 7.2 
L 39.64625 7.2 
z
" style="fill: #ffffff"/>
   </g>
   <g id="matplotlib.axis_1">
    <g id="xtick_1">
     <g id="line2d_1">
      <defs>
       <path id="m3cc3da2920" d="M 0 0 
L 0 6 
" style="stroke: #262626; stroke-width: 1.25"/>
      </defs>
      <g>
       <use xlink:href="#m3cc3da2920" x="90.060687" y="304.78" style="fill: #262626; stroke: #262626; stroke-width: 1.25"/>
      </g>
     </g>
     <g id="text_1">
      <!-- teb -->
      <g style="fill: #262626" transform="translate(81.028656 322.638281)scale(0.11 -0.11)">
       <defs>
        <path id="DejaVuSans-74" d="M 1172 4494 
L 1172 3500 
L 2356 3500 
L 2356 3053 
L 1172 3053 
L 1172 1153 
Q 1172 725 1289 603 
Q 1406 481 1766 481 
L 2356 481 
L 2356 0 
L 1766 0 
Q 1100 0 847 248 
Q 594 497 594 1153 
L 594 3053 
L 172 3053 
L 172 3500 
L 594 3500 
L 594 4494 
L 1172 4494 
z
" transform="scale(0.015625)"/>
        <path id="DejaVuSans-65" d="M 3597 1894 
L 3597 1613 
L 953 1613 
Q 991 1019 1311 708 
Q 1631 397 2203 397 
Q 2534 397 2845 478 
Q 3156 559 3463 722 
L 3463 178 
Q 3153 47 2828 -22 
Q 2503 -91 2169 -91 
Q 1331 -91 842 396 
Q 353 884 353 1716 
Q 353 2575 817 3079 
Q 1281 3584 2069 3584 
Q 2775 3584 3186 3129 
Q 3597 2675 3597 1894 
z
M 3022 2063 
Q 3016 2534 2758 2815 
Q 2500 3097 2075 3097 
Q 1594 3097 1305 2825 
Q 1016 2553 972 2059 
L 3022 2063 
z
" transform="scale(0.015625)"/>
        <path id="DejaVuSans-62" d="M 3116 1747 
Q 3116 2381 2855 2742 
Q 2594 3103 2138 3103 
Q 1681 3103 1420 2742 
Q 1159 2381 1159 1747 
Q 1159 1113 1420 752 
Q 1681 391 2138 391 
Q 2594 391 2855 752 
Q 3116 1113 3116 1747 
z
M 1159 2969 
Q 1341 3281 1617 3432 
Q 1894 3584 2278 3584 
Q 2916 3584 3314 3078 
Q 3713 2572 3713 1747 
Q 3713 922 3314 415 
Q 2916 -91 2278 -91 
Q 1894 -91 1617 61 
Q 1341 213 1159 525 
L 1159 0 
L 581 0 
L 581 4863 
L 1159 4863 
L 1159 2969 
z
" transform="scale(0.015625)"/>
       </defs>
       <use xlink:href="#DejaVuSans-74"/>
       <use xlink:href="#DejaVuSans-65" x="39.208984"/>
       <use xlink:href="#DejaVuSans-62" x="100.732422"/>
      </g>
     </g>
    </g>
    <g id="xtick_2">
     <g id="line2d_2">
      <g>
       <use xlink:href="#m3cc3da2920" x="190.889561" y="304.78" style="fill: #262626; stroke: #262626; stroke-width: 1.25"/>
      </g>
     </g>
     <g id="text_2">
      <!-- dwa -->
      <g style="fill: #262626" transform="translate(179.529483 322.638281)scale(0.11 -0.11)">
       <defs>
        <path id="DejaVuSans-64" d="M 2906 2969 
L 2906 4863 
L 3481 4863 
L 3481 0 
L 2906 0 
L 2906 525 
Q 2725 213 2448 61 
Q 2172 -91 1784 -91 
Q 1150 -91 751 415 
Q 353 922 353 1747 
Q 353 2572 751 3078 
Q 1150 3584 1784 3584 
Q 2172 3584 2448 3432 
Q 2725 3281 2906 2969 
z
M 947 1747 
Q 947 1113 1208 752 
Q 1469 391 1925 391 
Q 2381 391 2643 752 
Q 2906 1113 2906 1747 
Q 2906 2381 2643 2742 
Q 2381 3103 1925 3103 
Q 1469 3103 1208 2742 
Q 947 2381 947 1747 
z
" transform="scale(0.015625)"/>
        <path id="DejaVuSans-77" d="M 269 3500 
L 844 3500 
L 1563 769 
L 2278 3500 
L 2956 3500 
L 3675 769 
L 4391 3500 
L 4966 3500 
L 4050 0 
L 3372 0 
L 2619 2869 
L 1863 0 
L 1184 0 
L 269 3500 
z
" transform="scale(0.015625)"/>
        <path id="DejaVuSans-61" d="M 2194 1759 
Q 1497 1759 1228 1600 
Q 959 1441 959 1056 
Q 959 750 1161 570 
Q 1363 391 1709 391 
Q 2188 391 2477 730 
Q 2766 1069 2766 1631 
L 2766 1759 
L 2194 1759 
z
M 3341 1997 
L 3341 0 
L 2766 0 
L 2766 531 
Q 2569 213 2275 61 
Q 1981 -91 1556 -91 
Q 1019 -91 701 211 
Q 384 513 384 1019 
Q 384 1609 779 1909 
Q 1175 2209 1959 2209 
L 2766 2209 
L 2766 2266 
Q 2766 2663 2505 2880 
Q 2244 3097 1772 3097 
Q 1472 3097 1187 3025 
Q 903 2953 641 2809 
L 641 3341 
Q 956 3463 1253 3523 
Q 1550 3584 1831 3584 
Q 2591 3584 2966 3190 
Q 3341 2797 3341 1997 
z
" transform="scale(0.015625)"/>
       </defs>
       <use xlink:href="#DejaVuSans-64"/>
       <use xlink:href="#DejaVuSans-77" x="63.476562"/>
       <use xlink:href="#DejaVuSans-61" x="145.263672"/>
      </g>
     </g>
    </g>
    <g id="xtick_3">
     <g id="line2d_3">
      <g>
       <use xlink:href="#m3cc3da2920" x="291.718435" y="304.78" style="fill: #262626; stroke: #262626; stroke-width: 1.25"/>
      </g>
     </g>
     <g id="text_3">
      <!-- rosnav -->
      <g style="fill: #262626" transform="translate(273.239295 322.638281)scale(0.11 -0.11)">
       <defs>
        <path id="DejaVuSans-72" d="M 2631 2963 
Q 2534 3019 2420 3045 
Q 2306 3072 2169 3072 
Q 1681 3072 1420 2755 
Q 1159 2438 1159 1844 
L 1159 0 
L 581 0 
L 581 3500 
L 1159 3500 
L 1159 2956 
Q 1341 3275 1631 3429 
Q 1922 3584 2338 3584 
Q 2397 3584 2469 3576 
Q 2541 3569 2628 3553 
L 2631 2963 
z
" transform="scale(0.015625)"/>
        <path id="DejaVuSans-6f" d="M 1959 3097 
Q 1497 3097 1228 2736 
Q 959 2375 959 1747 
Q 959 1119 1226 758 
Q 1494 397 1959 397 
Q 2419 397 2687 759 
Q 2956 1122 2956 1747 
Q 2956 2369 2687 2733 
Q 2419 3097 1959 3097 
z
M 1959 3584 
Q 2709 3584 3137 3096 
Q 3566 2609 3566 1747 
Q 3566 888 3137 398 
Q 2709 -91 1959 -91 
Q 1206 -91 779 398 
Q 353 888 353 1747 
Q 353 2609 779 3096 
Q 1206 3584 1959 3584 
z
" transform="scale(0.015625)"/>
        <path id="DejaVuSans-73" d="M 2834 3397 
L 2834 2853 
Q 2591 2978 2328 3040 
Q 2066 3103 1784 3103 
Q 1356 3103 1142 2972 
Q 928 2841 928 2578 
Q 928 2378 1081 2264 
Q 1234 2150 1697 2047 
L 1894 2003 
Q 2506 1872 2764 1633 
Q 3022 1394 3022 966 
Q 3022 478 2636 193 
Q 2250 -91 1575 -91 
Q 1294 -91 989 -36 
Q 684 19 347 128 
L 347 722 
Q 666 556 975 473 
Q 1284 391 1588 391 
Q 1994 391 2212 530 
Q 2431 669 2431 922 
Q 2431 1156 2273 1281 
Q 2116 1406 1581 1522 
L 1381 1569 
Q 847 1681 609 1914 
Q 372 2147 372 2553 
Q 372 3047 722 3315 
Q 1072 3584 1716 3584 
Q 2034 3584 2315 3537 
Q 2597 3491 2834 3397 
z
" transform="scale(0.015625)"/>
        <path id="DejaVuSans-6e" d="M 3513 2113 
L 3513 0 
L 2938 0 
L 2938 2094 
Q 2938 2591 2744 2837 
Q 2550 3084 2163 3084 
Q 1697 3084 1428 2787 
Q 1159 2491 1159 1978 
L 1159 0 
L 581 0 
L 581 3500 
L 1159 3500 
L 1159 2956 
Q 1366 3272 1645 3428 
Q 1925 3584 2291 3584 
Q 2894 3584 3203 3211 
Q 3513 2838 3513 2113 
z
" transform="scale(0.015625)"/>
        <path id="DejaVuSans-76" d="M 191 3500 
L 800 3500 
L 1894 563 
L 2988 3500 
L 3597 3500 
L 2284 0 
L 1503 0 
L 191 3500 
z
" transform="scale(0.015625)"/>
       </defs>
       <use xlink:href="#DejaVuSans-72"/>
       <use xlink:href="#DejaVuSans-6f" x="38.863281"/>
       <use xlink:href="#DejaVuSans-73" x="100.044922"/>
       <use xlink:href="#DejaVuSans-6e" x="152.144531"/>
       <use xlink:href="#DejaVuSans-61" x="215.523438"/>
       <use xlink:href="#DejaVuSans-76" x="276.802734"/>
      </g>
     </g>
    </g>
    <g id="text_4">
     <!-- Planner -->
     <g style="fill: #262626" transform="translate(168.164561 338.044062)scale(0.12 -0.12)">
      <defs>
       <path id="DejaVuSans-50" d="M 1259 4147 
L 1259 2394 
L 2053 2394 
Q 2494 2394 2734 2622 
Q 2975 2850 2975 3272 
Q 2975 3691 2734 3919 
Q 2494 4147 2053 4147 
L 1259 4147 
z
M 628 4666 
L 2053 4666 
Q 2838 4666 3239 4311 
Q 3641 3956 3641 3272 
Q 3641 2581 3239 2228 
Q 2838 1875 2053 1875 
L 1259 1875 
L 1259 0 
L 628 0 
L 628 4666 
z
" transform="scale(0.015625)"/>
       <path id="DejaVuSans-6c" d="M 603 4863 
L 1178 4863 
L 1178 0 
L 603 0 
L 603 4863 
z
" transform="scale(0.015625)"/>
      </defs>
      <use xlink:href="#DejaVuSans-50"/>
      <use xlink:href="#DejaVuSans-6c" x="60.302734"/>
      <use xlink:href="#DejaVuSans-61" x="88.085938"/>
      <use xlink:href="#DejaVuSans-6e" x="149.365234"/>
      <use xlink:href="#DejaVuSans-6e" x="212.744141"/>
      <use xlink:href="#DejaVuSans-65" x="276.123047"/>
      <use xlink:href="#DejaVuSans-72" x="337.646484"/>
     </g>
    </g>
   </g>
   <g id="matplotlib.axis_2">
    <g id="ytick_1">
     <g id="line2d_4">
      <defs>
       <path id="mca35dcb0c7" d="M 0 0 
L -6 0 
" style="stroke: #262626; stroke-width: 1.25"/>
      </defs>
      <g>
       <use xlink:href="#mca35dcb0c7" x="39.64625" y="273.336113" style="fill: #262626; stroke: #262626; stroke-width: 1.25"/>
      </g>
     </g>
     <g id="text_5">
      <!-- 0 -->
      <g style="fill: #262626" transform="translate(23.1475 277.515254)scale(0.11 -0.11)">
       <defs>
        <path id="DejaVuSans-30" d="M 2034 4250 
Q 1547 4250 1301 3770 
Q 1056 3291 1056 2328 
Q 1056 1369 1301 889 
Q 1547 409 2034 409 
Q 2525 409 2770 889 
Q 3016 1369 3016 2328 
Q 3016 3291 2770 3770 
Q 2525 4250 2034 4250 
z
M 2034 4750 
Q 2819 4750 3233 4129 
Q 3647 3509 3647 2328 
Q 3647 1150 3233 529 
Q 2819 -91 2034 -91 
Q 1250 -91 836 529 
Q 422 1150 422 2328 
Q 422 3509 836 4129 
Q 1250 4750 2034 4750 
z
" transform="scale(0.015625)"/>
       </defs>
       <use xlink:href="#DejaVuSans-30"/>
      </g>
     </g>
    </g>
    <g id="ytick_2">
     <g id="line2d_5">
      <g>
       <use xlink:href="#mca35dcb0c7" x="39.64625" y="238.37033" style="fill: #262626; stroke: #262626; stroke-width: 1.25"/>
      </g>
     </g>
     <g id="text_6">
      <!-- 1 -->
      <g style="fill: #262626" transform="translate(23.1475 242.54947)scale(0.11 -0.11)">
       <defs>
        <path id="DejaVuSans-31" d="M 794 531 
L 1825 531 
L 1825 4091 
L 703 3866 
L 703 4441 
L 1819 4666 
L 2450 4666 
L 2450 531 
L 3481 531 
L 3481 0 
L 794 0 
L 794 531 
z
" transform="scale(0.015625)"/>
       </defs>
       <use xlink:href="#DejaVuSans-31"/>
      </g>
     </g>
    </g>
    <g id="ytick_3">
     <g id="line2d_6">
      <g>
       <use xlink:href="#mca35dcb0c7" x="39.64625" y="203.404547" style="fill: #262626; stroke: #262626; stroke-width: 1.25"/>
      </g>
     </g>
     <g id="text_7">
      <!-- 2 -->
      <g style="fill: #262626" transform="translate(23.1475 207.583687)scale(0.11 -0.11)">
       <defs>
        <path id="DejaVuSans-32" d="M 1228 531 
L 3431 531 
L 3431 0 
L 469 0 
L 469 531 
Q 828 903 1448 1529 
Q 2069 2156 2228 2338 
Q 2531 2678 2651 2914 
Q 2772 3150 2772 3378 
Q 2772 3750 2511 3984 
Q 2250 4219 1831 4219 
Q 1534 4219 1204 4116 
Q 875 4013 500 3803 
L 500 4441 
Q 881 4594 1212 4672 
Q 1544 4750 1819 4750 
Q 2544 4750 2975 4387 
Q 3406 4025 3406 3419 
Q 3406 3131 3298 2873 
Q 3191 2616 2906 2266 
Q 2828 2175 2409 1742 
Q 1991 1309 1228 531 
z
" transform="scale(0.015625)"/>
       </defs>
       <use xlink:href="#DejaVuSans-32"/>
      </g>
     </g>
    </g>
    <g id="ytick_4">
     <g id="line2d_7">
      <g>
       <use xlink:href="#mca35dcb0c7" x="39.64625" y="168.438763" style="fill: #262626; stroke: #262626; stroke-width: 1.25"/>
      </g>
     </g>
     <g id="text_8">
      <!-- 3 -->
      <g style="fill: #262626" transform="translate(23.1475 172.617904)scale(0.11 -0.11)">
       <defs>
        <path id="DejaVuSans-33" d="M 2597 2516 
Q 3050 2419 3304 2112 
Q 3559 1806 3559 1356 
Q 3559 666 3084 287 
Q 2609 -91 1734 -91 
Q 1441 -91 1130 -33 
Q 819 25 488 141 
L 488 750 
Q 750 597 1062 519 
Q 1375 441 1716 441 
Q 2309 441 2620 675 
Q 2931 909 2931 1356 
Q 2931 1769 2642 2001 
Q 2353 2234 1838 2234 
L 1294 2234 
L 1294 2753 
L 1863 2753 
Q 2328 2753 2575 2939 
Q 2822 3125 2822 3475 
Q 2822 3834 2567 4026 
Q 2313 4219 1838 4219 
Q 1578 4219 1281 4162 
Q 984 4106 628 3988 
L 628 4550 
Q 988 4650 1302 4700 
Q 1616 4750 1894 4750 
Q 2613 4750 3031 4423 
Q 3450 4097 3450 3541 
Q 3450 3153 3228 2886 
Q 3006 2619 2597 2516 
z
" transform="scale(0.015625)"/>
       </defs>
       <use xlink:href="#DejaVuSans-33"/>
      </g>
     </g>
    </g>
    <g id="ytick_5">
     <g id="line2d_8">
      <g>
       <use xlink:href="#mca35dcb0c7" x="39.64625" y="133.47298" style="fill: #262626; stroke: #262626; stroke-width: 1.25"/>
      </g>
     </g>
     <g id="text_9">
      <!-- 4 -->
      <g style="fill: #262626" transform="translate(23.1475 137.652121)scale(0.11 -0.11)">
       <defs>
        <path id="DejaVuSans-34" d="M 2419 4116 
L 825 1625 
L 2419 1625 
L 2419 4116 
z
M 2253 4666 
L 3047 4666 
L 3047 1625 
L 3713 1625 
L 3713 1100 
L 3047 1100 
L 3047 0 
L 2419 0 
L 2419 1100 
L 313 1100 
L 313 1709 
L 2253 4666 
z
" transform="scale(0.015625)"/>
       </defs>
       <use xlink:href="#DejaVuSans-34"/>
      </g>
     </g>
    </g>
    <g id="ytick_6">
     <g id="line2d_9">
      <g>
       <use xlink:href="#mca35dcb0c7" x="39.64625" y="98.507197" style="fill: #262626; stroke: #262626; stroke-width: 1.25"/>
      </g>
     </g>
     <g id="text_10">
      <!-- 5 -->
      <g style="fill: #262626" transform="translate(23.1475 102.686338)scale(0.11 -0.11)">
       <defs>
        <path id="DejaVuSans-35" d="M 691 4666 
L 3169 4666 
L 3169 4134 
L 1269 4134 
L 1269 2991 
Q 1406 3038 1543 3061 
Q 1681 3084 1819 3084 
Q 2600 3084 3056 2656 
Q 3513 2228 3513 1497 
Q 3513 744 3044 326 
Q 2575 -91 1722 -91 
Q 1428 -91 1123 -41 
Q 819 9 494 109 
L 494 744 
Q 775 591 1075 516 
Q 1375 441 1709 441 
Q 2250 441 2565 725 
Q 2881 1009 2881 1497 
Q 2881 1984 2565 2268 
Q 2250 2553 1709 2553 
Q 1456 2553 1204 2497 
Q 953 2441 691 2322 
L 691 4666 
z
" transform="scale(0.015625)"/>
       </defs>
       <use xlink:href="#DejaVuSans-35"/>
      </g>
     </g>
    </g>
    <g id="ytick_7">
     <g id="line2d_10">
      <g>
       <use xlink:href="#mca35dcb0c7" x="39.64625" y="63.541414" style="fill: #262626; stroke: #262626; stroke-width: 1.25"/>
      </g>
     </g>
     <g id="text_11">
      <!-- 6 -->
      <g style="fill: #262626" transform="translate(23.1475 67.720555)scale(0.11 -0.11)">
       <defs>
        <path id="DejaVuSans-36" d="M 2113 2584 
Q 1688 2584 1439 2293 
Q 1191 2003 1191 1497 
Q 1191 994 1439 701 
Q 1688 409 2113 409 
Q 2538 409 2786 701 
Q 3034 994 3034 1497 
Q 3034 2003 2786 2293 
Q 2538 2584 2113 2584 
z
M 3366 4563 
L 3366 3988 
Q 3128 4100 2886 4159 
Q 2644 4219 2406 4219 
Q 1781 4219 1451 3797 
Q 1122 3375 1075 2522 
Q 1259 2794 1537 2939 
Q 1816 3084 2150 3084 
Q 2853 3084 3261 2657 
Q 3669 2231 3669 1497 
Q 3669 778 3244 343 
Q 2819 -91 2113 -91 
Q 1303 -91 875 529 
Q 447 1150 447 2328 
Q 447 3434 972 4092 
Q 1497 4750 2381 4750 
Q 2619 4750 2861 4703 
Q 3103 4656 3366 4563 
z
" transform="scale(0.015625)"/>
       </defs>
       <use xlink:href="#DejaVuSans-36"/>
      </g>
     </g>
    </g>
    <g id="ytick_8">
     <g id="line2d_11">
      <g>
       <use xlink:href="#mca35dcb0c7" x="39.64625" y="28.575631" style="fill: #262626; stroke: #262626; stroke-width: 1.25"/>
      </g>
     </g>
     <g id="text_12">
      <!-- 7 -->
      <g style="fill: #262626" transform="translate(23.1475 32.754771)scale(0.11 -0.11)">
       <defs>
        <path id="DejaVuSans-37" d="M 525 4666 
L 3525 4666 
L 3525 4397 
L 1831 0 
L 1172 0 
L 2766 4134 
L 525 4134 
L 525 4666 
z
" transform="scale(0.015625)"/>
       </defs>
       <use xlink:href="#DejaVuSans-37"/>
      </g>
     </g>
    </g>
    <g id="text_13">
     <!-- angle_over_length -->
     <g style="fill: #262626" transform="translate(16.318125 211.143125)rotate(-90)scale(0.12 -0.12)">
      <defs>
       <path id="DejaVuSans-67" d="M 2906 1791 
Q 2906 2416 2648 2759 
Q 2391 3103 1925 3103 
Q 1463 3103 1205 2759 
Q 947 2416 947 1791 
Q 947 1169 1205 825 
Q 1463 481 1925 481 
Q 2391 481 2648 825 
Q 2906 1169 2906 1791 
z
M 3481 434 
Q 3481 -459 3084 -895 
Q 2688 -1331 1869 -1331 
Q 1566 -1331 1297 -1286 
Q 1028 -1241 775 -1147 
L 775 -588 
Q 1028 -725 1275 -790 
Q 1522 -856 1778 -856 
Q 2344 -856 2625 -561 
Q 2906 -266 2906 331 
L 2906 616 
Q 2728 306 2450 153 
Q 2172 0 1784 0 
Q 1141 0 747 490 
Q 353 981 353 1791 
Q 353 2603 747 3093 
Q 1141 3584 1784 3584 
Q 2172 3584 2450 3431 
Q 2728 3278 2906 2969 
L 2906 3500 
L 3481 3500 
L 3481 434 
z
" transform="scale(0.015625)"/>
       <path id="DejaVuSans-5f" d="M 3263 -1063 
L 3263 -1509 
L -63 -1509 
L -63 -1063 
L 3263 -1063 
z
" transform="scale(0.015625)"/>
       <path id="DejaVuSans-68" d="M 3513 2113 
L 3513 0 
L 2938 0 
L 2938 2094 
Q 2938 2591 2744 2837 
Q 2550 3084 2163 3084 
Q 1697 3084 1428 2787 
Q 1159 2491 1159 1978 
L 1159 0 
L 581 0 
L 581 4863 
L 1159 4863 
L 1159 2956 
Q 1366 3272 1645 3428 
Q 1925 3584 2291 3584 
Q 2894 3584 3203 3211 
Q 3513 2838 3513 2113 
z
" transform="scale(0.015625)"/>
      </defs>
      <use xlink:href="#DejaVuSans-61"/>
      <use xlink:href="#DejaVuSans-6e" x="61.279297"/>
      <use xlink:href="#DejaVuSans-67" x="124.658203"/>
      <use xlink:href="#DejaVuSans-6c" x="188.134766"/>
      <use xlink:href="#DejaVuSans-65" x="215.917969"/>
      <use xlink:href="#DejaVuSans-5f" x="277.441406"/>
      <use xlink:href="#DejaVuSans-6f" x="327.441406"/>
      <use xlink:href="#DejaVuSans-76" x="388.623047"/>
      <use xlink:href="#DejaVuSans-65" x="447.802734"/>
      <use xlink:href="#DejaVuSans-72" x="509.326172"/>
      <use xlink:href="#DejaVuSans-5f" x="550.439453"/>
      <use xlink:href="#DejaVuSans-6c" x="600.439453"/>
      <use xlink:href="#DejaVuSans-65" x="628.222656"/>
      <use xlink:href="#DejaVuSans-6e" x="689.746094"/>
      <use xlink:href="#DejaVuSans-67" x="753.125"/>
      <use xlink:href="#DejaVuSans-74" x="816.601562"/>
      <use xlink:href="#DejaVuSans-68" x="855.810547"/>
     </g>
    </g>
   </g>
   <g id="patch_3">
    <path d="M 90.060687 273.336113 
L 90.060687 273.336113 
L 90.060687 273.336113 
L 90.060687 273.336113 
z
" clip-path="url(#pd514d4131f)" style="fill: #5875a4; stroke: #4c4c4c; stroke-width: 0.75; stroke-linejoin: miter"/>
   </g>
   <g id="PolyCollection_1">
    <defs>
     <path id="m4d9f68e229" d="M 90.060687 -67.726795 
L 89.413417 -67.726795 
L 89.020307 -69.225366 
L 88.450819 -70.723937 
L 87.661475 -72.222508 
L 86.615243 -73.721078 
L 85.290068 -75.219649 
L 83.687505 -76.71822 
L 81.83935 -78.216791 
L 79.810091 -79.715362 
L 77.693651 -81.213933 
L 75.604141 -82.712503 
L 73.661979 -84.211074 
L 71.978095 -85.709645 
L 70.639618 -87.208216 
L 69.700052 -88.706787 
L 69.175719 -90.205358 
L 69.048486 -91.703928 
L 69.27328 -93.202499 
L 69.788005 -94.70107 
L 70.523474 -96.199641 
L 71.411632 -97.698212 
L 72.391293 -99.196783 
L 73.411404 -100.695353 
L 74.432269 -102.193924 
L 75.425257 -103.692495 
L 76.371422 -105.191066 
L 77.259366 -106.689637 
L 78.082781 -108.188208 
L 78.838115 -109.686778 
L 79.522896 -111.185349 
L 80.135047 -112.68392 
L 80.673221 -114.182491 
L 81.137836 -115.681062 
L 81.532226 -117.179633 
L 81.863301 -118.678203 
L 82.141348 -120.176774 
L 82.378906 -121.675345 
L 82.589051 -123.173916 
L 82.783564 -124.672487 
L 82.971517 -126.171058 
L 83.15859 -127.669628 
L 83.347206 -129.168199 
L 83.537297 -130.66677 
L 83.727402 -132.165341 
L 83.915737 -133.663912 
L 84.100979 -135.162483 
L 84.282632 -136.661054 
L 84.460996 -138.159624 
L 84.636855 -139.658195 
L 84.811067 -141.156766 
L 84.984242 -142.655337 
L 85.156633 -144.153908 
L 85.328271 -145.652479 
L 85.499283 -147.151049 
L 85.670253 -148.64962 
L 85.842442 -150.148191 
L 86.017738 -151.646762 
L 86.198297 -153.145333 
L 86.385935 -154.643904 
L 86.581477 -156.142474 
L 86.784264 -157.641045 
L 86.99203 -159.139616 
L 87.201215 -160.638187 
L 87.407649 -162.136758 
L 87.607421 -163.635329 
L 87.797647 -165.133899 
L 87.976941 -166.63247 
L 88.145433 -168.131041 
L 88.304387 -169.629612 
L 88.455567 -171.128183 
L 88.600556 -172.626754 
L 88.74026 -174.125324 
L 88.874699 -175.623895 
L 89.00311 -177.122466 
L 89.124266 -178.621037 
L 89.236889 -180.119608 
L 89.339991 -181.618179 
L 89.433069 -183.116749 
L 89.516106 -184.61532 
L 89.58944 -186.113891 
L 89.653557 -187.612462 
L 89.708927 -189.111033 
L 89.755938 -190.609604 
L 89.794953 -192.108174 
L 89.826456 -193.606745 
L 89.851219 -195.105316 
L 89.87039 -196.603887 
L 89.885476 -198.102458 
L 89.898171 -199.601029 
L 89.91011 -201.099599 
L 89.92259 -202.59817 
L 89.936371 -204.096741 
L 89.951594 -205.595312 
L 89.967856 -207.093883 
L 89.984381 -208.592454 
L 90.000262 -210.091024 
L 90.014676 -211.589595 
L 90.027041 -213.088166 
L 90.037079 -214.586737 
L 90.044802 -216.085308 
L 90.060687 -216.085308 
L 90.060687 -216.085308 
L 90.060687 -214.586737 
L 90.060687 -213.088166 
L 90.060687 -211.589595 
L 90.060687 -210.091024 
L 90.060687 -208.592454 
L 90.060687 -207.093883 
L 90.060687 -205.595312 
L 90.060687 -204.096741 
L 90.060687 -202.59817 
L 90.060687 -201.099599 
L 90.060687 -199.601029 
L 90.060687 -198.102458 
L 90.060687 -196.603887 
L 90.060687 -195.105316 
L 90.060687 -193.606745 
L 90.060687 -192.108174 
L 90.060687 -190.609604 
L 90.060687 -189.111033 
L 90.060687 -187.612462 
L 90.060687 -186.113891 
L 90.060687 -184.61532 
L 90.060687 -183.116749 
L 90.060687 -181.618179 
L 90.060687 -180.119608 
L 90.060687 -178.621037 
L 90.060687 -177.122466 
L 90.060687 -175.623895 
L 90.060687 -174.125324 
L 90.060687 -172.626754 
L 90.060687 -171.128183 
L 90.060687 -169.629612 
L 90.060687 -168.131041 
L 90.060687 -166.63247 
L 90.060687 -165.133899 
L 90.060687 -163.635329 
L 90.060687 -162.136758 
L 90.060687 -160.638187 
L 90.060687 -159.139616 
L 90.060687 -157.641045 
L 90.060687 -156.142474 
L 90.060687 -154.643904 
L 90.060687 -153.145333 
L 90.060687 -151.646762 
L 90.060687 -150.148191 
L 90.060687 -148.64962 
L 90.060687 -147.151049 
L 90.060687 -145.652479 
L 90.060687 -144.153908 
L 90.060687 -142.655337 
L 90.060687 -141.156766 
L 90.060687 -139.658195 
L 90.060687 -138.159624 
L 90.060687 -136.661054 
L 90.060687 -135.162483 
L 90.060687 -133.663912 
L 90.060687 -132.165341 
L 90.060687 -130.66677 
L 90.060687 -129.168199 
L 90.060687 -127.669628 
L 90.060687 -126.171058 
L 90.060687 -124.672487 
L 90.060687 -123.173916 
L 90.060687 -121.675345 
L 90.060687 -120.176774 
L 90.060687 -118.678203 
L 90.060687 -117.179633 
L 90.060687 -115.681062 
L 90.060687 -114.182491 
L 90.060687 -112.68392 
L 90.060687 -111.185349 
L 90.060687 -109.686778 
L 90.060687 -108.188208 
L 90.060687 -106.689637 
L 90.060687 -105.191066 
L 90.060687 -103.692495 
L 90.060687 -102.193924 
L 90.060687 -100.695353 
L 90.060687 -99.196783 
L 90.060687 -97.698212 
L 90.060687 -96.199641 
L 90.060687 -94.70107 
L 90.060687 -93.202499 
L 90.060687 -91.703928 
L 90.060687 -90.205358 
L 90.060687 -88.706787 
L 90.060687 -87.208216 
L 90.060687 -85.709645 
L 90.060687 -84.211074 
L 90.060687 -82.712503 
L 90.060687 -81.213933 
L 90.060687 -79.715362 
L 90.060687 -78.216791 
L 90.060687 -76.71822 
L 90.060687 -75.219649 
L 90.060687 -73.721078 
L 90.060687 -72.222508 
L 90.060687 -70.723937 
L 90.060687 -69.225366 
L 90.060687 -67.726795 
z
" style="stroke: #4c4c4c; stroke-width: 1.5"/>
    </defs>
    <g clip-path="url(#pd514d4131f)">
     <use xlink:href="#m4d9f68e229" x="0" y="347.739687" style="fill: #5875a4; stroke: #4c4c4c; stroke-width: 1.5"/>
    </g>
   </g>
   <g id="patch_4">
    <path d="M 90.060687 273.336113 
L 90.060687 273.336113 
L 90.060687 273.336113 
L 90.060687 273.336113 
z
" clip-path="url(#pd514d4131f)" style="fill: #cc8963; stroke: #4c4c4c; stroke-width: 0.75; stroke-linejoin: miter"/>
   </g>
   <g id="PolyCollection_2">
    <defs>
     <path id="me3a8be6304" d="M 90.569792 -66.47913 
L 90.060687 -66.47913 
L 90.060687 -69.110788 
L 90.060687 -71.742447 
L 90.060687 -74.374105 
L 90.060687 -77.005764 
L 90.060687 -79.637422 
L 90.060687 -82.269081 
L 90.060687 -84.900739 
L 90.060687 -87.532398 
L 90.060687 -90.164057 
L 90.060687 -92.795715 
L 90.060687 -95.427374 
L 90.060687 -98.059032 
L 90.060687 -100.690691 
L 90.060687 -103.322349 
L 90.060687 -105.954008 
L 90.060687 -108.585666 
L 90.060687 -111.217325 
L 90.060687 -113.848983 
L 90.060687 -116.480642 
L 90.060687 -119.1123 
L 90.060687 -121.743959 
L 90.060687 -124.375617 
L 90.060687 -127.007276 
L 90.060687 -129.638934 
L 90.060687 -132.270593 
L 90.060687 -134.902251 
L 90.060687 -137.53391 
L 90.060687 -140.165569 
L 90.060687 -142.797227 
L 90.060687 -145.428886 
L 90.060687 -148.060544 
L 90.060687 -150.692203 
L 90.060687 -153.323861 
L 90.060687 -155.95552 
L 90.060687 -158.587178 
L 90.060687 -161.218837 
L 90.060687 -163.850495 
L 90.060687 -166.482154 
L 90.060687 -169.113812 
L 90.060687 -171.745471 
L 90.060687 -174.377129 
L 90.060687 -177.008788 
L 90.060687 -179.640446 
L 90.060687 -182.272105 
L 90.060687 -184.903763 
L 90.060687 -187.535422 
L 90.060687 -190.167081 
L 90.060687 -192.798739 
L 90.060687 -195.430398 
L 90.060687 -198.062056 
L 90.060687 -200.693715 
L 90.060687 -203.325373 
L 90.060687 -205.957032 
L 90.060687 -208.58869 
L 90.060687 -211.220349 
L 90.060687 -213.852007 
L 90.060687 -216.483666 
L 90.060687 -219.115324 
L 90.060687 -221.746983 
L 90.060687 -224.378641 
L 90.060687 -227.0103 
L 90.060687 -229.641958 
L 90.060687 -232.273617 
L 90.060687 -234.905275 
L 90.060687 -237.536934 
L 90.060687 -240.168593 
L 90.060687 -242.800251 
L 90.060687 -245.43191 
L 90.060687 -248.063568 
L 90.060687 -250.695227 
L 90.060687 -253.326885 
L 90.060687 -255.958544 
L 90.060687 -258.590202 
L 90.060687 -261.221861 
L 90.060687 -263.853519 
L 90.060687 -266.485178 
L 90.060687 -269.116836 
L 90.060687 -271.748495 
L 90.060687 -274.380153 
L 90.060687 -277.011812 
L 90.060687 -279.64347 
L 90.060687 -282.275129 
L 90.060687 -284.906787 
L 90.060687 -287.538446 
L 90.060687 -290.170104 
L 90.060687 -292.801763 
L 90.060687 -295.433422 
L 90.060687 -298.06508 
L 90.060687 -300.696739 
L 90.060687 -303.328397 
L 90.060687 -305.960056 
L 90.060687 -308.591714 
L 90.060687 -311.223373 
L 90.060687 -313.855031 
L 90.060687 -316.48669 
L 90.060687 -319.118348 
L 90.060687 -321.750007 
L 90.060687 -324.381665 
L 90.060687 -327.013324 
L 90.081412 -327.013324 
L 90.081412 -327.013324 
L 90.108797 -324.381665 
L 90.149533 -321.750007 
L 90.191216 -319.118348 
L 90.213248 -316.48669 
L 90.202549 -313.855031 
L 90.165675 -311.223373 
L 90.122763 -308.591714 
L 90.091145 -305.960056 
L 90.077338 -303.328397 
L 90.08167 -300.696739 
L 90.104247 -298.06508 
L 90.142766 -295.433422 
L 90.185477 -292.801763 
L 90.211835 -290.170104 
L 90.206351 -287.538446 
L 90.172367 -284.906787 
L 90.128805 -282.275129 
L 90.093741 -279.64347 
L 90.073447 -277.011812 
L 90.064606 -274.380153 
L 90.061644 -271.748495 
L 90.060873 -269.116836 
L 90.060716 -266.485178 
L 90.060691 -263.853519 
L 90.060687 -261.221861 
L 90.060687 -258.590202 
L 90.060687 -255.958544 
L 90.060687 -253.326885 
L 90.060687 -250.695227 
L 90.060687 -248.063568 
L 90.060687 -245.43191 
L 90.060687 -242.800251 
L 90.060687 -240.168593 
L 90.060687 -237.536934 
L 90.060687 -234.905275 
L 90.060687 -232.273617 
L 90.060687 -229.641958 
L 90.060687 -227.0103 
L 90.060687 -224.378641 
L 90.060687 -221.746983 
L 90.060687 -219.115324 
L 90.060687 -216.483666 
L 90.060687 -213.852007 
L 90.060687 -211.220349 
L 90.060687 -208.58869 
L 90.060687 -205.957032 
L 90.060687 -203.325373 
L 90.060687 -200.693715 
L 90.060687 -198.062056 
L 90.060687 -195.430398 
L 90.060687 -192.798739 
L 90.060687 -190.167081 
L 90.060689 -187.535422 
L 90.0607 -184.903763 
L 90.060782 -182.272105 
L 90.061219 -179.640446 
L 90.063058 -177.008788 
L 90.0691 -174.377129 
L 90.084438 -171.745471 
L 90.114044 -169.113812 
L 90.156152 -166.482154 
L 90.197161 -163.850495 
L 90.218598 -161.218837 
L 90.215929 -158.587178 
L 90.210898 -155.95552 
L 90.240311 -153.323861 
L 90.327184 -150.692203 
L 90.45878 -148.060544 
L 90.593992 -145.428886 
L 90.697507 -142.797227 
L 90.766514 -140.165569 
L 90.822086 -137.53391 
L 90.885481 -134.902251 
L 90.97627 -132.270593 
L 91.127798 -129.638934 
L 91.387614 -127.007276 
L 91.794016 -124.375617 
L 92.352502 -121.743959 
L 93.038096 -119.1123 
L 93.821765 -116.480642 
L 94.694362 -113.848983 
L 95.669299 -111.217325 
L 96.782716 -108.585666 
L 98.142872 -105.954008 
L 100.034039 -103.322349 
L 102.949539 -100.690691 
L 107.396476 -98.059032 
L 113.486799 -95.427374 
L 120.524079 -92.795715 
L 126.874249 -90.164057 
L 130.392237 -87.532398 
L 129.420625 -84.900739 
L 123.826237 -82.269081 
L 115.246041 -79.637422 
L 106.232238 -77.005764 
L 98.913745 -74.374105 
L 94.154026 -71.742447 
L 91.644933 -69.110788 
L 90.569792 -66.47913 
z
" style="stroke: #4c4c4c; stroke-width: 1.5"/>
    </defs>
    <g clip-path="url(#pd514d4131f)">
     <use xlink:href="#me3a8be6304" x="0" y="347.739687" style="fill: #cc8963; stroke: #4c4c4c; stroke-width: 1.5"/>
    </g>
   </g>
   <g id="PolyCollection_3">
    <defs>
     <path id="m54a335b7c3" d="M 190.889561 -66.924924 
L 190.352717 -66.924924 
L 189.546737 -68.833158 
L 187.896148 -70.741392 
L 184.93209 -72.649626 
L 180.280755 -74.557859 
L 173.93963 -76.466093 
L 166.51094 -78.374327 
L 159.199865 -80.282561 
L 153.482121 -82.190795 
L 150.558011 -84.099029 
L 150.875724 -86.007263 
L 153.983081 -87.915497 
L 158.77109 -89.823731 
L 163.954187 -91.731965 
L 168.532744 -93.640198 
L 172.038945 -95.548432 
L 174.512232 -97.456666 
L 176.286364 -99.3649 
L 177.731478 -101.273134 
L 179.075094 -103.181368 
L 180.358026 -105.089602 
L 181.504689 -106.997836 
L 182.436472 -108.90607 
L 183.151713 -110.814304 
L 183.73296 -112.722537 
L 184.294256 -114.630771 
L 184.914853 -116.539005 
L 185.603132 -118.447239 
L 186.304814 -120.355473 
L 186.939248 -122.263707 
L 187.437675 -124.171941 
L 187.767119 -126.080175 
L 187.937721 -127.988409 
L 187.997529 -129.896643 
L 188.017513 -131.804876 
L 188.068677 -133.71311 
L 188.197654 -135.621344 
L 188.412233 -137.529578 
L 188.685438 -139.437812 
L 188.975239 -141.346046 
L 189.246771 -143.25428 
L 189.484486 -145.162514 
L 189.69111 -147.070748 
L 189.878795 -148.978982 
L 190.059372 -150.887216 
L 190.23763 -152.795449 
L 190.409101 -154.703683 
L 190.562771 -156.611917 
L 190.687264 -158.520151 
L 190.776804 -160.428385 
L 190.833356 -162.336619 
L 190.864357 -164.244853 
L 190.878441 -166.153087 
L 190.881981 -168.061321 
L 190.877676 -169.969555 
L 190.865026 -171.877788 
L 190.842267 -173.786022 
L 190.809344 -175.694256 
L 190.770732 -177.60249 
L 190.735961 -179.510724 
L 190.716328 -181.418958 
L 190.719098 -183.327192 
L 190.743212 -185.235426 
L 190.779936 -187.14366 
L 190.817915 -189.051894 
L 190.848707 -190.960127 
L 190.869236 -192.868361 
L 190.880738 -194.776595 
L 190.88622 -196.684829 
L 190.888457 -198.593063 
L 190.889243 -200.501297 
L 190.889481 -202.409531 
L 190.889544 -204.317765 
L 190.889558 -206.225999 
L 190.889561 -208.134233 
L 190.889561 -210.042466 
L 190.889561 -211.9507 
L 190.889561 -213.858934 
L 190.889561 -215.767168 
L 190.889561 -217.675402 
L 190.889561 -219.583636 
L 190.889558 -221.49187 
L 190.889543 -223.400104 
L 190.889477 -225.308338 
L 190.889229 -227.216572 
L 190.888413 -229.124805 
L 190.886102 -231.033039 
L 190.880469 -232.941273 
L 190.86871 -234.849507 
L 190.847841 -236.757741 
L 190.816729 -238.665975 
L 190.778628 -240.574209 
L 190.74214 -242.482443 
L 190.71863 -244.390677 
L 190.716643 -246.298911 
L 190.736937 -248.207144 
L 190.772027 -250.115378 
L 190.81059 -252.023612 
L 190.843266 -253.931846 
L 190.865882 -255.84008 
L 190.889561 -255.84008 
L 190.889561 -255.84008 
L 190.889561 -253.931846 
L 190.889561 -252.023612 
L 190.889561 -250.115378 
L 190.889561 -248.207144 
L 190.889561 -246.298911 
L 190.889561 -244.390677 
L 190.889561 -242.482443 
L 190.889561 -240.574209 
L 190.889561 -238.665975 
L 190.889561 -236.757741 
L 190.889561 -234.849507 
L 190.889561 -232.941273 
L 190.889561 -231.033039 
L 190.889561 -229.124805 
L 190.889561 -227.216572 
L 190.889561 -225.308338 
L 190.889561 -223.400104 
L 190.889561 -221.49187 
L 190.889561 -219.583636 
L 190.889561 -217.675402 
L 190.889561 -215.767168 
L 190.889561 -213.858934 
L 190.889561 -211.9507 
L 190.889561 -210.042466 
L 190.889561 -208.134233 
L 190.889561 -206.225999 
L 190.889561 -204.317765 
L 190.889561 -202.409531 
L 190.889561 -200.501297 
L 190.889561 -198.593063 
L 190.889561 -196.684829 
L 190.889561 -194.776595 
L 190.889561 -192.868361 
L 190.889561 -190.960127 
L 190.889561 -189.051894 
L 190.889561 -187.14366 
L 190.889561 -185.235426 
L 190.889561 -183.327192 
L 190.889561 -181.418958 
L 190.889561 -179.510724 
L 190.889561 -177.60249 
L 190.889561 -175.694256 
L 190.889561 -173.786022 
L 190.889561 -171.877788 
L 190.889561 -169.969555 
L 190.889561 -168.061321 
L 190.889561 -166.153087 
L 190.889561 -164.244853 
L 190.889561 -162.336619 
L 190.889561 -160.428385 
L 190.889561 -158.520151 
L 190.889561 -156.611917 
L 190.889561 -154.703683 
L 190.889561 -152.795449 
L 190.889561 -150.887216 
L 190.889561 -148.978982 
L 190.889561 -147.070748 
L 190.889561 -145.162514 
L 190.889561 -143.25428 
L 190.889561 -141.346046 
L 190.889561 -139.437812 
L 190.889561 -137.529578 
L 190.889561 -135.621344 
L 190.889561 -133.71311 
L 190.889561 -131.804876 
L 190.889561 -129.896643 
L 190.889561 -127.988409 
L 190.889561 -126.080175 
L 190.889561 -124.171941 
L 190.889561 -122.263707 
L 190.889561 -120.355473 
L 190.889561 -118.447239 
L 190.889561 -116.539005 
L 190.889561 -114.630771 
L 190.889561 -112.722537 
L 190.889561 -110.814304 
L 190.889561 -108.90607 
L 190.889561 -106.997836 
L 190.889561 -105.089602 
L 190.889561 -103.181368 
L 190.889561 -101.273134 
L 190.889561 -99.3649 
L 190.889561 -97.456666 
L 190.889561 -95.548432 
L 190.889561 -93.640198 
L 190.889561 -91.731965 
L 190.889561 -89.823731 
L 190.889561 -87.915497 
L 190.889561 -86.007263 
L 190.889561 -84.099029 
L 190.889561 -82.190795 
L 190.889561 -80.282561 
L 190.889561 -78.374327 
L 190.889561 -76.466093 
L 190.889561 -74.557859 
L 190.889561 -72.649626 
L 190.889561 -70.741392 
L 190.889561 -68.833158 
L 190.889561 -66.924924 
z
" style="stroke: #4c4c4c; stroke-width: 1.5"/>
    </defs>
    <g clip-path="url(#pd514d4131f)">
     <use xlink:href="#m54a335b7c3" x="0" y="347.739687" style="fill: #5875a4; stroke: #4c4c4c; stroke-width: 1.5"/>
    </g>
   </g>
   <g id="PolyCollection_4">
    <defs>
     <path id="m96e3dd782c" d="M 192.91518 -63.121875 
L 190.889561 -63.121875 
L 190.889561 -65.444694 
L 190.889561 -67.767513 
L 190.889561 -70.090333 
L 190.889561 -72.413152 
L 190.889561 -74.735971 
L 190.889561 -77.05879 
L 190.889561 -79.38161 
L 190.889561 -81.704429 
L 190.889561 -84.027248 
L 190.889561 -86.350067 
L 190.889561 -88.672886 
L 190.889561 -90.995706 
L 190.889561 -93.318525 
L 190.889561 -95.641344 
L 190.889561 -97.964163 
L 190.889561 -100.286983 
L 190.889561 -102.609802 
L 190.889561 -104.932621 
L 190.889561 -107.25544 
L 190.889561 -109.57826 
L 190.889561 -111.901079 
L 190.889561 -114.223898 
L 190.889561 -116.546717 
L 190.889561 -118.869536 
L 190.889561 -121.192356 
L 190.889561 -123.515175 
L 190.889561 -125.837994 
L 190.889561 -128.160813 
L 190.889561 -130.483633 
L 190.889561 -132.806452 
L 190.889561 -135.129271 
L 190.889561 -137.45209 
L 190.889561 -139.774909 
L 190.889561 -142.097729 
L 190.889561 -144.420548 
L 190.889561 -146.743367 
L 190.889561 -149.066186 
L 190.889561 -151.389006 
L 190.889561 -153.711825 
L 190.889561 -156.034644 
L 190.889561 -158.357463 
L 190.889561 -160.680283 
L 190.889561 -163.003102 
L 190.889561 -165.325921 
L 190.889561 -167.64874 
L 190.889561 -169.971559 
L 190.889561 -172.294379 
L 190.889561 -174.617198 
L 190.889561 -176.940017 
L 190.889561 -179.262836 
L 190.889561 -181.585656 
L 190.889561 -183.908475 
L 190.889561 -186.231294 
L 190.889561 -188.554113 
L 190.889561 -190.876932 
L 190.889561 -193.199752 
L 190.889561 -195.522571 
L 190.889561 -197.84539 
L 190.889561 -200.168209 
L 190.889561 -202.491029 
L 190.889561 -204.813848 
L 190.889561 -207.136667 
L 190.889561 -209.459486 
L 190.889561 -211.782306 
L 190.889561 -214.105125 
L 190.889561 -216.427944 
L 190.889561 -218.750763 
L 190.889561 -221.073582 
L 190.889561 -223.396402 
L 190.889561 -225.719221 
L 190.889561 -228.04204 
L 190.889561 -230.364859 
L 190.889561 -232.687679 
L 190.889561 -235.010498 
L 190.889561 -237.333317 
L 190.889561 -239.656136 
L 190.889561 -241.978955 
L 190.889561 -244.301775 
L 190.889561 -246.624594 
L 190.889561 -248.947413 
L 190.889561 -251.270232 
L 190.889561 -253.593052 
L 190.889561 -255.915871 
L 190.889561 -258.23869 
L 190.889561 -260.561509 
L 190.889561 -262.884329 
L 190.889561 -265.207148 
L 190.889561 -267.529967 
L 190.889561 -269.852786 
L 190.889561 -272.175605 
L 190.889561 -274.498425 
L 190.889561 -276.821244 
L 190.889561 -279.144063 
L 190.889561 -281.466882 
L 190.889561 -283.789702 
L 190.889561 -286.112521 
L 190.889561 -288.43534 
L 190.889561 -290.758159 
L 190.889561 -293.080978 
L 190.908569 -293.080978 
L 190.908569 -293.080978 
L 190.926215 -290.758159 
L 190.951611 -288.43534 
L 190.981775 -286.112521 
L 191.009868 -283.789702 
L 191.027352 -281.466882 
L 191.028106 -279.144063 
L 191.011852 -276.821244 
L 190.984324 -274.498425 
L 190.954025 -272.175605 
L 190.928059 -269.852786 
L 190.909744 -267.529967 
L 190.89885 -265.207148 
L 190.893314 -262.884329 
L 190.890892 -260.561509 
L 190.889976 -258.23869 
L 190.889674 -255.915871 
L 190.889588 -253.593052 
L 190.889567 -251.270232 
L 190.889562 -248.947413 
L 190.889561 -246.624594 
L 190.889561 -244.301775 
L 190.889563 -241.978955 
L 190.889569 -239.656136 
L 190.889597 -237.333317 
L 190.889708 -235.010498 
L 190.890099 -232.687679 
L 190.891297 -230.364859 
L 190.894502 -228.04204 
L 190.901977 -225.719221 
L 190.917151 -223.396402 
L 190.94383 -221.073582 
L 190.984161 -218.750763 
L 191.035874 -216.427944 
L 191.090574 -214.105125 
L 191.135169 -211.782306 
L 191.156916 -209.459486 
L 191.149803 -207.136667 
L 191.118347 -204.813848 
L 191.076204 -202.491029 
L 191.040262 -200.168209 
L 191.023594 -197.84539 
L 191.030774 -195.522571 
L 191.057243 -193.199752 
L 191.092301 -190.876932 
L 191.123931 -188.554113 
L 191.143348 -186.231294 
L 191.147614 -183.908475 
L 191.139584 -181.585656 
L 191.125361 -179.262836 
L 191.110511 -176.940017 
L 191.097434 -174.617198 
L 191.086279 -172.294379 
L 191.079522 -169.971559 
L 191.086928 -167.64874 
L 191.126233 -165.325921 
L 191.217215 -163.003102 
L 191.37127 -160.680283 
L 191.582167 -158.357463 
L 191.823832 -156.034644 
L 192.05734 -153.711825 
L 192.243854 -151.389006 
L 192.357054 -149.066186 
L 192.390162 -146.743367 
L 192.356702 -144.420548 
L 192.286574 -142.097729 
L 192.218809 -139.774909 
L 192.192021 -137.45209 
L 192.234776 -135.129271 
L 192.359322 -132.806452 
L 192.56124 -130.483633 
L 192.824589 -128.160813 
L 193.129462 -125.837994 
L 193.458646 -123.515175 
L 193.802245 -121.192356 
L 194.16071 -118.869536 
L 194.545889 -116.546717 
L 194.978699 -114.223898 
L 195.484152 -111.901079 
L 196.088094 -109.57826 
L 196.819297 -107.25544 
L 197.714796 -104.932621 
L 198.823236 -102.609802 
L 200.206531 -100.286983 
L 201.947627 -97.964163 
L 204.167499 -95.641344 
L 207.032559 -93.318525 
L 210.708866 -90.995706 
L 215.222217 -88.672886 
L 220.244266 -86.350067 
L 224.935467 -84.027248 
L 228.044523 -81.704429 
L 228.360793 -79.38161 
L 225.337281 -77.05879 
L 219.474936 -74.735971 
L 212.155327 -72.413152 
L 205.005876 -70.090333 
L 199.223283 -67.767513 
L 195.254991 -65.444694 
L 192.91518 -63.121875 
z
" style="stroke: #4c4c4c; stroke-width: 1.5"/>
    </defs>
    <g clip-path="url(#pd514d4131f)">
     <use xlink:href="#m96e3dd782c" x="0" y="347.739687" style="fill: #cc8963; stroke: #4c4c4c; stroke-width: 1.5"/>
    </g>
   </g>
   <g id="PolyCollection_5">
    <defs>
     <path id="m20dbae71ac" d="M 291.718435 -64.06966 
L 291.231306 -64.06966 
L 290.796001 -66.037446 
L 290.065259 -68.005232 
L 288.910229 -69.973018 
L 287.19044 -71.940803 
L 284.778222 -73.908589 
L 281.592982 -75.876375 
L 277.639726 -77.844161 
L 273.041974 -79.811947 
L 268.056803 -81.779733 
L 263.060969 -83.747518 
L 258.503279 -85.715304 
L 254.828925 -87.68309 
L 252.392918 -89.650876 
L 251.386886 -91.618662 
L 251.801922 -93.586448 
L 253.439531 -95.554233 
L 255.967108 -97.522019 
L 259.000389 -99.489805 
L 262.187944 -101.457591 
L 265.27399 -103.425377 
L 268.12412 -105.393163 
L 270.711238 -107.360948 
L 273.0722 -109.328734 
L 275.255013 -111.29652 
L 277.278203 -113.264306 
L 279.116685 -115.232092 
L 280.715554 -117.199877 
L 282.020832 -119.167663 
L 283.01038 -121.135449 
L 283.71088 -123.103235 
L 284.195274 -125.071021 
L 284.564033 -127.038807 
L 284.919169 -129.006592 
L 285.340544 -130.974378 
L 285.871273 -132.942164 
L 286.51474 -134.90995 
L 287.241873 -136.877736 
L 288.004655 -138.845522 
L 288.75089 -140.813307 
L 289.436024 -142.781093 
L 290.029793 -144.748879 
L 290.517681 -146.716665 
L 290.89871 -148.684451 
L 291.181511 -150.652237 
L 291.38018 -152.620022 
L 291.51075 -154.587808 
L 291.588585 -156.555594 
L 291.626808 -158.52338 
L 291.635772 -160.491166 
L 291.623469 -162.458951 
L 291.596538 -164.426737 
L 291.561378 -166.394523 
L 291.52478 -168.362309 
L 291.493728 -170.330095 
L 291.474401 -172.297881 
L 291.470821 -174.265666 
L 291.483819 -176.233452 
L 291.510882 -178.201238 
L 291.546998 -180.169024 
L 291.586178 -182.13681 
L 291.623014 -184.104596 
L 291.653711 -186.072381 
L 291.676314 -188.040167 
L 291.690198 -190.007953 
L 291.695151 -191.975739 
L 291.690418 -193.943525 
L 291.674056 -195.911311 
L 291.642862 -197.879096 
L 291.593076 -199.846882 
L 291.521864 -201.814668 
L 291.429328 -203.782454 
L 291.320394 -205.75024 
L 291.205628 -207.718025 
L 291.100179 -209.685811 
L 291.020593 -211.653597 
L 290.980258 -213.621383 
L 290.985026 -215.589169 
L 291.030757 -217.556955 
L 291.103881 -219.52474 
L 291.184884 -221.492526 
L 291.253493 -223.460312 
L 291.293834 -225.428098 
L 291.29807 -227.395884 
L 291.267703 -229.36367 
L 291.212511 -231.331455 
L 291.14765 -233.299241 
L 291.089809 -235.267027 
L 291.053395 -237.234813 
L 291.047655 -239.202599 
L 291.075327 -241.170385 
L 291.132938 -243.13817 
L 291.212418 -245.105956 
L 291.3034 -247.073742 
L 291.395547 -249.041528 
L 291.480373 -251.009314 
L 291.552289 -252.977099 
L 291.608825 -254.944885 
L 291.650184 -256.912671 
L 291.678383 -258.880457 
L 291.718435 -258.880457 
L 291.718435 -258.880457 
L 291.718435 -256.912671 
L 291.718435 -254.944885 
L 291.718435 -252.977099 
L 291.718435 -251.009314 
L 291.718435 -249.041528 
L 291.718435 -247.073742 
L 291.718435 -245.105956 
L 291.718435 -243.13817 
L 291.718435 -241.170385 
L 291.718435 -239.202599 
L 291.718435 -237.234813 
L 291.718435 -235.267027 
L 291.718435 -233.299241 
L 291.718435 -231.331455 
L 291.718435 -229.36367 
L 291.718435 -227.395884 
L 291.718435 -225.428098 
L 291.718435 -223.460312 
L 291.718435 -221.492526 
L 291.718435 -219.52474 
L 291.718435 -217.556955 
L 291.718435 -215.589169 
L 291.718435 -213.621383 
L 291.718435 -211.653597 
L 291.718435 -209.685811 
L 291.718435 -207.718025 
L 291.718435 -205.75024 
L 291.718435 -203.782454 
L 291.718435 -201.814668 
L 291.718435 -199.846882 
L 291.718435 -197.879096 
L 291.718435 -195.911311 
L 291.718435 -193.943525 
L 291.718435 -191.975739 
L 291.718435 -190.007953 
L 291.718435 -188.040167 
L 291.718435 -186.072381 
L 291.718435 -184.104596 
L 291.718435 -182.13681 
L 291.718435 -180.169024 
L 291.718435 -178.201238 
L 291.718435 -176.233452 
L 291.718435 -174.265666 
L 291.718435 -172.297881 
L 291.718435 -170.330095 
L 291.718435 -168.362309 
L 291.718435 -166.394523 
L 291.718435 -164.426737 
L 291.718435 -162.458951 
L 291.718435 -160.491166 
L 291.718435 -158.52338 
L 291.718435 -156.555594 
L 291.718435 -154.587808 
L 291.718435 -152.620022 
L 291.718435 -150.652237 
L 291.718435 -148.684451 
L 291.718435 -146.716665 
L 291.718435 -144.748879 
L 291.718435 -142.781093 
L 291.718435 -140.813307 
L 291.718435 -138.845522 
L 291.718435 -136.877736 
L 291.718435 -134.90995 
L 291.718435 -132.942164 
L 291.718435 -130.974378 
L 291.718435 -129.006592 
L 291.718435 -127.038807 
L 291.718435 -125.071021 
L 291.718435 -123.103235 
L 291.718435 -121.135449 
L 291.718435 -119.167663 
L 291.718435 -117.199877 
L 291.718435 -115.232092 
L 291.718435 -113.264306 
L 291.718435 -111.29652 
L 291.718435 -109.328734 
L 291.718435 -107.360948 
L 291.718435 -105.393163 
L 291.718435 -103.425377 
L 291.718435 -101.457591 
L 291.718435 -99.489805 
L 291.718435 -97.522019 
L 291.718435 -95.554233 
L 291.718435 -93.586448 
L 291.718435 -91.618662 
L 291.718435 -89.650876 
L 291.718435 -87.68309 
L 291.718435 -85.715304 
L 291.718435 -83.747518 
L 291.718435 -81.779733 
L 291.718435 -79.811947 
L 291.718435 -77.844161 
L 291.718435 -75.876375 
L 291.718435 -73.908589 
L 291.718435 -71.940803 
L 291.718435 -69.973018 
L 291.718435 -68.005232 
L 291.718435 -66.037446 
L 291.718435 -64.06966 
z
" style="stroke: #4c4c4c; stroke-width: 1.5"/>
    </defs>
    <g clip-path="url(#pd514d4131f)">
     <use xlink:href="#m20dbae71ac" x="0" y="347.739687" style="fill: #5875a4; stroke: #4c4c4c; stroke-width: 1.5"/>
    </g>
   </g>
   <g id="PolyCollection_6">
    <defs>
     <path id="mff0ffdd372" d="M 292.476056 -56.486051 
L 291.718435 -56.486051 
L 291.718435 -59.103565 
L 291.718435 -61.721079 
L 291.718435 -64.338592 
L 291.718435 -66.956106 
L 291.718435 -69.57362 
L 291.718435 -72.191133 
L 291.718435 -74.808647 
L 291.718435 -77.426161 
L 291.718435 -80.043675 
L 291.718435 -82.661188 
L 291.718435 -85.278702 
L 291.718435 -87.896216 
L 291.718435 -90.513729 
L 291.718435 -93.131243 
L 291.718435 -95.748757 
L 291.718435 -98.366271 
L 291.718435 -100.983784 
L 291.718435 -103.601298 
L 291.718435 -106.218812 
L 291.718435 -108.836326 
L 291.718435 -111.453839 
L 291.718435 -114.071353 
L 291.718435 -116.688867 
L 291.718435 -119.30638 
L 291.718435 -121.923894 
L 291.718435 -124.541408 
L 291.718435 -127.158922 
L 291.718435 -129.776435 
L 291.718435 -132.393949 
L 291.718435 -135.011463 
L 291.718435 -137.628976 
L 291.718435 -140.24649 
L 291.718435 -142.864004 
L 291.718435 -145.481518 
L 291.718435 -148.099031 
L 291.718435 -150.716545 
L 291.718435 -153.334059 
L 291.718435 -155.951572 
L 291.718435 -158.569086 
L 291.718435 -161.1866 
L 291.718435 -163.804114 
L 291.718435 -166.421627 
L 291.718435 -169.039141 
L 291.718435 -171.656655 
L 291.718435 -174.274169 
L 291.718435 -176.891682 
L 291.718435 -179.509196 
L 291.718435 -182.12671 
L 291.718435 -184.744223 
L 291.718435 -187.361737 
L 291.718435 -189.979251 
L 291.718435 -192.596765 
L 291.718435 -195.214278 
L 291.718435 -197.831792 
L 291.718435 -200.449306 
L 291.718435 -203.066819 
L 291.718435 -205.684333 
L 291.718435 -208.301847 
L 291.718435 -210.919361 
L 291.718435 -213.536874 
L 291.718435 -216.154388 
L 291.718435 -218.771902 
L 291.718435 -221.389415 
L 291.718435 -224.006929 
L 291.718435 -226.624443 
L 291.718435 -229.241957 
L 291.718435 -231.85947 
L 291.718435 -234.476984 
L 291.718435 -237.094498 
L 291.718435 -239.712012 
L 291.718435 -242.329525 
L 291.718435 -244.947039 
L 291.718435 -247.564553 
L 291.718435 -250.182066 
L 291.718435 -252.79958 
L 291.718435 -255.417094 
L 291.718435 -258.034608 
L 291.718435 -260.652121 
L 291.718435 -263.269635 
L 291.718435 -265.887149 
L 291.718435 -268.504662 
L 291.718435 -271.122176 
L 291.718435 -273.73969 
L 291.718435 -276.357204 
L 291.718435 -278.974717 
L 291.718435 -281.592231 
L 291.718435 -284.209745 
L 291.718435 -286.827258 
L 291.718435 -289.444772 
L 291.718435 -292.062286 
L 291.718435 -294.6798 
L 291.718435 -297.297313 
L 291.718435 -299.914827 
L 291.718435 -302.532341 
L 291.718435 -305.149855 
L 291.718435 -307.767368 
L 291.718435 -310.384882 
L 291.718435 -313.002396 
L 291.718435 -315.619909 
L 291.74658 -315.619909 
L 291.74658 -315.619909 
L 291.766813 -313.002396 
L 291.794786 -310.384882 
L 291.829074 -307.767368 
L 291.865643 -305.149855 
L 291.898271 -302.532341 
L 291.920156 -299.914827 
L 291.926189 -297.297313 
L 291.914897 -294.6798 
L 291.889021 -292.062286 
L 291.854448 -289.444772 
L 291.818057 -286.827258 
L 291.785579 -284.209745 
L 291.760399 -281.592231 
L 291.743574 -278.974717 
L 291.734734 -276.357204 
L 291.733214 -273.73969 
L 291.738858 -271.122176 
L 291.75218 -268.504662 
L 291.773806 -265.887149 
L 291.803428 -263.269635 
L 291.838723 -260.652121 
L 291.874891 -258.034608 
L 291.905321 -255.417094 
L 291.923416 -252.79958 
L 291.924876 -250.182066 
L 291.909364 -247.564553 
L 291.88066 -244.947039 
L 291.84526 -242.329525 
L 291.810195 -239.712012 
L 291.781188 -237.094498 
L 291.761929 -234.476984 
L 291.754473 -231.85947 
L 291.760209 -229.241957 
L 291.780606 -226.624443 
L 291.817239 -224.006929 
L 291.87107 -221.389415 
L 291.941425 -218.771902 
L 292.025338 -216.154388 
L 292.11777 -213.536874 
L 292.212741 -210.919361 
L 292.304858 -208.301847 
L 292.390462 -205.684333 
L 292.467863 -203.066819 
L 292.536657 -200.449306 
L 292.596607 -197.831792 
L 292.646674 -195.214278 
L 292.684633 -192.596765 
L 292.707424 -189.979251 
L 292.71222 -187.361737 
L 292.69806 -184.744223 
L 292.667537 -182.12671 
L 292.627727 -179.509196 
L 292.589531 -176.891682 
L 292.56532 -174.274169 
L 292.565885 -171.656655 
L 292.598393 -169.039141 
L 292.666575 -166.421627 
L 292.77273 -163.804114 
L 292.91942 -161.1866 
L 293.108558 -158.569086 
L 293.337326 -155.951572 
L 293.593242 -153.334059 
L 293.8523 -150.716545 
L 294.083134 -148.099031 
L 294.256705 -145.481518 
L 294.357606 -142.864004 
L 294.391911 -140.24649 
L 294.388535 -137.628976 
L 294.394516 -135.011463 
L 294.467103 -132.393949 
L 294.665534 -129.776435 
L 295.043701 -127.158922 
L 295.643603 -124.541408 
L 296.489822 -121.923894 
L 297.587038 -119.30638 
L 298.923886 -116.688867 
L 300.485543 -114.071353 
L 302.273449 -111.453839 
L 304.324499 -108.836326 
L 306.716706 -106.218812 
L 309.547634 -103.601298 
L 312.879624 -100.983784 
L 316.662214 -98.366271 
L 320.66169 -95.748757 
L 324.438949 -93.131243 
L 327.408015 -90.513729 
L 328.97554 -87.896216 
L 328.718907 -85.278702 
L 326.531754 -82.661188 
L 322.672088 -80.043675 
L 317.690626 -77.426161 
L 312.272138 -74.808647 
L 307.057911 -72.191133 
L 302.514824 -69.57362 
L 298.883615 -66.956106 
L 296.199825 -64.338592 
L 294.356938 -61.721079 
L 293.178403 -59.103565 
L 292.476056 -56.486051 
z
" style="stroke: #4c4c4c; stroke-width: 1.5"/>
    </defs>
    <g clip-path="url(#pd514d4131f)">
     <use xlink:href="#mff0ffdd372" x="0" y="347.739687" style="fill: #cc8963; stroke: #4c4c4c; stroke-width: 1.5"/>
    </g>
   </g>
   <g id="line2d_12">
    <path d="M 90.060687 270.255199 
L 90.060687 208.340453 
" clip-path="url(#pd514d4131f)" style="fill: none; stroke: #4c4c4c; stroke-width: 1.5; stroke-linecap: round"/>
   </g>
   <g id="line2d_13">
    <path d="M 90.060687 261.403576 
L 90.060687 240.132368 
" clip-path="url(#pd514d4131f)" style="fill: none; stroke: #4c4c4c; stroke-width: 4.5; stroke-linecap: round"/>
   </g>
   <g id="line2d_14">
    <path d="M 190.889561 271.745056 
L 190.889561 224.396705 
" clip-path="url(#pd514d4131f)" style="fill: none; stroke: #4c4c4c; stroke-width: 1.5; stroke-linecap: round"/>
   </g>
   <g id="line2d_15">
    <path d="M 190.889561 267.352808 
L 190.889561 250.138627 
" clip-path="url(#pd514d4131f)" style="fill: none; stroke: #4c4c4c; stroke-width: 4.5; stroke-linecap: round"/>
   </g>
   <g id="line2d_16">
    <path d="M 291.718435 273.336113 
L 291.718435 214.633033 
" clip-path="url(#pd514d4131f)" style="fill: none; stroke: #4c4c4c; stroke-width: 1.5; stroke-linecap: round"/>
   </g>
   <g id="line2d_17">
    <path d="M 291.718435 261.570321 
L 291.718435 242.742687 
" clip-path="url(#pd514d4131f)" style="fill: none; stroke: #4c4c4c; stroke-width: 4.5; stroke-linecap: round"/>
   </g>
   <g id="patch_5">
    <path d="M 39.64625 304.78 
L 39.64625 7.2 
" style="fill: none; stroke: #262626; stroke-width: 1.25; stroke-linejoin: miter; stroke-linecap: square"/>
   </g>
   <g id="patch_6">
    <path d="M 39.64625 304.78 
L 342.132872 304.78 
" style="fill: none; stroke: #262626; stroke-width: 1.25; stroke-linejoin: miter; stroke-linecap: square"/>
   </g>
   <g id="PathCollection_1">
    <defs>
     <path id="mdc60ffcce5" d="M 0 1.5 
C 0.397805 1.5 0.77937 1.341951 1.06066 1.06066 
C 1.341951 0.77937 1.5 0.397805 1.5 0 
C 1.5 -0.397805 1.341951 -0.77937 1.06066 -1.06066 
C 0.77937 -1.341951 0.397805 -1.5 0 -1.5 
C -0.397805 -1.5 -0.77937 -1.341951 -1.06066 -1.06066 
C -1.341951 -0.77937 -1.5 -0.397805 -1.5 0 
C -1.5 0.397805 -1.341951 0.77937 -1.06066 1.06066 
C -0.77937 1.341951 -0.397805 1.5 0 1.5 
z
" style="stroke: #4c4c4c"/>
    </defs>
    <g clip-path="url(#pd514d4131f)">
     <use xlink:href="#mdc60ffcce5" x="90.060687" y="255.258734" style="fill: #ffffff; stroke: #4c4c4c"/>
    </g>
   </g>
   <g id="PathCollection_2">
    <g clip-path="url(#pd514d4131f)">
     <use xlink:href="#mdc60ffcce5" x="190.889561" y="261.813017" style="fill: #ffffff; stroke: #4c4c4c"/>
    </g>
   </g>
   <g id="PathCollection_3">
    <g clip-path="url(#pd514d4131f)">
     <use xlink:href="#mdc60ffcce5" x="291.718435" y="256.098044" style="fill: #ffffff; stroke: #4c4c4c"/>
    </g>
   </g>
  </g>
  <g id="legend_1">
   <g id="text_14">
    <!-- dim -->
    <g style="fill: #262626" transform="translate(357.957544 161.035156)scale(0.12 -0.12)">
     <defs>
      <path id="DejaVuSans-69" d="M 603 3500 
L 1178 3500 
L 1178 0 
L 603 0 
L 603 3500 
z
M 603 4863 
L 1178 4863 
L 1178 4134 
L 603 4134 
L 603 4863 
z
" transform="scale(0.015625)"/>
      <path id="DejaVuSans-6d" d="M 3328 2828 
Q 3544 3216 3844 3400 
Q 4144 3584 4550 3584 
Q 5097 3584 5394 3201 
Q 5691 2819 5691 2113 
L 5691 0 
L 5113 0 
L 5113 2094 
Q 5113 2597 4934 2840 
Q 4756 3084 4391 3084 
Q 3944 3084 3684 2787 
Q 3425 2491 3425 1978 
L 3425 0 
L 2847 0 
L 2847 2094 
Q 2847 2600 2669 2842 
Q 2491 3084 2119 3084 
Q 1678 3084 1418 2786 
Q 1159 2488 1159 1978 
L 1159 0 
L 581 0 
L 581 3500 
L 1159 3500 
L 1159 2956 
Q 1356 3278 1631 3431 
Q 1906 3584 2284 3584 
Q 2666 3584 2933 3390 
Q 3200 3197 3328 2828 
z
" transform="scale(0.015625)"/>
     </defs>
     <use xlink:href="#DejaVuSans-64"/>
     <use xlink:href="#DejaVuSans-69" x="63.476562"/>
     <use xlink:href="#DejaVuSans-6d" x="91.259766"/>
    </g>
   </g>
   <g id="patch_7">
    <path d="M 346.886841 177.389062 
L 368.886841 177.389062 
L 368.886841 169.689062 
L 346.886841 169.689062 
z
" style="fill: #5875a4; stroke: #4c4c4c; stroke-width: 0.75; stroke-linejoin: miter"/>
   </g>
   <g id="text_15">
    <!-- 2d -->
    <g style="fill: #262626" transform="translate(377.686841 177.389062)scale(0.11 -0.11)">
     <use xlink:href="#DejaVuSans-32"/>
     <use xlink:href="#DejaVuSans-64" x="63.623047"/>
    </g>
   </g>
   <g id="patch_8">
    <path d="M 346.886841 193.535 
L 368.886841 193.535 
L 368.886841 185.835 
L 346.886841 185.835 
z
" style="fill: #cc8963; stroke: #4c4c4c; stroke-width: 0.75; stroke-linejoin: miter"/>
   </g>
   <g id="text_16">
    <!-- 3d -->
    <g style="fill: #262626" transform="translate(377.686841 193.535)scale(0.11 -0.11)">
     <use xlink:href="#DejaVuSans-33"/>
     <use xlink:href="#DejaVuSans-64" x="63.623047"/>
    </g>
   </g>
  </g>
 </g>
 <defs>
  <clipPath id="pd514d4131f">
   <rect x="39.64625" y="7.2" width="302.486622" height="297.58"/>
  </clipPath>
 </defs>
</svg>
