<?xml version="1.0" encoding="utf-8" standalone="no"?>
<!DOCTYPE svg PUBLIC "-//W3C//DTD SVG 1.1//EN"
  "http://www.w3.org/Graphics/SVG/1.1/DTD/svg11.dtd">
<svg xmlns:xlink="http://www.w3.org/1999/xlink" width="399.810087pt" height="347.739688pt" viewBox="0 0 399.810087 347.739688" xmlns="http://www.w3.org/2000/svg" version="1.1">
 <metadata>
  <rdf:RDF xmlns:dc="http://purl.org/dc/elements/1.1/" xmlns:cc="http://creativecommons.org/ns#" xmlns:rdf="http://www.w3.org/1999/02/22-rdf-syntax-ns#">
   <cc:Work>
    <dc:type rdf:resource="http://purl.org/dc/dcmitype/StillImage"/>
    <dc:date>2022-03-28T16:02:02.967927</dc:date>
    <dc:format>image/svg+xml</dc:format>
    <dc:creator>
     <cc:Agent>
      <dc:title>Matplotlib v3.5.1, https://matplotlib.org/</dc:title>
     </cc:Agent>
    </dc:creator>
   </cc:Work>
  </rdf:RDF>
 </metadata>
 <defs>
  <style type="text/css">*{stroke-linejoin: round; stroke-linecap: butt}</style>
 </defs>
 <g id="figure_1">
  <g id="patch_1">
   <path d="M -0 347.739688 
L 399.810087 347.739688 
L 399.810087 0 
L -0 0 
z
" style="fill: #ffffff"/>
  </g>
  <g id="axes_1">
   <g id="patch_2">
    <path d="M 49.807188 304.78 
L 340.374087 304.78 
L 340.374087 7.2 
L 49.807188 7.2 
z
" style="fill: #ffffff"/>
   </g>
   <g id="matplotlib.axis_1">
    <g id="xtick_1">
     <g id="text_1">
      <!-- teb -->
      <g style="fill: #262626" transform="translate(89.202973 322.638281)scale(0.11 -0.11)">
       <defs>
        <path id="DejaVuSans-74" d="M 1172 4494 
L 1172 3500 
L 2356 3500 
L 2356 3053 
L 1172 3053 
L 1172 1153 
Q 1172 725 1289 603 
Q 1406 481 1766 481 
L 2356 481 
L 2356 0 
L 1766 0 
Q 1100 0 847 248 
Q 594 497 594 1153 
L 594 3053 
L 172 3053 
L 172 3500 
L 594 3500 
L 594 4494 
L 1172 4494 
z
" transform="scale(0.015625)"/>
        <path id="DejaVuSans-65" d="M 3597 1894 
L 3597 1613 
L 953 1613 
Q 991 1019 1311 708 
Q 1631 397 2203 397 
Q 2534 397 2845 478 
Q 3156 559 3463 722 
L 3463 178 
Q 3153 47 2828 -22 
Q 2503 -91 2169 -91 
Q 1331 -91 842 396 
Q 353 884 353 1716 
Q 353 2575 817 3079 
Q 1281 3584 2069 3584 
Q 2775 3584 3186 3129 
Q 3597 2675 3597 1894 
z
M 3022 2063 
Q 3016 2534 2758 2815 
Q 2500 3097 2075 3097 
Q 1594 3097 1305 2825 
Q 1016 2553 972 2059 
L 3022 2063 
z
" transform="scale(0.015625)"/>
        <path id="DejaVuSans-62" d="M 3116 1747 
Q 3116 2381 2855 2742 
Q 2594 3103 2138 3103 
Q 1681 3103 1420 2742 
Q 1159 2381 1159 1747 
Q 1159 1113 1420 752 
Q 1681 391 2138 391 
Q 2594 391 2855 752 
Q 3116 1113 3116 1747 
z
M 1159 2969 
Q 1341 3281 1617 3432 
Q 1894 3584 2278 3584 
Q 2916 3584 3314 3078 
Q 3713 2572 3713 1747 
Q 3713 922 3314 415 
Q 2916 -91 2278 -91 
Q 1894 -91 1617 61 
Q 1341 213 1159 525 
L 1159 0 
L 581 0 
L 581 4863 
L 1159 4863 
L 1159 2969 
z
" transform="scale(0.015625)"/>
       </defs>
       <use xlink:href="#DejaVuSans-74"/>
       <use xlink:href="#DejaVuSans-65" x="39.208984"/>
       <use xlink:href="#DejaVuSans-62" x="100.732422"/>
      </g>
     </g>
    </g>
    <g id="xtick_2">
     <g id="text_2">
      <!-- dwa -->
      <g style="fill: #262626" transform="translate(183.730559 322.638281)scale(0.11 -0.11)">
       <defs>
        <path id="DejaVuSans-64" d="M 2906 2969 
L 2906 4863 
L 3481 4863 
L 3481 0 
L 2906 0 
L 2906 525 
Q 2725 213 2448 61 
Q 2172 -91 1784 -91 
Q 1150 -91 751 415 
Q 353 922 353 1747 
Q 353 2572 751 3078 
Q 1150 3584 1784 3584 
Q 2172 3584 2448 3432 
Q 2725 3281 2906 2969 
z
M 947 1747 
Q 947 1113 1208 752 
Q 1469 391 1925 391 
Q 2381 391 2643 752 
Q 2906 1113 2906 1747 
Q 2906 2381 2643 2742 
Q 2381 3103 1925 3103 
Q 1469 3103 1208 2742 
Q 947 2381 947 1747 
z
" transform="scale(0.015625)"/>
        <path id="DejaVuSans-77" d="M 269 3500 
L 844 3500 
L 1563 769 
L 2278 3500 
L 2956 3500 
L 3675 769 
L 4391 3500 
L 4966 3500 
L 4050 0 
L 3372 0 
L 2619 2869 
L 1863 0 
L 1184 0 
L 269 3500 
z
" transform="scale(0.015625)"/>
        <path id="DejaVuSans-61" d="M 2194 1759 
Q 1497 1759 1228 1600 
Q 959 1441 959 1056 
Q 959 750 1161 570 
Q 1363 391 1709 391 
Q 2188 391 2477 730 
Q 2766 1069 2766 1631 
L 2766 1759 
L 2194 1759 
z
M 3341 1997 
L 3341 0 
L 2766 0 
L 2766 531 
Q 2569 213 2275 61 
Q 1981 -91 1556 -91 
Q 1019 -91 701 211 
Q 384 513 384 1019 
Q 384 1609 779 1909 
Q 1175 2209 1959 2209 
L 2766 2209 
L 2766 2266 
Q 2766 2663 2505 2880 
Q 2244 3097 1772 3097 
Q 1472 3097 1187 3025 
Q 903 2953 641 2809 
L 641 3341 
Q 956 3463 1253 3523 
Q 1550 3584 1831 3584 
Q 2591 3584 2966 3190 
Q 3341 2797 3341 1997 
z
" transform="scale(0.015625)"/>
       </defs>
       <use xlink:href="#DejaVuSans-64"/>
       <use xlink:href="#DejaVuSans-77" x="63.476562"/>
       <use xlink:href="#DejaVuSans-61" x="145.263672"/>
      </g>
     </g>
    </g>
    <g id="xtick_3">
     <g id="text_3">
      <!-- rosnav -->
      <g style="fill: #262626" transform="translate(273.46713 322.638281)scale(0.11 -0.11)">
       <defs>
        <path id="DejaVuSans-72" d="M 2631 2963 
Q 2534 3019 2420 3045 
Q 2306 3072 2169 3072 
Q 1681 3072 1420 2755 
Q 1159 2438 1159 1844 
L 1159 0 
L 581 0 
L 581 3500 
L 1159 3500 
L 1159 2956 
Q 1341 3275 1631 3429 
Q 1922 3584 2338 3584 
Q 2397 3584 2469 3576 
Q 2541 3569 2628 3553 
L 2631 2963 
z
" transform="scale(0.015625)"/>
        <path id="DejaVuSans-6f" d="M 1959 3097 
Q 1497 3097 1228 2736 
Q 959 2375 959 1747 
Q 959 1119 1226 758 
Q 1494 397 1959 397 
Q 2419 397 2687 759 
Q 2956 1122 2956 1747 
Q 2956 2369 2687 2733 
Q 2419 3097 1959 3097 
z
M 1959 3584 
Q 2709 3584 3137 3096 
Q 3566 2609 3566 1747 
Q 3566 888 3137 398 
Q 2709 -91 1959 -91 
Q 1206 -91 779 398 
Q 353 888 353 1747 
Q 353 2609 779 3096 
Q 1206 3584 1959 3584 
z
" transform="scale(0.015625)"/>
        <path id="DejaVuSans-73" d="M 2834 3397 
L 2834 2853 
Q 2591 2978 2328 3040 
Q 2066 3103 1784 3103 
Q 1356 3103 1142 2972 
Q 928 2841 928 2578 
Q 928 2378 1081 2264 
Q 1234 2150 1697 2047 
L 1894 2003 
Q 2506 1872 2764 1633 
Q 3022 1394 3022 966 
Q 3022 478 2636 193 
Q 2250 -91 1575 -91 
Q 1294 -91 989 -36 
Q 684 19 347 128 
L 347 722 
Q 666 556 975 473 
Q 1284 391 1588 391 
Q 1994 391 2212 530 
Q 2431 669 2431 922 
Q 2431 1156 2273 1281 
Q 2116 1406 1581 1522 
L 1381 1569 
Q 847 1681 609 1914 
Q 372 2147 372 2553 
Q 372 3047 722 3315 
Q 1072 3584 1716 3584 
Q 2034 3584 2315 3537 
Q 2597 3491 2834 3397 
z
" transform="scale(0.015625)"/>
        <path id="DejaVuSans-6e" d="M 3513 2113 
L 3513 0 
L 2938 0 
L 2938 2094 
Q 2938 2591 2744 2837 
Q 2550 3084 2163 3084 
Q 1697 3084 1428 2787 
Q 1159 2491 1159 1978 
L 1159 0 
L 581 0 
L 581 3500 
L 1159 3500 
L 1159 2956 
Q 1366 3272 1645 3428 
Q 1925 3584 2291 3584 
Q 2894 3584 3203 3211 
Q 3513 2838 3513 2113 
z
" transform="scale(0.015625)"/>
        <path id="DejaVuSans-76" d="M 191 3500 
L 800 3500 
L 1894 563 
L 2988 3500 
L 3597 3500 
L 2284 0 
L 1503 0 
L 191 3500 
z
" transform="scale(0.015625)"/>
       </defs>
       <use xlink:href="#DejaVuSans-72"/>
       <use xlink:href="#DejaVuSans-6f" x="38.863281"/>
       <use xlink:href="#DejaVuSans-73" x="100.044922"/>
       <use xlink:href="#DejaVuSans-6e" x="152.144531"/>
       <use xlink:href="#DejaVuSans-61" x="215.523438"/>
       <use xlink:href="#DejaVuSans-76" x="276.802734"/>
      </g>
     </g>
    </g>
    <g id="text_4">
     <!-- Planner -->
     <g style="fill: #262626" transform="translate(172.365637 338.044062)scale(0.12 -0.12)">
      <defs>
       <path id="DejaVuSans-50" d="M 1259 4147 
L 1259 2394 
L 2053 2394 
Q 2494 2394 2734 2622 
Q 2975 2850 2975 3272 
Q 2975 3691 2734 3919 
Q 2494 4147 2053 4147 
L 1259 4147 
z
M 628 4666 
L 2053 4666 
Q 2838 4666 3239 4311 
Q 3641 3956 3641 3272 
Q 3641 2581 3239 2228 
Q 2838 1875 2053 1875 
L 1259 1875 
L 1259 0 
L 628 0 
L 628 4666 
z
" transform="scale(0.015625)"/>
       <path id="DejaVuSans-6c" d="M 603 4863 
L 1178 4863 
L 1178 0 
L 603 0 
L 603 4863 
z
" transform="scale(0.015625)"/>
      </defs>
      <use xlink:href="#DejaVuSans-50"/>
      <use xlink:href="#DejaVuSans-6c" x="60.302734"/>
      <use xlink:href="#DejaVuSans-61" x="88.085938"/>
      <use xlink:href="#DejaVuSans-6e" x="149.365234"/>
      <use xlink:href="#DejaVuSans-6e" x="212.744141"/>
      <use xlink:href="#DejaVuSans-65" x="276.123047"/>
      <use xlink:href="#DejaVuSans-72" x="337.646484"/>
     </g>
    </g>
   </g>
   <g id="matplotlib.axis_2">
    <g id="ytick_1">
     <g id="line2d_1">
      <path d="M 49.807188 275.461666 
L 340.374087 275.461666 
" clip-path="url(#p2a1e11f92f)" style="fill: none; stroke: #cccccc; stroke-linecap: round"/>
     </g>
     <g id="text_5">
      <!-- 0.0 -->
      <g style="fill: #262626" transform="translate(22.81375 279.640807)scale(0.11 -0.11)">
       <defs>
        <path id="DejaVuSans-30" d="M 2034 4250 
Q 1547 4250 1301 3770 
Q 1056 3291 1056 2328 
Q 1056 1369 1301 889 
Q 1547 409 2034 409 
Q 2525 409 2770 889 
Q 3016 1369 3016 2328 
Q 3016 3291 2770 3770 
Q 2525 4250 2034 4250 
z
M 2034 4750 
Q 2819 4750 3233 4129 
Q 3647 3509 3647 2328 
Q 3647 1150 3233 529 
Q 2819 -91 2034 -91 
Q 1250 -91 836 529 
Q 422 1150 422 2328 
Q 422 3509 836 4129 
Q 1250 4750 2034 4750 
z
" transform="scale(0.015625)"/>
        <path id="DejaVuSans-2e" d="M 684 794 
L 1344 794 
L 1344 0 
L 684 0 
L 684 794 
z
" transform="scale(0.015625)"/>
       </defs>
       <use xlink:href="#DejaVuSans-30"/>
       <use xlink:href="#DejaVuSans-2e" x="63.623047"/>
       <use xlink:href="#DejaVuSans-30" x="95.410156"/>
      </g>
     </g>
    </g>
    <g id="ytick_2">
     <g id="line2d_2">
      <path d="M 49.807188 220.809161 
L 340.374087 220.809161 
" clip-path="url(#p2a1e11f92f)" style="fill: none; stroke: #cccccc; stroke-linecap: round"/>
     </g>
     <g id="text_6">
      <!-- 0.2 -->
      <g style="fill: #262626" transform="translate(22.81375 224.988302)scale(0.11 -0.11)">
       <defs>
        <path id="DejaVuSans-32" d="M 1228 531 
L 3431 531 
L 3431 0 
L 469 0 
L 469 531 
Q 828 903 1448 1529 
Q 2069 2156 2228 2338 
Q 2531 2678 2651 2914 
Q 2772 3150 2772 3378 
Q 2772 3750 2511 3984 
Q 2250 4219 1831 4219 
Q 1534 4219 1204 4116 
Q 875 4013 500 3803 
L 500 4441 
Q 881 4594 1212 4672 
Q 1544 4750 1819 4750 
Q 2544 4750 2975 4387 
Q 3406 4025 3406 3419 
Q 3406 3131 3298 2873 
Q 3191 2616 2906 2266 
Q 2828 2175 2409 1742 
Q 1991 1309 1228 531 
z
" transform="scale(0.015625)"/>
       </defs>
       <use xlink:href="#DejaVuSans-30"/>
       <use xlink:href="#DejaVuSans-2e" x="63.623047"/>
       <use xlink:href="#DejaVuSans-32" x="95.410156"/>
      </g>
     </g>
    </g>
    <g id="ytick_3">
     <g id="line2d_3">
      <path d="M 49.807188 166.156656 
L 340.374087 166.156656 
" clip-path="url(#p2a1e11f92f)" style="fill: none; stroke: #cccccc; stroke-linecap: round"/>
     </g>
     <g id="text_7">
      <!-- 0.4 -->
      <g style="fill: #262626" transform="translate(22.81375 170.335796)scale(0.11 -0.11)">
       <defs>
        <path id="DejaVuSans-34" d="M 2419 4116 
L 825 1625 
L 2419 1625 
L 2419 4116 
z
M 2253 4666 
L 3047 4666 
L 3047 1625 
L 3713 1625 
L 3713 1100 
L 3047 1100 
L 3047 0 
L 2419 0 
L 2419 1100 
L 313 1100 
L 313 1709 
L 2253 4666 
z
" transform="scale(0.015625)"/>
       </defs>
       <use xlink:href="#DejaVuSans-30"/>
       <use xlink:href="#DejaVuSans-2e" x="63.623047"/>
       <use xlink:href="#DejaVuSans-34" x="95.410156"/>
      </g>
     </g>
    </g>
    <g id="ytick_4">
     <g id="line2d_4">
      <path d="M 49.807188 111.504151 
L 340.374087 111.504151 
" clip-path="url(#p2a1e11f92f)" style="fill: none; stroke: #cccccc; stroke-linecap: round"/>
     </g>
     <g id="text_8">
      <!-- 0.6 -->
      <g style="fill: #262626" transform="translate(22.81375 115.683291)scale(0.11 -0.11)">
       <defs>
        <path id="DejaVuSans-36" d="M 2113 2584 
Q 1688 2584 1439 2293 
Q 1191 2003 1191 1497 
Q 1191 994 1439 701 
Q 1688 409 2113 409 
Q 2538 409 2786 701 
Q 3034 994 3034 1497 
Q 3034 2003 2786 2293 
Q 2538 2584 2113 2584 
z
M 3366 4563 
L 3366 3988 
Q 3128 4100 2886 4159 
Q 2644 4219 2406 4219 
Q 1781 4219 1451 3797 
Q 1122 3375 1075 2522 
Q 1259 2794 1537 2939 
Q 1816 3084 2150 3084 
Q 2853 3084 3261 2657 
Q 3669 2231 3669 1497 
Q 3669 778 3244 343 
Q 2819 -91 2113 -91 
Q 1303 -91 875 529 
Q 447 1150 447 2328 
Q 447 3434 972 4092 
Q 1497 4750 2381 4750 
Q 2619 4750 2861 4703 
Q 3103 4656 3366 4563 
z
" transform="scale(0.015625)"/>
       </defs>
       <use xlink:href="#DejaVuSans-30"/>
       <use xlink:href="#DejaVuSans-2e" x="63.623047"/>
       <use xlink:href="#DejaVuSans-36" x="95.410156"/>
      </g>
     </g>
    </g>
    <g id="ytick_5">
     <g id="line2d_5">
      <path d="M 49.807188 56.851646 
L 340.374087 56.851646 
" clip-path="url(#p2a1e11f92f)" style="fill: none; stroke: #cccccc; stroke-linecap: round"/>
     </g>
     <g id="text_9">
      <!-- 0.8 -->
      <g style="fill: #262626" transform="translate(22.81375 61.030786)scale(0.11 -0.11)">
       <defs>
        <path id="DejaVuSans-38" d="M 2034 2216 
Q 1584 2216 1326 1975 
Q 1069 1734 1069 1313 
Q 1069 891 1326 650 
Q 1584 409 2034 409 
Q 2484 409 2743 651 
Q 3003 894 3003 1313 
Q 3003 1734 2745 1975 
Q 2488 2216 2034 2216 
z
M 1403 2484 
Q 997 2584 770 2862 
Q 544 3141 544 3541 
Q 544 4100 942 4425 
Q 1341 4750 2034 4750 
Q 2731 4750 3128 4425 
Q 3525 4100 3525 3541 
Q 3525 3141 3298 2862 
Q 3072 2584 2669 2484 
Q 3125 2378 3379 2068 
Q 3634 1759 3634 1313 
Q 3634 634 3220 271 
Q 2806 -91 2034 -91 
Q 1263 -91 848 271 
Q 434 634 434 1313 
Q 434 1759 690 2068 
Q 947 2378 1403 2484 
z
M 1172 3481 
Q 1172 3119 1398 2916 
Q 1625 2713 2034 2713 
Q 2441 2713 2670 2916 
Q 2900 3119 2900 3481 
Q 2900 3844 2670 4047 
Q 2441 4250 2034 4250 
Q 1625 4250 1398 4047 
Q 1172 3844 1172 3481 
z
" transform="scale(0.015625)"/>
       </defs>
       <use xlink:href="#DejaVuSans-30"/>
       <use xlink:href="#DejaVuSans-2e" x="63.623047"/>
       <use xlink:href="#DejaVuSans-38" x="95.410156"/>
      </g>
     </g>
    </g>
    <g id="text_10">
     <!-- roughness -->
     <g style="fill: #262626" transform="translate(16.318125 187.1525)rotate(-90)scale(0.12 -0.12)">
      <defs>
       <path id="DejaVuSans-75" d="M 544 1381 
L 544 3500 
L 1119 3500 
L 1119 1403 
Q 1119 906 1312 657 
Q 1506 409 1894 409 
Q 2359 409 2629 706 
Q 2900 1003 2900 1516 
L 2900 3500 
L 3475 3500 
L 3475 0 
L 2900 0 
L 2900 538 
Q 2691 219 2414 64 
Q 2138 -91 1772 -91 
Q 1169 -91 856 284 
Q 544 659 544 1381 
z
M 1991 3584 
L 1991 3584 
z
" transform="scale(0.015625)"/>
       <path id="DejaVuSans-67" d="M 2906 1791 
Q 2906 2416 2648 2759 
Q 2391 3103 1925 3103 
Q 1463 3103 1205 2759 
Q 947 2416 947 1791 
Q 947 1169 1205 825 
Q 1463 481 1925 481 
Q 2391 481 2648 825 
Q 2906 1169 2906 1791 
z
M 3481 434 
Q 3481 -459 3084 -895 
Q 2688 -1331 1869 -1331 
Q 1566 -1331 1297 -1286 
Q 1028 -1241 775 -1147 
L 775 -588 
Q 1028 -725 1275 -790 
Q 1522 -856 1778 -856 
Q 2344 -856 2625 -561 
Q 2906 -266 2906 331 
L 2906 616 
Q 2728 306 2450 153 
Q 2172 0 1784 0 
Q 1141 0 747 490 
Q 353 981 353 1791 
Q 353 2603 747 3093 
Q 1141 3584 1784 3584 
Q 2172 3584 2450 3431 
Q 2728 3278 2906 2969 
L 2906 3500 
L 3481 3500 
L 3481 434 
z
" transform="scale(0.015625)"/>
       <path id="DejaVuSans-68" d="M 3513 2113 
L 3513 0 
L 2938 0 
L 2938 2094 
Q 2938 2591 2744 2837 
Q 2550 3084 2163 3084 
Q 1697 3084 1428 2787 
Q 1159 2491 1159 1978 
L 1159 0 
L 581 0 
L 581 4863 
L 1159 4863 
L 1159 2956 
Q 1366 3272 1645 3428 
Q 1925 3584 2291 3584 
Q 2894 3584 3203 3211 
Q 3513 2838 3513 2113 
z
" transform="scale(0.015625)"/>
      </defs>
      <use xlink:href="#DejaVuSans-72"/>
      <use xlink:href="#DejaVuSans-6f" x="38.863281"/>
      <use xlink:href="#DejaVuSans-75" x="100.044922"/>
      <use xlink:href="#DejaVuSans-67" x="163.423828"/>
      <use xlink:href="#DejaVuSans-68" x="226.900391"/>
      <use xlink:href="#DejaVuSans-6e" x="290.279297"/>
      <use xlink:href="#DejaVuSans-65" x="353.658203"/>
      <use xlink:href="#DejaVuSans-73" x="415.181641"/>
      <use xlink:href="#DejaVuSans-73" x="467.28125"/>
     </g>
    </g>
   </g>
   <g id="patch_3">
    <path d="M 98.235004 275.461666 
L 98.235004 275.461666 
L 98.235004 275.461666 
L 98.235004 275.461666 
z
" clip-path="url(#p2a1e11f92f)" style="fill: #5875a4; stroke: #4c4c4c; stroke-width: 0.75; stroke-linejoin: miter"/>
   </g>
   <g id="PolyCollection_1">
    <defs>
     <path id="mbdff04a3cb" d="M 98.235004 -70.793933 
L 96.571165 -70.793933 
L 94.91372 -71.207297 
L 92.194196 -71.62066 
L 88.204442 -72.034023 
L 82.991071 -72.447386 
L 76.960533 -72.860749 
L 70.848789 -73.274112 
L 65.526381 -73.687475 
L 61.711774 -74.100839 
L 59.737744 -74.514202 
L 59.492751 -74.927565 
L 60.550532 -75.340928 
L 62.388819 -75.754291 
L 64.565794 -76.167654 
L 66.7837 -76.581018 
L 68.861058 -76.994381 
L 70.684133 -77.407744 
L 72.190218 -77.821107 
L 73.38315 -78.23447 
L 74.345275 -78.647833 
L 75.21388 -79.061197 
L 76.121813 -79.47456 
L 77.13274 -79.887923 
L 78.209567 -80.301286 
L 79.236854 -80.714649 
L 80.086742 -81.128012 
L 80.692468 -81.541376 
L 81.089458 -81.954739 
L 81.404289 -82.368102 
L 81.802621 -82.781465 
L 82.427403 -83.194828 
L 83.356169 -83.608191 
L 84.587946 -84.021554 
L 86.053714 -84.434918 
L 87.639853 -84.848281 
L 89.217355 -85.261644 
L 90.671289 -85.675007 
L 91.923209 -86.08837 
L 92.939891 -86.501733 
L 93.727963 -86.915097 
L 94.321006 -87.32846 
L 94.766651 -87.741823 
L 95.116567 -88.155186 
L 95.418012 -88.568549 
L 95.706169 -88.981912 
L 95.999346 -89.395276 
L 96.299507 -89.808639 
L 96.597602 -90.222002 
L 96.880297 -90.635365 
L 97.135033 -91.048728 
L 97.35295 -91.462091 
L 97.530662 -91.875455 
L 97.67111 -92.288818 
L 97.782514 -92.702181 
L 97.874973 -93.115544 
L 97.956267 -93.528907 
L 98.029368 -93.94227 
L 98.093015 -94.355633 
L 98.144448 -94.768997 
L 98.18213 -95.18236 
L 98.206898 -95.595723 
L 98.22145 -96.009086 
L 98.229087 -96.422449 
L 98.232668 -96.835812 
L 98.234171 -97.249176 
L 98.234736 -97.662539 
L 98.234926 -98.075902 
L 98.234984 -98.489265 
L 98.234999 -98.902628 
L 98.235003 -99.315991 
L 98.235004 -99.729355 
L 98.235004 -100.142718 
L 98.235004 -100.556081 
L 98.235004 -100.969444 
L 98.235004 -101.382807 
L 98.235004 -101.79617 
L 98.235004 -102.209534 
L 98.235003 -102.622897 
L 98.235001 -103.03626 
L 98.23499 -103.449623 
L 98.234947 -103.862986 
L 98.234804 -104.276349 
L 98.234366 -104.689712 
L 98.233174 -105.103076 
L 98.230267 -105.516439 
L 98.223937 -105.929802 
L 98.211675 -106.343165 
L 98.190626 -106.756528 
L 98.158827 -107.169891 
L 98.117009 -107.583255 
L 98.070077 -107.996618 
L 98.026982 -108.409981 
L 97.998241 -108.823344 
L 97.991836 -109.236707 
L 98.009639 -109.65007 
L 98.046529 -110.063434 
L 98.092768 -110.476797 
L 98.138142 -110.89016 
L 98.175481 -111.303523 
L 98.201997 -111.716886 
L 98.235004 -111.716886 
L 98.235004 -111.716886 
L 98.235004 -111.303523 
L 98.235004 -110.89016 
L 98.235004 -110.476797 
L 98.235004 -110.063434 
L 98.235004 -109.65007 
L 98.235004 -109.236707 
L 98.235004 -108.823344 
L 98.235004 -108.409981 
L 98.235004 -107.996618 
L 98.235004 -107.583255 
L 98.235004 -107.169891 
L 98.235004 -106.756528 
L 98.235004 -106.343165 
L 98.235004 -105.929802 
L 98.235004 -105.516439 
L 98.235004 -105.103076 
L 98.235004 -104.689712 
L 98.235004 -104.276349 
L 98.235004 -103.862986 
L 98.235004 -103.449623 
L 98.235004 -103.03626 
L 98.235004 -102.622897 
L 98.235004 -102.209534 
L 98.235004 -101.79617 
L 98.235004 -101.382807 
L 98.235004 -100.969444 
L 98.235004 -100.556081 
L 98.235004 -100.142718 
L 98.235004 -99.729355 
L 98.235004 -99.315991 
L 98.235004 -98.902628 
L 98.235004 -98.489265 
L 98.235004 -98.075902 
L 98.235004 -97.662539 
L 98.235004 -97.249176 
L 98.235004 -96.835812 
L 98.235004 -96.422449 
L 98.235004 -96.009086 
L 98.235004 -95.595723 
L 98.235004 -95.18236 
L 98.235004 -94.768997 
L 98.235004 -94.355633 
L 98.235004 -93.94227 
L 98.235004 -93.528907 
L 98.235004 -93.115544 
L 98.235004 -92.702181 
L 98.235004 -92.288818 
L 98.235004 -91.875455 
L 98.235004 -91.462091 
L 98.235004 -91.048728 
L 98.235004 -90.635365 
L 98.235004 -90.222002 
L 98.235004 -89.808639 
L 98.235004 -89.395276 
L 98.235004 -88.981912 
L 98.235004 -88.568549 
L 98.235004 -88.155186 
L 98.235004 -87.741823 
L 98.235004 -87.32846 
L 98.235004 -86.915097 
L 98.235004 -86.501733 
L 98.235004 -86.08837 
L 98.235004 -85.675007 
L 98.235004 -85.261644 
L 98.235004 -84.848281 
L 98.235004 -84.434918 
L 98.235004 -84.021554 
L 98.235004 -83.608191 
L 98.235004 -83.194828 
L 98.235004 -82.781465 
L 98.235004 -82.368102 
L 98.235004 -81.954739 
L 98.235004 -81.541376 
L 98.235004 -81.128012 
L 98.235004 -80.714649 
L 98.235004 -80.301286 
L 98.235004 -79.887923 
L 98.235004 -79.47456 
L 98.235004 -79.061197 
L 98.235004 -78.647833 
L 98.235004 -78.23447 
L 98.235004 -77.821107 
L 98.235004 -77.407744 
L 98.235004 -76.994381 
L 98.235004 -76.581018 
L 98.235004 -76.167654 
L 98.235004 -75.754291 
L 98.235004 -75.340928 
L 98.235004 -74.927565 
L 98.235004 -74.514202 
L 98.235004 -74.100839 
L 98.235004 -73.687475 
L 98.235004 -73.274112 
L 98.235004 -72.860749 
L 98.235004 -72.447386 
L 98.235004 -72.034023 
L 98.235004 -71.62066 
L 98.235004 -71.207297 
L 98.235004 -70.793933 
z
" style="stroke: #4c4c4c; stroke-width: 1.5"/>
    </defs>
    <g clip-path="url(#p2a1e11f92f)">
     <use xlink:href="#mbdff04a3cb" x="0" y="347.739688" style="fill: #5875a4; stroke: #4c4c4c; stroke-width: 1.5"/>
    </g>
   </g>
   <g id="patch_4">
    <path d="M 98.235004 275.461666 
L 98.235004 275.461666 
L 98.235004 275.461666 
L 98.235004 275.461666 
z
" clip-path="url(#p2a1e11f92f)" style="fill: #cc8963; stroke: #4c4c4c; stroke-width: 0.75; stroke-linejoin: miter"/>
   </g>
   <g id="PolyCollection_2">
    <defs>
     <path id="meceb6b0195" d="M 98.611531 -61.43242 
L 98.235004 -61.43242 
L 98.235004 -63.853204 
L 98.235004 -66.273988 
L 98.235004 -68.694771 
L 98.235004 -71.115555 
L 98.235004 -73.536339 
L 98.235004 -75.957123 
L 98.235004 -78.377907 
L 98.235004 -80.79869 
L 98.235004 -83.219474 
L 98.235004 -85.640258 
L 98.235004 -88.061042 
L 98.235004 -90.481826 
L 98.235004 -92.90261 
L 98.235004 -95.323393 
L 98.235004 -97.744177 
L 98.235004 -100.164961 
L 98.235004 -102.585745 
L 98.235004 -105.006529 
L 98.235004 -107.427312 
L 98.235004 -109.848096 
L 98.235004 -112.26888 
L 98.235004 -114.689664 
L 98.235004 -117.110448 
L 98.235004 -119.531231 
L 98.235004 -121.952015 
L 98.235004 -124.372799 
L 98.235004 -126.793583 
L 98.235004 -129.214367 
L 98.235004 -131.635151 
L 98.235004 -134.055934 
L 98.235004 -136.476718 
L 98.235004 -138.897502 
L 98.235004 -141.318286 
L 98.235004 -143.73907 
L 98.235004 -146.159853 
L 98.235004 -148.580637 
L 98.235004 -151.001421 
L 98.235004 -153.422205 
L 98.235004 -155.842989 
L 98.235004 -158.263773 
L 98.235004 -160.684556 
L 98.235004 -163.10534 
L 98.235004 -165.526124 
L 98.235004 -167.946908 
L 98.235004 -170.367692 
L 98.235004 -172.788475 
L 98.235004 -175.209259 
L 98.235004 -177.630043 
L 98.235004 -180.050827 
L 98.235004 -182.471611 
L 98.235004 -184.892394 
L 98.235004 -187.313178 
L 98.235004 -189.733962 
L 98.235004 -192.154746 
L 98.235004 -194.57553 
L 98.235004 -196.996314 
L 98.235004 -199.417097 
L 98.235004 -201.837881 
L 98.235004 -204.258665 
L 98.235004 -206.679449 
L 98.235004 -209.100233 
L 98.235004 -211.521016 
L 98.235004 -213.9418 
L 98.235004 -216.362584 
L 98.235004 -218.783368 
L 98.235004 -221.204152 
L 98.235004 -223.624935 
L 98.235004 -226.045719 
L 98.235004 -228.466503 
L 98.235004 -230.887287 
L 98.235004 -233.308071 
L 98.235004 -235.728855 
L 98.235004 -238.149638 
L 98.235004 -240.570422 
L 98.235004 -242.991206 
L 98.235004 -245.41199 
L 98.235004 -247.832774 
L 98.235004 -250.253557 
L 98.235004 -252.674341 
L 98.235004 -255.095125 
L 98.235004 -257.515909 
L 98.235004 -259.936693 
L 98.235004 -262.357476 
L 98.235004 -264.77826 
L 98.235004 -267.199044 
L 98.235004 -269.619828 
L 98.235004 -272.040612 
L 98.235004 -274.461396 
L 98.235004 -276.882179 
L 98.235004 -279.302963 
L 98.235004 -281.723747 
L 98.235004 -284.144531 
L 98.235004 -286.565315 
L 98.235004 -288.986098 
L 98.235004 -291.406882 
L 98.235004 -293.827666 
L 98.235004 -296.24845 
L 98.235004 -298.669234 
L 98.235004 -301.090017 
L 98.24187 -301.090017 
L 98.24187 -301.090017 
L 98.248893 -298.669234 
L 98.25913 -296.24845 
L 98.270988 -293.827666 
L 98.281086 -291.406882 
L 98.285675 -288.986098 
L 98.282844 -286.565315 
L 98.273786 -284.144531 
L 98.261998 -281.723747 
L 98.251137 -279.302963 
L 98.243283 -276.882179 
L 98.238652 -274.461396 
L 98.236384 -272.040612 
L 98.235452 -269.619828 
L 98.235129 -267.199044 
L 98.235034 -264.77826 
L 98.23501 -262.357476 
L 98.235005 -259.936693 
L 98.235004 -257.515909 
L 98.235004 -255.095125 
L 98.235004 -252.674341 
L 98.235004 -250.253557 
L 98.235004 -247.832774 
L 98.235004 -245.41199 
L 98.235004 -242.991206 
L 98.235004 -240.570422 
L 98.235004 -238.149638 
L 98.235004 -235.728855 
L 98.235006 -233.308071 
L 98.235012 -230.887287 
L 98.235041 -228.466503 
L 98.235154 -226.045719 
L 98.235532 -223.624935 
L 98.236596 -221.204152 
L 98.239132 -218.783368 
L 98.24421 -216.362584 
L 98.252695 -213.9418 
L 98.264397 -211.521016 
L 98.277527 -209.100233 
L 98.2893 -206.679449 
L 98.297722 -204.258665 
L 98.303181 -201.837881 
L 98.308352 -199.417097 
L 98.316588 -196.996314 
L 98.330554 -194.57553 
L 98.352116 -192.154746 
L 98.382377 -189.733962 
L 98.420337 -187.313178 
L 98.460704 -184.892394 
L 98.493435 -182.471611 
L 98.506996 -180.050827 
L 98.494378 -177.630043 
L 98.458044 -175.209259 
L 98.409881 -172.788475 
L 98.365526 -170.367692 
L 98.336623 -167.946908 
L 98.326013 -165.526124 
L 98.328357 -163.10534 
L 98.334982 -160.684556 
L 98.339601 -158.263773 
L 98.341723 -155.842989 
L 98.346068 -153.422205 
L 98.35853 -151.001421 
L 98.381347 -148.580637 
L 98.410933 -146.159853 
L 98.440098 -143.73907 
L 98.462988 -141.318286 
L 98.479029 -138.897502 
L 98.493211 -136.476718 
L 98.513341 -134.055934 
L 98.547083 -131.635151 
L 98.600828 -129.214367 
L 98.679734 -126.793583 
L 98.786985 -124.372799 
L 98.921893 -121.952015 
L 99.079082 -119.531231 
L 99.251158 -117.110448 
L 99.434126 -114.689664 
L 99.631755 -112.26888 
L 99.856649 -109.848096 
L 100.130866 -107.427312 
L 100.489583 -105.006529 
L 100.984179 -102.585745 
L 101.676145 -100.164961 
L 102.620045 -97.744177 
L 103.843728 -95.323393 
L 105.331653 -92.90261 
L 107.006852 -90.481826 
L 108.708979 -88.061042 
L 110.184206 -85.640258 
L 111.115677 -83.219474 
L 111.209765 -80.79869 
L 110.316841 -78.377907 
L 108.527994 -75.957123 
L 106.179989 -73.536339 
L 103.742018 -71.115555 
L 101.635846 -68.694771 
L 100.09355 -66.273988 
L 99.1288 -63.853204 
L 98.611531 -61.43242 
z
" style="stroke: #4c4c4c; stroke-width: 1.5"/>
    </defs>
    <g clip-path="url(#p2a1e11f92f)">
     <use xlink:href="#meceb6b0195" x="0" y="347.739688" style="fill: #cc8963; stroke: #4c4c4c; stroke-width: 1.5"/>
    </g>
   </g>
   <g id="PolyCollection_3">
    <defs>
     <path id="m16a362f264" d="M 195.090637 -67.46018 
L 193.498534 -67.46018 
L 189.104229 -69.376931 
L 179.387588 -71.293683 
L 166.011317 -73.210434 
L 156.348384 -75.127185 
L 156.749296 -77.043936 
L 165.343266 -78.960687 
L 175.429306 -80.877438 
L 182.820571 -82.794189 
L 187.260614 -84.710941 
L 189.938018 -86.627692 
L 191.7106 -88.544443 
L 192.862906 -90.461194 
L 193.538798 -92.377945 
L 193.942716 -94.294696 
L 194.20502 -96.211447 
L 194.349158 -98.128199 
L 194.40592 -100.04495 
L 194.44085 -101.961701 
L 194.516463 -103.878452 
L 194.656839 -105.795203 
L 194.812268 -107.711954 
L 194.894275 -109.628705 
L 194.870758 -111.545457 
L 194.805706 -113.462208 
L 194.785009 -115.378959 
L 194.826815 -117.29571 
L 194.900262 -119.212461 
L 194.978421 -121.129212 
L 195.040455 -123.045964 
L 195.074665 -124.962715 
L 195.087144 -126.879466 
L 195.09012 -128.796217 
L 195.090586 -130.712968 
L 195.090634 -132.629719 
L 195.090637 -134.54647 
L 195.090637 -136.463222 
L 195.090637 -138.379973 
L 195.090637 -140.296724 
L 195.090637 -142.213475 
L 195.090637 -144.130226 
L 195.090637 -146.046977 
L 195.090637 -147.963728 
L 195.090637 -149.88048 
L 195.090637 -151.797231 
L 195.090637 -153.713982 
L 195.090637 -155.630733 
L 195.090637 -157.547484 
L 195.090637 -159.464235 
L 195.090637 -161.380986 
L 195.090637 -163.297738 
L 195.090637 -165.214489 
L 195.090637 -167.13124 
L 195.090637 -169.047991 
L 195.090637 -170.964742 
L 195.090637 -172.881493 
L 195.090637 -174.798245 
L 195.090637 -176.714996 
L 195.090637 -178.631747 
L 195.090637 -180.548498 
L 195.090637 -182.465249 
L 195.090637 -184.382 
L 195.090637 -186.298751 
L 195.090637 -188.215503 
L 195.090637 -190.132254 
L 195.090637 -192.049005 
L 195.090637 -193.965756 
L 195.090637 -195.882507 
L 195.090637 -197.799258 
L 195.090637 -199.716009 
L 195.090637 -201.632761 
L 195.090637 -203.549512 
L 195.090637 -205.466263 
L 195.090637 -207.383014 
L 195.090637 -209.299765 
L 195.090637 -211.216516 
L 195.090637 -213.133267 
L 195.090637 -215.050019 
L 195.090637 -216.96677 
L 195.090637 -218.883521 
L 195.090637 -220.800272 
L 195.090637 -222.717023 
L 195.090637 -224.633774 
L 195.090637 -226.550526 
L 195.090637 -228.467277 
L 195.090637 -230.384028 
L 195.090637 -232.300779 
L 195.090637 -234.21753 
L 195.090637 -236.134281 
L 195.090627 -238.051032 
L 195.090502 -239.967784 
L 195.089478 -241.884535 
L 195.084013 -243.801286 
L 195.065303 -245.718037 
L 195.025776 -247.634788 
L 194.979466 -249.551539 
L 194.963074 -251.46829 
L 194.992646 -253.385042 
L 195.040244 -255.301793 
L 195.073288 -257.218544 
L 195.090637 -257.218544 
L 195.090637 -257.218544 
L 195.090637 -255.301793 
L 195.090637 -253.385042 
L 195.090637 -251.46829 
L 195.090637 -249.551539 
L 195.090637 -247.634788 
L 195.090637 -245.718037 
L 195.090637 -243.801286 
L 195.090637 -241.884535 
L 195.090637 -239.967784 
L 195.090637 -238.051032 
L 195.090637 -236.134281 
L 195.090637 -234.21753 
L 195.090637 -232.300779 
L 195.090637 -230.384028 
L 195.090637 -228.467277 
L 195.090637 -226.550526 
L 195.090637 -224.633774 
L 195.090637 -222.717023 
L 195.090637 -220.800272 
L 195.090637 -218.883521 
L 195.090637 -216.96677 
L 195.090637 -215.050019 
L 195.090637 -213.133267 
L 195.090637 -211.216516 
L 195.090637 -209.299765 
L 195.090637 -207.383014 
L 195.090637 -205.466263 
L 195.090637 -203.549512 
L 195.090637 -201.632761 
L 195.090637 -199.716009 
L 195.090637 -197.799258 
L 195.090637 -195.882507 
L 195.090637 -193.965756 
L 195.090637 -192.049005 
L 195.090637 -190.132254 
L 195.090637 -188.215503 
L 195.090637 -186.298751 
L 195.090637 -184.382 
L 195.090637 -182.465249 
L 195.090637 -180.548498 
L 195.090637 -178.631747 
L 195.090637 -176.714996 
L 195.090637 -174.798245 
L 195.090637 -172.881493 
L 195.090637 -170.964742 
L 195.090637 -169.047991 
L 195.090637 -167.13124 
L 195.090637 -165.214489 
L 195.090637 -163.297738 
L 195.090637 -161.380986 
L 195.090637 -159.464235 
L 195.090637 -157.547484 
L 195.090637 -155.630733 
L 195.090637 -153.713982 
L 195.090637 -151.797231 
L 195.090637 -149.88048 
L 195.090637 -147.963728 
L 195.090637 -146.046977 
L 195.090637 -144.130226 
L 195.090637 -142.213475 
L 195.090637 -140.296724 
L 195.090637 -138.379973 
L 195.090637 -136.463222 
L 195.090637 -134.54647 
L 195.090637 -132.629719 
L 195.090637 -130.712968 
L 195.090637 -128.796217 
L 195.090637 -126.879466 
L 195.090637 -124.962715 
L 195.090637 -123.045964 
L 195.090637 -121.129212 
L 195.090637 -119.212461 
L 195.090637 -117.29571 
L 195.090637 -115.378959 
L 195.090637 -113.462208 
L 195.090637 -111.545457 
L 195.090637 -109.628705 
L 195.090637 -107.711954 
L 195.090637 -105.795203 
L 195.090637 -103.878452 
L 195.090637 -101.961701 
L 195.090637 -100.04495 
L 195.090637 -98.128199 
L 195.090637 -96.211447 
L 195.090637 -94.294696 
L 195.090637 -92.377945 
L 195.090637 -90.461194 
L 195.090637 -88.544443 
L 195.090637 -86.627692 
L 195.090637 -84.710941 
L 195.090637 -82.794189 
L 195.090637 -80.877438 
L 195.090637 -78.960687 
L 195.090637 -77.043936 
L 195.090637 -75.127185 
L 195.090637 -73.210434 
L 195.090637 -71.293683 
L 195.090637 -69.376931 
L 195.090637 -67.46018 
z
" style="stroke: #4c4c4c; stroke-width: 1.5"/>
    </defs>
    <g clip-path="url(#p2a1e11f92f)">
     <use xlink:href="#m16a362f264" x="0" y="347.739688" style="fill: #5875a4; stroke: #4c4c4c; stroke-width: 1.5"/>
    </g>
   </g>
   <g id="PolyCollection_4">
    <defs>
     <path id="m8acbf48df2" d="M 195.919743 -62.286529 
L 195.090637 -62.286529 
L 195.090637 -63.962158 
L 195.090637 -65.637787 
L 195.090637 -67.313416 
L 195.090637 -68.989045 
L 195.090637 -70.664674 
L 195.090637 -72.340304 
L 195.090637 -74.015933 
L 195.090637 -75.691562 
L 195.090637 -77.367191 
L 195.090637 -79.04282 
L 195.090637 -80.718449 
L 195.090637 -82.394078 
L 195.090637 -84.069708 
L 195.090637 -85.745337 
L 195.090637 -87.420966 
L 195.090637 -89.096595 
L 195.090637 -90.772224 
L 195.090637 -92.447853 
L 195.090637 -94.123482 
L 195.090637 -95.799112 
L 195.090637 -97.474741 
L 195.090637 -99.15037 
L 195.090637 -100.825999 
L 195.090637 -102.501628 
L 195.090637 -104.177257 
L 195.090637 -105.852886 
L 195.090637 -107.528516 
L 195.090637 -109.204145 
L 195.090637 -110.879774 
L 195.090637 -112.555403 
L 195.090637 -114.231032 
L 195.090637 -115.906661 
L 195.090637 -117.58229 
L 195.090637 -119.25792 
L 195.090637 -120.933549 
L 195.090637 -122.609178 
L 195.090637 -124.284807 
L 195.090637 -125.960436 
L 195.090637 -127.636065 
L 195.090637 -129.311694 
L 195.090637 -130.987324 
L 195.090637 -132.662953 
L 195.090637 -134.338582 
L 195.090637 -136.014211 
L 195.090637 -137.68984 
L 195.090637 -139.365469 
L 195.090637 -141.041098 
L 195.090637 -142.716728 
L 195.090637 -144.392357 
L 195.090637 -146.067986 
L 195.090637 -147.743615 
L 195.090637 -149.419244 
L 195.090637 -151.094873 
L 195.090637 -152.770502 
L 195.090637 -154.446131 
L 195.090637 -156.121761 
L 195.090637 -157.79739 
L 195.090637 -159.473019 
L 195.090637 -161.148648 
L 195.090637 -162.824277 
L 195.090637 -164.499906 
L 195.090637 -166.175535 
L 195.090637 -167.851165 
L 195.090637 -169.526794 
L 195.090637 -171.202423 
L 195.090637 -172.878052 
L 195.090637 -174.553681 
L 195.090637 -176.22931 
L 195.090637 -177.904939 
L 195.090637 -179.580569 
L 195.090637 -181.256198 
L 195.090637 -182.931827 
L 195.090637 -184.607456 
L 195.090637 -186.283085 
L 195.090637 -187.958714 
L 195.090637 -189.634343 
L 195.090637 -191.309973 
L 195.090637 -192.985602 
L 195.090637 -194.661231 
L 195.090637 -196.33686 
L 195.090637 -198.012489 
L 195.090637 -199.688118 
L 195.090637 -201.363747 
L 195.090637 -203.039377 
L 195.090637 -204.715006 
L 195.090637 -206.390635 
L 195.090637 -208.066264 
L 195.090637 -209.741893 
L 195.090637 -211.417522 
L 195.090637 -213.093151 
L 195.090637 -214.768781 
L 195.090637 -216.44441 
L 195.090637 -218.120039 
L 195.090637 -219.795668 
L 195.090637 -221.471297 
L 195.090637 -223.146926 
L 195.090637 -224.822555 
L 195.090637 -226.498185 
L 195.090637 -228.173814 
L 195.100341 -228.173814 
L 195.100341 -228.173814 
L 195.107821 -226.498185 
L 195.118285 -224.822555 
L 195.131051 -223.146926 
L 195.144307 -221.471297 
L 195.155393 -219.795668 
L 195.161623 -218.120039 
L 195.161337 -216.44441 
L 195.154622 -214.768781 
L 195.143284 -213.093151 
L 195.130101 -211.417522 
L 195.117816 -209.741893 
L 195.108404 -208.066264 
L 195.102918 -206.390635 
L 195.101774 -204.715006 
L 195.105143 -203.039377 
L 195.11311 -201.363747 
L 195.125506 -199.688118 
L 195.141578 -198.012489 
L 195.1598 -196.33686 
L 195.17808 -194.661231 
L 195.194335 -192.985602 
L 195.207185 -191.309973 
L 195.216469 -189.634343 
L 195.223389 -187.958714 
L 195.230271 -186.283085 
L 195.239915 -184.607456 
L 195.254609 -182.931827 
L 195.275064 -181.256198 
L 195.299904 -179.580569 
L 195.326312 -177.904939 
L 195.351752 -176.22931 
L 195.375731 -174.553681 
L 195.400156 -172.878052 
L 195.427634 -171.202423 
L 195.458588 -169.526794 
L 195.489198 -167.851165 
L 195.511912 -166.175535 
L 195.518577 -164.499906 
L 195.504497 -162.824277 
L 195.471064 -161.148648 
L 195.425462 -159.473019 
L 195.377663 -157.79739 
L 195.336341 -156.121761 
L 195.305701 -154.446131 
L 195.284625 -152.770502 
L 195.268278 -151.094873 
L 195.251118 -149.419244 
L 195.229686 -147.743615 
L 195.203866 -146.067986 
L 195.176322 -144.392357 
L 195.150853 -142.716728 
L 195.130795 -141.041098 
L 195.118286 -139.365469 
L 195.114457 -137.68984 
L 195.120059 -136.014211 
L 195.135858 -134.338582 
L 195.162438 -132.662953 
L 195.199463 -130.987324 
L 195.244849 -129.311694 
L 195.294436 -127.636065 
L 195.34254 -125.960436 
L 195.383357 -124.284807 
L 195.412741 -122.609178 
L 195.429605 -120.933549 
L 195.436328 -119.25792 
L 195.437937 -117.58229 
L 195.440458 -115.906661 
L 195.449338 -114.231032 
L 195.468906 -112.555403 
L 195.503323 -110.879774 
L 195.558433 -109.204145 
L 195.643207 -107.528516 
L 195.769447 -105.852886 
L 195.949347 -104.177257 
L 196.19191 -102.501628 
L 196.500248 -100.825999 
L 196.872166 -99.15037 
L 197.305748 -97.474741 
L 197.810154 -95.799112 
L 198.419599 -94.123482 
L 199.205733 -92.447853 
L 200.280815 -90.772224 
L 201.782285 -89.096595 
L 203.831197 -87.420966 
L 206.46569 -85.745337 
L 209.566849 -84.069708 
L 212.811798 -82.394078 
L 215.694321 -80.718449 
L 217.634009 -79.04282 
L 218.151742 -77.367191 
L 217.0438 -75.691562 
L 214.471475 -74.015933 
L 210.916354 -72.340304 
L 207.018577 -70.664674 
L 203.37466 -68.989045 
L 200.38452 -67.313416 
L 198.199772 -65.637787 
L 196.76706 -63.962158 
L 195.919743 -62.286529 
z
" style="stroke: #4c4c4c; stroke-width: 1.5"/>
    </defs>
    <g clip-path="url(#p2a1e11f92f)">
     <use xlink:href="#m8acbf48df2" x="0" y="347.739688" style="fill: #cc8963; stroke: #4c4c4c; stroke-width: 1.5"/>
    </g>
   </g>
   <g id="PolyCollection_5">
    <defs>
     <path id="m4eabaef115" d="M 291.946271 -56.486051 
L 290.186026 -56.486051 
L 288.495671 -59.21865 
L 285.789188 -61.951249 
L 281.92928 -64.683847 
L 277.056527 -67.416446 
L 271.671521 -70.149045 
L 266.574967 -72.881643 
L 262.653066 -75.614242 
L 260.591122 -78.346841 
L 260.652394 -81.07944 
L 262.625652 -83.812038 
L 265.947687 -86.544637 
L 269.918986 -89.277236 
L 273.907186 -92.009834 
L 277.470436 -94.742433 
L 280.389053 -97.475032 
L 282.631341 -100.207631 
L 284.289099 -102.940229 
L 285.510565 -105.672828 
L 286.446382 -108.405427 
L 287.214537 -111.138025 
L 287.884701 -113.870624 
L 288.47959 -116.603223 
L 288.989182 -119.335822 
L 289.391938 -122.06842 
L 289.675835 -124.801019 
L 289.851963 -127.533618 
L 289.955738 -130.266216 
L 290.035646 -132.998815 
L 290.135061 -135.731414 
L 290.2761 -138.464013 
L 290.453334 -141.196611 
L 290.639966 -143.92921 
L 290.802689 -146.661809 
L 290.917402 -149.394407 
L 290.978272 -152.127006 
L 290.996831 -154.859605 
L 290.993478 -157.592204 
L 290.987562 -160.324802 
L 290.991812 -163.057401 
L 291.012723 -165.79 
L 291.053828 -168.522598 
L 291.117439 -171.255197 
L 291.203099 -173.987796 
L 291.304959 -176.720395 
L 291.411705 -179.452993 
L 291.510419 -182.185592 
L 291.592147 -184.918191 
L 291.655285 -187.650789 
L 291.704584 -190.383388 
L 291.746804 -193.115987 
L 291.786155 -195.848586 
L 291.822194 -198.581184 
L 291.850672 -201.313783 
L 291.865993 -204.046382 
L 291.863659 -206.77898 
L 291.841962 -209.511579 
L 291.802964 -212.244178 
L 291.752879 -214.976777 
L 291.701509 -217.709375 
L 291.660326 -220.441974 
L 291.639371 -223.174573 
L 291.64407 -225.907171 
L 291.673422 -228.63977 
L 291.720539 -231.372369 
L 291.775303 -234.104968 
L 291.82786 -236.837566 
L 291.871375 -239.570165 
L 291.903068 -242.302764 
L 291.923574 -245.035362 
L 291.935425 -247.767961 
L 291.941562 -250.50056 
L 291.944415 -253.233159 
L 291.945608 -255.965757 
L 291.946056 -258.698356 
L 291.946208 -261.430955 
L 291.946254 -264.163553 
L 291.946266 -266.896152 
L 291.946267 -269.628751 
L 291.946259 -272.36135 
L 291.946227 -275.093948 
L 291.946118 -277.826547 
L 291.945792 -280.559146 
L 291.944917 -283.291744 
L 291.942813 -286.024343 
L 291.938292 -288.756942 
L 291.929641 -291.489541 
L 291.914959 -294.222139 
L 291.893012 -296.954738 
L 291.864435 -299.687337 
L 291.832678 -302.419935 
L 291.803834 -305.152534 
L 291.784927 -307.885133 
L 291.781171 -310.617732 
L 291.793654 -313.35033 
L 291.818827 -316.082929 
L 291.850132 -318.815528 
L 291.880756 -321.548126 
L 291.905939 -324.280725 
L 291.923842 -327.013324 
L 291.946271 -327.013324 
L 291.946271 -327.013324 
L 291.946271 -324.280725 
L 291.946271 -321.548126 
L 291.946271 -318.815528 
L 291.946271 -316.082929 
L 291.946271 -313.35033 
L 291.946271 -310.617732 
L 291.946271 -307.885133 
L 291.946271 -305.152534 
L 291.946271 -302.419935 
L 291.946271 -299.687337 
L 291.946271 -296.954738 
L 291.946271 -294.222139 
L 291.946271 -291.489541 
L 291.946271 -288.756942 
L 291.946271 -286.024343 
L 291.946271 -283.291744 
L 291.946271 -280.559146 
L 291.946271 -277.826547 
L 291.946271 -275.093948 
L 291.946271 -272.36135 
L 291.946271 -269.628751 
L 291.946271 -266.896152 
L 291.946271 -264.163553 
L 291.946271 -261.430955 
L 291.946271 -258.698356 
L 291.946271 -255.965757 
L 291.946271 -253.233159 
L 291.946271 -250.50056 
L 291.946271 -247.767961 
L 291.946271 -245.035362 
L 291.946271 -242.302764 
L 291.946271 -239.570165 
L 291.946271 -236.837566 
L 291.946271 -234.104968 
L 291.946271 -231.372369 
L 291.946271 -228.63977 
L 291.946271 -225.907171 
L 291.946271 -223.174573 
L 291.946271 -220.441974 
L 291.946271 -217.709375 
L 291.946271 -214.976777 
L 291.946271 -212.244178 
L 291.946271 -209.511579 
L 291.946271 -206.77898 
L 291.946271 -204.046382 
L 291.946271 -201.313783 
L 291.946271 -198.581184 
L 291.946271 -195.848586 
L 291.946271 -193.115987 
L 291.946271 -190.383388 
L 291.946271 -187.650789 
L 291.946271 -184.918191 
L 291.946271 -182.185592 
L 291.946271 -179.452993 
L 291.946271 -176.720395 
L 291.946271 -173.987796 
L 291.946271 -171.255197 
L 291.946271 -168.522598 
L 291.946271 -165.79 
L 291.946271 -163.057401 
L 291.946271 -160.324802 
L 291.946271 -157.592204 
L 291.946271 -154.859605 
L 291.946271 -152.127006 
L 291.946271 -149.394407 
L 291.946271 -146.661809 
L 291.946271 -143.92921 
L 291.946271 -141.196611 
L 291.946271 -138.464013 
L 291.946271 -135.731414 
L 291.946271 -132.998815 
L 291.946271 -130.266216 
L 291.946271 -127.533618 
L 291.946271 -124.801019 
L 291.946271 -122.06842 
L 291.946271 -119.335822 
L 291.946271 -116.603223 
L 291.946271 -113.870624 
L 291.946271 -111.138025 
L 291.946271 -108.405427 
L 291.946271 -105.672828 
L 291.946271 -102.940229 
L 291.946271 -100.207631 
L 291.946271 -97.475032 
L 291.946271 -94.742433 
L 291.946271 -92.009834 
L 291.946271 -89.277236 
L 291.946271 -86.544637 
L 291.946271 -83.812038 
L 291.946271 -81.07944 
L 291.946271 -78.346841 
L 291.946271 -75.614242 
L 291.946271 -72.881643 
L 291.946271 -70.149045 
L 291.946271 -67.416446 
L 291.946271 -64.683847 
L 291.946271 -61.951249 
L 291.946271 -59.21865 
L 291.946271 -56.486051 
z
" style="stroke: #4c4c4c; stroke-width: 1.5"/>
    </defs>
    <g clip-path="url(#p2a1e11f92f)">
     <use xlink:href="#m4eabaef115" x="0" y="347.739688" style="fill: #5875a4; stroke: #4c4c4c; stroke-width: 1.5"/>
    </g>
   </g>
   <g id="PolyCollection_6">
    <defs>
     <path id="me2d17db0db" d="M 293.683319 -58.801701 
L 291.946271 -58.801701 
L 291.946271 -61.150626 
L 291.946271 -63.499551 
L 291.946271 -65.848476 
L 291.946271 -68.197401 
L 291.946271 -70.546326 
L 291.946271 -72.895251 
L 291.946271 -75.244176 
L 291.946271 -77.593101 
L 291.946271 -79.942026 
L 291.946271 -82.290951 
L 291.946271 -84.639876 
L 291.946271 -86.988801 
L 291.946271 -89.337726 
L 291.946271 -91.686651 
L 291.946271 -94.035576 
L 291.946271 -96.384501 
L 291.946271 -98.733425 
L 291.946271 -101.08235 
L 291.946271 -103.431275 
L 291.946271 -105.7802 
L 291.946271 -108.129125 
L 291.946271 -110.47805 
L 291.946271 -112.826975 
L 291.946271 -115.1759 
L 291.946271 -117.524825 
L 291.946271 -119.87375 
L 291.946271 -122.222675 
L 291.946271 -124.5716 
L 291.946271 -126.920525 
L 291.946271 -129.26945 
L 291.946271 -131.618375 
L 291.946271 -133.9673 
L 291.946271 -136.316225 
L 291.946271 -138.66515 
L 291.946271 -141.014074 
L 291.946271 -143.362999 
L 291.946271 -145.711924 
L 291.946271 -148.060849 
L 291.946271 -150.409774 
L 291.946271 -152.758699 
L 291.946271 -155.107624 
L 291.946271 -157.456549 
L 291.946271 -159.805474 
L 291.946271 -162.154399 
L 291.946271 -164.503324 
L 291.946271 -166.852249 
L 291.946271 -169.201174 
L 291.946271 -171.550099 
L 291.946271 -173.899024 
L 291.946271 -176.247949 
L 291.946271 -178.596874 
L 291.946271 -180.945798 
L 291.946271 -183.294723 
L 291.946271 -185.643648 
L 291.946271 -187.992573 
L 291.946271 -190.341498 
L 291.946271 -192.690423 
L 291.946271 -195.039348 
L 291.946271 -197.388273 
L 291.946271 -199.737198 
L 291.946271 -202.086123 
L 291.946271 -204.435048 
L 291.946271 -206.783973 
L 291.946271 -209.132898 
L 291.946271 -211.481823 
L 291.946271 -213.830748 
L 291.946271 -216.179673 
L 291.946271 -218.528598 
L 291.946271 -220.877522 
L 291.946271 -223.226447 
L 291.946271 -225.575372 
L 291.946271 -227.924297 
L 291.946271 -230.273222 
L 291.946271 -232.622147 
L 291.946271 -234.971072 
L 291.946271 -237.319997 
L 291.946271 -239.668922 
L 291.946271 -242.017847 
L 291.946271 -244.366772 
L 291.946271 -246.715697 
L 291.946271 -249.064622 
L 291.946271 -251.413547 
L 291.946271 -253.762472 
L 291.946271 -256.111397 
L 291.946271 -258.460322 
L 291.946271 -260.809247 
L 291.946271 -263.158171 
L 291.946271 -265.507096 
L 291.946271 -267.856021 
L 291.946271 -270.204946 
L 291.946271 -272.553871 
L 291.946271 -274.902796 
L 291.946271 -277.251721 
L 291.946271 -279.600646 
L 291.946271 -281.949571 
L 291.946271 -284.298496 
L 291.946271 -286.647421 
L 291.946271 -288.996346 
L 291.946271 -291.345271 
L 291.974803 -291.345271 
L 291.974803 -291.345271 
L 292.000189 -288.996346 
L 292.036502 -286.647421 
L 292.079994 -284.298496 
L 292.121772 -281.949571 
L 292.150245 -279.600646 
L 292.156211 -277.251721 
L 292.137626 -274.902796 
L 292.100728 -272.553871 
L 292.056678 -270.204946 
L 292.01616 -267.856021 
L 291.98545 -265.507096 
L 291.965721 -263.158171 
L 291.954822 -260.809247 
L 291.949605 -258.460322 
L 291.947444 -256.111397 
L 291.946725 -253.762472 
L 291.946746 -251.413547 
L 291.947529 -249.064622 
L 291.949831 -246.715697 
L 291.95533 -244.366772 
L 291.966713 -242.017847 
L 291.987121 -239.668922 
L 292.018568 -237.319997 
L 292.059596 -234.971072 
L 292.10364 -232.622147 
L 292.140009 -230.273222 
L 292.158166 -227.924297 
L 292.153393 -225.575372 
L 292.130224 -223.226447 
L 292.101059 -220.877522 
L 292.080523 -218.528598 
L 292.078669 -216.179673 
L 292.096404 -213.830748 
L 292.1251 -211.481823 
L 292.150557 -209.132898 
L 292.159735 -206.783973 
L 292.147073 -204.435048 
L 292.117087 -202.086123 
L 292.081956 -199.737198 
L 292.055811 -197.388273 
L 292.048899 -195.039348 
L 292.063874 -192.690423 
L 292.094902 -190.341498 
L 292.129575 -187.992573 
L 292.153464 -185.643648 
L 292.156061 -183.294723 
L 292.135338 -180.945798 
L 292.098271 -178.596874 
L 292.05714 -176.247949 
L 292.024278 -173.899024 
L 292.00836 -171.550099 
L 292.013219 -169.201174 
L 292.037963 -166.852249 
L 292.077186 -164.503324 
L 292.121846 -162.154399 
L 292.162457 -159.805474 
L 292.194761 -157.456549 
L 292.224829 -155.107624 
L 292.268872 -152.758699 
L 292.345442 -150.409774 
L 292.463106 -148.060849 
L 292.611091 -145.711924 
L 292.759847 -143.362999 
L 292.872612 -141.014074 
L 292.921748 -138.66515 
L 292.900453 -136.316225 
L 292.823916 -133.9673 
L 292.721157 -131.618375 
L 292.624141 -129.26945 
L 292.560525 -126.920525 
L 292.551879 -124.5716 
L 292.614588 -122.222675 
L 292.759703 -119.87375 
L 292.990924 -117.524825 
L 293.30361 -115.1759 
L 293.689482 -112.826975 
L 294.150658 -110.47805 
L 294.722564 -108.129125 
L 295.497794 -105.7802 
L 296.634652 -103.431275 
L 298.332757 -101.08235 
L 300.771311 -98.733425 
L 304.030408 -96.384501 
L 308.035211 -94.035576 
L 312.557508 -91.686651 
L 317.273905 -89.337726 
L 321.834945 -86.988801 
L 325.883791 -84.639876 
L 329.007325 -82.290951 
L 330.688524 -79.942026 
L 330.376507 -77.593101 
L 327.719769 -75.244176 
L 322.845505 -72.895251 
L 316.465622 -70.546326 
L 309.67893 -68.197401 
L 303.563799 -65.848476 
L 298.810648 -63.499551 
L 295.592463 -61.150626 
L 293.683319 -58.801701 
z
" style="stroke: #4c4c4c; stroke-width: 1.5"/>
    </defs>
    <g clip-path="url(#p2a1e11f92f)">
     <use xlink:href="#me2d17db0db" x="0" y="347.739688" style="fill: #cc8963; stroke: #4c4c4c; stroke-width: 1.5"/>
    </g>
   </g>
   <g id="line2d_6">
    <path d="M 98.235004 274.366304 
L 98.235004 249.50197 
" clip-path="url(#p2a1e11f92f)" style="fill: none; stroke: #4c4c4c; stroke-width: 1.5; stroke-linecap: round"/>
   </g>
   <g id="line2d_7">
    <path d="M 98.235004 271.683926 
L 98.235004 262.765544 
" clip-path="url(#p2a1e11f92f)" style="fill: none; stroke: #4c4c4c; stroke-width: 4.5; stroke-linecap: round"/>
   </g>
   <g id="line2d_8">
    <path d="M 195.090637 274.632972 
L 195.090637 259.509762 
" clip-path="url(#p2a1e11f92f)" style="fill: none; stroke: #4c4c4c; stroke-width: 1.5; stroke-linecap: round"/>
   </g>
   <g id="line2d_9">
    <path d="M 195.090637 272.364363 
L 195.090637 267.142125 
" clip-path="url(#p2a1e11f92f)" style="fill: none; stroke: #4c4c4c; stroke-width: 4.5; stroke-linecap: round"/>
   </g>
   <g id="line2d_10">
    <path d="M 291.946271 275.461666 
L 291.946271 238.71749 
" clip-path="url(#p2a1e11f92f)" style="fill: none; stroke: #4c4c4c; stroke-width: 1.5; stroke-linecap: round"/>
   </g>
   <g id="line2d_11">
    <path d="M 291.946271 272.2227 
L 291.946271 258.743723 
" clip-path="url(#p2a1e11f92f)" style="fill: none; stroke: #4c4c4c; stroke-width: 4.5; stroke-linecap: round"/>
   </g>
   <g id="patch_5">
    <path d="M 49.807188 304.78 
L 49.807188 7.2 
" style="fill: none; stroke: #cccccc; stroke-width: 1.25; stroke-linejoin: miter; stroke-linecap: square"/>
   </g>
   <g id="patch_6">
    <path d="M 49.807188 304.78 
L 340.374087 304.78 
" style="fill: none; stroke: #cccccc; stroke-width: 1.25; stroke-linejoin: miter; stroke-linecap: square"/>
   </g>
   <g id="PathCollection_1">
    <defs>
     <path id="m783a8d4773" d="M 0 1.5 
C 0.397805 1.5 0.77937 1.341951 1.06066 1.06066 
C 1.341951 0.77937 1.5 0.397805 1.5 0 
C 1.5 -0.397805 1.341951 -0.77937 1.06066 -1.06066 
C 0.77937 -1.341951 0.397805 -1.5 0 -1.5 
C -0.397805 -1.5 -0.77937 -1.341951 -1.06066 -1.06066 
C -1.341951 -0.77937 -1.5 -0.397805 -1.5 0 
C -1.5 0.397805 -1.341951 0.77937 -1.06066 1.06066 
C -0.77937 1.341951 -0.397805 1.5 0 1.5 
z
" style="stroke: #4c4c4c"/>
    </defs>
    <g clip-path="url(#p2a1e11f92f)">
     <use xlink:href="#m783a8d4773" x="98.235004" y="267.711608" style="fill: #ffffff; stroke: #4c4c4c"/>
    </g>
   </g>
   <g id="PathCollection_2">
    <g clip-path="url(#p2a1e11f92f)">
     <use xlink:href="#m783a8d4773" x="195.090637" y="270.709201" style="fill: #ffffff; stroke: #4c4c4c"/>
    </g>
   </g>
   <g id="PathCollection_3">
    <g clip-path="url(#p2a1e11f92f)">
     <use xlink:href="#m783a8d4773" x="291.946271" y="266.215989" style="fill: #ffffff; stroke: #4c4c4c"/>
    </g>
   </g>
  </g>
  <g id="legend_1">
   <g id="text_11">
    <!-- dim -->
    <g style="fill: #262626" transform="translate(356.198759 161.035156)scale(0.12 -0.12)">
     <defs>
      <path id="DejaVuSans-69" d="M 603 3500 
L 1178 3500 
L 1178 0 
L 603 0 
L 603 3500 
z
M 603 4863 
L 1178 4863 
L 1178 4134 
L 603 4134 
L 603 4863 
z
" transform="scale(0.015625)"/>
      <path id="DejaVuSans-6d" d="M 3328 2828 
Q 3544 3216 3844 3400 
Q 4144 3584 4550 3584 
Q 5097 3584 5394 3201 
Q 5691 2819 5691 2113 
L 5691 0 
L 5113 0 
L 5113 2094 
Q 5113 2597 4934 2840 
Q 4756 3084 4391 3084 
Q 3944 3084 3684 2787 
Q 3425 2491 3425 1978 
L 3425 0 
L 2847 0 
L 2847 2094 
Q 2847 2600 2669 2842 
Q 2491 3084 2119 3084 
Q 1678 3084 1418 2786 
Q 1159 2488 1159 1978 
L 1159 0 
L 581 0 
L 581 3500 
L 1159 3500 
L 1159 2956 
Q 1356 3278 1631 3431 
Q 1906 3584 2284 3584 
Q 2666 3584 2933 3390 
Q 3200 3197 3328 2828 
z
" transform="scale(0.015625)"/>
     </defs>
     <use xlink:href="#DejaVuSans-64"/>
     <use xlink:href="#DejaVuSans-69" x="63.476562"/>
     <use xlink:href="#DejaVuSans-6d" x="91.259766"/>
    </g>
   </g>
   <g id="patch_7">
    <path d="M 345.128056 177.389062 
L 367.128056 177.389062 
L 367.128056 169.689063 
L 345.128056 169.689063 
z
" style="fill: #5875a4; stroke: #4c4c4c; stroke-width: 0.75; stroke-linejoin: miter"/>
   </g>
   <g id="text_12">
    <!-- 2d -->
    <g style="fill: #262626" transform="translate(375.928056 177.389062)scale(0.11 -0.11)">
     <use xlink:href="#DejaVuSans-32"/>
     <use xlink:href="#DejaVuSans-64" x="63.623047"/>
    </g>
   </g>
   <g id="patch_8">
    <path d="M 345.128056 193.535 
L 367.128056 193.535 
L 367.128056 185.835 
L 345.128056 185.835 
z
" style="fill: #cc8963; stroke: #4c4c4c; stroke-width: 0.75; stroke-linejoin: miter"/>
   </g>
   <g id="text_13">
    <!-- 3d -->
    <g style="fill: #262626" transform="translate(375.928056 193.535)scale(0.11 -0.11)">
     <defs>
      <path id="DejaVuSans-33" d="M 2597 2516 
Q 3050 2419 3304 2112 
Q 3559 1806 3559 1356 
Q 3559 666 3084 287 
Q 2609 -91 1734 -91 
Q 1441 -91 1130 -33 
Q 819 25 488 141 
L 488 750 
Q 750 597 1062 519 
Q 1375 441 1716 441 
Q 2309 441 2620 675 
Q 2931 909 2931 1356 
Q 2931 1769 2642 2001 
Q 2353 2234 1838 2234 
L 1294 2234 
L 1294 2753 
L 1863 2753 
Q 2328 2753 2575 2939 
Q 2822 3125 2822 3475 
Q 2822 3834 2567 4026 
Q 2313 4219 1838 4219 
Q 1578 4219 1281 4162 
Q 984 4106 628 3988 
L 628 4550 
Q 988 4650 1302 4700 
Q 1616 4750 1894 4750 
Q 2613 4750 3031 4423 
Q 3450 4097 3450 3541 
Q 3450 3153 3228 2886 
Q 3006 2619 2597 2516 
z
" transform="scale(0.015625)"/>
     </defs>
     <use xlink:href="#DejaVuSans-33"/>
     <use xlink:href="#DejaVuSans-64" x="63.623047"/>
    </g>
   </g>
  </g>
 </g>
 <defs>
  <clipPath id="p2a1e11f92f">
   <rect x="49.807188" y="7.2" width="290.5669" height="297.58"/>
  </clipPath>
 </defs>
</svg>
