<?xml version="1.0" encoding="utf-8" standalone="no"?>
<!DOCTYPE svg PUBLIC "-//W3C//DTD SVG 1.1//EN"
  "http://www.w3.org/Graphics/SVG/1.1/DTD/svg11.dtd">
<svg xmlns:xlink="http://www.w3.org/1999/xlink" width="399.470833pt" height="352.15625pt" viewBox="0 0 399.470833 352.15625" xmlns="http://www.w3.org/2000/svg" version="1.1">
 <metadata>
  <rdf:RDF xmlns:dc="http://purl.org/dc/elements/1.1/" xmlns:cc="http://creativecommons.org/ns#" xmlns:rdf="http://www.w3.org/1999/02/22-rdf-syntax-ns#">
   <cc:Work>
    <dc:type rdf:resource="http://purl.org/dc/dcmitype/StillImage"/>
    <dc:date>2022-03-25T19:30:53.823550</dc:date>
    <dc:format>image/svg+xml</dc:format>
    <dc:creator>
     <cc:Agent>
      <dc:title>Matplotlib v3.5.1, https://matplotlib.org/</dc:title>
     </cc:Agent>
    </dc:creator>
   </cc:Work>
  </rdf:RDF>
 </metadata>
 <defs>
  <style type="text/css">*{stroke-linejoin: round; stroke-linecap: butt}</style>
 </defs>
 <g id="figure_1">
  <g id="patch_1">
   <path d="M 0 352.15625 
L 399.470833 352.15625 
L 399.470833 0 
L 0 0 
L 0 352.15625 
z
" style="fill: none"/>
  </g>
  <g id="axes_1">
   <g id="patch_2">
    <path d="M 52.160938 314.6 
L 344.433333 314.6 
L 344.433333 7.2 
L 52.160938 7.2 
z
" style="fill: #ffffff"/>
   </g>
   <g id="patch_3">
    <path d="M 100.873003 253.830515 
L 100.873003 253.830515 
L 100.873003 253.830515 
L 100.873003 253.830515 
z
" clip-path="url(#p6ba999fa76)" style="fill: #3274a1; stroke: #3f3f3f; stroke-width: 0.75; stroke-linejoin: miter"/>
   </g>
   <g id="PolyCollection_1">
    <defs>
     <path id="mc0bb463d96" d="M 100.873003 -51.528977 
L 99.891833 -51.528977 
L 99.63315 -54.35175 
L 99.328903 -57.174524 
L 98.977781 -59.997297 
L 98.580426 -62.82007 
L 98.13983 -65.642843 
L 97.661638 -68.465616 
L 97.154301 -71.28839 
L 96.629031 -74.111163 
L 96.099547 -76.933936 
L 95.581578 -79.756709 
L 95.092153 -82.579482 
L 94.64871 -85.402256 
L 94.268081 -88.225029 
L 93.965444 -91.047802 
L 93.753317 -93.870575 
L 93.640703 -96.693348 
L 93.632458 -99.516121 
L 93.728938 -102.338895 
L 93.925977 -105.161668 
L 94.215189 -107.984441 
L 94.584551 -110.807214 
L 95.01924 -113.629987 
L 95.502613 -116.452761 
L 96.017258 -119.275534 
L 96.546021 -122.098307 
L 97.072914 -124.92108 
L 97.583868 -127.743853 
L 98.067254 -130.566626 
L 98.51418 -133.3894 
L 98.918568 -136.212173 
L 99.277027 -139.034946 
L 99.588572 -141.857719 
L 99.854236 -144.680492 
L 100.076627 -147.503266 
L 100.259466 -150.326039 
L 100.407154 -153.148812 
L 100.5244 -155.971585 
L 100.615901 -158.794358 
L 100.686115 -161.617132 
L 100.739098 -164.439905 
L 100.778412 -167.262678 
L 100.807087 -170.085451 
L 100.827623 -172.908224 
L 100.842017 -175.730997 
L 100.851815 -178.553771 
L 100.858154 -181.376544 
L 100.86181 -184.199317 
L 100.863229 -187.02209 
L 100.86254 -189.844863 
L 100.859546 -192.667637 
L 100.853686 -195.49041 
L 100.843969 -198.313183 
L 100.828874 -201.135956 
L 100.806214 -203.958729 
L 100.772981 -206.781503 
L 100.725146 -209.604276 
L 100.657465 -212.427049 
L 100.563272 -215.249822 
L 100.434308 -218.072595 
L 100.260604 -220.895368 
L 100.030461 -223.718142 
L 99.730572 -226.540915 
L 99.346321 -229.363688 
L 98.862305 -232.186461 
L 98.2631 -235.009234 
L 97.534273 -237.832008 
L 96.663629 -240.654781 
L 95.642625 -243.477554 
L 94.467874 -246.300327 
L 93.142601 -249.1231 
L 91.677922 -251.945874 
L 90.093759 -254.768647 
L 88.419246 -257.59142 
L 86.692495 -260.414193 
L 84.959621 -263.236966 
L 83.273011 -266.059739 
L 81.688887 -268.882513 
L 80.264313 -271.705286 
L 79.053829 -274.528059 
L 78.106017 -277.350832 
L 77.460273 -280.173605 
L 77.144087 -282.996379 
L 77.17111 -285.819152 
L 77.540169 -288.641925 
L 78.235358 -291.464698 
L 79.22717 -294.287471 
L 80.474576 -297.110244 
L 81.92784 -299.933018 
L 83.531796 -302.755791 
L 85.229298 -305.578564 
L 86.964538 -308.401337 
L 88.685967 -311.22411 
L 90.348628 -314.046884 
L 91.915771 -316.869657 
L 93.359705 -319.69243 
L 94.661929 -322.515203 
L 95.812634 -325.337976 
L 96.809722 -328.16075 
L 97.657485 -330.983523 
L 100.873003 -330.983523 
L 100.873003 -330.983523 
L 100.873003 -328.16075 
L 100.873003 -325.337976 
L 100.873003 -322.515203 
L 100.873003 -319.69243 
L 100.873003 -316.869657 
L 100.873003 -314.046884 
L 100.873003 -311.22411 
L 100.873003 -308.401337 
L 100.873003 -305.578564 
L 100.873003 -302.755791 
L 100.873003 -299.933018 
L 100.873003 -297.110244 
L 100.873003 -294.287471 
L 100.873003 -291.464698 
L 100.873003 -288.641925 
L 100.873003 -285.819152 
L 100.873003 -282.996379 
L 100.873003 -280.173605 
L 100.873003 -277.350832 
L 100.873003 -274.528059 
L 100.873003 -271.705286 
L 100.873003 -268.882513 
L 100.873003 -266.059739 
L 100.873003 -263.236966 
L 100.873003 -260.414193 
L 100.873003 -257.59142 
L 100.873003 -254.768647 
L 100.873003 -251.945874 
L 100.873003 -249.1231 
L 100.873003 -246.300327 
L 100.873003 -243.477554 
L 100.873003 -240.654781 
L 100.873003 -237.832008 
L 100.873003 -235.009234 
L 100.873003 -232.186461 
L 100.873003 -229.363688 
L 100.873003 -226.540915 
L 100.873003 -223.718142 
L 100.873003 -220.895368 
L 100.873003 -218.072595 
L 100.873003 -215.249822 
L 100.873003 -212.427049 
L 100.873003 -209.604276 
L 100.873003 -206.781503 
L 100.873003 -203.958729 
L 100.873003 -201.135956 
L 100.873003 -198.313183 
L 100.873003 -195.49041 
L 100.873003 -192.667637 
L 100.873003 -189.844863 
L 100.873003 -187.02209 
L 100.873003 -184.199317 
L 100.873003 -181.376544 
L 100.873003 -178.553771 
L 100.873003 -175.730997 
L 100.873003 -172.908224 
L 100.873003 -170.085451 
L 100.873003 -167.262678 
L 100.873003 -164.439905 
L 100.873003 -161.617132 
L 100.873003 -158.794358 
L 100.873003 -155.971585 
L 100.873003 -153.148812 
L 100.873003 -150.326039 
L 100.873003 -147.503266 
L 100.873003 -144.680492 
L 100.873003 -141.857719 
L 100.873003 -139.034946 
L 100.873003 -136.212173 
L 100.873003 -133.3894 
L 100.873003 -130.566626 
L 100.873003 -127.743853 
L 100.873003 -124.92108 
L 100.873003 -122.098307 
L 100.873003 -119.275534 
L 100.873003 -116.452761 
L 100.873003 -113.629987 
L 100.873003 -110.807214 
L 100.873003 -107.984441 
L 100.873003 -105.161668 
L 100.873003 -102.338895 
L 100.873003 -99.516121 
L 100.873003 -96.693348 
L 100.873003 -93.870575 
L 100.873003 -91.047802 
L 100.873003 -88.225029 
L 100.873003 -85.402256 
L 100.873003 -82.579482 
L 100.873003 -79.756709 
L 100.873003 -76.933936 
L 100.873003 -74.111163 
L 100.873003 -71.28839 
L 100.873003 -68.465616 
L 100.873003 -65.642843 
L 100.873003 -62.82007 
L 100.873003 -59.997297 
L 100.873003 -57.174524 
L 100.873003 -54.35175 
L 100.873003 -51.528977 
z
" style="stroke: #3f3f3f; stroke-width: 1.5"/>
    </defs>
    <g clip-path="url(#p6ba999fa76)">
     <use xlink:href="#mc0bb463d96" x="0" y="352.15625" style="fill: #3274a1; stroke: #3f3f3f; stroke-width: 1.5"/>
    </g>
   </g>
   <g id="patch_4">
    <path d="M 100.873003 253.830515 
L 100.873003 253.830515 
L 100.873003 253.830515 
L 100.873003 253.830515 
z
" clip-path="url(#p6ba999fa76)" style="fill: #e1812c; stroke: #3f3f3f; stroke-width: 0.75; stroke-linejoin: miter"/>
   </g>
   <g id="PolyCollection_2">
    <defs>
     <path id="m534e9d9e97" d="M 101.471151 -64.884425 
L 100.873003 -64.884425 
L 100.873003 -67.437391 
L 100.873003 -69.990357 
L 100.873003 -72.543323 
L 100.873003 -75.09629 
L 100.873003 -77.649256 
L 100.873003 -80.202222 
L 100.873003 -82.755188 
L 100.873003 -85.308154 
L 100.873003 -87.86112 
L 100.873003 -90.414087 
L 100.873003 -92.967053 
L 100.873003 -95.520019 
L 100.873003 -98.072985 
L 100.873003 -100.625951 
L 100.873003 -103.178917 
L 100.873003 -105.731884 
L 100.873003 -108.28485 
L 100.873003 -110.837816 
L 100.873003 -113.390782 
L 100.873003 -115.943748 
L 100.873003 -118.496714 
L 100.873003 -121.049681 
L 100.873003 -123.602647 
L 100.873003 -126.155613 
L 100.873003 -128.708579 
L 100.873003 -131.261545 
L 100.873003 -133.814511 
L 100.873003 -136.367478 
L 100.873003 -138.920444 
L 100.873003 -141.47341 
L 100.873003 -144.026376 
L 100.873003 -146.579342 
L 100.873003 -149.132308 
L 100.873003 -151.685274 
L 100.873003 -154.238241 
L 100.873003 -156.791207 
L 100.873003 -159.344173 
L 100.873003 -161.897139 
L 100.873003 -164.450105 
L 100.873003 -167.003071 
L 100.873003 -169.556038 
L 100.873003 -172.109004 
L 100.873003 -174.66197 
L 100.873003 -177.214936 
L 100.873003 -179.767902 
L 100.873003 -182.320868 
L 100.873003 -184.873835 
L 100.873003 -187.426801 
L 100.873003 -189.979767 
L 100.873003 -192.532733 
L 100.873003 -195.085699 
L 100.873003 -197.638665 
L 100.873003 -200.191632 
L 100.873003 -202.744598 
L 100.873003 -205.297564 
L 100.873003 -207.85053 
L 100.873003 -210.403496 
L 100.873003 -212.956462 
L 100.873003 -215.509429 
L 100.873003 -218.062395 
L 100.873003 -220.615361 
L 100.873003 -223.168327 
L 100.873003 -225.721293 
L 100.873003 -228.274259 
L 100.873003 -230.827226 
L 100.873003 -233.380192 
L 100.873003 -235.933158 
L 100.873003 -238.486124 
L 100.873003 -241.03909 
L 100.873003 -243.592056 
L 100.873003 -246.145022 
L 100.873003 -248.697989 
L 100.873003 -251.250955 
L 100.873003 -253.803921 
L 100.873003 -256.356887 
L 100.873003 -258.909853 
L 100.873003 -261.462819 
L 100.873003 -264.015786 
L 100.873003 -266.568752 
L 100.873003 -269.121718 
L 100.873003 -271.674684 
L 100.873003 -274.22765 
L 100.873003 -276.780616 
L 100.873003 -279.333583 
L 100.873003 -281.886549 
L 100.873003 -284.439515 
L 100.873003 -286.992481 
L 100.873003 -289.545447 
L 100.873003 -292.098413 
L 100.873003 -294.65138 
L 100.873003 -297.204346 
L 100.873003 -299.757312 
L 100.873003 -302.310278 
L 100.873003 -304.863244 
L 100.873003 -307.41621 
L 100.873003 -309.969177 
L 100.873003 -312.522143 
L 100.873003 -315.075109 
L 100.873003 -317.628075 
L 106.147575 -317.628075 
L 106.147575 -317.628075 
L 107.948291 -315.075109 
L 110.145073 -312.522143 
L 112.743936 -309.969177 
L 115.721028 -307.41621 
L 119.016798 -304.863244 
L 122.53324 -302.310278 
L 126.135363 -299.757312 
L 129.657608 -297.204346 
L 132.915198 -294.65138 
L 135.719561 -292.098413 
L 137.896133 -289.545447 
L 139.302263 -286.992481 
L 139.842656 -284.439515 
L 139.48006 -281.886549 
L 138.239508 -279.333583 
L 136.205465 -276.780616 
L 133.512312 -274.22765 
L 130.329673 -271.674684 
L 126.844798 -269.121718 
L 123.244545 -266.568752 
L 119.699326 -264.015786 
L 116.350856 -261.462819 
L 113.304734 -258.909853 
L 110.628021 -256.356887 
L 108.351257 -253.803921 
L 106.473776 -251.250955 
L 104.970998 -248.697989 
L 103.802347 -246.145022 
L 102.918718 -243.592056 
L 102.268714 -241.03909 
L 101.8033 -238.486124 
L 101.478794 -235.933158 
L 101.258393 -233.380192 
L 101.11253 -230.827226 
L 101.018443 -228.274259 
L 100.959279 -225.721293 
L 100.923003 -223.168327 
L 100.901312 -220.615361 
L 100.888662 -218.062395 
L 100.881465 -215.509429 
L 100.877471 -212.956462 
L 100.875308 -210.403496 
L 100.874164 -207.85053 
L 100.873575 -205.297564 
L 100.873278 -202.744598 
L 100.873133 -200.191632 
L 100.873063 -197.638665 
L 100.87303 -195.085699 
L 100.873016 -192.532733 
L 100.87301 -189.979767 
L 100.873009 -187.426801 
L 100.873011 -184.873835 
L 100.873018 -182.320868 
L 100.873035 -179.767902 
L 100.873068 -177.214936 
L 100.873135 -174.66197 
L 100.873265 -172.109004 
L 100.87351 -169.556038 
L 100.873963 -167.003071 
L 100.874779 -164.450105 
L 100.876214 -161.897139 
L 100.878674 -159.344173 
L 100.882787 -156.791207 
L 100.889497 -154.238241 
L 100.900166 -151.685274 
L 100.916707 -149.132308 
L 100.941701 -146.579342 
L 100.978501 -144.026376 
L 101.03128 -141.47341 
L 101.104992 -138.920444 
L 101.205197 -136.367478 
L 101.337724 -133.814511 
L 101.508143 -131.261545 
L 101.721053 -128.708579 
L 101.979243 -126.155613 
L 102.282787 -123.602647 
L 102.628224 -121.049681 
L 103.007947 -118.496714 
L 103.409982 -115.943748 
L 103.818259 -113.390782 
L 104.21345 -110.837816 
L 104.574368 -108.28485 
L 104.879777 -105.731884 
L 105.110442 -103.178917 
L 105.251123 -100.625951 
L 105.292242 -98.072985 
L 105.230961 -95.520019 
L 105.071503 -92.967053 
L 104.824675 -90.414087 
L 104.506654 -87.86112 
L 104.137237 -85.308154 
L 103.737807 -82.755188 
L 103.329319 -80.202222 
L 102.930547 -77.649256 
L 102.5568 -75.09629 
L 102.219192 -72.543323 
L 101.924475 -69.990357 
L 101.675356 -67.437391 
L 101.471151 -64.884425 
z
" style="stroke: #3f3f3f; stroke-width: 1.5"/>
    </defs>
    <g clip-path="url(#p6ba999fa76)">
     <use xlink:href="#m534e9d9e97" x="0" y="352.15625" style="fill: #e1812c; stroke: #3f3f3f; stroke-width: 1.5"/>
    </g>
   </g>
   <g id="PolyCollection_3">
    <defs>
     <path id="me27974fef4" d="M 198.297135 -53.240019 
L 197.267379 -53.240019 
L 196.988425 -56.028226 
L 196.659154 -58.816433 
L 196.278161 -61.60464 
L 195.846331 -64.392846 
L 195.367304 -67.181053 
L 194.847819 -69.96926 
L 194.297877 -72.757466 
L 193.730649 -75.545673 
L 193.162128 -78.33388 
L 192.610489 -81.122086 
L 192.095196 -83.910293 
L 191.635896 -86.6985 
L 191.251199 -89.486706 
L 190.95743 -92.274913 
L 190.767486 -95.06312 
L 190.689896 -97.851326 
L 190.728185 -100.639533 
L 190.880612 -103.42774 
L 191.140295 -106.215946 
L 191.495733 -109.004153 
L 191.931646 -111.79236 
L 192.430064 -114.580566 
L 192.971553 -117.368773 
L 193.536455 -120.15698 
L 194.106043 -122.945186 
L 194.663498 -125.733393 
L 195.194633 -128.5216 
L 195.688346 -131.309806 
L 196.136796 -134.098013 
L 196.535317 -136.88622 
L 196.882135 -139.674426 
L 197.177934 -142.462633 
L 197.425337 -145.25084 
L 197.62836 -148.039047 
L 197.791892 -150.827253 
L 197.92123 -153.61546 
L 198.021704 -156.403667 
L 198.098384 -159.191873 
L 198.155888 -161.98008 
L 198.19827 -164.768287 
L 198.228967 -167.556493 
L 198.250813 -170.3447 
L 198.266073 -173.132907 
L 198.276508 -175.921113 
L 198.283442 -178.70932 
L 198.287824 -181.497527 
L 198.290289 -184.285733 
L 198.291194 -187.07394 
L 198.290635 -189.862147 
L 198.288441 -192.650353 
L 198.284137 -195.43856 
L 198.276877 -198.226767 
L 198.265338 -201.014973 
L 198.24757 -203.80318 
L 198.220814 -206.591387 
L 198.181271 -209.379593 
L 198.123841 -212.1678 
L 198.041845 -214.956007 
L 197.926741 -217.744213 
L 197.767888 -220.53242 
L 197.552383 -223.320627 
L 197.265034 -226.108833 
L 196.888529 -228.89704 
L 196.403863 -231.685247 
L 195.791067 -234.473453 
L 195.030288 -237.26166 
L 194.103206 -240.049867 
L 192.994772 -242.838074 
L 191.695157 -245.62628 
L 190.201799 -248.414487 
L 188.521344 -251.202694 
L 186.671274 -253.9909 
L 184.680977 -256.779107 
L 182.592053 -259.567314 
L 180.457661 -262.35552 
L 178.340832 -265.143727 
L 176.311737 -267.931934 
L 174.444038 -270.72014 
L 172.810562 -273.508347 
L 171.478647 -276.296554 
L 170.505548 -279.08476 
L 169.934367 -281.872967 
L 169.790885 -284.661174 
L 170.081635 -287.44938 
L 170.793403 -290.237587 
L 171.89423 -293.025794 
L 173.335789 -295.814 
L 175.056902 -298.602207 
L 176.987836 -301.390414 
L 179.054964 -304.17862 
L 181.185356 -306.966827 
L 183.310903 -309.755034 
L 185.371676 -312.54324 
L 187.318315 -315.331447 
L 189.113353 -318.119654 
L 190.731529 -320.90786 
L 192.159204 -323.696067 
L 193.393066 -326.484274 
L 194.43838 -329.272481 
L 198.297135 -329.272481 
L 198.297135 -329.272481 
L 198.297135 -326.484274 
L 198.297135 -323.696067 
L 198.297135 -320.90786 
L 198.297135 -318.119654 
L 198.297135 -315.331447 
L 198.297135 -312.54324 
L 198.297135 -309.755034 
L 198.297135 -306.966827 
L 198.297135 -304.17862 
L 198.297135 -301.390414 
L 198.297135 -298.602207 
L 198.297135 -295.814 
L 198.297135 -293.025794 
L 198.297135 -290.237587 
L 198.297135 -287.44938 
L 198.297135 -284.661174 
L 198.297135 -281.872967 
L 198.297135 -279.08476 
L 198.297135 -276.296554 
L 198.297135 -273.508347 
L 198.297135 -270.72014 
L 198.297135 -267.931934 
L 198.297135 -265.143727 
L 198.297135 -262.35552 
L 198.297135 -259.567314 
L 198.297135 -256.779107 
L 198.297135 -253.9909 
L 198.297135 -251.202694 
L 198.297135 -248.414487 
L 198.297135 -245.62628 
L 198.297135 -242.838074 
L 198.297135 -240.049867 
L 198.297135 -237.26166 
L 198.297135 -234.473453 
L 198.297135 -231.685247 
L 198.297135 -228.89704 
L 198.297135 -226.108833 
L 198.297135 -223.320627 
L 198.297135 -220.53242 
L 198.297135 -217.744213 
L 198.297135 -214.956007 
L 198.297135 -212.1678 
L 198.297135 -209.379593 
L 198.297135 -206.591387 
L 198.297135 -203.80318 
L 198.297135 -201.014973 
L 198.297135 -198.226767 
L 198.297135 -195.43856 
L 198.297135 -192.650353 
L 198.297135 -189.862147 
L 198.297135 -187.07394 
L 198.297135 -184.285733 
L 198.297135 -181.497527 
L 198.297135 -178.70932 
L 198.297135 -175.921113 
L 198.297135 -173.132907 
L 198.297135 -170.3447 
L 198.297135 -167.556493 
L 198.297135 -164.768287 
L 198.297135 -161.98008 
L 198.297135 -159.191873 
L 198.297135 -156.403667 
L 198.297135 -153.61546 
L 198.297135 -150.827253 
L 198.297135 -148.039047 
L 198.297135 -145.25084 
L 198.297135 -142.462633 
L 198.297135 -139.674426 
L 198.297135 -136.88622 
L 198.297135 -134.098013 
L 198.297135 -131.309806 
L 198.297135 -128.5216 
L 198.297135 -125.733393 
L 198.297135 -122.945186 
L 198.297135 -120.15698 
L 198.297135 -117.368773 
L 198.297135 -114.580566 
L 198.297135 -111.79236 
L 198.297135 -109.004153 
L 198.297135 -106.215946 
L 198.297135 -103.42774 
L 198.297135 -100.639533 
L 198.297135 -97.851326 
L 198.297135 -95.06312 
L 198.297135 -92.274913 
L 198.297135 -89.486706 
L 198.297135 -86.6985 
L 198.297135 -83.910293 
L 198.297135 -81.122086 
L 198.297135 -78.33388 
L 198.297135 -75.545673 
L 198.297135 -72.757466 
L 198.297135 -69.96926 
L 198.297135 -67.181053 
L 198.297135 -64.392846 
L 198.297135 -61.60464 
L 198.297135 -58.816433 
L 198.297135 -56.028226 
L 198.297135 -53.240019 
z
" style="stroke: #3f3f3f; stroke-width: 1.5"/>
    </defs>
    <g clip-path="url(#p6ba999fa76)">
     <use xlink:href="#me27974fef4" x="0" y="352.15625" style="fill: #3274a1; stroke: #3f3f3f; stroke-width: 1.5"/>
    </g>
   </g>
   <g id="PolyCollection_4">
    <defs>
     <path id="mbc3f42b4b6" d="M 199.050563 -61.759196 
L 198.297135 -61.759196 
L 198.297135 -64.375298 
L 198.297135 -66.9914 
L 198.297135 -69.607502 
L 198.297135 -72.223604 
L 198.297135 -74.839706 
L 198.297135 -77.455808 
L 198.297135 -80.07191 
L 198.297135 -82.688012 
L 198.297135 -85.304115 
L 198.297135 -87.920217 
L 198.297135 -90.536319 
L 198.297135 -93.152421 
L 198.297135 -95.768523 
L 198.297135 -98.384625 
L 198.297135 -101.000727 
L 198.297135 -103.616829 
L 198.297135 -106.232931 
L 198.297135 -108.849034 
L 198.297135 -111.465136 
L 198.297135 -114.081238 
L 198.297135 -116.69734 
L 198.297135 -119.313442 
L 198.297135 -121.929544 
L 198.297135 -124.545646 
L 198.297135 -127.161748 
L 198.297135 -129.77785 
L 198.297135 -132.393953 
L 198.297135 -135.010055 
L 198.297135 -137.626157 
L 198.297135 -140.242259 
L 198.297135 -142.858361 
L 198.297135 -145.474463 
L 198.297135 -148.090565 
L 198.297135 -150.706667 
L 198.297135 -153.322769 
L 198.297135 -155.938872 
L 198.297135 -158.554974 
L 198.297135 -161.171076 
L 198.297135 -163.787178 
L 198.297135 -166.40328 
L 198.297135 -169.019382 
L 198.297135 -171.635484 
L 198.297135 -174.251586 
L 198.297135 -176.867688 
L 198.297135 -179.483791 
L 198.297135 -182.099893 
L 198.297135 -184.715995 
L 198.297135 -187.332097 
L 198.297135 -189.948199 
L 198.297135 -192.564301 
L 198.297135 -195.180403 
L 198.297135 -197.796505 
L 198.297135 -200.412607 
L 198.297135 -203.028709 
L 198.297135 -205.644812 
L 198.297135 -208.260914 
L 198.297135 -210.877016 
L 198.297135 -213.493118 
L 198.297135 -216.10922 
L 198.297135 -218.725322 
L 198.297135 -221.341424 
L 198.297135 -223.957526 
L 198.297135 -226.573628 
L 198.297135 -229.189731 
L 198.297135 -231.805833 
L 198.297135 -234.421935 
L 198.297135 -237.038037 
L 198.297135 -239.654139 
L 198.297135 -242.270241 
L 198.297135 -244.886343 
L 198.297135 -247.502445 
L 198.297135 -250.118547 
L 198.297135 -252.73465 
L 198.297135 -255.350752 
L 198.297135 -257.966854 
L 198.297135 -260.582956 
L 198.297135 -263.199058 
L 198.297135 -265.81516 
L 198.297135 -268.431262 
L 198.297135 -271.047364 
L 198.297135 -273.663466 
L 198.297135 -276.279569 
L 198.297135 -278.895671 
L 198.297135 -281.511773 
L 198.297135 -284.127875 
L 198.297135 -286.743977 
L 198.297135 -289.360079 
L 198.297135 -291.976181 
L 198.297135 -294.592283 
L 198.297135 -297.208385 
L 198.297135 -299.824488 
L 198.297135 -302.44059 
L 198.297135 -305.056692 
L 198.297135 -307.672794 
L 198.297135 -310.288896 
L 198.297135 -312.904998 
L 198.297135 -315.5211 
L 198.297135 -318.137202 
L 198.297135 -320.753304 
L 203.571132 -320.753304 
L 203.571132 -320.753304 
L 205.247026 -318.137202 
L 207.26986 -315.5211 
L 209.646695 -312.904998 
L 212.362207 -310.288896 
L 215.374197 -307.672794 
L 218.611004 -305.056692 
L 221.971614 -302.44059 
L 225.329029 -299.824488 
L 228.537066 -297.208385 
L 231.440255 -294.592283 
L 233.88601 -291.976181 
L 235.737788 -289.360079 
L 236.887673 -286.743977 
L 237.266788 -284.127875 
L 236.852118 -281.511773 
L 235.668828 -278.895671 
L 233.787732 -276.279569 
L 231.318279 -273.663466 
L 228.398015 -271.047364 
L 225.179939 -268.431262 
L 221.819349 -265.81516 
L 218.461758 -263.199058 
L 215.233114 -260.582956 
L 212.233155 -257.966854 
L 209.532198 -255.350752 
L 207.171158 -252.73465 
L 205.164242 -250.118547 
L 203.503509 -247.502445 
L 202.164412 -244.886343 
L 201.111519 -242.270241 
L 200.303777 -239.654139 
L 199.698866 -237.038037 
L 199.256464 -234.421935 
L 198.940384 -231.805833 
L 198.719705 -229.189731 
L 198.569108 -226.573628 
L 198.468635 -223.957526 
L 198.403087 -221.341424 
L 198.361265 -218.725322 
L 198.335165 -216.10922 
L 198.31923 -213.493118 
L 198.309712 -210.877016 
L 198.304149 -208.260914 
L 198.300968 -205.644812 
L 198.299187 -203.028709 
L 198.298212 -200.412607 
L 198.29769 -197.796505 
L 198.297418 -195.180403 
L 198.297282 -192.564301 
L 198.297221 -189.948199 
L 198.297207 -187.332097 
L 198.297229 -184.715995 
L 198.297296 -182.099893 
L 198.297431 -179.483791 
L 198.297684 -176.867688 
L 198.298138 -174.251586 
L 198.298932 -171.635484 
L 198.300292 -169.019382 
L 198.302568 -166.40328 
L 198.306297 -163.787178 
L 198.312271 -161.171076 
L 198.321635 -158.554974 
L 198.335989 -155.938872 
L 198.357502 -153.322769 
L 198.389028 -150.706667 
L 198.434182 -148.090565 
L 198.497383 -145.474463 
L 198.583798 -142.858361 
L 198.69919 -140.242259 
L 198.849603 -137.626157 
L 199.040903 -135.010055 
L 199.278151 -132.393953 
L 199.564853 -129.77785 
L 199.902144 -127.161748 
L 200.287995 -124.545646 
L 200.716561 -121.929544 
L 201.177796 -119.313442 
L 201.657452 -116.69734 
L 202.137536 -114.081238 
L 202.597261 -111.465136 
L 203.014442 -108.849034 
L 203.367221 -106.232931 
L 203.635949 -103.616829 
L 203.80499 -101.000727 
L 203.864229 -98.384625 
L 203.810069 -95.768523 
L 203.6458 -93.152421 
L 203.38126 -90.536319 
L 203.031867 -87.920217 
L 202.617125 -85.304115 
L 202.158834 -82.688012 
L 201.679204 -80.07191 
L 201.199117 -77.455808 
L 200.736716 -74.839706 
L 200.306431 -72.223604 
L 199.918501 -69.607502 
L 199.578953 -66.9914 
L 199.289977 -64.375298 
L 199.050563 -61.759196 
z
" style="stroke: #3f3f3f; stroke-width: 1.5"/>
    </defs>
    <g clip-path="url(#p6ba999fa76)">
     <use xlink:href="#mbc3f42b4b6" x="0" y="352.15625" style="fill: #e1812c; stroke: #3f3f3f; stroke-width: 1.5"/>
    </g>
   </g>
   <g id="PolyCollection_5">
    <defs>
     <path id="m8fd9945e0f" d="M 295.721267 -60.62085 
L 295.061489 -60.62085 
L 294.856829 -63.259949 
L 294.610663 -65.899048 
L 294.322085 -68.538147 
L 293.992732 -71.177246 
L 293.62729 -73.816345 
L 293.233815 -76.455444 
L 292.823742 -79.094543 
L 292.411565 -81.733642 
L 292.014119 -84.372741 
L 291.649523 -87.01184 
L 291.335855 -89.650939 
L 291.089681 -92.290038 
L 290.924613 -94.929137 
L 290.850061 -97.568236 
L 290.870348 -100.207335 
L 290.984294 -102.846434 
L 291.185328 -105.485533 
L 291.462118 -108.124632 
L 291.799625 -110.763731 
L 292.180459 -113.40283 
L 292.586349 -116.041929 
L 292.999572 -118.681028 
L 293.404181 -121.320127 
L 293.786921 -123.959226 
L 294.137776 -126.598325 
L 294.450147 -129.237424 
L 294.720699 -131.876523 
L 294.948949 -134.515622 
L 295.136699 -137.154721 
L 295.287393 -139.79382 
L 295.40549 -142.432919 
L 295.495901 -145.072018 
L 295.563548 -147.711117 
L 295.613031 -150.350216 
L 295.648431 -152.989315 
L 295.673204 -155.628414 
L 295.690167 -158.267513 
L 295.701534 -160.906612 
L 295.708989 -163.545711 
L 295.713776 -166.18481 
L 295.716785 -168.823909 
L 295.718637 -171.463008 
L 295.719753 -174.102107 
L 295.720411 -176.741206 
L 295.720788 -179.380305 
L 295.720995 -182.019404 
L 295.721097 -184.658503 
L 295.721125 -187.297602 
L 295.721085 -189.936701 
L 295.720958 -192.575799 
L 295.72069 -195.214898 
L 295.720173 -197.853997 
L 295.719217 -200.493096 
L 295.71749 -203.132195 
L 295.71444 -205.771294 
L 295.709165 -208.410393 
L 295.700231 -211.049492 
L 295.685411 -213.688591 
L 295.661336 -216.32769 
L 295.62304 -218.966789 
L 295.563397 -221.605888 
L 295.472464 -224.244987 
L 295.336763 -226.884086 
L 295.138578 -229.523185 
L 294.85538 -232.162284 
L 294.459511 -234.801383 
L 293.918337 -237.440482 
L 293.195045 -240.079581 
L 292.250274 -242.71868 
L 291.044719 -245.357779 
L 289.54272 -247.996878 
L 287.716721 -250.635977 
L 285.552308 -253.275076 
L 283.053337 -255.914175 
L 280.246496 -258.553274 
L 277.184578 -261.192373 
L 273.947703 -263.831472 
L 270.641918 -266.470571 
L 267.3948 -269.10967 
L 264.348131 -271.748769 
L 261.648071 -274.387868 
L 259.433755 -277.026967 
L 257.825482 -279.666066 
L 256.913914 -282.305165 
L 256.751615 -284.944264 
L 257.34803 -287.583363 
L 258.668578 -290.222462 
L 260.637968 -292.861561 
L 263.14731 -295.50066 
L 266.064077 -298.139759 
L 269.243651 -300.778858 
L 272.541068 -303.417957 
L 275.821645 -306.057056 
L 278.969451 -308.696155 
L 281.892981 -311.335254 
L 284.527811 -313.974353 
L 286.83643 -316.613452 
L 288.805759 -319.252551 
L 290.443039 -321.89165 
L 295.721267 -321.89165 
L 295.721267 -321.89165 
L 295.721267 -319.252551 
L 295.721267 -316.613452 
L 295.721267 -313.974353 
L 295.721267 -311.335254 
L 295.721267 -308.696155 
L 295.721267 -306.057056 
L 295.721267 -303.417957 
L 295.721267 -300.778858 
L 295.721267 -298.139759 
L 295.721267 -295.50066 
L 295.721267 -292.861561 
L 295.721267 -290.222462 
L 295.721267 -287.583363 
L 295.721267 -284.944264 
L 295.721267 -282.305165 
L 295.721267 -279.666066 
L 295.721267 -277.026967 
L 295.721267 -274.387868 
L 295.721267 -271.748769 
L 295.721267 -269.10967 
L 295.721267 -266.470571 
L 295.721267 -263.831472 
L 295.721267 -261.192373 
L 295.721267 -258.553274 
L 295.721267 -255.914175 
L 295.721267 -253.275076 
L 295.721267 -250.635977 
L 295.721267 -247.996878 
L 295.721267 -245.357779 
L 295.721267 -242.71868 
L 295.721267 -240.079581 
L 295.721267 -237.440482 
L 295.721267 -234.801383 
L 295.721267 -232.162284 
L 295.721267 -229.523185 
L 295.721267 -226.884086 
L 295.721267 -224.244987 
L 295.721267 -221.605888 
L 295.721267 -218.966789 
L 295.721267 -216.32769 
L 295.721267 -213.688591 
L 295.721267 -211.049492 
L 295.721267 -208.410393 
L 295.721267 -205.771294 
L 295.721267 -203.132195 
L 295.721267 -200.493096 
L 295.721267 -197.853997 
L 295.721267 -195.214898 
L 295.721267 -192.575799 
L 295.721267 -189.936701 
L 295.721267 -187.297602 
L 295.721267 -184.658503 
L 295.721267 -182.019404 
L 295.721267 -179.380305 
L 295.721267 -176.741206 
L 295.721267 -174.102107 
L 295.721267 -171.463008 
L 295.721267 -168.823909 
L 295.721267 -166.18481 
L 295.721267 -163.545711 
L 295.721267 -160.906612 
L 295.721267 -158.267513 
L 295.721267 -155.628414 
L 295.721267 -152.989315 
L 295.721267 -150.350216 
L 295.721267 -147.711117 
L 295.721267 -145.072018 
L 295.721267 -142.432919 
L 295.721267 -139.79382 
L 295.721267 -137.154721 
L 295.721267 -134.515622 
L 295.721267 -131.876523 
L 295.721267 -129.237424 
L 295.721267 -126.598325 
L 295.721267 -123.959226 
L 295.721267 -121.320127 
L 295.721267 -118.681028 
L 295.721267 -116.041929 
L 295.721267 -113.40283 
L 295.721267 -110.763731 
L 295.721267 -108.124632 
L 295.721267 -105.485533 
L 295.721267 -102.846434 
L 295.721267 -100.207335 
L 295.721267 -97.568236 
L 295.721267 -94.929137 
L 295.721267 -92.290038 
L 295.721267 -89.650939 
L 295.721267 -87.01184 
L 295.721267 -84.372741 
L 295.721267 -81.733642 
L 295.721267 -79.094543 
L 295.721267 -76.455444 
L 295.721267 -73.816345 
L 295.721267 -71.177246 
L 295.721267 -68.538147 
L 295.721267 -65.899048 
L 295.721267 -63.259949 
L 295.721267 -60.62085 
z
" style="stroke: #3f3f3f; stroke-width: 1.5"/>
    </defs>
    <g clip-path="url(#p6ba999fa76)">
     <use xlink:href="#m8fd9945e0f" x="0" y="352.15625" style="fill: #3274a1; stroke: #3f3f3f; stroke-width: 1.5"/>
    </g>
   </g>
   <g id="PolyCollection_6">
    <defs>
     <path id="m70d273447c" d="M 296.404024 -59.612544 
L 295.721267 -59.612544 
L 295.721267 -62.272013 
L 295.721267 -64.931482 
L 295.721267 -67.590951 
L 295.721267 -70.25042 
L 295.721267 -72.909888 
L 295.721267 -75.569357 
L 295.721267 -78.228826 
L 295.721267 -80.888295 
L 295.721267 -83.547764 
L 295.721267 -86.207232 
L 295.721267 -88.866701 
L 295.721267 -91.52617 
L 295.721267 -94.185639 
L 295.721267 -96.845108 
L 295.721267 -99.504576 
L 295.721267 -102.164045 
L 295.721267 -104.823514 
L 295.721267 -107.482983 
L 295.721267 -110.142452 
L 295.721267 -112.80192 
L 295.721267 -115.461389 
L 295.721267 -118.120858 
L 295.721267 -120.780327 
L 295.721267 -123.439796 
L 295.721267 -126.099264 
L 295.721267 -128.758733 
L 295.721267 -131.418202 
L 295.721267 -134.077671 
L 295.721267 -136.73714 
L 295.721267 -139.396608 
L 295.721267 -142.056077 
L 295.721267 -144.715546 
L 295.721267 -147.375015 
L 295.721267 -150.034484 
L 295.721267 -152.693952 
L 295.721267 -155.353421 
L 295.721267 -158.01289 
L 295.721267 -160.672359 
L 295.721267 -163.331828 
L 295.721267 -165.991296 
L 295.721267 -168.650765 
L 295.721267 -171.310234 
L 295.721267 -173.969703 
L 295.721267 -176.629172 
L 295.721267 -179.28864 
L 295.721267 -181.948109 
L 295.721267 -184.607578 
L 295.721267 -187.267047 
L 295.721267 -189.926516 
L 295.721267 -192.585984 
L 295.721267 -195.245453 
L 295.721267 -197.904922 
L 295.721267 -200.564391 
L 295.721267 -203.22386 
L 295.721267 -205.883328 
L 295.721267 -208.542797 
L 295.721267 -211.202266 
L 295.721267 -213.861735 
L 295.721267 -216.521204 
L 295.721267 -219.180672 
L 295.721267 -221.840141 
L 295.721267 -224.49961 
L 295.721267 -227.159079 
L 295.721267 -229.818548 
L 295.721267 -232.478016 
L 295.721267 -235.137485 
L 295.721267 -237.796954 
L 295.721267 -240.456423 
L 295.721267 -243.115892 
L 295.721267 -245.77536 
L 295.721267 -248.434829 
L 295.721267 -251.094298 
L 295.721267 -253.753767 
L 295.721267 -256.413236 
L 295.721267 -259.072704 
L 295.721267 -261.732173 
L 295.721267 -264.391642 
L 295.721267 -267.051111 
L 295.721267 -269.71058 
L 295.721267 -272.370048 
L 295.721267 -275.029517 
L 295.721267 -277.688986 
L 295.721267 -280.348455 
L 295.721267 -283.007924 
L 295.721267 -285.667392 
L 295.721267 -288.326861 
L 295.721267 -290.98633 
L 295.721267 -293.645799 
L 295.721267 -296.305268 
L 295.721267 -298.964736 
L 295.721267 -301.624205 
L 295.721267 -304.283674 
L 295.721267 -306.943143 
L 295.721267 -309.602612 
L 295.721267 -312.26208 
L 295.721267 -314.921549 
L 295.721267 -317.581018 
L 295.721267 -320.240487 
L 295.721267 -322.899956 
L 300.821859 -322.899956 
L 300.821859 -322.899956 
L 302.371853 -320.240487 
L 304.230709 -317.581018 
L 306.405518 -314.921549 
L 308.8853 -312.26208 
L 311.63733 -309.602612 
L 314.604841 -306.943143 
L 317.706678 -304.283674 
L 320.83937 -301.624205 
L 323.881803 -298.964736 
L 326.702367 -296.305268 
L 329.16807 -293.645799 
L 331.154781 -290.98633 
L 332.55754 -288.326861 
L 333.299728 -285.667392 
L 333.339997 -283.007924 
L 332.67609 -280.348455 
L 331.345043 -277.688986 
L 329.419772 -275.029517 
L 327.002449 -272.370048 
L 324.215536 -269.71058 
L 321.191548 -267.051111 
L 318.062739 -264.391642 
L 314.951816 -261.732173 
L 311.964536 -259.072704 
L 309.184738 -256.413236 
L 306.671982 -253.753767 
L 304.461635 -251.094298 
L 302.566983 -248.434829 
L 300.98277 -245.77536 
L 299.68955 -243.115892 
L 298.658222 -240.456423 
L 297.854282 -237.796954 
L 297.241437 -235.137485 
L 296.784412 -232.478016 
L 296.450883 -229.818548 
L 296.212626 -227.159079 
L 296.045984 -224.49961 
L 295.931845 -221.840141 
L 295.855272 -219.180672 
L 295.804949 -216.521204 
L 295.772547 -213.861735 
L 295.752104 -211.202266 
L 295.739464 -208.542797 
L 295.731805 -205.883328 
L 295.727257 -203.22386 
L 295.72461 -200.564391 
L 295.723103 -197.904922 
L 295.722266 -195.245453 
L 295.72182 -192.585984 
L 295.721604 -189.926516 
L 295.721534 -187.267047 
L 295.721579 -184.607578 
L 295.721747 -181.948109 
L 295.722085 -179.28864 
L 295.722685 -176.629172 
L 295.723706 -173.969703 
L 295.725397 -171.310234 
L 295.728132 -168.650765 
L 295.732469 -165.991296 
L 295.739205 -163.331828 
L 295.749455 -160.672359 
L 295.764733 -158.01289 
L 295.78704 -155.353421 
L 295.818932 -152.693952 
L 295.863578 -150.034484 
L 295.924755 -147.375015 
L 296.006789 -144.715546 
L 296.114403 -142.056077 
L 296.252455 -139.396608 
L 296.425563 -136.73714 
L 296.637623 -134.077671 
L 296.891238 -131.418202 
L 297.187111 -128.758733 
L 297.523464 -126.099264 
L 297.895563 -123.439796 
L 298.295435 -120.780327 
L 298.711858 -118.120858 
L 299.130675 -115.461389 
L 299.535461 -112.80192 
L 299.908512 -110.142452 
L 300.232091 -107.482983 
L 300.489804 -104.823514 
L 300.667976 -102.164045 
L 300.756845 -99.504576 
L 300.751455 -96.845108 
L 300.652107 -94.185639 
L 300.464336 -91.52617 
L 300.198398 -88.866701 
L 299.868344 -86.207232 
L 299.490788 -83.547764 
L 299.083533 -80.888295 
L 298.664196 -78.228826 
L 298.24899 -75.569357 
L 297.851764 -72.909888 
L 297.483382 -70.25042 
L 297.151443 -67.590951 
L 296.860326 -64.931482 
L 296.611503 -62.272013 
L 296.404024 -59.612544 
z
" style="stroke: #3f3f3f; stroke-width: 1.5"/>
    </defs>
    <g clip-path="url(#p6ba999fa76)">
     <use xlink:href="#m70d273447c" x="0" y="352.15625" style="fill: #e1812c; stroke: #3f3f3f; stroke-width: 1.5"/>
    </g>
   </g>
   <g id="matplotlib.axis_1">
    <g id="xtick_1">
     <g id="line2d_1">
      <defs>
       <path id="m69b0621ad3" d="M 0 0 
L 0 3.5 
" style="stroke: #000000; stroke-width: 0.8"/>
      </defs>
      <g>
       <use xlink:href="#m69b0621ad3" x="100.873003" y="314.6" style="stroke: #000000; stroke-width: 0.8"/>
      </g>
     </g>
     <g id="text_1">
      <!-- teb -->
      <g transform="translate(92.662066 329.198437)scale(0.1 -0.1)">
       <defs>
        <path id="DejaVuSans-74" d="M 1172 4494 
L 1172 3500 
L 2356 3500 
L 2356 3053 
L 1172 3053 
L 1172 1153 
Q 1172 725 1289 603 
Q 1406 481 1766 481 
L 2356 481 
L 2356 0 
L 1766 0 
Q 1100 0 847 248 
Q 594 497 594 1153 
L 594 3053 
L 172 3053 
L 172 3500 
L 594 3500 
L 594 4494 
L 1172 4494 
z
" transform="scale(0.015625)"/>
        <path id="DejaVuSans-65" d="M 3597 1894 
L 3597 1613 
L 953 1613 
Q 991 1019 1311 708 
Q 1631 397 2203 397 
Q 2534 397 2845 478 
Q 3156 559 3463 722 
L 3463 178 
Q 3153 47 2828 -22 
Q 2503 -91 2169 -91 
Q 1331 -91 842 396 
Q 353 884 353 1716 
Q 353 2575 817 3079 
Q 1281 3584 2069 3584 
Q 2775 3584 3186 3129 
Q 3597 2675 3597 1894 
z
M 3022 2063 
Q 3016 2534 2758 2815 
Q 2500 3097 2075 3097 
Q 1594 3097 1305 2825 
Q 1016 2553 972 2059 
L 3022 2063 
z
" transform="scale(0.015625)"/>
        <path id="DejaVuSans-62" d="M 3116 1747 
Q 3116 2381 2855 2742 
Q 2594 3103 2138 3103 
Q 1681 3103 1420 2742 
Q 1159 2381 1159 1747 
Q 1159 1113 1420 752 
Q 1681 391 2138 391 
Q 2594 391 2855 752 
Q 3116 1113 3116 1747 
z
M 1159 2969 
Q 1341 3281 1617 3432 
Q 1894 3584 2278 3584 
Q 2916 3584 3314 3078 
Q 3713 2572 3713 1747 
Q 3713 922 3314 415 
Q 2916 -91 2278 -91 
Q 1894 -91 1617 61 
Q 1341 213 1159 525 
L 1159 0 
L 581 0 
L 581 4863 
L 1159 4863 
L 1159 2969 
z
" transform="scale(0.015625)"/>
       </defs>
       <use xlink:href="#DejaVuSans-74"/>
       <use xlink:href="#DejaVuSans-65" x="39.208984"/>
       <use xlink:href="#DejaVuSans-62" x="100.732422"/>
      </g>
     </g>
    </g>
    <g id="xtick_2">
     <g id="line2d_2">
      <g>
       <use xlink:href="#m69b0621ad3" x="198.297135" y="314.6" style="stroke: #000000; stroke-width: 0.8"/>
      </g>
     </g>
     <g id="text_2">
      <!-- dwa -->
      <g transform="translate(187.969792 329.198437)scale(0.1 -0.1)">
       <defs>
        <path id="DejaVuSans-64" d="M 2906 2969 
L 2906 4863 
L 3481 4863 
L 3481 0 
L 2906 0 
L 2906 525 
Q 2725 213 2448 61 
Q 2172 -91 1784 -91 
Q 1150 -91 751 415 
Q 353 922 353 1747 
Q 353 2572 751 3078 
Q 1150 3584 1784 3584 
Q 2172 3584 2448 3432 
Q 2725 3281 2906 2969 
z
M 947 1747 
Q 947 1113 1208 752 
Q 1469 391 1925 391 
Q 2381 391 2643 752 
Q 2906 1113 2906 1747 
Q 2906 2381 2643 2742 
Q 2381 3103 1925 3103 
Q 1469 3103 1208 2742 
Q 947 2381 947 1747 
z
" transform="scale(0.015625)"/>
        <path id="DejaVuSans-77" d="M 269 3500 
L 844 3500 
L 1563 769 
L 2278 3500 
L 2956 3500 
L 3675 769 
L 4391 3500 
L 4966 3500 
L 4050 0 
L 3372 0 
L 2619 2869 
L 1863 0 
L 1184 0 
L 269 3500 
z
" transform="scale(0.015625)"/>
        <path id="DejaVuSans-61" d="M 2194 1759 
Q 1497 1759 1228 1600 
Q 959 1441 959 1056 
Q 959 750 1161 570 
Q 1363 391 1709 391 
Q 2188 391 2477 730 
Q 2766 1069 2766 1631 
L 2766 1759 
L 2194 1759 
z
M 3341 1997 
L 3341 0 
L 2766 0 
L 2766 531 
Q 2569 213 2275 61 
Q 1981 -91 1556 -91 
Q 1019 -91 701 211 
Q 384 513 384 1019 
Q 384 1609 779 1909 
Q 1175 2209 1959 2209 
L 2766 2209 
L 2766 2266 
Q 2766 2663 2505 2880 
Q 2244 3097 1772 3097 
Q 1472 3097 1187 3025 
Q 903 2953 641 2809 
L 641 3341 
Q 956 3463 1253 3523 
Q 1550 3584 1831 3584 
Q 2591 3584 2966 3190 
Q 3341 2797 3341 1997 
z
" transform="scale(0.015625)"/>
       </defs>
       <use xlink:href="#DejaVuSans-64"/>
       <use xlink:href="#DejaVuSans-77" x="63.476562"/>
       <use xlink:href="#DejaVuSans-61" x="145.263672"/>
      </g>
     </g>
    </g>
    <g id="xtick_3">
     <g id="line2d_3">
      <g>
       <use xlink:href="#m69b0621ad3" x="295.721267" y="314.6" style="stroke: #000000; stroke-width: 0.8"/>
      </g>
     </g>
     <g id="text_3">
      <!-- rosnav -->
      <g transform="translate(278.922049 329.198437)scale(0.1 -0.1)">
       <defs>
        <path id="DejaVuSans-72" d="M 2631 2963 
Q 2534 3019 2420 3045 
Q 2306 3072 2169 3072 
Q 1681 3072 1420 2755 
Q 1159 2438 1159 1844 
L 1159 0 
L 581 0 
L 581 3500 
L 1159 3500 
L 1159 2956 
Q 1341 3275 1631 3429 
Q 1922 3584 2338 3584 
Q 2397 3584 2469 3576 
Q 2541 3569 2628 3553 
L 2631 2963 
z
" transform="scale(0.015625)"/>
        <path id="DejaVuSans-6f" d="M 1959 3097 
Q 1497 3097 1228 2736 
Q 959 2375 959 1747 
Q 959 1119 1226 758 
Q 1494 397 1959 397 
Q 2419 397 2687 759 
Q 2956 1122 2956 1747 
Q 2956 2369 2687 2733 
Q 2419 3097 1959 3097 
z
M 1959 3584 
Q 2709 3584 3137 3096 
Q 3566 2609 3566 1747 
Q 3566 888 3137 398 
Q 2709 -91 1959 -91 
Q 1206 -91 779 398 
Q 353 888 353 1747 
Q 353 2609 779 3096 
Q 1206 3584 1959 3584 
z
" transform="scale(0.015625)"/>
        <path id="DejaVuSans-73" d="M 2834 3397 
L 2834 2853 
Q 2591 2978 2328 3040 
Q 2066 3103 1784 3103 
Q 1356 3103 1142 2972 
Q 928 2841 928 2578 
Q 928 2378 1081 2264 
Q 1234 2150 1697 2047 
L 1894 2003 
Q 2506 1872 2764 1633 
Q 3022 1394 3022 966 
Q 3022 478 2636 193 
Q 2250 -91 1575 -91 
Q 1294 -91 989 -36 
Q 684 19 347 128 
L 347 722 
Q 666 556 975 473 
Q 1284 391 1588 391 
Q 1994 391 2212 530 
Q 2431 669 2431 922 
Q 2431 1156 2273 1281 
Q 2116 1406 1581 1522 
L 1381 1569 
Q 847 1681 609 1914 
Q 372 2147 372 2553 
Q 372 3047 722 3315 
Q 1072 3584 1716 3584 
Q 2034 3584 2315 3537 
Q 2597 3491 2834 3397 
z
" transform="scale(0.015625)"/>
        <path id="DejaVuSans-6e" d="M 3513 2113 
L 3513 0 
L 2938 0 
L 2938 2094 
Q 2938 2591 2744 2837 
Q 2550 3084 2163 3084 
Q 1697 3084 1428 2787 
Q 1159 2491 1159 1978 
L 1159 0 
L 581 0 
L 581 3500 
L 1159 3500 
L 1159 2956 
Q 1366 3272 1645 3428 
Q 1925 3584 2291 3584 
Q 2894 3584 3203 3211 
Q 3513 2838 3513 2113 
z
" transform="scale(0.015625)"/>
        <path id="DejaVuSans-76" d="M 191 3500 
L 800 3500 
L 1894 563 
L 2988 3500 
L 3597 3500 
L 2284 0 
L 1503 0 
L 191 3500 
z
" transform="scale(0.015625)"/>
       </defs>
       <use xlink:href="#DejaVuSans-72"/>
       <use xlink:href="#DejaVuSans-6f" x="38.863281"/>
       <use xlink:href="#DejaVuSans-73" x="100.044922"/>
       <use xlink:href="#DejaVuSans-6e" x="152.144531"/>
       <use xlink:href="#DejaVuSans-61" x="215.523438"/>
       <use xlink:href="#DejaVuSans-76" x="276.802734"/>
      </g>
     </g>
    </g>
    <g id="text_4">
     <!-- Planner -->
     <g transform="translate(179.359635 342.876562)scale(0.1 -0.1)">
      <defs>
       <path id="DejaVuSans-50" d="M 1259 4147 
L 1259 2394 
L 2053 2394 
Q 2494 2394 2734 2622 
Q 2975 2850 2975 3272 
Q 2975 3691 2734 3919 
Q 2494 4147 2053 4147 
L 1259 4147 
z
M 628 4666 
L 2053 4666 
Q 2838 4666 3239 4311 
Q 3641 3956 3641 3272 
Q 3641 2581 3239 2228 
Q 2838 1875 2053 1875 
L 1259 1875 
L 1259 0 
L 628 0 
L 628 4666 
z
" transform="scale(0.015625)"/>
       <path id="DejaVuSans-6c" d="M 603 4863 
L 1178 4863 
L 1178 0 
L 603 0 
L 603 4863 
z
" transform="scale(0.015625)"/>
      </defs>
      <use xlink:href="#DejaVuSans-50"/>
      <use xlink:href="#DejaVuSans-6c" x="60.302734"/>
      <use xlink:href="#DejaVuSans-61" x="88.085938"/>
      <use xlink:href="#DejaVuSans-6e" x="149.365234"/>
      <use xlink:href="#DejaVuSans-6e" x="212.744141"/>
      <use xlink:href="#DejaVuSans-65" x="276.123047"/>
      <use xlink:href="#DejaVuSans-72" x="337.646484"/>
     </g>
    </g>
   </g>
   <g id="matplotlib.axis_2">
    <g id="ytick_1">
     <g id="line2d_4">
      <defs>
       <path id="m420dd02fb2" d="M 0 0 
L -3.5 0 
" style="stroke: #000000; stroke-width: 0.8"/>
      </defs>
      <g>
       <use xlink:href="#m420dd02fb2" x="52.160938" y="291.002721" style="stroke: #000000; stroke-width: 0.8"/>
      </g>
     </g>
     <g id="text_5">
      <!-- −0.2 -->
      <g transform="translate(20.878125 294.80194)scale(0.1 -0.1)">
       <defs>
        <path id="DejaVuSans-2212" d="M 678 2272 
L 4684 2272 
L 4684 1741 
L 678 1741 
L 678 2272 
z
" transform="scale(0.015625)"/>
        <path id="DejaVuSans-30" d="M 2034 4250 
Q 1547 4250 1301 3770 
Q 1056 3291 1056 2328 
Q 1056 1369 1301 889 
Q 1547 409 2034 409 
Q 2525 409 2770 889 
Q 3016 1369 3016 2328 
Q 3016 3291 2770 3770 
Q 2525 4250 2034 4250 
z
M 2034 4750 
Q 2819 4750 3233 4129 
Q 3647 3509 3647 2328 
Q 3647 1150 3233 529 
Q 2819 -91 2034 -91 
Q 1250 -91 836 529 
Q 422 1150 422 2328 
Q 422 3509 836 4129 
Q 1250 4750 2034 4750 
z
" transform="scale(0.015625)"/>
        <path id="DejaVuSans-2e" d="M 684 794 
L 1344 794 
L 1344 0 
L 684 0 
L 684 794 
z
" transform="scale(0.015625)"/>
        <path id="DejaVuSans-32" d="M 1228 531 
L 3431 531 
L 3431 0 
L 469 0 
L 469 531 
Q 828 903 1448 1529 
Q 2069 2156 2228 2338 
Q 2531 2678 2651 2914 
Q 2772 3150 2772 3378 
Q 2772 3750 2511 3984 
Q 2250 4219 1831 4219 
Q 1534 4219 1204 4116 
Q 875 4013 500 3803 
L 500 4441 
Q 881 4594 1212 4672 
Q 1544 4750 1819 4750 
Q 2544 4750 2975 4387 
Q 3406 4025 3406 3419 
Q 3406 3131 3298 2873 
Q 3191 2616 2906 2266 
Q 2828 2175 2409 1742 
Q 1991 1309 1228 531 
z
" transform="scale(0.015625)"/>
       </defs>
       <use xlink:href="#DejaVuSans-2212"/>
       <use xlink:href="#DejaVuSans-30" x="83.789062"/>
       <use xlink:href="#DejaVuSans-2e" x="147.412109"/>
       <use xlink:href="#DejaVuSans-32" x="179.199219"/>
      </g>
     </g>
    </g>
    <g id="ytick_2">
     <g id="line2d_5">
      <g>
       <use xlink:href="#m420dd02fb2" x="52.160938" y="253.830515" style="stroke: #000000; stroke-width: 0.8"/>
      </g>
     </g>
     <g id="text_6">
      <!-- 0.0 -->
      <g transform="translate(29.257812 257.629734)scale(0.1 -0.1)">
       <use xlink:href="#DejaVuSans-30"/>
       <use xlink:href="#DejaVuSans-2e" x="63.623047"/>
       <use xlink:href="#DejaVuSans-30" x="95.410156"/>
      </g>
     </g>
    </g>
    <g id="ytick_3">
     <g id="line2d_6">
      <g>
       <use xlink:href="#m420dd02fb2" x="52.160938" y="216.658309" style="stroke: #000000; stroke-width: 0.8"/>
      </g>
     </g>
     <g id="text_7">
      <!-- 0.2 -->
      <g transform="translate(29.257812 220.457528)scale(0.1 -0.1)">
       <use xlink:href="#DejaVuSans-30"/>
       <use xlink:href="#DejaVuSans-2e" x="63.623047"/>
       <use xlink:href="#DejaVuSans-32" x="95.410156"/>
      </g>
     </g>
    </g>
    <g id="ytick_4">
     <g id="line2d_7">
      <g>
       <use xlink:href="#m420dd02fb2" x="52.160938" y="179.486103" style="stroke: #000000; stroke-width: 0.8"/>
      </g>
     </g>
     <g id="text_8">
      <!-- 0.4 -->
      <g transform="translate(29.257812 183.285322)scale(0.1 -0.1)">
       <defs>
        <path id="DejaVuSans-34" d="M 2419 4116 
L 825 1625 
L 2419 1625 
L 2419 4116 
z
M 2253 4666 
L 3047 4666 
L 3047 1625 
L 3713 1625 
L 3713 1100 
L 3047 1100 
L 3047 0 
L 2419 0 
L 2419 1100 
L 313 1100 
L 313 1709 
L 2253 4666 
z
" transform="scale(0.015625)"/>
       </defs>
       <use xlink:href="#DejaVuSans-30"/>
       <use xlink:href="#DejaVuSans-2e" x="63.623047"/>
       <use xlink:href="#DejaVuSans-34" x="95.410156"/>
      </g>
     </g>
    </g>
    <g id="ytick_5">
     <g id="line2d_8">
      <g>
       <use xlink:href="#m420dd02fb2" x="52.160938" y="142.313897" style="stroke: #000000; stroke-width: 0.8"/>
      </g>
     </g>
     <g id="text_9">
      <!-- 0.6 -->
      <g transform="translate(29.257812 146.113116)scale(0.1 -0.1)">
       <defs>
        <path id="DejaVuSans-36" d="M 2113 2584 
Q 1688 2584 1439 2293 
Q 1191 2003 1191 1497 
Q 1191 994 1439 701 
Q 1688 409 2113 409 
Q 2538 409 2786 701 
Q 3034 994 3034 1497 
Q 3034 2003 2786 2293 
Q 2538 2584 2113 2584 
z
M 3366 4563 
L 3366 3988 
Q 3128 4100 2886 4159 
Q 2644 4219 2406 4219 
Q 1781 4219 1451 3797 
Q 1122 3375 1075 2522 
Q 1259 2794 1537 2939 
Q 1816 3084 2150 3084 
Q 2853 3084 3261 2657 
Q 3669 2231 3669 1497 
Q 3669 778 3244 343 
Q 2819 -91 2113 -91 
Q 1303 -91 875 529 
Q 447 1150 447 2328 
Q 447 3434 972 4092 
Q 1497 4750 2381 4750 
Q 2619 4750 2861 4703 
Q 3103 4656 3366 4563 
z
" transform="scale(0.015625)"/>
       </defs>
       <use xlink:href="#DejaVuSans-30"/>
       <use xlink:href="#DejaVuSans-2e" x="63.623047"/>
       <use xlink:href="#DejaVuSans-36" x="95.410156"/>
      </g>
     </g>
    </g>
    <g id="ytick_6">
     <g id="line2d_9">
      <g>
       <use xlink:href="#m420dd02fb2" x="52.160938" y="105.141691" style="stroke: #000000; stroke-width: 0.8"/>
      </g>
     </g>
     <g id="text_10">
      <!-- 0.8 -->
      <g transform="translate(29.257812 108.94091)scale(0.1 -0.1)">
       <defs>
        <path id="DejaVuSans-38" d="M 2034 2216 
Q 1584 2216 1326 1975 
Q 1069 1734 1069 1313 
Q 1069 891 1326 650 
Q 1584 409 2034 409 
Q 2484 409 2743 651 
Q 3003 894 3003 1313 
Q 3003 1734 2745 1975 
Q 2488 2216 2034 2216 
z
M 1403 2484 
Q 997 2584 770 2862 
Q 544 3141 544 3541 
Q 544 4100 942 4425 
Q 1341 4750 2034 4750 
Q 2731 4750 3128 4425 
Q 3525 4100 3525 3541 
Q 3525 3141 3298 2862 
Q 3072 2584 2669 2484 
Q 3125 2378 3379 2068 
Q 3634 1759 3634 1313 
Q 3634 634 3220 271 
Q 2806 -91 2034 -91 
Q 1263 -91 848 271 
Q 434 634 434 1313 
Q 434 1759 690 2068 
Q 947 2378 1403 2484 
z
M 1172 3481 
Q 1172 3119 1398 2916 
Q 1625 2713 2034 2713 
Q 2441 2713 2670 2916 
Q 2900 3119 2900 3481 
Q 2900 3844 2670 4047 
Q 2441 4250 2034 4250 
Q 1625 4250 1398 4047 
Q 1172 3844 1172 3481 
z
" transform="scale(0.015625)"/>
       </defs>
       <use xlink:href="#DejaVuSans-30"/>
       <use xlink:href="#DejaVuSans-2e" x="63.623047"/>
       <use xlink:href="#DejaVuSans-38" x="95.410156"/>
      </g>
     </g>
    </g>
    <g id="ytick_7">
     <g id="line2d_10">
      <g>
       <use xlink:href="#m420dd02fb2" x="52.160938" y="67.969485" style="stroke: #000000; stroke-width: 0.8"/>
      </g>
     </g>
     <g id="text_11">
      <!-- 1.0 -->
      <g transform="translate(29.257812 71.768704)scale(0.1 -0.1)">
       <defs>
        <path id="DejaVuSans-31" d="M 794 531 
L 1825 531 
L 1825 4091 
L 703 3866 
L 703 4441 
L 1819 4666 
L 2450 4666 
L 2450 531 
L 3481 531 
L 3481 0 
L 794 0 
L 794 531 
z
" transform="scale(0.015625)"/>
       </defs>
       <use xlink:href="#DejaVuSans-31"/>
       <use xlink:href="#DejaVuSans-2e" x="63.623047"/>
       <use xlink:href="#DejaVuSans-30" x="95.410156"/>
      </g>
     </g>
    </g>
    <g id="ytick_8">
     <g id="line2d_11">
      <g>
       <use xlink:href="#m420dd02fb2" x="52.160938" y="30.797279" style="stroke: #000000; stroke-width: 0.8"/>
      </g>
     </g>
     <g id="text_12">
      <!-- 1.2 -->
      <g transform="translate(29.257812 34.596497)scale(0.1 -0.1)">
       <use xlink:href="#DejaVuSans-31"/>
       <use xlink:href="#DejaVuSans-2e" x="63.623047"/>
       <use xlink:href="#DejaVuSans-32" x="95.410156"/>
      </g>
     </g>
    </g>
    <g id="text_13">
     <!-- success -->
     <g transform="translate(14.798437 180.457812)rotate(-90)scale(0.1 -0.1)">
      <defs>
       <path id="DejaVuSans-75" d="M 544 1381 
L 544 3500 
L 1119 3500 
L 1119 1403 
Q 1119 906 1312 657 
Q 1506 409 1894 409 
Q 2359 409 2629 706 
Q 2900 1003 2900 1516 
L 2900 3500 
L 3475 3500 
L 3475 0 
L 2900 0 
L 2900 538 
Q 2691 219 2414 64 
Q 2138 -91 1772 -91 
Q 1169 -91 856 284 
Q 544 659 544 1381 
z
M 1991 3584 
L 1991 3584 
z
" transform="scale(0.015625)"/>
       <path id="DejaVuSans-63" d="M 3122 3366 
L 3122 2828 
Q 2878 2963 2633 3030 
Q 2388 3097 2138 3097 
Q 1578 3097 1268 2742 
Q 959 2388 959 1747 
Q 959 1106 1268 751 
Q 1578 397 2138 397 
Q 2388 397 2633 464 
Q 2878 531 3122 666 
L 3122 134 
Q 2881 22 2623 -34 
Q 2366 -91 2075 -91 
Q 1284 -91 818 406 
Q 353 903 353 1747 
Q 353 2603 823 3093 
Q 1294 3584 2113 3584 
Q 2378 3584 2631 3529 
Q 2884 3475 3122 3366 
z
" transform="scale(0.015625)"/>
      </defs>
      <use xlink:href="#DejaVuSans-73"/>
      <use xlink:href="#DejaVuSans-75" x="52.099609"/>
      <use xlink:href="#DejaVuSans-63" x="115.478516"/>
      <use xlink:href="#DejaVuSans-63" x="170.458984"/>
      <use xlink:href="#DejaVuSans-65" x="225.439453"/>
      <use xlink:href="#DejaVuSans-73" x="286.962891"/>
      <use xlink:href="#DejaVuSans-73" x="339.0625"/>
     </g>
    </g>
   </g>
   <g id="line2d_12">
    <path d="M 100.873003 67.969485 
L 100.873003 67.969485 
" clip-path="url(#p6ba999fa76)" style="fill: none; stroke: #3f3f3f; stroke-width: 1.5; stroke-linecap: square"/>
   </g>
   <g id="line2d_13">
    <path d="M 100.873003 67.969485 
L 100.873003 67.969485 
" clip-path="url(#p6ba999fa76)" style="fill: none; stroke: #3f3f3f; stroke-width: 4.5; stroke-linecap: square"/>
   </g>
   <g id="line2d_14">
    <path d="M 198.297135 67.969485 
L 198.297135 67.969485 
" clip-path="url(#p6ba999fa76)" style="fill: none; stroke: #3f3f3f; stroke-width: 1.5; stroke-linecap: square"/>
   </g>
   <g id="line2d_15">
    <path d="M 198.297135 67.969485 
L 198.297135 67.969485 
" clip-path="url(#p6ba999fa76)" style="fill: none; stroke: #3f3f3f; stroke-width: 4.5; stroke-linecap: square"/>
   </g>
   <g id="line2d_16">
    <path d="M 295.721267 67.969485 
L 295.721267 67.969485 
" clip-path="url(#p6ba999fa76)" style="fill: none; stroke: #3f3f3f; stroke-width: 1.5; stroke-linecap: square"/>
   </g>
   <g id="line2d_17">
    <path d="M 295.721267 67.969485 
L 295.721267 67.969485 
" clip-path="url(#p6ba999fa76)" style="fill: none; stroke: #3f3f3f; stroke-width: 4.5; stroke-linecap: square"/>
   </g>
   <g id="patch_5">
    <path d="M 52.160938 314.6 
L 52.160938 7.2 
" style="fill: none; stroke: #000000; stroke-width: 0.8; stroke-linejoin: miter; stroke-linecap: square"/>
   </g>
   <g id="patch_6">
    <path d="M 52.160938 314.6 
L 344.433333 314.6 
" style="fill: none; stroke: #000000; stroke-width: 0.8; stroke-linejoin: miter; stroke-linecap: square"/>
   </g>
   <g id="PathCollection_1">
    <defs>
     <path id="m81d70f3f06" d="M 0 1.5 
C 0.397805 1.5 0.77937 1.341951 1.06066 1.06066 
C 1.341951 0.77937 1.5 0.397805 1.5 0 
C 1.5 -0.397805 1.341951 -0.77937 1.06066 -1.06066 
C 0.77937 -1.341951 0.397805 -1.5 0 -1.5 
C -0.397805 -1.5 -0.77937 -1.341951 -1.06066 -1.06066 
C -1.341951 -0.77937 -1.5 -0.397805 -1.5 0 
C -1.5 0.397805 -1.341951 0.77937 -1.06066 1.06066 
C -0.77937 1.341951 -0.397805 1.5 0 1.5 
z
" style="stroke: #3f3f3f"/>
    </defs>
    <g clip-path="url(#p6ba999fa76)">
     <use xlink:href="#m81d70f3f06" x="100.873003" y="67.969485" style="fill: #ffffff; stroke: #3f3f3f"/>
    </g>
   </g>
   <g id="PathCollection_2">
    <g clip-path="url(#p6ba999fa76)">
     <use xlink:href="#m81d70f3f06" x="198.297135" y="67.969485" style="fill: #ffffff; stroke: #3f3f3f"/>
    </g>
   </g>
   <g id="PathCollection_3">
    <g clip-path="url(#p6ba999fa76)">
     <use xlink:href="#m81d70f3f06" x="295.721267" y="67.969485" style="fill: #ffffff; stroke: #3f3f3f"/>
    </g>
   </g>
  </g>
  <g id="legend_1">
   <g id="text_14">
    <!-- dim -->
    <g transform="translate(360.681771 164.159375)scale(0.1 -0.1)">
     <defs>
      <path id="DejaVuSans-69" d="M 603 3500 
L 1178 3500 
L 1178 0 
L 603 0 
L 603 3500 
z
M 603 4863 
L 1178 4863 
L 1178 4134 
L 603 4134 
L 603 4863 
z
" transform="scale(0.015625)"/>
      <path id="DejaVuSans-6d" d="M 3328 2828 
Q 3544 3216 3844 3400 
Q 4144 3584 4550 3584 
Q 5097 3584 5394 3201 
Q 5691 2819 5691 2113 
L 5691 0 
L 5113 0 
L 5113 2094 
Q 5113 2597 4934 2840 
Q 4756 3084 4391 3084 
Q 3944 3084 3684 2787 
Q 3425 2491 3425 1978 
L 3425 0 
L 2847 0 
L 2847 2094 
Q 2847 2600 2669 2842 
Q 2491 3084 2119 3084 
Q 1678 3084 1418 2786 
Q 1159 2488 1159 1978 
L 1159 0 
L 581 0 
L 581 3500 
L 1159 3500 
L 1159 2956 
Q 1356 3278 1631 3431 
Q 1906 3584 2284 3584 
Q 2666 3584 2933 3390 
Q 3200 3197 3328 2828 
z
" transform="scale(0.015625)"/>
     </defs>
     <use xlink:href="#DejaVuSans-64"/>
     <use xlink:href="#DejaVuSans-69" x="63.476562"/>
     <use xlink:href="#DejaVuSans-6d" x="91.259766"/>
    </g>
   </g>
   <g id="patch_7">
    <path d="M 349.759896 178.8375 
L 369.759896 178.8375 
L 369.759896 171.8375 
L 349.759896 171.8375 
z
" style="fill: #3274a1; stroke: #3f3f3f; stroke-width: 0.75; stroke-linejoin: miter"/>
   </g>
   <g id="text_15">
    <!-- 2d -->
    <g transform="translate(377.759896 178.8375)scale(0.1 -0.1)">
     <use xlink:href="#DejaVuSans-32"/>
     <use xlink:href="#DejaVuSans-64" x="63.623047"/>
    </g>
   </g>
   <g id="patch_8">
    <path d="M 349.759896 193.515625 
L 369.759896 193.515625 
L 369.759896 186.515625 
L 349.759896 186.515625 
z
" style="fill: #e1812c; stroke: #3f3f3f; stroke-width: 0.75; stroke-linejoin: miter"/>
   </g>
   <g id="text_16">
    <!-- 3d -->
    <g transform="translate(377.759896 193.515625)scale(0.1 -0.1)">
     <defs>
      <path id="DejaVuSans-33" d="M 2597 2516 
Q 3050 2419 3304 2112 
Q 3559 1806 3559 1356 
Q 3559 666 3084 287 
Q 2609 -91 1734 -91 
Q 1441 -91 1130 -33 
Q 819 25 488 141 
L 488 750 
Q 750 597 1062 519 
Q 1375 441 1716 441 
Q 2309 441 2620 675 
Q 2931 909 2931 1356 
Q 2931 1769 2642 2001 
Q 2353 2234 1838 2234 
L 1294 2234 
L 1294 2753 
L 1863 2753 
Q 2328 2753 2575 2939 
Q 2822 3125 2822 3475 
Q 2822 3834 2567 4026 
Q 2313 4219 1838 4219 
Q 1578 4219 1281 4162 
Q 984 4106 628 3988 
L 628 4550 
Q 988 4650 1302 4700 
Q 1616 4750 1894 4750 
Q 2613 4750 3031 4423 
Q 3450 4097 3450 3541 
Q 3450 3153 3228 2886 
Q 3006 2619 2597 2516 
z
" transform="scale(0.015625)"/>
     </defs>
     <use xlink:href="#DejaVuSans-33"/>
     <use xlink:href="#DejaVuSans-64" x="63.623047"/>
    </g>
   </g>
  </g>
 </g>
 <defs>
  <clipPath id="p6ba999fa76">
   <rect x="52.160938" y="7.2" width="292.272396" height="307.4"/>
  </clipPath>
 </defs>
</svg>
