<?xml version="1.0" encoding="utf-8" standalone="no"?>
<!DOCTYPE svg PUBLIC "-//W3C//DTD SVG 1.1//EN"
  "http://www.w3.org/Graphics/SVG/1.1/DTD/svg11.dtd">
<svg xmlns:xlink="http://www.w3.org/1999/xlink" width="398.544133pt" height="347.739687pt" viewBox="0 0 398.544133 347.739687" xmlns="http://www.w3.org/2000/svg" version="1.1">
 <metadata>
  <rdf:RDF xmlns:dc="http://purl.org/dc/elements/1.1/" xmlns:cc="http://creativecommons.org/ns#" xmlns:rdf="http://www.w3.org/1999/02/22-rdf-syntax-ns#">
   <cc:Work>
    <dc:type rdf:resource="http://purl.org/dc/dcmitype/StillImage"/>
    <dc:date>2022-03-28T16:33:41.450915</dc:date>
    <dc:format>image/svg+xml</dc:format>
    <dc:creator>
     <cc:Agent>
      <dc:title>Matplotlib v3.5.1, https://matplotlib.org/</dc:title>
     </cc:Agent>
    </dc:creator>
   </cc:Work>
  </rdf:RDF>
 </metadata>
 <defs>
  <style type="text/css">*{stroke-linejoin: round; stroke-linecap: butt}</style>
 </defs>
 <g id="figure_1">
  <g id="patch_1">
   <path d="M 0 347.739687 
L 398.544133 347.739687 
L 398.544133 0 
L 0 0 
z
" style="fill: #ffffff"/>
  </g>
  <g id="axes_1">
   <g id="patch_2">
    <path d="M 59.024844 304.78 
L 339.108133 304.78 
L 339.108133 7.2 
L 59.024844 7.2 
z
" style="fill: #ffffff"/>
   </g>
   <g id="matplotlib.axis_1">
    <g id="xtick_1">
     <g id="line2d_1">
      <defs>
       <path id="mc8dbd95acf" d="M 0 0 
L 0 6 
" style="stroke: #262626; stroke-width: 1.25"/>
      </defs>
      <g>
       <use xlink:href="#mc8dbd95acf" x="105.705392" y="304.78" style="fill: #262626; stroke: #262626; stroke-width: 1.25"/>
      </g>
     </g>
     <g id="text_1">
      <!-- teb -->
      <g style="fill: #262626" transform="translate(96.673361 322.638281)scale(0.11 -0.11)">
       <defs>
        <path id="DejaVuSans-74" d="M 1172 4494 
L 1172 3500 
L 2356 3500 
L 2356 3053 
L 1172 3053 
L 1172 1153 
Q 1172 725 1289 603 
Q 1406 481 1766 481 
L 2356 481 
L 2356 0 
L 1766 0 
Q 1100 0 847 248 
Q 594 497 594 1153 
L 594 3053 
L 172 3053 
L 172 3500 
L 594 3500 
L 594 4494 
L 1172 4494 
z
" transform="scale(0.015625)"/>
        <path id="DejaVuSans-65" d="M 3597 1894 
L 3597 1613 
L 953 1613 
Q 991 1019 1311 708 
Q 1631 397 2203 397 
Q 2534 397 2845 478 
Q 3156 559 3463 722 
L 3463 178 
Q 3153 47 2828 -22 
Q 2503 -91 2169 -91 
Q 1331 -91 842 396 
Q 353 884 353 1716 
Q 353 2575 817 3079 
Q 1281 3584 2069 3584 
Q 2775 3584 3186 3129 
Q 3597 2675 3597 1894 
z
M 3022 2063 
Q 3016 2534 2758 2815 
Q 2500 3097 2075 3097 
Q 1594 3097 1305 2825 
Q 1016 2553 972 2059 
L 3022 2063 
z
" transform="scale(0.015625)"/>
        <path id="DejaVuSans-62" d="M 3116 1747 
Q 3116 2381 2855 2742 
Q 2594 3103 2138 3103 
Q 1681 3103 1420 2742 
Q 1159 2381 1159 1747 
Q 1159 1113 1420 752 
Q 1681 391 2138 391 
Q 2594 391 2855 752 
Q 3116 1113 3116 1747 
z
M 1159 2969 
Q 1341 3281 1617 3432 
Q 1894 3584 2278 3584 
Q 2916 3584 3314 3078 
Q 3713 2572 3713 1747 
Q 3713 922 3314 415 
Q 2916 -91 2278 -91 
Q 1894 -91 1617 61 
Q 1341 213 1159 525 
L 1159 0 
L 581 0 
L 581 4863 
L 1159 4863 
L 1159 2969 
z
" transform="scale(0.015625)"/>
       </defs>
       <use xlink:href="#DejaVuSans-74"/>
       <use xlink:href="#DejaVuSans-65" x="39.208984"/>
       <use xlink:href="#DejaVuSans-62" x="100.732422"/>
      </g>
     </g>
    </g>
    <g id="xtick_2">
     <g id="line2d_2">
      <g>
       <use xlink:href="#mc8dbd95acf" x="199.066488" y="304.78" style="fill: #262626; stroke: #262626; stroke-width: 1.25"/>
      </g>
     </g>
     <g id="text_2">
      <!-- dwa -->
      <g style="fill: #262626" transform="translate(187.70641 322.638281)scale(0.11 -0.11)">
       <defs>
        <path id="DejaVuSans-64" d="M 2906 2969 
L 2906 4863 
L 3481 4863 
L 3481 0 
L 2906 0 
L 2906 525 
Q 2725 213 2448 61 
Q 2172 -91 1784 -91 
Q 1150 -91 751 415 
Q 353 922 353 1747 
Q 353 2572 751 3078 
Q 1150 3584 1784 3584 
Q 2172 3584 2448 3432 
Q 2725 3281 2906 2969 
z
M 947 1747 
Q 947 1113 1208 752 
Q 1469 391 1925 391 
Q 2381 391 2643 752 
Q 2906 1113 2906 1747 
Q 2906 2381 2643 2742 
Q 2381 3103 1925 3103 
Q 1469 3103 1208 2742 
Q 947 2381 947 1747 
z
" transform="scale(0.015625)"/>
        <path id="DejaVuSans-77" d="M 269 3500 
L 844 3500 
L 1563 769 
L 2278 3500 
L 2956 3500 
L 3675 769 
L 4391 3500 
L 4966 3500 
L 4050 0 
L 3372 0 
L 2619 2869 
L 1863 0 
L 1184 0 
L 269 3500 
z
" transform="scale(0.015625)"/>
        <path id="DejaVuSans-61" d="M 2194 1759 
Q 1497 1759 1228 1600 
Q 959 1441 959 1056 
Q 959 750 1161 570 
Q 1363 391 1709 391 
Q 2188 391 2477 730 
Q 2766 1069 2766 1631 
L 2766 1759 
L 2194 1759 
z
M 3341 1997 
L 3341 0 
L 2766 0 
L 2766 531 
Q 2569 213 2275 61 
Q 1981 -91 1556 -91 
Q 1019 -91 701 211 
Q 384 513 384 1019 
Q 384 1609 779 1909 
Q 1175 2209 1959 2209 
L 2766 2209 
L 2766 2266 
Q 2766 2663 2505 2880 
Q 2244 3097 1772 3097 
Q 1472 3097 1187 3025 
Q 903 2953 641 2809 
L 641 3341 
Q 956 3463 1253 3523 
Q 1550 3584 1831 3584 
Q 2591 3584 2966 3190 
Q 3341 2797 3341 1997 
z
" transform="scale(0.015625)"/>
       </defs>
       <use xlink:href="#DejaVuSans-64"/>
       <use xlink:href="#DejaVuSans-77" x="63.476562"/>
       <use xlink:href="#DejaVuSans-61" x="145.263672"/>
      </g>
     </g>
    </g>
    <g id="xtick_3">
     <g id="line2d_3">
      <g>
       <use xlink:href="#mc8dbd95acf" x="292.427584" y="304.78" style="fill: #262626; stroke: #262626; stroke-width: 1.25"/>
      </g>
     </g>
     <g id="text_3">
      <!-- rosnav -->
      <g style="fill: #262626" transform="translate(273.948444 322.638281)scale(0.11 -0.11)">
       <defs>
        <path id="DejaVuSans-72" d="M 2631 2963 
Q 2534 3019 2420 3045 
Q 2306 3072 2169 3072 
Q 1681 3072 1420 2755 
Q 1159 2438 1159 1844 
L 1159 0 
L 581 0 
L 581 3500 
L 1159 3500 
L 1159 2956 
Q 1341 3275 1631 3429 
Q 1922 3584 2338 3584 
Q 2397 3584 2469 3576 
Q 2541 3569 2628 3553 
L 2631 2963 
z
" transform="scale(0.015625)"/>
        <path id="DejaVuSans-6f" d="M 1959 3097 
Q 1497 3097 1228 2736 
Q 959 2375 959 1747 
Q 959 1119 1226 758 
Q 1494 397 1959 397 
Q 2419 397 2687 759 
Q 2956 1122 2956 1747 
Q 2956 2369 2687 2733 
Q 2419 3097 1959 3097 
z
M 1959 3584 
Q 2709 3584 3137 3096 
Q 3566 2609 3566 1747 
Q 3566 888 3137 398 
Q 2709 -91 1959 -91 
Q 1206 -91 779 398 
Q 353 888 353 1747 
Q 353 2609 779 3096 
Q 1206 3584 1959 3584 
z
" transform="scale(0.015625)"/>
        <path id="DejaVuSans-73" d="M 2834 3397 
L 2834 2853 
Q 2591 2978 2328 3040 
Q 2066 3103 1784 3103 
Q 1356 3103 1142 2972 
Q 928 2841 928 2578 
Q 928 2378 1081 2264 
Q 1234 2150 1697 2047 
L 1894 2003 
Q 2506 1872 2764 1633 
Q 3022 1394 3022 966 
Q 3022 478 2636 193 
Q 2250 -91 1575 -91 
Q 1294 -91 989 -36 
Q 684 19 347 128 
L 347 722 
Q 666 556 975 473 
Q 1284 391 1588 391 
Q 1994 391 2212 530 
Q 2431 669 2431 922 
Q 2431 1156 2273 1281 
Q 2116 1406 1581 1522 
L 1381 1569 
Q 847 1681 609 1914 
Q 372 2147 372 2553 
Q 372 3047 722 3315 
Q 1072 3584 1716 3584 
Q 2034 3584 2315 3537 
Q 2597 3491 2834 3397 
z
" transform="scale(0.015625)"/>
        <path id="DejaVuSans-6e" d="M 3513 2113 
L 3513 0 
L 2938 0 
L 2938 2094 
Q 2938 2591 2744 2837 
Q 2550 3084 2163 3084 
Q 1697 3084 1428 2787 
Q 1159 2491 1159 1978 
L 1159 0 
L 581 0 
L 581 3500 
L 1159 3500 
L 1159 2956 
Q 1366 3272 1645 3428 
Q 1925 3584 2291 3584 
Q 2894 3584 3203 3211 
Q 3513 2838 3513 2113 
z
" transform="scale(0.015625)"/>
        <path id="DejaVuSans-76" d="M 191 3500 
L 800 3500 
L 1894 563 
L 2988 3500 
L 3597 3500 
L 2284 0 
L 1503 0 
L 191 3500 
z
" transform="scale(0.015625)"/>
       </defs>
       <use xlink:href="#DejaVuSans-72"/>
       <use xlink:href="#DejaVuSans-6f" x="38.863281"/>
       <use xlink:href="#DejaVuSans-73" x="100.044922"/>
       <use xlink:href="#DejaVuSans-6e" x="152.144531"/>
       <use xlink:href="#DejaVuSans-61" x="215.523438"/>
       <use xlink:href="#DejaVuSans-76" x="276.802734"/>
      </g>
     </g>
    </g>
    <g id="text_4">
     <!-- Planner -->
     <g style="fill: #262626" transform="translate(176.341488 338.044062)scale(0.12 -0.12)">
      <defs>
       <path id="DejaVuSans-50" d="M 1259 4147 
L 1259 2394 
L 2053 2394 
Q 2494 2394 2734 2622 
Q 2975 2850 2975 3272 
Q 2975 3691 2734 3919 
Q 2494 4147 2053 4147 
L 1259 4147 
z
M 628 4666 
L 2053 4666 
Q 2838 4666 3239 4311 
Q 3641 3956 3641 3272 
Q 3641 2581 3239 2228 
Q 2838 1875 2053 1875 
L 1259 1875 
L 1259 0 
L 628 0 
L 628 4666 
z
" transform="scale(0.015625)"/>
       <path id="DejaVuSans-6c" d="M 603 4863 
L 1178 4863 
L 1178 0 
L 603 0 
L 603 4863 
z
" transform="scale(0.015625)"/>
      </defs>
      <use xlink:href="#DejaVuSans-50"/>
      <use xlink:href="#DejaVuSans-6c" x="60.302734"/>
      <use xlink:href="#DejaVuSans-61" x="88.085938"/>
      <use xlink:href="#DejaVuSans-6e" x="149.365234"/>
      <use xlink:href="#DejaVuSans-6e" x="212.744141"/>
      <use xlink:href="#DejaVuSans-65" x="276.123047"/>
      <use xlink:href="#DejaVuSans-72" x="337.646484"/>
     </g>
    </g>
   </g>
   <g id="matplotlib.axis_2">
    <g id="ytick_1">
     <g id="line2d_4">
      <defs>
       <path id="mf138a57857" d="M 0 0 
L -6 0 
" style="stroke: #262626; stroke-width: 1.25"/>
      </defs>
      <g>
       <use xlink:href="#mf138a57857" x="59.024844" y="292.763638" style="fill: #262626; stroke: #262626; stroke-width: 1.25"/>
      </g>
     </g>
     <g id="text_5">
      <!-- −0.5 -->
      <g style="fill: #262626" transform="translate(22.81375 296.942778)scale(0.11 -0.11)">
       <defs>
        <path id="DejaVuSans-2212" d="M 678 2272 
L 4684 2272 
L 4684 1741 
L 678 1741 
L 678 2272 
z
" transform="scale(0.015625)"/>
        <path id="DejaVuSans-30" d="M 2034 4250 
Q 1547 4250 1301 3770 
Q 1056 3291 1056 2328 
Q 1056 1369 1301 889 
Q 1547 409 2034 409 
Q 2525 409 2770 889 
Q 3016 1369 3016 2328 
Q 3016 3291 2770 3770 
Q 2525 4250 2034 4250 
z
M 2034 4750 
Q 2819 4750 3233 4129 
Q 3647 3509 3647 2328 
Q 3647 1150 3233 529 
Q 2819 -91 2034 -91 
Q 1250 -91 836 529 
Q 422 1150 422 2328 
Q 422 3509 836 4129 
Q 1250 4750 2034 4750 
z
" transform="scale(0.015625)"/>
        <path id="DejaVuSans-2e" d="M 684 794 
L 1344 794 
L 1344 0 
L 684 0 
L 684 794 
z
" transform="scale(0.015625)"/>
        <path id="DejaVuSans-35" d="M 691 4666 
L 3169 4666 
L 3169 4134 
L 1269 4134 
L 1269 2991 
Q 1406 3038 1543 3061 
Q 1681 3084 1819 3084 
Q 2600 3084 3056 2656 
Q 3513 2228 3513 1497 
Q 3513 744 3044 326 
Q 2575 -91 1722 -91 
Q 1428 -91 1123 -41 
Q 819 9 494 109 
L 494 744 
Q 775 591 1075 516 
Q 1375 441 1709 441 
Q 2250 441 2565 725 
Q 2881 1009 2881 1497 
Q 2881 1984 2565 2268 
Q 2250 2553 1709 2553 
Q 1456 2553 1204 2497 
Q 953 2441 691 2322 
L 691 4666 
z
" transform="scale(0.015625)"/>
       </defs>
       <use xlink:href="#DejaVuSans-2212"/>
       <use xlink:href="#DejaVuSans-30" x="83.789062"/>
       <use xlink:href="#DejaVuSans-2e" x="147.412109"/>
       <use xlink:href="#DejaVuSans-35" x="179.199219"/>
      </g>
     </g>
    </g>
    <g id="ytick_2">
     <g id="line2d_5">
      <g>
       <use xlink:href="#mf138a57857" x="59.024844" y="246.635478" style="fill: #262626; stroke: #262626; stroke-width: 1.25"/>
      </g>
     </g>
     <g id="text_6">
      <!-- 0.0 -->
      <g style="fill: #262626" transform="translate(32.031406 250.814619)scale(0.11 -0.11)">
       <use xlink:href="#DejaVuSans-30"/>
       <use xlink:href="#DejaVuSans-2e" x="63.623047"/>
       <use xlink:href="#DejaVuSans-30" x="95.410156"/>
      </g>
     </g>
    </g>
    <g id="ytick_3">
     <g id="line2d_6">
      <g>
       <use xlink:href="#mf138a57857" x="59.024844" y="200.507319" style="fill: #262626; stroke: #262626; stroke-width: 1.25"/>
      </g>
     </g>
     <g id="text_7">
      <!-- 0.5 -->
      <g style="fill: #262626" transform="translate(32.031406 204.68646)scale(0.11 -0.11)">
       <use xlink:href="#DejaVuSans-30"/>
       <use xlink:href="#DejaVuSans-2e" x="63.623047"/>
       <use xlink:href="#DejaVuSans-35" x="95.410156"/>
      </g>
     </g>
    </g>
    <g id="ytick_4">
     <g id="line2d_7">
      <g>
       <use xlink:href="#mf138a57857" x="59.024844" y="154.37916" style="fill: #262626; stroke: #262626; stroke-width: 1.25"/>
      </g>
     </g>
     <g id="text_8">
      <!-- 1.0 -->
      <g style="fill: #262626" transform="translate(32.031406 158.5583)scale(0.11 -0.11)">
       <defs>
        <path id="DejaVuSans-31" d="M 794 531 
L 1825 531 
L 1825 4091 
L 703 3866 
L 703 4441 
L 1819 4666 
L 2450 4666 
L 2450 531 
L 3481 531 
L 3481 0 
L 794 0 
L 794 531 
z
" transform="scale(0.015625)"/>
       </defs>
       <use xlink:href="#DejaVuSans-31"/>
       <use xlink:href="#DejaVuSans-2e" x="63.623047"/>
       <use xlink:href="#DejaVuSans-30" x="95.410156"/>
      </g>
     </g>
    </g>
    <g id="ytick_5">
     <g id="line2d_8">
      <g>
       <use xlink:href="#mf138a57857" x="59.024844" y="108.251001" style="fill: #262626; stroke: #262626; stroke-width: 1.25"/>
      </g>
     </g>
     <g id="text_9">
      <!-- 1.5 -->
      <g style="fill: #262626" transform="translate(32.031406 112.430141)scale(0.11 -0.11)">
       <use xlink:href="#DejaVuSans-31"/>
       <use xlink:href="#DejaVuSans-2e" x="63.623047"/>
       <use xlink:href="#DejaVuSans-35" x="95.410156"/>
      </g>
     </g>
    </g>
    <g id="ytick_6">
     <g id="line2d_9">
      <g>
       <use xlink:href="#mf138a57857" x="59.024844" y="62.122841" style="fill: #262626; stroke: #262626; stroke-width: 1.25"/>
      </g>
     </g>
     <g id="text_10">
      <!-- 2.0 -->
      <g style="fill: #262626" transform="translate(32.031406 66.301982)scale(0.11 -0.11)">
       <defs>
        <path id="DejaVuSans-32" d="M 1228 531 
L 3431 531 
L 3431 0 
L 469 0 
L 469 531 
Q 828 903 1448 1529 
Q 2069 2156 2228 2338 
Q 2531 2678 2651 2914 
Q 2772 3150 2772 3378 
Q 2772 3750 2511 3984 
Q 2250 4219 1831 4219 
Q 1534 4219 1204 4116 
Q 875 4013 500 3803 
L 500 4441 
Q 881 4594 1212 4672 
Q 1544 4750 1819 4750 
Q 2544 4750 2975 4387 
Q 3406 4025 3406 3419 
Q 3406 3131 3298 2873 
Q 3191 2616 2906 2266 
Q 2828 2175 2409 1742 
Q 1991 1309 1228 531 
z
" transform="scale(0.015625)"/>
       </defs>
       <use xlink:href="#DejaVuSans-32"/>
       <use xlink:href="#DejaVuSans-2e" x="63.623047"/>
       <use xlink:href="#DejaVuSans-30" x="95.410156"/>
      </g>
     </g>
    </g>
    <g id="ytick_7">
     <g id="line2d_10">
      <g>
       <use xlink:href="#mf138a57857" x="59.024844" y="15.994682" style="fill: #262626; stroke: #262626; stroke-width: 1.25"/>
      </g>
     </g>
     <g id="text_11">
      <!-- 2.5 -->
      <g style="fill: #262626" transform="translate(32.031406 20.173823)scale(0.11 -0.11)">
       <use xlink:href="#DejaVuSans-32"/>
       <use xlink:href="#DejaVuSans-2e" x="63.623047"/>
       <use xlink:href="#DejaVuSans-35" x="95.410156"/>
      </g>
     </g>
    </g>
    <g id="text_12">
     <!-- vel -->
     <g style="fill: #262626" transform="translate(16.318125 164.9)rotate(-90)scale(0.12 -0.12)">
      <use xlink:href="#DejaVuSans-76"/>
      <use xlink:href="#DejaVuSans-65" x="59.179688"/>
      <use xlink:href="#DejaVuSans-6c" x="120.703125"/>
     </g>
    </g>
   </g>
   <g id="patch_3">
    <path d="M 105.705392 246.635478 
L 105.705392 246.635478 
L 105.705392 246.635478 
L 105.705392 246.635478 
z
" clip-path="url(#p3729212c72)" style="fill: #5875a4; stroke: #4c4c4c; stroke-width: 0.75; stroke-linejoin: miter"/>
   </g>
   <g id="PolyCollection_1">
    <defs>
     <path id="m911e2dc1b4" d="M 105.705392 -104.511627 
L 105.684082 -104.511627 
L 105.66497 -104.967994 
L 105.637599 -105.42436 
L 105.604865 -105.880726 
L 105.573593 -106.337093 
L 105.552609 -106.793459 
L 105.5488 -107.249825 
L 105.563483 -107.706192 
L 105.591672 -108.162558 
L 105.624756 -108.618924 
L 105.654612 -109.075291 
L 105.676391 -109.531657 
L 105.688685 -109.988023 
L 105.691836 -110.44439 
L 105.6861 -110.900756 
L 105.671027 -111.357123 
L 105.646426 -111.813489 
L 105.614063 -112.269855 
L 105.578158 -112.726222 
L 105.542343 -113.182588 
L 105.501565 -113.638954 
L 105.42942 -114.095321 
L 105.26354 -114.551687 
L 104.894054 -115.008053 
L 104.163129 -115.46442 
L 102.886229 -115.920786 
L 100.902408 -116.377152 
L 98.146095 -116.833519 
L 94.709071 -117.289885 
L 90.845338 -117.746252 
L 86.887119 -118.202618 
L 83.09702 -118.658984 
L 79.551883 -119.115351 
L 76.173372 -119.571717 
L 72.934709 -120.028083 
L 70.113409 -120.48445 
L 68.360953 -120.940816 
L 68.453391 -121.397182 
L 70.839688 -121.853549 
L 75.302037 -122.309915 
L 80.984489 -122.766281 
L 86.770695 -123.222648 
L 91.746741 -123.679014 
L 95.473018 -124.135381 
L 97.974994 -124.591747 
L 99.553739 -125.048113 
L 100.574572 -125.50448 
L 101.331259 -125.960846 
L 101.998786 -126.417212 
L 102.644173 -126.873579 
L 103.262479 -127.329945 
L 103.816728 -127.786311 
L 104.269284 -128.242678 
L 104.59825 -128.699044 
L 104.799533 -129.15541 
L 104.881589 -129.611777 
L 104.860972 -130.068143 
L 104.762187 -130.52451 
L 104.619638 -130.980876 
L 104.477158 -131.437242 
L 104.381914 -131.893609 
L 104.372668 -132.349975 
L 104.466415 -132.806341 
L 104.650536 -133.262708 
L 104.886436 -133.719074 
L 105.123796 -134.17544 
L 105.317095 -134.631807 
L 105.434831 -135.088173 
L 105.458438 -135.544539 
L 105.376462 -136.000906 
L 105.183184 -136.457272 
L 104.886791 -136.913639 
L 104.522902 -137.370005 
L 104.160953 -137.826371 
L 103.89118 -138.282738 
L 103.792048 -138.739104 
L 103.894738 -139.19547 
L 104.167818 -139.651837 
L 104.533129 -140.108203 
L 104.902196 -140.564569 
L 105.210069 -141.020936 
L 105.429544 -141.477302 
L 105.564891 -141.933668 
L 105.635833 -142.390035 
L 105.663232 -142.846401 
L 105.661926 -143.302768 
L 105.640301 -143.759134 
L 105.603506 -144.2155 
L 105.55706 -144.671867 
L 105.508648 -145.128233 
L 105.467461 -145.584599 
L 105.44195 -146.040966 
L 105.437511 -146.497332 
L 105.455094 -146.953698 
L 105.490981 -147.410065 
L 105.537757 -147.866431 
L 105.58644 -148.322797 
L 105.629224 -148.779164 
L 105.661604 -149.23553 
L 105.682886 -149.691897 
L 105.705392 -149.691897 
L 105.705392 -149.691897 
L 105.705392 -149.23553 
L 105.705392 -148.779164 
L 105.705392 -148.322797 
L 105.705392 -147.866431 
L 105.705392 -147.410065 
L 105.705392 -146.953698 
L 105.705392 -146.497332 
L 105.705392 -146.040966 
L 105.705392 -145.584599 
L 105.705392 -145.128233 
L 105.705392 -144.671867 
L 105.705392 -144.2155 
L 105.705392 -143.759134 
L 105.705392 -143.302768 
L 105.705392 -142.846401 
L 105.705392 -142.390035 
L 105.705392 -141.933668 
L 105.705392 -141.477302 
L 105.705392 -141.020936 
L 105.705392 -140.564569 
L 105.705392 -140.108203 
L 105.705392 -139.651837 
L 105.705392 -139.19547 
L 105.705392 -138.739104 
L 105.705392 -138.282738 
L 105.705392 -137.826371 
L 105.705392 -137.370005 
L 105.705392 -136.913639 
L 105.705392 -136.457272 
L 105.705392 -136.000906 
L 105.705392 -135.544539 
L 105.705392 -135.088173 
L 105.705392 -134.631807 
L 105.705392 -134.17544 
L 105.705392 -133.719074 
L 105.705392 -133.262708 
L 105.705392 -132.806341 
L 105.705392 -132.349975 
L 105.705392 -131.893609 
L 105.705392 -131.437242 
L 105.705392 -130.980876 
L 105.705392 -130.52451 
L 105.705392 -130.068143 
L 105.705392 -129.611777 
L 105.705392 -129.15541 
L 105.705392 -128.699044 
L 105.705392 -128.242678 
L 105.705392 -127.786311 
L 105.705392 -127.329945 
L 105.705392 -126.873579 
L 105.705392 -126.417212 
L 105.705392 -125.960846 
L 105.705392 -125.50448 
L 105.705392 -125.048113 
L 105.705392 -124.591747 
L 105.705392 -124.135381 
L 105.705392 -123.679014 
L 105.705392 -123.222648 
L 105.705392 -122.766281 
L 105.705392 -122.309915 
L 105.705392 -121.853549 
L 105.705392 -121.397182 
L 105.705392 -120.940816 
L 105.705392 -120.48445 
L 105.705392 -120.028083 
L 105.705392 -119.571717 
L 105.705392 -119.115351 
L 105.705392 -118.658984 
L 105.705392 -118.202618 
L 105.705392 -117.746252 
L 105.705392 -117.289885 
L 105.705392 -116.833519 
L 105.705392 -116.377152 
L 105.705392 -115.920786 
L 105.705392 -115.46442 
L 105.705392 -115.008053 
L 105.705392 -114.551687 
L 105.705392 -114.095321 
L 105.705392 -113.638954 
L 105.705392 -113.182588 
L 105.705392 -112.726222 
L 105.705392 -112.269855 
L 105.705392 -111.813489 
L 105.705392 -111.357123 
L 105.705392 -110.900756 
L 105.705392 -110.44439 
L 105.705392 -109.988023 
L 105.705392 -109.531657 
L 105.705392 -109.075291 
L 105.705392 -108.618924 
L 105.705392 -108.162558 
L 105.705392 -107.706192 
L 105.705392 -107.249825 
L 105.705392 -106.793459 
L 105.705392 -106.337093 
L 105.705392 -105.880726 
L 105.705392 -105.42436 
L 105.705392 -104.967994 
L 105.705392 -104.511627 
z
" style="stroke: #4c4c4c; stroke-width: 1.5"/>
    </defs>
    <g clip-path="url(#p3729212c72)">
     <use xlink:href="#m911e2dc1b4" x="0" y="347.739687" style="fill: #5875a4; stroke: #4c4c4c; stroke-width: 1.5"/>
    </g>
   </g>
   <g id="patch_4">
    <path d="M 105.705392 246.635478 
L 105.705392 246.635478 
L 105.705392 246.635478 
L 105.705392 246.635478 
z
" clip-path="url(#p3729212c72)" style="fill: #cc8963; stroke: #4c4c4c; stroke-width: 0.75; stroke-linejoin: miter"/>
   </g>
   <g id="PolyCollection_2">
    <defs>
     <path id="mc86e05fd6b" d="M 105.765059 -72.267951 
L 105.705392 -72.267951 
L 105.705392 -74.747434 
L 105.705392 -77.226917 
L 105.705392 -79.706399 
L 105.705392 -82.185882 
L 105.705392 -84.665365 
L 105.705392 -87.144848 
L 105.705392 -89.62433 
L 105.705392 -92.103813 
L 105.705392 -94.583296 
L 105.705392 -97.062778 
L 105.705392 -99.542261 
L 105.705392 -102.021744 
L 105.705392 -104.501227 
L 105.705392 -106.980709 
L 105.705392 -109.460192 
L 105.705392 -111.939675 
L 105.705392 -114.419158 
L 105.705392 -116.89864 
L 105.705392 -119.378123 
L 105.705392 -121.857606 
L 105.705392 -124.337089 
L 105.705392 -126.816571 
L 105.705392 -129.296054 
L 105.705392 -131.775537 
L 105.705392 -134.25502 
L 105.705392 -136.734502 
L 105.705392 -139.213985 
L 105.705392 -141.693468 
L 105.705392 -144.17295 
L 105.705392 -146.652433 
L 105.705392 -149.131916 
L 105.705392 -151.611399 
L 105.705392 -154.090881 
L 105.705392 -156.570364 
L 105.705392 -159.049847 
L 105.705392 -161.52933 
L 105.705392 -164.008812 
L 105.705392 -166.488295 
L 105.705392 -168.967778 
L 105.705392 -171.447261 
L 105.705392 -173.926743 
L 105.705392 -176.406226 
L 105.705392 -178.885709 
L 105.705392 -181.365192 
L 105.705392 -183.844674 
L 105.705392 -186.324157 
L 105.705392 -188.80364 
L 105.705392 -191.283122 
L 105.705392 -193.762605 
L 105.705392 -196.242088 
L 105.705392 -198.721571 
L 105.705392 -201.201053 
L 105.705392 -203.680536 
L 105.705392 -206.160019 
L 105.705392 -208.639502 
L 105.705392 -211.118984 
L 105.705392 -213.598467 
L 105.705392 -216.07795 
L 105.705392 -218.557433 
L 105.705392 -221.036915 
L 105.705392 -223.516398 
L 105.705392 -225.995881 
L 105.705392 -228.475363 
L 105.705392 -230.954846 
L 105.705392 -233.434329 
L 105.705392 -235.913812 
L 105.705392 -238.393294 
L 105.705392 -240.872777 
L 105.705392 -243.35226 
L 105.705392 -245.831743 
L 105.705392 -248.311225 
L 105.705392 -250.790708 
L 105.705392 -253.270191 
L 105.705392 -255.749674 
L 105.705392 -258.229156 
L 105.705392 -260.708639 
L 105.705392 -263.188122 
L 105.705392 -265.667605 
L 105.705392 -268.147087 
L 105.705392 -270.62657 
L 105.705392 -273.106053 
L 105.705392 -275.585535 
L 105.705392 -278.065018 
L 105.705392 -280.544501 
L 105.705392 -283.023984 
L 105.705392 -285.503466 
L 105.705392 -287.982949 
L 105.705392 -290.462432 
L 105.705392 -292.941915 
L 105.705392 -295.421397 
L 105.705392 -297.90088 
L 105.705392 -300.380363 
L 105.705392 -302.859846 
L 105.705392 -305.339328 
L 105.705392 -307.818811 
L 105.705392 -310.298294 
L 105.705392 -312.777777 
L 105.705392 -315.257259 
L 105.705392 -317.736742 
L 105.752873 -317.736742 
L 105.752873 -317.736742 
L 105.770024 -315.257259 
L 105.791859 -312.777777 
L 105.819093 -310.298294 
L 105.852369 -307.818811 
L 105.892186 -305.339328 
L 105.93883 -302.859846 
L 105.992307 -300.380363 
L 106.052284 -297.90088 
L 106.118052 -295.421397 
L 106.188516 -292.941915 
L 106.262215 -290.462432 
L 106.337381 -287.982949 
L 106.412027 -285.503466 
L 106.484059 -283.023984 
L 106.551408 -280.544501 
L 106.612164 -278.065018 
L 106.664695 -275.585535 
L 106.707749 -273.106053 
L 106.740515 -270.62657 
L 106.762655 -268.147087 
L 106.774282 -265.667605 
L 106.775916 -263.188122 
L 106.768401 -260.708639 
L 106.752808 -258.229156 
L 106.730335 -255.749674 
L 106.702207 -253.270191 
L 106.669589 -250.790708 
L 106.633531 -248.311225 
L 106.594919 -245.831743 
L 106.554466 -243.35226 
L 106.512716 -240.872777 
L 106.470064 -238.393294 
L 106.426794 -235.913812 
L 106.383111 -233.434329 
L 106.339183 -230.954846 
L 106.295176 -228.475363 
L 106.251273 -225.995881 
L 106.207698 -223.516398 
L 106.164722 -221.036915 
L 106.122656 -218.557433 
L 106.081853 -216.07795 
L 106.042688 -213.598467 
L 106.005551 -211.118984 
L 105.970836 -208.639502 
L 105.938936 -206.160019 
L 105.910242 -203.680536 
L 105.885159 -201.201053 
L 105.864119 -198.721571 
L 105.847611 -196.242088 
L 105.836211 -193.762605 
L 105.830614 -191.283122 
L 105.831664 -188.80364 
L 105.840374 -186.324157 
L 105.857928 -183.844674 
L 105.885663 -181.365192 
L 105.925025 -178.885709 
L 105.977491 -176.406226 
L 106.04447 -173.926743 
L 106.127176 -171.447261 
L 106.226486 -168.967778 
L 106.342802 -166.488295 
L 106.475915 -164.008812 
L 106.624903 -161.52933 
L 106.788062 -159.049847 
L 106.962895 -156.570364 
L 107.146143 -154.090881 
L 107.333872 -151.611399 
L 107.521608 -149.131916 
L 107.704498 -146.652433 
L 107.877503 -144.17295 
L 108.035597 -141.693468 
L 108.173959 -139.213985 
L 108.288176 -136.734502 
L 108.374417 -134.25502 
L 108.429603 -131.775537 
L 108.451563 -129.296054 
L 108.439153 -126.816571 
L 108.392361 -124.337089 
L 108.312352 -121.857606 
L 108.20147 -119.378123 
L 108.063171 -116.89864 
L 107.901877 -114.419158 
L 107.722775 -111.939675 
L 107.531543 -109.460192 
L 107.334044 -106.980709 
L 107.136011 -104.501227 
L 106.942738 -102.021744 
L 106.758821 -99.542261 
L 106.587969 -97.062778 
L 106.432884 -94.583296 
L 106.295236 -92.103813 
L 106.175715 -89.62433 
L 106.074139 -87.144848 
L 105.989621 -84.665365 
L 105.920749 -82.185882 
L 105.865772 -79.706399 
L 105.822774 -77.226917 
L 105.789817 -74.747434 
L 105.765059 -72.267951 
z
" style="stroke: #4c4c4c; stroke-width: 1.5"/>
    </defs>
    <g clip-path="url(#p3729212c72)">
     <use xlink:href="#mc86e05fd6b" x="0" y="347.739687" style="fill: #cc8963; stroke: #4c4c4c; stroke-width: 1.5"/>
    </g>
   </g>
   <g id="PolyCollection_3">
    <defs>
     <path id="mda22782cc4" d="M 199.066488 -100.987391 
L 198.705661 -100.987391 
L 198.409399 -102.234428 
L 197.915396 -103.481466 
L 197.128277 -104.728504 
L 195.932176 -105.975541 
L 194.202438 -107.222579 
L 191.827761 -108.469616 
L 188.742016 -109.716654 
L 184.960782 -110.963691 
L 180.613048 -112.210729 
L 175.955763 -113.457767 
L 171.360027 -114.704804 
L 167.263966 -115.951842 
L 164.097563 -117.198879 
L 162.195616 -118.445917 
L 161.72205 -119.692954 
L 162.628134 -120.939992 
L 164.658295 -122.187029 
L 167.402775 -123.434067 
L 170.382142 -124.681105 
L 173.139945 -125.928142 
L 175.319613 -127.17518 
L 176.709352 -128.422217 
L 177.250327 -129.669255 
L 177.014296 -130.916292 
L 176.16335 -132.16333 
L 174.905562 -133.410368 
L 173.457154 -134.657405 
L 172.016578 -135.904443 
L 170.750891 -137.15148 
L 169.791371 -138.398518 
L 169.234031 -139.645555 
L 169.141159 -140.892593 
L 169.541722 -142.139631 
L 170.430536 -143.386668 
L 171.767679 -144.633706 
L 173.480238 -145.880743 
L 175.467861 -147.127781 
L 177.612176 -148.374818 
L 179.788582 -149.621856 
L 181.878023 -150.868894 
L 183.776456 -152.115931 
L 185.400825 -153.362969 
L 186.691811 -154.610006 
L 187.614818 -155.857044 
L 188.16095 -157.104081 
L 188.349012 -158.351119 
L 188.228066 -159.598157 
L 187.878566 -160.845194 
L 187.409281 -162.092232 
L 186.947744 -163.339269 
L 186.623959 -164.586307 
L 186.549757 -165.833344 
L 186.798631 -167.080382 
L 187.391703 -168.327419 
L 188.294292 -169.574457 
L 189.424487 -170.821495 
L 190.671506 -172.068532 
L 191.91875 -173.31557 
L 193.065471 -174.562607 
L 194.042037 -175.809645 
L 194.816251 -177.056682 
L 195.390966 -178.30372 
L 195.795351 -179.550758 
L 196.073136 -180.797795 
L 196.271022 -182.044833 
L 196.42959 -183.29187 
L 196.577927 -184.538908 
L 196.732128 -185.785945 
L 196.896989 -187.032983 
L 197.069675 -188.280021 
L 197.243937 -189.527058 
L 197.41365 -190.774096 
L 197.574879 -192.021133 
L 197.726324 -193.268171 
L 197.868503 -194.515208 
L 198.00239 -195.762246 
L 198.128157 -197.009284 
L 198.244522 -198.256321 
L 198.348789 -199.503359 
L 198.437505 -200.750396 
L 198.507426 -201.997434 
L 198.556547 -203.244471 
L 198.584915 -204.491509 
L 198.595063 -205.738547 
L 198.59192 -206.985584 
L 198.582196 -208.232622 
L 198.573299 -209.479659 
L 198.572045 -210.726697 
L 198.583425 -211.973734 
L 198.609774 -213.220772 
L 198.650527 -214.467809 
L 198.702606 -215.714847 
L 198.761303 -216.961885 
L 198.821389 -218.208922 
L 198.878142 -219.45596 
L 198.928077 -220.702997 
L 198.969254 -221.950035 
L 199.00121 -223.197072 
L 199.024617 -224.44411 
L 199.066488 -224.44411 
L 199.066488 -224.44411 
L 199.066488 -223.197072 
L 199.066488 -221.950035 
L 199.066488 -220.702997 
L 199.066488 -219.45596 
L 199.066488 -218.208922 
L 199.066488 -216.961885 
L 199.066488 -215.714847 
L 199.066488 -214.467809 
L 199.066488 -213.220772 
L 199.066488 -211.973734 
L 199.066488 -210.726697 
L 199.066488 -209.479659 
L 199.066488 -208.232622 
L 199.066488 -206.985584 
L 199.066488 -205.738547 
L 199.066488 -204.491509 
L 199.066488 -203.244471 
L 199.066488 -201.997434 
L 199.066488 -200.750396 
L 199.066488 -199.503359 
L 199.066488 -198.256321 
L 199.066488 -197.009284 
L 199.066488 -195.762246 
L 199.066488 -194.515208 
L 199.066488 -193.268171 
L 199.066488 -192.021133 
L 199.066488 -190.774096 
L 199.066488 -189.527058 
L 199.066488 -188.280021 
L 199.066488 -187.032983 
L 199.066488 -185.785945 
L 199.066488 -184.538908 
L 199.066488 -183.29187 
L 199.066488 -182.044833 
L 199.066488 -180.797795 
L 199.066488 -179.550758 
L 199.066488 -178.30372 
L 199.066488 -177.056682 
L 199.066488 -175.809645 
L 199.066488 -174.562607 
L 199.066488 -173.31557 
L 199.066488 -172.068532 
L 199.066488 -170.821495 
L 199.066488 -169.574457 
L 199.066488 -168.327419 
L 199.066488 -167.080382 
L 199.066488 -165.833344 
L 199.066488 -164.586307 
L 199.066488 -163.339269 
L 199.066488 -162.092232 
L 199.066488 -160.845194 
L 199.066488 -159.598157 
L 199.066488 -158.351119 
L 199.066488 -157.104081 
L 199.066488 -155.857044 
L 199.066488 -154.610006 
L 199.066488 -153.362969 
L 199.066488 -152.115931 
L 199.066488 -150.868894 
L 199.066488 -149.621856 
L 199.066488 -148.374818 
L 199.066488 -147.127781 
L 199.066488 -145.880743 
L 199.066488 -144.633706 
L 199.066488 -143.386668 
L 199.066488 -142.139631 
L 199.066488 -140.892593 
L 199.066488 -139.645555 
L 199.066488 -138.398518 
L 199.066488 -137.15148 
L 199.066488 -135.904443 
L 199.066488 -134.657405 
L 199.066488 -133.410368 
L 199.066488 -132.16333 
L 199.066488 -130.916292 
L 199.066488 -129.669255 
L 199.066488 -128.422217 
L 199.066488 -127.17518 
L 199.066488 -125.928142 
L 199.066488 -124.681105 
L 199.066488 -123.434067 
L 199.066488 -122.187029 
L 199.066488 -120.939992 
L 199.066488 -119.692954 
L 199.066488 -118.445917 
L 199.066488 -117.198879 
L 199.066488 -115.951842 
L 199.066488 -114.704804 
L 199.066488 -113.457767 
L 199.066488 -112.210729 
L 199.066488 -110.963691 
L 199.066488 -109.716654 
L 199.066488 -108.469616 
L 199.066488 -107.222579 
L 199.066488 -105.975541 
L 199.066488 -104.728504 
L 199.066488 -103.481466 
L 199.066488 -102.234428 
L 199.066488 -100.987391 
z
" style="stroke: #4c4c4c; stroke-width: 1.5"/>
    </defs>
    <g clip-path="url(#p3729212c72)">
     <use xlink:href="#mda22782cc4" x="0" y="347.739687" style="fill: #5875a4; stroke: #4c4c4c; stroke-width: 1.5"/>
    </g>
   </g>
   <g id="PolyCollection_4">
    <defs>
     <path id="m1194b07190" d="M 199.551367 -76.948547 
L 199.066488 -76.948547 
L 199.066488 -79.291867 
L 199.066488 -81.635186 
L 199.066488 -83.978506 
L 199.066488 -86.321826 
L 199.066488 -88.665145 
L 199.066488 -91.008465 
L 199.066488 -93.351784 
L 199.066488 -95.695104 
L 199.066488 -98.038424 
L 199.066488 -100.381743 
L 199.066488 -102.725063 
L 199.066488 -105.068382 
L 199.066488 -107.411702 
L 199.066488 -109.755021 
L 199.066488 -112.098341 
L 199.066488 -114.441661 
L 199.066488 -116.78498 
L 199.066488 -119.1283 
L 199.066488 -121.471619 
L 199.066488 -123.814939 
L 199.066488 -126.158259 
L 199.066488 -128.501578 
L 199.066488 -130.844898 
L 199.066488 -133.188217 
L 199.066488 -135.531537 
L 199.066488 -137.874856 
L 199.066488 -140.218176 
L 199.066488 -142.561496 
L 199.066488 -144.904815 
L 199.066488 -147.248135 
L 199.066488 -149.591454 
L 199.066488 -151.934774 
L 199.066488 -154.278094 
L 199.066488 -156.621413 
L 199.066488 -158.964733 
L 199.066488 -161.308052 
L 199.066488 -163.651372 
L 199.066488 -165.994691 
L 199.066488 -168.338011 
L 199.066488 -170.681331 
L 199.066488 -173.02465 
L 199.066488 -175.36797 
L 199.066488 -177.711289 
L 199.066488 -180.054609 
L 199.066488 -182.397928 
L 199.066488 -184.741248 
L 199.066488 -187.084568 
L 199.066488 -189.427887 
L 199.066488 -191.771207 
L 199.066488 -194.114526 
L 199.066488 -196.457846 
L 199.066488 -198.801166 
L 199.066488 -201.144485 
L 199.066488 -203.487805 
L 199.066488 -205.831124 
L 199.066488 -208.174444 
L 199.066488 -210.517763 
L 199.066488 -212.861083 
L 199.066488 -215.204403 
L 199.066488 -217.547722 
L 199.066488 -219.891042 
L 199.066488 -222.234361 
L 199.066488 -224.577681 
L 199.066488 -226.921001 
L 199.066488 -229.26432 
L 199.066488 -231.60764 
L 199.066488 -233.950959 
L 199.066488 -236.294279 
L 199.066488 -238.637598 
L 199.066488 -240.980918 
L 199.066488 -243.324238 
L 199.066488 -245.667557 
L 199.066488 -248.010877 
L 199.066488 -250.354196 
L 199.066488 -252.697516 
L 199.066488 -255.040836 
L 199.066488 -257.384155 
L 199.066488 -259.727475 
L 199.066488 -262.070794 
L 199.066488 -264.414114 
L 199.066488 -266.757433 
L 199.066488 -269.100753 
L 199.066488 -271.444073 
L 199.066488 -273.787392 
L 199.066488 -276.130712 
L 199.066488 -278.474031 
L 199.066488 -280.817351 
L 199.066488 -283.16067 
L 199.066488 -285.50399 
L 199.066488 -287.84731 
L 199.066488 -290.190629 
L 199.066488 -292.533949 
L 199.066488 -294.877268 
L 199.066488 -297.220588 
L 199.066488 -299.563908 
L 199.066488 -301.907227 
L 199.066488 -304.250547 
L 199.066488 -306.593866 
L 199.066488 -308.937186 
L 199.293053 -308.937186 
L 199.293053 -308.937186 
L 199.383157 -306.593866 
L 199.501121 -304.250547 
L 199.65234 -301.907227 
L 199.842096 -299.563908 
L 200.075125 -297.220588 
L 200.355079 -294.877268 
L 200.683968 -292.533949 
L 201.061595 -290.190629 
L 201.485081 -287.84731 
L 201.948535 -285.50399 
L 202.442943 -283.16067 
L 202.956325 -280.817351 
L 203.47419 -278.474031 
L 203.980269 -276.130712 
L 204.457497 -273.787392 
L 204.889145 -271.444073 
L 205.260007 -269.100753 
L 205.557515 -266.757433 
L 205.772658 -264.414114 
L 205.900606 -262.070794 
L 205.940975 -259.727475 
L 205.897694 -257.384155 
L 205.778509 -255.040836 
L 205.594169 -252.697516 
L 205.357412 -250.354196 
L 205.081855 -248.010877 
L 204.780912 -245.667557 
L 204.466857 -243.324238 
L 204.150105 -240.980918 
L 203.838776 -238.637598 
L 203.538541 -236.294279 
L 203.252739 -233.950959 
L 202.98271 -231.60764 
L 202.72826 -229.26432 
L 202.488203 -226.921001 
L 202.260884 -224.577681 
L 202.04463 -222.234361 
L 201.838088 -219.891042 
L 201.640426 -217.547722 
L 201.451414 -215.204403 
L 201.271392 -212.861083 
L 201.101178 -210.517763 
L 200.941952 -208.174444 
L 200.795151 -205.831124 
L 200.662426 -203.487805 
L 200.545668 -201.144485 
L 200.447122 -198.801166 
L 200.369585 -196.457846 
L 200.316653 -194.114526 
L 200.293008 -191.771207 
L 200.304679 -189.427887 
L 200.359238 -187.084568 
L 200.465878 -184.741248 
L 200.635292 -182.397928 
L 200.879345 -180.054609 
L 201.210465 -177.711289 
L 201.64078 -175.36797 
L 202.181017 -173.02465 
L 202.839239 -170.681331 
L 203.619548 -168.338011 
L 204.520906 -165.994691 
L 205.536231 -163.651372 
L 206.651958 -161.308052 
L 207.848157 -158.964733 
L 209.099274 -156.621413 
L 210.375447 -154.278094 
L 211.644248 -151.934774 
L 212.872655 -149.591454 
L 214.028964 -147.248135 
L 215.084402 -144.904815 
L 216.014234 -142.561496 
L 216.798264 -140.218176 
L 217.420777 -137.874856 
L 217.870044 -135.531537 
L 218.137645 -133.188217 
L 218.217867 -130.844898 
L 218.107398 -128.501578 
L 217.805457 -126.158259 
L 217.314363 -123.814939 
L 216.640405 -121.471619 
L 215.794799 -119.1283 
L 214.794427 -116.78498 
L 213.662119 -114.441661 
L 212.426276 -112.098341 
L 211.119793 -109.755021 
L 209.778342 -107.411702 
L 208.438224 -105.068382 
L 207.13407 -102.725063 
L 205.896676 -100.381743 
L 204.75125 -98.038424 
L 203.716264 -95.695104 
L 202.802986 -93.351784 
L 202.015691 -91.008465 
L 201.352425 -88.665145 
L 200.806181 -86.321826 
L 200.366278 -83.978506 
L 200.01977 -81.635186 
L 199.752739 -79.291867 
L 199.551367 -76.948547 
z
" style="stroke: #4c4c4c; stroke-width: 1.5"/>
    </defs>
    <g clip-path="url(#p3729212c72)">
     <use xlink:href="#m1194b07190" x="0" y="347.739687" style="fill: #cc8963; stroke: #4c4c4c; stroke-width: 1.5"/>
    </g>
   </g>
   <g id="PolyCollection_5">
    <defs>
     <path id="m1bc82b05d9" d="M 292.427584 -76.108987 
L 289.754836 -76.108987 
L 288.893485 -78.579822 
L 287.827157 -81.050657 
L 286.532128 -83.521492 
L 284.989901 -85.992327 
L 283.189957 -88.463162 
L 281.13255 -90.933997 
L 278.831276 -93.404832 
L 276.315072 -95.875668 
L 273.629337 -98.346503 
L 270.835884 -100.817338 
L 268.0115 -103.288173 
L 265.24503 -105.759008 
L 262.633081 -108.229843 
L 260.274551 -110.700678 
L 258.264414 -113.171513 
L 256.687279 -115.642349 
L 255.611313 -118.113184 
L 255.083146 -120.584019 
L 255.124251 -123.054854 
L 255.729202 -125.525689 
L 256.86598 -127.996524 
L 258.478282 -130.467359 
L 260.4896 -132.938194 
L 262.808624 -135.40903 
L 265.335435 -137.879865 
L 267.967879 -140.3507 
L 270.607568 -142.821535 
L 273.165019 -145.29237 
L 275.563608 -147.763205 
L 277.742151 -150.23404 
L 279.65612 -152.704875 
L 281.277609 -155.175711 
L 282.59428 -157.646546 
L 283.607587 -160.117381 
L 284.330558 -162.588216 
L 284.785408 -165.059051 
L 285.001198 -167.529886 
L 285.01167 -170.000721 
L 284.853348 -172.471556 
L 284.563902 -174.942392 
L 284.180765 -177.413227 
L 283.739953 -179.884062 
L 283.275039 -182.354897 
L 282.816249 -184.825732 
L 282.389672 -187.296567 
L 282.016583 -189.767402 
L 281.712914 -192.238237 
L 281.488916 -194.709073 
L 281.34903 -197.179908 
L 281.292016 -199.650743 
L 281.311335 -202.121578 
L 281.395776 -204.592413 
L 281.530293 -207.063248 
L 281.697003 -209.534083 
L 281.876275 -212.004918 
L 282.047858 -214.475754 
L 282.191967 -216.946589 
L 282.290296 -219.417424 
L 282.32691 -221.888259 
L 282.289 -224.359094 
L 282.167482 -226.829929 
L 281.957461 -229.300764 
L 281.658528 -231.771599 
L 281.274921 -234.242435 
L 280.815525 -236.71327 
L 280.293704 -239.184105 
L 279.726958 -241.65494 
L 279.136379 -244.125775 
L 278.545902 -246.59661 
L 277.981369 -249.067445 
L 277.469403 -251.53828 
L 277.036168 -254.009116 
L 276.706044 -256.479951 
L 276.500332 -258.950786 
L 276.436055 -261.421621 
L 276.524958 -263.892456 
L 276.772792 -266.363291 
L 277.178937 -268.834126 
L 277.736421 -271.304961 
L 278.43231 -273.775797 
L 279.248479 -276.246632 
L 280.162667 -278.717467 
L 281.149764 -281.188302 
L 282.183204 -283.659137 
L 283.236373 -286.129972 
L 284.283922 -288.600807 
L 285.302897 -291.071642 
L 286.273629 -293.542478 
L 287.180322 -296.013313 
L 288.011356 -298.484148 
L 288.759294 -300.954983 
L 289.420646 -303.425818 
L 289.99543 -305.896653 
L 290.486597 -308.367488 
L 290.899387 -310.838323 
L 291.24066 -313.309159 
L 291.518264 -315.779994 
L 291.740476 -318.250829 
L 291.915533 -320.721664 
L 292.427584 -320.721664 
L 292.427584 -320.721664 
L 292.427584 -318.250829 
L 292.427584 -315.779994 
L 292.427584 -313.309159 
L 292.427584 -310.838323 
L 292.427584 -308.367488 
L 292.427584 -305.896653 
L 292.427584 -303.425818 
L 292.427584 -300.954983 
L 292.427584 -298.484148 
L 292.427584 -296.013313 
L 292.427584 -293.542478 
L 292.427584 -291.071642 
L 292.427584 -288.600807 
L 292.427584 -286.129972 
L 292.427584 -283.659137 
L 292.427584 -281.188302 
L 292.427584 -278.717467 
L 292.427584 -276.246632 
L 292.427584 -273.775797 
L 292.427584 -271.304961 
L 292.427584 -268.834126 
L 292.427584 -266.363291 
L 292.427584 -263.892456 
L 292.427584 -261.421621 
L 292.427584 -258.950786 
L 292.427584 -256.479951 
L 292.427584 -254.009116 
L 292.427584 -251.53828 
L 292.427584 -249.067445 
L 292.427584 -246.59661 
L 292.427584 -244.125775 
L 292.427584 -241.65494 
L 292.427584 -239.184105 
L 292.427584 -236.71327 
L 292.427584 -234.242435 
L 292.427584 -231.771599 
L 292.427584 -229.300764 
L 292.427584 -226.829929 
L 292.427584 -224.359094 
L 292.427584 -221.888259 
L 292.427584 -219.417424 
L 292.427584 -216.946589 
L 292.427584 -214.475754 
L 292.427584 -212.004918 
L 292.427584 -209.534083 
L 292.427584 -207.063248 
L 292.427584 -204.592413 
L 292.427584 -202.121578 
L 292.427584 -199.650743 
L 292.427584 -197.179908 
L 292.427584 -194.709073 
L 292.427584 -192.238237 
L 292.427584 -189.767402 
L 292.427584 -187.296567 
L 292.427584 -184.825732 
L 292.427584 -182.354897 
L 292.427584 -179.884062 
L 292.427584 -177.413227 
L 292.427584 -174.942392 
L 292.427584 -172.471556 
L 292.427584 -170.000721 
L 292.427584 -167.529886 
L 292.427584 -165.059051 
L 292.427584 -162.588216 
L 292.427584 -160.117381 
L 292.427584 -157.646546 
L 292.427584 -155.175711 
L 292.427584 -152.704875 
L 292.427584 -150.23404 
L 292.427584 -147.763205 
L 292.427584 -145.29237 
L 292.427584 -142.821535 
L 292.427584 -140.3507 
L 292.427584 -137.879865 
L 292.427584 -135.40903 
L 292.427584 -132.938194 
L 292.427584 -130.467359 
L 292.427584 -127.996524 
L 292.427584 -125.525689 
L 292.427584 -123.054854 
L 292.427584 -120.584019 
L 292.427584 -118.113184 
L 292.427584 -115.642349 
L 292.427584 -113.171513 
L 292.427584 -110.700678 
L 292.427584 -108.229843 
L 292.427584 -105.759008 
L 292.427584 -103.288173 
L 292.427584 -100.817338 
L 292.427584 -98.346503 
L 292.427584 -95.875668 
L 292.427584 -93.404832 
L 292.427584 -90.933997 
L 292.427584 -88.463162 
L 292.427584 -85.992327 
L 292.427584 -83.521492 
L 292.427584 -81.050657 
L 292.427584 -78.579822 
L 292.427584 -76.108987 
z
" style="stroke: #4c4c4c; stroke-width: 1.5"/>
    </defs>
    <g clip-path="url(#p3729212c72)">
     <use xlink:href="#m1bc82b05d9" x="0" y="347.739687" style="fill: #5875a4; stroke: #4c4c4c; stroke-width: 1.5"/>
    </g>
   </g>
   <g id="PolyCollection_6">
    <defs>
     <path id="md050aee67f" d="M 293.606367 -56.486051 
L 292.427584 -56.486051 
L 292.427584 -59.21865 
L 292.427584 -61.951249 
L 292.427584 -64.683847 
L 292.427584 -67.416446 
L 292.427584 -70.149045 
L 292.427584 -72.881643 
L 292.427584 -75.614242 
L 292.427584 -78.346841 
L 292.427584 -81.07944 
L 292.427584 -83.812038 
L 292.427584 -86.544637 
L 292.427584 -89.277236 
L 292.427584 -92.009834 
L 292.427584 -94.742433 
L 292.427584 -97.475032 
L 292.427584 -100.207631 
L 292.427584 -102.940229 
L 292.427584 -105.672828 
L 292.427584 -108.405427 
L 292.427584 -111.138025 
L 292.427584 -113.870624 
L 292.427584 -116.603223 
L 292.427584 -119.335822 
L 292.427584 -122.06842 
L 292.427584 -124.801019 
L 292.427584 -127.533618 
L 292.427584 -130.266216 
L 292.427584 -132.998815 
L 292.427584 -135.731414 
L 292.427584 -138.464013 
L 292.427584 -141.196611 
L 292.427584 -143.92921 
L 292.427584 -146.661809 
L 292.427584 -149.394407 
L 292.427584 -152.127006 
L 292.427584 -154.859605 
L 292.427584 -157.592204 
L 292.427584 -160.324802 
L 292.427584 -163.057401 
L 292.427584 -165.79 
L 292.427584 -168.522598 
L 292.427584 -171.255197 
L 292.427584 -173.987796 
L 292.427584 -176.720395 
L 292.427584 -179.452993 
L 292.427584 -182.185592 
L 292.427584 -184.918191 
L 292.427584 -187.650789 
L 292.427584 -190.383388 
L 292.427584 -193.115987 
L 292.427584 -195.848586 
L 292.427584 -198.581184 
L 292.427584 -201.313783 
L 292.427584 -204.046382 
L 292.427584 -206.77898 
L 292.427584 -209.511579 
L 292.427584 -212.244178 
L 292.427584 -214.976777 
L 292.427584 -217.709375 
L 292.427584 -220.441974 
L 292.427584 -223.174573 
L 292.427584 -225.907171 
L 292.427584 -228.63977 
L 292.427584 -231.372369 
L 292.427584 -234.104968 
L 292.427584 -236.837566 
L 292.427584 -239.570165 
L 292.427584 -242.302764 
L 292.427584 -245.035362 
L 292.427584 -247.767961 
L 292.427584 -250.50056 
L 292.427584 -253.233159 
L 292.427584 -255.965757 
L 292.427584 -258.698356 
L 292.427584 -261.430955 
L 292.427584 -264.163553 
L 292.427584 -266.896152 
L 292.427584 -269.628751 
L 292.427584 -272.36135 
L 292.427584 -275.093948 
L 292.427584 -277.826547 
L 292.427584 -280.559146 
L 292.427584 -283.291744 
L 292.427584 -286.024343 
L 292.427584 -288.756942 
L 292.427584 -291.489541 
L 292.427584 -294.222139 
L 292.427584 -296.954738 
L 292.427584 -299.687337 
L 292.427584 -302.419935 
L 292.427584 -305.152534 
L 292.427584 -307.885133 
L 292.427584 -310.617732 
L 292.427584 -313.35033 
L 292.427584 -316.082929 
L 292.427584 -318.815528 
L 292.427584 -321.548126 
L 292.427584 -324.280725 
L 292.427584 -327.013324 
L 293.281608 -327.013324 
L 293.281608 -327.013324 
L 293.550479 -324.280725 
L 293.883694 -321.548126 
L 294.28999 -318.815528 
L 294.77734 -316.082929 
L 295.352316 -313.35033 
L 296.019407 -310.617732 
L 296.78034 -307.885133 
L 297.633456 -305.152534 
L 298.573218 -302.419935 
L 299.589889 -299.687337 
L 300.669465 -296.954738 
L 301.793861 -294.222139 
L 302.941396 -291.489541 
L 304.087551 -288.756942 
L 305.205959 -286.024343 
L 306.269583 -283.291744 
L 307.251975 -280.559146 
L 308.128552 -277.826547 
L 308.877782 -275.093948 
L 309.482193 -272.36135 
L 309.929149 -269.628751 
L 310.211332 -266.896152 
L 310.326925 -264.163553 
L 310.279476 -261.430955 
L 310.077497 -258.698356 
L 309.733821 -255.965757 
L 309.264778 -253.233159 
L 308.689263 -250.50056 
L 308.027744 -247.767961 
L 307.301279 -245.035362 
L 306.530587 -242.302764 
L 305.735224 -239.570165 
L 304.932888 -236.837566 
L 304.138882 -234.104968 
L 303.365751 -231.372369 
L 302.623097 -228.63977 
L 301.917561 -225.907171 
L 301.252977 -223.174573 
L 300.630666 -220.441974 
L 300.049855 -217.709375 
L 299.508182 -214.976777 
L 299.002264 -212.244178 
L 298.52829 -209.511579 
L 298.082607 -206.77898 
L 297.662274 -204.046382 
L 297.265565 -201.313783 
L 296.892404 -198.581184 
L 296.54473 -195.848586 
L 296.226781 -193.115987 
L 295.945316 -190.383388 
L 295.709758 -187.650789 
L 295.532265 -184.918191 
L 295.427704 -182.185592 
L 295.413515 -179.452993 
L 295.509423 -176.720395 
L 295.736956 -173.987796 
L 296.118719 -171.255197 
L 296.677391 -168.522598 
L 297.434422 -165.79 
L 298.408435 -163.057401 
L 299.613389 -160.324802 
L 301.056594 -157.592204 
L 302.736724 -154.859605 
L 304.642018 -152.127006 
L 306.748873 -149.394407 
L 309.021057 -146.661809 
L 311.409733 -143.92921 
L 313.854432 -141.196611 
L 316.285045 -138.464013 
L 318.624784 -135.731414 
L 320.793972 -132.998815 
L 322.714403 -130.266216 
L 324.313938 -127.533618 
L 325.530946 -124.801019 
L 326.318196 -122.06842 
L 326.645848 -119.335822 
L 326.503259 -116.603223 
L 325.899454 -113.870624 
L 324.862232 -111.138025 
L 323.436013 -108.405427 
L 321.678657 -105.672828 
L 319.65756 -102.940229 
L 317.445401 -100.207631 
L 315.115903 -97.475032 
L 312.739927 -94.742433 
L 310.382194 -92.009834 
L 308.098781 -89.277236 
L 305.935498 -86.544637 
L 303.927138 -83.812038 
L 302.097503 -81.07944 
L 300.4601 -78.346841 
L 299.019315 -75.614242 
L 297.771903 -72.881643 
L 296.708623 -70.149045 
L 295.815882 -67.416446 
L 295.077266 -64.683847 
L 294.474886 -61.951249 
L 293.990497 -59.21865 
L 293.606367 -56.486051 
z
" style="stroke: #4c4c4c; stroke-width: 1.5"/>
    </defs>
    <g clip-path="url(#p3729212c72)">
     <use xlink:href="#md050aee67f" x="0" y="347.739687" style="fill: #cc8963; stroke: #4c4c4c; stroke-width: 1.5"/>
    </g>
   </g>
   <g id="line2d_11">
    <path d="M 105.705392 240.626764 
L 105.705392 200.649087 
" clip-path="url(#p3729212c72)" style="fill: none; stroke: #4c4c4c; stroke-width: 1.5; stroke-linecap: round"/>
   </g>
   <g id="line2d_12">
    <path d="M 105.705392 227.343236 
L 105.705392 206.493337 
" clip-path="url(#p3729212c72)" style="fill: none; stroke: #4c4c4c; stroke-width: 4.5; stroke-linecap: round"/>
   </g>
   <g id="line2d_13">
    <path d="M 199.066488 237.593202 
L 199.066488 148.25403 
" clip-path="url(#p3729212c72)" style="fill: none; stroke: #4c4c4c; stroke-width: 1.5; stroke-linecap: round"/>
   </g>
   <g id="line2d_14">
    <path d="M 199.066488 227.401475 
L 199.066488 195.554815 
" clip-path="url(#p3729212c72)" style="fill: none; stroke: #4c4c4c; stroke-width: 4.5; stroke-linecap: round"/>
   </g>
   <g id="line2d_15">
    <path d="M 292.427584 246.635478 
L 292.427584 65.344522 
" clip-path="url(#p3729212c72)" style="fill: none; stroke: #4c4c4c; stroke-width: 1.5; stroke-linecap: round"/>
   </g>
   <g id="line2d_16">
    <path d="M 292.427584 226.508284 
L 292.427584 97.951191 
" clip-path="url(#p3729212c72)" style="fill: none; stroke: #4c4c4c; stroke-width: 4.5; stroke-linecap: round"/>
   </g>
   <g id="patch_5">
    <path d="M 59.024844 304.78 
L 59.024844 7.2 
" style="fill: none; stroke: #262626; stroke-width: 1.25; stroke-linejoin: miter; stroke-linecap: square"/>
   </g>
   <g id="patch_6">
    <path d="M 59.024844 304.78 
L 339.108133 304.78 
" style="fill: none; stroke: #262626; stroke-width: 1.25; stroke-linejoin: miter; stroke-linecap: square"/>
   </g>
   <g id="PathCollection_1">
    <defs>
     <path id="m5ce76db951" d="M 0 1.5 
C 0.397805 1.5 0.77937 1.341951 1.06066 1.06066 
C 1.341951 0.77937 1.5 0.397805 1.5 0 
C 1.5 -0.397805 1.341951 -0.77937 1.06066 -1.06066 
C 0.77937 -1.341951 0.397805 -1.5 0 -1.5 
C -0.397805 -1.5 -0.77937 -1.341951 -1.06066 -1.06066 
C -1.341951 -0.77937 -1.5 -0.397805 -1.5 0 
C -1.5 0.397805 -1.341951 0.77937 -1.06066 1.06066 
C -0.77937 1.341951 -0.397805 1.5 0 1.5 
z
" style="stroke: #4c4c4c"/>
    </defs>
    <g clip-path="url(#p3729212c72)">
     <use xlink:href="#m5ce76db951" x="105.705392" y="226.042048" style="fill: #ffffff; stroke: #4c4c4c"/>
    </g>
   </g>
   <g id="PathCollection_2">
    <g clip-path="url(#p3729212c72)">
     <use xlink:href="#m5ce76db951" x="199.066488" y="206.545706" style="fill: #ffffff; stroke: #4c4c4c"/>
    </g>
   </g>
   <g id="PathCollection_3">
    <g clip-path="url(#p3729212c72)">
     <use xlink:href="#m5ce76db951" x="292.427584" y="226.339262" style="fill: #ffffff; stroke: #4c4c4c"/>
    </g>
   </g>
  </g>
  <g id="legend_1">
   <g id="text_13">
    <!-- dim -->
    <g style="fill: #262626" transform="translate(354.932805 161.035156)scale(0.12 -0.12)">
     <defs>
      <path id="DejaVuSans-69" d="M 603 3500 
L 1178 3500 
L 1178 0 
L 603 0 
L 603 3500 
z
M 603 4863 
L 1178 4863 
L 1178 4134 
L 603 4134 
L 603 4863 
z
" transform="scale(0.015625)"/>
      <path id="DejaVuSans-6d" d="M 3328 2828 
Q 3544 3216 3844 3400 
Q 4144 3584 4550 3584 
Q 5097 3584 5394 3201 
Q 5691 2819 5691 2113 
L 5691 0 
L 5113 0 
L 5113 2094 
Q 5113 2597 4934 2840 
Q 4756 3084 4391 3084 
Q 3944 3084 3684 2787 
Q 3425 2491 3425 1978 
L 3425 0 
L 2847 0 
L 2847 2094 
Q 2847 2600 2669 2842 
Q 2491 3084 2119 3084 
Q 1678 3084 1418 2786 
Q 1159 2488 1159 1978 
L 1159 0 
L 581 0 
L 581 3500 
L 1159 3500 
L 1159 2956 
Q 1356 3278 1631 3431 
Q 1906 3584 2284 3584 
Q 2666 3584 2933 3390 
Q 3200 3197 3328 2828 
z
" transform="scale(0.015625)"/>
     </defs>
     <use xlink:href="#DejaVuSans-64"/>
     <use xlink:href="#DejaVuSans-69" x="63.476562"/>
     <use xlink:href="#DejaVuSans-6d" x="91.259766"/>
    </g>
   </g>
   <g id="patch_7">
    <path d="M 343.862101 177.389062 
L 365.862101 177.389062 
L 365.862101 169.689062 
L 343.862101 169.689062 
z
" style="fill: #5875a4; stroke: #4c4c4c; stroke-width: 0.75; stroke-linejoin: miter"/>
   </g>
   <g id="text_14">
    <!-- 2d -->
    <g style="fill: #262626" transform="translate(374.662101 177.389062)scale(0.11 -0.11)">
     <use xlink:href="#DejaVuSans-32"/>
     <use xlink:href="#DejaVuSans-64" x="63.623047"/>
    </g>
   </g>
   <g id="patch_8">
    <path d="M 343.862101 193.535 
L 365.862101 193.535 
L 365.862101 185.835 
L 343.862101 185.835 
z
" style="fill: #cc8963; stroke: #4c4c4c; stroke-width: 0.75; stroke-linejoin: miter"/>
   </g>
   <g id="text_15">
    <!-- 3d -->
    <g style="fill: #262626" transform="translate(374.662101 193.535)scale(0.11 -0.11)">
     <defs>
      <path id="DejaVuSans-33" d="M 2597 2516 
Q 3050 2419 3304 2112 
Q 3559 1806 3559 1356 
Q 3559 666 3084 287 
Q 2609 -91 1734 -91 
Q 1441 -91 1130 -33 
Q 819 25 488 141 
L 488 750 
Q 750 597 1062 519 
Q 1375 441 1716 441 
Q 2309 441 2620 675 
Q 2931 909 2931 1356 
Q 2931 1769 2642 2001 
Q 2353 2234 1838 2234 
L 1294 2234 
L 1294 2753 
L 1863 2753 
Q 2328 2753 2575 2939 
Q 2822 3125 2822 3475 
Q 2822 3834 2567 4026 
Q 2313 4219 1838 4219 
Q 1578 4219 1281 4162 
Q 984 4106 628 3988 
L 628 4550 
Q 988 4650 1302 4700 
Q 1616 4750 1894 4750 
Q 2613 4750 3031 4423 
Q 3450 4097 3450 3541 
Q 3450 3153 3228 2886 
Q 3006 2619 2597 2516 
z
" transform="scale(0.015625)"/>
     </defs>
     <use xlink:href="#DejaVuSans-33"/>
     <use xlink:href="#DejaVuSans-64" x="63.623047"/>
    </g>
   </g>
  </g>
 </g>
 <defs>
  <clipPath id="p3729212c72">
   <rect x="59.024844" y="7.2" width="280.083289" height="297.58"/>
  </clipPath>
 </defs>
</svg>
