<?xml version="1.0" encoding="utf-8" standalone="no"?>
<!DOCTYPE svg PUBLIC "-//W3C//DTD SVG 1.1//EN"
  "http://www.w3.org/Graphics/SVG/1.1/DTD/svg11.dtd">
<svg xmlns:xlink="http://www.w3.org/1999/xlink" width="398.400522pt" height="347.739687pt" viewBox="0 0 398.400522 347.739687" xmlns="http://www.w3.org/2000/svg" version="1.1">
 <metadata>
  <rdf:RDF xmlns:dc="http://purl.org/dc/elements/1.1/" xmlns:cc="http://creativecommons.org/ns#" xmlns:rdf="http://www.w3.org/1999/02/22-rdf-syntax-ns#">
   <cc:Work>
    <dc:type rdf:resource="http://purl.org/dc/dcmitype/StillImage"/>
    <dc:date>2022-03-28T16:33:40.927971</dc:date>
    <dc:format>image/svg+xml</dc:format>
    <dc:creator>
     <cc:Agent>
      <dc:title>Matplotlib v3.5.1, https://matplotlib.org/</dc:title>
     </cc:Agent>
    </dc:creator>
   </cc:Work>
  </rdf:RDF>
 </metadata>
 <defs>
  <style type="text/css">*{stroke-linejoin: round; stroke-linecap: butt}</style>
 </defs>
 <g id="figure_1">
  <g id="patch_1">
   <path d="M 0 347.739687 
L 398.400522 347.739687 
L 398.400522 0 
L 0 0 
z
" style="fill: #ffffff"/>
  </g>
  <g id="axes_1">
   <g id="patch_2">
    <path d="M 59.024844 304.78 
L 338.964522 304.78 
L 338.964522 7.2 
L 59.024844 7.2 
z
" style="fill: #ffffff"/>
   </g>
   <g id="matplotlib.axis_1">
    <g id="xtick_1">
     <g id="line2d_1">
      <defs>
       <path id="m53780d5404" d="M 0 0 
L 0 6 
" style="stroke: #262626; stroke-width: 1.25"/>
      </defs>
      <g>
       <use xlink:href="#m53780d5404" x="105.681457" y="304.78" style="fill: #262626; stroke: #262626; stroke-width: 1.25"/>
      </g>
     </g>
     <g id="text_1">
      <!-- teb -->
      <g style="fill: #262626" transform="translate(96.649425 322.638281)scale(0.11 -0.11)">
       <defs>
        <path id="DejaVuSans-74" d="M 1172 4494 
L 1172 3500 
L 2356 3500 
L 2356 3053 
L 1172 3053 
L 1172 1153 
Q 1172 725 1289 603 
Q 1406 481 1766 481 
L 2356 481 
L 2356 0 
L 1766 0 
Q 1100 0 847 248 
Q 594 497 594 1153 
L 594 3053 
L 172 3053 
L 172 3500 
L 594 3500 
L 594 4494 
L 1172 4494 
z
" transform="scale(0.015625)"/>
        <path id="DejaVuSans-65" d="M 3597 1894 
L 3597 1613 
L 953 1613 
Q 991 1019 1311 708 
Q 1631 397 2203 397 
Q 2534 397 2845 478 
Q 3156 559 3463 722 
L 3463 178 
Q 3153 47 2828 -22 
Q 2503 -91 2169 -91 
Q 1331 -91 842 396 
Q 353 884 353 1716 
Q 353 2575 817 3079 
Q 1281 3584 2069 3584 
Q 2775 3584 3186 3129 
Q 3597 2675 3597 1894 
z
M 3022 2063 
Q 3016 2534 2758 2815 
Q 2500 3097 2075 3097 
Q 1594 3097 1305 2825 
Q 1016 2553 972 2059 
L 3022 2063 
z
" transform="scale(0.015625)"/>
        <path id="DejaVuSans-62" d="M 3116 1747 
Q 3116 2381 2855 2742 
Q 2594 3103 2138 3103 
Q 1681 3103 1420 2742 
Q 1159 2381 1159 1747 
Q 1159 1113 1420 752 
Q 1681 391 2138 391 
Q 2594 391 2855 752 
Q 3116 1113 3116 1747 
z
M 1159 2969 
Q 1341 3281 1617 3432 
Q 1894 3584 2278 3584 
Q 2916 3584 3314 3078 
Q 3713 2572 3713 1747 
Q 3713 922 3314 415 
Q 2916 -91 2278 -91 
Q 1894 -91 1617 61 
Q 1341 213 1159 525 
L 1159 0 
L 581 0 
L 581 4863 
L 1159 4863 
L 1159 2969 
z
" transform="scale(0.015625)"/>
       </defs>
       <use xlink:href="#DejaVuSans-74"/>
       <use xlink:href="#DejaVuSans-65" x="39.208984"/>
       <use xlink:href="#DejaVuSans-62" x="100.732422"/>
      </g>
     </g>
    </g>
    <g id="xtick_2">
     <g id="line2d_2">
      <g>
       <use xlink:href="#m53780d5404" x="198.994683" y="304.78" style="fill: #262626; stroke: #262626; stroke-width: 1.25"/>
      </g>
     </g>
     <g id="text_2">
      <!-- dwa -->
      <g style="fill: #262626" transform="translate(187.634605 322.638281)scale(0.11 -0.11)">
       <defs>
        <path id="DejaVuSans-64" d="M 2906 2969 
L 2906 4863 
L 3481 4863 
L 3481 0 
L 2906 0 
L 2906 525 
Q 2725 213 2448 61 
Q 2172 -91 1784 -91 
Q 1150 -91 751 415 
Q 353 922 353 1747 
Q 353 2572 751 3078 
Q 1150 3584 1784 3584 
Q 2172 3584 2448 3432 
Q 2725 3281 2906 2969 
z
M 947 1747 
Q 947 1113 1208 752 
Q 1469 391 1925 391 
Q 2381 391 2643 752 
Q 2906 1113 2906 1747 
Q 2906 2381 2643 2742 
Q 2381 3103 1925 3103 
Q 1469 3103 1208 2742 
Q 947 2381 947 1747 
z
" transform="scale(0.015625)"/>
        <path id="DejaVuSans-77" d="M 269 3500 
L 844 3500 
L 1563 769 
L 2278 3500 
L 2956 3500 
L 3675 769 
L 4391 3500 
L 4966 3500 
L 4050 0 
L 3372 0 
L 2619 2869 
L 1863 0 
L 1184 0 
L 269 3500 
z
" transform="scale(0.015625)"/>
        <path id="DejaVuSans-61" d="M 2194 1759 
Q 1497 1759 1228 1600 
Q 959 1441 959 1056 
Q 959 750 1161 570 
Q 1363 391 1709 391 
Q 2188 391 2477 730 
Q 2766 1069 2766 1631 
L 2766 1759 
L 2194 1759 
z
M 3341 1997 
L 3341 0 
L 2766 0 
L 2766 531 
Q 2569 213 2275 61 
Q 1981 -91 1556 -91 
Q 1019 -91 701 211 
Q 384 513 384 1019 
Q 384 1609 779 1909 
Q 1175 2209 1959 2209 
L 2766 2209 
L 2766 2266 
Q 2766 2663 2505 2880 
Q 2244 3097 1772 3097 
Q 1472 3097 1187 3025 
Q 903 2953 641 2809 
L 641 3341 
Q 956 3463 1253 3523 
Q 1550 3584 1831 3584 
Q 2591 3584 2966 3190 
Q 3341 2797 3341 1997 
z
" transform="scale(0.015625)"/>
       </defs>
       <use xlink:href="#DejaVuSans-64"/>
       <use xlink:href="#DejaVuSans-77" x="63.476562"/>
       <use xlink:href="#DejaVuSans-61" x="145.263672"/>
      </g>
     </g>
    </g>
    <g id="xtick_3">
     <g id="line2d_3">
      <g>
       <use xlink:href="#m53780d5404" x="292.307909" y="304.78" style="fill: #262626; stroke: #262626; stroke-width: 1.25"/>
      </g>
     </g>
     <g id="text_3">
      <!-- rosnav -->
      <g style="fill: #262626" transform="translate(273.828768 322.638281)scale(0.11 -0.11)">
       <defs>
        <path id="DejaVuSans-72" d="M 2631 2963 
Q 2534 3019 2420 3045 
Q 2306 3072 2169 3072 
Q 1681 3072 1420 2755 
Q 1159 2438 1159 1844 
L 1159 0 
L 581 0 
L 581 3500 
L 1159 3500 
L 1159 2956 
Q 1341 3275 1631 3429 
Q 1922 3584 2338 3584 
Q 2397 3584 2469 3576 
Q 2541 3569 2628 3553 
L 2631 2963 
z
" transform="scale(0.015625)"/>
        <path id="DejaVuSans-6f" d="M 1959 3097 
Q 1497 3097 1228 2736 
Q 959 2375 959 1747 
Q 959 1119 1226 758 
Q 1494 397 1959 397 
Q 2419 397 2687 759 
Q 2956 1122 2956 1747 
Q 2956 2369 2687 2733 
Q 2419 3097 1959 3097 
z
M 1959 3584 
Q 2709 3584 3137 3096 
Q 3566 2609 3566 1747 
Q 3566 888 3137 398 
Q 2709 -91 1959 -91 
Q 1206 -91 779 398 
Q 353 888 353 1747 
Q 353 2609 779 3096 
Q 1206 3584 1959 3584 
z
" transform="scale(0.015625)"/>
        <path id="DejaVuSans-73" d="M 2834 3397 
L 2834 2853 
Q 2591 2978 2328 3040 
Q 2066 3103 1784 3103 
Q 1356 3103 1142 2972 
Q 928 2841 928 2578 
Q 928 2378 1081 2264 
Q 1234 2150 1697 2047 
L 1894 2003 
Q 2506 1872 2764 1633 
Q 3022 1394 3022 966 
Q 3022 478 2636 193 
Q 2250 -91 1575 -91 
Q 1294 -91 989 -36 
Q 684 19 347 128 
L 347 722 
Q 666 556 975 473 
Q 1284 391 1588 391 
Q 1994 391 2212 530 
Q 2431 669 2431 922 
Q 2431 1156 2273 1281 
Q 2116 1406 1581 1522 
L 1381 1569 
Q 847 1681 609 1914 
Q 372 2147 372 2553 
Q 372 3047 722 3315 
Q 1072 3584 1716 3584 
Q 2034 3584 2315 3537 
Q 2597 3491 2834 3397 
z
" transform="scale(0.015625)"/>
        <path id="DejaVuSans-6e" d="M 3513 2113 
L 3513 0 
L 2938 0 
L 2938 2094 
Q 2938 2591 2744 2837 
Q 2550 3084 2163 3084 
Q 1697 3084 1428 2787 
Q 1159 2491 1159 1978 
L 1159 0 
L 581 0 
L 581 3500 
L 1159 3500 
L 1159 2956 
Q 1366 3272 1645 3428 
Q 1925 3584 2291 3584 
Q 2894 3584 3203 3211 
Q 3513 2838 3513 2113 
z
" transform="scale(0.015625)"/>
        <path id="DejaVuSans-76" d="M 191 3500 
L 800 3500 
L 1894 563 
L 2988 3500 
L 3597 3500 
L 2284 0 
L 1503 0 
L 191 3500 
z
" transform="scale(0.015625)"/>
       </defs>
       <use xlink:href="#DejaVuSans-72"/>
       <use xlink:href="#DejaVuSans-6f" x="38.863281"/>
       <use xlink:href="#DejaVuSans-73" x="100.044922"/>
       <use xlink:href="#DejaVuSans-6e" x="152.144531"/>
       <use xlink:href="#DejaVuSans-61" x="215.523438"/>
       <use xlink:href="#DejaVuSans-76" x="276.802734"/>
      </g>
     </g>
    </g>
    <g id="text_4">
     <!-- Planner -->
     <g style="fill: #262626" transform="translate(176.269683 338.044062)scale(0.12 -0.12)">
      <defs>
       <path id="DejaVuSans-50" d="M 1259 4147 
L 1259 2394 
L 2053 2394 
Q 2494 2394 2734 2622 
Q 2975 2850 2975 3272 
Q 2975 3691 2734 3919 
Q 2494 4147 2053 4147 
L 1259 4147 
z
M 628 4666 
L 2053 4666 
Q 2838 4666 3239 4311 
Q 3641 3956 3641 3272 
Q 3641 2581 3239 2228 
Q 2838 1875 2053 1875 
L 1259 1875 
L 1259 0 
L 628 0 
L 628 4666 
z
" transform="scale(0.015625)"/>
       <path id="DejaVuSans-6c" d="M 603 4863 
L 1178 4863 
L 1178 0 
L 603 0 
L 603 4863 
z
" transform="scale(0.015625)"/>
      </defs>
      <use xlink:href="#DejaVuSans-50"/>
      <use xlink:href="#DejaVuSans-6c" x="60.302734"/>
      <use xlink:href="#DejaVuSans-61" x="88.085938"/>
      <use xlink:href="#DejaVuSans-6e" x="149.365234"/>
      <use xlink:href="#DejaVuSans-6e" x="212.744141"/>
      <use xlink:href="#DejaVuSans-65" x="276.123047"/>
      <use xlink:href="#DejaVuSans-72" x="337.646484"/>
     </g>
    </g>
   </g>
   <g id="matplotlib.axis_2">
    <g id="ytick_1">
     <g id="line2d_4">
      <defs>
       <path id="m617c9e436f" d="M 0 0 
L -6 0 
" style="stroke: #262626; stroke-width: 1.25"/>
      </defs>
      <g>
       <use xlink:href="#m617c9e436f" x="59.024844" y="286.863347" style="fill: #262626; stroke: #262626; stroke-width: 1.25"/>
      </g>
     </g>
     <g id="text_5">
      <!-- −0.1 -->
      <g style="fill: #262626" transform="translate(22.81375 291.042488)scale(0.11 -0.11)">
       <defs>
        <path id="DejaVuSans-2212" d="M 678 2272 
L 4684 2272 
L 4684 1741 
L 678 1741 
L 678 2272 
z
" transform="scale(0.015625)"/>
        <path id="DejaVuSans-30" d="M 2034 4250 
Q 1547 4250 1301 3770 
Q 1056 3291 1056 2328 
Q 1056 1369 1301 889 
Q 1547 409 2034 409 
Q 2525 409 2770 889 
Q 3016 1369 3016 2328 
Q 3016 3291 2770 3770 
Q 2525 4250 2034 4250 
z
M 2034 4750 
Q 2819 4750 3233 4129 
Q 3647 3509 3647 2328 
Q 3647 1150 3233 529 
Q 2819 -91 2034 -91 
Q 1250 -91 836 529 
Q 422 1150 422 2328 
Q 422 3509 836 4129 
Q 1250 4750 2034 4750 
z
" transform="scale(0.015625)"/>
        <path id="DejaVuSans-2e" d="M 684 794 
L 1344 794 
L 1344 0 
L 684 0 
L 684 794 
z
" transform="scale(0.015625)"/>
        <path id="DejaVuSans-31" d="M 794 531 
L 1825 531 
L 1825 4091 
L 703 3866 
L 703 4441 
L 1819 4666 
L 2450 4666 
L 2450 531 
L 3481 531 
L 3481 0 
L 794 0 
L 794 531 
z
" transform="scale(0.015625)"/>
       </defs>
       <use xlink:href="#DejaVuSans-2212"/>
       <use xlink:href="#DejaVuSans-30" x="83.789062"/>
       <use xlink:href="#DejaVuSans-2e" x="147.412109"/>
       <use xlink:href="#DejaVuSans-31" x="179.199219"/>
      </g>
     </g>
    </g>
    <g id="ytick_2">
     <g id="line2d_5">
      <g>
       <use xlink:href="#m617c9e436f" x="59.024844" y="253.552332" style="fill: #262626; stroke: #262626; stroke-width: 1.25"/>
      </g>
     </g>
     <g id="text_6">
      <!-- 0.0 -->
      <g style="fill: #262626" transform="translate(32.031406 257.731473)scale(0.11 -0.11)">
       <use xlink:href="#DejaVuSans-30"/>
       <use xlink:href="#DejaVuSans-2e" x="63.623047"/>
       <use xlink:href="#DejaVuSans-30" x="95.410156"/>
      </g>
     </g>
    </g>
    <g id="ytick_3">
     <g id="line2d_6">
      <g>
       <use xlink:href="#m617c9e436f" x="59.024844" y="220.241317" style="fill: #262626; stroke: #262626; stroke-width: 1.25"/>
      </g>
     </g>
     <g id="text_7">
      <!-- 0.1 -->
      <g style="fill: #262626" transform="translate(32.031406 224.420457)scale(0.11 -0.11)">
       <use xlink:href="#DejaVuSans-30"/>
       <use xlink:href="#DejaVuSans-2e" x="63.623047"/>
       <use xlink:href="#DejaVuSans-31" x="95.410156"/>
      </g>
     </g>
    </g>
    <g id="ytick_4">
     <g id="line2d_7">
      <g>
       <use xlink:href="#m617c9e436f" x="59.024844" y="186.930302" style="fill: #262626; stroke: #262626; stroke-width: 1.25"/>
      </g>
     </g>
     <g id="text_8">
      <!-- 0.2 -->
      <g style="fill: #262626" transform="translate(32.031406 191.109442)scale(0.11 -0.11)">
       <defs>
        <path id="DejaVuSans-32" d="M 1228 531 
L 3431 531 
L 3431 0 
L 469 0 
L 469 531 
Q 828 903 1448 1529 
Q 2069 2156 2228 2338 
Q 2531 2678 2651 2914 
Q 2772 3150 2772 3378 
Q 2772 3750 2511 3984 
Q 2250 4219 1831 4219 
Q 1534 4219 1204 4116 
Q 875 4013 500 3803 
L 500 4441 
Q 881 4594 1212 4672 
Q 1544 4750 1819 4750 
Q 2544 4750 2975 4387 
Q 3406 4025 3406 3419 
Q 3406 3131 3298 2873 
Q 3191 2616 2906 2266 
Q 2828 2175 2409 1742 
Q 1991 1309 1228 531 
z
" transform="scale(0.015625)"/>
       </defs>
       <use xlink:href="#DejaVuSans-30"/>
       <use xlink:href="#DejaVuSans-2e" x="63.623047"/>
       <use xlink:href="#DejaVuSans-32" x="95.410156"/>
      </g>
     </g>
    </g>
    <g id="ytick_5">
     <g id="line2d_8">
      <g>
       <use xlink:href="#m617c9e436f" x="59.024844" y="153.619286" style="fill: #262626; stroke: #262626; stroke-width: 1.25"/>
      </g>
     </g>
     <g id="text_9">
      <!-- 0.3 -->
      <g style="fill: #262626" transform="translate(32.031406 157.798427)scale(0.11 -0.11)">
       <defs>
        <path id="DejaVuSans-33" d="M 2597 2516 
Q 3050 2419 3304 2112 
Q 3559 1806 3559 1356 
Q 3559 666 3084 287 
Q 2609 -91 1734 -91 
Q 1441 -91 1130 -33 
Q 819 25 488 141 
L 488 750 
Q 750 597 1062 519 
Q 1375 441 1716 441 
Q 2309 441 2620 675 
Q 2931 909 2931 1356 
Q 2931 1769 2642 2001 
Q 2353 2234 1838 2234 
L 1294 2234 
L 1294 2753 
L 1863 2753 
Q 2328 2753 2575 2939 
Q 2822 3125 2822 3475 
Q 2822 3834 2567 4026 
Q 2313 4219 1838 4219 
Q 1578 4219 1281 4162 
Q 984 4106 628 3988 
L 628 4550 
Q 988 4650 1302 4700 
Q 1616 4750 1894 4750 
Q 2613 4750 3031 4423 
Q 3450 4097 3450 3541 
Q 3450 3153 3228 2886 
Q 3006 2619 2597 2516 
z
" transform="scale(0.015625)"/>
       </defs>
       <use xlink:href="#DejaVuSans-30"/>
       <use xlink:href="#DejaVuSans-2e" x="63.623047"/>
       <use xlink:href="#DejaVuSans-33" x="95.410156"/>
      </g>
     </g>
    </g>
    <g id="ytick_6">
     <g id="line2d_9">
      <g>
       <use xlink:href="#m617c9e436f" x="59.024844" y="120.308271" style="fill: #262626; stroke: #262626; stroke-width: 1.25"/>
      </g>
     </g>
     <g id="text_10">
      <!-- 0.4 -->
      <g style="fill: #262626" transform="translate(32.031406 124.487412)scale(0.11 -0.11)">
       <defs>
        <path id="DejaVuSans-34" d="M 2419 4116 
L 825 1625 
L 2419 1625 
L 2419 4116 
z
M 2253 4666 
L 3047 4666 
L 3047 1625 
L 3713 1625 
L 3713 1100 
L 3047 1100 
L 3047 0 
L 2419 0 
L 2419 1100 
L 313 1100 
L 313 1709 
L 2253 4666 
z
" transform="scale(0.015625)"/>
       </defs>
       <use xlink:href="#DejaVuSans-30"/>
       <use xlink:href="#DejaVuSans-2e" x="63.623047"/>
       <use xlink:href="#DejaVuSans-34" x="95.410156"/>
      </g>
     </g>
    </g>
    <g id="ytick_7">
     <g id="line2d_10">
      <g>
       <use xlink:href="#m617c9e436f" x="59.024844" y="86.997256" style="fill: #262626; stroke: #262626; stroke-width: 1.25"/>
      </g>
     </g>
     <g id="text_11">
      <!-- 0.5 -->
      <g style="fill: #262626" transform="translate(32.031406 91.176396)scale(0.11 -0.11)">
       <defs>
        <path id="DejaVuSans-35" d="M 691 4666 
L 3169 4666 
L 3169 4134 
L 1269 4134 
L 1269 2991 
Q 1406 3038 1543 3061 
Q 1681 3084 1819 3084 
Q 2600 3084 3056 2656 
Q 3513 2228 3513 1497 
Q 3513 744 3044 326 
Q 2575 -91 1722 -91 
Q 1428 -91 1123 -41 
Q 819 9 494 109 
L 494 744 
Q 775 591 1075 516 
Q 1375 441 1709 441 
Q 2250 441 2565 725 
Q 2881 1009 2881 1497 
Q 2881 1984 2565 2268 
Q 2250 2553 1709 2553 
Q 1456 2553 1204 2497 
Q 953 2441 691 2322 
L 691 4666 
z
" transform="scale(0.015625)"/>
       </defs>
       <use xlink:href="#DejaVuSans-30"/>
       <use xlink:href="#DejaVuSans-2e" x="63.623047"/>
       <use xlink:href="#DejaVuSans-35" x="95.410156"/>
      </g>
     </g>
    </g>
    <g id="ytick_8">
     <g id="line2d_11">
      <g>
       <use xlink:href="#m617c9e436f" x="59.024844" y="53.68624" style="fill: #262626; stroke: #262626; stroke-width: 1.25"/>
      </g>
     </g>
     <g id="text_12">
      <!-- 0.6 -->
      <g style="fill: #262626" transform="translate(32.031406 57.865381)scale(0.11 -0.11)">
       <defs>
        <path id="DejaVuSans-36" d="M 2113 2584 
Q 1688 2584 1439 2293 
Q 1191 2003 1191 1497 
Q 1191 994 1439 701 
Q 1688 409 2113 409 
Q 2538 409 2786 701 
Q 3034 994 3034 1497 
Q 3034 2003 2786 2293 
Q 2538 2584 2113 2584 
z
M 3366 4563 
L 3366 3988 
Q 3128 4100 2886 4159 
Q 2644 4219 2406 4219 
Q 1781 4219 1451 3797 
Q 1122 3375 1075 2522 
Q 1259 2794 1537 2939 
Q 1816 3084 2150 3084 
Q 2853 3084 3261 2657 
Q 3669 2231 3669 1497 
Q 3669 778 3244 343 
Q 2819 -91 2113 -91 
Q 1303 -91 875 529 
Q 447 1150 447 2328 
Q 447 3434 972 4092 
Q 1497 4750 2381 4750 
Q 2619 4750 2861 4703 
Q 3103 4656 3366 4563 
z
" transform="scale(0.015625)"/>
       </defs>
       <use xlink:href="#DejaVuSans-30"/>
       <use xlink:href="#DejaVuSans-2e" x="63.623047"/>
       <use xlink:href="#DejaVuSans-36" x="95.410156"/>
      </g>
     </g>
    </g>
    <g id="ytick_9">
     <g id="line2d_12">
      <g>
       <use xlink:href="#m617c9e436f" x="59.024844" y="20.375225" style="fill: #262626; stroke: #262626; stroke-width: 1.25"/>
      </g>
     </g>
     <g id="text_13">
      <!-- 0.7 -->
      <g style="fill: #262626" transform="translate(32.031406 24.554366)scale(0.11 -0.11)">
       <defs>
        <path id="DejaVuSans-37" d="M 525 4666 
L 3525 4666 
L 3525 4397 
L 1831 0 
L 1172 0 
L 2766 4134 
L 525 4134 
L 525 4666 
z
" transform="scale(0.015625)"/>
       </defs>
       <use xlink:href="#DejaVuSans-30"/>
       <use xlink:href="#DejaVuSans-2e" x="63.623047"/>
       <use xlink:href="#DejaVuSans-37" x="95.410156"/>
      </g>
     </g>
    </g>
    <g id="text_14">
     <!-- jerk -->
     <g style="fill: #262626" transform="translate(16.318125 167.289687)rotate(-90)scale(0.12 -0.12)">
      <defs>
       <path id="DejaVuSans-6a" d="M 603 3500 
L 1178 3500 
L 1178 -63 
Q 1178 -731 923 -1031 
Q 669 -1331 103 -1331 
L -116 -1331 
L -116 -844 
L 38 -844 
Q 366 -844 484 -692 
Q 603 -541 603 -63 
L 603 3500 
z
M 603 4863 
L 1178 4863 
L 1178 4134 
L 603 4134 
L 603 4863 
z
" transform="scale(0.015625)"/>
       <path id="DejaVuSans-6b" d="M 581 4863 
L 1159 4863 
L 1159 1991 
L 2875 3500 
L 3609 3500 
L 1753 1863 
L 3688 0 
L 2938 0 
L 1159 1709 
L 1159 0 
L 581 0 
L 581 4863 
z
" transform="scale(0.015625)"/>
      </defs>
      <use xlink:href="#DejaVuSans-6a"/>
      <use xlink:href="#DejaVuSans-65" x="27.783203"/>
      <use xlink:href="#DejaVuSans-72" x="89.306641"/>
      <use xlink:href="#DejaVuSans-6b" x="130.419922"/>
     </g>
    </g>
   </g>
   <g id="patch_3">
    <path d="M 105.681457 253.552332 
L 105.681457 253.552332 
L 105.681457 253.552332 
L 105.681457 253.552332 
z
" clip-path="url(#p8d56252110)" style="fill: #5875a4; stroke: #4c4c4c; stroke-width: 0.75; stroke-linejoin: miter"/>
   </g>
   <g id="PolyCollection_1">
    <defs>
     <path id="m010fae6051" d="M 105.681457 -91.300663 
L 104.669221 -91.300663 
L 103.91419 -91.688684 
L 102.759056 -92.076706 
L 101.097227 -92.464728 
L 98.848077 -92.85275 
L 95.983325 -93.240771 
L 92.548736 -93.628793 
L 88.673396 -94.016815 
L 84.56177 -94.404837 
L 80.468988 -94.792859 
L 76.665183 -95.18088 
L 73.397642 -95.568902 
L 70.85904 -95.956924 
L 69.166933 -96.344946 
L 68.356166 -96.732967 
L 68.383545 -97.120989 
L 69.142995 -97.509011 
L 70.488419 -97.897033 
L 72.259808 -98.285054 
L 74.306582 -98.673076 
L 76.502484 -99.061098 
L 78.749466 -99.44912 
L 80.972778 -99.837141 
L 83.112982 -100.225163 
L 85.120743 -100.613185 
L 86.956881 -101.001207 
L 88.595872 -101.389229 
L 90.028613 -101.77725 
L 91.261217 -102.165272 
L 92.309779 -102.553294 
L 93.193979 -102.941316 
L 93.933024 -103.329337 
L 94.54556 -103.717359 
L 95.052341 -104.105381 
L 95.47865 -104.493403 
L 95.853849 -104.881424 
L 96.207466 -105.269446 
L 96.563459 -105.657468 
L 96.935406 -106.04549 
L 97.324798 -106.433511 
L 97.723128 -106.821533 
L 98.116834 -107.209555 
L 98.493244 -107.597577 
L 98.845534 -107.985599 
L 99.175223 -108.37362 
L 99.491608 -108.761642 
L 99.80846 -109.149664 
L 100.139189 -109.537686 
L 100.49212 -109.925707 
L 100.867486 -110.313729 
L 101.257118 -110.701751 
L 101.646883 -111.089773 
L 102.02099 -111.477794 
L 102.366687 -111.865816 
L 102.677853 -112.253838 
L 102.956363 -112.64186 
L 103.210899 -113.029881 
L 103.453656 -113.417903 
L 103.696076 -113.805925 
L 103.944987 -114.193947 
L 104.200352 -114.581968 
L 104.455209 -114.96999 
L 104.697639 -115.358012 
L 104.913956 -115.746034 
L 105.09207 -116.134056 
L 105.224123 -116.522077 
L 105.307908 -116.910099 
L 105.34701 -117.298121 
L 105.349865 -117.686143 
L 105.328072 -118.074164 
L 105.294284 -118.462186 
L 105.260075 -118.850208 
L 105.234205 -119.23823 
L 105.221696 -119.626251 
L 105.223916 -120.014273 
L 105.239554 -120.402295 
L 105.265988 -120.790317 
L 105.300477 -121.178338 
L 105.340717 -121.56636 
L 105.384705 -121.954382 
L 105.43024 -122.342404 
L 105.474486 -122.730426 
L 105.513965 -123.118447 
L 105.545018 -123.506469 
L 105.564581 -123.894491 
L 105.570983 -124.282513 
L 105.564535 -124.670534 
L 105.547747 -125.058556 
L 105.525075 -125.446578 
L 105.50218 -125.8346 
L 105.484792 -126.222621 
L 105.477427 -126.610643 
L 105.482341 -126.998665 
L 105.499096 -127.386687 
L 105.524882 -127.774708 
L 105.555484 -128.16273 
L 105.586502 -128.550752 
L 105.614406 -128.938774 
L 105.637104 -129.326796 
L 105.653974 -129.714817 
L 105.681457 -129.714817 
L 105.681457 -129.714817 
L 105.681457 -129.326796 
L 105.681457 -128.938774 
L 105.681457 -128.550752 
L 105.681457 -128.16273 
L 105.681457 -127.774708 
L 105.681457 -127.386687 
L 105.681457 -126.998665 
L 105.681457 -126.610643 
L 105.681457 -126.222621 
L 105.681457 -125.8346 
L 105.681457 -125.446578 
L 105.681457 -125.058556 
L 105.681457 -124.670534 
L 105.681457 -124.282513 
L 105.681457 -123.894491 
L 105.681457 -123.506469 
L 105.681457 -123.118447 
L 105.681457 -122.730426 
L 105.681457 -122.342404 
L 105.681457 -121.954382 
L 105.681457 -121.56636 
L 105.681457 -121.178338 
L 105.681457 -120.790317 
L 105.681457 -120.402295 
L 105.681457 -120.014273 
L 105.681457 -119.626251 
L 105.681457 -119.23823 
L 105.681457 -118.850208 
L 105.681457 -118.462186 
L 105.681457 -118.074164 
L 105.681457 -117.686143 
L 105.681457 -117.298121 
L 105.681457 -116.910099 
L 105.681457 -116.522077 
L 105.681457 -116.134056 
L 105.681457 -115.746034 
L 105.681457 -115.358012 
L 105.681457 -114.96999 
L 105.681457 -114.581968 
L 105.681457 -114.193947 
L 105.681457 -113.805925 
L 105.681457 -113.417903 
L 105.681457 -113.029881 
L 105.681457 -112.64186 
L 105.681457 -112.253838 
L 105.681457 -111.865816 
L 105.681457 -111.477794 
L 105.681457 -111.089773 
L 105.681457 -110.701751 
L 105.681457 -110.313729 
L 105.681457 -109.925707 
L 105.681457 -109.537686 
L 105.681457 -109.149664 
L 105.681457 -108.761642 
L 105.681457 -108.37362 
L 105.681457 -107.985599 
L 105.681457 -107.597577 
L 105.681457 -107.209555 
L 105.681457 -106.821533 
L 105.681457 -106.433511 
L 105.681457 -106.04549 
L 105.681457 -105.657468 
L 105.681457 -105.269446 
L 105.681457 -104.881424 
L 105.681457 -104.493403 
L 105.681457 -104.105381 
L 105.681457 -103.717359 
L 105.681457 -103.329337 
L 105.681457 -102.941316 
L 105.681457 -102.553294 
L 105.681457 -102.165272 
L 105.681457 -101.77725 
L 105.681457 -101.389229 
L 105.681457 -101.001207 
L 105.681457 -100.613185 
L 105.681457 -100.225163 
L 105.681457 -99.837141 
L 105.681457 -99.44912 
L 105.681457 -99.061098 
L 105.681457 -98.673076 
L 105.681457 -98.285054 
L 105.681457 -97.897033 
L 105.681457 -97.509011 
L 105.681457 -97.120989 
L 105.681457 -96.732967 
L 105.681457 -96.344946 
L 105.681457 -95.956924 
L 105.681457 -95.568902 
L 105.681457 -95.18088 
L 105.681457 -94.792859 
L 105.681457 -94.404837 
L 105.681457 -94.016815 
L 105.681457 -93.628793 
L 105.681457 -93.240771 
L 105.681457 -92.85275 
L 105.681457 -92.464728 
L 105.681457 -92.076706 
L 105.681457 -91.688684 
L 105.681457 -91.300663 
z
" style="stroke: #4c4c4c; stroke-width: 1.5"/>
    </defs>
    <g clip-path="url(#p8d56252110)">
     <use xlink:href="#m010fae6051" x="0" y="347.739687" style="fill: #5875a4; stroke: #4c4c4c; stroke-width: 1.5"/>
    </g>
   </g>
   <g id="patch_4">
    <path d="M 105.681457 253.552332 
L 105.681457 253.552332 
L 105.681457 253.552332 
L 105.681457 253.552332 
z
" clip-path="url(#p8d56252110)" style="fill: #cc8963; stroke: #4c4c4c; stroke-width: 0.75; stroke-linejoin: miter"/>
   </g>
   <g id="PolyCollection_2">
    <defs>
     <path id="m209f6cffa6" d="M 105.981106 -68.430797 
L 105.681457 -68.430797 
L 105.681457 -71.042742 
L 105.681457 -73.654687 
L 105.681457 -76.266632 
L 105.681457 -78.878576 
L 105.681457 -81.490521 
L 105.681457 -84.102466 
L 105.681457 -86.71441 
L 105.681457 -89.326355 
L 105.681457 -91.9383 
L 105.681457 -94.550245 
L 105.681457 -97.162189 
L 105.681457 -99.774134 
L 105.681457 -102.386079 
L 105.681457 -104.998023 
L 105.681457 -107.609968 
L 105.681457 -110.221913 
L 105.681457 -112.833858 
L 105.681457 -115.445802 
L 105.681457 -118.057747 
L 105.681457 -120.669692 
L 105.681457 -123.281636 
L 105.681457 -125.893581 
L 105.681457 -128.505526 
L 105.681457 -131.117471 
L 105.681457 -133.729415 
L 105.681457 -136.34136 
L 105.681457 -138.953305 
L 105.681457 -141.565249 
L 105.681457 -144.177194 
L 105.681457 -146.789139 
L 105.681457 -149.401083 
L 105.681457 -152.013028 
L 105.681457 -154.624973 
L 105.681457 -157.236918 
L 105.681457 -159.848862 
L 105.681457 -162.460807 
L 105.681457 -165.072752 
L 105.681457 -167.684696 
L 105.681457 -170.296641 
L 105.681457 -172.908586 
L 105.681457 -175.520531 
L 105.681457 -178.132475 
L 105.681457 -180.74442 
L 105.681457 -183.356365 
L 105.681457 -185.968309 
L 105.681457 -188.580254 
L 105.681457 -191.192199 
L 105.681457 -193.804144 
L 105.681457 -196.416088 
L 105.681457 -199.028033 
L 105.681457 -201.639978 
L 105.681457 -204.251922 
L 105.681457 -206.863867 
L 105.681457 -209.475812 
L 105.681457 -212.087757 
L 105.681457 -214.699701 
L 105.681457 -217.311646 
L 105.681457 -219.923591 
L 105.681457 -222.535535 
L 105.681457 -225.14748 
L 105.681457 -227.759425 
L 105.681457 -230.37137 
L 105.681457 -232.983314 
L 105.681457 -235.595259 
L 105.681457 -238.207204 
L 105.681457 -240.819148 
L 105.681457 -243.431093 
L 105.681457 -246.043038 
L 105.681457 -248.654983 
L 105.681457 -251.266927 
L 105.681457 -253.878872 
L 105.681457 -256.490817 
L 105.681457 -259.102761 
L 105.681457 -261.714706 
L 105.681457 -264.326651 
L 105.681457 -266.938596 
L 105.681457 -269.55054 
L 105.681457 -272.162485 
L 105.681457 -274.77443 
L 105.681457 -277.386374 
L 105.681457 -279.998319 
L 105.681457 -282.610264 
L 105.681457 -285.222208 
L 105.681457 -287.834153 
L 105.681457 -290.446098 
L 105.681457 -293.058043 
L 105.681457 -295.669987 
L 105.681457 -298.281932 
L 105.681457 -300.893877 
L 105.681457 -303.505821 
L 105.681457 -306.117766 
L 105.681457 -308.729711 
L 105.681457 -311.341656 
L 105.681457 -313.9536 
L 105.681457 -316.565545 
L 105.681457 -319.17749 
L 105.681457 -321.789434 
L 105.681457 -324.401379 
L 105.681457 -327.013324 
L 105.685056 -327.013324 
L 105.685056 -327.013324 
L 105.686849 -324.401379 
L 105.689269 -321.789434 
L 105.692417 -319.17749 
L 105.696364 -316.565545 
L 105.70114 -313.9536 
L 105.706726 -311.341656 
L 105.713055 -308.729711 
L 105.720018 -306.117766 
L 105.727486 -303.505821 
L 105.735335 -300.893877 
L 105.743482 -298.281932 
L 105.751928 -295.669987 
L 105.760791 -293.058043 
L 105.770339 -290.446098 
L 105.780993 -287.834153 
L 105.793304 -285.222208 
L 105.807888 -282.610264 
L 105.825319 -279.998319 
L 105.846003 -277.386374 
L 105.870041 -274.77443 
L 105.89713 -272.162485 
L 105.926527 -269.55054 
L 105.957093 -266.938596 
L 105.987421 -264.326651 
L 106.016023 -261.714706 
L 106.041538 -259.102761 
L 106.062903 -256.490817 
L 106.079468 -253.878872 
L 106.091029 -251.266927 
L 106.097786 -248.654983 
L 106.100272 -246.043038 
L 106.099257 -243.431093 
L 106.095689 -240.819148 
L 106.090648 -238.207204 
L 106.085332 -235.595259 
L 106.081029 -232.983314 
L 106.079067 -230.37137 
L 106.080726 -227.759425 
L 106.087106 -225.14748 
L 106.09899 -222.535535 
L 106.116726 -219.923591 
L 106.140167 -217.311646 
L 106.168696 -214.699701 
L 106.201338 -212.087757 
L 106.236932 -209.475812 
L 106.274323 -206.863867 
L 106.312527 -204.251922 
L 106.350823 -201.639978 
L 106.38876 -199.028033 
L 106.426075 -196.416088 
L 106.462571 -193.804144 
L 106.49799 -191.192199 
L 106.531929 -188.580254 
L 106.563823 -185.968309 
L 106.593009 -183.356365 
L 106.618851 -180.74442 
L 106.640881 -178.132475 
L 106.65894 -175.520531 
L 106.673272 -172.908586 
L 106.684583 -170.296641 
L 106.694044 -167.684696 
L 106.703296 -165.072752 
L 106.714458 -162.460807 
L 106.730156 -159.848862 
L 106.753559 -157.236918 
L 106.788382 -154.624973 
L 106.838804 -152.013028 
L 106.909263 -149.401083 
L 107.004133 -146.789139 
L 107.127303 -144.177194 
L 107.281781 -141.565249 
L 107.469384 -138.953305 
L 107.690619 -136.34136 
L 107.94474 -133.729415 
L 108.229923 -131.117471 
L 108.543397 -128.505526 
L 108.881343 -125.893581 
L 109.238449 -123.281636 
L 109.607081 -120.669692 
L 109.976262 -118.057747 
L 110.330799 -115.445802 
L 110.651034 -112.833858 
L 110.913638 -110.221913 
L 111.093684 -107.609968 
L 111.16789 -104.998023 
L 111.118489 -102.386079 
L 110.936922 -99.774134 
L 110.626398 -97.162189 
L 110.202579 -94.550245 
L 109.692057 -91.9383 
L 109.128876 -89.326355 
L 108.54981 -86.71441 
L 107.989449 -84.102466 
L 107.47608 -81.490521 
L 107.029107 -78.878576 
L 106.658287 -76.266632 
L 106.364595 -73.654687 
L 106.142227 -71.042742 
L 105.981106 -68.430797 
z
" style="stroke: #4c4c4c; stroke-width: 1.5"/>
    </defs>
    <g clip-path="url(#p8d56252110)">
     <use xlink:href="#m209f6cffa6" x="0" y="347.739687" style="fill: #cc8963; stroke: #4c4c4c; stroke-width: 1.5"/>
    </g>
   </g>
   <g id="PolyCollection_3">
    <defs>
     <path id="m5ece26ab78" d="M 198.994683 -88.782076 
L 198.073571 -88.782076 
L 197.282202 -89.929742 
L 196.000137 -91.077408 
L 194.064776 -92.225074 
L 191.345428 -93.37274 
L 187.7948 -94.520406 
L 183.497677 -95.668072 
L 178.696812 -96.815738 
L 173.778794 -97.963404 
L 169.214708 -99.11107 
L 165.46771 -100.258736 
L 162.894186 -101.406402 
L 161.669392 -102.554068 
L 161.759856 -103.701734 
L 162.947555 -104.8494 
L 164.893255 -105.997066 
L 167.215966 -107.144732 
L 169.565344 -108.292398 
L 171.671848 -109.440064 
L 173.370372 -110.58773 
L 174.601605 -111.735396 
L 175.398837 -112.883062 
L 175.866716 -114.030728 
L 176.155249 -115.178394 
L 176.430337 -116.32606 
L 176.842825 -117.473726 
L 177.500797 -118.621392 
L 178.451821 -119.769058 
L 179.680727 -120.916724 
L 181.123558 -122.064391 
L 182.691982 -123.212057 
L 184.298232 -124.359723 
L 185.871327 -125.507389 
L 187.360752 -126.655055 
L 188.730615 -127.802721 
L 189.951681 -128.950387 
L 190.998144 -130.098053 
L 191.851508 -131.245719 
L 192.508729 -132.393385 
L 192.988995 -133.541051 
L 193.334329 -134.688717 
L 193.602583 -135.836383 
L 193.85491 -136.984049 
L 194.141926 -138.131715 
L 194.49283 -139.279381 
L 194.910505 -140.427047 
L 195.373577 -141.574713 
L 195.844364 -142.722379 
L 196.279949 -143.870045 
L 196.642886 -145.017711 
L 196.908603 -146.165377 
L 197.068229 -147.313043 
L 197.127464 -148.460709 
L 197.103269 -149.608375 
L 197.020114 -150.756041 
L 196.906641 -151.903707 
L 196.792642 -153.051373 
L 196.705943 -154.199039 
L 196.669108 -155.346705 
L 196.696479 -156.494371 
L 196.792402 -157.642037 
L 196.95134 -158.789703 
L 197.159948 -159.937369 
L 197.400461 -161.085035 
L 197.654279 -162.232701 
L 197.904754 -163.380367 
L 198.138685 -164.528033 
L 198.346676 -165.675699 
L 198.522885 -166.823365 
L 198.664577 -167.971031 
L 198.771663 -169.118697 
L 198.84616 -170.266363 
L 198.891526 -171.414029 
L 198.911996 -172.561695 
L 198.912136 -173.709361 
L 198.89678 -174.857027 
L 198.871227 -176.004693 
L 198.841393 -177.152359 
L 198.813539 -178.300025 
L 198.793411 -179.447691 
L 198.785001 -180.595357 
L 198.789436 -181.743023 
L 198.80453 -182.890689 
L 198.825301 -184.038355 
L 198.845354 -185.186021 
L 198.858686 -186.333687 
L 198.861365 -187.481353 
L 198.852604 -188.629019 
L 198.83498 -189.776685 
L 198.813731 -190.924351 
L 198.795309 -192.072017 
L 198.785579 -193.219683 
L 198.788196 -194.367349 
L 198.803702 -195.515015 
L 198.829639 -196.662681 
L 198.861563 -197.810347 
L 198.894521 -198.958013 
L 198.924395 -200.105679 
L 198.948685 -201.253345 
L 198.966613 -202.401011 
L 198.994683 -202.401011 
L 198.994683 -202.401011 
L 198.994683 -201.253345 
L 198.994683 -200.105679 
L 198.994683 -198.958013 
L 198.994683 -197.810347 
L 198.994683 -196.662681 
L 198.994683 -195.515015 
L 198.994683 -194.367349 
L 198.994683 -193.219683 
L 198.994683 -192.072017 
L 198.994683 -190.924351 
L 198.994683 -189.776685 
L 198.994683 -188.629019 
L 198.994683 -187.481353 
L 198.994683 -186.333687 
L 198.994683 -185.186021 
L 198.994683 -184.038355 
L 198.994683 -182.890689 
L 198.994683 -181.743023 
L 198.994683 -180.595357 
L 198.994683 -179.447691 
L 198.994683 -178.300025 
L 198.994683 -177.152359 
L 198.994683 -176.004693 
L 198.994683 -174.857027 
L 198.994683 -173.709361 
L 198.994683 -172.561695 
L 198.994683 -171.414029 
L 198.994683 -170.266363 
L 198.994683 -169.118697 
L 198.994683 -167.971031 
L 198.994683 -166.823365 
L 198.994683 -165.675699 
L 198.994683 -164.528033 
L 198.994683 -163.380367 
L 198.994683 -162.232701 
L 198.994683 -161.085035 
L 198.994683 -159.937369 
L 198.994683 -158.789703 
L 198.994683 -157.642037 
L 198.994683 -156.494371 
L 198.994683 -155.346705 
L 198.994683 -154.199039 
L 198.994683 -153.051373 
L 198.994683 -151.903707 
L 198.994683 -150.756041 
L 198.994683 -149.608375 
L 198.994683 -148.460709 
L 198.994683 -147.313043 
L 198.994683 -146.165377 
L 198.994683 -145.017711 
L 198.994683 -143.870045 
L 198.994683 -142.722379 
L 198.994683 -141.574713 
L 198.994683 -140.427047 
L 198.994683 -139.279381 
L 198.994683 -138.131715 
L 198.994683 -136.984049 
L 198.994683 -135.836383 
L 198.994683 -134.688717 
L 198.994683 -133.541051 
L 198.994683 -132.393385 
L 198.994683 -131.245719 
L 198.994683 -130.098053 
L 198.994683 -128.950387 
L 198.994683 -127.802721 
L 198.994683 -126.655055 
L 198.994683 -125.507389 
L 198.994683 -124.359723 
L 198.994683 -123.212057 
L 198.994683 -122.064391 
L 198.994683 -120.916724 
L 198.994683 -119.769058 
L 198.994683 -118.621392 
L 198.994683 -117.473726 
L 198.994683 -116.32606 
L 198.994683 -115.178394 
L 198.994683 -114.030728 
L 198.994683 -112.883062 
L 198.994683 -111.735396 
L 198.994683 -110.58773 
L 198.994683 -109.440064 
L 198.994683 -108.292398 
L 198.994683 -107.144732 
L 198.994683 -105.997066 
L 198.994683 -104.8494 
L 198.994683 -103.701734 
L 198.994683 -102.554068 
L 198.994683 -101.406402 
L 198.994683 -100.258736 
L 198.994683 -99.11107 
L 198.994683 -97.963404 
L 198.994683 -96.815738 
L 198.994683 -95.668072 
L 198.994683 -94.520406 
L 198.994683 -93.37274 
L 198.994683 -92.225074 
L 198.994683 -91.077408 
L 198.994683 -89.929742 
L 198.994683 -88.782076 
z
" style="stroke: #4c4c4c; stroke-width: 1.5"/>
    </defs>
    <g clip-path="url(#p8d56252110)">
     <use xlink:href="#m5ece26ab78" x="0" y="347.739687" style="fill: #5875a4; stroke: #4c4c4c; stroke-width: 1.5"/>
    </g>
   </g>
   <g id="PolyCollection_4">
    <defs>
     <path id="m9d02c235cf" d="M 200.16522 -75.138431 
L 198.994683 -75.138431 
L 198.994683 -77.52901 
L 198.994683 -79.91959 
L 198.994683 -82.310169 
L 198.994683 -84.700749 
L 198.994683 -87.091328 
L 198.994683 -89.481908 
L 198.994683 -91.872487 
L 198.994683 -94.263066 
L 198.994683 -96.653646 
L 198.994683 -99.044225 
L 198.994683 -101.434805 
L 198.994683 -103.825384 
L 198.994683 -106.215963 
L 198.994683 -108.606543 
L 198.994683 -110.997122 
L 198.994683 -113.387702 
L 198.994683 -115.778281 
L 198.994683 -118.168861 
L 198.994683 -120.55944 
L 198.994683 -122.950019 
L 198.994683 -125.340599 
L 198.994683 -127.731178 
L 198.994683 -130.121758 
L 198.994683 -132.512337 
L 198.994683 -134.902917 
L 198.994683 -137.293496 
L 198.994683 -139.684075 
L 198.994683 -142.074655 
L 198.994683 -144.465234 
L 198.994683 -146.855814 
L 198.994683 -149.246393 
L 198.994683 -151.636973 
L 198.994683 -154.027552 
L 198.994683 -156.418131 
L 198.994683 -158.808711 
L 198.994683 -161.19929 
L 198.994683 -163.58987 
L 198.994683 -165.980449 
L 198.994683 -168.371028 
L 198.994683 -170.761608 
L 198.994683 -173.152187 
L 198.994683 -175.542767 
L 198.994683 -177.933346 
L 198.994683 -180.323926 
L 198.994683 -182.714505 
L 198.994683 -185.105084 
L 198.994683 -187.495664 
L 198.994683 -189.886243 
L 198.994683 -192.276823 
L 198.994683 -194.667402 
L 198.994683 -197.057982 
L 198.994683 -199.448561 
L 198.994683 -201.83914 
L 198.994683 -204.22972 
L 198.994683 -206.620299 
L 198.994683 -209.010879 
L 198.994683 -211.401458 
L 198.994683 -213.792038 
L 198.994683 -216.182617 
L 198.994683 -218.573196 
L 198.994683 -220.963776 
L 198.994683 -223.354355 
L 198.994683 -225.744935 
L 198.994683 -228.135514 
L 198.994683 -230.526094 
L 198.994683 -232.916673 
L 198.994683 -235.307252 
L 198.994683 -237.697832 
L 198.994683 -240.088411 
L 198.994683 -242.478991 
L 198.994683 -244.86957 
L 198.994683 -247.260149 
L 198.994683 -249.650729 
L 198.994683 -252.041308 
L 198.994683 -254.431888 
L 198.994683 -256.822467 
L 198.994683 -259.213047 
L 198.994683 -261.603626 
L 198.994683 -263.994205 
L 198.994683 -266.384785 
L 198.994683 -268.775364 
L 198.994683 -271.165944 
L 198.994683 -273.556523 
L 198.994683 -275.947103 
L 198.994683 -278.337682 
L 198.994683 -280.728261 
L 198.994683 -283.118841 
L 198.994683 -285.50942 
L 198.994683 -287.9 
L 198.994683 -290.290579 
L 198.994683 -292.681159 
L 198.994683 -295.071738 
L 198.994683 -297.462317 
L 198.994683 -299.852897 
L 198.994683 -302.243476 
L 198.994683 -304.634056 
L 198.994683 -307.024635 
L 198.994683 -309.415214 
L 198.994683 -311.805794 
L 199.006627 -311.805794 
L 199.006627 -311.805794 
L 199.013252 -309.415214 
L 199.022008 -307.024635 
L 199.032746 -304.634056 
L 199.044868 -302.243476 
L 199.057315 -299.852897 
L 199.068672 -297.462317 
L 199.077417 -295.071738 
L 199.082252 -292.681159 
L 199.082418 -290.290579 
L 199.077893 -287.9 
L 199.069399 -285.50942 
L 199.058225 -283.118841 
L 199.045927 -280.728261 
L 199.034009 -278.337682 
L 199.023693 -275.947103 
L 199.015835 -273.556523 
L 199.01097 -271.165944 
L 199.009468 -268.775364 
L 199.011688 -266.384785 
L 199.018106 -263.994205 
L 199.029345 -261.603626 
L 199.046112 -259.213047 
L 199.069066 -256.822467 
L 199.098658 -254.431888 
L 199.134994 -252.041308 
L 199.177756 -249.650729 
L 199.226187 -247.260149 
L 199.279141 -244.86957 
L 199.335171 -242.478991 
L 199.392669 -240.088411 
L 199.450063 -237.697832 
L 199.50612 -235.307252 
L 199.560317 -232.916673 
L 199.61325 -230.526094 
L 199.666935 -228.135514 
L 199.724858 -225.744935 
L 199.791678 -223.354355 
L 199.872537 -220.963776 
L 199.972086 -218.573196 
L 200.093374 -216.182617 
L 200.23682 -213.792038 
L 200.399464 -211.401458 
L 200.574707 -209.010879 
L 200.752665 -206.620299 
L 200.921258 -204.22972 
L 201.067972 -201.83914 
L 201.182091 -199.448561 
L 201.256981 -197.057982 
L 201.291858 -194.667402 
L 201.292492 -192.276823 
L 201.270505 -189.886243 
L 201.241259 -187.495664 
L 201.220817 -185.105084 
L 201.222724 -182.714505 
L 201.255467 -180.323926 
L 201.321247 -177.933346 
L 201.416292 -175.542767 
L 201.532481 -173.152187 
L 201.6597 -170.761608 
L 201.78828 -168.371028 
L 201.910923 -165.980449 
L 202.023764 -163.58987 
L 202.126493 -161.19929 
L 202.221672 -158.808711 
L 202.313542 -156.418131 
L 202.40672 -154.027552 
L 202.505165 -151.636973 
L 202.611684 -149.246393 
L 202.728105 -146.855814 
L 202.856046 -144.465234 
L 202.998082 -142.074655 
L 203.15908 -139.684075 
L 203.347605 -137.293496 
L 203.577528 -134.902917 
L 203.870067 -132.512337 
L 204.256359 -130.121758 
L 204.779999 -127.731178 
L 205.497941 -125.340599 
L 206.477126 -122.950019 
L 207.783984 -120.55944 
L 209.465391 -118.168861 
L 211.522945 -115.778281 
L 213.886833 -113.387702 
L 216.399245 -110.997122 
L 218.817755 -108.606543 
L 220.844924 -106.215963 
L 222.181787 -103.825384 
L 222.593057 -101.434805 
L 221.965004 -99.044225 
L 220.337048 -96.653646 
L 217.895865 -94.263066 
L 214.933464 -91.872487 
L 211.782839 -89.481908 
L 208.751263 -87.091328 
L 206.069799 -84.700749 
L 203.869601 -82.310169 
L 202.185348 -79.91959 
L 200.977945 -77.52901 
L 200.16522 -75.138431 
z
" style="stroke: #4c4c4c; stroke-width: 1.5"/>
    </defs>
    <g clip-path="url(#p8d56252110)">
     <use xlink:href="#m9d02c235cf" x="0" y="347.739687" style="fill: #cc8963; stroke: #4c4c4c; stroke-width: 1.5"/>
    </g>
   </g>
   <g id="PolyCollection_5">
    <defs>
     <path id="m462b52ec51" d="M 292.307909 -56.486051 
L 289.189348 -56.486051 
L 288.170645 -59.208672 
L 286.931083 -61.931292 
L 285.46255 -64.653913 
L 283.770443 -67.376533 
L 281.876811 -70.099154 
L 279.82239 -72.821775 
L 277.667014 -75.544395 
L 275.487976 -78.267016 
L 273.37616 -80.989636 
L 271.430084 -83.712257 
L 269.748305 -86.434878 
L 268.420974 -89.157498 
L 267.521506 -91.880119 
L 267.099448 -94.602739 
L 267.175464 -97.32536 
L 267.739153 -100.047981 
L 268.749975 -102.770601 
L 270.141182 -105.493222 
L 271.826164 -108.215842 
L 273.706382 -110.938463 
L 275.679843 -113.661083 
L 277.649093 -116.383704 
L 279.527888 -119.106325 
L 281.245958 -121.828945 
L 282.751616 -124.551566 
L 284.012303 -127.274186 
L 285.013385 -129.996807 
L 285.755711 -132.719428 
L 286.252466 -135.442048 
L 286.525834 -138.164669 
L 286.603847 -140.887289 
L 286.517688 -143.60991 
L 286.299535 -146.332531 
L 285.980952 -149.055151 
L 285.591734 -151.777772 
L 285.159095 -154.500392 
L 284.70709 -157.223013 
L 284.256206 -159.945633 
L 283.823086 -162.668254 
L 283.420393 -165.390875 
L 283.056849 -168.113495 
L 282.737462 -170.836116 
L 282.463971 -173.558736 
L 282.235487 -176.281357 
L 282.049269 -179.003978 
L 281.901567 -181.726598 
L 281.788432 -184.449219 
L 281.706407 -187.171839 
L 281.653014 -189.89446 
L 281.627003 -192.617081 
L 281.628358 -195.339701 
L 281.658085 -198.062322 
L 281.717851 -200.784942 
L 281.809541 -203.507563 
L 281.934821 -206.230183 
L 282.094756 -208.952804 
L 282.289544 -211.675425 
L 282.518379 -214.398045 
L 282.779446 -217.120666 
L 283.070016 -219.843286 
L 283.386637 -222.565907 
L 283.725351 -225.288528 
L 284.081935 -228.011148 
L 284.452122 -230.733769 
L 284.831778 -233.456389 
L 285.217036 -236.17901 
L 285.604372 -238.90163 
L 285.990629 -241.624251 
L 286.372999 -244.346872 
L 286.748976 -247.069492 
L 287.116304 -249.792113 
L 287.472927 -252.514733 
L 287.816976 -255.237354 
L 288.146783 -257.959975 
L 288.460941 -260.682595 
L 288.758381 -263.405216 
L 289.038473 -266.127836 
L 289.301097 -268.850457 
L 289.546687 -271.573078 
L 289.776207 -274.295698 
L 289.991064 -277.018319 
L 290.192957 -279.740939 
L 290.383676 -282.46356 
L 290.564893 -285.18618 
L 290.737962 -287.908801 
L 290.903772 -290.631422 
L 291.062671 -293.354042 
L 291.214466 -296.076663 
L 291.358509 -298.799283 
L 291.493839 -301.521904 
L 291.619357 -304.244525 
L 291.734014 -306.967145 
L 291.836971 -309.689766 
L 291.927721 -312.412386 
L 292.006155 -315.135007 
L 292.072572 -317.857628 
L 292.127646 -320.580248 
L 292.172347 -323.302869 
L 292.207854 -326.025489 
L 292.307909 -326.025489 
L 292.307909 -326.025489 
L 292.307909 -323.302869 
L 292.307909 -320.580248 
L 292.307909 -317.857628 
L 292.307909 -315.135007 
L 292.307909 -312.412386 
L 292.307909 -309.689766 
L 292.307909 -306.967145 
L 292.307909 -304.244525 
L 292.307909 -301.521904 
L 292.307909 -298.799283 
L 292.307909 -296.076663 
L 292.307909 -293.354042 
L 292.307909 -290.631422 
L 292.307909 -287.908801 
L 292.307909 -285.18618 
L 292.307909 -282.46356 
L 292.307909 -279.740939 
L 292.307909 -277.018319 
L 292.307909 -274.295698 
L 292.307909 -271.573078 
L 292.307909 -268.850457 
L 292.307909 -266.127836 
L 292.307909 -263.405216 
L 292.307909 -260.682595 
L 292.307909 -257.959975 
L 292.307909 -255.237354 
L 292.307909 -252.514733 
L 292.307909 -249.792113 
L 292.307909 -247.069492 
L 292.307909 -244.346872 
L 292.307909 -241.624251 
L 292.307909 -238.90163 
L 292.307909 -236.17901 
L 292.307909 -233.456389 
L 292.307909 -230.733769 
L 292.307909 -228.011148 
L 292.307909 -225.288528 
L 292.307909 -222.565907 
L 292.307909 -219.843286 
L 292.307909 -217.120666 
L 292.307909 -214.398045 
L 292.307909 -211.675425 
L 292.307909 -208.952804 
L 292.307909 -206.230183 
L 292.307909 -203.507563 
L 292.307909 -200.784942 
L 292.307909 -198.062322 
L 292.307909 -195.339701 
L 292.307909 -192.617081 
L 292.307909 -189.89446 
L 292.307909 -187.171839 
L 292.307909 -184.449219 
L 292.307909 -181.726598 
L 292.307909 -179.003978 
L 292.307909 -176.281357 
L 292.307909 -173.558736 
L 292.307909 -170.836116 
L 292.307909 -168.113495 
L 292.307909 -165.390875 
L 292.307909 -162.668254 
L 292.307909 -159.945633 
L 292.307909 -157.223013 
L 292.307909 -154.500392 
L 292.307909 -151.777772 
L 292.307909 -149.055151 
L 292.307909 -146.332531 
L 292.307909 -143.60991 
L 292.307909 -140.887289 
L 292.307909 -138.164669 
L 292.307909 -135.442048 
L 292.307909 -132.719428 
L 292.307909 -129.996807 
L 292.307909 -127.274186 
L 292.307909 -124.551566 
L 292.307909 -121.828945 
L 292.307909 -119.106325 
L 292.307909 -116.383704 
L 292.307909 -113.661083 
L 292.307909 -110.938463 
L 292.307909 -108.215842 
L 292.307909 -105.493222 
L 292.307909 -102.770601 
L 292.307909 -100.047981 
L 292.307909 -97.32536 
L 292.307909 -94.602739 
L 292.307909 -91.880119 
L 292.307909 -89.157498 
L 292.307909 -86.434878 
L 292.307909 -83.712257 
L 292.307909 -80.989636 
L 292.307909 -78.267016 
L 292.307909 -75.544395 
L 292.307909 -72.821775 
L 292.307909 -70.099154 
L 292.307909 -67.376533 
L 292.307909 -64.653913 
L 292.307909 -61.931292 
L 292.307909 -59.208672 
L 292.307909 -56.486051 
z
" style="stroke: #4c4c4c; stroke-width: 1.5"/>
    </defs>
    <g clip-path="url(#p8d56252110)">
     <use xlink:href="#m462b52ec51" x="0" y="347.739687" style="fill: #5875a4; stroke: #4c4c4c; stroke-width: 1.5"/>
    </g>
   </g>
   <g id="PolyCollection_6">
    <defs>
     <path id="m97bc61cf3b" d="M 295.593928 -64.291701 
L 292.307909 -64.291701 
L 292.307909 -66.818414 
L 292.307909 -69.345127 
L 292.307909 -71.871839 
L 292.307909 -74.398552 
L 292.307909 -76.925264 
L 292.307909 -79.451977 
L 292.307909 -81.97869 
L 292.307909 -84.505402 
L 292.307909 -87.032115 
L 292.307909 -89.558828 
L 292.307909 -92.08554 
L 292.307909 -94.612253 
L 292.307909 -97.138965 
L 292.307909 -99.665678 
L 292.307909 -102.192391 
L 292.307909 -104.719103 
L 292.307909 -107.245816 
L 292.307909 -109.772529 
L 292.307909 -112.299241 
L 292.307909 -114.825954 
L 292.307909 -117.352666 
L 292.307909 -119.879379 
L 292.307909 -122.406092 
L 292.307909 -124.932804 
L 292.307909 -127.459517 
L 292.307909 -129.98623 
L 292.307909 -132.512942 
L 292.307909 -135.039655 
L 292.307909 -137.566367 
L 292.307909 -140.09308 
L 292.307909 -142.619793 
L 292.307909 -145.146505 
L 292.307909 -147.673218 
L 292.307909 -150.199931 
L 292.307909 -152.726643 
L 292.307909 -155.253356 
L 292.307909 -157.780068 
L 292.307909 -160.306781 
L 292.307909 -162.833494 
L 292.307909 -165.360206 
L 292.307909 -167.886919 
L 292.307909 -170.413632 
L 292.307909 -172.940344 
L 292.307909 -175.467057 
L 292.307909 -177.993769 
L 292.307909 -180.520482 
L 292.307909 -183.047195 
L 292.307909 -185.573907 
L 292.307909 -188.10062 
L 292.307909 -190.627333 
L 292.307909 -193.154045 
L 292.307909 -195.680758 
L 292.307909 -198.20747 
L 292.307909 -200.734183 
L 292.307909 -203.260896 
L 292.307909 -205.787608 
L 292.307909 -208.314321 
L 292.307909 -210.841033 
L 292.307909 -213.367746 
L 292.307909 -215.894459 
L 292.307909 -218.421171 
L 292.307909 -220.947884 
L 292.307909 -223.474597 
L 292.307909 -226.001309 
L 292.307909 -228.528022 
L 292.307909 -231.054734 
L 292.307909 -233.581447 
L 292.307909 -236.10816 
L 292.307909 -238.634872 
L 292.307909 -241.161585 
L 292.307909 -243.688298 
L 292.307909 -246.21501 
L 292.307909 -248.741723 
L 292.307909 -251.268435 
L 292.307909 -253.795148 
L 292.307909 -256.321861 
L 292.307909 -258.848573 
L 292.307909 -261.375286 
L 292.307909 -263.901999 
L 292.307909 -266.428711 
L 292.307909 -268.955424 
L 292.307909 -271.482136 
L 292.307909 -274.008849 
L 292.307909 -276.535562 
L 292.307909 -279.062274 
L 292.307909 -281.588987 
L 292.307909 -284.1157 
L 292.307909 -286.642412 
L 292.307909 -289.169125 
L 292.307909 -291.695837 
L 292.307909 -294.22255 
L 292.307909 -296.749263 
L 292.307909 -299.275975 
L 292.307909 -301.802688 
L 292.307909 -304.329401 
L 292.307909 -306.856113 
L 292.307909 -309.382826 
L 292.307909 -311.909538 
L 292.307909 -314.436251 
L 292.351775 -314.436251 
L 292.351775 -314.436251 
L 292.371437 -311.909538 
L 292.39775 -309.382826 
L 292.432024 -306.856113 
L 292.475485 -304.329401 
L 292.529138 -301.802688 
L 292.593629 -299.275975 
L 292.669123 -296.749263 
L 292.755213 -294.22255 
L 292.850884 -291.695837 
L 292.954556 -289.169125 
L 293.064201 -286.642412 
L 293.17752 -284.1157 
L 293.292181 -281.588987 
L 293.406064 -279.062274 
L 293.517493 -276.535562 
L 293.625417 -274.008849 
L 293.729535 -271.482136 
L 293.830334 -268.955424 
L 293.929066 -266.428711 
L 294.02766 -263.901999 
L 294.128582 -261.375286 
L 294.234655 -258.848573 
L 294.348849 -256.321861 
L 294.474026 -253.795148 
L 294.612669 -251.268435 
L 294.766604 -248.741723 
L 294.936731 -246.21501 
L 295.122808 -243.688298 
L 295.323325 -241.161585 
L 295.535468 -238.634872 
L 295.755225 -236.10816 
L 295.977594 -233.581447 
L 296.196908 -231.054734 
L 296.407249 -228.528022 
L 296.602918 -226.001309 
L 296.778929 -223.474597 
L 296.931493 -220.947884 
L 297.05844 -218.421171 
L 297.159505 -215.894459 
L 297.236451 -213.367746 
L 297.292958 -210.841033 
L 297.334274 -208.314321 
L 297.366661 -205.787608 
L 297.396698 -203.260896 
L 297.430549 -200.734183 
L 297.47334 -198.20747 
L 297.528736 -195.680758 
L 297.598824 -193.154045 
L 297.684292 -190.627333 
L 297.784879 -188.10062 
L 297.899966 -185.573907 
L 298.029182 -183.047195 
L 298.172874 -180.520482 
L 298.332337 -177.993769 
L 298.509754 -175.467057 
L 298.707877 -172.940344 
L 298.929524 -170.413632 
L 299.176998 -167.886919 
L 299.451568 -165.360206 
L 299.753076 -162.833494 
L 300.07974 -160.306781 
L 300.428181 -157.780068 
L 300.793663 -155.253356 
L 301.170595 -152.726643 
L 301.553341 -150.199931 
L 301.937421 -147.673218 
L 302.321181 -145.146505 
L 302.707949 -142.619793 
L 303.10853 -140.09308 
L 303.543703 -137.566367 
L 304.046145 -135.039655 
L 304.660987 -132.512942 
L 305.444175 -129.98623 
L 306.4579 -127.459517 
L 307.762793 -124.932804 
L 309.407203 -122.406092 
L 311.414698 -119.879379 
L 313.77174 -117.352666 
L 316.418026 -114.825954 
L 319.242145 -112.299241 
L 322.084647 -109.772529 
L 324.749522 -107.245816 
L 327.023466 -104.719103 
L 328.700584 -102.192391 
L 329.608763 -99.665678 
L 329.633199 -97.138965 
L 328.732808 -94.612253 
L 326.94647 -92.08554 
L 324.387945 -89.558828 
L 321.230527 -87.032115 
L 317.684372 -84.505402 
L 313.970668 -81.97869 
L 310.297028 -79.451977 
L 306.837808 -76.925264 
L 303.721669 -74.398552 
L 301.027083 -71.871839 
L 298.784956 -69.345127 
L 296.986487 -66.818414 
L 295.593928 -64.291701 
z
" style="stroke: #4c4c4c; stroke-width: 1.5"/>
    </defs>
    <g clip-path="url(#p8d56252110)">
     <use xlink:href="#m97bc61cf3b" x="0" y="347.739687" style="fill: #cc8963; stroke: #4c4c4c; stroke-width: 1.5"/>
    </g>
   </g>
   <g id="line2d_13">
    <path d="M 105.681457 253.403358 
L 105.681457 207.83828 
" clip-path="url(#p8d56252110)" style="fill: none; stroke: #4c4c4c; stroke-width: 1.5; stroke-linecap: round"/>
   </g>
   <g id="line2d_14">
    <path d="M 105.681457 250.448152 
L 105.681457 233.255643 
" clip-path="url(#p8d56252110)" style="fill: none; stroke: #4c4c4c; stroke-width: 4.5; stroke-linecap: round"/>
   </g>
   <g id="line2d_15">
    <path d="M 198.994683 252.200452 
L 198.994683 192.949311 
" clip-path="url(#p8d56252110)" style="fill: none; stroke: #4c4c4c; stroke-width: 1.5; stroke-linecap: round"/>
   </g>
   <g id="line2d_16">
    <path d="M 198.994683 246.989713 
L 198.994683 225.232011 
" clip-path="url(#p8d56252110)" style="fill: none; stroke: #4c4c4c; stroke-width: 4.5; stroke-linecap: round"/>
   </g>
   <g id="line2d_17">
    <path d="M 292.307909 253.552332 
L 292.307909 59.568487 
" clip-path="url(#p8d56252110)" style="fill: none; stroke: #4c4c4c; stroke-width: 1.5; stroke-linecap: round"/>
   </g>
   <g id="line2d_18">
    <path d="M 292.307909 251.897764 
L 292.307909 170.056018 
" clip-path="url(#p8d56252110)" style="fill: none; stroke: #4c4c4c; stroke-width: 4.5; stroke-linecap: round"/>
   </g>
   <g id="patch_5">
    <path d="M 59.024844 304.78 
L 59.024844 7.2 
" style="fill: none; stroke: #262626; stroke-width: 1.25; stroke-linejoin: miter; stroke-linecap: square"/>
   </g>
   <g id="patch_6">
    <path d="M 59.024844 304.78 
L 338.964522 304.78 
" style="fill: none; stroke: #262626; stroke-width: 1.25; stroke-linejoin: miter; stroke-linecap: square"/>
   </g>
   <g id="PathCollection_1">
    <defs>
     <path id="m5dadd92e9f" d="M 0 1.5 
C 0.397805 1.5 0.77937 1.341951 1.06066 1.06066 
C 1.341951 0.77937 1.5 0.397805 1.5 0 
C 1.5 -0.397805 1.341951 -0.77937 1.06066 -1.06066 
C 0.77937 -1.341951 0.397805 -1.5 0 -1.5 
C -0.397805 -1.5 -0.77937 -1.341951 -1.06066 -1.06066 
C -1.341951 -0.77937 -1.5 -0.397805 -1.5 0 
C -1.5 0.397805 -1.341951 0.77937 -1.06066 1.06066 
C -0.77937 1.341951 -0.397805 1.5 0 1.5 
z
" style="stroke: #4c4c4c"/>
    </defs>
    <g clip-path="url(#p8d56252110)">
     <use xlink:href="#m5dadd92e9f" x="105.681457" y="246.281716" style="fill: #ffffff; stroke: #4c4c4c"/>
    </g>
   </g>
   <g id="PathCollection_2">
    <g clip-path="url(#p8d56252110)">
     <use xlink:href="#m5dadd92e9f" x="198.994683" y="241.425122" style="fill: #ffffff; stroke: #4c4c4c"/>
    </g>
   </g>
   <g id="PathCollection_3">
    <g clip-path="url(#p8d56252110)">
     <use xlink:href="#m5dadd92e9f" x="292.307909" y="248.312382" style="fill: #ffffff; stroke: #4c4c4c"/>
    </g>
   </g>
  </g>
  <g id="legend_1">
   <g id="text_15">
    <!-- dim -->
    <g style="fill: #262626" transform="translate(354.789193 161.035156)scale(0.12 -0.12)">
     <defs>
      <path id="DejaVuSans-69" d="M 603 3500 
L 1178 3500 
L 1178 0 
L 603 0 
L 603 3500 
z
M 603 4863 
L 1178 4863 
L 1178 4134 
L 603 4134 
L 603 4863 
z
" transform="scale(0.015625)"/>
      <path id="DejaVuSans-6d" d="M 3328 2828 
Q 3544 3216 3844 3400 
Q 4144 3584 4550 3584 
Q 5097 3584 5394 3201 
Q 5691 2819 5691 2113 
L 5691 0 
L 5113 0 
L 5113 2094 
Q 5113 2597 4934 2840 
Q 4756 3084 4391 3084 
Q 3944 3084 3684 2787 
Q 3425 2491 3425 1978 
L 3425 0 
L 2847 0 
L 2847 2094 
Q 2847 2600 2669 2842 
Q 2491 3084 2119 3084 
Q 1678 3084 1418 2786 
Q 1159 2488 1159 1978 
L 1159 0 
L 581 0 
L 581 3500 
L 1159 3500 
L 1159 2956 
Q 1356 3278 1631 3431 
Q 1906 3584 2284 3584 
Q 2666 3584 2933 3390 
Q 3200 3197 3328 2828 
z
" transform="scale(0.015625)"/>
     </defs>
     <use xlink:href="#DejaVuSans-64"/>
     <use xlink:href="#DejaVuSans-69" x="63.476562"/>
     <use xlink:href="#DejaVuSans-6d" x="91.259766"/>
    </g>
   </g>
   <g id="patch_7">
    <path d="M 343.71849 177.389062 
L 365.71849 177.389062 
L 365.71849 169.689062 
L 343.71849 169.689062 
z
" style="fill: #5875a4; stroke: #4c4c4c; stroke-width: 0.75; stroke-linejoin: miter"/>
   </g>
   <g id="text_16">
    <!-- 2d -->
    <g style="fill: #262626" transform="translate(374.51849 177.389062)scale(0.11 -0.11)">
     <use xlink:href="#DejaVuSans-32"/>
     <use xlink:href="#DejaVuSans-64" x="63.623047"/>
    </g>
   </g>
   <g id="patch_8">
    <path d="M 343.71849 193.535 
L 365.71849 193.535 
L 365.71849 185.835 
L 343.71849 185.835 
z
" style="fill: #cc8963; stroke: #4c4c4c; stroke-width: 0.75; stroke-linejoin: miter"/>
   </g>
   <g id="text_17">
    <!-- 3d -->
    <g style="fill: #262626" transform="translate(374.51849 193.535)scale(0.11 -0.11)">
     <use xlink:href="#DejaVuSans-33"/>
     <use xlink:href="#DejaVuSans-64" x="63.623047"/>
    </g>
   </g>
  </g>
 </g>
 <defs>
  <clipPath id="p8d56252110">
   <rect x="59.024844" y="7.2" width="279.939678" height="297.58"/>
  </clipPath>
 </defs>
</svg>
