<?xml version="1.0" encoding="utf-8" standalone="no"?>
<!DOCTYPE svg PUBLIC "-//W3C//DTD SVG 1.1//EN"
  "http://www.w3.org/Graphics/SVG/1.1/DTD/svg11.dtd">
<svg xmlns:xlink="http://www.w3.org/1999/xlink" width="400.458333pt" height="352.15625pt" viewBox="0 0 400.458333 352.15625" xmlns="http://www.w3.org/2000/svg" version="1.1">
 <metadata>
  <rdf:RDF xmlns:dc="http://purl.org/dc/elements/1.1/" xmlns:cc="http://creativecommons.org/ns#" xmlns:rdf="http://www.w3.org/1999/02/22-rdf-syntax-ns#">
   <cc:Work>
    <dc:type rdf:resource="http://purl.org/dc/dcmitype/StillImage"/>
    <dc:date>2022-03-25T10:19:03.992026</dc:date>
    <dc:format>image/svg+xml</dc:format>
    <dc:creator>
     <cc:Agent>
      <dc:title>Matplotlib v3.5.1, https://matplotlib.org/</dc:title>
     </cc:Agent>
    </dc:creator>
   </cc:Work>
  </rdf:RDF>
 </metadata>
 <defs>
  <style type="text/css">*{stroke-linejoin: round; stroke-linecap: butt}</style>
 </defs>
 <g id="figure_1">
  <g id="patch_1">
   <path d="M 0 352.15625 
L 400.458333 352.15625 
L 400.458333 0 
L 0 0 
L 0 352.15625 
z
" style="fill: none"/>
  </g>
  <g id="axes_1">
   <g id="patch_2">
    <path d="M 43.78125 314.6 
L 345.420833 314.6 
L 345.420833 7.2 
L 43.78125 7.2 
z
" style="fill: #ffffff"/>
   </g>
   <g id="patch_3">
    <path d="M 94.054514 267.835554 
L 94.054514 267.835554 
L 94.054514 267.835554 
L 94.054514 267.835554 
z
" clip-path="url(#pf9954e6ab0)" style="fill: #3274a1; stroke: #3f3f3f; stroke-width: 0.75; stroke-linejoin: miter"/>
   </g>
   <g id="PolyCollection_1">
    <defs>
     <path id="m9fce972484" d="M 94.054514 -96.48834 
L 94.033815 -96.48834 
L 94.020621 -96.61493 
L 94.002753 -96.74152 
L 93.980786 -96.868111 
L 93.956565 -96.994701 
L 93.933147 -97.121291 
L 93.914252 -97.247882 
L 93.903329 -97.374472 
L 93.902524 -97.501063 
L 93.912 -97.627653 
L 93.929881 -97.754243 
L 93.952855 -97.880834 
L 93.977176 -98.007424 
L 93.999639 -98.134014 
L 94.018198 -98.260605 
L 94.032096 -98.387195 
L 94.041599 -98.513786 
L 94.047552 -98.640376 
L 94.05095 -98.766966 
L 94.052643 -98.893557 
L 94.053185 -99.020147 
L 94.052784 -99.146737 
L 94.051284 -99.273328 
L 94.048179 -99.399918 
L 94.042656 -99.526509 
L 94.033726 -99.653099 
L 94.020499 -99.779689 
L 94.002595 -99.90628 
L 93.980598 -100.03287 
L 93.956358 -100.15946 
L 93.932926 -100.286051 
L 93.913986 -100.412641 
L 93.902891 -100.539232 
L 93.901586 -100.665822 
L 93.90984 -100.792412 
L 93.925069 -100.919003 
L 93.942786 -101.045593 
L 93.957433 -101.172183 
L 93.963227 -101.298774 
L 93.954743 -101.425364 
L 93.92714 -101.551955 
L 93.87613 -101.678545 
L 93.79786 -101.805135 
L 93.68884 -101.931726 
L 93.545964 -102.058316 
L 93.366557 -102.184906 
L 93.148334 -102.311497 
L 92.889125 -102.438087 
L 92.586333 -102.564678 
L 92.236317 -102.691268 
L 91.834112 -102.817858 
L 91.373873 -102.944449 
L 90.85018 -103.071039 
L 90.259825 -103.19763 
L 89.603499 -103.32422 
L 88.886933 -103.45081 
L 88.121348 -103.577401 
L 87.323013 -103.703991 
L 86.511187 -103.830581 
L 85.703502 -103.957172 
L 84.908939 -104.083762 
L 84.121007 -104.210353 
L 83.315979 -104.336943 
L 82.460497 -104.463533 
L 81.528448 -104.590124 
L 80.520766 -104.716714 
L 79.478052 -104.843304 
L 78.478048 -104.969895 
L 77.617568 -105.096485 
L 76.986812 -105.223076 
L 76.647557 -105.349666 
L 76.623487 -105.476256 
L 76.903549 -105.602847 
L 77.45283 -105.729437 
L 78.223685 -105.856027 
L 79.162343 -105.982618 
L 80.210152 -106.109208 
L 81.301104 -106.235799 
L 82.357862 -106.362389 
L 83.288148 -106.488979 
L 83.983374 -106.61557 
L 84.321864 -106.74216 
L 84.179413 -106.86875 
L 83.44941 -106.995341 
L 82.072873 -107.121931 
L 80.074897 -107.248522 
L 77.598393 -107.375112 
L 74.920128 -107.501702 
L 72.432361 -107.628293 
L 70.580385 -107.754883 
L 69.763222 -107.881473 
L 70.225426 -108.008064 
L 71.980189 -108.134654 
L 74.79762 -108.261245 
L 78.266825 -108.387835 
L 81.908815 -108.514425 
L 85.296683 -108.641016 
L 88.140856 -108.767606 
L 90.317679 -108.894196 
L 91.845964 -109.020787 
L 94.054514 -109.020787 
L 94.054514 -109.020787 
L 94.054514 -108.894196 
L 94.054514 -108.767606 
L 94.054514 -108.641016 
L 94.054514 -108.514425 
L 94.054514 -108.387835 
L 94.054514 -108.261245 
L 94.054514 -108.134654 
L 94.054514 -108.008064 
L 94.054514 -107.881473 
L 94.054514 -107.754883 
L 94.054514 -107.628293 
L 94.054514 -107.501702 
L 94.054514 -107.375112 
L 94.054514 -107.248522 
L 94.054514 -107.121931 
L 94.054514 -106.995341 
L 94.054514 -106.86875 
L 94.054514 -106.74216 
L 94.054514 -106.61557 
L 94.054514 -106.488979 
L 94.054514 -106.362389 
L 94.054514 -106.235799 
L 94.054514 -106.109208 
L 94.054514 -105.982618 
L 94.054514 -105.856027 
L 94.054514 -105.729437 
L 94.054514 -105.602847 
L 94.054514 -105.476256 
L 94.054514 -105.349666 
L 94.054514 -105.223076 
L 94.054514 -105.096485 
L 94.054514 -104.969895 
L 94.054514 -104.843304 
L 94.054514 -104.716714 
L 94.054514 -104.590124 
L 94.054514 -104.463533 
L 94.054514 -104.336943 
L 94.054514 -104.210353 
L 94.054514 -104.083762 
L 94.054514 -103.957172 
L 94.054514 -103.830581 
L 94.054514 -103.703991 
L 94.054514 -103.577401 
L 94.054514 -103.45081 
L 94.054514 -103.32422 
L 94.054514 -103.19763 
L 94.054514 -103.071039 
L 94.054514 -102.944449 
L 94.054514 -102.817858 
L 94.054514 -102.691268 
L 94.054514 -102.564678 
L 94.054514 -102.438087 
L 94.054514 -102.311497 
L 94.054514 -102.184906 
L 94.054514 -102.058316 
L 94.054514 -101.931726 
L 94.054514 -101.805135 
L 94.054514 -101.678545 
L 94.054514 -101.551955 
L 94.054514 -101.425364 
L 94.054514 -101.298774 
L 94.054514 -101.172183 
L 94.054514 -101.045593 
L 94.054514 -100.919003 
L 94.054514 -100.792412 
L 94.054514 -100.665822 
L 94.054514 -100.539232 
L 94.054514 -100.412641 
L 94.054514 -100.286051 
L 94.054514 -100.15946 
L 94.054514 -100.03287 
L 94.054514 -99.90628 
L 94.054514 -99.779689 
L 94.054514 -99.653099 
L 94.054514 -99.526509 
L 94.054514 -99.399918 
L 94.054514 -99.273328 
L 94.054514 -99.146737 
L 94.054514 -99.020147 
L 94.054514 -98.893557 
L 94.054514 -98.766966 
L 94.054514 -98.640376 
L 94.054514 -98.513786 
L 94.054514 -98.387195 
L 94.054514 -98.260605 
L 94.054514 -98.134014 
L 94.054514 -98.007424 
L 94.054514 -97.880834 
L 94.054514 -97.754243 
L 94.054514 -97.627653 
L 94.054514 -97.501063 
L 94.054514 -97.374472 
L 94.054514 -97.247882 
L 94.054514 -97.121291 
L 94.054514 -96.994701 
L 94.054514 -96.868111 
L 94.054514 -96.74152 
L 94.054514 -96.61493 
L 94.054514 -96.48834 
z
" style="stroke: #3f3f3f; stroke-width: 1.5"/>
    </defs>
    <g clip-path="url(#pf9954e6ab0)">
     <use xlink:href="#m9fce972484" x="0" y="352.15625" style="fill: #3274a1; stroke: #3f3f3f; stroke-width: 1.5"/>
    </g>
   </g>
   <g id="patch_4">
    <path d="M 94.054514 267.835554 
L 94.054514 267.835554 
L 94.054514 267.835554 
L 94.054514 267.835554 
z
" clip-path="url(#pf9954e6ab0)" style="fill: #e1812c; stroke: #3f3f3f; stroke-width: 0.75; stroke-linejoin: miter"/>
   </g>
   <g id="PolyCollection_2">
    <defs>
     <path id="me959e4bc65" d="M 94.079195 -95.224718 
L 94.054514 -95.224718 
L 94.054514 -95.361995 
L 94.054514 -95.499272 
L 94.054514 -95.636549 
L 94.054514 -95.773826 
L 94.054514 -95.911103 
L 94.054514 -96.04838 
L 94.054514 -96.185657 
L 94.054514 -96.322934 
L 94.054514 -96.460211 
L 94.054514 -96.597488 
L 94.054514 -96.734765 
L 94.054514 -96.872042 
L 94.054514 -97.009319 
L 94.054514 -97.146596 
L 94.054514 -97.283873 
L 94.054514 -97.42115 
L 94.054514 -97.558427 
L 94.054514 -97.695704 
L 94.054514 -97.832981 
L 94.054514 -97.970258 
L 94.054514 -98.107535 
L 94.054514 -98.244812 
L 94.054514 -98.382089 
L 94.054514 -98.519366 
L 94.054514 -98.656643 
L 94.054514 -98.79392 
L 94.054514 -98.931197 
L 94.054514 -99.068474 
L 94.054514 -99.205751 
L 94.054514 -99.343028 
L 94.054514 -99.480305 
L 94.054514 -99.617582 
L 94.054514 -99.754859 
L 94.054514 -99.892136 
L 94.054514 -100.029413 
L 94.054514 -100.16669 
L 94.054514 -100.303967 
L 94.054514 -100.441244 
L 94.054514 -100.578521 
L 94.054514 -100.715798 
L 94.054514 -100.853075 
L 94.054514 -100.990352 
L 94.054514 -101.127629 
L 94.054514 -101.264906 
L 94.054514 -101.402183 
L 94.054514 -101.53946 
L 94.054514 -101.676737 
L 94.054514 -101.814014 
L 94.054514 -101.951291 
L 94.054514 -102.088568 
L 94.054514 -102.225845 
L 94.054514 -102.363122 
L 94.054514 -102.500399 
L 94.054514 -102.637676 
L 94.054514 -102.774953 
L 94.054514 -102.91223 
L 94.054514 -103.049507 
L 94.054514 -103.186784 
L 94.054514 -103.324061 
L 94.054514 -103.461338 
L 94.054514 -103.598615 
L 94.054514 -103.735892 
L 94.054514 -103.873169 
L 94.054514 -104.010446 
L 94.054514 -104.147724 
L 94.054514 -104.285001 
L 94.054514 -104.422278 
L 94.054514 -104.559555 
L 94.054514 -104.696832 
L 94.054514 -104.834109 
L 94.054514 -104.971386 
L 94.054514 -105.108663 
L 94.054514 -105.24594 
L 94.054514 -105.383217 
L 94.054514 -105.520494 
L 94.054514 -105.657771 
L 94.054514 -105.795048 
L 94.054514 -105.932325 
L 94.054514 -106.069602 
L 94.054514 -106.206879 
L 94.054514 -106.344156 
L 94.054514 -106.481433 
L 94.054514 -106.61871 
L 94.054514 -106.755987 
L 94.054514 -106.893264 
L 94.054514 -107.030541 
L 94.054514 -107.167818 
L 94.054514 -107.305095 
L 94.054514 -107.442372 
L 94.054514 -107.579649 
L 94.054514 -107.716926 
L 94.054514 -107.854203 
L 94.054514 -107.99148 
L 94.054514 -108.128757 
L 94.054514 -108.266034 
L 94.054514 -108.403311 
L 94.054514 -108.540588 
L 94.054514 -108.677865 
L 94.054514 -108.815142 
L 95.348072 -108.815142 
L 95.348072 -108.815142 
L 96.811419 -108.677865 
L 99.342115 -108.540588 
L 103.207053 -108.403311 
L 108.408564 -108.266034 
L 114.559354 -108.128757 
L 120.920345 -107.99148 
L 126.620398 -107.854203 
L 130.94268 -107.716926 
L 133.507888 -107.579649 
L 134.273125 -107.442372 
L 133.413226 -107.305095 
L 131.212424 -107.167818 
L 128.025306 -107.030541 
L 124.26608 -106.893264 
L 120.364822 -106.755987 
L 116.687012 -106.61871 
L 113.46407 -106.481433 
L 110.775151 -106.344156 
L 108.578863 -106.206879 
L 106.767017 -106.069602 
L 105.21556 -105.932325 
L 103.821955 -105.795048 
L 102.526306 -105.657771 
L 101.315393 -105.520494 
L 100.211306 -105.383217 
L 99.250857 -105.24594 
L 98.464908 -105.108663 
L 97.865059 -104.971386 
L 97.439424 -104.834109 
L 97.153948 -104.696832 
L 96.955972 -104.559555 
L 96.781699 -104.422278 
L 96.571425 -104.285001 
L 96.290133 -104.147724 
L 95.942038 -104.010446 
L 95.567409 -103.873169 
L 95.221558 -103.735892 
L 94.948779 -103.598615 
L 94.76638 -103.461338 
L 94.665219 -103.324061 
L 94.62224 -103.186784 
L 94.615269 -103.049507 
L 94.631595 -102.91223 
L 94.667027 -102.774953 
L 94.718338 -102.637676 
L 94.775982 -102.500399 
L 94.823072 -102.363122 
L 94.841201 -102.225845 
L 94.818349 -102.088568 
L 94.753408 -101.951291 
L 94.655494 -101.814014 
L 94.5401 -101.676737 
L 94.424907 -101.53946 
L 94.3265 -101.402183 
L 94.257744 -101.264906 
L 94.225587 -101.127629 
L 94.2297 -100.990352 
L 94.262628 -100.853075 
L 94.311804 -100.715798 
L 94.363079 -100.578521 
L 94.404616 -100.441244 
L 94.429559 -100.303967 
L 94.436379 -100.16669 
L 94.427098 -100.029413 
L 94.404909 -99.892136 
L 94.373049 -99.754859 
L 94.335502 -99.617582 
L 94.298174 -99.480305 
L 94.268361 -99.343028 
L 94.251711 -99.205751 
L 94.248473 -99.068474 
L 94.2522 -98.931197 
L 94.252606 -98.79392 
L 94.241071 -98.656643 
L 94.215148 -98.519366 
L 94.179179 -98.382089 
L 94.141123 -98.244812 
L 94.108208 -98.107535 
L 94.084177 -97.970258 
L 94.069113 -97.832981 
L 94.060938 -97.695704 
L 94.057137 -97.558427 
L 94.055834 -97.42115 
L 94.056183 -97.283873 
L 94.058426 -97.146596 
L 94.063882 -97.009319 
L 94.074787 -96.872042 
L 94.093624 -96.734765 
L 94.121676 -96.597488 
L 94.157164 -96.460211 
L 94.194148 -96.322934 
L 94.223567 -96.185657 
L 94.236673 -96.04838 
L 94.229207 -95.911103 
L 94.203621 -95.773826 
L 94.167785 -95.636549 
L 94.131098 -95.499272 
L 94.100598 -95.361995 
L 94.079195 -95.224718 
z
" style="stroke: #3f3f3f; stroke-width: 1.5"/>
    </defs>
    <g clip-path="url(#pf9954e6ab0)">
     <use xlink:href="#me959e4bc65" x="0" y="352.15625" style="fill: #e1812c; stroke: #3f3f3f; stroke-width: 1.5"/>
    </g>
   </g>
   <g id="PolyCollection_3">
    <defs>
     <path id="m0bb310c820" d="M 194.601042 -61.75685 
L 193.743604 -61.75685 
L 193.352717 -64.476311 
L 192.821862 -67.195773 
L 192.118319 -69.915234 
L 191.208621 -72.634695 
L 190.061318 -75.354157 
L 188.650412 -78.073618 
L 186.959229 -80.793079 
L 184.984295 -83.512541 
L 182.738706 -86.232002 
L 180.254445 -88.951463 
L 177.583118 -91.670925 
L 174.794792 -94.390386 
L 171.974795 -97.109847 
L 169.218696 -99.829309 
L 166.625913 -102.54877 
L 164.292673 -105.268231 
L 162.305115 -107.987693 
L 160.733356 -110.707154 
L 159.627129 -113.426615 
L 159.013399 -116.146077 
L 158.896008 -118.865538 
L 159.257164 -121.584999 
L 160.060352 -124.304461 
L 161.254129 -127.023922 
L 162.776296 -129.743383 
L 164.557988 -132.462845 
L 166.527396 -135.182306 
L 168.612955 -137.901767 
L 170.74597 -140.621229 
L 172.862727 -143.34069 
L 174.906179 -146.060151 
L 176.827256 -148.779613 
L 178.58588 -151.499074 
L 180.151675 -154.218535 
L 181.504384 -156.937997 
L 182.633959 -159.657458 
L 183.540314 -162.37692 
L 184.232723 -165.096381 
L 184.728865 -167.815842 
L 185.053534 -170.535304 
L 185.237039 -173.254765 
L 185.313363 -175.974226 
L 185.318143 -178.693688 
L 185.286583 -181.413149 
L 185.251418 -184.13261 
L 185.241086 -186.852072 
L 185.278216 -189.571533 
L 185.378591 -192.290994 
L 185.550647 -195.010456 
L 185.795543 -197.729917 
L 186.107797 -200.449378 
L 186.476368 -203.16884 
L 186.886079 -205.888301 
L 187.319194 -208.607762 
L 187.756982 -211.327224 
L 188.181118 -214.046685 
L 188.57479 -216.766146 
L 188.923453 -219.485608 
L 189.215217 -222.205069 
L 189.440913 -224.92453 
L 189.593913 -227.643992 
L 189.669837 -230.363453 
L 189.666236 -233.082914 
L 189.582373 -235.802376 
L 189.419178 -238.521837 
L 189.179381 -241.241298 
L 188.867831 -243.96076 
L 188.49191 -246.680221 
L 188.061957 -249.399682 
L 187.591567 -252.119144 
L 187.097649 -254.838605 
L 186.600167 -257.558066 
L 186.121483 -260.277528 
L 185.685342 -262.996989 
L 185.315532 -265.716451 
L 185.034362 -268.435912 
L 184.861073 -271.155373 
L 184.810391 -273.874835 
L 184.891332 -276.594296 
L 185.106446 -279.313757 
L 185.451532 -282.033219 
L 185.91591 -284.75268 
L 186.483184 -287.472141 
L 187.132449 -290.191603 
L 187.839804 -292.911064 
L 188.580018 -295.630525 
L 189.328216 -298.349987 
L 190.061391 -301.069448 
L 190.759662 -303.788909 
L 191.407145 -306.508371 
L 191.992437 -309.227832 
L 192.508678 -311.947293 
L 192.953266 -314.666755 
L 193.327292 -317.386216 
L 193.634787 -320.105677 
L 193.881891 -322.825139 
L 194.076025 -325.5446 
L 194.225155 -328.264061 
L 194.337175 -330.983523 
L 194.601042 -330.983523 
L 194.601042 -330.983523 
L 194.601042 -328.264061 
L 194.601042 -325.5446 
L 194.601042 -322.825139 
L 194.601042 -320.105677 
L 194.601042 -317.386216 
L 194.601042 -314.666755 
L 194.601042 -311.947293 
L 194.601042 -309.227832 
L 194.601042 -306.508371 
L 194.601042 -303.788909 
L 194.601042 -301.069448 
L 194.601042 -298.349987 
L 194.601042 -295.630525 
L 194.601042 -292.911064 
L 194.601042 -290.191603 
L 194.601042 -287.472141 
L 194.601042 -284.75268 
L 194.601042 -282.033219 
L 194.601042 -279.313757 
L 194.601042 -276.594296 
L 194.601042 -273.874835 
L 194.601042 -271.155373 
L 194.601042 -268.435912 
L 194.601042 -265.716451 
L 194.601042 -262.996989 
L 194.601042 -260.277528 
L 194.601042 -257.558066 
L 194.601042 -254.838605 
L 194.601042 -252.119144 
L 194.601042 -249.399682 
L 194.601042 -246.680221 
L 194.601042 -243.96076 
L 194.601042 -241.241298 
L 194.601042 -238.521837 
L 194.601042 -235.802376 
L 194.601042 -233.082914 
L 194.601042 -230.363453 
L 194.601042 -227.643992 
L 194.601042 -224.92453 
L 194.601042 -222.205069 
L 194.601042 -219.485608 
L 194.601042 -216.766146 
L 194.601042 -214.046685 
L 194.601042 -211.327224 
L 194.601042 -208.607762 
L 194.601042 -205.888301 
L 194.601042 -203.16884 
L 194.601042 -200.449378 
L 194.601042 -197.729917 
L 194.601042 -195.010456 
L 194.601042 -192.290994 
L 194.601042 -189.571533 
L 194.601042 -186.852072 
L 194.601042 -184.13261 
L 194.601042 -181.413149 
L 194.601042 -178.693688 
L 194.601042 -175.974226 
L 194.601042 -173.254765 
L 194.601042 -170.535304 
L 194.601042 -167.815842 
L 194.601042 -165.096381 
L 194.601042 -162.37692 
L 194.601042 -159.657458 
L 194.601042 -156.937997 
L 194.601042 -154.218535 
L 194.601042 -151.499074 
L 194.601042 -148.779613 
L 194.601042 -146.060151 
L 194.601042 -143.34069 
L 194.601042 -140.621229 
L 194.601042 -137.901767 
L 194.601042 -135.182306 
L 194.601042 -132.462845 
L 194.601042 -129.743383 
L 194.601042 -127.023922 
L 194.601042 -124.304461 
L 194.601042 -121.584999 
L 194.601042 -118.865538 
L 194.601042 -116.146077 
L 194.601042 -113.426615 
L 194.601042 -110.707154 
L 194.601042 -107.987693 
L 194.601042 -105.268231 
L 194.601042 -102.54877 
L 194.601042 -99.829309 
L 194.601042 -97.109847 
L 194.601042 -94.390386 
L 194.601042 -91.670925 
L 194.601042 -88.951463 
L 194.601042 -86.232002 
L 194.601042 -83.512541 
L 194.601042 -80.793079 
L 194.601042 -78.073618 
L 194.601042 -75.354157 
L 194.601042 -72.634695 
L 194.601042 -69.915234 
L 194.601042 -67.195773 
L 194.601042 -64.476311 
L 194.601042 -61.75685 
z
" style="stroke: #3f3f3f; stroke-width: 1.5"/>
    </defs>
    <g clip-path="url(#pf9954e6ab0)">
     <use xlink:href="#m0bb310c820" x="0" y="352.15625" style="fill: #3274a1; stroke: #3f3f3f; stroke-width: 1.5"/>
    </g>
   </g>
   <g id="PolyCollection_4">
    <defs>
     <path id="m7841916644" d="M 195.230457 -51.528977 
L 194.601042 -51.528977 
L 194.601042 -54.332913 
L 194.601042 -57.136849 
L 194.601042 -59.940784 
L 194.601042 -62.74472 
L 194.601042 -65.548656 
L 194.601042 -68.352591 
L 194.601042 -71.156527 
L 194.601042 -73.960462 
L 194.601042 -76.764398 
L 194.601042 -79.568334 
L 194.601042 -82.372269 
L 194.601042 -85.176205 
L 194.601042 -87.980141 
L 194.601042 -90.784076 
L 194.601042 -93.588012 
L 194.601042 -96.391948 
L 194.601042 -99.195883 
L 194.601042 -101.999819 
L 194.601042 -104.803755 
L 194.601042 -107.60769 
L 194.601042 -110.411626 
L 194.601042 -113.215562 
L 194.601042 -116.019497 
L 194.601042 -118.823433 
L 194.601042 -121.627369 
L 194.601042 -124.431304 
L 194.601042 -127.23524 
L 194.601042 -130.039176 
L 194.601042 -132.843111 
L 194.601042 -135.647047 
L 194.601042 -138.450983 
L 194.601042 -141.254918 
L 194.601042 -144.058854 
L 194.601042 -146.862789 
L 194.601042 -149.666725 
L 194.601042 -152.470661 
L 194.601042 -155.274596 
L 194.601042 -158.078532 
L 194.601042 -160.882468 
L 194.601042 -163.686403 
L 194.601042 -166.490339 
L 194.601042 -169.294275 
L 194.601042 -172.09821 
L 194.601042 -174.902146 
L 194.601042 -177.706082 
L 194.601042 -180.510017 
L 194.601042 -183.313953 
L 194.601042 -186.117889 
L 194.601042 -188.921824 
L 194.601042 -191.72576 
L 194.601042 -194.529696 
L 194.601042 -197.333631 
L 194.601042 -200.137567 
L 194.601042 -202.941503 
L 194.601042 -205.745438 
L 194.601042 -208.549374 
L 194.601042 -211.353309 
L 194.601042 -214.157245 
L 194.601042 -216.961181 
L 194.601042 -219.765116 
L 194.601042 -222.569052 
L 194.601042 -225.372988 
L 194.601042 -228.176923 
L 194.601042 -230.980859 
L 194.601042 -233.784795 
L 194.601042 -236.58873 
L 194.601042 -239.392666 
L 194.601042 -242.196602 
L 194.601042 -245.000537 
L 194.601042 -247.804473 
L 194.601042 -250.608409 
L 194.601042 -253.412344 
L 194.601042 -256.21628 
L 194.601042 -259.020216 
L 194.601042 -261.824151 
L 194.601042 -264.628087 
L 194.601042 -267.432023 
L 194.601042 -270.235958 
L 194.601042 -273.039894 
L 194.601042 -275.843829 
L 194.601042 -278.647765 
L 194.601042 -281.451701 
L 194.601042 -284.255636 
L 194.601042 -287.059572 
L 194.601042 -289.863508 
L 194.601042 -292.667443 
L 194.601042 -295.471379 
L 194.601042 -298.275315 
L 194.601042 -301.07925 
L 194.601042 -303.883186 
L 194.601042 -306.687122 
L 194.601042 -309.491057 
L 194.601042 -312.294993 
L 194.601042 -315.098929 
L 194.601042 -317.902864 
L 194.601042 -320.7068 
L 194.601042 -323.510736 
L 194.601042 -326.314671 
L 194.601042 -329.118607 
L 195.703014 -329.118607 
L 195.703014 -329.118607 
L 196.252692 -326.314671 
L 197.011746 -323.510736 
L 198.028417 -320.7068 
L 199.348924 -317.902864 
L 201.011753 -315.098929 
L 203.041143 -312.294993 
L 205.44066 -309.491057 
L 208.187908 -306.687122 
L 211.231495 -303.883186 
L 214.491131 -301.07925 
L 217.861319 -298.275315 
L 221.218459 -295.471379 
L 224.430602 -292.667443 
L 227.368551 -289.863508 
L 229.916795 -287.059572 
L 231.982789 -284.255636 
L 233.503473 -281.451701 
L 234.448427 -278.647765 
L 234.819653 -275.843829 
L 234.648438 -273.039894 
L 233.990076 -270.235958 
L 232.917305 -267.432023 
L 231.513294 -264.628087 
L 229.864811 -261.824151 
L 228.056103 -259.020216 
L 226.163802 -256.21628 
L 224.253112 -253.412344 
L 222.37541 -250.608409 
L 220.567299 -247.804473 
L 218.851066 -245.000537 
L 217.23634 -242.196602 
L 215.72265 -239.392666 
L 214.302498 -236.58873 
L 212.964533 -233.784795 
L 211.696417 -230.980859 
L 210.48709 -228.176923 
L 209.328249 -225.372988 
L 208.214984 -222.569052 
L 207.145657 -219.765116 
L 206.121218 -216.961181 
L 205.144189 -214.157245 
L 204.217594 -211.353309 
L 203.344045 -208.549374 
L 202.525148 -205.745438 
L 201.761287 -202.941503 
L 201.051757 -200.137567 
L 200.395138 -197.333631 
L 199.789768 -194.529696 
L 199.234144 -191.72576 
L 198.727162 -188.921824 
L 198.268102 -186.117889 
L 197.856403 -183.313953 
L 197.491282 -180.510017 
L 197.171328 -177.706082 
L 196.894193 -174.902146 
L 196.656475 -172.09821 
L 196.45385 -169.294275 
L 196.281441 -166.490339 
L 196.134331 -163.686403 
L 196.008139 -160.882468 
L 195.899511 -158.078532 
L 195.806439 -155.274596 
L 195.728342 -152.470661 
L 195.665926 -149.666725 
L 195.62085 -146.862789 
L 195.595319 -144.058854 
L 195.591686 -141.254918 
L 195.612172 -138.450983 
L 195.658765 -135.647047 
L 195.733291 -132.843111 
L 195.837624 -130.039176 
L 195.973941 -127.23524 
L 196.144876 -124.431304 
L 196.353465 -121.627369 
L 196.602763 -118.823433 
L 196.895077 -116.019497 
L 197.230867 -113.215562 
L 197.607443 -110.411626 
L 198.01769 -107.60769 
L 198.449132 -104.803755 
L 198.883631 -101.999819 
L 199.29799 -99.195883 
L 199.665553 -96.391948 
L 199.958737 -93.588012 
L 200.152173 -90.784076 
L 200.225991 -87.980141 
L 200.168682 -85.176205 
L 199.978966 -82.372269 
L 199.666314 -79.568334 
L 199.24997 -76.764398 
L 198.756646 -73.960462 
L 198.217285 -71.156527 
L 197.66348 -68.352591 
L 197.124144 -65.548656 
L 196.62291 -62.74472 
L 196.17659 -59.940784 
L 195.794745 -57.136849 
L 195.480233 -54.332913 
L 195.230457 -51.528977 
z
" style="stroke: #3f3f3f; stroke-width: 1.5"/>
    </defs>
    <g clip-path="url(#pf9954e6ab0)">
     <use xlink:href="#m7841916644" x="0" y="352.15625" style="fill: #e1812c; stroke: #3f3f3f; stroke-width: 1.5"/>
    </g>
   </g>
   <g id="PolyCollection_5">
    <defs>
     <path id="me508168b62" d="M 295.147569 -79.105667 
L 295.136702 -79.105667 
L 295.13256 -80.083412 
L 295.127254 -81.061157 
L 295.120573 -82.038902 
L 295.112254 -83.016647 
L 295.101934 -83.994392 
L 295.089055 -84.972137 
L 295.072726 -85.949882 
L 295.051509 -86.927627 
L 295.023152 -87.905372 
L 294.984243 -88.883117 
L 294.929837 -89.860862 
L 294.853074 -90.838607 
L 294.744878 -91.816352 
L 294.593827 -92.794098 
L 294.386316 -93.771843 
L 294.10713 -94.749588 
L 293.740538 -95.727333 
L 293.271936 -96.705078 
L 292.690003 -97.682823 
L 291.989181 -98.660568 
L 291.172185 -99.638313 
L 290.252121 -100.616058 
L 289.253737 -101.593803 
L 288.213391 -102.571548 
L 287.177413 -103.549293 
L 286.198818 -104.527038 
L 285.332607 -105.504783 
L 284.630181 -106.482528 
L 284.133655 -107.460273 
L 283.870922 -108.438018 
L 283.852296 -109.415763 
L 284.069279 -110.393508 
L 284.495678 -111.371253 
L 285.090889 -112.348998 
L 285.804782 -113.326743 
L 286.583398 -114.304488 
L 287.374577 -115.282233 
L 288.132736 -116.259978 
L 288.822226 -117.237723 
L 289.419015 -118.215468 
L 289.91074 -119.193213 
L 290.295414 -120.170958 
L 290.579256 -121.148703 
L 290.774113 -122.126448 
L 290.894946 -123.104193 
L 290.957696 -124.081938 
L 290.977742 -125.059683 
L 290.968988 -126.037428 
L 290.943513 -127.015173 
L 290.911645 -127.992918 
L 290.882256 -128.970663 
L 290.863118 -129.948408 
L 290.861146 -130.926153 
L 290.882464 -131.903898 
L 290.932258 -132.881643 
L 291.014461 -133.859388 
L 291.131366 -134.837133 
L 291.28327 -135.814878 
L 291.46826 -136.792624 
L 291.682208 -137.770369 
L 291.919001 -138.748114 
L 292.170977 -139.725859 
L 292.429498 -140.703604 
L 292.68556 -141.681349 
L 292.93035 -142.659094 
L 293.155674 -143.636839 
L 293.354227 -144.614584 
L 293.519714 -145.592329 
L 293.646867 -146.570074 
L 293.731441 -147.547819 
L 293.770263 -148.525564 
L 293.761393 -149.503309 
L 293.704426 -150.481054 
L 293.600901 -151.458799 
L 293.454759 -152.436544 
L 293.272719 -153.414289 
L 293.064451 -154.392034 
L 292.842426 -155.369779 
L 292.621368 -156.347524 
L 292.417286 -157.325269 
L 292.246168 -158.303014 
L 292.122494 -159.280759 
L 292.057747 -160.258504 
L 292.059184 -161.236249 
L 292.129032 -162.213994 
L 292.26428 -163.191739 
L 292.457078 -164.169484 
L 292.695697 -165.147229 
L 292.96589 -166.124974 
L 293.252443 -167.102719 
L 293.540689 -168.080464 
L 293.817776 -169.058209 
L 294.073567 -170.035954 
L 294.301083 -171.013699 
L 294.496533 -171.991444 
L 294.658981 -172.969189 
L 294.789787 -173.946934 
L 294.891935 -174.924679 
L 294.96936 -175.902424 
L 295.147569 -175.902424 
L 295.147569 -175.902424 
L 295.147569 -174.924679 
L 295.147569 -173.946934 
L 295.147569 -172.969189 
L 295.147569 -171.991444 
L 295.147569 -171.013699 
L 295.147569 -170.035954 
L 295.147569 -169.058209 
L 295.147569 -168.080464 
L 295.147569 -167.102719 
L 295.147569 -166.124974 
L 295.147569 -165.147229 
L 295.147569 -164.169484 
L 295.147569 -163.191739 
L 295.147569 -162.213994 
L 295.147569 -161.236249 
L 295.147569 -160.258504 
L 295.147569 -159.280759 
L 295.147569 -158.303014 
L 295.147569 -157.325269 
L 295.147569 -156.347524 
L 295.147569 -155.369779 
L 295.147569 -154.392034 
L 295.147569 -153.414289 
L 295.147569 -152.436544 
L 295.147569 -151.458799 
L 295.147569 -150.481054 
L 295.147569 -149.503309 
L 295.147569 -148.525564 
L 295.147569 -147.547819 
L 295.147569 -146.570074 
L 295.147569 -145.592329 
L 295.147569 -144.614584 
L 295.147569 -143.636839 
L 295.147569 -142.659094 
L 295.147569 -141.681349 
L 295.147569 -140.703604 
L 295.147569 -139.725859 
L 295.147569 -138.748114 
L 295.147569 -137.770369 
L 295.147569 -136.792624 
L 295.147569 -135.814878 
L 295.147569 -134.837133 
L 295.147569 -133.859388 
L 295.147569 -132.881643 
L 295.147569 -131.903898 
L 295.147569 -130.926153 
L 295.147569 -129.948408 
L 295.147569 -128.970663 
L 295.147569 -127.992918 
L 295.147569 -127.015173 
L 295.147569 -126.037428 
L 295.147569 -125.059683 
L 295.147569 -124.081938 
L 295.147569 -123.104193 
L 295.147569 -122.126448 
L 295.147569 -121.148703 
L 295.147569 -120.170958 
L 295.147569 -119.193213 
L 295.147569 -118.215468 
L 295.147569 -117.237723 
L 295.147569 -116.259978 
L 295.147569 -115.282233 
L 295.147569 -114.304488 
L 295.147569 -113.326743 
L 295.147569 -112.348998 
L 295.147569 -111.371253 
L 295.147569 -110.393508 
L 295.147569 -109.415763 
L 295.147569 -108.438018 
L 295.147569 -107.460273 
L 295.147569 -106.482528 
L 295.147569 -105.504783 
L 295.147569 -104.527038 
L 295.147569 -103.549293 
L 295.147569 -102.571548 
L 295.147569 -101.593803 
L 295.147569 -100.616058 
L 295.147569 -99.638313 
L 295.147569 -98.660568 
L 295.147569 -97.682823 
L 295.147569 -96.705078 
L 295.147569 -95.727333 
L 295.147569 -94.749588 
L 295.147569 -93.771843 
L 295.147569 -92.794098 
L 295.147569 -91.816352 
L 295.147569 -90.838607 
L 295.147569 -89.860862 
L 295.147569 -88.883117 
L 295.147569 -87.905372 
L 295.147569 -86.927627 
L 295.147569 -85.949882 
L 295.147569 -84.972137 
L 295.147569 -83.994392 
L 295.147569 -83.016647 
L 295.147569 -82.038902 
L 295.147569 -81.061157 
L 295.147569 -80.083412 
L 295.147569 -79.105667 
z
" style="stroke: #3f3f3f; stroke-width: 1.5"/>
    </defs>
    <g clip-path="url(#pf9954e6ab0)">
     <use xlink:href="#me508168b62" x="0" y="352.15625" style="fill: #3274a1; stroke: #3f3f3f; stroke-width: 1.5"/>
    </g>
   </g>
   <g id="PolyCollection_6">
    <defs>
     <path id="m1e1ce8af5e" d="M 295.179695 -89.328513 
L 295.147569 -89.328513 
L 295.147569 -89.833952 
L 295.147569 -90.339392 
L 295.147569 -90.844832 
L 295.147569 -91.350271 
L 295.147569 -91.855711 
L 295.147569 -92.36115 
L 295.147569 -92.86659 
L 295.147569 -93.372029 
L 295.147569 -93.877469 
L 295.147569 -94.382908 
L 295.147569 -94.888348 
L 295.147569 -95.393787 
L 295.147569 -95.899227 
L 295.147569 -96.404667 
L 295.147569 -96.910106 
L 295.147569 -97.415546 
L 295.147569 -97.920985 
L 295.147569 -98.426425 
L 295.147569 -98.931864 
L 295.147569 -99.437304 
L 295.147569 -99.942743 
L 295.147569 -100.448183 
L 295.147569 -100.953622 
L 295.147569 -101.459062 
L 295.147569 -101.964502 
L 295.147569 -102.469941 
L 295.147569 -102.975381 
L 295.147569 -103.48082 
L 295.147569 -103.98626 
L 295.147569 -104.491699 
L 295.147569 -104.997139 
L 295.147569 -105.502578 
L 295.147569 -106.008018 
L 295.147569 -106.513457 
L 295.147569 -107.018897 
L 295.147569 -107.524337 
L 295.147569 -108.029776 
L 295.147569 -108.535216 
L 295.147569 -109.040655 
L 295.147569 -109.546095 
L 295.147569 -110.051534 
L 295.147569 -110.556974 
L 295.147569 -111.062413 
L 295.147569 -111.567853 
L 295.147569 -112.073293 
L 295.147569 -112.578732 
L 295.147569 -113.084172 
L 295.147569 -113.589611 
L 295.147569 -114.095051 
L 295.147569 -114.60049 
L 295.147569 -115.10593 
L 295.147569 -115.611369 
L 295.147569 -116.116809 
L 295.147569 -116.622248 
L 295.147569 -117.127688 
L 295.147569 -117.633128 
L 295.147569 -118.138567 
L 295.147569 -118.644007 
L 295.147569 -119.149446 
L 295.147569 -119.654886 
L 295.147569 -120.160325 
L 295.147569 -120.665765 
L 295.147569 -121.171204 
L 295.147569 -121.676644 
L 295.147569 -122.182083 
L 295.147569 -122.687523 
L 295.147569 -123.192963 
L 295.147569 -123.698402 
L 295.147569 -124.203842 
L 295.147569 -124.709281 
L 295.147569 -125.214721 
L 295.147569 -125.72016 
L 295.147569 -126.2256 
L 295.147569 -126.731039 
L 295.147569 -127.236479 
L 295.147569 -127.741918 
L 295.147569 -128.247358 
L 295.147569 -128.752798 
L 295.147569 -129.258237 
L 295.147569 -129.763677 
L 295.147569 -130.269116 
L 295.147569 -130.774556 
L 295.147569 -131.279995 
L 295.147569 -131.785435 
L 295.147569 -132.290874 
L 295.147569 -132.796314 
L 295.147569 -133.301753 
L 295.147569 -133.807193 
L 295.147569 -134.312633 
L 295.147569 -134.818072 
L 295.147569 -135.323512 
L 295.147569 -135.828951 
L 295.147569 -136.334391 
L 295.147569 -136.83983 
L 295.147569 -137.34527 
L 295.147569 -137.850709 
L 295.147569 -138.356149 
L 295.147569 -138.861588 
L 295.147569 -139.367028 
L 297.19092 -139.367028 
L 297.19092 -139.367028 
L 298.705864 -138.861588 
L 300.974047 -138.356149 
L 304.127072 -137.850709 
L 308.188154 -137.34527 
L 313.019932 -136.83983 
L 318.305674 -136.334391 
L 323.581929 -135.828951 
L 328.322242 -135.323512 
L 332.049006 -134.818072 
L 334.435952 -134.312633 
L 335.366181 -133.807193 
L 334.929538 -133.301753 
L 333.36829 -132.796314 
L 330.998043 -132.290874 
L 328.133881 -131.785435 
L 325.041371 -131.279995 
L 321.916899 -130.774556 
L 318.890308 -130.269116 
L 316.038828 -129.763677 
L 313.403264 -129.258237 
L 311.001565 -128.752798 
L 308.83823 -128.247358 
L 306.909802 -127.741918 
L 305.207397 -127.236479 
L 303.71758 -126.731039 
L 302.423011 -126.2256 
L 301.303904 -125.72016 
L 300.340459 -125.214721 
L 299.515443 -124.709281 
L 298.815649 -124.203842 
L 298.231387 -123.698402 
L 297.754209 -123.192963 
L 297.374065 -122.687523 
L 297.077427 -122.182083 
L 296.847463 -121.676644 
L 296.66632 -121.171204 
L 296.518561 -120.665765 
L 296.394218 -120.160325 
L 296.290027 -119.654886 
L 296.208113 -119.149446 
L 296.152495 -118.644007 
L 296.124758 -118.138567 
L 296.120767 -117.633128 
L 296.129946 -117.127688 
L 296.137604 -116.622248 
L 296.129472 -116.116809 
L 296.096675 -115.611369 
L 296.039258 -115.10593 
L 295.967052 -114.60049 
L 295.897693 -114.095051 
L 295.852492 -113.589611 
L 295.851257 -113.084172 
L 295.907264 -112.578732 
L 296.023433 -112.073293 
L 296.190637 -111.567853 
L 296.388755 -111.062413 
L 296.590479 -110.556974 
L 296.76706 -110.051534 
L 296.894383 -109.546095 
L 296.957526 -109.040655 
L 296.952491 -108.535216 
L 296.88489 -108.029776 
L 296.766559 -107.524337 
L 296.611695 -107.018897 
L 296.433937 -106.513457 
L 296.24505 -106.008018 
L 296.054931 -105.502578 
L 295.872136 -104.997139 
L 295.704155 -104.491699 
L 295.557097 -103.98626 
L 295.435013 -103.48082 
L 295.339326 -102.975381 
L 295.268774 -102.469941 
L 295.219975 -101.964502 
L 295.188381 -101.459062 
L 295.169289 -100.953622 
L 295.158606 -100.448183 
L 295.153257 -99.942743 
L 295.151293 -99.437304 
L 295.151801 -98.931864 
L 295.154762 -98.426425 
L 295.160883 -97.920985 
L 295.171384 -97.415546 
L 295.187657 -96.910106 
L 295.210744 -96.404667 
L 295.240686 -95.899227 
L 295.275914 -95.393787 
L 295.312987 -94.888348 
L 295.346928 -94.382908 
L 295.372235 -93.877469 
L 295.384318 -93.372029 
L 295.380854 -92.86659 
L 295.362518 -92.36115 
L 295.332765 -91.855711 
L 295.296772 -91.350271 
L 295.25997 -90.844832 
L 295.226749 -90.339392 
L 295.199725 -89.833952 
L 295.179695 -89.328513 
z
" style="stroke: #3f3f3f; stroke-width: 1.5"/>
    </defs>
    <g clip-path="url(#pf9954e6ab0)">
     <use xlink:href="#m1e1ce8af5e" x="0" y="352.15625" style="fill: #e1812c; stroke: #3f3f3f; stroke-width: 1.5"/>
    </g>
   </g>
   <g id="matplotlib.axis_1">
    <g id="xtick_1">
     <g id="line2d_1">
      <defs>
       <path id="m12b4ed0f7f" d="M 0 0 
L 0 3.5 
" style="stroke: #000000; stroke-width: 0.8"/>
      </defs>
      <g>
       <use xlink:href="#m12b4ed0f7f" x="94.054514" y="314.6" style="stroke: #000000; stroke-width: 0.8"/>
      </g>
     </g>
     <g id="text_1">
      <!-- burger -->
      <g transform="translate(77.437326 329.198437)scale(0.1 -0.1)">
       <defs>
        <path id="DejaVuSans-62" d="M 3116 1747 
Q 3116 2381 2855 2742 
Q 2594 3103 2138 3103 
Q 1681 3103 1420 2742 
Q 1159 2381 1159 1747 
Q 1159 1113 1420 752 
Q 1681 391 2138 391 
Q 2594 391 2855 752 
Q 3116 1113 3116 1747 
z
M 1159 2969 
Q 1341 3281 1617 3432 
Q 1894 3584 2278 3584 
Q 2916 3584 3314 3078 
Q 3713 2572 3713 1747 
Q 3713 922 3314 415 
Q 2916 -91 2278 -91 
Q 1894 -91 1617 61 
Q 1341 213 1159 525 
L 1159 0 
L 581 0 
L 581 4863 
L 1159 4863 
L 1159 2969 
z
" transform="scale(0.015625)"/>
        <path id="DejaVuSans-75" d="M 544 1381 
L 544 3500 
L 1119 3500 
L 1119 1403 
Q 1119 906 1312 657 
Q 1506 409 1894 409 
Q 2359 409 2629 706 
Q 2900 1003 2900 1516 
L 2900 3500 
L 3475 3500 
L 3475 0 
L 2900 0 
L 2900 538 
Q 2691 219 2414 64 
Q 2138 -91 1772 -91 
Q 1169 -91 856 284 
Q 544 659 544 1381 
z
M 1991 3584 
L 1991 3584 
z
" transform="scale(0.015625)"/>
        <path id="DejaVuSans-72" d="M 2631 2963 
Q 2534 3019 2420 3045 
Q 2306 3072 2169 3072 
Q 1681 3072 1420 2755 
Q 1159 2438 1159 1844 
L 1159 0 
L 581 0 
L 581 3500 
L 1159 3500 
L 1159 2956 
Q 1341 3275 1631 3429 
Q 1922 3584 2338 3584 
Q 2397 3584 2469 3576 
Q 2541 3569 2628 3553 
L 2631 2963 
z
" transform="scale(0.015625)"/>
        <path id="DejaVuSans-67" d="M 2906 1791 
Q 2906 2416 2648 2759 
Q 2391 3103 1925 3103 
Q 1463 3103 1205 2759 
Q 947 2416 947 1791 
Q 947 1169 1205 825 
Q 1463 481 1925 481 
Q 2391 481 2648 825 
Q 2906 1169 2906 1791 
z
M 3481 434 
Q 3481 -459 3084 -895 
Q 2688 -1331 1869 -1331 
Q 1566 -1331 1297 -1286 
Q 1028 -1241 775 -1147 
L 775 -588 
Q 1028 -725 1275 -790 
Q 1522 -856 1778 -856 
Q 2344 -856 2625 -561 
Q 2906 -266 2906 331 
L 2906 616 
Q 2728 306 2450 153 
Q 2172 0 1784 0 
Q 1141 0 747 490 
Q 353 981 353 1791 
Q 353 2603 747 3093 
Q 1141 3584 1784 3584 
Q 2172 3584 2450 3431 
Q 2728 3278 2906 2969 
L 2906 3500 
L 3481 3500 
L 3481 434 
z
" transform="scale(0.015625)"/>
        <path id="DejaVuSans-65" d="M 3597 1894 
L 3597 1613 
L 953 1613 
Q 991 1019 1311 708 
Q 1631 397 2203 397 
Q 2534 397 2845 478 
Q 3156 559 3463 722 
L 3463 178 
Q 3153 47 2828 -22 
Q 2503 -91 2169 -91 
Q 1331 -91 842 396 
Q 353 884 353 1716 
Q 353 2575 817 3079 
Q 1281 3584 2069 3584 
Q 2775 3584 3186 3129 
Q 3597 2675 3597 1894 
z
M 3022 2063 
Q 3016 2534 2758 2815 
Q 2500 3097 2075 3097 
Q 1594 3097 1305 2825 
Q 1016 2553 972 2059 
L 3022 2063 
z
" transform="scale(0.015625)"/>
       </defs>
       <use xlink:href="#DejaVuSans-62"/>
       <use xlink:href="#DejaVuSans-75" x="63.476562"/>
       <use xlink:href="#DejaVuSans-72" x="126.855469"/>
       <use xlink:href="#DejaVuSans-67" x="166.21875"/>
       <use xlink:href="#DejaVuSans-65" x="229.695312"/>
       <use xlink:href="#DejaVuSans-72" x="291.21875"/>
      </g>
     </g>
    </g>
    <g id="xtick_2">
     <g id="line2d_2">
      <g>
       <use xlink:href="#m12b4ed0f7f" x="194.601042" y="314.6" style="stroke: #000000; stroke-width: 0.8"/>
      </g>
     </g>
     <g id="text_2">
      <!-- jackal -->
      <g transform="translate(180.13776 329.198437)scale(0.1 -0.1)">
       <defs>
        <path id="DejaVuSans-6a" d="M 603 3500 
L 1178 3500 
L 1178 -63 
Q 1178 -731 923 -1031 
Q 669 -1331 103 -1331 
L -116 -1331 
L -116 -844 
L 38 -844 
Q 366 -844 484 -692 
Q 603 -541 603 -63 
L 603 3500 
z
M 603 4863 
L 1178 4863 
L 1178 4134 
L 603 4134 
L 603 4863 
z
" transform="scale(0.015625)"/>
        <path id="DejaVuSans-61" d="M 2194 1759 
Q 1497 1759 1228 1600 
Q 959 1441 959 1056 
Q 959 750 1161 570 
Q 1363 391 1709 391 
Q 2188 391 2477 730 
Q 2766 1069 2766 1631 
L 2766 1759 
L 2194 1759 
z
M 3341 1997 
L 3341 0 
L 2766 0 
L 2766 531 
Q 2569 213 2275 61 
Q 1981 -91 1556 -91 
Q 1019 -91 701 211 
Q 384 513 384 1019 
Q 384 1609 779 1909 
Q 1175 2209 1959 2209 
L 2766 2209 
L 2766 2266 
Q 2766 2663 2505 2880 
Q 2244 3097 1772 3097 
Q 1472 3097 1187 3025 
Q 903 2953 641 2809 
L 641 3341 
Q 956 3463 1253 3523 
Q 1550 3584 1831 3584 
Q 2591 3584 2966 3190 
Q 3341 2797 3341 1997 
z
" transform="scale(0.015625)"/>
        <path id="DejaVuSans-63" d="M 3122 3366 
L 3122 2828 
Q 2878 2963 2633 3030 
Q 2388 3097 2138 3097 
Q 1578 3097 1268 2742 
Q 959 2388 959 1747 
Q 959 1106 1268 751 
Q 1578 397 2138 397 
Q 2388 397 2633 464 
Q 2878 531 3122 666 
L 3122 134 
Q 2881 22 2623 -34 
Q 2366 -91 2075 -91 
Q 1284 -91 818 406 
Q 353 903 353 1747 
Q 353 2603 823 3093 
Q 1294 3584 2113 3584 
Q 2378 3584 2631 3529 
Q 2884 3475 3122 3366 
z
" transform="scale(0.015625)"/>
        <path id="DejaVuSans-6b" d="M 581 4863 
L 1159 4863 
L 1159 1991 
L 2875 3500 
L 3609 3500 
L 1753 1863 
L 3688 0 
L 2938 0 
L 1159 1709 
L 1159 0 
L 581 0 
L 581 4863 
z
" transform="scale(0.015625)"/>
        <path id="DejaVuSans-6c" d="M 603 4863 
L 1178 4863 
L 1178 0 
L 603 0 
L 603 4863 
z
" transform="scale(0.015625)"/>
       </defs>
       <use xlink:href="#DejaVuSans-6a"/>
       <use xlink:href="#DejaVuSans-61" x="27.783203"/>
       <use xlink:href="#DejaVuSans-63" x="89.0625"/>
       <use xlink:href="#DejaVuSans-6b" x="144.042969"/>
       <use xlink:href="#DejaVuSans-61" x="200.203125"/>
       <use xlink:href="#DejaVuSans-6c" x="261.482422"/>
      </g>
     </g>
    </g>
    <g id="xtick_3">
     <g id="line2d_3">
      <g>
       <use xlink:href="#m12b4ed0f7f" x="295.147569" y="314.6" style="stroke: #000000; stroke-width: 0.8"/>
      </g>
     </g>
     <g id="text_3">
      <!-- youbot -->
      <g transform="translate(277.766319 329.198437)scale(0.1 -0.1)">
       <defs>
        <path id="DejaVuSans-79" d="M 2059 -325 
Q 1816 -950 1584 -1140 
Q 1353 -1331 966 -1331 
L 506 -1331 
L 506 -850 
L 844 -850 
Q 1081 -850 1212 -737 
Q 1344 -625 1503 -206 
L 1606 56 
L 191 3500 
L 800 3500 
L 1894 763 
L 2988 3500 
L 3597 3500 
L 2059 -325 
z
" transform="scale(0.015625)"/>
        <path id="DejaVuSans-6f" d="M 1959 3097 
Q 1497 3097 1228 2736 
Q 959 2375 959 1747 
Q 959 1119 1226 758 
Q 1494 397 1959 397 
Q 2419 397 2687 759 
Q 2956 1122 2956 1747 
Q 2956 2369 2687 2733 
Q 2419 3097 1959 3097 
z
M 1959 3584 
Q 2709 3584 3137 3096 
Q 3566 2609 3566 1747 
Q 3566 888 3137 398 
Q 2709 -91 1959 -91 
Q 1206 -91 779 398 
Q 353 888 353 1747 
Q 353 2609 779 3096 
Q 1206 3584 1959 3584 
z
" transform="scale(0.015625)"/>
        <path id="DejaVuSans-74" d="M 1172 4494 
L 1172 3500 
L 2356 3500 
L 2356 3053 
L 1172 3053 
L 1172 1153 
Q 1172 725 1289 603 
Q 1406 481 1766 481 
L 2356 481 
L 2356 0 
L 1766 0 
Q 1100 0 847 248 
Q 594 497 594 1153 
L 594 3053 
L 172 3053 
L 172 3500 
L 594 3500 
L 594 4494 
L 1172 4494 
z
" transform="scale(0.015625)"/>
       </defs>
       <use xlink:href="#DejaVuSans-79"/>
       <use xlink:href="#DejaVuSans-6f" x="59.179688"/>
       <use xlink:href="#DejaVuSans-75" x="120.361328"/>
       <use xlink:href="#DejaVuSans-62" x="183.740234"/>
       <use xlink:href="#DejaVuSans-6f" x="247.216797"/>
       <use xlink:href="#DejaVuSans-74" x="308.398438"/>
      </g>
     </g>
    </g>
    <g id="text_4">
     <!-- Robot -->
     <g transform="translate(180.098698 342.876562)scale(0.1 -0.1)">
      <defs>
       <path id="DejaVuSans-52" d="M 2841 2188 
Q 3044 2119 3236 1894 
Q 3428 1669 3622 1275 
L 4263 0 
L 3584 0 
L 2988 1197 
Q 2756 1666 2539 1819 
Q 2322 1972 1947 1972 
L 1259 1972 
L 1259 0 
L 628 0 
L 628 4666 
L 2053 4666 
Q 2853 4666 3247 4331 
Q 3641 3997 3641 3322 
Q 3641 2881 3436 2590 
Q 3231 2300 2841 2188 
z
M 1259 4147 
L 1259 2491 
L 2053 2491 
Q 2509 2491 2742 2702 
Q 2975 2913 2975 3322 
Q 2975 3731 2742 3939 
Q 2509 4147 2053 4147 
L 1259 4147 
z
" transform="scale(0.015625)"/>
      </defs>
      <use xlink:href="#DejaVuSans-52"/>
      <use xlink:href="#DejaVuSans-6f" x="64.982422"/>
      <use xlink:href="#DejaVuSans-62" x="126.164062"/>
      <use xlink:href="#DejaVuSans-6f" x="189.640625"/>
      <use xlink:href="#DejaVuSans-74" x="250.822266"/>
     </g>
    </g>
   </g>
   <g id="matplotlib.axis_2">
    <g id="ytick_1">
     <g id="line2d_4">
      <defs>
       <path id="m267172931b" d="M 0 0 
L -3.5 0 
" style="stroke: #000000; stroke-width: 0.8"/>
      </defs>
      <g>
       <use xlink:href="#m267172931b" x="43.78125" y="267.835554" style="stroke: #000000; stroke-width: 0.8"/>
      </g>
     </g>
     <g id="text_5">
      <!-- 0.0 -->
      <g transform="translate(20.878125 271.634773)scale(0.1 -0.1)">
       <defs>
        <path id="DejaVuSans-30" d="M 2034 4250 
Q 1547 4250 1301 3770 
Q 1056 3291 1056 2328 
Q 1056 1369 1301 889 
Q 1547 409 2034 409 
Q 2525 409 2770 889 
Q 3016 1369 3016 2328 
Q 3016 3291 2770 3770 
Q 2525 4250 2034 4250 
z
M 2034 4750 
Q 2819 4750 3233 4129 
Q 3647 3509 3647 2328 
Q 3647 1150 3233 529 
Q 2819 -91 2034 -91 
Q 1250 -91 836 529 
Q 422 1150 422 2328 
Q 422 3509 836 4129 
Q 1250 4750 2034 4750 
z
" transform="scale(0.015625)"/>
        <path id="DejaVuSans-2e" d="M 684 794 
L 1344 794 
L 1344 0 
L 684 0 
L 684 794 
z
" transform="scale(0.015625)"/>
       </defs>
       <use xlink:href="#DejaVuSans-30"/>
       <use xlink:href="#DejaVuSans-2e" x="63.623047"/>
       <use xlink:href="#DejaVuSans-30" x="95.410156"/>
      </g>
     </g>
    </g>
    <g id="ytick_2">
     <g id="line2d_5">
      <g>
       <use xlink:href="#m267172931b" x="43.78125" y="213.892128" style="stroke: #000000; stroke-width: 0.8"/>
      </g>
     </g>
     <g id="text_6">
      <!-- 0.5 -->
      <g transform="translate(20.878125 217.691347)scale(0.1 -0.1)">
       <defs>
        <path id="DejaVuSans-35" d="M 691 4666 
L 3169 4666 
L 3169 4134 
L 1269 4134 
L 1269 2991 
Q 1406 3038 1543 3061 
Q 1681 3084 1819 3084 
Q 2600 3084 3056 2656 
Q 3513 2228 3513 1497 
Q 3513 744 3044 326 
Q 2575 -91 1722 -91 
Q 1428 -91 1123 -41 
Q 819 9 494 109 
L 494 744 
Q 775 591 1075 516 
Q 1375 441 1709 441 
Q 2250 441 2565 725 
Q 2881 1009 2881 1497 
Q 2881 1984 2565 2268 
Q 2250 2553 1709 2553 
Q 1456 2553 1204 2497 
Q 953 2441 691 2322 
L 691 4666 
z
" transform="scale(0.015625)"/>
       </defs>
       <use xlink:href="#DejaVuSans-30"/>
       <use xlink:href="#DejaVuSans-2e" x="63.623047"/>
       <use xlink:href="#DejaVuSans-35" x="95.410156"/>
      </g>
     </g>
    </g>
    <g id="ytick_3">
     <g id="line2d_6">
      <g>
       <use xlink:href="#m267172931b" x="43.78125" y="159.948701" style="stroke: #000000; stroke-width: 0.8"/>
      </g>
     </g>
     <g id="text_7">
      <!-- 1.0 -->
      <g transform="translate(20.878125 163.74792)scale(0.1 -0.1)">
       <defs>
        <path id="DejaVuSans-31" d="M 794 531 
L 1825 531 
L 1825 4091 
L 703 3866 
L 703 4441 
L 1819 4666 
L 2450 4666 
L 2450 531 
L 3481 531 
L 3481 0 
L 794 0 
L 794 531 
z
" transform="scale(0.015625)"/>
       </defs>
       <use xlink:href="#DejaVuSans-31"/>
       <use xlink:href="#DejaVuSans-2e" x="63.623047"/>
       <use xlink:href="#DejaVuSans-30" x="95.410156"/>
      </g>
     </g>
    </g>
    <g id="ytick_4">
     <g id="line2d_7">
      <g>
       <use xlink:href="#m267172931b" x="43.78125" y="106.005274" style="stroke: #000000; stroke-width: 0.8"/>
      </g>
     </g>
     <g id="text_8">
      <!-- 1.5 -->
      <g transform="translate(20.878125 109.804493)scale(0.1 -0.1)">
       <use xlink:href="#DejaVuSans-31"/>
       <use xlink:href="#DejaVuSans-2e" x="63.623047"/>
       <use xlink:href="#DejaVuSans-35" x="95.410156"/>
      </g>
     </g>
    </g>
    <g id="ytick_5">
     <g id="line2d_8">
      <g>
       <use xlink:href="#m267172931b" x="43.78125" y="52.061848" style="stroke: #000000; stroke-width: 0.8"/>
      </g>
     </g>
     <g id="text_9">
      <!-- 2.0 -->
      <g transform="translate(20.878125 55.861066)scale(0.1 -0.1)">
       <defs>
        <path id="DejaVuSans-32" d="M 1228 531 
L 3431 531 
L 3431 0 
L 469 0 
L 469 531 
Q 828 903 1448 1529 
Q 2069 2156 2228 2338 
Q 2531 2678 2651 2914 
Q 2772 3150 2772 3378 
Q 2772 3750 2511 3984 
Q 2250 4219 1831 4219 
Q 1534 4219 1204 4116 
Q 875 4013 500 3803 
L 500 4441 
Q 881 4594 1212 4672 
Q 1544 4750 1819 4750 
Q 2544 4750 2975 4387 
Q 3406 4025 3406 3419 
Q 3406 3131 3298 2873 
Q 3191 2616 2906 2266 
Q 2828 2175 2409 1742 
Q 1991 1309 1228 531 
z
" transform="scale(0.015625)"/>
       </defs>
       <use xlink:href="#DejaVuSans-32"/>
       <use xlink:href="#DejaVuSans-2e" x="63.623047"/>
       <use xlink:href="#DejaVuSans-30" x="95.410156"/>
      </g>
     </g>
    </g>
    <g id="text_10">
     <!-- vel -->
     <g transform="translate(14.798438 168.325)rotate(-90)scale(0.1 -0.1)">
      <defs>
       <path id="DejaVuSans-76" d="M 191 3500 
L 800 3500 
L 1894 563 
L 2988 3500 
L 3597 3500 
L 2284 0 
L 1503 0 
L 191 3500 
z
" transform="scale(0.015625)"/>
      </defs>
      <use xlink:href="#DejaVuSans-76"/>
      <use xlink:href="#DejaVuSans-65" x="59.179688"/>
      <use xlink:href="#DejaVuSans-6c" x="120.703125"/>
     </g>
    </g>
   </g>
   <g id="line2d_9">
    <path d="M 94.054514 249.426991 
L 94.054514 244.094537 
" clip-path="url(#pf9954e6ab0)" style="fill: none; stroke: #3f3f3f; stroke-width: 1.5; stroke-linecap: square"/>
   </g>
   <g id="line2d_10">
    <path d="M 94.054514 246.470031 
L 94.054514 244.365014 
" clip-path="url(#pf9954e6ab0)" style="fill: none; stroke: #3f3f3f; stroke-width: 4.5; stroke-linecap: square"/>
   </g>
   <g id="line2d_11">
    <path d="M 194.601042 267.835554 
L 194.601042 55.829361 
" clip-path="url(#pf9954e6ab0)" style="fill: none; stroke: #3f3f3f; stroke-width: 1.5; stroke-linecap: square"/>
   </g>
   <g id="line2d_12">
    <path d="M 194.601042 225.843877 
L 194.601042 80.326619 
" clip-path="url(#pf9954e6ab0)" style="fill: none; stroke: #3f3f3f; stroke-width: 4.5; stroke-linecap: square"/>
   </g>
   <g id="line2d_13">
    <path d="M 295.147569 260.808813 
L 295.147569 188.495595 
" clip-path="url(#pf9954e6ab0)" style="fill: none; stroke: #3f3f3f; stroke-width: 1.5; stroke-linecap: square"/>
   </g>
   <g id="line2d_14">
    <path d="M 295.147569 242.343986 
L 295.147569 217.544365 
" clip-path="url(#pf9954e6ab0)" style="fill: none; stroke: #3f3f3f; stroke-width: 4.5; stroke-linecap: square"/>
   </g>
   <g id="patch_5">
    <path d="M 43.78125 314.6 
L 43.78125 7.2 
" style="fill: none; stroke: #000000; stroke-width: 0.8; stroke-linejoin: miter; stroke-linecap: square"/>
   </g>
   <g id="patch_6">
    <path d="M 43.78125 314.6 
L 345.420833 314.6 
" style="fill: none; stroke: #000000; stroke-width: 0.8; stroke-linejoin: miter; stroke-linecap: square"/>
   </g>
   <g id="PathCollection_1">
    <defs>
     <path id="me8df71086b" d="M 0 1.5 
C 0.397805 1.5 0.77937 1.341951 1.06066 1.06066 
C 1.341951 0.77937 1.5 0.397805 1.5 0 
C 1.5 -0.397805 1.341951 -0.77937 1.06066 -1.06066 
C 0.77937 -1.341951 0.397805 -1.5 0 -1.5 
C -0.397805 -1.5 -0.77937 -1.341951 -1.06066 -1.06066 
C -1.341951 -0.77937 -1.5 -0.397805 -1.5 0 
C -1.5 0.397805 -1.341951 0.77937 -1.06066 1.06066 
C -0.77937 1.341951 -0.397805 1.5 0 1.5 
z
" style="stroke: #3f3f3f"/>
    </defs>
    <g clip-path="url(#pf9954e6ab0)">
     <use xlink:href="#me8df71086b" x="94.054514" y="245.0867" style="fill: #ffffff; stroke: #3f3f3f"/>
    </g>
   </g>
   <g id="PathCollection_2">
    <g clip-path="url(#pf9954e6ab0)">
     <use xlink:href="#me8df71086b" x="194.601042" y="127.795413" style="fill: #ffffff; stroke: #3f3f3f"/>
    </g>
   </g>
   <g id="PathCollection_3">
    <g clip-path="url(#pf9954e6ab0)">
     <use xlink:href="#me8df71086b" x="295.147569" y="220.975215" style="fill: #ffffff; stroke: #3f3f3f"/>
    </g>
   </g>
  </g>
  <g id="legend_1">
   <g id="text_11">
    <!-- dim -->
    <g transform="translate(361.669271 164.159375)scale(0.1 -0.1)">
     <defs>
      <path id="DejaVuSans-64" d="M 2906 2969 
L 2906 4863 
L 3481 4863 
L 3481 0 
L 2906 0 
L 2906 525 
Q 2725 213 2448 61 
Q 2172 -91 1784 -91 
Q 1150 -91 751 415 
Q 353 922 353 1747 
Q 353 2572 751 3078 
Q 1150 3584 1784 3584 
Q 2172 3584 2448 3432 
Q 2725 3281 2906 2969 
z
M 947 1747 
Q 947 1113 1208 752 
Q 1469 391 1925 391 
Q 2381 391 2643 752 
Q 2906 1113 2906 1747 
Q 2906 2381 2643 2742 
Q 2381 3103 1925 3103 
Q 1469 3103 1208 2742 
Q 947 2381 947 1747 
z
" transform="scale(0.015625)"/>
      <path id="DejaVuSans-69" d="M 603 3500 
L 1178 3500 
L 1178 0 
L 603 0 
L 603 3500 
z
M 603 4863 
L 1178 4863 
L 1178 4134 
L 603 4134 
L 603 4863 
z
" transform="scale(0.015625)"/>
      <path id="DejaVuSans-6d" d="M 3328 2828 
Q 3544 3216 3844 3400 
Q 4144 3584 4550 3584 
Q 5097 3584 5394 3201 
Q 5691 2819 5691 2113 
L 5691 0 
L 5113 0 
L 5113 2094 
Q 5113 2597 4934 2840 
Q 4756 3084 4391 3084 
Q 3944 3084 3684 2787 
Q 3425 2491 3425 1978 
L 3425 0 
L 2847 0 
L 2847 2094 
Q 2847 2600 2669 2842 
Q 2491 3084 2119 3084 
Q 1678 3084 1418 2786 
Q 1159 2488 1159 1978 
L 1159 0 
L 581 0 
L 581 3500 
L 1159 3500 
L 1159 2956 
Q 1356 3278 1631 3431 
Q 1906 3584 2284 3584 
Q 2666 3584 2933 3390 
Q 3200 3197 3328 2828 
z
" transform="scale(0.015625)"/>
     </defs>
     <use xlink:href="#DejaVuSans-64"/>
     <use xlink:href="#DejaVuSans-69" x="63.476562"/>
     <use xlink:href="#DejaVuSans-6d" x="91.259766"/>
    </g>
   </g>
   <g id="patch_7">
    <path d="M 350.747396 178.8375 
L 370.747396 178.8375 
L 370.747396 171.8375 
L 350.747396 171.8375 
z
" style="fill: #3274a1; stroke: #3f3f3f; stroke-width: 0.75; stroke-linejoin: miter"/>
   </g>
   <g id="text_12">
    <!-- 2d -->
    <g transform="translate(378.747396 178.8375)scale(0.1 -0.1)">
     <use xlink:href="#DejaVuSans-32"/>
     <use xlink:href="#DejaVuSans-64" x="63.623047"/>
    </g>
   </g>
   <g id="patch_8">
    <path d="M 350.747396 193.515625 
L 370.747396 193.515625 
L 370.747396 186.515625 
L 350.747396 186.515625 
z
" style="fill: #e1812c; stroke: #3f3f3f; stroke-width: 0.75; stroke-linejoin: miter"/>
   </g>
   <g id="text_13">
    <!-- 3d -->
    <g transform="translate(378.747396 193.515625)scale(0.1 -0.1)">
     <defs>
      <path id="DejaVuSans-33" d="M 2597 2516 
Q 3050 2419 3304 2112 
Q 3559 1806 3559 1356 
Q 3559 666 3084 287 
Q 2609 -91 1734 -91 
Q 1441 -91 1130 -33 
Q 819 25 488 141 
L 488 750 
Q 750 597 1062 519 
Q 1375 441 1716 441 
Q 2309 441 2620 675 
Q 2931 909 2931 1356 
Q 2931 1769 2642 2001 
Q 2353 2234 1838 2234 
L 1294 2234 
L 1294 2753 
L 1863 2753 
Q 2328 2753 2575 2939 
Q 2822 3125 2822 3475 
Q 2822 3834 2567 4026 
Q 2313 4219 1838 4219 
Q 1578 4219 1281 4162 
Q 984 4106 628 3988 
L 628 4550 
Q 988 4650 1302 4700 
Q 1616 4750 1894 4750 
Q 2613 4750 3031 4423 
Q 3450 4097 3450 3541 
Q 3450 3153 3228 2886 
Q 3006 2619 2597 2516 
z
" transform="scale(0.015625)"/>
     </defs>
     <use xlink:href="#DejaVuSans-33"/>
     <use xlink:href="#DejaVuSans-64" x="63.623047"/>
    </g>
   </g>
  </g>
 </g>
 <defs>
  <clipPath id="pf9954e6ab0">
   <rect x="43.78125" y="7.2" width="301.639583" height="307.4"/>
  </clipPath>
 </defs>
</svg>
